<svg width="24" height="24" viewBox="0 0 24 24" fill="none" xmlns="http://www.w3.org/2000/svg">
<rect x="1.5" y="1.5" width="21" height="21" rx="6" fill="url(#paint0_radial_478_2987)"/>
<rect x="1.5" y="1.5" width="21" height="21" rx="6" fill="url(#paint1_radial_478_2987)"/>
<rect x="1.5" y="1.5" width="21" height="21" rx="6" fill="url(#paint2_radial_478_2987)"/>
<path d="M17.25 7.875C17.25 8.49632 16.7463 9 16.125 9C15.5037 9 15 8.49632 15 7.875C15 7.25368 15.5037 6.75 16.125 6.75C16.7463 6.75 17.25 7.25368 17.25 7.875Z" fill="white"/>
<path fill-rule="evenodd" clip-rule="evenodd" d="M12 15.75C14.0711 15.75 15.75 14.0711 15.75 12C15.75 9.92893 14.0711 8.25 12 8.25C9.92893 8.25 8.25 9.92893 8.25 12C8.25 14.0711 9.92893 15.75 12 15.75ZM12 14.25C13.2426 14.25 14.25 13.2426 14.25 12C14.25 10.7574 13.2426 9.75 12 9.75C10.7574 9.75 9.75 10.7574 9.75 12C9.75 13.2426 10.7574 14.25 12 14.25Z" fill="white"/>
<path fill-rule="evenodd" clip-rule="evenodd" d="M4.5 11.7C4.5 9.17976 4.5 7.91965 4.99047 6.95704C5.4219 6.11031 6.11031 5.4219 6.95704 4.99047C7.91965 4.5 9.17976 4.5 11.7 4.5H12.3C14.8202 4.5 16.0804 4.5 17.043 4.99047C17.8897 5.4219 18.5781 6.11031 19.0095 6.95704C19.5 7.91965 19.5 9.17976 19.5 11.7V12.3C19.5 14.8202 19.5 16.0804 19.0095 17.043C18.5781 17.8897 17.8897 18.5781 17.043 19.0095C16.0804 19.5 14.8202 19.5 12.3 19.5H11.7C9.17976 19.5 7.91965 19.5 6.95704 19.0095C6.11031 18.5781 5.4219 17.8897 4.99047 17.043C4.5 16.0804 4.5 14.8202 4.5 12.3V11.7ZM11.7 6H12.3C13.5849 6 14.4583 6.00117 15.1334 6.05633C15.7911 6.11006 16.1274 6.20745 16.362 6.32698C16.9265 6.6146 17.3854 7.07354 17.673 7.63803C17.7926 7.87263 17.8899 8.20893 17.9437 8.86656C17.9988 9.54169 18 10.4151 18 11.7V12.3C18 13.5849 17.9988 14.4583 17.9437 15.1334C17.8899 15.7911 17.7926 16.1274 17.673 16.362C17.3854 16.9265 16.9265 17.3854 16.362 17.673C16.1274 17.7926 15.7911 17.8899 15.1334 17.9437C14.4583 17.9988 13.5849 18 12.3 18H11.7C10.4151 18 9.54169 17.9988 8.86656 17.9437C8.20893 17.8899 7.87263 17.7926 7.63803 17.673C7.07354 17.3854 6.6146 16.9265 6.32698 16.362C6.20745 16.1274 6.11006 15.7911 6.05633 15.1334C6.00117 14.4583 6 13.5849 6 12.3V11.7C6 10.4151 6.00117 9.54169 6.05633 8.86656C6.11006 8.20893 6.20745 7.87263 6.32698 7.63803C6.6146 7.07354 7.07354 6.6146 7.63803 6.32698C7.87263 6.20745 8.20893 6.11006 8.86656 6.05633C9.54169 6.00117 10.4151 6 11.7 6Z" fill="white"/>
<defs>
<radialGradient id="paint0_radial_478_2987" cx="0" cy="0" r="1" gradientUnits="userSpaceOnUse" gradientTransform="translate(9 17.25) rotate(-55.3758) scale(19.1397)">
<stop stop-color="#B13589"/>
<stop offset="0.79309" stop-color="#C62F94"/>
<stop offset="1" stop-color="#8A3AC8"/>
</radialGradient>
<radialGradient id="paint1_radial_478_2987" cx="0" cy="0" r="1" gradientUnits="userSpaceOnUse" gradientTransform="translate(8.25 23.25) rotate(-65.1363) scale(16.9457)">
<stop stop-color="#E0E8B7"/>
<stop offset="0.444662" stop-color="#FB8A2E"/>
<stop offset="0.71474" stop-color="#E2425C"/>
<stop offset="1" stop-color="#E2425C" stop-opacity="0"/>
</radialGradient>
<radialGradient id="paint2_radial_478_2987" cx="0" cy="0" r="1" gradientUnits="userSpaceOnUse" gradientTransform="translate(0.375001 2.25) rotate(-8.1301) scale(29.1682 6.23877)">
<stop offset="0.156701" stop-color="#406ADC"/>
<stop offset="0.467799" stop-color="#6A45BE"/>
<stop offset="1" stop-color="#6A45BE" stop-opacity="0"/>
</radialGradient>
</defs>
</svg>
