<svg width="24" height="24" viewBox="0 0 24 24" fill="none" xmlns="http://www.w3.org/2000/svg">
<path d="M22.5 14.25C22.5 9 19.875 5.25 16.5 5.25C13.875 5.25 12 8.25 12 8.25C10.5 10.5 10.5 14.625 12.75 10.125C12.75 10.125 14.625 7.125 16.5 7.125C19.125 7.125 20.5082 11.625 20.5082 14.25C20.5082 15 20.25 16.5 18.75 16.5V18.75C20.25 18.75 22.5 17.625 22.5 14.25Z" fill="url(#paint0_radial_478_2992)"/>
<path d="M7.5 5.25V7.5C5.1 7.8 3.75 11.625 3.75 14.25C3.75 15 4.125 16.5 5.25 16.5C7.125 16.5 9.28104 12.36 11.25 9.33194C12.2952 7.72447 13.3356 9.10469 12.5423 10.5C10.6626 13.8061 8.78026 18.75 5.25 18.75C3.75 18.75 1.5 17.625 1.5 14.25C1.5 7.5 5.625 5.25 7.5 5.25Z" fill="url(#paint1_radial_478_2992)"/>
<path d="M18.75 16.5C16.125 16.5 13.125 5.25 7.5 5.25V7.5C12 7.5 13.875 18.75 18.75 18.75V16.5Z" fill="#0768E1"/>
<defs>
<radialGradient id="paint0_radial_478_2992" cx="0" cy="0" r="1" gradientUnits="userSpaceOnUse" gradientTransform="translate(18.75 18) rotate(-101.31) scale(13.3849 10.4105)">
<stop stop-color="#0768E1"/>
<stop offset="1" stop-color="#0082FB"/>
</radialGradient>
<radialGradient id="paint1_radial_478_2992" cx="0" cy="0" r="1" gradientUnits="userSpaceOnUse" gradientTransform="translate(7.5 6.75) rotate(154.537) scale(8.72228 4.57476)">
<stop stop-color="#0768E1"/>
<stop offset="1" stop-color="#0082FB"/>
</radialGradient>
</defs>
</svg>
