<svg width="24" height="24" viewBox="0 0 24 24" fill="none" xmlns="http://www.w3.org/2000/svg">
<path d="M6.33822 14.8445C6.45542 13.8741 6.85342 13.3307 7.60344 12.7737C8.67659 12.0194 10.0171 12.4461 10.0171 12.4461V9.91474C10.343 9.90641 10.669 9.92573 10.9914 9.97247V13.2301C10.9914 13.2301 9.65125 12.8034 8.5781 13.5581C7.82849 14.1147 7.42967 14.6584 7.31288 15.6289C7.30921 16.1558 7.4081 16.8446 7.86349 17.4402C7.7509 17.3825 7.63614 17.3167 7.5192 17.2429C6.51606 16.5692 6.33333 15.5586 6.33822 14.8445ZM16.5264 5.23424C15.7881 4.42529 15.509 3.60854 15.4081 3.03479H16.3367C16.3367 3.03479 16.1516 4.53918 17.501 6.01861L17.5197 6.0385C17.156 5.80972 16.8225 5.53968 16.5264 5.23424ZM21 7.52768V10.7198C21 10.7198 19.815 10.6734 18.938 10.4503C17.7135 10.1382 16.9264 9.65965 16.9264 9.65965C16.9264 9.65965 16.3827 9.31837 16.3388 9.29457V15.8863C16.3388 16.2533 16.2382 17.1699 15.9318 17.9344C15.5318 18.9345 14.9144 19.5909 14.8009 19.7251C14.8009 19.7251 14.05 20.6124 12.7254 21.21C11.5314 21.749 10.4831 21.7354 10.1697 21.749C10.1697 21.749 8.35753 21.8208 6.72686 20.761C6.37424 20.5275 6.04508 20.2629 5.74365 19.9708L5.75179 19.9767C7.38287 21.0364 9.19464 20.9646 9.19464 20.9646C9.5084 20.951 10.5567 20.9646 11.7503 20.4256C13.0738 19.828 13.8258 18.9407 13.8258 18.9407C13.9381 18.8065 14.5583 18.1501 14.9567 17.1496C15.2624 16.3855 15.3637 15.4685 15.3637 15.1015V8.51059C15.4076 8.53477 15.9509 8.87606 15.9509 8.87606C15.9509 8.87606 16.7384 9.35503 17.9629 9.66667C18.8403 9.88978 20.025 9.93619 20.025 9.93619V7.43485C20.4303 7.52573 20.7758 7.55031 21 7.52768Z" fill="#EE1D52"/>
<path d="M20.0252 7.43485V9.93541C20.0252 9.93541 18.8405 9.889 17.9631 9.66589C16.7386 9.35386 15.9511 8.87528 15.9511 8.87528C15.9511 8.87528 15.4078 8.53399 15.3639 8.50981V15.1023C15.3639 15.4693 15.2634 16.3863 14.9569 17.1504C14.5569 18.1509 13.9395 18.8073 13.826 18.9415C13.826 18.9415 13.0747 19.8288 11.7505 20.4264C10.5569 20.9654 9.50859 20.9518 9.19483 20.9654C9.19483 20.9654 7.38306 21.0372 5.75198 19.9774L5.74384 19.9716C5.57163 19.8048 5.40953 19.6288 5.25834 19.4442C4.73784 18.8096 4.41879 18.0592 4.33862 17.8451C4.33848 17.8442 4.33848 17.8433 4.33862 17.8423C4.20961 17.4702 3.93858 16.5767 3.97561 15.7112C4.04113 14.1841 4.57831 13.2469 4.72034 13.0121C5.09649 12.3718 5.58572 11.7989 6.16626 11.3189C6.67855 10.9047 7.25921 10.5752 7.88443 10.3438C8.56031 10.0721 9.28406 9.92649 10.0169 9.91474V12.4461C10.0169 12.4461 8.67636 12.021 7.60363 12.7737C6.85361 13.3307 6.4556 13.8741 6.3384 14.8445C6.33352 15.5586 6.51624 16.5692 7.51857 17.2432C7.63551 17.3173 7.75027 17.3831 7.86286 17.4406C8.03797 17.6682 8.25109 17.8666 8.49364 18.0276C9.47278 18.6474 10.2932 18.6907 11.3423 18.2882C12.0419 18.019 12.5685 17.4125 12.8127 16.7405C12.9661 16.3208 12.9641 15.8984 12.9641 15.4615V3.03479H15.4058C15.5067 3.60854 15.7859 4.42529 16.5241 5.23424C16.8202 5.53968 17.1538 5.80972 17.5175 6.0385C17.6249 6.14967 18.1743 6.69923 18.8796 7.03662C19.2442 7.21102 19.6286 7.34464 20.0252 7.43485V7.43485Z" fill="black"/>
<path d="M3.36719 17.0677V17.0697L3.42778 17.2339C3.42082 17.2148 3.3983 17.1567 3.36719 17.0677Z" fill="#69C9D0"/>
<path d="M7.88461 10.3437C7.25939 10.5751 6.67873 10.9047 6.16644 11.3188C5.58572 11.7999 5.09661 12.374 4.72094 13.0155C4.57891 13.2495 4.04172 14.1876 3.9762 15.7146C3.93917 16.5801 4.2102 17.4737 4.33921 17.8458C4.33907 17.8467 4.33907 17.8476 4.33921 17.8485C4.4206 18.0607 4.73843 18.8112 5.25893 19.4477C5.41012 19.6322 5.57222 19.8083 5.74443 19.975C5.19268 19.6093 4.7006 19.1671 4.28427 18.6629C3.76825 18.0338 3.45001 17.2912 3.36699 17.072C3.36689 17.0704 3.36689 17.0688 3.36699 17.0673V17.0645C3.23758 16.6928 2.96573 15.7989 3.00358 14.9322C3.0691 13.4052 3.60628 12.4679 3.74831 12.2331C4.12388 11.5915 4.613 11.0174 5.19382 10.5364C5.706 10.1221 6.28669 9.79254 6.91199 9.56131C7.30202 9.40621 7.70833 9.29179 8.1239 9.22002C8.75019 9.11524 9.38984 9.10616 10.0191 9.19311V9.91469C9.2856 9.92619 8.56113 10.0718 7.88461 10.3437Z" fill="#69C9D0"/>
<path d="M15.4078 3.03476H12.9661V15.4619C12.9661 15.8987 12.9661 16.32 12.8147 16.7408C12.5681 17.4125 12.0435 18.019 11.3444 18.2881C10.2948 18.6922 9.47442 18.6474 8.49569 18.0276C8.25273 17.8673 8.03905 17.6696 7.86328 17.4425C8.69713 17.8688 9.44349 17.8614 10.3681 17.5057C11.0668 17.2366 11.5922 16.6301 11.838 15.958C11.9919 15.5383 11.9898 15.1159 11.9898 14.6795V2.25H15.3615C15.3615 2.25 15.3236 2.55891 15.4078 3.03476ZM20.0252 6.74328V7.43483C19.6293 7.34447 19.2456 7.21085 18.8816 7.0366C18.1764 6.69921 17.627 6.14964 17.5195 6.03848C17.6442 6.11693 17.7736 6.1883 17.907 6.25222C18.7644 6.66255 19.6089 6.78502 20.0252 6.74328Z" fill="#69C9D0"/>
</svg>
