<svg width="24" height="24" viewBox="0 0 24 24" fill="none" xmlns="http://www.w3.org/2000/svg">
<path d="M8.08179 21C5.65554 21 3.39386 20.3045 1.49023 19.1046C3.10648 19.2077 5.95879 18.9608 7.73292 17.2931C5.06404 17.1724 3.86043 15.1552 3.70344 14.2931C3.93021 14.3793 5.01171 14.4828 5.62224 14.2414C2.55216 13.4828 2.08118 10.8276 2.18584 10.0172C2.76148 10.4138 3.73833 10.5517 4.12209 10.5172C1.26133 8.5 2.2905 5.46552 2.79637 4.81034C4.84935 7.61336 7.92614 9.18764 11.7325 9.27521C11.6608 8.965 11.6228 8.64205 11.6228 8.31034C11.6228 5.92981 13.5753 4 15.9838 4C17.2421 4 18.376 4.52682 19.172 5.36949C20.0129 5.1753 21.2785 4.7207 21.8972 4.32759C21.5853 5.43103 20.6144 6.35154 20.0272 6.69271C20.032 6.70432 20.0224 6.68105 20.0272 6.69271C20.543 6.61581 21.9388 6.35145 22.4902 5.98276C22.2175 6.60266 21.1882 7.63336 20.3435 8.2104C20.5007 15.0412 15.1976 21 8.08179 21Z" fill="#47ACDF"/>
</svg>
