<svg width="24" height="24" viewBox="0 0 24 24" fill="none" xmlns="http://www.w3.org/2000/svg">
<path d="M21 9H22V8H21V9ZM21 19.4V20.4H22V19.4H21ZM12 11.6L11.4342 12.4246L12 12.8127L12.5658 12.4246L12 11.6ZM12 22L11.4342 22.8246L12 23.2127L12.5658 22.8246L12 22ZM3 9V8H2V9H3ZM3 19.4H2V20.4H3V19.4ZM20 9V19.4H22V9H20ZM12 11.6C12.5658 12.4246 12.5655 12.4247 12.5653 12.4249C12.5652 12.4249 12.565 12.4251 12.5649 12.4252C12.5647 12.4253 12.5645 12.4254 12.5644 12.4255C12.5641 12.4257 12.5641 12.4257 12.5643 12.4255C12.5648 12.4252 12.5661 12.4243 12.5683 12.4228C12.5728 12.4198 12.5808 12.4145 12.5924 12.4069C12.6154 12.3918 12.6524 12.3679 12.7029 12.3364C12.8037 12.2734 12.9579 12.1802 13.1609 12.0669C13.5673 11.8401 14.1667 11.5337 14.9227 11.2264C16.4385 10.61 18.5584 10 21 10V8C18.2311 8 15.8509 8.68996 14.1694 9.37364C13.3267 9.71628 12.6531 10.0599 12.1861 10.3206C11.9524 10.451 11.7699 10.561 11.6432 10.6402C11.5798 10.6798 11.5303 10.7117 11.4953 10.7347C11.4778 10.7462 11.4639 10.7554 11.4537 10.7622C11.4486 10.7657 11.4444 10.7685 11.4412 10.7707C11.4396 10.7718 11.4382 10.7727 11.437 10.7735C11.4364 10.7739 11.4359 10.7743 11.4355 10.7746C11.4352 10.7748 11.4349 10.775 11.4348 10.775C11.4345 10.7752 11.4342 10.7754 12 11.6ZM21 18.4C18.2311 18.4 15.8509 19.09 14.1694 19.7736C13.3267 20.1163 12.6531 20.4599 12.1861 20.7206C11.9524 20.851 11.7699 20.961 11.6432 21.0402C11.5798 21.0798 11.5303 21.1117 11.4953 21.1347C11.4778 21.1462 11.4639 21.1554 11.4537 21.1622C11.4486 21.1657 11.4444 21.1685 11.4412 21.1707C11.4396 21.1718 11.4382 21.1727 11.437 21.1735C11.4364 21.1739 11.4359 21.1743 11.4355 21.1746C11.4352 21.1748 11.4349 21.175 11.4348 21.175C11.4345 21.1752 11.4342 21.1754 12 22C12.5658 22.8246 12.5655 22.8247 12.5653 22.8249C12.5652 22.8249 12.565 22.8251 12.5649 22.8252C12.5647 22.8253 12.5645 22.8254 12.5644 22.8255C12.5641 22.8257 12.5641 22.8257 12.5643 22.8255C12.5648 22.8252 12.5661 22.8243 12.5683 22.8228C12.5728 22.8198 12.5808 22.8145 12.5924 22.8069C12.6154 22.7918 12.6524 22.7679 12.7029 22.7364C12.8037 22.6734 12.9579 22.5802 13.1609 22.4669C13.5673 22.2401 14.1667 21.9337 14.9227 21.6264C16.4385 21.01 18.5584 20.4 21 20.4V18.4ZM2 9V19.4H4V9H2ZM12 11.6C12.5658 10.7754 12.5655 10.7752 12.5652 10.775C12.5651 10.775 12.5648 10.7748 12.5645 10.7746C12.5641 10.7743 12.5636 10.7739 12.563 10.7735C12.5618 10.7727 12.5604 10.7718 12.5588 10.7707C12.5556 10.7685 12.5514 10.7657 12.5463 10.7622C12.5361 10.7554 12.5222 10.7462 12.5047 10.7347C12.4697 10.7117 12.4202 10.6798 12.3568 10.6402C12.2301 10.561 12.0476 10.451 11.8139 10.3206C11.3469 10.0599 10.6733 9.71628 9.83059 9.37364C8.14906 8.68996 5.7689 8 3 8V10C5.44163 10 7.56147 10.61 9.0773 11.2264C9.83327 11.5337 10.4327 11.8401 10.8391 12.0669C11.0421 12.1802 11.1963 12.2734 11.2971 12.3364C11.3476 12.3679 11.3846 12.3918 11.4076 12.4069C11.4192 12.4145 11.4272 12.4198 11.4317 12.4228C11.4339 12.4243 11.4352 12.4252 11.4357 12.4255C11.4359 12.4257 11.4359 12.4257 11.4356 12.4255C11.4355 12.4254 11.4353 12.4253 11.4351 12.4252C11.435 12.4251 11.4348 12.4249 11.4347 12.4249C11.4345 12.4247 11.4342 12.4246 12 11.6ZM3 20.4C5.44163 20.4 7.56147 21.01 9.0773 21.6264C9.83327 21.9337 10.4327 22.2401 10.8391 22.4669C11.0421 22.5802 11.1963 22.6734 11.2971 22.7364C11.3476 22.7679 11.3846 22.7918 11.4076 22.8069C11.4192 22.8145 11.4272 22.8198 11.4317 22.8228C11.4339 22.8243 11.4352 22.8252 11.4357 22.8255C11.4359 22.8257 11.4359 22.8257 11.4356 22.8255C11.4355 22.8254 11.4353 22.8253 11.4351 22.8252C11.435 22.8251 11.4348 22.8249 11.4347 22.8249C11.4345 22.8247 11.4342 22.8246 12 22C12.5658 21.1754 12.5655 21.1752 12.5652 21.175C12.5651 21.175 12.5648 21.1748 12.5645 21.1746C12.5641 21.1743 12.5636 21.1739 12.563 21.1735C12.5618 21.1727 12.5604 21.1718 12.5588 21.1707C12.5556 21.1685 12.5514 21.1657 12.5463 21.1622C12.5361 21.1554 12.5222 21.1462 12.5047 21.1347C12.4697 21.1117 12.4202 21.0798 12.3568 21.0402C12.2301 20.961 12.0476 20.851 11.8139 20.7206C11.3469 20.4599 10.6733 20.1163 9.83059 19.7736C8.14906 19.09 5.7689 18.4 3 18.4V20.4ZM14 5C14 6.10457 13.1046 7 12 7V9C14.2091 9 16 7.20914 16 5H14ZM12 7C10.8954 7 10 6.10457 10 5H8C8 7.20914 9.79086 9 12 9V7ZM10 5C10 3.89543 10.8954 3 12 3V1C9.79086 1 8 2.79086 8 5H10ZM12 3C13.1046 3 14 3.89543 14 5H16C16 2.79086 14.2091 1 12 1V3Z" fill="#555770"/>
</svg>
