<svg width="24" height="24" viewBox="0 0 24 24" fill="none" xmlns="http://www.w3.org/2000/svg">
<path d="M11 8.61805L11.6669 7.87292L11.6669 7.87292L11 8.61805ZM13 8.61805L12.3331 7.87292L12.3331 7.87292L13 8.61805ZM11.5 7.5C11.5 7.28386 11.6377 7.09731 11.8332 7.02819L11.1668 5.14251C10.1971 5.48523 9.5 6.40992 9.5 7.5H11.5ZM11.8332 7.02819C11.8841 7.01022 11.9398 7 12 7V5C11.7096 5 11.4287 5.04993 11.1668 5.14251L11.8332 7.02819ZM12.5 6.08535V3.1H10.5V6.08535H12.5ZM12 8C11.8713 8 11.756 7.95269 11.6669 7.87292L10.3331 9.36319C10.7747 9.75846 11.3603 10 12 10V8ZM11.6669 7.87292C11.563 7.77994 11.5 7.64799 11.5 7.5H9.5C9.5 8.24051 9.82323 8.90685 10.3331 9.36319L11.6669 7.87292ZM10.0633 8.26805L5.06325 21.65L6.93675 22.35L11.9367 8.96806L10.0633 8.26805ZM12.5 3.1C12.5 3.59706 12.0971 4 11.6 4V2C10.9925 2 10.5 2.49249 10.5 3.1H12.5ZM14.5 7.5C14.5 6.40992 13.8029 5.48523 12.8332 5.14251L12.1668 7.02819C12.3623 7.09731 12.5 7.28386 12.5 7.5H14.5ZM12.8332 5.14251C12.5713 5.04993 12.2904 5 12 5V7C12.0602 7 12.1159 7.01022 12.1668 7.02819L12.8332 5.14251ZM13.5 6.08535V3.1H11.5V6.08535H13.5ZM12 10C12.6397 10 13.2253 9.75846 13.6669 9.36319L12.3331 7.87292C12.244 7.95269 12.1287 8 12 8V10ZM13.6669 9.36319C14.1768 8.90685 14.5 8.24051 14.5 7.5H12.5C12.5 7.64799 12.437 7.77994 12.3331 7.87292L13.6669 9.36319ZM12.0633 8.96806L17.0633 22.35L18.9367 21.65L13.9367 8.26805L12.0633 8.96806ZM13.5 3.1C13.5 2.49249 13.0075 2 12.4 2V4C11.9029 4 11.5 3.59706 11.5 3.1H13.5ZM11.6 4H12.4V2H11.6V4ZM16.2858 11.1991C15.1956 12.3116 13.6791 13 12 13V15C14.2383 15 16.2634 14.0795 17.7142 12.5989L16.2858 11.1991ZM12 13C10.3209 13 8.80442 12.3116 7.71424 11.1991L6.28576 12.5989C7.73661 14.0795 9.76171 15 12 15V13Z" fill="#555770"/>
</svg>
