<svg width="24" height="24" viewBox="0 0 24 24" fill="none" xmlns="http://www.w3.org/2000/svg">
<path d="M9.5 11.5L10.2682 10.8598L9.78354 10.2782L9.09224 10.5869L9.5 11.5ZM12 14.5L11.2318 15.1402L11.7801 15.7981L12.5145 15.3575L12 14.5ZM17 15C17 17.7614 14.7614 20 12 20V22C15.866 22 19 18.866 19 15H17ZM12 20C9.23858 20 7 17.7614 7 15H5C5 18.866 8.13401 22 12 22V20ZM7 15C7 14.4781 7.04092 13.836 7.13278 13.1288L5.14944 12.8712C5.04805 13.6517 5 14.3806 5 15H7ZM7.13278 13.1288C7.35578 11.4121 7.864 9.42475 8.72005 7.89825C9.5797 6.36532 10.6595 5.5 12 5.5V3.5C9.61542 3.5 7.99803 5.09685 6.97563 6.91999C5.94961 8.74958 5.39092 11.0122 5.14944 12.8712L7.13278 13.1288ZM6.54887 13.9131L9.90776 12.4131L9.09224 10.5869L5.73335 12.0869L6.54887 13.9131ZM8.73178 12.1402L11.2318 15.1402L12.7682 13.8598L10.2682 10.8598L8.73178 12.1402ZM12.5145 15.3575L15.0145 13.8575L13.9855 12.1425L11.4855 13.6425L12.5145 15.3575ZM12 5.5C13.2722 5.5 14.3047 6.27586 15.1441 7.66491L16.8559 6.6305C15.8305 4.93367 14.2565 3.5 12 3.5V5.5ZM15.1441 7.66491C16.4633 9.84778 17 13.0934 17 15H19C19 12.8777 18.4281 9.23215 16.8559 6.6305L15.1441 7.66491ZM15.4746 6.29683L12.4746 8.14912L13.5254 9.85088L16.5254 7.99859L15.4746 6.29683Z" fill="#555770"/>
</svg>
