<svg width="24" height="24" viewBox="0 0 24 24" fill="none" xmlns="http://www.w3.org/2000/svg">
<path d="M1 22H5V20H1V22ZM5.1 10H13.9V8H5.1V10ZM5 22H14V20H5V22ZM14 22H18V20H14V22ZM13 9.1V17H15V9.1H13ZM13 17V21H15V17H13ZM6 21V17H4V21H6ZM6 17V9.1H4V17H6ZM14 16H5V18H14V16ZM15.092 3.41906L16.0151 5.41906L17.831 4.58094L16.908 2.58094L15.092 3.41906ZM16.6444 6.78248L21.092 16.4191L22.908 15.5809L18.4603 5.94437L16.6444 6.78248ZM13.9 10C13.4029 10 13 9.59706 13 9.1H15C15 8.49248 14.5075 8 13.9 8V10ZM5.1 8C4.49249 8 4 8.49249 4 9.1H6C6 9.59706 5.59706 10 5.1 10V8Z" fill="#555770"/>
</svg>
