<svg width="24" height="24" viewBox="0 0 24 24" fill="none" xmlns="http://www.w3.org/2000/svg">
<path d="M6 5H5V6H6V5ZM6 4V3H5V4H6ZM18 5V6H19V5H18ZM18 4H19V3H18V4ZM7 5V6H8V5H7ZM7 4H8V3H7V4ZM17 5H16V6H17V5ZM17 4V3H16V4H17ZM17 8.5V7.5H16V8.5H17ZM18 8.5H19V7.5H18V8.5ZM6 8.5V7.5H5V8.5H6ZM7 8.5H8V7.5H7V8.5ZM17 14C17 16.7614 14.7614 19 12 19V21C15.866 21 19 17.866 19 14H17ZM12 19C9.23858 19 7 16.7614 7 14H5C5 17.866 8.13401 21 12 21V19ZM7 5V4H5V5H7ZM19 5V4H17V5H19ZM16 13.7059C16 16.1321 14.1561 18 12 18V20C15.3668 20 18 17.1274 18 13.7059H16ZM12 18C9.84394 18 8 16.1321 8 13.7059H6C6 17.1274 8.63321 20 12 20V18ZM8 5V4H6V5H8ZM18 5V4H16V5H18ZM7 4H6V6H7V4ZM6 5H7V3H6V5ZM18 4H17V6H18V4ZM17 5H18V3H17V5ZM18 13.7059V8.5H16V13.7059H18ZM19 14V8.5H17V14H19ZM17 9.5H18V7.5H17V9.5ZM7 14V8.5H5V14H7ZM8 13.7059V8.5H6V13.7059H8ZM6 9.5H7V7.5H6V9.5Z" fill="#555770"/>
</svg>
