<svg width="24" height="24" viewBox="0 0 24 24" fill="none" xmlns="http://www.w3.org/2000/svg">
<path d="M5 15.917L4.83454 14.9308L4 15.0708V15.917H5ZM5 19H4V20H5V19ZM5.5 19.5H4.5V20.5H5.5V19.5ZM19 15.917H20V15.0708L19.1655 14.9308L19 15.917ZM19 19V20H20V19H19ZM18.5 19.5V20.5H19.5V19.5H18.5ZM10.2288 6.93012C10.2162 6.9063 10.2041 6.88221 10.1925 6.85785L8.38661 7.71727C8.40987 7.76614 8.43408 7.81446 8.45923 7.86221L10.2288 6.93012ZM10.1925 6.85785C10.0694 6.5991 10 6.30905 10 6H8C8 6.61263 8.13841 7.19573 8.38661 7.71727L10.1925 6.85785ZM10 6C10 4.89543 10.8954 4 12 4V2C9.79086 2 8 3.79086 8 6H10ZM8.39892 7.74223C8.41506 7.77384 8.43094 7.80555 8.44658 7.83734L10.2414 6.95498C10.2213 6.91401 10.2009 6.87331 10.1802 6.83289L8.39892 7.74223ZM8.44658 7.83735C8.78723 8.53026 9 9.25491 9 10H11C11 8.86977 10.6771 7.84124 10.2414 6.95498L8.44658 7.83735ZM9 10C9 12.4765 7.19855 14.5342 4.83454 14.9308L5.16546 16.9033C8.47688 16.3477 11 13.4695 11 10H9ZM4 15.917V19H6V15.917H4ZM5 20H5.5V18H5V20ZM4.5 19V19.5H6.5V19H4.5ZM15.5408 7.86221C15.5659 7.81447 15.5901 7.76615 15.6134 7.71727L13.8075 6.85785C13.7959 6.88221 13.7838 6.9063 13.7712 6.93012L15.5408 7.86221ZM15.6134 7.71727C15.8616 7.19573 16 6.61263 16 6H14C14 6.30905 13.9306 6.5991 13.8075 6.85785L15.6134 7.71727ZM16 6C16 3.79086 14.2091 2 12 2V4C13.1046 4 14 4.89543 14 6H16ZM13.8198 6.83289C13.7991 6.8733 13.7787 6.914 13.7586 6.95498L15.5534 7.83734C15.5691 7.80555 15.5849 7.77385 15.6011 7.74223L13.8198 6.83289ZM13.7586 6.95498C13.3229 7.84124 13 8.86977 13 10H15C15 9.25491 15.2128 8.53026 15.5534 7.83735L13.7586 6.95498ZM13 10C13 13.4695 15.5231 16.3477 18.8345 16.9033L19.1655 14.9308C16.8015 14.5342 15 12.4765 15 10H13ZM18 15.917V19H20V15.917H18ZM19 18H18.5V20H19V18ZM17.5 19V19.5H19.5V19H17.5ZM5.5 20H18.5V18H5.5V20ZM5.5 20.5H18.5V18.5H5.5V20.5Z" fill="#555770"/>
</svg>
