<svg width="24" height="24" viewBox="0 0 24 24" fill="none" xmlns="http://www.w3.org/2000/svg">
<path d="M5.16808 3.97288L4.30488 3.46802L4.30488 3.46802L5.16808 3.97288ZM4.509 5.09974L3.6458 4.59488L3.6458 4.59488L4.509 5.09974ZM5.92603 13.8637L6.86961 14.1948L6.86961 14.1948L5.92603 13.8637ZM5.82582 14.1492L4.88224 13.8181L4.88224 13.8181L5.82582 14.1492ZM5.93234 17.5922L6.85396 17.2041L6.85396 17.2041L5.93234 17.5922ZM7.10461 20.376L8.02622 19.9878L8.02622 19.9878L7.10461 20.376ZM7.82068 20.9696L8.05172 19.9967L8.05172 19.9967L7.82068 20.9696ZM5.00072 9.49507L4.26522 10.1726L4.26522 10.1726L5.00072 9.49507ZM18.8319 3.97288L19.6951 3.46802L19.6951 3.46802L18.8319 3.97288ZM19.491 5.09974L18.6278 5.60461L18.6278 5.60461L19.491 5.09974ZM18.074 13.8637L17.1304 14.1948L17.1304 14.1948L18.074 13.8637ZM18.1742 14.1492L19.1178 13.8181L19.1178 13.8181L18.1742 14.1492ZM18.0677 17.5922L17.146 17.2041L17.146 17.2041L18.0677 17.5922ZM16.8954 20.376L17.817 20.7641L17.817 20.7641L16.8954 20.376ZM16.1793 20.9696L15.9483 19.9967L15.9483 19.9967L16.1793 20.9696ZM18.9993 9.49507L19.7348 10.1726L19.7348 10.1726L18.9993 9.49507ZM14.8839 19.9455L13.8864 19.8755L14.8839 19.9455ZM14.8938 19.7162L13.895 19.7652L14.8938 19.7162ZM9.10625 19.7162L10.105 19.7652L9.10625 19.7162ZM4.30488 3.46802L3.6458 4.59488L5.3722 5.60461L6.03128 4.47775L4.30488 3.46802ZM4.98244 13.5325L4.88224 13.8181L6.76941 14.4803L6.86961 14.1948L4.98244 13.5325ZM5.01073 17.9803L6.18299 20.7641L8.02622 19.9878L6.85396 17.2041L5.01073 17.9803ZM7.58964 21.9426C8.87921 22.2488 10.2114 21.2688 10.1136 19.8755L8.11855 20.0155C8.11779 20.0047 8.12044 19.9925 8.12412 19.9846C8.12692 19.9786 8.12758 19.9805 8.12112 19.9857C8.11483 19.9908 8.10578 19.9955 8.09505 19.9981C8.08593 20.0002 8.0723 20.0016 8.05172 19.9967L7.58964 21.9426ZM6.18299 20.7641C6.43727 21.3679 6.96961 21.7953 7.58964 21.9426L8.05172 19.9967C8.03789 19.9934 8.02949 19.988 8.02562 19.9848C8.02185 19.9817 8.02372 19.9819 8.02622 19.9878L6.18299 20.7641ZM4.88224 13.8181C4.4056 15.1763 4.45158 16.6525 5.01073 17.9803L6.85396 17.2041C6.487 16.3327 6.45749 15.3692 6.76941 14.4803L4.88224 13.8181ZM4.26522 10.1726C5.12304 11.1038 5.38687 12.3801 4.98244 13.5325L6.86961 14.1948C7.52428 12.3293 7.08382 10.2805 5.73621 8.81755L4.26522 10.1726ZM3.6458 4.59488C2.59199 6.39663 2.84804 8.63418 4.26522 10.1726L5.73621 8.81755C4.90596 7.91626 4.76855 6.63671 5.3722 5.60461L3.6458 4.59488ZM6.90879 2C5.84764 2 4.844 2.54626 4.30488 3.46802L6.03128 4.47775C6.19457 4.19856 6.52359 4 6.90879 4V2ZM17.9687 4.47775L18.6278 5.60461L20.3542 4.59488L19.6951 3.46802L17.9687 4.47775ZM17.1304 14.1948L17.2306 14.4803L19.1178 13.8181L19.0176 13.5325L17.1304 14.1948ZM17.146 17.2041L15.9738 19.9878L17.817 20.7641L18.9893 17.9803L17.146 17.2041ZM15.9483 19.9967C15.9277 20.0016 15.9141 20.0002 15.9049 19.9981C15.8942 19.9955 15.8852 19.9908 15.8789 19.9857C15.8724 19.9805 15.8731 19.9786 15.8759 19.9846C15.8796 19.9925 15.8822 20.0047 15.8815 20.0155L13.8864 19.8755C13.7886 21.2688 15.1208 22.2488 16.4104 21.9426L15.9483 19.9967ZM15.9738 19.9878C15.9763 19.9819 15.9782 19.9817 15.9744 19.9848C15.9705 19.988 15.9621 19.9934 15.9483 19.9967L16.4104 21.9426C17.0304 21.7953 17.5627 21.3679 17.817 20.7641L15.9738 19.9878ZM17.2306 14.4803C17.5425 15.3692 17.513 16.3327 17.146 17.2041L18.9893 17.9803C19.5484 16.6525 19.5944 15.1763 19.1178 13.8181L17.2306 14.4803ZM18.2638 8.81755C16.9162 10.2804 16.4757 12.3293 17.1304 14.1948L19.0176 13.5325C18.6131 12.3801 18.877 11.1038 19.7348 10.1726L18.2638 8.81755ZM18.6278 5.60461C19.2315 6.63671 19.094 7.91626 18.2638 8.81755L19.7348 10.1726C21.152 8.63418 21.408 6.39663 20.3542 4.59488L18.6278 5.60461ZM17.0912 4C17.4764 4 17.8054 4.19856 17.9687 4.47775L19.6951 3.46802C19.156 2.54626 18.1524 2 17.0912 2V4ZM17.0912 2H6.90879V4H17.0912V2ZM10.105 19.7652C10.1601 18.6448 10.362 17.039 10.7781 15.744C10.9877 15.0917 11.2298 14.5886 11.4829 14.2676C11.7283 13.9563 11.8981 13.9148 12 13.9148V11.9148C11.0751 11.9148 10.3841 12.431 9.9123 13.0294C9.44821 13.6181 9.11677 14.3767 8.87401 15.1322C8.38537 16.653 8.16732 18.4479 8.10745 19.6671L10.105 19.7652ZM12 13.9148C12.1019 13.9148 12.2717 13.9563 12.5171 14.2676C12.7702 14.5886 13.0123 15.0917 13.2219 15.744C13.638 17.039 13.8399 18.6448 13.895 19.7652L15.8925 19.6671C15.8327 18.4479 15.6146 16.653 15.126 15.1322C14.8832 14.3767 14.5518 13.6181 14.0877 13.0294C13.6159 12.431 12.9249 11.9148 12 11.9148V13.9148ZM15.8815 20.0155C15.8832 19.9905 15.9002 19.8222 15.8925 19.6671L13.895 19.7652C13.8944 19.7535 13.8952 19.752 13.894 19.7717C13.8934 19.7814 13.8926 19.7932 13.8912 19.8112C13.89 19.8267 13.888 19.8517 13.8864 19.8755L15.8815 20.0155ZM10.1136 19.8755C10.112 19.8517 10.11 19.8267 10.1088 19.8112C10.1074 19.7932 10.1066 19.7814 10.106 19.7717C10.1048 19.752 10.1056 19.7535 10.105 19.7652L8.10745 19.6671C8.09984 19.8222 8.11679 19.9905 8.11855 20.0155L10.1136 19.8755Z" fill="#555770"/>
</svg>
