<svg width="24" height="24" viewBox="0 0 24 24" fill="none" xmlns="http://www.w3.org/2000/svg">
<path d="M14 11H15V10H14V11ZM13 11V10H12.5858L12.2929 10.2929L13 11ZM11 13L10.2929 12.2929L9.58579 13L10.2929 13.7071L11 13ZM12 14L11.2929 14.7071L12 15.4142L12.7071 14.7071L12 14ZM14 12L14.7071 12.7071L15 12.4142V12H14ZM20 10V18H22V10H20ZM4 18V10H2V18H4ZM17 9H19V7H17V9ZM19 19H17V21H19V19ZM16 8V20H18V8H16ZM5 9H7V7H5V9ZM17 19H7V21H17V19ZM7 19H5V21H7V19ZM6 8V20H8V8H6ZM7 9H9V7H7V9ZM10 8V7H8V8H10ZM11 6H13V4H11V6ZM9 9H15V7H9V9ZM15 9H17V7H15V9ZM14 7V8H16V7H14ZM14 10H13V12H14V10ZM12.2929 10.2929L10.2929 12.2929L11.7071 13.7071L13.7071 11.7071L12.2929 10.2929ZM10.2929 13.7071L11.2929 14.7071L12.7071 13.2929L11.7071 12.2929L10.2929 13.7071ZM12.7071 14.7071L14.7071 12.7071L13.2929 11.2929L11.2929 13.2929L12.7071 14.7071ZM15 12V11H13V12H15ZM13 6C13.5523 6 14 6.44772 14 7H16C16 5.34315 14.6569 4 13 4V6ZM10 7C10 6.44772 10.4477 6 11 6V4C9.34315 4 8 5.34315 8 7H10ZM2 18C2 19.6569 3.34315 21 5 21V19C4.44772 19 4 18.5523 4 18H2ZM20 18C20 18.5523 19.5523 19 19 19V21C20.6569 21 22 19.6569 22 18H20ZM22 10C22 8.34315 20.6569 7 19 7V9C19.5523 9 20 9.44772 20 10H22ZM4 10C4 9.44772 4.44772 9 5 9V7C3.34315 7 2 8.34315 2 10H4Z" fill="#555770"/>
</svg>
