<svg width="24" height="24" viewBox="0 0 24 24" fill="none" xmlns="http://www.w3.org/2000/svg">
<path d="M12 7V6H11V7H12ZM12 14H11C11 14.3603 11.1938 14.6927 11.5073 14.8702C11.8208 15.0477 12.2056 15.0429 12.5145 14.8575L12 14ZM14.5 12.5L15.0145 11.6425L14.5 11.3338L13.9855 11.6425L14.5 12.5ZM17 14L16.4855 14.8575C16.7944 15.0429 17.1792 15.0477 17.4927 14.8702C17.8062 14.6927 18 14.3603 18 14H17ZM17 7H18V6H17V7ZM11 7V14H13V7H11ZM12.5145 14.8575L15.0145 13.3575L13.9855 11.6425L11.4855 13.1425L12.5145 14.8575ZM13.9855 13.3575L16.4855 14.8575L17.5145 13.1425L15.0145 11.6425L13.9855 13.3575ZM17 6H12V8H17V6ZM18 14V7H16V14H18Z" fill="#555770"/>
<path d="M10.2929 6.70711L10.5858 7H11H20C20.5523 7 21 7.44772 21 8V18C21 18.5523 20.5523 19 20 19H4C3.44772 19 3 18.5523 3 18V6C3 5.44772 3.44772 5 4 5H8.58579L10.2929 6.70711Z" stroke="#555770" stroke-width="2"/>
<mask id="mask0_402_17883" style="mask-type:alpha" maskUnits="userSpaceOnUse" x="1" y="8" width="22" height="14">
<rect x="1" y="22" width="14" height="22" transform="rotate(-90 1 22)" fill="black"/>
</mask>
<g mask="url(#mask0_402_17883)">
<path d="M10.2929 6.70711L10.5858 7H11H20C20.5523 7 21 7.44772 21 8V18C21 18.5523 20.5523 19 20 19H4C3.44772 19 3 18.5523 3 18V6C3 5.44772 3.44772 5 4 5H8.58579L10.2929 6.70711Z" stroke="#3E7BFA" stroke-width="2"/>
</g>
</svg>
