<svg width="24" height="24" viewBox="0 0 24 24" fill="none" xmlns="http://www.w3.org/2000/svg">
<mask id="path-1-inside-1_402_15467" fill="white">
<path d="M19.9571 2.70711L22.2929 5.04289C22.6834 5.43342 22.6834 6.06658 22.2929 6.45711L13.1642 15.5858C12.3832 16.3668 11.1168 16.3668 10.3358 15.5858L9.41421 14.6642C8.63317 13.8832 8.63316 12.6168 9.41421 11.8358L18.5429 2.70711C18.9334 2.31658 19.5666 2.31658 19.9571 2.70711Z"/>
</mask>
<path d="M22.2929 5.04289L23.7071 3.62868V3.62868L22.2929 5.04289ZM19.9571 2.70711L18.5429 4.12132V4.12132L19.9571 2.70711ZM18.5429 2.70711L19.9571 4.12132L19.9571 4.12132L18.5429 2.70711ZM9.41421 11.8358L8 10.4216H8L9.41421 11.8358ZM13.1642 15.5858L11.75 14.1716H11.75L13.1642 15.5858ZM22.2929 6.45711L23.7071 7.87132L23.7071 7.87132L22.2929 6.45711ZM9.41421 14.6642L8 16.0784L8 16.0784L9.41421 14.6642ZM10.3358 15.5858L11.75 14.1716L11.75 14.1716L10.3358 15.5858ZM23.7071 3.62868L21.3713 1.29289L18.5429 4.12132L20.8787 6.45711L23.7071 3.62868ZM17.1287 1.29289L8 10.4216L10.8284 13.25L19.9571 4.12132L17.1287 1.29289ZM14.5784 17L23.7071 7.87132L20.8787 5.04289L11.75 14.1716L14.5784 17ZM8 16.0784L8.92157 17L11.75 14.1716L10.8284 13.25L8 16.0784ZM11.75 14.1716L8.92157 17C10.4837 18.5621 13.0163 18.5621 14.5784 17L11.75 14.1716ZM8 10.4216C6.4379 11.9837 6.4379 14.5163 8 16.0784L10.8284 13.25L10.8284 13.25L8 10.4216ZM20.8787 6.45711C20.4882 6.06658 20.4882 5.43342 20.8787 5.04289L23.7071 7.87132C24.8787 6.69974 24.8787 4.80025 23.7071 3.62868L20.8787 6.45711ZM21.3713 1.29289C20.1997 0.12132 18.3003 0.12132 17.1287 1.29289L19.9571 4.12132C19.5666 4.51185 18.9334 4.51184 18.5429 4.12132L21.3713 1.29289Z" fill="#28293D" mask="url(#path-1-inside-1_402_15467)"/>
<path d="M9 18.5C9 19.8807 7.88071 21 6.5 21H3.49808C3.80413 20.348 4 19.5237 4 18.5C4 17.1193 5.11929 16 6.5 16C7.88071 16 9 17.1193 9 18.5Z" stroke="#28293D" stroke-width="2"/>
</svg>
