<svg width="24" height="24" viewBox="0 0 24 24" fill="none" xmlns="http://www.w3.org/2000/svg">
<mask id="mask0_402_15368" style="mask-type:alpha" maskUnits="userSpaceOnUse" x="0" y="0" width="24" height="24">
<path d="M21.5033 21.5L0.00325155 0L0 24H24V0H5.69812V2.86644L23 20.1683L21.5033 21.5Z" fill="white"/>
</mask>
<g mask="url(#mask0_402_15368)">
<path d="M1.58301 3L19.083 20.5" stroke="#28293D" stroke-width="2"/>
<path d="M21.8293 7.17071L22.5364 7.87782L21.8293 7.17071ZM3 7H16V5H3V7ZM16 17H3V19H16V17ZM3 17V7H1V17H3ZM16 7V12H18V7H16ZM16 12V17H18V12H16ZM17.7071 12.7071L22.5364 7.87782L21.1222 6.4636L16.2929 11.2929L17.7071 12.7071ZM21 7.24142V16.7586H23V7.24142H21ZM22.5364 16.1222L17.7071 11.2929L16.2929 12.7071L21.1222 17.5364L22.5364 16.1222ZM21 16.7586C21 15.9568 21.9694 15.5552 22.5364 16.1222L21.1222 17.5364C21.8151 18.2294 23 17.7386 23 16.7586H21ZM3 17H3H1C1 18.1046 1.89543 19 3 19V17ZM16 19C17.1046 19 18 18.1046 18 17H16V19ZM16 7H18C18 5.89543 17.1046 5 16 5V7ZM22.5364 7.87782C21.9694 8.44479 21 8.04323 21 7.24142H23C23 6.26144 21.8152 5.77064 21.1222 6.4636L22.5364 7.87782ZM3 5C1.89543 5 1 5.89543 1 7H3V7V5Z" fill="#28293D"/>
</g>
</svg>
