<svg width="24" height="24" viewBox="0 0 24 24" fill="none" xmlns="http://www.w3.org/2000/svg">
<path d="M5 4V3H4V4H5ZM7 4H8V3H7V4ZM21 18H3V20H21V18ZM21 6V18H23V6H21ZM3 18V6H1V18H3ZM3 6H5V4H3V6ZM6 5V4H4V5H6ZM5 5H7V3H5V5ZM5 6H7V4H5V6ZM7 6H21V4H7V6ZM6 4V5H8V4H6ZM20 7H18V9H20V7ZM3 18H3H1C1 19.1046 1.89543 20 3 20V18ZM21 20C22.1046 20 23 19.1046 23 18H21V20ZM23 6C23 4.89543 22.1046 4 21 4V6H23ZM3 6V6V4C1.89543 4 1 4.89543 1 6H3Z" fill="#28293D"/>
<circle cx="12" cy="12" r="4" stroke="#28293D" stroke-width="2"/>
</svg>
