<svg width="24" height="24" viewBox="0 0 24 24" fill="none" xmlns="http://www.w3.org/2000/svg">
<path d="M13.4118 6.82353L14.1189 6.11642L14.1189 6.11642L13.4118 6.82353ZM17.1765 10.5882L17.8836 9.88113V9.88113L17.1765 10.5882ZM16.7059 10.1176L15.9988 10.8248V10.8248L16.7059 10.1176ZM19.2929 7.53064L20 8.23774L19.2929 7.53064ZM16.4694 4.70711L17.1765 5.41421L16.4694 4.70711ZM7.91115 19.8536L8.61826 20.5607L7.91115 19.8536ZM4.14645 16.0888L4.85355 16.796L4.14645 16.0888ZM12.7047 6.11642L3.43934 15.3817L4.85355 16.796L14.1189 7.53064L12.7047 6.11642ZM3 16.4424V19H5V16.4424H3ZM5 21H7.5576V19H5V21ZM8.61826 20.5607L17.8836 11.2953L16.4694 9.88113L7.20405 19.1464L8.61826 20.5607ZM14.1189 6.11642L12.7071 4.70466L11.2929 6.11887L12.7047 7.53064L14.1189 6.11642ZM16.4694 11.2953L17.8811 12.7071L19.2953 11.2929L17.8836 9.88113L16.4694 11.2953ZM11.2929 6.11887L13.1752 8.00122L14.5895 6.58701L12.7071 4.70466L11.2929 6.11887ZM14.5895 6.58701L14.1189 6.11642L12.7047 7.53064L13.1752 8.00122L14.5895 6.58701ZM14.5895 8.00122L17.1765 5.41421L15.7623 4L13.1752 6.58701L14.5895 8.00122ZM17.1765 5.41421L18.5858 6.82353L20 5.40932L18.5907 4L17.1765 5.41421ZM19.2953 11.2929L17.413 9.41054L15.9988 10.8248L17.8811 12.7071L19.2953 11.2929ZM17.413 9.41054L14.5895 6.58701L13.1752 8.00122L15.9988 10.8248L17.413 9.41054ZM15.9988 10.8248L16.4694 11.2953L17.8836 9.88113L17.413 9.41054L15.9988 10.8248ZM18.5858 6.82353L15.9988 9.41054L17.413 10.8248L20 8.23774L18.5858 6.82353ZM18.5858 6.82353L18.5858 6.82353L20 8.23774C20.781 7.45669 20.781 6.19036 20 5.40932L18.5858 6.82353ZM17.1765 5.41421V5.41421L18.5907 4C17.8096 3.21895 16.5433 3.21895 15.7623 4L17.1765 5.41421ZM7.5576 21C7.95542 21 8.33696 20.842 8.61826 20.5607L7.20405 19.1464C7.29781 19.0527 7.42499 19 7.5576 19V21ZM3 19C3 20.1046 3.89543 21 5 21V19V19H3ZM3.43934 15.3817C3.15803 15.663 3 16.0446 3 16.4424H5C5 16.575 4.94732 16.7022 4.85355 16.796L3.43934 15.3817Z" fill="#28293D"/>
</svg>
