<svg width="24" height="24" viewBox="0 0 24 24" fill="none" xmlns="http://www.w3.org/2000/svg">
<path d="M2 1V4M2 23V20M22 1V4M22 23V20M2 4H6M2 4V8M6 4V2H18V4M6 4V8M2 8H6M2 8V12M6 8V12M2 12H6M2 12V16M6 12V16M2 16H6M2 16V20M6 16V20M2 20H6M6 20V22H18V20M18 4H22M18 4V8M22 4V8M18 8H22M18 8V12M22 8V12M18 12H22M18 12V16M22 12V16M18 16H22M18 16V20M22 16V20M18 20H22" stroke="#28293D" stroke-width="2"/>
<path d="M12.8083 12.4056L13.5537 13.0723L12.8083 12.4056ZM10.249 9.73045C10.249 8.71088 11.0807 7.9563 12.03 7.9563V5.9563C10.051 5.9563 8.24902 7.53291 8.24902 9.73045H10.249ZM12.03 7.9563C12.951 7.9563 13.7512 8.68338 13.7512 9.73045H15.7512C15.7512 7.56041 14.0371 5.9563 12.03 5.9563V7.9563ZM13.7512 9.73045C13.7512 10.0051 13.6685 10.1784 13.4082 10.449C13.2561 10.607 13.0817 10.7585 12.8363 10.9789C12.6044 11.1872 12.3334 11.4366 12.063 11.7389L13.5537 13.0723C13.7486 12.8544 13.9531 12.6641 14.1728 12.4668C14.3789 12.2816 14.632 12.0616 14.8494 11.8356C15.3278 11.3384 15.7512 10.6943 15.7512 9.73045H13.7512ZM12.063 11.7389C11.4728 12.3987 11.0001 13.2207 11.0001 14H13.0001C13.0001 14.0012 13.0055 13.9071 13.1008 13.7156C13.1905 13.5353 13.3382 13.3131 13.5537 13.0723L12.063 11.7389ZM11.0002 15.0146L11.0301 17.0583L13.0299 17.0291L13 14.9854L11.0002 15.0146Z" fill="#28293D"/>
</svg>
