<svg width="24" height="24" viewBox="0 0 24 24" fill="none" xmlns="http://www.w3.org/2000/svg">
<path d="M5 13C5 9.13401 8.13401 6 12 6V4C7.02944 4 3 8.02944 3 13H5ZM12 6C15.866 6 19 9.13401 19 13H21C21 8.02944 16.9706 4 12 4V6Z" fill="#28293D"/>
<mask id="path-2-inside-1_402_15348" fill="white">
<path d="M1 14C1 13.4477 1.44772 13 2 13H5V19H2C1.44772 19 1 18.5523 1 18V14Z"/>
<path d="M19 13H22C22.5523 13 23 13.4477 23 14V18C23 18.5523 22.5523 19 22 19H19V13Z"/>
</mask>
<path d="M5 13H7V11H5V13ZM5 19V21H7V19H5ZM19 13V11H17V13H19ZM19 19H17V21H19V19ZM2 15H5V11H2V15ZM3 13V19H7V13H3ZM5 17H2V21H5V17ZM3 18V14H-1V18H3ZM19 15H22V11H19V15ZM21 14V18H25V14H21ZM22 17H19V21H22V17ZM21 19V13H17V19H21ZM21 18C21 17.4477 21.4477 17 22 17V21C23.6569 21 25 19.6569 25 18H21ZM2 17C2.55228 17 3 17.4477 3 18H-1C-1 19.6569 0.343146 21 2 21V17ZM22 15C21.4477 15 21 14.5523 21 14H25C25 12.3431 23.6569 11 22 11V15ZM2 11C0.343145 11 -1 12.3431 -1 14H3C3 14.5523 2.55229 15 2 15V11Z" fill="#28293D" mask="url(#path-2-inside-1_402_15348)"/>
</svg>
