<svg width="24" height="24" viewBox="0 0 24 24" fill="none" xmlns="http://www.w3.org/2000/svg">
<path d="M10 7.41604L10.4004 8.3324L11 8.07041V7.41604H10ZM10 3V2H9V3H10ZM14 3H15V2H14V3ZM14 7.41604H13V8.07041L13.5996 8.3324L14 7.41604ZM4 11H1V13H4V11ZM11 20V23H13V20H11ZM20 13H23V11H20V13ZM17.2929 18.7071L19.2929 20.7071L20.7071 19.2929L18.7071 17.2929L17.2929 18.7071ZM5.29289 17.2929L3.29289 19.2929L4.70711 20.7071L6.70711 18.7071L5.29289 17.2929ZM16 12C16 14.2091 14.2091 16 12 16V18C15.3137 18 18 15.3137 18 12H16ZM12 16C9.79086 16 8 14.2091 8 12H6C6 15.3137 8.68629 18 12 18V16ZM8 12C8 10.3613 8.98556 8.95056 10.4004 8.3324L9.59963 6.49969C7.48263 7.42464 6 9.53806 6 12H8ZM11 7.41604V3H9V7.41604H11ZM10 4H14V2H10V4ZM13.5996 8.3324C15.0144 8.95056 16 10.3613 16 12H18C18 9.53806 16.5174 7.42464 14.4004 6.49969L13.5996 8.3324ZM13 3V7.41604H15V3H13Z" fill="#28293D"/>
</svg>
