<svg width="24" height="24" viewBox="0 0 24 24" fill="none" xmlns="http://www.w3.org/2000/svg">
<path d="M2.99992 4.99998L2.68369 4.0513L2.1833 4.2181L2.03839 4.72526L2.99992 4.99998ZM4.09422 4.63521L3.77799 3.68653L4.09422 4.63521ZM19.9056 4.63521L20.2218 3.68653V3.68653L19.9056 4.63521ZM20.9999 4.99998L21.9614 4.72526L21.8165 4.2181L21.3161 4.0513L20.9999 4.99998ZM2.99992 19L2.03839 19.2747L2.1833 19.7819L2.68369 19.9487L2.99992 19ZM4.09422 19.3647L3.77799 20.3134H3.77799L4.09422 19.3647ZM19.9056 19.3647L20.2218 20.3134H20.2218L19.9056 19.3647ZM20.9999 19L21.3161 19.9487L21.8165 19.7819L21.9614 19.2747L20.9999 19ZM3.31614 5.94866L4.41045 5.5839L3.77799 3.68653L2.68369 4.0513L3.31614 5.94866ZM19.5894 5.5839L20.6837 5.94866L21.3161 4.0513L20.2218 3.68653L19.5894 5.5839ZM2.68369 19.9487L3.77799 20.3134L4.41045 18.4161L3.31614 18.0513L2.68369 19.9487ZM20.2218 20.3134L21.3161 19.9487L20.6837 18.0513L19.5894 18.4161L20.2218 20.3134ZM3.77799 20.3134C9.11493 22.0924 14.8849 22.0924 20.2218 20.3134L19.5894 18.4161C14.663 20.0582 9.33685 20.0582 4.41045 18.4161L3.77799 20.3134ZM4.41045 5.5839C9.33685 3.94176 14.663 3.94176 19.5894 5.5839L20.2218 3.68653C14.8849 1.90755 9.11493 1.90755 3.77799 3.68653L4.41045 5.5839ZM21.9614 19.2747C23.3199 14.52 23.3199 9.47994 21.9614 4.72526L20.0384 5.2747C21.2943 9.67027 21.2943 14.3297 20.0384 18.7253L21.9614 19.2747ZM2.03839 4.72526C0.679911 9.47994 0.679911 14.52 2.03839 19.2747L3.96144 18.7253C2.70556 14.3297 2.70556 9.67027 3.96144 5.2747L2.03839 4.72526Z" fill="#28293D"/>
</svg>
