<svg width="24" height="24" viewBox="0 0 24 24" fill="none" xmlns="http://www.w3.org/2000/svg">
<mask id="path-1-inside-1_402_15341" fill="white">
<path d="M4 20V4H11V20H4Z"/>
<path d="M13 20V4H20V20H13Z"/>
</mask>
<path d="M4 4V2H2V4H4ZM4 20H2V22H4V20ZM11 20V22H13V20H11ZM11 4H13V2H11V4ZM13 4V2H11V4H13ZM13 20H11V22H13V20ZM20 20V22H22V20H20ZM20 4H22V2H20V4ZM2 4V20H6V4H2ZM4 22H11V18H4V22ZM13 20V4H9V20H13ZM11 2H4V6H11V2ZM11 4V20H15V4H11ZM13 22H20V18H13V22ZM22 20V4H18V20H22ZM20 2H13V6H20V2Z" fill="#28293D" mask="url(#path-1-inside-1_402_15341)"/>
</svg>
