<svg width="24" height="24" viewBox="0 0 24 24" fill="none" xmlns="http://www.w3.org/2000/svg">
<path d="M20 7.5H21V7.08579L20.7071 6.79289L20 7.5ZM16.5 4L17.2071 3.29289L16.9142 3H16.5V4ZM8 8V7H7V8H8ZM8 9H7V10H8V9ZM14 9V10H15V9H14ZM14 8H15V7H14V8ZM3 5V19H5V5H3ZM5 21H19V19H5V21ZM21 19V7.5H19V19H21ZM20.7071 6.79289L17.2071 3.29289L15.7929 4.70711L19.2929 8.20711L20.7071 6.79289ZM16.5 3H5V5H16.5V3ZM7 8V9H9V8H7ZM8 10H14V8H8V10ZM15 9V8H13V9H15ZM14 7H8V9H14V7ZM19 21C20.1046 21 21 20.1046 21 19H19V21ZM3 19C3 20.1046 3.89543 21 5 21V19H3ZM5 5H5V3C3.89543 3 3 3.89543 3 5H5ZM13 15C13 15.5523 12.5523 16 12 16V18C13.6569 18 15 16.6569 15 15H13ZM12 16C11.4477 16 11 15.5523 11 15H9C9 16.6569 10.3431 18 12 18V16ZM11 15C11 14.4477 11.4477 14 12 14V12C10.3431 12 9 13.3431 9 15H11ZM12 14C12.5523 14 13 14.4477 13 15H15C15 13.3431 13.6569 12 12 12V14Z" fill="#28293D"/>
</svg>
