<svg width="24" height="24" viewBox="0 0 24 24" fill="none" xmlns="http://www.w3.org/2000/svg">
<path d="M5.1 22L5.1 23H5.1V22ZM18.9 22V21V22ZM19 21.9H18H19ZM19 2.1L20 2.1L19 2.1ZM5 2.1L4 2.1L5 2.1ZM5 21.9H6H5ZM5.1 2L5.1 3L5.1 2ZM15 15H14H15ZM12 12V11V12ZM12 18V17V18ZM9 15H8H9ZM13 7H14H13ZM12 6V7V6ZM12 8V9V8ZM11 7H12H11ZM5.1 23H18.9V21H5.1V23ZM20 21.9L20 2.1L18 2.1L18 21.9H20ZM4 2.1L4 21.9H6L6 2.1L4 2.1ZM18.9 1L5.1 1L5.1 3L18.9 3V1ZM20 2.1C20 1.49248 19.5075 1 18.9 1V3C18.403 3 18 2.59706 18 2.1L20 2.1ZM18.9 23C19.5075 23 20 22.5075 20 21.9H18C18 21.4029 18.4029 21 18.9 21V23ZM5.1 21C5.59705 21 6 21.4029 6 21.9H4C4 22.5075 4.49249 23 5.1 23L5.1 21ZM6 2.1C6 2.59707 5.59704 3 5.1 3L5.1 1C4.4925 1 4 1.49247 4 2.1L6 2.1ZM16 15C16 12.7909 14.2091 11 12 11V13C13.1046 13 14 13.8954 14 15H16ZM12 19C14.2091 19 16 17.2091 16 15H14C14 16.1046 13.1046 17 12 17V19ZM12 17C10.8954 17 10 16.1046 10 15H8C8 17.2091 9.79086 19 12 19V17ZM10 15C10 13.8954 10.8954 13 12 13V11C9.79086 11 8 12.7909 8 15H10ZM14 7C14 5.89543 13.1046 5 12 5V7H14ZM12 9C13.1046 9 14 8.10457 14 7H12V9ZM12 7H10C10 8.10457 10.8954 9 12 9V7ZM12 7V5C10.8954 5 10 5.89543 10 7H12Z" fill="#28293D"/>
</svg>
