<svg width="24" height="24" viewBox="0 0 24 24" fill="none" xmlns="http://www.w3.org/2000/svg">
<path d="M1 5V19H3V5H1ZM3 21H21V19H3V21ZM23 19V5H21V19H23ZM21 3H3V5H21V3ZM20 12C20 10.2125 18.984 8.68858 17.531 7.65073C16.0761 6.61151 14.1174 6 12 6V8C13.7486 8 15.2899 8.50778 16.3685 9.2782C17.449 10.05 18 11.0261 18 12H20ZM12 18C14.1174 18 16.0761 17.3885 17.531 16.3493C18.984 15.3114 20 13.7875 20 12H18C18 12.9739 17.449 13.95 16.3685 14.7218C15.2899 15.4922 13.7486 16 12 16V18ZM4 12C4 13.7875 5.01603 15.3114 6.46901 16.3493C7.92392 17.3885 9.88261 18 12 18V16C10.2514 16 8.71008 15.4922 7.63149 14.7218C6.55098 13.95 6 12.9739 6 12H4ZM6 12C6 11.0261 6.55098 10.05 7.63149 9.2782C8.71008 8.50778 10.2514 8 12 8V6C9.88261 6 7.92392 6.61151 6.46901 7.65073C5.01603 8.68858 4 10.2125 4 12H6ZM23 5C23 3.89543 22.1046 3 21 3V5H23ZM21 21C22.1046 21 23 20.1046 23 19H21V21ZM1 19C1 20.1046 1.89543 21 3 21V19H1ZM3 5H3V3C1.89543 3 1 3.89543 1 5H3Z" fill="#28293D"/>
</svg>
