<svg width="24" height="24" viewBox="0 0 24 24" fill="none" xmlns="http://www.w3.org/2000/svg">
<path d="M11 4H13H14H17V21H7V4H10H11Z" stroke="#555770" stroke-width="2"/>
<path d="M12.5875 12.7814L11.8579 12.0977L11.8579 12.0977L12.5875 12.7814ZM11 10.9251C11 10.4402 11.427 10 12.0217 10V8C10.4876 8 9 9.17748 9 10.9251H11ZM12.0217 10C12.5876 10 13 10.4134 13 10.9251H15C15 9.20426 13.5845 8 12.0217 8V10ZM13 10.9251C13 10.9933 13.0026 11.0367 12.8432 11.1949C12.7423 11.295 12.6269 11.3906 12.4427 11.5485C12.2726 11.6944 12.0657 11.8758 11.8579 12.0977L13.3172 13.4652C13.4476 13.3261 13.5865 13.2024 13.7446 13.0668C13.8887 12.9432 14.0841 12.781 14.2518 12.6147C14.6294 12.2401 15 11.7163 15 10.9251H13ZM11.8579 12.0977C11.5838 12.3901 11.3784 12.7166 11.2388 13.024C11.1075 13.3131 11 13.6617 11 14H13C13 14.0375 12.9948 14.0391 13.0051 13.9995C13.0142 13.9647 13.0314 13.9135 13.0598 13.8509C13.1177 13.7234 13.206 13.5839 13.3172 13.4652L11.8579 12.0977ZM11 15V16.5H13V15H11Z" fill="#555770"/>
</svg>
