<svg width="24" height="24" viewBox="0 0 24 24" fill="none" xmlns="http://www.w3.org/2000/svg">
<path d="M22 17V7H20V17H22ZM20 5H4V7H20V5ZM4 19H20V17H4V19ZM2 7V17H4V7H2ZM8 16H16V14H8V16ZM5 10H7V8H5V10ZM5 13H7V11H5V13ZM8 13H10V11H8V13ZM8 10H10V8H8V10ZM11 10H13V8H11V10ZM11 13H13V11H11V13ZM14 10H16V8H14V10ZM14 13H16V11H14V13ZM17 10H19V8H17V10ZM17 13H19V11H17V13ZM4 5C2.89543 5 2 5.89543 2 7H4L4 7V5ZM22 7C22 5.89543 21.1046 5 20 5V7L20 7H22ZM20 17L20 17V19C21.1046 19 22 18.1046 22 17H20ZM4 17L4 17H2C2 18.1046 2.89543 19 4 19V17Z" fill="#555770"/>
</svg>
