<svg width="24" height="24" viewBox="0 0 24 24" fill="none" xmlns="http://www.w3.org/2000/svg">
<mask id="path-1-inside-1_402_15807" fill="white">
<path d="M6 9C6 5.68629 8.68629 3 12 3C15.3137 3 18 5.68629 18 9V15C18 18.3137 15.3137 21 12 21C8.68629 21 6 18.3137 6 15V9Z"/>
</mask>
<path d="M13 8C13 7.44772 12.5523 7 12 7C11.4477 7 11 7.44772 11 8H13ZM11 11C11 11.5523 11.4477 12 12 12C12.5523 12 13 11.5523 13 11H11ZM11 8V11H13V8H11ZM16 9V15H20V9H16ZM8 15V9H4V15H8ZM12 19C9.79086 19 8 17.2091 8 15H4C4 19.4183 7.58172 23 12 23V19ZM12 23C16.4183 23 20 19.4183 20 15H16C16 17.2091 14.2091 19 12 19V23ZM12 5C14.2091 5 16 6.79086 16 9H20C20 4.58172 16.4183 1 12 1V5ZM12 1C7.58172 1 4 4.58172 4 9H8C8 6.79086 9.79086 5 12 5V1Z" fill="#555770" mask="url(#path-1-inside-1_402_15807)"/>
</svg>
