<svg width="24" height="24" viewBox="0 0 24 24" fill="none" xmlns="http://www.w3.org/2000/svg">
<path d="M8.5 22L15.5 22L15.5 20L8.5 20L8.5 22ZM15.5 2L8.5 2L8.5 4L15.5 4L15.5 2ZM17 3.5L7 3.5L7 5.5L17 5.5L17 3.5ZM6 4.5L6 19.5L8 19.5L8 4.5L6 4.5ZM18 19.5L18 4.5L16 4.5L16 19.5L18 19.5ZM7 20.5L17 20.5L17 18.5L7 18.5L7 20.5ZM15.5 4C15.7761 4 16 4.22386 16 4.5L18 4.5C18 3.11929 16.8807 2 15.5 2L15.5 4ZM15.5 22C16.8807 22 18 20.8807 18 19.5L16 19.5C16 19.7761 15.7761 20 15.5 20L15.5 22ZM8.5 20C8.22386 20 8 19.7761 8 19.5L6 19.5C6 20.8807 7.11929 22 8.5 22L8.5 20ZM8.5 2C7.11929 2 6 3.11929 6 4.5L8 4.5C8 4.22386 8.22386 4 8.5 4L8.5 2Z" fill="#555770"/>
</svg>
