<svg width="24" height="24" viewBox="0 0 24 24" fill="none" xmlns="http://www.w3.org/2000/svg">
<path d="M12.9 4L12.9 5L12.9 4ZM11.1 4L11.1 3L11.1 4ZM8 22L16 22L16 20L8 20L8 22ZM18 20L18 4L16 4L16 20L18 20ZM6 4L6 20L8 20L8 4L6 4ZM11 2L8 2L8 4L11 4L11 2ZM10 3L10 3.9L12 3.9L12 3L10 3ZM11.1 5L12.9 5L12.9 3L11.1 3L11.1 5ZM16 2L13 2L13 4L16 4L16 2ZM13 2L11 2L11 4L13 4L13 2ZM14 3.9L14 3L12 3L12 3.9L14 3.9ZM12.9 5C13.5075 5 14 4.50751 14 3.9L12 3.9C12 3.40294 12.4029 3 12.9 3L12.9 5ZM18 4C18 2.89543 17.1046 2 16 2L16 4L16 4L18 4ZM16 22C17.1046 22 18 21.1046 18 20L16 20L16 20L16 22ZM8 20L8 20L6 20C6 21.1046 6.89543 22 8 22L8 20ZM10 3.9C10 4.50751 10.4925 5 11.1 5L11.1 3C11.5971 3 12 3.40294 12 3.9L10 3.9ZM8 4L8 4L8 2C6.89543 2 6 2.89543 6 4L8 4Z" fill="#555770"/>
</svg>
