<svg width="24" height="24" viewBox="0 0 24 24" fill="none" xmlns="http://www.w3.org/2000/svg">
<mask id="mask0_402_15817" style="mask-type:alpha" maskUnits="userSpaceOnUse" x="0" y="0" width="24" height="24">
<path d="M19.7839 19.7807L4 3.99675H0V24H24V0H5.69812V2.86644L21.1981 18.3664L19.7839 19.7807Z" fill="white"/>
</mask>
<g mask="url(#mask0_402_15817)">
<path d="M6 8V3H18V8M6 21H18V13H6V21Z" stroke="#555770" stroke-width="2"/>
<path d="M22 16V17H23V16H22ZM2 16H1V17H2V16ZM4 8H20V6H4V8ZM21 9V16H23V9H21ZM3 16V9H1V16H3ZM6 15H2V17H6V15ZM22 15H18V17H22V15ZM20 8C20.5523 8 21 8.44772 21 9H23C23 7.34315 21.6569 6 20 6V8ZM4 6C2.34315 6 1 7.34315 1 9H3C3 8.44772 3.44772 8 4 8V6Z" fill="#555770"/>
<circle cx="19" cy="10" r="0.5" stroke="#555770"/>
</g>
<path d="M0.737793 2.15491L21.8551 23.2722" stroke="#555770" stroke-width="2"/>
</svg>
