<svg width="24" height="24" viewBox="0 0 24 24" fill="none" xmlns="http://www.w3.org/2000/svg">
<path d="M22 18V6H20V18H22ZM20 4H4V6H20V4ZM4 20H20V18H4V20ZM2 6V18H4V6H2ZM4 4C2.89543 4 2 4.89543 2 6H4L4 6V4ZM22 6C22 4.89543 21.1046 4 20 4V6L20 6H22ZM20 18L20 18V20C21.1046 20 22 19.1046 22 18H20ZM4 18L4 18H2C2 19.1046 2.89543 20 4 20V18Z" fill="#555770"/>
<path d="M13.25 10.25V12H15.25V10.25H13.25ZM14.25 11H9.75V13H14.25V11ZM10.75 12V10.25H8.75V12H10.75ZM9.75 11H9.1V13H9.75V11ZM8 12.1V15H10V12.1H8ZM10 17H14V15H10V17ZM16 15V12.1H14V15H16ZM14.9 11H14.25V13H14.9V11ZM16 12.1C16 11.4925 15.5075 11 14.9 11V13C14.4029 13 14 12.5971 14 12.1H16ZM9.1 11C8.49249 11 8 11.4925 8 12.1H10C10 12.5971 9.59706 13 9.1 13V11ZM14 17C15.1046 17 16 16.1046 16 15H14L14 15V17ZM12 9C12.6904 9 13.25 9.55964 13.25 10.25H15.25C15.25 8.45507 13.7949 7 12 7V9ZM8 15C8 16.1046 8.89543 17 10 17V15L10 15H8ZM12 7C10.2051 7 8.75 8.45507 8.75 10.25H10.75C10.75 9.55964 11.3096 9 12 9V7Z" fill="#555770"/>
</svg>
