<svg width="24" height="24" viewBox="0 0 24 24" fill="none" xmlns="http://www.w3.org/2000/svg">
<path d="M17 8H7V6H17V8ZM7 16H17V18H7V16ZM14 12C14 10.3431 15.3431 9 17 9V11C16.4477 11 16 11.4477 16 12H14ZM17 15C15.3431 15 14 13.6569 14 12H16C16 12.5523 16.4477 13 17 13V15ZM20 12C20 13.6569 18.6569 15 17 15V13C17.5523 13 18 12.5523 18 12H20ZM18 12C18 11.4477 17.5523 11 17 11V9C18.6569 9 20 10.3431 20 12H18ZM17 16C19.2091 16 21 14.2091 21 12H23C23 15.3137 20.3137 18 17 18V16ZM3 12C3 14.2091 4.79086 16 7 16V18C3.68629 18 1 15.3137 1 12H3ZM7 8C4.79086 8 3 9.79086 3 12H1C1 8.68629 3.68629 6 7 6V8ZM17 6C20.3137 6 23 8.68629 23 12H21C21 9.79086 19.2091 8 17 8V6Z" fill="#555770"/>
</svg>
