<svg width="24" height="24" viewBox="0 0 24 24" fill="none" xmlns="http://www.w3.org/2000/svg">
<path d="M14.0226 21.9316L13.0725 21.6198L14.0226 21.9316ZM9.97737 21.9316L10.9275 21.6198L9.97737 21.9316ZM14.0226 2.06844L13.0725 2.38019L14.0226 2.06844ZM9.97737 2.06844L10.9275 2.38019L9.97737 2.06844ZM10.0721 3H13.9279V1H10.0721V3ZM10.0721 23H13.9279V21H10.0721V23ZM16 8V16H18V8H16ZM8 16V8H6V16H8ZM8 16H8H6C6 17.1046 6.89543 18 8 18V16ZM16 16V18C17.1046 18 18 17.1046 18 16H16ZM16 8H18C18 6.89543 17.1046 6 16 6V8ZM8 6C6.89543 6 6 6.89543 6 8H8V6ZM14.9579 8H16V6H14.9579V8ZM15.9552 6.92723C15.8605 5.62872 15.594 3.65012 14.9728 1.75669L13.0725 2.38019C13.6261 4.06762 13.873 5.8726 13.9605 7.07277L15.9552 6.92723ZM8 8H9.04212V6H8V8ZM9.04212 8H14.9579V6H9.04212V8ZM10.0395 7.07277C10.127 5.8726 10.3739 4.06762 10.9275 2.38019L9.0272 1.75669C8.40596 3.65012 8.13952 5.62872 8.04477 6.92723L10.0395 7.07277ZM9.04212 16H8V18H9.04212V16ZM8.04477 17.0728C8.13952 18.3713 8.40596 20.3499 9.0272 22.2433L10.9275 21.6198C10.3739 19.9324 10.127 18.1274 10.0395 16.9272L8.04477 17.0728ZM16 16H14.9579V18H16V16ZM14.9579 16H9.04212V18H14.9579V16ZM13.9605 16.9272C13.873 18.1274 13.6261 19.9324 13.0725 21.6198L14.9728 22.2433C15.594 20.3499 15.8605 18.3713 15.9552 17.0728L13.9605 16.9272ZM13.9279 23C14.4004 23 14.8238 22.6974 14.9728 22.2433L13.0725 21.6198C13.1946 21.2475 13.5415 21 13.9279 21V23ZM10.0721 21C10.4585 21 10.8054 21.2475 10.9275 21.6198L9.0272 22.2433C9.17619 22.6974 9.59956 23 10.0721 23V21ZM13.9279 3C13.5415 3 13.1946 2.75247 13.0725 2.38019L14.9728 1.75669C14.8238 1.30261 14.4004 1 13.9279 1V3ZM10.0721 1C9.59956 1 9.17619 1.30261 9.0272 1.75669L10.9275 2.38019C10.8054 2.75247 10.4585 3 10.0721 3V1Z" fill="#555770"/>
</svg>
