<svg width="24" height="24" viewBox="0 0 24 24" fill="none" xmlns="http://www.w3.org/2000/svg">
<path d="M9 7.99963L9.60058 8.7992L9.60058 8.7992L9 7.99963ZM15 7.99963L14.3994 8.7992L14.3994 8.7992L15 7.99963ZM9 16.0004L9.60058 15.2008L9.60058 15.2008L9 16.0004ZM15 16.0004L14.3994 15.2008L14.3994 15.2008L15 16.0004ZM9.97737 21.9316L9.0272 22.2433L9.97737 21.9316ZM14.0226 21.9316L14.9728 22.2433L14.0226 21.9316ZM14.0226 2.06844L14.9728 1.75669L14.0226 2.06844ZM9.97737 2.06844L9.0272 1.75669L9.97737 2.06844ZM8 12C8 10.692 8.62676 9.53066 9.60058 8.7992L8.39942 7.20007C6.94434 8.29302 6 10.0364 6 12H8ZM9.60058 8.7992C10.269 8.29712 11.0984 8 12 8V6C10.6504 6 9.40231 6.44677 8.39942 7.20007L9.60058 8.7992ZM10 7.99963C10 7.08467 10.1877 4.63501 10.9275 2.38019L9.0272 1.75669C8.20472 4.26348 8 6.93384 8 7.99963H10ZM18 12C18 10.0364 17.0557 8.29302 15.6006 7.20007L14.3994 8.7992C15.3732 9.53066 16 10.692 16 12H18ZM15.6006 7.20007C14.5977 6.44677 13.3496 6 12 6V8C12.9016 8 13.731 8.29712 14.3994 8.7992L15.6006 7.20007ZM16 7.99963C16 6.93384 15.7953 4.26348 14.9728 1.75669L13.0725 2.38019C13.8123 4.63501 14 7.08467 14 7.99963H16ZM10.0721 3H13.9279V1H10.0721V3ZM6 12C6 13.9636 6.94434 15.707 8.39942 16.7999L9.60058 15.2008C8.62676 14.4693 8 13.308 8 12H6ZM8.39942 16.7999C9.40231 17.5532 10.6504 18 12 18V16C11.0984 16 10.269 15.7029 9.60058 15.2008L8.39942 16.7999ZM8 16.0004C8 17.0662 8.20472 19.7365 9.0272 22.2433L10.9275 21.6198C10.1877 19.365 10 16.9153 10 16.0004H8ZM16 12C16 13.308 15.3732 14.4693 14.3994 15.2008L15.6006 16.7999C17.0557 15.707 18 13.9636 18 12H16ZM14.3994 15.2008C13.731 15.7029 12.9016 16 12 16V18C13.3496 18 14.5977 17.5532 15.6006 16.7999L14.3994 15.2008ZM14 16.0004C14 16.9153 13.8123 19.365 13.0725 21.6198L14.9728 22.2433C15.7953 19.7365 16 17.0662 16 16.0004H14ZM10.0721 23H13.9279V21H10.0721V23ZM9.0272 22.2433C9.17617 22.6973 9.59949 23 10.0721 23V21C10.4586 21 10.8054 21.2476 10.9275 21.6198L9.0272 22.2433ZM13.0725 21.6198C13.1946 21.2476 13.5414 21 13.9279 21V23C14.4005 23 14.8238 22.6973 14.9728 22.2433L13.0725 21.6198ZM14.9728 1.75669C14.8238 1.30268 14.4005 1 13.9279 1V3C13.5414 3 13.1946 2.75241 13.0725 2.38019L14.9728 1.75669ZM10.9275 2.38019C10.8054 2.75241 10.4586 3 10.0721 3V1C9.59949 1 9.17617 1.30268 9.0272 1.75669L10.9275 2.38019Z" fill="#555770"/>
</svg>
