<svg width="24" height="24" viewBox="0 0 24 24" fill="none" xmlns="http://www.w3.org/2000/svg">
<path d="M19.5693 17.403L20.3109 18.0739L20.3109 18.0739L19.5693 17.403ZM17 14.7506C17 13.7551 17.8245 13 18.7887 13V11C16.8166 11 15 12.5563 15 14.7506H17ZM18.7887 13C19.7247 13 20.5177 13.7278 20.5177 14.7506H22.5177C22.5177 12.5836 20.7892 11 18.7887 11V13ZM20.5177 14.7506C20.5177 15.0159 20.4381 15.1845 20.1768 15.453C20.0244 15.6096 19.8495 15.7598 19.6034 15.9784C19.3709 16.1848 19.099 16.4322 18.8277 16.7321L20.3109 18.0739C20.5062 17.858 20.7112 17.6694 20.9315 17.4737C21.1382 17.2902 21.392 17.0719 21.6101 16.8479C22.0897 16.355 22.5177 15.7133 22.5177 14.7506H20.5177ZM18.8277 16.7321C18.4489 17.1508 18.197 17.6535 18.0399 18.0861C17.8864 18.5085 17.7887 18.9604 17.7887 19.3186H19.7887C19.7887 19.2675 19.8157 19.0553 19.9197 18.769C20.0199 18.493 20.1583 18.2425 20.3109 18.0739L18.8277 16.7321ZM17.7887 20.335V22.0017H19.7887V20.335H17.7887Z" fill="#555770"/>
<mask id="mask0_402_15842" style="mask-type:alpha" maskUnits="userSpaceOnUse" x="0" y="0" width="24" height="24">
<path d="M16 0H0V24H13V9H24V0H16Z" fill="white"/>
</mask>
<g mask="url(#mask0_402_15842)">
<path d="M12 3C8.74374 3 5.6788 3.81915 3 5.26261L12 21L21 5.26261C18.3212 3.81915 15.2563 3 12 3Z" stroke="#555770" stroke-width="2"/>
<path d="M12.0002 7C9.47021 7 7.097 7.67107 5.04883 8.84492L12.0002 21L18.9515 8.84492C16.9033 7.67107 14.5301 7 12.0002 7Z" fill="#555770"/>
</g>
</svg>
