<svg width="24" height="24" viewBox="0 0 24 24" fill="none" xmlns="http://www.w3.org/2000/svg">
<path d="M10 2.5V4.31222H14V2.5C14 1.94771 13.5523 1.5 13 1.5H11C10.4477 1.5 10 1.94771 10 2.5Z" stroke="#3E7BFA" stroke-width="2"/>
<path d="M18.3949 9.87959L18.9946 19.8205C19.0986 21.5455 17.6921 23 15.92 23H8.07999C6.30791 23 4.90136 21.5455 5.00542 19.8205L5.60512 9.87959M18.3949 9.87959C18.251 7.49502 16.7251 5.39925 14.4638 4.48052C14.3109 4.41841 14.1562 4.36232 14 4.31226C12.6955 4.31226 11.3309 4.31226 10 4.31226C9.84378 4.36232 9.68905 4.41841 9.53618 4.48052C7.27491 5.39925 5.74898 7.49502 5.60512 9.87959M18.3949 9.87959C15 13 9 13 5.60512 9.87959" stroke="#555770" stroke-width="2"/>
<path d="M12 10.5V14M10.5 20H13.5C14.6046 20 15.5 19.1046 15.5 18V17.1C15.5 17.0448 15.4552 17 15.4 17H8.6C8.54477 17 8.5 17.0448 8.5 17.1V18C8.5 19.1046 9.39543 20 10.5 20Z" stroke="#3E7BFA" stroke-width="2"/>
</svg>
