<svg width="24" height="24" viewBox="0 0 24 24" fill="none" xmlns="http://www.w3.org/2000/svg">
<path d="M11.62 20.6988C13.6496 22.7284 17.3273 22.3413 19.8345 19.8341C22.3416 17.327 22.7288 13.6492 20.6992 11.6196C19.6959 10.6164 18.2899 10.2036 16.8217 10.3456C16.2078 10.4049 15.6141 9.95004 15.4109 9.36777C15.2578 8.92905 15.0141 8.52863 14.6773 8.19177C13.2276 6.74206 10.6006 7.01859 8.80977 8.8094C7.01895 10.6002 6.74243 13.2272 8.19214 14.6769C8.52899 15.0138 8.92941 15.2574 9.36813 15.4105C9.95041 15.6137 10.4053 16.2075 10.3459 16.8213C10.204 18.2896 10.6167 19.6955 11.62 20.6988Z" stroke="#555770" stroke-width="2"/>
<path d="M13.9975 13.9975C13.2812 14.7138 13.2812 15.8752 13.9975 16.5915C14.7138 17.3079 15.8752 17.3079 16.5915 16.5915C17.3079 15.8752 17.3079 14.7138 16.5915 13.9975C15.8752 13.2812 14.7138 13.2812 13.9975 13.9975ZM13.9975 13.9975L4.26979 4.26979M2.64851 2.64851L4.26979 4.26979M4.26979 4.26979V4.26979C3.91163 4.62796 3.33093 4.62796 2.97277 4.26979L2.07071 3.36774C2.03166 3.32868 2.03166 3.26537 2.07071 3.22631L3.22631 2.07071C3.26537 2.03166 3.32868 2.03166 3.36774 2.07071L4.26979 2.97277C4.62796 3.33093 4.62796 3.91163 4.26979 4.26979V4.26979Z" stroke="#3E7BFA" stroke-width="2"/>
</svg>
