<svg width="24" height="24" viewBox="0 0 24 24" fill="none" xmlns="http://www.w3.org/2000/svg">
<path d="M18.0215 11.9726C17.8504 11.9907 17.6764 12 17.5 12C15.0147 12 13 10.1532 13 7.875C13 6.3988 13.7283 4.72888 15 4C15 4.89987 15.5 6 16.5 6C18.5141 6 18.2647 3.25 18 2C19.4118 2.41667 22 4.175 22 7.875C22 9.33921 21.1678 10.6252 19.9133 11.3573" stroke="#3E7BFA" stroke-width="2"/>
<path d="M2 22L18.1432 12.2811M18.1432 12.2811C18.3182 12.5713 18.6364 12.7653 19 12.7653C19.5523 12.7653 20 12.3175 20 11.7653C20 11.6199 19.969 11.4819 19.9133 11.3573C19.7571 11.0084 19.407 10.7653 19 10.7653C18.4477 10.7653 18 11.213 18 11.7653C18 11.8363 18.0074 11.9057 18.0215 11.9726C18.0449 12.0833 18.0865 12.1872 18.1432 12.2811Z" stroke="#555770" stroke-width="2"/>
</svg>
