<svg width="24" height="24" viewBox="0 0 24 24" fill="none" xmlns="http://www.w3.org/2000/svg">
<path d="M7 9H17M17 9V9.5C17 9.77614 17.2239 10 17.5 10V10C17.7761 10 18 9.77614 18 9.5V9.5C18 9.22386 17.7761 9 17.5 9H17ZM11.5 3H9.5C9.22386 3 9 2.77614 9 2.5V2.5C9 2.22386 9.22386 2 9.5 2H11.5C11.7761 2 12 2.22386 12 2.5V2.5C12 2.77614 11.7761 3 11.5 3Z" stroke="#3E7BFA" stroke-width="2"/>
<path d="M7 4C7 3.44772 7.44772 3 8 3H9H12H16C16.5523 3 17 3.44772 17 4V9V10V21C17 21.5523 16.5523 22 16 22H8C7.44772 22 7 21.5523 7 21V9V4Z" stroke="#555770" stroke-width="2"/>
</svg>
