<svg width="24" height="24" viewBox="0 0 24 24" fill="none" xmlns="http://www.w3.org/2000/svg">
<g clip-path="url(#clip0_402_12799)">
<path d="M16.05 4.50003L15.6374 4.06443L16.05 4.50003ZM12.0131 5.63323L11.4349 5.79381L11.529 6.13238L11.8703 6.216L12.0131 5.63323ZM13.2014 1.8169L12.7888 1.3813L13.2014 1.8169ZM17.2384 0.683702L17.8165 0.523122L17.7224 0.18455L17.3811 0.100936L17.2384 0.683702ZM12 7.28238C11.218 7.28238 10.743 7.09788 10.1941 6.88262C9.61797 6.6567 8.96796 6.40003 7.95 6.40003V7.60003C8.73204 7.60003 9.20703 7.78453 9.75595 7.99979C10.332 8.2257 10.982 8.48238 12 8.48238V7.28238ZM7.95 6.40003C5.2911 6.40003 2.4 8.95779 2.4 13.6177H3.6C3.6 9.45403 6.1089 7.60003 7.95 7.60003V6.40003ZM2.4 13.6177C2.4 15.9603 3.23347 18.1684 4.29825 19.7923C4.83135 20.6053 5.43413 21.2899 6.04111 21.7782C6.63157 22.2532 7.29857 22.6 7.95 22.6V21.4C7.70143 21.4 7.29968 21.2505 6.79326 20.8432C6.30337 20.4491 5.78115 19.8654 5.30175 19.1343C4.34153 17.6699 3.6 15.6868 3.6 13.6177H2.4ZM7.95 22.6C8.95646 22.6 9.71102 22.3501 10.3452 22.124C10.9928 21.8931 11.4498 21.7177 12 21.7177V20.5177C11.2002 20.5177 10.5322 20.7834 9.94227 20.9937C9.33897 21.2088 8.74354 21.4 7.95 21.4V22.6ZM12 8.48238C13.018 8.48238 13.668 8.2257 14.2441 7.99979C14.793 7.78453 15.268 7.60003 16.05 7.60003V6.40003C15.032 6.40003 14.382 6.6567 13.8059 6.88262C13.257 7.09788 12.782 7.28238 12 7.28238V8.48238ZM16.05 7.60003C17.8911 7.60003 20.4 9.45403 20.4 13.6177H21.6C21.6 8.95779 18.7089 6.40003 16.05 6.40003V7.60003ZM20.4 13.6177C20.4 15.6868 19.6585 17.6699 18.6982 19.1343C18.2188 19.8654 17.6966 20.4491 17.2067 20.8432C16.7003 21.2505 16.2986 21.4 16.05 21.4V22.6C16.7014 22.6 17.3684 22.2532 17.9589 21.7782C18.5659 21.2899 19.1686 20.6053 19.7018 19.7923C20.7665 18.1684 21.6 15.9603 21.6 13.6177H20.4ZM16.05 21.4C15.2565 21.4 14.661 21.2088 14.0577 20.9937C13.4678 20.7834 12.7998 20.5177 12 20.5177V21.7177C12.5502 21.7177 13.0072 21.8931 13.6548 22.124C14.289 22.3501 15.0435 22.6 16.05 22.6V21.4ZM15.6374 4.06443C14.6479 5.00166 13.2943 5.32938 12.1558 5.05046L11.8703 6.216C13.4162 6.59474 15.1855 6.14535 16.4626 4.93563L15.6374 4.06443ZM12.5912 5.47265C12.3041 4.43923 12.6268 3.1876 13.614 2.2525L12.7888 1.3813C11.5094 2.59316 11.0182 4.29345 11.4349 5.79381L12.5912 5.47265ZM16.6602 0.844283C16.9473 1.87771 16.6246 3.12933 15.6374 4.06443L16.4626 4.93563C17.742 3.72377 18.2332 2.02349 17.8165 0.523122L16.6602 0.844283ZM13.614 2.2525C14.6035 1.31527 15.9571 0.987547 17.0956 1.26647L17.3811 0.100936C15.8352 -0.277806 14.0659 0.17158 12.7888 1.3813L13.614 2.2525Z" fill="#28293D"/>
</g>
<defs>
<clipPath id="clip0_402_12799">
<rect width="24" height="24" fill="white"/>
</clipPath>
</defs>
</svg>
