<svg width="24" height="24" viewBox="0 0 24 24" fill="none" xmlns="http://www.w3.org/2000/svg">
<path d="M21 22V22.6H21.6V22H21ZM3 22H2.4V22.6H3V22ZM16.5 14.1821L17.0397 13.9199L16.5 12.809L15.9603 13.9199L16.5 14.1821ZM7.5 14.1821L8.03969 13.9199L7.5 12.809L6.96031 13.9199L7.5 14.1821ZM20.4 12V22H21.6V12H20.4ZM21 21.4H3V22.6H21V21.4ZM3.6 22V12H2.4V22H3.6ZM18 9.6C19.3255 9.6 20.4 10.6745 20.4 12H21.6C21.6 10.0118 19.9882 8.4 18 8.4V9.6ZM6 8.4C4.01178 8.4 2.4 10.0118 2.4 12H3.6C3.6 10.6745 4.67452 9.6 6 9.6V8.4ZM21 16.4C19.2593 16.4 17.7535 15.3892 17.0397 13.9199L15.9603 14.4442C16.8672 16.3111 18.7825 17.6 21 17.6V16.4ZM15.9603 13.9199C15.2465 15.3892 13.7407 16.4 12 16.4V17.6C14.2175 17.6 16.1328 16.3111 17.0397 14.4442L15.9603 13.9199ZM6.96031 13.9199C6.2465 15.3892 4.74072 16.4 3 16.4V17.6C5.21748 17.6 7.13277 16.3111 8.03969 14.4442L6.96031 13.9199ZM12 16.4C10.2593 16.4 8.7535 15.3892 8.03969 13.9199L6.96031 14.4442C7.86723 16.3111 9.78252 17.6 12 17.6V16.4ZM6 9.6H12V8.4H6V9.6ZM12 9.6H18V8.4H12V9.6ZM12.6 9V6H11.4V9H12.6Z" fill="#28293D"/>
<path d="M13.15 3.34211C13.15 3.89621 12.6661 4.4 12 4.4C11.3339 4.4 10.85 3.89621 10.85 3.34211C10.85 3.26916 10.897 3.08792 11.0535 2.79285C11.1984 2.51957 11.3985 2.21912 11.6087 1.93271C11.7433 1.7493 11.8785 1.57654 12 1.42648C12.1215 1.57654 12.2567 1.7493 12.3913 1.93271C12.6015 2.21912 12.8016 2.51957 12.9465 2.79285C13.103 3.08792 13.15 3.26916 13.15 3.34211Z" stroke="#28293D" stroke-width="1.2"/>
</svg>
