<svg width="24" height="24" viewBox="0 0 24 24" fill="none" xmlns="http://www.w3.org/2000/svg">
<path d="M14.1842 2.0525L14.7534 1.86276L14.1842 2.0525ZM14.1258 8.22652L14.6503 7.93513L14.1258 8.22652ZM15.9966 11.5939L15.4721 11.8853L15.9966 11.5939ZM9.87416 8.22652L10.3987 8.5179L9.87416 8.22652ZM8.52787 11.8853L10.3987 8.5179L9.34966 7.93513L7.47888 11.3025L8.52787 11.8853ZM10.6 7.74087V3.67748H9.4V7.74087H10.6ZM10.2367 2.68729L10.385 2.24223L9.24662 1.86276L9.09827 2.30782L10.2367 2.68729ZM16.5211 11.3025L14.6503 7.93513L13.6013 8.5179L15.4721 11.8853L16.5211 11.3025ZM14.6 7.74087V3.67748H13.4V7.74087H14.6ZM14.9017 2.30782L14.7534 1.86276L13.615 2.24223L13.7633 2.68729L14.9017 2.30782ZM15.5 21.4H8.5V22.6H15.5V21.4ZM10.5824 2.1H13.4176V0.9H10.5824V2.1ZM8.1 21V18.5H6.9V21H8.1ZM17.1 21V18.5H15.9V21H17.1ZM7.5 19.1H12V17.9H7.5V19.1ZM12 19.1H16.5V17.9H12V19.1ZM8.1 18.5V14H6.9V18.5H8.1ZM8.1 14V13.5365H6.9V14H8.1ZM7.83282 14.4992L7.89522 14.4576L7.22958 13.4592L7.16718 13.5008L7.83282 14.4992ZM17.1 18.5V14H15.9V18.5H17.1ZM17.1 14V13.5365H15.9V14H17.1ZM16.1048 14.4576L16.1672 14.4992L16.8328 13.5008L16.7704 13.4592L16.1048 14.4576ZM7.89522 14.4576C10.3809 12.8005 13.6191 12.8005 16.1048 14.4576L16.7704 13.4592C13.8817 11.5333 10.1183 11.5333 7.22958 13.4592L7.89522 14.4576ZM14.7534 1.86276C14.5617 1.28781 14.0237 0.9 13.4176 0.9V2.1C13.5072 2.1 13.5866 2.15729 13.615 2.24223L14.7534 1.86276ZM14.5498 3.79877C14.94 3.40855 15.0762 2.83135 14.9017 2.30782L13.7633 2.68729C13.7941 2.77962 13.7701 2.88142 13.7012 2.95024L14.5498 3.79877ZM14.6 3.67748C14.6 3.72297 14.5819 3.7666 14.5498 3.79877L13.7012 2.95024C13.5084 3.14311 13.4 3.40471 13.4 3.67748H14.6ZM14.6503 7.93513C14.6173 7.87571 14.6 7.80885 14.6 7.74087H13.4C13.4 8.01278 13.4693 8.28021 13.6013 8.5179L14.6503 7.93513ZM15.4721 11.8853C15.7527 12.3904 15.9 12.9587 15.9 13.5365H17.1C17.1 12.7548 16.9008 11.9859 16.5211 11.3025L15.4721 11.8853ZM15.5 22.6C16.3837 22.6 17.1 21.8837 17.1 21H15.9C15.9 21.2209 15.7209 21.4 15.5 21.4V22.6ZM10.385 2.24223C10.4134 2.15729 10.4928 2.1 10.5824 2.1V0.9C9.97633 0.9 9.43827 1.28781 9.24662 1.86276L10.385 2.24223ZM10.2988 2.95024C10.2299 2.88142 10.2059 2.77962 10.2367 2.68729L9.09827 2.30782C8.92376 2.83135 9.06002 3.40855 9.45024 3.79877L10.2988 2.95024ZM10.6 3.67748C10.6 3.40471 10.4916 3.14311 10.2988 2.95024L9.45024 3.79877C9.41807 3.7666 9.4 3.72297 9.4 3.67748H10.6ZM10.3987 8.5179C10.5307 8.28021 10.6 8.01278 10.6 7.74087H9.4C9.4 7.80885 9.38268 7.87571 9.34966 7.93513L10.3987 8.5179ZM7.47888 11.3025C7.09923 11.9859 6.9 12.7548 6.9 13.5365H8.1C8.1 12.9587 8.24726 12.3904 8.52787 11.8853L7.47888 11.3025ZM8.5 21.4C8.27909 21.4 8.1 21.2209 8.1 21H6.9C6.9 21.8837 7.61634 22.6 8.5 22.6V21.4Z" fill="#28293D"/>
</svg>
