<svg width="24" height="24" viewBox="0 0 24 24" fill="none" xmlns="http://www.w3.org/2000/svg">
<path d="M14.1842 2.0525L14.7534 1.86276L14.1842 2.0525ZM14.3598 8.79985L13.9757 9.26078L14.3598 8.79985ZM8.07945 10.1005L7.69534 9.63953L8.07945 10.1005ZM8.46356 10.5614L10.0243 9.26078L9.25607 8.33891L7.69534 9.63953L8.46356 10.5614ZM10.6 8.03163V3.67748H9.4V8.03163H10.6ZM10.2367 2.68729L10.385 2.24223L9.24662 1.86276L9.09827 2.30782L10.2367 2.68729ZM16.3047 9.63953L14.7439 8.33891L13.9757 9.26078L15.5364 10.5614L16.3047 9.63953ZM14.6 8.03163V3.67748H13.4V8.03163H14.6ZM14.9017 2.30782L14.7534 1.86276L13.615 2.24223L13.7633 2.68729L14.9017 2.30782ZM16 21.4H8V22.6H16V21.4ZM10.5824 2.1H13.4176V0.9H10.5824V2.1ZM7.6 13.5V12.4051H6.4V13.5H7.6ZM17.6 13.5V12.4051H16.4V13.5H17.6ZM7 14.1H17V12.9H7V14.1ZM7.6 21V18.5H6.4V21H7.6ZM7.6 18.5V13.5H6.4V18.5H7.6ZM17.6 21V18.5H16.4V21H17.6ZM17.6 18.5V13.5H16.4V18.5H17.6ZM7 19.1H17V17.9H7V19.1ZM14.7534 1.86276C14.5617 1.28781 14.0237 0.9 13.4176 0.9V2.1C13.5072 2.1 13.5866 2.15729 13.615 2.24223L14.7534 1.86276ZM14.5498 3.79877C14.94 3.40855 15.0762 2.83135 14.9017 2.30782L13.7633 2.68729C13.7941 2.77962 13.7701 2.88142 13.7012 2.95024L14.5498 3.79877ZM14.6 3.67748C14.6 3.72297 14.5819 3.7666 14.5498 3.79877L13.7012 2.95024C13.5084 3.14311 13.4 3.40471 13.4 3.67748H14.6ZM14.7439 8.33891C14.6527 8.26292 14.6 8.15034 14.6 8.03163H13.4C13.4 8.50647 13.6109 8.95679 13.9757 9.26078L14.7439 8.33891ZM15.5364 10.5614C16.0836 11.0174 16.4 11.6929 16.4 12.4051H17.6C17.6 11.3367 17.1254 10.3235 16.3047 9.63953L15.5364 10.5614ZM16 22.6C16.8837 22.6 17.6 21.8837 17.6 21H16.4C16.4 21.2209 16.2209 21.4 16 21.4V22.6ZM10.385 2.24223C10.4134 2.15729 10.4928 2.1 10.5824 2.1V0.9C9.97633 0.9 9.43827 1.28781 9.24662 1.86276L10.385 2.24223ZM10.2988 2.95024C10.2299 2.88142 10.2059 2.77962 10.2367 2.68729L9.09827 2.30782C8.92376 2.83135 9.06002 3.40855 9.45024 3.79877L10.2988 2.95024ZM10.6 3.67748C10.6 3.40471 10.4916 3.14311 10.2988 2.95024L9.45024 3.79877C9.41807 3.7666 9.4 3.72297 9.4 3.67748H10.6ZM10.0243 9.26078C10.3891 8.95679 10.6 8.50647 10.6 8.03163H9.4C9.4 8.15034 9.34727 8.26292 9.25607 8.33891L10.0243 9.26078ZM7.69534 9.63953C6.87456 10.3235 6.4 11.3367 6.4 12.4051H7.6C7.6 11.6929 7.91638 11.0174 8.46356 10.5614L7.69534 9.63953ZM8 21.4C7.77909 21.4 7.6 21.2209 7.6 21H6.4C6.4 21.8837 7.11634 22.6 8 22.6V21.4Z" fill="#28293D"/>
</svg>
