<svg width="24" height="24" viewBox="0 0 24 24" fill="none" xmlns="http://www.w3.org/2000/svg">
<path d="M7 17V10.9363C6.78938 10.9831 6.57043 11.0078 6.3457 11.0078C4.68885 11.0078 3.3457 9.66467 3.3457 8.00781C3.3457 6.35096 4.68885 5.00781 6.3457 5.00781C7.65986 5.00781 8.7663 5.82754 9.17207 7.00384C9.06065 6.68998 9 6.35207 9 6C9 4.34315 10.3431 3 12 3C13.6569 3 15 4.34315 15 6C15 6.35207 14.9394 6.68998 14.8279 7.00384C15.237 5.83357 16.3508 5.00781 17.6606 5.00781C19.3175 5.00781 20.6606 6.35096 20.6606 8.00781C20.6606 9.66467 19.3175 11.0078 17.6606 11.0078C17.4337 11.0078 17.2126 10.9826 17 10.9348V17M7 17V21H17V17M7 17H17" stroke="#28293D" stroke-width="1.2"/>
</svg>
