<svg width="24" height="24" viewBox="0 0 24 24" fill="none" xmlns="http://www.w3.org/2000/svg">
<path d="M11.2361 3.52787L11.7727 3.79619V3.79619L11.2361 3.52787ZM19.4 12C19.4 17.3233 15.9689 21.4 12 21.4V22.6C16.8677 22.6 20.6 17.7224 20.6 12H19.4ZM12 21.4C8.03111 21.4 4.6 17.3233 4.6 12H3.4C3.4 17.7224 7.13233 22.6 12 22.6V21.4ZM4.6 12C4.6 6.67666 8.03111 2.6 12 2.6V1.4C7.13233 1.4 3.4 6.27764 3.4 12H4.6ZM12 2.6C15.9689 2.6 19.4 6.67666 19.4 12H20.6C20.6 6.27764 16.8677 1.4 12 1.4V2.6ZM11.4633 1.73167L10.6994 3.25954L11.7727 3.79619L12.5367 2.26833L11.4633 1.73167ZM12.2273 20.2038L11.4633 21.7317L12.5367 22.2683L13.3006 20.7405L12.2273 20.2038ZM11.52 12.36C13.2222 14.6297 13.4961 17.6663 12.2273 20.2038L13.3006 20.7405C14.7726 17.7964 14.455 14.2733 12.48 11.64L11.52 12.36ZM10.6994 3.25954C9.22737 6.20363 9.54504 9.72673 11.52 12.36L12.48 11.64C10.7778 9.37035 10.5039 6.33374 11.7727 3.79619L10.6994 3.25954Z" fill="#28293D"/>
</svg>
