<svg width="24" height="24" viewBox="0 0 24 24" fill="none" xmlns="http://www.w3.org/2000/svg">
<path d="M20.8671 12.1752L20.6549 12.7364L20.8671 12.1752ZM17.9378 11.0675L17.7256 11.6287L17.9378 11.0675ZM21.6463 13.4196L21.0755 13.2349L21.6463 13.4196ZM21.0588 12.2477L21.271 11.6865L21.0588 12.2477ZM13.5618 10.301L13.0628 9.96781L13.5618 10.301ZM14.8027 9.88186L14.5905 10.4431L14.8027 9.88186ZM13.9795 21.7572L13.7472 21.204L13.9795 21.7572ZM12.7801 21.3116L13.3085 21.0273L12.7801 21.3116ZM9.8026 14.0629L10.1362 14.5616L9.8026 14.0629ZM15.8411 3.67003L15.2501 3.77389L15.8411 3.67003ZM15.2501 3.77389C15.3486 4.33402 15.4 4.91076 15.4 5.5H16.6C16.6 4.84082 16.5425 4.19458 16.432 3.56617L15.2501 3.77389ZM16.9456 2.9855C19.0613 4.80206 20.4 7.49437 20.4 10.5H21.6C21.6 7.12976 20.0972 4.10986 17.7273 2.07505L16.9456 2.9855ZM5.5 15.4C4.91076 15.4 4.33402 15.3486 3.77389 15.2501L3.56617 16.432C4.19458 16.5425 4.84082 16.6 5.5 16.6V15.4ZM10.5 20.4C7.49437 20.4 4.80206 19.0613 2.9855 16.9456L2.07505 17.7273C4.10986 20.0972 7.12976 21.6 10.5 21.6V20.4ZM13.0628 9.96781C12.1132 11.3897 10.8902 12.6136 9.46902 13.5642L10.1362 14.5616C11.6882 13.5235 13.0237 12.1871 14.0608 10.6343L13.0628 9.96781ZM21.0755 13.2349C19.9097 16.8367 17.2102 19.7503 13.7472 21.204L14.2117 22.3105C17.9947 20.7224 20.943 17.541 22.2171 13.6044L21.0755 13.2349ZM14.5905 10.4431L14.7964 10.5209L15.2208 9.39849L15.015 9.32064L14.5905 10.4431ZM15.4 5.5C15.4 7.00453 15.0648 8.42911 14.4655 9.70456L15.5516 10.2148C16.2243 8.78307 16.6 7.18457 16.6 5.5H15.4ZM9.26984 14.6571C8.10866 15.1357 6.83595 15.4 5.5 15.4V16.6C6.99553 16.6 8.42342 16.3039 9.72711 15.7666L9.26984 14.6571ZM8.97009 15.4961L11.9808 21.0922L13.0375 20.5237L10.0269 14.9276L8.97009 15.4961ZM11.9808 21.0922L12.2517 21.5959L13.3085 21.0273L13.0375 20.5237L11.9808 21.0922ZM12.395 20.2189C11.7821 20.3377 11.1486 20.4 10.5 20.4V21.6C11.2256 21.6 11.9356 21.5303 12.6233 21.397L12.395 20.2189ZM20.4 10.5C20.4 11.0382 20.3571 11.566 20.2747 12.0802L21.4595 12.2702C21.552 11.6934 21.6 11.1021 21.6 10.5H20.4ZM20.6549 12.7364L20.8466 12.8089L21.271 11.6865L21.0793 11.614L20.6549 12.7364ZM14.7964 10.5209L17.7256 11.6287L18.1501 10.5062L15.2208 9.39849L14.7964 10.5209ZM17.7256 11.6287L20.6549 12.7364L21.0793 11.614L18.1501 10.5062L17.7256 11.6287ZM22.2171 13.6044C22.4799 12.7926 22.0214 11.9703 21.271 11.6865L20.8466 12.8089C21.0465 12.8845 21.1256 13.08 21.0755 13.2349L22.2171 13.6044ZM14.0608 10.6343C14.1898 10.441 14.4151 10.3767 14.5905 10.4431L15.015 9.32064C14.2757 9.04108 13.4769 9.34785 13.0628 9.96781L14.0608 10.6343ZM13.7472 21.204C13.6012 21.2653 13.4062 21.2089 13.3085 21.0273L12.2517 21.5959C12.6193 22.2792 13.4522 22.6293 14.2117 22.3105L13.7472 21.204ZM9.46902 13.5642C8.85342 13.9759 8.59789 14.8043 8.97009 15.4961L10.0269 14.9276C9.96863 14.8193 9.99663 14.655 10.1362 14.5616L9.46902 13.5642ZM3.77389 15.2501C3.08601 15.1292 2.43264 15.4165 2.05612 15.8839C1.86474 16.1215 1.73065 16.4237 1.72014 16.7603C1.70936 17.1054 1.83036 17.4423 2.07505 17.7273L2.9855 16.9456C2.92403 16.874 2.91869 16.8254 2.91955 16.7978C2.92068 16.7618 2.93621 16.7042 2.99058 16.6367C3.10557 16.494 3.32825 16.3902 3.56617 16.432L3.77389 15.2501ZM16.432 3.56617C16.3902 3.32825 16.494 3.10557 16.6367 2.99058C16.7042 2.93621 16.7618 2.92068 16.7978 2.91955C16.8254 2.91869 16.874 2.92403 16.9456 2.9855L17.7273 2.07505C17.4423 1.83036 17.1054 1.70936 16.7603 1.72014C16.4237 1.73065 16.1215 1.86474 15.8839 2.05612C15.4165 2.43264 15.1292 3.08601 15.2501 3.77389L16.432 3.56617Z" fill="#28293D"/>
</svg>
