<svg width="24" height="24" viewBox="0 0 24 24" fill="none" xmlns="http://www.w3.org/2000/svg">
<mask id="mask0_402_12840" style="mask-type:alpha" maskUnits="userSpaceOnUse" x="9" y="0" width="15" height="24">
<path d="M9 8.32335V0H24V24H18V8.32335H9Z" fill="white"/>
</mask>
<g mask="url(#mask0_402_12840)">
<path d="M22 6L22.5954 6.07442L22.6797 5.4H22V6ZM12 6V5.4H11.3203L11.4046 6.07442L12 6ZM13.8905 21.124L13.2951 21.1985L13.8905 21.124ZM20.1095 21.124L19.5141 21.0496L20.1095 21.124ZM16.4 1V6H17.6V1H16.4ZM22 5.4H17V6.6H22V5.4ZM21.4046 5.92558L19.5141 21.0496L20.7049 21.1985L22.5954 6.07442L21.4046 5.92558ZM12 6.6H17V5.4H12V6.6ZM11.4046 6.07442L13.2951 21.1985L14.4859 21.0496L12.5954 5.92558L11.4046 6.07442ZM19.1172 21.4H14.8828V22.6H19.1172V21.4ZM13.2951 21.1985C13.3952 21.9991 14.0759 22.6 14.8828 22.6V21.4C14.6811 21.4 14.5109 21.2498 14.4859 21.0496L13.2951 21.1985ZM19.5141 21.0496C19.4891 21.2498 19.3189 21.4 19.1172 21.4V22.6C19.9241 22.6 20.6048 21.9991 20.7049 21.1985L19.5141 21.0496Z" fill="#28293D"/>
</g>
<mask id="mask1_402_12840" style="mask-type:alpha" maskUnits="userSpaceOnUse" x="0" y="8" width="17" height="16">
<path d="M17 8H0V24H17V21.4064H0.5V18.6034H17V17.4022H0.5V14.5983H17V8Z" fill="white"/>
</mask>
<g mask="url(#mask1_402_12840)">
<path d="M14.9 21.4H2.1V22.6H14.9V21.4ZM8.5 10.6C10.1417 10.6 11.6547 11.0705 12.7421 11.7573C13.8563 12.461 14.4 13.3019 14.4 14H15.6C15.6 12.6981 14.6437 11.539 13.3829 10.7427C12.0953 9.92949 10.3583 9.4 8.5 9.4V10.6ZM2.6 14C2.6 13.3019 3.14371 12.461 4.2579 11.7573C5.3453 11.0705 6.85834 10.6 8.5 10.6V9.4C6.64166 9.4 4.9047 9.92949 3.6171 10.7427C2.35629 11.539 1.4 12.6981 1.4 14H2.6ZM2 14.6H15V13.4H2V14.6ZM2.6 21.9V18H1.4V21.9H2.6ZM2.6 18V14H1.4V18H2.6ZM14.4 14V18H15.6V14H14.4ZM14.4 18V21.9H15.6V18H14.4ZM2 18.6H15V17.4H2V18.6ZM14.9 22.6C15.2866 22.6 15.6 22.2866 15.6 21.9H14.4C14.4 21.6239 14.6239 21.4 14.9 21.4V22.6ZM2.1 21.4C2.37614 21.4 2.6 21.6239 2.6 21.9H1.4C1.4 22.2866 1.7134 22.6 2.1 22.6V21.4Z" fill="#28293D"/>
</g>
</svg>
