<svg width="24" height="24" viewBox="0 0 24 24" fill="none" xmlns="http://www.w3.org/2000/svg">
<path d="M14.1695 2L14.5938 1.57574L14.1695 1.15147L13.7452 1.57574L14.1695 2ZM22 9.83051L22.4243 10.2548L22.8485 9.83051L22.4243 9.40624L22 9.83051ZM10.9661 13.0339L11.3904 12.6096L10.9661 13.0339ZM1.07573 22.0757C0.84142 22.3101 0.84142 22.6899 1.07573 22.9243C1.31005 23.1586 1.68995 23.1586 1.92426 22.9243L1.07573 22.0757ZM9.17217 11.24L9.59643 10.8157L9.17217 11.24ZM12.76 14.8278L12.3358 15.2521L12.76 14.8278ZM14.813 5.49099L10.5418 9.76218L11.3904 10.6107L15.6616 6.33952L14.813 5.49099ZM17.6605 8.33845L13.3893 12.6096L14.2378 13.4582L18.509 9.18698L17.6605 8.33845ZM13.7452 2.42426L21.5757 10.2548L22.4243 9.40624L14.5938 1.57574L13.7452 2.42426ZM21.5757 9.40624L16.5784 14.4036L17.4269 15.2521L22.4243 10.2548L21.5757 9.40624ZM9.59643 7.42159L14.5938 2.42426L13.7452 1.57574L8.7479 6.57306L9.59643 7.42159ZM10.5418 12.6096L1.07573 22.0757L1.92426 22.9243L11.3904 13.4582L10.5418 12.6096ZM13.1843 14.4036L11.3904 12.6096L10.5418 13.4582L12.3358 15.2521L13.1843 14.4036ZM11.3904 12.6096L9.59643 10.8157L8.74791 11.6642L10.5418 13.4582L11.3904 12.6096ZM8.7479 6.57306C7.34202 7.97895 7.34202 10.2583 8.74791 11.6642L9.59643 10.8157C8.65917 9.87844 8.65917 8.35885 9.59643 7.42159L8.7479 6.57306ZM16.5784 14.4036C15.6412 15.3408 14.1216 15.3408 13.1843 14.4036L12.3358 15.2521C13.7417 16.658 16.0211 16.658 17.4269 15.2521L16.5784 14.4036Z" fill="#28293D"/>
</svg>
