<svg width="24" height="24" viewBox="0 0 24 24" fill="none" xmlns="http://www.w3.org/2000/svg">
<path d="M17.9171 9L18.5088 9.09927L18.6261 8.4H17.9171V9ZM6.08301 9V8.4H5.37396L5.49128 9.09927L6.08301 9ZM13.3979 13.8363L13.2587 13.2527L13.3979 13.8363ZM15.7288 17.456L16.1104 17.9189L15.7288 17.456ZM10.6022 13.8363L10.7414 13.2527L10.6022 13.8363ZM5.49519 20.6757C5.31609 20.9545 5.3969 21.3257 5.6757 21.5048C5.95449 21.6839 6.3257 21.6031 6.50481 21.3243L5.49519 20.6757ZM17.9171 8.4H6.08301V9.6H17.9171V8.4ZM18.4 19C18.4 19.7732 17.7732 20.4 17 20.4V21.6C18.436 21.6 19.6 20.4359 19.6 19H18.4ZM17 20.4C16.2269 20.4 15.6 19.7732 15.6 19H14.4C14.4 20.4359 15.5641 21.6 17 21.6V20.4ZM17 17.6C17.7732 17.6 18.4 18.2268 18.4 19H19.6C19.6 17.5641 18.436 16.4 17 16.4V17.6ZM17.3254 8.90073C16.9665 11.0398 15.3478 12.7541 13.2587 13.2527L13.5372 14.4199C16.0921 13.8102 18.0697 11.7168 18.5088 9.09927L17.3254 8.90073ZM13.2587 13.2527C12.8554 13.3489 12.4341 13.4 12 13.4V14.6C12.5286 14.6 13.0434 14.5377 13.5372 14.4199L13.2587 13.2527ZM15.6 19C15.6 18.565 15.7977 18.1767 16.1104 17.9189L15.3471 16.993C14.7698 17.4689 14.4 18.1915 14.4 19H15.6ZM16.1104 17.9189C16.3525 17.7194 16.6615 17.6 17 17.6V16.4C16.3729 16.4 15.7962 16.6228 15.3471 16.993L16.1104 17.9189ZM12.8935 14.1611L15.2243 17.7808L16.2332 17.1311L13.9024 13.5115L12.8935 14.1611ZM12 13.4C11.566 13.4 11.1447 13.3489 10.7414 13.2527L10.4629 14.4199C10.9567 14.5377 11.4715 14.6 12 14.6V13.4ZM10.7414 13.2527C8.65231 12.7541 7.03361 11.0398 6.67474 8.90073L5.49128 9.09927C5.93042 11.7168 7.90805 13.8102 10.4629 14.4199L10.7414 13.2527ZM10.0974 13.512L6.78005 18.6757L7.78966 19.3243L11.107 14.1606L10.0974 13.512ZM6.78005 18.6757L5.49519 20.6757L6.50481 21.3243L7.78966 19.3243L6.78005 18.6757ZM7.28486 19.6H15V18.4H7.28486V19.6Z" fill="#28293D"/>
<path d="M9.29398 4.5268L9.71823 4.10252L9.29398 4.5268ZM11.794 4.5268L12.2182 4.10252L11.794 4.5268ZM14.294 4.5268L14.7182 4.10252L14.294 4.5268ZM7.92248 2.00003C7.92249 2.18113 7.86371 2.71625 7.94048 3.20513C8.0274 3.75866 8.27703 4.35842 8.86973 4.95108L9.71823 4.10252C9.31086 3.69518 9.17475 3.32975 9.12595 3.01897C9.067 2.64355 9.1225 2.41528 9.12248 1.99997L7.92248 2.00003ZM8.86973 4.95108C9.272 5.35332 9.37471 5.71025 9.39645 6.00418C9.4082 6.16316 9.39698 6.31783 9.37854 6.47964C9.36342 6.61232 9.33076 6.83003 9.33076 6.99907H10.5308C10.5308 6.92088 10.546 6.83341 10.5708 6.61553C10.5923 6.42678 10.6131 6.18549 10.5932 5.91567C10.5515 5.35203 10.3358 4.72005 9.71823 4.10252L8.86973 4.95108ZM10.4225 2.00003C10.4225 2.18113 10.3637 2.71625 10.4405 3.20513C10.5274 3.75866 10.777 4.35842 11.3697 4.95108L12.2182 4.10252C11.8109 3.69518 11.6748 3.32975 11.626 3.01897C11.567 2.64355 11.6225 2.41528 11.6225 1.99997L10.4225 2.00003ZM11.3697 4.95108C11.772 5.35332 11.8747 5.71025 11.8964 6.00418C11.9082 6.16316 11.897 6.31783 11.8785 6.47964C11.8634 6.61232 11.8308 6.83003 11.8308 6.99907H13.0308C13.0308 6.92088 13.046 6.83341 13.0708 6.61553C13.0923 6.42678 13.1131 6.18549 13.0932 5.91567C13.0515 5.35203 12.8358 4.72005 12.2182 4.10252L11.3697 4.95108ZM12.9225 2.00003C12.9225 2.18113 12.8637 2.71625 12.9405 3.20513C13.0274 3.75866 13.277 4.35842 13.8697 4.95108L14.7182 4.10252C14.3109 3.69518 14.1748 3.32975 14.126 3.01897C14.067 2.64355 14.1225 2.41528 14.1225 1.99997L12.9225 2.00003ZM13.8697 4.95108C14.272 5.35332 14.3747 5.71025 14.3964 6.00418C14.4082 6.16316 14.397 6.31783 14.3785 6.47964C14.3634 6.61232 14.3308 6.83003 14.3308 6.99907H15.5308C15.5308 6.92088 15.546 6.83341 15.5708 6.61553C15.5923 6.42678 15.6131 6.18549 15.5932 5.91567C15.5515 5.35203 15.3358 4.72005 14.7182 4.10252L13.8697 4.95108Z" fill="#28293D"/>
</svg>
