<svg width="24" height="24" viewBox="0 0 24 24" fill="none" xmlns="http://www.w3.org/2000/svg">
<path d="M7.6102 11.9495L8.06641 11.5598L7.6102 11.9495ZM12 16.6307L11.5659 17.0449L12 17.5L12.4341 17.0449L12 16.6307ZM16.3898 11.9495L15.9336 11.5598H15.9336L16.3898 11.9495ZM7.52114 9.91743C7.52114 8.83954 8.3914 7.96926 9.46058 7.96926V6.76926C7.72477 6.76926 6.32114 8.18069 6.32114 9.91743H7.52114ZM9.46058 7.96926C10.5298 7.96926 11.4 8.83954 11.4 9.91743H12.6C12.6 8.18069 11.1964 6.76926 9.46058 6.76926V7.96926ZM8.06641 11.5598C7.55342 10.9593 7.52114 10.4373 7.52114 9.91743H6.32114C6.32114 10.5448 6.36553 11.4162 7.15398 12.3392L8.06641 11.5598ZM7.15398 12.3392C7.49186 12.7348 8.60335 13.9196 9.61307 14.9879C10.1217 15.526 10.6098 16.0402 10.9708 16.4199C11.1513 16.6097 11.3 16.7659 11.4036 16.8747C11.4555 16.9291 11.496 16.9716 11.5236 17.0005C11.5374 17.015 11.5479 17.0261 11.5551 17.0335C11.5586 17.0373 11.5613 17.0401 11.5631 17.042C11.564 17.043 11.5647 17.0437 11.5652 17.0442C11.5654 17.0444 11.5656 17.0446 11.5657 17.0447C11.5658 17.0448 11.5658 17.0448 11.5658 17.0448C11.5659 17.0449 11.5659 17.0449 12 16.6307C12.4341 16.2166 12.4341 16.2165 12.4341 16.2165C12.4341 16.2165 12.434 16.2165 12.434 16.2164C12.4339 16.2163 12.4337 16.2161 12.4335 16.2159C12.433 16.2154 12.4324 16.2147 12.4315 16.2138C12.4297 16.2119 12.427 16.2091 12.4235 16.2054C12.4164 16.198 12.4059 16.1869 12.3921 16.1725C12.3646 16.1437 12.3242 16.1012 12.2725 16.047C12.1691 15.9384 12.0206 15.7825 11.8404 15.593C11.48 15.2139 10.9927 14.7006 10.4852 14.1637C9.46266 13.0818 8.37925 11.9261 8.06641 11.5598L7.15398 12.3392ZM17.6789 9.91743C17.6789 8.18069 16.2752 6.76926 14.5394 6.76926V7.96926C15.6086 7.96926 16.4789 8.83954 16.4789 9.91743H17.6789ZM14.5394 6.76926C12.8036 6.76926 11.4 8.18069 11.4 9.91743H12.6C12.6 8.83954 13.4703 7.96926 14.5394 7.96926V6.76926ZM16.846 12.3392C17.6345 11.4162 17.6789 10.5448 17.6789 9.91743H16.4789C16.4789 10.4373 16.4466 10.9593 15.9336 11.5598L16.846 12.3392ZM15.9336 11.5598C15.6208 11.9261 14.5374 13.0818 13.5148 14.1637C13.0073 14.7006 12.52 15.2139 12.1596 15.593C11.9794 15.7825 11.8309 15.9384 11.7275 16.047C11.6758 16.1012 11.6354 16.1437 11.6079 16.1725C11.5941 16.1869 11.5836 16.198 11.5766 16.2054C11.573 16.2091 11.5703 16.2119 11.5686 16.2138C11.5677 16.2147 11.567 16.2154 11.5665 16.2159C11.5663 16.2161 11.5661 16.2163 11.566 16.2164C11.566 16.2165 11.5659 16.2165 11.5659 16.2165C11.5659 16.2165 11.5659 16.2166 12 16.6307C12.4341 17.0449 12.4342 17.0449 12.4342 17.0448C12.4342 17.0448 12.4343 17.0448 12.4343 17.0447C12.4344 17.0446 12.4346 17.0444 12.4348 17.0442C12.4353 17.0437 12.436 17.043 12.4369 17.042C12.4387 17.0401 12.4414 17.0373 12.445 17.0335C12.4521 17.0261 12.4626 17.015 12.4764 17.0005C12.504 16.9716 12.5446 16.9291 12.5964 16.8747C12.7 16.7659 12.8487 16.6097 13.0292 16.4199C13.3902 16.0402 13.8783 15.526 14.3869 14.9879C15.3967 13.9196 16.5082 12.7348 16.846 12.3392L15.9336 11.5598ZM5 1.6H19V0.4H5V1.6ZM19.4 2V22H20.6V2H19.4ZM19 22.4H5V23.6H19V22.4ZM4.6 22V2H3.4V22H4.6ZM5 22.4C4.77909 22.4 4.6 22.2209 4.6 22H3.4C3.4 22.8837 4.11634 23.6 5 23.6V22.4ZM19.4 22C19.4 22.2209 19.2209 22.4 19 22.4V23.6C19.8837 23.6 20.6 22.8837 20.6 22H19.4ZM19 1.6C19.2209 1.6 19.4 1.77909 19.4 2H20.6C20.6 1.11634 19.8837 0.4 19 0.4V1.6ZM5 0.4C4.11634 0.4 3.4 1.11635 3.4 2H4.6C4.6 1.77909 4.77909 1.6 5 1.6V0.4Z" fill="#28293D"/>
</svg>
