<svg width="24" height="24" viewBox="0 0 24 24" fill="none" xmlns="http://www.w3.org/2000/svg">
<path d="M21.4 3V21H22.6V3H21.4ZM2.6 21V3H1.4V21H2.6ZM21 21.4H12V22.6H21V21.4ZM12 21.4H3V22.6H12V21.4ZM3 2.6H12V1.4H3V2.6ZM12 2.6H21V1.4H12V2.6ZM12.6 22V2H11.4V22H12.6ZM14.5 11.6H19.5V10.4H14.5V11.6ZM14.5 15.1H19.5V13.9H14.5V15.1ZM14.5 18.6H18V17.4H14.5V18.6ZM4.5 11.6H9.5V10.4H4.5V11.6ZM4.5 15.1H9.5V13.9H4.5V15.1ZM4.5 18.6H8V17.4H4.5V18.6ZM1.4 21C1.4 21.8837 2.11634 22.6 3 22.6V21.4C2.77909 21.4 2.6 21.2209 2.6 21H1.4ZM21.4 21C21.4 21.2209 21.2209 21.4 21 21.4V22.6C21.8837 22.6 22.6 21.8837 22.6 21H21.4ZM22.6 3C22.6 2.11634 21.8837 1.4 21 1.4V2.6C21.2209 2.6 21.4 2.77909 21.4 3H22.6ZM2.6 3C2.6 2.77909 2.77909 2.6 3 2.6V1.4C2.11634 1.4 1.4 2.11634 1.4 3H2.6ZM17.4 6C17.4 6.22091 17.2209 6.4 17 6.4V7.6C17.8837 7.6 18.6 6.88366 18.6 6H17.4ZM17 6.4C16.7791 6.4 16.6 6.22091 16.6 6H15.4C15.4 6.88366 16.1163 7.6 17 7.6V6.4ZM16.6 6C16.6 5.77909 16.7791 5.6 17 5.6V4.4C16.1163 4.4 15.4 5.11634 15.4 6H16.6ZM17 5.6C17.2209 5.6 17.4 5.77909 17.4 6H18.6C18.6 5.11634 17.8837 4.4 17 4.4V5.6ZM7.4 6C7.4 6.22091 7.22091 6.4 7 6.4V7.6C7.88366 7.6 8.6 6.88366 8.6 6H7.4ZM7 6.4C6.77909 6.4 6.6 6.22091 6.6 6H5.4C5.4 6.88366 6.11634 7.6 7 7.6V6.4ZM6.6 6C6.6 5.77909 6.77909 5.6 7 5.6V4.4C6.11634 4.4 5.4 5.11634 5.4 6H6.6ZM7 5.6C7.22091 5.6 7.4 5.77909 7.4 6H8.6C8.6 5.11634 7.88366 4.4 7 4.4V5.6Z" fill="#28293D"/>
</svg>
