<svg width="24" height="24" viewBox="0 0 24 24" fill="none" xmlns="http://www.w3.org/2000/svg">
<path d="M4.53458 21.7929L4.11032 22.2172L4.53458 21.7929ZM2.2071 18.0512L2.63137 18.4755L2.2071 18.0512ZM2.20711 19.4654L2.63137 19.0411L2.20711 19.4654ZM14.8966 3.71581C16.3843 2.22806 18.7964 2.22806 20.2842 3.71581L21.1327 2.86728C19.1763 0.910905 16.0044 0.910905 14.048 2.86728L14.8966 3.71581ZM20.2842 3.71581C21.7719 5.20356 21.7719 7.61568 20.2842 9.10344L21.1327 9.95196C23.0891 7.99558 23.0891 4.82366 21.1327 2.86728L20.2842 3.71581ZM14.8966 9.10344C14.0155 8.22239 13.6558 7.01764 13.8189 5.8702L12.6308 5.70136C12.4169 7.20635 12.8888 8.79277 14.048 9.95196L14.8966 9.10344ZM13.8189 5.8702C13.9309 5.08188 14.2896 4.32273 14.8966 3.71581L14.048 2.86728C13.2511 3.66425 12.7782 4.66455 12.6308 5.70136L13.8189 5.8702ZM12.7749 5.38882L3.42093 15.9905L4.32075 16.7844L13.6747 6.18274L12.7749 5.38882ZM20.2842 9.10344C19.6773 9.71036 18.9181 10.0691 18.1298 10.1811L18.2986 11.3692C19.3354 11.2218 20.3357 10.7489 21.1327 9.95196L20.2842 9.10344ZM18.1298 10.1811C16.9824 10.3442 15.7776 9.98448 14.8966 9.10344L14.048 9.95196C15.2072 11.1112 16.7936 11.5831 18.2986 11.3692L18.1298 10.1811ZM17.8172 10.3252L7.21556 19.6792L8.00949 20.5791L18.6112 11.2251L17.8172 10.3252ZM3.44657 15.9632L1.78284 17.6269L2.63137 18.4755L4.2951 16.8117L3.44657 15.9632ZM1.78284 19.8897L4.11032 22.2172L4.95885 21.3686L2.63137 19.0411L1.78284 19.8897ZM6.37306 22.2172L8.03679 20.5534L7.18826 19.7049L5.52453 21.3686L6.37306 22.2172ZM12.1772 10.9743L9.68272 13.4687L10.5313 14.3173L13.0257 11.8228L12.1772 10.9743ZM3.44657 16.8117L7.18826 20.5534L8.03679 19.7049L4.2951 15.9632L3.44657 16.8117ZM4.11032 22.2172C4.73516 22.842 5.74822 22.842 6.37306 22.2172L5.52453 21.3686C5.36832 21.5248 5.11506 21.5248 4.95885 21.3686L4.11032 22.2172ZM1.78284 17.6269C1.158 18.2518 1.158 19.2648 1.78284 19.8897L2.63137 19.0411C2.47516 18.8849 2.47516 18.6317 2.63137 18.4755L1.78284 17.6269Z" fill="#28293D"/>
</svg>
