<svg width="24" height="24" viewBox="0 0 24 24" fill="none" xmlns="http://www.w3.org/2000/svg">
<mask id="path-1-inside-1_402_12772" fill="white">
<path d="M11.5 5.75C11.5 7.26878 10.2688 8.5 8.75 8.5C7.23122 8.5 6 7.26878 6 5.75C6 4.23122 7.23122 3 8.75 3C10.2688 3 11.5 4.23122 11.5 5.75Z"/>
<path d="M12.5 5.75C12.5 7.26878 13.7312 8.5 15.25 8.5C16.7688 8.5 18 7.26878 18 5.75C18 4.23122 16.7688 3 15.25 3C13.7312 3 12.5 4.23122 12.5 5.75Z"/>
<path d="M7.5 10.75C7.5 12.2688 6.26878 13.5 4.75 13.5C3.23122 13.5 2 12.2688 2 10.75C2 9.23122 3.23122 8 4.75 8C6.26878 8 7.5 9.23122 7.5 10.75Z"/>
<path d="M16.5 10.75C16.5 12.2688 17.7312 13.5 19.25 13.5C20.7688 13.5 22 12.2688 22 10.75C22 9.23122 20.7688 8 19.25 8C17.7312 8 16.5 9.23122 16.5 10.75Z"/>
<path d="M8.5 21C6.567 21 5 19.433 5 17.5C5 16.6679 5.29036 15.9037 5.77528 15.303L9.76389 11C10.3132 10.3863 11.1115 10 12 10C12.8885 10 13.6868 10.3863 14.2361 11L18.2247 15.303C18.7096 15.9037 19 16.6679 19 17.5C19 19.433 17.433 21 15.5 21C14.8478 21 14.2373 20.8216 13.7146 20.511C13.6468 20.4707 13.5806 20.4283 13.5159 20.3837C13.071 20.1227 12.553 19.9731 12 19.9731C11.4615 19.9731 10.9192 20.1322 10.4841 20.3837C9.92024 20.7724 9.2367 21 8.5 21Z"/>
</mask>
<path d="M13.7146 20.511L13.3712 21.003L13.3712 21.0031L13.7146 20.511ZM13.2123 20.9012C13.2666 20.9331 13.3197 20.9671 13.3712 21.003L14.0579 20.0189C13.9806 19.965 13.9011 19.914 13.8195 19.8661L13.2123 20.9012ZM13.3712 21.0031C13.5244 21.1099 13.6647 21.2343 13.789 21.3732L14.6832 20.5729C14.4972 20.3651 14.2873 20.179 14.0579 20.0189L13.3712 21.0031ZM9.76389 11L10.644 11.8158L10.6511 11.8081L10.6581 11.8003L9.76389 11ZM5.77528 15.303L4.89521 14.4873L4.86734 14.5173L4.84158 14.5492L5.77528 15.303ZM14.2361 11L13.3419 11.8003L13.3489 11.8081L13.356 11.8158L14.2361 11ZM18.2247 15.303L19.1584 14.5492L19.1327 14.5173L19.1048 14.4873L18.2247 15.303ZM13.5159 20.3837L14.197 19.3957L14.1609 19.3708L14.1231 19.3486L13.5159 20.3837ZM13.7146 20.511L14.3276 19.4794L14.3276 19.4794L13.7146 20.511ZM10.4841 20.3837L9.88377 19.3446L9.84239 19.3685L9.80304 19.3957L10.4841 20.3837ZM10.3 5.75C10.3 6.60604 9.60604 7.3 8.75 7.3V9.7C10.9315 9.7 12.7 7.93152 12.7 5.75H10.3ZM8.75 7.3C7.89396 7.3 7.2 6.60604 7.2 5.75H4.8C4.8 7.93152 6.56848 9.7 8.75 9.7V7.3ZM7.2 5.75C7.2 4.89396 7.89396 4.2 8.75 4.2V1.8C6.56848 1.8 4.8 3.56848 4.8 5.75H7.2ZM8.75 4.2C9.60604 4.2 10.3 4.89396 10.3 5.75H12.7C12.7 3.56848 10.9315 1.8 8.75 1.8V4.2ZM11.3 5.75C11.3 7.93152 13.0685 9.7 15.25 9.7V7.3C14.394 7.3 13.7 6.60604 13.7 5.75H11.3ZM15.25 9.7C17.4315 9.7 19.2 7.93152 19.2 5.75H16.8C16.8 6.60604 16.106 7.3 15.25 7.3V9.7ZM19.2 5.75C19.2 3.56848 17.4315 1.8 15.25 1.8V4.2C16.106 4.2 16.8 4.89396 16.8 5.75H19.2ZM15.25 1.8C13.0685 1.8 11.3 3.56848 11.3 5.75H13.7C13.7 4.89396 14.394 4.2 15.25 4.2V1.8ZM6.3 10.75C6.3 11.606 5.60604 12.3 4.75 12.3V14.7C6.93152 14.7 8.7 12.9315 8.7 10.75H6.3ZM4.75 12.3C3.89396 12.3 3.2 11.606 3.2 10.75H0.8C0.8 12.9315 2.56848 14.7 4.75 14.7V12.3ZM3.2 10.75C3.2 9.89396 3.89396 9.2 4.75 9.2V6.8C2.56848 6.8 0.8 8.56848 0.8 10.75H3.2ZM4.75 9.2C5.60604 9.2 6.3 9.89396 6.3 10.75H8.7C8.7 8.56848 6.93152 6.8 4.75 6.8V9.2ZM15.3 10.75C15.3 12.9315 17.0685 14.7 19.25 14.7V12.3C18.394 12.3 17.7 11.606 17.7 10.75H15.3ZM19.25 14.7C21.4315 14.7 23.2 12.9315 23.2 10.75H20.8C20.8 11.606 20.106 12.3 19.25 12.3V14.7ZM23.2 10.75C23.2 8.56848 21.4315 6.8 19.25 6.8V9.2C20.106 9.2 20.8 9.89396 20.8 10.75H23.2ZM19.25 6.8C17.0685 6.8 15.3 8.56848 15.3 10.75H17.7C17.7 9.89396 18.394 9.2 19.25 9.2V6.8ZM8.5 19.8C7.22974 19.8 6.2 18.7703 6.2 17.5H3.8C3.8 20.0957 5.90426 22.2 8.5 22.2V19.8ZM17.8 17.5C17.8 18.7703 16.7703 19.8 15.5 19.8V22.2C18.0957 22.2 20.2 20.0957 20.2 17.5H17.8ZM10.6581 11.8003C10.9894 11.4301 11.467 11.2 12 11.2V8.8C10.756 8.8 9.63706 9.34237 8.86973 10.1997L10.6581 11.8003ZM6.2 17.5C6.2 16.9521 6.3901 16.4518 6.70897 16.0568L4.84158 14.5492C4.19062 15.3555 3.8 16.3838 3.8 17.5H6.2ZM12 11.2C12.533 11.2 13.0106 11.4301 13.3419 11.8003L15.1303 10.1997C14.3629 9.34237 13.244 8.8 12 8.8V11.2ZM17.291 16.0568C17.6099 16.4518 17.8 16.9521 17.8 17.5H20.2C20.2 16.3838 19.8094 15.3555 19.1584 14.5492L17.291 16.0568ZM13.356 11.8158L17.3447 16.1188L19.1048 14.4873L15.1162 10.1842L13.356 11.8158ZM12 21.1731C12.3338 21.1731 12.6429 21.2628 12.9086 21.4187L14.1231 19.3486C13.4992 18.9826 12.7722 18.7731 12 18.7731V21.1731ZM15.5 19.8C15.0695 19.8 14.67 19.6828 14.3276 19.4794L13.1015 21.5426C13.8046 21.9604 14.6262 22.2 15.5 22.2V19.8ZM14.3276 19.4794C14.2831 19.4529 14.2395 19.425 14.197 19.3957L12.8348 21.3716C12.9216 21.4315 13.0105 21.4885 13.1015 21.5426L14.3276 19.4794ZM9.80304 19.3957C9.43302 19.6508 8.98574 19.8 8.5 19.8V22.2C9.48766 22.2 10.4075 21.894 11.1652 21.3716L9.80304 19.3957ZM11.0845 21.4227C11.3489 21.2699 11.6855 21.1731 12 21.1731V18.7731C11.2375 18.7731 10.4896 18.9946 9.88377 19.3446L11.0845 21.4227ZM8.88382 10.1842L4.89521 14.4873L6.65535 16.1188L10.644 11.8158L8.88382 10.1842Z" fill="#28293D" mask="url(#path-1-inside-1_402_12772)"/>
</svg>
