<svg width="24" height="24" viewBox="0 0 24 24" fill="none" xmlns="http://www.w3.org/2000/svg">
<path d="M3 5.26261L2.71538 4.73442L2.17368 5.02631L2.47916 5.56048L3 5.26261ZM12 21L11.4792 21.2979L12 22.2086L12.5208 21.2979L12 21ZM21 5.26261L21.5208 5.56048L21.8263 5.02631L21.2846 4.73442L21 5.26261ZM17.5127 11.3604L18.0336 11.6583L17.5127 11.3604ZM14.8612 15.9968L15.3821 16.2947L14.8612 15.9968ZM3.28462 5.79081C5.87811 4.39331 8.84552 3.6 12 3.6V2.4C8.64195 2.4 5.47948 3.24498 2.71538 4.73442L3.28462 5.79081ZM2.47916 5.56048L11.4792 21.2979L12.5208 20.7021L3.52084 4.96475L2.47916 5.56048ZM12 3.6C15.1545 3.6 18.1219 4.39331 20.7154 5.79081L21.2846 4.73442C18.5205 3.24498 15.358 2.4 12 2.4V3.6ZM12.6 13C12.6 11.6745 13.6745 10.6 15 10.6V9.4C13.0118 9.4 11.4 11.0118 11.4 13H12.6ZM11.4 6C11.4 6.7732 10.7732 7.4 10 7.4V8.6C11.4359 8.6 12.6 7.43594 12.6 6H11.4ZM10 7.4C9.2268 7.4 8.6 6.7732 8.6 6H7.4C7.4 7.43594 8.56406 8.6 10 8.6V7.4ZM8.6 6C8.6 5.2268 9.2268 4.6 10 4.6V3.4C8.56406 3.4 7.4 4.56406 7.4 6H8.6ZM10 4.6C10.7732 4.6 11.4 5.2268 11.4 6H12.6C12.6 4.56406 11.4359 3.4 10 3.4V4.6ZM15 10.6C15.8408 10.6 16.5811 11.0319 17.0106 11.6888L18.0149 11.0321C17.3732 10.0506 16.2627 9.4 15 9.4V10.6ZM18.0336 11.6583L21.5208 5.56048L20.4792 4.96475L16.9919 11.0626L18.0336 11.6583ZM12.5208 21.2979L15.3821 16.2947L14.3404 15.699L11.4792 20.7021L12.5208 21.2979ZM15.3821 16.2947L18.0336 11.6583L16.9919 11.0626L14.3404 15.699L15.3821 16.2947ZM14.8885 15.3975C13.615 15.3395 12.6 14.2881 12.6 13H11.4C11.4 14.9326 12.9226 16.5092 14.8339 16.5962L14.8885 15.3975Z" fill="#28293D"/>
</svg>
