<svg width="24" height="24" viewBox="0 0 24 24" fill="none" xmlns="http://www.w3.org/2000/svg">
<path d="M4 7V6.4H3.31469L3.40526 7.0793L4 7ZM6 22L5.40526 22.0793L5.47469 22.6H6V22ZM20 7L20.5947 7.0793L20.6853 6.4H20V7ZM18 22V22.6H18.5253L18.5947 22.0793L18 22ZM8.5 4.5L8.35448 5.08209L8.93656 5.22761L9.08209 4.64552L8.5 4.5ZM13 3.5L12.5008 3.83282L12.755 4.21413L13.1897 4.06921L13 3.5ZM18.5 4H17.9V4.6H18.5V4ZM19.9346 5.26166L19.3525 5.11613L19.9346 5.26166ZM6.98507 4.12127L7.13059 3.53918L6.98507 4.12127ZM15.0606 2.43941L14.6363 2.01514L15.0606 2.43941ZM12.8377 3.25649L12.3384 3.58931L12.8377 3.25649ZM8.62861 3.98555L8.04653 3.84003L8.62861 3.98555ZM14.8175 2.68249L14.3932 2.25823L14.8175 2.68249ZM3.40526 7.0793L5.40526 22.0793L6.59474 21.9207L4.59474 6.9207L3.40526 7.0793ZM19.4053 6.9207L17.4053 21.9207L18.5947 22.0793L20.5947 7.0793L19.4053 6.9207ZM11.4 7V22H12.6V7H11.4ZM6 22.6H9V21.4H6V22.6ZM9 22.6H12V21.4H9V22.6ZM7.40133 7.03991L8.40133 22.0399L9.59867 21.9601L8.59867 6.96009L7.40133 7.03991ZM12 22.6H15V21.4H12V22.6ZM15 22.6H18V21.4H15V22.6ZM15.4013 6.96009L14.4013 21.9601L15.5987 22.0399L16.5987 7.03991L15.4013 6.96009ZM4 7.6H4.5V6.4H4V7.6ZM4.5 7.6H8V6.4H4.5V7.6ZM5.1 7V6.06155H3.9V7H5.1ZM9.08209 4.64552L9.2107 4.13107L8.04653 3.84003L7.91791 4.35448L9.08209 4.64552ZM12.3384 3.58931L12.5008 3.83282L13.4992 3.16718L13.3369 2.92367L12.3384 3.58931ZM13.1897 4.06921L14.2638 3.7112L13.8843 2.57278L12.8103 2.93079L13.1897 4.06921ZM15.2418 3.10676L15.4849 2.86367L14.6363 2.01514L14.3932 2.25823L15.2418 3.10676ZM17.9 3.86406V4H19.1V3.86406H17.9ZM18.5 4.6H19.2697V3.4H18.5V4.6ZM16 7.6H19.5V6.4H16V7.6ZM19.5 7.6H20V6.4H19.5V7.6ZM19.3525 5.11613L18.9179 6.85448L20.0821 7.14552L20.5167 5.40718L19.3525 5.11613ZM12 7.6H14V6.4H12V7.6ZM14 7.6H16V6.4H14V7.6ZM8 7.6H11V6.4H8V7.6ZM11 7.6H12V6.4H11V7.6ZM11.6 7V6.61803H10.4V7H11.6ZM6.83955 4.70335L8.35448 5.08209L8.64552 3.91791L7.13059 3.53918L6.83955 4.70335ZM19.4 4.73029C19.4 4.86036 19.384 4.98995 19.3525 5.11613L20.5167 5.40718C20.572 5.1858 20.6 4.95848 20.6 4.73029H19.4ZM19.2697 4.6C19.3417 4.6 19.4 4.65833 19.4 4.73029H20.6C20.6 3.99559 20.0044 3.4 19.2697 3.4V4.6ZM6.16045 4.70335C6.38339 4.64762 6.61661 4.64762 6.83955 4.70335L7.13059 3.53918C6.71657 3.43568 6.28343 3.43568 5.86941 3.53918L6.16045 4.70335ZM17.0107 2.55049C17.5478 2.76534 17.9 3.28556 17.9 3.86406H19.1C19.1 2.79487 18.4491 1.8334 17.4563 1.43632L17.0107 2.55049ZM15.4849 2.86367C15.885 2.46349 16.4852 2.3403 17.0107 2.55049L17.4563 1.43632C16.4852 1.04785 15.3759 1.27553 14.6363 2.01514L15.4849 2.86367ZM10.6091 2.8401C11.2827 2.72782 11.9596 3.02106 12.3384 3.58931L13.3369 2.92367C12.6961 1.96252 11.5512 1.46652 10.4118 1.65642L10.6091 2.8401ZM14.5367 7.26833C14.8032 6.73533 15.2353 6.30315 15.7683 6.03666L15.2317 4.96334C14.4664 5.34596 13.846 5.96644 13.4633 6.73167L14.5367 7.26833ZM9.2107 4.13107C9.37828 3.46075 9.92752 2.95369 10.6091 2.8401L10.4118 1.65642C9.25899 1.84856 8.32998 2.70622 8.04653 3.84003L9.2107 4.13107ZM11.6 6.61803C11.6 5.78964 11.4071 4.97261 11.0367 4.23167L9.96334 4.76833C10.2505 5.34264 10.4 5.97593 10.4 6.61803H11.6ZM14.2638 3.7112C14.6323 3.58837 14.9671 3.38142 15.2418 3.10676L14.3932 2.25823C14.2503 2.40117 14.0761 2.50886 13.8843 2.57278L14.2638 3.7112ZM5.1 6.06155C5.1 5.41914 5.53722 4.85916 6.16045 4.70335L5.86941 3.53918C4.71197 3.82854 3.9 4.8685 3.9 6.06155H5.1Z" fill="#28293D"/>
</svg>
