<svg width="24" height="24" viewBox="0 0 24 24" fill="none" xmlns="http://www.w3.org/2000/svg">
<path d="M20 3H20.6V2.4H20V3ZM17 13H16.4V13.6H17V13ZM18.5 3.43934L18.8257 3.94322L18.5 3.43934ZM3.4 2V9H4.6V2H3.4ZM12.6 9V2H11.4V9H12.6ZM7.4 2V11H8.6V2H7.4ZM3.4 9C3.4 9.73343 3.78091 10.4183 4.5663 10.8895C5.32327 11.3437 6.44762 11.6 8 11.6V10.4C6.55238 10.4 5.67673 10.1563 5.1837 9.8605C4.71909 9.58174 4.6 9.26657 4.6 9H3.4ZM8 11.6C9.55238 11.6 10.6767 11.3437 11.4337 10.8895C12.2191 10.4183 12.6 9.73343 12.6 9H11.4C11.4 9.26657 11.2809 9.58174 10.8163 9.8605C10.3233 10.1563 9.44762 10.4 8 10.4V11.6ZM7.4 11V22H8.6V11H7.4ZM20.6 22V13H19.4V22H20.6ZM20.6 13V3H19.4V13H20.6ZM17.6 13V6H16.4V13H17.6ZM20 12.4H18.5V13.6H20V12.4ZM18.5 12.4H17V13.6H18.5V12.4ZM17.6 6C17.6 5.76749 17.6888 5.38541 17.905 4.97824C18.1174 4.57808 18.4285 4.19998 18.8257 3.94322L18.1743 2.93546C17.5715 3.32514 17.1326 3.87382 16.845 4.41561C16.5612 4.95038 16.4 5.52541 16.4 6H17.6ZM18.8257 3.94322C19.1497 3.73382 19.5376 3.6 20 3.6V2.4C19.2908 2.4 18.6788 2.60933 18.1743 2.93546L18.8257 3.94322Z" fill="#28293D"/>
</svg>
