<svg width="24" height="24" viewBox="0 0 24 24" fill="none" xmlns="http://www.w3.org/2000/svg">
<path d="M18.8367 19.8486L19.435 19.8032L18.8367 19.8486ZM5.66447 9.66931L6.20169 9.40211L5.66447 9.66931ZM18.1001 5.92381H5.89999V7.12381H18.1001V5.92381ZM5.36277 6.25661L5.12725 6.73016L6.20169 7.26455L6.43722 6.791L5.36277 6.25661ZM5.12725 9.9365L5.36277 10.4101L6.43722 9.87566L6.20169 9.40211L5.12725 9.9365ZM17.5628 6.79099L17.7984 7.2646L18.8728 6.73023L18.6373 6.25663L17.5628 6.79099ZM17.7984 9.40207L17.5628 9.87567L18.6373 10.41L18.8728 9.93643L17.7984 9.40207ZM18.1001 9.54286H5.89999V10.7429H18.1001V9.54286ZM5.30171 10.0974L4.56502 19.8032L5.76157 19.894L6.49827 10.1883L5.30171 10.0974ZM7.15756 22.6H16.8424V21.4H7.15756V22.6ZM19.435 19.8032L18.6983 10.0974L17.5018 10.1883L18.2384 19.894L19.435 19.8032ZM14.5 12.4H11.5V13.6H14.5V12.4ZM11.5 16.6H12.5V15.4H11.5V16.6ZM12.5 18.4H9.5V19.6H12.5V18.4ZM6.49634 6.58995C6.62069 5.46883 7.28905 4.43895 8.34448 3.69886L7.65552 2.71635C6.3718 3.61652 5.47271 4.93348 5.30365 6.45766L6.49634 6.58995ZM8.34448 3.69886C8.74787 3.41599 9.20544 3.17762 9.70507 2.9959L9.29493 1.86817C8.70013 2.0845 8.14828 2.37081 7.65552 2.71635L8.34448 3.69886ZM9.70507 2.9959C10.402 2.74242 11.1787 2.6 12 2.6V1.4C11.0403 1.4 10.1247 1.56637 9.29493 1.86817L9.70507 2.9959ZM7.75944 3.75727C8.06229 3.88981 8.58415 4.03816 9.08287 3.91361C9.3531 3.84613 9.6273 3.69425 9.82569 3.41392C10.0191 3.1406 10.1 2.80247 10.1 2.43204H8.9C8.9 2.63442 8.85588 2.70699 8.84618 2.72069C8.84145 2.72737 8.8344 2.73881 8.79213 2.74937C8.73977 2.76244 8.65538 2.76638 8.54292 2.74783C8.43343 2.72978 8.3251 2.69494 8.24056 2.65794L7.75944 3.75727ZM12 2.6C12.8213 2.6 13.598 2.74242 14.295 2.9959L14.7051 1.86817C13.8753 1.56637 12.9597 1.4 12 1.4V2.6ZM14.295 2.9959C14.7946 3.17762 15.2522 3.41599 15.6556 3.69886L16.3445 2.71635C15.8518 2.37081 15.2999 2.0845 14.7051 1.86817L14.295 2.9959ZM15.6556 3.69886C16.711 4.43895 17.3794 5.46883 17.5037 6.58995L18.6964 6.45766C18.5273 4.93348 17.6282 3.61652 16.3445 2.71635L15.6556 3.69886ZM13.9 2.43206C13.9001 2.75649 13.9917 3.29652 14.3983 3.66313C14.8737 4.09174 15.5387 4.08866 16.256 3.75025L15.7441 2.66496C15.5004 2.77988 15.3541 2.79795 15.2824 2.7952C15.2234 2.79294 15.2081 2.77755 15.2018 2.77187C15.1864 2.75792 15.1586 2.72259 15.1347 2.65102C15.111 2.58013 15.1001 2.49974 15.1 2.43202L13.9 2.43206ZM13.4 17.5C13.4 17.9971 12.9971 18.4 12.5 18.4V19.6C13.6598 19.6 14.6 18.6598 14.6 17.5H13.4ZM12.5 16.6C12.9971 16.6 13.4 17.0029 13.4 17.5H14.6C14.6 16.3402 13.6598 15.4 12.5 15.4V16.6ZM9.4 14.5C9.4 15.6598 10.3402 16.6 11.5 16.6V15.4C11.0029 15.4 10.6 14.9971 10.6 14.5H9.4ZM4.56502 19.8032C4.45047 21.3124 5.64408 22.6 7.15756 22.6V21.4C6.34261 21.4 5.6999 20.7067 5.76157 19.894L4.56502 19.8032ZM11.5 12.4C10.3402 12.4 9.4 13.3402 9.4 14.5H10.6C10.6 14.0029 11.0029 13.6 11.5 13.6V12.4ZM17.7984 7.2646C18.1332 7.93776 18.1332 8.72891 17.7984 9.40207L18.8728 9.93643C19.375 8.92669 19.375 7.73998 18.8728 6.73023L17.7984 7.2646ZM16.8424 22.6C18.3559 22.6 19.5495 21.3124 19.435 19.8032L18.2384 19.894C18.3001 20.7067 17.6574 21.4 16.8424 21.4V22.6ZM5.12725 6.73016C4.62502 7.73994 4.62502 8.92672 5.12725 9.9365L6.20169 9.40211C5.86687 8.72893 5.86687 7.93774 6.20169 7.26455L5.12725 6.73016Z" fill="#28293D"/>
</svg>
