<svg width="24" height="24" viewBox="0 0 24 24" fill="none" xmlns="http://www.w3.org/2000/svg">
<path d="M6 9H5.4V9.02304L5.40177 9.04602L6 9ZM6.38462 14L5.78638 14.046L6.38462 14ZM6.92898 21.0767L6.33074 21.1227L6.92898 21.0767ZM17.071 21.0767L17.6693 21.1227L17.071 21.0767ZM16.074 21.4H7.92603V22.6H16.074V21.4ZM6.6 9C6.6 6.01766 9.01766 3.6 12 3.6V2.4C8.35492 2.4 5.4 5.35492 5.4 9H6.6ZM12 3.6C14.9823 3.6 17.4 6.01766 17.4 9H18.6C18.6 5.35492 15.6451 2.4 12 2.4V3.6ZM6 9.6H12V8.4H6V9.6ZM12 9.6H18V8.4H12V9.6ZM11.4 0V9H12.6V0H11.4ZM6.67516 9.95398L6.59823 8.95398L5.40177 9.04602L5.47869 10.046L6.67516 9.95398ZM6 10.6H6.07692V9.4H6V10.6ZM17.4018 8.95398L17.3248 9.95398L18.5213 10.046L18.5982 9.04602L17.4018 8.95398ZM18 9.4H17.9231V10.6H18V9.4ZM17.9231 9.4H6.07692V10.6H17.9231V9.4ZM17.3248 9.95398L17.0172 13.954L18.2136 14.046L18.5213 10.046L17.3248 9.95398ZM17.0172 13.954L16.4728 21.0307L17.6693 21.1227L18.2136 14.046L17.0172 13.954ZM7.52721 21.0307L6.98285 13.954L5.78638 14.046L6.33074 21.1227L7.52721 21.0307ZM6.98285 13.954L6.67516 9.95398L5.47869 10.046L5.78638 14.046L6.98285 13.954ZM17.6154 13.4H12V14.6H17.6154V13.4ZM12 13.4H6.38462V14.6H12V13.4ZM11.4 9L11.4 14H12.6L12.6 9H11.4ZM17.9 9.5C17.9 9.44477 17.9448 9.4 18 9.4V10.6C18.6075 10.6 19.1 10.1075 19.1 9.5H17.9ZM18 9.6C17.9448 9.6 17.9 9.55523 17.9 9.5H19.1C19.1 8.89249 18.6075 8.4 18 8.4V9.6ZM4.9 9.5C4.9 10.1075 5.39249 10.6 6 10.6V9.4C6.05523 9.4 6.1 9.44477 6.1 9.5H4.9ZM7.92603 21.4C7.71702 21.4 7.54324 21.2391 7.52721 21.0307L6.33074 21.1227C6.39487 21.9563 7.08997 22.6 7.92603 22.6V21.4ZM6 8.4C5.39249 8.4 4.9 8.89249 4.9 9.5H6.1C6.1 9.55523 6.05523 9.6 6 9.6V8.4ZM16.074 22.6C16.91 22.6 17.6051 21.9563 17.6693 21.1227L16.4728 21.0307C16.4568 21.2391 16.283 21.4 16.074 21.4V22.6Z" fill="#28293D"/>
</svg>
