<svg width="24" height="24" viewBox="0 0 24 24" fill="none" xmlns="http://www.w3.org/2000/svg">
<path d="M3 18V17H16V18H3Z" stroke="#28293D" stroke-width="1.2"/>
<path d="M18.4 16V19H19.6V16H18.4ZM20.9 16V19H22.1V16H20.9ZM22.1 15V13H20.9V15H22.1ZM22.1 13C22.1 9.90721 19.5928 7.4 16.5 7.4V8.6C18.9301 8.6 20.9 10.5699 20.9 13H22.1ZM16.5 8.6H16.75V7.4H16.5V8.6ZM16.75 1.9H16.5V3.1H16.75V1.9ZM20.1 5.25C20.1 3.39985 18.6002 1.9 16.75 1.9V3.1C17.9374 3.1 18.9 4.06259 18.9 5.25H20.1ZM16.75 8.6C18.6002 8.6 20.1 7.10015 20.1 5.25H18.9C18.9 6.43741 17.9374 7.4 16.75 7.4V8.6ZM19.6 15V14H18.4V15H19.6ZM16 10.4H14.5V11.6H16V10.4ZM12.6 8.5C12.6 7.45066 13.4507 6.6 14.5 6.6V5.4C12.7879 5.4 11.4 6.78792 11.4 8.5H12.6ZM14.5 10.4C13.4507 10.4 12.6 9.54934 12.6 8.5H11.4C11.4 10.2121 12.7879 11.6 14.5 11.6V10.4ZM19.6 14C19.6 12.0118 17.9882 10.4 16 10.4V11.6C17.3255 11.6 18.4 12.6745 18.4 14H19.6Z" fill="#28293D"/>
</svg>
