<svg width="24" height="24" viewBox="0 0 24 24" fill="none" xmlns="http://www.w3.org/2000/svg">
<path d="M8.11205 5.975L7.59925 5.6635L8.11205 5.975ZM4.125 10.3706L3.75055 9.90181L3.73245 9.91627L3.71552 9.93208L4.125 10.3706ZM11.8359 15.325L11.4301 14.883L11.8359 15.325ZM17.9825 12.35L18.2064 12.9067L18.2296 12.8974L18.2519 12.8861L17.9825 12.35ZM11.8359 18.725L11.4301 18.283L11.8359 18.725ZM17.9825 15.75L18.2064 16.3067L18.2296 16.2973L18.2519 16.2861L17.9825 15.75ZM15.9 8.1C15.9 8.10543 15.8985 8.15453 15.8088 8.22232C15.7187 8.29037 15.5674 8.35 15.375 8.35V9.55C15.804 9.55 16.2151 9.41935 16.5322 9.17976C16.8496 8.93991 17.1 8.56401 17.1 8.1H15.9ZM15.375 8.35C15.1826 8.35 15.0313 8.29037 14.9412 8.22232C14.8515 8.15453 14.85 8.10543 14.85 8.1H13.65C13.65 8.56401 13.9004 8.93991 14.2178 9.17976C14.5349 9.41935 14.946 9.55 15.375 9.55V8.35ZM14.85 8.1C14.85 8.09457 14.8515 8.04547 14.9412 7.97768C15.0313 7.90963 15.1826 7.85 15.375 7.85V6.65C14.946 6.65 14.5349 6.78065 14.2178 7.02024C13.9004 7.26009 13.65 7.63599 13.65 8.1H14.85ZM15.375 7.85C15.5674 7.85 15.7187 7.90963 15.8088 7.97768C15.8985 8.04547 15.9 8.09457 15.9 8.1H17.1C17.1 7.63599 16.8496 7.26009 16.5322 7.02024C16.2151 6.78065 15.804 6.65 15.375 6.65V7.85ZM14.25 3.6C15.9957 3.6 17.5533 4.13533 18.6613 4.97248C19.7689 5.80937 20.4 6.92097 20.4 8.1H21.6C21.6 6.46238 20.72 5.02398 19.3847 4.01503C18.0496 3.00634 16.2323 2.4 14.25 2.4V3.6ZM8.0625 16C6.78284 16 5.64708 15.6074 4.84447 15.001C4.0422 14.3948 3.6 13.602 3.6 12.775H2.4C2.4 14.0605 3.09108 15.1802 4.12107 15.9584C5.15073 16.7364 6.54622 17.2 8.0625 17.2V16ZM8.62485 6.2865C9.55833 4.7498 11.6841 3.6 14.25 3.6V2.4C11.3675 2.4 8.79878 3.6888 7.59925 5.6635L8.62485 6.2865ZM3.6 12.775C3.6 12.06 3.92897 11.3746 4.53448 10.8092L3.71552 9.93208C2.91388 10.6806 2.4 11.6682 2.4 12.775H3.6ZM7.59925 5.6635C7.24501 6.24664 7.02454 6.65399 6.85448 6.95355C6.68415 7.25358 6.5674 7.44011 6.40328 7.63477C6.05085 8.05279 5.46489 8.53256 3.75055 9.90181L4.49945 10.8394C6.16011 9.51307 6.87148 8.94112 7.32072 8.40827C7.55744 8.1275 7.71761 7.86382 7.89805 7.54597C8.07875 7.22765 8.28288 6.84945 8.62485 6.2865L7.59925 5.6635ZM11.4301 14.883C10.6853 15.5669 9.4539 16 8.0625 16V17.2C9.66979 17.2 11.2201 16.7049 12.2417 15.767L11.4301 14.883ZM20.4 8.1C20.4 9.58099 19.3959 10.9685 17.7132 11.8139L18.2519 12.8861C20.2067 11.9041 21.6 10.1669 21.6 8.1H20.4ZM12.2417 15.767C13.1105 14.9693 13.7926 14.5809 14.642 14.2334C15.0799 14.0543 15.5587 13.8874 16.1458 13.6791C16.7283 13.4725 17.4022 13.2301 18.2064 12.9067L17.7586 11.7933C16.9778 12.1074 16.3224 12.3432 15.7445 12.5482C15.1712 12.7516 14.6586 12.9301 14.1876 13.1228C13.2191 13.5191 12.413 13.9807 11.4301 14.883L12.2417 15.767ZM8.0625 19.4C6.78284 19.4 5.64708 19.0074 4.84447 18.401C4.0422 17.7948 3.6 17.002 3.6 16.175H2.4C2.4 17.4605 3.09108 18.5802 4.12107 19.3584C5.15073 20.1364 6.54622 20.6 8.0625 20.6V19.4ZM11.4301 18.283C10.6853 18.9669 9.4539 19.4 8.0625 19.4V20.6C9.66979 20.6 11.2201 20.1049 12.2417 19.167L11.4301 18.283ZM20.4 11.5C20.4 12.981 19.3959 14.3685 17.7132 15.2139L18.2519 16.2861C20.2067 15.3041 21.6 13.5669 21.6 11.5H20.4ZM12.2417 19.167C13.1105 18.3693 13.7926 17.9809 14.642 17.6334C15.0799 17.4543 15.5587 17.2874 16.1458 17.0791C16.7283 16.8725 17.4022 16.6301 18.2064 16.3067L17.7586 15.1933C16.9778 15.5074 16.3224 15.7432 15.7445 15.9482C15.1712 16.1516 14.6586 16.3301 14.1876 16.5228C13.2191 16.9191 12.413 17.3807 11.4301 18.283L12.2417 19.167ZM21.6 11.5V8.1H20.4V11.5H21.6ZM2.4 12.775V16.175H3.6V12.775H2.4Z" fill="#28293D"/>
</svg>
