<svg width="24" height="24" viewBox="0 0 24 24" fill="none" xmlns="http://www.w3.org/2000/svg">
<path d="M7.67857 2V1.4H7.17897L7.08849 1.89134L7.67857 2ZM16.3214 2L16.9115 1.89134L16.821 1.4H16.3214V2ZM6.94196 6L6.35189 5.89134L6.94196 6ZM17.058 6L17.6481 5.89134V5.89134L17.058 6ZM17.4538 9.12891L16.8587 9.05293L17.4538 9.12891ZM16.8587 9.05293C16.5445 11.514 14.4808 13.4 12 13.4V14.6C15.1091 14.6 17.6615 12.2406 18.049 9.20489L16.8587 9.05293ZM12 13.4C9.51921 13.4 7.45552 11.514 7.14134 9.05293L5.951 9.20489C6.33855 12.2406 8.8909 14.6 12 14.6V13.4ZM7.67857 2.6H12V1.4H7.67857V2.6ZM12 2.6H16.3214V1.4H12V2.6ZM7.22237 7.79028L7.53204 6.10866L6.35189 5.89134L6.04221 7.57295L7.22237 7.79028ZM7.53204 6.10866L8.26865 2.10866L7.08849 1.89134L6.35189 5.89134L7.53204 6.10866ZM15.7313 2.10866L16.468 6.10866L17.6481 5.89134L16.9115 1.89134L15.7313 2.10866ZM16.468 6.10866L16.7776 7.79028L17.9578 7.57295L17.6481 5.89134L16.468 6.10866ZM6.94196 6.6H17.058V5.4H6.94196V6.6ZM11.4 14V22H12.6V14H11.4ZM12 21.4H7V22.6H12V21.4ZM12 22.6H17V21.4H12V22.6ZM7.14134 9.05293C7.09178 8.66472 7.13753 8.25101 7.22237 7.79028L6.04221 7.57295C5.95104 8.06808 5.87748 8.629 5.951 9.20489L7.14134 9.05293ZM18.049 9.20489C18.1225 8.62899 18.049 8.06807 17.9578 7.57295L16.7776 7.79028C16.8625 8.25101 16.9082 8.66472 16.8587 9.05293L18.049 9.20489Z" fill="#28293D"/>
</svg>
