<svg width="24" height="24" viewBox="0 0 24 24" fill="none" xmlns="http://www.w3.org/2000/svg">
<path d="M6.91215 6C6.96894 5.67165 7 5.33777 7 5C7 3.9391 6.79349 2.92643 6.41848 2H17.5815C17.2065 2.92643 17 3.9391 17 5C17 5.33742 17.0313 5.67134 17.0884 6M6.91215 6C6.68841 7.29369 6.06521 8.5016 5.36827 9.52417C4.50446 10.8016 4 12.3419 4 14C4 18.4183 7.58172 22 12 22C16.4183 22 20 18.4183 20 14C20 12.3461 19.4981 10.8095 18.6384 9.53403C17.9413 8.51118 17.3137 7.29663 17.0884 6M6.91215 6H17.0884" stroke="#555770" stroke-width="2"/>
<path d="M14 12.25C14 11.2835 13.1046 10.5 12 10.5M12 10.5C10.8954 10.5 10 11.2835 10 12.25C10 13.2165 10.9553 13.7388 12 14C13 14.25 14 14.7835 14 15.75C14 16.7165 13.1046 17.5 12 17.5M12 10.5V9M12 17.5C10.8954 17.5 10 16.7165 10 15.75M12 17.5V19" stroke="#3E7BFA" stroke-width="2"/>
</svg>
