<svg width="24" height="24" viewBox="0 0 24 24" fill="none" xmlns="http://www.w3.org/2000/svg">
<path d="M6 21H4C3.44772 21 3 20.5523 3 20V4C3 3.44772 3.44772 3 4 3H20C20.5523 3 21 3.44772 21 4V6M6 21V23M6 21H18M18 21H20C20.5523 21 21 20.5523 21 20V18M18 21V23M21 6H20.1C20.0448 6 20 6.04477 20 6.1V8.9C20 8.95523 20.0448 9 20.1 9H21M21 6V9M21 9V15M21 15H20.1C20.0448 15 20 15.0448 20 15.1V17.9C20 17.9552 20.0448 18 20.1 18H21M21 15V18" stroke="#555770" stroke-width="2"/>
<path d="M7.42928 8.5C6.54516 9.40188 6 10.6373 6 12C6 13.3987 6.57432 14.6633 7.5 15.5707M7.42928 8.5C8.33675 7.57432 9.6013 7 11 7C12.3987 7 13.6633 7.57432 14.5707 8.5M7.42928 8.5L10.2584 11.3291M14.5 15.5707C15.4257 14.6633 16 13.3987 16 12C16 10.6373 15.4548 9.40188 14.5707 8.5M14.5 15.5707C13.5981 16.4548 12.3627 17 11 17C9.63727 17 8.40188 16.4548 7.5 15.5707M14.5 15.5707L11.6709 12.7416M14.5707 8.5L11.7416 11.3291M7.5 15.5707L10.3291 12.7416M11.7416 11.3291C11.5586 11.127 11.2941 11 11 11C10.7059 11 10.4414 11.127 10.2584 11.3291M11.7416 11.3291C11.9022 11.5065 12 11.7418 12 12C12 12.2941 11.873 12.5586 11.6709 12.7416M10.2584 11.3291C10.0978 11.5065 10 11.7418 10 12C10 12.2941 10.127 12.5586 10.3291 12.7416M10.3291 12.7416C10.5065 12.9022 10.7418 13 11 13C11.2582 13 11.4935 12.9022 11.6709 12.7416" stroke="#3E7BFA" stroke-width="2"/>
</svg>
