<svg width="24" height="24" viewBox="0 0 24 24" fill="none" xmlns="http://www.w3.org/2000/svg">
<path d="M2 17L7.29289 11.7071C7.68342 11.3166 8.31658 11.3166 8.70711 11.7071L11.2929 14.2929C11.6834 14.6834 12.3166 14.6834 12.7071 14.2929L16.2929 10.7071C16.6834 10.3166 17.3166 10.3166 17.7071 10.7071L22 15" stroke="#3E7BFA" stroke-width="2"/>
<path d="M2 5C2 4.44772 2.44772 4 3 4H21C21.5523 4 22 4.44772 22 5V15V19C22 19.5523 21.5523 20 21 20H3C2.44772 20 2 19.5523 2 19V17V5Z" stroke="#555770" stroke-width="2"/>
<circle cx="17" cy="10" r="2" fill="#3E7BFA"/>
<circle cx="12" cy="15" r="2" fill="#3E7BFA"/>
<circle cx="8" cy="11" r="2" fill="#3E7BFA"/>
</svg>
