<svg width="24" height="24" viewBox="0 0 24 24" fill="none" xmlns="http://www.w3.org/2000/svg">
<mask id="path-1-inside-1_402_16722" fill="white">
<path d="M3.327 11.4102L17.6241 5.05596C18.4609 4.68405 19.316 5.53911 18.944 6.37591L12.5898 20.673C12.3966 21.1075 11.7631 21.0525 11.6478 20.5912L10 14L3.4088 12.3522C2.94746 12.2369 2.89245 11.6034 3.327 11.4102Z"/>
</mask>
<path d="M17.6241 5.05596L16.8118 3.22834V3.22834L17.6241 5.05596ZM3.327 11.4102L2.51472 9.5826H2.51472L3.327 11.4102ZM3.4088 12.3522L3.89387 10.4119H3.89387L3.4088 12.3522ZM10 14L11.9403 13.5149L11.6492 12.3508L10.4851 12.0597L10 14ZM11.6478 20.5912L13.5881 20.1061L13.5881 20.1061L11.6478 20.5912ZM12.5898 20.673L14.4174 21.4853H14.4174L12.5898 20.673ZM18.944 6.37591L20.7717 7.18819V7.18819L18.944 6.37591ZM16.8118 3.22834L2.51472 9.5826L4.13928 13.2378L18.4364 6.88358L16.8118 3.22834ZM2.92373 14.2925L9.51493 15.9403L10.4851 12.0597L3.89387 10.4119L2.92373 14.2925ZM8.05971 14.4851L9.70752 21.0763L13.5881 20.1061L11.9403 13.5149L8.05971 14.4851ZM14.4174 21.4853L20.7717 7.18819L17.1164 5.56364L10.7622 19.8607L14.4174 21.4853ZM9.70751 21.0763C10.2842 23.383 13.4517 23.658 14.4174 21.4853L10.7622 19.8607C11.3415 18.5571 13.2421 18.7221 13.5881 20.1061L9.70751 21.0763ZM2.51472 9.5826C0.342003 10.5483 0.617024 13.7158 2.92373 14.2925L3.89387 10.4119C5.2779 10.7579 5.4429 12.6585 4.13928 13.2378L2.51472 9.5826ZM18.4364 6.88358C17.5995 7.2555 16.7445 6.40043 17.1164 5.56364L20.7717 7.18819C21.8874 4.67779 19.3223 2.11259 16.8118 3.22834L18.4364 6.88358Z" fill="#28293D" mask="url(#path-1-inside-1_402_16722)"/>
</svg>
