<svg width="24" height="24" viewBox="0 0 24 24" fill="none" xmlns="http://www.w3.org/2000/svg">
<path d="M2 3C2 2.44772 2.44772 2 3 2H21C21.5523 2 22 2.44772 22 3V21C22 21.5523 21.5523 22 21 22H3C2.44772 22 2 21.5523 2 21V3Z" stroke="#28293D" stroke-width="2"/>
<mask id="path-2-inside-1_402_16497" fill="white">
<path d="M5.00002 6C5.00002 5.44772 5.44773 5 6.00002 5L14 5C14.5523 5 15 5.44772 15 6V16.1071C15 16.9107 14.1002 17.3861 13.4364 16.9332L10 14.5885L6.56361 16.9332C5.89982 17.3861 5 16.9107 5 16.1071L5.00002 6Z"/>
</mask>
<path d="M10 14.5885L11.1272 12.9365L10 12.1674L8.8728 12.9365L10 14.5885ZM6.56361 16.9332L7.69081 18.5853L6.56361 16.9332ZM6.00002 7L14 7L14 3L6.00002 3L6.00002 7ZM13 6V16.1071H17V6H13ZM7 16.1071L7.00002 6L3.00002 6L3 16.1071L7 16.1071ZM14.5636 15.2811L11.1272 12.9365L8.8728 16.2406L12.3092 18.5853L14.5636 15.2811ZM8.8728 12.9365L5.4364 15.2811L7.69081 18.5853L11.1272 16.2406L8.8728 12.9365ZM6.00002 3C4.34317 3 3.00002 4.34315 3.00002 6L7.00002 6C7.00002 6.55229 6.5523 7 6.00002 7L6.00002 3ZM14 7C13.4477 7 13 6.55229 13 6H17C17 4.34314 15.6568 3 14 3L14 7ZM13 16.1071C13 15.3036 13.8998 14.8282 14.5636 15.2811L12.3092 18.5853C14.3005 19.9439 17 18.5178 17 16.1071H13ZM3 16.1071C3 18.5178 5.69947 19.9439 7.69081 18.5853L5.4364 15.2811C6.10018 14.8282 7 15.3035 7 16.1071L3 16.1071Z" fill="#28293D" mask="url(#path-2-inside-1_402_16497)"/>
</svg>
