<svg width="24" height="24" viewBox="0 0 24 24" fill="none" xmlns="http://www.w3.org/2000/svg">
<mask id="path-1-inside-1_402_16500" fill="white">
<path d="M5.00003 4C5.00003 3.44772 5.44774 3 6.00003 3L18 3C18.5523 3 19 3.44772 19 4V20.06C19 20.8727 18.0819 21.346 17.4199 20.8745L12 17.014L6.58016 20.8745C5.91816 21.346 5 20.8727 5 20.06L5.00003 4Z"/>
</mask>
<path d="M12 17.014L13.1603 15.385L12 14.5585L10.8397 15.385L12 17.014ZM6.00003 3L6.00003 1L6.00003 3ZM18 3V5V3ZM17.4199 20.8745L16.2595 22.5035L17.4199 20.8745ZM6.58016 20.8745L5.41985 19.2455L6.58016 20.8745ZM6.00003 5L18 5L18 1L6.00003 1L6.00003 5ZM17 4V20.06H21V4H17ZM7 20.06L7.00003 4L3.00003 4L3 20.06L7 20.06ZM18.5802 19.2455L13.1603 15.385L10.8397 18.643L16.2595 22.5035L18.5802 19.2455ZM10.8397 15.385L5.41985 19.2455L7.74047 22.5035L13.1603 18.643L10.8397 15.385ZM6.00003 1C4.34317 1 3.00003 2.34315 3.00003 4L7.00003 4C7.00003 4.55229 6.55231 5 6.00003 5L6.00003 1ZM18 5C17.4477 5 17 4.55228 17 4H21C21 2.34315 19.6569 1 18 1L18 5ZM17 20.06C17 19.2472 17.9182 18.7739 18.5802 19.2455L16.2595 22.5035C18.2455 23.9181 21 22.4983 21 20.06H17ZM3 20.06C3 22.4983 5.75447 23.9181 7.74047 22.5035L5.41985 19.2455C6.08185 18.7739 7 19.2472 7 20.06L3 20.06Z" fill="#28293D" mask="url(#path-1-inside-1_402_16500)"/>
</svg>
