<svg width="24" height="24" viewBox="0 0 24 24" fill="none" xmlns="http://www.w3.org/2000/svg">
<path d="M22 4.70009H23V3.99884L22.3407 3.75992L22 4.70009ZM22 19.0541L21.6593 19.9943L23 20.4801V19.0541H22ZM12 20L11.4899 20.8601L12 21.1627L12.5101 20.8601L12 20ZM2 4.70009L1.65929 3.75992L1 3.99884V4.70009H2ZM2 19.0541H1V20.4801L2.34071 19.9943L2 19.0541ZM18 5C19.2844 5 20.5156 5.22579 21.6593 5.64026L22.3407 3.75992C20.9822 3.26761 19.5207 3 18 3V5ZM18 19.354C19.2844 19.354 20.5156 19.5798 21.6593 19.9943L22.3407 18.1139C20.9822 17.6216 19.5207 17.354 18 17.354V19.354ZM21 4.70009V19.0541H23V4.70009H21ZM12.5101 6.50608C14.126 5.54773 15.9998 5 18 5V3C15.6288 3 13.4041 3.65056 11.4899 4.78588L12.5101 6.50608ZM12.5101 20.8601C14.126 19.9017 15.9998 19.354 18 19.354V17.354C15.6288 17.354 13.4041 18.0046 11.4899 19.1399L12.5101 20.8601ZM11 5.64598V20H13V5.64598H11ZM6 3C4.47933 3 3.0178 3.26761 1.65929 3.75992L2.34071 5.64026C3.48443 5.22579 4.71558 5 6 5V3ZM6 17.354C4.47933 17.354 3.0178 17.6216 1.65929 18.1139L2.34071 19.9943C3.48443 19.5798 4.71558 19.354 6 19.354V17.354ZM1 4.70009V19.0541H3V4.70009H1ZM12.5101 4.78588C10.5959 3.65056 8.3712 3 6 3V5C8.00025 5 9.87403 5.54773 11.4899 6.50608L12.5101 4.78588ZM12.5101 19.1399C10.5959 18.0046 8.3712 17.354 6 17.354V19.354C8.00025 19.354 9.87403 19.9017 11.4899 20.8601L12.5101 19.1399Z" fill="#28293D"/>
</svg>
