<svg width="24" height="24" viewBox="0 0 24 24" fill="none" xmlns="http://www.w3.org/2000/svg">
<path d="M8.77816 5.22184H9.19238L9.48527 4.92894L12 2.41421L14.5147 4.92894L14.8076 5.22184H15.2218H18.7782V8.77818V9.19239L19.0711 9.48528L21.5858 12L19.0711 14.5147L18.7782 14.8076V15.2218V18.7782H15.2218H14.8076L14.5147 19.0711L12 21.5858L9.48529 19.0711L9.1924 18.7782H8.77819H5.22183V15.2218V14.8076L4.92893 14.5147L2.41421 12L4.92893 9.48528L5.22183 9.19239V8.77817V5.22184H8.77816Z" stroke="#28293D" stroke-width="2"/>
<path d="M12.8105 13.1364L13.5521 13.8073V13.8073L12.8105 13.1364ZM10.2412 10.484C10.2412 9.48851 11.0657 8.7334 12.03 8.7334V6.7334C10.0578 6.7334 8.24121 8.28967 8.24121 10.484H10.2412ZM12.03 8.7334C12.9659 8.7334 13.7589 9.46118 13.7589 10.484H15.7589C15.7589 8.317 14.0304 6.7334 12.03 6.7334V8.7334ZM13.7589 10.484C13.7589 10.7493 13.6793 10.9179 13.418 11.1864C13.2656 11.343 13.0907 11.4932 12.8446 11.7118C12.6121 11.9182 12.3402 12.1656 12.0689 12.4655L13.5521 13.8073C13.7474 13.5914 13.9524 13.4028 14.1727 13.2071C14.3794 13.0236 14.6333 12.8053 14.8513 12.5813C15.3309 12.0884 15.7589 11.4467 15.7589 10.484H13.7589ZM12.0689 12.4655C11.6901 12.8842 11.4382 13.3869 11.2811 13.8195C11.1276 14.2419 11.03 14.6938 11.03 15.052H13.03C13.03 15.0009 13.0569 14.7887 13.1609 14.5024C13.2612 14.2264 13.3995 13.9759 13.5521 13.8073L12.0689 12.4655ZM11.03 16.0684V17.7351H13.03V16.0684H11.03Z" fill="#28293D"/>
</svg>
