<svg width="24" height="24" viewBox="0 0 24 24" fill="none" xmlns="http://www.w3.org/2000/svg">
<path d="M8.87627 3.87627L9.39762 4.7296L8.87627 3.87627ZM15.1237 3.87627L14.6024 4.7296L15.1237 3.87627ZM12 22C9.23858 22 7 19.7614 7 17H5C5 20.866 8.13401 24 12 24V22ZM17 17C17 19.7614 14.7614 22 12 22V24C15.866 24 19 20.866 19 17H17ZM18 14H22V12H18V14ZM17 9V13H19V9H17ZM17 13V17H19V13H17ZM2 14H6V12H2V14ZM7 17V13H5V17H7ZM7 13V9H5V13H7ZM18 18H22V16H18V18ZM6 16H2V18H6V16ZM6 8H2V10H6V8ZM18 10H22V8H18V10ZM5.29289 1.70711L8.16916 4.58337L9.58337 3.16916L6.70711 0.292893L5.29289 1.70711ZM12 2C10.6665 2 9.41732 2.37383 8.35491 3.02293L9.39762 4.7296C10.155 4.26687 11.0448 4 12 4V2ZM8.35491 3.02293C6.34508 4.25086 5 6.4679 5 9H7C7 7.19334 7.95756 5.60943 9.39762 4.7296L8.35491 3.02293ZM15.8308 4.58337L18.7071 1.70711L17.2929 0.292893L14.4166 3.16916L15.8308 4.58337ZM12 4C12.9552 4 13.845 4.26687 14.6024 4.7296L15.6451 3.02293C14.5827 2.37383 13.3335 2 12 2V4ZM14.6024 4.7296C16.0424 5.60943 17 7.19334 17 9H19C19 6.4679 17.6549 4.25086 15.6451 3.02293L14.6024 4.7296Z" fill="#28293D"/>
</svg>
