<svg width="24" height="24" viewBox="0 0 24 24" fill="none" xmlns="http://www.w3.org/2000/svg">
<mask id="path-1-inside-1_402_16551" fill="white">
<path d="M7 22C5.89543 22 5 21.1046 5 20V8H19V20C19 21.1046 18.1046 22 17 22H7Z"/>
<path d="M5 4C4.44772 4 4 4.44772 4 5V6H20V5C20 4.44772 19.5523 4 19 4H16L15.5528 3.10557C15.214 2.428 14.5215 2 13.7639 2H10.2361C9.47852 2 8.786 2.428 8.44721 3.10557L8 4H5Z"/>
</mask>
<path d="M8 5H16V3H8V5ZM5 8V6H3V8H5ZM19 8H21V6H19V8ZM4 6H2V8H4V6ZM20 6V8H22V6H20ZM8 4V6H9.23607L9.78885 4.89443L8 4ZM16 4L14.2111 4.89443L14.7639 6H16V4ZM3 8V20H7V8H3ZM7 24H17V20H7V24ZM21 20V8H17V20H21ZM19 6H5V10H19V6ZM6 6V5H2V6H6ZM18 5V6H22V5H18ZM20 4H4V8H20V4ZM5 6H8V2H5V6ZM9.78885 4.89443L10.2361 4L6.65836 2.21115L6.21115 3.10557L9.78885 4.89443ZM10.2361 4H13.7639V0H10.2361V4ZM16 6H19V2H16V6ZM13.7639 4L14.2111 4.89443L17.7889 3.10557L17.3416 2.21115L13.7639 4ZM13.7639 4V4L17.3416 2.21115C16.6641 0.856009 15.279 0 13.7639 0V4ZM10.2361 4V4V0C8.72098 0 7.33593 0.856009 6.65836 2.21115L10.2361 4ZM6 5C6 5.55228 5.55228 6 5 6V2C3.34315 2 2 3.34315 2 5H6ZM17 24C19.2091 24 21 22.2091 21 20H17V24ZM22 5C22 3.34315 20.6569 2 19 2V6C18.4477 6 18 5.55228 18 5H22ZM3 20C3 22.2091 4.79086 24 7 24V20H3Z" fill="#28293D" mask="url(#path-1-inside-1_402_16551)"/>
<path d="M14.2929 11.2929L11.2929 14.2929L12.7071 15.7071L15.7071 12.7071L14.2929 11.2929ZM11.2929 14.2929L8.29289 17.2929L9.70711 18.7071L12.7071 15.7071L11.2929 14.2929ZM11.2929 15.7071L14.2929 18.7071L15.7071 17.2929L12.7071 14.2929L11.2929 15.7071ZM12.7071 14.2929L9.70711 11.2929L8.29289 12.7071L11.2929 15.7071L12.7071 14.2929Z" fill="#28293D"/>
</svg>
