<svg width="24" height="24" viewBox="0 0 24 24" fill="none" xmlns="http://www.w3.org/2000/svg">
<path d="M16 2C15.4477 2 15 2.44772 15 3C15 3.55228 15.4477 4 16 4V2ZM8 4C8.55228 4 9 3.55228 9 3C9 2.44772 8.55228 2 8 2V4ZM20 8C20 8.55228 20.4477 9 21 9C21.5523 9 22 8.55228 22 8H20ZM16 20C15.4477 20 15 20.4477 15 21C15 21.5523 15.4477 22 16 22V20ZM22 16C22 15.4477 21.5523 15 21 15C20.4477 15 20 15.4477 20 16H22ZM8 22C8.55228 22 9 21.5523 9 21C9 20.4477 8.55228 20 8 20V22ZM4 16C4 15.4477 3.55228 15 3 15C2.44772 15 2 15.4477 2 16H4ZM2 8C2 8.55228 2.44772 9 3 9C3.55228 9 4 8.55228 4 8H2ZM9 8C9 7.44772 8.55228 7 8 7C7.44772 7 7 7.44772 7 8H9ZM7 10C7 10.5523 7.44772 11 8 11C8.55228 11 9 10.5523 9 10H7ZM17 8C17 7.44772 16.5523 7 16 7C15.4477 7 15 7.44772 15 8H17ZM15 10C15 10.5523 15.4477 11 16 11C16.5523 11 17 10.5523 17 10H15ZM13 8C13 7.44772 12.5523 7 12 7C11.4477 7 11 7.44772 11 8H13ZM12 13V14C12.5523 14 13 13.5523 13 13H12ZM10.5 12C9.94772 12 9.5 12.4477 9.5 13C9.5 13.5523 9.94772 14 10.5 14V12ZM9.60019 15.2005C9.15864 14.8688 8.53176 14.9578 8.20002 15.3993C7.86827 15.8409 7.95729 16.4677 8.39884 16.7995L9.60019 15.2005ZM15.6012 16.7995C16.0427 16.4677 16.1317 15.8409 15.8 15.3993C15.4682 14.9578 14.8414 14.8688 14.3998 15.2005L15.6012 16.7995ZM18 2H16V4H18V2ZM8 2H6V4H8V2ZM22 8V6H20V8H22ZM16 22H18V20H16V22ZM22 18V16H20V18H22ZM6 22H8V20H6V22ZM2 16V18H4V16H2ZM2 6V8H4V6H2ZM7 8V10H9V8H7ZM15 8V10H17V8H15ZM11 8V13H13V8H11ZM12 12H10.5V14H12V12ZM12 16C11.0982 16 10.2687 15.7028 9.60019 15.2005L8.39884 16.7995C9.40182 17.5531 10.6502 18 12 18V16ZM14.3998 15.2005C13.7313 15.7028 12.9018 16 12 16V18C13.3498 18 14.5982 17.5531 15.6012 16.7995L14.3998 15.2005ZM18 22C20.2091 22 22 20.2091 22 18H20C20 19.1046 19.1046 20 18 20V22ZM6 20C4.89543 20 4 19.1046 4 18H2C2 20.2091 3.79086 22 6 22V20ZM6 2C3.79086 2 2 3.79086 2 6H4C4 4.89543 4.89543 4 6 4V2ZM18 4C19.1046 4 20 4.89543 20 6H22C22 3.79086 20.2091 2 18 2V4Z" fill="#28293D"/>
</svg>
