<svg width="24" height="24" viewBox="0 0 24 24" fill="none" xmlns="http://www.w3.org/2000/svg">
<mask id="path-1-inside-1_402_16684" fill="white">
<path d="M2 11C1.44772 11 1 10.5523 1 10L1 4C1 3.44772 1.44772 3 2 3L10 3.00001C10.5523 3.00001 11 3.44772 11 4.00001V10C11 10.5523 10.5523 11 10 11H2Z"/>
<path d="M2 21C1.44772 21 1 20.5523 1 20L1 14C1 13.4477 1.44772 13 2 13H10C10.5523 13 11 13.4477 11 14V20C11 20.5523 10.5523 21 10 21L2 21Z"/>
<path d="M14 11C13.4477 11 13 10.5523 13 10L13 4C13 3.44772 13.4477 3 14 3L22 3.00001C22.5523 3.00001 23 3.44772 23 4.00001V10C23 10.5523 22.5523 11 22 11H14Z"/>
<path d="M14 21C13.4477 21 13 20.5523 13 20L13 14C13 13.4477 13.4477 13 14 13H22C22.5523 13 23 13.4477 23 14V20C23 20.5523 22.5523 21 22 21L14 21Z"/>
</mask>
<path d="M22 21L22 23L22 21ZM13 20H15H13ZM14 21L14 19L14 21ZM13 14L11 14L13 14ZM13 10L15 10L13 10ZM13 4L11 4L13 4ZM10 21L10 19L10 21ZM2 21L2 23L2 21ZM-1 4L-0.999999 10L3 10L3 4L-1 4ZM2 13H10V9H2V13ZM13 10V4.00001H9V10H13ZM10 1.00001L2 1L2 5L10 5.00001L10 1.00001ZM-1 14L-0.999998 20L3 20L3 14L-1 14ZM2 23L10 23L10 19L2 19L2 23ZM13 20V14H9V20H13ZM10 11H2V15H10V11ZM11 4L11 10L15 10L15 4L11 4ZM14 13H22V9H14V13ZM25 10V4.00001H21V10H25ZM22 1.00001L14 1L14 5L22 5.00001L22 1.00001ZM11 14L11 20L15 20L15 14L11 14ZM14 23L22 23L22 19L14 19L14 23ZM25 20V14H21V20H25ZM22 11H14V15H22V11ZM25 14C25 12.3431 23.6569 11 22 11V15C21.4477 15 21 14.5523 21 14H25ZM22 23C23.6569 23 25 21.6569 25 20H21C21 19.4477 21.4477 19 22 19L22 23ZM11 20C11 21.6569 12.3431 23 14 23L14 19C14.5523 19 15 19.4477 15 20L11 20ZM15 14C15 14.5523 14.5523 15 14 15V11C12.3431 11 11 12.3431 11 14L15 14ZM25 4.00001C25 2.34315 23.6569 1.00001 22 1.00001L22 5.00001C21.4477 5.00001 21 4.55229 21 4.00001H25ZM22 13C23.6569 13 25 11.6569 25 10H21C21 9.44772 21.4477 9 22 9V13ZM11 10C11 11.6569 12.3431 13 14 13V9C14.5523 9 15 9.44772 15 10L11 10ZM15 4C15 4.55228 14.5523 5 14 5L14 1C12.3431 0.999999 11 2.34315 11 4L15 4ZM13 14C13 12.3431 11.6569 11 10 11V15C9.44771 15 9 14.5523 9 14H13ZM10 23C11.6569 23 13 21.6569 13 20H9C9 19.4477 9.44771 19 10 19L10 23ZM-0.999998 20C-0.999997 21.6569 0.343148 23 2 23L2 19C2.55229 19 3 19.4477 3 20L-0.999998 20ZM3 14C3 14.5523 2.55229 15 2 15V11C0.343145 11 -1 12.3431 -1 14L3 14ZM13 4.00001C13 2.34315 11.6569 1.00001 10 1.00001L10 5.00001C9.44772 5.00001 9 4.55229 9 4.00001H13ZM10 13C11.6569 13 13 11.6569 13 10H9C9 9.44772 9.44771 9 10 9V13ZM-0.999999 10C-0.999998 11.6569 0.343145 13 2 13V9C2.55229 9 3 9.44772 3 10L-0.999999 10ZM3 4C3 4.55228 2.55228 5 2 5L2 1C0.343146 0.999999 -1 2.34315 -1 4L3 4Z" fill="#28293D" mask="url(#path-1-inside-1_402_16684)"/>
</svg>
