<svg width="24" height="24" viewBox="0 0 24 24" fill="none" xmlns="http://www.w3.org/2000/svg">
<mask id="path-1-inside-1_402_16686" fill="white">
<path d="M2 11C1.44772 11 1 10.5523 1 10L1 4C1.00001 3.44771 1.44772 3 2.00001 3L22 3C22.5523 3 23 3.44772 23 4V10C23 10.5523 22.5523 11 22 11L2 11Z"/>
<path d="M2.00001 21C1.44772 21 1.00001 20.5523 1.00001 20L1 14C1 13.4477 1.44772 13 2 13H22C22.5523 13 23 13.4477 23 14L23 20C23 20.5523 22.5523 21 22 21H2.00001Z"/>
</mask>
<path d="M23 14L25 14L23 14ZM23 20L25 20L23 20ZM22 11V9V11ZM2 11L2 13L2 11ZM-0.999995 4L-0.999999 10L3 10L3 4L-0.999995 4ZM2 13L22 13L22 9L2 9L2 13ZM25 10V4H21V10H25ZM22 1L2.00001 1L2.00001 5L22 5V1ZM-0.999999 14L-0.999994 20L3.00001 20L3 14L-0.999999 14ZM2.00001 23H22V19H2.00001V23ZM25 20L25 14L21 14L21 20L25 20ZM22 11H2V15H22V11ZM25 14C25 12.3431 23.6569 11 22 11V15C21.4477 15 21 14.5523 21 14L25 14ZM22 23C23.6569 23 25 21.6569 25 20L21 20C21 19.4477 21.4477 19 22 19V23ZM-0.999994 20C-0.999992 21.6569 0.343153 23 2.00001 23V19C2.55229 19 3.00001 19.4477 3.00001 20L-0.999994 20ZM3 14C3 14.5523 2.55228 15 2 15V11C0.343149 11 -1 12.3431 -0.999999 14L3 14ZM25 4C25 2.34315 23.6569 1.00001 22 1V5C21.4477 5 21 4.55229 21 4H25ZM22 13C23.6569 13 25 11.6569 25 10H21C21 9.44772 21.4477 9 22 9L22 13ZM-0.999999 10C-1 11.6569 0.343145 13 2 13L2 9C2.55229 9 3 9.44772 3 10L-0.999999 10ZM3 4C3 4.55229 2.55229 5 2.00001 5L2.00001 1C0.343155 1 -0.999994 2.34314 -0.999995 4L3 4Z" fill="#28293D" mask="url(#path-1-inside-1_402_16686)"/>
</svg>
