<svg width="24" height="24" viewBox="0 0 24 24" fill="none" xmlns="http://www.w3.org/2000/svg">
<mask id="path-1-inside-1_402_16682" fill="white">
<path d="M3 7C3 4.79086 4.79086 3 7 3C9.20914 3 11 4.79086 11 7C11 9.20914 9.20914 11 7 11C4.79086 11 3 9.20914 3 7Z"/>
<path d="M3 17C3 14.7909 4.79086 13 7 13C9.20914 13 11 14.7909 11 17C11 19.2091 9.20914 21 7 21C4.79086 21 3 19.2091 3 17Z"/>
<path d="M13 7C13 4.79086 14.7909 3 17 3C19.2091 3 21 4.79086 21 7C21 9.20914 19.2091 11 17 11C14.7909 11 13 9.20914 13 7Z"/>
<path d="M13 17C13 14.7909 14.7909 13 17 13C19.2091 13 21 14.7909 21 17C21 19.2091 19.2091 21 17 21C14.7909 21 13 19.2091 13 17Z"/>
</mask>
<path d="M17 19C15.8954 19 15 18.1046 15 17H11C11 20.3137 13.6863 23 17 23V19ZM19 17C19 18.1046 18.1046 19 17 19V23C20.3137 23 23 20.3137 23 17H19ZM17 15C18.1046 15 19 15.8954 19 17H23C23 13.6863 20.3137 11 17 11V15ZM17 11C13.6863 11 11 13.6863 11 17H15C15 15.8954 15.8954 15 17 15V11ZM17 9C15.8954 9 15 8.10457 15 7H11C11 10.3137 13.6863 13 17 13V9ZM19 7C19 8.10457 18.1046 9 17 9V13C20.3137 13 23 10.3137 23 7H19ZM17 5C18.1046 5 19 5.89543 19 7H23C23 3.68629 20.3137 1 17 1V5ZM17 1C13.6863 1 11 3.68629 11 7H15C15 5.89543 15.8954 5 17 5V1ZM7 19C5.89543 19 5 18.1046 5 17H1C1 20.3137 3.68629 23 7 23V19ZM9 17C9 18.1046 8.10457 19 7 19V23C10.3137 23 13 20.3137 13 17H9ZM7 15C8.10457 15 9 15.8954 9 17H13C13 13.6863 10.3137 11 7 11V15ZM7 11C3.68629 11 1 13.6863 1 17H5C5 15.8954 5.89543 15 7 15V11ZM7 9C5.89543 9 5 8.10457 5 7H1C1 10.3137 3.68629 13 7 13V9ZM9 7C9 8.10457 8.10457 9 7 9V13C10.3137 13 13 10.3137 13 7H9ZM7 5C8.10457 5 9 5.89543 9 7H13C13 3.68629 10.3137 1 7 1V5ZM7 1C3.68629 1 1 3.68629 1 7H5C5 5.89543 5.89543 5 7 5V1Z" fill="#28293D" mask="url(#path-1-inside-1_402_16682)"/>
</svg>
