<svg width="24" height="24" viewBox="0 0 24 24" fill="none" xmlns="http://www.w3.org/2000/svg">
<circle cx="12" cy="12" r="10" stroke="#28293D" stroke-width="2"/>
<path d="M12.9715 12.9817L13.7131 13.6526L12.9715 12.9817ZM9.68848 9.79889C9.68848 8.4845 10.777 7.49829 12.0349 7.49829V5.49829C9.76913 5.49829 7.68848 7.28566 7.68848 9.79889H9.68848ZM12.0349 7.49829C13.2644 7.49829 14.3095 8.45717 14.3095 9.79889H16.3095C16.3095 7.31299 14.3289 5.49829 12.0349 5.49829V7.49829ZM14.3095 9.79889C14.3095 10.187 14.1792 10.4366 13.8438 10.7813C13.6544 10.9759 13.4366 11.1629 13.1452 11.4217C12.8675 11.6684 12.5479 11.9594 12.2299 12.3108L13.7131 13.6526C13.9551 13.3851 14.2077 13.153 14.4733 12.9171C14.7253 12.6933 15.022 12.4382 15.2771 12.1761C15.8308 11.6072 16.3095 10.8843 16.3095 9.79889H14.3095ZM12.2299 12.3108C11.798 12.7883 11.5071 13.3663 11.3242 13.8697C11.145 14.3629 11.0349 14.8812 11.0349 15.2804H13.0349C13.0349 15.1884 13.0742 14.9097 13.204 14.5526C13.33 14.2057 13.5074 13.8799 13.7131 13.6526L12.2299 12.3108ZM11.0349 16.5V18.5H13.0349V16.5H11.0349Z" fill="#28293D"/>
</svg>
