<svg width="24" height="24" viewBox="0 0 24 24" fill="none" xmlns="http://www.w3.org/2000/svg">
<path d="M12.6586 10L11.7157 10.3332C11.857 10.7328 12.2348 11 12.6586 11V10ZM23 10H24C24 9.44772 23.5523 9 23 9V10ZM23 14V15C23.5523 15 24 14.5523 24 14H23ZM12.6586 14V13C12.2348 13 11.857 13.2672 11.7157 13.6668L12.6586 14ZM21 14V13C20.4477 13 20 13.4477 20 14H21ZM21 18V19C21.5523 19 22 18.5523 22 18H21ZM17 18H16C16 18.5523 16.4477 19 17 19V18ZM17 14H18C18 13.4477 17.5523 13 17 13V14ZM8 12C8 12.5523 7.55228 13 7 13V15C8.65685 15 10 13.6569 10 12H8ZM7 13C6.44772 13 6 12.5523 6 12H4C4 13.6569 5.34315 15 7 15V13ZM6 12C6 11.4477 6.44772 11 7 11V9C5.34315 9 4 10.3431 4 12H6ZM7 11C7.55228 11 8 11.4477 8 12H10C10 10.3431 8.65685 9 7 9V11ZM7 17C4.23858 17 2 14.7614 2 12H0C0 15.866 3.13401 19 7 19V17ZM2 12C2 9.23858 4.23858 7 7 7V5C3.13401 5 0 8.13401 0 12H2ZM7 7C9.17547 7 11.0289 8.38991 11.7157 10.3332L13.6014 9.66675C12.641 6.94932 10.0494 5 7 5V7ZM12.6586 11H23V9H12.6586V11ZM22 10V14H24V10H22ZM11.7157 13.6668C11.0289 15.6101 9.17547 17 7 17V19C10.0494 19 12.641 17.0507 13.6014 14.3332L11.7157 13.6668ZM23 13H21V15H23V13ZM20 14V18H22V14H20ZM21 17H17V19H21V17ZM17 13H12.6586V15H17V13ZM18 18V14H16V18H18Z" fill="#28293D"/>
</svg>
