<svg width="24" height="24" viewBox="0 0 24 24" fill="none" xmlns="http://www.w3.org/2000/svg">
<path d="M9 4L9.31623 3.05132L9 2.94591L8.68377 3.05132L9 4ZM15 21L14.6838 21.9487L15 22.0541L15.3162 21.9487L15 21ZM3.13162 20.9561L3.44785 21.9048L3.13162 20.9561ZM20.8684 4.04387L21.1846 4.99256L20.8684 4.04387ZM20.9316 19.0228L21.2479 19.9715L20.9316 19.0228ZM3.06838 5.97721L3.3846 6.92589L3.06838 5.97721ZM3.3846 6.92589L9.31623 4.94868L8.68377 3.05132L2.75215 5.02852L3.3846 6.92589ZM8.68377 4.94868L14.6838 6.94868L15.3162 5.05132L9.31623 3.05132L8.68377 4.94868ZM15.3162 6.94868L21.1846 4.99256L20.5521 3.09519L14.6838 5.05132L15.3162 6.94868ZM2 6.07208V20.8613H4V6.07208H2ZM22 18.9279V4.13874H20V18.9279H22ZM15.3162 21.9487L21.2479 19.9715L20.6154 18.0741L14.6838 20.0513L15.3162 21.9487ZM14 6V21H16V6H14ZM3.44785 21.9048L9.31623 19.9487L8.68377 18.0513L2.8154 20.0074L3.44785 21.9048ZM8.68377 19.9487L14.6838 21.9487L15.3162 20.0513L9.31623 18.0513L8.68377 19.9487ZM8 4V19H10V4H8ZM2 20.8613C2 21.6121 2.73557 22.1422 3.44785 21.9048L2.8154 20.0074C3.39817 19.8132 4 20.247 4 20.8613H2ZM21.1846 4.99256C20.6018 5.18682 20 4.75304 20 4.13874H22C22 3.38793 21.2644 2.85776 20.5521 3.09519L21.1846 4.99256ZM20 18.9279C20 18.5405 20.2479 18.1966 20.6154 18.0741L21.2479 19.9715C21.697 19.8217 22 19.4014 22 18.9279H20ZM2.75215 5.02852C2.30297 5.17825 2 5.5986 2 6.07208H4C4 6.45946 3.75211 6.80339 3.3846 6.92589L2.75215 5.02852Z" fill="#28293D"/>
</svg>
