<svg width="24" height="24" viewBox="0 0 24 24" fill="none" xmlns="http://www.w3.org/2000/svg">
<mask id="mask0_402_16480" style="mask-type:alpha" maskUnits="userSpaceOnUse" x="0" y="0" width="24" height="24">
<path d="M19.7839 19.7807L4 3.99675H0V24H24V0H5.69812V2.86644L21.1981 18.3664L19.7839 19.7807Z" fill="white"/>
</mask>
<g mask="url(#mask0_402_16480)">
<path d="M3.52441 4.94153L19.0244 20.4415" stroke="#28293D" stroke-width="2"/>
<path d="M13 23V19.5455H11V23H13ZM4 13C4 17.2294 7.64602 20.5455 12 20.5455V18.5455C8.62199 18.5455 6 16.0005 6 13H4ZM18 13C18 16.0005 15.378 18.5455 12 18.5455V20.5455C16.354 20.5455 20 17.2294 20 13H18Z" fill="#28293D"/>
<path d="M15 6V12C15 13.6569 13.6569 15 12 15C10.3431 15 9 13.6569 9 12V6C9 4.34315 10.3431 3 12 3C13.6569 3 15 4.34315 15 6Z" stroke="#28293D" stroke-width="2"/>
</g>
</svg>
