<svg width="24" height="24" viewBox="0 0 24 24" fill="none" xmlns="http://www.w3.org/2000/svg">
<mask id="path-1-inside-1_402_16706" fill="white">
<path d="M12 7C10.3431 7 9 5.65685 9 4C9 2.34315 10.3431 1 12 1C13.6569 1 15 2.34315 15 4C15 5.65685 13.6569 7 12 7Z"/>
<path d="M12 15C10.3431 15 9 13.6569 9 12C9 10.3431 10.3431 9 12 9C13.6569 9 15 10.3431 15 12C15 13.6569 13.6569 15 12 15Z"/>
<path d="M12 23C10.3431 23 9 21.6569 9 20C9 18.3431 10.3431 17 12 17C13.6569 17 15 18.3431 15 20C15 21.6569 13.6569 23 12 23Z"/>
</mask>
<path d="M12 5C11.4477 5 11 4.55228 11 4H7C7 6.76142 9.23858 9 12 9V5ZM11 4C11 3.44772 11.4477 3 12 3V-1C9.23858 -1 7 1.23858 7 4H11ZM12 3C12.5523 3 13 3.44772 13 4H17C17 1.23858 14.7614 -1 12 -1V3ZM13 4C13 4.55228 12.5523 5 12 5V9C14.7614 9 17 6.76142 17 4H13ZM12 13C11.4477 13 11 12.5523 11 12H7C7 14.7614 9.23858 17 12 17V13ZM11 12C11 11.4477 11.4477 11 12 11V7C9.23858 7 7 9.23858 7 12H11ZM12 11C12.5523 11 13 11.4477 13 12H17C17 9.23858 14.7614 7 12 7V11ZM13 12C13 12.5523 12.5523 13 12 13V17C14.7614 17 17 14.7614 17 12H13ZM12 21C11.4477 21 11 20.5523 11 20H7C7 22.7614 9.23858 25 12 25V21ZM11 20C11 19.4477 11.4477 19 12 19V15C9.23858 15 7 17.2386 7 20H11ZM12 19C12.5523 19 13 19.4477 13 20H17C17 17.2386 14.7614 15 12 15V19ZM13 20C13 20.5523 12.5523 21 12 21V25C14.7614 25 17 22.7614 17 20H13Z" fill="#28293D" mask="url(#path-1-inside-1_402_16706)"/>
</svg>
