<svg width="24" height="24" viewBox="0 0 24 24" fill="none" xmlns="http://www.w3.org/2000/svg">
<path d="M12 6C10.8954 6 10 5.10457 10 4C10 2.89543 10.8954 2 12 2C13.1046 2 14 2.89543 14 4C14 5.10457 13.1046 6 12 6ZM12 22C10.8954 22 10 21.1046 10 20C10 18.8954 10.8954 18 12 18C13.1046 18 14 18.8954 14 20C14 21.1046 13.1046 22 12 22ZM18 12C18 10.8954 18.8954 10 20 10C21.1046 10 22 10.8954 22 12C22 13.1046 21.1046 14 20 14C18.8954 14 18 13.1046 18 12ZM2 12C2 10.8954 2.89543 10 4 10C5.10457 10 6 10.8954 6 12C6 13.1046 5.10457 14 4 14C2.89543 14 2 13.1046 2 12ZM10 12C10 10.8954 10.8954 10 12 10C13.1046 10 14 10.8954 14 12C14 13.1046 13.1046 14 12 14C10.8954 14 10 13.1046 10 12Z" stroke="#28293D" stroke-width="2"/>
</svg>
