<svg width="24" height="24" viewBox="0 0 24 24" fill="none" xmlns="http://www.w3.org/2000/svg">
<mask id="mask0_402_16470" style="mask-type:alpha" maskUnits="userSpaceOnUse" x="0" y="0" width="24" height="24">
<path d="M0 0H6.02857L17.9279 11.8993L19.3271 10.5L8.82714 0H24V24H0V0Z" fill="white"/>
</mask>
<g mask="url(#mask0_402_16470)">
<mask id="path-2-inside-1_402_16470" fill="white">
<path d="M3 17.25L15.25 5L16.5429 3.70711C16.9334 3.31658 17.5666 3.31658 17.9571 3.70711L20.2929 6.04289C20.6834 6.43342 20.6834 7.06658 20.2929 7.45711L19 8.75L6.75 21H3V17.25Z"/>
</mask>
<path d="M14.5429 5.70711L18.2929 9.45711L19.7071 8.04289L15.9571 4.29289L14.5429 5.70711ZM3 17.25L1.58579 15.8358L1 16.4216V17.25H3ZM6.75 21V23H7.57843L8.16421 22.4142L6.75 21ZM3 21H1V23H3V21ZM19 8.75L17.5858 7.33579L19 8.75ZM20.2929 6.04289L21.7071 4.62868L20.2929 6.04289ZM16.5429 3.70711L15.1287 2.29289L16.5429 3.70711ZM21.7071 4.62868L19.3713 2.29289L16.5429 5.12132L18.8787 7.45711L21.7071 4.62868ZM6.75 19H3V23H6.75V19ZM5 21V17.25H1V21H5ZM15.1287 2.29289L13.8358 3.58579L16.6642 6.41421L17.9571 5.12132L15.1287 2.29289ZM13.8358 3.58579L1.58579 15.8358L4.41421 18.6642L16.6642 6.41421L13.8358 3.58579ZM8.16421 22.4142L20.4142 10.1642L17.5858 7.33579L5.33579 19.5858L8.16421 22.4142ZM20.4142 10.1642L21.7071 8.87132L18.8787 6.04289L17.5858 7.33579L20.4142 10.1642ZM18.8787 7.45711C18.4882 7.06658 18.4882 6.43342 18.8787 6.04289L21.7071 8.87132C22.8787 7.69975 22.8787 5.80025 21.7071 4.62868L18.8787 7.45711ZM19.3713 2.29289C18.1997 1.12132 16.3003 1.12132 15.1287 2.29289L17.9571 5.12132C17.5666 5.51184 16.9334 5.51184 16.5429 5.12132L19.3713 2.29289Z" fill="#28293D" mask="url(#path-2-inside-1_402_16470)"/>
</g>
</svg>
