<svg width="24" height="24" viewBox="0 0 24 24" fill="none" xmlns="http://www.w3.org/2000/svg">
<mask id="mask0_402_16474" style="mask-type:alpha" maskUnits="userSpaceOnUse" x="0" y="0" width="24" height="24">
<path d="M19.7839 19.7807L4 3.99675H0V24H24V0H5.69812V2.86644L21.1981 18.3664L19.7839 19.7807Z" fill="white"/>
</mask>
<g mask="url(#mask0_402_16474)">
<path d="M3.52441 4.94153L19.0244 20.4415" stroke="#28293D" stroke-width="2"/>
<mask id="path-3-inside-1_402_16474" fill="white">
<path d="M3 17.25L16.5429 3.70711C16.9334 3.31658 17.5666 3.31658 17.9571 3.70711L20.2929 6.04289C20.6834 6.43342 20.6834 7.06658 20.2929 7.45711L6.75 21H3V17.25Z"/>
</mask>
<path d="M3 17.25L1.58579 15.8358L1 16.4216V17.25H3ZM6.75 21V23H7.57843L8.16421 22.4142L6.75 21ZM3 21H1V23H3V21ZM20.2929 7.45711L21.7071 8.87132L20.2929 7.45711ZM20.2929 6.04289L21.7071 4.62868L20.2929 6.04289ZM15.1287 2.29289L1.58579 15.8358L4.41421 18.6642L17.9571 5.12132L15.1287 2.29289ZM8.16421 22.4142L21.7071 8.87132L18.8787 6.04289L5.33579 19.5858L8.16421 22.4142ZM21.7071 4.62868L19.3713 2.29289L16.5429 5.12132L18.8787 7.45711L21.7071 4.62868ZM6.75 19H3V23H6.75V19ZM5 21V17.25H1V21H5ZM21.7071 8.87132C22.8787 7.69975 22.8787 5.80026 21.7071 4.62868L18.8787 7.45711C18.4882 7.06658 18.4882 6.43342 18.8787 6.04289L21.7071 8.87132ZM17.9571 5.12132C17.5666 5.51184 16.9334 5.51184 16.5429 5.12132L19.3713 2.29289C18.1997 1.12132 16.3003 1.12132 15.1287 2.29289L17.9571 5.12132Z" fill="#28293D" mask="url(#path-3-inside-1_402_16474)"/>
</g>
</svg>
