<svg width="24" height="24" viewBox="0 0 24 24" fill="none" xmlns="http://www.w3.org/2000/svg">
<mask id="mask0_402_16633" style="mask-type:alpha" maskUnits="userSpaceOnUse" x="0" y="3" width="24" height="18">
<path d="M0.5 8C7.40356 8 13 13.5964 13 20.5V21H24V3H0V8H0.5Z" fill="white"/>
</mask>
<g mask="url(#mask0_402_16633)">
<path d="M22 19H2V5H22V19Z" stroke="#28293D" stroke-width="2"/>
</g>
<mask id="mask1_402_16633" style="mask-type:alpha" maskUnits="userSpaceOnUse" x="1" y="7" width="13" height="13">
<rect x="1" y="7" width="13" height="13" fill="white"/>
</mask>
<g mask="url(#mask1_402_16633)">
<path d="M0.5 12C5.19442 12 9 15.8056 9 20.5H11C11 14.701 6.29899 10 0.5 10V12ZM0.5 16C2.98528 16 5 18.0147 5 20.5H7C7 16.9101 4.08985 14 0.5 14V16ZM0.5 20C0.776142 20 1 20.2239 1 20.5H3C3 19.1193 1.88071 18 0.5 18V20Z" fill="#28293D"/>
</g>
</svg>
