<svg width="24" height="24" viewBox="0 0 24 24" fill="none" xmlns="http://www.w3.org/2000/svg">
<mask id="path-1-inside-1_402_16719" fill="white">
<path d="M6 3C6 2.44772 6.44772 2 7 2H17C17.5523 2 18 2.44772 18 3V5.92893C18 7.25501 17.4732 8.52678 16.5355 9.46447L14.7071 11.2929C14.3166 11.6834 14.3166 12.3166 14.7071 12.7071L16.5355 14.5355C17.4732 15.4732 18 16.745 18 18.0711V21C18 21.5523 17.5523 22 17 22H7C6.44772 22 6 21.5523 6 21V18.0711C6 16.745 6.52678 15.4732 7.46447 14.5355L9.29289 12.7071C9.68342 12.3166 9.68342 11.6834 9.29289 11.2929L7.46446 9.46446C6.52678 8.52678 6 7.25501 6 5.92893V3Z"/>
</mask>
<path d="M9.29289 11.2929L7.87868 12.7071L9.29289 11.2929ZM9.29289 12.7071L7.87868 11.2929L9.29289 12.7071ZM7 4H17V0H7V4ZM17 20H7V24H17V20ZM16 3V5.92893H20V3H16ZM15.1213 8.05025L13.2929 9.87868L16.1213 12.7071L17.9497 10.8787L15.1213 8.05025ZM13.2929 14.1213L15.1213 15.9497L17.9497 13.1213L16.1213 11.2929L13.2929 14.1213ZM16 18.0711V21H20V18.0711H16ZM10.7071 9.87868L8.87868 8.05025L6.05025 10.8787L7.87868 12.7071L10.7071 9.87868ZM8 5.92893V3H4V5.92893H8ZM8 21V18.0711H4V21H8ZM8.87868 15.9497L10.7071 14.1213L7.87868 11.2929L6.05025 13.1213L8.87868 15.9497ZM8 18.0711C8 17.2754 8.31607 16.5124 8.87868 15.9497L6.05025 13.1213C4.7375 14.4341 4 16.2146 4 18.0711H8ZM8.87868 8.05025C8.31607 7.48764 8 6.72458 8 5.92893H4C4 7.78545 4.7375 9.56592 6.05025 10.8787L8.87868 8.05025ZM15.1213 15.9497C15.6839 16.5124 16 17.2754 16 18.0711H20C20 16.2146 19.2625 14.4341 17.9497 13.1213L15.1213 15.9497ZM16 5.92893C16 6.72458 15.6839 7.48764 15.1213 8.05025L17.9497 10.8787C19.2625 9.56593 20 7.78545 20 5.92893H16ZM13.2929 9.87868C12.1213 11.0503 12.1213 12.9497 13.2929 14.1213L16.1213 11.2929C16.5118 11.6834 16.5118 12.3166 16.1213 12.7071L13.2929 9.87868ZM7.87868 12.7071C7.48816 12.3166 7.48815 11.6834 7.87868 11.2929L10.7071 14.1213C11.8787 12.9497 11.8787 11.0503 10.7071 9.87868L7.87868 12.7071ZM7 20C7.55229 20 8 20.4477 8 21H4C4 22.6569 5.34314 24 7 24V20ZM17 24C18.6569 24 20 22.6569 20 21H16C16 20.4477 16.4477 20 17 20V24ZM17 4C16.4477 4 16 3.55228 16 3H20C20 1.34315 18.6569 0 17 0V4ZM7 0C5.34315 0 4 1.34315 4 3H8C8 3.55228 7.55229 4 7 4V0Z" fill="#28293D" mask="url(#path-1-inside-1_402_16719)"/>
<path d="M8.76205 21.6545H15.238C16.1732 21.6545 16.5967 20.485 15.8781 19.8863L12.6402 17.188C12.2693 16.8789 11.7307 16.8789 11.3598 17.188L8.12187 19.8863C7.40335 20.485 7.82675 21.6545 8.76205 21.6545Z" fill="#28293D"/>
</svg>
