<svg width="24" height="24" viewBox="0 0 24 24" fill="none" xmlns="http://www.w3.org/2000/svg">
<path d="M9 4L9.31623 3.05132L9 2.94591L8.68377 3.05132L9 4ZM9 19L9.31623 19.9487L10 19.7208V19H9ZM3.13162 20.9561L3.44785 21.9048L3.13162 20.9561ZM20.8684 4.04387L21.1846 4.99256L20.8684 4.04387ZM3.06838 5.97721L3.3846 6.92589L3.06838 5.97721ZM3.3846 6.92589L9.31623 4.94868L8.68377 3.05132L2.75215 5.02852L3.3846 6.92589ZM8.68377 4.94868L14.6838 6.94868L15.3162 5.05132L9.31623 3.05132L8.68377 4.94868ZM15.3162 6.94868L21.1846 4.99256L20.5521 3.09519L14.6838 5.05132L15.3162 6.94868ZM2 6.07208V20.8613H4V6.07208H2ZM3.44785 21.9048L9.31623 19.9487L8.68377 18.0513L2.8154 20.0074L3.44785 21.9048ZM8 4V19H10V4H8ZM22 11V4.13874H20V11H22ZM14 6V9H16V6H14ZM2 20.8613C2 21.6121 2.73557 22.1422 3.44785 21.9048L2.8154 20.0074C3.39817 19.8132 4 20.247 4 20.8613H2ZM21.1846 4.99256C20.6018 5.18682 20 4.75305 20 4.13874H22C22 3.38792 21.2644 2.85776 20.5521 3.09519L21.1846 4.99256ZM2.75215 5.02852C2.30297 5.17825 2 5.5986 2 6.07208H4C4 6.45946 3.75211 6.80339 3.3846 6.92589L2.75215 5.02852Z" fill="#28293D"/>
<path d="M18.1782 19.5924L22.2929 23.7071L23.7071 22.2929L19.5924 18.1782L18.1782 19.5924ZM19.0667 16.0333C19.0667 17.7086 17.7086 19.0667 16.0333 19.0667V21.0667C18.8132 21.0667 21.0667 18.8132 21.0667 16.0333H19.0667ZM16.0333 19.0667C14.3581 19.0667 13 17.7086 13 16.0333H11C11 18.8132 13.2535 21.0667 16.0333 21.0667V19.0667ZM13 16.0333C13 14.3581 14.3581 13 16.0333 13V11C13.2535 11 11 13.2535 11 16.0333H13ZM16.0333 13C17.7086 13 19.0667 14.3581 19.0667 16.0333H21.0667C21.0667 13.2535 18.8132 11 16.0333 11V13Z" fill="#28293D"/>
</svg>
