<svg width="24" height="24" viewBox="0 0 24 24" fill="none" xmlns="http://www.w3.org/2000/svg">
<path d="M14.6836 7.26355L8.18384 10.8089M14.6836 16.7366L8.18384 13.1912" stroke="#28293D" stroke-width="2"/>
<mask id="path-2-inside-1_402_16354" fill="white">
<path d="M20 6C20 7.65685 18.6569 9 17 9C15.3431 9 14 7.65685 14 6C14 4.34315 15.3431 3 17 3C18.6569 3 20 4.34315 20 6Z"/>
<path d="M9 12C9 13.6569 7.65685 15 6 15C4.34315 15 3 13.6569 3 12C3 10.3431 4.34315 9 6 9C7.65685 9 9 10.3431 9 12Z"/>
<path d="M20 18C20 19.6569 18.6569 21 17 21C15.3431 21 14 19.6569 14 18C14 16.3431 15.3431 15 17 15C18.6569 15 20 16.3431 20 18Z"/>
</mask>
<path d="M18 6C18 6.55228 17.5523 7 17 7V11C19.7614 11 22 8.76142 22 6H18ZM17 7C16.4477 7 16 6.55228 16 6H12C12 8.76142 14.2386 11 17 11V7ZM16 6C16 5.44772 16.4477 5 17 5V1C14.2386 1 12 3.23858 12 6H16ZM17 5C17.5523 5 18 5.44772 18 6H22C22 3.23858 19.7614 1 17 1V5ZM7 12C7 12.5523 6.55228 13 6 13V17C8.76142 17 11 14.7614 11 12H7ZM6 13C5.44772 13 5 12.5523 5 12H1C1 14.7614 3.23858 17 6 17V13ZM5 12C5 11.4477 5.44772 11 6 11V7C3.23858 7 1 9.23858 1 12H5ZM6 11C6.55228 11 7 11.4477 7 12H11C11 9.23858 8.76142 7 6 7V11ZM18 18C18 18.5523 17.5523 19 17 19V23C19.7614 23 22 20.7614 22 18H18ZM17 19C16.4477 19 16 18.5523 16 18H12C12 20.7614 14.2386 23 17 23V19ZM16 18C16 17.4477 16.4477 17 17 17V13C14.2386 13 12 15.2386 12 18H16ZM17 17C17.5523 17 18 17.4477 18 18H22C22 15.2386 19.7614 13 17 13V17Z" fill="#28293D" mask="url(#path-2-inside-1_402_16354)"/>
</svg>
