<svg width="24" height="24" viewBox="0 0 24 24" fill="none" xmlns="http://www.w3.org/2000/svg">
<mask id="path-1-inside-1_402_16534" fill="white">
<path d="M4 3C4 2.44772 4.44772 2 5 2H19C19.5523 2 20 2.44772 20 3V15.524C20 15.8252 19.8643 16.1103 19.6306 16.3001L12.6306 21.9876C12.2632 22.2862 11.7368 22.2862 11.3694 21.9876L4.36941 16.3001C4.1357 16.1103 4 15.8252 4 15.524V3Z"/>
</mask>
<path d="M12.6306 21.9876L11.3694 20.4354L12.6306 21.9876ZM11.3694 21.9876L10.1082 23.5399L11.3694 21.9876ZM4.36941 16.3001L3.10822 17.8524L4.36941 16.3001ZM19.6306 16.3001L20.8918 17.8524L19.6306 16.3001ZM5 4H19V0H5V4ZM18 3V15.524H22V3H18ZM6 15.524V3H2V15.524H6ZM18.3694 14.7479L11.3694 20.4354L13.8918 23.5399L20.8918 17.8524L18.3694 14.7479ZM12.6306 20.4354L5.63059 14.7479L3.10822 17.8524L10.1082 23.5399L12.6306 20.4354ZM11.3694 20.4354C11.7368 20.1369 12.2632 20.1369 12.6306 20.4354L10.1082 23.5399C11.2104 24.4354 12.7896 24.4354 13.8918 23.5399L11.3694 20.4354ZM2 15.524C2 16.4274 2.40709 17.2827 3.10822 17.8524L5.63059 14.7479C5.8643 14.9378 6 15.2229 6 15.524H2ZM18 15.524C18 15.2229 18.1357 14.9378 18.3694 14.7479L20.8918 17.8524C21.5929 17.2827 22 16.4274 22 15.524H18ZM19 4C18.4477 4 18 3.55228 18 3H22C22 1.34315 20.6569 0 19 0V4ZM5 0C3.34314 0 2 1.34315 2 3H6C6 3.55228 5.55229 4 5 4V0Z" fill="#28293D" mask="url(#path-1-inside-1_402_16534)"/>
<path d="M8 10.5L11 13L16.5 8" stroke="#28293D" stroke-width="2"/>
</svg>
