<svg width="24" height="24" viewBox="0 0 24 24" fill="none" xmlns="http://www.w3.org/2000/svg">
<path d="M16 11H8V13H16V11ZM9 12V9H7V12H9ZM8 11H7.1V13H8V11ZM6 12.1V18H8V12.1H6ZM8 20H16V18H8V20ZM18 18V12.1H16V18H18ZM16.9 11H16V13H16.9V11ZM18 12.1C18 11.4925 17.5075 11 16.9 11V13C16.4029 13 16 12.5971 16 12.1H18ZM7.1 11C6.49249 11 6 11.4925 6 12.1H8C8 12.5971 7.59706 13 7.1 13V11ZM16 20C17.1046 20 18 19.1046 18 18H16V20ZM12 6C13.6569 6 15 7.34315 15 9H17C17 6.23858 14.7614 4 12 4V6ZM6 18C6 19.1046 6.89543 20 8 20V18H6ZM12 4C9.23858 4 7 6.23858 7 9H9C9 7.34315 10.3431 6 12 6V4Z" fill="#28293D"/>
</svg>
