<svg width="24" height="24" viewBox="0 0 24 24" fill="none" xmlns="http://www.w3.org/2000/svg">
<mask id="path-1-inside-1_402_14095" fill="white">
<path d="M9 12L13 16L9 20V12Z"/>
</mask>
<path d="M13 16L13.8485 16.8485L14.6971 16L13.8485 15.1515L13 16ZM9 12L9.84853 11.1515L7.8 9.10294V12H9ZM9 20H7.8V22.8971L9.84853 20.8485L9 20ZM13.8485 15.1515L9.84853 11.1515L8.15147 12.8485L12.1515 16.8485L13.8485 15.1515ZM7.8 12V20H10.2V12H7.8ZM9.84853 20.8485L13.8485 16.8485L12.1515 15.1515L8.15147 19.1515L9.84853 20.8485Z" fill="#28293D" mask="url(#path-1-inside-1_402_14095)"/>
<mask id="mask0_402_14095" style="mask-type:alpha" maskUnits="userSpaceOnUse" x="1" y="6" width="22" height="13">
<path d="M9.5 19V14H16V19H23V6H1V19H9.5Z" fill="white"/>
</mask>
<g mask="url(#mask0_402_14095)">
<path d="M21.4 12C21.4 13.031 20.5486 14.1259 18.8027 14.9989C17.0928 15.8539 14.6885 16.4 12 16.4C9.31153 16.4 6.90723 15.8539 5.19726 14.9989C3.4514 14.1259 2.6 13.031 2.6 12C2.6 10.969 3.4514 9.87405 5.19726 9.00112C6.90723 8.14614 9.31153 7.6 12 7.6C14.6885 7.6 17.0928 8.14614 18.8027 9.00112C20.5486 9.87405 21.4 10.969 21.4 12Z" stroke="#28293D" stroke-width="1.2"/>
</g>
</svg>
