<svg width="24" height="24" viewBox="0 0 24 24" fill="none" xmlns="http://www.w3.org/2000/svg">
<mask id="mask0_402_14260" style="mask-type:alpha" maskUnits="userSpaceOnUse" x="0" y="0" width="24" height="24">
<path d="M21.5033 21.5L0.00325155 0L0 24H24V0H5.69812V3.57552L22.645 20.5233L21.5033 21.5Z" fill="white"/>
</mask>
<g mask="url(#mask0_402_14260)">
<path d="M2.5 3L21 21.5" stroke="#28293D" stroke-width="1.5"/>
<path d="M13.2652 19.6C13.0406 20.073 12.5584 20.4 12 20.4C11.4415 20.4 10.9594 20.073 10.7347 19.6H10.7417H10.751H10.7604H10.7698H10.7793H10.7887H10.7982H10.8077H10.8172H10.8267H10.8363H10.8459H10.8555H10.8651H10.8747H10.8844H10.894H10.9037H10.9134H10.9231H10.9329H10.9426H10.9524H10.9622H10.972H10.9818H10.9917H11.0015H11.0114H11.0213H11.0312H11.0411H11.0511H11.061H11.071H11.081H11.091H11.101H11.111H11.121H11.1311H11.1411H11.1512H11.1613H11.1714H11.1815H11.1917H11.2018H11.212H11.2221H11.2323H11.2425H11.2527H11.2629H11.2731H11.2833H11.2936H11.3038H11.3141H11.3243H11.3346H11.3449H11.3552H11.3655H11.3758H11.3861H11.3965H11.4068H11.4172H11.4275H11.4379H11.4482H11.4586H11.469H11.4794H11.4898H11.5002H11.5106H11.521H11.5314H11.5418H11.5522H11.5627H11.5731H11.5836H11.594H11.6044H11.6149H11.6253H11.6358H11.6463H11.6567H11.6672H11.6777H11.6881H11.6986H11.7091H11.7196H11.73H11.7405H11.751H11.7615H11.772H11.7824H11.7929H11.8034H11.8139H11.8244H11.8349H11.8453H11.8558H11.8663H11.8768H11.8872H11.8977H11.9082H11.9186H11.9291H11.9396H11.95H11.9605H11.9709H11.9814H11.9918H12.0023H12.0127H12.0231H12.0336H12.044H12.0544H12.0648H12.0752H12.0856H12.096H12.1064H12.1168H12.1272H12.1375H12.1479H12.1583H12.1686H12.1789H12.1893H12.1996H12.2099H12.2202H12.2305H12.2408H12.2511H12.2614H12.2716H12.2819H12.2921H12.3024H12.3126H12.3228H12.333H12.3432H12.3534H12.3635H12.3737H12.3838H12.394H12.4041H12.4142H12.4243H12.4344H12.4444H12.4545H12.4645H12.4746H12.4846H12.4946H12.5046H12.5145H12.5245H12.5344H12.5443H12.5543H12.5642H12.574H12.5839H12.5937H12.6036H12.6134H12.6232H12.633H12.6427H12.6525H12.6622H12.6719H12.6816H12.6913H12.7009H12.7106H12.7202H12.7298H12.7394H12.7489H12.7585H12.768H12.7775H12.787H12.7964H12.8059H12.8153H12.8247H12.8341H12.8434H12.8527H12.862H12.8713H12.8806H12.8898H12.8991H12.9082H12.9174H12.9266H12.9357H12.9448H12.9539H12.9629H12.972H12.981H12.9899H12.9989H13.0078H13.0167H13.0256H13.0344H13.0433H13.0521H13.0608H13.0696H13.0783H13.087H13.0956H13.1043H13.1129H13.1215H13.13H13.1385H13.147H13.1555H13.1639H13.1723H13.1807H13.189H13.1974H13.2056H13.2139H13.2221H13.2303H13.2385H13.2466H13.2547H13.2628H13.2652Z" stroke="#28293D" stroke-width="1.2"/>
<path d="M19 17V17.6C19.2213 17.6 19.4246 17.4782 19.529 17.2831C19.6334 17.088 19.622 16.8513 19.4992 16.6672L19 17ZM17 14H16.4C16.4 14.1185 16.4351 14.2343 16.5008 14.3328L17 14ZM7 14L7.49923 14.3328C7.56494 14.2343 7.6 14.1185 7.6 14H7ZM5 17L4.50077 16.6672C4.37803 16.8513 4.36658 17.088 4.471 17.2831C4.57541 17.4782 4.77872 17.6 5 17.6V17ZM7.6 10C7.6 7.56995 9.56995 5.6 12 5.6V4.4C8.90721 4.4 6.4 6.90721 6.4 10H7.6ZM12 5.6C14.4301 5.6 16.4 7.56995 16.4 10H17.6C17.6 6.90721 15.0928 4.4 12 4.4V5.6ZM7 17.6H17V16.4H7V17.6ZM17 17.6H19V16.4H17V17.6ZM17.6 14V10H16.4V14H17.6ZM19.4992 16.6672L17.4992 13.6672L16.5008 14.3328L18.5008 17.3328L19.4992 16.6672ZM6.4 10V14H7.6V10H6.4ZM6.50077 13.6672L4.50077 16.6672L5.49923 17.3328L7.49923 14.3328L6.50077 13.6672ZM5 17.6H7V16.4H5V17.6ZM12.6 5V2H11.4V5H12.6Z" fill="#28293D"/>
</g>
</svg>
