<svg width="24" height="24" viewBox="0 0 24 24" fill="none" xmlns="http://www.w3.org/2000/svg">
<mask id="path-1-inside-1_402_14000" fill="white">
<path d="M5 3L6 2L7 3V7H8V18L7 19V22H5V19L4 18V7H5V3Z"/>
<path d="M11 3L12 2L13 3V7H14V18L13 19V22H11V19L10 18V7H11V3Z"/>
<path d="M17 3L18 2L19 3V7H20V18L19 19V22H17V19L16 18V7H17V3Z"/>
</mask>
<path d="M6 2L6.84853 1.15147L6 0.302944L5.15147 1.15147L6 2ZM5 3L4.15147 2.15147L3.8 2.50294V3H5ZM5 7V8.2H6.2V7H5ZM4 7V5.8H2.8V7H4ZM4 18H2.8V18.4971L3.15147 18.8485L4 18ZM5 19H6.2V18.5029L5.84853 18.1515L5 19ZM5 22H3.8V23.2H5V22ZM7 22V23.2H8.2V22H7ZM7 19L6.15147 18.1515L5.8 18.5029V19H7ZM8 18L8.84853 18.8485L9.2 18.4971V18H8ZM8 7H9.2V5.8H8V7ZM7 7H5.8V8.2H7V7ZM7 3H8.2V2.50294L7.84853 2.15147L7 3ZM12 2L12.8485 1.15147L12 0.302944L11.1515 1.15147L12 2ZM11 3L10.1515 2.15147L9.8 2.50294V3H11ZM11 7V8.2H12.2V7H11ZM10 7V5.8H8.8V7H10ZM10 18H8.8V18.4971L9.15147 18.8485L10 18ZM11 19H12.2V18.5029L11.8485 18.1515L11 19ZM11 22H9.8V23.2H11V22ZM13 22V23.2H14.2V22H13ZM13 19L12.1515 18.1515L11.8 18.5029V19H13ZM14 18L14.8485 18.8485L15.2 18.4971V18H14ZM14 7H15.2V5.8H14V7ZM13 7H11.8V8.2H13V7ZM13 3H14.2V2.50294L13.8485 2.15147L13 3ZM18 2L18.8485 1.15147L18 0.302944L17.1515 1.15147L18 2ZM17 3L16.1515 2.15147L15.8 2.50294V3H17ZM17 7V8.2H18.2V7H17ZM16 7V5.8H14.8V7H16ZM16 18H14.8V18.4971L15.1515 18.8485L16 18ZM17 19H18.2V18.5029L17.8485 18.1515L17 19ZM17 22H15.8V23.2H17V22ZM19 22V23.2H20.2V22H19ZM19 19L18.1515 18.1515L17.8 18.5029V19H19ZM20 18L20.8485 18.8485L21.2 18.4971V18H20ZM20 7H21.2V5.8H20V7ZM19 7H17.8V8.2H19V7ZM19 3H20.2V2.50294L19.8485 2.15147L19 3ZM5.15147 1.15147L4.15147 2.15147L5.84853 3.84853L6.84853 2.84853L5.15147 1.15147ZM3.8 3V7H6.2V3H3.8ZM5 5.8H4V8.2H5V5.8ZM2.8 7V18H5.2V7H2.8ZM3.15147 18.8485L4.15147 19.8485L5.84853 18.1515L4.84853 17.1515L3.15147 18.8485ZM3.8 19V22H6.2V19H3.8ZM8.2 22V19H5.8V22H8.2ZM7.84853 19.8485L8.84853 18.8485L7.15147 17.1515L6.15147 18.1515L7.84853 19.8485ZM9.2 18V7H6.8V18H9.2ZM8 5.8H7V8.2H8V5.8ZM8.2 7V3H5.8V7H8.2ZM7.84853 2.15147L6.84853 1.15147L5.15147 2.84853L6.15147 3.84853L7.84853 2.15147ZM11.1515 1.15147L10.1515 2.15147L11.8485 3.84853L12.8485 2.84853L11.1515 1.15147ZM9.8 3V7H12.2V3H9.8ZM11 5.8H10V8.2H11V5.8ZM8.8 7V18H11.2V7H8.8ZM9.15147 18.8485L10.1515 19.8485L11.8485 18.1515L10.8485 17.1515L9.15147 18.8485ZM9.8 19V22H12.2V19H9.8ZM14.2 22V19H11.8V22H14.2ZM13.8485 19.8485L14.8485 18.8485L13.1515 17.1515L12.1515 18.1515L13.8485 19.8485ZM15.2 18V7H12.8V18H15.2ZM14 5.8H13V8.2H14V5.8ZM14.2 7V3H11.8V7H14.2ZM13.8485 2.15147L12.8485 1.15147L11.1515 2.84853L12.1515 3.84853L13.8485 2.15147ZM17.1515 1.15147L16.1515 2.15147L17.8485 3.84853L18.8485 2.84853L17.1515 1.15147ZM15.8 3V7H18.2V3H15.8ZM17 5.8H16V8.2H17V5.8ZM14.8 7V18H17.2V7H14.8ZM15.1515 18.8485L16.1515 19.8485L17.8485 18.1515L16.8485 17.1515L15.1515 18.8485ZM15.8 19V22H18.2V19H15.8ZM20.2 22V19H17.8V22H20.2ZM19.8485 19.8485L20.8485 18.8485L19.1515 17.1515L18.1515 18.1515L19.8485 19.8485ZM21.2 18V7H18.8V18H21.2ZM20 5.8H19V8.2H20V5.8ZM20.2 7V3H17.8V7H20.2ZM19.8485 2.15147L18.8485 1.15147L17.1515 2.84853L18.1515 3.84853L19.8485 2.15147ZM5 23.2H7V20.8H5V23.2ZM11 23.2H13V20.8H11V23.2ZM17 23.2H19V20.8H17V23.2Z" fill="#28293D" mask="url(#path-1-inside-1_402_14000)"/>
</svg>
