<svg width="24" height="24" viewBox="0 0 24 24" fill="none" xmlns="http://www.w3.org/2000/svg">
<path d="M22 4.70009H22.6V4.27934L22.2044 4.13599L22 4.70009ZM22 19.0541L21.7956 19.6182L22.6 19.9097V19.0541H22ZM12 20L11.6939 20.5161L12 20.6976L12.3061 20.5161L12 20ZM2 4.70009L1.79558 4.13599L1.4 4.27934V4.70009H2ZM2 19.0541H1.4V19.9097L2.20442 19.6182L2 19.0541ZM18 4.6C19.3317 4.6 20.6089 4.83415 21.7956 5.26419L22.2044 4.13599C20.8889 3.65925 19.4734 3.4 18 3.4V4.6ZM18 18.954C19.3317 18.954 20.6089 19.1882 21.7956 19.6182L22.2044 18.49C20.8889 18.0133 19.4734 17.754 18 17.754V18.954ZM21.4 4.70009V19.0541H22.6V4.70009H21.4ZM12.3061 6.16204C13.9816 5.16829 15.9256 4.6 18 4.6V3.4C15.703 3.4 13.5485 4.02999 11.6939 5.12992L12.3061 6.16204ZM12.3061 20.5161C13.9816 19.5223 15.9256 18.954 18 18.954V17.754C15.703 17.754 13.5485 18.384 11.6939 19.4839L12.3061 20.5161ZM11.4 5.64598V20H12.6V5.64598H11.4ZM6 3.4C4.52658 3.4 3.11113 3.65925 1.79558 4.13599L2.20442 5.26419C3.39111 4.83415 4.66833 4.6 6 4.6V3.4ZM6 17.754C4.52658 17.754 3.11113 18.0133 1.79558 18.49L2.20442 19.6182C3.39111 19.1882 4.66833 18.954 6 18.954V17.754ZM1.4 4.70009V19.0541H2.6V4.70009H1.4ZM12.3061 5.12992C10.4515 4.02999 8.29701 3.4 6 3.4V4.6C8.07444 4.6 10.0184 5.16829 11.6939 6.16204L12.3061 5.12992ZM12.3061 19.4839C10.4515 18.384 8.29701 17.754 6 17.754V18.954C8.07444 18.954 10.0184 19.5223 11.6939 20.5161L12.3061 19.4839Z" fill="#28293D"/>
</svg>
