<svg width="24" height="24" viewBox="0 0 24 24" fill="none" xmlns="http://www.w3.org/2000/svg">
<path d="M8.77816 4.82184H9.02669L9.20243 4.6461L12 1.84853L14.7976 4.6461L14.9733 4.82184H15.2218H19.1782V8.77818V9.0267L19.3539 9.20244L22.1515 12L19.3539 14.7976L19.1782 14.9733V15.2218V19.1782H15.2218H14.9733L14.7975 19.3539L12 22.1515L9.20245 19.3539L9.02672 19.1782H8.77819H4.82183V15.2218V14.9733L4.64609 14.7976L1.84853 12L4.64609 9.20244L4.82183 9.0267V8.77817V4.82184H8.77816Z" stroke="#28293D" stroke-width="1.2"/>
<path d="M12.8105 13.1364L12.3655 12.7339L12.8105 13.1364ZM9.84117 10.484C9.84117 9.24874 10.8641 8.3334 12.0299 8.3334V7.1334C10.2593 7.1334 8.64117 8.52944 8.64117 10.484H9.84117ZM12.0299 8.3334C13.1788 8.3334 14.1588 9.23234 14.1588 10.484H15.3588C15.3588 8.54584 13.8175 7.1334 12.0299 7.1334V8.3334ZM14.1588 10.484C14.1588 10.8887 14.0096 11.152 13.7046 11.4654C13.5391 11.6355 13.3484 11.7992 13.1102 12.0108C12.8801 12.2152 12.6216 12.4508 12.3655 12.7339L13.2554 13.5389C13.4659 13.3062 13.6843 13.1059 13.907 12.9081C14.1216 12.7175 14.3597 12.5129 14.5646 12.3023C15.0005 11.8543 15.3588 11.3072 15.3588 10.484H14.1588ZM12.3655 12.7339C12.0404 13.0932 11.8041 13.5232 11.6487 13.9126C11.4972 14.2922 11.4 14.6907 11.4 15H12.6C12.6 14.9 12.6423 14.6603 12.7633 14.3573C12.8802 14.0641 13.0491 13.7669 13.2554 13.5389L12.3655 12.7339ZM11.4 16V17.5H12.6V16H11.4Z" fill="#28293D"/>
</svg>
