<svg width="24" height="24" viewBox="0 0 24 24" fill="none" xmlns="http://www.w3.org/2000/svg">
<mask id="mask0_402_14002" style="mask-type:alpha" maskUnits="userSpaceOnUse" x="0" y="0" width="24" height="18">
<path d="M0 0H24V18H0V0Z" fill="white"/>
</mask>
<g mask="url(#mask0_402_14002)">
<path d="M1.6 16C1.6 10.2562 6.25624 5.6 12 5.6C17.7438 5.6 22.4 10.2562 22.4 16C22.4 18.4064 21.5834 20.6205 20.2117 22.3826H3.78826C2.41657 20.6205 1.6 18.4064 1.6 16Z" stroke="#28293D" stroke-width="1.2"/>
</g>
<path d="M12 18.4C11.2268 18.4 10.6 17.7732 10.6 17C10.6 16.5346 10.8265 16.1221 11.1778 15.8667L16.1962 12.8038L13.1344 17.8208C12.879 18.1729 12.466 18.4 12 18.4Z" stroke="#28293D" stroke-width="1.2"/>
</svg>
