<svg width="24" height="24" viewBox="0 0 24 24" fill="none" xmlns="http://www.w3.org/2000/svg">
<mask id="path-1-inside-1_402_14251" fill="white">
<path d="M7 22C5.89543 22 5 21.1046 5 20V8H19V20C19 21.1046 18.1046 22 17 22H7Z"/>
<path d="M5 4C4.44772 4 4 4.44772 4 5V7H20V5C20 4.44772 19.5523 4 19 4H16L15.5528 3.10557C15.214 2.428 14.5215 2 13.7639 2H10.2361C9.47852 2 8.786 2.428 8.44721 3.10557L8 4H5Z"/>
</mask>
<path d="M5 8V6.8H3.8V8H5ZM19 8H20.2V6.8H19V8ZM4 7H2.8V8.2H4V7ZM20 7V8.2H21.2V7H20ZM8 4V5.2H8.74164L9.07331 4.53666L8 4ZM16 4L14.9267 4.53666L15.2584 5.2H16V4ZM3.8 8V20H6.2V8H3.8ZM7 23.2H17V20.8H7V23.2ZM20.2 20V8H17.8V20H20.2ZM19 6.8H5V9.2H19V6.8ZM5.2 7V5H2.8V7H5.2ZM18.8 5V7H21.2V5H18.8ZM20 5.8H4V8.2H20V5.8ZM5 5.2H8V2.8H5V5.2ZM9.07331 4.53666L9.52053 3.64223L7.3739 2.56892L6.92669 3.46334L9.07331 4.53666ZM10.2361 3.2H13.7639V0.8H10.2361V3.2ZM16 5.2H19V2.8H16V5.2ZM14.4795 3.64223L14.9267 4.53666L17.0733 3.46334L16.6261 2.56892L14.4795 3.64223ZM13.7639 3.2C14.0669 3.2 14.344 3.3712 14.4795 3.64223L16.6261 2.56892C16.084 1.48481 14.976 0.8 13.7639 0.8V3.2ZM9.52053 3.64223C9.65604 3.3712 9.93305 3.2 10.2361 3.2V0.8C9.024 0.8 7.91596 1.48481 7.3739 2.56892L9.52053 3.64223ZM5.2 5C5.2 5.11046 5.11046 5.2 5 5.2V2.8C3.78497 2.8 2.8 3.78497 2.8 5H5.2ZM17 23.2C18.7673 23.2 20.2 21.7673 20.2 20H17.8C17.8 20.4418 17.4418 20.8 17 20.8V23.2ZM21.2 5C21.2 3.78497 20.215 2.8 19 2.8V5.2C18.8895 5.2 18.8 5.11046 18.8 5H21.2ZM3.8 20C3.8 21.7673 5.23269 23.2 7 23.2V20.8C6.55817 20.8 6.2 20.4418 6.2 20H3.8Z" fill="#28293D" mask="url(#path-1-inside-1_402_14251)"/>
<path d="M14.5757 11.5757L11.5757 14.5757L12.4243 15.4243L15.4243 12.4243L14.5757 11.5757ZM11.5757 14.5757L8.57574 17.5757L9.42426 18.4243L12.4243 15.4243L11.5757 14.5757ZM11.5757 15.4243L14.5757 18.4243L15.4243 17.5757L12.4243 14.5757L11.5757 15.4243ZM12.4243 14.5757L9.42426 11.5757L8.57574 12.4243L11.5757 15.4243L12.4243 14.5757Z" fill="#28293D"/>
</svg>
