<svg width="24" height="24" viewBox="0 0 24 24" fill="none" xmlns="http://www.w3.org/2000/svg">
<mask id="path-1-inside-1_402_14088" fill="white">
<path d="M22 12C22 17.5228 17.5228 22 12 22C11.3151 22 10.6462 21.9311 10 21.8C5.43552 20.8734 2 16.8379 2 12C2 10.1801 2.48618 8.47366 3.33574 7.00361C5.06427 4.01261 8.2971 2 12 2C13.4222 2 14.7751 2.29689 16 2.83209C19.5318 4.3752 22 7.89936 22 12Z"/>
</mask>
<path d="M9.16025 15.7404L9.65948 15.4076L9.16025 15.7404ZM14.5 13.4H11.6V14.6H14.5V13.4ZM10.6 12.4V11.8H9.4V12.4H10.6ZM13.6 8.8V8.75H12.4V8.8H13.6ZM14.25 8.1H14.5V6.9H14.25V8.1ZM14.5 8.1C15.6598 8.1 16.6 7.1598 16.6 6H15.4C15.4 6.49706 14.9971 6.9 14.5 6.9V8.1ZM13.6 8.75C13.6 8.39102 13.891 8.1 14.25 8.1V6.9C13.2283 6.9 12.4 7.72827 12.4 8.75H13.6ZM11.8 10.6C12.7941 10.6 13.6 9.79411 13.6 8.8H12.4C12.4 9.13137 12.1314 9.4 11.8 9.4V10.6ZM11.6 13.4C11.0477 13.4 10.6 12.9523 10.6 12.4H9.4C9.4 13.615 10.385 14.6 11.6 14.6V13.4ZM18.1 17C18.1 15.0118 16.4882 13.4 14.5 13.4V14.6C15.8255 14.6 16.9 15.6745 16.9 17H18.1ZM10.6 11.8C10.6 11.1373 11.1373 10.6 11.8 10.6V9.4C10.4745 9.4 9.4 10.4745 9.4 11.8H10.6ZM8.66102 16.0732C9.14287 16.796 9.4 17.6452 9.4 18.5139H10.6C10.6 17.4083 10.2727 16.3275 9.65948 15.4076L8.66102 16.0732ZM2.83651 7.33643L8.66102 16.0732L9.65948 15.4076L3.83497 6.67079L2.83651 7.33643ZM16.6 6V2.83209H15.4V6H16.6ZM9.4 18.5139V21.8H10.6V18.5139H9.4ZM18.1 20.353V17H16.9V20.353H18.1ZM3.33574 7.00361L2.29676 6.40317L3.33574 7.00361ZM16 2.83209L16.4804 1.73246L16 2.83209ZM10 21.8L10.2387 20.6239L10 21.8ZM20.8 12C20.8 16.8601 16.8601 20.8 12 20.8V23.2C18.1856 23.2 23.2 18.1856 23.2 12H20.8ZM3.2 12C3.2 10.3965 3.62781 8.89646 4.37471 7.60404L2.29676 6.40317C1.34454 8.05085 0.8 9.96365 0.8 12H3.2ZM4.37471 7.60404C5.89763 4.96884 8.74296 3.2 12 3.2V0.8C7.85124 0.8 4.23091 3.05638 2.29676 6.40317L4.37471 7.60404ZM12 3.2C13.2538 3.2 14.4433 3.46147 15.5196 3.93171L16.4804 1.73246C15.1069 1.13232 13.5907 0.8 12 0.8V3.2ZM15.5196 3.93171C18.6301 5.29075 20.8 8.3933 20.8 12H23.2C23.2 7.40542 20.4336 3.45965 16.4804 1.73246L15.5196 3.93171ZM12 20.8C11.3957 20.8 10.8068 20.7393 10.2387 20.6239L9.76128 22.976C10.4856 23.123 11.2344 23.2 12 23.2V20.8ZM10.2387 20.6239C6.22248 19.8087 3.2 16.256 3.2 12H0.8C0.8 17.4199 4.64856 21.9382 9.76128 22.976L10.2387 20.6239Z" fill="#28293D" mask="url(#path-1-inside-1_402_14088)"/>
</svg>
