<svg width="24" height="24" viewBox="0 0 24 24" fill="none" xmlns="http://www.w3.org/2000/svg">
<mask id="path-1-inside-1_402_14086" fill="white">
<path d="M22 12C22 17.5228 17.5228 22 12 22C6.47715 22 2 17.5228 2 12C2 6.47715 6.47715 2 12 2C17.5228 2 22 6.47715 22 12Z"/>
</mask>
<path d="M22 12L22.3748 12.4685L22.9605 12L22.3748 11.5315L22 12ZM12 22L11.5315 22.3748L12 22.9605L12.4685 22.3748L12 22ZM2 12L1.62518 11.5315L1.03953 12L1.62518 12.4685L2 12ZM12 2L12.4685 1.62518L12 1.03953L11.5315 1.62518L12 2ZM12.4685 22.3748C17.3209 16.3093 17.3209 7.69066 12.4685 1.62518L11.5315 2.37482C16.0333 8.00204 16.0333 15.998 11.5315 21.6252L12.4685 22.3748ZM11.5315 1.62518C6.67909 7.69066 6.67909 16.3093 11.5315 22.3748L12.4685 21.6252C7.96675 15.998 7.96675 8.00204 12.4685 2.37482L11.5315 1.62518ZM21.6252 11.5315C15.998 16.0333 8.00204 16.0333 2.37482 11.5315L1.62518 12.4685C7.69066 17.3209 16.3093 17.3209 22.3748 12.4685L21.6252 11.5315ZM2.37482 12.4685C8.00204 7.96675 15.998 7.96675 21.6252 12.4685L22.3748 11.5315C16.3093 6.67909 7.69066 6.67909 1.62518 11.5315L2.37482 12.4685ZM20.8 12C20.8 16.8601 16.8601 20.8 12 20.8V23.2C18.1856 23.2 23.2 18.1856 23.2 12H20.8ZM12 20.8C7.13989 20.8 3.2 16.8601 3.2 12H0.8C0.8 18.1856 5.81441 23.2 12 23.2V20.8ZM3.2 12C3.2 7.13989 7.13989 3.2 12 3.2V0.8C5.81441 0.8 0.8 5.81441 0.8 12H3.2ZM12 3.2C16.8601 3.2 20.8 7.13989 20.8 12H23.2C23.2 5.81441 18.1856 0.8 12 0.8V3.2Z" fill="#28293D" mask="url(#path-1-inside-1_402_14086)"/>
</svg>
