<svg width="24" height="24" viewBox="0 0 24 24" fill="none" xmlns="http://www.w3.org/2000/svg">
<mask id="path-1-inside-1_402_14384" fill="white">
<path d="M2 11C1.44772 11 1 10.5523 1 10L1 4C1 3.44772 1.44772 3 2 3L10 3.00001C10.5523 3.00001 11 3.44772 11 4.00001V10C11 10.5523 10.5523 11 10 11H2Z"/>
<path d="M2 21C1.44772 21 1 20.5523 1 20L1 14C1 13.4477 1.44772 13 2 13H10C10.5523 13 11 13.4477 11 14V20C11 20.5523 10.5523 21 10 21L2 21Z"/>
<path d="M14 11C13.4477 11 13 10.5523 13 10L13 4C13 3.44772 13.4477 3 14 3L22 3.00001C22.5523 3.00001 23 3.44772 23 4.00001V10C23 10.5523 22.5523 11 22 11H14Z"/>
<path d="M14 21C13.4477 21 13 20.5523 13 20L13 14C13 13.4477 13.4477 13 14 13H22C22.5523 13 23 13.4477 23 14V20C23 20.5523 22.5523 21 22 21L14 21Z"/>
</mask>
<path d="M22 21L22 22.2L22 21ZM13 20H14.2H13ZM14 21L14 19.8L14 21ZM13 14L11.8 14L13 14ZM13 10L14.2 10L13 10ZM13 4L11.8 4L13 4ZM10 21V19.8V21ZM2 21L2 22.2L2 21ZM-0.2 4L-0.199999 10L2.2 10L2.2 4L-0.2 4ZM2 12.2H10V9.8H2V12.2ZM12.2 10V4.00001H9.8V10H12.2ZM10 1.80001L2 1.8L2 4.2L10 4.20001L10 1.80001ZM-0.2 14L-0.199998 20L2.2 20L2.2 14L-0.2 14ZM2 22.2L10 22.2L10 19.8L2 19.8L2 22.2ZM12.2 20V14H9.8V20H12.2ZM10 11.8H2V14.2H10V11.8ZM11.8 4L11.8 10L14.2 10L14.2 4L11.8 4ZM14 12.2H22V9.8H14V12.2ZM24.2 10V4.00001H21.8V10H24.2ZM22 1.80001L14 1.8L14 4.2L22 4.20001L22 1.80001ZM11.8 14L11.8 20L14.2 20L14.2 14L11.8 14ZM14 22.2L22 22.2L22 19.8L14 19.8L14 22.2ZM24.2 20V14H21.8V20H24.2ZM22 11.8H14V14.2H22V11.8ZM24.2 14C24.2 12.785 23.215 11.8 22 11.8V14.2C21.8895 14.2 21.8 14.1105 21.8 14H24.2ZM22 22.2C23.215 22.2 24.2 21.215 24.2 20H21.8C21.8 19.8895 21.8895 19.8 22 19.8L22 22.2ZM11.8 20C11.8 21.215 12.785 22.2 14 22.2L14 19.8C14.1105 19.8 14.2 19.8895 14.2 20L11.8 20ZM14.2 14C14.2 14.1105 14.1105 14.2 14 14.2V11.8C12.785 11.8 11.8 12.785 11.8 14L14.2 14ZM24.2 4.00001C24.2 2.78498 23.215 1.80001 22 1.80001L22 4.20001C21.8895 4.20001 21.8 4.11047 21.8 4.00001H24.2ZM22 12.2C23.215 12.2 24.2 11.215 24.2 10H21.8C21.8 9.88955 21.8895 9.8 22 9.8V12.2ZM11.8 10C11.8 11.215 12.785 12.2 14 12.2V9.8C14.1105 9.8 14.2 9.88955 14.2 10L11.8 10ZM14.2 4C14.2 4.11046 14.1105 4.2 14 4.2L14 1.8C12.785 1.8 11.8 2.78497 11.8 4L14.2 4ZM12.2 14C12.2 12.785 11.215 11.8 10 11.8V14.2C9.88954 14.2 9.8 14.1105 9.8 14H12.2ZM10 22.2C11.215 22.2 12.2 21.215 12.2 20H9.8C9.8 19.8895 9.88954 19.8 10 19.8L10 22.2ZM-0.199998 20C-0.199997 21.215 0.784976 22.2 2 22.2L2 19.8C2.11046 19.8 2.2 19.8895 2.2 20L-0.199998 20ZM2.2 14C2.2 14.1105 2.11046 14.2 2 14.2V11.8C0.784973 11.8 -0.2 12.785 -0.2 14L2.2 14ZM12.2 4.00001C12.2 2.78498 11.215 1.80001 10 1.80001L10 4.20001C9.88954 4.20001 9.8 4.11047 9.8 4.00001H12.2ZM10 12.2C11.215 12.2 12.2 11.215 12.2 10H9.8C9.8 9.88955 9.88954 9.8 10 9.8V12.2ZM-0.199999 10C-0.199999 11.215 0.784974 12.2 2 12.2V9.8C2.11046 9.8 2.2 9.88955 2.2 10L-0.199999 10ZM2.2 4C2.2 4.11046 2.11046 4.2 2 4.2L2 1.8C0.784974 1.8 -0.2 2.78497 -0.2 4L2.2 4Z" fill="#28293D" mask="url(#path-1-inside-1_402_14384)"/>
</svg>
