<svg width="24" height="24" viewBox="0 0 24 24" fill="none" xmlns="http://www.w3.org/2000/svg">
<mask id="path-1-inside-1_402_14386" fill="white">
<path d="M2 11C1.44772 11 1 10.5523 1 10L1 4C1.00001 3.44771 1.44772 3 2.00001 3L22 3C22.5523 3 23 3.44772 23 4V10C23 10.5523 22.5523 11 22 11L2 11Z"/>
<path d="M2.00001 21C1.44772 21 1.00001 20.5523 1.00001 20L1 14C1 13.4477 1.44772 13 2 13H22C22.5523 13 23 13.4477 23 14L23 20C23 20.5523 22.5523 21 22 21H2.00001Z"/>
</mask>
<path d="M23 14L24.2 14L23 14ZM23 20L24.2 20L23 20ZM22 11V9.8V11ZM2 11L2 12.2L2 11ZM-0.199995 4L-0.199999 10L2.2 10L2.2 4L-0.199995 4ZM2 12.2L22 12.2V9.8L2 9.8L2 12.2ZM24.2 10V4H21.8V10H24.2ZM22 1.8L2.00001 1.8L2.00001 4.2L22 4.2V1.8ZM-0.199999 14L-0.199994 20L2.20001 20L2.2 14L-0.199999 14ZM2.00001 22.2H22V19.8H2.00001V22.2ZM24.2 20L24.2 14L21.8 14L21.8 20L24.2 20ZM22 11.8H2V14.2H22V11.8ZM24.2 14C24.2 12.785 23.215 11.8 22 11.8V14.2C21.8895 14.2 21.8 14.1105 21.8 14L24.2 14ZM22 22.2C23.215 22.2 24.2 21.215 24.2 20L21.8 20C21.8 19.8895 21.8895 19.8 22 19.8V22.2ZM-0.199994 20C-0.199993 21.215 0.784981 22.2 2.00001 22.2V19.8C2.11046 19.8 2.20001 19.8895 2.20001 20L-0.199994 20ZM2.2 14C2.2 14.1105 2.11046 14.2 2 14.2V11.8C0.784976 11.8 -0.2 12.785 -0.199999 14L2.2 14ZM24.2 4C24.2 2.78498 23.215 1.8 22 1.8V4.2C21.8896 4.2 21.8 4.11046 21.8 4H24.2ZM22 12.2C23.215 12.2 24.2 11.215 24.2 10H21.8C21.8 9.88955 21.8896 9.8 22 9.8V12.2ZM-0.199999 10C-0.2 11.215 0.784974 12.2 2 12.2L2 9.8C2.11046 9.8 2.2 9.88954 2.2 10L-0.199999 10ZM2.2 4C2.2 4.11046 2.11046 4.2 2.00001 4.2L2.00001 1.8C0.784981 1.8 -0.199994 2.78497 -0.199995 4L2.2 4Z" fill="#28293D" mask="url(#path-1-inside-1_402_14386)"/>
</svg>
