<svg width="24" height="24" viewBox="0 0 24 24" fill="none" xmlns="http://www.w3.org/2000/svg">
<mask id="path-1-inside-1_402_14382" fill="white">
<path d="M3 7C3 4.79086 4.79086 3 7 3C9.20914 3 11 4.79086 11 7C11 9.20914 9.20914 11 7 11C4.79086 11 3 9.20914 3 7Z"/>
<path d="M3 17C3 14.7909 4.79086 13 7 13C9.20914 13 11 14.7909 11 17C11 19.2091 9.20914 21 7 21C4.79086 21 3 19.2091 3 17Z"/>
<path d="M13 7C13 4.79086 14.7909 3 17 3C19.2091 3 21 4.79086 21 7C21 9.20914 19.2091 11 17 11C14.7909 11 13 9.20914 13 7Z"/>
<path d="M13 17C13 14.7909 14.7909 13 17 13C19.2091 13 21 14.7909 21 17C21 19.2091 19.2091 21 17 21C14.7909 21 13 19.2091 13 17Z"/>
</mask>
<path d="M17 19.8C15.4536 19.8 14.2 18.5464 14.2 17H11.8C11.8 19.8719 14.1281 22.2 17 22.2V19.8ZM19.8 17C19.8 18.5464 18.5464 19.8 17 19.8V22.2C19.8719 22.2 22.2 19.8719 22.2 17H19.8ZM17 14.2C18.5464 14.2 19.8 15.4536 19.8 17H22.2C22.2 14.1281 19.8719 11.8 17 11.8V14.2ZM17 11.8C14.1281 11.8 11.8 14.1281 11.8 17H14.2C14.2 15.4536 15.4536 14.2 17 14.2V11.8ZM17 9.8C15.4536 9.8 14.2 8.5464 14.2 7H11.8C11.8 9.87188 14.1281 12.2 17 12.2V9.8ZM19.8 7C19.8 8.5464 18.5464 9.8 17 9.8V12.2C19.8719 12.2 22.2 9.87188 22.2 7H19.8ZM17 4.2C18.5464 4.2 19.8 5.4536 19.8 7H22.2C22.2 4.12812 19.8719 1.8 17 1.8V4.2ZM17 1.8C14.1281 1.8 11.8 4.12812 11.8 7H14.2C14.2 5.4536 15.4536 4.2 17 4.2V1.8ZM7 19.8C5.4536 19.8 4.2 18.5464 4.2 17H1.8C1.8 19.8719 4.12812 22.2 7 22.2V19.8ZM9.8 17C9.8 18.5464 8.5464 19.8 7 19.8V22.2C9.87188 22.2 12.2 19.8719 12.2 17H9.8ZM7 14.2C8.5464 14.2 9.8 15.4536 9.8 17H12.2C12.2 14.1281 9.87188 11.8 7 11.8V14.2ZM7 11.8C4.12812 11.8 1.8 14.1281 1.8 17H4.2C4.2 15.4536 5.4536 14.2 7 14.2V11.8ZM7 9.8C5.4536 9.8 4.2 8.5464 4.2 7H1.8C1.8 9.87188 4.12812 12.2 7 12.2V9.8ZM9.8 7C9.8 8.5464 8.5464 9.8 7 9.8V12.2C9.87188 12.2 12.2 9.87188 12.2 7H9.8ZM7 4.2C8.5464 4.2 9.8 5.4536 9.8 7H12.2C12.2 4.12812 9.87188 1.8 7 1.8V4.2ZM7 1.8C4.12812 1.8 1.8 4.12812 1.8 7H4.2C4.2 5.4536 5.4536 4.2 7 4.2V1.8Z" fill="#28293D" mask="url(#path-1-inside-1_402_14382)"/>
</svg>
