<svg width="24" height="24" viewBox="0 0 24 24" fill="none" xmlns="http://www.w3.org/2000/svg">
<circle cx="12" cy="12" r="10.4" stroke="#28293D" stroke-width="1.2"/>
<path d="M13 16.5L13 17.1L13 16.5ZM12 11.5L12.6 11.5L12 11.5ZM12.6 8L12.6 6.5L11.4 6.5L11.4 8L12.6 8ZM11 9.9L9.5 9.9L9.5 11.1L11 11.1L11 9.9ZM12.6 15.5L12.6 11.5L11.4 11.5L11.4 15.5L12.6 15.5ZM13 17.1L14.5 17.1L14.5 15.9L13 15.9L13 17.1ZM11.4 15.5C11.4 16.3837 12.1163 17.1 13 17.1L13 15.9C12.7791 15.9 12.6 15.7209 12.6 15.5L11.4 15.5ZM11 11.1C11.2209 11.1 11.4 11.2791 11.4 11.5L12.6 11.5C12.6 10.6163 11.8837 9.9 11 9.9L11 11.1Z" fill="#28293D"/>
</svg>
