<svg width="24" height="24" viewBox="0 0 24 24" fill="none" xmlns="http://www.w3.org/2000/svg">
<mask id="mask0_402_14416" style="mask-type:alpha" maskUnits="userSpaceOnUse" x="0" y="0" width="24" height="24">
<path d="M12 17C14.7614 17 17 14.7614 17 12C17 9.23858 14.7614 7 12 7C11.4774 7 10.9735 7.08018 10.5 7.2289L8 0H24V24H0V0H3L9.81794 7.5C8.14985 8.31036 7 10.0209 7 12C7 14.7614 9.23858 17 12 17Z" fill="white"/>
</mask>
<g mask="url(#mask0_402_14416)">
<path d="M11.4 1V23H12.6V1H11.4ZM19.3539 3.79754L3.79755 19.3539L4.64608 20.2024L20.2024 4.64607L19.3539 3.79754ZM23 11.4L1 11.4L1 12.6L23 12.6V11.4ZM20.2024 19.3539L4.64608 3.79758L3.79756 4.64611L19.3539 20.2025L20.2024 19.3539Z" fill="#28293D"/>
</g>
</svg>
