<svg width="24" height="24" viewBox="0 0 24 24" fill="none" xmlns="http://www.w3.org/2000/svg">
<path d="M9 4L9.18974 3.43079L9 3.36754L8.81026 3.43079L9 4ZM15 21L14.8103 21.5692L15 21.6325L15.1897 21.5692L15 21ZM3.13162 20.9561L3.32136 21.5253L3.13162 20.9561ZM20.8684 4.04387L21.0581 4.61308L20.8684 4.04387ZM20.9316 19.0228L21.1214 19.592L20.9316 19.0228ZM3.06838 5.97721L3.25811 6.54642V6.54642L3.06838 5.97721ZM3.25811 6.54642L9.18974 4.56921L8.81026 3.43079L2.87864 5.408L3.25811 6.54642ZM8.81026 4.56921L14.8103 6.56921L15.1897 5.43079L9.18974 3.43079L8.81026 4.56921ZM15.1897 6.56921L21.0581 4.61308L20.6786 3.47466L14.8103 5.43079L15.1897 6.56921ZM2.4 6.07208V20.8613H3.6V6.07208H2.4ZM21.6 18.9279V4.13874H20.4V18.9279H21.6ZM15.1897 21.5692L21.1214 19.592L20.7419 18.4536L14.8103 20.4308L15.1897 21.5692ZM14.4 6V21H15.6V6H14.4ZM3.32136 21.5253L9.18974 19.5692L8.81026 18.4308L2.94189 20.3869L3.32136 21.5253ZM8.81026 19.5692L14.8103 21.5692L15.1897 20.4308L9.18974 18.4308L8.81026 19.5692ZM8.4 4V19H9.6V4H8.4ZM2.4 20.8613C2.4 21.339 2.86809 21.6764 3.32136 21.5253L2.94189 20.3869C3.26565 20.279 3.6 20.52 3.6 20.8613H2.4ZM21.0581 4.61308C20.7343 4.72101 20.4 4.48002 20.4 4.13874H21.6C21.6 3.66095 21.1319 3.32357 20.6786 3.47466L21.0581 4.61308ZM20.4 18.9279C20.4 18.7127 20.5377 18.5216 20.7419 18.4536L21.1214 19.592C21.4072 19.4967 21.6 19.2292 21.6 18.9279H20.4ZM2.87864 5.408C2.5928 5.50328 2.4 5.77077 2.4 6.07208H3.6C3.6 6.28729 3.46228 6.47836 3.25811 6.54642L2.87864 5.408Z" fill="#28293D"/>
</svg>
