<svg width="24" height="24" viewBox="0 0 24 24" fill="none" xmlns="http://www.w3.org/2000/svg">
<path d="M12.6 23V19.5455H11.4V23H12.6ZM4.4 13C4.4 16.9836 7.84122 20.1455 12 20.1455V18.9455C8.4268 18.9455 5.6 16.2463 5.6 13H4.4ZM18.4 13C18.4 16.2463 15.5732 18.9455 12 18.9455V20.1455C16.1588 20.1455 19.6 16.9836 19.6 13H18.4Z" fill="#28293D"/>
<path d="M15.4 6V12C15.4 13.8778 13.8778 15.4 12 15.4C10.1222 15.4 8.6 13.8778 8.6 12V6C8.6 4.12223 10.1222 2.6 12 2.6C13.8778 2.6 15.4 4.12223 15.4 6Z" stroke="#28293D" stroke-width="1.2"/>
</svg>
