<svg width="24" height="24" viewBox="0 0 24 24" fill="none" xmlns="http://www.w3.org/2000/svg">
<path d="M6.4 12C6.4 13.0493 5.54934 13.9 4.5 13.9C3.45066 13.9 2.6 13.0493 2.6 12C2.6 10.9507 3.45066 10.1 4.5 10.1C5.54934 10.1 6.4 10.9507 6.4 12ZM13.9 12C13.9 13.0493 13.0493 13.9 12 13.9C10.9507 13.9 10.1 13.0493 10.1 12C10.1 10.9507 10.9507 10.1 12 10.1C13.0493 10.1 13.9 10.9507 13.9 12ZM21.4 12C21.4 13.0493 20.5493 13.9 19.5 13.9C18.4507 13.9 17.6 13.0493 17.6 12C17.6 10.9507 18.4507 10.1 19.5 10.1C20.5493 10.1 21.4 10.9507 21.4 12Z" stroke="#28293D" stroke-width="1.2"/>
</svg>
