<svg width="24" height="24" viewBox="0 0 24 24" fill="none" xmlns="http://www.w3.org/2000/svg">
<path d="M6.4 12C6.4 13.3255 5.32548 14.4 4 14.4C2.67452 14.4 1.6 13.3255 1.6 12C1.6 10.6745 2.67452 9.6 4 9.6C5.32548 9.6 6.4 10.6745 6.4 12ZM14.4 12C14.4 13.3255 13.3255 14.4 12 14.4C10.6745 14.4 9.6 13.3255 9.6 12C9.6 10.6745 10.6745 9.6 12 9.6C13.3255 9.6 14.4 10.6745 14.4 12ZM22.4 12C22.4 13.3255 21.3255 14.4 20 14.4C18.6745 14.4 17.6 13.3255 17.6 12C17.6 10.6745 18.6745 9.6 20 9.6C21.3255 9.6 22.4 10.6745 22.4 12Z" stroke="#28293D" stroke-width="1.2"/>
</svg>
