<svg width="24" height="24" viewBox="0 0 24 24" fill="none" xmlns="http://www.w3.org/2000/svg">
<mask id="path-1-inside-1_402_14178" fill="white">
<path d="M3 17.25L16.5429 3.70711C16.9334 3.31658 17.5666 3.31658 17.9571 3.70711L20.2929 6.04289C20.6834 6.43342 20.6834 7.06658 20.2929 7.45711L6.75 21H3V17.25Z"/>
</mask>
<path d="M3 17.25L2.15147 16.4015L1.8 16.7529V17.25H3ZM6.75 21V22.2H7.24706L7.59853 21.8485L6.75 21ZM3 21H1.8V22.2H3V21ZM20.2929 7.45711L21.1414 8.30564L20.2929 7.45711ZM20.2929 6.04289L21.1414 5.19437L20.2929 6.04289ZM15.6944 2.85858L2.15147 16.4015L3.84853 18.0985L17.3914 4.55563L15.6944 2.85858ZM7.59853 21.8485L21.1414 8.30564L19.4444 6.60858L5.90147 20.1515L7.59853 21.8485ZM21.1414 5.19437L18.8056 2.85858L17.1086 4.55564L19.4444 6.89142L21.1414 5.19437ZM6.75 19.8H3V22.2H6.75V19.8ZM4.2 21V17.25H1.8V21H4.2ZM21.1414 8.30564C22.0006 7.44648 22.0006 6.05352 21.1414 5.19437L19.4444 6.89142C19.3663 6.81332 19.3663 6.68668 19.4444 6.60858L21.1414 8.30564ZM17.3914 4.55563C17.3133 4.63374 17.1867 4.63374 17.1086 4.55564L18.8056 2.85858C17.9465 1.99943 16.5535 1.99943 15.6944 2.85858L17.3914 4.55563Z" fill="#28293D" mask="url(#path-1-inside-1_402_14178)"/>
</svg>
