<svg width="24" height="24" viewBox="0 0 24 24" fill="none" xmlns="http://www.w3.org/2000/svg">
<path d="M9 4L9.18974 3.43079L9 3.36754L8.81026 3.43079L9 4ZM9 19L9.18974 19.5692L9.6 19.4325V19H9ZM3.13162 20.9561L3.32136 21.5253L3.13162 20.9561ZM20.8684 4.04387L21.0581 4.61308L20.8684 4.04387ZM3.06838 5.97721L3.25811 6.54642V6.54642L3.06838 5.97721ZM3.25811 6.54642L9.18974 4.56921L8.81026 3.43079L2.87864 5.408L3.25811 6.54642ZM8.81026 4.56921L14.8103 6.56921L15.1897 5.43079L9.18974 3.43079L8.81026 4.56921ZM15.1897 6.56921L21.0581 4.61308L20.6786 3.47466L14.8103 5.43079L15.1897 6.56921ZM2.4 6.07208V20.8613H3.6V6.07208H2.4ZM3.32136 21.5253L9.18974 19.5692L8.81026 18.4308L2.94189 20.3869L3.32136 21.5253ZM8.4 4V19H9.6V4H8.4ZM21.6 11V4.13874H20.4V11H21.6ZM14.4 6V9H15.6V6H14.4ZM2.4 20.8613C2.4 21.339 2.86809 21.6764 3.32136 21.5253L2.94189 20.3869C3.26565 20.279 3.6 20.52 3.6 20.8613H2.4ZM21.0581 4.61308C20.7344 4.72101 20.4 4.48002 20.4 4.13874H21.6C21.6 3.66095 21.1319 3.32357 20.6786 3.47466L21.0581 4.61308ZM2.87864 5.408C2.5928 5.50328 2.4 5.77077 2.4 6.07208H3.6C3.6 6.28729 3.46228 6.47836 3.25811 6.54642L2.87864 5.408Z" fill="#28293D"/>
<path d="M18.4611 19.3096L22.5757 23.4243L23.4243 22.5757L19.3096 18.4611L18.4611 19.3096ZM19.4667 16.0333C19.4667 17.9295 17.9295 19.4667 16.0333 19.4667V20.6667C18.5923 20.6667 20.6667 18.5923 20.6667 16.0333H19.4667ZM16.0333 19.4667C14.1372 19.4667 12.6 17.9295 12.6 16.0333H11.4C11.4 18.5923 13.4744 20.6667 16.0333 20.6667V19.4667ZM12.6 16.0333C12.6 14.1372 14.1372 12.6 16.0333 12.6V11.4C13.4744 11.4 11.4 13.4744 11.4 16.0333H12.6ZM16.0333 12.6C17.9295 12.6 19.4667 14.1372 19.4667 16.0333H20.6667C20.6667 13.4744 18.5923 11.4 16.0333 11.4V12.6Z" fill="#28293D"/>
</svg>
