<svg width="24" height="24" viewBox="0 0 24 24" fill="none" xmlns="http://www.w3.org/2000/svg">
<mask id="mask0_402_14049" style="mask-type:alpha" maskUnits="userSpaceOnUse" x="3" y="3" width="18" height="18">
<path d="M7 17V7H17V17H7Z" fill="white"/>
<path d="M5 5V3H3V5H5Z" fill="white"/>
<path d="M9 5V3H7V5H9Z" fill="white"/>
<path d="M13 5V3H11V5H13Z" fill="white"/>
<path d="M17 5V3H15V5H17Z" fill="white"/>
<path d="M21 5V3H19V5H21Z" fill="white"/>
<path d="M5 21V19H3V21H5Z" fill="white"/>
<path d="M9 21V19H7V21H9Z" fill="white"/>
<path d="M13 21V19H11V21H13Z" fill="white"/>
<path d="M17 21V19H15V21H17Z" fill="white"/>
<path d="M21 21V19H19V21H21Z" fill="white"/>
<path d="M5 9V7H3V9H5Z" fill="white"/>
<path d="M5 13V11H3V13H5Z" fill="white"/>
<path d="M5 17V15H3V17H5Z" fill="white"/>
<path d="M21 9V7H19V9H21Z" fill="white"/>
<path d="M21 13V11H19V13H21Z" fill="white"/>
<path d="M21 17V15H19V17H21Z" fill="white"/>
</mask>
<g mask="url(#mask0_402_14049)">
<path d="M8 8V7.4H7.4V8H8ZM8 16H7.4V16.6H8V16ZM16 16V16.6H16.6V16H16ZM16 8H16.6V7.4H16V8ZM3.4 5V19H4.6V5H3.4ZM5 20.6H19V19.4H5V20.6ZM20.6 19V5H19.4V19H20.6ZM19 3.4H5V4.6H19V3.4ZM7.4 8V16H8.6V8H7.4ZM8 16.6H16V15.4H8V16.6ZM16.6 16V8H15.4V16H16.6ZM16 7.4H8V8.6H16V7.4ZM20.6 5C20.6 4.11634 19.8837 3.4 19 3.4V4.6C19.2209 4.6 19.4 4.77909 19.4 5H20.6ZM19 20.6C19.8837 20.6 20.6 19.8837 20.6 19H19.4C19.4 19.2209 19.2209 19.4 19 19.4V20.6ZM3.4 19C3.4 19.8837 4.11634 20.6 5 20.6V19.4C4.77909 19.4 4.6 19.2209 4.6 19H3.4ZM4.6 5C4.6 4.77909 4.77909 4.6 5 4.6V3.4C4.11634 3.4 3.4 4.11634 3.4 5H4.6Z" fill="#28293D"/>
</g>
</svg>
