<svg width="24" height="24" viewBox="0 0 24 24" fill="none" xmlns="http://www.w3.org/2000/svg">
<path d="M9.97844 5.84894L10.1641 6.41949C10.3776 6.35002 10.5344 6.16717 10.5706 5.9456L9.97844 5.84894ZM10.4435 3V2.4C10.1494 2.4 9.89868 2.61312 9.8513 2.90334L10.4435 3ZM9.97844 18.1511L10.5706 18.0544C10.5344 17.8328 10.3776 17.65 10.1641 17.5805L9.97844 18.1511ZM10.4435 21L9.8513 21.0967C9.89868 21.3869 10.1494 21.6 10.4435 21.6V21ZM3.42749 15.152L3.0477 14.6875C2.82005 14.8736 2.76084 15.1973 2.90787 15.452L3.42749 15.152ZM4.98401 17.848L4.4644 18.148C4.61143 18.4026 4.92136 18.5132 5.19638 18.4091L4.98401 17.848ZM4.98401 6.15199L5.19728 5.59117C4.92208 5.48652 4.61161 5.59701 4.4644 5.85199L4.98401 6.15199ZM3.42749 8.84796L2.90788 8.54796C2.76084 8.80263 2.82005 9.12633 3.0477 9.31246L3.42749 8.84796ZM7.67077 7.17374L7.45749 7.73455C7.66652 7.81404 7.90241 7.77069 8.06951 7.62207L7.67077 7.17374ZM5.64017 10.6571L6.22712 10.7816C6.27369 10.562 6.19376 10.3347 6.01996 10.1926L5.64017 10.6571ZM5.64017 13.3428L6.01996 13.8073C6.19376 13.6652 6.27369 13.438 6.22712 13.2184L5.64017 13.3428ZM7.67462 16.8297L8.07301 16.381C7.90618 16.2329 7.67092 16.1896 7.46225 16.2685L7.67462 16.8297ZM14.0216 18.1511L13.8359 17.5805C13.6224 17.65 13.4656 17.8328 13.4294 18.0544L14.0216 18.1511ZM13.5565 21V21.6C13.8506 21.6 14.1013 21.3869 14.1487 21.0967L13.5565 21ZM14.0216 5.84894L13.4294 5.9456C13.4656 6.16717 13.6224 6.35002 13.8359 6.41949L14.0216 5.84894ZM13.5565 3L14.1487 2.90334C14.1013 2.61312 13.8506 2.4 13.5565 2.4V3ZM20.5725 8.84801L20.9523 9.31251C21.18 9.12637 21.2392 8.80268 21.0921 8.54801L20.5725 8.84801ZM19.016 6.15204L19.5356 5.85204C19.3886 5.59737 19.0786 5.48679 18.8036 5.59088L19.016 6.15204ZM19.016 17.848L18.8027 18.4088C19.0779 18.5135 19.3884 18.403 19.5356 18.148L19.016 17.848ZM20.5725 15.152L21.0921 15.452C21.2392 15.1974 21.18 14.8737 20.9523 14.6875L20.5725 15.152ZM16.3292 16.8263L16.5425 16.2654C16.3335 16.186 16.0976 16.2293 15.9305 16.3779L16.3292 16.8263ZM18.3598 13.3429L17.7729 13.2184C17.7263 13.438 17.8062 13.6653 17.98 13.8074L18.3598 13.3429ZM18.3598 10.6572L17.98 10.1927C17.8062 10.3348 17.7263 10.562 17.7729 10.7816L18.3598 10.6572ZM16.3254 7.17031L15.927 7.61896C16.0938 7.76711 16.3291 7.81045 16.5378 7.73147L16.3254 7.17031ZM14.4 12C14.4 13.3255 13.3255 14.4 12 14.4V15.6C13.9882 15.6 15.6 13.9882 15.6 12H14.4ZM12 14.4C10.6745 14.4 9.6 13.3255 9.6 12H8.4C8.4 13.9882 10.0118 15.6 12 15.6V14.4ZM9.6 12C9.6 10.6745 10.6745 9.6 12 9.6V8.4C10.0118 8.4 8.4 10.0118 8.4 12H9.6ZM12 9.6C13.3255 9.6 14.4 10.6745 14.4 12H15.6C15.6 10.0118 13.9882 8.4 12 8.4V9.6ZM10.5706 5.9456L11.0356 3.09666L9.8513 2.90334L9.38628 5.75228L10.5706 5.9456ZM9.38628 18.2477L9.8513 21.0967L11.0356 20.9033L10.5706 18.0544L9.38628 18.2477ZM2.90787 15.452L4.4644 18.148L5.50363 17.548L3.94711 14.852L2.90787 15.452ZM4.4644 5.85199L2.90788 8.54796L3.94711 9.14796L5.50363 6.45199L4.4644 5.85199ZM8.06951 7.62207C8.67037 7.08767 9.38143 6.67419 10.1641 6.41949L9.79277 5.27839C8.84989 5.58523 7.99433 6.08299 7.27202 6.7254L8.06951 7.62207ZM4.77074 6.71281L7.45749 7.73455L7.88404 6.61292L5.19728 5.59117L4.77074 6.71281ZM6.09999 12C6.09999 11.5816 6.14388 11.1741 6.22712 10.7816L5.05322 10.5327C4.95274 11.0065 4.89999 11.4975 4.89999 12H6.09999ZM6.01996 10.1926L3.80728 8.38346L3.0477 9.31246L5.26038 11.1216L6.01996 10.1926ZM5.26038 12.8783L3.0477 14.6875L3.80728 15.6165L6.01996 13.8073L5.26038 12.8783ZM4.89999 12C4.89999 12.5025 4.95273 12.9934 5.05322 13.4673L6.22712 13.2184C6.14388 12.8258 6.09999 12.4183 6.09999 12H4.89999ZM7.27623 17.2783C7.99765 17.9189 8.85172 18.4154 9.79277 18.7216L10.1641 17.5805C9.38295 17.3263 8.67314 16.9139 8.07301 16.381L7.27623 17.2783ZM7.46225 16.2685L4.77164 17.2868L5.19638 18.4091L7.887 17.3908L7.46225 16.2685ZM13.4294 18.0544L12.9644 20.9033L14.1487 21.0967L14.6137 18.2477L13.4294 18.0544ZM14.6137 5.75228L14.1487 2.90334L12.9644 3.09666L13.4294 5.9456L14.6137 5.75228ZM21.0921 8.54801L19.5356 5.85204L18.4964 6.45204L20.0529 9.14801L21.0921 8.54801ZM19.5356 18.148L21.0921 15.452L20.0529 14.852L18.4964 17.548L19.5356 18.148ZM15.9305 16.3779C15.3296 16.9123 14.6186 17.3258 13.8359 17.5805L14.2072 18.7216C15.1501 18.4148 16.0057 17.917 16.728 17.2746L15.9305 16.3779ZM19.2293 17.2872L16.5425 16.2654L16.116 17.3871L18.8027 18.4088L19.2293 17.2872ZM17.9 12C17.9 12.4184 17.8561 12.8259 17.7729 13.2184L18.9468 13.4673C19.0473 12.9935 19.1 12.5025 19.1 12H17.9ZM17.98 13.8074L20.1927 15.6165L20.9523 14.6875L18.7396 12.8784L17.98 13.8074ZM18.7396 11.1217L20.9523 9.31251L20.1927 8.38351L17.98 10.1927L18.7396 11.1217ZM19.1 12C19.1 11.4975 19.0473 11.0066 18.9468 10.5327L17.7729 10.7816C17.8561 11.1742 17.9 11.5817 17.9 12H19.1ZM16.7238 6.72167C16.0024 6.08106 15.1483 5.58463 14.2072 5.27839L13.8359 6.41949C14.617 6.6737 15.3269 7.08606 15.927 7.61896L16.7238 6.72167ZM16.5378 7.73147L19.2284 6.71319L18.8036 5.59088L16.113 6.60916L16.5378 7.73147ZM10.4435 3.6H13.5565V2.4H10.4435V3.6ZM10.4435 21.6H13.5565V20.4H10.4435V21.6Z" fill="#28293D"/>
</svg>
