<svg width="24" height="24" viewBox="0 0 24 24" fill="none" xmlns="http://www.w3.org/2000/svg">
<mask id="path-1-inside-1_402_14234" fill="white">
<path d="M4 3C4 2.44772 4.44772 2 5 2H19C19.5523 2 20 2.44772 20 3V15.524C20 15.8252 19.8643 16.1103 19.6306 16.3001L12.6306 21.9876C12.2632 22.2862 11.7368 22.2862 11.3694 21.9876L4.36941 16.3001C4.1357 16.1103 4 15.8252 4 15.524V3Z"/>
</mask>
<path d="M12.6306 21.9876L11.8739 21.0563L12.6306 21.9876ZM11.3694 21.9876L10.6127 22.919L11.3694 21.9876ZM4.36941 16.3001L3.6127 17.2315L4.36941 16.3001ZM19.6306 16.3001L20.3873 17.2315L19.6306 16.3001ZM5 3.2H19V0.8H5V3.2ZM18.8 3V15.524H21.2V3H18.8ZM5.2 15.524V3H2.8V15.524H5.2ZM18.8739 15.3688L11.8739 21.0563L13.3873 22.919L20.3873 17.2315L18.8739 15.3688ZM12.1261 21.0563L5.12612 15.3688L3.6127 17.2315L10.6127 22.919L12.1261 21.0563ZM11.8739 21.0563C11.9474 20.9966 12.0526 20.9966 12.1261 21.0563L10.6127 22.919C11.421 23.5757 12.579 23.5757 13.3873 22.919L11.8739 21.0563ZM2.8 15.524C2.8 16.1865 3.09853 16.8137 3.6127 17.2315L5.12612 15.3688C5.17286 15.4068 5.2 15.4638 5.2 15.524H2.8ZM18.8 15.524C18.8 15.4638 18.8271 15.4068 18.8739 15.3688L20.3873 17.2315C20.9015 16.8137 21.2 16.1865 21.2 15.524H18.8ZM19 3.2C18.8895 3.2 18.8 3.11046 18.8 3H21.2C21.2 1.78497 20.215 0.8 19 0.8V3.2ZM5 0.8C3.78497 0.8 2.8 1.78497 2.8 3H5.2C5.2 3.11046 5.11046 3.2 5 3.2V0.8Z" fill="#28293D" mask="url(#path-1-inside-1_402_14234)"/>
<path d="M8 10L11 13L16.5 8" stroke="#28293D" stroke-width="1.2"/>
</svg>
