<svg width="24" height="24" viewBox="0 0 24 24" fill="none" xmlns="http://www.w3.org/2000/svg">
<mask id="path-1-inside-1_402_14248" fill="white">
<path d="M4 6.8198C4 6.34312 4.33646 5.93271 4.80388 5.83922L4.83975 5.83205C7.22477 5.35505 9.43873 4.26673 11.2683 2.68131C11.6856 2.31962 12.3144 2.31962 12.7317 2.68131C14.5613 4.26673 16.7752 5.35505 19.1602 5.83205L19.1961 5.83922C19.6635 5.93271 20 6.34312 20 6.8198V10.7679C20 16.0724 16.8598 20.8738 12 23C7.1402 20.8738 4 16.0724 4 10.7679V6.8198Z"/>
</mask>
<path d="M12 23L11.519 24.0994L12 24.3098L12.481 24.0994L12 23ZM19.1602 5.83205L19.3956 4.65535L19.1602 5.83205ZM4.83975 5.83205L4.60441 4.65535H4.60441L4.83975 5.83205ZM12.7317 2.68131L11.9459 3.58818L12.7317 2.68131ZM4.80388 5.83922L4.56854 4.66253L4.80388 5.83922ZM18.8 6.8198V10.7679H21.2V6.8198H18.8ZM5.2 10.7679V6.8198H2.8V10.7679H5.2ZM2.8 10.7679C2.8 16.5492 6.22243 21.7821 11.519 24.0994L12.481 21.9006C8.05797 19.9655 5.2 15.5957 5.2 10.7679H2.8ZM18.8 10.7679C18.8 15.5957 15.942 19.9655 11.519 21.9006L12.481 24.0994C17.7776 21.7821 21.2 16.5492 21.2 10.7679H18.8ZM5.03922 7.01592L5.07509 7.00875L4.60441 4.65535L4.56854 4.66253L5.03922 7.01592ZM18.9249 7.00875L18.9608 7.01592L19.4315 4.66253L19.3956 4.65535L18.9249 7.00875ZM11.9459 3.58818C13.9321 5.30938 16.3356 6.49089 18.9249 7.00875L19.3956 4.65535C17.2148 4.2192 15.1905 3.22409 13.5176 1.77444L11.9459 3.58818ZM5.07509 7.00875C7.66436 6.49089 10.0679 5.30938 12.0541 3.58818L10.4824 1.77444C8.80954 3.22409 6.78517 4.2192 4.60441 4.65535L5.07509 7.00875ZM21.2 6.8198C21.2 5.77111 20.4598 4.86819 19.4315 4.66253L18.9608 7.01592C18.8673 6.99722 18.8 6.91514 18.8 6.8198H21.2ZM13.5176 1.77444C12.6492 1.02191 11.3508 1.02191 10.4824 1.77444L12.0541 3.58818C12.0347 3.60503 12.0137 3.61005 12 3.61005C11.9863 3.61005 11.9653 3.60503 11.9459 3.58818L13.5176 1.77444ZM5.2 6.8198C5.2 6.91514 5.13271 6.99722 5.03922 7.01592L4.56854 4.66253C3.54021 4.86819 2.8 5.77111 2.8 6.8198H5.2Z" fill="#28293D" mask="url(#path-1-inside-1_402_14248)"/>
<path d="M12.8104 13.403L12.3655 13.0005L12.8104 13.403ZM9.84115 10.7506C9.84115 9.51534 10.864 8.6 12.0299 8.6V7.4C10.2593 7.4 8.64115 8.79604 8.64115 10.7506H9.84115ZM12.0299 8.6C13.1787 8.6 14.1588 9.49894 14.1588 10.7506H15.3588C15.3588 8.81244 13.8175 7.4 12.0299 7.4V8.6ZM14.1588 10.7506C14.1588 11.1553 14.0096 11.4186 13.7046 11.732C13.5391 11.9021 13.3484 12.0658 13.1102 12.2774C12.8801 12.4818 12.6216 12.7174 12.3655 13.0005L13.2554 13.8055C13.4659 13.5728 13.6843 13.3725 13.907 13.1747C14.1216 12.9841 14.3597 12.7795 14.5646 12.5689C15.0005 12.1209 15.3588 11.5738 15.3588 10.7506H14.1588ZM12.3655 13.0005C12.0319 13.3692 11.8027 13.8214 11.657 14.2227C11.5134 14.6179 11.4299 15.0218 11.4299 15.3186H12.6299C12.6299 15.2061 12.671 14.9459 12.7848 14.6324C12.8965 14.3251 13.0576 14.0242 13.2554 13.8055L12.3655 13.0005ZM11.4299 16.335V18.0017H12.6299V16.335H11.4299Z" fill="#28293D"/>
</svg>
