<svg width="24" height="24" viewBox="0 0 24 24" fill="none" xmlns="http://www.w3.org/2000/svg">
<path d="M19.54 10.5851L20 9.51696L20.46 10.5851C20.5903 10.8877 20.8755 11.0949 21.2035 11.1253L22.3615 11.2327L21.4878 12.0003C21.2403 12.2177 21.1314 12.5529 21.2038 12.8743L21.4595 14.0088L20.4595 13.415C20.1763 13.2469 19.8237 13.2469 19.5405 13.415L18.5405 14.0088L18.7962 12.8743C18.8686 12.5529 18.7597 12.2177 18.5122 12.0003L17.6385 11.2327L18.7965 11.1253C19.1245 11.0949 19.4097 10.8877 19.54 10.5851Z" stroke="#28293D" stroke-width="1.2" stroke-linecap="round" stroke-linejoin="round"/>
<path d="M11.54 10.5851L12 9.51696L12.46 10.5851C12.5903 10.8877 12.8755 11.0949 13.2035 11.1253L14.3615 11.2327L13.4878 12.0003C13.2403 12.2177 13.1314 12.5529 13.2038 12.8743L13.4595 14.0088L12.4595 13.415C12.1763 13.2469 11.8237 13.2469 11.5405 13.415L10.5405 14.0088L10.7962 12.8743C10.8686 12.5529 10.7597 12.2177 10.5122 12.0003L9.63849 11.2327L10.7965 11.1253C11.1245 11.0949 11.4097 10.8877 11.54 10.5851Z" stroke="#28293D" stroke-width="1.2" stroke-linecap="round" stroke-linejoin="round"/>
<path d="M3.54 10.5851L4 9.51696L4.46 10.5851C4.59029 10.8877 4.87547 11.0949 5.20349 11.1253L6.36151 11.2327L5.48778 12.0003C5.24029 12.2177 5.13136 12.5529 5.20379 12.8743L5.45949 14.0088L4.4595 13.415C4.17625 13.2469 3.82375 13.2469 3.5405 13.415L2.54051 14.0088L2.79621 12.8743C2.86864 12.5529 2.75971 12.2177 2.51222 12.0003L1.63849 11.2327L2.79651 11.1253C3.12453 11.0949 3.40971 10.8877 3.54 10.5851Z" stroke="#28293D" stroke-width="1.2" stroke-linecap="round" stroke-linejoin="round"/>
</svg>
