<svg width="24" height="24" viewBox="0 0 24 24" fill="none" xmlns="http://www.w3.org/2000/svg">
<path d="M20.5239 11.4766L21.0966 11.2976L21.0966 11.2976L20.5239 11.4766ZM19.1481 7.07391L18.5754 7.25287V7.25287L19.1481 7.07391ZM8.5 15.3438L8.93144 14.9268L8.76971 14.7594L8.53743 14.7449L8.5 15.3438ZM12.4104 19.3899L11.9789 19.8068L12.4104 19.3899ZM14 15.5L14.0597 14.903C13.847 14.8817 13.6391 14.9752 13.5138 15.1484C13.3886 15.3216 13.3649 15.5484 13.4517 15.7437L14 15.5ZM17.0005 15.8001L16.9408 16.3971L17.0005 15.8001ZM15.375 18.5939L15.9233 18.3502L15.375 18.5939ZM3.93762 15.0586L3.90019 15.6574H3.90019L3.93762 15.0586ZM20.1147 14.328L20.6139 14.6608L20.1147 14.328ZM2.4 6V14.0605H3.6V6H2.4ZM21.0966 11.2976L19.7208 6.89494L18.5754 7.25287L19.9512 11.6555L21.0966 11.2976ZM8.06856 15.7607L11.9789 19.8068L12.8418 18.9729L8.93144 14.9268L8.06856 15.7607ZM13.8485 20.6H14.4612V19.4H13.8485V20.6ZM13.9403 16.097L16.9408 16.3971L17.0602 15.203L14.0597 14.903L13.9403 16.097ZM15.9233 18.3502L14.5483 15.2563L13.4517 15.7437L14.8268 18.8375L15.9233 18.3502ZM3.90019 15.6574L7.96257 15.9113L8.03743 14.7137L3.97505 14.4598L3.90019 15.6574ZM7.96257 15.9113L8.46257 15.9426L8.53743 14.7449L8.03743 14.7137L7.96257 15.9113ZM16.3272 4.4H8V5.6H16.3272V4.4ZM8 4.4H4V5.6H8V4.4ZM8.6 15.3125V5H7.4V15.3125H8.6ZM14.4612 20.6C15.6191 20.6 16.3936 19.4082 15.9233 18.3502L14.8268 18.8375C14.9443 19.1021 14.7507 19.4 14.4612 19.4V20.6ZM11.9789 19.8068C12.4688 20.3137 13.1435 20.6 13.8485 20.6V19.4C13.4689 19.4 13.1056 19.2459 12.8418 18.9729L11.9789 19.8068ZM19.7208 6.89494C19.2569 5.41063 17.8823 4.4 16.3272 4.4V5.6C17.3574 5.6 18.2681 6.26953 18.5754 7.25287L19.7208 6.89494ZM20.6139 14.6608C21.2743 13.6702 21.4518 12.4341 21.0966 11.2976L19.9512 11.6555C20.1983 12.4461 20.0749 13.306 19.6154 13.9952L20.6139 14.6608ZM19.6154 13.9952C19.0526 14.8394 18.0698 15.304 17.0602 15.203L16.9408 16.3971C18.392 16.5422 19.8049 15.8744 20.6139 14.6608L19.6154 13.9952ZM2.4 14.0605C2.4 14.9054 3.05694 15.6047 3.90019 15.6574L3.97505 14.4598C3.76423 14.4466 3.6 14.2718 3.6 14.0605H2.4ZM3.6 6C3.6 5.77909 3.77909 5.6 4 5.6V4.4C3.11634 4.4 2.4 5.11634 2.4 6H3.6Z" fill="#28293D"/>
</svg>
