<svg width="24" height="24" viewBox="0 0 24 24" fill="none" xmlns="http://www.w3.org/2000/svg">
<path d="M16 11.4H8V12.6H16V11.4ZM8.6 12V9H7.4V12H8.6ZM8 11.4H7.1V12.6H8V11.4ZM6.4 12.1V18H7.6V12.1H6.4ZM8 19.6H16V18.4H8V19.6ZM17.6 18V12.1H16.4V18H17.6ZM16.9 11.4H16V12.6H16.9V11.4ZM17.6 12.1C17.6 11.7134 17.2866 11.4 16.9 11.4V12.6C16.6239 12.6 16.4 12.3761 16.4 12.1H17.6ZM7.1 11.4C6.7134 11.4 6.4 11.7134 6.4 12.1H7.6C7.6 12.3761 7.37614 12.6 7.1 12.6V11.4ZM16 19.6C16.8837 19.6 17.6 18.8837 17.6 18H16.4C16.4 18.2209 16.2209 18.4 16 18.4V19.6ZM12 5.6C13.8778 5.6 15.4 7.12223 15.4 9H16.6C16.6 6.45949 14.5405 4.4 12 4.4V5.6ZM6.4 18C6.4 18.8837 7.11634 19.6 8 19.6V18.4C7.77909 18.4 7.6 18.2209 7.6 18H6.4ZM12 4.4C9.45949 4.4 7.4 6.45949 7.4 9H8.6C8.6 7.12223 10.1222 5.6 12 5.6V4.4Z" fill="#28293D"/>
</svg>
