<svg width="24" height="24" viewBox="0 0 24 24" fill="none" xmlns="http://www.w3.org/2000/svg">
<path d="M12.6967 20.2612L13.1381 20.6676L13.1381 20.6676L12.6967 20.2612ZM11.3033 20.2612L10.8619 20.6676L10.8619 20.6676L11.3033 20.2612ZM18.4 10C18.4 10.6474 18.1595 11.4626 17.7216 12.3889C17.2886 13.305 16.687 14.2797 16.0207 15.2321C14.6884 17.1364 13.133 18.9014 12.2553 19.8548L13.1381 20.6676C14.0309 19.6978 15.6272 17.8878 17.0039 15.92C17.6921 14.9363 18.3343 13.9008 18.8065 12.9017C19.2739 11.9129 19.6 10.908 19.6 10H18.4ZM11.7447 19.8548C10.867 18.9014 9.31162 17.1364 7.97933 15.2321C7.31302 14.2797 6.71137 13.305 6.27837 12.3889C5.84053 11.4626 5.6 10.6474 5.6 10H4.4C4.4 10.908 4.72607 11.9129 5.19346 12.9017C5.66568 13.9008 6.30788 14.9363 6.99608 15.92C8.37281 17.8878 9.96907 19.6978 10.8619 20.6676L11.7447 19.8548ZM5.6 10C5.6 6.46538 8.46538 3.6 12 3.6V2.4C7.80264 2.4 4.4 5.80264 4.4 10H5.6ZM12 3.6C15.5346 3.6 18.4 6.46538 18.4 10H19.6C19.6 5.80264 16.1974 2.4 12 2.4V3.6ZM12.2553 19.8548C12.1139 20.0084 11.8861 20.0084 11.7447 19.8548L10.8619 20.6676C11.4787 21.3375 12.5213 21.3375 13.1381 20.6676L12.2553 19.8548Z" fill="#555770"/>
<path d="M12 6V14M16 10H8" stroke="#555770" stroke-width="1.2"/>
</svg>
