<svg width="24" height="24" viewBox="0 0 24 24" fill="none" xmlns="http://www.w3.org/2000/svg">
<mask id="path-1-inside-1_402_14422" fill="white">
<path d="M3.327 11.4102L17.6241 5.05596C18.4609 4.68405 19.316 5.53911 18.944 6.37591L12.5898 20.673C12.3966 21.1075 11.7631 21.0525 11.6478 20.5912L10 14L3.4088 12.3522C2.94746 12.2369 2.89245 11.6034 3.327 11.4102Z"/>
</mask>
<path d="M17.6241 5.05596L17.1367 3.95939L17.1367 3.95939L17.6241 5.05596ZM3.327 11.4102L2.83963 10.3136L2.83963 10.3136L3.327 11.4102ZM3.4088 12.3522L3.69984 11.188L3.69984 11.188L3.4088 12.3522ZM10 14L11.1642 13.709L10.9895 13.0105L10.291 12.8358L10 14ZM11.6478 20.5912L12.812 20.3002L12.812 20.3002L11.6478 20.5912ZM12.5898 20.673L13.6864 21.1604L13.6864 21.1604L12.5898 20.673ZM18.944 6.37591L20.0406 6.86328L20.0406 6.86328L18.944 6.37591ZM17.1367 3.95939L2.83963 10.3136L3.81437 12.5068L18.1115 6.15253L17.1367 3.95939ZM3.11776 13.5164L9.70896 15.1642L10.291 12.8358L3.69984 11.188L3.11776 13.5164ZM8.83583 14.291L10.4836 20.8822L12.812 20.3002L11.1642 13.709L8.83583 14.291ZM13.6864 21.1604L20.0406 6.86328L17.8475 5.88855L11.4932 20.1856L13.6864 21.1604ZM10.4836 20.8822C10.8758 22.4508 13.0297 22.6378 13.6864 21.1604L11.4932 20.1856C11.7636 19.5773 12.6505 19.6543 12.812 20.3002L10.4836 20.8822ZM2.83963 10.3136C1.36218 10.9703 1.5492 13.1242 3.11776 13.5164L3.69984 11.188C4.34573 11.3495 4.42272 12.2364 3.81437 12.5068L2.83963 10.3136ZM18.1115 6.15253C18.0868 6.16348 18.0388 6.17262 17.9855 6.16125C17.9394 6.15143 17.9083 6.13064 17.8888 6.11119C17.8694 6.09175 17.8486 6.06062 17.8387 6.01454C17.8274 5.9612 17.8365 5.91318 17.8475 5.88855L20.0406 6.86328C20.8588 5.02232 18.9777 3.14117 17.1367 3.95939L18.1115 6.15253Z" fill="#555770" mask="url(#path-1-inside-1_402_14422)"/>
</svg>
