<svg width="24" height="24" viewBox="0 0 24 24" fill="none" xmlns="http://www.w3.org/2000/svg">
<path d="M2 3C2 2.44772 2.44772 2 3 2H21C21.5523 2 22 2.44772 22 3V21C22 21.5523 21.5523 22 21 22H3C2.44772 22 2 21.5523 2 21V3Z" stroke="#555770" stroke-width="1.2"/>
<mask id="path-2-inside-1_402_14197" fill="white">
<path d="M5.00002 6C5.00002 5.44772 5.44773 5 6.00002 5L14 5C14.5523 5 15 5.44772 15 6V16.1071C15 16.9107 14.1002 17.3861 13.4364 16.9332L10 14.5885L6.56361 16.9332C5.89982 17.3861 5 16.9107 5 16.1071L5.00002 6Z"/>
</mask>
<path d="M10 14.5885L10.6763 13.5973L10 13.1358L9.32368 13.5973L10 14.5885ZM6.56361 16.9332L7.23993 17.9244L7.23993 17.9244L6.56361 16.9332ZM6.00002 6.2L14 6.2L14 3.8L6.00002 3.8L6.00002 6.2ZM13.8 6V16.1071H16.2V6H13.8ZM6.2 16.1071L6.20002 6L3.80002 6L3.8 16.1071L6.2 16.1071ZM14.1127 15.9419L10.6763 13.5973L9.32368 15.5798L12.7601 17.9244L14.1127 15.9419ZM9.32368 13.5973L5.88728 15.9419L7.23993 17.9244L10.6763 15.5798L9.32368 13.5973ZM6.00002 3.8C4.78499 3.8 3.80002 4.78497 3.80002 6L6.20002 6C6.20002 6.11046 6.11048 6.2 6.00002 6.2L6.00002 3.8ZM14 6.2C13.8895 6.2 13.8 6.11046 13.8 6H16.2C16.2 4.78497 15.215 3.8 14 3.8L14 6.2ZM13.8 16.1071C13.8 15.9464 13.98 15.8513 14.1127 15.9419L12.7601 17.9244C14.2204 18.9208 16.2 17.875 16.2 16.1071H13.8ZM3.8 16.1071C3.8 17.875 5.77961 18.9208 7.23993 17.9244L5.88728 15.9419C6.02004 15.8513 6.2 15.9464 6.2 16.1071L3.8 16.1071Z" fill="#555770" mask="url(#path-2-inside-1_402_14197)"/>
</svg>
