<svg width="24" height="24" viewBox="0 0 24 24" fill="none" xmlns="http://www.w3.org/2000/svg">
<mask id="path-1-inside-1_402_14200" fill="white">
<path d="M5.00003 4C5.00003 3.44772 5.44774 3 6.00003 3L18 3C18.5523 3 19 3.44772 19 4V20.06C19 20.8727 18.0819 21.346 17.4199 20.8745L12 17.014L6.58016 20.8745C5.91816 21.346 5 20.8727 5 20.06L5.00003 4Z"/>
</mask>
<path d="M12 17.014L12.6962 16.0366L12 15.5407L11.3038 16.0366L12 17.014ZM6.00003 3L6.00003 1.8L6.00003 3ZM18 3L18 4.2L18 3ZM17.4199 20.8745L16.7237 21.8519L17.4199 20.8745ZM6.58016 20.8745L5.88397 19.8971L5.88397 19.8971L6.58016 20.8745ZM6.00003 4.2L18 4.2L18 1.8L6.00003 1.8L6.00003 4.2ZM17.8 4V20.06H20.2V4H17.8ZM6.2 20.06L6.20003 4L3.80003 4L3.8 20.06L6.2 20.06ZM18.116 19.8971L12.6962 16.0366L11.3038 17.9914L16.7237 21.8519L18.116 19.8971ZM11.3038 16.0366L5.88397 19.8971L7.27635 21.8519L12.6962 17.9914L11.3038 16.0366ZM6.00003 1.8C4.785 1.8 3.80003 2.78497 3.80003 4L6.20003 4C6.20003 4.11046 6.11048 4.2 6.00003 4.2L6.00003 1.8ZM18 4.2C17.8896 4.2 17.8 4.11046 17.8 4H20.2C20.2 2.78498 19.215 1.8 18 1.8L18 4.2ZM17.8 20.06C17.8 19.8974 17.9836 19.8028 18.116 19.8971L16.7237 21.8519C18.1801 22.8893 20.2 21.8481 20.2 20.06H17.8ZM3.8 20.06C3.8 21.8481 5.81994 22.8893 7.27635 21.8519L5.88397 19.8971C6.01637 19.8028 6.2 19.8974 6.2 20.06L3.8 20.06Z" fill="#555770" mask="url(#path-1-inside-1_402_14200)"/>
</svg>
