<svg width="24" height="24" viewBox="0 0 24 24" fill="none" xmlns="http://www.w3.org/2000/svg">
<path d="M8.87627 3.87627L9.18908 4.38827L9.18908 4.38827L8.87627 3.87627ZM15.1237 3.87627L14.8109 4.38827L14.8109 4.38827L15.1237 3.87627ZM12 22.4C9.01766 22.4 6.6 19.9823 6.6 17H5.4C5.4 20.6451 8.35492 23.6 12 23.6V22.4ZM17.4 17C17.4 19.9823 14.9823 22.4 12 22.4V23.6C15.6451 23.6 18.6 20.6451 18.6 17H17.4ZM18 13.6H22V12.4H18V13.6ZM17.4 9V13H18.6V9H17.4ZM17.4 13V17H18.6V13H17.4ZM2 13.6H6V12.4H2V13.6ZM6.6 17V13H5.4V17H6.6ZM6.6 13V9H5.4V13H6.6ZM18 17.6H22V16.4H18V17.6ZM6 16.4H2V17.6H6V16.4ZM6 8.4H2V9.6H6V8.4ZM18 9.6H22V8.4H18V9.6ZM5.57574 1.42426L8.452 4.30053L9.30053 3.452L6.42426 0.575736L5.57574 1.42426ZM12 2.4C10.7422 2.4 9.56486 2.75244 8.56345 3.36426L9.18908 4.38827C10.0075 3.88826 10.9692 3.6 12 3.6V2.4ZM8.56345 3.36426C6.66757 4.52258 5.4 6.61299 5.4 9H6.6C6.6 7.04825 7.63506 5.33772 9.18908 4.38827L8.56345 3.36426ZM15.548 4.30053L18.4243 1.42426L17.5757 0.575736L14.6995 3.452L15.548 4.30053ZM12 3.6C13.0308 3.6 13.9925 3.88826 14.8109 4.38827L15.4365 3.36426C14.4351 2.75244 13.2578 2.4 12 2.4V3.6ZM14.8109 4.38827C16.3649 5.33772 17.4 7.04825 17.4 9H18.6C18.6 6.61299 17.3324 4.52258 15.4365 3.36426L14.8109 4.38827Z" fill="#555770"/>
</svg>
