<svg width="24" height="24" viewBox="0 0 24 24" fill="none" xmlns="http://www.w3.org/2000/svg">
<path d="M16 2.4C15.6686 2.4 15.4 2.66863 15.4 3C15.4 3.33137 15.6686 3.6 16 3.6V2.4ZM8 3.6C8.33137 3.6 8.6 3.33137 8.6 3C8.6 2.66863 8.33137 2.4 8 2.4V3.6ZM20.4 8C20.4 8.33137 20.6686 8.6 21 8.6C21.3314 8.6 21.6 8.33137 21.6 8H20.4ZM16 20.4C15.6686 20.4 15.4 20.6686 15.4 21C15.4 21.3314 15.6686 21.6 16 21.6V20.4ZM21.6 16C21.6 15.6686 21.3314 15.4 21 15.4C20.6686 15.4 20.4 15.6686 20.4 16H21.6ZM8 21.6C8.33137 21.6 8.6 21.3314 8.6 21C8.6 20.6686 8.33137 20.4 8 20.4V21.6ZM3.6 16C3.6 15.6686 3.33137 15.4 3 15.4C2.66863 15.4 2.4 15.6686 2.4 16H3.6ZM2.4 8C2.4 8.33137 2.66863 8.6 3 8.6C3.33137 8.6 3.6 8.33137 3.6 8H2.4ZM8.6 8C8.6 7.66863 8.33137 7.4 8 7.4C7.66863 7.4 7.4 7.66863 7.4 8H8.6ZM7.4 10C7.4 10.3314 7.66863 10.6 8 10.6C8.33137 10.6 8.6 10.3314 8.6 10H7.4ZM16.6 8C16.6 7.66863 16.3314 7.4 16 7.4C15.6686 7.4 15.4 7.66863 15.4 8H16.6ZM15.4 10C15.4 10.3314 15.6686 10.6 16 10.6C16.3314 10.6 16.6 10.3314 16.6 10H15.4ZM12.6 8C12.6 7.66863 12.3314 7.4 12 7.4C11.6686 7.4 11.4 7.66863 11.4 8H12.6ZM12 13V13.6C12.3314 13.6 12.6 13.3314 12.6 13H12ZM10.5 12.4C10.1686 12.4 9.9 12.6686 9.9 13C9.9 13.3314 10.1686 13.6 10.5 13.6V12.4ZM9.35992 15.5203C9.09499 15.3213 8.71886 15.3747 8.51982 15.6396C8.32077 15.9045 8.37418 16.2806 8.63911 16.4797L9.35992 15.5203ZM15.3609 16.4797C15.6258 16.2806 15.6792 15.9045 15.4802 15.6396C15.2811 15.3747 14.905 15.3213 14.6401 15.5203L15.3609 16.4797ZM18 2.4H16V3.6H18V2.4ZM8 2.4H6V3.6H8V2.4ZM21.6 8V6H20.4V8H21.6ZM16 21.6H18V20.4H16V21.6ZM21.6 18V16H20.4V18H21.6ZM6 21.6H8V20.4H6V21.6ZM2.4 16V18H3.6V16H2.4ZM2.4 6V8H3.6V6H2.4ZM7.4 8V10H8.6V8H7.4ZM15.4 8V10H16.6V8H15.4ZM11.4 8V13H12.6V8H11.4ZM12 12.4H10.5V13.6H12V12.4ZM12 16.4C11.0086 16.4 10.0953 16.0728 9.35992 15.5203L8.63911 16.4797C9.5752 17.183 10.7398 17.6 12 17.6V16.4ZM14.6401 15.5203C13.9047 16.0728 12.9914 16.4 12 16.4V17.6C13.2602 17.6 14.4248 17.183 15.3609 16.4797L14.6401 15.5203ZM18 21.6C19.9882 21.6 21.6 19.9882 21.6 18H20.4C20.4 19.3255 19.3255 20.4 18 20.4V21.6ZM6 20.4C4.67452 20.4 3.6 19.3255 3.6 18H2.4C2.4 19.9882 4.01178 21.6 6 21.6V20.4ZM6 2.4C4.01177 2.4 2.4 4.01178 2.4 6H3.6C3.6 4.67452 4.67452 3.6 6 3.6V2.4ZM18 3.6C19.3255 3.6 20.4 4.67452 20.4 6H21.6C21.6 4.01177 19.9882 2.4 18 2.4V3.6Z" fill="#555770"/>
</svg>
