<svg width="24" height="24" viewBox="0 0 24 24" fill="none" xmlns="http://www.w3.org/2000/svg">
<path d="M18.4 10L18.4 14L19.6 14L19.6 10L18.4 10ZM4 17.6L6.5 17.6L6.5 16.4L4 16.4L4 17.6ZM9 17.6L20 17.6L20 16.4L9 16.4L9 17.6ZM8.4 15L8.4 17L9.6 17L9.6 15L8.4 15ZM8.4 17L8.4 19L9.6 19L9.6 17L8.4 17ZM4 12.6L16.5 12.6L16.5 11.4L4 11.4L4 12.6ZM4 7.6L8.5 7.6L8.5 6.4L4 6.4L4 7.6ZM11 7.6L20 7.6L20 6.4L11 6.4L11 7.6ZM10.4 5L10.4 7L11.6 7L11.6 5L10.4 5ZM10.4 7L10.4 9L11.6 9L11.6 7L10.4 7Z" fill="#555770"/>
</svg>
