<svg width="24" height="24" viewBox="0 0 24 24" fill="none" xmlns="http://www.w3.org/2000/svg">
<path d="M17.9619 4.08759C18.2405 4.26707 18.6118 4.18675 18.7913 3.90819C18.9707 3.62964 18.8904 3.25832 18.6119 3.07884L17.9619 4.08759ZM5.73236 3.07884C5.4538 3.25832 5.37348 3.62964 5.55296 3.90819C5.73244 4.18675 6.10375 4.26707 6.38231 4.08759L5.73236 3.07884ZM20.4574 10.4612C20.5988 10.7609 20.9564 10.8892 21.2561 10.7477C21.5557 10.6063 21.684 10.2488 21.5426 9.94907L20.4574 10.4612ZM2.46266 9.93816C2.31522 10.2349 2.43627 10.595 2.73304 10.7425C3.0298 10.8899 3.3899 10.7689 3.53734 10.4721L2.46266 9.93816ZM16.2487 22.6C16.5801 22.6 16.8487 22.3314 16.8487 22C16.8487 21.6686 16.5801 21.4 16.2487 21.4V22.6ZM4.46869 19.6245C4.57288 19.9391 4.91235 20.1097 5.22691 20.0055C5.54148 19.9013 5.71202 19.5618 5.60783 19.2472L4.46869 19.6245ZM12.7722 14.8205C12.7722 14.4891 12.5035 14.2205 12.1722 14.2205C11.8408 14.2205 11.5722 14.4891 11.5722 14.8205H12.7722ZM18.7965 20.5487C19.1279 20.5487 19.3965 20.2801 19.3965 19.9487C19.3965 19.6173 19.1279 19.3487 18.7965 19.3487L18.7965 20.5487ZM16.6678 14.8205C16.6678 15.1519 16.9364 15.4205 17.2678 15.4205C17.5992 15.4205 17.8678 15.1519 17.8678 14.8205H16.6678ZM9.82377 22.5136C10.1074 22.6849 10.4762 22.5938 10.6475 22.3101C10.8188 22.0265 10.7277 21.6577 10.4441 21.4864L9.82377 22.5136ZM12.1722 2.6C13.6576 2.6 16.0461 2.85321 17.9619 4.08759L18.6119 3.07884C16.4092 1.65959 13.7442 1.4 12.1722 1.4V2.6ZM6.38231 4.08759C8.2981 2.85321 10.6867 2.6 12.1722 2.6V1.4C10.6001 1.4 7.93508 1.65959 5.73236 3.07884L6.38231 4.08759ZM12.1722 5.1641C15.7141 5.1641 18.8634 7.08313 20.4574 10.4612L21.5426 9.94907C19.7488 6.14763 16.1747 3.9641 12.1722 3.9641V5.1641ZM3.53734 10.4721C4.96748 7.59353 8.63401 5.1641 12.1722 5.1641V3.9641C8.16589 3.9641 4.08991 6.66287 2.46266 9.93816L3.53734 10.4721ZM19.2156 14.8205C19.2156 15.4436 18.9985 15.9262 18.6681 16.2526C18.3362 16.5804 17.8555 16.7846 17.2678 16.7846V17.9846C18.1414 17.9846 18.9346 17.676 19.5113 17.1064C20.0895 16.5353 20.4156 15.7359 20.4156 14.8205H19.2156ZM17.2678 16.7846C16.8731 16.7846 16.3754 16.5973 15.9742 16.2344C15.5822 15.88 15.32 15.3931 15.32 14.8205H14.12C14.12 15.7864 14.5689 16.5816 15.1694 17.1245C15.7606 17.6591 16.5368 17.9846 17.2678 17.9846V16.7846ZM10.2244 15.3333C10.2244 14.1746 10.5652 13.5896 10.9126 13.2836C11.2758 12.9638 11.7506 12.8564 12.1722 12.8564V11.6564C11.5746 11.6564 10.7755 11.8054 10.1196 12.383C9.44788 12.9745 9.02435 13.928 9.02435 15.3333H10.2244ZM12.1722 12.8564C13.3472 12.8564 14.12 13.713 14.12 14.8205H15.32C15.32 13.0958 14.0546 11.6564 12.1722 11.6564V12.8564ZM9.02435 15.3333C9.02435 16.7524 9.5808 18.5517 10.7492 20.0043C11.9327 21.4755 13.7538 22.6 16.2487 22.6V21.4C14.1575 21.4 12.6665 20.4732 11.6843 19.2521C10.687 18.0124 10.2244 16.4784 10.2244 15.3333H9.02435ZM20.4156 14.8205C20.4156 13.6562 19.8586 11.6116 18.5814 9.85259C17.2852 8.06757 15.2086 6.5282 12.1722 6.5282V7.7282C14.741 7.7282 16.4861 9.00935 17.6104 10.5577C18.7535 12.132 19.2156 13.9335 19.2156 14.8205H20.4156ZM12.1722 6.5282C10.2193 6.5282 7.55242 7.52368 5.73971 9.66345C3.89385 11.8424 2.98455 15.1437 4.46869 19.6245L5.60783 19.2472C4.23841 15.1127 5.11259 12.2602 6.65533 10.4391C8.23122 8.57888 10.5581 7.7282 12.1722 7.7282V6.5282ZM11.5722 14.8205C11.5722 15.9348 11.8483 17.3873 12.9434 18.5628C14.0468 19.7473 15.8858 20.5487 18.7965 20.5487L18.7965 19.3487C16.102 19.3487 14.6289 18.6117 13.8214 17.7449C13.0056 16.8692 12.7722 15.7575 12.7722 14.8205H11.5722ZM17.8678 14.8205C17.8678 13.8706 17.5896 12.4584 16.7367 11.2663C15.8618 10.0433 14.4076 9.0923 12.1722 9.0923V10.2923C14.0133 10.2923 15.1069 11.0507 15.7607 11.9645C16.4365 12.9091 16.6678 14.0611 16.6678 14.8205H17.8678ZM12.1722 9.0923C10.7928 9.0923 9.71428 9.44117 8.88439 10.0165C8.05834 10.5892 7.51862 11.3584 7.16666 12.1376C6.47162 13.6765 6.47652 15.3318 6.47652 15.8462H7.67652C7.67652 15.3348 7.68142 13.9132 8.26029 12.6316C8.54529 12.0006 8.961 11.4236 9.5681 11.0027C10.1714 10.5845 11.0037 10.2923 12.1722 10.2923V9.0923ZM6.47652 15.8462C6.47652 16.4263 6.61527 17.6502 7.08635 18.937C7.55699 20.2227 8.38754 21.6464 9.82377 22.5136L10.4441 21.4864C9.33245 20.8152 8.63431 19.6748 8.21321 18.5245C7.79255 17.3754 7.67652 16.2916 7.67652 15.8462H6.47652Z" fill="#555770"/>
</svg>
