<svg width="24" height="24" viewBox="0 0 24 24" fill="none" xmlns="http://www.w3.org/2000/svg">
<mask id="path-1-inside-1_402_14424" fill="white">
<path d="M12 22C16.6944 22 20.5 18.3063 20.5 13.75C20.5 6.49361 15.3717 2.97129 12.6582 2.05156C12.5863 2.02718 12.5175 2.08905 12.5301 2.16395C12.964 4.74708 12.1295 10.4774 8.45624 9.99699C8.44158 9.99507 8.42695 9.98983 8.41473 9.9815C7.84048 9.59017 7.52193 8.60076 7.50109 6.92748C7.50012 6.84953 7.41482 6.80164 7.34903 6.84346C5.03113 8.3169 3.5 10.8599 3.5 13.75C3.5 18.3063 7.30558 22 12 22Z"/>
</mask>
<path d="M12.5301 2.16395L11.3467 2.36275L11.3467 2.36275L12.5301 2.16395ZM8.45624 9.99699L8.61187 8.80712L8.61187 8.80712L8.45624 9.99699ZM7.34903 6.84346L7.99279 7.85617L7.99279 7.85617L7.34903 6.84346ZM8.41473 9.9815L7.73897 10.9731L7.73898 10.9731L8.41473 9.9815ZM7.50109 6.92748L6.30119 6.94242L6.30119 6.94242L7.50109 6.92748ZM12.6582 2.05156L13.0434 0.915066L13.0434 0.915065L12.6582 2.05156ZM19.3 13.75C19.3 17.6101 16.0657 20.8 12 20.8V23.2C17.3231 23.2 21.7 19.0026 21.7 13.75H19.3ZM12 20.8C7.9343 20.8 4.7 17.6101 4.7 13.75H2.3C2.3 19.0026 6.67686 23.2 12 23.2V20.8ZM11.3467 2.36275C11.5314 3.4622 11.4443 5.33061 10.905 6.82096C10.6377 7.55965 10.295 8.10478 9.91719 8.4325C9.57713 8.72745 9.17585 8.88088 8.61187 8.80712L8.30062 11.1869C9.57328 11.3533 10.6538 10.9706 11.4897 10.2455C12.2879 9.5532 12.8155 8.59439 13.1618 7.63765C13.8495 5.73716 13.9628 3.44883 13.7135 1.96515L11.3467 2.36275ZM4.7 13.75C4.7 11.2979 5.9974 9.12459 7.99279 7.85617L6.70528 5.83075C4.06486 7.5092 2.3 10.4219 2.3 13.75H4.7ZM9.0905 8.98987C9.1135 9.00554 9.00853 8.94723 8.89827 8.58542C8.7899 8.22982 8.71067 7.68881 8.701 6.91253L6.30119 6.94242C6.31236 7.83943 6.40282 8.62976 6.6025 9.28502C6.80029 9.93407 7.14171 10.5661 7.73897 10.9731L9.0905 8.98987ZM12.273 3.18805C14.6644 3.99863 19.3 7.16293 19.3 13.75H21.7C21.7 5.82428 16.0789 1.94394 13.0434 0.915066L12.273 3.18805ZM7.99279 7.85617C7.23447 8.33822 6.31146 7.76753 6.30119 6.94242L8.701 6.91253C8.68878 5.93153 7.59516 5.26507 6.70527 5.83075L7.99279 7.85617ZM8.61187 8.80712C8.76627 8.82732 8.93335 8.88278 9.09049 8.98986L7.73898 10.9731C7.92056 11.0969 8.11689 11.1628 8.30062 11.1869L8.61187 8.80712ZM13.7135 1.96515C13.8412 2.72551 13.1175 3.47428 12.273 3.18805L13.0434 0.915065C12.0551 0.580072 11.1938 1.45259 11.3467 2.36275L13.7135 1.96515Z" fill="#555770" mask="url(#path-1-inside-1_402_14424)"/>
</svg>
