<svg width="24" height="24" viewBox="0 0 24 24" fill="none" xmlns="http://www.w3.org/2000/svg">
<path d="M15 10L14.5757 9.57574L14.1515 10L14.5757 10.4243L15 10ZM19.8293 5.17071L20.2536 5.59497L19.8293 5.17071ZM4.6 5V2.5H3.4V5H4.6ZM4 5.6H19.7586V4.4H4V5.6ZM19.405 4.74645L14.5757 9.57574L15.4243 10.4243L20.2536 5.59497L19.405 4.74645ZM14.5757 10.4243L19.405 15.2536L20.2536 14.405L15.4243 9.57574L14.5757 10.4243ZM4.6 23V15H3.4V23H4.6ZM4.6 15V5H3.4V15H4.6ZM19.7586 14.4H4V15.6H19.7586V14.4ZM19.405 15.2536C19.09 14.9386 19.3131 14.4 19.7586 14.4V15.6C20.3822 15.6 20.6945 14.846 20.2536 14.405L19.405 15.2536ZM19.7586 5.6C19.3131 5.6 19.09 5.06143 19.405 4.74645L20.2536 5.59497C20.6945 5.154 20.3822 4.4 19.7586 4.4V5.6Z" fill="#555770"/>
</svg>
