<svg width="24" height="24" viewBox="0 0 24 24" fill="none" xmlns="http://www.w3.org/2000/svg">
<path d="M4 3V2.4H3.4V3H4ZM20 15V15.6H20.6V15H20ZM20 5H20.6V4.4H20V5ZM12 3L12.5367 2.73167L12.3708 2.4H12V3ZM13 5L12.4633 5.26833L12.6292 5.6H13V5ZM12 13L12.5367 12.7317L12.3708 12.4H12V13ZM13 15L12.4633 15.2683L12.6292 15.6H13V15ZM4.6 23V13H3.4V23H4.6ZM4.6 13V3H3.4V13H4.6ZM19.4 5V15H20.6V5H19.4ZM4 3.6H12V2.4H4V3.6ZM11.4633 3.26833L12.4633 5.26833L13.5367 4.73167L12.5367 2.73167L11.4633 3.26833ZM13 5.6H20V4.4H13V5.6ZM12 12.4H4V13.6H12V12.4ZM20 14.4H13V15.6H20V14.4ZM13.5367 14.7317L12.5367 12.7317L11.4633 13.2683L12.4633 15.2683L13.5367 14.7317Z" fill="#555770"/>
</svg>
