<svg width="24" height="24" viewBox="0 0 24 24" fill="none" xmlns="http://www.w3.org/2000/svg">
<path d="M2.6 11V3C2.6 2.77909 2.77909 2.6 3 2.6H10C10.2209 2.6 10.4 2.77909 10.4 3V11C10.4 11.2209 10.2209 11.4 10 11.4H3C2.77909 11.4 2.6 11.2209 2.6 11ZM13.6 6V3C13.6 2.77909 13.7791 2.6 14 2.6H21C21.2209 2.6 21.4 2.77909 21.4 3V6C21.4 6.22091 21.2209 6.4 21 6.4H14C13.7791 6.4 13.6 6.22091 13.6 6ZM13.6 14V10C13.6 9.77909 13.7791 9.6 14 9.6H21C21.2209 9.6 21.4 9.77909 21.4 10V14C21.4 14.2209 21.2209 14.4 21 14.4H14C13.7791 14.4 13.6 14.2209 13.6 14ZM13.6 21V18C13.6 17.7791 13.7791 17.6 14 17.6H21C21.2209 17.6 21.4 17.7791 21.4 18V21C21.4 21.2209 21.2209 21.4 21 21.4H14C13.7791 21.4 13.6 21.2209 13.6 21ZM10.4 15V21C10.4 21.2209 10.2209 21.4 10 21.4H3C2.77909 21.4 2.6 21.2209 2.6 21V15C2.6 14.7791 2.77909 14.6 3 14.6H10C10.2209 14.6 10.4 14.7791 10.4 15Z" stroke="#555770" stroke-width="1.2"/>
</svg>
