<svg width="24" height="24" viewBox="0 0 24 24" fill="none" xmlns="http://www.w3.org/2000/svg">
<circle cx="12" cy="12" r="10.4" stroke="#555770" stroke-width="1.2"/>
<path d="M12.9714 12.4834L13.4163 12.8859L13.4163 12.8859L12.9714 12.4834ZM9.28835 9.3006C9.28835 7.74644 10.5753 6.6 12.0348 6.6V5.4C9.97058 5.4 8.08835 7.02714 8.08835 9.3006H9.28835ZM12.0348 6.6C13.4772 6.6 14.7094 7.73004 14.7094 9.3006H15.9094C15.9094 7.04354 14.1159 5.4 12.0348 5.4V6.6ZM14.7094 9.3006C14.7094 9.82815 14.5094 10.1725 14.1303 10.5619C13.9278 10.7701 13.6942 10.9707 13.4107 11.2225C13.1354 11.467 12.8292 11.7462 12.5265 12.0809L13.4163 12.8859C13.6735 12.6017 13.9395 12.3578 14.2076 12.1197C14.4674 11.8889 14.7484 11.6475 14.9903 11.3988C15.5003 10.8748 15.9094 10.2466 15.9094 9.3006H14.7094ZM12.5265 12.0809C11.7923 12.8924 11.4 13.8481 11.4 15.0017H12.6C12.6 14.1553 12.8752 13.484 13.4163 12.8859L12.5265 12.0809ZM11.4348 16.5017V18.0017H12.6348V16.5017H11.4348Z" fill="#555770"/>
</svg>
