<svg width="24" height="24" viewBox="0 0 24 24" fill="none" xmlns="http://www.w3.org/2000/svg">
<path d="M12.6586 10L12.0929 10.1999L12.2343 10.6H12.6586V10ZM23 10H23.6V9.4H23V10ZM23 14V14.6H23.6V14H23ZM12.6586 14V13.4H12.2343L12.0929 13.8001L12.6586 14ZM21 14V13.4H20.4V14H21ZM21 18V18.6H21.6V18H21ZM17 18H16.4V18.6H17V18ZM17 14H17.6V13.4H17V14ZM8.4 12C8.4 12.7732 7.7732 13.4 7 13.4V14.6C8.43594 14.6 9.6 13.4359 9.6 12H8.4ZM7 13.4C6.2268 13.4 5.6 12.7732 5.6 12H4.4C4.4 13.4359 5.56406 14.6 7 14.6V13.4ZM5.6 12C5.6 11.2268 6.2268 10.6 7 10.6V9.4C5.56406 9.4 4.4 10.5641 4.4 12H5.6ZM7 10.6C7.7732 10.6 8.4 11.2268 8.4 12H9.6C9.6 10.5641 8.43594 9.4 7 9.4V10.6ZM7 17.4C4.01766 17.4 1.6 14.9823 1.6 12H0.4C0.4 15.6451 3.35492 18.6 7 18.6V17.4ZM1.6 12C1.6 9.01766 4.01766 6.6 7 6.6V5.4C3.35492 5.4 0.4 8.35492 0.4 12H1.6ZM7 6.6C9.35026 6.6 11.3513 8.10179 12.0929 10.1999L13.2243 9.80005C12.3185 7.23744 9.87462 5.4 7 5.4V6.6ZM12.6586 10.6H23V9.4H12.6586V10.6ZM22.4 10V14H23.6V10H22.4ZM12.0929 13.8001C11.3513 15.8982 9.35026 17.4 7 17.4V18.6C9.87462 18.6 12.3185 16.7626 13.2243 14.1999L12.0929 13.8001ZM23 13.4H21V14.6H23V13.4ZM20.4 14V18H21.6V14H20.4ZM21 17.4H17V18.6H21V17.4ZM17 13.4H12.6586V14.6H17V13.4ZM17.6 18V14H16.4V18H17.6Z" fill="#555770"/>
</svg>
