<svg width="24" height="24" viewBox="0 0 24 24" fill="none" xmlns="http://www.w3.org/2000/svg">
<path d="M21 12L21.48 12.36L21.75 12L21.48 11.64L21 12ZM16.8 6.4L17.28 6.04L16.8 6.4ZM16.8 17.6L17.28 17.96L16.8 17.6ZM3.4 7V17H4.6V7H3.4ZM5 18.6H16V17.4H5V18.6ZM17.28 17.96L21.48 12.36L20.52 11.64L16.32 17.24L17.28 17.96ZM21.48 11.64L17.28 6.04L16.32 6.76L20.52 12.36L21.48 11.64ZM16 5.4H5V6.6H16V5.4ZM17.28 6.04C16.9778 5.63711 16.5036 5.4 16 5.4V6.6C16.1259 6.6 16.2445 6.65928 16.32 6.76L17.28 6.04ZM16 18.6C16.5036 18.6 16.9778 18.3629 17.28 17.96L16.32 17.24C16.2445 17.3407 16.1259 17.4 16 17.4V18.6ZM3.4 17C3.4 17.8837 4.11634 18.6 5 18.6V17.4C4.77909 17.4 4.6 17.2209 4.6 17H3.4ZM4.6 7C4.6 6.77909 4.77909 6.6 5 6.6V5.4C4.11634 5.4 3.4 6.11634 3.4 7H4.6Z" fill="#555770"/>
</svg>
