<svg width="24" height="24" viewBox="0 0 24 24" fill="none" xmlns="http://www.w3.org/2000/svg">
<path d="M20.5239 12.5234L21.0966 12.7024L21.0966 12.7024L20.5239 12.5234ZM19.1481 16.9261L18.5754 16.7471L18.5754 16.7471L19.1481 16.9261ZM8.5 8.65625L8.93144 9.07321L8.76971 9.24056L8.53743 9.25508L8.5 8.65625ZM12.4104 4.61012L11.9789 4.19316L11.9789 4.19316L12.4104 4.61012ZM14 8.5L14.0597 9.09702C13.847 9.11829 13.6391 9.0248 13.5138 8.8516C13.3886 8.6784 13.3649 8.45164 13.4517 8.25632L14 8.5ZM17.0005 8.19995L16.9408 7.60293L16.9408 7.60293L17.0005 8.19995ZM15.375 5.40614L15.9233 5.64982L15.9233 5.64982L15.375 5.40614ZM3.93762 8.9414L3.90019 8.34257L3.90019 8.34257L3.93762 8.9414ZM20.1147 9.67198L20.6139 9.33916L20.6139 9.33916L20.1147 9.67198ZM2.4 18V9.93945H3.6V18H2.4ZM21.0966 12.7024L19.7208 17.1051L18.5754 16.7471L19.9512 12.3445L21.0966 12.7024ZM8.06856 8.23929L11.9789 4.19316L12.8418 5.02709L8.93144 9.07321L8.06856 8.23929ZM13.8485 3.4H14.4612V4.6H13.8485V3.4ZM13.9403 7.90298L16.9408 7.60293L17.0602 8.79697L14.0597 9.09702L13.9403 7.90298ZM15.9233 5.64982L14.5483 8.74368L13.4517 8.25632L14.8268 5.16246L15.9233 5.64982ZM3.90019 8.34257L7.96257 8.08867L8.03743 9.28633L3.97505 9.54023L3.90019 8.34257ZM7.96257 8.08867L8.46257 8.05742L8.53743 9.25508L8.03743 9.28633L7.96257 8.08867ZM16.3272 19.6H8V18.4H16.3272V19.6ZM8 19.6H4V18.4H8V19.6ZM8.6 8.6875V19H7.4V8.6875H8.6ZM14.4612 3.4C15.6191 3.4 16.3936 4.59176 15.9233 5.64982L14.8268 5.16246C14.9443 4.89794 14.7507 4.6 14.4612 4.6V3.4ZM11.9789 4.19316C12.4688 3.68625 13.1435 3.4 13.8485 3.4V4.6C13.4689 4.6 13.1056 4.75414 12.8418 5.02709L11.9789 4.19316ZM19.7208 17.1051C19.2569 18.5894 17.8823 19.6 16.3272 19.6V18.4C17.3574 18.4 18.2681 17.7305 18.5754 16.7471L19.7208 17.1051ZM20.6139 9.33916C21.2743 10.3298 21.4518 11.5659 21.0966 12.7024L19.9512 12.3445C20.1983 11.5539 20.0749 10.694 19.6154 10.0048L20.6139 9.33916ZM19.6154 10.0048C19.0526 9.16059 18.0698 8.69601 17.0602 8.79697L16.9408 7.60293C18.392 7.4578 19.8049 8.12563 20.6139 9.33916L19.6154 10.0048ZM2.4 9.93945C2.4 9.09455 3.05694 8.39527 3.90019 8.34257L3.97505 9.54023C3.76423 9.55341 3.6 9.72823 3.6 9.93945H2.4ZM3.6 18C3.6 18.2209 3.77909 18.4 4 18.4V19.6C3.11634 19.6 2.4 18.8837 2.4 18H3.6Z" fill="#555770"/>
</svg>
