<svg width="24" height="24" viewBox="0 0 24 24" fill="none" xmlns="http://www.w3.org/2000/svg">
<mask id="path-1-inside-1_402_14162" fill="white">
<path d="M2 5C2 3.89543 2.89543 3 4 3C5.10457 3 6 3.89543 6 5C6 6.10457 5.10457 7 4 7C2.89543 7 2 6.10457 2 5Z"/>
<path d="M2 12C2 10.8954 2.89543 10 4 10C5.10457 10 6 10.8954 6 12C6 13.1046 5.10457 14 4 14C2.89543 14 2 13.1046 2 12Z"/>
<path d="M2 19C2 17.8954 2.89543 17 4 17C5.10457 17 6 17.8954 6 19C6 20.1046 5.10457 21 4 21C2.89543 21 2 20.1046 2 19Z"/>
<path d="M8 5C8 3.89543 8.89543 3 10 3H20C21.1046 3 22 3.89543 22 5C22 6.10457 21.1046 7 20 7H10C8.89543 7 8 6.10457 8 5Z"/>
<path d="M8 12C8 10.8954 8.89543 10 10 10H20C21.1046 10 22 10.8954 22 12C22 13.1046 21.1046 14 20 14H10C8.89543 14 8 13.1046 8 12Z"/>
<path d="M8 19C8 17.8954 8.89543 17 10 17H20C21.1046 17 22 17.8954 22 19C22 20.1046 21.1046 21 20 21H10C8.89543 21 8 20.1046 8 19Z"/>
</mask>
<path d="M10 4.2H20V1.8H10V4.2ZM20 5.8H10V8.2H20V5.8ZM10 11.2H20V8.8H10V11.2ZM20 12.8H10V15.2H20V12.8ZM10 18.2H20V15.8H10V18.2ZM20 19.8H10V22.2H20V19.8ZM10 19.8C9.55817 19.8 9.2 19.4418 9.2 19H6.8C6.8 20.7673 8.23269 22.2 10 22.2V19.8ZM20.8 19C20.8 19.4418 20.4418 19.8 20 19.8V22.2C21.7673 22.2 23.2 20.7673 23.2 19H20.8ZM20 18.2C20.4418 18.2 20.8 18.5582 20.8 19H23.2C23.2 17.2327 21.7673 15.8 20 15.8V18.2ZM10 15.8C8.23269 15.8 6.8 17.2327 6.8 19H9.2C9.2 18.5582 9.55817 18.2 10 18.2V15.8ZM10 12.8C9.55817 12.8 9.2 12.4418 9.2 12H6.8C6.8 13.7673 8.23269 15.2 10 15.2V12.8ZM20.8 12C20.8 12.4418 20.4418 12.8 20 12.8V15.2C21.7673 15.2 23.2 13.7673 23.2 12H20.8ZM20 11.2C20.4418 11.2 20.8 11.5582 20.8 12H23.2C23.2 10.2327 21.7673 8.8 20 8.8V11.2ZM10 8.8C8.23269 8.8 6.8 10.2327 6.8 12H9.2C9.2 11.5582 9.55817 11.2 10 11.2V8.8ZM10 5.8C9.55817 5.8 9.2 5.44183 9.2 5H6.8C6.8 6.76731 8.23269 8.2 10 8.2V5.8ZM20.8 5C20.8 5.44183 20.4418 5.8 20 5.8V8.2C21.7673 8.2 23.2 6.76731 23.2 5H20.8ZM20 4.2C20.4418 4.2 20.8 4.55817 20.8 5H23.2C23.2 3.23269 21.7673 1.8 20 1.8V4.2ZM10 1.8C8.23269 1.8 6.8 3.23269 6.8 5H9.2C9.2 4.55817 9.55817 4.2 10 4.2V1.8ZM4 19.8C3.55817 19.8 3.2 19.4418 3.2 19H0.8C0.8 20.7673 2.23269 22.2 4 22.2V19.8ZM4.8 19C4.8 19.4418 4.44183 19.8 4 19.8V22.2C5.76731 22.2 7.2 20.7673 7.2 19H4.8ZM4 18.2C4.44183 18.2 4.8 18.5582 4.8 19H7.2C7.2 17.2327 5.76731 15.8 4 15.8V18.2ZM4 15.8C2.23269 15.8 0.8 17.2327 0.8 19H3.2C3.2 18.5582 3.55817 18.2 4 18.2V15.8ZM4 12.8C3.55817 12.8 3.2 12.4418 3.2 12H0.8C0.8 13.7673 2.23269 15.2 4 15.2V12.8ZM4.8 12C4.8 12.4418 4.44183 12.8 4 12.8V15.2C5.76731 15.2 7.2 13.7673 7.2 12H4.8ZM4 11.2C4.44183 11.2 4.8 11.5582 4.8 12H7.2C7.2 10.2327 5.76731 8.8 4 8.8V11.2ZM4 8.8C2.23269 8.8 0.8 10.2327 0.8 12H3.2C3.2 11.5582 3.55817 11.2 4 11.2V8.8ZM4 5.8C3.55817 5.8 3.2 5.44183 3.2 5H0.8C0.8 6.76731 2.23269 8.2 4 8.2V5.8ZM4.8 5C4.8 5.44183 4.44183 5.8 4 5.8V8.2C5.76731 8.2 7.2 6.76731 7.2 5H4.8ZM4 4.2C4.44183 4.2 4.8 4.55817 4.8 5H7.2C7.2 3.23269 5.76731 1.8 4 1.8V4.2ZM4 1.8C2.23269 1.8 0.8 3.23269 0.8 5H3.2C3.2 4.55817 3.55817 4.2 4 4.2V1.8Z" fill="#555770" mask="url(#path-1-inside-1_402_14162)"/>
</svg>
