<svg width="24" height="24" viewBox="0 0 24 24" fill="none" xmlns="http://www.w3.org/2000/svg">
<mask id="path-1-inside-1_402_14159" fill="white">
<rect x="1" y="1" width="22" height="22" rx="1"/>
</mask>
<rect x="1" y="1" width="22" height="22" rx="1" stroke="#555770" stroke-width="2.4" mask="url(#path-1-inside-1_402_14159)"/>
<path d="M9.5 7.4C9.16863 7.4 8.9 7.66863 8.9 8C8.9 8.33137 9.16863 8.6 9.5 8.6V7.4ZM18 8.6C18.3314 8.6 18.6 8.33137 18.6 8C18.6 7.66863 18.3314 7.4 18 7.4V8.6ZM5.98047 7.4C5.6491 7.4 5.38047 7.66863 5.38047 8C5.38047 8.33137 5.6491 8.6 5.98047 8.6L5.98047 7.4ZM6.5 8.6C6.83137 8.6 7.1 8.33137 7.1 8C7.1 7.66863 6.83137 7.4 6.5 7.4L6.5 8.6ZM9.5 11.4C9.16863 11.4 8.9 11.6686 8.9 12C8.9 12.3314 9.16863 12.6 9.5 12.6V11.4ZM18 12.6C18.3314 12.6 18.6 12.3314 18.6 12C18.6 11.6686 18.3314 11.4 18 11.4V12.6ZM5.98047 11.4C5.6491 11.4 5.38047 11.6686 5.38047 12C5.38047 12.3314 5.6491 12.6 5.98047 12.6V11.4ZM6.5 12.6C6.83137 12.6 7.1 12.3314 7.1 12C7.1 11.6686 6.83137 11.4 6.5 11.4V12.6ZM9.5 15.4C9.16863 15.4 8.9 15.6686 8.9 16C8.9 16.3314 9.16863 16.6 9.5 16.6V15.4ZM18 16.6C18.3314 16.6 18.6 16.3314 18.6 16C18.6 15.6686 18.3314 15.4 18 15.4V16.6ZM5.98047 15.4C5.6491 15.4 5.38047 15.6686 5.38047 16C5.38047 16.3314 5.6491 16.6 5.98047 16.6V15.4ZM6.5 16.6C6.83137 16.6 7.1 16.3314 7.1 16C7.1 15.6686 6.83137 15.4 6.5 15.4V16.6ZM9.5 8.6H18V7.4H9.5V8.6ZM5.98047 8.6L6.5 8.6L6.5 7.4L5.98047 7.4L5.98047 8.6ZM9.5 12.6H18V11.4H9.5V12.6ZM5.98047 12.6H6.5V11.4H5.98047V12.6ZM9.5 16.6H18V15.4H9.5V16.6ZM5.98047 16.6H6.5V15.4H5.98047V16.6Z" fill="#555770"/>
</svg>
