<svg width="24" height="24" viewBox="0 0 24 24" fill="none" xmlns="http://www.w3.org/2000/svg">
<mask id="path-1-inside-1_402_14406" fill="white">
<path d="M12 7C10.3431 7 9 5.65685 9 4C9 2.34315 10.3431 1 12 1C13.6569 1 15 2.34315 15 4C15 5.65685 13.6569 7 12 7Z"/>
<path d="M12 15C10.3431 15 9 13.6569 9 12C9 10.3431 10.3431 9 12 9C13.6569 9 15 10.3431 15 12C15 13.6569 13.6569 15 12 15Z"/>
<path d="M12 23C10.3431 23 9 21.6569 9 20C9 18.3431 10.3431 17 12 17C13.6569 17 15 18.3431 15 20C15 21.6569 13.6569 23 12 23Z"/>
</mask>
<path d="M12 5.8C11.0059 5.8 10.2 4.99411 10.2 4L7.8 4C7.8 6.3196 9.6804 8.2 12 8.2L12 5.8ZM10.2 4C10.2 3.00589 11.0059 2.2 12 2.2L12 -0.2C9.6804 -0.2 7.8 1.6804 7.8 4L10.2 4ZM12 2.2C12.9941 2.2 13.8 3.00589 13.8 4L16.2 4C16.2 1.6804 14.3196 -0.2 12 -0.2L12 2.2ZM13.8 4C13.8 4.99411 12.9941 5.8 12 5.8L12 8.2C14.3196 8.2 16.2 6.3196 16.2 4L13.8 4ZM12 13.8C11.0059 13.8 10.2 12.9941 10.2 12L7.8 12C7.8 14.3196 9.6804 16.2 12 16.2L12 13.8ZM10.2 12C10.2 11.0059 11.0059 10.2 12 10.2L12 7.8C9.6804 7.8 7.8 9.6804 7.8 12L10.2 12ZM12 10.2C12.9941 10.2 13.8 11.0059 13.8 12L16.2 12C16.2 9.6804 14.3196 7.8 12 7.8L12 10.2ZM13.8 12C13.8 12.9941 12.9941 13.8 12 13.8L12 16.2C14.3196 16.2 16.2 14.3196 16.2 12L13.8 12ZM12 21.8C11.0059 21.8 10.2 20.9941 10.2 20L7.8 20C7.8 22.3196 9.6804 24.2 12 24.2L12 21.8ZM10.2 20C10.2 19.0059 11.0059 18.2 12 18.2L12 15.8C9.6804 15.8 7.8 17.6804 7.8 20L10.2 20ZM12 18.2C12.9941 18.2 13.8 19.0059 13.8 20L16.2 20C16.2 17.6804 14.3196 15.8 12 15.8L12 18.2ZM13.8 20C13.8 20.9941 12.9941 21.8 12 21.8L12 24.2C14.3196 24.2 16.2 22.3196 16.2 20L13.8 20Z" fill="#555770" mask="url(#path-1-inside-1_402_14406)"/>
</svg>
