<svg width="24" height="24" viewBox="0 0 24 24" fill="none" xmlns="http://www.w3.org/2000/svg">
<path d="M7.4 4C7.4 4.7732 6.7732 5.4 6 5.4C5.2268 5.4 4.6 4.7732 4.6 4C4.6 3.2268 5.2268 2.6 6 2.6C6.7732 2.6 7.4 3.2268 7.4 4ZM7.4 9.5C7.4 10.2732 6.7732 10.9 6 10.9C5.2268 10.9 4.6 10.2732 4.6 9.5C4.6 8.7268 5.2268 8.1 6 8.1C6.7732 8.1 7.4 8.7268 7.4 9.5ZM7.4 15C7.4 15.7732 6.7732 16.4 6 16.4C5.2268 16.4 4.6 15.7732 4.6 15C4.6 14.2268 5.2268 13.6 6 13.6C6.7732 13.6 7.4 14.2268 7.4 15ZM13.4 4C13.4 4.7732 12.7732 5.4 12 5.4C11.2268 5.4 10.6 4.7732 10.6 4C10.6 3.2268 11.2268 2.6 12 2.6C12.7732 2.6 13.4 3.2268 13.4 4ZM13.4 9.5C13.4 10.2732 12.7732 10.9 12 10.9C11.2268 10.9 10.6 10.2732 10.6 9.5C10.6 8.7268 11.2268 8.1 12 8.1C12.7732 8.1 13.4 8.7268 13.4 9.5ZM13.4 15C13.4 15.7732 12.7732 16.4 12 16.4C11.2268 16.4 10.6 15.7732 10.6 15C10.6 14.2268 11.2268 13.6 12 13.6C12.7732 13.6 13.4 14.2268 13.4 15ZM13.4 20.5C13.4 21.2732 12.7732 21.9 12 21.9C11.2268 21.9 10.6 21.2732 10.6 20.5C10.6 19.7268 11.2268 19.1 12 19.1C12.7732 19.1 13.4 19.7268 13.4 20.5ZM19.4 4C19.4 4.7732 18.7732 5.4 18 5.4C17.2268 5.4 16.6 4.7732 16.6 4C16.6 3.2268 17.2268 2.6 18 2.6C18.7732 2.6 19.4 3.2268 19.4 4ZM19.4 9.5C19.4 10.2732 18.7732 10.9 18 10.9C17.2268 10.9 16.6 10.2732 16.6 9.5C16.6 8.7268 17.2268 8.1 18 8.1C18.7732 8.1 19.4 8.7268 19.4 9.5ZM19.4 15C19.4 15.7732 18.7732 16.4 18 16.4C17.2268 16.4 16.6 15.7732 16.6 15C16.6 14.2268 17.2268 13.6 18 13.6C18.7732 13.6 19.4 14.2268 19.4 15Z" stroke="#555770" stroke-width="1.2"/>
</svg>
