<svg width="24" height="24" viewBox="0 0 24 24" fill="none" xmlns="http://www.w3.org/2000/svg">
<path d="M8 12L8.33282 12.4992L8.6 12.3211V12H8ZM16 12H15.4V12.3211L15.6672 12.4992L16 12ZM5.29006 13.8066L5.62288 14.3059L5.29006 13.8066ZM6 4.6H8V3.4H6V4.6ZM7.4 4V12H8.6V4H7.4ZM7.66718 11.5008L4.95724 13.3074L5.62288 14.3059L8.33282 12.4992L7.66718 11.5008ZM19.0428 13.3074L16.3328 11.5008L15.6672 12.4992L18.3771 14.3059L19.0428 13.3074ZM8 4.6H16V3.4H8V4.6ZM16 4.6H18V3.4H16V4.6ZM16.6 12V4H15.4V12H16.6ZM5.65139 15.6H12V14.4H5.65139V15.6ZM12 15.6H18.3486V14.4H12V15.6ZM11.4 15V22H12.6V15H11.4ZM19.6 14.3486C19.6 13.9302 19.3909 13.5395 19.0428 13.3074L18.3771 14.3059C18.3914 14.3154 18.4 14.3314 18.4 14.3486H19.6ZM18.4 14.3486C18.4 14.377 18.377 14.4 18.3486 14.4V15.6C19.0397 15.6 19.6 15.0397 19.6 14.3486H18.4ZM4.4 14.3486C4.4 15.0397 4.96027 15.6 5.65139 15.6V14.4C5.62301 14.4 5.6 14.377 5.6 14.3486H4.4ZM4.95724 13.3074C4.60911 13.5395 4.4 13.9302 4.4 14.3486H5.6C5.6 14.3314 5.60859 14.3154 5.62288 14.3059L4.95724 13.3074Z" fill="#555770"/>
</svg>
