<svg width="24" height="24" viewBox="0 0 24 24" fill="none" xmlns="http://www.w3.org/2000/svg">
<mask id="path-1-inside-1_402_14419" fill="white">
<path d="M6 3C6 2.44772 6.44772 2 7 2H17C17.5523 2 18 2.44772 18 3V5.92893C18 7.25501 17.4732 8.52678 16.5355 9.46447L14.7071 11.2929C14.3166 11.6834 14.3166 12.3166 14.7071 12.7071L16.5355 14.5355C17.4732 15.4732 18 16.745 18 18.0711V21C18 21.5523 17.5523 22 17 22H7C6.44772 22 6 21.5523 6 21V18.0711C6 16.745 6.52678 15.4732 7.46447 14.5355L9.29289 12.7071C9.68342 12.3166 9.68342 11.6834 9.29289 11.2929L7.46446 9.46446C6.52678 8.52678 6 7.25501 6 5.92893V3Z"/>
</mask>
<path d="M9.29289 11.2929L8.44437 12.1414L9.29289 11.2929ZM9.29289 12.7071L8.44437 11.8586L9.29289 12.7071ZM7 3.2H17V0.8H7V3.2ZM17 20.8H7V23.2H17V20.8ZM16.8 3V5.92893H19.2V3H16.8ZM15.687 8.61594L13.8586 10.4444L15.5556 12.1414L17.3841 10.313L15.687 8.61594ZM13.8586 13.5556L15.687 15.3841L17.3841 13.687L15.5556 11.8586L13.8586 13.5556ZM16.8 18.0711V21H19.2V18.0711H16.8ZM10.1414 10.4444L8.31299 8.61594L6.61594 10.313L8.44437 12.1414L10.1414 10.4444ZM7.2 5.92893V3H4.8V5.92893H7.2ZM7.2 21V18.0711H4.8V21H7.2ZM8.31299 15.3841L10.1414 13.5556L8.44437 11.8586L6.61594 13.687L8.31299 15.3841ZM7.2 18.0711C7.2 17.0632 7.60036 16.0967 8.31299 15.3841L6.61594 13.687C5.45321 14.8497 4.8 16.4267 4.8 18.0711H7.2ZM8.31299 8.61594C7.60036 7.9033 7.2 6.93676 7.2 5.92893H4.8C4.8 7.57327 5.45321 9.15027 6.61594 10.313L8.31299 8.61594ZM15.687 15.3841C16.3996 16.0967 16.8 17.0632 16.8 18.0711H19.2C19.2 16.4267 18.5468 14.8497 17.3841 13.687L15.687 15.3841ZM16.8 5.92893C16.8 6.93675 16.3996 7.9033 15.687 8.61594L17.3841 10.313C18.5468 9.15027 19.2 7.57327 19.2 5.92893H16.8ZM13.8586 10.4444C12.9994 11.3035 12.9994 12.6965 13.8586 13.5556L15.5556 11.8586C15.6337 11.9367 15.6337 12.0633 15.5556 12.1414L13.8586 10.4444ZM8.44437 12.1414C8.36626 12.0633 8.36626 11.9367 8.44437 11.8586L10.1414 13.5556C11.0006 12.6965 11.0006 11.3035 10.1414 10.4444L8.44437 12.1414ZM7 20.8C7.11046 20.8 7.2 20.8895 7.2 21H4.8C4.8 22.215 5.78497 23.2 7 23.2V20.8ZM17 23.2C18.215 23.2 19.2 22.215 19.2 21H16.8C16.8 20.8895 16.8895 20.8 17 20.8V23.2ZM17 3.2C16.8895 3.2 16.8 3.11046 16.8 3H19.2C19.2 1.78497 18.215 0.8 17 0.8V3.2ZM7 0.8C5.78497 0.8 4.8 1.78497 4.8 3H7.2C7.2 3.11046 7.11046 3.2 7 3.2V0.8Z" fill="#555770" mask="url(#path-1-inside-1_402_14419)"/>
<mask id="path-3-inside-2_402_14419" fill="white">
<path d="M11.3598 16.5335L6 21C6 21.5523 6.44772 22 7 22H17C17.5523 22 18 21.5523 18 21L12.6402 16.5335C12.2693 16.2244 11.7307 16.2244 11.3598 16.5335Z"/>
</mask>
<path d="M6 21L5.23178 20.0781L4.8 20.438V21H6ZM11.3598 16.5335L12.128 17.4554L12.128 17.4554L11.3598 16.5335ZM12.6402 16.5335L11.872 17.4554L11.872 17.4554L12.6402 16.5335ZM18 21H19.2V20.438L18.7682 20.0781L18 21ZM6.76822 21.9219L12.128 17.4554L10.5916 15.6116L5.23178 20.0781L6.76822 21.9219ZM11.872 17.4554L17.2318 21.9219L18.7682 20.0781L13.4084 15.6116L11.872 17.4554ZM17 20.8H7V23.2H17V20.8ZM16.8 21C16.8 20.8895 16.8895 20.8 17 20.8V23.2C18.215 23.2 19.2 22.215 19.2 21H16.8ZM4.8 21C4.8 22.215 5.78497 23.2 7 23.2V20.8C7.11046 20.8 7.2 20.8895 7.2 21H4.8ZM12.128 17.4554C12.0539 17.5172 11.9461 17.5172 11.872 17.4554L13.4084 15.6116C12.5925 14.9317 11.4075 14.9317 10.5916 15.6116L12.128 17.4554Z" fill="#555770" mask="url(#path-3-inside-2_402_14419)"/>
</svg>
