<svg width="24" height="24" viewBox="0 0 24 24" fill="none" xmlns="http://www.w3.org/2000/svg">
<path d="M14.6836 7.26355L8.18384 10.8089M14.6836 16.7366L8.18384 13.1912" stroke="#555770" stroke-width="1.2"/>
<mask id="path-2-inside-1_402_14054" fill="white">
<path d="M20 6C20 7.65685 18.6569 9 17 9C15.3431 9 14 7.65685 14 6C14 4.34315 15.3431 3 17 3C18.6569 3 20 4.34315 20 6Z"/>
<path d="M9 12C9 13.6569 7.65685 15 6 15C4.34315 15 3 13.6569 3 12C3 10.3431 4.34315 9 6 9C7.65685 9 9 10.3431 9 12Z"/>
<path d="M20 18C20 19.6569 18.6569 21 17 21C15.3431 21 14 19.6569 14 18C14 16.3431 15.3431 15 17 15C18.6569 15 20 16.3431 20 18Z"/>
</mask>
<path d="M18.8 6C18.8 6.99411 17.9941 7.8 17 7.8V10.2C19.3196 10.2 21.2 8.3196 21.2 6H18.8ZM17 7.8C16.0059 7.8 15.2 6.99411 15.2 6H12.8C12.8 8.3196 14.6804 10.2 17 10.2V7.8ZM15.2 6C15.2 5.00589 16.0059 4.2 17 4.2V1.8C14.6804 1.8 12.8 3.6804 12.8 6H15.2ZM17 4.2C17.9941 4.2 18.8 5.00589 18.8 6H21.2C21.2 3.6804 19.3196 1.8 17 1.8V4.2ZM7.8 12C7.8 12.9941 6.99411 13.8 6 13.8V16.2C8.3196 16.2 10.2 14.3196 10.2 12H7.8ZM6 13.8C5.00589 13.8 4.2 12.9941 4.2 12H1.8C1.8 14.3196 3.6804 16.2 6 16.2V13.8ZM4.2 12C4.2 11.0059 5.00589 10.2 6 10.2V7.8C3.6804 7.8 1.8 9.6804 1.8 12H4.2ZM6 10.2C6.99411 10.2 7.8 11.0059 7.8 12H10.2C10.2 9.6804 8.3196 7.8 6 7.8V10.2ZM18.8 18C18.8 18.9941 17.9941 19.8 17 19.8V22.2C19.3196 22.2 21.2 20.3196 21.2 18H18.8ZM17 19.8C16.0059 19.8 15.2 18.9941 15.2 18H12.8C12.8 20.3196 14.6804 22.2 17 22.2V19.8ZM15.2 18C15.2 17.0059 16.0059 16.2 17 16.2V13.8C14.6804 13.8 12.8 15.6804 12.8 18H15.2ZM17 16.2C17.9941 16.2 18.8 17.0059 18.8 18H21.2C21.2 15.6804 19.3196 13.8 17 13.8V16.2Z" fill="#555770" mask="url(#path-2-inside-1_402_14054)"/>
</svg>
