<svg width="24" height="24" viewBox="0 0 24 24" fill="none" xmlns="http://www.w3.org/2000/svg">
<mask id="mask0_402_14133" style="mask-type:alpha" maskUnits="userSpaceOnUse" x="0" y="0" width="24" height="24">
<path d="M21.5033 21.5L0.00325155 0L0 24H24V0H5.69812V3.57552L22.645 20.5233L21.5033 21.5Z" fill="white"/>
</mask>
<g mask="url(#mask0_402_14133)">
<path d="M2.5 3L21 21.5" stroke="#555770" stroke-width="1.5"/>
<path d="M20.1818 12C20.1818 16.5187 16.5187 20.1818 12 20.1818M20.1818 12C20.1818 7.48131 16.5187 3.81818 12 3.81818M20.1818 12H23M12 20.1818C7.48131 20.1818 3.81818 16.5187 3.81818 12M12 20.1818V23M3.81818 12C3.81818 7.48131 7.48131 3.81818 12 3.81818M3.81818 12H1M12 3.81818V1" stroke="#555770" stroke-width="1.2"/>
</g>
</svg>
