<svg width="24" height="24" viewBox="0 0 24 24" fill="none" xmlns="http://www.w3.org/2000/svg">
<mask id="path-1-inside-1_402_15291" fill="white">
<path d="M2 18V6C2 4.89543 2.89543 4 4 4H9L11 6H20C21.1046 6 22 6.89543 22 8V18C22 19.1046 21.1046 20 20 20H4C2.89543 20 2 19.1046 2 18Z"/>
</mask>
<path d="M11 6L9.58579 7.41421L10.1716 8H11V6ZM9 4L10.4142 2.58579L9.82843 2H9V4ZM0 6V18H4V6H0ZM4 22H20V18H4V22ZM24 18V8H20V18H24ZM20 4H11V8H20V4ZM12.4142 4.58579L10.4142 2.58579L7.58579 5.41421L9.58579 7.41421L12.4142 4.58579ZM9 2H4V6H9V2ZM24 8C24 5.79086 22.2091 4 20 4V8H24ZM20 22C22.2091 22 24 20.2091 24 18H20V22ZM0 18C0 20.2091 1.79086 22 4 22V18H0ZM4 6H4V2C1.79086 2 0 3.79086 0 6H4Z" fill="#555770" mask="url(#path-1-inside-1_402_15291)"/>
</svg>
