<svg width="24" height="24" viewBox="0 0 24 24" fill="none" xmlns="http://www.w3.org/2000/svg">
<mask id="path-1-inside-1_402_15275" fill="white">
<path d="M20 20H4C2.89543 20 2 19.1046 2 18V7V6C2 4.89543 2.89543 4 4 4H9L11 6H21C21.5523 6 22 6.44772 22 7V18C22 19.1046 21.1046 20 20 20Z"/>
</mask>
<path d="M22 6H2V8H22V6ZM11 6L9.58579 7.41421L10.1716 8H11V6ZM9 4L10.4142 2.58579L9.82843 2H9V4ZM4 22H20V18H4V22ZM21 4H11V8H21V4ZM12.4142 4.58579L10.4142 2.58579L7.58579 5.41421L9.58579 7.41421L12.4142 4.58579ZM9 2H4V6H9V2ZM0 6V7H4V6H0ZM24 18V7H20V18H24ZM0 7V18H4V7H0ZM21 8C20.4477 8 20 7.55229 20 7H24C24 5.34315 22.6569 4 21 4V8ZM20 22C22.2091 22 24 20.2091 24 18H20V22ZM4 18H0C0 20.2091 1.79086 22 4 22V18ZM4 2C1.79086 2 0 3.79086 0 6H4H4V2Z" fill="#555770" mask="url(#path-1-inside-1_402_15275)"/>
<path d="M11.9074 11.7433L12 11.5283L12.0926 11.7433C12.2808 12.1804 12.6928 12.4796 13.1665 12.5236L13.3997 12.5452L13.2238 12.6997C12.8663 13.0138 12.709 13.498 12.8136 13.9622L12.8651 14.1907L12.6637 14.0711C12.2546 13.8282 11.7454 13.8282 11.3363 14.0711L11.1349 14.1907L11.1864 13.9622C11.291 13.498 11.1337 13.0138 10.7762 12.6997L10.6003 12.5452L10.8335 12.5236C11.3073 12.4796 11.7192 12.1804 11.9074 11.7433Z" stroke="#555770" stroke-width="2" stroke-linecap="round" stroke-linejoin="round"/>
</svg>
