<svg width="24" height="24" viewBox="0 0 24 24" fill="none" xmlns="http://www.w3.org/2000/svg">
<path d="M12.2439 17L11.5281 17.6983L12.2439 18.432L12.9597 17.6983L12.2439 17ZM7.36585 17L6.65007 17.6983L7.36585 18.432L8.08164 17.6983L7.36585 17ZM6.16227 12.1983L11.5281 17.6983L12.9597 16.3017L7.59383 10.8017L6.16227 12.1983ZM12.9597 17.6983L22.7158 7.69832L21.2842 6.30168L11.5281 16.3017L12.9597 17.6983ZM1.28422 12.1983L6.65007 17.6983L8.08164 16.3017L2.71578 10.8017L1.28422 12.1983ZM8.08164 17.6983L8.77333 16.9893L7.34176 15.5927L6.65007 16.3017L8.08164 17.6983ZM12.2642 13.4112L17.8377 7.69832L16.4062 6.30168L10.8326 12.0146L12.2642 13.4112Z" fill="#28293D"/>
</svg>
