<svg width="24" height="24" viewBox="0 0 24 24" fill="none" xmlns="http://www.w3.org/2000/svg">
<mask id="mask0_402_16205" style="mask-type:alpha" maskUnits="userSpaceOnUse" x="3" y="3" width="18" height="18">
<path d="M3 3H5V21H3V3Z" fill="white"/>
<path d="M11 15H13V17H11V15Z" fill="white"/>
<path d="M7 11H9V13H7V11Z" fill="white"/>
<path d="M11 11H13V13H11V11Z" fill="white"/>
<path d="M15 11H17V13H15V11Z" fill="white"/>
<path d="M11 7H13V9H11V7Z" fill="white"/>
<path d="M5 3H19V5H5V3Z" fill="white"/>
<path d="M5 19H19V21H5V19Z" fill="white"/>
<path d="M19 3H21V21H19V3Z" fill="white"/>
</mask>
<g mask="url(#mask0_402_16205)">
<path d="M20 11H13V4H20V11ZM11 4V11H4V4H11ZM4 13H11V20H4V13ZM13 13H20V20H13V13Z" stroke="#28293D" stroke-width="2"/>
</g>
</svg>
