<svg width="24" height="24" viewBox="0 0 24 24" fill="none" xmlns="http://www.w3.org/2000/svg">
<path d="M3 20H21" stroke="#28293D" stroke-width="2"/>
<path d="M16.8305 9.79091L17.6906 10.3011C17.8259 10.073 17.8651 9.80048 17.7995 9.5435C17.7338 9.28653 17.5688 9.06615 17.3407 8.93085L16.8305 9.79091ZM12.8589 16.4864L12.3487 17.3465C12.8237 17.6282 13.4372 17.4716 13.7189 16.9966L12.8589 16.4864ZM4.39746 11.4672L3.53739 10.957C3.25563 11.432 3.41228 12.0455 3.88728 12.3273L4.39746 11.4672ZM4.74693 3.78579L7.85895 5.6318L8.87931 3.91166L5.76729 2.06565L4.74693 3.78579ZM7.85895 5.6318L16.3204 10.651L17.3407 8.93085L8.87931 3.91166L7.85895 5.6318ZM13.7189 16.9966L17.6906 10.3011L15.9705 9.28073L11.9988 15.9762L13.7189 16.9966ZM3.88728 12.3273L12.3487 17.3465L13.369 15.6263L4.90764 10.6072L3.88728 12.3273ZM5.25753 11.9774L9.2292 5.28191L7.50906 4.26155L3.53739 10.957L5.25753 11.9774Z" fill="#28293D"/>
<path d="M14.7617 10.2031L6.63281 11.0117L12.2617 14.3555L14.7617 10.2031Z" fill="#28293D"/>
<path d="M20.5831 13.8217C20.5831 14.7886 19.7993 15.5725 18.8323 15.5725C17.8654 15.5725 17.0815 14.7886 17.0815 13.8217C17.0815 12.8548 18.8323 10.9237 18.8323 10.9237C18.8323 10.9237 20.5831 12.8548 20.5831 13.8217Z" fill="#28293D"/>
</svg>
