<svg width="24" height="24" viewBox="0 0 24 24" fill="none" xmlns="http://www.w3.org/2000/svg">
<mask id="mask0_402_13867" style="mask-type:alpha" maskUnits="userSpaceOnUse" x="0" y="0" width="24" height="24">
<path d="M21.5033 21.5L0.00325155 0L0 24H24V0H5.69812V3.57552L22.645 20.5233L21.5033 21.5Z" fill="white"/>
</mask>
<g mask="url(#mask0_402_13867)">
<path d="M2.5 3L21 21.5" stroke="#555770" stroke-width="1.5"/>
<path d="M6 22.6L18 22.6L18 21.4L6 21.4L6 22.6ZM19.6 21L19.6 4L18.4 4L18.4 21L19.6 21ZM4.4 4L4.4 21L5.6 21L5.6 4L4.4 4ZM18 2.4L15.5 2.4L15.5 3.6L18 3.6L18 2.4ZM8.5 2.4L6 2.4L6 3.6L8.5 3.6L8.5 2.4ZM19.6 4C19.6 3.11634 18.8837 2.4 18 2.4L18 3.6C18.2209 3.6 18.4 3.77909 18.4 4L19.6 4ZM18 22.6C18.8837 22.6 19.6 21.8837 19.6 21L18.4 21C18.4 21.2209 18.2209 21.4 18 21.4L18 22.6ZM6 21.4C5.77909 21.4 5.6 21.2209 5.6 21L4.4 21C4.4 21.8837 5.11634 22.6 6 22.6L6 21.4ZM5.6 4C5.6 3.77909 5.77909 3.6 6 3.6L6 2.4C5.11634 2.4 4.4 3.11634 4.4 4L5.6 4Z" fill="#555770"/>
<path d="M10.2676 2.6H10.6136L10.7869 2.30044C11.0299 1.88041 11.4826 1.6 12 1.6C12.5174 1.6 12.9701 1.88041 13.2131 2.30044L13.3864 2.6H13.7324H15.4V5.4H8.6V2.6H10.2676Z" stroke="#555770" stroke-width="1.2"/>
</g>
</svg>
