<svg width="24" height="24" viewBox="0 0 24 24" fill="none" xmlns="http://www.w3.org/2000/svg">
<mask id="mask0_402_13905" style="mask-type:alpha" maskUnits="userSpaceOnUse" x="3" y="3" width="18" height="18">
<path d="M3 3H5V21H3V3Z" fill="white"/>
<path d="M11.3984 15H12.6016V17H11.3984V15Z" fill="white"/>
<path d="M7 11H9V13H7V11Z" fill="white"/>
<path d="M11.3984 11H12.6016V13H11.3984V11Z" fill="white"/>
<path d="M15 11H17V13H15V11Z" fill="white"/>
<path d="M11.3984 7H12.6016V9H11.3984V7Z" fill="white"/>
<path d="M5 3H19V5H5V3Z" fill="white"/>
<path d="M5 19H19V21H5V19Z" fill="white"/>
<path d="M19 3H21V21H19V3Z" fill="white"/>
</mask>
<g mask="url(#mask0_402_13905)">
<path d="M20.4 11.4H12.6V3.6H20.4V11.4ZM11.4 3.6V11.4H3.6V3.6H11.4ZM3.6 12.6H11.4V20.4H3.6V12.6ZM12.6 12.6H20.4V20.4H12.6V12.6Z" stroke="#555770" stroke-width="1.2"/>
</g>
</svg>
