<svg width="24" height="24" viewBox="0 0 24 24" fill="none" xmlns="http://www.w3.org/2000/svg">
<mask id="mask0_402_13902" style="mask-type:alpha" maskUnits="userSpaceOnUse" x="3" y="3" width="18" height="18">
<path d="M3 3H5V11H4.19922V13H5V19H3V3Z" fill="white"/>
<path d="M3 19H5V21H3V19Z" fill="white"/>
<path d="M19.7973 15H21V17H19.7973V15Z" fill="white"/>
<path d="M19.7973 11H21V13H19.7973V11Z" fill="white"/>
<path d="M19.7973 7H21V9H19.7973V7Z" fill="white"/>
<path d="M7 3H9V4.19922H7V3Z" fill="white"/>
<path d="M11 3H13V4.19922H11V3Z" fill="white"/>
<path d="M15 3H17V4.19922H15V3Z" fill="white"/>
<path d="M19 3H21V5H19V3Z" fill="white"/>
<path d="M5 19H11V19.8008H13V19H21V21H5V19Z" fill="white"/>
</mask>
<g mask="url(#mask0_402_13902)">
<path d="M20.4 11.4H12.6V3.6H20.4V11.4ZM11.4 3.6V11.4H3.6V3.6H11.4ZM3.6 12.6H11.4V20.4H3.6V12.6ZM12.6 12.6H20.4V20.4H12.6V12.6Z" stroke="#555770" stroke-width="1.2"/>
</g>
</svg>
