<svg width="24" height="24" viewBox="0 0 24 24" fill="none" xmlns="http://www.w3.org/2000/svg">
<mask id="mask0_402_13899" style="mask-type:alpha" maskUnits="userSpaceOnUse" x="3" y="3" width="18" height="18">
<path d="M21 21H19V13.0055H19.8002V10.9999H19V5H21V21Z" fill="white"/>
<path d="M21 5H19V3H21V5Z" fill="white"/>
<path d="M4.19531 9H3V7H4.19531V9Z" fill="white"/>
<path d="M4.19531 13H3V11H4.19531V13Z" fill="white"/>
<path d="M4.19531 17H3V15H4.19531V17Z" fill="white"/>
<path d="M17 21H15V19.7969H17V21Z" fill="white"/>
<path d="M13 21H11V19.7969H13V21Z" fill="white"/>
<path d="M9 21H7V19.7969H9V21Z" fill="white"/>
<path d="M5 21H3V19H5V21Z" fill="white"/>
<path d="M19 5H13.0044V4.19922H11V5H3V3H19V5Z" fill="white"/>
</mask>
<g mask="url(#mask0_402_13899)">
<path d="M20.4 11.4H12.6V3.6H20.4V11.4ZM11.4 3.6V11.4H3.6V3.6H11.4ZM3.6 12.6H11.4V20.4H3.6V12.6ZM12.6 12.6H20.4V20.4H12.6V12.6Z" stroke="#555770" stroke-width="1.2"/>
</g>
</svg>
