<svg width="24" height="24" viewBox="0 0 24 24" fill="none" xmlns="http://www.w3.org/2000/svg">
<mask id="mask0_402_13896" style="mask-type:alpha" maskUnits="userSpaceOnUse" x="3" y="3" width="18" height="18">
<path d="M3 3H5V5H3V3Z" fill="white"/>
<path d="M3 19H5V21H3V19Z" fill="white"/>
<path d="M3 15H5V17H3V15Z" fill="white"/>
<path d="M11.4102 15H12.6016V17H11.4102V15Z" fill="white"/>
<path d="M19 15H21V17H19V15Z" fill="white"/>
<path d="M3 11.3984H4.49368V11H19.457V11.3984H21V12.6016H19.457V13H4.49368V12.6016H3V11.3984Z" fill="white"/>
<path d="M3 7H5V9H3V7Z" fill="white"/>
<path d="M11.3984 7H12.6016V9H11.3984V7Z" fill="white"/>
<path d="M19 7H21V9H19V7Z" fill="white"/>
<path d="M7 3H9V5H7V3Z" fill="white"/>
<path d="M7 19H9V21H7V19Z" fill="white"/>
<path d="M11.3984 3H12.6016V5H11.3984V3Z" fill="white"/>
<path d="M11.4102 19H12.6016V21H11.4102V19Z" fill="white"/>
<path d="M15 3H17V5H15V3Z" fill="white"/>
<path d="M15 19H17V21H15V19Z" fill="white"/>
<path d="M19 3H21V5H19V3Z" fill="white"/>
<path d="M19 19H21V21H19V19Z" fill="white"/>
</mask>
<g mask="url(#mask0_402_13896)">
<path d="M20.4 11.4H12.6V3.6H20.4V11.4ZM11.4 3.6V11.4H3.6V3.6H11.4ZM3.6 12.6H11.4V20.4H3.6V12.6ZM12.6 12.6H20.4V20.4H12.6V12.6Z" stroke="#555770" stroke-width="1.2"/>
</g>
</svg>
