<svg width="24" height="24" viewBox="0 0 24 24" fill="none" xmlns="http://www.w3.org/2000/svg">
<mask id="mask0_402_13878" style="mask-type:alpha" maskUnits="userSpaceOnUse" x="3" y="3" width="18" height="18">
<path d="M21 21L19 21L19 3.5L21 3.5L21 21Z" fill="white"/>
<path d="M21 3.5L19 3.5L19 3L21 3L21 3.5Z" fill="white"/>
<path d="M12.5977 9L11.4023 9L11.4023 7L12.5977 7L12.5977 9Z" fill="white"/>
<path d="M5 9L3 9L3 7L5 7L5 9Z" fill="white"/>
<path d="M17 13L15 13L15 11L17 11L17 13Z" fill="white"/>
<path d="M12.5977 13L11.4023 13L11.4023 11L12.5977 11L12.5977 13Z" fill="white"/>
<path d="M9 13L7 13L7 11L9 11L9 13Z" fill="white"/>
<path d="M5 12.5967L3 12.5967L3 11.4024L5 11.4024L5 12.5967Z" fill="white"/>
<path d="M12.5977 17L11.4023 17L11.4023 15L12.5977 15L12.5977 17Z" fill="white"/>
<path d="M5 17L3 17L3 15L5 15L5 17Z" fill="white"/>
<path d="M17 21L15 21L15 19L17 19L17 21Z" fill="white"/>
<path d="M17 5L15 5L15 3L17 3L17 5Z" fill="white"/>
<path d="M12.5977 21L11.4023 21L11.4023 19L12.5977 19L12.5977 21Z" fill="white"/>
<path d="M12.5977 5L11.4023 5L11.4023 3L12.5977 3L12.5977 5Z" fill="white"/>
<path d="M9 21L7 21L7 19L9 19L9 21Z" fill="white"/>
<path d="M9 5L7 5L7 3L9 3L9 5Z" fill="white"/>
<path d="M5 21L3 21L3 19L5 19L5 21Z" fill="white"/>
<path d="M5 5L3 5L3 3L5 3L5 5Z" fill="white"/>
</mask>
<g mask="url(#mask0_402_13878)">
<path d="M20.4 11.4H12.6V3.6H20.4V11.4ZM11.4 3.6V11.4H3.6V3.6H11.4ZM3.6 12.6H11.4V20.4H3.6V12.6ZM12.6 12.6H20.4V20.4H12.6V12.6Z" stroke="#555770" stroke-width="1.2"/>
</g>
</svg>
