<svg width="24" height="24" viewBox="0 0 24 24" fill="none" xmlns="http://www.w3.org/2000/svg">
<path d="M5 6.99995V5.99995C5 5.99995 5 4.03777 11.8024 4.00049C11.2921 4.88289 11 5.90731 11 6.99995M5 6.99995V12M5 6.99995H11M5 12V18C5 18.5522 5.44772 19 6 19M5 12H13.6822M6 19V20.9C6 20.9552 6.04477 21 6.1 21H6.9C6.95523 21 7 20.9552 7 20.9V19M6 19H7M7 19H17M17 19V20.9C17 20.9552 17.0448 21 17.1 21H17.9C17.9552 21 18 20.9552 18 20.9V19M17 19H18M18 19C18.5523 19 19 18.5522 19 18V12.6585C18.3744 12.8796 17.7013 13 17 13C15.7733 13 14.6325 12.6318 13.6822 12M11 6.99995C11 9.08692 12.0655 10.925 13.6822 12" stroke="#555770" stroke-width="2"/>
<path d="M17 3.5V7L19.5 9.5M23 7C23 3.68629 20.3137 1 17 1C14.7789 1 12.8397 2.20684 11.8024 4.00054C11.2921 4.88294 11 5.90736 11 7C11 9.08697 12.0655 10.9251 13.6822 12C14.6325 12.6318 15.7733 13 17 13C17.7013 13 18.3744 12.8797 19 12.6586C21.3304 11.8349 23 9.61244 23 7Z" stroke="#3E7BFA" stroke-width="2"/>
<path d="M10 15.5C10 16.3284 9.32843 17 8.5 17C7.67157 17 7 16.3284 7 15.5C7 14.6716 7.67157 14 8.5 14C9.32843 14 10 14.6716 10 15.5Z" fill="#3E7BFA"/>
<path d="M17 15.5C17 16.3284 16.3284 17 15.5 17C14.6716 17 14 16.3284 14 15.5C14 14.6716 14.6716 14 15.5 14C16.3284 14 17 14.6716 17 15.5Z" fill="#3E7BFA"/>
</svg>
