<svg width="24" height="24" viewBox="0 0 24 24" fill="none" xmlns="http://www.w3.org/2000/svg">
<path d="M5 7V6C5 6 5 4 12 4C19 4 19 6 19 6V7M5 7H19M5 7V12M19 7V12M19 12V18C19 18.5523 18.5523 19 18 19V19M19 12H5M5 12V18C5 18.5523 5.44772 19 6 19V19M6 19V20.9C6 20.9552 6.04477 21 6.1 21H6.9C6.95523 21 7 20.9552 7 20.9V19M6 19H7M7 19H17M17 19V20.9C17 20.9552 17.0448 21 17.1 21H17.9C17.9552 21 18 20.9552 18 20.9V19M17 19H18" stroke="#555770" stroke-width="2"/>
<path d="M10 15.5C10 16.3284 9.32843 17 8.5 17C7.67157 17 7 16.3284 7 15.5C7 14.6716 7.67157 14 8.5 14C9.32843 14 10 14.6716 10 15.5Z" fill="#3E7BFA"/>
<path d="M17 15.5C17 16.3284 16.3284 17 15.5 17C14.6716 17 14 16.3284 14 15.5C14 14.6716 14.6716 14 15.5 14C16.3284 14 17 14.6716 17 15.5Z" fill="#3E7BFA"/>
</svg>
