<svg width="24" height="24" viewBox="0 0 24 24" fill="none" xmlns="http://www.w3.org/2000/svg">
<path d="M4.33333 14L5.88604 9.34189C5.95409 9.13772 6.14516 9 6.36038 9H17.6396C17.8548 9 18.0459 9.13771 18.114 9.34189L19.6667 14M4.33333 14L4 15V22.8C4 22.9105 4.08954 23 4.2 23H4.8C4.91046 23 5 22.9105 5 22.8V21H19V22.8C19 22.9105 19.0895 23 19.2 23H19.8C19.9105 23 20 22.9105 20 22.8V15L19.6667 14M4.33333 14H19.6667" stroke="#555770" stroke-width="2"/>
<path d="M9 17.5C9 18.3284 8.32843 19 7.5 19C6.67157 19 6 18.3284 6 17.5C6 16.6716 6.67157 16 7.5 16C8.32843 16 9 16.6716 9 17.5Z" fill="#3E7BFA"/>
<path d="M18 17.5C18 18.3284 17.3284 19 16.5 19C15.6716 19 15 18.3284 15 17.5C15 16.6716 15.6716 16 16.5 16C17.3284 16 18 16.6716 18 17.5Z" fill="#3E7BFA"/>
<path d="M7.66732 4.26316C7.66732 4.6701 7.36884 5 7.00065 5C6.63246 5 6.33398 4.6701 6.33398 4.26316C6.33398 3.85621 7.00065 3 7.00065 3C7.00065 3 7.66732 3.85621 7.66732 4.26316Z" stroke="#3E7BFA" stroke-width="2"/>
<path d="M12.6668 4.26316C12.6668 4.6701 12.3683 5 12.0001 5C11.6319 5 11.3335 4.6701 11.3335 4.26316C11.3335 3.85621 12.0001 3 12.0001 3C12.0001 3 12.6668 3.85621 12.6668 4.26316Z" stroke="#3E7BFA" stroke-width="2"/>
<path d="M17.6684 4.26316C17.6684 4.6701 17.3699 5 17.0017 5C16.6336 5 16.3351 4.6701 16.3351 4.26316C16.3351 3.85621 17.0017 3 17.0017 3C17.0017 3 17.6684 3.85621 17.6684 4.26316Z" stroke="#3E7BFA" stroke-width="2"/>
</svg>
