<svg width="24" height="24" viewBox="0 0 24 24" fill="none" xmlns="http://www.w3.org/2000/svg">
<path d="M10 18V17H9.58962L9.29754 17.2883L10 18ZM7 20.9805L6.29289 20.2734L6 20.5663V20.9805H7ZM17 20.9805H18V20.5663L17.7071 20.2734L17 20.9805ZM14 18L14.7025 17.2883L14.4104 17H14V18ZM7 21H6V22H7V21ZM17 21V22H18V21H17ZM8.5 19.4805L7.79753 18.7687L7.79289 18.7734L8.5 19.4805ZM15.5 19.4805L16.2071 18.7733L16.2025 18.7687L15.5 19.4805ZM10 19H14V17H10V19ZM6 20.9805V21H8V20.9805H6ZM7 22H17V20H7V22ZM18 21V20.9805H16V21H18ZM9.29754 17.2883L7.79754 18.7687L9.20246 20.1922L10.7025 18.7117L9.29754 17.2883ZM7.79289 18.7734L6.29289 20.2734L7.70711 21.6876L9.20711 20.1876L7.79289 18.7734ZM17.7071 20.2734L16.2071 18.7734L14.7929 20.1876L16.2929 21.6876L17.7071 20.2734ZM16.2025 18.7687L14.7025 17.2883L13.2975 18.7117L14.7975 20.1922L16.2025 18.7687ZM8.5 20.4805H15.5V18.4805H8.5V20.4805Z" fill="#3E7BFA"/>
<path d="M5 5C6 5 6 5.0017 5.99999 5.0034C5.99999 5.00396 5.99998 5.00566 5.99998 5.00677C5.99996 5.00901 5.99994 5.01122 5.99991 5.01341C5.99985 5.0178 5.99976 5.0221 5.99964 5.02632C5.99941 5.03475 5.99906 5.04285 5.99862 5.05062C5.99775 5.06617 5.99649 5.08042 5.99497 5.09342C5.99193 5.11948 5.98787 5.14039 5.98381 5.1566C5.97545 5.19004 5.96791 5.20035 5.97315 5.19137C5.98075 5.17836 6.06128 5.04531 6.37114 4.86824C7.02113 4.49682 8.56246 4 12 4V2C8.43754 2 6.47887 2.50318 5.37886 3.13176C4.81372 3.45469 4.45675 3.82164 4.2456 4.18363C4.14146 4.36215 4.07923 4.52871 4.04353 4.67153C4.0258 4.74243 4.0149 4.80631 4.00845 4.86166C4.00522 4.88931 4.00311 4.91478 4.0018 4.9379C4.00115 4.94946 4.0007 4.96043 4.00041 4.97078C4.00027 4.97596 4.00017 4.98099 4.0001 4.98586C4.00006 4.98829 4.00004 4.99069 4.00002 4.99305C4.00002 4.99422 4.00001 4.99597 4.00001 4.99655C4 4.99828 4 5 5 5ZM19 5C20 5 20 4.99828 20 4.99655C20 4.99597 20 4.99422 20 4.99305C20 4.99069 19.9999 4.98829 19.9999 4.98586C19.9998 4.98099 19.9997 4.97596 19.9996 4.97078C19.9993 4.96043 19.9988 4.94946 19.9982 4.9379C19.9969 4.91478 19.9948 4.88931 19.9916 4.86166C19.9851 4.80631 19.9742 4.74243 19.9565 4.67153C19.9208 4.52871 19.8585 4.36215 19.7544 4.18363C19.5432 3.82164 19.1863 3.45469 18.6211 3.13176C17.5211 2.50318 15.5625 2 12 2V4C15.4375 4 16.9789 4.49682 17.6289 4.86824C17.9387 5.04531 18.0193 5.17836 18.0268 5.19137C18.0321 5.20035 18.0245 5.19004 18.0162 5.1566C18.0121 5.14039 18.0081 5.11948 18.005 5.09342C18.0035 5.08042 18.0023 5.06617 18.0014 5.05062C18.0009 5.04285 18.0006 5.03475 18.0004 5.02632C18.0002 5.0221 18.0002 5.0178 18.0001 5.01341C18.0001 5.01122 18 5.00901 18 5.00677C18 5.00566 18 5.00396 18 5.0034C18 5.0017 18 5 19 5ZM6 6V5H4V6H6ZM20 6V5H18V6H20ZM5 7H19V5H5V7ZM20 16V11H18V16H20ZM20 11V6H18V11H20ZM6 16V11H4V16H6ZM6 11V6H4V11H6ZM19 10H5V12H19V10ZM7 19H10V17H7V19ZM10 19H14V17H10V19ZM14 19H17V17H14V19ZM18 16C18 16.5523 17.5523 17 17 17V19C18.6569 19 20 17.6569 20 16H18ZM4 16C4 17.6569 5.34315 19 7 19V17C6.44772 17 6 16.5523 6 16H4Z" fill="#555770"/>
<circle cx="12" cy="14.5" r="2" fill="#3E7BFA"/>
</svg>
