<svg width="24" height="24" viewBox="0 0 24 24" fill="none" xmlns="http://www.w3.org/2000/svg">
<path d="M19 15V11C19 10.4477 18.5523 10 18 10H13M19 15H13M19 15V16.5M22 18H19M19 18V16.5M19 18H12.7324M12 10H7M12 10V15M12 10H13M12 15H5V16.5M12 15H13M13 10V15M5 16.5V17C5 17.5523 5.44772 18 6 18H9.25M5 16.5H19M9 5H17" stroke="#555770" stroke-width="2"/>
<path d="M13 19C13 20.1046 12.1046 21 11 21C9.89543 21 9 20.1046 9 19C9 17.8954 9.89543 17 11 17C12.1046 17 13 17.8954 13 19Z" stroke="#3E7BFA" stroke-width="2"/>
<path d="M17 8V2L20 5L17 8Z" fill="#3E7BFA"/>
<path d="M7 13V7L4 10L7 13Z" fill="#3E7BFA"/>
</svg>
