<svg width="24" height="24" viewBox="0 0 24 24" fill="none" xmlns="http://www.w3.org/2000/svg">
<path d="M18 12V8C18 7.44772 17.5523 7 17 7H12M18 12H12M18 12V13.5M21 15H18M18 15V13.5M18 15H11.7324M11 7H5C4.44772 7 4 7.44772 4 8V12M11 7V12M11 7H12M4 12H11M4 12V13.5M11 12H12M12 7V12M4 13.5V14C4 14.5523 4.44772 15 5 15H8.25M4 13.5H18" stroke="#555770" stroke-width="2"/>
<path d="M12 16C12 17.1046 11.1046 18 10 18C8.89543 18 8 17.1046 8 16C8 14.8954 8.89543 14 10 14C11.1046 14 12 14.8954 12 16Z" stroke="#3E7BFA" stroke-width="2"/>
</svg>
