<svg width="24" height="24" viewBox="0 0 24 24" fill="none" xmlns="http://www.w3.org/2000/svg">
<path d="M15.9 4H8.1C8.04477 4 8 4.04477 8 4.1V19.9C8 19.9552 8.04477 20 8.1 20H15.9C15.9552 20 16 19.9552 16 19.9V4.1C16 4.04477 15.9552 4 15.9 4Z" stroke="#555770" stroke-width="2"/>
<path d="M13.5 7.5C13.5 8.32843 12.8284 9 12 9C11.1716 9 10.5 8.32843 10.5 7.5C10.5 6.67157 11.1716 6 12 6C12.8284 6 13.5 6.67157 13.5 7.5Z" fill="#3E7BFA"/>
<path d="M20 5C20 7.20914 18 9 17 9V5H20Z" fill="#3E7BFA"/>
<path d="M4 10C4 12.2091 6 14 7 14V10H4Z" fill="#3E7BFA"/>
<path d="M20 10C20 12.2091 18 14 17 14V10H20Z" fill="#3E7BFA"/>
<path d="M4 15C4 17.2091 6 19 7 19V15H4Z" fill="#3E7BFA"/>
<path d="M20 15C20 17.2091 18 19 17 19V15H20Z" fill="#3E7BFA"/>
<path d="M13.5 12C13.5 12.8284 12.8284 13.5 12 13.5C11.1716 13.5 10.5 12.8284 10.5 12C10.5 11.1716 11.1716 10.5 12 10.5C12.8284 10.5 13.5 11.1716 13.5 12Z" fill="#3E7BFA"/>
<path d="M13.5 16.5C13.5 17.3284 12.8284 18 12 18C11.1716 18 10.5 17.3284 10.5 16.5C10.5 15.6716 11.1716 15 12 15C12.8284 15 13.5 15.6716 13.5 16.5Z" fill="#3E7BFA"/>
<path d="M4 5C4 7.20914 6 9 7 9V5H4Z" fill="#3E7BFA"/>
</svg>
