<svg width="24" height="24" viewBox="0 0 24 24" fill="none" xmlns="http://www.w3.org/2000/svg">
<path d="M22 11L16.5 6H14M22 11V15H19.7324M22 11H14M2 11V15H4.26756M2 11V7C2 6.44772 2.44772 6 3 6H8M2 11H8M8 6V11M8 6H14M8 11H14M14 6V11M7.73244 15H16.2676" stroke="#555770" stroke-width="2"/>
<path d="M8 16C8 17.1046 7.10457 18 6 18C4.89543 18 4 17.1046 4 16C4 15.6357 4.09739 15.2942 4.26756 15C4.61337 14.4022 5.25972 14 6 14C6.74028 14 7.38663 14.4022 7.73244 15C7.90261 15.2942 8 15.6357 8 16Z" stroke="#3E7BFA" stroke-width="2"/>
<path d="M20 16C20 17.1046 19.1046 18 18 18C16.8954 18 16 17.1046 16 16C16 15.6357 16.0974 15.2942 16.2676 15C16.6134 14.4022 17.2597 14 18 14C18.7403 14 19.3866 14.4022 19.7324 15C19.9026 15.2942 20 15.6357 20 16Z" stroke="#3E7BFA" stroke-width="2"/>
</svg>
