<svg width="24" height="24" viewBox="0 0 24 24" fill="none" xmlns="http://www.w3.org/2000/svg">
<mask id="path-1-inside-1_402_15161" fill="white">
<path d="M15.0002 6.58566C15.7142 5.87166 15.7142 4.71403 15.0002 4.00003C14.2862 3.28603 13.1286 3.28603 12.4146 4.00003L15.0002 6.58566Z"/>
</mask>
<path d="M15.0002 6.58566L13.586 7.99988L15.0002 9.41409L16.4144 7.99988L15.0002 6.58566ZM12.4146 4.00003L11.0003 2.58582L9.58612 4.00003L11.0003 5.41424L12.4146 4.00003ZM13.586 5.41424C13.5189 5.3472 13.5189 5.2385 13.586 5.17145L16.4144 7.99988C17.9094 6.50483 17.9095 4.08087 16.4144 2.58582L13.586 5.41424ZM13.8288 5.41424C13.7617 5.48129 13.653 5.48129 13.586 5.41424L16.4144 2.58582C14.9193 1.09077 12.4954 1.09077 11.0003 2.58582L13.8288 5.41424ZM11.0003 5.41424L13.586 7.99988L16.4144 5.17145L13.8288 2.58582L11.0003 5.41424Z" fill="#555770" mask="url(#path-1-inside-1_402_15161)"/>
<path d="M7 13H8V12H7V13ZM7.81919 11.4263L8.58212 10.7798L8.58212 10.7798L7.81919 11.4263ZM6 14H5V15H6V14ZM3 14V13H2V14H3ZM21 14H22V13H21V14ZM15.5858 3.4142L16.2929 4.1213L16.2929 4.1213L15.5858 3.4142ZM7 6.99998V8.99998C8.10457 8.99998 9 8.10455 9 6.99998H7ZM7 6.99998H5C5 8.10455 5.89543 8.99998 7 8.99998V6.99998ZM7 6.99998V4.99998C5.89543 4.99998 5 5.89542 5 6.99998H7ZM7 6.99998H9C9 5.89542 8.10457 4.99998 7 4.99998V6.99998ZM7 12H5C5 13.1046 5.89543 14 7 14V12ZM7 12V9.99998C5.89543 9.99998 5 10.8954 5 12H7ZM7 12C7.00274 12 6.99809 12.0002 6.98911 11.9978C6.98021 11.9955 6.97421 11.9926 6.97273 11.9918C6.97151 11.9911 7.00028 12.0067 7.05625 12.0728L8.58212 10.7798C8.23897 10.3749 7.72469 9.99998 7 9.99998V12ZM7.05625 12.0728C7.44124 12.5271 8.06955 13.2071 8.71853 13.7829C9.0417 14.0696 9.39284 14.351 9.73785 14.5666C10.0433 14.7574 10.5016 15 11 15V13C11.0984 13 11.0499 13.0281 10.7976 12.8704C10.5848 12.7375 10.327 12.5363 10.0459 12.2868C9.48617 11.7903 8.92408 11.1834 8.58212 10.7798L7.05625 12.0728ZM11 13H7V15H11V13ZM5 12V14H7V12H5ZM6 15H7V13H6V15ZM20 14V19H22V14H20ZM4 19V14H2V19H4ZM5 19H4V21H5V19ZM4 20V20.9H6V20H4ZM5.1 22H18.9V20H5.1V22ZM20 19H19V21H20V19ZM19 19H5V21H19V19ZM20 20.9V20H18V20.9H20ZM3 15H19V13H3V15ZM19 15H21V13H19V15ZM20 14V4.82841H18V14H20ZM14.8787 2.70709L13.7929 3.79288L15.2071 5.20709L16.2929 4.1213L14.8787 2.70709ZM20 4.82841C20 2.1557 16.7686 0.817196 14.8787 2.70709L16.2929 4.1213C16.9229 3.49134 18 3.93751 18 4.82841H20ZM18.9 22C19.5075 22 20 21.5075 20 20.9H18C18 20.4029 18.4029 20 18.9 20V22ZM4 20.9C4 21.5075 4.49248 22 5.1 22V20C5.59706 20 6 20.4029 6 20.9H4ZM2 19C2 20.1046 2.89543 21 4 21V19H2ZM20 19V21C21.1046 21 22 20.1046 22 19H20ZM8 14V13H6V14H8Z" fill="#555770"/>
</svg>
