<svg width="24" height="24" viewBox="0 0 24 24" fill="none" xmlns="http://www.w3.org/2000/svg">
<path d="M12 8V7H11V8H12ZM1 5V16H3V5H1ZM1 16V20H3V16H1ZM21 16V20H23V16H21ZM23 16V11H21V16H23ZM19 7H12V9H19V7ZM2 17H12V15H2V17ZM12 17H22V15H12V17ZM11 8V16H13V8H11ZM10 11C10 9.34315 8.65685 8 7 8V10C7.55228 10 8 10.4477 8 11H10ZM7 14C8.65685 14 10 12.6569 10 11H8C8 11.5523 7.55228 12 7 12V14ZM4 11C4 12.6569 5.34315 14 7 14V12C6.44772 12 6 11.5523 6 11H4ZM6 11C6 10.4477 6.44772 10 7 10V8C5.34315 8 4 9.34315 4 11H6ZM23 11C23 8.79086 21.2091 7 19 7V9C20.1046 9 21 9.89543 21 11H23Z" fill="#555770"/>
</svg>
