<svg width="24" height="24" viewBox="0 0 24 24" fill="none" xmlns="http://www.w3.org/2000/svg">
<mask id="path-1-inside-1_402_15170" fill="white">
<path d="M4 19L3 16H6L5 19H4Z"/>
<path d="M19 19L18 16H21L20 19H19Z"/>
</mask>
<path d="M3 16V14H0.225148L1.10263 16.6325L3 16ZM4 19L2.10263 19.6325L2.55848 21H4V19ZM5 19V21H6.44152L6.89737 19.6325L5 19ZM6 16L7.89737 16.6325L8.77485 14H6V16ZM18 16V14H15.2251L16.1026 16.6325L18 16ZM19 19L17.1026 19.6325L17.5585 21H19V19ZM20 19V21H21.4415L21.8974 19.6325L20 19ZM21 16L22.8974 16.6325L23.7749 14H21V16ZM1.10263 16.6325L2.10263 19.6325L5.89737 18.3675L4.89737 15.3675L1.10263 16.6325ZM4 21H5V17H4V21ZM6.89737 19.6325L7.89737 16.6325L4.10263 15.3675L3.10263 18.3675L6.89737 19.6325ZM6 14H3V18H6V14ZM16.1026 16.6325L17.1026 19.6325L20.8974 18.3675L19.8974 15.3675L16.1026 16.6325ZM19 21H20V17H19V21ZM21.8974 19.6325L22.8974 16.6325L19.1026 15.3675L18.1026 18.3675L21.8974 19.6325ZM21 14H18V18H21V14Z" fill="#555770" mask="url(#path-1-inside-1_402_15170)"/>
<path d="M3 16H2V17H3V16ZM21 16V17H22V16H21ZM3 17H21V15H3V17ZM22 16V12H20V16H22ZM2 12V16H4V12H2ZM5 10H4V12H5V10ZM6 11V7H4V11H6ZM6 7H12V5H6V7ZM12 10H5V12H12V10ZM11 6V11H13V6H11ZM20 10H19V12H20V10ZM19 10H12V12H19V10ZM20 11V7H18V11H20ZM18 5H12V7H18V5ZM20 7C20 5.89543 19.1046 5 18 5V7L18 7H20ZM6 7L6 7V5C4.89543 5 4 5.89543 4 7H6ZM4 12V12V10C2.89543 10 2 10.8954 2 12H4ZM22 12C22 10.8954 21.1046 10 20 10V12V12H22Z" fill="#555770"/>
</svg>
