<svg width="24" height="24" viewBox="0 0 24 24" fill="none" xmlns="http://www.w3.org/2000/svg">
<path d="M14 10.5351L14.5007 9.66952L14 10.5351ZM8.53513 16L7.66952 16.5007L8.53513 16ZM4 4V20H6V4H4ZM6 22H18V20H6V22ZM20 20V4H18V20H20ZM18 2H6V4H18V2ZM20 4C20 2.89543 19.1046 2 18 2V4V4H20ZM18 22C19.1046 22 20 21.1046 20 20H18V22ZM4 20C4 21.1046 4.89543 22 6 22V20H4ZM6 4H6V2C4.89543 2 4 2.89543 4 4H6ZM15 14C15 15.6569 13.6569 17 12 17V19C14.7614 19 17 16.7614 17 14H15ZM9 14C9 12.3431 10.3431 11 12 11V9C9.23858 9 7 11.2386 7 14H9ZM12 11C12.5481 11 13.059 11.1461 13.4993 11.4007L14.5007 9.66952C13.7643 9.24351 12.9091 9 12 9V11ZM13.4993 11.4007C14.3986 11.921 15 12.8908 15 14H17C17 12.148 15.9926 10.5325 14.5007 9.66952L13.4993 11.4007ZM12 17C10.8908 17 9.92096 16.3986 9.40073 15.4993L7.66952 16.5007C8.53254 17.9926 10.148 19 12 19V17ZM9.40073 15.4993C9.14607 15.059 9 14.5481 9 14H7C7 14.9091 7.24351 15.7643 7.66952 16.5007L9.40073 15.4993ZM13.2929 9.82802L7.82802 15.2929L9.24224 16.7071L14.7071 11.2422L13.2929 9.82802ZM11.2929 9.29289L7.29289 13.2929L8.70711 14.7071L12.7071 10.7071L11.2929 9.29289Z" fill="#555770"/>
<path d="M9 6C9 6.55228 8.55228 7 8 7C7.44772 7 7 6.55228 7 6C7 5.44772 7.44772 5 8 5C8.55228 5 9 5.44772 9 6Z" fill="#555770"/>
<path d="M12 6C12 6.55228 11.5523 7 11 7C10.4477 7 10 6.55228 10 6C10 5.44772 10.4477 5 11 5C11.5523 5 12 5.44772 12 6Z" fill="#555770"/>
</svg>
