<svg width="24" height="24" viewBox="0 0 24 24" fill="none" xmlns="http://www.w3.org/2000/svg">
<path d="M8 17H9V16H8V17ZM16 17V16H15V17H16ZM5 8L4.41876 7.18627L1.87953 9H5V8ZM12 3L12.5812 2.18627L12 1.7711L11.4188 2.18627L12 3ZM19 8V9H22.1205L19.5812 7.18627L19 8ZM2.01942 12.1961L3.01942 17.1961L4.98058 16.8039L3.98058 11.8039L2.01942 12.1961ZM4 18H8V16H4V18ZM7 17V22H9V17H7ZM3 17V22H5V17H3ZM20.0194 11.8039L19.0194 16.8039L20.9806 17.1961L21.9806 12.1961L20.0194 11.8039ZM20 16H16V18H20V16ZM15 17V22H17V17H15ZM19 17V22H21V17H19ZM13 22V8H11V22H13ZM12 7H5V9H12V7ZM5.58124 8.81373L12.5812 3.81373L11.4188 2.18627L4.41876 7.18627L5.58124 8.81373ZM11.4188 3.81373L18.4188 8.81373L19.5812 7.18627L12.5812 2.18627L11.4188 3.81373ZM19 7H12V9H19V7Z" fill="#555770"/>
</svg>
