<svg width="24" height="24" viewBox="0 0 24 24" fill="none" xmlns="http://www.w3.org/2000/svg">
<path d="M5 15H4V16H5V15ZM19 15V16H20V15H19ZM6 15V12H4V15H6ZM0 12V17H2V12H0ZM3 20H21V18H3V20ZM24 17V12H22V17H24ZM18 12V15H20V12H18ZM19 14H5V16H19V14ZM6 6H18V4H6V6ZM19 7V10H21V7H19ZM5 10V7H3V10H5ZM18 6C18.5523 6 19 6.44772 19 7H21C21 5.34315 19.6569 4 18 4V6ZM6 4C4.34315 4 3 5.34315 3 7H5C5 6.44772 5.44772 6 6 6V4ZM20 12C20 11.4477 20.4477 11 21 11V9C19.3431 9 18 10.3431 18 12H20ZM24 12C24 10.3431 22.6569 9 21 9V11C21.5523 11 22 11.4477 22 12H24ZM21 20C22.6569 20 24 18.6569 24 17H22C22 17.5523 21.5523 18 21 18V20ZM0 17C0 18.6569 1.34315 20 3 20V18C2.44772 18 2 17.5523 2 17H0ZM2 12C2 11.4477 2.44772 11 3 11V9C1.34315 9 0 10.3431 0 12H2ZM6 12C6 10.3431 4.65685 9 3 9V11C3.55228 11 4 11.4477 4 12H6Z" fill="#555770"/>
</svg>
