<svg width="24" height="24" viewBox="0 0 24 24" fill="none" xmlns="http://www.w3.org/2000/svg">
<path d="M20 9V21H22V9H20ZM20 21H4V23H20V21ZM4 21V9H2V21H4ZM5 14V16H7V14H5ZM9 20H13V18H9V20ZM17 16V14H15V16H17ZM13 10H9V12H13V10ZM18 12H19V10H18V12ZM4 9H11V7H4V9ZM4.29289 2.70711L10.2929 8.70711L11.7071 7.29289L5.70711 1.29289L4.29289 2.70711ZM11 9H13V7H11V9ZM13 9H20V7H13V9ZM13.7071 8.70711L19.7071 2.70711L18.2929 1.29289L12.2929 7.29289L13.7071 8.70711ZM17 14C17 11.7909 15.2091 10 13 10V12C14.1046 12 15 12.8954 15 14H17ZM13 20C15.2091 20 17 18.2091 17 16H15C15 17.1046 14.1046 18 13 18V20ZM5 16C5 18.2091 6.79086 20 9 20V18C7.89543 18 7 17.1046 7 16H5ZM7 14C7 12.8954 7.89543 12 9 12V10C6.79086 10 5 11.7909 5 14H7ZM4 21L4 21H2C2 22.1046 2.89543 23 4 23V21ZM20 21L20 21V23C21.1046 23 22 22.1046 22 21H20ZM22 9C22 7.89543 21.1046 7 20 7V9V9H22ZM4 9V9V7C2.89543 7 2 7.89543 2 9H4Z" fill="#555770"/>
</svg>
