<svg width="24" height="24" viewBox="0 0 24 24" fill="none" xmlns="http://www.w3.org/2000/svg">
<path d="M6 21.6H18V20.4H6V21.6ZM18 2.4H6V3.6H18V2.4ZM4.4 4V10H5.6V4H4.4ZM4.4 10V20H5.6V10H4.4ZM19.6 20V10H18.4V20H19.6ZM19.6 10V4H18.4V10H19.6ZM5 10.6H19V9.4H5V10.6ZM8.4 5V8H9.6V5H8.4ZM8.4 12V17H9.6V12H8.4ZM18 3.6C18.2209 3.6 18.4 3.77909 18.4 4H19.6C19.6 3.11634 18.8837 2.4 18 2.4V3.6ZM18 21.6C18.8837 21.6 19.6 20.8837 19.6 20H18.4C18.4 20.2209 18.2209 20.4 18 20.4V21.6ZM6 20.4C5.77909 20.4 5.6 20.2209 5.6 20H4.4C4.4 20.8837 5.11634 21.6 6 21.6V20.4ZM6 2.4C5.11635 2.4 4.4 3.11634 4.4 4H5.6C5.6 3.77909 5.77909 3.6 6 3.6V2.4Z" fill="#555770"/>
</svg>
