<svg width="24" height="24" viewBox="0 0 24 24" fill="none" xmlns="http://www.w3.org/2000/svg">
<path d="M3 13V12.4H2.4V13H3ZM21 13H21.6V12.4H21V13ZM15 6.5L15.4992 6.16717L15.4992 6.16717L15 6.5ZM19 6.5L19.4992 6.16717L19.4992 6.16717L19 6.5ZM9 11.25L9.52095 10.9523L9.52095 10.9523L9 11.25ZM12 12.4H8V13.6H12V12.4ZM2.4 13V20H3.6V13H2.4ZM21.6 20V13H20.4V20H21.6ZM7.4 13V21H8.6V13H7.4ZM8 21.6H12V20.4H8V21.6ZM11.4 13V21H12.6V13H11.4ZM12 21.6H16V20.4H12V21.6ZM15.4 13V21H16.6V13H15.4ZM16 13.6H20V12.4H16V13.6ZM20 13.6H21V12.4H20V13.6ZM16 21.6H20V20.4H16V21.6ZM19.4 13V21H20.6V13H19.4ZM3 13.6H4V12.4H3V13.6ZM12 13.6H16V12.4H12V13.6ZM4 21.6H8V20.4H4V21.6ZM3.4 13V21H4.6V13H3.4ZM20.4 20C20.4 20.2209 20.2209 20.4 20 20.4V21.6C20.8837 21.6 21.6 20.8837 21.6 20H20.4ZM2.4 20C2.4 20.8837 3.11634 21.6 4 21.6V20.4C3.77909 20.4 3.6 20.2209 3.6 20H2.4ZM13.4 3C13.4 3.49577 13.3982 4.05761 13.5393 4.69266C13.6821 5.33549 13.9645 6.02842 14.5008 6.83283L15.4992 6.16717C15.0355 5.47164 14.8179 4.91456 14.7107 4.43235C14.6018 3.94238 14.6 3.50419 14.6 3H13.4ZM14.5008 6.83283C14.9645 7.5284 15.1822 8.08548 15.2893 8.56766C15.3982 9.05762 15.4 9.49579 15.4 10H16.6C16.6 9.50421 16.6019 8.94238 16.4608 8.30734C16.3179 7.66452 16.0355 6.9716 15.4992 6.16717L14.5008 6.83283ZM17.4 3C17.4 3.49577 17.3982 4.05761 17.5393 4.69266C17.6821 5.33549 17.9645 6.02842 18.5008 6.83283L19.4992 6.16717C19.0355 5.47164 18.8179 4.91456 18.7107 4.43235C18.6018 3.94238 18.6 3.50419 18.6 3H17.4ZM18.5008 6.83283C18.9645 7.5284 19.1822 8.08548 19.2893 8.56766C19.3982 9.05762 19.4 9.49579 19.4 10H20.6C20.6 9.50421 20.6019 8.94238 20.4608 8.30734C20.3179 7.66452 20.0355 6.9716 19.4992 6.16717L18.5008 6.83283ZM7.9 5.75C7.9 6.38513 7.38513 6.9 6.75 6.9V8.1C8.04787 8.1 9.1 7.04787 9.1 5.75H7.9ZM6.75 6.9C6.11487 6.9 5.6 6.38513 5.6 5.75H4.4C4.4 7.04787 5.45213 8.1 6.75 8.1V6.9ZM5.6 5.75C5.6 5.11487 6.11487 4.6 6.75 4.6V3.4C5.45213 3.4 4.4 4.45213 4.4 5.75H5.6ZM6.75 4.6C7.38513 4.6 7.9 5.11487 7.9 5.75H9.1C9.1 4.45213 8.04787 3.4 6.75 3.4V4.6ZM5.6 11.25C5.6 10.6149 6.11487 10.1 6.75 10.1V8.9C5.45213 8.9 4.4 9.95213 4.4 11.25H5.6ZM6.75 10.1C7.04313 10.1 7.34654 10.2317 7.65732 10.5006C7.96883 10.7701 8.24994 11.1467 8.47905 11.5477L9.52095 10.9523C9.25006 10.4783 8.88941 9.97985 8.44255 9.59316C7.99495 9.20584 7.42337 8.9 6.75 8.9V10.1ZM8.47905 11.5477C8.74225 12.0083 9.0747 12.4997 9.46925 12.8833C9.85717 13.2605 10.375 13.6 11 13.6V12.4C10.825 12.4 10.5928 12.302 10.3057 12.0229C10.0253 11.7503 9.75775 11.3667 9.52095 10.9523L8.47905 11.5477ZM4.4 11.25V13H5.6V11.25H4.4ZM4 13.6H8V12.4H4V13.6Z" fill="#555770"/>
</svg>
