<svg width="24" height="24" viewBox="0 0 24 24" fill="none" xmlns="http://www.w3.org/2000/svg">
<path d="M9 20H8.4V20.6H9V20ZM15 20V20.6H15.6V20H15ZM6.6 10C6.6 7.01766 9.01766 4.6 12 4.6V3.4C8.35492 3.4 5.4 6.35492 5.4 10H6.6ZM12 4.6C14.9823 4.6 17.4 7.01766 17.4 10H18.6C18.6 6.35492 15.6451 3.4 12 3.4V4.6ZM9.30044 14.6779C7.68481 13.7434 6.6 11.998 6.6 10H5.4C5.4 12.4437 6.72839 14.5764 8.69956 15.7167L9.30044 14.6779ZM8.4 15.1973V20H9.6V15.1973H8.4ZM12 20.4C11.4826 20.4 11.0299 20.1196 10.7869 19.6996L9.7482 20.3004C10.1968 21.076 11.0369 21.6 12 21.6V20.4ZM9 20.6H10.2676V19.4H9V20.6ZM13.2131 19.6996C12.9701 20.1196 12.5174 20.4 12 20.4V21.6C12.9631 21.6 13.8032 21.076 14.2518 20.3004L13.2131 19.6996ZM13.7324 20.6H15V19.4H13.7324V20.6ZM17.4 10C17.4 11.998 16.3152 13.7434 14.6996 14.6779L15.3004 15.7167C17.2716 14.5764 18.6 12.4437 18.6 10H17.4ZM15.6 20V15.1973H14.4V20H15.6ZM10.2676 20.6H13.7324V19.4H10.2676V20.6ZM9 15.7973H15V14.5973H9V15.7973Z" fill="#555770"/>
<path d="M9 18.1H15V16.9H9V18.1ZM12.6 15V11H11.4V15H12.6ZM12.4243 10.5757L10.4243 8.57574L9.57574 9.42426L11.5757 11.4243L12.4243 10.5757ZM12.4243 11.4243L14.4243 9.42426L13.5757 8.57574L11.5757 10.5757L12.4243 11.4243Z" fill="#555770"/>
</svg>
