<svg width="24" height="24" viewBox="0 0 24 24" fill="none" xmlns="http://www.w3.org/2000/svg">
<path d="M8 17H8.6V16.4H8V17ZM16 17V16.4H15.4V17H16ZM5 8L4.65126 7.51176L3.12772 8.6H5V8ZM12 3L12.3487 2.51176L12 2.26266L11.6513 2.51176L12 3ZM19 8V8.6H20.8723L19.3487 7.51176L19 8ZM2.41165 12.1177L3.41165 17.1177L4.58835 16.8823L3.58835 11.8823L2.41165 12.1177ZM4 17.6H8V16.4H4V17.6ZM7.4 17V22H8.6V17H7.4ZM3.4 17V22H4.6V17H3.4ZM20.4117 11.8823L19.4117 16.8823L20.5883 17.1177L21.5883 12.1177L20.4117 11.8823ZM20 16.4H16V17.6H20V16.4ZM15.4 17V22H16.6V17H15.4ZM19.4 17V22H20.6V17H19.4ZM12.6 22V8H11.4V22H12.6ZM12 7.4H5V8.6H12V7.4ZM5.34874 8.48824L12.3487 3.48824L11.6513 2.51176L4.65126 7.51176L5.34874 8.48824ZM11.6513 3.48824L18.6513 8.48824L19.3487 7.51176L12.3487 2.51176L11.6513 3.48824ZM19 7.4H12V8.6H19V7.4Z" fill="#555770"/>
</svg>
