<svg width="24" height="24" viewBox="0 0 24 24" fill="none" xmlns="http://www.w3.org/2000/svg">
<path d="M7 2V1.4H6.50812L6.41165 1.88233L7 2ZM5 12L4.41165 11.8823L4.26812 12.6H5V12ZM7.5 15V14.4H6.9V15H7.5ZM7.5 16H6.9V16.6H7.5V16ZM9 22L8.40816 22.0986L8.49172 22.6H9V22ZM17 2L17.5883 1.88233L17.4919 1.4H17V2ZM19 12V12.6H19.7319L19.5883 11.8823L19 12ZM16.5 15H17.1V14.4H16.5V15ZM16.5 16V16.6H17.1V16H16.5ZM15 22V22.6H15.5083L15.5918 22.0986L15 22ZM6.41165 1.88233L4.41165 11.8823L5.58835 12.1177L7.58835 2.11767L6.41165 1.88233ZM5 12.6H12V11.4H5V12.6ZM11.4 12V15H12.6V12H11.4ZM12 14.4H7.5V15.6H12V14.4ZM6.9 15V16H8.1V15H6.9ZM7.5 16.6H8V15.4H7.5V16.6ZM7.40816 16.0986L8.40816 22.0986L9.59184 21.9014L8.59184 15.9014L7.40816 16.0986ZM16.4117 2.11767L18.4117 12.1177L19.5883 11.8823L17.5883 1.88233L16.4117 2.11767ZM19 11.4H12V12.6H19V11.4ZM12 15.6H16.5V14.4H12V15.6ZM15.9 15V16H17.1V15H15.9ZM16.5 15.4H16V16.6H16.5V15.4ZM15.4082 15.9014L14.4082 21.9014L15.5918 22.0986L16.5918 16.0986L15.4082 15.9014ZM8 16.6H16V15.4H8V16.6ZM9 22.6H15V21.4H9V22.6ZM7 2.6H17V1.4H7V2.6Z" fill="#555770"/>
</svg>
