<svg width="24" height="24" viewBox="0 0 24 24" fill="none" xmlns="http://www.w3.org/2000/svg">
<path d="M20.4 9V21H21.6V9H20.4ZM20 21.4H4V22.6H20V21.4ZM3.6 21V9H2.4V21H3.6ZM5.4 14V16H6.6V14H5.4ZM9 19.6H13V18.4H9V19.6ZM16.6 16V14H15.4V16H16.6ZM13 10.4H9V11.6H13V10.4ZM18 11.6H19V10.4H18V11.6ZM4 8.6H11V7.4H4V8.6ZM4.57574 2.42426L10.5757 8.42426L11.4243 7.57574L5.42426 1.57574L4.57574 2.42426ZM11 8.6H13V7.4H11V8.6ZM13 8.6H20V7.4H13V8.6ZM13.4243 8.42426L19.4243 2.42426L18.5757 1.57574L12.5757 7.57574L13.4243 8.42426ZM16.6 14C16.6 12.0118 14.9882 10.4 13 10.4V11.6C14.3255 11.6 15.4 12.6745 15.4 14H16.6ZM13 19.6C14.9882 19.6 16.6 17.9882 16.6 16H15.4C15.4 17.3255 14.3255 18.4 13 18.4V19.6ZM5.4 16C5.4 17.9882 7.01178 19.6 9 19.6V18.4C7.67452 18.4 6.6 17.3255 6.6 16H5.4ZM6.6 14C6.6 12.6745 7.67452 11.6 9 11.6V10.4C7.01178 10.4 5.4 12.0118 5.4 14H6.6ZM4 21.4C3.77909 21.4 3.6 21.2209 3.6 21H2.4C2.4 21.8837 3.11635 22.6 4 22.6V21.4ZM20.4 21C20.4 21.2209 20.2209 21.4 20 21.4V22.6C20.8837 22.6 21.6 21.8837 21.6 21H20.4ZM21.6 9C21.6 8.11634 20.8837 7.4 20 7.4V8.6C20.2209 8.6 20.4 8.77909 20.4 9H21.6ZM3.6 9C3.6 8.77909 3.77909 8.6 4 8.6V7.4C3.11634 7.4 2.4 8.11635 2.4 9H3.6Z" fill="#555770"/>
</svg>
