<svg width="24" height="24" viewBox="0 0 24 24" fill="none" xmlns="http://www.w3.org/2000/svg">
<g clip-path="url(#clip0_402_12862)">
<path d="M2.47487 5.30332L2.89914 4.87906L2.27798 4.2579L1.92534 5.06246L2.47487 5.30332ZM6.01041 8.83886L5.58614 9.26312L6.01041 9.68739L6.43467 9.26312L6.01041 8.83886ZM8.83883 6.01043L9.2631 6.4347L9.68736 6.01043L9.2631 5.58617L8.83883 6.01043ZM5.3033 2.4749L5.06244 1.92536L4.25788 2.278L4.87904 2.89916L5.3033 2.4749ZM9.7228 12.5513L10.1471 12.127L9.85729 11.8372L9.48194 12.0017L9.7228 12.5513ZM12.5512 9.72283L12.0017 9.48197L11.8372 9.85731L12.127 10.1471L12.5512 9.72283ZM4.04823 10.9779C2.57982 9.50949 2.23738 7.33982 3.02441 5.54419L1.92534 5.06246C0.946568 7.29557 1.37018 9.99691 3.1997 11.8264L4.04823 10.9779ZM2.05061 5.72759L5.58614 9.26312L6.43467 8.41459L2.89914 4.87906L2.05061 5.72759ZM6.43467 9.26312L9.2631 6.4347L8.41457 5.58617L5.58614 8.41459L6.43467 9.26312ZM5.54416 3.02443C7.33979 2.2374 9.50947 2.57985 10.9779 4.04825L11.8264 3.19972C9.99689 1.37021 7.29555 0.946592 5.06244 1.92536L5.54416 3.02443ZM9.2631 5.58617L5.72756 2.05063L4.87904 2.89916L8.41457 6.4347L9.2631 5.58617ZM9.48194 12.0017C7.68631 12.7887 5.51663 12.4463 4.04823 10.9779L3.1997 11.8264C5.02922 13.6559 7.73056 14.0796 9.96366 13.1008L9.48194 12.0017ZM9.29854 12.9755L17.9605 21.6375L18.809 20.789L10.1471 12.127L9.29854 12.9755ZM20.2233 21.6375L21.6375 20.2233L20.7889 19.3747L19.3747 20.789L20.2233 21.6375ZM10.9779 4.04825C12.4463 5.51666 12.7887 7.68633 12.0017 9.48197L13.1008 9.96369C14.0795 7.73058 13.6559 5.02924 11.8264 3.19972L10.9779 4.04825ZM21.6375 17.9605L12.9755 9.29856L12.127 10.1471L20.7889 18.8091L21.6375 17.9605ZM21.6375 20.2233C22.2623 19.5984 22.2623 18.5854 21.6375 17.9605L20.7889 18.8091C20.9451 18.9653 20.9451 19.2185 20.7889 19.3747L21.6375 20.2233ZM17.9605 21.6375C18.5854 22.2623 19.5984 22.2623 20.2233 21.6375L19.3747 20.789C19.2185 20.9452 18.9652 20.9452 18.809 20.789L17.9605 21.6375Z" fill="#555770"/>
</g>
<defs>
<clipPath id="clip0_402_12862">
<rect width="24" height="24" fill="white"/>
</clipPath>
</defs>
</svg>
