<svg width="24" height="24" viewBox="0 0 24 24" fill="none" xmlns="http://www.w3.org/2000/svg">
<path d="M4 15L3.43079 14.8103L3.4 14.9026V15H4ZM5 21V20.4H4.4V21H5ZM20 15H20.6V14.9026L20.5692 14.8103L20 15ZM19 21H19.6V20.4H19V21ZM19.6667 14L20.2359 13.8103L20.2359 13.8103L19.6667 14ZM18.114 9.34189L17.5448 9.53162L18.114 9.34189ZM5.88604 9.34189L5.31683 9.15215L5.88604 9.34189ZM3.4 15V22.8H4.6V15H3.4ZM4.2 23.6H4.8V22.4H4.2V23.6ZM5.6 22.8V21H4.4V22.8H5.6ZM5.31683 9.15215L3.76412 13.8103L4.90254 14.1897L6.45525 9.53162L5.31683 9.15215ZM3.76412 13.8103L3.43079 14.8103L4.56921 15.1897L4.90254 14.1897L3.76412 13.8103ZM19.4 15V22.8H20.6V15H19.4ZM19.8 22.4H19.2V23.6H19.8V22.4ZM19.6 22.8V21H18.4V22.8H19.6ZM17.5448 9.53162L19.0975 14.1897L20.2359 13.8103L18.6832 9.15215L17.5448 9.53162ZM19.0975 14.1897L19.4308 15.1897L20.5692 14.8103L20.2359 13.8103L19.0975 14.1897ZM6.36038 9.6H17.6396V8.4H6.36038V9.6ZM5 21.6H19V20.4H5V21.6ZM4.33333 14.6H19.6667V13.4H4.33333V14.6ZM19.2 22.4C19.4209 22.4 19.6 22.5791 19.6 22.8H18.4C18.4 23.2418 18.7582 23.6 19.2 23.6V22.4ZM18.6832 9.15215C18.5334 8.70297 18.1131 8.4 17.6396 8.4V9.6C17.5966 9.6 17.5584 9.57246 17.5448 9.53162L18.6832 9.15215ZM19.4 22.8C19.4 22.5791 19.5791 22.4 19.8 22.4V23.6C20.2418 23.6 20.6 23.2418 20.6 22.8H19.4ZM4.8 23.6C5.24183 23.6 5.6 23.2418 5.6 22.8H4.4C4.4 22.5791 4.57909 22.4 4.8 22.4V23.6ZM3.4 22.8C3.4 23.2418 3.75817 23.6 4.2 23.6V22.4C4.42091 22.4 4.6 22.5791 4.6 22.8H3.4ZM6.45525 9.53162C6.44164 9.57246 6.40342 9.6 6.36038 9.6V8.4C5.88691 8.4 5.46655 8.70297 5.31683 9.15215L6.45525 9.53162Z" fill="#28293D"/>
<path d="M9 17.5C9 18.3284 8.32843 19 7.5 19C6.67157 19 6 18.3284 6 17.5C6 16.6716 6.67157 16 7.5 16C8.32843 16 9 16.6716 9 17.5Z" fill="#28293D"/>
<path d="M18 17.5C18 18.3284 17.3284 19 16.5 19C15.6716 19 15 18.3284 15 17.5C15 16.6716 15.6716 16 16.5 16C17.3284 16 18 16.6716 18 17.5Z" fill="#28293D"/>
<mask id="path-3-outside-1_402_13495" maskUnits="userSpaceOnUse" x="4.33386" y="1" width="15" height="6" fill="black">
<rect fill="white" x="4.33386" y="1" width="15" height="6"/>
<path d="M7.6672 4.26316C7.6672 4.6701 7.36872 5 7.00053 5C6.63234 5 6.33386 4.6701 6.33386 4.26316C6.33386 3.85621 7.00053 3 7.00053 3C7.00053 3 7.6672 3.85621 7.6672 4.26316Z"/>
<path d="M12.6667 4.26316C12.6667 4.6701 12.3682 5 12 5C11.6318 5 11.3333 4.6701 11.3333 4.26316C11.3333 3.85621 12 3 12 3C12 3 12.6667 3.85621 12.6667 4.26316Z"/>
<path d="M17.6683 4.26316C17.6683 4.6701 17.3698 5 17.0016 5C16.6334 5 16.335 4.6701 16.335 4.26316C16.335 3.85621 17.0016 3 17.0016 3C17.0016 3 17.6683 3.85621 17.6683 4.26316Z"/>
</mask>
<path d="M7.00053 3L7.94736 2.26277L7.00053 1.04674L6.05369 2.26277L7.00053 3ZM12 3L12.9468 2.26277L12 1.04674L11.0532 2.26277L12 3ZM17.0016 3L17.9485 2.26277L17.0016 1.04674L16.0548 2.26277L17.0016 3ZM6.4672 4.26316C6.4672 4.17293 6.50055 4.06921 6.58209 3.97909C6.66539 3.88702 6.81195 3.8 7.00053 3.8V6.2C8.14163 6.2 8.8672 5.21703 8.8672 4.26316H6.4672ZM7.00053 3.8C7.18911 3.8 7.33567 3.88702 7.41897 3.97909C7.5005 4.06921 7.53386 4.17293 7.53386 4.26316H5.13386C5.13386 5.21703 5.85942 6.2 7.00053 6.2V3.8ZM7.53386 4.26316C7.53386 4.42992 7.48284 4.49546 7.53046 4.39068C7.56195 4.32141 7.61445 4.2268 7.68291 4.11798C7.74888 4.01312 7.81693 3.91515 7.86952 3.84225C7.8954 3.80639 7.91653 3.77798 7.93047 3.75946C7.93742 3.75023 7.94252 3.74355 7.94546 3.73972C7.94692 3.73781 7.94784 3.73662 7.94817 3.73619C7.94834 3.73597 7.94836 3.73595 7.94822 3.73612C7.94816 3.73621 7.94805 3.73634 7.94791 3.73653C7.94784 3.73662 7.94776 3.73672 7.94767 3.73684C7.94762 3.7369 7.94754 3.737 7.94752 3.73702C7.94744 3.73712 7.94736 3.73723 7.00053 3C6.05369 2.26277 6.05361 2.26288 6.05352 2.263C6.05349 2.26304 6.0534 2.26315 6.05333 2.26324C6.0532 2.26341 6.05306 2.26359 6.05291 2.26379C6.0526 2.26418 6.05226 2.26462 6.05187 2.26512C6.05109 2.26612 6.05016 2.26733 6.04906 2.26875C6.04687 2.27158 6.04405 2.27525 6.04063 2.27971C6.0338 2.28862 6.02457 2.30073 6.01329 2.31571C5.99078 2.3456 5.95983 2.38727 5.9232 2.43803C5.8508 2.53839 5.75218 2.6799 5.65148 2.83997C5.55327 2.99607 5.43911 3.19181 5.34559 3.39754C5.26822 3.56775 5.13386 3.89292 5.13386 4.26316H7.53386ZM7.00053 3C6.05369 3.73723 6.05361 3.73712 6.05354 3.73702C6.05351 3.737 6.05344 3.7369 6.05339 3.73684C6.0533 3.73672 6.05322 3.73662 6.05315 3.73653C6.05301 3.73634 6.0529 3.73621 6.05283 3.73612C6.0527 3.73595 6.05272 3.73597 6.05289 3.73619C6.05322 3.73662 6.05414 3.73781 6.0556 3.73972C6.05854 3.74355 6.06363 3.75023 6.07058 3.75946C6.08453 3.77798 6.10566 3.80639 6.13153 3.84225C6.18413 3.91515 6.25218 4.01312 6.31815 4.11798C6.38661 4.2268 6.43911 4.32141 6.47059 4.39068C6.51822 4.49546 6.4672 4.42992 6.4672 4.26316H8.8672C8.8672 3.89292 8.73284 3.56775 8.65546 3.39754C8.56195 3.19181 8.44778 2.99607 8.34958 2.83997C8.24888 2.6799 8.15026 2.53839 8.07786 2.43803C8.04123 2.38727 8.01028 2.3456 7.98777 2.31571C7.97649 2.30073 7.96726 2.28862 7.96043 2.27971C7.95701 2.27525 7.95419 2.27158 7.952 2.26875C7.9509 2.26733 7.94996 2.26612 7.94919 2.26512C7.9488 2.26462 7.94846 2.26418 7.94815 2.26379C7.948 2.26359 7.94786 2.26341 7.94773 2.26324C7.94766 2.26315 7.94757 2.26304 7.94754 2.263C7.94745 2.26288 7.94736 2.26277 7.00053 3ZM11.4667 4.26316C11.4667 4.17293 11.5 4.06921 11.5816 3.97909C11.6649 3.88702 11.8114 3.8 12 3.8V6.2C13.1411 6.2 13.8667 5.21703 13.8667 4.26316H11.4667ZM12 3.8C12.1886 3.8 12.3351 3.88702 12.4184 3.97909C12.5 4.06921 12.5333 4.17293 12.5333 4.26316H10.1333C10.1333 5.21703 10.8589 6.2 12 6.2V3.8ZM12.5333 4.26316C12.5333 4.42992 12.4823 4.49546 12.5299 4.39068C12.5614 4.32141 12.6139 4.2268 12.6824 4.11798C12.7483 4.01312 12.8164 3.91515 12.869 3.84225C12.8949 3.80639 12.916 3.77798 12.9299 3.75946C12.9369 3.75023 12.942 3.74355 12.9449 3.73972C12.9464 3.73781 12.9473 3.73662 12.9476 3.73619C12.9478 3.73597 12.9478 3.73595 12.9477 3.73612C12.9476 3.73621 12.9475 3.73634 12.9474 3.73653C12.9473 3.73662 12.9472 3.73672 12.9471 3.73684C12.9471 3.7369 12.947 3.737 12.947 3.73702C12.9469 3.73712 12.9468 3.73723 12 3C11.0532 2.26277 11.0531 2.26288 11.053 2.263C11.053 2.26304 11.0529 2.26315 11.0528 2.26324C11.0527 2.26341 11.0525 2.26359 11.0524 2.26379C11.0521 2.26418 11.0517 2.26462 11.0513 2.26512C11.0506 2.26612 11.0496 2.26733 11.0485 2.26875C11.0463 2.27158 11.0435 2.27525 11.0401 2.27971C11.0333 2.28862 11.024 2.30073 11.0128 2.31571C10.9903 2.3456 10.9593 2.38727 10.9227 2.43803C10.8503 2.53839 10.7517 2.6799 10.651 2.83997C10.5527 2.99607 10.4386 3.19181 10.3451 3.39754C10.2677 3.56775 10.1333 3.89292 10.1333 4.26316H12.5333ZM12 3C11.0532 3.73723 11.0531 3.73712 11.053 3.73702C11.053 3.737 11.0529 3.7369 11.0529 3.73684C11.0528 3.73672 11.0527 3.73662 11.0526 3.73653C11.0525 3.73634 11.0524 3.73621 11.0523 3.73612C11.0522 3.73595 11.0522 3.73598 11.0524 3.73619C11.0527 3.73662 11.0536 3.73781 11.0551 3.73972C11.058 3.74355 11.0631 3.75023 11.0701 3.75946C11.084 3.77798 11.1051 3.80639 11.131 3.84225C11.1836 3.91515 11.2517 4.01312 11.3176 4.11798C11.3861 4.2268 11.4386 4.32141 11.4701 4.39068C11.5177 4.49546 11.4667 4.42992 11.4667 4.26316H13.8667C13.8667 3.89292 13.7323 3.56775 13.6549 3.39754C13.5614 3.19181 13.4473 2.99607 13.349 2.83997C13.2483 2.6799 13.1497 2.53839 13.0773 2.43803C13.0407 2.38727 13.0097 2.3456 12.9872 2.31571C12.976 2.30073 12.9667 2.28862 12.9599 2.27971C12.9565 2.27525 12.9537 2.27158 12.9515 2.26875C12.9504 2.26733 12.9494 2.26612 12.9487 2.26512C12.9483 2.26462 12.9479 2.26418 12.9476 2.26379C12.9475 2.26359 12.9473 2.26341 12.9472 2.26324C12.9471 2.26315 12.947 2.26304 12.947 2.263C12.9469 2.26288 12.9468 2.26277 12 3ZM16.4683 4.26316C16.4683 4.17293 16.5016 4.06921 16.5832 3.97909C16.6665 3.88702 16.813 3.8 17.0016 3.8V6.2C18.1427 6.2 18.8683 5.21703 18.8683 4.26316H16.4683ZM17.0016 3.8C17.1902 3.8 17.3368 3.88702 17.4201 3.97909C17.5016 4.06921 17.535 4.17293 17.535 4.26316H15.135C15.135 5.21703 15.8605 6.2 17.0016 6.2V3.8ZM17.535 4.26316C17.535 4.42992 17.4839 4.49546 17.5316 4.39068C17.563 4.32141 17.6155 4.2268 17.684 4.11798C17.75 4.01312 17.818 3.91515 17.8706 3.84225C17.8965 3.80639 17.9176 3.77798 17.9316 3.75946C17.9385 3.75023 17.9436 3.74355 17.9465 3.73972C17.948 3.73781 17.9489 3.73662 17.9493 3.73619C17.9494 3.73598 17.9494 3.73595 17.9493 3.73612C17.9493 3.73621 17.9491 3.73634 17.949 3.73653C17.9489 3.73662 17.9488 3.73672 17.9488 3.73684C17.9487 3.7369 17.9486 3.737 17.9486 3.73702C17.9485 3.73712 17.9485 3.73723 17.0016 3C16.0548 2.26277 16.0547 2.26288 16.0546 2.263C16.0546 2.26304 16.0545 2.26315 16.0544 2.26324C16.0543 2.26341 16.0542 2.26359 16.054 2.26379C16.0537 2.26418 16.0533 2.26462 16.053 2.26512C16.0522 2.26612 16.0513 2.26733 16.0502 2.26875C16.048 2.27158 16.0451 2.27525 16.0417 2.27971C16.0349 2.28862 16.0257 2.30073 16.0144 2.31571C15.9919 2.3456 15.9609 2.38727 15.9243 2.43803C15.8519 2.53839 15.7533 2.6799 15.6526 2.83997C15.5544 2.99607 15.4402 3.19181 15.3467 3.39754C15.2693 3.56775 15.135 3.89292 15.135 4.26316H17.535ZM17.0016 3C16.0548 3.73723 16.0547 3.73712 16.0546 3.73702C16.0546 3.73699 16.0545 3.7369 16.0545 3.73684C16.0544 3.73672 16.0543 3.73662 16.0542 3.73653C16.0541 3.73634 16.054 3.73621 16.0539 3.73612C16.0538 3.73595 16.0538 3.73597 16.054 3.73619C16.0543 3.73662 16.0552 3.73781 16.0567 3.73972C16.0596 3.74355 16.0647 3.75023 16.0717 3.75946C16.0856 3.77798 16.1068 3.80639 16.1326 3.84225C16.1852 3.91515 16.2533 4.01312 16.3192 4.11798C16.3877 4.2268 16.4402 4.32141 16.4717 4.39068C16.5193 4.49546 16.4683 4.42992 16.4683 4.26316H18.8683C18.8683 3.89293 18.7339 3.56775 18.6566 3.39754C18.563 3.19181 18.4489 2.99607 18.3507 2.83997C18.25 2.6799 18.1514 2.53839 18.0789 2.43803C18.0423 2.38727 18.0114 2.3456 17.9889 2.31571C17.9776 2.30073 17.9684 2.28862 17.9615 2.27971C17.9581 2.27525 17.9553 2.27158 17.9531 2.26875C17.952 2.26733 17.9511 2.26612 17.9503 2.26512C17.9499 2.26462 17.9496 2.26418 17.9492 2.26379C17.9491 2.26359 17.949 2.26341 17.9488 2.26324C17.9488 2.26315 17.9487 2.26304 17.9486 2.263C17.9485 2.26288 17.9485 2.26277 17.0016 3Z" fill="#28293D" mask="url(#path-3-outside-1_402_13495)"/>
</svg>
