<svg width="24" height="24" viewBox="0 0 24 24" fill="none" xmlns="http://www.w3.org/2000/svg">
<path d="M13 20V20.6H13.6V20H13ZM5 20H4.4V20.6H5V20ZM6 4.6H12V3.4H6V4.6ZM13 19.4H5V20.6H13V19.4ZM12.4 5V11H13.6V5H12.4ZM12.4 11V20H13.6V11H12.4ZM5.6 20V11H4.4V20H5.6ZM5.6 11V5H4.4V11H5.6ZM13 10.4H5V11.6H13V10.4ZM12 4.6C12.2209 4.6 12.4 4.77909 12.4 5H13.6C13.6 4.11634 12.8837 3.4 12 3.4V4.6ZM6 3.4C5.11634 3.4 4.4 4.11634 4.4 5H5.6C5.6 4.77909 5.77909 4.6 6 4.6V3.4Z" fill="#28293D"/>
<path d="M20 9L20.6 8.99999L20 9ZM16 9L15.4 9L16 9ZM16 18.5H15.4H16ZM18 20.5V19.9V20.5ZM20 18.5H19.4H20ZM16 14H15.4H16ZM18.9899 9.98995C18.4432 10.5367 17.5568 10.5367 17.01 9.98995L16.1615 10.8385C17.1769 11.8538 18.8231 11.8538 19.8384 10.8385L18.9899 9.98995ZM17.01 8.01005C17.5568 7.46332 18.4432 7.46332 18.9899 8.01005L19.8384 7.16152C18.8231 6.14616 17.1769 6.14616 16.1615 7.16152L17.01 8.01005ZM19.8384 7.16152L16.2527 3.57574L15.4041 4.42426L18.9899 8.01005L19.8384 7.16152ZM18.9899 8.01005C19.2634 8.28354 19.4 8.64078 19.4 9L20.6 8.99999C20.6 8.33553 20.346 7.66908 19.8384 7.16152L18.9899 8.01005ZM19.4 9C19.4 9.35922 19.2634 9.71646 18.9899 9.98995L19.8384 10.8385C20.346 10.3309 20.6 9.66447 20.6 8.99999L19.4 9ZM19.4 9L19.4 18.5H20.6L20.6 9H19.4ZM17.01 9.98995C16.7365 9.71646 16.6 9.35922 16.6 9L15.4 9C15.4 9.66447 15.6539 10.3309 16.1615 10.8385L17.01 9.98995ZM16.6 9C16.6 8.64078 16.7365 8.28353 17.01 8.01005L16.1615 7.16152C15.6539 7.66909 15.4 8.33553 15.4 9L16.6 9ZM15 12.4H13V13.6H15V12.4ZM15.4 14L15.4 18.5H16.6V14H15.4ZM15.4 18.5C15.4 19.9359 16.564 21.1 18 21.1V19.9C17.2268 19.9 16.6 19.2732 16.6 18.5H15.4ZM19.4 18.5C19.4 19.2732 18.7732 19.9 18 19.9V21.1C19.4359 21.1 20.6 19.9359 20.6 18.5H19.4ZM15 13.6C15.2209 13.6 15.4 13.7791 15.4 14H16.6C16.6 13.1163 15.8836 12.4 15 12.4V13.6Z" fill="#28293D"/>
</svg>
