<svg width="24" height="24" viewBox="0 0 24 24" fill="none" xmlns="http://www.w3.org/2000/svg">
<path d="M12.5 9H11.5C10.9477 9 10.5 9.44772 10.5 10V14.5H13.5V10C13.5 9.44772 13.0523 9 12.5 9Z" fill="black"/>
<path d="M13.5 5.5C13.5 6.32843 12.8284 7 12 7C11.1716 7 10.5 6.32843 10.5 5.5C10.5 4.67157 11.1716 4 12 4C12.8284 4 13.5 4.67157 13.5 5.5Z" fill="black"/>
<path d="M11.5 9.6H12.5V8.4H11.5V9.6ZM22 8.4H15V9.6H22V8.4ZM8.5 8.4H1.5V9.6H8.5V8.4ZM9.9 10V14.5H11.1V10H9.9ZM9.9 14.5V22H11.1V14.5H9.9ZM12.9 10V14.5H14.1V10H12.9ZM12.9 14.5V22H14.1V14.5H12.9ZM10.5 15.1H13.5V13.9H10.5V15.1ZM12.5 9.6C12.7209 9.6 12.9 9.77909 12.9 10H14.1C14.1 9.11634 13.3837 8.4 12.5 8.4V9.6ZM11.5 8.4C10.6163 8.4 9.9 9.11634 9.9 10H11.1C11.1 9.77909 11.2791 9.6 11.5 9.6V8.4ZM12.9 5.5C12.9 5.99706 12.4971 6.4 12 6.4V7.6C13.1598 7.6 14.1 6.6598 14.1 5.5H12.9ZM12 6.4C11.5029 6.4 11.1 5.99706 11.1 5.5H9.9C9.9 6.6598 10.8402 7.6 12 7.6V6.4ZM11.1 5.5C11.1 5.00294 11.5029 4.6 12 4.6V3.4C10.8402 3.4 9.9 4.3402 9.9 5.5H11.1ZM12 4.6C12.4971 4.6 12.9 5.00294 12.9 5.5H14.1C14.1 4.3402 13.1598 3.4 12 3.4V4.6Z" fill="#28293D"/>
</svg>
