<svg width="24" height="24" viewBox="0 0 24 24" fill="none" xmlns="http://www.w3.org/2000/svg">
<path d="M5.29473 15.9252L4.7808 16.2349L5.01813 16.6288L5.4602 16.502L5.29473 15.9252ZM2.63694 11.5138L2.47032 10.9374L1.71988 11.1544L2.12301 11.8235L2.63694 11.5138ZM4.08619 11.0949L4.44698 10.6155L4.2075 10.4353L3.91957 10.5185L4.08619 11.0949ZM6.08063 12.5959L5.71984 13.0753L5.9587 13.2551L6.24606 13.1726L6.08063 12.5959ZM11.0089 11.1824L11.1744 11.7591L11.9269 11.5433L11.5229 10.8727L11.0089 11.1824ZM6.73235 4.08408L6.5627 3.50857L5.81747 3.72824L6.21841 4.39372L6.73235 4.08408ZM8.65129 3.51843L9.05225 3.07208L8.80301 2.84819L8.48164 2.94292L8.65129 3.51843ZM15.6805 9.83269L15.2795 10.279L15.5276 10.5019L15.8479 10.4089L15.6805 9.83269ZM20.9461 8.30258L21.1135 8.87875H21.1135L20.9461 8.30258ZM21.7812 11.1949L21.9467 11.7716H21.9467L21.7812 11.1949ZM22.815 9.3399L22.2374 9.50258L22.815 9.3399ZM21.5 18.4H2.5V19.6H21.5V18.4ZM5.80866 15.6156L3.15087 11.2042L2.12301 11.8235L4.7808 16.2349L5.80866 15.6156ZM2.80356 12.0902L4.25281 11.6713L3.91957 10.5185L2.47032 10.9374L2.80356 12.0902ZM3.7254 11.5743L5.71984 13.0753L6.44143 12.1165L4.44698 10.6155L3.7254 11.5743ZM6.24606 13.1726L11.1744 11.7591L10.8435 10.6056L5.91521 12.0191L6.24606 13.1726ZM11.5229 10.8727L7.24628 3.77445L6.21841 4.39372L10.495 11.492L11.5229 10.8727ZM6.90199 4.6596L8.82094 4.09395L8.48164 2.94292L6.5627 3.50857L6.90199 4.6596ZM8.25033 3.96479L15.2795 10.279L16.0814 9.38634L9.05225 3.07208L8.25033 3.96479ZM15.8479 10.4089L21.1135 8.87875L20.7787 7.72642L15.5131 9.25653L15.8479 10.4089ZM21.6158 10.6182L5.12925 15.3485L5.4602 16.502L21.9467 11.7716L21.6158 10.6182ZM22.2374 9.50258C22.3725 9.98216 22.0947 10.4807 21.6158 10.6182L21.9467 11.7716C23.0605 11.452 23.7067 10.2925 23.3925 9.17722L22.2374 9.50258ZM21.1135 8.87875C21.5964 8.73843 22.1011 9.01857 22.2374 9.50258L23.3925 9.17722C23.0754 8.05157 21.9017 7.40009 20.7787 7.72642L21.1135 8.87875Z" fill="#28293D"/>
</svg>
