<svg width="24" height="24" viewBox="0 0 24 24" fill="none" xmlns="http://www.w3.org/2000/svg">
<path d="M8.27086 8.34272L8.69513 8.76699L8.27086 8.34272ZM21.5 2.5L22.0994 2.52764L22.1297 1.87032L21.4724 1.90064L21.5 2.5ZM1.5 11.4204L0.969728 11.1396L0.762385 11.5313L1.07574 11.8446L1.5 11.4204ZM3.68207 13.6024L3.25781 14.0267L3.68207 14.451L4.10633 14.0267L3.68207 13.6024ZM12.5797 22.5L12.1554 22.9243L12.4687 23.2376L12.8604 23.0303L12.5797 22.5ZM10.3976 20.3179L9.97332 19.8937L9.54905 20.3179L9.97332 20.7422L10.3976 20.3179ZM4.76692 18.002L4.34266 17.5777L3.9184 18.002L4.34266 18.4262L4.76692 18.002ZM5.99803 19.2331L5.57377 19.6573L5.99803 20.0816L6.42229 19.6573L5.99803 19.2331ZM13.6194 10.3806C13.1738 9.935 13.1738 9.21257 13.6194 8.76699L12.7709 7.91846C11.8567 8.83267 11.8567 10.3149 12.7709 11.2291L13.6194 10.3806ZM13.6194 8.76699C14.065 8.3214 14.7874 8.3214 15.233 8.76699L16.0815 7.91846C15.1673 7.00425 13.6851 7.00425 12.7709 7.91846L13.6194 8.76699ZM8.69513 8.76699C10.6029 6.85919 12.8076 5.43207 15.1598 4.48438L14.7114 3.37132C12.2121 4.37827 9.87066 5.8944 7.8466 7.91846L8.69513 8.76699ZM15.1598 4.48438C17.203 3.66119 19.3583 3.19941 21.5276 3.09936L21.4724 1.90064C19.17 2.00682 16.8816 2.49695 14.7114 3.37132L15.1598 4.48438ZM6.0347 12.0782C6.78258 10.9043 7.66927 9.79284 8.69513 8.76699L7.8466 7.91846C6.75858 9.00648 5.81714 10.1864 5.02264 11.4335L6.0347 12.0782ZM8.55532 7.81444C7.7701 7.39163 6.47449 7.08287 5.06043 7.46325C3.62414 7.8496 2.14183 8.92568 0.969728 11.1396L2.03027 11.7011C3.07409 9.72946 4.31039 8.90766 5.37214 8.62205C6.45611 8.33047 7.43797 8.57569 7.9864 8.87101L8.55532 7.81444ZM1.07574 11.8446L3.25781 14.0267L4.10633 13.1782L1.92426 10.9961L1.07574 11.8446ZM4.10633 14.0267L5.95293 12.1801L5.10441 11.3316L3.25781 13.1782L4.10633 14.0267ZM12.7709 11.2291C13.6851 12.1433 15.1673 12.1434 16.0816 11.2292L15.2331 10.3806C14.7875 10.8262 14.065 10.8262 13.6194 10.3806L12.7709 11.2291ZM16.0816 11.2292C16.9958 10.3149 16.9957 8.83264 16.0815 7.91846L15.233 8.76699C15.6786 9.2126 15.6786 9.93508 15.2331 10.3806L16.0816 11.2292ZM16.0816 16.1534C18.1056 14.1294 19.6218 11.7879 20.6287 9.28868L19.5157 8.84023C18.568 11.1924 17.1409 13.3971 15.2331 15.3049L16.0816 16.1534ZM20.6287 9.28868C21.5031 7.11845 21.9932 4.83 22.0994 2.52764L20.9006 2.47236C20.8006 4.64169 20.3389 6.79707 19.5157 8.84023L20.6287 9.28868ZM12.5666 18.9774C13.8136 18.1829 14.9936 17.2414 16.0816 16.1534L15.2331 15.3049C14.2072 16.3307 13.0957 17.2174 11.9218 17.9653L12.5666 18.9774ZM15.129 16.0136C15.4243 16.5621 15.6696 17.5439 15.378 18.6279C15.0924 19.6896 14.2706 20.9259 12.2989 21.9697L12.8604 23.0303C15.0744 21.8582 16.1504 20.3759 16.5368 18.9396C16.9172 17.5255 16.6084 16.2299 16.1856 15.4447L15.129 16.0136ZM13.0039 22.0757L10.8218 19.8937L9.97332 20.7422L12.1554 22.9243L13.0039 22.0757ZM10.8218 20.7422L12.6684 18.8956L11.8199 18.0471L9.97332 19.8937L10.8218 20.7422ZM14.5113 4.35212L19.6479 9.48872L20.4965 8.64019L15.3598 3.50359L14.5113 4.35212ZM4.98457 12.0087L6.72479 15.7529L7.81299 15.2471L6.07277 11.503L4.98457 12.0087ZM6.84463 15.9243L8.07574 17.1554L8.92426 16.3068L7.69316 15.0757L6.84463 15.9243ZM6.84463 15.0757L4.34266 17.5777L5.19119 18.4262L7.69316 15.9243L6.84463 15.0757ZM8.24711 17.2752L11.9913 19.0154L12.4971 17.9272L8.75289 16.187L8.24711 17.2752ZM6.42229 19.6573L8.92426 17.1554L8.07574 16.3068L5.57377 18.8088L6.42229 19.6573ZM4.34266 18.4262L4.95821 19.0418L5.80674 18.1933L5.19119 17.5777L4.34266 18.4262ZM4.95821 19.0418L5.57377 19.6573L6.42229 18.8088L5.80674 18.1933L4.95821 19.0418Z" fill="#28293D"/>
</svg>
