<svg width="24" height="24" viewBox="0 0 24 24" fill="none" xmlns="http://www.w3.org/2000/svg">
<path d="M7.28351 21.5823C7.05285 21.8203 7.05872 22.2001 7.29663 22.4308C7.53454 22.6614 7.91439 22.6556 8.14506 22.4177L7.28351 21.5823ZM15.8549 22.4177C16.0856 22.6556 16.4655 22.6614 16.7034 22.4308C16.9413 22.2001 16.9472 21.8203 16.7165 21.5823L15.8549 22.4177ZM6 7.77971C6.6 7.77971 6.6 7.78069 6.6 7.78167C6.6 7.78198 6.59999 7.78296 6.59999 7.78359C6.59998 7.78487 6.59997 7.78612 6.59995 7.78735C6.59992 7.78981 6.59987 7.79218 6.59981 7.79447C6.59969 7.79904 6.59951 7.80328 6.5993 7.80718C6.59887 7.81499 6.5983 7.82148 6.59771 7.82673C6.59653 7.83724 6.59528 7.84271 6.59504 7.84371C6.59444 7.84623 6.59823 7.82866 6.61683 7.79554C6.65217 7.73266 6.75887 7.58223 7.05613 7.40588C7.66863 7.04252 9.03971 6.6 12 6.6V5.4C8.96029 5.4 7.33137 5.84733 6.44387 6.37383C5.99113 6.64241 5.72283 6.93691 5.57067 7.20772C5.49552 7.34145 5.45244 7.46291 5.42839 7.56277C5.41644 7.61242 5.40933 7.65613 5.40522 7.69272C5.40316 7.711 5.40186 7.72748 5.40107 7.74203C5.40067 7.7493 5.40041 7.75608 5.40024 7.76237C5.40015 7.76551 5.40009 7.76853 5.40006 7.77142C5.40004 7.77287 5.40002 7.77428 5.40001 7.77566C5.40001 7.77635 5.4 7.77737 5.4 7.77771C5.4 7.77871 5.4 7.77971 6 7.77971ZM18 7.77971C18.6 7.77971 18.6 7.77871 18.6 7.77771C18.6 7.77737 18.6 7.77635 18.6 7.77566C18.6 7.77428 18.6 7.77287 18.5999 7.77142C18.5999 7.76853 18.5998 7.76551 18.5998 7.76237C18.5996 7.75608 18.5993 7.7493 18.5989 7.74203C18.5981 7.72748 18.5968 7.711 18.5948 7.69272C18.5907 7.65613 18.5836 7.61242 18.5716 7.56277C18.5476 7.46291 18.5045 7.34145 18.4293 7.20772C18.2772 6.93691 18.0089 6.64241 17.5561 6.37383C16.6686 5.84733 15.0397 5.4 12 5.4V6.6C14.9603 6.6 16.3314 7.04252 16.9439 7.40588C17.2411 7.58223 17.3478 7.73266 17.3832 7.79554C17.4018 7.82866 17.4056 7.84623 17.405 7.84371C17.4047 7.84271 17.4035 7.83724 17.4023 7.82673C17.4017 7.82148 17.4011 7.81499 17.4007 7.80718C17.4005 7.80328 17.4003 7.79904 17.4002 7.79447C17.4001 7.79218 17.4001 7.78981 17.4001 7.78735C17.4 7.78612 17.4 7.78487 17.4 7.78359C17.4 7.78296 17.4 7.78198 17.4 7.78167C17.4 7.78069 17.4 7.77971 18 7.77971ZM6.6 9.5V7.77971H5.4V9.5H6.6ZM18.6 9.5V7.77971H17.4V9.5H18.6ZM18.6 17.3478V14.1188H17.4V17.3478H18.6ZM6.6 17.3478V14.1188H5.4V17.3478H6.6ZM18 13.5188H6V14.7188H18V13.5188ZM8 19.9478H10.2857V18.7478H8V19.9478ZM10.2857 19.9478H13.7143V18.7478H10.2857V19.9478ZM13.7143 19.9478H16V18.7478H13.7143V19.9478ZM9.85494 18.9302L7.28351 21.5823L8.14506 22.4177L10.7165 19.7655L9.85494 18.9302ZM16.7165 21.5823L14.1451 18.9302L13.2835 19.7655L15.8549 22.4177L16.7165 21.5823ZM7 3.1H12.5V1.9H7V3.1ZM12.5 3.1H17V1.9H12.5V3.1ZM11.906 2.41515L11.406 5.91515L12.594 6.08485L13.094 2.58485L11.906 2.41515ZM6.6 14.1188V9.5H5.4V14.1188H6.6ZM18.6 14.1188V9.5H17.4V14.1188H18.6ZM6 10.1H18V8.9H6V10.1ZM17.4 17.3478C17.4 18.121 16.7732 18.7478 16 18.7478V19.9478C17.4359 19.9478 18.6 18.7838 18.6 17.3478H17.4ZM5.4 17.3478C5.4 18.7838 6.56406 19.9478 8 19.9478V18.7478C7.2268 18.7478 6.6 18.121 6.6 17.3478H5.4Z" fill="#28293D"/>
<circle cx="12" cy="16.75" r="1.25" fill="#28293D"/>
</svg>
