<svg width="24" height="24" viewBox="0 0 24 24" fill="none" xmlns="http://www.w3.org/2000/svg">
<path d="M1.99988 16L1.39988 16L1.39987 16.6H1.99988V16ZM15.9999 5.00001H16.5999V4.40001L15.9999 4.40001V5.00001ZM21.9999 16V16.6H22.5999V16H21.9999ZM21.9999 12H22.5999V11.7828L22.4608 11.6159L21.9999 12ZM19.4999 9.00001L19.9608 8.61589L19.7809 8.40001H19.4999V9.00001ZM1.39994 5.99999L1.39988 16L2.59988 16L2.59994 6L1.39994 5.99999ZM15.9999 4.40001L2.99994 4.4L2.99994 5.6L15.9999 5.60001V4.40001ZM22.4608 11.6159L19.9608 8.61589L19.0389 9.38412L21.5389 12.3841L22.4608 11.6159ZM16.5999 9.00001V5.00001H15.3999V9.00001H16.5999ZM19.4999 8.40001H15.9999V9.60001H19.4999V8.40001ZM22.5999 13V12H21.3999V13H22.5999ZM16.5999 13V9.00001H15.3999V13H16.5999ZM21.9999 12.4H15.9999V13.6H21.9999V12.4ZM16.5999 16V14.5H15.3999V16H16.5999ZM16.5999 14.5V13H15.3999V14.5H16.5999ZM7.39988 17C7.39988 17.7732 6.77308 18.4 5.99988 18.4V19.6C7.43582 19.6 8.59988 18.4359 8.59988 17H7.39988ZM5.99988 18.4C5.22668 18.4 4.59988 17.7732 4.59988 17H3.39988C3.39988 18.4359 4.56394 19.6 5.99988 19.6V18.4ZM19.3999 17C19.3999 17.7732 18.7731 18.4 17.9999 18.4V19.6C19.4358 19.6 20.5999 18.4359 20.5999 17H19.3999ZM17.9999 18.4C17.2267 18.4 16.5999 17.7732 16.5999 17H15.3999C15.3999 18.4359 16.5639 19.6 17.9999 19.6V18.4ZM5.99988 15.6C6.51732 15.6 6.96998 15.8804 7.21295 16.3004L8.25168 15.6996C7.80303 14.924 6.963 14.4 5.99988 14.4V15.6ZM7.21295 16.3004C7.33172 16.5058 7.39988 16.744 7.39988 17H8.59988C8.59988 16.5274 8.47325 16.0826 8.25168 15.6996L7.21295 16.3004ZM7.73231 16.6H15.9999V15.4H7.73231V16.6ZM1.99988 16.6H4.26744V15.4H1.99988V16.6ZM4.59988 17C4.59988 16.744 4.66804 16.5058 4.78681 16.3004L3.74808 15.6996C3.5265 16.0826 3.39988 16.5274 3.39988 17H4.59988ZM4.78681 16.3004C5.02978 15.8804 5.48244 15.6 5.99988 15.6V14.4C5.03676 14.4 4.19673 14.924 3.74808 15.6996L4.78681 16.3004ZM16.5999 17C16.5999 16.744 16.668 16.5058 16.7868 16.3004L15.7481 15.6996C15.5265 16.0826 15.3999 16.5274 15.3999 17H16.5999ZM16.7868 16.3004C17.0298 15.8804 17.4824 15.6 17.9999 15.6V14.4C17.0368 14.4 16.1967 14.924 15.7481 15.6996L16.7868 16.3004ZM15.9999 16.6H16.2674V15.4H15.9999V16.6ZM19.7323 16.6H21.9999V15.4H19.7323V16.6ZM17.9999 15.6C18.5173 15.6 18.97 15.8804 19.213 16.3004L20.2517 15.6996C19.803 14.924 18.963 14.4 17.9999 14.4V15.6ZM19.213 16.3004C19.3317 16.5058 19.3999 16.744 19.3999 17H20.5999C20.5999 16.5274 20.4733 16.0826 20.2517 15.6996L19.213 16.3004ZM21.3999 13V16H22.5999V13H21.3999ZM2.59994 6C2.59994 5.77908 2.77903 5.6 2.99994 5.6L2.99994 4.4C2.11629 4.4 1.39994 5.11634 1.39994 5.99999L2.59994 6Z" fill="#28293D"/>
</svg>
