<svg width="24" height="24" viewBox="0 0 24 24" fill="none" xmlns="http://www.w3.org/2000/svg">
<path d="M13.1314 21.7172L21.7172 13.1314L20.8686 12.2828L12.2828 20.8686L13.1314 21.7172ZM21.7172 10.8686L13.1314 2.28284L12.2828 3.13137L20.8686 11.7172L21.7172 10.8686ZM2.28284 13.1314L10.8686 21.7172L11.7172 20.8686L3.13137 12.2828L2.28284 13.1314ZM10.8686 2.28284L2.28284 10.8686L3.13137 11.7172L11.7172 3.13137L10.8686 2.28284ZM13.1314 2.28284C12.5065 1.658 11.4935 1.658 10.8686 2.28284L11.7172 3.13137C11.8734 2.97516 12.1266 2.97516 12.2828 3.13137L13.1314 2.28284ZM21.7172 13.1314C22.342 12.5065 22.342 11.4935 21.7172 10.8686L20.8686 11.7172C21.0248 11.8734 21.0248 12.1266 20.8686 12.2828L21.7172 13.1314ZM12.2828 20.8686C12.1266 21.0248 11.8734 21.0248 11.7172 20.8686L10.8686 21.7172C11.4935 22.342 12.5065 22.342 13.1314 21.7172L12.2828 20.8686ZM3.13137 12.2828C2.97516 12.1266 2.97516 11.8734 3.13137 11.7172L2.28284 10.8686C1.658 11.4935 1.658 12.5065 2.28284 13.1314L3.13137 12.2828Z" fill="#28293D"/>
<path d="M15 10.4H10V11.6H15V10.4ZM8.4 12V15H9.6V12H8.4ZM10 10.4C9.11634 10.4 8.4 11.1163 8.4 12H9.6C9.6 11.7791 9.77909 11.6 10 11.6V10.4Z" fill="#28293D"/>
</svg>
