<svg width="24" height="24" viewBox="0 0 24 24" fill="none" xmlns="http://www.w3.org/2000/svg">
<mask id="mask0_402_12271" style="mask-type:alpha" maskUnits="userSpaceOnUse" x="0" y="0" width="24" height="24">
<path d="M20 20.5L3.5 3.99675H0V24H24V0H4V2.78777L20.8516 19.6484L20 20.5Z" fill="white"/>
</mask>
<g mask="url(#mask0_402_12271)">
<path d="M3.55566 4.90247L19.0557 20.4025" stroke="#555770" stroke-width="1.2"/>
<circle cx="12" cy="12" r="9.4" stroke="#555770" stroke-width="1.2"/>
<path d="M7 14C7.99804 15.7934 9.86346 17 12 17C13.7095 17 15.2455 16.2275 16.3024 15" stroke="#555770" stroke-width="1.2"/>
<path d="M9 11.4C8.2268 11.4 7.6 10.7732 7.6 10C7.6 9.2268 8.2268 8.6 9 8.6C9.7732 8.6 10.4 9.2268 10.4 10C10.4 10.7732 9.7732 11.4 9 11.4ZM15 11.4C14.2268 11.4 13.6 10.7732 13.6 10C13.6 9.2268 14.2268 8.6 15 8.6C15.7732 8.6 16.4 9.2268 16.4 10C16.4 10.7732 15.7732 11.4 15 11.4Z" stroke="#555770" stroke-width="1.2"/>
</g>
</svg>
