<svg width="24" height="24" viewBox="0 0 24 24" fill="none" xmlns="http://www.w3.org/2000/svg">
<circle cx="12" cy="12" r="9" stroke="#555770" stroke-width="1.2"/>
<path d="M7 14C7.99804 15.7934 9.86346 17 12 17C14.1365 17 16.002 15.7934 17 14" stroke="#555770" stroke-width="1.2"/>
<mask id="path-3-inside-1_402_12232" fill="white">
<path d="M9 12C7.89543 12 7 11.1046 7 10C7 9.63571 7.09739 9.29417 7.26756 9C7.61337 9.5978 8.25972 10 9 10C9.74028 10 10.3866 9.5978 10.7324 9C10.9026 9.29417 11 9.63571 11 10C11 11.1046 10.1046 12 9 12Z"/>
<path d="M15 12C13.8954 12 13 11.1046 13 10C13 9.63571 13.0974 9.29417 13.2676 9C13.6134 9.5978 14.2597 10 15 10C15.7403 10 16.3866 9.5978 16.7324 9C16.9026 9.29417 17 9.63571 17 10C17 11.1046 16.1046 12 15 12Z"/>
</mask>
<path d="M13.2676 9L14.3063 8.39913L13.2676 6.60348L12.2288 8.39913L13.2676 9ZM16.7324 9L17.7712 8.39913L16.7324 6.60348L15.6937 8.39913L16.7324 9ZM10.7324 9L11.7712 8.39913L10.7324 6.60348L9.69371 8.39913L10.7324 9ZM7.26756 9L8.30629 8.39913L7.26756 6.60348L6.22884 8.39913L7.26756 9ZM5.8 10C5.8 11.7673 7.23269 13.2 9 13.2V10.8C8.55817 10.8 8.2 10.4418 8.2 10H5.8ZM9 13.2C10.7673 13.2 12.2 11.7673 12.2 10H9.8C9.8 10.4418 9.44183 10.8 9 10.8V13.2ZM11.8 10C11.8 11.7673 13.2327 13.2 15 13.2V10.8C14.5582 10.8 14.2 10.4418 14.2 10H11.8ZM15 13.2C16.7673 13.2 18.2 11.7673 18.2 10H15.8C15.8 10.4418 15.4418 10.8 15 10.8V13.2ZM12.2288 9.60087C12.7803 10.5542 13.814 11.2 15 11.2V8.8C14.7054 8.8 14.4464 8.64138 14.3063 8.39913L12.2288 9.60087ZM12.2288 8.39913C11.9559 8.87103 11.8 9.41913 11.8 10H14.2C14.2 9.85229 14.2389 9.71732 14.3063 9.60087L12.2288 8.39913ZM15 11.2C16.186 11.2 17.2197 10.5542 17.7712 9.60087L15.6937 8.39913C15.5536 8.64138 15.2946 8.8 15 8.8V11.2ZM18.2 10C18.2 9.41913 18.0441 8.87103 17.7712 8.39913L15.6937 9.60087C15.7611 9.71732 15.8 9.85229 15.8 10H18.2ZM9 11.2C10.186 11.2 11.2197 10.5542 11.7712 9.60087L9.69371 8.39913C9.55357 8.64138 9.2946 8.8 9 8.8V11.2ZM12.2 10C12.2 9.41913 12.0441 8.87103 11.7712 8.39913L9.69371 9.60087C9.76107 9.71732 9.8 9.85229 9.8 10H12.2ZM6.22884 9.60087C6.78032 10.5542 7.81404 11.2 9 11.2V8.8C8.7054 8.8 8.44643 8.64138 8.30629 8.39913L6.22884 9.60087ZM6.22884 8.39913C5.95586 8.87103 5.8 9.41913 5.8 10H8.2C8.2 9.85229 8.23893 9.71732 8.30629 9.60087L6.22884 8.39913Z" fill="#555770" mask="url(#path-3-inside-1_402_12232)"/>
</svg>
