<svg width="24" height="24" viewBox="0 0 24 24" fill="none" xmlns="http://www.w3.org/2000/svg">
<circle cx="12" cy="12" r="9" stroke="#555770" stroke-width="1.2"/>
<path d="M15 16H9" stroke="#555770" stroke-width="1.2"/>
<path d="M10.9 10C10.9 11.0493 10.0493 11.9 9 11.9C7.95066 11.9 7.1 11.0493 7.1 10C7.1 8.95066 7.95066 8.1 9 8.1C10.0493 8.1 10.9 8.95066 10.9 10ZM16.9 10C16.9 11.0493 16.0493 11.9 15 11.9C13.9507 11.9 13.1 11.0493 13.1 10C13.1 8.95066 13.9507 8.1 15 8.1C16.0493 8.1 16.9 8.95066 16.9 10Z" stroke="#555770" stroke-width="1.2"/>
</svg>
