<svg width="24" height="24" viewBox="0 0 24 24" fill="none" xmlns="http://www.w3.org/2000/svg">
<path d="M3.5 3L3.96073 2.61564L3.5 2.06337L3.03927 2.61564L3.5 3ZM5.45283 5.82465L4.9246 6.10921L5.45283 5.82465ZM3.22649 9.98474L3.29342 9.38849L3.22649 9.98474ZM20.4 12C20.4 16.6392 16.6392 20.4 12 20.4V21.6C17.3019 21.6 21.6 17.3019 21.6 12H20.4ZM12 20.4C7.36081 20.4 3.6 16.6392 3.6 12H2.4C2.4 17.3019 6.69807 21.6 12 21.6V20.4ZM12 3.6C16.6392 3.6 20.4 7.36081 20.4 12H21.6C21.6 6.69807 17.3019 2.4 12 2.4V3.6ZM5.4 7.42105C5.4 8.53172 4.53189 9.4 3.5 9.4V10.6C5.22953 10.6 6.6 9.15902 6.6 7.42105H5.4ZM1.6 7.42105C1.6 7.20857 1.7033 6.85768 1.93005 6.3921C2.14734 5.94594 2.44297 5.46359 2.74753 5.01177C3.05067 4.56204 3.35497 4.15384 3.58408 3.85745C3.69841 3.70955 3.79345 3.59022 3.85954 3.50831C3.89257 3.46737 3.91833 3.43583 3.9356 3.41479C3.94424 3.40427 3.95076 3.39638 3.955 3.39127C3.95711 3.38871 3.95866 3.38684 3.95963 3.38568C3.96011 3.3851 3.96044 3.3847 3.96063 3.38448C3.96072 3.38437 3.96077 3.3843 3.96079 3.38428C3.9608 3.38427 3.96078 3.38429 3.96079 3.38429C3.96076 3.38432 3.96073 3.38436 3.5 3C3.03927 2.61564 3.03922 2.61571 3.03916 2.61578C3.03912 2.61582 3.03905 2.61591 3.03898 2.61599C3.03885 2.61615 3.03867 2.61636 3.03846 2.61661C3.03804 2.61712 3.03747 2.61781 3.03675 2.61867C3.03531 2.62041 3.03327 2.62286 3.03066 2.62602C3.02544 2.63232 3.01792 2.64144 3.00824 2.65321C2.9889 2.67677 2.96095 2.711 2.92562 2.75478C2.85499 2.84232 2.75472 2.96824 2.63467 3.12354C2.39503 3.43355 2.07433 3.86355 1.75247 4.34105C1.43203 4.81645 1.10266 5.35034 0.851198 5.86667C0.6092 6.36356 0.4 6.92138 0.4 7.42105H1.6ZM3.5 3C3.03927 3.38436 3.03925 3.38433 3.03923 3.3843C3.03922 3.3843 3.03921 3.38428 3.03921 3.38428C3.0392 3.38427 3.03922 3.38429 3.03925 3.38433C3.03931 3.38441 3.03945 3.38457 3.03966 3.38483C3.04009 3.38533 3.0408 3.38619 3.04179 3.38739C3.04378 3.38978 3.04689 3.39354 3.05109 3.39863C3.05949 3.4088 3.07219 3.42425 3.0888 3.44461C3.12202 3.48533 3.1708 3.54563 3.23185 3.62249C3.35405 3.77632 3.5249 3.99586 3.7182 4.25708C4.10763 4.78332 4.57653 5.4631 4.9246 6.10921L5.98105 5.54008C5.59337 4.82044 5.08585 4.08789 4.6828 3.54325C4.47987 3.26903 4.30047 3.03848 4.17147 2.87609C4.10693 2.79484 4.05488 2.73049 4.01867 2.6861C4.00056 2.6639 3.9864 2.64667 3.9766 2.63481C3.97171 2.62887 3.9679 2.62428 3.96524 2.62107C3.96391 2.61946 3.96286 2.6182 3.96211 2.6173C3.96173 2.61685 3.96143 2.61648 3.9612 2.6162C3.96108 2.61607 3.96098 2.61595 3.96091 2.61586C3.96087 2.61581 3.96082 2.61576 3.9608 2.61573C3.96076 2.61569 3.96073 2.61564 3.5 3ZM4.9246 6.10921C5.24095 6.69643 5.4 7.15393 5.4 7.42105H6.6C6.6 6.82711 6.30221 6.13622 5.98105 5.54008L4.9246 6.10921ZM5.88923 6.23641C7.42159 4.61238 9.59209 3.6 12 3.6V2.4C9.2482 2.4 6.76605 3.55859 5.01643 5.41288L5.88923 6.23641ZM3.6 12C3.6 11.3525 3.67315 10.7228 3.81138 10.1185L2.6416 9.85095C2.48342 10.5424 2.4 11.2618 2.4 12H3.6ZM3.5 9.4C3.42999 9.4 3.36108 9.39608 3.29342 9.38849L3.15956 10.581C3.27156 10.5936 3.38516 10.6 3.5 10.6V9.4ZM3.29342 9.38849C2.35622 9.28329 1.6 8.45603 1.6 7.42105H0.4C0.4 9.04402 1.59269 10.4051 3.15956 10.581L3.29342 9.38849Z" fill="#555770"/>
<path d="M16.3024 15L16.7571 15.3915C16.9101 15.2137 16.9455 14.9631 16.8478 14.7499C16.75 14.5367 16.5369 14.4 16.3024 14.4V15ZM7.69751 15V14.4C7.46295 14.4 7.24989 14.5367 7.15212 14.7499C7.05435 14.9631 7.08978 15.2137 7.24283 15.3915L7.69751 15ZM15.8477 14.6085C14.7917 15.8349 13.7056 16.9 12 16.9V18.1C14.2944 18.1 15.6992 16.6201 16.7571 15.3915L15.8477 14.6085ZM12 16.9C10.2944 16.9 9.20817 15.8349 8.15219 14.6085L7.24283 15.3915C8.30072 16.6201 9.70561 18.1 12 18.1V16.9ZM16.3024 14.4H7.69751V15.6H16.3024V14.4Z" fill="#555770"/>
<path d="M9 11.4C8.2268 11.4 7.6 10.7732 7.6 10C7.6 9.2268 8.2268 8.6 9 8.6C9.7732 8.6 10.4 9.2268 10.4 10C10.4 10.7732 9.7732 11.4 9 11.4ZM15 11.4C14.2268 11.4 13.6 10.7732 13.6 10C13.6 9.2268 14.2268 8.6 15 8.6C15.7732 8.6 16.4 9.2268 16.4 10C16.4 10.7732 15.7732 11.4 15 11.4Z" stroke="#555770" stroke-width="1.2"/>
</svg>
