<svg width="24" height="24" viewBox="0 0 24 24" fill="none" xmlns="http://www.w3.org/2000/svg">
<path d="M3.9998 2L4.53645 1.73166L4.16417 0.987144L3.57555 1.57572L3.9998 2ZM4.11815 7.65145L4.64324 7.94177L4.85947 7.55069L4.5467 7.23151L4.11815 7.65145ZM6.42984 4.93013L6.00553 5.35435L6.38268 5.73157L6.80146 5.40119L6.42984 4.93013ZM19.9997 2L20.4239 1.57572L19.8353 0.987079L19.463 1.73171L19.9997 2ZM19.8813 7.65145L19.4528 7.23148L19.14 7.55066L19.3563 7.94177L19.8813 7.65145ZM17.5697 4.93013L17.198 5.40119L17.6168 5.73157L17.994 5.35435L17.5697 4.93013ZM11.9997 20.4C7.36053 20.4 3.59973 16.6392 3.59973 12H2.39973C2.39973 17.3019 6.69779 21.6 11.9997 21.6V20.4ZM3.57555 1.57572C1.82734 3.32382 1.85666 6.20088 3.68961 8.07139L4.5467 7.23151C3.14306 5.79912 3.17207 3.67618 4.42406 2.42428L3.57555 1.57572ZM3.46316 2.26834C3.98158 3.30512 4.38496 3.85862 4.80781 4.28148C5.01167 4.48535 5.21384 4.65214 5.40254 4.81054C5.59412 4.97134 5.78627 5.13504 6.00553 5.35435L6.85415 4.50591C6.59638 4.24809 6.37127 4.05697 6.17404 3.89141C5.97393 3.72345 5.81573 3.59235 5.65635 3.43296C5.35271 3.12932 5.0181 2.69488 4.53645 1.73166L3.46316 2.26834ZM6.80146 5.40119C8.23159 4.27294 10.0362 3.6 11.9997 3.6V2.4C9.75705 2.4 7.69249 3.16976 6.05821 4.45907L6.80146 5.40119ZM3.59973 12C3.59973 10.527 3.97842 9.14417 4.64324 7.94177L3.59307 7.36113C2.83249 8.73672 2.39973 10.3187 2.39973 12H3.59973ZM11.9997 21.6C17.3017 21.6 21.5998 17.3019 21.5998 12H20.3998C20.3998 16.6392 16.6389 20.4 11.9997 20.4V21.6ZM19.5754 2.42428C20.8275 3.67622 20.8566 5.79914 19.4528 7.23148L20.3099 8.07142C22.1431 6.20086 22.1721 3.32378 20.4239 1.57572L19.5754 2.42428ZM19.463 1.73171C18.9815 2.6949 18.6469 3.12932 18.3433 3.43294C18.1839 3.59233 18.0257 3.72342 17.8255 3.89139C17.6283 4.05695 17.4031 4.24808 17.1453 4.50591L17.994 5.35435C18.2132 5.13505 18.4054 4.97136 18.597 4.81056C18.7857 4.65217 18.9879 4.48537 19.1918 4.2815C19.6147 3.85862 20.0181 3.3051 20.5364 2.26829L19.463 1.73171ZM17.9413 4.45907C16.307 3.16976 14.2424 2.4 11.9997 2.4V3.6C13.9632 3.6 15.7679 4.27294 17.198 5.40119L17.9413 4.45907ZM21.5998 12C21.5998 10.3187 21.167 8.73672 20.4064 7.36113L19.3563 7.94177C20.0211 9.14417 20.3998 10.527 20.3998 12H21.5998Z" fill="#555770"/>
<path d="M7 14C7.99804 15.7934 9.86346 17 12 17C14.1365 17 16.002 15.7934 17 14" stroke="#555770" stroke-width="1.2"/>
<path d="M9 11.4C8.2268 11.4 7.6 10.7732 7.6 10C7.6 9.2268 8.2268 8.6 9 8.6C9.7732 8.6 10.4 9.2268 10.4 10C10.4 10.7732 9.7732 11.4 9 11.4ZM15 11.4C14.2268 11.4 13.6 10.7732 13.6 10C13.6 9.2268 14.2268 8.6 15 8.6C15.7732 8.6 16.4 9.2268 16.4 10C16.4 10.7732 15.7732 11.4 15 11.4Z" stroke="#555770" stroke-width="1.2"/>
</svg>
