<svg width="24" height="24" viewBox="0 0 24 24" fill="none" xmlns="http://www.w3.org/2000/svg">
<circle cx="12" cy="12" r="9" stroke="#555770" stroke-width="1.2"/>
<path d="M7 14C7.99804 15.7934 9.86346 17 12 17C14.1365 17 16.002 15.7934 17 14" stroke="#555770" stroke-width="1.2"/>
<path d="M10.8812 10.1146L11.337 10.5048L11.337 10.5048L10.8812 10.1146ZM8.85 12L8.45199 12.449L8.85 12.8018L9.24801 12.449L8.85 12ZM6.81883 10.1146L6.36304 10.5048L6.36304 10.5048L6.81883 10.1146ZM17.1812 10.1146L17.637 10.5048L17.637 10.5048L17.1812 10.1146ZM15.15 12L14.752 12.449L15.15 12.8018L15.548 12.449L15.15 12ZM13.1188 10.1146L12.663 10.5048L12.663 10.5048L13.1188 10.1146ZM11.8 9.17645C11.8 8.19604 11.006 7.4 10.025 7.4V8.6C10.3419 8.6 10.6 8.85739 10.6 9.17645H11.8ZM10.025 7.4C9.044 7.4 8.25 8.19604 8.25 9.17645H9.45C9.45 8.85739 9.70813 8.6 10.025 8.6V7.4ZM11.337 10.5048C11.7761 9.99186 11.8 9.49526 11.8 9.17645H10.6C10.6 9.29737 10.5949 9.37937 10.5738 9.45812C10.5548 9.52948 10.5171 9.61726 10.4254 9.72444L11.337 10.5048ZM10.4254 9.72444C10.3059 9.86406 9.83527 10.3033 9.34909 10.7452C9.11558 10.9575 8.89118 11.1591 8.72504 11.3077C8.64201 11.3819 8.57362 11.4429 8.52605 11.4852C8.50226 11.5064 8.48369 11.5229 8.47108 11.5341C8.46478 11.5397 8.45998 11.5439 8.45676 11.5468C8.45516 11.5482 8.45395 11.5493 8.45315 11.55C8.45275 11.5504 8.45245 11.5506 8.45226 11.5508C8.45216 11.5509 8.45209 11.5509 8.45204 11.551C8.45202 11.551 8.45201 11.551 8.452 11.551C8.45199 11.551 8.45199 11.551 8.85 12C9.24801 12.449 9.24802 12.449 9.24804 12.449C9.24806 12.449 9.24808 12.4489 9.24811 12.4489C9.24817 12.4488 9.24826 12.4488 9.24837 12.4487C9.2486 12.4485 9.24893 12.4482 9.24936 12.4478C9.25023 12.447 9.25151 12.4459 9.25318 12.4444C9.25653 12.4414 9.26148 12.437 9.26792 12.4313C9.28081 12.4199 9.2997 12.4031 9.32381 12.3816C9.37202 12.3387 9.44115 12.2771 9.52503 12.2021C9.69268 12.0521 9.91962 11.8483 10.1563 11.6332C10.6104 11.2204 11.1554 10.7169 11.337 10.5048L10.4254 9.72444ZM7.1 9.17645C7.1 8.85739 7.35813 8.6 7.675 8.6V7.4C6.694 7.4 5.9 8.19604 5.9 9.17645H7.1ZM7.675 8.6C7.99187 8.6 8.25 8.85739 8.25 9.17645H9.45C9.45 8.19604 8.656 7.4 7.675 7.4V8.6ZM7.27462 9.72444C7.18286 9.61726 7.14524 9.52948 7.12618 9.45812C7.10514 9.37937 7.1 9.29737 7.1 9.17645H5.9C5.9 9.49526 5.92388 9.99186 6.36304 10.5048L7.27462 9.72444ZM6.36304 10.5048C6.5446 10.7169 7.0896 11.2204 7.54374 11.6332C7.78038 11.8483 8.00732 12.0521 8.17497 12.2021C8.25885 12.2771 8.32798 12.3387 8.37619 12.3816C8.4003 12.4031 8.41919 12.4199 8.43208 12.4313C8.43852 12.437 8.44347 12.4414 8.44682 12.4444C8.44849 12.4459 8.44977 12.447 8.45064 12.4478C8.45107 12.4482 8.4514 12.4485 8.45163 12.4487C8.45174 12.4488 8.45183 12.4488 8.45189 12.4489C8.45192 12.4489 8.45194 12.449 8.45196 12.449C8.45198 12.449 8.45199 12.449 8.85 12C9.24801 11.551 9.24801 11.551 9.248 11.551C9.24799 11.551 9.24798 11.551 9.24796 11.551C9.24791 11.5509 9.24784 11.5509 9.24774 11.5508C9.24755 11.5506 9.24725 11.5504 9.24685 11.55C9.24605 11.5493 9.24484 11.5482 9.24324 11.5468C9.24002 11.5439 9.23522 11.5397 9.22892 11.5341C9.21631 11.5229 9.19774 11.5064 9.17395 11.4852C9.12638 11.4429 9.05799 11.3819 8.97496 11.3077C8.80882 11.1591 8.58442 10.9575 8.35091 10.7452C7.86473 10.3033 7.39414 9.86406 7.27462 9.72444L6.36304 10.5048ZM18.1 9.17645C18.1 8.19604 17.306 7.4 16.325 7.4V8.6C16.6419 8.6 16.9 8.85739 16.9 9.17645H18.1ZM16.325 7.4C15.344 7.4 14.55 8.19604 14.55 9.17645H15.75C15.75 8.85739 16.0081 8.6 16.325 8.6V7.4ZM17.637 10.5048C18.0761 9.99186 18.1 9.49526 18.1 9.17645H16.9C16.9 9.29737 16.8949 9.37937 16.8738 9.45812C16.8548 9.52948 16.8171 9.61726 16.7254 9.72444L17.637 10.5048ZM16.7254 9.72444C16.6059 9.86406 16.1353 10.3033 15.6491 10.7452C15.4156 10.9575 15.1912 11.1591 15.025 11.3077C14.942 11.3819 14.8736 11.4429 14.826 11.4852C14.8023 11.5064 14.7837 11.5229 14.7711 11.5341C14.7648 11.5397 14.76 11.5439 14.7568 11.5468C14.7552 11.5482 14.7539 11.5493 14.7531 11.55C14.7527 11.5504 14.7524 11.5506 14.7523 11.5508C14.7522 11.5509 14.7521 11.5509 14.752 11.551C14.752 11.551 14.752 11.551 14.752 11.551C14.752 11.551 14.752 11.551 15.15 12C15.548 12.449 15.548 12.449 15.548 12.449C15.5481 12.449 15.5481 12.4489 15.5481 12.4489C15.5482 12.4488 15.5483 12.4488 15.5484 12.4487C15.5486 12.4485 15.5489 12.4482 15.5494 12.4478C15.5502 12.447 15.5515 12.4459 15.5532 12.4444C15.5565 12.4414 15.5615 12.437 15.5679 12.4313C15.5808 12.4199 15.5997 12.4031 15.6238 12.3816C15.672 12.3387 15.7412 12.2771 15.825 12.2021C15.9927 12.0521 16.2196 11.8483 16.4563 11.6332C16.9104 11.2204 17.4554 10.7169 17.637 10.5048L16.7254 9.72444ZM13.4 9.17645C13.4 8.85739 13.6581 8.6 13.975 8.6V7.4C12.994 7.4 12.2 8.19604 12.2 9.17645H13.4ZM13.975 8.6C14.2919 8.6 14.55 8.85739 14.55 9.17645H15.75C15.75 8.19604 14.956 7.4 13.975 7.4V8.6ZM13.5746 9.72444C13.4829 9.61726 13.4452 9.52948 13.4262 9.45812C13.4051 9.37937 13.4 9.29737 13.4 9.17645H12.2C12.2 9.49526 12.2239 9.99186 12.663 10.5048L13.5746 9.72444ZM12.663 10.5048C12.8446 10.7169 13.3896 11.2204 13.8437 11.6332C14.0804 11.8483 14.3073 12.0521 14.475 12.2021C14.5588 12.2771 14.628 12.3387 14.6762 12.3816C14.7003 12.4031 14.7192 12.4199 14.7321 12.4313C14.7385 12.437 14.7435 12.4414 14.7468 12.4444C14.7485 12.4459 14.7498 12.447 14.7506 12.4478C14.7511 12.4482 14.7514 12.4485 14.7516 12.4487C14.7517 12.4488 14.7518 12.4488 14.7519 12.4489C14.7519 12.4489 14.7519 12.449 14.752 12.449C14.752 12.449 14.752 12.449 15.15 12C15.548 11.551 15.548 11.551 15.548 11.551C15.548 11.551 15.548 11.551 15.548 11.551C15.5479 11.5509 15.5478 11.5509 15.5477 11.5508C15.5476 11.5506 15.5473 11.5504 15.5469 11.55C15.5461 11.5493 15.5448 11.5482 15.5432 11.5468C15.54 11.5439 15.5352 11.5397 15.5289 11.5341C15.5163 11.5229 15.4977 11.5064 15.4739 11.4852C15.4264 11.4429 15.358 11.3819 15.275 11.3077C15.1088 11.1591 14.8844 10.9575 14.6509 10.7452C14.1647 10.3033 13.6941 9.86406 13.5746 9.72444L12.663 10.5048Z" fill="#555770"/>
</svg>
