<svg width="24" height="24" viewBox="0 0 24 24" fill="none" xmlns="http://www.w3.org/2000/svg">
<circle cx="12" cy="12" r="9" stroke="#555770" stroke-width="1.2"/>
<path d="M7.69744 16.5C8.75438 15.2725 10.2903 14.5 11.9999 14.5C13.7094 14.5 15.2454 15.2725 16.3023 16.5" stroke="#555770" stroke-width="1.2"/>
<path d="M9 11.4C8.2268 11.4 7.6 10.7732 7.6 10C7.6 9.64331 7.73325 9.3174 7.95363 9.06974L9.93027 11.0464C9.68261 11.2668 9.3567 11.4 9 11.4ZM16.4 10C16.4 10.7732 15.7732 11.4 15 11.4C14.6433 11.4 14.3174 11.2668 14.0697 11.0464L16.0464 9.06974C16.2667 9.3174 16.4 9.64331 16.4 10Z" stroke="#555770" stroke-width="1.2"/>
</svg>
