<svg width="24" height="24" viewBox="0 0 24 24" fill="none" xmlns="http://www.w3.org/2000/svg">
<circle cx="12" cy="12" r="9" stroke="#555770" stroke-width="1.2"/>
<path d="M7 14C7.99804 15.7934 9.86346 17 12 17C14.1365 17 16.002 15.7934 17 14" stroke="#555770" stroke-width="1.2"/>
<path d="M9 11.4C8.2268 11.4 7.6 10.7732 7.6 10C7.6 9.2268 8.2268 8.6 9 8.6C9.7732 8.6 10.4 9.2268 10.4 10C10.4 10.7732 9.7732 11.4 9 11.4ZM16.4 10.1043H13.6V9.97744H13.6051H13.6126H13.6201H13.6277H13.6353H13.6429H13.6506H13.6583H13.6661H13.6738H13.6816H13.6895H13.6974H13.7053H13.7132H13.7212H13.7292H13.7372H13.7453H13.7534H13.7615H13.7697H13.7779H13.7861H13.7943H13.8026H13.8109H13.8193H13.8277H13.8361H13.8445H13.853H13.8614H13.87H13.8785H13.8871H13.8957H13.9043H13.913H13.9217H13.9304H13.9391H13.9479H13.9567H13.9655H13.9744H13.9833H13.9922H14.0011H14.01H14.019H14.028H14.037H14.0461H14.0552H14.0643H14.0734H14.0825H14.0917H14.1009H14.1101H14.1194H14.1286H14.1379H14.1472H14.1566H14.1659H14.1753H14.1847H14.1941H14.2035H14.213H14.2225H14.232H14.2415H14.251H14.2606H14.2702H14.2798H14.2894H14.299H14.3087H14.3184H14.3281H14.3378H14.3475H14.3572H14.367H14.3768H14.3866H14.3964H14.4062H14.4161H14.4259H14.4358H14.4457H14.4556H14.4655H14.4755H14.4854H14.4954H14.5054H14.5154H14.5254H14.5354H14.5455H14.5555H14.5656H14.5757H14.5858H14.5959H14.606H14.6161H14.6263H14.6364H14.6466H14.6568H14.667H14.6772H14.6874H14.6976H14.7078H14.7181H14.7283H14.7386H14.7489H14.7592H14.7694H14.7797H14.7901H14.8004H14.8107H14.821H14.8314H14.8417H14.8521H14.8624H14.8728H14.8832H14.8936H14.9039H14.9143H14.9247H14.9351H14.9456H14.956H14.9664H14.9768H14.9873H14.9977H15.0081H15.0186H15.029H15.0395H15.0499H15.0604H15.0709H15.0813H15.0918H15.1023H15.1127H15.1232H15.1337H15.1442H15.1546H15.1651H15.1756H15.1861H15.1966H15.207H15.2175H15.228H15.2385H15.249H15.2594H15.2699H15.2804H15.2909H15.3014H15.3118H15.3223H15.3328H15.3432H15.3537H15.3642H15.3746H15.3851H15.3955H15.406H15.4164H15.4269H15.4373H15.4477H15.4581H15.4686H15.479H15.4894H15.4998H15.5102H15.5206H15.531H15.5414H15.5517H15.5621H15.5725H15.5828H15.5932H15.6035H15.6138H15.6241H15.6345H15.6448H15.6551H15.6653H15.6756H15.6859H15.6962H15.7064H15.7166H15.7269H15.7371H15.7473H15.7575H15.7677H15.7779H15.788H15.7982H15.8083H15.8184H15.8286H15.8387H15.8487H15.8588H15.8689H15.8789H15.889H15.899H15.909H15.919H15.929H15.939H15.9489H15.9588H15.9688H15.9787H15.9886H15.9984H16.0083H16.0181H16.028H16.0378H16.0476H16.0573H16.0671H16.0768H16.0866H16.0963H16.1059H16.1156H16.1253H16.1349H16.1445H16.1541H16.1637H16.1732H16.1828H16.1923H16.2018H16.2112H16.2207H16.2301H16.2395H16.2489H16.2583H16.2676H16.277H16.2863H16.2955H16.3048H16.314H16.3232H16.3324H16.3416H16.3507H16.3598H16.3689H16.378H16.3871H16.3961H16.4V10.1043Z" stroke="#555770" stroke-width="1.2"/>
</svg>
