<svg width="24" height="24" viewBox="0 0 24 24" fill="none" xmlns="http://www.w3.org/2000/svg">
<path d="M17.4 3.6V21.4H6.6V3.6H9.5H10.1V3V1.6H13.9V3V3.6H14.5H17.4Z" stroke="#28293D" stroke-width="1.2"/>
<path d="M12.5875 12.7814L12.1497 12.3712L12.5875 12.7814ZM10.6 10.9251C10.6 10.1877 11.2392 9.6 12.0217 9.6V8.4C10.6755 8.4 9.4 9.43003 9.4 10.9251H10.6ZM12.0217 9.6C12.787 9.6 13.4 10.1716 13.4 10.9251H14.6C14.6 9.44609 13.3851 8.4 12.0217 8.4V9.6ZM13.4 10.9251C13.4 11.1379 13.328 11.2774 13.1249 11.4789C13.0107 11.5922 12.8792 11.7012 12.7031 11.8522C12.5353 11.996 12.3421 12.1659 12.1497 12.3712L13.0253 13.1917C13.1712 13.036 13.3237 12.9008 13.4842 12.7632C13.6363 12.6327 13.8158 12.4838 13.97 12.3308C14.3041 11.9994 14.6 11.5717 14.6 10.9251H13.4ZM12.1497 12.3712C11.9424 12.5924 11.7315 12.8398 11.5903 13.2019C11.4528 13.5545 11.4 13.9662 11.4 14.5H12.6C12.6 14.0338 12.6483 13.7917 12.7083 13.6378C12.7646 13.4935 12.8475 13.3815 13.0253 13.1917L12.1497 12.3712ZM11.4 15.5V16.5H12.6V15.5H11.4Z" fill="#28293D"/>
</svg>
