<svg width="24" height="24" viewBox="0 0 24 24" fill="none" xmlns="http://www.w3.org/2000/svg">
<path d="M7.5 4.5L7.5 3.9L6.9 3.9L6.9 4.5L7.5 4.5ZM7.5 10L6.9 10L6.9 10.6L7.5 10.6L7.5 10ZM16.5 10L16.5 10.6L17.1 10.6L17.1 10L16.5 10ZM16.5 4.5L17.1 4.5L17.1 3.9L16.5 3.9L16.5 4.5ZM5 21L4.4 21L5 21ZM5 3L4.4 3L5 3ZM6 22.6L18 22.6L18 21.4L6 21.4L6 22.6ZM19.6 21L19.6 3L18.4 3L18.4 21L19.6 21ZM4.4 3L4.4 21L5.6 21L5.6 3L4.4 3ZM18 1.4L6 1.4L6 2.6L18 2.6L18 1.4ZM6.9 4.5L6.9 10L8.1 10L8.1 4.5L6.9 4.5ZM7.5 10.6L16.5 10.6L16.5 9.4L7.5 9.4L7.5 10.6ZM17.1 10L17.1 4.5L15.9 4.5L15.9 10L17.1 10ZM16.5 3.9L7.5 3.9L7.5 5.1L16.5 5.1L16.5 3.9ZM6.99999 16.6L8.99999 16.6L8.99999 15.4L6.99999 15.4L6.99999 16.6ZM11 16.6L13 16.6L13 15.4L11 15.4L11 16.6ZM15 16.6L17 16.6L17 15.4L15 15.4L15 16.6ZM6.99999 13.6L8.99999 13.6L8.99999 12.4L6.99999 12.4L6.99999 13.6ZM11 13.6L13 13.6L13 12.4L11 12.4L11 13.6ZM15 13.6L17 13.6L17 12.4L15 12.4L15 13.6ZM6.99999 19.6L8.99999 19.6L8.99999 18.4L6.99998 18.4L6.99999 19.6ZM11 19.6L13 19.6L13 18.4L11 18.4L11 19.6ZM15 19.6L17 19.6L17 18.4L15 18.4L15 19.6ZM19.6 3C19.6 2.11635 18.8837 1.4 18 1.4L18 2.6C18.2209 2.6 18.4 2.77909 18.4 3L19.6 3ZM18 22.6C18.8837 22.6 19.6 21.8837 19.6 21L18.4 21C18.4 21.2209 18.2209 21.4 18 21.4L18 22.6ZM6 21.4C5.77908 21.4 5.6 21.2209 5.6 21L4.4 21C4.4 21.8837 5.11634 22.6 6 22.6L6 21.4ZM5.6 3C5.6 2.77909 5.77909 2.6 6 2.6L6 1.4C5.11635 1.4 4.4 2.11634 4.4 3L5.6 3Z" fill="#28293D"/>
</svg>
