<svg width="24" height="24" viewBox="0 0 24 24" fill="none" xmlns="http://www.w3.org/2000/svg">
<path d="M24 17.4L5.24537e-08 17.4L-5.24537e-08 18.6L24 18.6L24 17.4Z" fill="#28293D"/>
<path d="M21.6 16V6H20.4V16H21.6ZM20 4.4H4V5.6H20V4.4ZM4 17.6H20V16.4H4V17.6ZM2.4 6V16H3.6V6H2.4ZM4 4.4C3.11635 4.4 2.4 5.11634 2.4 6H3.6C3.6 5.77909 3.77909 5.6 4 5.6V4.4ZM21.6 6C21.6 5.11634 20.8837 4.4 20 4.4V5.6C20.2209 5.6 20.4 5.77909 20.4 6H21.6ZM20.4 16C20.4 16.2209 20.2209 16.4 20 16.4V17.6C20.8837 17.6 21.6 16.8837 21.6 16H20.4ZM4 16.4C3.77909 16.4 3.6 16.2209 3.6 16H2.4C2.4 16.8837 3.11634 17.6 4 17.6V16.4Z" fill="#28293D"/>
</svg>
