<svg width="24" height="24" viewBox="0 0 24 24" fill="none" xmlns="http://www.w3.org/2000/svg">
<path d="M10 10V9.4H9.4V10H10ZM10 14H9.4V14.6H10V14ZM14 14V14.6H14.6V14H14ZM14 10H14.6V9.4H14V10ZM9.4 10V14H10.6V10H9.4ZM10 14.6H14V13.4H10V14.6ZM14.6 14V10H13.4V14H14.6ZM14 9.4H10V10.6H14V9.4ZM10 5.4H7V6.6H10V5.4ZM9.4 3V6H10.6V3H9.4ZM17 5.4H14V6.6H17V5.4ZM14 5.4H10V6.6H14V5.4ZM13.4 3V6H14.6V3H13.4ZM18.6 10V7H17.4V10H18.6ZM21 9.4H18V10.6H21V9.4ZM18.6 17V14H17.4V17H18.6ZM18.6 14V10H17.4V14H18.6ZM21 13.4H18V14.6H21V13.4ZM14 18.6H17V17.4H14V18.6ZM14.6 21V18H13.4V21H14.6ZM7 18.6H10V17.4H7V18.6ZM10 18.6H14V17.4H10V18.6ZM10.6 21V18H9.4V21H10.6ZM5.4 14V17H6.6V14H5.4ZM3 14.6H6V13.4H3V14.6ZM5.4 7V10H6.6V7H5.4ZM5.4 10V14H6.6V10H5.4ZM3 10.6H6V9.4H3V10.6ZM17 6.6C17.2209 6.6 17.4 6.77909 17.4 7H18.6C18.6 6.11634 17.8837 5.4 17 5.4V6.6ZM17.4 17C17.4 17.2209 17.2209 17.4 17 17.4V18.6C17.8837 18.6 18.6 17.8837 18.6 17H17.4ZM7 17.4C6.77909 17.4 6.6 17.2209 6.6 17H5.4C5.4 17.8837 6.11634 18.6 7 18.6V17.4ZM7 5.4C6.11634 5.4 5.4 6.11634 5.4 7H6.6C6.6 6.77909 6.77909 6.6 7 6.6V5.4Z" fill="#28293D"/>
</svg>
