<svg width="24" height="24" viewBox="0 0 24 24" fill="none" xmlns="http://www.w3.org/2000/svg">
<path d="M11 3L11 3.6L11 3ZM13 3L13 3.6L13 3ZM8 21.6L16 21.6L16 20.4L8 20.4L8 21.6ZM17.6 20L17.6 4L16.4 4L16.4 20L17.6 20ZM6.4 4L6.4 20L7.6 20L7.6 4L6.4 4ZM11 2.4L8 2.4L8 3.6L11 3.6L11 2.4ZM16 2.4L13 2.4L13 3.6L16 3.6L16 2.4ZM13 2.4L11 2.4L11 3.6L13 3.6L13 2.4ZM17.6 4C17.6 3.11635 16.8837 2.4 16 2.4L16 3.6C16.2209 3.6 16.4 3.77909 16.4 4L17.6 4ZM16 21.6C16.8837 21.6 17.6 20.8837 17.6 20L16.4 20C16.4 20.2209 16.2209 20.4 16 20.4L16 21.6ZM8 20.4C7.77909 20.4 7.6 20.2209 7.6 20L6.4 20C6.4 20.8837 7.11634 21.6 8 21.6L8 20.4ZM7.6 4C7.6 3.77909 7.77909 3.6 8 3.6L8 2.4C7.11635 2.4 6.4 3.11634 6.4 4L7.6 4Z" fill="#28293D"/>
</svg>
