<svg width="24" height="24" viewBox="0 0 24 24" fill="none" xmlns="http://www.w3.org/2000/svg">
<mask id="mask0_402_13534" style="mask-type:alpha" maskUnits="userSpaceOnUse" x="0" y="0" width="24" height="24">
<path d="M21.5033 21.5L0.00325155 0L0 24H24V0H5.69812V3.57552L22.645 20.5233L21.5033 21.5Z" fill="white"/>
</mask>
<g mask="url(#mask0_402_13534)">
<path d="M2.5 3L21 21.5" stroke="#28293D" stroke-width="1.5"/>
<path d="M6 7V3H18V7M6 21H18V13H6V21Z" stroke="#28293D" stroke-width="1.2"/>
<path d="M22 16V16.6H22.6V16H22ZM2 16H1.4V16.6H2V16ZM4 7.6H20V6.4H4V7.6ZM21.4 9V16H22.6V9H21.4ZM2.6 16V9H1.4V16H2.6ZM6 15.4H2V16.6H6V15.4ZM22 15.4H18V16.6H22V15.4ZM20 7.6C20.7732 7.6 21.4 8.2268 21.4 9H22.6C22.6 7.56406 21.4359 6.4 20 6.4V7.6ZM4 6.4C2.56406 6.4 1.4 7.56406 1.4 9H2.6C2.6 8.2268 3.2268 7.6 4 7.6V6.4Z" fill="#28293D"/>
<circle cx="19" cy="10" r="1" fill="#28293D"/>
</g>
</svg>
