<svg width="24" height="24" viewBox="0 0 24 24" fill="none" xmlns="http://www.w3.org/2000/svg">
<path d="M20.5693 17.403L20.1244 17.0005L20.5693 17.403ZM17.6 14.7506C17.6 13.5153 18.6229 12.6 19.7887 12.6V11.4C18.0182 11.4 16.4 12.796 16.4 14.7506H17.6ZM19.7887 12.6C20.9376 12.6 21.9177 13.4989 21.9177 14.7506H23.1177C23.1177 12.8124 21.5763 11.4 19.7887 11.4V12.6ZM21.9177 14.7506C21.9177 15.1553 21.7684 15.4186 21.4635 15.732C21.2979 15.9021 21.1073 16.0658 20.869 16.2774C20.639 16.4818 20.3805 16.7174 20.1244 17.0005L21.0142 17.8055C21.2248 17.5728 21.4431 17.3725 21.6659 17.1747C21.8805 16.9841 22.1185 16.7795 22.3235 16.5689C22.7594 16.1209 23.1177 15.5738 23.1177 14.7506H21.9177ZM20.1244 17.0005C19.4839 17.7084 19.1887 18.5101 19.1887 19.5592H20.3887C20.3887 18.7787 20.5919 18.2723 21.0142 17.8055L20.1244 17.0005ZM19.1887 20.5431V22.0017H20.3887V20.5431H19.1887Z" fill="#28293D"/>
<mask id="mask0_402_13568" style="mask-type:alpha" maskUnits="userSpaceOnUse" x="0" y="0" width="24" height="24">
<path d="M16 0H0V24H15V9.5H24V0H16Z" fill="white"/>
</mask>
<g mask="url(#mask0_402_13568)">
<path d="M21.4 19.4H3.63231L21.4 4.29747V19.4Z" stroke="#28293D" stroke-width="1.2"/>
<path d="M2 20L16.1176 8V20H2Z" fill="#28293D"/>
</g>
</svg>
