<svg width="24" height="24" viewBox="0 0 24 24" fill="none" xmlns="http://www.w3.org/2000/svg">
<path d="M21.6 18V6H20.4V18H21.6ZM20 4.4H4V5.6H20V4.4ZM4 19.6H20V18.4H4V19.6ZM2.4 6V18H3.6V6H2.4ZM4 4.4C3.11635 4.4 2.4 5.11634 2.4 6H3.6C3.6 5.77909 3.77909 5.6 4 5.6V4.4ZM21.6 6C21.6 5.11634 20.8837 4.4 20 4.4V5.6C20.2209 5.6 20.4 5.77909 20.4 6H21.6ZM20.4 18C20.4 18.2209 20.2209 18.4 20 18.4V19.6C20.8837 19.6 21.6 18.8837 21.6 18H20.4ZM4 18.4C3.77909 18.4 3.6 18.2209 3.6 18H2.4C2.4 18.8837 3.11634 19.6 4 19.6V18.4Z" fill="#28293D"/>
<path d="M13.65 10.25V12H14.85V10.25H13.65ZM14.25 11.4H9.75V12.6H14.25V11.4ZM10.35 12V10.25H9.15V12H10.35ZM9.75 11.4H9.1V12.6H9.75V11.4ZM8.4 12.1V15H9.6V12.1H8.4ZM10 16.6H14V15.4H10V16.6ZM15.6 15V12.1H14.4V15H15.6ZM14.9 11.4H14.25V12.6H14.9V11.4ZM15.6 12.1C15.6 11.7134 15.2866 11.4 14.9 11.4V12.6C14.6239 12.6 14.4 12.3761 14.4 12.1H15.6ZM9.1 11.4C8.7134 11.4 8.4 11.7134 8.4 12.1H9.6C9.6 12.3761 9.37614 12.6 9.1 12.6V11.4ZM14 16.6C14.8837 16.6 15.6 15.8837 15.6 15H14.4C14.4 15.2209 14.2209 15.4 14 15.4V16.6ZM12 8.6C12.9113 8.6 13.65 9.33873 13.65 10.25H14.85C14.85 8.67599 13.574 7.4 12 7.4V8.6ZM8.4 15C8.4 15.8837 9.11634 16.6 10 16.6V15.4C9.77909 15.4 9.6 15.2209 9.6 15H8.4ZM12 7.4C10.426 7.4 9.15 8.67599 9.15 10.25H10.35C10.35 9.33873 11.0887 8.6 12 8.6V7.4Z" fill="#28293D"/>
</svg>
