<svg width="24" height="24" viewBox="0 0 24 24" fill="none" xmlns="http://www.w3.org/2000/svg">
<path d="M6 21.6L18 21.6L18 20.4L6 20.4L6 21.6ZM19.6 20L19.6 4L18.4 4L18.4 20L19.6 20ZM4.4 4L4.4 20L5.6 20L5.6 4L4.4 4ZM18 2.4L6 2.4L6 3.6L18 3.6L18 2.4ZM19.6 4C19.6 3.11635 18.8837 2.4 18 2.4L18 3.6C18.2209 3.6 18.4 3.77909 18.4 4L19.6 4ZM18 21.6C18.8837 21.6 19.6 20.8837 19.6 20L18.4 20C18.4 20.2209 18.2209 20.4 18 20.4L18 21.6ZM6 20.4C5.77909 20.4 5.6 20.2209 5.6 20L4.4 20C4.4 20.8837 5.11634 21.6 6 21.6L6 20.4ZM5.6 4C5.6 3.77909 5.77909 3.6 6 3.6L6 2.4C5.11635 2.4 4.4 3.11634 4.4 4L5.6 4Z" fill="#28293D"/>
</svg>
