<svg width="24" height="24" viewBox="0 0 24 24" fill="none" xmlns="http://www.w3.org/2000/svg">
<path d="M7 7.6H17V6.4H7V7.6ZM17 16.4H7V17.6H17V16.4ZM7 16.4C4.56995 16.4 2.6 14.4301 2.6 12H1.4C1.4 15.0928 3.90721 17.6 7 17.6V16.4ZM21.4 12C21.4 14.4301 19.4301 16.4 17 16.4V17.6C20.0928 17.6 22.6 15.0928 22.6 12H21.4ZM17 7.6C19.4301 7.6 21.4 9.56995 21.4 12H22.6C22.6 8.90721 20.0928 6.4 17 6.4V7.6ZM7 6.4C3.90721 6.4 1.4 8.90721 1.4 12H2.6C2.6 9.56995 4.56995 7.6 7 7.6V6.4Z" fill="#28293D"/>
<circle cx="7" cy="12" r="3.15" stroke="#28293D" stroke-width="1.2"/>
</svg>
