<svg width="24" height="24" viewBox="0 0 24 24" fill="none" xmlns="http://www.w3.org/2000/svg">
<path d="M9 7.99963L9.36035 8.47937L9 7.99963ZM15 7.99963L14.6397 8.47937L14.6397 8.47937L15 7.99963ZM9 16.0004L9.36035 15.5206L9 16.0004ZM15 16.0004L14.6397 15.5206H14.6397L15 16.0004ZM9.97737 21.9316L9.40727 22.1186L9.97737 21.9316ZM14.0226 21.9316L14.5927 22.1186L14.0226 21.9316ZM14.0226 2.06844L14.5927 1.88139L14.0226 2.06844ZM9.97737 2.06844L9.40727 1.88139L9.97737 2.06844ZM7.6 12C7.6 10.5609 8.29028 9.28313 9.36035 8.47937L8.63965 7.51989C7.28083 8.54055 6.4 10.1675 6.4 12H7.6ZM9.36035 8.47937C10.0957 7.92705 11.0088 7.6 12 7.6V6.4C10.74 6.4 9.57565 6.81684 8.63965 7.51989L9.36035 8.47937ZM9.6 7.99963C9.6 7.0545 9.79112 4.5607 10.5475 2.25549L9.40727 1.88139C8.60132 4.33779 8.4 6.964 8.4 7.99963H9.6ZM17.6 12C17.6 10.1675 16.7192 8.54055 15.3603 7.51989L14.6397 8.47937C15.7097 9.28313 16.4 10.5609 16.4 12H17.6ZM15.3603 7.51989C14.4244 6.81684 13.26 6.4 12 6.4V7.6C12.9912 7.6 13.9043 7.92705 14.6397 8.47937L15.3603 7.51989ZM15.6 7.99963C15.6 6.964 15.3987 4.33779 14.5927 1.88139L13.4525 2.25549C14.2089 4.5607 14.4 7.0545 14.4 7.99963H15.6ZM10.0721 2.6H13.9279V1.4H10.0721V2.6ZM6.4 12C6.4 13.8325 7.28083 15.4595 8.63965 16.4801L9.36035 15.5206C8.29028 14.7169 7.6 13.4391 7.6 12H6.4ZM8.63965 16.4801C9.57565 17.1832 10.74 17.6 12 17.6V16.4C11.0088 16.4 10.0957 16.073 9.36035 15.5206L8.63965 16.4801ZM8.4 16.0004C8.4 17.036 8.60132 19.6622 9.40727 22.1186L10.5475 21.7445C9.79112 19.4393 9.6 16.9455 9.6 16.0004H8.4ZM16.4 12C16.4 13.4391 15.7097 14.7169 14.6397 15.5206L15.3603 16.4801C16.7192 15.4595 17.6 13.8325 17.6 12H16.4ZM14.6397 15.5206C13.9043 16.073 12.9912 16.4 12 16.4V17.6C13.26 17.6 14.4244 17.1832 15.3603 16.4801L14.6397 15.5206ZM14.4 16.0004C14.4 16.9455 14.2089 19.4393 13.4525 21.7445L14.5927 22.1186C15.3987 19.6622 15.6 17.036 15.6 16.0004H14.4ZM10.0721 22.6H13.9279V21.4H10.0721V22.6ZM9.40727 22.1186C9.50201 22.4074 9.77131 22.6 10.0721 22.6V21.4C10.2868 21.4 10.4796 21.5375 10.5475 21.7445L9.40727 22.1186ZM13.4525 21.7445C13.5204 21.5375 13.7132 21.4 13.9279 21.4V22.6C14.2287 22.6 14.498 22.4074 14.5927 22.1186L13.4525 21.7445ZM14.5927 1.88139C14.498 1.59262 14.2287 1.4 13.9279 1.4V2.6C13.7132 2.6 13.5204 2.46246 13.4525 2.25549L14.5927 1.88139ZM10.5475 2.25549C10.4796 2.46247 10.2868 2.6 10.0721 2.6V1.4C9.77131 1.4 9.50201 1.59262 9.40727 1.88139L10.5475 2.25549Z" fill="#28293D"/>
</svg>
