<svg width="24" height="24" viewBox="0 0 24 24" fill="none" xmlns="http://www.w3.org/2000/svg">
<path d="M14.0226 21.9316L13.4525 21.7445L14.0226 21.9316ZM9.97737 21.9316L10.5475 21.7445L9.97737 21.9316ZM14.0226 2.06844L13.4525 2.25549L14.0226 2.06844ZM9.97737 2.06844L10.5475 2.25549L9.97737 2.06844ZM10.0721 2.6H13.9279V1.4H10.0721V2.6ZM10.0721 22.6H13.9279V21.4H10.0721V22.6ZM16.4 8V16H17.6V8H16.4ZM7.6 16V8H6.4V16H7.6ZM8 16.4C7.77909 16.4 7.6 16.2209 7.6 16H6.4C6.4 16.8837 7.11634 17.6 8 17.6V16.4ZM16.4 16C16.4 16.2209 16.2209 16.4 16 16.4V17.6C16.8837 17.6 17.6 16.8837 17.6 16H16.4ZM16 7.6C16.2209 7.6 16.4 7.77909 16.4 8H17.6C17.6 7.11634 16.8837 6.4 16 6.4V7.6ZM8 6.4C7.11634 6.4 6.4 7.11634 6.4 8H7.6C7.6 7.77909 7.77909 7.6 8 7.6V6.4ZM14.9579 7.6H16V6.4H14.9579V7.6ZM15.5563 6.95634C15.463 5.6775 15.2005 3.73362 14.5927 1.88139L13.4525 2.25549C14.0197 3.98412 14.2705 5.82382 14.3595 7.04366L15.5563 6.95634ZM8 7.6H9.04212V6.4H8V7.6ZM9.04212 7.6H14.9579V6.4H9.04212V7.6ZM9.64053 7.04366C9.72954 5.82382 9.9803 3.98412 10.5475 2.25549L9.40727 1.88139C8.79954 3.73362 8.53702 5.6775 8.44371 6.95634L9.64053 7.04366ZM9.04212 16.4H8V17.6H9.04212V16.4ZM8.44371 17.0437C8.53702 18.3225 8.79954 20.2664 9.40727 22.1186L10.5475 21.7445C9.9803 20.0159 9.72954 18.1762 9.64053 16.9563L8.44371 17.0437ZM16 16.4H14.9579V17.6H16V16.4ZM14.9579 16.4H9.04212V17.6H14.9579V16.4ZM14.3595 16.9563C14.2705 18.1762 14.0197 20.0159 13.4525 21.7445L14.5927 22.1186C15.2005 20.2664 15.463 18.3225 15.5563 17.0437L14.3595 16.9563ZM13.9279 22.6C14.2287 22.6 14.498 22.4074 14.5927 22.1186L13.4525 21.7445C13.5205 21.5375 13.7133 21.4 13.9279 21.4V22.6ZM10.0721 21.4C10.2867 21.4 10.4795 21.5375 10.5475 21.7445L9.40727 22.1186C9.50203 22.4074 9.77135 22.6 10.0721 22.6V21.4ZM13.9279 2.6C13.7133 2.6 13.5205 2.4625 13.4525 2.25549L14.5927 1.88139C14.498 1.59258 14.2287 1.4 13.9279 1.4V2.6ZM10.0721 1.4C9.77135 1.4 9.50203 1.59258 9.40727 1.88139L10.5475 2.25549C10.4795 2.4625 10.2867 2.6 10.0721 2.6V1.4Z" fill="#28293D"/>
</svg>
