<svg width="24" height="24" viewBox="0 0 24 24" fill="none" xmlns="http://www.w3.org/2000/svg">
<path d="M6.31933 15.6712L6.74397 16.095L6.74397 16.095L6.31933 15.6712ZM17.2402 6.80769L16.8155 7.23158L16.8155 7.23158L17.2402 6.80769ZM9.50209 9.71346L9.07744 9.28958L9.07744 9.28958L9.50209 9.71346ZM13.0937 10.9615L12.6691 11.3854L12.6691 11.3854L13.0937 10.9615ZM21.7321 7.15385L22.3143 7.00857L22.1435 6.32426L21.4954 6.60251L21.7321 7.15385ZM13.4393 15.4615L12.8876 15.2255L12.6108 15.8726L13.2935 16.0436L13.4393 15.4615ZM7.91071 12.6923L8.4991 12.8098L7.91071 12.6923ZM5.89468 15.2473L0.575357 20.5761L1.42464 21.4239L6.74397 16.095L5.89468 15.2473ZM15.7789 2.57612L14.3968 3.96073L15.2461 4.8085L16.6282 3.42388L15.7789 2.57612ZM14.3968 4.8085L16.8155 7.23158L17.6648 6.38381L15.2461 3.96073L14.3968 4.8085ZM14.3968 3.96073L10.2503 8.11458L11.0996 8.96235L15.2461 4.8085L14.3968 3.96073ZM10.2503 8.11458L9.07744 9.28958L9.92673 10.1373L11.0996 8.96235L10.2503 8.11458ZM13.5184 10.5377L11.0996 8.11458L10.2503 8.96235L12.6691 11.3854L13.5184 10.5377ZM16.8155 7.23158C17.2335 7.65031 17.8593 8.06605 18.7338 8.22065C19.6066 8.37495 20.6762 8.26016 21.9688 7.70518L21.4954 6.60251C20.3693 7.086 19.5384 7.14428 18.9427 7.03897C18.3487 6.93395 17.9379 6.65738 17.6648 6.38381L16.8155 7.23158ZM12.6691 11.3854C12.9421 11.659 13.2185 12.0708 13.3235 12.6666C13.4287 13.2641 13.3704 14.0971 12.8876 15.2255L13.9909 15.6975C14.5448 14.4029 14.6592 13.3321 14.5053 12.4584C14.3511 11.5831 13.9364 10.9564 13.5184 10.5377L12.6691 11.3854ZM21.15 7.29912C21.7969 9.89146 21.1399 12.0901 19.7526 13.48C18.3654 14.8696 16.1716 15.5273 13.585 14.8795L13.2935 16.0436C16.2355 16.7804 18.8792 16.0535 20.6019 14.3277C22.3243 12.6022 23.0495 9.9547 22.3143 7.00857L21.15 7.29912ZM7.32232 12.5748C7.12016 13.5874 6.62336 14.5173 5.89468 15.2473L6.74397 16.095C7.64 15.1974 8.25064 14.0543 8.4991 12.8098L7.32232 12.5748ZM8.4991 12.8098C8.70125 11.7972 9.19806 10.8673 9.92673 10.1373L9.07744 9.28958C8.18141 10.1872 7.57077 11.3303 7.32232 12.5748L8.4991 12.8098Z" fill="#555770"/>
</svg>
