<svg width="24" height="24" viewBox="0 0 24 24" fill="none" xmlns="http://www.w3.org/2000/svg">
<path d="M9.5 16V16.6H10.1V16H9.5ZM3.5 16H2.9V16.6H3.5V16ZM8 20V20.6H8.6V20H8ZM20.5 16V16.6H21.1V16H20.5ZM14.5 16H13.9V16.6H14.5V16ZM19 20V20.6H19.6V20H19ZM3.5 3.6H9.5V2.4H3.5V3.6ZM4.1 16V3H2.9V16H4.1ZM3.5 2.4H2V3.6H3.5V2.4ZM2 3.6H9.5V2.4H2V3.6ZM11 2.4H9.5V3.6H11V2.4ZM5 15.4H3.5V16.6H5V15.4ZM4.4 16V20H5.6V16H4.4ZM9.5 15.4H8V16.6H9.5V15.4ZM8 15.4H5V16.6H8V15.4ZM7.4 16V20H8.6V16H7.4ZM8 19.4H3.5V20.6H8V19.4ZM3.5 20.6H9.5V19.4H3.5V20.6ZM14.5 3.6H20.5V2.4H14.5V3.6ZM19.9 3V16H21.1V3H19.9ZM14.5 2.4H13V3.6H14.5V2.4ZM13 3.6H20.5V2.4H13V3.6ZM22 2.4H20.5V3.6H22V2.4ZM16 15.4H14.5V16.6H16V15.4ZM15.4 16V20H16.6V16H15.4ZM20.5 15.4H19V16.6H20.5V15.4ZM19 15.4H16V16.6H19V15.4ZM18.4 16V20H19.6V16H18.4ZM19 19.4H14.5V20.6H19V19.4ZM14.5 20.6H20.5V19.4H14.5V20.6ZM8.9 3V10H10.1V3H8.9ZM8.9 10V16H10.1V10H8.9ZM15.1 16V10H13.9V16H15.1ZM15.1 10V3H13.9V10H15.1ZM9.5 10.6H14.5V9.4H9.5V10.6ZM11.4 8.5V11.5H12.6V8.5H11.4Z" fill="#555770"/>
</svg>
