<svg width="24" height="24" viewBox="0 0 24 24" fill="none" xmlns="http://www.w3.org/2000/svg">
<path d="M9.36774 15.4105L9.17004 15.977L9.17004 15.977L9.36774 15.4105ZM10.3456 16.8213L9.74833 16.7636L9.74833 16.7636L10.3456 16.8213ZM15.4105 9.36775L15.977 9.17004L15.977 9.17004L15.4105 9.36775ZM16.8213 10.3456L16.7636 9.74833L16.7636 9.74833L16.8213 10.3456ZM3.22631 2.07071L2.80205 1.64645L3.22631 2.07071ZM2.07071 3.22631L1.64645 2.80205L2.07071 3.22631ZM2.97277 4.26979L2.5485 4.69406L2.97277 4.26979ZM19.4098 19.4098C17.0489 21.7708 13.7598 21.9904 12.0439 20.2745L11.1953 21.123C13.5386 23.4663 17.605 22.9117 20.2584 20.2584L19.4098 19.4098ZM20.2745 12.0439C21.9904 13.7598 21.7708 17.0489 19.4098 19.4098L20.2584 20.2584C22.9117 17.605 23.4663 13.5386 21.123 11.1953L20.2745 12.0439ZM9.23365 9.23365C10.8783 7.589 13.1166 7.47997 14.2526 8.61601L15.1011 7.76749C13.3378 6.00411 10.3221 6.44813 8.38512 8.38512L9.23365 9.23365ZM8.38512 8.38512C6.44813 10.3221 6.00411 13.3378 7.76749 15.1011L8.61601 14.2526C7.47997 13.1166 7.589 10.8783 9.23365 9.23365L8.38512 8.38512ZM9.56545 14.844C9.20756 14.7191 8.88578 14.5224 8.61601 14.2526L7.76749 15.1011C8.17143 15.5051 8.65048 15.7957 9.17004 15.977L9.56545 14.844ZM9.74833 16.7636C9.59227 18.3778 10.044 19.9717 11.1953 21.123L12.0439 20.2745C11.1887 19.4194 10.8149 18.2012 10.9428 16.879L9.74833 16.7636ZM14.2526 8.61601C14.5224 8.88578 14.7191 9.20757 14.844 9.56545L15.977 9.17004C15.7957 8.65049 15.5051 8.17143 15.1011 7.76749L14.2526 8.61601ZM16.879 10.9428C18.2012 10.8149 19.4194 11.1887 20.2745 12.0439L21.123 11.1953C19.9717 10.044 18.3778 9.59227 16.7636 9.74833L16.879 10.9428ZM14.844 9.56545C15.1206 10.3581 15.9397 11.0336 16.879 10.9428L16.7636 9.74833C16.4751 9.77622 16.1068 9.54197 15.977 9.17004L14.844 9.56545ZM9.17004 15.977C9.54197 16.1068 9.77622 16.4751 9.74833 16.7636L10.9428 16.879C11.0336 15.9397 10.3581 15.1206 9.56545 14.844L9.17004 15.977ZM16.1673 14.4217C16.6493 14.9038 16.6493 15.6853 16.1673 16.1673L17.0158 17.0158C17.9664 16.0652 17.9664 14.5239 17.0158 13.5732L16.1673 14.4217ZM16.1673 16.1673C15.6853 16.6493 14.9038 16.6493 14.4217 16.1673L13.5732 17.0158C14.5239 17.9664 16.0652 17.9664 17.0158 17.0158L16.1673 16.1673ZM14.4217 16.1673C13.9397 15.6853 13.9397 14.9038 14.4217 14.4217L13.5732 13.5732C12.6226 14.5239 12.6226 16.0652 13.5732 17.0158L14.4217 16.1673ZM14.4217 14.4217C14.9038 13.9397 15.6853 13.9397 16.1673 14.4217L17.0158 13.5732C16.0652 12.6226 14.5239 12.6226 13.5732 13.5732L14.4217 14.4217ZM14.4217 13.5732L4.69406 3.84553L3.84553 4.69406L13.5732 14.4217L14.4217 13.5732ZM4.69406 3.84553L3.07278 2.22425L2.22425 3.07278L3.84553 4.69406L4.69406 3.84553ZM3.39703 3.84553L2.49497 2.94347L1.64645 3.792L2.5485 4.69406L3.39703 3.84553ZM2.49497 3.65058L3.65058 2.49497L2.80205 1.64645L1.64645 2.80205L2.49497 3.65058ZM2.94347 2.49497L3.84553 3.39703L4.69406 2.5485L3.792 1.64645L2.94347 2.49497ZM3.84553 3.39703C3.96938 3.52088 3.96938 3.72168 3.84553 3.84553L4.69406 4.69406C5.28654 4.10158 5.28654 3.14098 4.69406 2.5485L3.84553 3.39703ZM3.65058 2.49497C3.45532 2.69024 3.13873 2.69024 2.94347 2.49497L3.792 1.64645C3.51863 1.37308 3.07542 1.37308 2.80205 1.64645L3.65058 2.49497ZM2.49497 2.94347C2.69024 3.13873 2.69024 3.45532 2.49497 3.65058L1.64645 2.80205C1.37308 3.07542 1.37308 3.51863 1.64645 3.792L2.49497 2.94347ZM3.84553 3.84553C3.72168 3.96938 3.52088 3.96938 3.39703 3.84553L2.5485 4.69406C3.14098 5.28654 4.10158 5.28654 4.69406 4.69406L3.84553 3.84553Z" fill="#555770"/>
</svg>
