<svg width="24" height="24" viewBox="0 0 24 24" fill="none" xmlns="http://www.w3.org/2000/svg">
<path d="M8.5 4L8.07574 3.57574L7.9 3.75147V4H8.5ZM9.5 3V2.4H9.25147L9.07574 2.57574L9.5 3ZM14.5 3L14.9243 2.57574L14.7485 2.4H14.5V3ZM15.5 4H16.1V3.75147L15.9243 3.57574L15.5 4ZM20.4 8V20H21.6V8H20.4ZM20 20.4H4V21.6H20V20.4ZM3.6 20V8H2.4V20H3.6ZM4 7.6H8.5V6.4H4V7.6ZM9.1 7V4H7.9V7H9.1ZM8.92426 4.42426L9.92426 3.42426L9.07574 2.57574L8.07574 3.57574L8.92426 4.42426ZM9.5 3.6H14.5V2.4H9.5V3.6ZM14.0757 3.42426L15.0757 4.42426L15.9243 3.57574L14.9243 2.57574L14.0757 3.42426ZM8.5 7.6H15.5V6.4H8.5V7.6ZM15.5 7.6H20V6.4H15.5V7.6ZM14.9 4V7H16.1V4H14.9ZM11.4 11V14H12.6V11H11.4ZM11.4 14V17H12.6V14H11.4ZM12 13.4H9V14.6H12V13.4ZM12 14.6H15V13.4H12V14.6ZM4 20.4C3.77909 20.4 3.6 20.2209 3.6 20H2.4C2.4 20.8837 3.11635 21.6 4 21.6V20.4ZM20.4 20C20.4 20.2209 20.2209 20.4 20 20.4V21.6C20.8837 21.6 21.6 20.8837 21.6 20H20.4ZM21.6 8C21.6 7.11634 20.8837 6.4 20 6.4V7.6C20.2209 7.6 20.4 7.77909 20.4 8H21.6ZM3.6 8C3.6 7.77909 3.77909 7.6 4 7.6V6.4C3.11634 6.4 2.4 7.11635 2.4 8H3.6Z" fill="#555770"/>
</svg>
