<svg width="24" height="24" viewBox="0 0 24 24" fill="none" xmlns="http://www.w3.org/2000/svg">
<path d="M5.69593 17.3041L5.40849 17.8307L5.78982 18.0389L6.10657 17.7415L5.69593 17.3041ZM22 2L22.4375 2.41064C22.6592 2.17441 22.6534 1.80483 22.4243 1.57574C22.1952 1.34664 21.8256 1.3408 21.5894 1.56253L22 2ZM6.69593 18.3041L6.25846 17.8934L5.96115 18.2102L6.16926 18.5915L6.69593 18.3041ZM6.4 19.5C6.4 20.5493 5.54934 21.4 4.5 21.4V22.6C6.21208 22.6 7.6 21.2121 7.6 19.5H6.4ZM4.5 21.4C3.45066 21.4 2.6 20.5493 2.6 19.5H1.4C1.4 21.2121 2.78792 22.6 4.5 22.6V21.4ZM2.6 19.5C2.6 18.4507 3.45066 17.6 4.5 17.6V16.4C2.78792 16.4 1.4 17.7879 1.4 19.5H2.6ZM6.10657 17.7415L22.4106 2.43747L21.5894 1.56253L5.2853 16.8666L6.10657 17.7415ZM21.5625 1.58936L6.25846 17.8934L7.1334 18.7147L22.4375 2.41064L21.5625 1.58936ZM6.16926 18.5915C6.31623 18.8608 6.4 19.1697 6.4 19.5H7.6C7.6 18.9639 7.46339 18.4578 7.2226 18.0166L6.16926 18.5915ZM4.5 17.6C4.83028 17.6 5.1392 17.6838 5.40849 17.8307L5.98337 16.7774C5.54218 16.5366 5.03615 16.4 4.5 16.4V17.6Z" fill="#555770"/>
</svg>
