<svg width="24" height="24" viewBox="0 0 24 24" fill="none" xmlns="http://www.w3.org/2000/svg">
<path d="M7.6 6C7.6 5.66863 7.33137 5.4 7 5.4C6.66863 5.4 6.4 5.66863 6.4 6H7.6ZM1.42396 8.73838L1.13456 8.21279L1.42396 8.73838ZM12 17.4H2V18.6H12V17.4ZM12.4 12.5V17H13.6V12.5H12.4ZM13.4243 12.9243L15.4243 10.9243L14.5757 10.0757L12.5757 12.0757L13.4243 12.9243ZM12.4 9.5V10.5H13.6V9.5H12.4ZM12.4 10.5V12.5H13.6V10.5H12.4ZM15 9.9H13V11.1H15V9.9ZM15 11.1H24V9.9H15V11.1ZM1.71337 9.26396C2.41807 8.87594 4.17806 8.1 7 8.1V6.9C3.94851 6.9 1.99114 7.74112 1.13456 8.21279L1.71337 9.26396ZM7 8.1C9.82194 8.1 11.5819 8.87594 12.2866 9.26396L12.8654 8.21279C12.0089 7.74112 10.0515 6.9 7 6.9V8.1ZM1.6 17V10.5H0.4V17H1.6ZM1.6 10.5V9.5H0.4V10.5H1.6ZM13 9.9H1V11.1H13V9.9ZM7.6 7.5V6H6.4V7.5H7.6ZM2 17.4C1.77909 17.4 1.6 17.2209 1.6 17H0.4C0.4 17.8837 1.11634 18.6 2 18.6V17.4ZM12 18.6C12.8837 18.6 13.6 17.8837 13.6 17H12.4C12.4 17.2209 12.2209 17.4 12 17.4V18.6ZM13.6 9.5C13.6 9.0024 13.3622 8.48634 12.8654 8.21279L12.2866 9.26396C12.3413 9.29405 12.4 9.36808 12.4 9.5H13.6ZM1.13456 8.21279C0.637758 8.48634 0.4 9.0024 0.4 9.5H1.6C1.6 9.36808 1.65873 9.29405 1.71337 9.26396L1.13456 8.21279Z" fill="#555770"/>
</svg>
