<svg width="24" height="24" viewBox="0 0 24 24" fill="none" xmlns="http://www.w3.org/2000/svg">
<path d="M14 7.75961H13.4H14ZM17.5 2L17.8905 1.54445L17.5 1.20975L17.1095 1.54445L17.5 2ZM16.0953 3.20407L15.7048 2.74852L15.7048 2.74852L16.0953 3.20407ZM21 7.75961H20.4H21ZM18.9047 3.20407L19.2952 2.74852L19.2952 2.74851L18.9047 3.20407ZM17.5 21.4H6.5V22.6H17.5V21.4ZM6.5 21.4C4.89837 21.4 3.6 20.1016 3.6 18.5H2.4C2.4 20.7644 4.23563 22.6 6.5 22.6V21.4ZM20.4 18.5C20.4 20.1016 19.1016 21.4 17.5 21.4V22.6C19.7644 22.6 21.6 20.7644 21.6 18.5H20.4ZM17.5 15.6C19.1016 15.6 20.4 16.8984 20.4 18.5H21.6C21.6 16.2356 19.7644 14.4 17.5 14.4V15.6ZM6.5 14.4C4.23563 14.4 2.4 16.2356 2.4 18.5H3.6C3.6 16.8984 4.89837 15.6 6.5 15.6V14.4ZM17.1095 1.54445L15.7048 2.74852L16.4857 3.65962L17.8905 2.45555L17.1095 1.54445ZM20.4 7.75961V18.5H21.6V7.75961H20.4ZM17.1095 2.45555L18.5143 3.65962L19.2952 2.74851L17.8905 1.54445L17.1095 2.45555ZM21.6 7.75961C21.6 5.83291 20.7581 4.0024 19.2952 2.74852L18.5143 3.65962C19.7112 4.68553 20.4 6.18322 20.4 7.75961L21.6 7.75961ZM14.6 7.75961C14.6 6.18322 15.2888 4.68553 16.4857 3.65962L15.7048 2.74852C14.2419 4.0024 13.4 5.83291 13.4 7.75961L14.6 7.75961ZM14.6 15V7.75961H13.4V15H14.6ZM6.5 15.6H14V14.4H6.5V15.6ZM14 15.6H17.5V14.4H14V15.6ZM6 19.1H9V17.9H6V19.1ZM18.6 18.5C18.6 17.8925 18.1075 17.4 17.5 17.4V18.6C17.4448 18.6 17.4 18.5552 17.4 18.5H18.6ZM17.5 19.6C18.1075 19.6 18.6 19.1075 18.6 18.5H17.4C17.4 18.4448 17.4448 18.4 17.5 18.4V19.6ZM16.4 18.5C16.4 19.1075 16.8925 19.6 17.5 19.6V18.4C17.5552 18.4 17.6 18.4448 17.6 18.5H16.4ZM17.6 18.5C17.6 18.5552 17.5552 18.6 17.5 18.6V17.4C16.8925 17.4 16.4 17.8925 16.4 18.5H17.6Z" fill="#555770"/>
</svg>
