<svg width="24" height="24" viewBox="0 0 24 24" fill="none" xmlns="http://www.w3.org/2000/svg">
<path d="M3 22L2.47905 21.7023L1.96609 22.6H3V22ZM21 22V22.6H22.0339L21.5209 21.7023L21 22ZM12 14.5L12.5294 14.2176L12 13.225L11.4706 14.2176L12 14.5ZM8 22V22.6H8.36L8.52941 22.2824L8 22ZM16 22L15.4706 22.2824L15.64 22.6H16V22ZM14.4791 0.702317L2.47905 21.7023L3.52095 22.2977L15.5209 1.29768L14.4791 0.702317ZM8.47905 1.29768L20.4791 22.2977L21.5209 21.7023L9.52095 0.702317L8.47905 1.29768ZM11.4706 14.2176L7.47059 21.7176L8.52941 22.2824L12.5294 14.7824L11.4706 14.2176ZM8 21.4H3V22.6H8V21.4ZM11.4706 14.7824L15.4706 22.2824L16.5294 21.7176L12.5294 14.2176L11.4706 14.7824ZM16 22.6H21V21.4H16V22.6Z" fill="#555770"/>
</svg>
