<svg width="24" height="24" viewBox="0 0 24 24" fill="none" xmlns="http://www.w3.org/2000/svg">
<path d="M9.53618 4.48049L9.91259 5.40694L9.53618 4.48049ZM14.4638 4.48049L14.0874 5.40694L14.4638 4.48049ZM5.00542 19.8205L4.00724 19.7603L5.00542 19.8205ZM18.9946 19.8205L17.9964 19.8807L18.9946 19.8205ZM18.3949 9.87956L19.3931 9.81934L18.3949 9.87956ZM5.60512 9.87956L4.60694 9.81934L5.60512 9.87956ZM17.3967 9.93978L17.9964 19.8807L19.9928 19.7603L19.3931 9.81934L17.3967 9.93978ZM15.92 22H8.07999V24H15.92V22ZM6.00361 19.8807L6.60331 9.93978L4.60694 9.81934L4.00724 19.7603L6.00361 19.8807ZM8.07999 22C6.85775 22 5.93579 21.005 6.00361 19.8807L4.00724 19.7603C3.86694 22.0859 5.75807 24 8.07999 24V22ZM17.9964 19.8807C18.0642 21.005 17.1422 22 15.92 22V24C18.2419 24 20.1331 22.0859 19.9928 19.7603L17.9964 19.8807ZM19.3931 9.81934C19.2254 7.0398 17.4483 4.61367 14.8402 3.55403L14.0874 5.40694C16.0019 6.18476 17.2767 7.95018 17.3967 9.93978L19.3931 9.81934ZM6.60331 9.93978C6.72333 7.95018 7.99813 6.18476 9.91259 5.40694L9.15977 3.55403C6.55168 4.61367 4.77462 7.0398 4.60694 9.81934L6.60331 9.93978ZM4.9284 10.6158C6.83966 12.3726 9.44344 13.2199 12 13.2199C14.5566 13.2199 17.1603 12.3726 19.0716 10.6158L17.7182 9.14332C16.2345 10.507 14.1409 11.2199 12 11.2199C9.85912 11.2199 7.76547 10.507 6.28185 9.14332L4.9284 10.6158ZM11 10.5V14H13V10.5H11ZM8.6 18H15.4V16H8.6V18ZM14.5 17.1V18H16.5V17.1H14.5ZM13.5 19H10.5V21H13.5V19ZM9.5 18V17.1H7.5V18H9.5ZM9.91259 5.40694C10.042 5.35438 10.1729 5.3069 10.3052 5.26451L9.6948 3.35993C9.51462 3.41768 9.33614 3.48238 9.15977 3.55403L9.91259 5.40694ZM11 4.31222V2.5H9V4.31222H11ZM10 5.31222C10.0026 5.31222 10.0052 5.31222 10.0078 5.31222C10.0104 5.31222 10.013 5.31222 10.0156 5.31222C10.0182 5.31222 10.0208 5.31222 10.0234 5.31222C10.026 5.31222 10.0286 5.31222 10.0312 5.31222C10.0338 5.31222 10.0364 5.31222 10.039 5.31222C10.0416 5.31222 10.0442 5.31222 10.0468 5.31222C10.0494 5.31222 10.052 5.31222 10.0546 5.31222C10.0572 5.31222 10.0598 5.31222 10.0624 5.31222C10.065 5.31222 10.0676 5.31222 10.0702 5.31222C10.0728 5.31222 10.0754 5.31222 10.078 5.31222C10.0806 5.31222 10.0832 5.31222 10.0858 5.31222C10.0884 5.31222 10.091 5.31222 10.0936 5.31222C10.0962 5.31222 10.0988 5.31222 10.1014 5.31222C10.104 5.31222 10.1066 5.31222 10.1093 5.31222C10.1119 5.31222 10.1145 5.31222 10.1171 5.31222C10.1197 5.31222 10.1223 5.31222 10.1249 5.31222C10.1275 5.31222 10.1301 5.31222 10.1327 5.31222C10.1353 5.31222 10.1379 5.31222 10.1405 5.31222C10.1431 5.31222 10.1457 5.31222 10.1483 5.31222C10.1509 5.31222 10.1535 5.31222 10.1561 5.31222C10.1587 5.31222 10.1613 5.31222 10.1639 5.31222C10.1665 5.31222 10.1691 5.31222 10.1717 5.31222C10.1743 5.31222 10.177 5.31222 10.1796 5.31222C10.1822 5.31222 10.1848 5.31222 10.1874 5.31222C10.19 5.31222 10.1926 5.31222 10.1952 5.31222C10.1978 5.31222 10.2004 5.31222 10.203 5.31222C10.2056 5.31222 10.2082 5.31222 10.2108 5.31222C10.2134 5.31222 10.216 5.31222 10.2186 5.31222C10.2212 5.31222 10.2239 5.31222 10.2265 5.31222C10.2291 5.31222 10.2317 5.31222 10.2343 5.31222C10.2369 5.31222 10.2395 5.31222 10.2421 5.31222C10.2447 5.31222 10.2473 5.31222 10.2499 5.31222C10.2525 5.31222 10.2551 5.31222 10.2577 5.31222C10.2603 5.31222 10.263 5.31222 10.2656 5.31222C10.2682 5.31222 10.2708 5.31222 10.2734 5.31222C10.276 5.31222 10.2786 5.31222 10.2812 5.31222C10.2838 5.31222 10.2864 5.31222 10.289 5.31222C10.2916 5.31222 10.2942 5.31222 10.2969 5.31222C10.2995 5.31222 10.3021 5.31222 10.3047 5.31222C10.3073 5.31222 10.3099 5.31222 10.3125 5.31222C10.3151 5.31222 10.3177 5.31222 10.3203 5.31222C10.3229 5.31222 10.3255 5.31222 10.3282 5.31222C10.3308 5.31222 10.3334 5.31222 10.336 5.31222C10.3386 5.31222 10.3412 5.31222 10.3438 5.31222C10.3464 5.31222 10.349 5.31222 10.3516 5.31222C10.3543 5.31222 10.3569 5.31222 10.3595 5.31222C10.3621 5.31222 10.3647 5.31222 10.3673 5.31222C10.3699 5.31222 10.3725 5.31222 10.3751 5.31222C10.3777 5.31222 10.3804 5.31222 10.383 5.31222C10.3856 5.31222 10.3882 5.31222 10.3908 5.31222C10.3934 5.31222 10.396 5.31222 10.3986 5.31222C10.4012 5.31222 10.4038 5.31222 10.4065 5.31222C10.4091 5.31222 10.4117 5.31222 10.4143 5.31222C10.4169 5.31222 10.4195 5.31222 10.4221 5.31222C10.4247 5.31222 10.4273 5.31222 10.43 5.31222C10.4326 5.31222 10.4352 5.31222 10.4378 5.31222C10.4404 5.31222 10.443 5.31222 10.4456 5.31222C10.4482 5.31222 10.4509 5.31222 10.4535 5.31222C10.4561 5.31222 10.4587 5.31222 10.4613 5.31222C10.4639 5.31222 10.4665 5.31222 10.4691 5.31222C10.4717 5.31222 10.4744 5.31222 10.477 5.31222C10.4796 5.31222 10.4822 5.31222 10.4848 5.31222C10.4874 5.31222 10.49 5.31222 10.4926 5.31222C10.4953 5.31222 10.4979 5.31222 10.5005 5.31222C10.5031 5.31222 10.5057 5.31222 10.5083 5.31222C10.5109 5.31222 10.5136 5.31222 10.5162 5.31222C10.5188 5.31222 10.5214 5.31222 10.524 5.31222C10.5266 5.31222 10.5292 5.31222 10.5318 5.31222C10.5345 5.31222 10.5371 5.31222 10.5397 5.31222C10.5423 5.31222 10.5449 5.31222 10.5475 5.31222C10.5501 5.31222 10.5528 5.31222 10.5554 5.31222C10.558 5.31222 10.5606 5.31222 10.5632 5.31222C10.5658 5.31222 10.5684 5.31222 10.5711 5.31222C10.5737 5.31222 10.5763 5.31222 10.5789 5.31222C10.5815 5.31222 10.5841 5.31222 10.5867 5.31222C10.5894 5.31222 10.592 5.31222 10.5946 5.31222C10.5972 5.31222 10.5998 5.31222 10.6024 5.31222C10.605 5.31222 10.6077 5.31222 10.6103 5.31222C10.6129 5.31222 10.6155 5.31222 10.6181 5.31222C10.6207 5.31222 10.6234 5.31222 10.626 5.31222C10.6286 5.31222 10.6312 5.31222 10.6338 5.31222C10.6364 5.31222 10.6391 5.31222 10.6417 5.31222C10.6443 5.31222 10.6469 5.31222 10.6495 5.31222C10.6521 5.31222 10.6547 5.31222 10.6574 5.31222C10.66 5.31222 10.6626 5.31222 10.6652 5.31222C10.6678 5.31222 10.6704 5.31222 10.6731 5.31222C10.6757 5.31222 10.6783 5.31222 10.6809 5.31222C10.6835 5.31222 10.6861 5.31222 10.6888 5.31222C10.6914 5.31222 10.694 5.31222 10.6966 5.31222C10.6992 5.31222 10.7018 5.31222 10.7045 5.31222C10.7071 5.31222 10.7097 5.31222 10.7123 5.31222C10.7149 5.31222 10.7175 5.31222 10.7202 5.31222C10.7228 5.31222 10.7254 5.31222 10.728 5.31222C10.7306 5.31222 10.7332 5.31222 10.7359 5.31222C10.7385 5.31222 10.7411 5.31222 10.7437 5.31222C10.7463 5.31222 10.749 5.31222 10.7516 5.31222C10.7542 5.31222 10.7568 5.31222 10.7594 5.31222C10.762 5.31222 10.7647 5.31222 10.7673 5.31222C10.7699 5.31222 10.7725 5.31222 10.7751 5.31222C10.7777 5.31222 10.7804 5.31222 10.783 5.31222C10.7856 5.31222 10.7882 5.31222 10.7908 5.31222C10.7935 5.31222 10.7961 5.31222 10.7987 5.31222C10.8013 5.31222 10.8039 5.31222 10.8065 5.31222C10.8092 5.31222 10.8118 5.31222 10.8144 5.31222C10.817 5.31222 10.8196 5.31222 10.8223 5.31222C10.8249 5.31222 10.8275 5.31222 10.8301 5.31222C10.8327 5.31222 10.8354 5.31222 10.838 5.31222C10.8406 5.31222 10.8432 5.31222 10.8458 5.31222C10.8484 5.31222 10.8511 5.31222 10.8537 5.31222C10.8563 5.31222 10.8589 5.31222 10.8615 5.31222C10.8642 5.31222 10.8668 5.31222 10.8694 5.31222C10.872 5.31222 10.8746 5.31222 10.8773 5.31222C10.8799 5.31222 10.8825 5.31222 10.8851 5.31222C10.8877 5.31222 10.8904 5.31222 10.893 5.31222C10.8956 5.31222 10.8982 5.31222 10.9008 5.31222C10.9035 5.31222 10.9061 5.31222 10.9087 5.31222C10.9113 5.31222 10.9139 5.31222 10.9166 5.31222C10.9192 5.31222 10.9218 5.31222 10.9244 5.31222C10.927 5.31222 10.9297 5.31222 10.9323 5.31222C10.9349 5.31222 10.9375 5.31222 10.9401 5.31222C10.9428 5.31222 10.9454 5.31222 10.948 5.31222C10.9506 5.31222 10.9532 5.31222 10.9559 5.31222C10.9585 5.31222 10.9611 5.31222 10.9637 5.31222C10.9663 5.31222 10.969 5.31222 10.9716 5.31222C10.9742 5.31222 10.9768 5.31222 10.9794 5.31222C10.9821 5.31222 10.9847 5.31222 10.9873 5.31222C10.9899 5.31222 10.9925 5.31222 10.9952 5.31222C10.9978 5.31222 11.0004 5.31222 11.003 5.31222C11.0056 5.31222 11.0083 5.31222 11.0109 5.31222C11.0135 5.31222 11.0161 5.31222 11.0188 5.31222C11.0214 5.31222 11.024 5.31222 11.0266 5.31222C11.0292 5.31222 11.0319 5.31222 11.0345 5.31222C11.0371 5.31222 11.0397 5.31222 11.0423 5.31222C11.045 5.31222 11.0476 5.31222 11.0502 5.31222C11.0528 5.31222 11.0554 5.31222 11.0581 5.31222C11.0607 5.31222 11.0633 5.31222 11.0659 5.31222C11.0686 5.31222 11.0712 5.31222 11.0738 5.31222C11.0764 5.31222 11.079 5.31222 11.0817 5.31222C11.0843 5.31222 11.0869 5.31222 11.0895 5.31222C11.0922 5.31222 11.0948 5.31222 11.0974 5.31222C11.1 5.31222 11.1026 5.31222 11.1053 5.31222C11.1079 5.31222 11.1105 5.31222 11.1131 5.31222C11.1157 5.31222 11.1184 5.31222 11.121 5.31222C11.1236 5.31222 11.1262 5.31222 11.1289 5.31222C11.1315 5.31222 11.1341 5.31222 11.1367 5.31222C11.1393 5.31222 11.142 5.31222 11.1446 5.31222C11.1472 5.31222 11.1498 5.31222 11.1525 5.31222C11.1551 5.31222 11.1577 5.31222 11.1603 5.31222C11.1629 5.31222 11.1656 5.31222 11.1682 5.31222C11.1708 5.31222 11.1734 5.31222 11.1761 5.31222C11.1787 5.31222 11.1813 5.31222 11.1839 5.31222C11.1865 5.31222 11.1892 5.31222 11.1918 5.31222C11.1944 5.31222 11.197 5.31222 11.1997 5.31222C11.2023 5.31222 11.2049 5.31222 11.2075 5.31222C11.2101 5.31222 11.2128 5.31222 11.2154 5.31222C11.218 5.31222 11.2206 5.31222 11.2233 5.31222C11.2259 5.31222 11.2285 5.31222 11.2311 5.31222C11.2337 5.31222 11.2364 5.31222 11.239 5.31222C11.2416 5.31222 11.2442 5.31222 11.2469 5.31222C11.2495 5.31222 11.2521 5.31222 11.2547 5.31222C11.2573 5.31222 11.26 5.31222 11.2626 5.31222C11.2652 5.31222 11.2678 5.31222 11.2705 5.31222C11.2731 5.31222 11.2757 5.31222 11.2783 5.31222C11.281 5.31222 11.2836 5.31222 11.2862 5.31222C11.2888 5.31222 11.2914 5.31222 11.2941 5.31222C11.2967 5.31222 11.2993 5.31222 11.3019 5.31222C11.3046 5.31222 11.3072 5.31222 11.3098 5.31222C11.3124 5.31222 11.315 5.31222 11.3177 5.31222C11.3203 5.31222 11.3229 5.31222 11.3255 5.31222C11.3282 5.31222 11.3308 5.31222 11.3334 5.31222C11.336 5.31222 11.3387 5.31222 11.3413 5.31222C11.3439 5.31222 11.3465 5.31222 11.3491 5.31222C11.3518 5.31222 11.3544 5.31222 11.357 5.31222C11.3596 5.31222 11.3623 5.31222 11.3649 5.31222C11.3675 5.31222 11.3701 5.31222 11.3728 5.31222C11.3754 5.31222 11.378 5.31222 11.3806 5.31222C11.3832 5.31222 11.3859 5.31222 11.3885 5.31222C11.3911 5.31222 11.3937 5.31222 11.3964 5.31222C11.399 5.31222 11.4016 5.31222 11.4042 5.31222C11.4069 5.31222 11.4095 5.31222 11.4121 5.31222C11.4147 5.31222 11.4173 5.31222 11.42 5.31222C11.4226 5.31222 11.4252 5.31222 11.4278 5.31222C11.4305 5.31222 11.4331 5.31222 11.4357 5.31222C11.4383 5.31222 11.441 5.31222 11.4436 5.31222C11.4462 5.31222 11.4488 5.31222 11.4514 5.31222C11.4541 5.31222 11.4567 5.31222 11.4593 5.31222C11.4619 5.31222 11.4646 5.31222 11.4672 5.31222C11.4698 5.31222 11.4724 5.31222 11.4751 5.31222C11.4777 5.31222 11.4803 5.31222 11.4829 5.31222C11.4855 5.31222 11.4882 5.31222 11.4908 5.31222C11.4934 5.31222 11.496 5.31222 11.4987 5.31222C11.5013 5.31222 11.5039 5.31222 11.5065 5.31222C11.5092 5.31222 11.5118 5.31222 11.5144 5.31222C11.517 5.31222 11.5196 5.31222 11.5223 5.31222C11.5249 5.31222 11.5275 5.31222 11.5301 5.31222C11.5328 5.31222 11.5354 5.31222 11.538 5.31222C11.5406 5.31222 11.5432 5.31222 11.5459 5.31222C11.5485 5.31222 11.5511 5.31222 11.5537 5.31222C11.5564 5.31222 11.559 5.31222 11.5616 5.31222C11.5642 5.31222 11.5669 5.31222 11.5695 5.31222C11.5721 5.31222 11.5747 5.31222 11.5773 5.31222C11.58 5.31222 11.5826 5.31222 11.5852 5.31222C11.5878 5.31222 11.5905 5.31222 11.5931 5.31222C11.5957 5.31222 11.5983 5.31222 11.601 5.31222C11.6036 5.31222 11.6062 5.31222 11.6088 5.31222C11.6114 5.31222 11.6141 5.31222 11.6167 5.31222C11.6193 5.31222 11.6219 5.31222 11.6246 5.31222C11.6272 5.31222 11.6298 5.31222 11.6324 5.31222C11.635 5.31222 11.6377 5.31222 11.6403 5.31222C11.6429 5.31222 11.6455 5.31222 11.6482 5.31222C11.6508 5.31222 11.6534 5.31222 11.656 5.31222C11.6586 5.31222 11.6613 5.31222 11.6639 5.31222C11.6665 5.31222 11.6691 5.31222 11.6718 5.31222C11.6744 5.31222 11.677 5.31222 11.6796 5.31222C11.6823 5.31222 11.6849 5.31222 11.6875 5.31222C11.6901 5.31222 11.6927 5.31222 11.6954 5.31222C11.698 5.31222 11.7006 5.31222 11.7032 5.31222C11.7059 5.31222 11.7085 5.31222 11.7111 5.31222C11.7137 5.31222 11.7163 5.31222 11.719 5.31222C11.7216 5.31222 11.7242 5.31222 11.7268 5.31222C11.7295 5.31222 11.7321 5.31222 11.7347 5.31222C11.7373 5.31222 11.7399 5.31222 11.7426 5.31222C11.7452 5.31222 11.7478 5.31222 11.7504 5.31222C11.753 5.31222 11.7557 5.31222 11.7583 5.31222C11.7609 5.31222 11.7635 5.31222 11.7662 5.31222C11.7688 5.31222 11.7714 5.31222 11.774 5.31222C11.7766 5.31222 11.7793 5.31222 11.7819 5.31222C11.7845 5.31222 11.7871 5.31222 11.7898 5.31222C11.7924 5.31222 11.795 5.31222 11.7976 5.31222C11.8002 5.31222 11.8029 5.31222 11.8055 5.31222C11.8081 5.31222 11.8107 5.31222 11.8133 5.31222C11.816 5.31222 11.8186 5.31222 11.8212 5.31222C11.8238 5.31222 11.8265 5.31222 11.8291 5.31222C11.8317 5.31222 11.8343 5.31222 11.8369 5.31222C11.8396 5.31222 11.8422 5.31222 11.8448 5.31222C11.8474 5.31222 11.85 5.31222 11.8527 5.31222C11.8553 5.31222 11.8579 5.31222 11.8605 5.31222C11.8632 5.31222 11.8658 5.31222 11.8684 5.31222C11.871 5.31222 11.8736 5.31222 11.8763 5.31222C11.8789 5.31222 11.8815 5.31222 11.8841 5.31222C11.8867 5.31222 11.8894 5.31222 11.892 5.31222C11.8946 5.31222 11.8972 5.31222 11.8998 5.31222C11.9025 5.31222 11.9051 5.31222 11.9077 5.31222C11.9103 5.31222 11.9129 5.31222 11.9156 5.31222C11.9182 5.31222 11.9208 5.31222 11.9234 5.31222C11.9261 5.31222 11.9287 5.31222 11.9313 5.31222C11.9339 5.31222 11.9365 5.31222 11.9392 5.31222C11.9418 5.31222 11.9444 5.31222 11.947 5.31222C11.9496 5.31222 11.9523 5.31222 11.9549 5.31222C11.9575 5.31222 11.9601 5.31222 11.9627 5.31222C11.9654 5.31222 11.968 5.31222 11.9706 5.31222C11.9732 5.31222 11.9758 5.31222 11.9785 5.31222C11.9811 5.31222 11.9837 5.31222 11.9863 5.31222C11.9889 5.31222 11.9916 5.31222 11.9942 5.31222C11.9968 5.31222 11.9994 5.31222 12.002 5.31222C12.0046 5.31222 12.0073 5.31222 12.0099 5.31222C12.0125 5.31222 12.0151 5.31222 12.0177 5.31222C12.0204 5.31222 12.023 5.31222 12.0256 5.31222C12.0282 5.31222 12.0308 5.31222 12.0335 5.31222C12.0361 5.31222 12.0387 5.31222 12.0413 5.31222C12.0439 5.31222 12.0466 5.31222 12.0492 5.31222C12.0518 5.31222 12.0544 5.31222 12.057 5.31222C12.0597 5.31222 12.0623 5.31222 12.0649 5.31222C12.0675 5.31222 12.0701 5.31222 12.0727 5.31222C12.0754 5.31222 12.078 5.31222 12.0806 5.31222C12.0832 5.31222 12.0858 5.31222 12.0885 5.31222C12.0911 5.31222 12.0937 5.31222 12.0963 5.31222C12.0989 5.31222 12.1015 5.31222 12.1042 5.31222C12.1068 5.31222 12.1094 5.31222 12.112 5.31222C12.1146 5.31222 12.1173 5.31222 12.1199 5.31222C12.1225 5.31222 12.1251 5.31222 12.1277 5.31222C12.1303 5.31222 12.133 5.31222 12.1356 5.31222C12.1382 5.31222 12.1408 5.31222 12.1434 5.31222C12.146 5.31222 12.1487 5.31222 12.1513 5.31222C12.1539 5.31222 12.1565 5.31222 12.1591 5.31222C12.1618 5.31222 12.1644 5.31222 12.167 5.31222C12.1696 5.31222 12.1722 5.31222 12.1748 5.31222C12.1775 5.31222 12.1801 5.31222 12.1827 5.31222C12.1853 5.31222 12.1879 5.31222 12.1905 5.31222C12.1932 5.31222 12.1958 5.31222 12.1984 5.31222C12.201 5.31222 12.2036 5.31222 12.2062 5.31222C12.2089 5.31222 12.2115 5.31222 12.2141 5.31222C12.2167 5.31222 12.2193 5.31222 12.2219 5.31222C12.2246 5.31222 12.2272 5.31222 12.2298 5.31222C12.2324 5.31222 12.235 5.31222 12.2376 5.31222C12.2402 5.31222 12.2429 5.31222 12.2455 5.31222C12.2481 5.31222 12.2507 5.31222 12.2533 5.31222C12.2559 5.31222 12.2586 5.31222 12.2612 5.31222C12.2638 5.31222 12.2664 5.31222 12.269 5.31222C12.2716 5.31222 12.2743 5.31222 12.2769 5.31222C12.2795 5.31222 12.2821 5.31222 12.2847 5.31222C12.2873 5.31222 12.2899 5.31222 12.2926 5.31222C12.2952 5.31222 12.2978 5.31222 12.3004 5.31222C12.303 5.31222 12.3056 5.31222 12.3082 5.31222C12.3109 5.31222 12.3135 5.31222 12.3161 5.31222C12.3187 5.31222 12.3213 5.31222 12.3239 5.31222C12.3265 5.31222 12.3292 5.31222 12.3318 5.31222C12.3344 5.31222 12.337 5.31222 12.3396 5.31222C12.3422 5.31222 12.3448 5.31222 12.3475 5.31222C12.3501 5.31222 12.3527 5.31222 12.3553 5.31222C12.3579 5.31222 12.3605 5.31222 12.3631 5.31222C12.3658 5.31222 12.3684 5.31222 12.371 5.31222C12.3736 5.31222 12.3762 5.31222 12.3788 5.31222C12.3814 5.31222 12.384 5.31222 12.3867 5.31222C12.3893 5.31222 12.3919 5.31222 12.3945 5.31222C12.3971 5.31222 12.3997 5.31222 12.4023 5.31222C12.4049 5.31222 12.4076 5.31222 12.4102 5.31222C12.4128 5.31222 12.4154 5.31222 12.418 5.31222C12.4206 5.31222 12.4232 5.31222 12.4258 5.31222C12.4285 5.31222 12.4311 5.31222 12.4337 5.31222C12.4363 5.31222 12.4389 5.31222 12.4415 5.31222C12.4441 5.31222 12.4467 5.31222 12.4494 5.31222C12.452 5.31222 12.4546 5.31222 12.4572 5.31222C12.4598 5.31222 12.4624 5.31222 12.465 5.31222C12.4676 5.31222 12.4702 5.31222 12.4729 5.31222C12.4755 5.31222 12.4781 5.31222 12.4807 5.31222C12.4833 5.31222 12.4859 5.31222 12.4885 5.31222C12.4911 5.31222 12.4937 5.31222 12.4964 5.31222C12.499 5.31222 12.5016 5.31222 12.5042 5.31222C12.5068 5.31222 12.5094 5.31222 12.512 5.31222C12.5146 5.31222 12.5172 5.31222 12.5198 5.31222C12.5225 5.31222 12.5251 5.31222 12.5277 5.31222C12.5303 5.31222 12.5329 5.31222 12.5355 5.31222C12.5381 5.31222 12.5407 5.31222 12.5433 5.31222C12.5459 5.31222 12.5485 5.31222 12.5512 5.31222C12.5538 5.31222 12.5564 5.31222 12.559 5.31222C12.5616 5.31222 12.5642 5.31222 12.5668 5.31222C12.5694 5.31222 12.572 5.31222 12.5746 5.31222C12.5772 5.31222 12.5799 5.31222 12.5825 5.31222C12.5851 5.31222 12.5877 5.31222 12.5903 5.31222C12.5929 5.31222 12.5955 5.31222 12.5981 5.31222C12.6007 5.31222 12.6033 5.31222 12.6059 5.31222C12.6085 5.31222 12.6111 5.31222 12.6138 5.31222C12.6164 5.31222 12.619 5.31222 12.6216 5.31222C12.6242 5.31222 12.6268 5.31222 12.6294 5.31222C12.632 5.31222 12.6346 5.31222 12.6372 5.31222C12.6398 5.31222 12.6424 5.31222 12.645 5.31222C12.6476 5.31222 12.6503 5.31222 12.6529 5.31222C12.6555 5.31222 12.6581 5.31222 12.6607 5.31222C12.6633 5.31222 12.6659 5.31222 12.6685 5.31222C12.6711 5.31222 12.6737 5.31222 12.6763 5.31222C12.6789 5.31222 12.6815 5.31222 12.6841 5.31222C12.6867 5.31222 12.6893 5.31222 12.692 5.31222C12.6946 5.31222 12.6972 5.31222 12.6998 5.31222C12.7024 5.31222 12.705 5.31222 12.7076 5.31222C12.7102 5.31222 12.7128 5.31222 12.7154 5.31222C12.718 5.31222 12.7206 5.31222 12.7232 5.31222C12.7258 5.31222 12.7284 5.31222 12.731 5.31222C12.7336 5.31222 12.7362 5.31222 12.7388 5.31222C12.7414 5.31222 12.744 5.31222 12.7466 5.31222C12.7493 5.31222 12.7519 5.31222 12.7545 5.31222C12.7571 5.31222 12.7597 5.31222 12.7623 5.31222C12.7649 5.31222 12.7675 5.31222 12.7701 5.31222C12.7727 5.31222 12.7753 5.31222 12.7779 5.31222C12.7805 5.31222 12.7831 5.31222 12.7857 5.31222C12.7883 5.31222 12.7909 5.31222 12.7935 5.31222C12.7961 5.31222 12.7987 5.31222 12.8013 5.31222C12.8039 5.31222 12.8065 5.31222 12.8091 5.31222C12.8117 5.31222 12.8143 5.31222 12.8169 5.31222C12.8195 5.31222 12.8221 5.31222 12.8247 5.31222C12.8273 5.31222 12.8299 5.31222 12.8325 5.31222C12.8351 5.31222 12.8377 5.31222 12.8403 5.31222C12.8429 5.31222 12.8455 5.31222 12.8481 5.31222C12.8507 5.31222 12.8533 5.31222 12.8559 5.31222C12.8585 5.31222 12.8611 5.31222 12.8637 5.31222C12.8663 5.31222 12.8689 5.31222 12.8715 5.31222C12.8741 5.31222 12.8767 5.31222 12.8793 5.31222C12.8819 5.31222 12.8845 5.31222 12.8871 5.31222C12.8897 5.31222 12.8923 5.31222 12.8949 5.31222C12.8975 5.31222 12.9001 5.31222 12.9027 5.31222C12.9053 5.31222 12.9079 5.31222 12.9105 5.31222C12.9131 5.31222 12.9157 5.31222 12.9183 5.31222C12.9209 5.31222 12.9235 5.31222 12.9261 5.31222C12.9287 5.31222 12.9313 5.31222 12.9339 5.31222C12.9365 5.31222 12.9391 5.31222 12.9417 5.31222C12.9443 5.31222 12.9469 5.31222 12.9495 5.31222C12.9521 5.31222 12.9547 5.31222 12.9573 5.31222C12.9599 5.31222 12.9625 5.31222 12.9651 5.31222C12.9677 5.31222 12.9703 5.31222 12.9729 5.31222C12.9755 5.31222 12.9781 5.31222 12.9807 5.31222C12.9833 5.31222 12.9858 5.31222 12.9884 5.31222C12.991 5.31222 12.9936 5.31222 12.9962 5.31222C12.9988 5.31222 13.0014 5.31222 13.004 5.31222C13.0066 5.31222 13.0092 5.31222 13.0118 5.31222C13.0144 5.31222 13.017 5.31222 13.0196 5.31222C13.0222 5.31222 13.0248 5.31222 13.0274 5.31222C13.03 5.31222 13.0326 5.31222 13.0352 5.31222C13.0378 5.31222 13.0403 5.31222 13.0429 5.31222C13.0455 5.31222 13.0481 5.31222 13.0507 5.31222C13.0533 5.31222 13.0559 5.31222 13.0585 5.31222C13.0611 5.31222 13.0637 5.31222 13.0663 5.31222C13.0689 5.31222 13.0715 5.31222 13.0741 5.31222C13.0767 5.31222 13.0792 5.31222 13.0818 5.31222C13.0844 5.31222 13.087 5.31222 13.0896 5.31222C13.0922 5.31222 13.0948 5.31222 13.0974 5.31222C13.1 5.31222 13.1026 5.31222 13.1052 5.31222C13.1078 5.31222 13.1103 5.31222 13.1129 5.31222C13.1155 5.31222 13.1181 5.31222 13.1207 5.31222C13.1233 5.31222 13.1259 5.31222 13.1285 5.31222C13.1311 5.31222 13.1337 5.31222 13.1363 5.31222C13.1388 5.31222 13.1414 5.31222 13.144 5.31222C13.1466 5.31222 13.1492 5.31222 13.1518 5.31222C13.1544 5.31222 13.157 5.31222 13.1596 5.31222C13.1622 5.31222 13.1647 5.31222 13.1673 5.31222C13.1699 5.31222 13.1725 5.31222 13.1751 5.31222C13.1777 5.31222 13.1803 5.31222 13.1829 5.31222C13.1855 5.31222 13.188 5.31222 13.1906 5.31222C13.1932 5.31222 13.1958 5.31222 13.1984 5.31222C13.201 5.31222 13.2036 5.31222 13.2062 5.31222C13.2088 5.31222 13.2113 5.31222 13.2139 5.31222C13.2165 5.31222 13.2191 5.31222 13.2217 5.31222C13.2243 5.31222 13.2269 5.31222 13.2294 5.31222C13.232 5.31222 13.2346 5.31222 13.2372 5.31222C13.2398 5.31222 13.2424 5.31222 13.245 5.31222C13.2476 5.31222 13.2501 5.31222 13.2527 5.31222C13.2553 5.31222 13.2579 5.31222 13.2605 5.31222C13.2631 5.31222 13.2657 5.31222 13.2682 5.31222C13.2708 5.31222 13.2734 5.31222 13.276 5.31222C13.2786 5.31222 13.2812 5.31222 13.2837 5.31222C13.2863 5.31222 13.2889 5.31222 13.2915 5.31222C13.2941 5.31222 13.2967 5.31222 13.2993 5.31222C13.3018 5.31222 13.3044 5.31222 13.307 5.31222C13.3096 5.31222 13.3122 5.31222 13.3148 5.31222C13.3173 5.31222 13.3199 5.31222 13.3225 5.31222C13.3251 5.31222 13.3277 5.31222 13.3302 5.31222C13.3328 5.31222 13.3354 5.31222 13.338 5.31222C13.3406 5.31222 13.3432 5.31222 13.3457 5.31222C13.3483 5.31222 13.3509 5.31222 13.3535 5.31222C13.3561 5.31222 13.3587 5.31222 13.3612 5.31222C13.3638 5.31222 13.3664 5.31222 13.369 5.31222C13.3716 5.31222 13.3741 5.31222 13.3767 5.31222C13.3793 5.31222 13.3819 5.31222 13.3845 5.31222C13.387 5.31222 13.3896 5.31222 13.3922 5.31222C13.3948 5.31222 13.3974 5.31222 13.3999 5.31222C13.4025 5.31222 13.4051 5.31222 13.4077 5.31222C13.4103 5.31222 13.4128 5.31222 13.4154 5.31222C13.418 5.31222 13.4206 5.31222 13.4231 5.31222C13.4257 5.31222 13.4283 5.31222 13.4309 5.31222C13.4335 5.31222 13.436 5.31222 13.4386 5.31222C13.4412 5.31222 13.4438 5.31222 13.4463 5.31222C13.4489 5.31222 13.4515 5.31222 13.4541 5.31222C13.4567 5.31222 13.4592 5.31222 13.4618 5.31222C13.4644 5.31222 13.467 5.31222 13.4695 5.31222C13.4721 5.31222 13.4747 5.31222 13.4773 5.31222C13.4798 5.31222 13.4824 5.31222 13.485 5.31222C13.4876 5.31222 13.4901 5.31222 13.4927 5.31222C13.4953 5.31222 13.4979 5.31222 13.5004 5.31222C13.503 5.31222 13.5056 5.31222 13.5082 5.31222C13.5107 5.31222 13.5133 5.31222 13.5159 5.31222C13.5185 5.31222 13.521 5.31222 13.5236 5.31222C13.5262 5.31222 13.5288 5.31222 13.5313 5.31222C13.5339 5.31222 13.5365 5.31222 13.539 5.31222C13.5416 5.31222 13.5442 5.31222 13.5468 5.31222C13.5493 5.31222 13.5519 5.31222 13.5545 5.31222C13.5571 5.31222 13.5596 5.31222 13.5622 5.31222C13.5648 5.31222 13.5673 5.31222 13.5699 5.31222C13.5725 5.31222 13.5751 5.31222 13.5776 5.31222C13.5802 5.31222 13.5828 5.31222 13.5853 5.31222C13.5879 5.31222 13.5905 5.31222 13.5931 5.31222C13.5956 5.31222 13.5982 5.31222 13.6008 5.31222C13.6033 5.31222 13.6059 5.31222 13.6085 5.31222C13.611 5.31222 13.6136 5.31222 13.6162 5.31222C13.6187 5.31222 13.6213 5.31222 13.6239 5.31222C13.6265 5.31222 13.629 5.31222 13.6316 5.31222C13.6342 5.31222 13.6367 5.31222 13.6393 5.31222C13.6419 5.31222 13.6444 5.31222 13.647 5.31222C13.6496 5.31222 13.6521 5.31222 13.6547 5.31222C13.6573 5.31222 13.6598 5.31222 13.6624 5.31222C13.665 5.31222 13.6675 5.31222 13.6701 5.31222C13.6727 5.31222 13.6752 5.31222 13.6778 5.31222C13.6804 5.31222 13.6829 5.31222 13.6855 5.31222C13.6881 5.31222 13.6906 5.31222 13.6932 5.31222C13.6958 5.31222 13.6983 5.31222 13.7009 5.31222C13.7035 5.31222 13.706 5.31222 13.7086 5.31222C13.7111 5.31222 13.7137 5.31222 13.7163 5.31222C13.7188 5.31222 13.7214 5.31222 13.724 5.31222C13.7265 5.31222 13.7291 5.31222 13.7317 5.31222C13.7342 5.31222 13.7368 5.31222 13.7393 5.31222C13.7419 5.31222 13.7445 5.31222 13.747 5.31222C13.7496 5.31222 13.7522 5.31222 13.7547 5.31222C13.7573 5.31222 13.7598 5.31222 13.7624 5.31222C13.765 5.31222 13.7675 5.31222 13.7701 5.31222C13.7726 5.31222 13.7752 5.31222 13.7778 5.31222C13.7803 5.31222 13.7829 5.31222 13.7854 5.31222C13.788 5.31222 13.7906 5.31222 13.7931 5.31222C13.7957 5.31222 13.7983 5.31222 13.8008 5.31222C13.8034 5.31222 13.8059 5.31222 13.8085 5.31222C13.811 5.31222 13.8136 5.31222 13.8162 5.31222C13.8187 5.31222 13.8213 5.31222 13.8238 5.31222C13.8264 5.31222 13.829 5.31222 13.8315 5.31222C13.8341 5.31222 13.8366 5.31222 13.8392 5.31222C13.8417 5.31222 13.8443 5.31222 13.8469 5.31222C13.8494 5.31222 13.852 5.31222 13.8545 5.31222C13.8571 5.31222 13.8596 5.31222 13.8622 5.31222C13.8647 5.31222 13.8673 5.31222 13.8699 5.31222C13.8724 5.31222 13.875 5.31222 13.8775 5.31222C13.8801 5.31222 13.8826 5.31222 13.8852 5.31222C13.8877 5.31222 13.8903 5.31222 13.8929 5.31222C13.8954 5.31222 13.898 5.31222 13.9005 5.31222C13.9031 5.31222 13.9056 5.31222 13.9082 5.31222C13.9107 5.31222 13.9133 5.31222 13.9158 5.31222C13.9184 5.31222 13.9209 5.31222 13.9235 5.31222C13.926 5.31222 13.9286 5.31222 13.9312 5.31222C13.9337 5.31222 13.9363 5.31222 13.9388 5.31222C13.9414 5.31222 13.9439 5.31222 13.9465 5.31222C13.949 5.31222 13.9516 5.31222 13.9541 5.31222C13.9567 5.31222 13.9592 5.31222 13.9618 5.31222C13.9643 5.31222 13.9669 5.31222 13.9694 5.31222C13.972 5.31222 13.9745 5.31222 13.9771 5.31222C13.9796 5.31222 13.9822 5.31222 13.9847 5.31222C13.9873 5.31222 13.9898 5.31222 13.9924 5.31222C13.9949 5.31222 13.9975 5.31222 14 5.31222V3.31222C13.9975 3.31222 13.9949 3.31222 13.9924 3.31222C13.9898 3.31222 13.9873 3.31222 13.9847 3.31222C13.9822 3.31222 13.9796 3.31222 13.9771 3.31222C13.9745 3.31222 13.972 3.31222 13.9694 3.31222C13.9669 3.31222 13.9643 3.31222 13.9618 3.31222C13.9592 3.31222 13.9567 3.31222 13.9541 3.31222C13.9516 3.31222 13.949 3.31222 13.9465 3.31222C13.9439 3.31222 13.9414 3.31222 13.9388 3.31222C13.9363 3.31222 13.9337 3.31222 13.9312 3.31222C13.9286 3.31222 13.926 3.31222 13.9235 3.31222C13.9209 3.31222 13.9184 3.31222 13.9158 3.31222C13.9133 3.31222 13.9107 3.31222 13.9082 3.31222C13.9056 3.31222 13.9031 3.31222 13.9005 3.31222C13.898 3.31222 13.8954 3.31222 13.8929 3.31222C13.8903 3.31222 13.8877 3.31222 13.8852 3.31222C13.8826 3.31222 13.8801 3.31222 13.8775 3.31222C13.875 3.31222 13.8724 3.31222 13.8699 3.31222C13.8673 3.31222 13.8647 3.31222 13.8622 3.31222C13.8596 3.31222 13.8571 3.31222 13.8545 3.31222C13.852 3.31222 13.8494 3.31222 13.8469 3.31222C13.8443 3.31222 13.8417 3.31222 13.8392 3.31222C13.8366 3.31222 13.8341 3.31222 13.8315 3.31222C13.829 3.31222 13.8264 3.31222 13.8238 3.31222C13.8213 3.31222 13.8187 3.31222 13.8162 3.31222C13.8136 3.31222 13.811 3.31222 13.8085 3.31222C13.8059 3.31222 13.8034 3.31222 13.8008 3.31222C13.7983 3.31222 13.7957 3.31222 13.7931 3.31222C13.7906 3.31222 13.788 3.31222 13.7854 3.31222C13.7829 3.31222 13.7803 3.31222 13.7778 3.31222C13.7752 3.31222 13.7726 3.31222 13.7701 3.31222C13.7675 3.31222 13.765 3.31222 13.7624 3.31222C13.7598 3.31222 13.7573 3.31222 13.7547 3.31222C13.7522 3.31222 13.7496 3.31222 13.747 3.31222C13.7445 3.31222 13.7419 3.31222 13.7393 3.31222C13.7368 3.31222 13.7342 3.31222 13.7317 3.31222C13.7291 3.31222 13.7265 3.31222 13.724 3.31222C13.7214 3.31222 13.7188 3.31222 13.7163 3.31222C13.7137 3.31222 13.7111 3.31222 13.7086 3.31222C13.706 3.31222 13.7035 3.31222 13.7009 3.31222C13.6983 3.31222 13.6958 3.31222 13.6932 3.31222C13.6906 3.31222 13.6881 3.31222 13.6855 3.31222C13.6829 3.31222 13.6804 3.31222 13.6778 3.31222C13.6752 3.31222 13.6727 3.31222 13.6701 3.31222C13.6675 3.31222 13.665 3.31222 13.6624 3.31222C13.6598 3.31222 13.6573 3.31222 13.6547 3.31222C13.6521 3.31222 13.6496 3.31222 13.647 3.31222C13.6444 3.31222 13.6419 3.31222 13.6393 3.31222C13.6367 3.31222 13.6342 3.31222 13.6316 3.31222C13.629 3.31222 13.6265 3.31222 13.6239 3.31222C13.6213 3.31222 13.6187 3.31222 13.6162 3.31222C13.6136 3.31222 13.611 3.31222 13.6085 3.31222C13.6059 3.31222 13.6033 3.31222 13.6008 3.31222C13.5982 3.31222 13.5956 3.31222 13.5931 3.31222C13.5905 3.31222 13.5879 3.31222 13.5853 3.31222C13.5828 3.31222 13.5802 3.31222 13.5776 3.31222C13.5751 3.31222 13.5725 3.31222 13.5699 3.31222C13.5673 3.31222 13.5648 3.31222 13.5622 3.31222C13.5596 3.31222 13.5571 3.31222 13.5545 3.31222C13.5519 3.31222 13.5493 3.31222 13.5468 3.31222C13.5442 3.31222 13.5416 3.31222 13.539 3.31222C13.5365 3.31222 13.5339 3.31222 13.5313 3.31222C13.5288 3.31222 13.5262 3.31222 13.5236 3.31222C13.521 3.31222 13.5185 3.31222 13.5159 3.31222C13.5133 3.31222 13.5107 3.31222 13.5082 3.31222C13.5056 3.31222 13.503 3.31222 13.5004 3.31222C13.4979 3.31222 13.4953 3.31222 13.4927 3.31222C13.4901 3.31222 13.4876 3.31222 13.485 3.31222C13.4824 3.31222 13.4798 3.31222 13.4773 3.31222C13.4747 3.31222 13.4721 3.31222 13.4695 3.31222C13.467 3.31222 13.4644 3.31222 13.4618 3.31222C13.4592 3.31222 13.4567 3.31222 13.4541 3.31222C13.4515 3.31222 13.4489 3.31222 13.4463 3.31222C13.4438 3.31222 13.4412 3.31222 13.4386 3.31222C13.436 3.31222 13.4335 3.31222 13.4309 3.31222C13.4283 3.31222 13.4257 3.31222 13.4231 3.31222C13.4206 3.31222 13.418 3.31222 13.4154 3.31222C13.4128 3.31222 13.4103 3.31222 13.4077 3.31222C13.4051 3.31222 13.4025 3.31222 13.3999 3.31222C13.3974 3.31222 13.3948 3.31222 13.3922 3.31222C13.3896 3.31222 13.387 3.31222 13.3845 3.31222C13.3819 3.31222 13.3793 3.31222 13.3767 3.31222C13.3741 3.31222 13.3716 3.31222 13.369 3.31222C13.3664 3.31222 13.3638 3.31222 13.3612 3.31222C13.3587 3.31222 13.3561 3.31222 13.3535 3.31222C13.3509 3.31222 13.3483 3.31222 13.3457 3.31222C13.3432 3.31222 13.3406 3.31222 13.338 3.31222C13.3354 3.31222 13.3328 3.31222 13.3302 3.31222C13.3277 3.31222 13.3251 3.31222 13.3225 3.31222C13.3199 3.31222 13.3173 3.31222 13.3148 3.31222C13.3122 3.31222 13.3096 3.31222 13.307 3.31222C13.3044 3.31222 13.3018 3.31222 13.2993 3.31222C13.2967 3.31222 13.2941 3.31222 13.2915 3.31222C13.2889 3.31222 13.2863 3.31222 13.2837 3.31222C13.2812 3.31222 13.2786 3.31222 13.276 3.31222C13.2734 3.31222 13.2708 3.31222 13.2682 3.31222C13.2657 3.31222 13.2631 3.31222 13.2605 3.31222C13.2579 3.31222 13.2553 3.31222 13.2527 3.31222C13.2501 3.31222 13.2476 3.31222 13.245 3.31222C13.2424 3.31222 13.2398 3.31222 13.2372 3.31222C13.2346 3.31222 13.232 3.31222 13.2294 3.31222C13.2269 3.31222 13.2243 3.31222 13.2217 3.31222C13.2191 3.31222 13.2165 3.31222 13.2139 3.31222C13.2113 3.31222 13.2088 3.31222 13.2062 3.31222C13.2036 3.31222 13.201 3.31222 13.1984 3.31222C13.1958 3.31222 13.1932 3.31222 13.1906 3.31222C13.188 3.31222 13.1855 3.31222 13.1829 3.31222C13.1803 3.31222 13.1777 3.31222 13.1751 3.31222C13.1725 3.31222 13.1699 3.31222 13.1673 3.31222C13.1647 3.31222 13.1622 3.31222 13.1596 3.31222C13.157 3.31222 13.1544 3.31222 13.1518 3.31222C13.1492 3.31222 13.1466 3.31222 13.144 3.31222C13.1414 3.31222 13.1388 3.31222 13.1363 3.31222C13.1337 3.31222 13.1311 3.31222 13.1285 3.31222C13.1259 3.31222 13.1233 3.31222 13.1207 3.31222C13.1181 3.31222 13.1155 3.31222 13.1129 3.31222C13.1103 3.31222 13.1078 3.31222 13.1052 3.31222C13.1026 3.31222 13.1 3.31222 13.0974 3.31222C13.0948 3.31222 13.0922 3.31222 13.0896 3.31222C13.087 3.31222 13.0844 3.31222 13.0818 3.31222C13.0792 3.31222 13.0767 3.31222 13.0741 3.31222C13.0715 3.31222 13.0689 3.31222 13.0663 3.31222C13.0637 3.31222 13.0611 3.31222 13.0585 3.31222C13.0559 3.31222 13.0533 3.31222 13.0507 3.31222C13.0481 3.31222 13.0455 3.31222 13.0429 3.31222C13.0403 3.31222 13.0378 3.31222 13.0352 3.31222C13.0326 3.31222 13.03 3.31222 13.0274 3.31222C13.0248 3.31222 13.0222 3.31222 13.0196 3.31222C13.017 3.31222 13.0144 3.31222 13.0118 3.31222C13.0092 3.31222 13.0066 3.31222 13.004 3.31222C13.0014 3.31222 12.9988 3.31222 12.9962 3.31222C12.9936 3.31222 12.991 3.31222 12.9884 3.31222C12.9858 3.31222 12.9833 3.31222 12.9807 3.31222C12.9781 3.31222 12.9755 3.31222 12.9729 3.31222C12.9703 3.31222 12.9677 3.31222 12.9651 3.31222C12.9625 3.31222 12.9599 3.31222 12.9573 3.31222C12.9547 3.31222 12.9521 3.31222 12.9495 3.31222C12.9469 3.31222 12.9443 3.31222 12.9417 3.31222C12.9391 3.31222 12.9365 3.31222 12.9339 3.31222C12.9313 3.31222 12.9287 3.31222 12.9261 3.31222C12.9235 3.31222 12.9209 3.31222 12.9183 3.31222C12.9157 3.31222 12.9131 3.31222 12.9105 3.31222C12.9079 3.31222 12.9053 3.31222 12.9027 3.31222C12.9001 3.31222 12.8975 3.31222 12.8949 3.31222C12.8923 3.31222 12.8897 3.31222 12.8871 3.31222C12.8845 3.31222 12.8819 3.31222 12.8793 3.31222C12.8767 3.31222 12.8741 3.31222 12.8715 3.31222C12.8689 3.31222 12.8663 3.31222 12.8637 3.31222C12.8611 3.31222 12.8585 3.31222 12.8559 3.31222C12.8533 3.31222 12.8507 3.31222 12.8481 3.31222C12.8455 3.31222 12.8429 3.31222 12.8403 3.31222C12.8377 3.31222 12.8351 3.31222 12.8325 3.31222C12.8299 3.31222 12.8273 3.31222 12.8247 3.31222C12.8221 3.31222 12.8195 3.31222 12.8169 3.31222C12.8143 3.31222 12.8117 3.31222 12.8091 3.31222C12.8065 3.31222 12.8039 3.31222 12.8013 3.31222C12.7987 3.31222 12.7961 3.31222 12.7935 3.31222C12.7909 3.31222 12.7883 3.31222 12.7857 3.31222C12.7831 3.31222 12.7805 3.31222 12.7779 3.31222C12.7753 3.31222 12.7727 3.31222 12.7701 3.31222C12.7675 3.31222 12.7649 3.31222 12.7623 3.31222C12.7597 3.31222 12.7571 3.31222 12.7545 3.31222C12.7519 3.31222 12.7493 3.31222 12.7466 3.31222C12.744 3.31222 12.7414 3.31222 12.7388 3.31222C12.7362 3.31222 12.7336 3.31222 12.731 3.31222C12.7284 3.31222 12.7258 3.31222 12.7232 3.31222C12.7206 3.31222 12.718 3.31222 12.7154 3.31222C12.7128 3.31222 12.7102 3.31222 12.7076 3.31222C12.705 3.31222 12.7024 3.31222 12.6998 3.31222C12.6972 3.31222 12.6946 3.31222 12.692 3.31222C12.6893 3.31222 12.6867 3.31222 12.6841 3.31222C12.6815 3.31222 12.6789 3.31222 12.6763 3.31222C12.6737 3.31222 12.6711 3.31222 12.6685 3.31222C12.6659 3.31222 12.6633 3.31222 12.6607 3.31222C12.6581 3.31222 12.6555 3.31222 12.6529 3.31222C12.6503 3.31222 12.6476 3.31222 12.645 3.31222C12.6424 3.31222 12.6398 3.31222 12.6372 3.31222C12.6346 3.31222 12.632 3.31222 12.6294 3.31222C12.6268 3.31222 12.6242 3.31222 12.6216 3.31222C12.619 3.31222 12.6164 3.31222 12.6138 3.31222C12.6111 3.31222 12.6085 3.31222 12.6059 3.31222C12.6033 3.31222 12.6007 3.31222 12.5981 3.31222C12.5955 3.31222 12.5929 3.31222 12.5903 3.31222C12.5877 3.31222 12.5851 3.31222 12.5825 3.31222C12.5799 3.31222 12.5772 3.31222 12.5746 3.31222C12.572 3.31222 12.5694 3.31222 12.5668 3.31222C12.5642 3.31222 12.5616 3.31222 12.559 3.31222C12.5564 3.31222 12.5538 3.31222 12.5512 3.31222C12.5485 3.31222 12.5459 3.31222 12.5433 3.31222C12.5407 3.31222 12.5381 3.31222 12.5355 3.31222C12.5329 3.31222 12.5303 3.31222 12.5277 3.31222C12.5251 3.31222 12.5225 3.31222 12.5198 3.31222C12.5172 3.31222 12.5146 3.31222 12.512 3.31222C12.5094 3.31222 12.5068 3.31222 12.5042 3.31222C12.5016 3.31222 12.499 3.31222 12.4964 3.31222C12.4937 3.31222 12.4911 3.31222 12.4885 3.31222C12.4859 3.31222 12.4833 3.31222 12.4807 3.31222C12.4781 3.31222 12.4755 3.31222 12.4729 3.31222C12.4702 3.31222 12.4676 3.31222 12.465 3.31222C12.4624 3.31222 12.4598 3.31222 12.4572 3.31222C12.4546 3.31222 12.452 3.31222 12.4494 3.31222C12.4467 3.31222 12.4441 3.31222 12.4415 3.31222C12.4389 3.31222 12.4363 3.31222 12.4337 3.31222C12.4311 3.31222 12.4285 3.31222 12.4258 3.31222C12.4232 3.31222 12.4206 3.31222 12.418 3.31222C12.4154 3.31222 12.4128 3.31222 12.4102 3.31222C12.4076 3.31222 12.4049 3.31222 12.4023 3.31222C12.3997 3.31222 12.3971 3.31222 12.3945 3.31222C12.3919 3.31222 12.3893 3.31222 12.3867 3.31222C12.384 3.31222 12.3814 3.31222 12.3788 3.31222C12.3762 3.31222 12.3736 3.31222 12.371 3.31222C12.3684 3.31222 12.3658 3.31222 12.3631 3.31222C12.3605 3.31222 12.3579 3.31222 12.3553 3.31222C12.3527 3.31222 12.3501 3.31222 12.3475 3.31222C12.3448 3.31222 12.3422 3.31222 12.3396 3.31222C12.337 3.31222 12.3344 3.31222 12.3318 3.31222C12.3292 3.31222 12.3265 3.31222 12.3239 3.31222C12.3213 3.31222 12.3187 3.31222 12.3161 3.31222C12.3135 3.31222 12.3109 3.31222 12.3082 3.31222C12.3056 3.31222 12.303 3.31222 12.3004 3.31222C12.2978 3.31222 12.2952 3.31222 12.2926 3.31222C12.2899 3.31222 12.2873 3.31222 12.2847 3.31222C12.2821 3.31222 12.2795 3.31222 12.2769 3.31222C12.2743 3.31222 12.2716 3.31222 12.269 3.31222C12.2664 3.31222 12.2638 3.31222 12.2612 3.31222C12.2586 3.31222 12.2559 3.31222 12.2533 3.31222C12.2507 3.31222 12.2481 3.31222 12.2455 3.31222C12.2429 3.31222 12.2402 3.31222 12.2376 3.31222C12.235 3.31222 12.2324 3.31222 12.2298 3.31222C12.2272 3.31222 12.2246 3.31222 12.2219 3.31222C12.2193 3.31222 12.2167 3.31222 12.2141 3.31222C12.2115 3.31222 12.2089 3.31222 12.2062 3.31222C12.2036 3.31222 12.201 3.31222 12.1984 3.31222C12.1958 3.31222 12.1932 3.31222 12.1905 3.31222C12.1879 3.31222 12.1853 3.31222 12.1827 3.31222C12.1801 3.31222 12.1775 3.31222 12.1748 3.31222C12.1722 3.31222 12.1696 3.31222 12.167 3.31222C12.1644 3.31222 12.1618 3.31222 12.1591 3.31222C12.1565 3.31222 12.1539 3.31222 12.1513 3.31222C12.1487 3.31222 12.146 3.31222 12.1434 3.31222C12.1408 3.31222 12.1382 3.31222 12.1356 3.31222C12.133 3.31222 12.1303 3.31222 12.1277 3.31222C12.1251 3.31222 12.1225 3.31222 12.1199 3.31222C12.1173 3.31222 12.1146 3.31222 12.112 3.31222C12.1094 3.31222 12.1068 3.31222 12.1042 3.31222C12.1015 3.31222 12.0989 3.31222 12.0963 3.31222C12.0937 3.31222 12.0911 3.31222 12.0885 3.31222C12.0858 3.31222 12.0832 3.31222 12.0806 3.31222C12.078 3.31222 12.0754 3.31222 12.0727 3.31222C12.0701 3.31222 12.0675 3.31222 12.0649 3.31222C12.0623 3.31222 12.0597 3.31222 12.057 3.31222C12.0544 3.31222 12.0518 3.31222 12.0492 3.31222C12.0466 3.31222 12.0439 3.31222 12.0413 3.31222C12.0387 3.31222 12.0361 3.31222 12.0335 3.31222C12.0308 3.31222 12.0282 3.31222 12.0256 3.31222C12.023 3.31222 12.0204 3.31222 12.0177 3.31222C12.0151 3.31222 12.0125 3.31222 12.0099 3.31222C12.0073 3.31222 12.0046 3.31222 12.002 3.31222C11.9994 3.31222 11.9968 3.31222 11.9942 3.31222C11.9916 3.31222 11.9889 3.31222 11.9863 3.31222C11.9837 3.31222 11.9811 3.31222 11.9785 3.31222C11.9758 3.31222 11.9732 3.31222 11.9706 3.31222C11.968 3.31222 11.9654 3.31222 11.9627 3.31222C11.9601 3.31222 11.9575 3.31222 11.9549 3.31222C11.9523 3.31222 11.9496 3.31222 11.947 3.31222C11.9444 3.31222 11.9418 3.31222 11.9392 3.31222C11.9365 3.31222 11.9339 3.31222 11.9313 3.31222C11.9287 3.31222 11.9261 3.31222 11.9234 3.31222C11.9208 3.31222 11.9182 3.31222 11.9156 3.31222C11.9129 3.31222 11.9103 3.31222 11.9077 3.31222C11.9051 3.31222 11.9025 3.31222 11.8998 3.31222C11.8972 3.31222 11.8946 3.31222 11.892 3.31222C11.8894 3.31222 11.8867 3.31222 11.8841 3.31222C11.8815 3.31222 11.8789 3.31222 11.8763 3.31222C11.8736 3.31222 11.871 3.31222 11.8684 3.31222C11.8658 3.31222 11.8632 3.31222 11.8605 3.31222C11.8579 3.31222 11.8553 3.31222 11.8527 3.31222C11.85 3.31222 11.8474 3.31222 11.8448 3.31222C11.8422 3.31222 11.8396 3.31222 11.8369 3.31222C11.8343 3.31222 11.8317 3.31222 11.8291 3.31222C11.8265 3.31222 11.8238 3.31222 11.8212 3.31222C11.8186 3.31222 11.816 3.31222 11.8133 3.31222C11.8107 3.31222 11.8081 3.31222 11.8055 3.31222C11.8029 3.31222 11.8002 3.31222 11.7976 3.31222C11.795 3.31222 11.7924 3.31222 11.7898 3.31222C11.7871 3.31222 11.7845 3.31222 11.7819 3.31222C11.7793 3.31222 11.7766 3.31222 11.774 3.31222C11.7714 3.31222 11.7688 3.31222 11.7662 3.31222C11.7635 3.31222 11.7609 3.31222 11.7583 3.31222C11.7557 3.31222 11.753 3.31222 11.7504 3.31222C11.7478 3.31222 11.7452 3.31222 11.7426 3.31222C11.7399 3.31222 11.7373 3.31222 11.7347 3.31222C11.7321 3.31222 11.7295 3.31222 11.7268 3.31222C11.7242 3.31222 11.7216 3.31222 11.719 3.31222C11.7163 3.31222 11.7137 3.31222 11.7111 3.31222C11.7085 3.31222 11.7059 3.31222 11.7032 3.31222C11.7006 3.31222 11.698 3.31222 11.6954 3.31222C11.6927 3.31222 11.6901 3.31222 11.6875 3.31222C11.6849 3.31222 11.6823 3.31222 11.6796 3.31222C11.677 3.31222 11.6744 3.31222 11.6718 3.31222C11.6691 3.31222 11.6665 3.31222 11.6639 3.31222C11.6613 3.31222 11.6586 3.31222 11.656 3.31222C11.6534 3.31222 11.6508 3.31222 11.6482 3.31222C11.6455 3.31222 11.6429 3.31222 11.6403 3.31222C11.6377 3.31222 11.635 3.31222 11.6324 3.31222C11.6298 3.31222 11.6272 3.31222 11.6246 3.31222C11.6219 3.31222 11.6193 3.31222 11.6167 3.31222C11.6141 3.31222 11.6114 3.31222 11.6088 3.31222C11.6062 3.31222 11.6036 3.31222 11.601 3.31222C11.5983 3.31222 11.5957 3.31222 11.5931 3.31222C11.5905 3.31222 11.5878 3.31222 11.5852 3.31222C11.5826 3.31222 11.58 3.31222 11.5773 3.31222C11.5747 3.31222 11.5721 3.31222 11.5695 3.31222C11.5669 3.31222 11.5642 3.31222 11.5616 3.31222C11.559 3.31222 11.5564 3.31222 11.5537 3.31222C11.5511 3.31222 11.5485 3.31222 11.5459 3.31222C11.5432 3.31222 11.5406 3.31222 11.538 3.31222C11.5354 3.31222 11.5328 3.31222 11.5301 3.31222C11.5275 3.31222 11.5249 3.31222 11.5223 3.31222C11.5196 3.31222 11.517 3.31222 11.5144 3.31222C11.5118 3.31222 11.5092 3.31222 11.5065 3.31222C11.5039 3.31222 11.5013 3.31222 11.4987 3.31222C11.496 3.31222 11.4934 3.31222 11.4908 3.31222C11.4882 3.31222 11.4855 3.31222 11.4829 3.31222C11.4803 3.31222 11.4777 3.31222 11.4751 3.31222C11.4724 3.31222 11.4698 3.31222 11.4672 3.31222C11.4646 3.31222 11.4619 3.31222 11.4593 3.31222C11.4567 3.31222 11.4541 3.31222 11.4514 3.31222C11.4488 3.31222 11.4462 3.31222 11.4436 3.31222C11.441 3.31222 11.4383 3.31222 11.4357 3.31222C11.4331 3.31222 11.4305 3.31222 11.4278 3.31222C11.4252 3.31222 11.4226 3.31222 11.42 3.31222C11.4173 3.31222 11.4147 3.31222 11.4121 3.31222C11.4095 3.31222 11.4069 3.31222 11.4042 3.31222C11.4016 3.31222 11.399 3.31222 11.3964 3.31222C11.3937 3.31222 11.3911 3.31222 11.3885 3.31222C11.3859 3.31222 11.3832 3.31222 11.3806 3.31222C11.378 3.31222 11.3754 3.31222 11.3728 3.31222C11.3701 3.31222 11.3675 3.31222 11.3649 3.31222C11.3623 3.31222 11.3596 3.31222 11.357 3.31222C11.3544 3.31222 11.3518 3.31222 11.3491 3.31222C11.3465 3.31222 11.3439 3.31222 11.3413 3.31222C11.3387 3.31222 11.336 3.31222 11.3334 3.31222C11.3308 3.31222 11.3282 3.31222 11.3255 3.31222C11.3229 3.31222 11.3203 3.31222 11.3177 3.31222C11.315 3.31222 11.3124 3.31222 11.3098 3.31222C11.3072 3.31222 11.3046 3.31222 11.3019 3.31222C11.2993 3.31222 11.2967 3.31222 11.2941 3.31222C11.2914 3.31222 11.2888 3.31222 11.2862 3.31222C11.2836 3.31222 11.281 3.31222 11.2783 3.31222C11.2757 3.31222 11.2731 3.31222 11.2705 3.31222C11.2678 3.31222 11.2652 3.31222 11.2626 3.31222C11.26 3.31222 11.2573 3.31222 11.2547 3.31222C11.2521 3.31222 11.2495 3.31222 11.2469 3.31222C11.2442 3.31222 11.2416 3.31222 11.239 3.31222C11.2364 3.31222 11.2337 3.31222 11.2311 3.31222C11.2285 3.31222 11.2259 3.31222 11.2233 3.31222C11.2206 3.31222 11.218 3.31222 11.2154 3.31222C11.2128 3.31222 11.2101 3.31222 11.2075 3.31222C11.2049 3.31222 11.2023 3.31222 11.1997 3.31222C11.197 3.31222 11.1944 3.31222 11.1918 3.31222C11.1892 3.31222 11.1865 3.31222 11.1839 3.31222C11.1813 3.31222 11.1787 3.31222 11.1761 3.31222C11.1734 3.31222 11.1708 3.31222 11.1682 3.31222C11.1656 3.31222 11.1629 3.31222 11.1603 3.31222C11.1577 3.31222 11.1551 3.31222 11.1525 3.31222C11.1498 3.31222 11.1472 3.31222 11.1446 3.31222C11.142 3.31222 11.1393 3.31222 11.1367 3.31222C11.1341 3.31222 11.1315 3.31222 11.1289 3.31222C11.1262 3.31222 11.1236 3.31222 11.121 3.31222C11.1184 3.31222 11.1157 3.31222 11.1131 3.31222C11.1105 3.31222 11.1079 3.31222 11.1053 3.31222C11.1026 3.31222 11.1 3.31222 11.0974 3.31222C11.0948 3.31222 11.0922 3.31222 11.0895 3.31222C11.0869 3.31222 11.0843 3.31222 11.0817 3.31222C11.079 3.31222 11.0764 3.31222 11.0738 3.31222C11.0712 3.31222 11.0686 3.31222 11.0659 3.31222C11.0633 3.31222 11.0607 3.31222 11.0581 3.31222C11.0554 3.31222 11.0528 3.31222 11.0502 3.31222C11.0476 3.31222 11.045 3.31222 11.0423 3.31222C11.0397 3.31222 11.0371 3.31222 11.0345 3.31222C11.0319 3.31222 11.0292 3.31222 11.0266 3.31222C11.024 3.31222 11.0214 3.31222 11.0188 3.31222C11.0161 3.31222 11.0135 3.31222 11.0109 3.31222C11.0083 3.31222 11.0056 3.31222 11.003 3.31222C11.0004 3.31222 10.9978 3.31222 10.9952 3.31222C10.9925 3.31222 10.9899 3.31222 10.9873 3.31222C10.9847 3.31222 10.9821 3.31222 10.9794 3.31222C10.9768 3.31222 10.9742 3.31222 10.9716 3.31222C10.969 3.31222 10.9663 3.31222 10.9637 3.31222C10.9611 3.31222 10.9585 3.31222 10.9559 3.31222C10.9532 3.31222 10.9506 3.31222 10.948 3.31222C10.9454 3.31222 10.9428 3.31222 10.9401 3.31222C10.9375 3.31222 10.9349 3.31222 10.9323 3.31222C10.9297 3.31222 10.927 3.31222 10.9244 3.31222C10.9218 3.31222 10.9192 3.31222 10.9166 3.31222C10.9139 3.31222 10.9113 3.31222 10.9087 3.31222C10.9061 3.31222 10.9035 3.31222 10.9008 3.31222C10.8982 3.31222 10.8956 3.31222 10.893 3.31222C10.8904 3.31222 10.8877 3.31222 10.8851 3.31222C10.8825 3.31222 10.8799 3.31222 10.8773 3.31222C10.8746 3.31222 10.872 3.31222 10.8694 3.31222C10.8668 3.31222 10.8642 3.31222 10.8615 3.31222C10.8589 3.31222 10.8563 3.31222 10.8537 3.31222C10.8511 3.31222 10.8484 3.31222 10.8458 3.31222C10.8432 3.31222 10.8406 3.31222 10.838 3.31222C10.8354 3.31222 10.8327 3.31222 10.8301 3.31222C10.8275 3.31222 10.8249 3.31222 10.8223 3.31222C10.8196 3.31222 10.817 3.31222 10.8144 3.31222C10.8118 3.31222 10.8092 3.31222 10.8065 3.31222C10.8039 3.31222 10.8013 3.31222 10.7987 3.31222C10.7961 3.31222 10.7935 3.31222 10.7908 3.31222C10.7882 3.31222 10.7856 3.31222 10.783 3.31222C10.7804 3.31222 10.7777 3.31222 10.7751 3.31222C10.7725 3.31222 10.7699 3.31222 10.7673 3.31222C10.7647 3.31222 10.762 3.31222 10.7594 3.31222C10.7568 3.31222 10.7542 3.31222 10.7516 3.31222C10.749 3.31222 10.7463 3.31222 10.7437 3.31222C10.7411 3.31222 10.7385 3.31222 10.7359 3.31222C10.7332 3.31222 10.7306 3.31222 10.728 3.31222C10.7254 3.31222 10.7228 3.31222 10.7202 3.31222C10.7175 3.31222 10.7149 3.31222 10.7123 3.31222C10.7097 3.31222 10.7071 3.31222 10.7045 3.31222C10.7018 3.31222 10.6992 3.31222 10.6966 3.31222C10.694 3.31222 10.6914 3.31222 10.6888 3.31222C10.6861 3.31222 10.6835 3.31222 10.6809 3.31222C10.6783 3.31222 10.6757 3.31222 10.6731 3.31222C10.6704 3.31222 10.6678 3.31222 10.6652 3.31222C10.6626 3.31222 10.66 3.31222 10.6574 3.31222C10.6547 3.31222 10.6521 3.31222 10.6495 3.31222C10.6469 3.31222 10.6443 3.31222 10.6417 3.31222C10.6391 3.31222 10.6364 3.31222 10.6338 3.31222C10.6312 3.31222 10.6286 3.31222 10.626 3.31222C10.6234 3.31222 10.6207 3.31222 10.6181 3.31222C10.6155 3.31222 10.6129 3.31222 10.6103 3.31222C10.6077 3.31222 10.605 3.31222 10.6024 3.31222C10.5998 3.31222 10.5972 3.31222 10.5946 3.31222C10.592 3.31222 10.5894 3.31222 10.5867 3.31222C10.5841 3.31222 10.5815 3.31222 10.5789 3.31222C10.5763 3.31222 10.5737 3.31222 10.5711 3.31222C10.5684 3.31222 10.5658 3.31222 10.5632 3.31222C10.5606 3.31222 10.558 3.31222 10.5554 3.31222C10.5528 3.31222 10.5501 3.31222 10.5475 3.31222C10.5449 3.31222 10.5423 3.31222 10.5397 3.31222C10.5371 3.31222 10.5345 3.31222 10.5318 3.31222C10.5292 3.31222 10.5266 3.31222 10.524 3.31222C10.5214 3.31222 10.5188 3.31222 10.5162 3.31222C10.5136 3.31222 10.5109 3.31222 10.5083 3.31222C10.5057 3.31222 10.5031 3.31222 10.5005 3.31222C10.4979 3.31222 10.4953 3.31222 10.4926 3.31222C10.49 3.31222 10.4874 3.31222 10.4848 3.31222C10.4822 3.31222 10.4796 3.31222 10.477 3.31222C10.4744 3.31222 10.4717 3.31222 10.4691 3.31222C10.4665 3.31222 10.4639 3.31222 10.4613 3.31222C10.4587 3.31222 10.4561 3.31222 10.4535 3.31222C10.4509 3.31222 10.4482 3.31222 10.4456 3.31222C10.443 3.31222 10.4404 3.31222 10.4378 3.31222C10.4352 3.31222 10.4326 3.31222 10.43 3.31222C10.4273 3.31222 10.4247 3.31222 10.4221 3.31222C10.4195 3.31222 10.4169 3.31222 10.4143 3.31222C10.4117 3.31222 10.4091 3.31222 10.4065 3.31222C10.4038 3.31222 10.4012 3.31222 10.3986 3.31222C10.396 3.31222 10.3934 3.31222 10.3908 3.31222C10.3882 3.31222 10.3856 3.31222 10.383 3.31222C10.3804 3.31222 10.3777 3.31222 10.3751 3.31222C10.3725 3.31222 10.3699 3.31222 10.3673 3.31222C10.3647 3.31222 10.3621 3.31222 10.3595 3.31222C10.3569 3.31222 10.3543 3.31222 10.3516 3.31222C10.349 3.31222 10.3464 3.31222 10.3438 3.31222C10.3412 3.31222 10.3386 3.31222 10.336 3.31222C10.3334 3.31222 10.3308 3.31222 10.3282 3.31222C10.3255 3.31222 10.3229 3.31222 10.3203 3.31222C10.3177 3.31222 10.3151 3.31222 10.3125 3.31222C10.3099 3.31222 10.3073 3.31222 10.3047 3.31222C10.3021 3.31222 10.2995 3.31222 10.2969 3.31222C10.2942 3.31222 10.2916 3.31222 10.289 3.31222C10.2864 3.31222 10.2838 3.31222 10.2812 3.31222C10.2786 3.31222 10.276 3.31222 10.2734 3.31222C10.2708 3.31222 10.2682 3.31222 10.2656 3.31222C10.263 3.31222 10.2603 3.31222 10.2577 3.31222C10.2551 3.31222 10.2525 3.31222 10.2499 3.31222C10.2473 3.31222 10.2447 3.31222 10.2421 3.31222C10.2395 3.31222 10.2369 3.31222 10.2343 3.31222C10.2317 3.31222 10.2291 3.31222 10.2265 3.31222C10.2239 3.31222 10.2212 3.31222 10.2186 3.31222C10.216 3.31222 10.2134 3.31222 10.2108 3.31222C10.2082 3.31222 10.2056 3.31222 10.203 3.31222C10.2004 3.31222 10.1978 3.31222 10.1952 3.31222C10.1926 3.31222 10.19 3.31222 10.1874 3.31222C10.1848 3.31222 10.1822 3.31222 10.1796 3.31222C10.177 3.31222 10.1743 3.31222 10.1717 3.31222C10.1691 3.31222 10.1665 3.31222 10.1639 3.31222C10.1613 3.31222 10.1587 3.31222 10.1561 3.31222C10.1535 3.31222 10.1509 3.31222 10.1483 3.31222C10.1457 3.31222 10.1431 3.31222 10.1405 3.31222C10.1379 3.31222 10.1353 3.31222 10.1327 3.31222C10.1301 3.31222 10.1275 3.31222 10.1249 3.31222C10.1223 3.31222 10.1197 3.31222 10.1171 3.31222C10.1145 3.31222 10.1119 3.31222 10.1093 3.31222C10.1066 3.31222 10.104 3.31222 10.1014 3.31222C10.0988 3.31222 10.0962 3.31222 10.0936 3.31222C10.091 3.31222 10.0884 3.31222 10.0858 3.31222C10.0832 3.31222 10.0806 3.31222 10.078 3.31222C10.0754 3.31222 10.0728 3.31222 10.0702 3.31222C10.0676 3.31222 10.065 3.31222 10.0624 3.31222C10.0598 3.31222 10.0572 3.31222 10.0546 3.31222C10.052 3.31222 10.0494 3.31222 10.0468 3.31222C10.0442 3.31222 10.0416 3.31222 10.039 3.31222C10.0364 3.31222 10.0338 3.31222 10.0312 3.31222C10.0286 3.31222 10.026 3.31222 10.0234 3.31222C10.0208 3.31222 10.0182 3.31222 10.0156 3.31222C10.013 3.31222 10.0104 3.31222 10.0078 3.31222C10.0052 3.31222 10.0026 3.31222 10 3.31222V5.31222ZM13.6948 5.26451C13.8271 5.3069 13.958 5.35438 14.0874 5.40694L14.8402 3.55403C14.6639 3.48238 14.4854 3.41768 14.3052 3.35993L13.6948 5.26451ZM15 4.31222V2.5H13V4.31222H15ZM13 0.5H11V2.5H13V0.5ZM15 2.5C15 1.39543 14.1046 0.5 13 0.5V2.5V2.5H15ZM10.5 19C9.94772 19 9.5 18.5523 9.5 18H7.5C7.5 19.6569 8.84315 21 10.5 21V19ZM14.5 18C14.5 18.5523 14.0523 19 13.5 19V21C15.1569 21 16.5 19.6569 16.5 18H14.5ZM15.4 18C14.9029 18 14.5 17.5971 14.5 17.1H16.5C16.5 16.4925 16.0075 16 15.4 16V18ZM11 2.5V2.5V0.5C9.89543 0.5 9 1.39543 9 2.5H11ZM8.6 16C7.99249 16 7.5 16.4925 7.5 17.1H9.5C9.5 17.5971 9.09705 18 8.6 18V16Z" fill="#28293D"/>
</svg>
