<svg width="24" height="24" viewBox="0 0 24 24" fill="none" xmlns="http://www.w3.org/2000/svg">
<path d="M3.13043 19.505L3.83754 18.7979L3.13043 19.505ZM3.13043 14.0468L3.83754 14.7539L3.13043 14.0468ZM9.95318 20.8696L10.6603 21.5767L9.95318 20.8696ZM4.49498 20.8696L3.78787 21.5767L4.49498 20.8696ZM20.8696 4.49498L21.5767 3.78787V3.78787L20.8696 4.49498ZM20.8696 9.95318L21.5767 10.6603L20.8696 9.95318ZM19.505 3.13043L18.7979 3.83754V3.83754L19.505 3.13043ZM14.0468 3.13043L14.7539 3.83754L14.0468 3.13043ZM9.25084 13.3445L9.95795 12.6374L9.25084 13.3445ZM9.25084 11.9799L9.95795 12.687L9.25084 11.9799ZM11.9799 14.709L12.687 15.4161L11.9799 14.709ZM10.6154 14.709L9.90829 15.4161L10.6154 14.709ZM14.709 10.6154L15.4161 9.90826V9.90826L14.709 10.6154ZM14.709 11.9799L14.0019 11.2728L14.709 11.9799ZM13.3445 9.25081L12.6374 9.95792V9.95792L13.3445 9.25081ZM11.9799 9.25081L11.2728 8.54371L11.9799 9.25081ZM4.49498 3.13043L5.20209 3.83754V3.83754L4.49498 3.13043ZM3.13043 4.49498L2.42332 3.78787L2.42332 3.78787L3.13043 4.49498ZM3.13043 9.95318L2.42332 10.6603H2.42332L3.13043 9.95318ZM14.0468 20.8696L14.7539 20.1625V20.1625L14.0468 20.8696ZM19.505 20.8696L20.2121 21.5767V21.5767L19.505 20.8696ZM20.8696 19.505L20.1625 18.7979V18.7979L20.8696 19.505ZM9.95318 3.13043L9.24607 3.83754L9.24607 3.83754L9.95318 3.13043ZM12 5.17725L12.7071 5.88436L12 5.17725ZM5.17725 12L4.47015 11.2929L5.17725 12ZM12 18.8227L11.2929 18.1156L12 18.8227ZM18.7979 3.83754L20.1625 5.20209L21.5767 3.78787L20.2121 2.42332L18.7979 3.83754ZM5.20209 20.1625L3.83754 18.7979L2.42332 20.2121L3.78787 21.5767L5.20209 20.1625ZM3.83754 18.7979C2.72082 17.6812 2.72082 15.8706 3.83754 14.7539L2.42332 13.3397C0.525559 15.2375 0.525559 18.3144 2.42332 20.2121L3.83754 18.7979ZM9.24607 20.1625C8.12935 21.2792 6.3188 21.2792 5.20209 20.1625L3.78787 21.5767C5.68564 23.4744 8.76252 23.4744 10.6603 21.5767L9.24607 20.1625ZM20.1625 5.20209C21.2792 6.3188 21.2792 8.12935 20.1625 9.24607L21.5767 10.6603C23.4744 8.76252 23.4744 5.68564 21.5767 3.78787L20.1625 5.20209ZM20.2121 2.42332C18.3144 0.525559 15.2375 0.525559 13.3397 2.42332L14.7539 3.83754C15.8706 2.72082 17.6812 2.72082 18.7979 3.83754L20.2121 2.42332ZM12.6374 9.95792L14.0019 11.3225L15.4161 9.90826L14.0516 8.54371L12.6374 9.95792ZM14.0019 11.2728L11.2728 14.0019L12.687 15.4161L15.4161 12.687L14.0019 11.2728ZM11.3225 14.0019L9.95795 12.6374L8.54374 14.0516L9.90829 15.4161L11.3225 14.0019ZM9.95795 12.687L12.687 9.95792L11.2728 8.54371L8.54374 11.2728L9.95795 12.687ZM9.95795 12.6374C9.97167 12.6511 9.97167 12.6733 9.95795 12.687L8.54374 11.2728C7.7764 12.0401 7.7764 13.2842 8.54374 14.0516L9.95795 12.6374ZM11.2728 14.0019C11.2865 13.9882 11.3088 13.9882 11.3225 14.0019L9.90829 15.4161C10.6756 16.1835 11.9197 16.1835 12.687 15.4161L11.2728 14.0019ZM14.0019 11.3225C13.9882 11.3088 13.9882 11.2865 14.0019 11.2728L15.4161 12.687C16.1835 11.9197 16.1835 10.6756 15.4161 9.90826L14.0019 11.3225ZM14.0516 8.54371C13.2843 7.77637 12.0402 7.77637 11.2728 8.54371L12.687 9.95792C12.6733 9.97164 12.6511 9.97164 12.6374 9.95792L14.0516 8.54371ZM3.78787 2.42332L2.42332 3.78787L3.83754 5.20209L5.20209 3.83754L3.78787 2.42332ZM20.2121 21.5767L21.5767 20.2121L20.1625 18.7979L18.7979 20.1625L20.2121 21.5767ZM21.5767 20.2121C23.4744 18.3144 23.4744 15.2375 21.5767 13.3397L20.1625 14.7539C21.2792 15.8706 21.2792 17.6812 20.1625 18.7979L21.5767 20.2121ZM13.3397 21.5767C15.2375 23.4744 18.3144 23.4744 20.2121 21.5767L18.7979 20.1625C17.6812 21.2792 15.8706 21.2792 14.7539 20.1625L13.3397 21.5767ZM2.42332 3.78787C0.525561 5.68564 0.525561 8.76252 2.42332 10.6603L3.83754 9.24607C2.72082 8.12935 2.72082 6.3188 3.83754 5.20209L2.42332 3.78787ZM5.20209 3.83754C6.3188 2.72082 8.12935 2.72082 9.24607 3.83754L10.6603 2.42332C8.76252 0.525559 5.68564 0.525559 3.78787 2.42332L5.20209 3.83754ZM12.7071 5.88436L14.7539 3.83754L13.3397 2.42332L11.2929 4.47015L12.7071 5.88436ZM3.83754 14.7539L5.88436 12.7071L4.47015 11.2929L2.42332 13.3397L3.83754 14.7539ZM5.88436 12.7071L12.7071 5.88436L11.2929 4.47015L4.47015 11.2929L5.88436 12.7071ZM11.2929 18.1156L9.24607 20.1625L10.6603 21.5767L12.7071 19.5299L11.2929 18.1156ZM20.1625 9.24607L18.1156 11.2929L19.5299 12.7071L21.5767 10.6603L20.1625 9.24607ZM18.1156 11.2929L11.2929 18.1156L12.7071 19.5299L19.5299 12.7071L18.1156 11.2929ZM11.3225 3.08554L10.6603 2.42332L9.24607 3.83754L9.90829 4.49975L11.3225 3.08554ZM2.42332 10.6603L3.08551 11.3225L4.49972 9.90826L3.83754 9.24607L2.42332 10.6603ZM21.5767 13.3397L20.8743 12.6374L19.4601 14.0516L20.1625 14.7539L21.5767 13.3397ZM12.6374 20.8743L13.3397 21.5767L14.7539 20.1625L14.0516 19.4601L12.6374 20.8743Z" fill="#28293D"/>
</svg>
