<svg width="24" height="24" viewBox="0 0 24 24" fill="none" xmlns="http://www.w3.org/2000/svg">
<path d="M9.5 16V17H10.5V16H9.5ZM3.5 16H2.5V17H3.5V16ZM8 20V21H9V20H8ZM20.5 16V17H21.5V16H20.5ZM14.5 16H13.5V17H14.5V16ZM19 20V21H20V20H19ZM3.5 4H9.5V2H3.5V4ZM4.5 16V3H2.5V16H4.5ZM3.5 2H2V4H3.5V2ZM2 4H9.5V2H2V4ZM11 2H9.5V4H11V2ZM5 15H3.5V17H5V15ZM4 16V20H6V16H4ZM9.5 15H8V17H9.5V15ZM8 15H5V17H8V15ZM7 16V20H9V16H7ZM8 19H3.5V21H8V19ZM3.5 21H9.5V19H3.5V21ZM14.5 4H20.5V2H14.5V4ZM19.5 3V16H21.5V3H19.5ZM14.5 2H13V4H14.5V2ZM13 4H20.5V2H13V4ZM22 2H20.5V4H22V2ZM16 15H14.5V17H16V15ZM15 16V20H17V16H15ZM20.5 15H19V17H20.5V15ZM19 15H16V17H19V15ZM18 16V20H20V16H18ZM19 19H14.5V21H19V19ZM14.5 21H20.5V19H14.5V21ZM8.5 3V10H10.5V3H8.5ZM8.5 10V16H10.5V10H8.5ZM15.5 16V10H13.5V16H15.5ZM15.5 10V3H13.5V10H15.5ZM9.5 11H14.5V9H9.5V11ZM11 8.5V11.5H13V8.5H11Z" fill="#28293D"/>
</svg>
