<svg width="24" height="24" viewBox="0 0 24 24" fill="none" xmlns="http://www.w3.org/2000/svg">
<path d="M2 22L22 16M2 16L22 22" stroke="#28293D" stroke-width="2" stroke-linecap="round"/>
<mask id="path-2-inside-1_402_14736" fill="white">
<path d="M12 16C15.866 16 19 13.0451 19 9.4C19 3.6195 14.8124 0.800979 12.5706 0.0507167C12.4987 0.0266487 12.4298 0.0896246 12.4422 0.164445C12.7864 2.24562 12.0911 6.77633 9.08515 6.39804C9.07079 6.39623 9.05644 6.39122 9.0444 6.38319C8.57731 6.07136 8.3165 5.29085 8.29549 3.97515C8.29426 3.89778 8.21007 3.84958 8.1444 3.89052C6.24976 5.07159 5 7.09819 5 9.4C5 13.0451 8.13401 16 12 16Z"/>
</mask>
<path d="M12.4422 0.164445L14.4154 -0.161899V-0.161899L12.4422 0.164445ZM9.08515 6.39804L9.33488 4.41369L9.33488 4.41369L9.08515 6.39804ZM8.1444 3.89052L9.20241 5.58776L9.20241 5.58776L8.1444 3.89052ZM9.0444 6.38319L7.93393 8.04657L7.93395 8.04659L9.0444 6.38319ZM8.29549 3.97515L6.29575 4.00708L8.29549 3.97515ZM12.5706 0.0507167L13.2053 -1.84589V-1.84589L12.5706 0.0507167ZM17 9.4C17 11.8313 14.8739 14 12 14V18C16.8581 18 21 14.2589 21 9.4H17ZM12 14C9.12608 14 7 11.8313 7 9.4H3C3 14.2589 7.14194 18 12 18V14ZM10.469 0.490789C10.5877 1.20889 10.5226 2.5043 10.1482 3.4989C9.96581 3.98338 9.76922 4.23653 9.64213 4.34295C9.57405 4.39996 9.51941 4.43691 9.33488 4.41369L8.83542 8.38239C10.1539 8.54831 11.3133 8.16078 12.2103 7.40964C13.0482 6.70792 13.5676 5.76924 13.8917 4.90818C14.5304 3.21171 14.6408 1.20117 14.4154 -0.161899L10.469 0.490789ZM7 9.4C7 7.85203 7.83774 6.43845 9.20241 5.58776L7.08639 2.19328C4.66177 3.70472 3 6.34434 3 9.4H7ZM10.1549 4.7198C10.4337 4.90595 10.4566 5.10109 10.4093 4.95184C10.3638 4.80786 10.3041 4.49659 10.2952 3.94323L6.29575 4.00708C6.30792 4.76942 6.38915 5.50625 6.59598 6.15941C6.80114 6.80729 7.18799 7.54859 7.93393 8.04657L10.1549 4.7198ZM11.9359 1.94732C13.672 2.52836 17 4.76636 17 9.4H21C21 2.47264 15.9528 -0.926406 13.2053 -1.84589L11.9359 1.94732ZM9.20241 5.58776C7.87821 6.41323 6.31802 5.40205 6.29575 4.00708L10.2952 3.94323C10.2705 2.39351 8.54193 1.28594 7.08639 2.19328L9.20241 5.58776ZM9.33488 4.41369C9.59755 4.44675 9.88406 4.53902 10.1548 4.71979L7.93395 8.04659C8.22881 8.24343 8.54403 8.34571 8.83543 8.38239L9.33488 4.41369ZM14.4154 -0.161899C14.628 1.12391 13.4127 2.44159 11.9359 1.94732L13.2053 -1.84589C11.5846 -2.38829 10.2316 -0.944664 10.469 0.490789L14.4154 -0.161899Z" fill="#28293D" mask="url(#path-2-inside-1_402_14736)"/>
</svg>
