<svg width="24" height="24" viewBox="0 0 24 24" fill="none" xmlns="http://www.w3.org/2000/svg">
<path d="M9.36774 15.4105L9.03824 16.3546L9.03824 16.3547L9.36774 15.4105ZM10.3456 16.8213L9.35019 16.7251V16.7251L10.3456 16.8213ZM15.4105 9.36775L16.3547 9.03824L16.3547 9.03824L15.4105 9.36775ZM16.8213 10.3456L16.7251 9.35019H16.7251L16.8213 10.3456ZM3.22631 2.07071L2.51921 1.3636L3.22631 2.07071ZM2.07071 3.22631L1.3636 2.51921L2.07071 3.22631ZM2.97277 4.26979L2.26566 4.9769L2.97277 4.26979ZM19.127 19.127C16.8635 21.3905 13.8335 21.4985 12.3267 19.9917L10.9125 21.4059C13.4649 23.9583 17.7904 23.292 20.5412 20.5412L19.127 19.127ZM19.9917 12.3267C21.4985 13.8335 21.3905 16.8635 19.127 19.127L20.5412 20.5412C23.292 17.7904 23.9583 13.4649 21.4059 10.9125L19.9917 12.3267ZM9.51649 9.51649C11.0637 7.96929 13.0428 7.97193 13.9698 8.89886L15.384 7.48464C13.4115 5.51216 10.1367 6.06784 8.10227 8.10227L9.51649 9.51649ZM8.10227 8.10227C6.06784 10.1367 5.51216 13.4115 7.48464 15.384L8.89886 13.9698C7.97193 13.0428 7.96929 11.0637 9.51649 9.51649L8.10227 8.10227ZM9.69725 14.4663C9.39326 14.3603 9.1239 14.1948 8.89886 13.9698L7.48464 15.384C7.93331 15.8327 8.46479 16.1545 9.03824 16.3546L9.69725 14.4663ZM9.35019 16.7251C9.18472 18.4367 9.66238 20.1558 10.9125 21.4059L12.3267 19.9917C11.5703 19.2353 11.2225 18.1424 11.3409 16.9175L9.35019 16.7251ZM13.9698 8.89886C14.1948 9.1239 14.3603 9.39326 14.4663 9.69725L16.3547 9.03824C16.1545 8.46479 15.8327 7.93331 15.384 7.48464L13.9698 8.89886ZM16.9175 11.3409C18.1424 11.2225 19.2353 11.5703 19.9917 12.3267L21.4059 10.9125C20.1558 9.66238 18.4367 9.18472 16.7251 9.35019L16.9175 11.3409ZM14.4663 9.69725C14.7919 10.6301 15.7613 11.4527 16.9175 11.3409L16.7251 9.35019C16.6973 9.35287 16.6316 9.34673 16.5434 9.28369C16.4535 9.21947 16.3853 9.12621 16.3547 9.03824L14.4663 9.69725ZM9.03824 16.3547C9.1262 16.3853 9.21947 16.4535 9.28369 16.5434C9.34673 16.6316 9.35287 16.6973 9.35019 16.7251L11.3409 16.9175C11.4527 15.7613 10.6301 14.7919 9.69725 14.4663L9.03824 16.3547ZM15.8844 14.7046C16.2102 15.0304 16.2102 15.5586 15.8844 15.8844L17.2986 17.2986C18.4055 16.1918 18.4055 14.3972 17.2986 13.2904L15.8844 14.7046ZM15.8844 15.8844C15.5586 16.2102 15.0304 16.2102 14.7046 15.8844L13.2904 17.2986C14.3972 18.4055 16.1918 18.4055 17.2986 17.2986L15.8844 15.8844ZM14.7046 15.8844C14.3788 15.5586 14.3788 15.0304 14.7046 14.7046L13.2904 13.2904C12.1835 14.3972 12.1835 16.1918 13.2904 17.2986L14.7046 15.8844ZM14.7046 14.7046C15.0304 14.3788 15.5586 14.3788 15.8844 14.7046L17.2986 13.2904C16.1918 12.1835 14.3972 12.1835 13.2904 13.2904L14.7046 14.7046ZM14.7046 13.2904L4.9769 3.56269L3.56269 4.9769L13.2904 14.7046L14.7046 13.2904ZM4.9769 3.56269L3.35562 1.94141L1.94141 3.35562L3.56269 4.9769L4.9769 3.56269ZM3.67988 3.56269L2.77782 2.66063L1.3636 4.07484L2.26566 4.9769L3.67988 3.56269ZM2.77782 3.93342L3.93342 2.77782L2.51921 1.3636L1.3636 2.51921L2.77782 3.93342ZM2.66063 2.77782L3.56269 3.67988L4.9769 2.26566L4.07484 1.3636L2.66063 2.77782ZM3.56269 3.67988C3.53033 3.64751 3.53033 3.59505 3.56269 3.56269L4.9769 4.9769C5.72559 4.22821 5.72559 3.01435 4.9769 2.26566L3.56269 3.67988ZM3.93342 2.77782C3.58195 3.12929 3.0121 3.12929 2.66063 2.77782L4.07484 1.3636C3.64527 0.934027 2.94878 0.934028 2.51921 1.3636L3.93342 2.77782ZM2.77782 2.66063C3.12929 3.0121 3.12929 3.58195 2.77782 3.93342L1.3636 2.51921C0.934028 2.94878 0.934026 3.64526 1.3636 4.07484L2.77782 2.66063ZM3.56269 3.56269C3.59505 3.53033 3.64752 3.53033 3.67988 3.56269L2.26566 4.9769C3.01435 5.72559 4.22821 5.72559 4.9769 4.9769L3.56269 3.56269Z" fill="#28293D"/>
</svg>
