<svg width="24" height="24" viewBox="0 0 24 24" fill="none" xmlns="http://www.w3.org/2000/svg">
<path d="M5.69593 17.3041L5.21687 18.1818L5.69593 17.3041ZM22 2L22.7291 2.68439C23.0987 2.29069 23.0889 1.67471 22.7071 1.29289C22.3253 0.911074 21.7093 0.901332 21.3156 1.27089L22 2ZM6.69593 18.3041L5.81815 18.7831L6.69593 18.3041ZM6 19.5C6 20.3284 5.32843 21 4.5 21V23C6.433 23 8 21.433 8 19.5H6ZM4.5 21C3.67157 21 3 20.3284 3 19.5H1C1 21.433 2.567 23 4.5 23V21ZM3 19.5C3 18.6716 3.67157 18 4.5 18V16C2.567 16 1 17.567 1 19.5H3ZM6.38032 18.0332L22.6844 2.72911L21.3156 1.27089L5.01154 16.575L6.38032 18.0332ZM21.2709 1.31561L5.96682 17.6197L7.42504 18.9885L22.7291 2.68439L21.2709 1.31561ZM5.81815 18.7831C5.93385 18.9951 6 19.2383 6 19.5H8C8 18.8952 7.84577 18.3235 7.57371 17.825L5.81815 18.7831ZM4.5 18C4.76166 18 5.00487 18.0662 5.21687 18.1818L6.17499 16.4263C5.6765 16.1542 5.10477 16 4.5 16V18ZM5.21687 18.1818C5.47019 18.3201 5.6799 18.5298 5.81815 18.7831L7.57371 17.825C7.25164 17.2349 6.76512 16.7484 6.17499 16.4263L5.21687 18.1818Z" fill="#28293D"/>
</svg>
