<svg width="24" height="24" viewBox="0 0 24 24" fill="none" xmlns="http://www.w3.org/2000/svg">
<path d="M8 6C8 5.44772 7.55228 5 7 5C6.44772 5 6 5.44772 6 6H8ZM1.42396 8.73838L0.941619 7.86239L1.42396 8.73838ZM12 17H2V19H12V17ZM12 12.5V17H14V12.5H12ZM13.7071 13.2071L15.7071 11.2071L14.2929 9.79289L12.2929 11.7929L13.7071 13.2071ZM12 9.5V10.5H14V9.5H12ZM12 10.5V12.5H14V10.5H12ZM15 9.5H13V11.5H15V9.5ZM15 11.5H24V9.5H15V11.5ZM1.90631 9.61436C2.56037 9.25421 4.25458 8.5 7 8.5V6.5C3.87199 6.5 1.84884 7.36285 0.941619 7.86239L1.90631 9.61436ZM7 8.5C9.74542 8.5 11.4396 9.25421 12.0937 9.61436L13.0584 7.86239C12.1512 7.36285 10.128 6.5 7 6.5V8.5ZM2 17V10.5H0V17H2ZM2 10.5V9.5H0V10.5H2ZM13 9.5H1V11.5H13V9.5ZM8 7.5V6H6V7.5H8ZM2 17H2H0C0 18.1046 0.89543 19 2 19V17ZM12 19C13.1046 19 14 18.1046 14 17H12V19ZM14 9.5C14 8.88051 13.7026 8.2171 13.0584 7.86239L12.0937 9.61436C12.0537 9.59233 12.0263 9.56048 12.0121 9.53427C11.9994 9.51079 12 9.49796 12 9.5H14ZM0.941619 7.86239C0.297435 8.2171 0 8.88051 0 9.5H2C2 9.49796 2.00065 9.51079 1.98793 9.53427C1.97374 9.56048 1.94631 9.59233 1.90631 9.61436L0.941619 7.86239Z" fill="#28293D"/>
</svg>
