<svg width="24" height="24" viewBox="0 0 24 24" fill="none" xmlns="http://www.w3.org/2000/svg">
<path d="M8.99672 10.0841L8.29649 10.798L8.29871 10.8002L8.99672 10.0841ZM16.0894 3.18987L15.3924 2.4728V2.4728L16.0894 3.18987ZM22 3.18987L22.697 3.90694L23.4347 3.18987L22.697 2.4728L22 3.18987ZM20.2268 7.21151L20.9238 7.92858L21.3784 7.48675L21.1727 6.88713L20.2268 7.21151ZM13.1341 14.1058L13.8311 14.8228L13.1341 14.1058ZM3.18214 18.2242L2.48514 18.9413L2.48559 18.9417L3.18214 18.2242ZM6.04143 21L5.34487 21.7175L6.04186 22.3941L6.73843 21.7171L6.04143 21ZM9.69372 10.8012L16.7864 3.90694L15.3924 2.4728L8.29971 9.36705L9.69372 10.8012ZM22.697 2.4728C20.6767 0.509066 17.4127 0.509065 15.3924 2.4728L16.7864 3.90694C18.0305 2.69769 20.0589 2.69769 21.303 3.90694L22.697 2.4728ZM19.5298 6.49445L12.4371 13.3887L13.8311 14.8228L20.9238 7.92858L19.5298 6.49445ZM21.303 2.4728C20.7374 3.0226 20.0331 3.69677 19.5803 4.48903C19.091 5.34512 18.8782 6.3615 19.2809 7.5359L21.1727 6.88713C20.9844 6.33796 21.0671 5.91804 21.3167 5.48146C21.6027 4.98106 22.0805 4.50618 22.697 3.90694L21.303 2.4728ZM9.69694 9.37019L8.42612 8.12377L7.02568 9.55163L8.2965 10.798L9.69694 9.37019ZM13.8307 13.3883L10.9714 10.6125L9.57829 12.0475L12.4376 14.8233L13.8307 13.3883ZM10.9728 10.6139L9.69472 9.36802L8.29871 10.8002L9.57684 12.046L10.9728 10.6139ZM9.57784 10.6129L2.48514 17.5071L3.87915 18.9413L10.9718 12.047L9.57784 10.6129ZM2.48559 18.9417L5.34487 21.7175L6.73798 20.2825L3.8787 17.5067L2.48559 18.9417ZM6.73843 21.7171L13.8311 14.8228L12.4371 13.3887L5.34442 20.2829L6.73843 21.7171ZM3.87915 17.5071L2.69703 16.3581L1.30302 17.7922L2.48514 18.9413L3.87915 17.5071Z" fill="#28293D"/>
</svg>
