<svg width="24" height="24" viewBox="0 0 24 24" fill="none" xmlns="http://www.w3.org/2000/svg">
<path d="M14 7.75961H13H14ZM17.5 2L18.1508 1.24074L17.5 0.682923L16.8492 1.24074L17.5 2ZM16.0953 3.20407L15.4445 2.44481L15.4445 2.44481L16.0953 3.20407ZM21 7.75961H20H21ZM18.9047 3.20407L19.5555 2.44481V2.44481L18.9047 3.20407ZM17.5 21H6.5V23H17.5V21ZM6.5 21C5.11929 21 4 19.8807 4 18.5H2C2 20.9853 4.01472 23 6.5 23V21ZM20 18.5C20 19.8807 18.8807 21 17.5 21V23C19.9853 23 22 20.9853 22 18.5H20ZM17.5 16C18.8807 16 20 17.1193 20 18.5H22C22 16.0147 19.9853 14 17.5 14V16ZM6.5 14C4.01472 14 2 16.0147 2 18.5H4C4 17.1193 5.11929 16 6.5 16V14ZM16.8492 1.24074L15.4445 2.44481L16.746 3.96333L18.1508 2.75926L16.8492 1.24074ZM20 7.75961V18.5H22V7.75961H20ZM16.8492 2.75926L18.254 3.96333L19.5555 2.44481L18.1508 1.24074L16.8492 2.75926ZM22 7.75961C22 5.71614 21.1071 3.77469 19.5555 2.44481L18.254 3.96333C19.3622 4.91324 20 6.29999 20 7.75961H22ZM15 7.75961C15 6.29999 15.6378 4.91324 16.746 3.96333L15.4445 2.44481C13.8929 3.77469 13 5.71614 13 7.75961H15ZM15 15V7.75961H13V15H15ZM6.5 16H14V14H6.5V16ZM14 16H17.5V14H14V16ZM6 19.5H9V17.5H6V19.5ZM19 18.5C19 17.6716 18.3284 17 17.5 17V19C17.2239 19 17 18.7761 17 18.5H19ZM17.5 20C18.3284 20 19 19.3284 19 18.5H17C17 18.2239 17.2239 18 17.5 18V20ZM16 18.5C16 19.3284 16.6716 20 17.5 20V18C17.7761 18 18 18.2239 18 18.5H16ZM18 18.5C18 18.7761 17.7761 19 17.5 19V17C16.6716 17 16 17.6716 16 18.5H18Z" fill="#28293D"/>
</svg>
