<svg width="24" height="24" viewBox="0 0 24 24" fill="none" xmlns="http://www.w3.org/2000/svg">
<path d="M3 22L2.13176 21.5039L1.27682 23H3V22ZM21 22V23H22.7232L21.8682 21.5039L21 22ZM12 14.5L12.8824 14.0294L12 12.375L11.1176 14.0294L12 14.5ZM8 22V23H8.6L8.88235 22.4706L8 22ZM16 22L15.1176 22.4706L15.4 23H16V22ZM14.1318 0.503861L2.13176 21.5039L3.86824 22.4961L15.8682 1.49614L14.1318 0.503861ZM8.13176 1.49614L20.1318 22.4961L21.8682 21.5039L9.86824 0.503861L8.13176 1.49614ZM11.1176 14.0294L7.11765 21.5294L8.88235 22.4706L12.8824 14.9706L11.1176 14.0294ZM8 21H3V23H8V21ZM11.1176 14.9706L15.1176 22.4706L16.8824 21.5294L12.8824 14.0294L11.1176 14.9706ZM16 23H21V21H16V23Z" fill="#28293D"/>
</svg>
