<svg width="24" height="24" viewBox="0 0 24 24" fill="none" xmlns="http://www.w3.org/2000/svg">
<path d="M3 12V11H2V12H3ZM4.16321 22V23H4.16321L4.16321 22ZM11.9985 22V21H11.9985L11.9985 22ZM18.4434 3L18.9389 2.1314L18.0809 1.64194L17.581 2.49386L18.4434 3ZM17.7727 13.1008L16.9128 12.5904L17.7727 13.1008ZM16.1838 13.5149L16.6734 12.643L16.6529 12.6315L16.6319 12.621L16.1838 13.5149ZM21.4182 4.69701L20.9227 5.56564L20.9286 5.56895L21.4182 4.69701ZM21.844 6.24245L22.7039 6.7529V6.7529L21.844 6.24245ZM4.52425 12V13H4.52425L4.52425 12ZM4.52425 11.5V10.5H3.52425V11.5H4.52425ZM11.6374 11.5H12.6374V10.5H11.6374V11.5ZM12.1617 12V20.8687H14.1617V12H12.1617ZM11.9985 21L4.16321 21L4.16321 23L11.9985 23L11.9985 21ZM4 20.8687V12H2V20.8687H4ZM4.16321 21C4.04671 21 4 20.9152 4 20.8687H2C2 22.0718 2.99486 23 4.16321 23V21ZM12.1617 20.8687C12.1617 20.9152 12.115 21 11.9985 21V23C13.1668 23 14.1617 22.0718 14.1617 20.8687H12.1617ZM14.0241 12.5061L19.3059 3.50614L17.581 2.49386L12.2992 11.4939L14.0241 12.5061ZM17.9479 3.8686L20.9227 5.56562L21.9137 3.82841L18.9389 2.1314L17.9479 3.8686ZM20.9841 5.732L16.9128 12.5904L18.6326 13.6113L22.7039 6.7529L20.9841 5.732ZM16.6319 12.621L13.6098 11.106L12.7135 12.894L15.7356 14.4089L16.6319 12.621ZM16.9128 12.5904C16.8949 12.6207 16.8628 12.6476 16.8143 12.6603C16.7654 12.673 16.7158 12.6668 16.6734 12.643L15.6942 14.3869C16.7128 14.9589 18.0279 14.6301 18.6326 13.6113L16.9128 12.5904ZM20.9286 5.56895C20.9696 5.59198 20.9886 5.62231 20.9961 5.64957C21.0035 5.67637 21.0011 5.70331 20.9841 5.732L22.7039 6.7529C23.3187 5.71715 22.9421 4.40584 21.9078 3.82508L20.9286 5.56895ZM3 13H4.52425V11H3V13ZM5.52425 12V11.5H3.52425V12H5.52425ZM4.52425 13L11.6374 13L11.6374 11L4.52425 11L4.52425 13ZM11.6374 13H13.1617V11H11.6374V13ZM10.6374 11.5V12H12.6374V11.5H10.6374ZM4.52425 12.5H5.54042V10.5H4.52425V12.5ZM6.54042 11.5V8.1H4.54042V11.5H6.54042ZM5.64204 9H10.5196V7H5.64204V9ZM5.54042 12.5H10.6213V10.5H5.54042V12.5ZM10.6213 12.5H11.6374V10.5H10.6213V12.5ZM9.62126 8.1V11.5H11.6213V8.1H9.62126ZM10.5196 9C10.0387 9 9.62126 8.61212 9.62126 8.1H11.6213C11.6213 7.47743 11.1129 7 10.5196 7V9ZM6.54042 8.1C6.54042 8.61212 6.12302 9 5.64204 9V7C5.04881 7 4.54042 7.47743 4.54042 8.1H6.54042ZM5.54042 8C5.53406 8 5.53085 7.9989 5.52916 7.9982C5.52684 7.99723 5.52478 7.99582 5.52329 7.99435C5.52181 7.99289 5.52206 7.99256 5.52284 7.99437C5.52325 7.99533 5.52367 7.99657 5.52395 7.99795C5.52425 7.99939 5.52425 8.0002 5.52425 8H3.52425C3.52425 9.11963 4.4421 10 5.54042 10V8ZM5.52425 8C5.52425 7.9998 5.52425 8.00061 5.52395 8.00205C5.52367 8.00343 5.52325 8.00467 5.52284 8.00563C5.52206 8.00744 5.52181 8.00711 5.52329 8.00565C5.52478 8.00418 5.52684 8.00277 5.52916 8.0018C5.53085 8.0011 5.53406 8 5.54042 8V6C4.4421 6 3.52425 6.88037 3.52425 8H5.52425ZM5.54042 8C5.54678 8 5.54999 8.0011 5.55168 8.0018C5.554 8.00277 5.55605 8.00418 5.55754 8.00565C5.55903 8.00711 5.55877 8.00744 5.558 8.00563C5.55758 8.00467 5.55717 8.00343 5.55688 8.00205C5.55658 8.00061 5.55659 7.9998 5.55659 8H7.55659C7.55659 6.88037 6.63874 6 5.54042 6V8Z" fill="#28293D"/>
</svg>
