<svg width="24" height="24" viewBox="0 0 24 24" fill="none" xmlns="http://www.w3.org/2000/svg">
<path d="M21 9H21.6V8.4H21V9ZM21 19.4V20H21.6V19.4H21ZM12 11.6L11.6605 12.0947L12 12.3276L12.3395 12.0947L12 11.6ZM12 22L11.6605 22.4947L12 22.7276L12.3395 22.4947L12 22ZM3 9V8.4H2.4V9H3ZM3 19.4H2.4V20H3V19.4ZM20.4 9V19.4H21.6V9H20.4ZM12 11.6C12.3395 12.0947 12.3393 12.0948 12.3392 12.0949C12.3392 12.0949 12.339 12.095 12.339 12.0951C12.3389 12.0951 12.3389 12.0951 12.3389 12.0951C12.3389 12.0951 12.3392 12.0949 12.3397 12.0946C12.3407 12.0939 12.3426 12.0926 12.3454 12.0907C12.351 12.087 12.3602 12.0808 12.373 12.0725C12.3984 12.0558 12.4379 12.0303 12.4909 11.9971C12.5969 11.9309 12.7568 11.8344 12.966 11.7177C13.3845 11.4841 13.9987 11.1702 14.772 10.8558C16.321 10.226 18.4929 9.6 21 9.6V8.4C18.2966 8.4 15.9685 9.07397 14.3201 9.74418C13.4947 10.0798 12.8359 10.4159 12.3811 10.6698C12.1535 10.7969 11.9767 10.9035 11.8551 10.9794C11.7943 11.0174 11.7473 11.0477 11.7147 11.0691C11.6984 11.0798 11.6857 11.0883 11.6766 11.0944C11.6721 11.0974 11.6685 11.0998 11.6658 11.1017C11.6645 11.1026 11.6634 11.1033 11.6625 11.1039C11.662 11.1042 11.6617 11.1045 11.6613 11.1047C11.6612 11.1048 11.661 11.105 11.6609 11.105C11.6607 11.1051 11.6605 11.1053 12 11.6ZM21 18.8C18.2966 18.8 15.9685 19.474 14.3201 20.1442C13.4947 20.4798 12.8359 20.8159 12.3811 21.0698C12.1535 21.1969 11.9767 21.3035 11.8551 21.3794C11.7943 21.4174 11.7473 21.4477 11.7147 21.4691C11.6984 21.4798 11.6857 21.4883 11.6766 21.4944C11.6721 21.4974 11.6685 21.4998 11.6658 21.5017C11.6645 21.5026 11.6634 21.5033 11.6625 21.5039C11.662 21.5042 11.6617 21.5045 11.6613 21.5047C11.6612 21.5048 11.661 21.505 11.6609 21.505C11.6607 21.5051 11.6605 21.5053 12 22C12.3395 22.4947 12.3393 22.4948 12.3392 22.4949C12.3392 22.4949 12.339 22.495 12.339 22.4951C12.3389 22.4951 12.3389 22.4951 12.3389 22.4951C12.3389 22.4951 12.3392 22.4949 12.3397 22.4946C12.3407 22.4939 12.3426 22.4926 12.3454 22.4907C12.351 22.487 12.3602 22.4808 12.373 22.4725C12.3984 22.4558 12.4379 22.4303 12.4909 22.3971C12.5969 22.3309 12.7568 22.2344 12.966 22.1177C13.3845 21.8841 13.9987 21.5702 14.772 21.2558C16.321 20.626 18.4929 20 21 20V18.8ZM2.4 9V19.4H3.6V9H2.4ZM12 11.6C12.3395 11.1053 12.3393 11.1051 12.3391 11.105C12.339 11.105 12.3388 11.1048 12.3387 11.1047C12.3383 11.1045 12.338 11.1042 12.3375 11.1039C12.3366 11.1033 12.3355 11.1026 12.3342 11.1017C12.3315 11.0998 12.3279 11.0974 12.3234 11.0944C12.3143 11.0883 12.3016 11.0798 12.2853 11.0691C12.2527 11.0477 12.2057 11.0174 12.1449 10.9794C12.0233 10.9035 11.8465 10.7969 11.6189 10.6698C11.1641 10.4159 10.5053 10.0798 9.67993 9.74418C8.03154 9.07397 5.70344 8.4 3 8.4V9.6C5.50708 9.6 7.67899 10.226 9.22796 10.8558C10.0013 11.1702 10.6155 11.4841 11.034 11.7177C11.2432 11.8344 11.4031 11.9309 11.5091 11.9971C11.5621 12.0303 11.6016 12.0558 11.627 12.0725C11.6398 12.0808 11.649 12.087 11.6546 12.0907C11.6574 12.0926 11.6593 12.0939 11.6603 12.0946C11.6608 12.0949 11.6611 12.0951 11.6611 12.0951C11.6611 12.0951 11.6611 12.0951 11.661 12.0951C11.661 12.095 11.6608 12.0949 11.6608 12.0949C11.6607 12.0948 11.6605 12.0947 12 11.6ZM3 20C5.50708 20 7.67899 20.626 9.22796 21.2558C10.0013 21.5702 10.6155 21.8841 11.034 22.1177C11.2432 22.2344 11.4031 22.3309 11.5091 22.3971C11.5621 22.4303 11.6016 22.4558 11.627 22.4725C11.6398 22.4808 11.649 22.487 11.6546 22.4907C11.6574 22.4926 11.6593 22.4939 11.6603 22.4946C11.6608 22.4949 11.6611 22.4951 11.6611 22.4951C11.6611 22.4951 11.6611 22.4951 11.661 22.4951C11.661 22.495 11.6608 22.4949 11.6608 22.4949C11.6607 22.4948 11.6605 22.4947 12 22C12.3395 21.5053 12.3393 21.5051 12.3391 21.505C12.339 21.505 12.3388 21.5048 12.3387 21.5047C12.3383 21.5045 12.338 21.5042 12.3375 21.5039C12.3366 21.5033 12.3355 21.5026 12.3342 21.5017C12.3315 21.4998 12.3279 21.4974 12.3234 21.4944C12.3143 21.4883 12.3016 21.4798 12.2853 21.4691C12.2527 21.4477 12.2057 21.4174 12.1449 21.3794C12.0233 21.3035 11.8465 21.1969 11.6189 21.0698C11.1641 20.8159 10.5053 20.4798 9.67993 20.1442C8.03154 19.474 5.70344 18.8 3 18.8V20ZM14.4 5C14.4 6.32548 13.3255 7.4 12 7.4V8.6C13.9882 8.6 15.6 6.98822 15.6 5H14.4ZM12 7.4C10.6745 7.4 9.6 6.32548 9.6 5H8.4C8.4 6.98822 10.0118 8.6 12 8.6V7.4ZM9.6 5C9.6 3.67452 10.6745 2.6 12 2.6V1.4C10.0118 1.4 8.4 3.01177 8.4 5H9.6ZM12 2.6C13.3255 2.6 14.4 3.67452 14.4 5H15.6C15.6 3.01177 13.9882 1.4 12 1.4V2.6Z" fill="#28293D"/>
</svg>
