<svg width="24" height="24" viewBox="0 0 24 24" fill="none" xmlns="http://www.w3.org/2000/svg">
<path d="M9.5 11.5L9.96093 11.1159L9.67012 10.7669L9.25534 10.9521L9.5 11.5ZM12 14.5L11.5391 14.8841L11.868 15.2789L12.3087 15.0145L12 14.5ZM17.4 15C17.4 17.9823 14.9823 20.4 12 20.4V21.6C15.6451 21.6 18.6 18.6451 18.6 15H17.4ZM12 20.4C9.01766 20.4 6.6 17.9823 6.6 15H5.4C5.4 18.6451 8.35492 21.6 12 21.6V20.4ZM6.6 15C6.6 14.4586 6.64234 13.7991 6.73611 13.0773L5.54611 12.9227C5.44662 13.6886 5.4 14.4001 5.4 15H6.6ZM6.73611 13.0773C6.96281 11.3321 7.48112 9.28972 8.37116 7.7026C9.26337 6.11162 10.4507 5.1 12 5.1V3.9C9.82424 3.9 8.31436 5.35054 7.32451 7.11565C6.33249 8.88461 5.78389 11.0922 5.54611 12.9227L6.73611 13.0773ZM6.38577 13.5479L9.74466 12.0479L9.25534 10.9521L5.89645 12.4521L6.38577 13.5479ZM9.03907 11.8841L11.5391 14.8841L12.4609 14.1159L9.96093 11.1159L9.03907 11.8841ZM12.3087 15.0145L14.8087 13.5145L14.1913 12.4855L11.6913 13.9855L12.3087 15.0145ZM12 5.1C13.4691 5.1 14.6099 6.00742 15.4865 7.45803L16.5135 6.83738C15.5253 5.20211 14.0597 3.9 12 3.9V5.1ZM15.4865 7.45803C16.8562 9.72465 17.4 13.0503 17.4 15H18.6C18.6 12.9208 18.0351 9.35527 16.5135 6.83738L15.4865 7.45803ZM15.6848 6.63718L12.6848 8.48947L13.3152 9.51053L16.3152 7.65823L15.6848 6.63718Z" fill="#28293D"/>
</svg>
