<svg width="24" height="24" viewBox="0 0 24 24" fill="none" xmlns="http://www.w3.org/2000/svg">
<path d="M4 20H3.4V20.6H4V20ZM2 7L2.5088 6.682L1.41429 7.13016L2 7ZM12 4L12.5985 3.95725H11.4015L12 4ZM20 20V20.6H20.6V20H20ZM22 7L22.5857 7.13016L21.4912 6.682L22 7ZM4.6 20V16H3.4V20H4.6ZM4.58571 15.8698L2.58571 6.86984L1.41429 7.13016L3.41429 16.1302L4.58571 15.8698ZM1.4912 7.318C1.93974 8.03567 2.7837 9.08886 3.8886 9.96925C4.98936 10.8463 6.41055 11.6 8 11.6V10.4C6.78945 10.4 5.62731 9.82032 4.6364 9.03075C3.64963 8.24448 2.89359 7.29766 2.5088 6.682L1.4912 7.318ZM8 11.6C9.78992 11.6 10.8934 10.1078 11.5384 8.61268C12.2026 7.07323 12.5121 5.25187 12.5985 4.04275L11.4015 3.95725C11.3212 5.08146 11.0308 6.7601 10.4366 8.13732C9.82328 9.55888 9.01008 10.4 8 10.4V11.6ZM20.6 20V16H19.4V20H20.6ZM20.5857 16.1302L22.5857 7.13016L21.4143 6.86984L19.4143 15.8698L20.5857 16.1302ZM21.4912 6.682C21.1064 7.29766 20.3504 8.24448 19.3636 9.03075C18.3727 9.82032 17.2106 10.4 16 10.4V11.6C17.5894 11.6 19.0106 10.8463 20.1114 9.96925C21.2163 9.08886 22.0603 8.03567 22.5088 7.318L21.4912 6.682ZM16 10.4C14.9899 10.4 14.1767 9.55888 13.5634 8.13732C12.9692 6.7601 12.6788 5.08146 12.5985 3.95725L11.4015 4.04275C11.4879 5.25187 11.7974 7.07323 12.4616 8.61268C13.1066 10.1078 14.2101 11.6 16 11.6V10.4ZM4 20.6H20V19.4H4V20.6ZM20 15.4H4V16.6H20V15.4Z" fill="#28293D"/>
</svg>
