<svg width="24" height="24" viewBox="0 0 24 24" fill="none" xmlns="http://www.w3.org/2000/svg">
<path d="M1 21.6H5V20.4H1V21.6ZM5.1 9.6H13.9V8.4H5.1V9.6ZM5 21.6H14V20.4H5V21.6ZM14 21.6H18V20.4H14V21.6ZM13.4 9.1V17H14.6V9.1H13.4ZM13.4 17V21H14.6V17H13.4ZM5.6 21V17H4.4V21H5.6ZM5.6 17V9.1H4.4V17H5.6ZM14 16.4H5V17.6H14V16.4ZM15.4552 3.25143L16.3783 5.25143L17.4679 4.74857L16.5448 2.74857L15.4552 3.25143ZM17.0076 6.61486L21.4552 16.2514L22.5448 15.7486L18.0971 6.11199L17.0076 6.61486ZM13.9 9.6C13.6239 9.6 13.4 9.37614 13.4 9.1H14.6C14.6 8.7134 14.2866 8.4 13.9 8.4V9.6ZM5.1 8.4C4.7134 8.4 4.4 8.7134 4.4 9.1H5.6C5.6 9.37614 5.37614 9.6 5.1 9.6V8.4Z" fill="#28293D"/>
</svg>
