<svg width="24" height="24" viewBox="0 0 24 24" fill="none" xmlns="http://www.w3.org/2000/svg">
<mask id="path-1-outside-1_402_12182" maskUnits="userSpaceOnUse" x="4" y="2" width="16" height="20" fill="black">
<rect fill="white" x="4" y="2" width="16" height="20"/>
<path d="M12 20C15.3137 20 18 17.3137 18 14V8.5H17V13.7059C17 16.6297 14.7614 19 12 19C9.23858 19 7 16.6297 7 13.7059V8.5H6V14C6 17.3137 8.68629 20 12 20Z"/>
<path d="M6 4V5H7V4H6Z"/>
<path d="M18 4V5H17V4H18Z"/>
</mask>
<path d="M6 5H4.8V6.2H6V5ZM6 4V2.8H4.8V4H6ZM18 5V6.2H19.2V5H18ZM18 4H19.2V2.8H18V4ZM7 5V6.2H8.2V5H7ZM7 4H8.2V2.8H7V4ZM17 5H15.8V6.2H17V5ZM17 4V2.8H15.8V4H17ZM17 8.5V7.3H15.8V8.5H17ZM18 8.5H19.2V7.3H18V8.5ZM6 8.5V7.3H4.8V8.5H6ZM7 8.5H8.2V7.3H7V8.5ZM16.8 14C16.8 16.651 14.651 18.8 12 18.8V21.2C15.9764 21.2 19.2 17.9764 19.2 14H16.8ZM12 18.8C9.34903 18.8 7.2 16.651 7.2 14H4.8C4.8 17.9764 8.02355 21.2 12 21.2V18.8ZM7.2 5V4H4.8V5H7.2ZM19.2 5V4H16.8V5H19.2ZM15.8 13.7059C15.8 16.0325 14.035 17.8 12 17.8V20.2C15.4879 20.2 18.2 17.2269 18.2 13.7059H15.8ZM12 17.8C9.96502 17.8 8.2 16.0325 8.2 13.7059H5.8C5.8 17.2269 8.51213 20.2 12 20.2V17.8ZM8.2 5V4H5.8V5H8.2ZM18.2 5V4H15.8V5H18.2ZM7 3.8H6V6.2H7V3.8ZM6 5.2H7V2.8H6V5.2ZM18 3.8H17V6.2H18V3.8ZM17 5.2H18V2.8H17V5.2ZM18.2 13.7059V8.5H15.8V13.7059H18.2ZM19.2 14V8.5H16.8V14H19.2ZM17 9.7H18V7.3H17V9.7ZM7.2 14V8.5H4.8V14H7.2ZM8.2 13.7059V8.5H5.8V13.7059H8.2ZM6 9.7H7V7.3H6V9.7Z" fill="#28293D" mask="url(#path-1-outside-1_402_12182)"/>
</svg>
