<svg width="13" height="13" viewBox="0 0 13 13" fill="none" xmlns="http://www.w3.org/2000/svg">
<path d="M10.1653 7.1593C9.97007 7.35456 9.97007 7.67115 10.1653 7.86641C10.3606 8.06167 10.6772 8.06167 10.8724 7.86641L10.1653 7.1593ZM10.8724 4.1541C10.6772 3.95884 10.3606 3.95884 10.1653 4.1541C9.97007 4.34936 9.97007 4.66594 10.1653 4.86121L10.8724 4.1541ZM10.8724 7.86641L10.9608 7.77802L10.2537 7.07091L10.1653 7.1593L10.8724 7.86641ZM10.9608 4.24249L10.8724 4.1541L10.1653 4.86121L10.2537 4.94959L10.9608 4.24249ZM10.9608 7.77802C11.9371 6.80171 11.9371 5.2188 10.9608 4.24249L10.2537 4.94959C10.8395 5.53538 10.8395 6.48513 10.2537 7.07091L10.9608 7.77802Z" fill="#3E7BFA"/>
<path d="M1.85616 4.86121C2.05142 4.66594 2.05142 4.34936 1.85616 4.1541C1.66089 3.95884 1.34431 3.95884 1.14905 4.1541L1.85616 4.86121ZM1.14905 7.86641C1.34431 8.06167 1.66089 8.06167 1.85615 7.86641C2.05142 7.67115 2.05142 7.35456 1.85616 7.1593L1.14905 7.86641ZM1.14905 4.1541L1.06066 4.24249L1.76777 4.94959L1.85616 4.86121L1.14905 4.1541ZM1.06066 7.77802L1.14905 7.86641L1.85616 7.1593L1.76777 7.07091L1.06066 7.77802ZM1.06066 4.24249C0.0843495 5.2188 0.0843493 6.80171 1.06066 7.77802L1.76777 7.07091C1.18198 6.48513 1.18198 5.53538 1.76777 4.94959L1.06066 4.24249Z" fill="#3E7BFA"/>
<path d="M7.15979 1.85616C7.35505 2.05142 7.67164 2.05142 7.8669 1.85616C8.06216 1.66089 8.06216 1.34431 7.8669 1.14905L7.15979 1.85616ZM4.15459 1.14905C3.95932 1.34431 3.95932 1.66089 4.15459 1.85616C4.34985 2.05142 4.66643 2.05142 4.86169 1.85616L4.15459 1.14905ZM7.8669 1.14905L7.77851 1.06066L7.0714 1.76777L7.15979 1.85616L7.8669 1.14905ZM4.24298 1.06066L4.15459 1.14905L4.86169 1.85616L4.95008 1.76777L4.24298 1.06066ZM7.77851 1.06066C6.8022 0.0843494 5.21929 0.0843494 4.24298 1.06066L4.95008 1.76777C5.53587 1.18198 6.48562 1.18198 7.0714 1.76777L7.77851 1.06066Z" fill="#3E7BFA"/>
<path d="M4.86169 10.1647C4.66643 9.96946 4.34985 9.96946 4.15459 10.1647C3.95932 10.36 3.95932 10.6766 4.15459 10.8718L4.86169 10.1647ZM7.8669 10.8718C8.06216 10.6766 8.06216 10.36 7.8669 10.1647C7.67164 9.96946 7.35505 9.96946 7.15979 10.1647L7.8669 10.8718ZM4.15459 10.8718L4.24298 10.9602L4.95008 10.2531L4.86169 10.1647L4.15459 10.8718ZM7.77851 10.9602L7.8669 10.8718L7.15979 10.1647L7.0714 10.2531L7.77851 10.9602ZM4.24298 10.9602C5.21929 11.9365 6.8022 11.9365 7.77851 10.9602L7.0714 10.2531C6.48562 10.8389 5.53587 10.8389 4.95008 10.2531L4.24298 10.9602Z" fill="#3E7BFA"/>
<circle cx="6.01074" cy="6.01057" r="1.625" transform="rotate(45 6.01074 6.01057)" stroke="#8F90A6"/>
</svg>
