<svg width="24" height="24" viewBox="0 0 24 24" fill="none" xmlns="http://www.w3.org/2000/svg">
<path d="M8.71875 14.0328L8.67638 14.6313L8.71875 14.0328ZM2.43867 18.6838L3.00789 18.8736L3.00912 18.8698L2.43867 18.6838ZM3.96978 13.9876L4.54023 14.1736C4.63751 13.8753 4.48842 13.5523 4.19823 13.4328L3.96978 13.9876ZM7.99993 7.00005L8.01871 6.40035L8.00912 6.40004L7.99953 6.40005L7.99993 7.00005ZM13.8725 14.8321L14.0309 14.2534L13.8725 14.8321ZM13.8687 6.18056L14.048 6.75316L13.8687 6.18056ZM13.3999 6.27627V14.7355H14.5999V6.27627H13.3999ZM14.0309 14.2534C11.7017 13.6158 9.70852 13.5014 8.76112 13.4343L8.67638 14.6313C9.62512 14.6985 11.5113 14.8078 13.714 15.4109L14.0309 14.2534ZM7.20279 14.4941L5.65864 19.1265L6.79706 19.506L8.34121 14.8736L7.20279 14.4941ZM5.27917 19.4001H3.38735V20.6001H5.27917V19.4001ZM3.00912 18.8698L4.54023 14.1736L3.39934 13.8017L1.86822 18.4978L3.00912 18.8698ZM5.96872 7.60139L8.00032 7.60005L7.99953 6.40005L5.96793 6.40139L5.96872 7.60139ZM7.99993 7.00005C7.98114 7.59976 7.98125 7.59976 7.98137 7.59976C7.98143 7.59977 7.98156 7.59977 7.98168 7.59977C7.9819 7.59978 7.98217 7.59979 7.98248 7.5998C7.98311 7.59982 7.98391 7.59984 7.9849 7.59987C7.98687 7.59993 7.98955 7.6 7.99294 7.60009C7.99971 7.60026 8.0093 7.60049 8.02161 7.60074C8.04623 7.60125 8.08173 7.60183 8.1274 7.60222C8.21872 7.60302 8.35074 7.60306 8.51757 7.60017C8.85107 7.59441 9.32465 7.57696 9.89101 7.5303C11.0203 7.43727 12.5347 7.22687 14.048 6.75316L13.6895 5.60796C12.2892 6.0463 10.8692 6.24565 9.79249 6.33435C9.25583 6.37856 8.80851 6.39497 8.49684 6.40035C8.3411 6.40304 8.21948 6.40298 8.1378 6.40227C8.09697 6.40192 8.06614 6.4014 8.04604 6.40099C8.036 6.40079 8.02863 6.40061 8.02405 6.40049C8.02175 6.40043 8.02015 6.40039 8.01926 6.40036C8.01881 6.40035 8.01854 6.40034 8.01845 6.40034C8.01841 6.40034 8.0184 6.40034 8.01845 6.40034C8.01847 6.40034 8.01853 6.40034 8.01855 6.40034C8.01862 6.40034 8.01871 6.40035 7.99993 7.00005ZM4.19823 13.4328C2.14719 12.5883 1.70055 10.1018 2.90741 8.54506L1.95904 7.80982C0.318591 9.92578 0.880814 13.3646 3.74133 14.5424L4.19823 13.4328ZM3.38735 19.4001C3.11433 19.4001 2.92154 19.1326 3.00788 18.8736L1.86946 18.4941C1.52411 19.5301 2.29526 20.6001 3.38735 20.6001V19.4001ZM5.65864 19.1265C5.60419 19.2899 5.45134 19.4001 5.27917 19.4001V20.6001C5.96785 20.6001 6.57928 20.1594 6.79706 19.506L5.65864 19.1265ZM8.76112 13.4343C8.03981 13.3833 7.41947 13.8441 7.20279 14.4941L8.34121 14.8736C8.39676 14.7069 8.53899 14.6216 8.67638 14.6313L8.76112 13.4343ZM5.96793 6.40139C5.30155 6.40183 4.55485 6.43795 3.85722 6.62344C3.15296 6.81069 2.46294 7.15985 1.95904 7.80982L2.90741 8.54506C3.20245 8.1645 3.628 7.92607 4.16556 7.78314C4.70976 7.63845 5.33114 7.60181 5.96872 7.60139L5.96793 6.40139ZM13.3999 14.7355C13.3999 14.4002 13.7185 14.1679 14.0309 14.2534L13.714 15.4109C14.1542 15.5313 14.5999 15.2034 14.5999 14.7355H13.3999ZM14.5999 6.27627C14.5999 5.79739 14.1349 5.46854 13.6895 5.60796L14.048 6.75316C13.7322 6.85201 13.3999 6.61938 13.3999 6.27627H14.5999Z" fill="#28293D"/>
<mask id="mask0_402_12160" style="mask-type:alpha" maskUnits="userSpaceOnUse" x="17" y="3" width="6" height="15">
<path d="M17 3H23V17.9725H17V3Z" fill="white"/>
</mask>
<g mask="url(#mask0_402_12160)">
<circle cx="16" cy="11" r="6.4" stroke="#28293D" stroke-width="1.2"/>
<circle cx="16" cy="11" r="2.4" stroke="#28293D" stroke-width="1.2"/>
</g>
</svg>
