<svg width="24" height="24" viewBox="0 0 24 24" fill="none" xmlns="http://www.w3.org/2000/svg">
<path d="M5.00052 13.8769L5.52512 13.5858H5.52512L5.00052 13.8769ZM5.23196 15.5587L5.80668 15.731L5.23196 15.5587ZM18.9995 13.8769L19.5241 14.1681L18.9995 13.8769ZM18.768 15.5587L19.3428 15.3864V15.3864L18.768 15.5587ZM4.6 10C4.6 5.96294 7.86095 3.1 12 3.1V1.9C7.3025 1.9 3.4 5.20051 3.4 10H4.6ZM5.52512 13.5858C4.93582 12.5241 4.6 11.3022 4.6 10H3.4C3.4 11.5111 3.79025 12.9329 4.47592 14.1681L5.52512 13.5858ZM7.4 18.9491V20H8.6V18.9491H7.4ZM7.4 20C7.4 20.8837 8.11634 21.6 9 21.6V20.4C8.77909 20.4 8.6 20.2209 8.6 20H7.4ZM7.05027 18.6C7.24359 18.6 7.4 18.7568 7.4 18.9491H8.6C8.6 18.0931 7.90534 17.4 7.05027 17.4V18.6ZM4.65724 15.3864C4.17677 16.9889 5.37883 18.6 7.05027 18.6V17.4C6.18106 17.4 5.55749 16.5622 5.80668 15.731L4.65724 15.3864ZM4.47592 14.1681C4.70191 14.5753 4.7697 15.0113 4.65724 15.3864L5.80668 15.731C6.03225 14.9787 5.87036 14.2077 5.52512 13.5858L4.47592 14.1681ZM20.6 10C20.6 5.20051 16.6975 1.9 12 1.9V3.1C16.1391 3.1 19.4 5.96294 19.4 10H20.6ZM19.5241 14.1681C20.2098 12.9329 20.6 11.5111 20.6 10H19.4C19.4 11.3022 19.0642 12.5241 18.4749 13.5858L19.5241 14.1681ZM15.4 18.9491V20H16.6V18.9491H15.4ZM15.4 20C15.4 20.2209 15.2209 20.4 15 20.4V21.6C15.8837 21.6 16.6 20.8837 16.6 20H15.4ZM16.9497 17.4C16.0947 17.4 15.4 18.0931 15.4 18.9491H16.6C16.6 18.7568 16.7564 18.6 16.9497 18.6V17.4ZM18.1933 15.731C18.4425 16.5622 17.8189 17.4 16.9497 17.4V18.6C18.6212 18.6 19.8232 16.9889 19.3428 15.3864L18.1933 15.731ZM18.4749 13.5858C18.1296 14.2077 17.9677 14.9787 18.1933 15.731L19.3428 15.3864C19.2303 15.0113 19.2981 14.5753 19.5241 14.1681L18.4749 13.5858ZM9 21.6H15V20.4H9V21.6Z" fill="#28293D"/>
<path d="M11.9946 15L12.3016 14.4844L11.9946 14.3017L11.6877 14.4844L11.9946 15ZM10.504 17.187L9.90615 17.2376L10.504 17.187ZM11.9946 17.3669L12.5774 17.2241H11.4118L11.9946 17.3669ZM13.4946 17.187L14.0925 17.2376L13.4946 17.187ZM11.6877 14.4844C11.3711 14.673 10.9215 15.0163 10.5544 15.4617C10.1943 15.8987 9.84527 16.5189 9.90615 17.2376L11.1019 17.1363C11.0793 16.8695 11.2081 16.5554 11.4805 16.2249C11.7459 15.9028 12.0834 15.6454 12.3016 15.5156L11.6877 14.4844ZM9.90615 17.2376C9.94034 17.6412 10.0735 18.0024 10.3373 18.2608C10.6074 18.5253 10.9498 18.618 11.2647 18.5971C11.8411 18.5588 12.425 18.1315 12.5774 17.5097L11.4118 17.2241C11.4059 17.2485 11.3836 17.2925 11.3296 17.3358C11.2748 17.3797 11.2183 17.3976 11.1851 17.3998C11.1708 17.4007 11.1665 17.3985 11.1694 17.3995C11.1737 17.401 11.1772 17.4037 11.1769 17.4035C11.1761 17.4027 11.1627 17.3895 11.1465 17.3499C11.1299 17.3091 11.1107 17.2411 11.1019 17.1363L9.90615 17.2376ZM11.6877 15.5156C11.907 15.6461 12.2472 15.9041 12.5148 16.2265C12.7899 16.5579 12.9192 16.8713 12.8967 17.1363L14.0925 17.2376C14.1535 16.5171 13.8002 15.8962 13.4381 15.4601C13.0686 15.015 12.6171 14.6723 12.3016 14.4844L11.6877 15.5156ZM12.8967 17.1363C12.8879 17.2407 12.8688 17.3083 12.8522 17.3487C12.836 17.388 12.8226 17.4011 12.8217 17.4021C12.8212 17.4025 12.8241 17.4002 12.8274 17.3991C12.8294 17.3984 12.824 17.4008 12.8086 17.3997C12.7732 17.3974 12.7151 17.3788 12.6596 17.3346C12.6048 17.291 12.583 17.2472 12.5774 17.2241L11.4118 17.5097C11.5649 18.1343 12.1536 18.5591 12.7295 18.5971C13.0441 18.6179 13.3872 18.5261 13.6584 18.2622C13.9238 18.004 14.0582 17.6423 14.0925 17.2376L12.8967 17.1363Z" fill="#28293D"/>
<mask id="path-3-outside-1_402_12196" maskUnits="userSpaceOnUse" x="5.5" y="9.5" width="13" height="6" fill="black">
<rect fill="white" x="5.5" y="9.5" width="13" height="6"/>
<path d="M10 12.75C10 13.4404 9.44036 14 8.75 14C8.05964 14 7.5 13.4404 7.5 12.75C7.5 12.0596 8.05964 11.5 8.75 11.5C9.44036 11.5 10 12.0596 10 12.75Z"/>
<path d="M16.5 12.75C16.5 13.4404 15.9404 14 15.25 14C14.5596 14 14 13.4404 14 12.75C14 12.0596 14.5596 11.5 15.25 11.5C15.9404 11.5 16.5 12.0596 16.5 12.75Z"/>
</mask>
<path d="M8.8 12.75C8.8 12.7776 8.77761 12.8 8.75 12.8V15.2C10.1031 15.2 11.2 14.1031 11.2 12.75H8.8ZM8.75 12.8C8.72239 12.8 8.7 12.7776 8.7 12.75H6.3C6.3 14.1031 7.3969 15.2 8.75 15.2V12.8ZM8.7 12.75C8.7 12.7224 8.72239 12.7 8.75 12.7V10.3C7.3969 10.3 6.3 11.3969 6.3 12.75H8.7ZM8.75 12.7C8.77761 12.7 8.8 12.7224 8.8 12.75H11.2C11.2 11.3969 10.1031 10.3 8.75 10.3V12.7ZM15.3 12.75C15.3 12.7776 15.2776 12.8 15.25 12.8V15.2C16.6031 15.2 17.7 14.1031 17.7 12.75H15.3ZM15.25 12.8C15.2224 12.8 15.2 12.7776 15.2 12.75H12.8C12.8 14.1031 13.8969 15.2 15.25 15.2V12.8ZM15.2 12.75C15.2 12.7224 15.2224 12.7 15.25 12.7V10.3C13.8969 10.3 12.8 11.3969 12.8 12.75H15.2ZM15.25 12.7C15.2776 12.7 15.3 12.7224 15.3 12.75H17.7C17.7 11.3969 16.6031 10.3 15.25 10.3V12.7Z" fill="#28293D" mask="url(#path-3-outside-1_402_12196)"/>
</svg>
