<svg width="24" height="24" viewBox="0 0 24 24" fill="none" xmlns="http://www.w3.org/2000/svg">
<path d="M3 14V13.4H2.4L2.4 14L3 14ZM3 10L2.4 10L2.4 10.6H3V10ZM21 14H21.6V13.4H21V14ZM21 10V10.6H21.6V10H21ZM4.00003 5.6H20V4.4H4.00003V5.6ZM20 18.4H4.00003V19.6H20V18.4ZM4.4 12C4.4 12.7732 3.7732 13.4 3 13.4V14.6C4.43594 14.6 5.6 13.4359 5.6 12H4.4ZM3 10.6C3.7732 10.6 4.4 11.2268 4.4 12H5.6C5.6 10.5641 4.43594 9.4 3 9.4V10.6ZM21 13.4C20.2268 13.4 19.6 12.7732 19.6 12H18.4C18.4 13.4359 19.5641 14.6 21 14.6V13.4ZM19.6 12C19.6 11.2268 20.2268 10.6 21 10.6V9.4C19.5641 9.4 18.4 10.5641 18.4 12H19.6ZM2.4 14L2.40003 18L3.60003 18L3.6 14L2.4 14ZM3.6 10L3.60003 6L2.40003 5.99999L2.4 10L3.6 10ZM20.4 6V10H21.6V6H20.4ZM20.4 14V18H21.6V14H20.4ZM4.00003 18.4C3.77912 18.4 3.60003 18.2209 3.60003 18L2.40003 18C2.40004 18.8837 3.11638 19.6 4.00003 19.6V18.4ZM20 19.6C20.8837 19.6 21.6 18.8837 21.6 18H20.4C20.4 18.2209 20.2209 18.4 20 18.4V19.6ZM20 5.6C20.2209 5.6 20.4 5.77909 20.4 6H21.6C21.6 5.11634 20.8837 4.4 20 4.4V5.6ZM4.00003 4.4C3.11638 4.4 2.40004 5.11634 2.40003 5.99999L3.60003 6C3.60003 5.77908 3.77912 5.6 4.00003 5.6V4.4Z" fill="#28293D"/>
<path d="M11.4482 10.5456L12 9.26413L12.5518 10.5456C12.6677 10.8145 12.9212 10.9987 13.2127 11.0257L14.602 11.1546L13.5538 12.0754C13.3338 12.2686 13.237 12.5666 13.3013 12.8523L13.6081 14.2134L12.4084 13.501C12.1567 13.3515 11.8433 13.3515 11.5916 13.501L10.3919 14.2134L10.6987 12.8523C10.763 12.5666 10.6662 12.2686 10.4462 12.0754L9.39804 11.1546L10.7873 11.0257C11.0788 10.9987 11.3323 10.8145 11.4482 10.5456Z" stroke="#28293D" stroke-linecap="round" stroke-linejoin="round"/>
</svg>
