<svg width="24" height="24" viewBox="0 0 24 24" fill="none" xmlns="http://www.w3.org/2000/svg">
<path d="M18.5991 5.8802C16.4523 7.07579 15 9.36829 15 12C15 14.6317 16.4523 16.9242 18.5991 18.1198M18.5991 5.8802C16.9555 4.10863 14.6072 3 12 3C9.39279 3 7.04451 4.10863 5.40085 5.8802M18.5991 5.8802C20.0891 7.48606 21 9.63665 21 12C21 14.3633 20.0891 16.5139 18.5991 18.1198M18.5991 18.1198C16.9555 19.8914 14.6072 21 12 21C9.39279 21 7.04451 19.8914 5.40085 18.1198M5.40085 5.8802C7.54771 7.07579 9 9.36829 9 12C9 14.6317 7.54771 16.9242 5.40085 18.1198M5.40085 5.8802C3.91094 7.48606 3 9.63665 3 12C3 14.3633 3.91094 16.5139 5.40085 18.1198" stroke="#28293D" stroke-width="2"/>
</svg>
