<svg width="24" height="24" viewBox="0 0 24 24" fill="none" xmlns="http://www.w3.org/2000/svg">
<path d="M1 1H0V0H1V1ZM1 23V24H0V23H1ZM23 23H24V24H23V23ZM23 1V0H24V1H23ZM22 4H18V2H22V4ZM18 8H14V6H18V8ZM14 4H10V2H14V4ZM10 4H14V6H10V4ZM10 8H6V6H10V8ZM6 6H2V4H6V6ZM22 12H18V10H22V12ZM18 12H22V14H18V12ZM18 16H14V14H18V16ZM14 12H10V10H14V12ZM14 14H10V12H14V14ZM6 14H2V12H6V14ZM18 10H14V8H18V10ZM10 10H6V8H10V10ZM6 4H2V2H6V4ZM6 12H2V10H6V12ZM22 20H18V18H22V20ZM14 20H10V18H14V20ZM18 18H14V16H18V18ZM10 18H6V16H10V18ZM6 20H2V18H6V20ZM6 22H2V20H6V22ZM6 14H10V16H6V14ZM10 20H14V22H10V20ZM18 20H22V22H18V20ZM18 4H22V6H18V4ZM2 1V23H0V1H2ZM1 22H23V24H1V22ZM22 23V1H24V23H22ZM23 2H1V0H23V2Z" fill="#28293D"/>
</svg>
