<svg width="24" height="24" viewBox="0 0 24 24" fill="none" xmlns="http://www.w3.org/2000/svg">
<path d="M6.5 11C5.11929 11 4 9.88071 4 8.5H2C2 10.9853 4.01472 13 6.5 13V11ZM4 8.5C4 7.11929 5.11929 6 6.5 6V4C4.01472 4 2 6.01472 2 8.5H4ZM20 8.5C20 9.88071 18.8807 11 17.5 11V13C19.9853 13 22 10.9853 22 8.5H20ZM17.5 6C18.8807 6 20 7.11929 20 8.5H22C22 6.01472 19.9853 4 17.5 4V6ZM16 5H18V3H16V5ZM17.5 11H16V13H17.5V11ZM6 5H8V3H6V5ZM8 5H16V3H8V5ZM8 11H6.5V13H8V11ZM7 4V5H9V4H7ZM7 5V12H9V5H7ZM6.5 6H8V4H6.5V6ZM15 4V5H17V4H15ZM15 5V12H17V5H15ZM17.5 4H16V6H17.5V4ZM7.09518 12.4258C8.07101 14.4994 10.0461 15.5384 12 15.5384V13.5384C10.7502 13.5384 9.52173 12.8851 8.90482 11.5742L7.09518 12.4258ZM12 15.5384C13.9539 15.5384 15.929 14.4994 16.9048 12.4258L15.0952 11.5742C14.4783 12.8851 13.2498 13.5384 12 13.5384V15.5384ZM7 21H12V19H7V21ZM12 21H17V19H12V21ZM11 14.5384V20H13V14.5384H11Z" fill="#28293D"/>
</svg>
