<svg width="24" height="24" viewBox="0 0 24 24" fill="none" xmlns="http://www.w3.org/2000/svg">
<g clip-path="url(#clip0_402_14907)">
<path d="M9.13886 0.955688C7.20586 4.30374 8.35299 8.58487 11.701 10.5179L12.701 8.78582C10.3096 7.4051 9.4902 4.34715 10.8709 1.95569L9.13886 0.955688ZM13.8662 11.7679C13.9862 11.8372 14.1016 11.911 14.2123 11.989L15.3637 10.3537C15.2041 10.2412 15.0382 10.1352 14.8662 10.0359L13.8662 11.7679ZM14.2123 11.989C16.0944 13.3141 16.6867 15.8826 15.5133 17.915L17.2454 18.915C18.941 15.9782 18.0844 12.2693 15.3637 10.3537L14.2123 11.989ZM6.70116 19.1781L8.95116 15.281L7.21911 14.281L4.96911 18.1781L6.70116 19.1781ZM8.95116 15.281L12.2426 9.58008L10.5106 8.58008L7.21911 14.281L8.95116 15.281ZM8.66527 23.7762L12.4153 17.281L10.6832 16.281L6.93321 22.7762L8.66527 23.7762ZM12.4153 17.281L15.654 11.6713L13.922 10.6713L10.6832 16.281L12.4153 17.281ZM7.58514 15.6471L9.31719 16.6471L10.3172 14.915L8.58514 13.915L7.58514 15.6471ZM9.31719 16.6471L11.0492 17.6471L12.0492 15.915L10.3172 14.915L9.31719 16.6471ZM11.701 10.5179L12.5672 11.0179L13.5672 9.28588L12.701 8.78582L11.701 10.5179ZM12.5672 11.0179L13.8662 11.7679L14.8662 10.0359L13.5672 9.28588L12.5672 11.0179ZM10.6832 16.281L13.9332 10.6519L12.2011 9.6519L8.95116 15.281L10.6832 16.281Z" fill="#28293D"/>
<circle cx="15.5001" cy="6.93774" r="2" transform="rotate(30 15.5001 6.93774)" fill="#28293D"/>
<circle cx="12.8527" cy="2.52267" r="1.5" transform="rotate(30 12.8527 2.52267)" fill="#28293D"/>
</g>
<defs>
<clipPath id="clip0_402_14907">
<rect width="24" height="24" fill="white"/>
</clipPath>
</defs>
</svg>
