<svg width="24" height="24" viewBox="0 0 24 24" fill="none" xmlns="http://www.w3.org/2000/svg">
<path d="M4 5V5V7C5.10457 7 6 6.10457 6 5H4ZM4 5V5H2C2 6.10457 2.89543 7 4 7V5ZM4 5V5V3C2.89543 3 2 3.89543 2 5H4ZM4 5V5H6C6 3.89543 5.10457 3 4 3V5ZM4 5C4.22759 5 4.74489 5.14076 5.20603 5.55579C5.63014 5.93749 6 6.54643 6 7.5H8C8 5.95357 7.36986 4.81252 6.54397 4.06921C5.75511 3.35924 4.77241 3 4 3V5ZM6 7.5C6 8.42053 5.67945 8.83274 5.14363 9.7214C4.57531 10.6639 4 11.841 4 14H6C6 12.293 6.42469 11.4701 6.85637 10.7541C7.32055 9.98428 8 9.07949 8 7.5H6ZM18 5C18 6.10457 18.8954 7 20 7V5V5H18ZM20 7C21.1046 7 22 6.10457 22 5H20V5V7ZM22 5C22 3.89543 21.1046 3 20 3V5V5H22ZM20 3C18.8954 3 18 3.89543 18 5H20V5V3ZM20 3C19.2276 3 18.2449 3.35924 17.456 4.06921C16.6301 4.81252 16 5.95357 16 7.5H18C18 6.54643 18.3699 5.93749 18.794 5.55579C19.2551 5.14076 19.7724 5 20 5V3ZM16 7.5C16 9.07949 16.6794 9.98428 17.1436 10.7541C17.5753 11.4701 18 12.293 18 14H20C20 11.841 19.4247 10.6639 18.8564 9.7214C18.3206 8.83274 18 8.42053 18 7.5H16ZM7 8.5H17V6.5H7V8.5ZM12 20C11.4026 20 10.8274 19.913 10.2852 19.7517L9.71475 21.6686C10.4401 21.8844 11.2074 22 12 22V20ZM10.2852 19.7517C7.80612 19.0138 6 16.7165 6 14H4C4 17.6255 6.4109 20.6853 9.71475 21.6686L10.2852 19.7517ZM9 4V20.7101H11V4H9ZM12 22C12.7926 22 13.5599 21.8844 14.2852 21.6686L13.7148 19.7517C13.1726 19.913 12.5974 20 12 20V22ZM14.2852 21.6686C17.5891 20.6853 20 17.6255 20 14H18C18 16.7165 16.1939 19.0138 13.7148 19.7517L14.2852 21.6686ZM13 4V20.7101H15V4H13Z" fill="#28293D"/>
</svg>
