<svg width="24" height="24" viewBox="0 0 24 24" fill="none" xmlns="http://www.w3.org/2000/svg">
<path d="M12 10L10.2426 11.7574H7.75736V14.2426L6 16L7.75736 17.7574V20.2426H10.2426L12 22L13.7574 20.2426H16.2426V17.7574L18 16L16.2426 14.2426V11.7574H13.7574L12 10Z" stroke="#28293D" stroke-width="2"/>
<path d="M3 3V2H1.25158L2.13807 3.50702L3 3ZM8 3L8.86824 2.50386L8.58032 2H8V3ZM12 10L11.1318 10.4961C11.3098 10.8077 11.6411 11 12 11C12.3589 11 12.6902 10.8077 12.8682 10.4961L12 10ZM21 3L21.8619 3.50702L22.7484 2H21V3ZM16 3V2H15.4197L15.1318 2.50386L16 3ZM8.86193 10.993L3.86193 2.49298L2.13807 3.50702L7.13807 12.007L8.86193 10.993ZM3 4H8V2H3V4ZM7.13176 3.49614L11.1318 10.4961L12.8682 9.50386L8.86824 2.50386L7.13176 3.49614ZM16.8619 12.007L21.8619 3.50702L20.1381 2.49298L15.1381 10.993L16.8619 12.007ZM21 2H16V4H21V2ZM15.1318 2.50386L11.1318 9.50386L12.8682 10.4961L16.8682 3.49614L15.1318 2.50386Z" fill="#28293D"/>
</svg>
