<svg width="24" height="24" viewBox="0 0 24 24" fill="none" xmlns="http://www.w3.org/2000/svg">
<path d="M19 8C19 7.44772 18.5523 7 18 7C17.4477 7 17 7.44772 17 8H19ZM8 18.5V17.5H7V18.5H8ZM16 18.5H17V17.5H16V18.5ZM9 8V7H8V8H9ZM9 9H8V10H9V9ZM13 9V10H14V9H13ZM13 8H14V7H13V8ZM17.9701 11.1194L17 10.8769L17.9701 11.1194ZM6.02986 11.1194L7 10.8769L6.02986 11.1194ZM6.98106 14.9243L7.95121 14.6817L6.98106 14.9243ZM7.95121 14.6817L7 10.8769L5.05971 11.362L6.01092 15.1668L7.95121 14.6817ZM7 10.8769V5H5V10.8769H7ZM7 5H15V3H7V5ZM15 5V10H17V5H15ZM17 8V10.8769H19V8H17ZM17 10.8769L16.0488 14.6817L17.9891 15.1668L18.9403 11.362L17 10.8769ZM16.9219 14H7.07808V16H16.9219V14ZM7 18.5V19.9H9V18.5H7ZM8.1 21H15.9V19H8.1V21ZM17 19.9V18.5H15V19.9H17ZM16 17.5H8V19.5H16V17.5ZM8 8V9H10V8H8ZM9 10H13V8H9V10ZM14 9V8H12V9H14ZM13 7H9V9H13V7ZM15.9 21C16.5075 21 17 20.5075 17 19.9H15C15 19.4029 15.4029 19 15.9 19V21ZM7 19.9C7 20.5075 7.49249 21 8.1 21V19C8.59706 19 9 19.4029 9 19.9H7ZM16.0488 14.6817C16.149 14.2811 16.5089 14 16.9219 14V16C17.4267 16 17.8667 15.6565 17.9891 15.1668L16.0488 14.6817ZM15 5H17C17 3.89543 16.1046 3 15 3V5ZM7 5V5V3C5.89543 3 5 3.89543 5 5H7ZM17 10.8769L18.9403 11.362C18.9799 11.2033 19 11.0404 19 10.8769H17ZM7 10.8769L7 10.8769H5C5 11.0404 5.02005 11.2033 5.05971 11.362L7 10.8769ZM6.01092 15.1668C6.13334 15.6565 6.57332 16 7.07808 16V14C7.49106 14 7.85104 14.2811 7.95121 14.6817L6.01092 15.1668Z" fill="#28293D"/>
</svg>
