<svg width="24" height="24" viewBox="0 0 24 24" fill="none" xmlns="http://www.w3.org/2000/svg">
<path d="M21 12C21 16.9706 16.9706 21 12 21V23C18.0751 23 23 18.0751 23 12H21ZM12 21C7.02944 21 3 16.9706 3 12H1C1 18.0751 5.92487 23 12 23V21ZM3 12C3 7.02944 7.02944 3 12 3V1C5.92487 1 1 5.92487 1 12H3ZM12 3C16.9706 3 21 7.02944 21 12H23C23 5.92487 18.0751 1 12 1V3ZM9 14.5C9 15.0523 8.55228 15.5 8 15.5V17.5C9.65685 17.5 11 16.1569 11 14.5H9ZM8 15.5C7.44772 15.5 7 15.0523 7 14.5H5C5 16.1569 6.34315 17.5 8 17.5V15.5ZM7 14.5C7 13.9477 7.44772 13.5 8 13.5V11.5C6.34315 11.5 5 12.8431 5 14.5H7ZM8 13.5C8.55228 13.5 9 13.9477 9 14.5H11C11 12.8431 9.65685 11.5 8 11.5V13.5ZM17 14.5C17 15.0523 16.5523 15.5 16 15.5V17.5C17.6569 17.5 19 16.1569 19 14.5H17ZM16 15.5C15.4477 15.5 15 15.0523 15 14.5H13C13 16.1569 14.3431 17.5 16 17.5V15.5ZM15 14.5C15 13.9477 15.4477 13.5 16 13.5V11.5C14.3431 11.5 13 12.8431 13 14.5H15ZM16 13.5C16.5523 13.5 17 13.9477 17 14.5H19C19 12.8431 17.6569 11.5 16 11.5V13.5ZM13 7.5C13 8.05228 12.5523 8.5 12 8.5V10.5C13.6569 10.5 15 9.15685 15 7.5H13ZM12 8.5C11.4477 8.5 11 8.05228 11 7.5H9C9 9.15685 10.3431 10.5 12 10.5V8.5ZM11 7.5C11 6.94772 11.4477 6.5 12 6.5V4.5C10.3431 4.5 9 5.84315 9 7.5H11ZM12 6.5C12.5523 6.5 13 6.94772 13 7.5H15C15 5.84315 13.6569 4.5 12 4.5V6.5Z" fill="#28293D"/>
</svg>
