<svg width="24" height="24" viewBox="0 0 24 24" fill="none" xmlns="http://www.w3.org/2000/svg">
<path d="M6 20.5L5.00612 20.3896L5 20.4446V20.5H6ZM6 21H5V22H6V21ZM7.16667 10L6.17278 9.88957L7.16667 10ZM18 20.5H19V20.4446L18.9939 20.3896L18 20.5ZM18 21V22H19V21H18ZM17.3889 15L18.3828 14.8896L17.3889 15ZM16.5707 7.63592L17.5645 7.52549L16.5707 7.63592ZM8.107 6.79767L7.79077 5.84898L8.107 6.79767ZM9.5 3.1V6H11.5V3.1H9.5ZM10.1838 5.05132L7.79077 5.84898L8.42323 7.74635L10.8162 6.94868L10.1838 5.05132ZM5 20.5V21H7V20.5H5ZM5.61723 14.8896L5.00612 20.3896L6.99388 20.6104L7.60499 15.1104L5.61723 14.8896ZM6.43546 7.52549L6.17278 9.88957L8.16055 10.1104L8.42323 7.74635L6.43546 7.52549ZM6.17278 9.88957L5.61723 14.8896L7.60499 15.1104L8.16055 10.1104L6.17278 9.88957ZM12.5 3.1V6H14.5V3.1H12.5ZM13.1838 6.94868L15.5768 7.74635L16.2092 5.84898L13.8162 5.05132L13.1838 6.94868ZM17 20.5V21H19V20.5H17ZM6 22H18V20H6V22ZM18 19.5H6V21.5H18V19.5ZM16.395 15.1104L17.0061 20.6104L18.9939 20.3896L18.3828 14.8896L16.395 15.1104ZM17.3889 14H6.61111V16H17.3889V14ZM15.5768 7.74635L15.8394 10.1104L17.8272 9.88957L17.5645 7.52549L15.5768 7.74635ZM15.8394 10.1104L16.395 15.1104L18.3828 14.8896L17.8272 9.88957L15.8394 10.1104ZM16.8333 9H7.16667V11H16.8333V9ZM10.6 4H12V2H10.6V4ZM12 4H13.4V2H12V4ZM13.5 5H12V7H13.5V5ZM12 5H10.5V7H12V5ZM13 6V3H11V6H13ZM15.5768 7.74635L17.5645 7.52549C17.4784 6.75016 16.9493 6.09567 16.2092 5.84898L15.5768 7.74635ZM14.5 3.1C14.5 2.49249 14.0075 2 13.4 2V4C12.9029 4 12.5 3.59706 12.5 3.1H14.5ZM7.79077 5.84898C7.0507 6.09567 6.52161 6.75016 6.43546 7.52549L8.42323 7.74635H8.42323L7.79077 5.84898ZM11.5 3.1C11.5 3.59706 11.0971 4 10.6 4V2C9.99249 2 9.5 2.49249 9.5 3.1H11.5Z" fill="#28293D"/>
</svg>
