<svg width="24" height="24" viewBox="0 0 24 24" fill="none" xmlns="http://www.w3.org/2000/svg">
<path d="M21 12C21 16.9706 16.9706 21 12 21V23C18.0751 23 23 18.0751 23 12H21ZM12 21C7.02944 21 3 16.9706 3 12H1C1 18.0751 5.92487 23 12 23V21ZM3 12C3 7.02944 7.02944 3 12 3V1C5.92487 1 1 5.92487 1 12H3ZM12 3C16.9706 3 21 7.02944 21 12H23C23 5.92487 18.0751 1 12 1V3ZM14 9.5C14 10.1655 13.283 11 12 11V13C14.0307 13 16 11.596 16 9.5H14ZM12 11C10.717 11 10 10.1655 10 9.5H8C8 11.596 9.96932 13 12 13V11ZM10 9.5C10 8.83454 10.717 8 12 8V6C9.96932 6 8 7.40403 8 9.5H10ZM12 8C13.283 8 14 8.83454 14 9.5H16C16 7.40403 14.0307 6 12 6V8ZM14 14.5C14 15.1655 13.283 16 12 16V18C14.0307 18 16 16.596 16 14.5H14ZM12 16C10.717 16 10 15.1655 10 14.5H8C8 16.596 9.96932 18 12 18V16ZM10 14.5C10 13.8345 10.717 13 12 13V11C9.96932 11 8 12.404 8 14.5H10ZM12 13C13.283 13 14 13.8345 14 14.5H16C16 12.404 14.0307 11 12 11V13ZM6 12C6 11.0779 6.2073 10.2071 6.57689 9.42909L4.77037 8.57091C4.27608 9.61141 4 10.7749 4 12H6ZM6.57689 14.5709C6.2073 13.7929 6 12.9221 6 12H4C4 13.2251 4.27608 14.3886 4.77037 15.4291L6.57689 14.5709ZM20 12C20 10.7749 19.7239 9.61141 19.2296 8.57091L17.4231 9.42909C17.7927 10.2071 18 11.0779 18 12H20ZM19.2296 15.4291C19.7239 14.3886 20 13.2251 20 12H18C18 12.9221 17.7927 13.7929 17.4231 14.5709L19.2296 15.4291Z" fill="#28293D"/>
</svg>
