<svg width="24" height="24" viewBox="0 0 24 24" fill="none" xmlns="http://www.w3.org/2000/svg">
<path d="M3.73891 12.5C3.25982 13.9123 3 15.4258 3 17C3 18.2254 3.15744 19.4141 3.45319 20.5468C4.58594 20.8426 5.77458 21 7 21C8.5742 21 10.0877 20.7402 11.5 20.2611M3.73891 12.5L11.5 20.2611M3.73891 12.5C5.13387 8.38784 8.38784 5.13387 12.5 3.73891M11.5 20.2611C15.6122 18.8661 18.8661 15.6122 20.2611 11.5M12.5 3.73891C13.9123 3.25982 15.4258 3 17 3C18.2254 3 19.4141 3.15744 20.5468 3.45319C20.8426 4.58594 21 5.77458 21 7C21 8.5742 20.7402 10.0877 20.2611 11.5M12.5 3.73891L20.2611 11.5M9.5 14.5L14.5 9.5" stroke="#28293D" stroke-width="2"/>
</svg>
