<svg width="24" height="24" viewBox="0 0 24 24" fill="none" xmlns="http://www.w3.org/2000/svg">
<path d="M12 7C11.8179 7 11.6471 7.0487 11.5 7.13378M12 7L10.8126 14.1094L14 16.5M12 7C12.4111 7 12.7642 7.24801 12.9179 7.60256M14 23V16.5M7 13V9L11.5 7.13378M11.5 7.13378C11.2485 7.27924 11.0663 7.53104 11.0148 7.82769L9 18L3 17M14 16.5V16L12 14L12.9796 8.20189C12.993 8.13669 13 8.06916 13 8C13 7.85877 12.9707 7.72437 12.9179 7.60256M12.9179 7.60256C13.4453 9.06837 15.4 12 19 12" stroke="#28293D" stroke-width="2"/>
<circle cx="13.5" cy="3.5" r="2" fill="#28293D"/>
</svg>
