<svg width="24" height="24" viewBox="0 0 24 24" fill="none" xmlns="http://www.w3.org/2000/svg">
<path d="M3.15205 15.1457L2.71459 14.2465L2.71459 14.2465L3.15205 15.1457ZM20.8479 15.1457L20.4105 16.045L20.8479 15.1457ZM17.2286 15.2653L16.6473 14.4516L17.2286 15.2653ZM13.7608 15.2577L13.1795 16.0714L13.7608 15.2577ZM10.2392 15.2577L10.8205 16.0714L10.8205 16.0714L10.2392 15.2577ZM6.77142 15.2653L7.35266 14.4516V14.4516L6.77142 15.2653ZM3.15205 19.4489L2.71459 18.5496H2.71459L3.15205 19.4489ZM20.8479 19.4489L20.4105 20.3481V20.3481L20.8479 19.4489ZM17.2286 19.5684L16.6473 18.7547L17.2286 19.5684ZM13.7608 19.5608L13.1795 20.3746L13.7608 19.5608ZM10.2392 19.5608L10.8205 20.3746H10.8205L10.2392 19.5608ZM6.77142 19.5684L7.35266 18.7547L6.77142 19.5684ZM2 16.5C2.56174 16.5 3.15554 16.2561 3.58951 16.045L2.71459 14.2465C2.30705 14.4448 2.06984 14.5 2 14.5V16.5ZM20.4105 16.045C20.8445 16.2561 21.4383 16.5 22 16.5V14.5C21.9998 14.5 22.0002 14.5 22 14.5C21.9998 14.5 22.0001 14.5 22 14.5C22 14.5 22 14.5 21.9999 14.5C21.9999 14.5 21.9998 14.5 21.9997 14.5C21.9995 14.5 21.9992 14.5 21.9988 14.5C21.9981 14.5 21.997 14.4999 21.9955 14.4998C21.9924 14.4997 21.9881 14.4994 21.9824 14.4987C21.9708 14.4975 21.9548 14.4953 21.934 14.4913C21.8918 14.4832 21.837 14.4694 21.7693 14.4476C21.6322 14.4035 21.4687 14.3356 21.2854 14.2465L20.4105 16.045ZM17.8098 16.0791C18.4797 15.6006 19.4661 15.5856 20.4105 16.045L21.2854 14.2465C19.8986 13.5718 18.087 13.4233 16.6473 14.4516L17.8098 16.0791ZM13.1795 16.0714C14.5571 17.0554 16.4239 17.069 17.8098 16.0791L16.6473 14.4516C15.9652 14.9389 15.0325 14.9372 14.342 14.444L13.1795 16.0714ZM10.8205 16.0714C11.5196 15.5721 12.4804 15.5721 13.1795 16.0714L14.342 14.444C12.9475 13.4479 11.0525 13.4479 9.65798 14.444L10.8205 16.0714ZM6.19019 16.0791C7.57608 17.069 9.4429 17.0554 10.8205 16.0714L9.65798 14.444C8.96747 14.9372 8.03484 14.9389 7.35266 14.4516L6.19019 16.0791ZM3.58951 16.045C4.53385 15.5856 5.52032 15.6006 6.19019 16.0791L7.35266 14.4516C5.91301 13.4233 4.10142 13.5718 2.71459 14.2465L3.58951 16.045ZM2 20.8031C2.56174 20.8031 3.15554 20.5592 3.58951 20.3481L2.71459 18.5496C2.53135 18.6388 2.36781 18.7066 2.23065 18.7507C2.16296 18.7725 2.10824 18.7863 2.06599 18.7944C2.04524 18.7984 2.02922 18.8006 2.01762 18.8019C2.0119 18.8025 2.00756 18.8028 2.00454 18.803C2.00305 18.803 2.00192 18.8031 2.00115 18.8031C2.00077 18.8031 2.00048 18.8031 2.00029 18.8031C2.00019 18.8031 2.00012 18.8031 2.00007 18.8031C2.00005 18.8031 2.00003 18.8031 2.00002 18.8031C1.99986 18.8031 2.00016 18.8031 2 18.8031C1.99985 18.8031 2.00015 18.8031 2 18.8031V20.8031ZM20.4105 20.3481C20.8445 20.5592 21.4383 20.8031 22 20.8031V18.8031C21.9998 18.8031 22.0002 18.8031 22 18.8031C21.9998 18.8031 22.0001 18.8031 22 18.8031C22 18.8031 22 18.8031 21.9999 18.8031C21.9999 18.8031 21.9998 18.8031 21.9997 18.8031C21.9995 18.8031 21.9992 18.8031 21.9988 18.8031C21.9981 18.8031 21.997 18.803 21.9955 18.803C21.9924 18.8028 21.9881 18.8025 21.9824 18.8019C21.9708 18.8006 21.9548 18.7984 21.934 18.7944C21.8918 18.7863 21.837 18.7725 21.7693 18.7507C21.6322 18.7066 21.4687 18.6388 21.2854 18.5496L20.4105 20.3481ZM17.8098 20.3822C18.4797 19.9037 19.4661 19.8887 20.4105 20.3481L21.2854 18.5496C19.8986 17.8749 18.087 17.7264 16.6473 18.7547L17.8098 20.3822ZM13.1795 20.3746C14.5571 21.3585 16.4239 21.3721 17.8098 20.3822L16.6473 18.7547C15.9652 19.242 15.0325 19.2403 14.342 18.7471L13.1795 20.3746ZM10.8205 20.3746C11.5196 19.8752 12.4804 19.8752 13.1795 20.3746L14.342 18.7471C12.9475 17.751 11.0525 17.751 9.65798 18.7471L10.8205 20.3746ZM6.19019 20.3822C7.57608 21.3721 9.4429 21.3585 10.8205 20.3746L9.65798 18.7471C8.96747 19.2403 8.03484 19.242 7.35266 18.7547L6.19019 20.3822ZM3.58951 20.3481C4.53385 19.8887 5.52032 19.9037 6.19019 20.3822L7.35266 18.7547C5.91301 17.7264 4.10142 17.8749 2.71459 18.5496L3.58951 20.3481Z" fill="#28293D"/>
<mask id="mask0_402_14890" style="mask-type:alpha" maskUnits="userSpaceOnUse" x="2" y="1" width="20" height="12">
<path d="M3.15205 11.4488C2.73129 11.6535 2.31579 11.8031 2 11.8031V1H22V11.8031C21.6842 11.8031 21.2687 11.6535 20.8479 11.4488C19.6824 10.8818 18.2833 10.815 17.2286 11.5684C16.1945 12.307 14.7948 12.2994 13.7608 11.5608C12.7139 10.8131 11.2861 10.8131 10.2392 11.5608C9.20519 12.2994 7.80546 12.307 6.77142 11.5684C5.71666 10.815 4.31764 10.8818 3.15205 11.4488Z" fill="white"/>
</mask>
<g mask="url(#mask0_402_14890)">
<path d="M10.15 6.14994L10.8571 5.44283V5.44283L10.15 6.14994ZM7.34847 4.43747L7.04157 5.38921H7.04157L7.34847 4.43747ZM7.50005 12L6.83569 11.2526L4.86985 13H7.50005V12ZM16.0001 12V13H18.4143L16.7072 11.2929L16.0001 12ZM9.75005 10L9.08569 9.25261L9.75005 10ZM14.0001 10L14.7072 9.29292V9.29292L14.0001 10ZM10.8571 5.44283C9.95554 4.5413 8.85655 3.87306 7.65537 3.48573L7.04157 5.38921C7.94249 5.67972 8.76673 6.18091 9.44286 6.85705L10.8571 5.44283ZM12.7072 7.29292L10.8571 5.44283L9.44286 6.85705L11.2929 8.70713L12.7072 7.29292ZM7.50005 13H16.0001V11H7.50005V13ZM11.3357 7.25261L9.08569 9.25261L10.4144 10.7474L12.6644 8.74743L11.3357 7.25261ZM9.08569 9.25261L6.83569 11.2526L8.16442 12.7474L10.4144 10.7474L9.08569 9.25261ZM16.7072 11.2929L14.7072 9.29292L13.2929 10.7071L15.2929 12.7071L16.7072 11.2929ZM14.7072 9.29292L12.7072 7.29292L11.2929 8.70713L13.2929 10.7071L14.7072 9.29292ZM9.75005 11H14.0001V9.00002H9.75005V11ZM5 5.17004C5.79149 5.17004 6.45169 5.199 7.04157 5.38921L7.65537 3.48573C6.73683 3.18954 5.7934 3.17004 5 3.17004V5.17004Z" fill="#28293D"/>
</g>
</svg>
