<svg width="24" height="24" viewBox="0 0 24 24" fill="none" xmlns="http://www.w3.org/2000/svg">
<path d="M3.49982 20.601L2.73107 21.2406L2.75555 21.27L2.78221 21.2975L3.49982 20.601ZM8.35689 14.1429L7.55129 14.7354L8.35689 14.1429ZM9.99982 15.7453L10.5719 14.9251L9.99982 15.7453ZM3.14844 20.0495L2.44133 19.3424L1.95121 19.8325L2.23815 20.4635L3.14844 20.0495ZM9.54103 15.3965L10.1784 14.6259L9.54103 15.3965ZM4.01376 20.9237L3.68694 21.8688L4.27837 22.0733L4.72087 21.6308L4.01376 20.9237ZM19.9998 10C19.9998 13.3137 17.3135 16 13.9998 16V18C18.4181 18 21.9998 14.4183 21.9998 10H19.9998ZM7.99982 10C7.99982 6.68629 10.6861 4 13.9998 4V2C9.58154 2 5.99982 5.58172 5.99982 10H7.99982ZM13.9998 4C17.3135 4 19.9998 6.68629 19.9998 10H21.9998C21.9998 5.58172 18.4181 2 13.9998 2V4ZM9.1625 13.5505C8.43142 12.5564 7.99982 11.3301 7.99982 10H5.99982C5.99982 11.7706 6.57621 13.4095 7.55129 14.7354L9.1625 13.5505ZM13.9998 16C12.7237 16 11.5434 15.6027 10.5719 14.9251L9.42773 16.5655C10.7239 17.4696 12.3014 18 13.9998 18V16ZM9.80074 14.2858C9.67021 14.1578 9.54549 14.024 9.42704 13.8848L7.90354 15.1805C8.06123 15.3659 8.22722 15.544 8.40094 15.7142L9.80074 14.2858ZM9.42704 13.8848C9.33501 13.7765 9.24676 13.6651 9.1625 13.5505L7.55129 14.7354C7.66352 14.888 7.78103 15.0365 7.90354 15.1805L9.42704 13.8848ZM4.26858 19.9615C4.16103 19.8322 4.09704 19.7197 4.05873 19.6355L2.23815 20.4635C2.34798 20.705 2.50598 20.97 2.73107 21.2406L4.26858 19.9615ZM7.95818 13.8255L2.44133 19.3424L3.85554 20.7566L9.37239 15.2397L7.95818 13.8255ZM10.5719 14.9251C10.4366 14.8307 10.3053 14.7309 10.1784 14.6259L8.90365 16.167C9.07261 16.3068 9.24744 16.4397 9.42773 16.5655L10.5719 14.9251ZM10.1784 14.6259C10.0478 14.5179 9.92176 14.4043 9.80074 14.2858L8.40094 15.7142C8.562 15.8721 8.72972 16.0231 8.90365 16.167L10.1784 14.6259ZM4.34059 19.9787C4.28578 19.9597 4.24724 19.9353 4.21743 19.9046L2.78221 21.2975C3.06782 21.5918 3.39223 21.7669 3.68694 21.8688L4.34059 19.9787ZM8.83393 14.6894L3.30666 20.2166L4.72087 21.6308L10.2481 16.1036L8.83393 14.6894ZM17.9999 20C17.9999 21.1046 18.8953 22 19.9999 22V20H17.9999ZM19.9999 22C21.1044 22 21.9999 21.1046 21.9999 20H19.9999V22ZM21.9999 20C21.9999 18.8954 21.1044 18 19.9999 18V20H21.9999ZM19.9999 18C18.8953 18 17.9999 18.8954 17.9999 20H19.9999V18ZM8.39373 14.2929L2.79272 19.8939L4.20693 21.3081L9.80795 15.7071L8.39373 14.2929Z" fill="#28293D"/>
</svg>
