<svg width="24" height="24" viewBox="0 0 24 24" fill="none" xmlns="http://www.w3.org/2000/svg">
<g clip-path="url(#clip0_402_14927)">
<path d="M8.13977 10.2113L7.15703 10.3962L8.13977 10.2113ZM19.1567 20.864C18.3757 21.645 17.1093 21.645 16.3283 20.864L14.9141 22.2782C16.4762 23.8403 19.0088 23.8403 20.5709 22.2782L19.1567 20.864ZM16.3283 20.864C15.5472 20.0829 15.5472 18.8166 16.3283 18.0355L14.9141 16.6213C13.352 18.1834 13.352 20.7161 14.9141 22.2782L16.3283 20.864ZM16.3283 18.0355C17.1093 17.2545 18.3757 17.2545 19.1567 18.0355L20.5709 16.6213C19.0088 15.0592 16.4762 15.0592 14.9141 16.6213L16.3283 18.0355ZM19.1567 18.0355C19.9378 18.8166 19.9378 20.0829 19.1567 20.864L20.5709 22.2782C22.133 20.7161 22.133 18.1834 20.5709 16.6213L19.1567 18.0355ZM11.025 4.95406C12.1517 3.82731 13.4981 3.18513 14.7327 3.02409C15.966 2.86322 17.031 3.18191 17.7425 3.8934L19.1567 2.47918C17.9156 1.23805 16.1839 0.817867 14.4741 1.04088C12.7656 1.26373 11.0224 2.12819 9.61076 3.53984L11.025 4.95406ZM17.7425 3.8934C18.454 4.60489 18.7727 5.66984 18.6118 6.90315C18.4508 8.13781 17.8086 9.48416 16.6818 10.6109L18.096 12.0251C19.5077 10.6135 20.3722 8.87027 20.595 7.16182C20.818 5.45202 20.3978 3.72032 19.1567 2.47918L17.7425 3.8934ZM8.5501 11.6716L6.42878 13.7929L7.84299 15.2071L9.96432 13.0858L8.5501 11.6716ZM6.42878 13.7929L1.47903 18.7426L2.89325 20.1569L7.84299 15.2071L6.42878 13.7929ZM9.96432 11.6716C9.52753 11.2348 9.24453 10.6745 9.12252 10.0263L7.15703 10.3962C7.34597 11.4001 7.80113 12.3368 8.5501 13.0858L9.96432 11.6716ZM9.12252 10.0263C8.83844 8.51699 9.44369 6.53534 11.025 4.95406L9.61076 3.53984C7.65672 5.49389 6.72797 8.11663 7.15703 10.3962L9.12252 10.0263ZM7.88311 15.1646C8.56602 14.3967 9.74361 12.3348 9.10574 9.95261L7.1738 10.4699C7.57647 11.9737 6.80857 13.3633 6.38866 13.8354L7.88311 15.1646ZM16.6818 10.6109C15.1005 12.1922 13.1189 12.7974 11.6096 12.5134L11.2397 14.4789C13.5193 14.9079 16.142 13.9792 18.096 12.0251L16.6818 10.6109ZM11.6096 12.5134C10.9614 12.3914 10.4011 12.1084 9.96432 11.6716L8.5501 13.0858C9.29907 13.8348 10.2358 14.2899 11.2397 14.4789L11.6096 12.5134ZM7.80046 15.2472C8.27259 14.8273 9.66216 14.0594 11.166 14.4621L11.6833 12.5301C9.30105 11.8923 7.23916 13.0699 6.47132 13.7528L7.80046 15.2472Z" fill="#28293D"/>
</g>
<defs>
<clipPath id="clip0_402_14927">
<rect width="24" height="24" fill="white"/>
</clipPath>
</defs>
</svg>
