<svg width="24" height="24" viewBox="0 0 24 24" fill="none" xmlns="http://www.w3.org/2000/svg">
<path d="M7.5 12H14.5V10H7.5V12ZM7.5 17C6.11929 17 5 15.8807 5 14.5H3C3 16.9853 5.01472 19 7.5 19V17ZM17 14.5C17 15.8807 15.8807 17 14.5 17V19C16.9853 19 19 16.9853 19 14.5H17ZM14.5 12C15.8807 12 17 13.1193 17 14.5H19C19 12.0147 16.9853 10 14.5 10V12ZM7.5 10C5.01472 10 3 12.0147 3 14.5H5C5 13.1193 6.11929 12 7.5 12V10ZM7.5 10H1V12H7.5V10ZM2 11V9.5H0V11H2ZM0 11V12.5H2V11H0ZM22 6V16H24V6H22ZM14.5 12C16.3266 12 19.3958 11.6115 21.5445 10.2164L20.4555 8.53897C18.786 9.62283 16.1797 10 14.5 10V12ZM21.5445 10.2164C22.9155 9.32634 24 7.95802 24 6H22C22 7.09203 21.4371 7.90162 20.4555 8.53897L21.5445 10.2164ZM14.5 12C16.1797 12 18.786 12.3772 20.4555 13.461L21.5445 11.7836C19.3958 10.3885 16.3266 10 14.5 10V12ZM20.4555 13.461C21.4371 14.0984 22 14.908 22 16H24C24 14.042 22.9155 12.6737 21.5445 11.7836L20.4555 13.461ZM20 9.3777V12.6223H22V9.3777H20ZM8.5 17H7.5V19H8.5V17ZM9.5 18V9H7.5V18H9.5ZM14.5 17H13.5V19H14.5V17ZM13.5 17H8.5V19H13.5V17ZM14.5 18V9H12.5V18H14.5Z" fill="#28293D"/>
</svg>
