<svg width="24" height="24" viewBox="0 0 24 24" fill="none" xmlns="http://www.w3.org/2000/svg">
<path d="M21 7H22V6H21V7ZM21 9V10H22V9H21ZM5 8.5C5 8.77614 4.77614 9 4.5 9V11C5.88071 11 7 9.88071 7 8.5H5ZM4.5 9C4.22386 9 4 8.77614 4 8.5H2C2 9.88071 3.11929 11 4.5 11V9ZM4 8.5C4 8.22386 4.22386 8 4.5 8V6C3.11929 6 2 7.11929 2 8.5H4ZM4.5 8C4.77614 8 5 8.22386 5 8.5H7C7 7.11929 5.88071 6 4.5 6V8ZM14 12C14 13.6569 12.6569 15 11 15V17C13.7614 17 16 14.7614 16 12H14ZM11 15C9.34315 15 8 13.6569 8 12H6C6 14.7614 8.23858 17 11 17V15ZM8 12C8 10.3431 9.34315 9 11 9V7C8.23858 7 6 9.23858 6 12H8ZM11 9C12.6569 9 14 10.3431 14 12H16C16 9.23858 13.7614 7 11 7V9ZM15 12C15 14.2091 13.2091 16 11 16V18C14.3137 18 17 15.3137 17 12H15ZM11 16C8.79086 16 7 14.2091 7 12H5C5 15.3137 7.68629 18 11 18V16ZM7 12C7 9.79086 8.79086 8 11 8V6C7.68629 6 5 8.68629 5 12H7ZM11 8H21V6H11V8ZM20 7V9H22V7H20ZM11 8C12.308 8 13.4693 8.62676 14.2008 9.60058L15.7999 8.39942C14.707 6.94434 12.9636 6 11 6V8ZM14.2008 9.60058C14.7029 10.269 15 11.0984 15 12H17C17 10.6504 16.5532 9.40231 15.7999 8.39942L14.2008 9.60058ZM21 8H18.5V10H21V8ZM18.5 8H15.0004V10H18.5V8ZM17 12C17 11.0247 17.1356 10.5692 17.3 10.35C17.406 10.2086 17.6516 10 18.5 10V8C17.3484 8 16.344 8.29137 15.7 9.15C15.1144 9.93082 15 10.9753 15 12H17ZM9 12C9 13.1046 9.89543 14 11 14V12H9ZM11 14C12.1046 14 13 13.1046 13 12H11V14ZM13 12C13 10.8954 12.1046 10 11 10V12H13ZM11 10C9.89543 10 9 10.8954 9 12H11V10Z" fill="#28293D"/>
</svg>
