<svg width="24" height="24" viewBox="0 0 24 24" fill="none" xmlns="http://www.w3.org/2000/svg">
<path d="M4 9H3V6H15.7676C16.1134 6.5978 16.7597 7 17.5 7M4 9L5 21H14V18C14 16.067 15.567 14.5 17.5 14.5V9M4 9H17.5M17.5 7C18.6046 7 19.5 6.10457 19.5 5M17.5 7V9" stroke="#555770" stroke-width="2"/>
<path d="M17.5 14.5C15.567 14.5 14 16.067 14 18V21V22H14.5V21.5H20.5V22H21V18C21 16.067 19.433 14.5 17.5 14.5ZM17.5 14.5V9V7M17.5 7C18.6046 7 19.5 6.10457 19.5 5V2.5H15.5V5C15.5 5.36429 15.5974 5.70583 15.7676 6C16.1134 6.5978 16.7597 7 17.5 7Z" stroke="#3E7BFA" stroke-width="2"/>
</svg>
