<svg width="24" height="24" viewBox="0 0 24 24" fill="none" xmlns="http://www.w3.org/2000/svg">
<path d="M16 14.4907C17.2275 14.1245 18 13.5923 18 13V10C18 11.1046 15.3137 12 12 12C8.68629 12 6 11.1046 6 10V13C6 14.1046 8.68629 15 12 15C13.5367 15 14.9385 14.8074 16 14.4907ZM16 14.4907L19.5 17.6458V22" stroke="#3E7BFA" stroke-width="2"/>
<path d="M2 15C2 17.2091 6.47715 19 12 19C14.9867 19 17.6676 18.4762 19.5 17.6458C21.0559 16.9407 22 16.0144 22 15C22 13.6913 20.4289 12.5295 18 11.7997V8C18 5.79086 15.3137 4 12 4C8.68629 4 6 5.79086 6 8V11.7997C3.57111 12.5295 2 13.6913 2 15Z" stroke="#555770" stroke-width="2"/>
</svg>
