<svg width="24" height="24" viewBox="0 0 24 24" fill="none" xmlns="http://www.w3.org/2000/svg">
<path d="M3.00003 9L3 7.00002C3.67831 7.07945 7.48746 7.50004 11.9999 7.50004C16.5123 7.50004 20.3217 7.07942 21 7L21 9.01122C18.3231 9.37534 13.0649 11.4339 13.0005 16.8985C12.9999 16.9537 12.9552 17 12.8999 17H11.0999C11.0447 17 11 16.9537 10.9994 16.8985C10.935 11.4338 5.67697 9.36413 3.00003 9Z" stroke="#555770" stroke-width="2"/>
<mask id="mask0_402_17243" style="mask-type:alpha" maskUnits="userSpaceOnUse" x="12" y="1" width="12" height="22">
<rect x="12" y="1" width="12" height="22" fill="black"/>
</mask>
<g mask="url(#mask0_402_17243)">
<path d="M3.00003 9L3 7.00002C3.67831 7.07945 7.48746 7.50004 11.9999 7.50004C16.5123 7.50004 20.3217 7.07942 21 7L21 9.01122C18.3231 9.37534 13.0649 11.4339 13.0005 16.8985C12.9999 16.9537 12.9552 17 12.8999 17H11.0999C11.0447 17 11 16.9537 10.9994 16.8985C10.935 11.4338 5.67697 9.36413 3.00003 9Z" stroke="#3E7BFA" stroke-width="2"/>
</g>
</svg>
