<svg width="24" height="24" viewBox="0 0 24 24" fill="none" xmlns="http://www.w3.org/2000/svg">
<path d="M5.85749 0.485504C5.57334 0.011924 4.95908 -0.141641 4.4855 0.142507C4.01192 0.426655 3.85836 1.04092 4.14251 1.5145L5.85749 0.485504ZM11.8575 0.485504C11.5733 0.011924 10.9591 -0.141641 10.4855 0.142507C10.0119 0.426655 9.85836 1.04092 10.1425 1.5145L11.8575 0.485504ZM4.14251 22.4855C3.85836 22.9591 4.01192 23.5733 4.4855 23.8575C4.95908 24.1416 5.57334 23.9881 5.85749 23.5145L4.14251 22.4855ZM10.1425 22.4855C9.85836 22.9591 10.0119 23.5733 10.4855 23.8575C10.9591 24.1416 11.5733 23.9881 11.8575 23.5145L10.1425 22.4855ZM8.85749 5.4855L5.85749 0.485504L4.14251 1.5145L7.14251 6.5145L8.85749 5.4855ZM14.8575 5.4855L11.8575 0.485504L10.1425 1.5145L13.1425 6.5145L14.8575 5.4855ZM7.14251 17.4855L4.14251 22.4855L5.85749 23.5145L8.85749 18.5145L7.14251 17.4855ZM13.1425 17.4855L10.1425 22.4855L11.8575 23.5145L14.8575 18.5145L13.1425 17.4855Z" fill="#3E7BFA"/>
<path d="M1 9C1 7.34315 2.34315 6 4 6H8H15.5147C17.106 6 18.6321 6.63214 19.7574 7.75736L21.8787 9.87868C23.0503 11.0503 23.0503 12.9497 21.8787 14.1213L19.7574 16.2426C18.6321 17.3679 17.106 18 15.5147 18H4C2.34315 18 1 16.6569 1 15V9Z" stroke="#555770" stroke-width="2"/>
<path d="M5 10C5 9.44772 5.44772 9 6 9L13.9156 9C14.8416 9 15.739 9.3213 16.4546 9.9091L17.1186 10.4545C18.0926 11.2546 18.0926 12.7454 17.1186 13.5455L16.4546 14.0909C15.739 14.6787 14.8416 15 13.9156 15H6C5.44771 15 5 14.5523 5 14V10Z" stroke="#3E7BFA" stroke-width="2"/>
</svg>
