<svg width="24" height="24" viewBox="0 0 24 24" fill="none" xmlns="http://www.w3.org/2000/svg">
<path d="M3.35468 16.6463L3 17.001C4.82446 19.4293 7.7288 21 11 21C16.5228 21 21 16.5228 21 11C21 7.7288 19.4293 4.82446 17.001 3L16.6464 3.35459M3.35468 16.6463C5.08581 18.9864 7.86575 20.5037 11.0001 20.5037C16.2489 20.5037 20.5038 16.2488 20.5038 11C20.5038 7.86566 18.9865 5.08572 16.6464 3.35459M3.35468 16.6463L16.6464 3.35459" stroke="#555770" stroke-width="2"/>
<path d="M14.4746 13.7678C14.6699 13.963 14.6699 14.2796 14.4746 14.4749C14.2794 14.6702 13.9628 14.6702 13.7675 14.4749C13.7677 14.475 13.7677 14.4751 13.7677 14.4751C13.7678 14.4751 13.7622 14.4692 13.752 14.4545C13.7409 14.4386 13.727 14.4163 13.7108 14.3864C13.678 14.326 13.6421 14.247 13.6046 14.1508C13.5296 13.9581 13.4589 13.725 13.3972 13.4929C13.3857 13.4495 13.3745 13.4064 13.3638 13.3641C13.4062 13.3748 13.4493 13.3859 13.4927 13.3975C13.7248 13.4591 13.9578 13.5298 14.1505 13.6049C14.2467 13.6424 14.3258 13.6782 14.3862 13.711C14.416 13.7273 14.4383 13.7411 14.4543 13.7522C14.4706 13.7636 14.476 13.7692 14.4746 13.7678ZM16.3199 10.0006C16.5866 10.0721 16.7449 10.3463 16.6734 10.613C16.6019 10.8797 16.3278 11.038 16.061 10.9665C16.0629 10.967 16.0554 10.9651 16.0374 10.9567C16.0198 10.9484 15.9966 10.936 15.9677 10.9183C15.909 10.8824 15.8385 10.8319 15.7579 10.7673C15.5965 10.6379 15.4188 10.4715 15.2493 10.3013C15.2176 10.2695 15.1865 10.2377 15.156 10.2064C15.1981 10.1945 15.2409 10.1826 15.2843 10.1709C15.5161 10.1083 15.7533 10.053 15.9577 10.0216C16.0598 10.006 16.1461 9.99748 16.2149 9.99571C16.2488 9.99483 16.2751 9.99569 16.2944 9.99734C16.3123 9.99886 16.3201 10.0007 16.3201 10.0007C16.3201 10.0007 16.32 10.0007 16.3199 10.0006ZM10.9663 16.0613C11.0378 16.328 10.8795 16.6022 10.6127 16.6736C10.346 16.7451 10.0718 16.5868 10.0004 16.3201C10.0004 16.3203 10.0004 16.3204 10.0004 16.3204C10.0005 16.3204 9.99861 16.3125 9.99709 16.2947C9.99545 16.2753 9.99459 16.2491 9.99547 16.2151C9.99724 16.1464 10.0057 16.06 10.0214 15.9579C10.0527 15.7535 10.108 15.5164 10.1706 15.2845C10.1824 15.2412 10.1942 15.1983 10.2062 15.1563C10.2375 15.1867 10.2692 15.2179 10.3011 15.2496C10.4712 15.419 10.6377 15.5968 10.767 15.7581C10.8316 15.8387 10.8822 15.9093 10.9181 15.9679C10.9358 15.9969 10.9482 16.0201 10.9564 16.0376C10.964 16.0539 10.9664 16.0616 10.9664 16.0616C10.9664 16.0616 10.9663 16.0615 10.9663 16.0613Z" stroke="#3E7BFA"/>
</svg>
