<svg width="24" height="24" viewBox="0 0 24 24" fill="none" xmlns="http://www.w3.org/2000/svg">
<path d="M2 6C4 6 5 4.5 7 4.5C9 4.5 10 6 12 6C14 6 15 4.5 17 4.5C19 4.5 20 6 22 6M2 15C4 15 5 13.5 7 13.5C9 13.5 10 15 12 15C14 15 15 13.5 17 13.5C19 13.5 20 15 22 15" stroke="#555770" stroke-width="2"/>
<path d="M2 10.5C4 10.5 5 9 7 9C9 9 10 10.5 12 10.5C14 10.5 15 9 17 9C19 9 20 10.5 22 10.5M2 19.5C4 19.5 5 18 7 18C9 18 10 19.5 12 19.5C14 19.5 15 18 17 18C19 18 20 19.5 22 19.5" stroke="#3E7BFA" stroke-width="2"/>
</svg>
