<svg width="24" height="24" viewBox="0 0 24 24" fill="none" xmlns="http://www.w3.org/2000/svg">
<path d="M12 21V10M12 7C13.1046 7 14 6.10457 14 5C14 3.89543 13.1046 3 12 3C10.8954 3 10 3.89543 10 5C10 6.10457 10.8954 7 12 7ZM12 7V10M12 10H9M12 10H15" stroke="#3E7BFA" stroke-width="2"/>
<path d="M4.141 14.5C4.84311 18.2013 8.09502 21 12.0006 21C15.9062 21 19.1581 18.2013 19.8602 14.5M4.141 14.5C4.10972 14.3351 4.08349 14.1683 4.0625 14L3.5625 14.5H4.141ZM19.8602 14.5C19.8915 14.3351 19.9177 14.1683 19.9387 14L20.4387 14.5H19.8602Z" stroke="#555770" stroke-width="2"/>
</svg>
