<svg width="24" height="24" viewBox="0 0 24 24" fill="none" xmlns="http://www.w3.org/2000/svg">
<path d="M7.99961 5C7.48155 5.71233 6.8075 6.92788 6.24727 8.5M6.24727 8.5C7.33139 9.16667 9.69964 11.4 10.4996 15M6.24727 8.5C4.16473 10 0.699644 14 3.49964 18C4.99961 18.1667 8.49955 17.8 10.4996 15M10.4996 15C10.6663 15.1667 11.1998 15.5 11.9998 15.5C12.7998 15.5 13.3332 15.1667 13.4999 15M15.9999 5C16.518 5.71233 17.192 6.92788 17.7522 8.5M17.7522 8.5C16.6681 9.16667 14.2999 11.4 13.4999 15M17.7522 8.5C19.8348 10 23.2999 14 20.4999 18C18.9999 18.1667 15.5 17.8 13.4999 15" stroke="#555770" stroke-width="2"/>
<mask id="mask0_402_17247" style="mask-type:alpha" maskUnits="userSpaceOnUse" x="12" y="1" width="12" height="22">
<rect x="12" y="1" width="12" height="22" fill="black"/>
</mask>
<g mask="url(#mask0_402_17247)">
<path d="M7.99961 5C7.48155 5.71233 6.8075 6.92788 6.24727 8.5M6.24727 8.5C7.33139 9.16667 9.69964 11.4 10.4996 15M6.24727 8.5C4.16473 10 0.699644 14 3.49964 18C4.99961 18.1667 8.49955 17.8 10.4996 15M10.4996 15C10.6663 15.1667 11.1998 15.5 11.9998 15.5C12.7998 15.5 13.3332 15.1667 13.4999 15M15.9999 5C16.518 5.71233 17.192 6.92788 17.7522 8.5M17.7522 8.5C16.6681 9.16667 14.2999 11.4 13.4999 15M17.7522 8.5C19.8348 10 23.2999 14 20.4999 18C18.9999 18.1667 15.5 17.8 13.4999 15" stroke="#3E7BFA" stroke-width="2"/>
</g>
</svg>
