<svg width="24" height="24" viewBox="0 0 24 24" fill="none" xmlns="http://www.w3.org/2000/svg">
<path d="M15.6389 3.24478L10.3574 10.243M19.8959 7.691L13.1954 13.2072M5.81627 18.8032C6.70916 18.1438 7.69648 17.0677 8.35343 16.1546C8.43563 16.0404 8.42481 15.8804 8.32807 15.7793L7.94755 15.3819C7.85541 15.2857 7.70969 15.2744 7.60499 15.3554C6.64717 16.0965 5.79554 16.9868 5.0854 17.9868C5.00741 18.0966 5.01771 18.2502 5.11028 18.3469L5.52219 18.7771C5.60104 18.8594 5.72523 18.8705 5.81627 18.8032Z" stroke="#3E7BFA" stroke-width="2"/>
<path d="M3.88506 14.1029L3.17555 14.8439C1.60815 16.481 1.60815 19.1352 3.17555 20.7722C4.74295 22.4093 7.28422 22.4093 8.85162 20.7722L9.56113 20.0312L20.3255 11.5333C20.7565 11.1824 21.0423 10.6607 20.9972 10.0919C20.9707 9.75843 20.9111 9.36928 20.7863 8.99342C20.5686 8.33811 20.1714 8.27985 19.8961 7.69099C19.4694 6.77869 19.2812 5.84947 18.2778 4.80149C17.2744 3.75351 16.5125 3.69038 15.639 3.24478C15.1058 2.97276 14.9973 2.45179 14.2642 2.18153C13.8335 2.02278 13.4289 1.98916 13.1148 2C12.7008 2.01428 12.3494 2.2748 12.0947 2.61599L3.88506 14.1029Z" stroke="#555770" stroke-width="2"/>
</svg>
