<svg width="24" height="24" viewBox="0 0 24 24" fill="none" xmlns="http://www.w3.org/2000/svg">
<path d="M2 15L1.53545 14.1145C1.12797 14.3282 0.918959 14.7924 1.02903 15.2392C1.13911 15.686 1.53986 16 2 16L2 15ZM2 8V7C1.53986 7 1.13911 7.314 1.02903 7.76078C0.918959 8.20756 1.12797 8.67179 1.53545 8.88555L2 8ZM12.5 4L12.7586 3.03402C12.4164 2.94241 12.0513 3.03866 11.7988 3.28705C11.5462 3.53543 11.4439 3.89889 11.5299 4.24254L12.5 4ZM16 8.03544L16.7567 8.6892L16.9396 8.47756L16.9861 8.20175L16 8.03544ZM16 14.9646L16.9861 14.7982L16.9534 14.6047L16.8501 14.4379L16 14.9646ZM12.5 19L11.5299 18.7575C11.4439 19.1011 11.5462 19.4646 11.7988 19.713C12.0513 19.9613 12.4164 20.0576 12.7586 19.966L12.5 19ZM1.53545 8.88555C2.15683 9.21152 2.49834 9.5919 2.69869 9.98548C2.90678 10.3943 3 10.8918 3 11.5H5C5 10.7012 4.87972 9.86137 4.48106 9.07819C4.07465 8.27981 3.41617 7.61366 2.46455 7.11445L1.53545 8.88555ZM3 11.5C3 12.1082 2.90678 12.6057 2.69869 13.0145C2.49834 13.4081 2.15683 13.7885 1.53545 14.1145L2.46455 15.8855C3.41617 15.3863 4.07465 14.7202 4.48106 13.9218C4.87972 13.1386 5 12.2988 5 11.5H3ZM2 9C3.37477 9 4.63012 9.21295 5.64164 9.5615C6.67135 9.91631 7.36548 10.382 7.71977 10.824L9.28023 9.57296C8.60157 8.72642 7.51873 8.0929 6.2932 7.6706C5.04947 7.24204 3.57129 7 2 7V9ZM7.71977 12.176C7.36548 12.618 6.67135 13.0837 5.64164 13.4385C4.63012 13.7871 3.37477 14 2 14V16C3.57129 16 5.04947 15.758 6.2932 15.3294C7.51873 14.9071 8.60157 14.2736 9.28023 13.427L7.71977 12.176ZM12.9194 8.73024C13.1168 8.26884 13.3643 7.5087 13.5109 6.64338C13.6564 5.78487 13.7165 4.74296 13.4701 3.75746L11.5299 4.24254C11.6835 4.85704 11.6602 5.59407 11.5391 6.30923C11.419 7.01759 11.2165 7.62585 11.0806 7.94339L12.9194 8.73024ZM12.2414 4.96598C12.8019 5.11604 13.6256 5.47249 14.2391 6.01271C14.8325 6.53523 15.1381 7.13293 15.0139 7.86913L16.9861 8.20175C17.2619 6.56632 16.4842 5.32478 15.5609 4.51172C14.6577 3.71638 13.5314 3.24092 12.7586 3.03402L12.2414 4.96598ZM15.9287 13.9671C15.6259 13.9888 15.3158 14 15 14V16C15.3632 16 15.7209 15.9871 16.0713 15.962L15.9287 13.9671ZM15.2433 7.38169C14.17 8.62403 12.8848 11.835 15.1499 15.4912L16.8501 14.4379C15.1152 11.6374 16.1634 9.37597 16.7567 8.6892L15.2433 7.38169ZM11.0806 15.0566C11.2165 15.3741 11.419 15.9824 11.5391 16.6908C11.6602 17.4059 11.6835 18.143 11.5299 18.7575L13.4701 19.2425C13.7165 18.257 13.6564 17.2151 13.5109 16.3566C13.3643 15.4913 13.1168 14.7312 12.9194 14.2698L11.0806 15.0566ZM12.7586 19.966C13.5314 19.7591 14.6577 19.2836 15.5609 18.4883C16.4842 17.6752 17.2619 16.4337 16.9861 14.7982L15.0139 15.1309C15.1381 15.8671 14.8325 16.4648 14.2391 16.9873C13.6256 17.5275 12.8019 17.884 12.2414 18.034L12.7586 19.966Z" fill="#3E7BFA"/>
<path d="M16 8.03544C15.6734 8.01209 15.3395 8 15 8C13.9264 8 12.9093 8.12085 12 8.33682C10.4142 8.71349 9.15652 9.37952 8.5 10.1985C8.17745 10.6008 8 11.04 8 11.5C8 11.96 8.17745 12.3992 8.5 12.8015C9.53295 14.09 12.0539 15 15 15C15.3395 15 15.6734 14.9879 16 14.9646M16 8.03544C19.3923 8.27806 22 9.73676 22 11.5C22 13.2632 19.3923 14.7219 16 14.9646M16 8.03544C15.1667 9 14 11.7362 16 14.9646" stroke="#555770" stroke-width="2"/>
</svg>
