<svg width="24" height="24" viewBox="0 0 24 24" fill="none" xmlns="http://www.w3.org/2000/svg">
<path d="M6 2V5.76471M6 5.76471L1.5 8.11765M6 5.76471L10.5 8.11765M18 6V9.76471M18 9.76471L13.5 12.1176M18 9.76471L22.5 12.1176" stroke="#3E7BFA" stroke-width="2"/>
<path d="M1.5 6.23529C1.5 3.89621 3.51472 2 6 2C8.48528 2 10.5 3.89621 10.5 6.23529V8.11765L10 13.7647C9.69087 16.1396 8.48528 18 6 18C3.51472 18 2.32899 16.0457 2 13.7647L1.5 8.11765V6.23529Z" stroke="#555770" stroke-width="2"/>
<path d="M13.5 10.2353C13.5 7.89621 15.5147 6 18 6C20.4853 6 22.5 7.89621 22.5 10.2353V12.1176L22 17.7647C21.6909 20.1396 20.4853 22 18 22C15.5147 22 14.329 20.0457 14 17.7647L13.5 12.1176V10.2353Z" stroke="#555770" stroke-width="2"/>
</svg>
