<svg width="24" height="24" viewBox="0 0 24 24" fill="none" xmlns="http://www.w3.org/2000/svg">
<path d="M7.99994 2.83209C5.69306 3.84001 3.83995 5.69312 2.83203 8L7.41599 10C7.91995 8.84656 8.8465 7.92001 9.99994 7.41605L7.99994 2.83209Z" stroke="#3E7BFA" stroke-width="2"/>
<path d="M15.9999 21.1679C18.3068 20.16 20.1599 18.3069 21.1679 16L16.5839 14C16.0799 15.1534 15.1534 16.08 13.9999 16.584L15.9999 21.1679Z" stroke="#3E7BFA" stroke-width="2"/>
<path d="M21.1679 8C20.1599 5.69312 18.3068 3.84001 15.9999 2.83209L13.9999 7.41605C15.1534 7.92001 16.0799 8.84656 16.5839 10L21.1679 8Z" stroke="#3E7BFA" stroke-width="2"/>
<path d="M2.83203 16C3.83995 18.3069 5.69306 20.16 7.99995 21.1679L9.99994 16.584C8.8465 16.08 7.91995 15.1534 7.41599 14L2.83203 16Z" stroke="#3E7BFA" stroke-width="2"/>
<path d="M12 2C10.5778 2 9.22492 2.2969 8 2.83209C5.69311 3.84001 3.84001 5.69311 2.83209 8C2.29689 9.22492 2 10.5778 2 12C2 13.4222 2.29689 14.7751 2.83209 16C3.84001 18.3069 5.69312 20.16 8 21.1679C9.22493 21.7031 10.5778 22 12 22C13.4222 22 14.7751 21.7031 16 21.1679C18.3069 20.16 20.16 18.3069 21.1679 16C21.7031 14.7751 22 13.4222 22 12C22 10.5778 21.7031 9.22492 21.1679 8C20.16 5.69311 18.3069 3.84001 16 2.83209C14.7751 2.2969 13.4222 2 12 2Z" stroke="#555770" stroke-width="2"/>
</svg>
