<svg width="24" height="24" viewBox="0 0 24 24" fill="none" xmlns="http://www.w3.org/2000/svg">
<path d="M9.08333 11.0833C10.2569 9.90973 10.2569 8.00694 9.08333 6.83333L6.25 4L2 8.25L4.83333 11.0833C6.00694 12.2569 7.90973 12.2569 9.08333 11.0833ZM9.08333 11.0833L17.5833 19.5833M17.5833 19.5833L16.1667 21M17.5833 19.5833L19 18.1667" stroke="#3E7BFA" stroke-width="2"/>
<path d="M14.9167 11.0833C13.7431 9.90973 13.7431 8.00694 14.9167 6.83333L17.75 4L22 8.25L19.1667 11.0833C17.9931 12.2569 16.0903 12.2569 14.9167 11.0833ZM14.9167 11.0833L6.41667 19.5833M6.41667 19.5833L7.83333 21M6.41667 19.5833L5 18.1667" stroke="#555770" stroke-width="2"/>
</svg>
