<svg width="24" height="24" viewBox="0 0 24 24" fill="none" xmlns="http://www.w3.org/2000/svg">
<path d="M10.5 23V9.4849L12 8L13.4999 9.4849V23M6 23H18" stroke="#3E7BFA" stroke-width="1.5"/>
<path d="M12 8L4.92898 1H7.28597C9.88943 1 12 3.08934 12 5.66667M12 8V5.66667M12 8H9.64296C7.0395 8 4.92898 10.0893 4.92898 12.6667V15L10.5 9.4849L12 8ZM12 8H2L3.66665 6.35008C5.50757 4.52764 8.4923 4.52764 10.3332 6.35008L12 8ZM12 8L19.071 1H16.714C14.1106 1 12 3.08934 12 5.66667M12 8H14.357C16.9605 8 19.071 10.0893 19.071 12.6667V15L13.4999 9.4849L12 8ZM12 8H22L20.3334 6.35008C18.4924 4.52764 15.5077 4.52764 13.6668 6.35008L12 8Z" stroke="#555770" stroke-width="1.5"/>
</svg>
