<svg width="24" height="24" viewBox="0 0 24 24" fill="none" xmlns="http://www.w3.org/2000/svg">
<path d="M12 2C7.57394 2 4.56048 5.09883 3 8H8.99998M12 2C16.426 2 19.4395 5.09883 21 8H15M12 2C11 3 8.99998 5.6 8.99998 8M12 2C13 3.16667 15 5.5 15 8M12 8V18.5M12 8H8.99998M12 8H15" stroke="#3E7BFA" stroke-width="2"/>
<path d="M6.99973 19L2.60329 14.6036C2.38056 14.3808 2.5383 14 2.85329 14C2.94705 14 3.03698 14.0372 3.10329 14.1036L6.99973 18H21.4997C21.7759 18 21.9997 18.2239 21.9997 18.5C21.9997 18.7761 21.7759 19 21.4997 19H17.9997M6.99973 19L2.99973 23M6.99973 19H17.9997M17.9997 19L21.9997 23" stroke="#555770" stroke-width="2"/>
</svg>
