<svg width="24" height="24" viewBox="0 0 24 24" fill="none" xmlns="http://www.w3.org/2000/svg">
<path d="M14.7716 14.885C15.9141 12.4524 15.9849 10.3281 14.8284 9.17155C13.6719 8.01505 11.5475 8.08584 9.11486 9.22834M8.11084 16.5962L7.40373 15.8891M8.46439 16.2426L7.75729 15.5355" stroke="#3E7BFA" stroke-width="2"/>
<path d="M14.8279 14.8284C14.809 14.8473 14.7901 14.8662 14.7712 14.8851C10.4935 19.1405 6.1301 20.9798 4.57489 19.4246C3.01967 17.8694 4.85897 13.506 9.11445 9.22835C9.13328 9.20942 9.15216 9.19049 9.17108 9.17157C13.4668 4.8758 17.862 3.01328 19.4241 4.57538C20.9862 6.13747 19.1237 10.5327 14.8279 14.8284Z" stroke="#555770" stroke-width="2"/>
</svg>
