<svg width="24" height="24" viewBox="0 0 24 24" fill="none" xmlns="http://www.w3.org/2000/svg">
<path d="M5.00005 4.99996L10.5858 10.5857M19 19L13.4143 13.4142M19 4.99996L13.4142 10.5857M4.99995 19L10.5857 13.4142M10.5 2H12M13.5 2H12M18 4L20 6M22 10.5V12M22 13.5V12M2 10.5V12M2 13.5V12M6 4L4 6M4 18L6 20M10.5 22H12M13.5 22H12M18 20L20 18M14 12C14 11.4477 13.7761 10.9477 13.4142 10.5857M14 12C14 12.5523 13.7762 13.0522 13.4143 13.4142M14 12H22M12 14C11.4477 14 10.9477 13.7761 10.5857 13.4142M12 14C12.5523 14 13.0523 13.7761 13.4143 13.4142M12 14V22M10 12C10 11.4477 10.2239 10.9477 10.5858 10.5857M10 12C10 12.5523 10.2238 13.0522 10.5857 13.4142M10 12H2M12 10C12.5523 10 13.0522 10.2238 13.4142 10.5857M12 10C11.4477 10 10.9478 10.2238 10.5858 10.5857M12 10V2" stroke="#555770" stroke-width="2"/>
<path d="M12 18C15.3137 18 18 15.3137 18 12C18 8.68629 15.3137 6 12 6C8.68629 6 6 8.68629 6 12C6 15.3137 8.68629 18 12 18Z" stroke="#3E7BFA" stroke-width="2"/>
</svg>
