<svg width="24" height="24" viewBox="0 0 24 24" fill="none" xmlns="http://www.w3.org/2000/svg">
<path d="M3.49964 18L2.68041 18.5735L2.93975 18.9439L3.38921 18.9939L3.49964 18ZM20.4999 18L20.6103 18.9939L21.0598 18.9439L21.3191 18.5735L20.4999 18ZM7.19088 4.41183C6.60866 5.21238 5.89279 6.51568 5.30529 8.16432L7.18924 8.83568C7.72221 7.34007 8.35445 6.21228 8.80835 5.58817L7.19088 4.41183ZM5.72345 9.35183C6.61487 9.89999 8.79112 11.9214 9.52346 15.2169L11.4758 14.7831C10.6082 10.8786 8.04792 8.43334 6.77109 7.64817L5.72345 9.35183ZM5.66282 7.68857C4.5239 8.5089 3.002 10.0085 2.13408 11.8944C1.24375 13.8291 1.03293 16.2199 2.68041 18.5735L4.31888 17.4265C3.16636 15.7801 3.28808 14.1709 3.95092 12.7306C4.63618 11.2415 5.88809 9.9911 6.83172 9.31143L5.66282 7.68857ZM3.38921 18.9939C5.06536 19.1801 9.01357 18.8008 11.3134 15.5813L9.68592 14.4187C7.98554 16.7992 4.93385 17.1532 3.61008 17.0061L3.38921 18.9939ZM9.79262 15.7072C10.1506 16.0651 10.94 16.5 11.9998 16.5V14.5C11.7402 14.5 11.5352 14.4461 11.3914 14.3872C11.2328 14.3222 11.1776 14.2638 11.2067 14.2928L9.79262 15.7072ZM15.1912 5.58817C15.6451 6.21228 16.2773 7.34007 16.8103 8.83568L18.6942 8.16432C18.1067 6.51568 17.3909 5.21237 16.8086 4.41183L15.1912 5.58817ZM17.2284 7.64817C15.9516 8.43334 13.3913 10.8786 12.5237 14.7831L14.4761 15.2169C15.2084 11.9214 17.3846 9.89999 18.2761 9.35183L17.2284 7.64817ZM17.1678 9.31143C18.1114 9.9911 19.3633 11.2415 20.0486 12.7306C20.7114 14.1709 20.8332 15.7801 19.6806 17.4265L21.3191 18.5735C22.9666 16.2199 22.7558 13.8291 21.8654 11.8944C20.9975 10.0085 19.4756 8.5089 18.3367 7.68857L17.1678 9.31143ZM20.3894 17.0061C19.0657 17.1532 16.014 16.7992 14.3136 14.4187L12.6861 15.5813C14.9859 18.8008 18.9342 19.1801 20.6103 18.9939L20.3894 17.0061ZM12.7928 14.2928C12.8219 14.2638 12.7667 14.3222 12.6081 14.3872C12.4643 14.4461 12.2594 14.5 11.9998 14.5V16.5C13.0595 16.5 13.8489 16.0651 14.2069 15.7072L12.7928 14.2928Z" fill="#28293D"/>
</svg>
