<svg width="24" height="24" viewBox="0 0 24 24" fill="none" xmlns="http://www.w3.org/2000/svg">
<path d="M11.5 5.73707L12.2726 6.372L11.5 5.73707ZM11.5 10.2629L12.2726 9.628V9.628L11.5 10.2629ZM16.3192 11.0298L15.7841 10.185L16.3192 11.0298ZM11.4075 22.7684L12.3362 22.3975L11.4075 22.7684ZM11.5931 22.7686L10.6655 22.3952L11.5931 22.7686ZM6 8C6 6.57862 7.17457 5.4 8.65625 5.4V3.4C6.09935 3.4 4 5.44493 4 8H6ZM10.1997 4.77217C10.5506 3.7487 11.5407 3 12.7188 3V1C10.6767 1 8.93281 2.30064 8.30782 4.12351L10.1997 4.77217ZM8.65625 5.4C8.80602 5.4 8.9522 5.41204 9.09399 5.43499L9.41353 3.46068C9.16646 3.42069 8.91344 3.4 8.65625 3.4V5.4ZM14.3438 5.4C14.8773 5.4 15.3705 5.55296 15.7841 5.81497L16.8543 4.1254C16.1286 3.66571 15.2657 3.4 14.3438 3.4V5.4ZM15.7841 5.81497C16.522 6.28235 17 7.08976 17 8H19C19 6.36685 18.1386 4.93889 16.8543 4.1254L15.7841 5.81497ZM12.7188 3C14.0381 3 15.1183 3.9378 15.3349 5.14658L17.3036 4.79379C16.9152 2.6267 15.0015 1 12.7188 1V3ZM9.09399 5.43499C9.75151 5.54141 10.3271 5.88485 10.7274 6.372L12.2726 5.10214C11.5698 4.24706 10.5622 3.64659 9.41353 3.46068L9.09399 5.43499ZM11.6875 8C11.6875 7.38414 11.9051 6.81914 12.2726 6.372L10.7274 5.10214C10.0786 5.89158 9.6875 6.90122 9.6875 8H11.6875ZM12.2726 6.372C12.759 5.78017 13.5037 5.4 14.3438 5.4V3.4C12.8866 3.4 11.5816 4.06277 10.7274 5.10214L12.2726 6.372ZM14.3438 10.6C13.5037 10.6 12.759 10.2198 12.2726 9.628L10.7274 10.8979C11.5816 11.9372 12.8866 12.6 14.3438 12.6V10.6ZM12.2726 9.628C11.9051 9.18086 11.6875 8.61586 11.6875 8H9.6875C9.6875 9.09878 10.0786 10.1084 10.7274 10.8979L12.2726 9.628ZM10.7274 9.628C10.241 10.2198 9.49626 10.6 8.65625 10.6V12.6C10.1134 12.6 11.4184 11.9372 12.2726 10.8979L10.7274 9.628ZM8.65625 10.6C8.13893 10.6 7.6597 10.4562 7.2541 10.2088L6.21256 11.9162C6.92424 12.3503 7.76263 12.6 8.65625 12.6V10.6ZM7.2541 10.2088C6.49465 9.74552 6 8.92581 6 8H4C4 9.66141 4.89128 11.1102 6.21256 11.9162L7.2541 10.2088ZM5.80463 11.4333L10.4788 23.1392L12.3362 22.3975L7.66203 10.6917L5.80463 11.4333ZM17 8C17 8.91024 16.522 9.71765 15.7841 10.185L16.8543 11.8746C18.1386 11.0611 19 9.63315 19 8H17ZM15.7841 10.185C15.3705 10.447 14.8773 10.6 14.3438 10.6V12.6C15.2657 12.6 16.1286 12.3343 16.8543 11.8746L15.7841 10.185ZM12.5208 23.1421L17.2469 11.4033L15.3916 10.6563L10.6655 22.3952L12.5208 23.1421ZM10.4788 23.1392C10.8467 24.0606 12.1503 24.0624 12.5208 23.1421L10.6655 22.3952C10.9687 21.6422 12.0352 21.6437 12.3362 22.3975L10.4788 23.1392Z" fill="#28293D"/>
</svg>
