<svg width="24" height="24" viewBox="0 0 24 24" fill="none" xmlns="http://www.w3.org/2000/svg">
<path d="M17 14L17.7071 13.2929L16 11.5858V14H17ZM17.5 14.5V15.5H19.9142L18.2071 13.7929L17.5 14.5ZM9 4C9 4.55228 8.55229 5 8 5V7C9.65685 7 11 5.65685 11 4H9ZM8 5C7.44772 5 7 4.55228 7 4H5C5 5.65685 6.34315 7 8 7V5ZM7 4C7 3.44772 7.44772 3 8 3V1C6.34315 1 5 2.34315 5 4H7ZM8 3C8.55229 3 9 3.44772 9 4H11C11 2.34315 9.65685 1 8 1V3ZM7 6V17.5H9V6H7ZM16.2929 14.7071L16.7929 15.2071L18.2071 13.7929L17.7071 13.2929L16.2929 14.7071ZM16 14V14.5H18V14H16ZM17.5 13.5H17V15.5H17.5V13.5ZM16 14.5V17.5H18V14.5H16ZM16 17.5C16 19.433 14.433 21 12.5 21V23C15.5376 23 18 20.5376 18 17.5H16ZM7 17.5C7 20.5376 9.46243 23 12.5 23V21C10.567 21 9 19.433 9 17.5H7Z" fill="#28293D"/>
</svg>
