<svg width="24" height="24" viewBox="0 0 24 24" fill="none" xmlns="http://www.w3.org/2000/svg">
<path d="M12 3L12.7071 2.29289L12 1.58579L11.2929 2.29289L12 3ZM17 2V1H16V2H17ZM22 2H23V1H22V2ZM22 5V6H23V5H22ZM10 12V11H9V12H10ZM14 12H15V11H14V12ZM11.2929 2.29289L4.29289 9.29289L5.70711 10.7071L12.7071 3.70711L11.2929 2.29289ZM4.29289 9.29289L1.29289 12.2929L2.70711 13.7071L5.70711 10.7071L4.29289 9.29289ZM4 10V20H6V10H4ZM4 20V24H6V20H4ZM18.2929 10.7071L21.2929 13.7071L22.7071 12.2929L19.7071 9.29289L18.2929 10.7071ZM18 10V20H20V10H18ZM18 20V24H20V20H18ZM11.2929 3.70711L16.2929 8.70711L17.7071 7.29289L12.7071 2.29289L11.2929 3.70711ZM16.2929 8.70711L18.2929 10.7071L19.7071 9.29289L17.7071 7.29289L16.2929 8.70711ZM17 3H22V1H17V3ZM21 2V5H23V2H21ZM18 8V5H16V8H18ZM18 5V2H16V5H18ZM22 4H17V6H22V4ZM5 21H10V19H5V21ZM11 20V12H9V20H11ZM10 13H14V11H10V13ZM10 21H14V19H10V21ZM14 21H19V19H14V21ZM13 12V20H15V12H13Z" fill="#28293D"/>
</svg>
