<svg width="24" height="24" viewBox="0 0 24 24" fill="none" xmlns="http://www.w3.org/2000/svg">
<path d="M9.08333 6.83333L9.79044 6.12623L9.08333 6.83333ZM4.83333 11.0833L4.12623 11.7904L4.83333 11.0833ZM2 8.25L1.29289 7.54289L0.585786 8.25L1.29289 8.95711L2 8.25ZM6.25 4L6.95711 3.29289L6.25 2.58579L5.54289 3.29289L6.25 4ZM14.9167 6.83333L15.6238 7.54044L14.9167 6.83333ZM19.1667 11.0833L18.4596 10.3762V10.3762L19.1667 11.0833ZM22 8.25L22.7071 8.95711L23.4142 8.25L22.7071 7.54289L22 8.25ZM17.75 4L18.4571 3.29289L17.75 2.58579L17.0429 3.29289L17.75 4ZM8.37623 7.54044C9.15931 8.32352 9.15931 9.59315 8.37623 10.3762L9.79044 11.7904C11.3546 10.2263 11.3546 7.69036 9.79044 6.12623L8.37623 7.54044ZM8.37623 10.3762C7.59315 11.1593 6.32352 11.1593 5.54044 10.3762L4.12623 11.7904C5.69036 13.3546 8.22631 13.3546 9.79044 11.7904L8.37623 10.3762ZM5.54044 10.3762L2.70711 7.54289L1.29289 8.95711L4.12623 11.7904L5.54044 10.3762ZM2.70711 8.95711L6.95711 4.70711L5.54289 3.29289L1.29289 7.54289L2.70711 8.95711ZM5.54289 4.70711L8.37623 7.54044L9.79044 6.12623L6.95711 3.29289L5.54289 4.70711ZM8.37623 11.7904L16.8762 20.2904L18.2904 18.8762L9.79044 10.3762L8.37623 11.7904ZM16.8762 18.8762L15.4596 20.2929L16.8738 21.7071L18.2904 20.2904L16.8762 18.8762ZM18.2904 20.2904L19.7071 18.8738L18.2929 17.4596L16.8762 18.8762L18.2904 20.2904ZM14.2096 6.12623C12.6454 7.69036 12.6454 10.2263 14.2096 11.7904L15.6238 10.3762C14.8407 9.59315 14.8407 8.32352 15.6238 7.54044L14.2096 6.12623ZM14.2096 11.7904C15.7737 13.3546 18.3096 13.3546 19.8738 11.7904L18.4596 10.3762C17.6765 11.1593 16.4069 11.1593 15.6238 10.3762L14.2096 11.7904ZM19.8738 11.7904L22.7071 8.95711L21.2929 7.54289L18.4596 10.3762L19.8738 11.7904ZM22.7071 7.54289L18.4571 3.29289L17.0429 4.70711L21.2929 8.95711L22.7071 7.54289ZM17.0429 3.29289L14.2096 6.12623L15.6238 7.54044L18.4571 4.70711L17.0429 3.29289ZM14.2096 10.3762L5.70956 18.8762L7.12377 20.2904L15.6238 11.7904L14.2096 10.3762ZM5.70956 20.2904L7.12623 21.7071L8.54044 20.2929L7.12377 18.8762L5.70956 20.2904ZM7.12377 18.8762L5.70711 17.4596L4.29289 18.8738L5.70956 20.2904L7.12377 18.8762Z" fill="#28293D"/>
</svg>
