<svg width="24" height="24" viewBox="0 0 24 24" fill="none" xmlns="http://www.w3.org/2000/svg">
<path d="M4.92898 1V0.25H3.10532L4.40133 1.533L4.92898 1ZM4.92898 15H4.17898V16.7978L5.45663 15.533L4.92898 15ZM9.64296 8V8.75V8ZM4.92898 12.6667H4.17898H4.92898ZM2 8L1.47235 7.467L0.176344 8.75H2V8ZM10.3332 6.35008L9.80558 6.88308L9.80559 6.8831L10.3332 6.35008ZM3.66665 6.35008L3.139 5.81709H3.139L3.66665 6.35008ZM19.071 1L19.5987 1.533L20.8947 0.25H19.071V1ZM19.071 15L18.5434 15.533L19.821 16.7978V15H19.071ZM14.357 8V8.75V8ZM19.071 12.6667H19.821H19.071ZM22 8V8.75H23.8237L22.5276 7.467L22 8ZM13.6668 6.35008L14.1944 6.88311L14.1944 6.88308L13.6668 6.35008ZM20.3334 6.35008L20.861 5.81709V5.81709L20.3334 6.35008ZM10.5 9.4849L9.97235 8.9519L10.5 9.4849ZM4.40133 1.533L11.4723 8.533L12.5276 7.467L5.45663 0.467002L4.40133 1.533ZM12.75 8V5.66667H11.25V8H12.75ZM7.28597 0.25H4.92898V1.75H7.28597V0.25ZM12.75 5.66667C12.75 2.66801 10.2965 0.25 7.28597 0.25V1.75C9.48237 1.75 11.25 3.51067 11.25 5.66667H12.75ZM12 7.25H9.64296V8.75H12V7.25ZM4.17898 12.6667V15H5.67898V12.6667H4.17898ZM9.64296 7.25C6.63244 7.25 4.17898 9.66801 4.17898 12.6667H5.67898C5.67898 10.5107 7.44656 8.75 9.64296 8.75V7.25ZM2 8.75H12V7.25H2V8.75ZM12.5276 7.46699L10.8609 5.81707L9.80559 6.8831L11.4723 8.53301L12.5276 7.46699ZM3.139 5.81709L1.47235 7.467L2.52765 8.533L4.19429 6.88308L3.139 5.81709ZM10.8609 5.81709C8.72768 3.7053 5.27219 3.7053 3.139 5.81709L4.19429 6.88308C5.74295 5.34997 8.25692 5.34997 9.80558 6.88308L10.8609 5.81709ZM18.5434 0.466998L11.4723 7.467L12.5276 8.533L19.5987 1.533L18.5434 0.466998ZM16.714 1.75H19.071V0.25H16.714V1.75ZM12.75 5.66667C12.75 3.51068 14.5176 1.75 16.714 1.75V0.25C13.7035 0.25 11.25 2.66799 11.25 5.66667H12.75ZM12 8.75H14.357V7.25H12V8.75ZM18.321 12.6667V15H19.821V12.6667H18.321ZM14.357 8.75C16.5534 8.75 18.321 10.5107 18.321 12.6667H19.821C19.821 9.66801 17.3676 7.25 14.357 7.25V8.75ZM22 7.25H12V8.75H22V7.25ZM12.5276 8.53303L14.1944 6.88311L13.1392 5.81706L11.4723 7.46697L12.5276 8.53303ZM19.8057 6.88308L21.4724 8.533L22.5276 7.467L20.861 5.81709L19.8057 6.88308ZM14.1944 6.88308C15.7431 5.34997 18.257 5.34997 19.8057 6.88308L20.861 5.81709C18.7278 3.7053 15.2723 3.7053 13.1391 5.81709L14.1944 6.88308ZM5.45663 15.533L11.0276 10.0179L9.97235 8.9519L4.40133 14.467L5.45663 15.533ZM11.0276 10.0179L12.5276 8.533L11.4723 7.467L9.97235 8.9519L11.0276 10.0179ZM9.75 9.4849V23H11.25V9.4849H9.75ZM19.5987 14.467L14.0276 8.9519L12.9723 10.0179L18.5434 15.533L19.5987 14.467ZM14.0276 8.9519L12.5276 7.467L11.4723 8.533L12.9723 10.0179L14.0276 8.9519ZM12.7499 9.4849V23H14.2499V9.4849H12.7499ZM6 23.75H18V22.25H6V23.75Z" fill="#28293D"/>
</svg>
