<svg width="24" height="24" viewBox="0 0 24 24" fill="none" xmlns="http://www.w3.org/2000/svg">
<path d="M7.73223 3.17497L7.22003 2.31611H7.22003L7.73223 3.17497ZM16.2678 3.17497L16.78 2.31611L16.2678 3.17497ZM16 4.46043V15.0422H18V4.46043H16ZM8 15.0422V4.46043H6V15.0422H8ZM11.5 15.0362H8V17.0362H11.5V15.0362ZM10.5 16.0362V21.503H12.5V16.0362H10.5ZM16 15.0362H12.5V17.0362H16V15.0362ZM12.5 15.0362H11.5V17.0362H12.5V15.0362ZM13.5 21.503V16.0362H11.5V21.503H13.5ZM12 23C12.8227 23 13.5 22.3355 13.5 21.503H11.5C11.5 21.2195 11.7296 21 12 21V23ZM10.5 21.503C10.5 22.3355 11.1773 23 12 23V21C12.2704 21 12.5 21.2195 12.5 21.503H10.5ZM8.24444 4.03383C10.5558 2.65539 13.4442 2.65539 15.7556 4.03383L16.78 2.31611C13.8375 0.561298 10.1625 0.561298 7.22003 2.31611L8.24444 4.03383ZM6 15.0422C6 16.1492 6.90115 17.0362 8 17.0362V15.0362C7.99827 15.0362 7.99764 15.0361 7.99778 15.0361C7.99786 15.0361 7.99809 15.0362 7.99831 15.0363C7.99862 15.0364 7.99832 15.0363 7.99786 15.0358C7.9974 15.0354 7.99795 15.0357 7.99874 15.0376C7.99916 15.0386 7.99953 15.0397 7.99978 15.0409C8.00003 15.0422 8 15.0427 8 15.0422H6ZM16 15.0422C16 15.0427 16 15.0422 16.0002 15.0409C16.0005 15.0397 16.0008 15.0386 16.0013 15.0376C16.0021 15.0357 16.0026 15.0354 16.0021 15.0358C16.0017 15.0363 16.0014 15.0364 16.0017 15.0363C16.0019 15.0362 16.0021 15.0361 16.0022 15.0361C16.0024 15.0361 16.0017 15.0362 16 15.0362V17.0362C17.0989 17.0362 18 16.1492 18 15.0422H16ZM18 4.46043C18 3.5797 17.5351 2.76644 16.78 2.31611L15.7556 4.03383C15.909 4.12534 16 4.288 16 4.46043H18ZM8 4.46043C8 4.288 8.091 4.12534 8.24444 4.03383L7.22003 2.31611C6.46492 2.76644 6 3.5797 6 4.46043H8Z" fill="#28293D"/>
</svg>
