<svg width="24" height="24" viewBox="0 0 24 24" fill="none" xmlns="http://www.w3.org/2000/svg">
<path d="M5.85749 0.485504C5.57334 0.011924 4.95908 -0.141641 4.4855 0.142507C4.01192 0.426655 3.85836 1.04092 4.14251 1.5145L5.85749 0.485504ZM11.8575 0.485504C11.5733 0.011924 10.9591 -0.141641 10.4855 0.142507C10.0119 0.426655 9.85836 1.04092 10.1425 1.5145L11.8575 0.485504ZM4.14251 22.4855C3.85836 22.9591 4.01192 23.5733 4.4855 23.8575C4.95908 24.1416 5.57334 23.9881 5.85749 23.5145L4.14251 22.4855ZM10.1425 22.4855C9.85836 22.9591 10.0119 23.5733 10.4855 23.8575C10.9591 24.1416 11.5733 23.9881 11.8575 23.5145L10.1425 22.4855ZM21.8787 9.87868L21.1716 10.5858L21.8787 9.87868ZM21.8787 14.1213L21.1716 13.4142L21.8787 14.1213ZM15.5147 17H4V19H15.5147V17ZM2 15V9H0V15H2ZM19.0503 8.46447L21.1716 10.5858L22.5858 9.17157L20.4645 7.05025L19.0503 8.46447ZM21.1716 13.4142L19.0503 15.5355L20.4645 16.9497L22.5858 14.8284L21.1716 13.4142ZM4 7H8V5H4V7ZM8 7H15.5147V5H8V7ZM8.85749 5.4855L5.85749 0.485504L4.14251 1.5145L7.14251 6.5145L8.85749 5.4855ZM14.8575 5.4855L11.8575 0.485504L10.1425 1.5145L13.1425 6.5145L14.8575 5.4855ZM7.14251 17.4855L4.14251 22.4855L5.85749 23.5145L8.85749 18.5145L7.14251 17.4855ZM13.1425 17.4855L10.1425 22.4855L11.8575 23.5145L14.8575 18.5145L13.1425 17.4855ZM21.1716 10.5858C21.9526 11.3668 21.9526 12.6332 21.1716 13.4142L22.5858 14.8284C24.1479 13.2663 24.1479 10.7337 22.5858 9.17157L21.1716 10.5858ZM4 17C2.89543 17 2 16.1046 2 15H0C0 17.2091 1.79086 19 4 19V17ZM15.5147 19C17.3712 19 19.1517 18.2625 20.4645 16.9497L19.0503 15.5355C18.1126 16.4732 16.8408 17 15.5147 17V19ZM20.4645 7.05025C19.1517 5.7375 17.3712 5 15.5147 5V7C16.8408 7 18.1126 7.52678 19.0503 8.46447L20.4645 7.05025ZM2 9C2 7.89543 2.89543 7 4 7V5C1.79086 5 0 6.79086 0 9H2Z" fill="#28293D"/>
<path d="M16.4546 14.0909L15.8198 13.3182L16.4546 14.0909ZM16.4546 9.9091L15.8198 10.6818L16.4546 9.9091ZM6 10H13.9156V8H6V10ZM13.9156 14H6V16H13.9156V14ZM6 14V10H4V14H6ZM15.8198 10.6818L16.4838 11.2273L17.7533 9.68182L17.0893 9.13637L15.8198 10.6818ZM16.4838 12.7727L15.8198 13.3182L17.0893 14.8636L17.7533 14.3182L16.4838 12.7727ZM16.4838 11.2273C16.9709 11.6273 16.9709 12.3727 16.4838 12.7727L17.7533 14.3182C19.2144 13.118 19.2144 10.882 17.7533 9.68182L16.4838 11.2273ZM6 14H6H4C4 15.1046 4.89543 16 6 16V14ZM13.9156 16C15.0731 16 16.1948 15.5984 17.0893 14.8636L15.8198 13.3182C15.2831 13.759 14.6101 14 13.9156 14V16ZM13.9156 10C14.6101 10 15.2831 10.241 15.8198 10.6818L17.0893 9.13637C16.1948 8.40163 15.0731 8 13.9156 8V10ZM6 8C4.89543 8 4 8.89543 4 10H6V10V8Z" fill="#28293D"/>
</svg>
