<svg width="24" height="24" viewBox="0 0 24 24" fill="none" xmlns="http://www.w3.org/2000/svg">
<path d="M10 3L10.3011 2.04642L9.26899 1.72048L9.02561 2.77514L10 3ZM7 16L6.02561 15.7751L5.74295 17H7V16ZM16 16V17H16.7808L16.9701 16.2425L16 16ZM3 19V18H2V19H3ZM21 19L21.7071 19.7071L23.4142 18H21V19ZM9.02561 2.77514L6.02561 15.7751L7.97439 16.2249L10.9744 3.22486L9.02561 2.77514ZM7 17H16V15H7V17ZM16.9701 16.2425C17.4036 14.5085 17.8456 11.6682 17.1307 8.89998C16.3964 6.05633 14.4524 3.35736 10.3011 2.04642L9.69887 3.95358C13.1476 5.04264 14.6202 7.177 15.1943 9.40002C15.7878 11.6984 15.4297 14.1581 15.0299 15.7575L16.9701 16.2425ZM3 20H21V18H3V20ZM20.2929 18.2929C19.7874 18.7984 19.3902 19.1868 18.8028 19.4806C18.2248 19.7696 17.3866 20 16 20V22C17.6134 22 18.7752 21.7304 19.6972 21.2694C20.6098 20.8132 21.2126 20.2016 21.7071 19.7071L20.2929 18.2929ZM16 20C15.9922 20 15.9844 20 15.9766 20C15.9687 20 15.9609 20 15.9531 20C15.9453 20 15.9374 20 15.9296 20C15.9218 20 15.9139 20 15.9061 20C15.8982 20 15.8904 20 15.8825 20C15.8747 20 15.8668 20 15.859 20C15.8511 20 15.8433 20 15.8354 20C15.8275 20 15.8197 20 15.8118 20C15.8039 20 15.796 20 15.7882 20C15.7803 20 15.7724 20 15.7645 20C15.7566 20 15.7487 20 15.7408 20C15.7329 20 15.7251 20 15.7172 20C15.7093 20 15.7014 20 15.6934 20C15.6855 20 15.6776 20 15.6697 20C15.6618 20 15.6539 20 15.646 20C15.638 20 15.6301 20 15.6222 20C15.6143 20 15.6063 20 15.5984 20C15.5905 20 15.5825 20 15.5746 20C15.5667 20 15.5587 20 15.5508 20C15.5428 20 15.5349 20 15.5269 20C15.519 20 15.511 20 15.503 20C15.4951 20 15.4871 20 15.4792 20C15.4712 20 15.4632 20 15.4552 20C15.4473 20 15.4393 20 15.4313 20C15.4233 20 15.4154 20 15.4074 20C15.3994 20 15.3914 20 15.3834 20C15.3754 20 15.3674 20 15.3594 20C15.3514 20 15.3434 20 15.3354 20C15.3274 20 15.3194 20 15.3114 20C15.3034 20 15.2954 20 15.2874 20C15.2794 20 15.2713 20 15.2633 20C15.2553 20 15.2473 20 15.2393 20C15.2312 20 15.2232 20 15.2152 20C15.2071 20 15.1991 20 15.1911 20C15.183 20 15.175 20 15.1669 20C15.1589 20 15.1509 20 15.1428 20C15.1348 20 15.1267 20 15.1187 20C15.1106 20 15.1025 20 15.0945 20C15.0864 20 15.0784 20 15.0703 20C15.0622 20 15.0542 20 15.0461 20C15.038 20 15.03 20 15.0219 20C15.0138 20 15.0057 20 14.9976 20C14.9896 20 14.9815 20 14.9734 20C14.9653 20 14.9572 20 14.9491 20C14.941 20 14.9329 20 14.9249 20C14.9168 20 14.9087 20 14.9006 20C14.8925 20 14.8844 20 14.8763 20C14.8681 20 14.86 20 14.8519 20C14.8438 20 14.8357 20 14.8276 20C14.8195 20 14.8114 20 14.8032 20C14.7951 20 14.787 20 14.7789 20C14.7708 20 14.7626 20 14.7545 20C14.7464 20 14.7382 20 14.7301 20C14.722 20 14.7138 20 14.7057 20C14.6976 20 14.6894 20 14.6813 20C14.6731 20 14.665 20 14.6568 20C14.6487 20 14.6406 20 14.6324 20C14.6242 20 14.6161 20 14.6079 20C14.5998 20 14.5916 20 14.5835 20C14.5753 20 14.5672 20 14.559 20C14.5508 20 14.5427 20 14.5345 20C14.5263 20 14.5182 20 14.51 20C14.5018 20 14.4936 20 14.4855 20C14.4773 20 14.4691 20 14.4609 20C14.4528 20 14.4446 20 14.4364 20C14.4282 20 14.42 20 14.4118 20C14.4037 20 14.3955 20 14.3873 20C14.3791 20 14.3709 20 14.3627 20C14.3545 20 14.3463 20 14.3381 20C14.3299 20 14.3217 20 14.3135 20C14.3053 20 14.2971 20 14.2889 20C14.2807 20 14.2725 20 14.2643 20C14.2561 20 14.2479 20 14.2397 20C14.2315 20 14.2232 20 14.215 20C14.2068 20 14.1986 20 14.1904 20C14.1822 20 14.174 20 14.1657 20C14.1575 20 14.1493 20 14.1411 20C14.1328 20 14.1246 20 14.1164 20C14.1082 20 14.0999 20 14.0917 20C14.0835 20 14.0752 20 14.067 20C14.0588 20 14.0506 20 14.0423 20C14.0341 20 14.0258 20 14.0176 20C14.0094 20 14.0011 20 13.9929 20C13.9846 20 13.9764 20 13.9682 20C13.9599 20 13.9517 20 13.9434 20C13.9352 20 13.9269 20 13.9187 20C13.9104 20 13.9022 20 13.8939 20C13.8857 20 13.8774 20 13.8692 20C13.8609 20 13.8527 20 13.8444 20C13.8362 20 13.8279 20 13.8197 20C13.8114 20 13.8031 20 13.7949 20C13.7866 20 13.7784 20 13.7701 20C13.7618 20 13.7536 20 13.7453 20C13.737 20 13.7288 20 13.7205 20C13.7122 20 13.704 20 13.6957 20C13.6874 20 13.6792 20 13.6709 20C13.6626 20 13.6544 20 13.6461 20C13.6378 20 13.6295 20 13.6213 20C13.613 20 13.6047 20 13.5964 20C13.5882 20 13.5799 20 13.5716 20C13.5633 20 13.5551 20 13.5468 20C13.5385 20 13.5302 20 13.5219 20C13.5137 20 13.5054 20 13.4971 20C13.4888 20 13.4805 20 13.4722 20C13.464 20 13.4557 20 13.4474 20C13.4391 20 13.4308 20 13.4225 20C13.4142 20 13.406 20 13.3977 20C13.3894 20 13.3811 20 13.3728 20C13.3645 20 13.3562 20 13.3479 20C13.3397 20 13.3314 20 13.3231 20C13.3148 20 13.3065 20 13.2982 20C13.2899 20 13.2816 20 13.2733 20C13.265 20 13.2567 20 13.2484 20C13.2401 20 13.2318 20 13.2236 20C13.2153 20 13.207 20 13.1987 20C13.1904 20 13.1821 20 13.1738 20C13.1655 20 13.1572 20 13.1489 20C13.1406 20 13.1323 20 13.124 20C13.1157 20 13.1074 20 13.0991 20C13.0908 20 13.0825 20 13.0742 20C13.0659 20 13.0576 20 13.0493 20C13.041 20 13.0327 20 13.0244 20C13.0161 20 13.0078 20 12.9995 20C12.9912 20 12.9829 20 12.9746 20C12.9663 20 12.958 20 12.9497 20C12.9414 20 12.9331 20 12.9248 20C12.9165 20 12.9082 20 12.8999 20C12.8916 20 12.8833 20 12.875 20C12.8667 20 12.8584 20 12.8501 20C12.8418 20 12.8335 20 12.8252 20C12.8169 20 12.8086 20 12.8003 20C12.792 20 12.7837 20 12.7754 20C12.7671 20 12.7588 20 12.7505 20C12.7422 20 12.7339 20 12.7256 20C12.7173 20 12.709 20 12.7007 20C12.6924 20 12.6841 20 12.6758 20C12.6675 20 12.6592 20 12.6509 20C12.6426 20 12.6343 20 12.626 20C12.6177 20 12.6094 20 12.6011 20C12.5928 20 12.5845 20 12.5762 20C12.5679 20 12.5596 20 12.5513 20C12.543 20 12.5347 20 12.5264 20C12.5182 20 12.5099 20 12.5016 20C12.4933 20 12.485 20 12.4767 20C12.4684 20 12.4601 20 12.4518 20C12.4435 20 12.4352 20 12.4269 20C12.4186 20 12.4103 20 12.4021 20C12.3938 20 12.3855 20 12.3772 20C12.3689 20 12.3606 20 12.3523 20C12.344 20 12.3358 20 12.3275 20C12.3192 20 12.3109 20 12.3026 20C12.2943 20 12.286 20 12.2778 20C12.2695 20 12.2612 20 12.2529 20C12.2446 20 12.2363 20 12.2281 20C12.2198 20 12.2115 20 12.2032 20C12.1949 20 12.1867 20 12.1784 20C12.1701 20 12.1618 20 12.1536 20C12.1453 20 12.137 20 12.1287 20C12.1205 20 12.1122 20 12.1039 20C12.0956 20 12.0874 20 12.0791 20C12.0708 20 12.0626 20 12.0543 20C12.046 20 12.0378 20 12.0295 20C12.0212 20 12.013 20 12.0047 20C11.9964 20 11.9882 20 11.9799 20C11.9716 20 11.9634 20 11.9551 20C11.9469 20 11.9386 20 11.9303 20C11.9221 20 11.9138 20 11.9056 20C11.8973 20 11.8891 20 11.8808 20C11.8726 20 11.8643 20 11.8561 20C11.8478 20 11.8396 20 11.8313 20C11.8231 20 11.8148 20 11.8066 20C11.7983 20 11.7901 20 11.7818 20C11.7736 20 11.7654 20 11.7571 20C11.7489 20 11.7406 20 11.7324 20C11.7242 20 11.7159 20 11.7077 20C11.6994 20 11.6912 20 11.683 20C11.6748 20 11.6665 20 11.6583 20C11.6501 20 11.6418 20 11.6336 20C11.6254 20 11.6172 20 11.6089 20C11.6007 20 11.5925 20 11.5843 20C11.576 20 11.5678 20 11.5596 20C11.5514 20 11.5432 20 11.535 20C11.5268 20 11.5185 20 11.5103 20C11.5021 20 11.4939 20 11.4857 20C11.4775 20 11.4693 20 11.4611 20C11.4529 20 11.4447 20 11.4365 20C11.4283 20 11.4201 20 11.4119 20C11.4037 20 11.3955 20 11.3873 20C11.3791 20 11.3709 20 11.3627 20C11.3545 20 11.3463 20 11.3382 20C11.33 20 11.3218 20 11.3136 20C11.3054 20 11.2972 20 11.2891 20C11.2809 20 11.2727 20 11.2645 20C11.2564 20 11.2482 20 11.24 20C11.2318 20 11.2237 20 11.2155 20C11.2073 20 11.1992 20 11.191 20C11.1828 20 11.1747 20 11.1665 20C11.1584 20 11.1502 20 11.1421 20C11.1339 20 11.1258 20 11.1176 20C11.1094 20 11.1013 20 11.0932 20C11.085 20 11.0769 20 11.0687 20C11.0606 20 11.0524 20 11.0443 20C11.0362 20 11.028 20 11.0199 20C11.0118 20 11.0036 20 10.9955 20C10.9874 20 10.9792 20 10.9711 20C10.963 20 10.9549 20 10.9468 20C10.9386 20 10.9305 20 10.9224 20C10.9143 20 10.9062 20 10.8981 20C10.89 20 10.8819 20 10.8737 20C10.8656 20 10.8575 20 10.8494 20C10.8413 20 10.8332 20 10.8251 20C10.8171 20 10.809 20 10.8009 20C10.7928 20 10.7847 20 10.7766 20C10.7685 20 10.7604 20 10.7524 20C10.7443 20 10.7362 20 10.7281 20C10.72 20 10.712 20 10.7039 20C10.6958 20 10.6878 20 10.6797 20C10.6716 20 10.6636 20 10.6555 20C10.6475 20 10.6394 20 10.6313 20C10.6233 20 10.6152 20 10.6072 20C10.5991 20 10.5911 20 10.5831 20C10.575 20 10.567 20 10.5589 20C10.5509 20 10.5429 20 10.5348 20C10.5268 20 10.5188 20 10.5107 20C10.5027 20 10.4947 20 10.4867 20C10.4787 20 10.4706 20 10.4626 20C10.4546 20 10.4466 20 10.4386 20C10.4306 20 10.4226 20 10.4146 20C10.4066 20 10.3986 20 10.3906 20C10.3826 20 10.3746 20 10.3666 20C10.3586 20 10.3506 20 10.3426 20C10.3346 20 10.3267 20 10.3187 20C10.3107 20 10.3027 20 10.2948 20C10.2868 20 10.2788 20 10.2708 20C10.2629 20 10.2549 20 10.247 20C10.239 20 10.231 20 10.2231 20C10.2151 20 10.2072 20 10.1992 20C10.1913 20 10.1833 20 10.1754 20C10.1675 20 10.1595 20 10.1516 20C10.1437 20 10.1357 20 10.1278 20C10.1199 20 10.112 20 10.104 20C10.0961 20 10.0882 20 10.0803 20C10.0724 20 10.0645 20 10.0566 20C10.0486 20 10.0407 20 10.0328 20C10.0249 20 10.0171 20 10.0092 20C10.0013 20 9.99338 20 9.98549 20C9.9776 20 9.96972 20 9.96184 20C9.95396 20 9.94609 20 9.93822 20C9.93035 20 9.92248 20 9.91461 20C9.90675 20 9.89889 20 9.89103 20C9.88317 20 9.87532 20 9.86747 20C9.85962 20 9.85177 20 9.84393 20C9.83609 20 9.82825 20 9.82041 20C9.81258 20 9.80475 20 9.79692 20C9.78909 20 9.78127 20 9.77345 20C9.76563 20 9.75781 20 9.75 20C9.74219 20 9.73438 20 9.72657 20C9.71877 20 9.71097 20 9.70317 20C9.69537 20 9.68758 20 9.67979 20C9.672 20 9.66422 20 9.65644 20C9.64865 20 9.64088 20 9.6331 20C9.62533 20 9.61756 20 9.60979 20C9.60203 20 9.59427 20 9.58651 20C9.57875 20 9.571 20 9.56325 20C9.5555 20 9.54775 20 9.54001 20C9.53227 20 9.52453 20 9.5168 20C9.50907 20 9.50134 20 9.49361 20C9.48589 20 9.47817 20 9.47045 20C9.46273 20 9.45502 20 9.44731 20C9.4396 20 9.4319 20 9.4242 20C9.4165 20 9.4088 20 9.40111 20C9.39342 20 9.38573 20 9.37805 20C9.37037 20 9.36269 20 9.35502 20C9.34734 20 9.33967 20 9.33201 20C9.32434 20 9.31668 20 9.30902 20C9.30137 20 9.29371 20 9.28607 20C9.27842 20 9.27077 20 9.26314 20C9.2555 20 9.24786 20 9.24023 20C9.2326 20 9.22498 20 9.21735 20C9.20973 20 9.20212 20 9.1945 20C9.18689 20 9.17928 20 9.17168 20C9.16408 20 9.15648 20 9.14888 20C9.14129 20 9.1337 20 9.12612 20C9.11853 20 9.11095 20 9.10338 20C9.0958 20 9.08823 20 9.08066 20C9.0731 20 9.06554 20 9.05798 20C9.05042 20 9.04287 20 9.03532 20C9.02778 20 9.02023 20 9.0127 20C9.00516 20 8.99762 20 8.9901 20C8.98257 20 8.97504 20 8.96753 20C8.96001 20 8.95249 20 8.94498 20C8.93748 20 8.92997 20 8.92247 20C8.91497 20 8.90748 20 8.89999 20C8.8925 20 8.88502 20 8.87754 20C8.87006 20 8.86258 20 8.85511 20C8.84764 20 8.84018 20 8.83272 20C8.82526 20 8.8178 20 8.81035 20C8.8029 20 8.79546 20 8.78802 20C8.78058 20 8.77315 20 8.76572 20C8.75829 20 8.75086 20 8.74344 20C8.73603 20 8.72861 20 8.7212 20C8.71379 20 8.70639 20 8.69899 20C8.69159 20 8.6842 20 8.67681 20C8.66942 20 8.66204 20 8.65466 20C8.64729 20 8.63991 20 8.63255 20C8.62518 20 8.61782 20 8.61046 20C8.6031 20 8.59575 20 8.58841 20C8.58106 20 8.57372 20 8.56639 20C8.55905 20 8.55172 20 8.5444 20C8.53707 20 8.52975 20 8.52244 20C8.51513 20 8.50782 20 8.50051 20C8.49321 20 8.48591 20 8.47862 20C8.47133 20 8.46404 20 8.45676 20C8.44948 20 8.44221 20 8.43494 20C8.42767 20 8.4204 20 8.41315 20C8.40589 20 8.39863 20 8.39139 20C8.38414 20 8.3769 20 8.36966 20C8.36242 20 8.35519 20 8.34797 20C8.34074 20 8.33352 20 8.32631 20C8.3191 20 8.31189 20 8.30469 20C8.29749 20 8.29029 20 8.2831 20C8.27591 20 8.26872 20 8.26154 20C8.25436 20 8.24719 20 8.24002 20C8.23286 20 8.22569 20 8.21854 20C8.21138 20 8.20423 20 8.19709 20C8.18994 20 8.18281 20 8.17567 20C8.16854 20 8.16141 20 8.15429 20C8.14717 20 8.14006 20 8.13295 20C8.12584 20 8.11874 20 8.11164 20C8.10455 20 8.09745 20 8.09037 20C8.08328 20 8.07621 20 8.06913 20C8.06206 20 8.05499 20 8.04793 20C8.04087 20 8.03382 20 8.02677 20C8.01972 20 8.01268 20 8.00564 20C7.99861 20 7.99158 20 7.98455 20C7.97753 20 7.97051 20 7.9635 20C7.95649 20 7.94948 20 7.94249 20C7.93549 20 7.92849 20 7.92151 20C7.91452 20 7.90754 20 7.90057 20C7.89359 20 7.88662 20 7.87966 20C7.8727 20 7.86575 20 7.8588 20C7.85185 20 7.84491 20 7.83797 20C7.83104 20 7.82411 20 7.81718 20C7.81026 20 7.80334 20 7.79643 20C7.78952 20 7.78262 20 7.77572 20C7.76882 20 7.76193 20 7.75505 20C7.74816 20 7.74129 20 7.73441 20C7.72754 20 7.72068 20 7.71382 20C7.70696 20 7.70011 20 7.69326 20C7.68642 20 7.67958 20 7.67275 20C7.66592 20 7.65909 20 7.65227 20C7.64545 20 7.63864 20 7.63184 20C7.62503 20 7.61823 20 7.61144 20C7.60465 20 7.59786 20 7.59108 20C7.58431 20 7.57753 20 7.57077 20C7.564 20 7.55724 20 7.55049 20C7.54374 20 7.537 20 7.53026 20C7.52352 20 7.51679 20 7.51007 20C7.50334 20 7.49662 20 7.48991 20C7.4832 20 7.4765 20 7.4698 20C7.46311 20 7.45642 20 7.44973 20C7.44305 20 7.43637 20 7.42971 20C7.42304 20 7.41638 20 7.40972 20C7.40307 20 7.39642 20 7.38978 20C7.38314 20 7.3765 20 7.36987 20C7.36325 20 7.35663 20 7.35002 20C7.3434 20 7.3368 20 7.3302 20C7.3236 20 7.31701 20 7.31042 20C7.30384 20 7.29726 20 7.29069 20C7.28412 20 7.27756 20 7.27101 20C7.26445 20 7.2579 20 7.25136 20C7.24482 20 7.23829 20 7.23176 20C7.22523 20 7.21871 20 7.2122 20C7.20569 20 7.19919 20 7.19269 20C7.18619 20 7.1797 20 7.17322 20C7.16674 20 7.16026 20 7.15379 20C7.14733 20 7.14087 20 7.13441 20C7.12796 20 7.12151 20 7.11508 20C7.10864 20 7.10221 20 7.09578 20C7.08936 20 7.08294 20 7.07654 20C7.07013 20 7.06373 20 7.05733 20C7.05094 20 7.04456 20 7.03818 20C7.0318 20 7.02543 20 7.01907 20C7.0127 20 7.00635 20 7 20C6.99365 20 6.98731 20 6.98098 20C6.97465 20 6.96832 20 6.96201 20C6.95569 20 6.94938 20 6.94308 20C6.93678 20 6.93048 20 6.9242 20C6.91791 20 6.91163 20 6.90536 20C6.89909 20 6.89283 20 6.88657 20C6.88032 20 6.87407 20 6.86783 20C6.86159 20 6.85536 20 6.84914 20C6.84291 20 6.8367 20 6.83049 20C6.82428 20 6.81808 20 6.81189 20C6.8057 20 6.79951 20 6.79334 20C6.78716 20 6.78099 20 6.77483 20C6.76867 20 6.76252 20 6.75638 20C6.75023 20 6.74409 20 6.73797 20C6.73184 20 6.72572 20 6.71961 20C6.71349 20 6.70739 20 6.70129 20C6.6952 20 6.68911 20 6.68303 20C6.67695 20 6.67088 20 6.66482 20C6.65875 20 6.6527 20 6.64665 20C6.6406 20 6.63456 20 6.62853 20C6.6225 20 6.61648 20 6.61047 20C6.60445 20 6.59845 20 6.59245 20C6.58645 20 6.58046 20 6.57448 20C6.5685 20 6.56253 20 6.55656 20C6.5506 20 6.54464 20 6.5387 20C6.53275 20 6.52681 20 6.52088 20C6.51495 20 6.50903 20 6.50311 20C6.4972 20 6.49129 20 6.4854 20C6.4795 20 6.47361 20 6.46773 20C6.46185 20 6.45598 20 6.45011 20C6.44425 20 6.4384 20 6.43255 20C6.42671 20 6.42087 20 6.41504 20C6.40921 20 6.40339 20 6.39758 20C6.39177 20 6.38596 20 6.38017 20C6.37437 20 6.36859 20 6.36281 20C6.35703 20 6.35127 20 6.34551 20C6.33975 20 6.334 20 6.32825 20C6.32251 20 6.31678 20 6.31105 20C6.30533 20 6.29961 20 6.29391 20C6.2882 20 6.2825 20 6.27681 20C6.27112 20 6.26544 20 6.25977 20C6.2541 20 6.24843 20 6.24278 20C6.23712 20 6.23148 20 6.22584 20C6.22021 20 6.21458 20 6.20896 20C6.20334 20 6.19773 20 6.19213 20C6.18653 20 6.18094 20 6.17536 20C6.16977 20 6.1642 20 6.15863 20C6.15307 20 6.14751 20 6.14197 20C6.13642 20 6.13088 20 6.12536 20C6.11983 20 6.11431 20 6.1088 20C6.10329 20 6.09779 20 6.09229 20C6.0868 20 6.08132 20 6.07585 20C6.07037 20 6.06491 20 6.05945 20C6.054 20 6.04855 20 6.04311 20C6.03768 20 6.03225 20 6.02683 20C6.02141 20 6.016 20 6.0106 20C6.00521 20 5.99981 20 5.99443 20C5.98905 20 5.98368 20 5.97832 20C5.97296 20 5.9676 20 5.96226 20C5.95692 20 5.95158 20 5.94626 20C5.94093 20 5.93562 20 5.93031 20C5.925 20 5.91971 20 5.91442 20C5.90913 20 5.90386 20 5.89859 20C5.89332 20 5.88806 20 5.88281 20C5.87756 20 5.87232 20 5.86709 20C5.86186 20 5.85664 20 5.85143 20C5.84622 20 5.84102 20 5.83583 20C5.83064 20 5.82546 20 5.82028 20C5.81511 20 5.80995 20 5.8048 20C5.79964 20 5.7945 20 5.78937 20C5.78423 20 5.77911 20 5.774 20C5.76888 20 5.76378 20 5.75868 20C5.75359 20 5.7485 20 5.74343 20C5.73835 20 5.73329 20 5.72823 20C5.72318 20 5.71813 20 5.7131 20C5.70806 20 5.70303 20 5.69802 20C5.693 20 5.688 20 5.683 20C5.67801 20 5.67302 20 5.66804 20C5.66307 20 5.6581 20 5.65314 20C5.64819 20 5.64324 20 5.63831 20C5.63337 20 5.62844 20 5.62353 20C5.61861 20 5.6137 20 5.60881 20C5.60391 20 5.59903 20 5.59415 20C5.58927 20 5.58441 20 5.57955 20C5.5747 20 5.56985 20 5.56502 20C5.56018 20 5.55536 20 5.55054 20C5.54573 20 5.54092 20 5.53613 20C5.53133 20 5.52655 20 5.52177 20C5.517 20 5.51224 20 5.50748 20C5.50273 20 5.49799 20 5.49325 20C5.48852 20 5.4838 20 5.47908 20C5.47437 20 5.46967 20 5.46498 20C5.46029 20 5.45561 20 5.45094 20C5.44626 20 5.4416 20 5.43695 20C5.4323 20 5.42766 20 5.42304 20C5.41841 20 5.41379 20 5.40918 20C5.40457 20 5.39997 20 5.39539 20C5.3908 20 5.38622 20 5.38166 20C5.37709 20 5.37254 20 5.36799 20C5.36345 20 5.35891 20 5.35439 20C5.34986 20 5.34535 20 5.34085 20C5.33635 20 5.33185 20 5.32737 20C5.32289 20 5.31842 20 5.31396 20C5.3095 20 5.30505 20 5.30061 20C5.29618 20 5.29175 20 5.28733 20C5.28291 20 5.27851 20 5.27411 20C5.26972 20 5.26533 20 5.26096 20C5.25658 20 5.25222 20 5.24787 20C5.24352 20 5.23918 20 5.23485 20C5.23052 20 5.2262 20 5.22189 20C5.21758 20 5.21328 20 5.20899 20C5.20471 20 5.20043 20 5.19617 20C5.1919 20 5.18765 20 5.18341 20C5.17916 20 5.17493 20 5.17071 20C5.16649 20 5.16228 20 5.15808 20C5.15388 20 5.14969 20 5.14552 20C5.14134 20 5.13718 20 5.13302 20C5.12887 20 5.12472 20 5.12059 20C5.11646 20 5.11234 20 5.10823 20C5.10412 20 5.10002 20 5.09593 20C5.09184 20 5.08777 20 5.0837 20C5.07964 20 5.07558 20 5.07154 20C5.0675 20 5.06347 20 5.05945 20C5.05543 20 5.05142 20 5.04742 20C5.04343 20 5.03944 20 5.03546 20C5.03149 20 5.02753 20 5.02357 20C5.01962 20 5.01568 20 5.01175 20C5.00782 20 5.00391 20 5 20V22C5.00391 22 5.00782 22 5.01175 22C5.01568 22 5.01962 22 5.02357 22C5.02753 22 5.03149 22 5.03546 22C5.03944 22 5.04343 22 5.04742 22C5.05142 22 5.05543 22 5.05945 22C5.06347 22 5.0675 22 5.07154 22C5.07558 22 5.07964 22 5.0837 22C5.08777 22 5.09184 22 5.09593 22C5.10002 22 5.10412 22 5.10823 22C5.11234 22 5.11646 22 5.12059 22C5.12472 22 5.12887 22 5.13302 22C5.13718 22 5.14134 22 5.14552 22C5.14969 22 5.15388 22 5.15808 22C5.16228 22 5.16649 22 5.17071 22C5.17493 22 5.17916 22 5.18341 22C5.18765 22 5.1919 22 5.19617 22C5.20043 22 5.20471 22 5.20899 22C5.21328 22 5.21758 22 5.22189 22C5.2262 22 5.23052 22 5.23485 22C5.23918 22 5.24352 22 5.24787 22C5.25222 22 5.25658 22 5.26096 22C5.26533 22 5.26972 22 5.27411 22C5.27851 22 5.28291 22 5.28733 22C5.29175 22 5.29618 22 5.30061 22C5.30505 22 5.3095 22 5.31396 22C5.31842 22 5.32289 22 5.32737 22C5.33185 22 5.33635 22 5.34085 22C5.34535 22 5.34986 22 5.35439 22C5.35891 22 5.36345 22 5.36799 22C5.37254 22 5.37709 22 5.38166 22C5.38622 22 5.3908 22 5.39539 22C5.39997 22 5.40457 22 5.40918 22C5.41379 22 5.41841 22 5.42304 22C5.42766 22 5.4323 22 5.43695 22C5.4416 22 5.44626 22 5.45094 22C5.45561 22 5.46029 22 5.46498 22C5.46967 22 5.47437 22 5.47908 22C5.4838 22 5.48852 22 5.49325 22C5.49799 22 5.50273 22 5.50748 22C5.51224 22 5.517 22 5.52177 22C5.52655 22 5.53133 22 5.53613 22C5.54092 22 5.54573 22 5.55054 22C5.55536 22 5.56018 22 5.56502 22C5.56985 22 5.5747 22 5.57955 22C5.58441 22 5.58927 22 5.59415 22C5.59903 22 5.60391 22 5.60881 22C5.6137 22 5.61861 22 5.62353 22C5.62844 22 5.63337 22 5.63831 22C5.64324 22 5.64819 22 5.65314 22C5.6581 22 5.66307 22 5.66804 22C5.67302 22 5.67801 22 5.683 22C5.688 22 5.693 22 5.69802 22C5.70303 22 5.70806 22 5.7131 22C5.71813 22 5.72318 22 5.72823 22C5.73329 22 5.73835 22 5.74343 22C5.7485 22 5.75359 22 5.75868 22C5.76378 22 5.76888 22 5.774 22C5.77911 22 5.78423 22 5.78937 22C5.7945 22 5.79964 22 5.8048 22C5.80995 22 5.81511 22 5.82028 22C5.82546 22 5.83064 22 5.83583 22C5.84102 22 5.84622 22 5.85143 22C5.85664 22 5.86186 22 5.86709 22C5.87232 22 5.87756 22 5.88281 22C5.88806 22 5.89332 22 5.89859 22C5.90386 22 5.90913 22 5.91442 22C5.91971 22 5.925 22 5.93031 22C5.93562 22 5.94093 22 5.94626 22C5.95158 22 5.95692 22 5.96226 22C5.9676 22 5.97296 22 5.97832 22C5.98368 22 5.98905 22 5.99443 22C5.99981 22 6.00521 22 6.0106 22C6.016 22 6.02141 22 6.02683 22C6.03225 22 6.03768 22 6.04311 22C6.04855 22 6.054 22 6.05945 22C6.06491 22 6.07037 22 6.07585 22C6.08132 22 6.0868 22 6.09229 22C6.09779 22 6.10329 22 6.1088 22C6.11431 22 6.11983 22 6.12536 22C6.13088 22 6.13642 22 6.14197 22C6.14751 22 6.15307 22 6.15863 22C6.1642 22 6.16977 22 6.17536 22C6.18094 22 6.18653 22 6.19213 22C6.19773 22 6.20334 22 6.20896 22C6.21458 22 6.22021 22 6.22584 22C6.23148 22 6.23712 22 6.24278 22C6.24843 22 6.2541 22 6.25977 22C6.26544 22 6.27112 22 6.27681 22C6.2825 22 6.2882 22 6.29391 22C6.29961 22 6.30533 22 6.31105 22C6.31678 22 6.32251 22 6.32825 22C6.334 22 6.33975 22 6.34551 22C6.35127 22 6.35703 22 6.36281 22C6.36859 22 6.37437 22 6.38017 22C6.38596 22 6.39177 22 6.39758 22C6.40339 22 6.40921 22 6.41504 22C6.42087 22 6.42671 22 6.43255 22C6.4384 22 6.44425 22 6.45011 22C6.45598 22 6.46185 22 6.46773 22C6.47361 22 6.4795 22 6.4854 22C6.49129 22 6.4972 22 6.50311 22C6.50903 22 6.51495 22 6.52088 22C6.52681 22 6.53275 22 6.5387 22C6.54464 22 6.5506 22 6.55656 22C6.56253 22 6.5685 22 6.57448 22C6.58046 22 6.58645 22 6.59245 22C6.59845 22 6.60445 22 6.61047 22C6.61648 22 6.6225 22 6.62853 22C6.63456 22 6.6406 22 6.64665 22C6.6527 22 6.65875 22 6.66482 22C6.67088 22 6.67695 22 6.68303 22C6.68911 22 6.6952 22 6.70129 22C6.70739 22 6.71349 22 6.71961 22C6.72572 22 6.73184 22 6.73797 22C6.74409 22 6.75023 22 6.75638 22C6.76252 22 6.76867 22 6.77483 22C6.78099 22 6.78716 22 6.79334 22C6.79951 22 6.8057 22 6.81189 22C6.81808 22 6.82428 22 6.83049 22C6.8367 22 6.84291 22 6.84914 22C6.85536 22 6.86159 22 6.86783 22C6.87407 22 6.88032 22 6.88657 22C6.89283 22 6.89909 22 6.90536 22C6.91163 22 6.91791 22 6.9242 22C6.93048 22 6.93678 22 6.94308 22C6.94938 22 6.95569 22 6.96201 22C6.96832 22 6.97465 22 6.98098 22C6.98731 22 6.99365 22 7 22C7.00635 22 7.0127 22 7.01907 22C7.02543 22 7.0318 22 7.03818 22C7.04456 22 7.05094 22 7.05733 22C7.06373 22 7.07013 22 7.07654 22C7.08294 22 7.08936 22 7.09578 22C7.10221 22 7.10864 22 7.11508 22C7.12151 22 7.12796 22 7.13441 22C7.14087 22 7.14733 22 7.15379 22C7.16026 22 7.16674 22 7.17322 22C7.1797 22 7.18619 22 7.19269 22C7.19919 22 7.20569 22 7.2122 22C7.21871 22 7.22523 22 7.23176 22C7.23829 22 7.24482 22 7.25136 22C7.2579 22 7.26445 22 7.27101 22C7.27756 22 7.28412 22 7.29069 22C7.29726 22 7.30384 22 7.31042 22C7.31701 22 7.3236 22 7.3302 22C7.3368 22 7.3434 22 7.35002 22C7.35663 22 7.36325 22 7.36987 22C7.3765 22 7.38314 22 7.38978 22C7.39642 22 7.40307 22 7.40972 22C7.41638 22 7.42304 22 7.42971 22C7.43637 22 7.44305 22 7.44973 22C7.45642 22 7.46311 22 7.4698 22C7.4765 22 7.4832 22 7.48991 22C7.49662 22 7.50334 22 7.51007 22C7.51679 22 7.52352 22 7.53026 22C7.537 22 7.54374 22 7.55049 22C7.55724 22 7.564 22 7.57077 22C7.57753 22 7.58431 22 7.59108 22C7.59786 22 7.60465 22 7.61144 22C7.61823 22 7.62503 22 7.63184 22C7.63864 22 7.64545 22 7.65227 22C7.65909 22 7.66592 22 7.67275 22C7.67958 22 7.68642 22 7.69326 22C7.70011 22 7.70696 22 7.71382 22C7.72068 22 7.72754 22 7.73441 22C7.74129 22 7.74816 22 7.75505 22C7.76193 22 7.76882 22 7.77572 22C7.78262 22 7.78952 22 7.79643 22C7.80334 22 7.81026 22 7.81718 22C7.82411 22 7.83104 22 7.83797 22C7.84491 22 7.85185 22 7.8588 22C7.86575 22 7.8727 22 7.87966 22C7.88662 22 7.89359 22 7.90057 22C7.90754 22 7.91452 22 7.92151 22C7.92849 22 7.93549 22 7.94249 22C7.94948 22 7.95649 22 7.9635 22C7.97051 22 7.97753 22 7.98455 22C7.99158 22 7.99861 22 8.00564 22C8.01268 22 8.01972 22 8.02677 22C8.03382 22 8.04087 22 8.04793 22C8.05499 22 8.06206 22 8.06913 22C8.07621 22 8.08328 22 8.09037 22C8.09745 22 8.10455 22 8.11164 22C8.11874 22 8.12584 22 8.13295 22C8.14006 22 8.14717 22 8.15429 22C8.16141 22 8.16854 22 8.17567 22C8.18281 22 8.18994 22 8.19709 22C8.20423 22 8.21138 22 8.21854 22C8.22569 22 8.23286 22 8.24002 22C8.24719 22 8.25436 22 8.26154 22C8.26872 22 8.27591 22 8.2831 22C8.29029 22 8.29749 22 8.30469 22C8.31189 22 8.3191 22 8.32631 22C8.33352 22 8.34074 22 8.34797 22C8.35519 22 8.36242 22 8.36966 22C8.3769 22 8.38414 22 8.39139 22C8.39863 22 8.40589 22 8.41315 22C8.4204 22 8.42767 22 8.43494 22C8.44221 22 8.44948 22 8.45676 22C8.46404 22 8.47133 22 8.47862 22C8.48591 22 8.49321 22 8.50051 22C8.50782 22 8.51513 22 8.52244 22C8.52975 22 8.53707 22 8.5444 22C8.55172 22 8.55905 22 8.56639 22C8.57372 22 8.58106 22 8.58841 22C8.59575 22 8.6031 22 8.61046 22C8.61782 22 8.62518 22 8.63255 22C8.63991 22 8.64729 22 8.65466 22C8.66204 22 8.66942 22 8.67681 22C8.6842 22 8.69159 22 8.69899 22C8.70639 22 8.71379 22 8.7212 22C8.72861 22 8.73603 22 8.74344 22C8.75086 22 8.75829 22 8.76572 22C8.77315 22 8.78058 22 8.78802 22C8.79546 22 8.8029 22 8.81035 22C8.8178 22 8.82526 22 8.83272 22C8.84018 22 8.84764 22 8.85511 22C8.86258 22 8.87006 22 8.87754 22C8.88502 22 8.8925 22 8.89999 22C8.90748 22 8.91497 22 8.92247 22C8.92997 22 8.93748 22 8.94498 22C8.95249 22 8.96001 22 8.96753 22C8.97504 22 8.98257 22 8.9901 22C8.99762 22 9.00516 22 9.0127 22C9.02023 22 9.02778 22 9.03532 22C9.04287 22 9.05042 22 9.05798 22C9.06554 22 9.0731 22 9.08066 22C9.08823 22 9.0958 22 9.10338 22C9.11095 22 9.11853 22 9.12612 22C9.1337 22 9.14129 22 9.14888 22C9.15648 22 9.16408 22 9.17168 22C9.17928 22 9.18689 22 9.1945 22C9.20212 22 9.20973 22 9.21735 22C9.22498 22 9.2326 22 9.24023 22C9.24786 22 9.2555 22 9.26314 22C9.27077 22 9.27842 22 9.28607 22C9.29371 22 9.30137 22 9.30902 22C9.31668 22 9.32434 22 9.33201 22C9.33967 22 9.34734 22 9.35502 22C9.36269 22 9.37037 22 9.37805 22C9.38573 22 9.39342 22 9.40111 22C9.4088 22 9.4165 22 9.4242 22C9.4319 22 9.4396 22 9.44731 22C9.45502 22 9.46273 22 9.47045 22C9.47817 22 9.48589 22 9.49361 22C9.50134 22 9.50907 22 9.5168 22C9.52453 22 9.53227 22 9.54001 22C9.54775 22 9.5555 22 9.56325 22C9.571 22 9.57875 22 9.58651 22C9.59427 22 9.60203 22 9.60979 22C9.61756 22 9.62533 22 9.6331 22C9.64088 22 9.64865 22 9.65644 22C9.66422 22 9.672 22 9.67979 22C9.68758 22 9.69537 22 9.70317 22C9.71097 22 9.71877 22 9.72657 22C9.73438 22 9.74219 22 9.75 22C9.75781 22 9.76563 22 9.77345 22C9.78127 22 9.78909 22 9.79692 22C9.80475 22 9.81258 22 9.82041 22C9.82825 22 9.83609 22 9.84393 22C9.85177 22 9.85962 22 9.86747 22C9.87532 22 9.88317 22 9.89103 22C9.89889 22 9.90675 22 9.91461 22C9.92248 22 9.93035 22 9.93822 22C9.94609 22 9.95396 22 9.96184 22C9.96972 22 9.9776 22 9.98549 22C9.99338 22 10.0013 22 10.0092 22C10.0171 22 10.0249 22 10.0328 22C10.0407 22 10.0486 22 10.0566 22C10.0645 22 10.0724 22 10.0803 22C10.0882 22 10.0961 22 10.104 22C10.112 22 10.1199 22 10.1278 22C10.1357 22 10.1437 22 10.1516 22C10.1595 22 10.1675 22 10.1754 22C10.1833 22 10.1913 22 10.1992 22C10.2072 22 10.2151 22 10.2231 22C10.231 22 10.239 22 10.247 22C10.2549 22 10.2629 22 10.2708 22C10.2788 22 10.2868 22 10.2948 22C10.3027 22 10.3107 22 10.3187 22C10.3267 22 10.3346 22 10.3426 22C10.3506 22 10.3586 22 10.3666 22C10.3746 22 10.3826 22 10.3906 22C10.3986 22 10.4066 22 10.4146 22C10.4226 22 10.4306 22 10.4386 22C10.4466 22 10.4546 22 10.4626 22C10.4706 22 10.4787 22 10.4867 22C10.4947 22 10.5027 22 10.5107 22C10.5188 22 10.5268 22 10.5348 22C10.5429 22 10.5509 22 10.5589 22C10.567 22 10.575 22 10.5831 22C10.5911 22 10.5991 22 10.6072 22C10.6152 22 10.6233 22 10.6313 22C10.6394 22 10.6475 22 10.6555 22C10.6636 22 10.6716 22 10.6797 22C10.6878 22 10.6958 22 10.7039 22C10.712 22 10.72 22 10.7281 22C10.7362 22 10.7443 22 10.7524 22C10.7604 22 10.7685 22 10.7766 22C10.7847 22 10.7928 22 10.8009 22C10.809 22 10.8171 22 10.8251 22C10.8332 22 10.8413 22 10.8494 22C10.8575 22 10.8656 22 10.8737 22C10.8819 22 10.89 22 10.8981 22C10.9062 22 10.9143 22 10.9224 22C10.9305 22 10.9386 22 10.9468 22C10.9549 22 10.963 22 10.9711 22C10.9792 22 10.9874 22 10.9955 22C11.0036 22 11.0118 22 11.0199 22C11.028 22 11.0362 22 11.0443 22C11.0524 22 11.0606 22 11.0687 22C11.0769 22 11.085 22 11.0932 22C11.1013 22 11.1094 22 11.1176 22C11.1258 22 11.1339 22 11.1421 22C11.1502 22 11.1584 22 11.1665 22C11.1747 22 11.1828 22 11.191 22C11.1992 22 11.2073 22 11.2155 22C11.2237 22 11.2318 22 11.24 22C11.2482 22 11.2564 22 11.2645 22C11.2727 22 11.2809 22 11.2891 22C11.2972 22 11.3054 22 11.3136 22C11.3218 22 11.33 22 11.3382 22C11.3463 22 11.3545 22 11.3627 22C11.3709 22 11.3791 22 11.3873 22C11.3955 22 11.4037 22 11.4119 22C11.4201 22 11.4283 22 11.4365 22C11.4447 22 11.4529 22 11.4611 22C11.4693 22 11.4775 22 11.4857 22C11.4939 22 11.5021 22 11.5103 22C11.5185 22 11.5268 22 11.535 22C11.5432 22 11.5514 22 11.5596 22C11.5678 22 11.576 22 11.5843 22C11.5925 22 11.6007 22 11.6089 22C11.6172 22 11.6254 22 11.6336 22C11.6418 22 11.6501 22 11.6583 22C11.6665 22 11.6748 22 11.683 22C11.6912 22 11.6994 22 11.7077 22C11.7159 22 11.7242 22 11.7324 22C11.7406 22 11.7489 22 11.7571 22C11.7654 22 11.7736 22 11.7818 22C11.7901 22 11.7983 22 11.8066 22C11.8148 22 11.8231 22 11.8313 22C11.8396 22 11.8478 22 11.8561 22C11.8643 22 11.8726 22 11.8808 22C11.8891 22 11.8973 22 11.9056 22C11.9138 22 11.9221 22 11.9303 22C11.9386 22 11.9469 22 11.9551 22C11.9634 22 11.9716 22 11.9799 22C11.9882 22 11.9964 22 12.0047 22C12.013 22 12.0212 22 12.0295 22C12.0378 22 12.046 22 12.0543 22C12.0626 22 12.0708 22 12.0791 22C12.0874 22 12.0956 22 12.1039 22C12.1122 22 12.1205 22 12.1287 22C12.137 22 12.1453 22 12.1536 22C12.1618 22 12.1701 22 12.1784 22C12.1867 22 12.1949 22 12.2032 22C12.2115 22 12.2198 22 12.2281 22C12.2363 22 12.2446 22 12.2529 22C12.2612 22 12.2695 22 12.2778 22C12.286 22 12.2943 22 12.3026 22C12.3109 22 12.3192 22 12.3275 22C12.3358 22 12.344 22 12.3523 22C12.3606 22 12.3689 22 12.3772 22C12.3855 22 12.3938 22 12.4021 22C12.4103 22 12.4186 22 12.4269 22C12.4352 22 12.4435 22 12.4518 22C12.4601 22 12.4684 22 12.4767 22C12.485 22 12.4933 22 12.5016 22C12.5099 22 12.5182 22 12.5264 22C12.5347 22 12.543 22 12.5513 22C12.5596 22 12.5679 22 12.5762 22C12.5845 22 12.5928 22 12.6011 22C12.6094 22 12.6177 22 12.626 22C12.6343 22 12.6426 22 12.6509 22C12.6592 22 12.6675 22 12.6758 22C12.6841 22 12.6924 22 12.7007 22C12.709 22 12.7173 22 12.7256 22C12.7339 22 12.7422 22 12.7505 22C12.7588 22 12.7671 22 12.7754 22C12.7837 22 12.792 22 12.8003 22C12.8086 22 12.8169 22 12.8252 22C12.8335 22 12.8418 22 12.8501 22C12.8584 22 12.8667 22 12.875 22C12.8833 22 12.8916 22 12.8999 22C12.9082 22 12.9165 22 12.9248 22C12.9331 22 12.9414 22 12.9497 22C12.958 22 12.9663 22 12.9746 22C12.9829 22 12.9912 22 12.9995 22C13.0078 22 13.0161 22 13.0244 22C13.0327 22 13.041 22 13.0493 22C13.0576 22 13.0659 22 13.0742 22C13.0825 22 13.0908 22 13.0991 22C13.1074 22 13.1157 22 13.124 22C13.1323 22 13.1406 22 13.1489 22C13.1572 22 13.1655 22 13.1738 22C13.1821 22 13.1904 22 13.1987 22C13.207 22 13.2153 22 13.2236 22C13.2318 22 13.2401 22 13.2484 22C13.2567 22 13.265 22 13.2733 22C13.2816 22 13.2899 22 13.2982 22C13.3065 22 13.3148 22 13.3231 22C13.3314 22 13.3397 22 13.3479 22C13.3562 22 13.3645 22 13.3728 22C13.3811 22 13.3894 22 13.3977 22C13.406 22 13.4142 22 13.4225 22C13.4308 22 13.4391 22 13.4474 22C13.4557 22 13.464 22 13.4722 22C13.4805 22 13.4888 22 13.4971 22C13.5054 22 13.5137 22 13.5219 22C13.5302 22 13.5385 22 13.5468 22C13.5551 22 13.5633 22 13.5716 22C13.5799 22 13.5882 22 13.5964 22C13.6047 22 13.613 22 13.6213 22C13.6295 22 13.6378 22 13.6461 22C13.6544 22 13.6626 22 13.6709 22C13.6792 22 13.6874 22 13.6957 22C13.704 22 13.7122 22 13.7205 22C13.7288 22 13.737 22 13.7453 22C13.7536 22 13.7618 22 13.7701 22C13.7784 22 13.7866 22 13.7949 22C13.8031 22 13.8114 22 13.8197 22C13.8279 22 13.8362 22 13.8444 22C13.8527 22 13.8609 22 13.8692 22C13.8774 22 13.8857 22 13.8939 22C13.9022 22 13.9104 22 13.9187 22C13.9269 22 13.9352 22 13.9434 22C13.9517 22 13.9599 22 13.9682 22C13.9764 22 13.9846 22 13.9929 22C14.0011 22 14.0094 22 14.0176 22C14.0258 22 14.0341 22 14.0423 22C14.0506 22 14.0588 22 14.067 22C14.0752 22 14.0835 22 14.0917 22C14.0999 22 14.1082 22 14.1164 22C14.1246 22 14.1328 22 14.1411 22C14.1493 22 14.1575 22 14.1657 22C14.174 22 14.1822 22 14.1904 22C14.1986 22 14.2068 22 14.215 22C14.2232 22 14.2315 22 14.2397 22C14.2479 22 14.2561 22 14.2643 22C14.2725 22 14.2807 22 14.2889 22C14.2971 22 14.3053 22 14.3135 22C14.3217 22 14.3299 22 14.3381 22C14.3463 22 14.3545 22 14.3627 22C14.3709 22 14.3791 22 14.3873 22C14.3955 22 14.4037 22 14.4118 22C14.42 22 14.4282 22 14.4364 22C14.4446 22 14.4528 22 14.4609 22C14.4691 22 14.4773 22 14.4855 22C14.4936 22 14.5018 22 14.51 22C14.5182 22 14.5263 22 14.5345 22C14.5427 22 14.5508 22 14.559 22C14.5672 22 14.5753 22 14.5835 22C14.5916 22 14.5998 22 14.6079 22C14.6161 22 14.6242 22 14.6324 22C14.6406 22 14.6487 22 14.6568 22C14.665 22 14.6731 22 14.6813 22C14.6894 22 14.6976 22 14.7057 22C14.7138 22 14.722 22 14.7301 22C14.7382 22 14.7464 22 14.7545 22C14.7626 22 14.7708 22 14.7789 22C14.787 22 14.7951 22 14.8032 22C14.8114 22 14.8195 22 14.8276 22C14.8357 22 14.8438 22 14.8519 22C14.86 22 14.8681 22 14.8763 22C14.8844 22 14.8925 22 14.9006 22C14.9087 22 14.9168 22 14.9249 22C14.9329 22 14.941 22 14.9491 22C14.9572 22 14.9653 22 14.9734 22C14.9815 22 14.9896 22 14.9976 22C15.0057 22 15.0138 22 15.0219 22C15.03 22 15.038 22 15.0461 22C15.0542 22 15.0622 22 15.0703 22C15.0784 22 15.0864 22 15.0945 22C15.1025 22 15.1106 22 15.1187 22C15.1267 22 15.1348 22 15.1428 22C15.1509 22 15.1589 22 15.1669 22C15.175 22 15.183 22 15.1911 22C15.1991 22 15.2071 22 15.2152 22C15.2232 22 15.2312 22 15.2393 22C15.2473 22 15.2553 22 15.2633 22C15.2713 22 15.2794 22 15.2874 22C15.2954 22 15.3034 22 15.3114 22C15.3194 22 15.3274 22 15.3354 22C15.3434 22 15.3514 22 15.3594 22C15.3674 22 15.3754 22 15.3834 22C15.3914 22 15.3994 22 15.4074 22C15.4154 22 15.4233 22 15.4313 22C15.4393 22 15.4473 22 15.4552 22C15.4632 22 15.4712 22 15.4792 22C15.4871 22 15.4951 22 15.503 22C15.511 22 15.519 22 15.5269 22C15.5349 22 15.5428 22 15.5508 22C15.5587 22 15.5667 22 15.5746 22C15.5825 22 15.5905 22 15.5984 22C15.6063 22 15.6143 22 15.6222 22C15.6301 22 15.638 22 15.646 22C15.6539 22 15.6618 22 15.6697 22C15.6776 22 15.6855 22 15.6934 22C15.7014 22 15.7093 22 15.7172 22C15.7251 22 15.7329 22 15.7408 22C15.7487 22 15.7566 22 15.7645 22C15.7724 22 15.7803 22 15.7882 22C15.796 22 15.8039 22 15.8118 22C15.8197 22 15.8275 22 15.8354 22C15.8433 22 15.8511 22 15.859 22C15.8668 22 15.8747 22 15.8825 22C15.8904 22 15.8982 22 15.9061 22C15.9139 22 15.9218 22 15.9296 22C15.9374 22 15.9453 22 15.9531 22C15.9609 22 15.9687 22 15.9766 22C15.9844 22 15.9922 22 16 22V20ZM5 20C4.82523 20 4.56676 19.9025 4.33211 19.6679C4.09745 19.4332 4 19.1748 4 19H2C2 19.8252 2.40255 20.5668 2.91789 21.0821C3.43324 21.5975 4.17477 22 5 22V20Z" fill="#28293D"/>
</svg>
