<svg width="24" height="24" viewBox="0 0 24 24" fill="none" xmlns="http://www.w3.org/2000/svg">
<path d="M7 12L6.29289 12.7071L6.58579 13H7V12ZM1.89645 9.31066L6.29289 13.7071L7.70711 12.2929L3.31066 7.89645L1.89645 9.31066ZM2.39645 8.81066L6.29289 12.7071L7.70711 11.2929L3.81066 7.39645L2.39645 8.81066ZM7 13H21.5V11H7V13ZM6.29289 12.2929L2.29289 16.2929L3.70711 17.7071L7.70711 13.7071L6.29289 12.2929ZM7 14H18V12H7V14ZM18 14H21.5V12H18V14ZM17.2929 13.7071L21.2929 17.7071L22.7071 16.2929L18.7071 12.2929L17.2929 13.7071ZM2.85355 9C2.68211 9 2.51768 8.93189 2.39645 8.81066L3.81066 7.39645C3.55682 7.14261 3.21254 7 2.85355 7V9ZM21 12.5C21 12.2239 21.2239 12 21.5 12V14C22.3284 14 23 13.3284 23 12.5H21ZM21.5 13C21.2239 13 21 12.7761 21 12.5H23C23 11.6716 22.3284 11 21.5 11V13ZM3.31066 7.89645C3.7179 8.30369 3.42948 9 2.85355 9V7C1.64767 7 1.04376 8.45797 1.89645 9.31066L3.31066 7.89645Z" fill="#28293D"/>
</svg>
