<svg width="24" height="24" viewBox="0 0 24 24" fill="none" xmlns="http://www.w3.org/2000/svg">
<path d="M14.7716 14.8851L15.4769 15.594L14.7716 14.8851ZM9.11494 9.22835L8.40599 8.52309L9.11494 9.22835ZM9.87868 9.87868C11.9667 7.79062 14.0398 6.33554 15.7267 5.59178C16.5728 5.21871 17.2723 5.04657 17.7992 5.02993C18.3206 5.01347 18.5825 5.14749 18.7175 5.28248L20.1317 3.86827C19.4857 3.22222 18.6124 3.00326 17.7361 3.03093C16.8654 3.05842 15.9047 3.3275 14.9198 3.76177C12.9445 4.63269 10.6722 6.25675 8.46446 8.46446L9.87868 9.87868ZM18.7175 5.28248C18.8525 5.41748 18.9865 5.67936 18.9701 6.20078C18.9534 6.72771 18.7813 7.42721 18.4082 8.27333C17.6645 9.96016 16.2094 12.0333 14.1213 14.1213L15.5355 15.5355C17.7432 13.3278 19.3673 11.0554 20.2382 9.08022C20.6725 8.0953 20.9416 7.13463 20.9691 6.26389C20.9967 5.38762 20.7778 4.51432 20.1317 3.86827L18.7175 5.28248ZM14.1213 9.87868C14.4582 10.2156 14.6751 10.7449 14.6623 11.5335C14.6493 12.3302 14.3982 13.3278 13.8665 14.4599L15.6768 15.3102C16.2875 14.0098 16.6431 12.7288 16.662 11.5661C16.6811 10.3952 16.3552 9.28408 15.5355 8.46446L14.1213 9.87868ZM14.1213 14.1213C14.103 14.1396 14.0847 14.1579 14.0664 14.1761L15.4769 15.594C15.4965 15.5746 15.516 15.5551 15.5355 15.5355L14.1213 14.1213ZM14.0664 14.1761C11.9873 16.2444 9.92682 17.6838 8.2513 18.4179C7.4109 18.7861 6.71671 18.955 6.194 18.9703C5.67703 18.9853 5.41694 18.852 5.28248 18.7175L3.86827 20.1317C4.51142 20.7749 5.37996 20.9948 6.25221 20.9694C7.11871 20.9442 8.07433 20.679 9.05389 20.2498C11.0183 19.3892 13.2783 17.7812 15.4769 15.594L14.0664 14.1761ZM9.54005 10.1335C10.6722 9.60175 11.6698 9.35067 12.4665 9.3377C13.2551 9.32487 13.7844 9.5418 14.1213 9.87868L15.5355 8.46446C14.7159 7.64484 13.6048 7.31891 12.4339 7.33797C11.2712 7.35689 9.99023 7.71246 8.68982 8.32321L9.54005 10.1335ZM5.28248 18.7175C5.14802 18.583 5.01467 18.323 5.02973 17.806C5.04494 17.2833 5.2139 16.5891 5.5821 15.7487C6.31617 14.0732 7.75558 12.0127 9.82388 9.93362L8.40599 8.52309C6.21881 10.7217 4.61083 12.9817 3.7502 14.9461C3.32103 15.9257 3.0558 16.8813 3.03057 17.7478C3.00518 18.62 3.22512 19.4886 3.86827 20.1317L5.28248 18.7175ZM9.82388 9.93362C9.8421 9.9153 9.86036 9.89699 9.87868 9.87868L8.46446 8.46446C8.44492 8.484 8.42543 8.50354 8.40599 8.52309L9.82388 9.93362ZM8.81802 15.8891L8.11091 15.182L6.6967 16.5962L7.4038 17.3033L8.81802 15.8891ZM9.17157 15.5355L8.46446 14.8284L7.05025 16.2426L7.75736 16.9497L9.17157 15.5355Z" fill="#28293D"/>
</svg>
