<svg width="24" height="24" viewBox="0 0 24 24" fill="none" xmlns="http://www.w3.org/2000/svg">
<path d="M17.001 3L17.6016 2.20051L16.9077 1.6791L16.2939 2.29289L17.001 3ZM3 17.001L2.29289 16.2939L1.6791 16.9077L2.20051 17.6016L3 17.001ZM3.35468 16.6463L2.64758 15.9392H2.64758L3.35468 16.6463ZM16.6464 3.35459L15.9393 2.64749V2.64749L16.6464 3.35459ZM20 11C20 15.9706 15.9706 20 11 20V22C17.0751 22 22 17.0751 22 11H20ZM19.5038 11C19.5038 15.6965 15.6966 19.5037 11.0001 19.5037V21.5037C16.8011 21.5037 21.5038 16.8011 21.5038 11H19.5038ZM16.4003 3.79949C18.5881 5.4432 20 8.05657 20 11H22C22 7.40104 20.2706 4.20572 17.6016 2.20051L16.4003 3.79949ZM11 20C8.05657 20 5.4432 18.5881 3.79949 16.4003L2.20051 17.6016C4.20572 20.2706 7.40104 22 11 22V20ZM2.64758 15.9392L2.29289 16.2939L3.70711 17.7081L4.06179 17.3534L2.64758 15.9392ZM11.0001 19.5037C8.19624 19.5037 5.7093 18.1478 4.15862 16.0516L2.55075 17.241C4.46232 19.8251 7.53527 21.5037 11.0001 21.5037V19.5037ZM16.2939 2.29289L15.9393 2.64749L17.3535 4.0617L17.7081 3.70711L16.2939 2.29289ZM15.9393 2.64749L2.64758 15.9392L4.06179 17.3534L17.3535 4.0617L15.9393 2.64749ZM16.0517 4.15853C18.1479 5.70921 19.5038 8.19615 19.5038 11H21.5038C21.5038 7.53517 19.8252 4.46223 17.2411 2.55065L16.0517 4.15853Z" fill="#28293D"/>
<mask id="path-2-inside-1_402_14801" fill="white">
<path d="M14.8282 13.4142C15.2187 13.8048 15.2187 14.4379 14.8282 14.8284C14.4377 15.219 13.8045 15.219 13.414 14.8284C13.0235 14.4379 12.7069 12.7071 12.7069 12.7071C12.7069 12.7071 14.4377 13.0237 14.8282 13.4142Z"/>
<path d="M16.4493 9.51765C16.9827 9.6606 17.2993 10.2089 17.1564 10.7424C17.0134 11.2759 16.4651 11.5924 15.9316 11.4495C15.3982 11.3066 14.2586 9.96594 14.2586 9.96594C14.2586 9.96594 15.9158 9.37471 16.4493 9.51765Z"/>
<path d="M11.4493 15.9319C11.5922 16.4653 11.2756 17.0137 10.7422 17.1566C10.2087 17.2996 9.66035 16.983 9.51741 16.4495C9.37447 15.916 9.9657 14.2588 9.9657 14.2588C9.9657 14.2588 11.3063 15.3984 11.4493 15.9319Z"/>
</mask>
<path d="M12.7069 12.7071L12.8868 11.7234L11.4627 11.463L11.7232 12.887L12.7069 12.7071ZM14.2586 9.96594L13.9226 9.02409L12.559 9.51055L13.4967 10.6136L14.2586 9.96594ZM9.9657 14.2588L10.6134 13.4969L9.5103 12.5593L9.02384 13.9228L9.9657 14.2588ZM14.1211 14.1213V14.1213L15.5353 15.5355C16.3164 14.7545 16.3164 13.4882 15.5353 12.7071L14.1211 14.1213ZM14.1211 14.1213H14.1211L12.7069 15.5355C13.4879 16.3166 14.7543 16.3166 15.5353 15.5355L14.1211 14.1213ZM14.1211 14.1213C14.1841 14.1843 14.1524 14.1793 14.0706 13.9693C14.005 13.801 13.9398 13.5879 13.8804 13.3645C13.822 13.1447 13.7741 12.9334 13.7406 12.7758C13.724 12.6975 13.7111 12.6336 13.7026 12.59C13.6983 12.5683 13.6952 12.5517 13.6931 12.5409C13.6921 12.5356 13.6914 12.5317 13.691 12.5294C13.6907 12.5282 13.6906 12.5274 13.6905 12.5271C13.6905 12.5269 13.6905 12.5268 13.6905 12.5268C13.6905 12.5268 13.6905 12.5269 13.6905 12.5269C13.6905 12.527 13.6905 12.527 13.6905 12.527C13.6905 12.5271 13.6906 12.5272 12.7069 12.7071C11.7232 12.887 11.7232 12.8871 11.7232 12.8872C11.7232 12.8873 11.7233 12.8874 11.7233 12.8875C11.7233 12.8876 11.7233 12.8878 11.7234 12.8881C11.7235 12.8885 11.7236 12.889 11.7237 12.8897C11.7239 12.891 11.7242 12.8927 11.7246 12.8948C11.7254 12.8991 11.7265 12.905 11.7279 12.9124C11.7307 12.9272 11.7347 12.9481 11.7399 12.9745C11.7502 13.0271 11.7652 13.1015 11.7843 13.1915C11.8224 13.3706 11.878 13.6164 11.9475 13.8782C12.0161 14.1363 12.1033 14.4291 12.2069 14.6952C12.2943 14.9195 12.4486 15.2773 12.7069 15.5355L14.1211 14.1213ZM12.7069 12.7071C12.527 13.6908 12.5269 13.6908 12.5268 13.6908C12.5268 13.6908 12.5267 13.6908 12.5267 13.6908C12.5266 13.6907 12.5266 13.6907 12.5266 13.6907C12.5266 13.6907 12.5266 13.6907 12.5268 13.6908C12.5272 13.6908 12.528 13.691 12.5291 13.6912C12.5314 13.6916 12.5353 13.6924 12.5407 13.6934C12.5514 13.6954 12.568 13.6986 12.5898 13.7028C12.6334 13.7114 12.6972 13.7242 12.7755 13.7408C12.9332 13.7743 13.1445 13.8223 13.3643 13.8807C13.5877 13.9401 13.8008 14.0053 13.969 14.0708C14.179 14.1526 14.1841 14.1843 14.1211 14.1213L15.5353 12.7071C15.2771 12.4489 14.9193 12.2946 14.695 12.2072C14.4288 12.1035 14.136 12.0164 13.8779 11.9478C13.6162 11.8782 13.3704 11.8226 13.1913 11.7845C13.1013 11.7654 13.0268 11.7504 12.9742 11.7401C12.9479 11.735 12.9269 11.731 12.9121 11.7282C12.9047 11.7268 12.8989 11.7257 12.8946 11.7249C12.8925 11.7245 12.8908 11.7242 12.8895 11.7239C12.8888 11.7238 12.8883 11.7237 12.8878 11.7236C12.8876 11.7236 12.8874 11.7235 12.8872 11.7235C12.8871 11.7235 12.887 11.7235 12.887 11.7235C12.8869 11.7235 12.8868 11.7234 12.7069 12.7071ZM16.1904 10.4836V10.4836L18.1223 11.0012C18.4082 9.93429 17.775 8.83761 16.7081 8.55173L16.1904 10.4836ZM16.1904 10.4836V10.4836L15.6728 12.4154C16.7397 12.7013 17.8364 12.0681 18.1223 11.0012L16.1904 10.4836ZM16.1904 10.4836C16.2765 10.5066 16.2465 10.5181 16.0706 10.3772C15.9298 10.2642 15.7667 10.1123 15.6036 9.94847C15.4432 9.78735 15.296 9.62831 15.1881 9.50854C15.1346 9.44904 15.0915 9.40014 15.0624 9.36668C15.0478 9.34997 15.0367 9.33717 15.0296 9.32889C15.0261 9.32475 15.0235 9.32175 15.0219 9.31995C15.0212 9.31905 15.0207 9.31846 15.0204 9.31818C15.0203 9.31804 15.0203 9.31797 15.0203 9.31799C15.0203 9.318 15.0203 9.31803 15.0203 9.31808C15.0204 9.3181 15.0204 9.31815 15.0204 9.31816C15.0205 9.31822 15.0205 9.31828 14.2586 9.96594C13.4967 10.6136 13.4967 10.6137 13.4968 10.6138C13.4968 10.6138 13.4969 10.6139 13.4969 10.6139C13.4971 10.6141 13.4972 10.6142 13.4973 10.6144C13.4976 10.6147 13.498 10.6151 13.4984 10.6157C13.4993 10.6167 13.5004 10.618 13.5018 10.6196C13.5046 10.6229 13.5085 10.6275 13.5134 10.6332C13.5233 10.6446 13.5372 10.6607 13.5548 10.681C13.5901 10.7214 13.6402 10.7783 13.7018 10.8468C13.8243 10.9828 13.9954 11.1679 14.1865 11.3598C14.3749 11.549 14.5968 11.759 14.8197 11.9376C15.0075 12.0882 15.3201 12.3209 15.6728 12.4154L16.1904 10.4836ZM14.2586 9.96594C14.5946 10.9078 14.5945 10.9078 14.5945 10.9078C14.5944 10.9079 14.5944 10.9079 14.5944 10.9079C14.5943 10.9079 14.5943 10.9079 14.5943 10.9079C14.5942 10.9079 14.5943 10.9079 14.5945 10.9078C14.5948 10.9077 14.5956 10.9075 14.5967 10.9071C14.5989 10.9063 14.6026 10.905 14.6078 10.9032C14.6181 10.8995 14.6341 10.894 14.6551 10.8868C14.697 10.8724 14.7588 10.8516 14.8349 10.8268C14.9882 10.777 15.1952 10.7129 15.4147 10.6536C15.6379 10.5933 15.855 10.5432 16.0335 10.5158C16.2563 10.4817 16.2765 10.5066 16.1904 10.4836L16.7081 8.55173C16.3553 8.45721 15.9683 8.50246 15.7303 8.53895C15.448 8.58224 15.1509 8.65315 14.8931 8.7228C14.6316 8.79344 14.3909 8.86817 14.2168 8.92475C14.1293 8.9532 14.0574 8.97745 14.0066 8.99483C13.9812 9.00353 13.9611 9.01054 13.9469 9.01552C13.9398 9.01801 13.9341 9.01999 13.93 9.02144C13.928 9.02216 13.9264 9.02274 13.9251 9.02318C13.9245 9.02341 13.924 9.02359 13.9235 9.02374C13.9233 9.02382 13.9231 9.02388 13.923 9.02394C13.9229 9.02397 13.9228 9.02401 13.9228 9.02402C13.9227 9.02405 13.9226 9.02409 14.2586 9.96594ZM10.4833 16.1907H10.4833L11.001 18.1225C12.0679 17.8367 12.7011 16.74 12.4152 15.673L10.4833 16.1907ZM10.4833 16.1907V16.1907L8.55148 16.7083C8.83737 17.7753 9.93404 18.4084 11.001 18.1225L10.4833 16.1907ZM10.4833 16.1907C10.5064 16.2767 10.4814 16.2565 10.5156 16.0337C10.543 15.8553 10.5931 15.6381 10.6533 15.4149C10.7126 15.1954 10.7768 14.9884 10.8266 14.8352C10.8513 14.759 10.8722 14.6973 10.8866 14.6553C10.8937 14.6343 10.8993 14.6183 10.9029 14.608C10.9047 14.6029 10.906 14.5991 10.9068 14.5969C10.9072 14.5958 10.9075 14.5951 10.9076 14.5947C10.9077 14.5946 10.9077 14.5945 10.9077 14.5945C10.9077 14.5945 10.9077 14.5945 10.9076 14.5946C10.9076 14.5946 10.9076 14.5947 10.9076 14.5947C10.9076 14.5948 10.9076 14.5949 9.9657 14.2588C9.02384 13.9228 9.02381 13.9229 9.02378 13.923C9.02376 13.923 9.02373 13.9231 9.0237 13.9232C9.02364 13.9234 9.02357 13.9236 9.0235 13.9238C9.02335 13.9242 9.02316 13.9247 9.02294 13.9253C9.0225 13.9266 9.02191 13.9282 9.02119 13.9303C9.01975 13.9344 9.01776 13.94 9.01527 13.9471C9.01029 13.9613 9.00329 13.9815 8.99459 14.0069C8.9772 14.0576 8.95296 14.1295 8.9245 14.2171C8.86792 14.3912 8.7932 14.6318 8.72256 14.8933C8.65291 15.1511 8.58199 15.4483 8.5387 15.7306C8.50221 15.9686 8.45696 16.3556 8.55148 16.7083L10.4833 16.1907ZM9.9657 14.2588C9.31804 15.0208 9.31798 15.0207 9.31792 15.0207C9.31791 15.0207 9.31786 15.0206 9.31783 15.0206C9.31778 15.0205 9.31775 15.0205 9.31775 15.0205C9.31773 15.0205 9.31779 15.0206 9.31793 15.0207C9.31821 15.0209 9.31881 15.0214 9.31971 15.0222C9.3215 15.0237 9.32451 15.0263 9.32865 15.0299C9.33693 15.037 9.34973 15.048 9.36644 15.0626C9.3999 15.0918 9.44879 15.1348 9.5083 15.1884C9.62806 15.2962 9.78711 15.4434 9.94822 15.6039C10.112 15.767 10.264 15.93 10.3769 16.0709C10.5179 16.2467 10.5064 16.2767 10.4833 16.1907L12.4152 15.673C12.3207 15.3203 12.088 15.0078 11.9374 14.8199C11.7587 14.5971 11.5488 14.3752 11.3595 14.1867C11.1676 13.9956 10.9826 13.8246 10.8465 13.7021C10.7781 13.6405 10.7211 13.5903 10.6807 13.5551C10.6605 13.5374 10.6444 13.5235 10.6329 13.5137C10.6272 13.5087 10.6227 13.5049 10.6194 13.502C10.6177 13.5006 10.6164 13.4995 10.6154 13.4986C10.6149 13.4982 10.6145 13.4979 10.6141 13.4976C10.614 13.4974 10.6138 13.4973 10.6137 13.4972C10.6136 13.4971 10.6135 13.4971 10.6135 13.497C10.6134 13.497 10.6134 13.4969 9.9657 14.2588Z" fill="#28293D" mask="url(#path-2-inside-1_402_14801)"/>
</svg>
