<svg width="24" height="24" viewBox="0 0 24 24" fill="none" xmlns="http://www.w3.org/2000/svg">
<path d="M17 12C17 14.7614 14.7614 17 12 17V19C15.866 19 19 15.866 19 12H17ZM12 17C9.23858 17 7 14.7614 7 12H5C5 15.866 8.13401 19 12 19V17ZM7 12C7 9.23858 9.23858 7 12 7V5C8.13401 5 5 8.13401 5 12H7ZM12 7C14.7614 7 17 9.23858 17 12H19C19 8.13401 15.866 5 12 5V7ZM17.2929 4.70711L19.2929 6.70711L20.7071 5.2929L18.7071 3.2929L17.2929 4.70711ZM5.29289 3.2929L3.29289 5.2929L4.70711 6.70711L6.70711 4.70711L5.29289 3.2929ZM3.29289 18.7071L5.29289 20.7071L6.70711 19.2929L4.70711 17.2929L3.29289 18.7071ZM18.7071 20.7071L20.7071 18.7071L19.2929 17.2929L17.2929 19.2929L18.7071 20.7071ZM12 11C12.2764 11 12.525 11.1108 12.7071 11.2929L14.1213 9.87861C13.5795 9.33685 12.8281 9 12 9V11ZM12.7071 11.2929C12.8892 11.4749 13 11.7236 13 12H15C15 11.1718 14.6631 10.4204 14.1213 9.87861L12.7071 11.2929ZM18.2928 4.29285L12.7071 9.87864L14.1213 11.2928L19.7071 5.70706L18.2928 4.29285ZM11 12C11 11.7236 11.1108 11.4749 11.2929 11.2929L9.87875 9.87861C9.33691 10.4204 9 11.1718 9 12H11ZM11.2929 11.2929C11.475 11.1108 11.7236 11 12 11V9C11.1719 9 10.4205 9.33685 9.87875 9.87861L11.2929 11.2929ZM4.29294 5.70706L9.87873 11.2928L11.2929 9.87864L5.70715 4.29285L4.29294 5.70706ZM9.87864 12.7071L4.29285 18.2928L5.70706 19.7071L11.2928 14.1213L9.87864 12.7071ZM12 13C11.7236 13 11.4749 12.8892 11.2929 12.7071L9.87861 14.1213C10.4204 14.6631 11.1718 15 12 15V13ZM11.2929 12.7071C11.1108 12.525 11 12.2764 11 12H9C9 12.8281 9.33685 13.5795 9.87861 14.1213L11.2929 12.7071ZM12.7072 14.1213L18.2929 19.7071L19.7072 18.2928L14.1214 12.7071L12.7072 14.1213ZM13 12C13 12.2764 12.8892 12.525 12.7071 12.7071L14.1214 14.1213C14.6631 13.5795 15 12.8281 15 12H13ZM12.7071 12.7071C12.5251 12.8892 12.2764 13 12 13V15C12.8282 15 13.5796 14.6631 14.1214 14.1213L12.7071 12.7071ZM10.5 3H12V1H10.5V3ZM12 3H13.5V1H12V3ZM13 10V2H11V10H13ZM1 10.5V12H3V10.5H1ZM1 12V13.5H3V12H1ZM10 11H2V13H10V11ZM10.5 23H12V21H10.5V23ZM12 23H13.5V21H12V23ZM11 14V22H13V14H11ZM21 10.5V12H23V10.5H21ZM21 12V13.5H23V12H21ZM14 13H22V11H14V13Z" fill="#28293D"/>
</svg>
