<svg width="24" height="24" viewBox="0 0 24 24" fill="none" xmlns="http://www.w3.org/2000/svg">
<path d="M11.4 13.6V18H12.6V13.6H17V12.4H12.6V8H11.4V12.4H7V13.6H11.4ZM20.4 13C20.4 17.6392 16.6392 21.4 12 21.4C7.36081 21.4 3.6 17.6392 3.6 13C3.6 8.36081 7.36081 4.6 12 4.6C16.6392 4.6 20.4 8.36081 20.4 13Z" stroke="#555770" stroke-width="1.2"/>
<mask id="mask0_402_13843" style="mask-type:alpha" maskUnits="userSpaceOnUse" x="0" y="1" width="24" height="12">
<path d="M12 2C5.92487 2 1 6.92487 1 13H0V1H24V13H23C23 6.92487 18.0751 2 12 2Z" fill="white"/>
</mask>
<g mask="url(#mask0_402_13843)">
<path d="M8.4 6C8.4 7.87777 6.87777 9.4 5 9.4C3.12223 9.4 1.6 7.87777 1.6 6C1.6 4.12223 3.12223 2.6 5 2.6C6.87777 2.6 8.4 4.12223 8.4 6ZM22.4 6C22.4 7.87777 20.8778 9.4 19 9.4C17.1222 9.4 15.6 7.87777 15.6 6C15.6 4.12223 17.1222 2.6 19 2.6C20.8778 2.6 22.4 4.12223 22.4 6Z" stroke="#555770" stroke-width="1.2"/>
</g>
</svg>
