<svg width="24" height="24" viewBox="0 0 24 24" fill="none" xmlns="http://www.w3.org/2000/svg">
<path d="M18 18V18.6H18.6V18H18ZM18 14H18.6V13.4H18V14ZM13 14V13.4H12.4V14H13ZM13 18H12.4V18.6H13V18ZM20.4 5V8.95H21.6V5H20.4ZM3.6 8.95V5H2.4V8.95H3.6ZM21 8.35H3V9.55H21V8.35ZM3.6 20V8.95H2.4V20H3.6ZM4 21.6H20V20.4H4V21.6ZM21.6 20V8.95H20.4V20H21.6ZM4 4.6H7V3.4H4V4.6ZM7.6 4V1H6.4V4H7.6ZM7 4.6H17V3.4H7V4.6ZM17 4.6H20V3.4H17V4.6ZM17.6 4V1H16.4V4H17.6ZM18 13.4H13V14.6H18V13.4ZM13 18.6H18V17.4H13V18.6ZM12.4 14V18H13.6V14H12.4ZM17.4 14V18H18.6V14H17.4ZM2.4 20C2.4 20.8837 3.11634 21.6 4 21.6V20.4C3.77909 20.4 3.6 20.2209 3.6 20H2.4ZM20 21.6C20.8837 21.6 21.6 20.8837 21.6 20H20.4C20.4 20.2209 20.2209 20.4 20 20.4V21.6ZM21.6 5C21.6 4.11634 20.8837 3.4 20 3.4V4.6C20.2209 4.6 20.4 4.77909 20.4 5H21.6ZM3.6 5C3.6 4.77909 3.77909 4.6 4 4.6V3.4C3.11634 3.4 2.4 4.11634 2.4 5H3.6Z" fill="#555770"/>
</svg>
