<svg width="24" height="24" viewBox="0 0 24 24" fill="none" xmlns="http://www.w3.org/2000/svg">
<path d="M11.4 13V13.2485L11.5757 13.4243L14.8485 16.697L15.697 15.8485L12.6 12.7515V8H11.4V13ZM20.4 13C20.4 17.6392 16.6392 21.4 12 21.4C7.36081 21.4 3.6 17.6392 3.6 13C3.6 8.36081 7.36081 4.6 12 4.6C16.6392 4.6 20.4 8.36081 20.4 13Z" stroke="#28293D" stroke-width="1.2"/>
<mask id="mask0_402_13847" style="mask-type:alpha" maskUnits="userSpaceOnUse" x="0" y="1" width="24" height="12">
<path d="M12 2C5.92487 2 1 6.92487 1 13H0V1H24V13H23C23 6.92487 18.0751 2 12 2Z" fill="white"/>
</mask>
<g mask="url(#mask0_402_13847)">
<mask id="path-3-inside-1_402_13847" fill="white">
<path d="M9 6C9 8.20914 7.20914 10 5 10C3.51944 10 2.22675 9.1956 1.53513 8C1.19479 7.41165 1 6.72857 1 6C1 3.79086 2.79086 2 5 2C5.72857 2 6.41165 2.19479 7 2.53513C8.1956 3.22675 9 4.51944 9 6Z"/>
<path d="M23 6C23 8.20914 21.2091 10 19 10C16.7909 10 15 8.20914 15 6C15 3.79086 16.7909 2 19 2C21.2091 2 23 3.79086 23 6Z"/>
</mask>
<path d="M1.53513 8L0.496402 8.60087L1.53513 8ZM7 2.53513L7.60087 1.4964L7 2.53513ZM7.8 6C7.8 7.5464 6.5464 8.8 5 8.8V11.2C7.87188 11.2 10.2 8.87188 10.2 6H7.8ZM2.2 6C2.2 4.4536 3.4536 3.2 5 3.2V0.8C2.12812 0.8 -0.2 3.12812 -0.2 6H2.2ZM21.8 6C21.8 7.5464 20.5464 8.8 19 8.8V11.2C21.8719 11.2 24.2 8.87188 24.2 6H21.8ZM19 8.8C17.4536 8.8 16.2 7.5464 16.2 6H13.8C13.8 8.87188 16.1281 11.2 19 11.2V8.8ZM16.2 6C16.2 4.4536 17.4536 3.2 19 3.2V0.8C16.1281 0.8 13.8 3.12812 13.8 6H16.2ZM19 3.2C20.5464 3.2 21.8 4.4536 21.8 6H24.2C24.2 3.12812 21.8719 0.8 19 0.8V3.2ZM5 8.8C3.96512 8.8 3.0598 8.23918 2.57386 7.39913L0.496402 8.60087C1.39369 10.152 3.07376 11.2 5 11.2V8.8ZM2.57386 7.39913C2.33632 6.98851 2.2 6.512 2.2 6H-0.2C-0.2 6.94515 0.0532522 7.8348 0.496402 8.60087L2.57386 7.39913ZM5 3.2C5.512 3.2 5.98851 3.33632 6.39913 3.57386L7.60087 1.4964C6.8348 1.05325 5.94515 0.8 5 0.8V3.2ZM6.39913 3.57386C7.23918 4.0598 7.8 4.96512 7.8 6H10.2C10.2 4.07376 9.15202 2.39369 7.60087 1.4964L6.39913 3.57386Z" fill="#28293D" mask="url(#path-3-inside-1_402_13847)"/>
</g>
</svg>
