<svg width="24" height="24" viewBox="0 0 24 24" fill="none" xmlns="http://www.w3.org/2000/svg">
<mask id="path-1-inside-1_402_13839" fill="white">
<path d="M12 22C16.9706 22 21 17.9706 21 13C21 8.02944 16.9706 4 12 4C7.02944 4 3 8.02944 3 13C3 17.9706 7.02944 22 12 22Z"/>
</mask>
<path d="M11 16L10.5757 16.4243L11 16.8485L11.4243 16.4243L11 16ZM7.57574 13.4243L10.5757 16.4243L11.4243 15.5757L8.42426 12.5757L7.57574 13.4243ZM11.4243 16.4243L16.9243 10.9243L16.0757 10.0757L10.5757 15.5757L11.4243 16.4243ZM19.8 13C19.8 17.3078 16.3078 20.8 12 20.8V23.2C17.6333 23.2 22.2 18.6333 22.2 13H19.8ZM12 20.8C7.69218 20.8 4.2 17.3078 4.2 13H1.8C1.8 18.6333 6.3667 23.2 12 23.2V20.8ZM4.2 13C4.2 8.69218 7.69218 5.2 12 5.2V2.8C6.3667 2.8 1.8 7.3667 1.8 13H4.2ZM12 5.2C16.3078 5.2 19.8 8.69218 19.8 13H22.2C22.2 7.3667 17.6333 2.8 12 2.8V5.2Z" fill="#28293D" mask="url(#path-1-inside-1_402_13839)"/>
<mask id="mask0_402_13839" style="mask-type:alpha" maskUnits="userSpaceOnUse" x="0" y="1" width="24" height="12">
<path d="M12 2C5.92487 2 1 6.92487 1 13H0V1H24V13H23C23 6.92487 18.0751 2 12 2Z" fill="white"/>
</mask>
<g mask="url(#mask0_402_13839)">
<path d="M8.4 6C8.4 7.87777 6.87777 9.4 5 9.4C3.12223 9.4 1.6 7.87777 1.6 6C1.6 4.12223 3.12223 2.6 5 2.6C6.87777 2.6 8.4 4.12223 8.4 6ZM22.4 6C22.4 7.87777 20.8778 9.4 19 9.4C17.1222 9.4 15.6 7.87777 15.6 6C15.6 4.12223 17.1222 2.6 19 2.6C20.8778 2.6 22.4 4.12223 22.4 6Z" stroke="#28293D" stroke-width="1.2"/>
</g>
</svg>
