<svg width="24" height="24" viewBox="0 0 24 24" fill="none" xmlns="http://www.w3.org/2000/svg">
<path d="M20.4 13C20.4 17.6392 16.6392 21.4 12 21.4C7.36081 21.4 3.6 17.6392 3.6 13C3.6 8.36081 7.36081 4.6 12 4.6C16.6392 4.6 20.4 8.36081 20.4 13Z" stroke="#28293D" stroke-width="1.2"/>
<path fill-rule="evenodd" clip-rule="evenodd" d="M10.8799 9.58274L11.1375 8H12.8625L13.1201 9.58274C13.5973 9.73843 14.0305 9.99087 14.3967 10.3168L15.8875 9.75113L16.75 11.2489L15.524 12.254C15.5749 12.4947 15.6016 12.7442 15.6016 13C15.6016 13.2558 15.5749 13.5054 15.524 13.746L16.75 14.7511L15.8875 16.2489L14.3988 15.6813C14.0322 16.0081 13.5982 16.2613 13.1201 16.4173L12.8625 18H11.1375L10.8799 16.4173C10.4027 16.2616 9.96945 16.0091 9.60332 15.6832L8.11246 16.2489L7.25 14.7511L8.47604 13.746C8.42514 13.5053 8.39836 13.2558 8.39836 13C8.39836 12.7442 8.42514 12.4946 8.47604 12.254L7.25 11.2489L8.11246 9.75111L9.60119 10.3187C9.96777 9.99185 10.4018 9.73873 10.8799 9.58274ZM12.0001 14.6667C12.9181 14.6667 13.6623 13.9205 13.6623 13C13.6623 12.0795 12.9181 11.3333 12.0001 11.3333C11.082 11.3333 10.3378 12.0795 10.3378 13C10.3378 13.9205 11.082 14.6667 12.0001 14.6667Z" stroke="#28293D" stroke-width="1.2"/>
<mask id="mask0_402_13830" style="mask-type:alpha" maskUnits="userSpaceOnUse" x="0" y="1" width="24" height="12">
<path d="M12 2C5.92487 2 1 6.92487 1 13H0V1H24V13H23C23 6.92487 18.0751 2 12 2Z" fill="white"/>
</mask>
<g mask="url(#mask0_402_13830)">
<path d="M8.4 6C8.4 7.87777 6.87777 9.4 5 9.4C3.12223 9.4 1.6 7.87777 1.6 6C1.6 4.12223 3.12223 2.6 5 2.6C6.87777 2.6 8.4 4.12223 8.4 6ZM22.4 6C22.4 7.87777 20.8778 9.4 19 9.4C17.1222 9.4 15.6 7.87777 15.6 6C15.6 4.12223 17.1222 2.6 19 2.6C20.8778 2.6 22.4 4.12223 22.4 6Z" stroke="#28293D" stroke-width="1.2"/>
</g>
</svg>
