<svg width="24" height="24" viewBox="0 0 24 24" fill="none" xmlns="http://www.w3.org/2000/svg">
<g clip-path="url(#clip0_402_12308)">
<path d="M9.4 11.1356L9.84139 10.7292L9.4 10.2498L8.95861 10.7292L9.4 11.1356ZM3.8 4.71866H9.4V3.51866H3.8V4.71866ZM9.4 4.71866H15V3.51866H9.4V4.71866ZM10 4.11866V1.00001H8.8V4.11866H10ZM9.4 0.400012H4.6V1.60001H9.4V0.400012ZM9.4 1.60001L16 1.60001L16 0.400005L9.4 0.400012L9.4 1.60001ZM20.4 6.00001V24H21.6V6.00001H20.4ZM13.4 19.8915H9.4V21.0915H13.4V19.8915ZM9.4 19.8915H5.4V21.0915H9.4V19.8915ZM8.8 20.4915V24H10V20.4915H8.8ZM3.6 18.1526V8.01696H2.4V18.1526H3.6ZM3.6 8.01696V4.89832H2.4V8.01696H3.6ZM15.2 4.89832V8.01696H16.4V4.89832H15.2ZM15.2 8.01696V18.1526H16.4V8.01696H15.2ZM3 8.61696H15.8V7.41696H3V8.61696ZM5.4 19.8915C4.39123 19.8915 3.6 19.0985 3.6 18.1526H2.4C2.4 19.7902 3.75781 21.0915 5.4 21.0915V19.8915ZM13.4 21.0915C15.0422 21.0915 16.4 19.7902 16.4 18.1526H15.2C15.2 19.0985 14.4088 19.8915 13.4 19.8915V21.0915ZM15 4.71866C15.1251 4.71866 15.2 4.81357 15.2 4.89832H16.4C16.4 4.12188 15.7585 3.51866 15 3.51866V4.71866ZM3.8 3.51866C3.04146 3.51866 2.4 4.12188 2.4 4.89832H3.6C3.6 4.81356 3.67488 4.71866 3.8 4.71866V3.51866ZM11.2 15.0339C11.2 15.9799 10.4088 16.7729 9.4 16.7729V17.9729C11.0422 17.9729 12.4 16.6715 12.4 15.0339H11.2ZM9.4 16.7729C8.39123 16.7729 7.6 15.9799 7.6 15.0339H6.4C6.4 16.6715 7.7578 17.9729 9.4 17.9729V16.7729ZM7.6 15.0339C7.6 14.8649 7.6895 14.5691 7.90555 14.16C8.11099 13.7711 8.39174 13.351 8.68279 12.9566C8.9722 12.5644 9.26295 12.2094 9.48205 11.9518C9.59133 11.8233 9.68215 11.7198 9.74523 11.6488C9.77676 11.6134 9.80131 11.5861 9.81774 11.568C9.82595 11.5589 9.83212 11.5522 9.83611 11.5478C9.83811 11.5456 9.83956 11.544 9.84044 11.5431C9.84089 11.5426 9.84119 11.5422 9.84135 11.5421C9.84143 11.542 9.84147 11.5419 9.84148 11.5419C9.84148 11.5419 9.84146 11.5419 9.84146 11.5419C9.84143 11.542 9.84139 11.542 9.4 11.1356C8.95861 10.7292 8.95855 10.7292 8.95848 10.7293C8.95845 10.7294 8.95837 10.7294 8.9583 10.7295C8.95817 10.7297 8.95799 10.7299 8.95778 10.7301C8.95736 10.7306 8.95679 10.7312 8.95608 10.7319C8.95466 10.7335 8.95266 10.7357 8.95012 10.7385C8.94503 10.744 8.93772 10.752 8.92836 10.7624C8.90962 10.7831 8.88262 10.8131 8.84852 10.8514C8.78035 10.9281 8.68367 11.0383 8.56795 11.1743C8.33705 11.4458 8.0278 11.8232 7.71721 12.2441C7.40826 12.6628 7.08901 13.1366 6.84445 13.5996C6.6105 14.0426 6.4 14.5571 6.4 15.0339H7.6ZM9.4 11.1356C8.95861 11.542 8.95857 11.542 8.95854 11.5419C8.95854 11.5419 8.95852 11.5419 8.95852 11.5419C8.95853 11.5419 8.95857 11.542 8.95865 11.5421C8.95881 11.5422 8.95911 11.5426 8.95956 11.5431C8.96044 11.544 8.96189 11.5456 8.96389 11.5478C8.96788 11.5522 8.97405 11.5589 8.98226 11.568C8.99869 11.5861 9.02324 11.6134 9.05477 11.6488C9.11785 11.7198 9.20867 11.8233 9.31795 11.9518C9.53705 12.2094 9.8278 12.5644 10.1172 12.9566C10.4083 13.351 10.689 13.7711 10.8945 14.16C11.1105 14.5691 11.2 14.8649 11.2 15.0339H12.4C12.4 14.5571 12.1895 14.0426 11.9556 13.5996C11.711 13.1366 11.3917 12.6628 11.0828 12.2441C10.7722 11.8232 10.4629 11.4458 10.232 11.1743C10.1163 11.0383 10.0197 10.9281 9.95148 10.8514C9.91738 10.8131 9.89038 10.7831 9.87164 10.7624C9.86228 10.752 9.85497 10.744 9.84988 10.7385C9.84734 10.7357 9.84535 10.7335 9.84392 10.7319C9.84321 10.7312 9.84264 10.7306 9.84222 10.7301C9.84201 10.7299 9.84183 10.7297 9.8417 10.7295C9.84163 10.7294 9.84155 10.7294 9.84152 10.7293C9.84145 10.7292 9.84139 10.7292 9.4 11.1356ZM16 1.60001C18.4301 1.6 20.4 3.56995 20.4 6.00001H21.6C21.6 2.90721 19.0928 0.400002 16 0.400005L16 1.60001Z" fill="#28293D"/>
</g>
<defs>
<clipPath id="clip0_402_12308">
<rect width="24" height="24" fill="white"/>
</clipPath>
</defs>
</svg>
