<svg width="24" height="24" viewBox="0 0 24 24" fill="none" xmlns="http://www.w3.org/2000/svg">
<mask id="path-1-inside-1_402_12337" fill="white">
<path d="M6 8C6 4.68629 8.68629 2 12 2C15.3137 2 18 4.68629 18 8V12V16C18 19.3137 15.3137 22 12 22C8.68629 22 6 19.3137 6 16V12V8Z"/>
</mask>
<path d="M18 11.4H6V12.6H18V11.4ZM16.8 8V12H19.2V8H16.8ZM16.8 12V16H19.2V12H16.8ZM7.2 16V12H4.8V16H7.2ZM7.2 12V8H4.8V12H7.2ZM12 20.8C9.34903 20.8 7.2 18.651 7.2 16H4.8C4.8 19.9764 8.02355 23.2 12 23.2V20.8ZM12 23.2C15.9764 23.2 19.2 19.9764 19.2 16H16.8C16.8 18.651 14.651 20.8 12 20.8V23.2ZM12 3.2C14.651 3.2 16.8 5.34903 16.8 8H19.2C19.2 4.02355 15.9764 0.8 12 0.8V3.2ZM12 0.8C8.02355 0.8 4.8 4.02355 4.8 8H7.2C7.2 5.34903 9.34903 3.2 12 3.2V0.8Z" fill="#28293D" mask="url(#path-1-inside-1_402_12337)"/>
<path d="M12 6.6C11.2268 6.6 10.6 7.2268 10.6 8H9.4C9.4 6.56406 10.5641 5.4 12 5.4V6.6Z" fill="#28293D"/>
</svg>
