<svg width="24" height="24" viewBox="0 0 24 24" fill="none" xmlns="http://www.w3.org/2000/svg">
<path d="M22 12H22.6V11.4H22V12ZM2 12V11.4H1.4V12H2ZM17 3.33782L17.5196 3.63777L17.8193 3.11861L17.3004 2.81846L17 3.33782ZM7 20.6622L6.69956 21.1815L7.21941 21.4823L7.51964 20.9621L7 20.6622ZM7 3.33782L6.69956 2.81846L6.18069 3.11861L6.48036 3.63777L7 3.33782ZM17 20.6622L16.4804 20.9621L16.7806 21.4823L17.3004 21.1815L17 20.6622ZM13.5 9.40135L13.1996 9.92071L13.5 9.40135ZM10.5 9.40135L10.8004 9.92071L10.5 9.40135ZM10.5 14.5987L10.8004 14.0793L10.5 14.5987ZM13.5 14.5987L13.1996 14.0793L13.5 14.5987ZM12 2.6C13.7131 2.6 15.3176 3.05774 16.6996 3.85719L17.3004 2.81846C15.7407 1.9162 13.9297 1.4 12 1.4V2.6ZM7.30044 20.1428C4.4892 18.5166 2.6 15.4786 2.6 12H1.4C1.4 15.9243 3.53278 19.3497 6.69956 21.1815L7.30044 20.1428ZM7.30044 3.85719C8.68244 3.05774 10.2869 2.6 12 2.6V1.4C10.0703 1.4 8.25929 1.9162 6.69956 2.81846L7.30044 3.85719ZM21.4 12C21.4 15.4786 19.5108 18.5166 16.6996 20.1428L17.3004 21.1815C20.4672 19.3497 22.6 15.9243 22.6 12H21.4ZM12 9.6C12.4381 9.6 12.8472 9.71686 13.1996 9.92071L13.8004 8.88198C13.2703 8.57532 12.6547 8.4 12 8.4V9.6ZM13.1996 9.92071C13.9185 10.3366 14.4 11.1124 14.4 12H15.6C15.6 10.6667 14.8749 9.50353 13.8004 8.88198L13.1996 9.92071ZM16.4804 3.03787L12.9804 9.1014L14.0196 9.7013L17.5196 3.63777L16.4804 3.03787ZM9.6 12C9.6 11.1124 10.0815 10.3366 10.8004 9.92071L10.1996 8.88198C9.12509 9.50353 8.4 10.6667 8.4 12H9.6ZM10.8004 9.92071C11.1528 9.71686 11.5619 9.6 12 9.6V8.4C11.3453 8.4 10.7297 8.57532 10.1996 8.88198L10.8004 9.92071ZM6.48036 3.63777L9.98036 9.7013L11.0196 9.1014L7.51964 3.03787L6.48036 3.63777ZM12 14.4C11.5619 14.4 11.1528 14.2831 10.8004 14.0793L10.1996 15.118C10.7297 15.4247 11.3453 15.6 12 15.6V14.4ZM10.8004 14.0793C10.0815 13.6634 9.6 12.8876 9.6 12H8.4C8.4 13.3333 9.12509 14.4965 10.1996 15.118L10.8004 14.0793ZM9.98036 14.2987L6.48036 20.3622L7.51964 20.9621L11.0196 14.8986L9.98036 14.2987ZM14.4 12C14.4 12.8876 13.9185 13.6634 13.1996 14.0793L13.8004 15.118C14.8749 14.4965 15.6 13.3333 15.6 12H14.4ZM13.1996 14.0793C12.8472 14.2831 12.4381 14.4 12 14.4V15.6C12.6547 15.6 13.2703 15.4247 13.8004 15.118L13.1996 14.0793ZM12.9804 14.8986L16.4804 20.9621L17.5196 20.3622L14.0196 14.2987L12.9804 14.8986ZM2 12.6H9V11.4H2V12.6ZM15 12.6H22V11.4H15V12.6Z" fill="#28293D"/>
</svg>
