<svg width="24" height="24" viewBox="0 0 24 24" fill="none" xmlns="http://www.w3.org/2000/svg">
<mask id="path-1-inside-1_402_17708" fill="white">
<path d="M15.0002 6.58566C15.7142 5.87166 15.7142 4.71403 15.0002 4.00003C14.2862 3.28603 13.1286 3.28603 12.4146 4.00003L15.0002 6.58566Z"/>
</mask>
<path d="M15.0002 6.58566L13.586 7.99988L15.0002 9.41409L16.4144 7.99988L15.0002 6.58566ZM12.4146 4.00003L11.0003 2.58582L9.58612 4.00003L11.0003 5.41424L12.4146 4.00003ZM13.586 5.41424C13.5189 5.3472 13.5189 5.2385 13.586 5.17145L16.4144 7.99988C17.9094 6.50483 17.9095 4.08087 16.4144 2.58582L13.586 5.41424ZM13.8288 5.41424C13.7617 5.48129 13.653 5.48129 13.586 5.41424L16.4144 2.58582C14.9193 1.09077 12.4954 1.09077 11.0003 2.58582L13.8288 5.41424ZM11.0003 5.41424L13.586 7.99988L16.4144 5.17145L13.8288 2.58582L11.0003 5.41424Z" fill="#3E7BFA" mask="url(#path-1-inside-1_402_17708)"/>
<path d="M6 12C6 12.5523 6.44772 13 7 13V14M6 12C6 11.4477 6.44772 11 7 11C7.33884 11 7.59725 11.1644 7.81919 11.4263C8.54613 12.2842 10.2 14 11 14H7M6 12V14H7M19 14V4.82841C19 3.0466 16.8457 2.15427 15.5858 3.4142L14.5 4.49998M8 6.99998C8 7.55227 7.55228 7.99998 7 7.99998C6.44772 7.99998 6 7.55227 6 6.99998C6 6.4477 6.44772 5.99998 7 5.99998C7.55228 5.99998 8 6.4477 8 6.99998Z" stroke="#3E7BFA" stroke-width="2"/>
<path d="M11 14H7H6M5 20H4C3.44772 20 3 19.5523 3 19V14H19H21V19C21 19.5523 20.5523 20 20 20H19M5 20V20.9C5 20.9552 5.04477 21 5.1 21H18.9C18.9552 21 19 20.9552 19 20.9V20M5 20H19" stroke="#555770" stroke-width="2"/>
</svg>
