<svg width="24" height="24" viewBox="0 0 24 24" fill="none" xmlns="http://www.w3.org/2000/svg">
<path d="M7 11C7 11.5523 7.44772 12 8 12V13M7 11C7 10.4477 7.44772 10 8 10C8.33884 10 8.59725 10.1644 8.81919 10.4263C9.54613 11.2842 11.2 13 12 13H8M7 11V13H8M14 3C14 3.99995 14 5.00007 15 6.5C16 8 16 9 16 10M18 3C18 3.99995 18 5.00007 19 6.5C20 8 20 9 20 10M9 6C9 6.55228 8.55228 7 8 7C7.44772 7 7 6.55228 7 6C7 5.44772 7.44772 5 8 5C8.55228 5 9 5.44772 9 6Z" stroke="#3E7BFA" stroke-width="2"/>
<path d="M8 13H12V21M8 13H7M8 13V21M8 21H12M8 21H4M12 21H16M16 13V21M16 13H20M16 13H4M16 21H20M20 13H21V20C21 20.5523 20.5523 21 20 21M20 13V21M4 13H3V20C3 20.5523 3.44772 21 4 21M4 13V21" stroke="#555770" stroke-width="2"/>
</svg>
