<svg width="24" height="24" viewBox="0 0 24 24" fill="none" xmlns="http://www.w3.org/2000/svg">
<path d="M5.82214 8.92549L12.3371 7.64539M5.2841 10.8851L7.99615 19.0116M7.99615 19.0116H13.8919C13.9471 19.0116 13.9918 19.0559 13.9918 19.1105V20H3.99902V19.1105C3.99902 19.0559 4.04376 19.0116 4.09895 19.0116H7.99615Z" stroke="#555770" stroke-width="2"/>
<path d="M15.1719 7.06247C14.9861 6.69924 14.6508 6.41276 14.222 6.29911C13.4224 6.0872 12.6005 6.55655 12.3862 7.34744C12.3593 7.44681 12.3432 7.54654 12.3373 7.64537C12.2963 8.33313 12.7469 8.9779 13.4461 9.16319C13.8749 9.27683 14.3101 9.19456 14.6546 8.97185M15.1719 7.06247C15.3325 7.37658 15.3813 7.7481 15.2819 8.11487C15.1825 8.48164 14.9525 8.77926 14.6546 8.97185M15.1719 7.06247L20.5348 4M20.5348 4L21.5 4.25581L18.7161 14.532L17.7509 14.2762M20.5348 4L17.7509 14.2762M14.6546 8.97185L17.7509 14.2762M5.99785 9.62211C5.99785 9.37031 5.93438 9.13316 5.82239 8.92547C5.57025 8.45784 5.07217 8.13956 4.49892 8.13956C3.67109 8.13956 3 8.80332 3 9.62211C3 10.4409 3.67109 11.1047 4.49892 11.1047C4.78692 11.1047 5.05596 11.0243 5.28436 10.8851C5.71247 10.6241 5.99785 10.156 5.99785 9.62211Z" stroke="#3E7BFA" stroke-width="2"/>
</svg>
