<svg width="24" height="24" viewBox="0 0 24 24" fill="none" xmlns="http://www.w3.org/2000/svg">
<path d="M5 20V4C5 3.44772 5.44772 3 6 3H18C18.5523 3 19 3.44772 19 4V20C19 20.5523 18.5523 21 18 21H6C5.44772 21 5 20.5523 5 20Z" stroke="#555770" stroke-width="2"/>
<path d="M8 14C8 11.7909 9.79086 10 12 10M8 14C8 14.7286 8.19479 15.4117 8.53513 16M8 14L12 10M12 10C12.7286 10 13.4117 10.1948 14 10.5351M14 10.5351C15.1956 11.2267 16 12.5194 16 14C16 16.2091 14.2091 18 12 18C10.5194 18 9.22675 17.1956 8.53513 16M14 10.5351L8.53513 16" stroke="#3E7BFA" stroke-width="2"/>
<path d="M9 6C9 6.55228 8.55228 7 8 7C7.44772 7 7 6.55228 7 6C7 5.44772 7.44772 5 8 5C8.55228 5 9 5.44772 9 6Z" fill="#3E7BFA"/>
<path d="M12 6C12 6.55228 11.5523 7 11 7C10.4477 7 10 6.55228 10 6C10 5.44772 10.4477 5 11 5C11.5523 5 12 5.44772 12 6Z" fill="#3E7BFA"/>
</svg>
