<svg width="24" height="24" viewBox="0 0 24 24" fill="none" xmlns="http://www.w3.org/2000/svg">
<path d="M16 7.25C16 8.47362 15.516 9.96766 14.7097 11.1484C13.8873 12.3527 12.9011 13 12 13V15C13.8603 15 15.3741 13.722 16.3614 12.2762C17.3647 10.8068 18 8.92588 18 7.25H16ZM12 13C11.0989 13 10.1127 12.3527 9.2903 11.1484C8.48403 9.96766 8 8.47362 8 7.25H6C6 8.92588 6.63526 10.8068 7.63864 12.2762C8.6259 13.722 10.1397 15 12 15V13ZM8 7.25C8 4.85625 9.83628 3 12 3V1C8.64087 1 6 3.84476 6 7.25H8ZM12 3C14.1637 3 16 4.85625 16 7.25H18C18 3.84476 15.3591 1 12 1V3ZM11.247 13.3419C10.8407 13.8069 10.3283 14.5829 10.1768 15.6035C10.0199 16.6607 10.2683 17.8651 11.2017 19.1023L12.7983 17.8977C12.1617 17.054 12.0831 16.3826 12.1551 15.8972C12.2326 15.3752 12.5052 14.9416 12.753 14.6581L11.247 13.3419ZM11.2017 19.1023C12.4305 20.7309 11.625 22.0241 11.3847 22.2117L12.6153 23.7883C13.6833 22.9547 14.7095 20.4309 12.7983 17.8977L11.2017 19.1023Z" fill="#28293D"/>
</svg>
