<svg width="24" height="24" viewBox="0 0 24 24" fill="none" xmlns="http://www.w3.org/2000/svg">
<path d="M4 20H3V21H4V20ZM2 7L2.848 6.47L1.02381 7.21693L2 7ZM12 4L12.9975 3.92875H11.0025L12 4ZM20 20V21H21V20H20ZM22 7L22.9762 7.21693L21.152 6.47L22 7ZM5 20V16H3V20H5ZM4.97619 15.7831L2.97619 6.78307L1.02381 7.21693L3.02381 16.2169L4.97619 15.7831ZM1.152 7.53C1.6218 8.28167 2.49506 9.37032 3.63933 10.2821C4.7767 11.1884 6.28425 12 8 12V10C6.91575 10 5.83996 9.47831 4.88567 8.71792C3.93828 7.96302 3.21154 7.05166 2.848 6.47L1.152 7.53ZM8 12C10.0499 12 11.2501 10.2908 11.9057 8.77113C12.5932 7.17761 12.9091 5.30867 12.9975 4.07125L11.0025 3.92875C10.9243 5.02466 10.6401 6.65572 10.0693 7.97887C9.46658 9.37591 8.75013 10 8 10V12ZM21 20V16H19V20H21ZM20.9762 16.2169L22.9762 7.21693L21.0238 6.78307L19.0238 15.7831L20.9762 16.2169ZM21.152 6.47C20.7885 7.05166 20.0617 7.96302 19.1143 8.71792C18.16 9.47831 17.0843 10 16 10V12C17.7157 12 19.2233 11.1884 20.3607 10.2821C21.5049 9.37032 22.3782 8.28167 22.848 7.53L21.152 6.47ZM16 10C15.2499 10 14.5334 9.37591 13.9307 7.97887C13.3599 6.65572 13.0757 5.02466 12.9975 3.92875L11.0025 4.07125C11.0909 5.30867 11.4068 7.17761 12.0943 8.77113C12.7499 10.2908 13.9501 12 16 12V10ZM4 21H20V19H4V21ZM20 15H4V17H20V15Z" fill="#28293D"/>
</svg>
