<svg width="24" height="24" viewBox="0 0 24 24" fill="none" xmlns="http://www.w3.org/2000/svg">
<path d="M17 15C17 17.7614 14.7614 20 12 20V22C15.866 22 19 18.866 19 15H17ZM12 20C9.23858 20 7 17.7614 7 15H5C5 18.866 8.13401 22 12 22V20ZM7 15C7 13.4524 7.35692 10.964 8.23314 8.89776C9.13203 6.77804 10.3855 5.5 12 5.5V3.5C9.11454 3.5 7.36797 5.8151 6.39186 8.11695C5.39308 10.4722 5 13.2339 5 15H7ZM12 5.5C13.6145 5.5 14.868 6.77804 15.7669 8.89776C16.6431 10.964 17 13.4524 17 15H19C19 13.2339 18.6069 10.4722 17.6081 8.11695C16.632 5.8151 14.8855 3.5 12 3.5V5.5Z" fill="#28293D"/>
</svg>
