<svg width="24" height="24" viewBox="0 0 24 24" fill="none" xmlns="http://www.w3.org/2000/svg">
<path d="M8.99715 11.3574C9.73016 10.5251 10.8038 10 12 10C13.1962 10 14.2698 10.5251 15.0029 11.3574M8.99715 11.3574C8.92234 9.49053 7.38524 8 5.5 8C3.567 8 2 9.567 2 11.5C2 13.433 3.567 15 5.5 15C7.433 15 9 13.433 9 11.5C9 11.4522 8.99904 11.4047 8.99715 11.3574ZM15.0029 11.3574C15.001 11.4047 15 11.4522 15 11.5C15 13.433 16.567 15 18.5 15C20.433 15 22 13.433 22 11.5C22 9.567 20.433 8 18.5 8C16.6148 8 15.0777 9.49053 15.0029 11.3574Z" stroke="#28293D" stroke-width="2"/>
</svg>
