<svg width="24" height="24" viewBox="0 0 24 24" fill="none" xmlns="http://www.w3.org/2000/svg">
<path d="M7.39074 3L7.98838 2.19824C7.66816 1.95954 7.23662 1.93428 6.89074 2.13397C6.54485 2.33367 6.35096 2.72003 6.39757 3.11669L7.39074 3ZM10.1312 5.04273L9.53351 5.84449C9.82698 6.06324 10.2165 6.10418 10.549 5.95123L10.1312 5.04273ZM13.2364 3.6144L14.1836 3.93503C14.3117 3.55673 14.2023 3.1385 13.9055 2.87126C13.6087 2.60401 13.1814 2.539 12.8185 2.7059L13.2364 3.6144ZM12.1405 6.85193L11.1933 6.5313C11.0759 6.878 11.1573 7.26111 11.4056 7.5301L12.1405 6.85193ZM14.4585 9.36381L14.4462 10.3637C14.8456 10.3686 15.2096 10.1354 15.372 9.77055C15.5345 9.40568 15.4642 8.97915 15.1934 8.68564L14.4585 9.36381ZM11.0407 9.32199L11.053 8.32206C10.687 8.31758 10.3478 8.51342 10.1687 8.83262L11.0407 9.32199ZM9.3681 12.3027L8.41333 12.6001C8.53209 12.9814 8.86636 13.2555 9.26357 13.2973C9.66077 13.339 10.0447 13.1404 10.2402 12.7921L9.3681 12.3027ZM8.35174 9.03936L9.3065 8.742C9.19766 8.39254 8.90659 8.13046 8.54766 8.05874L8.35174 9.03936ZM5 8.36969L4.42216 7.55354C4.09619 7.78432 3.93881 8.18693 4.02185 8.5776C4.10489 8.96826 4.41242 9.27205 4.80407 9.3503L5 8.36969ZM7.78958 6.39463L8.36742 7.21078C8.66615 6.99928 8.82546 6.64147 8.78275 6.27794L7.78958 6.39463ZM6.7931 3.80176L9.53351 5.84449L10.7288 4.24096L7.98838 2.19824L6.7931 3.80176ZM10.549 5.95123L13.6543 4.5229L12.8185 2.7059L9.71327 4.13423L10.549 5.95123ZM12.2892 3.29377L11.1933 6.5313L13.0877 7.17256L14.1836 3.93503L12.2892 3.29377ZM11.4056 7.5301L13.7236 10.042L15.1934 8.68564L12.8754 6.17376L11.4056 7.5301ZM14.4707 8.36388L11.053 8.32206L11.0285 10.3219L14.4462 10.3637L14.4707 8.36388ZM10.1687 8.83262L8.49602 11.8134L10.2402 12.7921L11.9128 9.81135L10.1687 8.83262ZM10.3229 12.0054L9.3065 8.742L7.39697 9.33672L8.41333 12.6001L10.3229 12.0054ZM8.54766 8.05874L5.19593 7.38907L4.80407 9.3503L8.15581 10.02L8.54766 8.05874ZM5.57784 9.18583L8.36742 7.21078L7.21174 5.57848L4.42216 7.55354L5.57784 9.18583ZM8.78275 6.27794L8.38391 2.88331L6.39757 3.11669L6.79641 6.51132L8.78275 6.27794ZM10.1747 9.82199L17.0247 21.6865L18.7568 20.6865L11.9068 8.82199L10.1747 9.82199Z" fill="#28293D"/>
</svg>
