<svg width="24" height="24" viewBox="0 0 24 24" fill="none" xmlns="http://www.w3.org/2000/svg">
<path d="M8.71875 14.0328L8.64813 15.0303L8.71875 14.0328ZM2.43867 18.6838L3.38737 19.0001L3.38941 18.9938L2.43867 18.6838ZM3.96978 13.9876L4.92053 14.2976C5.08266 13.8003 4.83419 13.2621 4.35053 13.063L3.96978 13.9876ZM7.99993 7.00005L8.03123 6.00054L8.01525 6.00004L7.99927 6.00005L7.99993 7.00005ZM13.8725 14.8321L14.1365 13.8676L13.8725 14.8321ZM13.8687 6.18056L14.1675 7.13489L13.8687 6.18056ZM12.9999 6.27627V14.7355H14.9999V6.27627H12.9999ZM14.1365 13.8676C11.7652 13.2185 9.73632 13.1024 8.78937 13.0353L8.64813 15.0303C9.59732 15.0975 11.4478 15.2052 13.6084 15.7967L14.1365 13.8676ZM6.82332 14.3676L5.27917 19.0001L7.17653 19.6325L8.72069 15.0001L6.82332 14.3676ZM5.27917 19.0001H3.38735V21.0001H5.27917V19.0001ZM3.38941 18.9938L4.92053 14.2976L3.01904 13.6777L1.48792 18.3738L3.38941 18.9938ZM5.96898 8.00139L8.00059 8.00005L7.99927 6.00005L5.96766 6.00139L5.96898 8.00139ZM7.99993 7.00005C7.96862 7.99956 7.9688 7.99957 7.96898 7.99957C7.96906 7.99957 7.96926 7.99958 7.96942 7.99959C7.96973 7.9996 7.97009 7.99961 7.97049 7.99962C7.97129 7.99964 7.97228 7.99967 7.97344 7.9997C7.97577 7.99977 7.97882 7.99986 7.98257 7.99995C7.99007 8.00015 8.0004 8.00039 8.01347 8.00066C8.03959 8.00119 8.07666 8.0018 8.12393 8.00221C8.21846 8.00303 8.35395 8.00306 8.52448 8.00011C8.86525 7.99423 9.34759 7.97642 9.92385 7.92895C11.0706 7.83448 12.6166 7.62039 14.1675 7.13489L13.57 5.22622C12.2074 5.65278 10.8189 5.84844 9.75965 5.9357C9.23289 5.9791 8.79432 5.99515 8.48993 6.00041C8.33789 6.00304 8.21973 6.00296 8.14127 6.00228C8.10205 6.00194 8.07278 6.00145 8.05419 6.00108C8.04489 6.00089 8.03827 6.00072 8.03442 6.00062C8.03249 6.00057 8.03125 6.00054 8.03072 6.00052C8.03045 6.00052 8.03036 6.00051 8.03044 6.00052C8.03049 6.00052 8.03057 6.00052 8.0307 6.00052C8.03077 6.00053 8.0309 6.00053 8.03093 6.00053C8.03108 6.00054 8.03123 6.00054 7.99993 7.00005ZM4.35053 13.063C2.56932 12.3295 2.1612 10.1604 3.22353 8.79015L1.64291 7.56474C-0.142062 9.86712 0.458687 13.6234 3.58903 14.9123L4.35053 13.063ZM3.38735 19.0001H3.38735L1.48999 18.3676C1.0583 19.6627 2.02224 21.0001 3.38735 21.0001V19.0001ZM5.27917 19.0001H5.27917V21.0001C6.14003 21.0001 6.9043 20.4492 7.17653 19.6325L5.27917 19.0001ZM8.78937 13.0353C7.87341 12.9705 7.09371 13.5564 6.82332 14.3676L8.72069 15.0001C8.72114 14.9987 8.71897 15.006 8.70657 15.0146C8.70027 15.019 8.69145 15.0236 8.68023 15.0268C8.66861 15.03 8.65726 15.031 8.64813 15.0303L8.78937 13.0353ZM5.96766 6.00139C5.29168 6.00184 4.50321 6.03778 3.75444 6.23687C2.99461 6.43889 2.21643 6.82496 1.64291 7.56474L3.22353 8.79015C3.44895 8.49939 3.78635 8.29787 4.26834 8.16971C4.76139 8.03862 5.34101 8.00181 5.96898 8.00139L5.96766 6.00139ZM12.9999 14.7355C12.9999 14.1325 13.5733 13.7135 14.1365 13.8676L13.6084 15.7967C14.2994 15.9858 14.9999 15.4711 14.9999 14.7355H12.9999ZM14.9999 6.27627C14.9999 5.52339 14.2691 5.00738 13.57 5.22622L14.1675 7.13489C13.598 7.31317 12.9999 6.89337 12.9999 6.27627H14.9999Z" fill="#28293D"/>
<mask id="mask0_402_14450" style="mask-type:alpha" maskUnits="userSpaceOnUse" x="17" y="3" width="6" height="15">
<path d="M17 3H23V17.9725H17V3Z" fill="white"/>
</mask>
<g mask="url(#mask0_402_14450)">
<circle cx="16" cy="11" r="6" stroke="#28293D" stroke-width="2"/>
<circle cx="16" cy="11" r="2" stroke="#28293D" stroke-width="2"/>
</g>
</svg>
