<svg width="24" height="24" viewBox="0 0 24 24" fill="none" xmlns="http://www.w3.org/2000/svg">
<path d="M2 17L1.29289 16.2929L0.585786 17L1.29289 17.7071L2 17ZM17 2L17.7071 1.29289L17 0.585787L16.2929 1.29289L17 2ZM22 7L22.7071 7.70711L23.4142 7L22.7071 6.29289L22 7ZM7 22L6.29289 22.7071L7 23.4142L7.70711 22.7071L7 22ZM9.14286 19.8571L9.84996 20.5643V20.5642L9.14286 19.8571ZM2.70711 17.7071L17.7071 2.70711L16.2929 1.29289L1.29289 16.2929L2.70711 17.7071ZM16.2929 2.70711L21.2929 7.70711L22.7071 6.29289L17.7071 1.29289L16.2929 2.70711ZM7.70711 21.2929L2.70711 16.2929L1.29289 17.7071L6.29289 22.7071L7.70711 21.2929ZM8.43575 19.15L6.29289 21.2929L7.70711 22.7071L9.84996 20.5643L8.43575 19.15ZM9.84996 19.15L6.99282 16.2929L5.57861 17.7071L8.43575 20.5643L9.84996 19.15ZM10.5786 17.0072L8.43575 19.15L9.84996 20.5642L11.9928 18.4214L10.5786 17.0072ZM11.9928 17.0072L10.2071 15.2215L8.79289 16.6357L10.5786 18.4214L11.9928 17.0072ZM12.7215 14.8643L10.5786 17.0072L11.9928 18.4214L14.1357 16.2785L12.7215 14.8643ZM14.1357 14.8643L11.2785 12.0072L9.86432 13.4214L12.7215 16.2785L14.1357 14.8643ZM14.8643 12.7215L12.7215 14.8643L14.1357 16.2785L16.2785 14.1357L14.8643 12.7215ZM16.2785 12.7215L14.4928 10.9358L13.0786 12.35L14.8643 14.1357L16.2785 12.7215ZM17.0072 10.5786L14.8643 12.7215L16.2785 14.1357L18.4214 11.9928L17.0072 10.5786ZM18.4214 10.5786L15.5642 7.72146L14.15 9.13568L17.0072 11.9928L18.4214 10.5786ZM21.2929 6.29289L19.15 8.43575L20.5642 9.84996L22.7071 7.70711L21.2929 6.29289ZM19.15 8.43575L17.0072 10.5786L18.4214 11.9928L20.5642 9.84996L19.15 8.43575ZM20.5642 8.43575L18.7785 6.65003L17.3643 8.06425L19.15 9.84996L20.5642 8.43575Z" fill="#28293D"/>
</svg>
