<svg width="24" height="24" viewBox="0 0 24 24" fill="none" xmlns="http://www.w3.org/2000/svg">
<path d="M5.00052 13.8769L5.87486 13.3916H5.87486L5.00052 13.8769ZM5.23196 15.5587L6.18983 15.8459L5.23196 15.5587ZM18.9995 13.8769L19.8738 14.3623L18.9995 13.8769ZM18.768 15.5587L19.7259 15.2715V15.2715L18.768 15.5587ZM5 10C5 6.21708 8.0471 3.5 12 3.5V1.5C7.11634 1.5 3 4.94636 3 10H5ZM5.87486 13.3916C5.31768 12.3878 5 11.2325 5 10H3C3 11.5808 3.40839 13.0691 4.12618 14.3623L5.87486 13.3916ZM7 18.9491V20H9V18.9491H7ZM7 20C7 21.1046 7.89543 22 9 22V20H7ZM7.05027 19C7.023 19 7 18.978 7 18.9491H9C9 17.8718 8.12592 17 7.05027 17V19ZM4.27409 15.2715C3.71653 17.1311 5.11142 19 7.05027 19V17C6.44847 17 6.01773 16.4199 6.18983 15.8459L4.27409 15.2715ZM4.12618 14.3623C4.31243 14.6978 4.34885 15.0222 4.27409 15.2715L6.18983 15.8459C6.4531 14.9678 6.25984 14.0852 5.87486 13.3916L4.12618 14.3623ZM21 10C21 4.94636 16.8837 1.5 12 1.5V3.5C15.9529 3.5 19 6.21708 19 10H21ZM19.8738 14.3623C20.5916 13.0691 21 11.5808 21 10H19C19 11.2325 18.6823 12.3878 18.1251 13.3916L19.8738 14.3623ZM15 18.9491V20H17V18.9491H15ZM15 20V22C16.1046 22 17 21.1046 17 20H15ZM16.9497 17C15.8741 17 15 17.8718 15 18.9491H17C17 18.978 16.977 19 16.9497 19V17ZM17.8102 15.8459C17.9823 16.4199 17.5515 17 16.9497 17V19C18.8886 19 20.2835 17.1311 19.7259 15.2715L17.8102 15.8459ZM18.1251 13.3916C17.7402 14.0852 17.5469 14.9678 17.8102 15.8459L19.7259 15.2715C19.6512 15.0222 19.6876 14.6978 19.8738 14.3623L18.1251 13.3916ZM9 22H15V20H9V22Z" fill="#28293D"/>
<path d="M10.5037 17.187C10.4205 16.2043 11.4628 15.3235 11.999 15.0028C12.5352 15.3235 13.5776 16.2043 13.4943 17.187C13.39 18.4189 12.1639 18.059 11.9943 17.3669C11.8248 18.059 10.6081 18.4189 10.5037 17.187Z" fill="#28293D"/>
<path d="M10 12.75C10 13.4404 9.44036 14 8.75 14C8.05964 14 7.5 13.4404 7.5 12.75C7.5 12.0596 8.05964 11.5 8.75 11.5C9.44036 11.5 10 12.0596 10 12.75Z" fill="#424242"/>
<path d="M16.5 12.75C16.5 13.4404 15.9404 14 15.25 14C14.5596 14 14 13.4404 14 12.75C14 12.0596 14.5596 11.5 15.25 11.5C15.9404 11.5 16.5 12.0596 16.5 12.75Z" fill="#424242"/>
<path d="M9 12.75C9 12.8881 8.88807 13 8.75 13V15C9.99264 15 11 13.9926 11 12.75H9ZM8.75 13C8.61193 13 8.5 12.8881 8.5 12.75H6.5C6.5 13.9926 7.50736 15 8.75 15V13ZM8.5 12.75C8.5 12.6119 8.61193 12.5 8.75 12.5V10.5C7.50736 10.5 6.5 11.5074 6.5 12.75H8.5ZM8.75 12.5C8.88807 12.5 9 12.6119 9 12.75H11C11 11.5074 9.99264 10.5 8.75 10.5V12.5ZM15.5 12.75C15.5 12.8881 15.3881 13 15.25 13V15C16.4926 15 17.5 13.9926 17.5 12.75H15.5ZM15.25 13C15.1119 13 15 12.8881 15 12.75H13C13 13.9926 14.0074 15 15.25 15V13ZM15 12.75C15 12.6119 15.1119 12.5 15.25 12.5V10.5C14.0074 10.5 13 11.5074 13 12.75H15ZM15.25 12.5C15.3881 12.5 15.5 12.6119 15.5 12.75H17.5C17.5 11.5074 16.4926 10.5 15.25 10.5V12.5Z" fill="#28293D"/>
</svg>
