<svg width="24" height="24" viewBox="0 0 24 24" fill="none" xmlns="http://www.w3.org/2000/svg">
<path d="M3 14V13H1.99999L2 14L3 14ZM3 10L2 9.99999L1.99999 11H3V10ZM21 14H22V13H21V14ZM21 10V11H22V10H21ZM4.00003 6H20V4H4.00003V6ZM20 18H4.00003V20H20V18ZM4 12C4 12.5523 3.55228 13 3 13V15C4.65685 15 6 13.6569 6 12H4ZM3 11C3.55228 11 4 11.4477 4 12H6C6 10.3431 4.65685 9 3 9V11ZM21 13C20.4477 13 20 12.5523 20 12H18C18 13.6569 19.3431 15 21 15V13ZM20 12C20 11.4477 20.4477 11 21 11V9C19.3431 9 18 10.3431 18 12H20ZM2 14L2.00003 18L4.00003 18L4 14L2 14ZM4 10L4.00003 6L2.00003 5.99999L2 9.99999L4 10ZM20 6V10H22V6H20ZM20 14V18H22V14H20ZM4.00003 18H4.00003L2.00003 18C2.00004 19.1046 2.89547 20 4.00003 20V18ZM20 20C21.1046 20 22 19.1046 22 18H20V20ZM20 6H20H22C22 4.89543 21.1046 4 20 4V6ZM4.00003 4C2.89547 4 2.00004 4.89542 2.00003 5.99999L4.00003 6L4.00003 6V4Z" fill="#28293D"/>
<path d="M11.9074 10.7433L12 10.5283L12.0926 10.7433C12.2808 11.1804 12.6928 11.4796 13.1665 11.5236L13.3997 11.5452L13.2238 11.6997C12.8663 12.0138 12.709 12.498 12.8136 12.9622L12.8651 13.1907L12.6637 13.0711C12.2546 12.8282 11.7454 12.8282 11.3363 13.0711L11.1349 13.1907L11.1864 12.9622C11.291 12.498 11.1337 12.0138 10.7762 11.6997L10.6003 11.5452L10.8335 11.5236C11.3073 11.4796 11.7192 11.1804 11.9074 10.7433Z" stroke="#28293D" stroke-width="2" stroke-linecap="round" stroke-linejoin="round"/>
</svg>
