<svg width="24" height="24" viewBox="0 0 24 24" fill="none" xmlns="http://www.w3.org/2000/svg">
<path d="M2.29289 7.70711C1.90237 7.31658 1.90237 6.68342 2.29289 6.29289C2.68342 5.90237 3.31658 5.90237 3.70711 6.29289L2.29289 7.70711ZM12 16L12.7071 16.7071L12 17.4142L11.2929 16.7071L12 16ZM20.2929 6.29289C20.6834 5.90237 21.3166 5.90237 21.7071 6.29289C22.0976 6.68342 22.0976 7.31658 21.7071 7.70711L20.2929 6.29289ZM3.70711 6.29289L12.7071 15.2929L11.2929 16.7071L2.29289 7.70711L3.70711 6.29289ZM11.2929 15.2929L20.2929 6.29289L21.7071 7.70711L12.7071 16.7071L11.2929 15.2929Z" fill="#28293D"/>
</svg>
