<svg width="24" height="24" viewBox="0 0 24 24" fill="none" xmlns="http://www.w3.org/2000/svg">
<path d="M12 4L12.7071 3.29289L12 2.58579L11.2929 3.29289L12 4ZM12 20L11.2929 20.7071L12 21.4142L12.7071 20.7071L12 20ZM8.70711 8.70711L12.7071 4.70711L11.2929 3.29289L7.29289 7.29289L8.70711 8.70711ZM11.2929 4.70711L15.2929 8.70711L16.7071 7.29289L12.7071 3.29289L11.2929 4.70711ZM7.29289 16.7071L11.2929 20.7071L12.7071 19.2929L8.70711 15.2929L7.29289 16.7071ZM12.7071 20.7071L16.7071 16.7071L15.2929 15.2929L11.2929 19.2929L12.7071 20.7071Z" fill="#28293D"/>
</svg>
