<svg width="24" height="24" viewBox="0 0 24 24" fill="none" xmlns="http://www.w3.org/2000/svg">
<path d="M2 7.6C2.23613 7.6 2.47883 7.67704 2.78796 7.84191C3.12 8.019 3.42445 8.23494 3.87304 8.511C4.73408 9.04086 5.84511 9.6 7.5 9.6V8.4C6.15489 8.4 5.26592 7.95914 4.50196 7.489C4.13805 7.26506 3.72375 6.981 3.35267 6.78309C2.95867 6.57296 2.51387 6.4 2 6.4V7.6ZM22 7.4C21.7291 7.4 21.4646 7.33336 21.1525 7.20854C20.8182 7.0748 20.5085 6.91041 20.0639 6.70522C19.2042 6.3084 18.1159 5.9 16.5 5.9V7.1C17.8841 7.1 18.7958 7.4416 19.5611 7.79478C19.929 7.96459 20.3381 8.1752 20.7069 8.32271C21.0979 8.47914 21.5209 8.6 22 8.6V7.4ZM7.5 9.6C9.14244 9.6 10.7579 8.91755 12.2308 8.30385C13.7579 7.66755 15.1424 7.1 16.5 7.1V5.9C14.8576 5.9 13.2421 6.58245 11.7692 7.19615C10.2421 7.83245 8.85756 8.4 7.5 8.4V9.6ZM2 12.1C2.23613 12.1 2.47883 12.177 2.78796 12.3419C3.12 12.519 3.42445 12.7349 3.87304 13.011C4.73408 13.5409 5.84511 14.1 7.5 14.1V12.9C6.15489 12.9 5.26592 12.4591 4.50196 11.989C4.13805 11.7651 3.72375 11.481 3.35267 11.2831C2.95867 11.073 2.51387 10.9 2 10.9V12.1ZM22 11.9C21.7291 11.9 21.4646 11.8334 21.1525 11.7085C20.8182 11.5748 20.5085 11.4104 20.0639 11.2052C19.2042 10.8084 18.1159 10.4 16.5 10.4V11.6C17.8841 11.6 18.7958 11.9416 19.5611 12.2948C19.929 12.4646 20.3381 12.6752 20.7069 12.8227C21.0979 12.9791 21.5209 13.1 22 13.1V11.9ZM7.5 14.1C9.14244 14.1 10.7579 13.4176 12.2308 12.8038C13.7579 12.1676 15.1424 11.6 16.5 11.6V10.4C14.8576 10.4 13.2421 11.0824 11.7692 11.6962C10.2421 12.3324 8.85756 12.9 7.5 12.9V14.1ZM2 16.6C2.23613 16.6 2.47883 16.677 2.78796 16.8419C3.12 17.019 3.42445 17.2349 3.87304 17.511C4.73408 18.0409 5.84511 18.6 7.5 18.6V17.4C6.15489 17.4 5.26592 16.9591 4.50196 16.489C4.13805 16.2651 3.72375 15.981 3.35267 15.7831C2.95867 15.573 2.51387 15.4 2 15.4V16.6ZM22 16.4C21.7291 16.4 21.4646 16.3334 21.1525 16.2085C20.8182 16.0748 20.5085 15.9104 20.0639 15.7052C19.2042 15.3084 18.1159 14.9 16.5 14.9V16.1C17.8841 16.1 18.7958 16.4416 19.5611 16.7948C19.929 16.9646 20.3381 17.1752 20.7069 17.3227C21.0979 17.4791 21.5209 17.6 22 17.6V16.4ZM7.5 18.6C9.14244 18.6 10.7579 17.9176 12.2308 17.3038C13.7579 16.6676 15.1424 16.1 16.5 16.1V14.9C14.8576 14.9 13.2421 15.5824 11.7692 16.1962C10.2421 16.8324 8.85756 17.4 7.5 17.4V18.6Z" fill="#555770"/>
</svg>
