<svg width="24" height="24" viewBox="0 0 24 24" fill="none" xmlns="http://www.w3.org/2000/svg">
<mask id="path-1-inside-1_402_12421" fill="white">
<path d="M1 12C1 18.0751 5.92487 23 12 23C16.1671 23 19.793 20.6828 21.6596 17.2667C22.0533 16.5461 21.3315 15.7838 20.518 15.8961C20.0218 15.9646 19.515 16 19 16C12.9249 16 8 11.0751 8 4.99997C8 4.48493 8.0354 3.97816 8.10389 3.48195C8.21618 2.66849 7.45385 1.94668 6.73324 2.34042C3.31713 4.20697 1 7.83287 1 12Z"/>
</mask>
<path d="M8.10389 3.48195L9.29262 3.64604L9.29262 3.64604L8.10389 3.48195ZM6.73324 2.34042L7.30862 3.39348L7.30862 3.39348L6.73324 2.34042ZM20.518 15.8961L20.6821 17.0848L20.6821 17.0848L20.518 15.8961ZM21.6596 17.2667L22.7126 17.8421L22.7126 17.8421L21.6596 17.2667ZM12 21.8C6.58761 21.8 2.2 17.4124 2.2 12H-0.2C-0.2 18.7378 5.26213 24.2 12 24.2V21.8ZM19 14.8C13.5876 14.8 9.2 10.4124 9.2 4.99997H6.8C6.8 11.7378 12.2621 17.2 19 17.2V14.8ZM9.2 4.99997C9.2 4.53998 9.23161 4.08803 9.29262 3.64604L6.91516 3.31786C6.83918 3.86829 6.8 4.42988 6.8 4.99997H9.2ZM2.2 12C2.2 8.28908 4.2621 5.05809 7.30862 3.39348L6.15785 1.28736C2.37217 3.35585 -0.2 7.37666 -0.2 12H2.2ZM20.3539 14.7074C19.9119 14.7684 19.46 14.8 19 14.8V17.2C19.5701 17.2 20.1317 17.1608 20.6821 17.0848L20.3539 14.7074ZM20.6065 16.6914C18.9419 19.7379 15.7109 21.8 12 21.8V24.2C16.6233 24.2 20.6441 21.6278 22.7126 17.8421L20.6065 16.6914ZM20.6821 17.0848C20.678 17.0854 20.6638 17.0884 20.6378 17.0586C20.6202 17.0384 20.5864 16.9889 20.5743 16.9064C20.5609 16.8146 20.5826 16.735 20.6065 16.6914L22.7126 17.8421C23.1836 16.9801 22.9613 16.0704 22.4452 15.4796C21.9533 14.9165 21.1715 14.5945 20.3539 14.7074L20.6821 17.0848ZM9.29262 3.64604C9.40548 2.82845 9.08347 2.04667 8.52038 1.55476C7.9296 1.03866 7.01982 0.816385 6.15785 1.28736L7.30862 3.39348C7.26496 3.41734 7.18538 3.43908 7.09359 3.42566C7.01105 3.41359 6.96155 3.37979 6.94142 3.36221C6.91158 3.33614 6.91459 3.32199 6.91516 3.31786L9.29262 3.64604Z" fill="#555770" mask="url(#path-1-inside-1_402_12421)"/>
</svg>
