<svg width="24" height="24" viewBox="0 0 24 24" fill="none" xmlns="http://www.w3.org/2000/svg">
<mask id="mask0_402_12357" style="mask-type:alpha" maskUnits="userSpaceOnUse" x="0" y="0" width="24" height="23">
<path d="M13.5 12H6L0 23V0H24V23H13.5V12Z" fill="white"/>
</mask>
<g mask="url(#mask0_402_12357)">
<path d="M8.5 18.4C4.68924 18.4 1.6 15.3108 1.6 11.5C1.6 7.68924 4.68924 4.6 8.5 4.6C11.2739 4.6 13.6668 6.23689 14.763 8.60005C14.9209 8.94053 15.3178 9.09546 15.6637 8.95554L15.4387 8.39932L15.6637 8.95554C16.23 8.72644 16.8495 8.6 17.5 8.6C20.2062 8.6 22.4 10.7938 22.4 13.5C22.4 16.2062 20.2062 18.4 17.5 18.4H8.5Z" stroke="#555770" stroke-width="1.2"/>
</g>
<path d="M11.5 15.3125L5.5 19.6875M5.5 15.3125L11.5 19.6875M8.5 14V21" stroke="#555770" stroke-width="1.2"/>
<path d="M17.3146 2.06551L17.5226 1.50274L17.3146 2.06551ZM16.81 3.76862C16.81 3.27779 16.7401 2.80433 16.6099 2.35716L17.7621 2.02187C17.9236 2.57687 18.01 3.16317 18.01 3.76862H16.81ZM20.4 7.3586C20.4 5.18979 19.0302 3.3394 17.1065 2.62829L17.5226 1.50274C19.9021 2.38236 21.6 4.67144 21.6 7.3586H20.4ZM14.2091 8.18114C15.7614 7.32052 16.81 5.66661 16.81 3.76862H18.01C18.01 6.12017 16.7093 8.1671 14.7909 9.23064L14.2091 8.18114ZM19.8147 9.71867C20.1882 9.01518 20.4 8.21251 20.4 7.3586H21.6C21.6 8.41341 21.3378 9.40877 20.8746 10.2813L19.8147 9.71867ZM16.6099 2.35716C16.4603 1.84293 16.947 1.28996 17.5226 1.50274L17.1065 2.62829C17.5281 2.78412 17.8659 2.37841 17.7621 2.02187L16.6099 2.35716Z" fill="#555770"/>
</svg>
