<svg width="24" height="24" viewBox="0 0 24 24" fill="none" xmlns="http://www.w3.org/2000/svg">
<mask id="mask0_402_12345" style="mask-type:alpha" maskUnits="userSpaceOnUse" x="0" y="0" width="24" height="23">
<path d="M13.5 12H6L0 23V0H15L10 11.5H14.5V16.5H16.5L24 9V23H13.5V12Z" fill="white"/>
</mask>
<g mask="url(#mask0_402_12345)">
<path d="M8.5 18.4C4.68924 18.4 1.6 15.3108 1.6 11.5C1.6 7.68924 4.68924 4.6 8.5 4.6C11.2739 4.6 13.6668 6.23689 14.763 8.60005C14.9209 8.94053 15.3178 9.09546 15.6637 8.95554L15.4387 8.39932L15.6637 8.95554C16.23 8.72644 16.8495 8.6 17.5 8.6C20.2062 8.6 22.4 10.7938 22.4 13.5C22.4 16.2062 20.2062 18.4 17.5 18.4H8.5Z" stroke="#555770" stroke-width="1.2"/>
</g>
<path d="M11.5 15.3125L5.5 19.6875M5.5 15.3125L11.5 19.6875M8.5 14V21" stroke="#555770" stroke-width="1.2"/>
<path d="M16.7368 3V2.4C16.4963 2.4 16.279 2.54366 16.1848 2.76497L16.7368 3ZM14 9.42857L13.4479 9.19355C13.369 9.37888 13.3884 9.59144 13.4995 9.75947C13.6106 9.9275 13.7986 10.0286 14 10.0286V9.42857ZM16.7544 9.42857L17.3097 9.65588C17.3854 9.47083 17.364 9.26021 17.2526 9.09419C17.1411 8.92817 16.9543 8.82857 16.7544 8.82857V9.42857ZM14.4737 15L13.9184 14.7727C13.8096 15.0385 13.9044 15.344 14.1445 15.5016C14.3845 15.6592 14.7026 15.6245 14.9031 15.419L14.4737 15ZM22 7.28571L22.4295 7.70471C22.598 7.53198 22.6466 7.27508 22.5529 7.05269C22.4592 6.8303 22.2413 6.68571 22 6.68571V7.28571ZM18.1228 7.28571L17.6171 6.96279C17.4992 7.1475 17.4913 7.38182 17.5966 7.57402C17.7019 7.76622 17.9036 7.88571 18.1228 7.88571V7.28571ZM20.8596 3L21.3653 3.32293C21.4833 3.13822 21.4912 2.90389 21.3858 2.71169C21.2805 2.51949 21.0788 2.4 20.8596 2.4V3ZM16.1848 2.76497L13.4479 9.19355L14.5521 9.6636L17.2889 3.23503L16.1848 2.76497ZM14 10.0286H16.7544V8.82857H14V10.0286ZM16.1991 9.20127L13.9184 14.7727L15.029 15.2273L17.3097 9.65588L16.1991 9.20127ZM14.9031 15.419L22.4295 7.70471L21.5705 6.86672L14.0442 14.581L14.9031 15.419ZM22 6.68571H18.1228V7.88571H22V6.68571ZM18.6285 7.60864L21.3653 3.32293L20.354 2.67707L17.6171 6.96279L18.6285 7.60864ZM20.8596 2.4H16.7368V3.6H20.8596V2.4Z" fill="#555770"/>
</svg>
