<svg width="24" height="24" viewBox="0 0 24 24" fill="none" xmlns="http://www.w3.org/2000/svg">
<path fill-rule="evenodd" clip-rule="evenodd" d="M8.77816 9.31088H9.27522L9.62669 8.9594L12 6.58609L14.3733 8.9594L14.7248 9.31088H15.2218H18.5782V12.6672V13.1643L18.9296 13.5157L21.3029 15.889L19.2811 17.9109H17.2479C17.0053 18.3471 16.71 18.75 16.3705 19.1109H19.7782L22.1515 16.7376L23 15.889L22.1515 15.0405L19.7782 12.6672V9.31088V8.11088H18.5782H15.2218L12.8485 5.73757L12 4.88904L11.1515 5.73757L8.77816 8.11088H5.42183H4.22183V9.31088V12.6672L1.84853 15.0405L1 15.889L1.84853 16.7376L4.22183 19.1109H7.62953C7.29 18.75 6.99466 18.3472 6.75214 17.9109H4.71888L2.69706 15.889L5.07035 13.5157L5.42183 13.1643V12.6672V9.31088H8.77816Z" fill="#555770"/>
<path d="M2 18.5H22M12 17V12M12 12L11 13H13L12 12Z" stroke="#555770" stroke-width="1.2"/>
</svg>
