<svg width="24" height="24" viewBox="0 0 24 24" fill="none" xmlns="http://www.w3.org/2000/svg">
<path d="M6 17.05L6.11936 17.638L6 17.05ZM7 17.05L6.88064 17.638L7 17.05ZM15 3V2.4H14.4V3H15ZM8.4 19.5C8.4 20.5493 7.54934 21.4 6.5 21.4V22.6C8.21208 22.6 9.6 21.2121 9.6 19.5H8.4ZM6.5 21.4C5.45066 21.4 4.6 20.5493 4.6 19.5H3.4C3.4 21.2121 4.78792 22.6 6.5 22.6V21.4ZM4.6 19.5C4.6 18.5815 5.25236 17.814 6.11936 17.638L5.88064 16.462C4.4654 16.7493 3.4 17.9995 3.4 19.5H4.6ZM6.11936 17.638C6.24185 17.6132 6.36908 17.6 6.5 17.6V16.4C6.28846 16.4 6.08126 16.4213 5.88064 16.462L6.11936 17.638ZM6.6 17.05V3.5H5.4V17.05H6.6ZM6.5 17.6C6.63092 17.6 6.75815 17.6132 6.88064 17.638L7.11936 16.462C6.91874 16.4213 6.71154 16.4 6.5 16.4V17.6ZM6.88064 17.638C7.74764 17.814 8.4 18.5815 8.4 19.5H9.6C9.6 17.9995 8.5346 16.7493 7.11936 16.462L6.88064 17.638ZM6.4 3.5V17.05H7.6V3.5H6.4ZM6.5 3.6C6.44477 3.6 6.4 3.55523 6.4 3.5H7.6C7.6 2.89249 7.10751 2.4 6.5 2.4V3.6ZM6.6 3.5C6.6 3.55523 6.55523 3.6 6.5 3.6V2.4C5.89249 2.4 5.4 2.89249 5.4 3.5H6.6ZM15 3.6H20V2.4H15V3.6ZM14.4 3V7H15.6V3H14.4ZM14.4 7V11H15.6V7H14.4ZM15 7.6H19V6.4H15V7.6Z" fill="#555770"/>
<circle cx="10.5" cy="3.5" r="0.9" stroke="#555770" stroke-width="1.2"/>
</svg>
