<svg width="24" height="24" viewBox="0 0 24 24" fill="none" xmlns="http://www.w3.org/2000/svg">
<path d="M10.6154 3.79265L9.95318 3.13043C8.44594 1.62319 6.00222 1.62319 4.49498 3.13043L3.13043 4.49498C1.62319 6.00222 1.62319 8.44594 3.13043 9.95318L3.79262 10.6154M20.1672 13.3445L20.8696 14.0468C22.3768 15.5541 22.3768 17.9978 20.8696 19.505L19.505 20.8696C17.9978 22.3768 15.5541 22.3768 14.0468 20.8696L13.3445 20.1672M9.25084 13.3445L10.6154 14.709C10.9922 15.0858 11.6031 15.0858 11.9799 14.709L14.709 11.9799C15.0859 11.6031 15.0859 10.9922 14.709 10.6154L13.3445 9.25081C12.9677 8.874 12.3568 8.874 11.9799 9.25081L9.25084 11.9799C8.87403 12.3567 8.87403 12.9677 9.25084 13.3445Z" stroke="#3E7BFA" stroke-width="2"/>
<path d="M14.0468 3.13043C15.5541 1.62319 17.9978 1.62319 19.505 3.13043L20.8696 4.49498C22.3768 6.00222 22.3768 8.44594 20.8696 9.95318L18.8227 12L12 18.8227L9.95318 20.8696C8.44594 22.3768 6.00222 22.3768 4.49498 20.8696L3.13043 19.505C1.62319 17.9978 1.62319 15.5541 3.13043 14.0468L5.17725 12L12 5.17725L14.0468 3.13043Z" stroke="#555770" stroke-width="2"/>
</svg>
