<svg width="24" height="24" viewBox="0 0 24 24" fill="none" xmlns="http://www.w3.org/2000/svg">
<path d="M5.69629 17.3041L5.0119 16.575L4.00489 17.5202L5.21723 18.1818L5.69629 17.3041ZM22.0004 2L22.7295 2.68439C23.099 2.29069 23.0893 1.67471 22.7075 1.29289C22.3256 0.911074 21.7097 0.901333 21.316 1.27089L22.0004 2ZM6.69629 18.3041L5.81851 18.7831L6.48016 19.9955L7.4254 18.9885L6.69629 18.3041ZM6.38068 18.0332L22.6847 2.72911L21.316 1.27089L5.0119 16.575L6.38068 18.0332ZM21.2712 1.31561L5.96718 17.6197L7.4254 18.9885L22.7295 2.68439L21.2712 1.31561ZM5.21723 18.1818C5.47055 18.3201 5.68025 18.5298 5.81851 18.7831L7.57407 17.825C7.252 17.2349 6.76548 16.7484 6.17535 16.4263L5.21723 18.1818Z" fill="#3E7BFA"/>
<path d="M5.69593 17.3041L5.21687 18.1818L5.69593 17.3041ZM6.69593 18.3041L5.81815 18.7831L6.69593 18.3041ZM6 19.5C6 20.3284 5.32843 21 4.5 21V23C6.433 23 8 21.433 8 19.5H6ZM4.5 21C3.67157 21 3 20.3284 3 19.5H1C1 21.433 2.567 23 4.5 23V21ZM3 19.5C3 18.6716 3.67157 18 4.5 18V16C2.567 16 1 17.567 1 19.5H3ZM5.81815 18.7831C5.93385 18.9951 6 19.2383 6 19.5H8C8 18.8952 7.84577 18.3235 7.57371 17.825L5.81815 18.7831ZM4.5 18C4.76166 18 5.00487 18.0661 5.21687 18.1818L6.17499 16.4263C5.6765 16.1542 5.10477 16 4.5 16V18ZM5.21687 18.1818C5.47019 18.3201 5.6799 18.5298 5.81815 18.7831L7.57371 17.825C7.25164 17.2349 6.76512 16.7484 6.17499 16.4263L5.21687 18.1818Z" fill="#555770"/>
</svg>
