<svg width="24" height="24" viewBox="0 0 24 24" fill="none" xmlns="http://www.w3.org/2000/svg">
<path d="M6 11C6.39594 10.6041 7.36376 9.99743 9 9.42679M17 8C13.4309 8.20995 10.8076 8.79641 9 9.42679M9 9.42679V7C9 5.89543 9.89543 5 11 5H12C13.1046 5 14 5.89543 14 7V8.28699" stroke="#3E7BFA" stroke-width="2"/>
<path d="M6 11L7.14618 19.4053C7.34888 20.8918 8.61846 22 10.1187 22H12.8813C14.3815 22 15.6511 20.8918 15.8538 19.4053L17 11V8M6 11V5C6 3.34315 7.34315 2 9 2H14C15.6569 2 17 3.34315 17 5V8M6 11C7.63073 11 11.24 11.6701 12.8936 14.3218C12.9379 14.3928 13.0456 14.3859 13.0767 14.3081C14.071 11.8198 15.4405 8.38988 17 8M6 11C6.39594 10.6041 7.36376 9.99743 9 9.42679C10.8076 8.79641 13.4309 8.20995 17 8" stroke="#555770" stroke-width="2"/>
</svg>
