<svg width="24" height="24" viewBox="0 0 24 24" fill="none" xmlns="http://www.w3.org/2000/svg">
<path d="M21 18.5V7.75961C21 6.00806 20.2346 4.34396 18.9047 3.20407L17.5 2L16.0953 3.20407C14.7654 4.34396 14 6.00806 14 7.75961V15" stroke="#3E7BFA" stroke-width="2"/>
<path d="M6.5 22H17.5C19.433 22 21 20.433 21 18.5C21 16.567 19.433 15 17.5 15H14H6.5C4.567 15 3 16.567 3 18.5C3 20.433 4.567 22 6.5 22Z" stroke="#555770" stroke-width="2"/>
<path d="M6 18.5H9M18 18.5V18.5C18 18.7761 17.7761 19 17.5 19V19C17.2239 19 17 18.7761 17 18.5V18.5C17 18.2239 17.2239 18 17.5 18V18C17.7761 18 18 18.2239 18 18.5Z" stroke="#3E7BFA" stroke-width="2"/>
</svg>
