<svg width="24" height="24" viewBox="0 0 24 24" fill="none" xmlns="http://www.w3.org/2000/svg">
<path d="M5.54058 11.5H4.52441V12L11.6376 12V11.5H10.6214M5.54058 11.5V8.1C5.54058 8.04477 5.58608 8 5.6422 8H10.5198C10.5759 8 10.6214 8.04477 10.6214 8.1V11.5M5.54058 11.5H10.6214M6.55675 8C6.55675 7.44772 6.1018 7 5.54058 7C4.97937 7 4.52441 7.44772 4.52441 8C4.52441 8.55228 4.97937 9 5.54058 9" stroke="#3E7BFA" stroke-width="2"/>
<path d="M13.1617 12V20.8687C13.1617 21.4935 12.6409 22 11.9985 22L4.16321 22C3.52079 22 3 21.4935 3 20.8687V12H4.52425L11.6374 12H13.1617ZM13.1617 12L18.4434 3L21.4182 4.69701C21.9746 5.00942 22.1652 5.70134 21.844 6.24245L17.7727 13.1008C17.4515 13.642 16.7401 13.8274 16.1838 13.5149L13.1617 12Z" stroke="#555770" stroke-width="2"/>
</svg>
