<svg width="24" height="24" viewBox="0 0 24 24" fill="none" xmlns="http://www.w3.org/2000/svg">
<circle cx="12" cy="12" r="10.4" stroke="#555770" stroke-width="1.2"/>
<mask id="path-2-inside-1_402_13721" fill="white">
<path d="M17 13.5L12 8.5L7 13.5H17Z"/>
</mask>
<path d="M12 8.5L12.8485 7.65147L12 6.80294L11.1515 7.65147L12 8.5ZM17 13.5V14.7H19.8971L17.8485 12.6515L17 13.5ZM7 13.5L6.15147 12.6515L4.10294 14.7H7V13.5ZM11.1515 9.34853L16.1515 14.3485L17.8485 12.6515L12.8485 7.65147L11.1515 9.34853ZM17 12.3H7V14.7H17V12.3ZM7.84853 14.3485L12.8485 9.34853L11.1515 7.65147L6.15147 12.6515L7.84853 14.3485Z" fill="#555770" mask="url(#path-2-inside-1_402_13721)"/>
</svg>
