<svg width="24" height="24" viewBox="0 0 24 24" fill="none" xmlns="http://www.w3.org/2000/svg">
<g clip-path="url(#clip0_402_13686)">
<mask id="mask0_402_13686" style="mask-type:alpha" maskUnits="userSpaceOnUse" x="0" y="0" width="24" height="24">
<path d="M12 -5.24537e-07L12 6L10 6L10 -6.11959e-07L0 -1.04907e-06L-1.04907e-06 24L12 24L12 18L14 18L14 24L24 24L24 0L12 -5.24537e-07Z" fill="white"/>
</mask>
<g mask="url(#mask0_402_13686)">
<path d="M12 20C7.58172 20 4 16.4183 4 12C4 9.57466 5.07927 7.4014 6.78374 5.93429M12 4C16.4183 4 20 7.58172 20 12C20 14.4556 18.8937 16.6527 17.1522 18.1202" stroke="#555770" stroke-width="1.2"/>
<path d="M14.6 20.4L14.6 15.4485L19.5515 20.4L14.6 20.4Z" stroke="#555770" stroke-width="1.2"/>
<path d="M9.4 3.6L9.4 8.55147L4.44853 3.6L9.4 3.6Z" stroke="#555770" stroke-width="1.2"/>
</g>
</g>
<defs>
<clipPath id="clip0_402_13686">
<rect width="24" height="24" fill="white"/>
</clipPath>
</defs>
</svg>
