<svg width="24" height="24" viewBox="0 0 24 24" fill="none" xmlns="http://www.w3.org/2000/svg">
<path d="M21 12L21.4242 12.4243L21.8485 12L21.4242 11.5757L21 12ZM12 21L11.5757 21.4242L12 21.8485L12.4243 21.4242L12 21ZM12 3L12.4243 2.57574L12 2.15147L11.5757 2.57574L12 3ZM3 12L2.57574 11.5757L2.15147 12L2.57574 12.4243L3 12ZM17.2007 9.04926L20.5757 12.4243L21.4242 11.5757L18.0492 8.20073L17.2007 9.04926ZM12.4243 20.5757L9.04926 17.2007L8.20073 18.0492L11.5757 21.4242L12.4243 20.5757ZM20.5757 11.5757L17.2007 14.9507L18.0492 15.7992L21.4242 12.4243L20.5757 11.5757ZM9.04926 6.79926L12.4243 3.42426L11.5757 2.57574L8.20073 5.95073L9.04926 6.79926ZM14.9507 17.2007L11.5757 20.5757L12.4243 21.4242L15.7992 18.0492L14.9507 17.2007ZM3.42426 12.4243L6.79926 9.04926L5.95073 8.20073L2.57574 11.5757L3.42426 12.4243ZM11.5757 3.42426L14.9507 6.79926L15.7992 5.95073L12.4243 2.57574L11.5757 3.42426ZM6.79926 14.9507L3.42426 11.5757L2.57574 12.4243L5.95073 15.7992L6.79926 14.9507ZM11.4 3V9H12.6V3H11.4ZM3 12.6H8.99999V11.4H3V12.6ZM12.6 21V15H11.4V21H12.6ZM21 11.4H15V12.6H21V11.4Z" fill="#555770"/>
</svg>
