<svg width="24" height="24" viewBox="0 0 24 24" fill="none" xmlns="http://www.w3.org/2000/svg">
<path d="M12 4L12.4243 3.57574L12 3.15147L11.5757 3.57574L12 4ZM12 20L11.5757 20.4243L12 20.8485L12.4243 20.4243L12 20ZM8.42426 8.42426L12.4243 4.42426L11.5757 3.57574L7.57574 7.57574L8.42426 8.42426ZM11.5757 4.42426L15.5757 8.42426L16.4243 7.57574L12.4243 3.57574L11.5757 4.42426ZM7.57574 16.4243L11.5757 20.4243L12.4243 19.5757L8.42426 15.5757L7.57574 16.4243ZM12.4243 20.4243L16.4243 16.4243L15.5757 15.5757L11.5757 19.5757L12.4243 20.4243Z" fill="#555770"/>
</svg>
