<svg width="24" height="24" viewBox="0 0 24 24" fill="none" xmlns="http://www.w3.org/2000/svg">
<circle cx="12" cy="12" r="9" stroke="#555770" stroke-width="2"/>
<path d="M16.3021 15L17.0599 15.6525C17.315 15.3562 17.3741 14.9385 17.2111 14.5832C17.0482 14.2278 16.6931 14 16.3021 14V15ZM7.69727 15V14C7.30633 14 6.95124 14.2278 6.78828 14.5832C6.62533 14.9385 6.68439 15.3562 6.93947 15.6525L7.69727 15ZM15.5443 14.3475C14.6644 15.3695 13.3988 16 11.9997 16V18C14.0197 18 15.826 17.0855 17.0599 15.6525L15.5443 14.3475ZM11.9997 16C10.6006 16 9.33502 15.3695 8.45506 14.3475L6.93947 15.6525C8.17338 17.0855 9.97967 18 11.9997 18V16ZM16.3021 14H7.69727V16H16.3021V14Z" fill="#3E7BFA"/>
<path d="M9 11C8.44772 11 8 10.5523 8 10C8 9.44772 8.44772 9 9 9C9.55228 9 10 9.44772 10 10C10 10.5523 9.55228 11 9 11ZM15 11C14.4477 11 14 10.5523 14 10C14 9.44772 14.4477 9 15 9C15.5523 9 16 9.44772 16 10C16 10.5523 15.5523 11 15 11Z" stroke="#3E7BFA" stroke-width="2"/>
</svg>
