<svg width="24" height="24" viewBox="0 0 24 24" fill="none" xmlns="http://www.w3.org/2000/svg">
<circle cx="12" cy="12" r="9" stroke="#555770" stroke-width="2"/>
<path d="M7.6972 16.5C8.75413 15.2725 10.2901 14.5 11.9996 14.5C13.7092 14.5 15.2451 15.2725 16.3021 16.5" stroke="#3E7BFA" stroke-width="2"/>
<path d="M9 11C8.44772 11 8 10.5523 8 10C8 9.90331 8.01369 9.80972 8.03933 9.72112L9.27889 10.9607C9.19029 10.9863 9.0967 11 9 11ZM16 10C16 10.5523 15.5523 11 15 11C14.9033 11 14.8097 10.9863 14.7211 10.9607L15.9607 9.72112C15.9863 9.80972 16 9.90331 16 10Z" stroke="#3E7BFA" stroke-width="2"/>
</svg>
