<svg width="24" height="24" viewBox="0 0 24 24" fill="none" xmlns="http://www.w3.org/2000/svg">
<path d="M11 17L10.2929 17.7071L11 18.4142L11.7071 17.7071L11 17ZM20 5V8.95H22V5H20ZM4 8.95V5H2V8.95H4ZM21 7.95H3V9.95H21V7.95ZM4 20V8.95H2V20H4ZM4 22H20V20H4V22ZM22 20V8.95H20V20H22ZM4 5H7V3H4V5ZM8 4V1H6V4H8ZM7 5H17V3H7V5ZM17 5H20V3H17V5ZM18 4V1H16V4H18ZM11.7071 17.7071L17.2071 12.2071L15.7929 10.7929L10.2929 16.2929L11.7071 17.7071ZM11.7071 16.2929L8.70711 13.2929L7.29289 14.7071L10.2929 17.7071L11.7071 16.2929ZM2 20C2 21.1046 2.89543 22 4 22V20L4 20H2ZM20 22C21.1046 22 22 21.1046 22 20H20L20 20V22ZM22 5C22 3.89543 21.1046 3 20 3V5V5H22ZM4 5V5V3C2.89543 3 2 3.89543 2 5H4Z" fill="#555770"/>
</svg>
