<svg width="24" height="24" viewBox="0 0 24 24" fill="none" xmlns="http://www.w3.org/2000/svg">
<g clip-path="url(#clip0_402_16134)">
<mask id="mask0_402_16134" style="mask-type:alpha" maskUnits="userSpaceOnUse" x="0" y="0" width="24" height="24">
<path d="M19.7839 19.7807L4 3.99675H0V24H24V0H5.69812V2.86644L21.1981 18.3664L19.7839 19.7807Z" fill="white"/>
</mask>
<g mask="url(#mask0_402_16134)">
<path d="M12 3C7.02944 3 3 7.02944 3 12C3 16.9706 7.02944 21 12 21C16.9706 21 21 16.9706 21 12C21 9.76925 20.1884 7.72806 18.8444 6.15559M12 3C14.7398 3 17.1937 4.22427 18.8444 6.15559M12 3V2M12 6.5V13M21 4L18.8444 6.15559M12 2H10M12 2H14" stroke="#555770" stroke-width="2"/>
</g>
<path d="M3.52441 4.94153L19.0244 20.4415" stroke="#555770" stroke-width="2"/>
</g>
<defs>
<clipPath id="clip0_402_16134">
<rect width="24" height="24" fill="white"/>
</clipPath>
</defs>
</svg>
