<svg width="24" height="24" viewBox="0 0 24 24" fill="none" xmlns="http://www.w3.org/2000/svg">
<path d="M12 3L12.4578 2.61215L12.0143 2.08873L11.5546 2.59794L12 3ZM6.58333 9L6.13797 8.59794L5.23333 9.6H6.58333V9ZM10 9L10.4609 9.38411C10.61 9.20526 10.6421 8.95634 10.5434 8.74551C10.4446 8.53468 10.2328 8.4 10 8.4V9ZM5 15L4.53907 14.6159L3.71897 15.6H5V15ZM9 15L9.46093 15.3841C9.60997 15.2053 9.6421 14.9563 9.54335 14.7455C9.44461 14.5347 9.23281 14.4 9 14.4V15ZM4 21L3.53907 20.6159L2.71897 21.6H4V21ZM17.0833 9V9.6H18.3781L17.5411 8.61215L17.0833 9ZM14 9V8.4C13.7672 8.4 13.5554 8.53468 13.4566 8.74551C13.3579 8.95634 13.39 9.20526 13.5391 9.38411L14 9ZM19 15V15.6H20.281L19.4609 14.6159L19 15ZM15 15V14.4C14.7672 14.4 14.5554 14.5347 14.4566 14.7455C14.3579 14.9563 14.39 15.2053 14.5391 15.3841L15 15ZM20 21V21.6H21.281L20.4609 20.6159L20 21ZM11.5546 2.59794L6.13797 8.59794L7.02869 9.40206L12.4454 3.40206L11.5546 2.59794ZM6.58333 9.6H10V8.4H6.58333V9.6ZM9.53907 8.61589L4.53907 14.6159L5.46093 15.3841L10.4609 9.38411L9.53907 8.61589ZM5 15.6H9V14.4H5V15.6ZM8.53907 14.6159L3.53907 20.6159L4.46093 21.3841L9.46093 15.3841L8.53907 14.6159ZM11.5422 3.38785L16.6255 9.38785L17.5411 8.61215L12.4578 2.61215L11.5422 3.38785ZM17.0833 8.4H14V9.6H17.0833V8.4ZM13.5391 9.38411L18.5391 15.3841L19.4609 14.6159L14.4609 8.61589L13.5391 9.38411ZM19 14.4H15V15.6H19V14.4ZM14.5391 15.3841L19.5391 21.3841L20.4609 20.6159L15.4609 14.6159L14.5391 15.3841ZM4 21.6H20V20.4H4V21.6Z" fill="#28293D"/>
</svg>
