<svg width="24" height="24" viewBox="0 0 24 24" fill="none" xmlns="http://www.w3.org/2000/svg">
<path d="M13.5 6.1404L13.3882 6.72988L13.5 6.1404ZM7.5367 12.7833L7.96352 13.2049L7.5367 12.7833ZM16.0734 12.7832L15.6466 13.2049L16.0734 12.7832ZM19.981 14.5558L20.5796 14.5969L19.981 14.5558ZM4.6 14C4.6 10.388 7.18846 7.37927 10.6118 6.72988L10.3882 5.55091C6.40896 6.30574 3.4 9.80084 3.4 14H4.6ZM10.6118 6.72988C11.061 6.64467 11.525 6.6 12 6.6V5.4C11.4496 5.4 10.9107 5.45178 10.3882 5.55091L10.6118 6.72988ZM11.1 6.1404C11.1 5.28507 11.1065 4.6095 11.2584 4.1396C11.3288 3.92198 11.4155 3.80112 11.5042 3.73123C11.5873 3.66577 11.7287 3.6 12 3.6V2.4C11.5213 2.4 11.1002 2.52173 10.7614 2.78878C10.4282 3.0514 10.2337 3.40807 10.1166 3.7705C9.89348 4.4607 9.9 5.35532 9.9 6.1404H11.1ZM12 6.6C12.475 6.6 12.939 6.64467 13.3882 6.72988L13.6118 5.55091C13.0893 5.45178 12.5504 5.4 12 5.4V6.6ZM13.3882 6.72988C16.8115 7.37927 19.4 10.388 19.4 14H20.6C20.6 9.80084 17.591 6.30574 13.6118 5.55091L13.3882 6.72988ZM12 3.6C12.2713 3.6 12.4127 3.66577 12.4958 3.73123C12.5845 3.80112 12.6712 3.92198 12.7416 4.1396C12.8935 4.6095 12.9 5.28507 12.9 6.1404H14.1C14.1 5.35532 14.1065 4.4607 13.8834 3.7705C13.7663 3.40807 13.5718 3.0514 13.2386 2.78878C12.8998 2.52173 12.4787 2.4 12 2.4V3.6ZM12.6 3V0H11.4V3H12.6ZM11.805 11.6C13.3082 11.6 14.6669 12.2134 15.6466 13.2049L16.5002 12.3615C15.3044 11.1512 13.6419 10.4 11.805 10.4V11.6ZM7.96352 13.2049C8.94318 12.2134 10.3019 11.6 11.805 11.6V10.4C9.96822 10.4 8.30572 11.1512 7.10988 12.3616L7.96352 13.2049ZM7.10988 12.3616C6.27868 13.2029 5.17472 13.7716 3.94257 13.9249L4.09072 15.1157C5.59936 14.928 6.94932 14.2315 7.96352 13.2049L7.10988 12.3616ZM12 21.4C8.075 21.4 4.86332 18.3439 4.61541 14.4818L3.41788 14.5587C3.70607 19.0483 7.43802 22.6 12 22.6V21.4ZM4.61541 14.4818C4.60519 14.3226 4.6 14.162 4.6 14H3.4C3.4 14.1876 3.40602 14.3739 3.41788 14.5587L4.61541 14.4818ZM20.0165 13.9568C18.6438 13.8754 17.4089 13.2813 16.5002 12.3615L15.6466 13.2049C16.7556 14.3274 18.266 15.0551 19.9455 15.1547L20.0165 13.9568ZM19.4 14C19.4 14.1731 19.3941 14.3448 19.3824 14.5147L20.5796 14.5969C20.5931 14.3996 20.6 14.2005 20.6 14H19.4ZM19.3824 14.5147C19.1184 18.3612 15.9138 21.4 12 21.4V22.6C16.5491 22.6 20.2727 19.0684 20.5796 14.5969L19.3824 14.5147Z" fill="#28293D"/>
</svg>
