<svg width="24" height="24" viewBox="0 0 24 24" fill="none" xmlns="http://www.w3.org/2000/svg">
<path d="M19.1801 6.30438L19.7452 6.10258L19.1801 6.30438ZM18.9542 13.6069L19.5057 13.8433L18.9542 13.6069ZM18.621 4.73881L19.186 4.53701L18.621 4.73881ZM9.29386 4.47149L8.71695 4.30666L9.29386 4.47149ZM8.272 8.048L7.69508 7.88317L8.272 8.048ZM17.4 17.5V21H18.6V17.5H17.4ZM17 21.4H7V22.6H17V21.4ZM6.6 21V18H5.4V21H6.6ZM7 17.6H8V16.4H7V17.6ZM8.46093 16.6159L4.60196 11.9851L3.68009 12.7533L7.53907 17.3841L8.46093 16.6159ZM6.53991 9.14576L6.87098 9.25612L7.25045 8.1177L6.91938 8.00734L6.53991 9.14576ZM8.84891 8.21284L9.87077 4.63632L8.71695 4.30666L7.69508 7.88317L8.84891 8.21284ZM12.4761 2.91418L16.0935 3.36635L16.2423 2.17562L12.625 1.72345L12.4761 2.91418ZM18.056 4.94061L18.6151 6.50618L19.7452 6.10258L19.186 4.53701L18.056 4.94061ZM8 17.6H17.5V16.4H8V17.6ZM18.4027 13.3706L16.9485 16.7636L18.0515 17.2364L19.5057 13.8433L18.4027 13.3706ZM18.6151 6.50618C19.4126 8.73921 19.3367 11.1911 18.4027 13.3706L19.5057 13.8433C20.5589 11.3856 20.6445 8.62067 19.7452 6.10258L18.6151 6.50618ZM16.0935 3.36635C16.9923 3.47871 17.7513 4.08756 18.056 4.94061L19.186 4.53701C18.7291 3.25742 17.5906 2.34415 16.2423 2.17562L16.0935 3.36635ZM9.87077 4.63632C10.1959 3.49846 11.3019 2.7674 12.4761 2.91418L12.625 1.72345C10.8636 1.50328 9.2046 2.59987 8.71695 4.30666L9.87077 4.63632ZM6.87098 9.25612C7.70707 9.53481 8.6068 9.06024 8.84891 8.21284L7.69508 7.88317C7.64066 8.07366 7.4384 8.18035 7.25045 8.1177L6.87098 9.25612ZM4.4879 9.84982C4.93491 9.1793 5.7754 8.89092 6.53991 9.14576L6.91938 8.00734C5.6415 7.58138 4.23662 8.0634 3.48944 9.18418L4.4879 9.84982ZM7 21.4C6.77909 21.4 6.6 21.2209 6.6 21H5.4C5.4 21.8837 6.11634 22.6 7 22.6V21.4ZM17.4 21C17.4 21.2209 17.2209 21.4 17 21.4V22.6C17.8837 22.6 18.6 21.8837 18.6 21H17.4ZM18.6 17.5C18.6 16.8925 18.1075 16.4 17.5 16.4V17.6C17.4448 17.6 17.4 17.5552 17.4 17.5H18.6ZM4.60196 11.9851C4.09531 11.3771 4.0489 10.5083 4.4879 9.84982L3.48944 9.18418C2.75565 10.2849 2.83322 11.7371 3.68009 12.7533L4.60196 11.9851ZM6.6 18C6.6 17.7791 6.77909 17.6 7 17.6V16.4C6.11634 16.4 5.4 17.1163 5.4 18H6.6Z" fill="#28293D"/>
</svg>
