<svg width="24" height="24" viewBox="0 0 24 24" fill="none" xmlns="http://www.w3.org/2000/svg">
<path d="M1.43652 8.51213C0.854493 7.9301 0.854494 6.98645 1.43652 6.40442C2.01855 5.8224 2.9622 5.8224 3.54422 6.40442L17.5956 20.4558C18.1776 21.0378 18.1776 21.9815 17.5956 22.5635C17.0135 23.1455 16.0699 23.1455 15.4879 22.5635L1.43652 8.51213Z" stroke="#28293D" stroke-width="1.2"/>
<path d="M6.40442 3.54422C5.8224 2.9622 5.8224 2.01855 6.40442 1.43652C6.98645 0.854493 7.9301 0.854493 8.51213 1.43652L22.5635 15.4879C23.1455 16.0699 23.1455 17.0135 22.5635 17.5956C21.9815 18.1776 21.0378 18.1776 20.4558 17.5956L6.40442 3.54422Z" stroke="#28293D" stroke-width="1.2"/>
<path d="M14.228 10.506L13.494 9.77198C13.0887 9.36662 13.0887 8.70939 13.494 8.30402C13.8994 7.89866 14.5566 7.89866 14.962 8.30402L15.696 9.038C16.1013 9.44337 16.1013 10.1006 15.696 10.506C15.2906 10.9113 14.6334 10.9113 14.228 10.506Z" fill="black"/>
<path d="M9.038 15.696L8.30402 14.962C7.89866 14.5566 7.89866 13.8994 8.30402 13.494C8.70939 13.0887 9.36662 13.0887 9.77198 13.494L10.506 14.228C10.9113 14.6334 10.9113 15.2906 10.506 15.696C10.1006 16.1013 9.44337 16.1013 9.038 15.696Z" fill="black"/>
<path d="M13.494 9.77198L13.9183 9.34772L13.494 9.77198ZM14.228 10.506L13.8038 10.9302V10.9302L14.228 10.506ZM15.696 9.038L16.1202 8.61374L16.1202 8.61374L15.696 9.038ZM14.962 8.30402L14.5377 8.72829L14.5377 8.72829L14.962 8.30402ZM8.30402 14.962L8.72829 14.5377L8.72829 14.5377L8.30402 14.962ZM9.038 15.696L8.61374 16.1202L8.61374 16.1202L9.038 15.696ZM10.506 14.228L10.9302 13.8038L10.506 14.228ZM9.77198 13.494L9.34772 13.9183L9.77198 13.494ZM13.0698 10.1962L13.8038 10.9302L14.6523 10.0817L13.9183 9.34772L13.0698 10.1962ZM16.1202 8.61374L15.3863 7.87976L14.5377 8.72829L15.2717 9.46227L16.1202 8.61374ZM15.3863 7.87976C14.7466 7.24008 13.7095 7.24008 13.0698 7.87976L13.9183 8.72829C14.0894 8.55724 14.3667 8.55724 14.5377 8.72829L15.3863 7.87976ZM16.1202 10.9302C16.7599 10.2905 16.7599 9.25342 16.1202 8.61374L15.2717 9.46227C15.4428 9.63332 15.4428 9.91065 15.2717 10.0817L16.1202 10.9302ZM13.8038 10.9302C14.4434 11.5699 15.4806 11.5699 16.1202 10.9302L15.2717 10.0817C15.1007 10.2527 14.8233 10.2527 14.6523 10.0817L13.8038 10.9302ZM13.9183 9.34772C13.7473 9.17667 13.7473 8.89934 13.9183 8.72829L13.0698 7.87976C12.4301 8.51944 12.4301 9.55657 13.0698 10.1962L13.9183 9.34772ZM7.87976 15.3863L8.61374 16.1202L9.46227 15.2717L8.72829 14.5377L7.87976 15.3863ZM10.9302 13.8038L10.1962 13.0698L9.34772 13.9183L10.0817 14.6523L10.9302 13.8038ZM10.1962 13.0698C9.55657 12.4301 8.51944 12.4301 7.87976 13.0698L8.72829 13.9183C8.89934 13.7473 9.17667 13.7473 9.34772 13.9183L10.1962 13.0698ZM10.9302 16.1202C11.5699 15.4806 11.5699 14.4434 10.9302 13.8038L10.0817 14.6523C10.2527 14.8233 10.2527 15.1007 10.0817 15.2717L10.9302 16.1202ZM8.61374 16.1202C9.25342 16.7599 10.2905 16.7599 10.9302 16.1202L10.0817 15.2717C9.91065 15.4428 9.63332 15.4428 9.46227 15.2717L8.61374 16.1202ZM8.72829 14.5377C8.55724 14.3667 8.55724 14.0894 8.72829 13.9183L7.87976 13.0698C7.24008 13.7095 7.24008 14.7466 7.87976 15.3863L8.72829 14.5377Z" fill="#28293D"/>
</svg>
