<svg width="24" height="24" viewBox="0 0 24 24" fill="none" xmlns="http://www.w3.org/2000/svg">
<path d="M9.53618 4.48049L9.76203 5.03636L9.53618 4.48049ZM14.4638 4.48049L14.238 5.03636L14.4638 4.48049ZM5.00542 19.8205L4.40651 19.7844L5.00542 19.8205ZM18.9946 19.8205L18.3957 19.8566L18.9946 19.8205ZM18.3949 9.87956L18.9938 9.84343L18.3949 9.87956ZM5.60512 9.87956L5.00621 9.84343H5.00621L5.60512 9.87956ZM17.796 9.91569L18.3957 19.8566L19.5935 19.7844L18.9938 9.84343L17.796 9.91569ZM15.92 22.4H8.07999V23.6H15.92V22.4ZM5.60434 19.8566L6.20403 9.91569L5.00621 9.84343L4.40651 19.7844L5.60434 19.8566ZM8.07999 22.4C6.63781 22.4 5.52202 21.2212 5.60434 19.8566L4.40651 19.7844C4.28071 21.8697 5.97801 23.6 8.07999 23.6V22.4ZM18.3957 19.8566C18.478 21.2212 17.3622 22.4 15.92 22.4V23.6C18.022 23.6 19.7193 21.8697 19.5935 19.7844L18.3957 19.8566ZM18.9938 9.84343C18.8356 7.22188 17.159 4.92789 14.6897 3.92462L14.238 5.03636C16.2912 5.87054 17.6664 7.7681 17.796 9.91569L18.9938 9.84343ZM6.20403 9.91569C6.33359 7.7681 7.70884 5.87054 9.76203 5.03636L9.31034 3.92462C6.84097 4.92789 5.16436 7.22188 5.00621 9.84343L6.20403 9.91569ZM5.19909 10.3213C7.02482 11.9994 9.52658 12.8199 12 12.8199C14.4734 12.8199 16.9752 11.9994 18.8009 10.3213L17.9888 9.43782C16.4197 10.8801 14.224 11.6199 12 11.6199C9.77599 11.6199 7.5803 10.8801 6.01116 9.43782L5.19909 10.3213ZM11.4 10.5V14H12.6V10.5H11.4ZM8.6 17.6H15.4V16.4H8.6V17.6ZM14.9 17.1V18H16.1V17.1H14.9ZM13.5 19.4H10.5V20.6H13.5V19.4ZM9.1 18V17.1H7.9V18H9.1ZM9.76203 5.03636C9.9008 4.97998 10.0413 4.92905 10.1831 4.88359L9.81688 3.74085C9.64628 3.79552 9.47731 3.85678 9.31034 3.92462L9.76203 5.03636ZM10.6 4.31222V2.5H9.4V4.31222H10.6ZM10 4.91222C10.0026 4.91222 10.0052 4.91222 10.0078 4.91222C10.0104 4.91222 10.013 4.91222 10.0156 4.91222C10.0182 4.91222 10.0208 4.91222 10.0234 4.91222C10.026 4.91222 10.0286 4.91222 10.0312 4.91222C10.0338 4.91222 10.0364 4.91222 10.039 4.91222C10.0416 4.91222 10.0442 4.91222 10.0468 4.91222C10.0494 4.91222 10.052 4.91222 10.0546 4.91222C10.0572 4.91222 10.0598 4.91222 10.0624 4.91222C10.065 4.91222 10.0676 4.91222 10.0702 4.91222C10.0728 4.91222 10.0754 4.91222 10.078 4.91222C10.0806 4.91222 10.0832 4.91222 10.0858 4.91222C10.0884 4.91222 10.091 4.91222 10.0936 4.91222C10.0962 4.91222 10.0988 4.91222 10.1014 4.91222C10.104 4.91222 10.1066 4.91222 10.1093 4.91222C10.1119 4.91222 10.1145 4.91222 10.1171 4.91222C10.1197 4.91222 10.1223 4.91222 10.1249 4.91222C10.1275 4.91222 10.1301 4.91222 10.1327 4.91222C10.1353 4.91222 10.1379 4.91222 10.1405 4.91222C10.1431 4.91222 10.1457 4.91222 10.1483 4.91222C10.1509 4.91222 10.1535 4.91222 10.1561 4.91222C10.1587 4.91222 10.1613 4.91222 10.1639 4.91222C10.1665 4.91222 10.1691 4.91222 10.1717 4.91222C10.1743 4.91222 10.177 4.91222 10.1796 4.91222C10.1822 4.91222 10.1848 4.91222 10.1874 4.91222C10.19 4.91222 10.1926 4.91222 10.1952 4.91222C10.1978 4.91222 10.2004 4.91222 10.203 4.91222C10.2056 4.91222 10.2082 4.91222 10.2108 4.91222C10.2134 4.91222 10.216 4.91222 10.2186 4.91222C10.2212 4.91222 10.2239 4.91222 10.2265 4.91222C10.2291 4.91222 10.2317 4.91222 10.2343 4.91222C10.2369 4.91222 10.2395 4.91222 10.2421 4.91222C10.2447 4.91222 10.2473 4.91222 10.2499 4.91222C10.2525 4.91222 10.2551 4.91222 10.2577 4.91222C10.2603 4.91222 10.263 4.91222 10.2656 4.91222C10.2682 4.91222 10.2708 4.91222 10.2734 4.91222C10.276 4.91222 10.2786 4.91222 10.2812 4.91222C10.2838 4.91222 10.2864 4.91222 10.289 4.91222C10.2916 4.91222 10.2942 4.91222 10.2969 4.91222C10.2995 4.91222 10.3021 4.91222 10.3047 4.91222C10.3073 4.91222 10.3099 4.91222 10.3125 4.91222C10.3151 4.91222 10.3177 4.91222 10.3203 4.91222C10.3229 4.91222 10.3255 4.91222 10.3282 4.91222C10.3308 4.91222 10.3334 4.91222 10.336 4.91222C10.3386 4.91222 10.3412 4.91222 10.3438 4.91222C10.3464 4.91222 10.349 4.91222 10.3516 4.91222C10.3543 4.91222 10.3569 4.91222 10.3595 4.91222C10.3621 4.91222 10.3647 4.91222 10.3673 4.91222C10.3699 4.91222 10.3725 4.91222 10.3751 4.91222C10.3777 4.91222 10.3804 4.91222 10.383 4.91222C10.3856 4.91222 10.3882 4.91222 10.3908 4.91222C10.3934 4.91222 10.396 4.91222 10.3986 4.91222C10.4012 4.91222 10.4038 4.91222 10.4065 4.91222C10.4091 4.91222 10.4117 4.91222 10.4143 4.91222C10.4169 4.91222 10.4195 4.91222 10.4221 4.91222C10.4247 4.91222 10.4273 4.91222 10.43 4.91222C10.4326 4.91222 10.4352 4.91222 10.4378 4.91222C10.4404 4.91222 10.443 4.91222 10.4456 4.91222C10.4482 4.91222 10.4509 4.91222 10.4535 4.91222C10.4561 4.91222 10.4587 4.91222 10.4613 4.91222C10.4639 4.91222 10.4665 4.91222 10.4691 4.91222C10.4717 4.91222 10.4744 4.91222 10.477 4.91222C10.4796 4.91222 10.4822 4.91222 10.4848 4.91222C10.4874 4.91222 10.49 4.91222 10.4926 4.91222C10.4953 4.91222 10.4979 4.91222 10.5005 4.91222C10.5031 4.91222 10.5057 4.91222 10.5083 4.91222C10.5109 4.91222 10.5136 4.91222 10.5162 4.91222C10.5188 4.91222 10.5214 4.91222 10.524 4.91222C10.5266 4.91222 10.5292 4.91222 10.5318 4.91222C10.5345 4.91222 10.5371 4.91222 10.5397 4.91222C10.5423 4.91222 10.5449 4.91222 10.5475 4.91222C10.5501 4.91222 10.5528 4.91222 10.5554 4.91222C10.558 4.91222 10.5606 4.91222 10.5632 4.91222C10.5658 4.91222 10.5684 4.91222 10.5711 4.91222C10.5737 4.91222 10.5763 4.91222 10.5789 4.91222C10.5815 4.91222 10.5841 4.91222 10.5867 4.91222C10.5894 4.91222 10.592 4.91222 10.5946 4.91222C10.5972 4.91222 10.5998 4.91222 10.6024 4.91222C10.605 4.91222 10.6077 4.91222 10.6103 4.91222C10.6129 4.91222 10.6155 4.91222 10.6181 4.91222C10.6207 4.91222 10.6234 4.91222 10.626 4.91222C10.6286 4.91222 10.6312 4.91222 10.6338 4.91222C10.6364 4.91222 10.6391 4.91222 10.6417 4.91222C10.6443 4.91222 10.6469 4.91222 10.6495 4.91222C10.6521 4.91222 10.6547 4.91222 10.6574 4.91222C10.66 4.91222 10.6626 4.91222 10.6652 4.91222C10.6678 4.91222 10.6704 4.91222 10.6731 4.91222C10.6757 4.91222 10.6783 4.91222 10.6809 4.91222C10.6835 4.91222 10.6861 4.91222 10.6888 4.91222C10.6914 4.91222 10.694 4.91222 10.6966 4.91222C10.6992 4.91222 10.7018 4.91222 10.7045 4.91222C10.7071 4.91222 10.7097 4.91222 10.7123 4.91222C10.7149 4.91222 10.7175 4.91222 10.7202 4.91222C10.7228 4.91222 10.7254 4.91222 10.728 4.91222C10.7306 4.91222 10.7332 4.91222 10.7359 4.91222C10.7385 4.91222 10.7411 4.91222 10.7437 4.91222C10.7463 4.91222 10.749 4.91222 10.7516 4.91222C10.7542 4.91222 10.7568 4.91222 10.7594 4.91222C10.762 4.91222 10.7647 4.91222 10.7673 4.91222C10.7699 4.91222 10.7725 4.91222 10.7751 4.91222C10.7777 4.91222 10.7804 4.91222 10.783 4.91222C10.7856 4.91222 10.7882 4.91222 10.7908 4.91222C10.7935 4.91222 10.7961 4.91222 10.7987 4.91222C10.8013 4.91222 10.8039 4.91222 10.8065 4.91222C10.8092 4.91222 10.8118 4.91222 10.8144 4.91222C10.817 4.91222 10.8196 4.91222 10.8223 4.91222C10.8249 4.91222 10.8275 4.91222 10.8301 4.91222C10.8327 4.91222 10.8354 4.91222 10.838 4.91222C10.8406 4.91222 10.8432 4.91222 10.8458 4.91222C10.8484 4.91222 10.8511 4.91222 10.8537 4.91222C10.8563 4.91222 10.8589 4.91222 10.8615 4.91222C10.8642 4.91222 10.8668 4.91222 10.8694 4.91222C10.872 4.91222 10.8746 4.91222 10.8773 4.91222C10.8799 4.91222 10.8825 4.91222 10.8851 4.91222C10.8877 4.91222 10.8904 4.91222 10.893 4.91222C10.8956 4.91222 10.8982 4.91222 10.9008 4.91222C10.9035 4.91222 10.9061 4.91222 10.9087 4.91222C10.9113 4.91222 10.9139 4.91222 10.9166 4.91222C10.9192 4.91222 10.9218 4.91222 10.9244 4.91222C10.927 4.91222 10.9297 4.91222 10.9323 4.91222C10.9349 4.91222 10.9375 4.91222 10.9401 4.91222C10.9428 4.91222 10.9454 4.91222 10.948 4.91222C10.9506 4.91222 10.9532 4.91222 10.9559 4.91222C10.9585 4.91222 10.9611 4.91222 10.9637 4.91222C10.9663 4.91222 10.969 4.91222 10.9716 4.91222C10.9742 4.91222 10.9768 4.91222 10.9794 4.91222C10.9821 4.91222 10.9847 4.91222 10.9873 4.91222C10.9899 4.91222 10.9925 4.91222 10.9952 4.91222C10.9978 4.91222 11.0004 4.91222 11.003 4.91222C11.0056 4.91222 11.0083 4.91222 11.0109 4.91222C11.0135 4.91222 11.0161 4.91222 11.0188 4.91222C11.0214 4.91222 11.024 4.91222 11.0266 4.91222C11.0292 4.91222 11.0319 4.91222 11.0345 4.91222C11.0371 4.91222 11.0397 4.91222 11.0423 4.91222C11.045 4.91222 11.0476 4.91222 11.0502 4.91222C11.0528 4.91222 11.0554 4.91222 11.0581 4.91222C11.0607 4.91222 11.0633 4.91222 11.0659 4.91222C11.0686 4.91222 11.0712 4.91222 11.0738 4.91222C11.0764 4.91222 11.079 4.91222 11.0817 4.91222C11.0843 4.91222 11.0869 4.91222 11.0895 4.91222C11.0922 4.91222 11.0948 4.91222 11.0974 4.91222C11.1 4.91222 11.1026 4.91222 11.1053 4.91222C11.1079 4.91222 11.1105 4.91222 11.1131 4.91222C11.1157 4.91222 11.1184 4.91222 11.121 4.91222C11.1236 4.91222 11.1262 4.91222 11.1289 4.91222C11.1315 4.91222 11.1341 4.91222 11.1367 4.91222C11.1393 4.91222 11.142 4.91222 11.1446 4.91222C11.1472 4.91222 11.1498 4.91222 11.1525 4.91222C11.1551 4.91222 11.1577 4.91222 11.1603 4.91222C11.1629 4.91222 11.1656 4.91222 11.1682 4.91222C11.1708 4.91222 11.1734 4.91222 11.1761 4.91222C11.1787 4.91222 11.1813 4.91222 11.1839 4.91222C11.1865 4.91222 11.1892 4.91222 11.1918 4.91222C11.1944 4.91222 11.197 4.91222 11.1997 4.91222C11.2023 4.91222 11.2049 4.91222 11.2075 4.91222C11.2101 4.91222 11.2128 4.91222 11.2154 4.91222C11.218 4.91222 11.2206 4.91222 11.2233 4.91222C11.2259 4.91222 11.2285 4.91222 11.2311 4.91222C11.2337 4.91222 11.2364 4.91222 11.239 4.91222C11.2416 4.91222 11.2442 4.91222 11.2469 4.91222C11.2495 4.91222 11.2521 4.91222 11.2547 4.91222C11.2573 4.91222 11.26 4.91222 11.2626 4.91222C11.2652 4.91222 11.2678 4.91222 11.2705 4.91222C11.2731 4.91222 11.2757 4.91222 11.2783 4.91222C11.281 4.91222 11.2836 4.91222 11.2862 4.91222C11.2888 4.91222 11.2914 4.91222 11.2941 4.91222C11.2967 4.91222 11.2993 4.91222 11.3019 4.91222C11.3046 4.91222 11.3072 4.91222 11.3098 4.91222C11.3124 4.91222 11.315 4.91222 11.3177 4.91222C11.3203 4.91222 11.3229 4.91222 11.3255 4.91222C11.3282 4.91222 11.3308 4.91222 11.3334 4.91222C11.336 4.91222 11.3387 4.91222 11.3413 4.91222C11.3439 4.91222 11.3465 4.91222 11.3491 4.91222C11.3518 4.91222 11.3544 4.91222 11.357 4.91222C11.3596 4.91222 11.3623 4.91222 11.3649 4.91222C11.3675 4.91222 11.3701 4.91222 11.3728 4.91222C11.3754 4.91222 11.378 4.91222 11.3806 4.91222C11.3832 4.91222 11.3859 4.91222 11.3885 4.91222C11.3911 4.91222 11.3937 4.91222 11.3964 4.91222C11.399 4.91222 11.4016 4.91222 11.4042 4.91222C11.4069 4.91222 11.4095 4.91222 11.4121 4.91222C11.4147 4.91222 11.4173 4.91222 11.42 4.91222C11.4226 4.91222 11.4252 4.91222 11.4278 4.91222C11.4305 4.91222 11.4331 4.91222 11.4357 4.91222C11.4383 4.91222 11.441 4.91222 11.4436 4.91222C11.4462 4.91222 11.4488 4.91222 11.4514 4.91222C11.4541 4.91222 11.4567 4.91222 11.4593 4.91222C11.4619 4.91222 11.4646 4.91222 11.4672 4.91222C11.4698 4.91222 11.4724 4.91222 11.4751 4.91222C11.4777 4.91222 11.4803 4.91222 11.4829 4.91222C11.4855 4.91222 11.4882 4.91222 11.4908 4.91222C11.4934 4.91222 11.496 4.91222 11.4987 4.91222C11.5013 4.91222 11.5039 4.91222 11.5065 4.91222C11.5092 4.91222 11.5118 4.91222 11.5144 4.91222C11.517 4.91222 11.5196 4.91222 11.5223 4.91222C11.5249 4.91222 11.5275 4.91222 11.5301 4.91222C11.5328 4.91222 11.5354 4.91222 11.538 4.91222C11.5406 4.91222 11.5432 4.91222 11.5459 4.91222C11.5485 4.91222 11.5511 4.91222 11.5537 4.91222C11.5564 4.91222 11.559 4.91222 11.5616 4.91222C11.5642 4.91222 11.5669 4.91222 11.5695 4.91222C11.5721 4.91222 11.5747 4.91222 11.5773 4.91222C11.58 4.91222 11.5826 4.91222 11.5852 4.91222C11.5878 4.91222 11.5905 4.91222 11.5931 4.91222C11.5957 4.91222 11.5983 4.91222 11.601 4.91222C11.6036 4.91222 11.6062 4.91222 11.6088 4.91222C11.6114 4.91222 11.6141 4.91222 11.6167 4.91222C11.6193 4.91222 11.6219 4.91222 11.6246 4.91222C11.6272 4.91222 11.6298 4.91222 11.6324 4.91222C11.635 4.91222 11.6377 4.91222 11.6403 4.91222C11.6429 4.91222 11.6455 4.91222 11.6482 4.91222C11.6508 4.91222 11.6534 4.91222 11.656 4.91222C11.6586 4.91222 11.6613 4.91222 11.6639 4.91222C11.6665 4.91222 11.6691 4.91222 11.6718 4.91222C11.6744 4.91222 11.677 4.91222 11.6796 4.91222C11.6823 4.91222 11.6849 4.91222 11.6875 4.91222C11.6901 4.91222 11.6927 4.91222 11.6954 4.91222C11.698 4.91222 11.7006 4.91222 11.7032 4.91222C11.7059 4.91222 11.7085 4.91222 11.7111 4.91222C11.7137 4.91222 11.7163 4.91222 11.719 4.91222C11.7216 4.91222 11.7242 4.91222 11.7268 4.91222C11.7295 4.91222 11.7321 4.91222 11.7347 4.91222C11.7373 4.91222 11.7399 4.91222 11.7426 4.91222C11.7452 4.91222 11.7478 4.91222 11.7504 4.91222C11.753 4.91222 11.7557 4.91222 11.7583 4.91222C11.7609 4.91222 11.7635 4.91222 11.7662 4.91222C11.7688 4.91222 11.7714 4.91222 11.774 4.91222C11.7766 4.91222 11.7793 4.91222 11.7819 4.91222C11.7845 4.91222 11.7871 4.91222 11.7898 4.91222C11.7924 4.91222 11.795 4.91222 11.7976 4.91222C11.8002 4.91222 11.8029 4.91222 11.8055 4.91222C11.8081 4.91222 11.8107 4.91222 11.8133 4.91222C11.816 4.91222 11.8186 4.91222 11.8212 4.91222C11.8238 4.91222 11.8265 4.91222 11.8291 4.91222C11.8317 4.91222 11.8343 4.91222 11.8369 4.91222C11.8396 4.91222 11.8422 4.91222 11.8448 4.91222C11.8474 4.91222 11.85 4.91222 11.8527 4.91222C11.8553 4.91222 11.8579 4.91222 11.8605 4.91222C11.8632 4.91222 11.8658 4.91222 11.8684 4.91222C11.871 4.91222 11.8736 4.91222 11.8763 4.91222C11.8789 4.91222 11.8815 4.91222 11.8841 4.91222C11.8867 4.91222 11.8894 4.91222 11.892 4.91222C11.8946 4.91222 11.8972 4.91222 11.8998 4.91222C11.9025 4.91222 11.9051 4.91222 11.9077 4.91222C11.9103 4.91222 11.9129 4.91222 11.9156 4.91222C11.9182 4.91222 11.9208 4.91222 11.9234 4.91222C11.9261 4.91222 11.9287 4.91222 11.9313 4.91222C11.9339 4.91222 11.9365 4.91222 11.9392 4.91222C11.9418 4.91222 11.9444 4.91222 11.947 4.91222C11.9496 4.91222 11.9523 4.91222 11.9549 4.91222C11.9575 4.91222 11.9601 4.91222 11.9627 4.91222C11.9654 4.91222 11.968 4.91222 11.9706 4.91222C11.9732 4.91222 11.9758 4.91222 11.9785 4.91222C11.9811 4.91222 11.9837 4.91222 11.9863 4.91222C11.9889 4.91222 11.9916 4.91222 11.9942 4.91222C11.9968 4.91222 11.9994 4.91222 12.002 4.91222C12.0046 4.91222 12.0073 4.91222 12.0099 4.91222C12.0125 4.91222 12.0151 4.91222 12.0177 4.91222C12.0204 4.91222 12.023 4.91222 12.0256 4.91222C12.0282 4.91222 12.0308 4.91222 12.0335 4.91222C12.0361 4.91222 12.0387 4.91222 12.0413 4.91222C12.0439 4.91222 12.0466 4.91222 12.0492 4.91222C12.0518 4.91222 12.0544 4.91222 12.057 4.91222C12.0597 4.91222 12.0623 4.91222 12.0649 4.91222C12.0675 4.91222 12.0701 4.91222 12.0727 4.91222C12.0754 4.91222 12.078 4.91222 12.0806 4.91222C12.0832 4.91222 12.0858 4.91222 12.0885 4.91222C12.0911 4.91222 12.0937 4.91222 12.0963 4.91222C12.0989 4.91222 12.1015 4.91222 12.1042 4.91222C12.1068 4.91222 12.1094 4.91222 12.112 4.91222C12.1146 4.91222 12.1173 4.91222 12.1199 4.91222C12.1225 4.91222 12.1251 4.91222 12.1277 4.91222C12.1303 4.91222 12.133 4.91222 12.1356 4.91222C12.1382 4.91222 12.1408 4.91222 12.1434 4.91222C12.146 4.91222 12.1487 4.91222 12.1513 4.91222C12.1539 4.91222 12.1565 4.91222 12.1591 4.91222C12.1618 4.91222 12.1644 4.91222 12.167 4.91222C12.1696 4.91222 12.1722 4.91222 12.1748 4.91222C12.1775 4.91222 12.1801 4.91222 12.1827 4.91222C12.1853 4.91222 12.1879 4.91222 12.1905 4.91222C12.1932 4.91222 12.1958 4.91222 12.1984 4.91222C12.201 4.91222 12.2036 4.91222 12.2062 4.91222C12.2089 4.91222 12.2115 4.91222 12.2141 4.91222C12.2167 4.91222 12.2193 4.91222 12.2219 4.91222C12.2246 4.91222 12.2272 4.91222 12.2298 4.91222C12.2324 4.91222 12.235 4.91222 12.2376 4.91222C12.2402 4.91222 12.2429 4.91222 12.2455 4.91222C12.2481 4.91222 12.2507 4.91222 12.2533 4.91222C12.2559 4.91222 12.2586 4.91222 12.2612 4.91222C12.2638 4.91222 12.2664 4.91222 12.269 4.91222C12.2716 4.91222 12.2743 4.91222 12.2769 4.91222C12.2795 4.91222 12.2821 4.91222 12.2847 4.91222C12.2873 4.91222 12.2899 4.91222 12.2926 4.91222C12.2952 4.91222 12.2978 4.91222 12.3004 4.91222C12.303 4.91222 12.3056 4.91222 12.3082 4.91222C12.3109 4.91222 12.3135 4.91222 12.3161 4.91222C12.3187 4.91222 12.3213 4.91222 12.3239 4.91222C12.3265 4.91222 12.3292 4.91222 12.3318 4.91222C12.3344 4.91222 12.337 4.91222 12.3396 4.91222C12.3422 4.91222 12.3448 4.91222 12.3475 4.91222C12.3501 4.91222 12.3527 4.91222 12.3553 4.91222C12.3579 4.91222 12.3605 4.91222 12.3631 4.91222C12.3658 4.91222 12.3684 4.91222 12.371 4.91222C12.3736 4.91222 12.3762 4.91222 12.3788 4.91222C12.3814 4.91222 12.384 4.91222 12.3867 4.91222C12.3893 4.91222 12.3919 4.91222 12.3945 4.91222C12.3971 4.91222 12.3997 4.91222 12.4023 4.91222C12.4049 4.91222 12.4076 4.91222 12.4102 4.91222C12.4128 4.91222 12.4154 4.91222 12.418 4.91222C12.4206 4.91222 12.4232 4.91222 12.4258 4.91222C12.4285 4.91222 12.4311 4.91222 12.4337 4.91222C12.4363 4.91222 12.4389 4.91222 12.4415 4.91222C12.4441 4.91222 12.4467 4.91222 12.4494 4.91222C12.452 4.91222 12.4546 4.91222 12.4572 4.91222C12.4598 4.91222 12.4624 4.91222 12.465 4.91222C12.4676 4.91222 12.4702 4.91222 12.4729 4.91222C12.4755 4.91222 12.4781 4.91222 12.4807 4.91222C12.4833 4.91222 12.4859 4.91222 12.4885 4.91222C12.4911 4.91222 12.4937 4.91222 12.4964 4.91222C12.499 4.91222 12.5016 4.91222 12.5042 4.91222C12.5068 4.91222 12.5094 4.91222 12.512 4.91222C12.5146 4.91222 12.5172 4.91222 12.5198 4.91222C12.5225 4.91222 12.5251 4.91222 12.5277 4.91222C12.5303 4.91222 12.5329 4.91222 12.5355 4.91222C12.5381 4.91222 12.5407 4.91222 12.5433 4.91222C12.5459 4.91222 12.5485 4.91222 12.5512 4.91222C12.5538 4.91222 12.5564 4.91222 12.559 4.91222C12.5616 4.91222 12.5642 4.91222 12.5668 4.91222C12.5694 4.91222 12.572 4.91222 12.5746 4.91222C12.5772 4.91222 12.5799 4.91222 12.5825 4.91222C12.5851 4.91222 12.5877 4.91222 12.5903 4.91222C12.5929 4.91222 12.5955 4.91222 12.5981 4.91222C12.6007 4.91222 12.6033 4.91222 12.6059 4.91222C12.6085 4.91222 12.6111 4.91222 12.6138 4.91222C12.6164 4.91222 12.619 4.91222 12.6216 4.91222C12.6242 4.91222 12.6268 4.91222 12.6294 4.91222C12.632 4.91222 12.6346 4.91222 12.6372 4.91222C12.6398 4.91222 12.6424 4.91222 12.645 4.91222C12.6476 4.91222 12.6503 4.91222 12.6529 4.91222C12.6555 4.91222 12.6581 4.91222 12.6607 4.91222C12.6633 4.91222 12.6659 4.91222 12.6685 4.91222C12.6711 4.91222 12.6737 4.91222 12.6763 4.91222C12.6789 4.91222 12.6815 4.91222 12.6841 4.91222C12.6867 4.91222 12.6893 4.91222 12.692 4.91222C12.6946 4.91222 12.6972 4.91222 12.6998 4.91222C12.7024 4.91222 12.705 4.91222 12.7076 4.91222C12.7102 4.91222 12.7128 4.91222 12.7154 4.91222C12.718 4.91222 12.7206 4.91222 12.7232 4.91222C12.7258 4.91222 12.7284 4.91222 12.731 4.91222C12.7336 4.91222 12.7362 4.91222 12.7388 4.91222C12.7414 4.91222 12.744 4.91222 12.7466 4.91222C12.7493 4.91222 12.7519 4.91222 12.7545 4.91222C12.7571 4.91222 12.7597 4.91222 12.7623 4.91222C12.7649 4.91222 12.7675 4.91222 12.7701 4.91222C12.7727 4.91222 12.7753 4.91222 12.7779 4.91222C12.7805 4.91222 12.7831 4.91222 12.7857 4.91222C12.7883 4.91222 12.7909 4.91222 12.7935 4.91222C12.7961 4.91222 12.7987 4.91222 12.8013 4.91222C12.8039 4.91222 12.8065 4.91222 12.8091 4.91222C12.8117 4.91222 12.8143 4.91222 12.8169 4.91222C12.8195 4.91222 12.8221 4.91222 12.8247 4.91222C12.8273 4.91222 12.8299 4.91222 12.8325 4.91222C12.8351 4.91222 12.8377 4.91222 12.8403 4.91222C12.8429 4.91222 12.8455 4.91222 12.8481 4.91222C12.8507 4.91222 12.8533 4.91222 12.8559 4.91222C12.8585 4.91222 12.8611 4.91222 12.8637 4.91222C12.8663 4.91222 12.8689 4.91222 12.8715 4.91222C12.8741 4.91222 12.8767 4.91222 12.8793 4.91222C12.8819 4.91222 12.8845 4.91222 12.8871 4.91222C12.8897 4.91222 12.8923 4.91222 12.8949 4.91222C12.8975 4.91222 12.9001 4.91222 12.9027 4.91222C12.9053 4.91222 12.9079 4.91222 12.9105 4.91222C12.9131 4.91222 12.9157 4.91222 12.9183 4.91222C12.9209 4.91222 12.9235 4.91222 12.9261 4.91222C12.9287 4.91222 12.9313 4.91222 12.9339 4.91222C12.9365 4.91222 12.9391 4.91222 12.9417 4.91222C12.9443 4.91222 12.9469 4.91222 12.9495 4.91222C12.9521 4.91222 12.9547 4.91222 12.9573 4.91222C12.9599 4.91222 12.9625 4.91222 12.9651 4.91222C12.9677 4.91222 12.9703 4.91222 12.9729 4.91222C12.9755 4.91222 12.9781 4.91222 12.9807 4.91222C12.9833 4.91222 12.9858 4.91222 12.9884 4.91222C12.991 4.91222 12.9936 4.91222 12.9962 4.91222C12.9988 4.91222 13.0014 4.91222 13.004 4.91222C13.0066 4.91222 13.0092 4.91222 13.0118 4.91222C13.0144 4.91222 13.017 4.91222 13.0196 4.91222C13.0222 4.91222 13.0248 4.91222 13.0274 4.91222C13.03 4.91222 13.0326 4.91222 13.0352 4.91222C13.0378 4.91222 13.0403 4.91222 13.0429 4.91222C13.0455 4.91222 13.0481 4.91222 13.0507 4.91222C13.0533 4.91222 13.0559 4.91222 13.0585 4.91222C13.0611 4.91222 13.0637 4.91222 13.0663 4.91222C13.0689 4.91222 13.0715 4.91222 13.0741 4.91222C13.0767 4.91222 13.0792 4.91222 13.0818 4.91222C13.0844 4.91222 13.087 4.91222 13.0896 4.91222C13.0922 4.91222 13.0948 4.91222 13.0974 4.91222C13.1 4.91222 13.1026 4.91222 13.1052 4.91222C13.1078 4.91222 13.1103 4.91222 13.1129 4.91222C13.1155 4.91222 13.1181 4.91222 13.1207 4.91222C13.1233 4.91222 13.1259 4.91222 13.1285 4.91222C13.1311 4.91222 13.1337 4.91222 13.1363 4.91222C13.1388 4.91222 13.1414 4.91222 13.144 4.91222C13.1466 4.91222 13.1492 4.91222 13.1518 4.91222C13.1544 4.91222 13.157 4.91222 13.1596 4.91222C13.1622 4.91222 13.1647 4.91222 13.1673 4.91222C13.1699 4.91222 13.1725 4.91222 13.1751 4.91222C13.1777 4.91222 13.1803 4.91222 13.1829 4.91222C13.1855 4.91222 13.188 4.91222 13.1906 4.91222C13.1932 4.91222 13.1958 4.91222 13.1984 4.91222C13.201 4.91222 13.2036 4.91222 13.2062 4.91222C13.2088 4.91222 13.2113 4.91222 13.2139 4.91222C13.2165 4.91222 13.2191 4.91222 13.2217 4.91222C13.2243 4.91222 13.2269 4.91222 13.2294 4.91222C13.232 4.91222 13.2346 4.91222 13.2372 4.91222C13.2398 4.91222 13.2424 4.91222 13.245 4.91222C13.2476 4.91222 13.2501 4.91222 13.2527 4.91222C13.2553 4.91222 13.2579 4.91222 13.2605 4.91222C13.2631 4.91222 13.2657 4.91222 13.2682 4.91222C13.2708 4.91222 13.2734 4.91222 13.276 4.91222C13.2786 4.91222 13.2812 4.91222 13.2837 4.91222C13.2863 4.91222 13.2889 4.91222 13.2915 4.91222C13.2941 4.91222 13.2967 4.91222 13.2993 4.91222C13.3018 4.91222 13.3044 4.91222 13.307 4.91222C13.3096 4.91222 13.3122 4.91222 13.3148 4.91222C13.3173 4.91222 13.3199 4.91222 13.3225 4.91222C13.3251 4.91222 13.3277 4.91222 13.3302 4.91222C13.3328 4.91222 13.3354 4.91222 13.338 4.91222C13.3406 4.91222 13.3432 4.91222 13.3457 4.91222C13.3483 4.91222 13.3509 4.91222 13.3535 4.91222C13.3561 4.91222 13.3587 4.91222 13.3612 4.91222C13.3638 4.91222 13.3664 4.91222 13.369 4.91222C13.3716 4.91222 13.3741 4.91222 13.3767 4.91222C13.3793 4.91222 13.3819 4.91222 13.3845 4.91222C13.387 4.91222 13.3896 4.91222 13.3922 4.91222C13.3948 4.91222 13.3974 4.91222 13.3999 4.91222C13.4025 4.91222 13.4051 4.91222 13.4077 4.91222C13.4103 4.91222 13.4128 4.91222 13.4154 4.91222C13.418 4.91222 13.4206 4.91222 13.4231 4.91222C13.4257 4.91222 13.4283 4.91222 13.4309 4.91222C13.4335 4.91222 13.436 4.91222 13.4386 4.91222C13.4412 4.91222 13.4438 4.91222 13.4463 4.91222C13.4489 4.91222 13.4515 4.91222 13.4541 4.91222C13.4567 4.91222 13.4592 4.91222 13.4618 4.91222C13.4644 4.91222 13.467 4.91222 13.4695 4.91222C13.4721 4.91222 13.4747 4.91222 13.4773 4.91222C13.4798 4.91222 13.4824 4.91222 13.485 4.91222C13.4876 4.91222 13.4901 4.91222 13.4927 4.91222C13.4953 4.91222 13.4979 4.91222 13.5004 4.91222C13.503 4.91222 13.5056 4.91222 13.5082 4.91222C13.5107 4.91222 13.5133 4.91222 13.5159 4.91222C13.5185 4.91222 13.521 4.91222 13.5236 4.91222C13.5262 4.91222 13.5288 4.91222 13.5313 4.91222C13.5339 4.91222 13.5365 4.91222 13.539 4.91222C13.5416 4.91222 13.5442 4.91222 13.5468 4.91222C13.5493 4.91222 13.5519 4.91222 13.5545 4.91222C13.5571 4.91222 13.5596 4.91222 13.5622 4.91222C13.5648 4.91222 13.5673 4.91222 13.5699 4.91222C13.5725 4.91222 13.5751 4.91222 13.5776 4.91222C13.5802 4.91222 13.5828 4.91222 13.5853 4.91222C13.5879 4.91222 13.5905 4.91222 13.5931 4.91222C13.5956 4.91222 13.5982 4.91222 13.6008 4.91222C13.6033 4.91222 13.6059 4.91222 13.6085 4.91222C13.611 4.91222 13.6136 4.91222 13.6162 4.91222C13.6187 4.91222 13.6213 4.91222 13.6239 4.91222C13.6265 4.91222 13.629 4.91222 13.6316 4.91222C13.6342 4.91222 13.6367 4.91222 13.6393 4.91222C13.6419 4.91222 13.6444 4.91222 13.647 4.91222C13.6496 4.91222 13.6521 4.91222 13.6547 4.91222C13.6573 4.91222 13.6598 4.91222 13.6624 4.91222C13.665 4.91222 13.6675 4.91222 13.6701 4.91222C13.6727 4.91222 13.6752 4.91222 13.6778 4.91222C13.6804 4.91222 13.6829 4.91222 13.6855 4.91222C13.6881 4.91222 13.6906 4.91222 13.6932 4.91222C13.6958 4.91222 13.6983 4.91222 13.7009 4.91222C13.7035 4.91222 13.706 4.91222 13.7086 4.91222C13.7111 4.91222 13.7137 4.91222 13.7163 4.91222C13.7188 4.91222 13.7214 4.91222 13.724 4.91222C13.7265 4.91222 13.7291 4.91222 13.7317 4.91222C13.7342 4.91222 13.7368 4.91222 13.7393 4.91222C13.7419 4.91222 13.7445 4.91222 13.747 4.91222C13.7496 4.91222 13.7522 4.91222 13.7547 4.91222C13.7573 4.91222 13.7598 4.91222 13.7624 4.91222C13.765 4.91222 13.7675 4.91222 13.7701 4.91222C13.7726 4.91222 13.7752 4.91222 13.7778 4.91222C13.7803 4.91222 13.7829 4.91222 13.7854 4.91222C13.788 4.91222 13.7906 4.91222 13.7931 4.91222C13.7957 4.91222 13.7983 4.91222 13.8008 4.91222C13.8034 4.91222 13.8059 4.91222 13.8085 4.91222C13.811 4.91222 13.8136 4.91222 13.8162 4.91222C13.8187 4.91222 13.8213 4.91222 13.8238 4.91222C13.8264 4.91222 13.829 4.91222 13.8315 4.91222C13.8341 4.91222 13.8366 4.91222 13.8392 4.91222C13.8417 4.91222 13.8443 4.91222 13.8469 4.91222C13.8494 4.91222 13.852 4.91222 13.8545 4.91222C13.8571 4.91222 13.8596 4.91222 13.8622 4.91222C13.8647 4.91222 13.8673 4.91222 13.8699 4.91222C13.8724 4.91222 13.875 4.91222 13.8775 4.91222C13.8801 4.91222 13.8826 4.91222 13.8852 4.91222C13.8877 4.91222 13.8903 4.91222 13.8929 4.91222C13.8954 4.91222 13.898 4.91222 13.9005 4.91222C13.9031 4.91222 13.9056 4.91222 13.9082 4.91222C13.9107 4.91222 13.9133 4.91222 13.9158 4.91222C13.9184 4.91222 13.9209 4.91222 13.9235 4.91222C13.926 4.91222 13.9286 4.91222 13.9312 4.91222C13.9337 4.91222 13.9363 4.91222 13.9388 4.91222C13.9414 4.91222 13.9439 4.91222 13.9465 4.91222C13.949 4.91222 13.9516 4.91222 13.9541 4.91222C13.9567 4.91222 13.9592 4.91222 13.9618 4.91222C13.9643 4.91222 13.9669 4.91222 13.9694 4.91222C13.972 4.91222 13.9745 4.91222 13.9771 4.91222C13.9796 4.91222 13.9822 4.91222 13.9847 4.91222C13.9873 4.91222 13.9898 4.91222 13.9924 4.91222C13.9949 4.91222 13.9975 4.91222 14 4.91222V3.71222C13.9975 3.71222 13.9949 3.71222 13.9924 3.71222C13.9898 3.71222 13.9873 3.71222 13.9847 3.71222C13.9822 3.71222 13.9796 3.71222 13.9771 3.71222C13.9745 3.71222 13.972 3.71222 13.9694 3.71222C13.9669 3.71222 13.9643 3.71222 13.9618 3.71222C13.9592 3.71222 13.9567 3.71222 13.9541 3.71222C13.9516 3.71222 13.949 3.71222 13.9465 3.71222C13.9439 3.71222 13.9414 3.71222 13.9388 3.71222C13.9363 3.71222 13.9337 3.71222 13.9312 3.71222C13.9286 3.71222 13.926 3.71222 13.9235 3.71222C13.9209 3.71222 13.9184 3.71222 13.9158 3.71222C13.9133 3.71222 13.9107 3.71222 13.9082 3.71222C13.9056 3.71222 13.9031 3.71222 13.9005 3.71222C13.898 3.71222 13.8954 3.71222 13.8929 3.71222C13.8903 3.71222 13.8877 3.71222 13.8852 3.71222C13.8826 3.71222 13.8801 3.71222 13.8775 3.71222C13.875 3.71222 13.8724 3.71222 13.8699 3.71222C13.8673 3.71222 13.8647 3.71222 13.8622 3.71222C13.8596 3.71222 13.8571 3.71222 13.8545 3.71222C13.852 3.71222 13.8494 3.71222 13.8469 3.71222C13.8443 3.71222 13.8417 3.71222 13.8392 3.71222C13.8366 3.71222 13.8341 3.71222 13.8315 3.71222C13.829 3.71222 13.8264 3.71222 13.8238 3.71222C13.8213 3.71222 13.8187 3.71222 13.8162 3.71222C13.8136 3.71222 13.811 3.71222 13.8085 3.71222C13.8059 3.71222 13.8034 3.71222 13.8008 3.71222C13.7983 3.71222 13.7957 3.71222 13.7931 3.71222C13.7906 3.71222 13.788 3.71222 13.7854 3.71222C13.7829 3.71222 13.7803 3.71222 13.7778 3.71222C13.7752 3.71222 13.7726 3.71222 13.7701 3.71222C13.7675 3.71222 13.765 3.71222 13.7624 3.71222C13.7598 3.71222 13.7573 3.71222 13.7547 3.71222C13.7522 3.71222 13.7496 3.71222 13.747 3.71222C13.7445 3.71222 13.7419 3.71222 13.7393 3.71222C13.7368 3.71222 13.7342 3.71222 13.7317 3.71222C13.7291 3.71222 13.7265 3.71222 13.724 3.71222C13.7214 3.71222 13.7188 3.71222 13.7163 3.71222C13.7137 3.71222 13.7111 3.71222 13.7086 3.71222C13.706 3.71222 13.7035 3.71222 13.7009 3.71222C13.6983 3.71222 13.6958 3.71222 13.6932 3.71222C13.6906 3.71222 13.6881 3.71222 13.6855 3.71222C13.6829 3.71222 13.6804 3.71222 13.6778 3.71222C13.6752 3.71222 13.6727 3.71222 13.6701 3.71222C13.6675 3.71222 13.665 3.71222 13.6624 3.71222C13.6598 3.71222 13.6573 3.71222 13.6547 3.71222C13.6521 3.71222 13.6496 3.71222 13.647 3.71222C13.6444 3.71222 13.6419 3.71222 13.6393 3.71222C13.6367 3.71222 13.6342 3.71222 13.6316 3.71222C13.629 3.71222 13.6265 3.71222 13.6239 3.71222C13.6213 3.71222 13.6187 3.71222 13.6162 3.71222C13.6136 3.71222 13.611 3.71222 13.6085 3.71222C13.6059 3.71222 13.6033 3.71222 13.6008 3.71222C13.5982 3.71222 13.5956 3.71222 13.5931 3.71222C13.5905 3.71222 13.5879 3.71222 13.5853 3.71222C13.5828 3.71222 13.5802 3.71222 13.5776 3.71222C13.5751 3.71222 13.5725 3.71222 13.5699 3.71222C13.5673 3.71222 13.5648 3.71222 13.5622 3.71222C13.5596 3.71222 13.5571 3.71222 13.5545 3.71222C13.5519 3.71222 13.5493 3.71222 13.5468 3.71222C13.5442 3.71222 13.5416 3.71222 13.539 3.71222C13.5365 3.71222 13.5339 3.71222 13.5313 3.71222C13.5288 3.71222 13.5262 3.71222 13.5236 3.71222C13.521 3.71222 13.5185 3.71222 13.5159 3.71222C13.5133 3.71222 13.5107 3.71222 13.5082 3.71222C13.5056 3.71222 13.503 3.71222 13.5004 3.71222C13.4979 3.71222 13.4953 3.71222 13.4927 3.71222C13.4901 3.71222 13.4876 3.71222 13.485 3.71222C13.4824 3.71222 13.4798 3.71222 13.4773 3.71222C13.4747 3.71222 13.4721 3.71222 13.4695 3.71222C13.467 3.71222 13.4644 3.71222 13.4618 3.71222C13.4592 3.71222 13.4567 3.71222 13.4541 3.71222C13.4515 3.71222 13.4489 3.71222 13.4463 3.71222C13.4438 3.71222 13.4412 3.71222 13.4386 3.71222C13.436 3.71222 13.4335 3.71222 13.4309 3.71222C13.4283 3.71222 13.4257 3.71222 13.4231 3.71222C13.4206 3.71222 13.418 3.71222 13.4154 3.71222C13.4128 3.71222 13.4103 3.71222 13.4077 3.71222C13.4051 3.71222 13.4025 3.71222 13.3999 3.71222C13.3974 3.71222 13.3948 3.71222 13.3922 3.71222C13.3896 3.71222 13.387 3.71222 13.3845 3.71222C13.3819 3.71222 13.3793 3.71222 13.3767 3.71222C13.3741 3.71222 13.3716 3.71222 13.369 3.71222C13.3664 3.71222 13.3638 3.71222 13.3612 3.71222C13.3587 3.71222 13.3561 3.71222 13.3535 3.71222C13.3509 3.71222 13.3483 3.71222 13.3457 3.71222C13.3432 3.71222 13.3406 3.71222 13.338 3.71222C13.3354 3.71222 13.3328 3.71222 13.3302 3.71222C13.3277 3.71222 13.3251 3.71222 13.3225 3.71222C13.3199 3.71222 13.3173 3.71222 13.3148 3.71222C13.3122 3.71222 13.3096 3.71222 13.307 3.71222C13.3044 3.71222 13.3018 3.71222 13.2993 3.71222C13.2967 3.71222 13.2941 3.71222 13.2915 3.71222C13.2889 3.71222 13.2863 3.71222 13.2837 3.71222C13.2812 3.71222 13.2786 3.71222 13.276 3.71222C13.2734 3.71222 13.2708 3.71222 13.2682 3.71222C13.2657 3.71222 13.2631 3.71222 13.2605 3.71222C13.2579 3.71222 13.2553 3.71222 13.2527 3.71222C13.2501 3.71222 13.2476 3.71222 13.245 3.71222C13.2424 3.71222 13.2398 3.71222 13.2372 3.71222C13.2346 3.71222 13.232 3.71222 13.2294 3.71222C13.2269 3.71222 13.2243 3.71222 13.2217 3.71222C13.2191 3.71222 13.2165 3.71222 13.2139 3.71222C13.2113 3.71222 13.2088 3.71222 13.2062 3.71222C13.2036 3.71222 13.201 3.71222 13.1984 3.71222C13.1958 3.71222 13.1932 3.71222 13.1906 3.71222C13.188 3.71222 13.1855 3.71222 13.1829 3.71222C13.1803 3.71222 13.1777 3.71222 13.1751 3.71222C13.1725 3.71222 13.1699 3.71222 13.1673 3.71222C13.1647 3.71222 13.1622 3.71222 13.1596 3.71222C13.157 3.71222 13.1544 3.71222 13.1518 3.71222C13.1492 3.71222 13.1466 3.71222 13.144 3.71222C13.1414 3.71222 13.1388 3.71222 13.1363 3.71222C13.1337 3.71222 13.1311 3.71222 13.1285 3.71222C13.1259 3.71222 13.1233 3.71222 13.1207 3.71222C13.1181 3.71222 13.1155 3.71222 13.1129 3.71222C13.1103 3.71222 13.1078 3.71222 13.1052 3.71222C13.1026 3.71222 13.1 3.71222 13.0974 3.71222C13.0948 3.71222 13.0922 3.71222 13.0896 3.71222C13.087 3.71222 13.0844 3.71222 13.0818 3.71222C13.0792 3.71222 13.0767 3.71222 13.0741 3.71222C13.0715 3.71222 13.0689 3.71222 13.0663 3.71222C13.0637 3.71222 13.0611 3.71222 13.0585 3.71222C13.0559 3.71222 13.0533 3.71222 13.0507 3.71222C13.0481 3.71222 13.0455 3.71222 13.0429 3.71222C13.0403 3.71222 13.0378 3.71222 13.0352 3.71222C13.0326 3.71222 13.03 3.71222 13.0274 3.71222C13.0248 3.71222 13.0222 3.71222 13.0196 3.71222C13.017 3.71222 13.0144 3.71222 13.0118 3.71222C13.0092 3.71222 13.0066 3.71222 13.004 3.71222C13.0014 3.71222 12.9988 3.71222 12.9962 3.71222C12.9936 3.71222 12.991 3.71222 12.9884 3.71222C12.9858 3.71222 12.9833 3.71222 12.9807 3.71222C12.9781 3.71222 12.9755 3.71222 12.9729 3.71222C12.9703 3.71222 12.9677 3.71222 12.9651 3.71222C12.9625 3.71222 12.9599 3.71222 12.9573 3.71222C12.9547 3.71222 12.9521 3.71222 12.9495 3.71222C12.9469 3.71222 12.9443 3.71222 12.9417 3.71222C12.9391 3.71222 12.9365 3.71222 12.9339 3.71222C12.9313 3.71222 12.9287 3.71222 12.9261 3.71222C12.9235 3.71222 12.9209 3.71222 12.9183 3.71222C12.9157 3.71222 12.9131 3.71222 12.9105 3.71222C12.9079 3.71222 12.9053 3.71222 12.9027 3.71222C12.9001 3.71222 12.8975 3.71222 12.8949 3.71222C12.8923 3.71222 12.8897 3.71222 12.8871 3.71222C12.8845 3.71222 12.8819 3.71222 12.8793 3.71222C12.8767 3.71222 12.8741 3.71222 12.8715 3.71222C12.8689 3.71222 12.8663 3.71222 12.8637 3.71222C12.8611 3.71222 12.8585 3.71222 12.8559 3.71222C12.8533 3.71222 12.8507 3.71222 12.8481 3.71222C12.8455 3.71222 12.8429 3.71222 12.8403 3.71222C12.8377 3.71222 12.8351 3.71222 12.8325 3.71222C12.8299 3.71222 12.8273 3.71222 12.8247 3.71222C12.8221 3.71222 12.8195 3.71222 12.8169 3.71222C12.8143 3.71222 12.8117 3.71222 12.8091 3.71222C12.8065 3.71222 12.8039 3.71222 12.8013 3.71222C12.7987 3.71222 12.7961 3.71222 12.7935 3.71222C12.7909 3.71222 12.7883 3.71222 12.7857 3.71222C12.7831 3.71222 12.7805 3.71222 12.7779 3.71222C12.7753 3.71222 12.7727 3.71222 12.7701 3.71222C12.7675 3.71222 12.7649 3.71222 12.7623 3.71222C12.7597 3.71222 12.7571 3.71222 12.7545 3.71222C12.7519 3.71222 12.7493 3.71222 12.7466 3.71222C12.744 3.71222 12.7414 3.71222 12.7388 3.71222C12.7362 3.71222 12.7336 3.71222 12.731 3.71222C12.7284 3.71222 12.7258 3.71222 12.7232 3.71222C12.7206 3.71222 12.718 3.71222 12.7154 3.71222C12.7128 3.71222 12.7102 3.71222 12.7076 3.71222C12.705 3.71222 12.7024 3.71222 12.6998 3.71222C12.6972 3.71222 12.6946 3.71222 12.692 3.71222C12.6893 3.71222 12.6867 3.71222 12.6841 3.71222C12.6815 3.71222 12.6789 3.71222 12.6763 3.71222C12.6737 3.71222 12.6711 3.71222 12.6685 3.71222C12.6659 3.71222 12.6633 3.71222 12.6607 3.71222C12.6581 3.71222 12.6555 3.71222 12.6529 3.71222C12.6503 3.71222 12.6476 3.71222 12.645 3.71222C12.6424 3.71222 12.6398 3.71222 12.6372 3.71222C12.6346 3.71222 12.632 3.71222 12.6294 3.71222C12.6268 3.71222 12.6242 3.71222 12.6216 3.71222C12.619 3.71222 12.6164 3.71222 12.6138 3.71222C12.6111 3.71222 12.6085 3.71222 12.6059 3.71222C12.6033 3.71222 12.6007 3.71222 12.5981 3.71222C12.5955 3.71222 12.5929 3.71222 12.5903 3.71222C12.5877 3.71222 12.5851 3.71222 12.5825 3.71222C12.5799 3.71222 12.5772 3.71222 12.5746 3.71222C12.572 3.71222 12.5694 3.71222 12.5668 3.71222C12.5642 3.71222 12.5616 3.71222 12.559 3.71222C12.5564 3.71222 12.5538 3.71222 12.5512 3.71222C12.5485 3.71222 12.5459 3.71222 12.5433 3.71222C12.5407 3.71222 12.5381 3.71222 12.5355 3.71222C12.5329 3.71222 12.5303 3.71222 12.5277 3.71222C12.5251 3.71222 12.5225 3.71222 12.5198 3.71222C12.5172 3.71222 12.5146 3.71222 12.512 3.71222C12.5094 3.71222 12.5068 3.71222 12.5042 3.71222C12.5016 3.71222 12.499 3.71222 12.4964 3.71222C12.4937 3.71222 12.4911 3.71222 12.4885 3.71222C12.4859 3.71222 12.4833 3.71222 12.4807 3.71222C12.4781 3.71222 12.4755 3.71222 12.4729 3.71222C12.4702 3.71222 12.4676 3.71222 12.465 3.71222C12.4624 3.71222 12.4598 3.71222 12.4572 3.71222C12.4546 3.71222 12.452 3.71222 12.4494 3.71222C12.4467 3.71222 12.4441 3.71222 12.4415 3.71222C12.4389 3.71222 12.4363 3.71222 12.4337 3.71222C12.4311 3.71222 12.4285 3.71222 12.4258 3.71222C12.4232 3.71222 12.4206 3.71222 12.418 3.71222C12.4154 3.71222 12.4128 3.71222 12.4102 3.71222C12.4076 3.71222 12.4049 3.71222 12.4023 3.71222C12.3997 3.71222 12.3971 3.71222 12.3945 3.71222C12.3919 3.71222 12.3893 3.71222 12.3867 3.71222C12.384 3.71222 12.3814 3.71222 12.3788 3.71222C12.3762 3.71222 12.3736 3.71222 12.371 3.71222C12.3684 3.71222 12.3658 3.71222 12.3631 3.71222C12.3605 3.71222 12.3579 3.71222 12.3553 3.71222C12.3527 3.71222 12.3501 3.71222 12.3475 3.71222C12.3448 3.71222 12.3422 3.71222 12.3396 3.71222C12.337 3.71222 12.3344 3.71222 12.3318 3.71222C12.3292 3.71222 12.3265 3.71222 12.3239 3.71222C12.3213 3.71222 12.3187 3.71222 12.3161 3.71222C12.3135 3.71222 12.3109 3.71222 12.3082 3.71222C12.3056 3.71222 12.303 3.71222 12.3004 3.71222C12.2978 3.71222 12.2952 3.71222 12.2926 3.71222C12.2899 3.71222 12.2873 3.71222 12.2847 3.71222C12.2821 3.71222 12.2795 3.71222 12.2769 3.71222C12.2743 3.71222 12.2716 3.71222 12.269 3.71222C12.2664 3.71222 12.2638 3.71222 12.2612 3.71222C12.2586 3.71222 12.2559 3.71222 12.2533 3.71222C12.2507 3.71222 12.2481 3.71222 12.2455 3.71222C12.2429 3.71222 12.2402 3.71222 12.2376 3.71222C12.235 3.71222 12.2324 3.71222 12.2298 3.71222C12.2272 3.71222 12.2246 3.71222 12.2219 3.71222C12.2193 3.71222 12.2167 3.71222 12.2141 3.71222C12.2115 3.71222 12.2089 3.71222 12.2062 3.71222C12.2036 3.71222 12.201 3.71222 12.1984 3.71222C12.1958 3.71222 12.1932 3.71222 12.1905 3.71222C12.1879 3.71222 12.1853 3.71222 12.1827 3.71222C12.1801 3.71222 12.1775 3.71222 12.1748 3.71222C12.1722 3.71222 12.1696 3.71222 12.167 3.71222C12.1644 3.71222 12.1618 3.71222 12.1591 3.71222C12.1565 3.71222 12.1539 3.71222 12.1513 3.71222C12.1487 3.71222 12.146 3.71222 12.1434 3.71222C12.1408 3.71222 12.1382 3.71222 12.1356 3.71222C12.133 3.71222 12.1303 3.71222 12.1277 3.71222C12.1251 3.71222 12.1225 3.71222 12.1199 3.71222C12.1173 3.71222 12.1146 3.71222 12.112 3.71222C12.1094 3.71222 12.1068 3.71222 12.1042 3.71222C12.1015 3.71222 12.0989 3.71222 12.0963 3.71222C12.0937 3.71222 12.0911 3.71222 12.0885 3.71222C12.0858 3.71222 12.0832 3.71222 12.0806 3.71222C12.078 3.71222 12.0754 3.71222 12.0727 3.71222C12.0701 3.71222 12.0675 3.71222 12.0649 3.71222C12.0623 3.71222 12.0597 3.71222 12.057 3.71222C12.0544 3.71222 12.0518 3.71222 12.0492 3.71222C12.0466 3.71222 12.0439 3.71222 12.0413 3.71222C12.0387 3.71222 12.0361 3.71222 12.0335 3.71222C12.0308 3.71222 12.0282 3.71222 12.0256 3.71222C12.023 3.71222 12.0204 3.71222 12.0177 3.71222C12.0151 3.71222 12.0125 3.71222 12.0099 3.71222C12.0073 3.71222 12.0046 3.71222 12.002 3.71222C11.9994 3.71222 11.9968 3.71222 11.9942 3.71222C11.9916 3.71222 11.9889 3.71222 11.9863 3.71222C11.9837 3.71222 11.9811 3.71222 11.9785 3.71222C11.9758 3.71222 11.9732 3.71222 11.9706 3.71222C11.968 3.71222 11.9654 3.71222 11.9627 3.71222C11.9601 3.71222 11.9575 3.71222 11.9549 3.71222C11.9523 3.71222 11.9496 3.71222 11.947 3.71222C11.9444 3.71222 11.9418 3.71222 11.9392 3.71222C11.9365 3.71222 11.9339 3.71222 11.9313 3.71222C11.9287 3.71222 11.9261 3.71222 11.9234 3.71222C11.9208 3.71222 11.9182 3.71222 11.9156 3.71222C11.9129 3.71222 11.9103 3.71222 11.9077 3.71222C11.9051 3.71222 11.9025 3.71222 11.8998 3.71222C11.8972 3.71222 11.8946 3.71222 11.892 3.71222C11.8894 3.71222 11.8867 3.71222 11.8841 3.71222C11.8815 3.71222 11.8789 3.71222 11.8763 3.71222C11.8736 3.71222 11.871 3.71222 11.8684 3.71222C11.8658 3.71222 11.8632 3.71222 11.8605 3.71222C11.8579 3.71222 11.8553 3.71222 11.8527 3.71222C11.85 3.71222 11.8474 3.71222 11.8448 3.71222C11.8422 3.71222 11.8396 3.71222 11.8369 3.71222C11.8343 3.71222 11.8317 3.71222 11.8291 3.71222C11.8265 3.71222 11.8238 3.71222 11.8212 3.71222C11.8186 3.71222 11.816 3.71222 11.8133 3.71222C11.8107 3.71222 11.8081 3.71222 11.8055 3.71222C11.8029 3.71222 11.8002 3.71222 11.7976 3.71222C11.795 3.71222 11.7924 3.71222 11.7898 3.71222C11.7871 3.71222 11.7845 3.71222 11.7819 3.71222C11.7793 3.71222 11.7766 3.71222 11.774 3.71222C11.7714 3.71222 11.7688 3.71222 11.7662 3.71222C11.7635 3.71222 11.7609 3.71222 11.7583 3.71222C11.7557 3.71222 11.753 3.71222 11.7504 3.71222C11.7478 3.71222 11.7452 3.71222 11.7426 3.71222C11.7399 3.71222 11.7373 3.71222 11.7347 3.71222C11.7321 3.71222 11.7295 3.71222 11.7268 3.71222C11.7242 3.71222 11.7216 3.71222 11.719 3.71222C11.7163 3.71222 11.7137 3.71222 11.7111 3.71222C11.7085 3.71222 11.7059 3.71222 11.7032 3.71222C11.7006 3.71222 11.698 3.71222 11.6954 3.71222C11.6927 3.71222 11.6901 3.71222 11.6875 3.71222C11.6849 3.71222 11.6823 3.71222 11.6796 3.71222C11.677 3.71222 11.6744 3.71222 11.6718 3.71222C11.6691 3.71222 11.6665 3.71222 11.6639 3.71222C11.6613 3.71222 11.6586 3.71222 11.656 3.71222C11.6534 3.71222 11.6508 3.71222 11.6482 3.71222C11.6455 3.71222 11.6429 3.71222 11.6403 3.71222C11.6377 3.71222 11.635 3.71222 11.6324 3.71222C11.6298 3.71222 11.6272 3.71222 11.6246 3.71222C11.6219 3.71222 11.6193 3.71222 11.6167 3.71222C11.6141 3.71222 11.6114 3.71222 11.6088 3.71222C11.6062 3.71222 11.6036 3.71222 11.601 3.71222C11.5983 3.71222 11.5957 3.71222 11.5931 3.71222C11.5905 3.71222 11.5878 3.71222 11.5852 3.71222C11.5826 3.71222 11.58 3.71222 11.5773 3.71222C11.5747 3.71222 11.5721 3.71222 11.5695 3.71222C11.5669 3.71222 11.5642 3.71222 11.5616 3.71222C11.559 3.71222 11.5564 3.71222 11.5537 3.71222C11.5511 3.71222 11.5485 3.71222 11.5459 3.71222C11.5432 3.71222 11.5406 3.71222 11.538 3.71222C11.5354 3.71222 11.5328 3.71222 11.5301 3.71222C11.5275 3.71222 11.5249 3.71222 11.5223 3.71222C11.5196 3.71222 11.517 3.71222 11.5144 3.71222C11.5118 3.71222 11.5092 3.71222 11.5065 3.71222C11.5039 3.71222 11.5013 3.71222 11.4987 3.71222C11.496 3.71222 11.4934 3.71222 11.4908 3.71222C11.4882 3.71222 11.4855 3.71222 11.4829 3.71222C11.4803 3.71222 11.4777 3.71222 11.4751 3.71222C11.4724 3.71222 11.4698 3.71222 11.4672 3.71222C11.4646 3.71222 11.4619 3.71222 11.4593 3.71222C11.4567 3.71222 11.4541 3.71222 11.4514 3.71222C11.4488 3.71222 11.4462 3.71222 11.4436 3.71222C11.441 3.71222 11.4383 3.71222 11.4357 3.71222C11.4331 3.71222 11.4305 3.71222 11.4278 3.71222C11.4252 3.71222 11.4226 3.71222 11.42 3.71222C11.4173 3.71222 11.4147 3.71222 11.4121 3.71222C11.4095 3.71222 11.4069 3.71222 11.4042 3.71222C11.4016 3.71222 11.399 3.71222 11.3964 3.71222C11.3937 3.71222 11.3911 3.71222 11.3885 3.71222C11.3859 3.71222 11.3832 3.71222 11.3806 3.71222C11.378 3.71222 11.3754 3.71222 11.3728 3.71222C11.3701 3.71222 11.3675 3.71222 11.3649 3.71222C11.3623 3.71222 11.3596 3.71222 11.357 3.71222C11.3544 3.71222 11.3518 3.71222 11.3491 3.71222C11.3465 3.71222 11.3439 3.71222 11.3413 3.71222C11.3387 3.71222 11.336 3.71222 11.3334 3.71222C11.3308 3.71222 11.3282 3.71222 11.3255 3.71222C11.3229 3.71222 11.3203 3.71222 11.3177 3.71222C11.315 3.71222 11.3124 3.71222 11.3098 3.71222C11.3072 3.71222 11.3046 3.71222 11.3019 3.71222C11.2993 3.71222 11.2967 3.71222 11.2941 3.71222C11.2914 3.71222 11.2888 3.71222 11.2862 3.71222C11.2836 3.71222 11.281 3.71222 11.2783 3.71222C11.2757 3.71222 11.2731 3.71222 11.2705 3.71222C11.2678 3.71222 11.2652 3.71222 11.2626 3.71222C11.26 3.71222 11.2573 3.71222 11.2547 3.71222C11.2521 3.71222 11.2495 3.71222 11.2469 3.71222C11.2442 3.71222 11.2416 3.71222 11.239 3.71222C11.2364 3.71222 11.2337 3.71222 11.2311 3.71222C11.2285 3.71222 11.2259 3.71222 11.2233 3.71222C11.2206 3.71222 11.218 3.71222 11.2154 3.71222C11.2128 3.71222 11.2101 3.71222 11.2075 3.71222C11.2049 3.71222 11.2023 3.71222 11.1997 3.71222C11.197 3.71222 11.1944 3.71222 11.1918 3.71222C11.1892 3.71222 11.1865 3.71222 11.1839 3.71222C11.1813 3.71222 11.1787 3.71222 11.1761 3.71222C11.1734 3.71222 11.1708 3.71222 11.1682 3.71222C11.1656 3.71222 11.1629 3.71222 11.1603 3.71222C11.1577 3.71222 11.1551 3.71222 11.1525 3.71222C11.1498 3.71222 11.1472 3.71222 11.1446 3.71222C11.142 3.71222 11.1393 3.71222 11.1367 3.71222C11.1341 3.71222 11.1315 3.71222 11.1289 3.71222C11.1262 3.71222 11.1236 3.71222 11.121 3.71222C11.1184 3.71222 11.1157 3.71222 11.1131 3.71222C11.1105 3.71222 11.1079 3.71222 11.1053 3.71222C11.1026 3.71222 11.1 3.71222 11.0974 3.71222C11.0948 3.71222 11.0922 3.71222 11.0895 3.71222C11.0869 3.71222 11.0843 3.71222 11.0817 3.71222C11.079 3.71222 11.0764 3.71222 11.0738 3.71222C11.0712 3.71222 11.0686 3.71222 11.0659 3.71222C11.0633 3.71222 11.0607 3.71222 11.0581 3.71222C11.0554 3.71222 11.0528 3.71222 11.0502 3.71222C11.0476 3.71222 11.045 3.71222 11.0423 3.71222C11.0397 3.71222 11.0371 3.71222 11.0345 3.71222C11.0319 3.71222 11.0292 3.71222 11.0266 3.71222C11.024 3.71222 11.0214 3.71222 11.0188 3.71222C11.0161 3.71222 11.0135 3.71222 11.0109 3.71222C11.0083 3.71222 11.0056 3.71222 11.003 3.71222C11.0004 3.71222 10.9978 3.71222 10.9952 3.71222C10.9925 3.71222 10.9899 3.71222 10.9873 3.71222C10.9847 3.71222 10.9821 3.71222 10.9794 3.71222C10.9768 3.71222 10.9742 3.71222 10.9716 3.71222C10.969 3.71222 10.9663 3.71222 10.9637 3.71222C10.9611 3.71222 10.9585 3.71222 10.9559 3.71222C10.9532 3.71222 10.9506 3.71222 10.948 3.71222C10.9454 3.71222 10.9428 3.71222 10.9401 3.71222C10.9375 3.71222 10.9349 3.71222 10.9323 3.71222C10.9297 3.71222 10.927 3.71222 10.9244 3.71222C10.9218 3.71222 10.9192 3.71222 10.9166 3.71222C10.9139 3.71222 10.9113 3.71222 10.9087 3.71222C10.9061 3.71222 10.9035 3.71222 10.9008 3.71222C10.8982 3.71222 10.8956 3.71222 10.893 3.71222C10.8904 3.71222 10.8877 3.71222 10.8851 3.71222C10.8825 3.71222 10.8799 3.71222 10.8773 3.71222C10.8746 3.71222 10.872 3.71222 10.8694 3.71222C10.8668 3.71222 10.8642 3.71222 10.8615 3.71222C10.8589 3.71222 10.8563 3.71222 10.8537 3.71222C10.8511 3.71222 10.8484 3.71222 10.8458 3.71222C10.8432 3.71222 10.8406 3.71222 10.838 3.71222C10.8354 3.71222 10.8327 3.71222 10.8301 3.71222C10.8275 3.71222 10.8249 3.71222 10.8223 3.71222C10.8196 3.71222 10.817 3.71222 10.8144 3.71222C10.8118 3.71222 10.8092 3.71222 10.8065 3.71222C10.8039 3.71222 10.8013 3.71222 10.7987 3.71222C10.7961 3.71222 10.7935 3.71222 10.7908 3.71222C10.7882 3.71222 10.7856 3.71222 10.783 3.71222C10.7804 3.71222 10.7777 3.71222 10.7751 3.71222C10.7725 3.71222 10.7699 3.71222 10.7673 3.71222C10.7647 3.71222 10.762 3.71222 10.7594 3.71222C10.7568 3.71222 10.7542 3.71222 10.7516 3.71222C10.749 3.71222 10.7463 3.71222 10.7437 3.71222C10.7411 3.71222 10.7385 3.71222 10.7359 3.71222C10.7332 3.71222 10.7306 3.71222 10.728 3.71222C10.7254 3.71222 10.7228 3.71222 10.7202 3.71222C10.7175 3.71222 10.7149 3.71222 10.7123 3.71222C10.7097 3.71222 10.7071 3.71222 10.7045 3.71222C10.7018 3.71222 10.6992 3.71222 10.6966 3.71222C10.694 3.71222 10.6914 3.71222 10.6888 3.71222C10.6861 3.71222 10.6835 3.71222 10.6809 3.71222C10.6783 3.71222 10.6757 3.71222 10.6731 3.71222C10.6704 3.71222 10.6678 3.71222 10.6652 3.71222C10.6626 3.71222 10.66 3.71222 10.6574 3.71222C10.6547 3.71222 10.6521 3.71222 10.6495 3.71222C10.6469 3.71222 10.6443 3.71222 10.6417 3.71222C10.6391 3.71222 10.6364 3.71222 10.6338 3.71222C10.6312 3.71222 10.6286 3.71222 10.626 3.71222C10.6234 3.71222 10.6207 3.71222 10.6181 3.71222C10.6155 3.71222 10.6129 3.71222 10.6103 3.71222C10.6077 3.71222 10.605 3.71222 10.6024 3.71222C10.5998 3.71222 10.5972 3.71222 10.5946 3.71222C10.592 3.71222 10.5894 3.71222 10.5867 3.71222C10.5841 3.71222 10.5815 3.71222 10.5789 3.71222C10.5763 3.71222 10.5737 3.71222 10.5711 3.71222C10.5684 3.71222 10.5658 3.71222 10.5632 3.71222C10.5606 3.71222 10.558 3.71222 10.5554 3.71222C10.5528 3.71222 10.5501 3.71222 10.5475 3.71222C10.5449 3.71222 10.5423 3.71222 10.5397 3.71222C10.5371 3.71222 10.5345 3.71222 10.5318 3.71222C10.5292 3.71222 10.5266 3.71222 10.524 3.71222C10.5214 3.71222 10.5188 3.71222 10.5162 3.71222C10.5136 3.71222 10.5109 3.71222 10.5083 3.71222C10.5057 3.71222 10.5031 3.71222 10.5005 3.71222C10.4979 3.71222 10.4953 3.71222 10.4926 3.71222C10.49 3.71222 10.4874 3.71222 10.4848 3.71222C10.4822 3.71222 10.4796 3.71222 10.477 3.71222C10.4744 3.71222 10.4717 3.71222 10.4691 3.71222C10.4665 3.71222 10.4639 3.71222 10.4613 3.71222C10.4587 3.71222 10.4561 3.71222 10.4535 3.71222C10.4509 3.71222 10.4482 3.71222 10.4456 3.71222C10.443 3.71222 10.4404 3.71222 10.4378 3.71222C10.4352 3.71222 10.4326 3.71222 10.43 3.71222C10.4273 3.71222 10.4247 3.71222 10.4221 3.71222C10.4195 3.71222 10.4169 3.71222 10.4143 3.71222C10.4117 3.71222 10.4091 3.71222 10.4065 3.71222C10.4038 3.71222 10.4012 3.71222 10.3986 3.71222C10.396 3.71222 10.3934 3.71222 10.3908 3.71222C10.3882 3.71222 10.3856 3.71222 10.383 3.71222C10.3804 3.71222 10.3777 3.71222 10.3751 3.71222C10.3725 3.71222 10.3699 3.71222 10.3673 3.71222C10.3647 3.71222 10.3621 3.71222 10.3595 3.71222C10.3569 3.71222 10.3543 3.71222 10.3516 3.71222C10.349 3.71222 10.3464 3.71222 10.3438 3.71222C10.3412 3.71222 10.3386 3.71222 10.336 3.71222C10.3334 3.71222 10.3308 3.71222 10.3282 3.71222C10.3255 3.71222 10.3229 3.71222 10.3203 3.71222C10.3177 3.71222 10.3151 3.71222 10.3125 3.71222C10.3099 3.71222 10.3073 3.71222 10.3047 3.71222C10.3021 3.71222 10.2995 3.71222 10.2969 3.71222C10.2942 3.71222 10.2916 3.71222 10.289 3.71222C10.2864 3.71222 10.2838 3.71222 10.2812 3.71222C10.2786 3.71222 10.276 3.71222 10.2734 3.71222C10.2708 3.71222 10.2682 3.71222 10.2656 3.71222C10.263 3.71222 10.2603 3.71222 10.2577 3.71222C10.2551 3.71222 10.2525 3.71222 10.2499 3.71222C10.2473 3.71222 10.2447 3.71222 10.2421 3.71222C10.2395 3.71222 10.2369 3.71222 10.2343 3.71222C10.2317 3.71222 10.2291 3.71222 10.2265 3.71222C10.2239 3.71222 10.2212 3.71222 10.2186 3.71222C10.216 3.71222 10.2134 3.71222 10.2108 3.71222C10.2082 3.71222 10.2056 3.71222 10.203 3.71222C10.2004 3.71222 10.1978 3.71222 10.1952 3.71222C10.1926 3.71222 10.19 3.71222 10.1874 3.71222C10.1848 3.71222 10.1822 3.71222 10.1796 3.71222C10.177 3.71222 10.1743 3.71222 10.1717 3.71222C10.1691 3.71222 10.1665 3.71222 10.1639 3.71222C10.1613 3.71222 10.1587 3.71222 10.1561 3.71222C10.1535 3.71222 10.1509 3.71222 10.1483 3.71222C10.1457 3.71222 10.1431 3.71222 10.1405 3.71222C10.1379 3.71222 10.1353 3.71222 10.1327 3.71222C10.1301 3.71222 10.1275 3.71222 10.1249 3.71222C10.1223 3.71222 10.1197 3.71222 10.1171 3.71222C10.1145 3.71222 10.1119 3.71222 10.1093 3.71222C10.1066 3.71222 10.104 3.71222 10.1014 3.71222C10.0988 3.71222 10.0962 3.71222 10.0936 3.71222C10.091 3.71222 10.0884 3.71222 10.0858 3.71222C10.0832 3.71222 10.0806 3.71222 10.078 3.71222C10.0754 3.71222 10.0728 3.71222 10.0702 3.71222C10.0676 3.71222 10.065 3.71222 10.0624 3.71222C10.0598 3.71222 10.0572 3.71222 10.0546 3.71222C10.052 3.71222 10.0494 3.71222 10.0468 3.71222C10.0442 3.71222 10.0416 3.71222 10.039 3.71222C10.0364 3.71222 10.0338 3.71222 10.0312 3.71222C10.0286 3.71222 10.026 3.71222 10.0234 3.71222C10.0208 3.71222 10.0182 3.71222 10.0156 3.71222C10.013 3.71222 10.0104 3.71222 10.0078 3.71222C10.0052 3.71222 10.0026 3.71222 10 3.71222V4.91222ZM13.8169 4.88359C13.9587 4.92906 14.0992 4.97998 14.238 5.03636L14.6897 3.92462C14.5227 3.85678 14.3537 3.79552 14.1831 3.74085L13.8169 4.88359ZM14.6 4.31222V2.5H13.4V4.31222H14.6ZM13 0.9H11V2.1H13V0.9ZM14.6 2.5C14.6 1.61634 13.8837 0.9 13 0.9V2.1C13.2209 2.1 13.4 2.27909 13.4 2.5H14.6ZM10.5 19.4C9.7268 19.4 9.1 18.7732 9.1 18H7.9C7.9 19.4359 9.06406 20.6 10.5 20.6V19.4ZM14.9 18C14.9 18.7732 14.2732 19.4 13.5 19.4V20.6C14.9359 20.6 16.1 19.4359 16.1 18H14.9ZM15.4 17.6C15.1239 17.6 14.9 17.3761 14.9 17.1H16.1C16.1 16.7134 15.7866 16.4 15.4 16.4V17.6ZM10.6 2.5C10.6 2.27909 10.7791 2.1 11 2.1V0.9C10.1163 0.9 9.4 1.61634 9.4 2.5H10.6ZM8.6 16.4C8.2134 16.4 7.9 16.7134 7.9 17.1H9.1C9.1 17.3761 8.87614 17.6 8.6 17.6V16.4Z" fill="#28293D"/>
</svg>
