<svg width="24" height="24" viewBox="0 0 24 24" fill="none" xmlns="http://www.w3.org/2000/svg">
<path d="M3.13043 19.505L3.55469 19.0808H3.55469L3.13043 19.505ZM3.13043 14.0468L3.55469 14.4711L3.13043 14.0468ZM9.95318 20.8696L10.3774 21.2938L9.95318 20.8696ZM4.49498 20.8696L4.07071 21.2938L4.49498 20.8696ZM20.8696 4.49498L21.2938 4.07072V4.07071L20.8696 4.49498ZM20.8696 9.95318L21.2938 10.3774L20.8696 9.95318ZM19.505 3.13043L19.0808 3.55469L19.505 3.13043ZM14.0468 3.13043L14.4711 3.55469L14.0468 3.13043ZM9.25084 13.3445L9.67511 12.9202H9.67511L9.25084 13.3445ZM9.25084 11.9799L9.67511 12.4042L9.25084 11.9799ZM11.9799 14.709L12.4042 15.1333L11.9799 14.709ZM10.6154 14.709L10.1911 15.1333L10.6154 14.709ZM14.709 10.6154L15.1333 10.1911L14.709 10.6154ZM14.709 11.9799L14.2848 11.5556L14.709 11.9799ZM13.3445 9.25081L12.9202 9.67508L13.3445 9.25081ZM11.9799 9.25081L11.5557 8.82655L11.9799 9.25081ZM4.49498 3.13043L4.91924 3.55469L4.49498 3.13043ZM3.13043 4.49498L2.70617 4.07071L2.70617 4.07072L3.13043 4.49498ZM3.13043 9.95318L2.70617 10.3774H2.70617L3.13043 9.95318ZM14.0468 20.8696L14.4711 20.4453V20.4453L14.0468 20.8696ZM19.505 20.8696L19.9293 21.2938V21.2938L19.505 20.8696ZM20.8696 19.505L20.4453 19.0808V19.0808L20.8696 19.505ZM9.95318 3.13043L9.52891 3.55469L9.95318 3.13043ZM12 5.17725L12.4243 5.60152L12 5.17725ZM5.17725 12L4.75299 11.5757L5.17725 12ZM12 18.8227L11.5757 18.3985L12 18.8227ZM19.0808 3.55469L20.4453 4.91924L21.2938 4.07071L19.9293 2.70617L19.0808 3.55469ZM4.91924 20.4453L3.55469 19.0808L2.70617 19.9293L4.07071 21.2938L4.91924 20.4453ZM3.55469 19.0808C2.28177 17.8078 2.28177 15.744 3.55469 14.4711L2.70617 13.6226C0.964612 15.3641 0.964611 18.1877 2.70617 19.9293L3.55469 19.0808ZM9.52891 20.4453C8.25599 21.7182 6.19217 21.7182 4.91924 20.4453L4.07071 21.2938C5.81227 23.0354 8.63589 23.0354 10.3774 21.2938L9.52891 20.4453ZM20.4453 4.91924C21.7182 6.19217 21.7182 8.25599 20.4453 9.52891L21.2938 10.3774C23.0354 8.63589 23.0354 5.81227 21.2938 4.07072L20.4453 4.91924ZM19.9293 2.70617C18.1877 0.964611 15.3641 0.964612 13.6226 2.70617L14.4711 3.55469C15.744 2.28177 17.8078 2.28177 19.0808 3.55469L19.9293 2.70617ZM12.9202 9.67508L14.2848 11.0396L15.1333 10.1911L13.7688 8.82655L12.9202 9.67508ZM14.2848 11.5556L11.5557 14.2847L12.4042 15.1333L15.1333 12.4042L14.2848 11.5556ZM11.0397 14.2847L9.67511 12.9202L8.82658 13.7687L10.1911 15.1333L11.0397 14.2847ZM9.67511 12.4042L12.4042 9.67508L11.5557 8.82655L8.82658 11.5556L9.67511 12.4042ZM9.67511 12.9202C9.53261 12.7777 9.53261 12.5467 9.67511 12.4042L8.82658 11.5556C8.21546 12.1668 8.21546 13.1576 8.82658 13.7687L9.67511 12.9202ZM11.5557 14.2847C11.4132 14.4272 11.1822 14.4272 11.0397 14.2847L10.1911 15.1333C10.8023 15.7444 11.7931 15.7444 12.4042 15.1333L11.5557 14.2847ZM14.2848 11.0396C14.4273 11.1821 14.4273 11.4132 14.2848 11.5556L15.1333 12.4042C15.7444 11.7931 15.7444 10.8022 15.1333 10.1911L14.2848 11.0396ZM13.7688 8.82655C13.1576 8.21543 12.1668 8.21543 11.5557 8.82655L12.4042 9.67508C12.5467 9.53258 12.7777 9.53258 12.9202 9.67508L13.7688 8.82655ZM4.07072 2.70617L2.70617 4.07071L3.55469 4.91924L4.91924 3.55469L4.07072 2.70617ZM19.9293 21.2938L21.2938 19.9293L20.4453 19.0808L19.0808 20.4453L19.9293 21.2938ZM21.2938 19.9293C23.0354 18.1877 23.0354 15.3641 21.2938 13.6226L20.4453 14.4711C21.7182 15.744 21.7182 17.8078 20.4453 19.0808L21.2938 19.9293ZM13.6226 21.2938C15.3641 23.0354 18.1877 23.0354 19.9293 21.2938L19.0808 20.4453C17.8078 21.7182 15.744 21.7182 14.4711 20.4453L13.6226 21.2938ZM2.70617 4.07072C0.964613 5.81227 0.964613 8.63589 2.70617 10.3774L3.55469 9.52891C2.28177 8.25599 2.28177 6.19217 3.55469 4.91924L2.70617 4.07072ZM4.91924 3.55469C6.19217 2.28177 8.25599 2.28177 9.52891 3.55469L10.3774 2.70617C8.63589 0.964612 5.81227 0.964611 4.07072 2.70617L4.91924 3.55469ZM12.4243 5.60152L14.4711 3.55469L13.6226 2.70617L11.5757 4.75299L12.4243 5.60152ZM3.55469 14.4711L5.60152 12.4243L4.75299 11.5757L2.70617 13.6226L3.55469 14.4711ZM5.60152 12.4243L12.4243 5.60152L11.5757 4.75299L4.75299 11.5757L5.60152 12.4243ZM11.5757 18.3985L9.52891 20.4453L10.3774 21.2938L12.4243 19.247L11.5757 18.3985ZM20.4453 9.52891L18.3985 11.5757L19.247 12.4243L21.2938 10.3774L20.4453 9.52891ZM18.3985 11.5757L11.5757 18.3985L12.4243 19.247L19.247 12.4243L18.3985 11.5757ZM11.0397 3.36838L10.3774 2.70617L9.52891 3.55469L10.1911 4.21691L11.0397 3.36838ZM2.70617 10.3774L3.36835 11.0396L4.21688 10.1911L3.55469 9.52891L2.70617 10.3774ZM21.2938 13.6226L20.5915 12.9202L19.7429 13.7687L20.4453 14.4711L21.2938 13.6226ZM12.9202 20.5915L13.6226 21.2938L14.4711 20.4453L13.7688 19.743L12.9202 20.5915Z" fill="#28293D"/>
</svg>
