<svg width="24" height="24" viewBox="0 0 24 24" fill="none" xmlns="http://www.w3.org/2000/svg">
<path d="M2 22L22 16M2 16L22 22" stroke="#28293D" stroke-width="1.2" stroke-linecap="round"/>
<mask id="path-2-inside-1_402_12447" fill="white">
<path d="M12 16C15.866 16 19 13.0451 19 9.4C19 3.6195 14.8124 0.800979 12.5706 0.0507167C12.4987 0.0266487 12.4298 0.0896246 12.4422 0.164445C12.7864 2.24562 12.0911 6.77633 9.08515 6.39804C9.07079 6.39623 9.05644 6.39122 9.0444 6.38319C8.57731 6.07136 8.3165 5.29085 8.29549 3.97515C8.29426 3.89778 8.21007 3.84958 8.1444 3.89052C6.24976 5.07159 5 7.09819 5 9.4C5 13.0451 8.13401 16 12 16Z"/>
</mask>
<path d="M12.4422 0.164445L13.6261 -0.0313615V-0.0313616L12.4422 0.164445ZM9.08515 6.39804L9.23499 5.20743L9.23499 5.20743L9.08515 6.39804ZM8.1444 3.89052L8.77921 4.90886L8.77921 4.90886L8.1444 3.89052ZM9.0444 6.38319L8.37812 7.38122L8.37813 7.38123L9.0444 6.38319ZM8.29549 3.97515L7.09565 3.99431V3.99431L8.29549 3.97515ZM12.5706 0.0507167L12.9514 -1.08725L12.9514 -1.08725L12.5706 0.0507167ZM17.8 9.4C17.8 12.3168 15.2708 14.8 12 14.8V17.2C16.4612 17.2 20.2 13.7734 20.2 9.4H17.8ZM12 14.8C8.72925 14.8 6.2 12.3168 6.2 9.4H3.8C3.8 13.7734 7.53877 17.2 12 17.2V14.8ZM11.2583 0.360251C11.3984 1.20735 11.3242 2.64578 10.8969 3.78075C10.6862 4.34055 10.425 4.7308 10.1558 4.95629C9.92191 5.15213 9.6463 5.25919 9.23499 5.20743L8.93532 7.58865C10.027 7.72603 10.9655 7.40861 11.6967 6.7963C12.3924 6.21364 12.8472 5.41207 13.143 4.62633C13.7288 3.07023 13.8302 1.20272 13.6261 -0.0313615L11.2583 0.360251ZM6.2 9.4C6.2 7.55049 7.20255 5.89171 8.77921 4.90886L7.5096 2.87218C5.29697 4.25147 3.8 6.64588 3.8 9.4H6.2ZM9.71068 5.38516C9.78457 5.43448 9.72552 5.44233 9.64667 5.19335C9.56883 4.94754 9.50484 4.55115 9.49534 3.956L7.09565 3.99431C7.10715 4.71485 7.18407 5.36657 7.35865 5.91789C7.53224 6.46605 7.83714 7.02006 8.37812 7.38122L9.71068 5.38516ZM12.1897 1.18868C14.1282 1.83741 17.8 4.30761 17.8 9.4H20.2C20.2 2.93138 15.4966 -0.235452 12.9514 -1.08725L12.1897 1.18868ZM8.77921 4.90886C8.01096 5.38777 7.10852 4.80034 7.09565 3.99431L9.49534 3.956C9.48 2.99522 8.40919 2.3114 7.5096 2.87218L8.77921 4.90886ZM9.23499 5.20743C9.38685 5.22654 9.55301 5.2799 9.71067 5.38515L8.37813 7.38123C8.55986 7.50255 8.75474 7.56592 8.93532 7.58865L9.23499 5.20743ZM13.6261 -0.0313616C13.7487 0.710198 13.0471 1.47561 12.1897 1.18868L12.9514 -1.08725C11.9502 -1.42231 11.1109 -0.530949 11.2583 0.360251L13.6261 -0.0313616Z" fill="#28293D" mask="url(#path-2-inside-1_402_12447)"/>
</svg>
