<svg width="24" height="24" viewBox="0 0 24 24" fill="none" xmlns="http://www.w3.org/2000/svg">
<path d="M4 2L4.21067 1.4382L3.4 1.1342V2H4ZM20 2H20.6V1.1342L19.7893 1.4382L20 2ZM20 11L20.326 11.5037L20.6 11.3264V11H20ZM4 11H3.4V11.3264L3.67405 11.5037L4 11ZM19.4 2V11H20.6V2H19.4ZM4.6 11V2H3.4V11H4.6ZM4 2C3.78933 2.5618 3.78943 2.56184 3.78955 2.56188C3.78961 2.56191 3.78975 2.56196 3.78987 2.562C3.79011 2.56209 3.79042 2.56221 3.79078 2.56234C3.79151 2.56261 3.79248 2.56298 3.7937 2.56343C3.79612 2.56433 3.79952 2.56559 3.80386 2.56719C3.81255 2.5704 3.82504 2.57498 3.84122 2.58085C3.87356 2.59259 3.92064 2.60948 3.98148 2.63077C4.10313 2.67335 4.27988 2.73359 4.50389 2.80559C4.9517 2.94953 5.58955 3.14085 6.35448 3.33209C7.87922 3.71327 9.93195 4.1 12 4.1V2.9C10.0681 2.9 8.12078 2.53673 6.64552 2.16791C5.91045 1.98415 5.2983 1.80047 4.87111 1.66316C4.65762 1.59454 4.49062 1.53759 4.3779 1.49814C4.32154 1.47841 4.27878 1.46307 4.25058 1.45284C4.23648 1.44772 4.22602 1.44388 4.21933 1.44141C4.21598 1.44018 4.21358 1.43928 4.21213 1.43875C4.21141 1.43848 4.21092 1.4383 4.21068 1.4382C4.21056 1.43816 4.2105 1.43814 4.2105 1.43814C4.21049 1.43814 4.21054 1.43815 4.21054 1.43815C4.2106 1.43817 4.21067 1.4382 4 2ZM12 4.1C14.0681 4.1 16.1208 3.71327 17.6455 3.33209C18.4104 3.14085 19.0483 2.94953 19.4961 2.80559C19.7201 2.73359 19.8969 2.67335 20.0185 2.63077C20.0794 2.60948 20.1264 2.59259 20.1588 2.58085C20.175 2.57498 20.1874 2.5704 20.1961 2.56719C20.2005 2.56559 20.2039 2.56433 20.2063 2.56343C20.2075 2.56298 20.2085 2.56261 20.2092 2.56234C20.2096 2.56221 20.2099 2.56209 20.2101 2.562C20.2103 2.56196 20.2104 2.56191 20.2104 2.56188C20.2106 2.56184 20.2107 2.5618 20 2C19.7893 1.4382 19.7894 1.43817 19.7895 1.43815C19.7895 1.43815 19.7895 1.43814 19.7895 1.43814C19.7895 1.43814 19.7894 1.43816 19.7893 1.4382C19.7891 1.4383 19.7886 1.43848 19.7879 1.43875C19.7864 1.43928 19.784 1.44018 19.7807 1.44141C19.774 1.44388 19.7635 1.44772 19.7494 1.45284C19.7212 1.46307 19.6785 1.47841 19.6221 1.49814C19.5094 1.53759 19.3424 1.59454 19.1289 1.66316C18.7017 1.80047 18.0896 1.98415 17.3545 2.16791C15.8792 2.53673 13.9319 2.9 12 2.9V4.1ZM20 11C19.7893 10.4382 19.7894 10.4382 19.7895 10.4382L19.7895 10.4381C19.7895 10.4381 19.7894 10.4382 19.7893 10.4382C19.7891 10.4383 19.7886 10.4385 19.7879 10.4387C19.7864 10.4393 19.784 10.4402 19.7807 10.4414C19.774 10.4439 19.7635 10.4477 19.7494 10.4528C19.7212 10.4631 19.6785 10.4784 19.6221 10.4981C19.5094 10.5376 19.3424 10.5945 19.1289 10.6632C18.7017 10.8005 18.0896 10.9841 17.3545 11.1679C15.8792 11.5367 13.9319 11.9 12 11.9V13.1C14.0681 13.1 16.1208 12.7133 17.6455 12.3321C18.4104 12.1409 19.0483 11.9495 19.4961 11.8056C19.7201 11.7336 19.8969 11.6733 20.0185 11.6308C20.0794 11.6095 20.1264 11.5926 20.1588 11.5809C20.175 11.575 20.1874 11.5704 20.1961 11.5672C20.2005 11.5656 20.2039 11.5643 20.2063 11.5634C20.2075 11.563 20.2085 11.5626 20.2092 11.5623C20.2096 11.5622 20.2099 11.5621 20.2101 11.562C20.2103 11.562 20.2104 11.5619 20.2104 11.5619C20.2106 11.5618 20.2107 11.5618 20 11ZM12 11.9C10.0681 11.9 8.12078 11.5367 6.64552 11.1679C5.91045 10.9841 5.2983 10.8005 4.87111 10.6632C4.65762 10.5945 4.49062 10.5376 4.3779 10.4981C4.32154 10.4784 4.27878 10.4631 4.25058 10.4528C4.23648 10.4477 4.22602 10.4439 4.21933 10.4414C4.21598 10.4402 4.21358 10.4393 4.21213 10.4387C4.21141 10.4385 4.21092 10.4383 4.21068 10.4382C4.21056 10.4382 4.2105 10.4381 4.2105 10.4381C4.21049 10.4381 4.21054 10.4382 4.21054 10.4382C4.2106 10.4382 4.21067 10.4382 4 11C3.78933 11.5618 3.78943 11.5618 3.78955 11.5619C3.78961 11.5619 3.78975 11.562 3.78987 11.562C3.79011 11.5621 3.79042 11.5622 3.79078 11.5623C3.79151 11.5626 3.79248 11.563 3.7937 11.5634C3.79612 11.5643 3.79952 11.5656 3.80386 11.5672C3.81255 11.5704 3.82504 11.575 3.84122 11.5809C3.87356 11.5926 3.92064 11.6095 3.98148 11.6308C4.10313 11.6733 4.27988 11.7336 4.50389 11.8056C4.9517 11.9495 5.58955 12.1409 6.35448 12.3321C7.87922 12.7133 9.93195 13.1 12 13.1V11.9ZM19.674 10.4963L2.67405 21.4963L3.32595 22.5037L20.326 11.5037L19.674 10.4963ZM3.67405 11.5037L20.674 22.5037L21.326 21.4963L4.32595 10.4963L3.67405 11.5037ZM2 8.6H6V7.4H2V8.6ZM18 8.6H22V7.4H18V8.6Z" fill="#28293D"/>
</svg>
