<svg width="24" height="24" viewBox="0 0 24 24" fill="none" xmlns="http://www.w3.org/2000/svg">
<path d="M17.4 8V16H18.6V8H17.4ZM12 21.4C9.01766 21.4 6.6 18.9823 6.6 16H5.4C5.4 19.6451 8.35492 22.6 12 22.6V21.4ZM17.4 16C17.4 18.9823 14.9823 21.4 12 21.4V22.6C15.6451 22.6 18.6 19.6451 18.6 16H17.4ZM12 2.6C14.9823 2.6 17.4 5.01766 17.4 8H18.6C18.6 4.35492 15.6451 1.4 12 1.4V2.6ZM12 1.4C8.35492 1.4 5.4 4.35492 5.4 8H6.6C6.6 5.01766 9.01766 2.6 12 2.6V1.4ZM6.6 9V8H5.4V9H6.6ZM6 12.6H6.9V11.4H6V12.6ZM6.4 12.1V14.9H7.6V12.1H6.4ZM6.6 16V15H5.4V16H6.6ZM6.9 14.4H6V15.6H6.9V14.4ZM6 14.4H5.1V15.6H6V14.4ZM5.6 14.9V12.1H4.4V14.9H5.6ZM5.1 12.6H6V11.4H5.1V12.6ZM5.6 12.1C5.6 12.3761 5.37614 12.6 5.1 12.6V11.4C4.7134 11.4 4.4 11.7134 4.4 12.1H5.6ZM5.1 14.4C5.37614 14.4 5.6 14.6239 5.6 14.9H4.4C4.4 15.2866 4.7134 15.6 5.1 15.6V14.4ZM6.4 14.9C6.4 14.6239 6.62386 14.4 6.9 14.4V15.6C7.2866 15.6 7.6 15.2866 7.6 14.9H6.4ZM6.9 12.6C6.62386 12.6 6.4 12.3761 6.4 12.1H7.6C7.6 11.7134 7.2866 11.4 6.9 11.4V12.6Z" fill="#28293D"/>
</svg>
