<svg width="24" height="24" viewBox="0 0 24 24" fill="none" xmlns="http://www.w3.org/2000/svg">
<path d="M8 2V1.4H7.4V2H8ZM8 7H7.4V7.6H8V7ZM18 7V7.6H18.2485L18.4243 7.42426L18 7ZM20.5 4.5L20.9243 4.92426L21.3485 4.5L20.9243 4.07574L20.5 4.5ZM18 2L18.4243 1.57574L18.2485 1.4H18V2ZM16 10H16.6V9.4H16V10ZM16 15V15.6H16.6V15H16ZM6 15L5.57574 15.4243L5.75147 15.6H6V15ZM3.5 12.5L3.07574 12.0757L2.65147 12.5L3.07574 12.9243L3.5 12.5ZM6 10V9.4H5.75147L5.57574 9.57574L6 10ZM7.4 2V7H8.6V2H7.4ZM18.4243 7.42426L20.9243 4.92426L20.0757 4.07574L17.5757 6.57574L18.4243 7.42426ZM20.9243 4.07574L18.4243 1.57574L17.5757 2.42426L20.0757 4.92426L20.9243 4.07574ZM18 1.4H8V2.6H18V1.4ZM15.4 10V15H16.6V10H15.4ZM6.42426 14.5757L3.92426 12.0757L3.07574 12.9243L5.57574 15.4243L6.42426 14.5757ZM3.92426 12.9243L6.42426 10.4243L5.57574 9.57574L3.07574 12.0757L3.92426 12.9243ZM8 7.6H12V6.4H8V7.6ZM12 7.6H18V6.4H12V7.6ZM6 10.6H12V9.4H6V10.6ZM12 10.6H16V9.4H12V10.6ZM11.4 7V10H12.6V7H11.4ZM16 14.4H12V15.6H16V14.4ZM12 14.4H6V15.6H12V14.4ZM11.4 15V24H12.6V15H11.4Z" fill="#28293D"/>
</svg>
