<svg width="24" height="24" viewBox="0 0 24 24" fill="none" xmlns="http://www.w3.org/2000/svg">
<path d="M18 2L18.1698 1.42454L17.2045 1.13963L17.413 2.1243L18 2ZM15 4H15.6V2.96456L14.7016 3.47944L15 4ZM18.0215 11.9726L18.6086 11.8488L18.0215 11.9726ZM19.9133 11.3573L19.3656 11.6023L19.9133 11.3573ZM17.5 11.4C15.2959 11.4 13.6 9.77373 13.6 7.875H12.4C12.4 10.5326 14.7336 12.6 17.5 12.6V11.4ZM17.413 2.1243C17.5395 2.72167 17.6496 3.63061 17.5146 4.35945C17.4477 4.72075 17.3306 4.98096 17.1802 5.14406C17.0476 5.28784 16.8506 5.4 16.5 5.4V6.6C17.1565 6.6 17.6836 6.36841 18.0624 5.9575C18.4235 5.56592 18.6051 5.0605 18.6945 4.57805C18.8721 3.61939 18.7252 2.52833 18.587 1.8757L17.413 2.1243ZM13.6 7.875C13.6 6.5474 14.2645 5.11313 15.2984 4.52056L14.7016 3.47944C13.1921 4.34462 12.4 6.25021 12.4 7.875H13.6ZM16.5 5.4C16.2552 5.4 16.0498 5.27663 15.8792 5.01219C15.7008 4.73568 15.6 4.35251 15.6 4H14.4C14.4 4.54737 14.5492 5.16419 14.8708 5.66272C15.2002 6.17331 15.7448 6.6 16.5 6.6V5.4ZM17.8302 2.57546C19.0571 2.93759 21.4 4.50767 21.4 7.875H22.6C22.6 3.84233 19.7664 1.89575 18.1698 1.42454L17.8302 2.57546ZM19.4 11.7653C19.4 11.9862 19.2209 12.1653 19 12.1653V13.3653C19.8837 13.3653 20.6 12.6489 20.6 11.7653H19.4ZM18.6 11.7653C18.6 11.5444 18.7791 11.3653 19 11.3653V10.1653C18.1163 10.1653 17.4 10.8816 17.4 11.7653H18.6ZM18.6086 11.8488C18.603 11.8224 18.6 11.7945 18.6 11.7653H17.4C17.4 11.8782 17.4118 11.989 17.4344 12.0964L18.6086 11.8488ZM17.9584 11.3759C17.8082 11.3918 17.6553 11.4 17.5 11.4V12.6C17.6975 12.6 17.8926 12.5896 18.0846 12.5693L17.9584 11.3759ZM19 11.3653C19.1619 11.3653 19.3026 11.4615 19.3656 11.6023L20.4609 11.1122C20.2117 10.5553 19.6521 10.1653 19 10.1653V11.3653ZM19.3656 11.6023C19.3875 11.6513 19.4 11.706 19.4 11.7653H20.6C20.6 11.5339 20.5505 11.3124 20.4609 11.1122L19.3656 11.6023ZM21.4 7.875C21.4 9.10062 20.704 10.2012 19.6109 10.8391L20.2157 11.8755C21.6316 11.0493 22.6 9.5778 22.6 7.875H21.4ZM19 12.1653C18.8553 12.1653 18.7279 12.0888 18.6569 11.9712L17.6294 12.5911C17.9085 13.0537 18.4176 13.3653 19 13.3653V12.1653ZM18.6569 11.9712C18.6343 11.9337 18.6178 11.8925 18.6086 11.8488L17.4344 12.0964C17.4719 12.2741 17.5387 12.4408 17.6294 12.5911L18.6569 11.9712ZM17.8337 11.7671L1.69053 21.486L2.30947 22.514L18.4526 12.7952L17.8337 11.7671Z" fill="#28293D"/>
</svg>
