<svg width="24" height="24" viewBox="0 0 24 24" fill="none" xmlns="http://www.w3.org/2000/svg">
<path d="M8.99672 10.0841L8.57658 10.5125L8.57791 10.5138L8.99672 10.0841ZM16.0894 3.18987L15.6712 2.75963V2.75963L16.0894 3.18987ZM22 3.18987L22.4182 3.62011L22.8608 3.18987L22.4182 2.75963L22 3.18987ZM20.2268 7.21151L20.645 7.64175L20.9178 7.37665L20.7944 7.01688L20.2268 7.21151ZM13.1341 14.1058L13.5523 14.536L13.1341 14.1058ZM3.18214 18.2242L2.76394 18.6544L2.76421 18.6547L3.18214 18.2242ZM6.04143 21L5.62349 21.4305L6.04169 21.8365L6.45963 21.4302L6.04143 21ZM9.41492 10.5144L16.5076 3.62011L15.6712 2.75963L8.57852 9.65387L9.41492 10.5144ZM22.4182 2.75963C20.5532 0.94679 17.5362 0.94679 15.6712 2.75963L16.5076 3.62011C17.9069 2.25996 20.1825 2.25996 21.5818 3.62011L22.4182 2.75963ZM19.8086 6.78127L12.7159 13.6755L13.5523 14.536L20.645 7.64175L19.8086 6.78127ZM21.5818 2.75963C21.006 3.31932 20.347 3.95362 19.9276 4.68752C19.4862 5.45971 19.2994 6.3568 19.6593 7.40614L20.7944 7.01688C20.5632 6.34267 20.6719 5.80346 20.9694 5.28298C21.2888 4.7242 21.8119 4.20947 22.4182 3.62011L21.5818 2.75963ZM9.41685 9.65576L8.14603 8.40934L7.30577 9.26605L8.57659 10.5125L9.41685 9.65576ZM13.5521 13.6753L10.6928 10.8995L9.85691 11.7605L12.7162 14.5363L13.5521 13.6753ZM10.6936 10.9003L9.41552 9.65446L8.57791 10.5138L9.85604 11.7596L10.6936 10.9003ZM9.85664 10.8997L2.76394 17.794L3.60034 18.6544L10.693 11.7602L9.85664 10.8997ZM2.76421 18.6547L5.62349 21.4305L6.45936 20.5695L3.60008 17.7937L2.76421 18.6547ZM6.45963 21.4302L13.5523 14.536L12.7159 13.6755L5.62322 20.5698L6.45963 21.4302ZM3.60034 17.794L2.41823 16.6449L1.58182 17.5054L2.76394 18.6544L3.60034 17.794Z" fill="#28293D"/>
</svg>
