<svg width="24" height="24" viewBox="0 0 24 24" fill="none" xmlns="http://www.w3.org/2000/svg">
<path d="M17 11L17.5945 11.0811L17.6 11.0407V11H17ZM6 11H5.4V11.0407L5.4055 11.0811L6 11ZM13.0767 14.3081L13.6339 14.5308L13.0767 14.3081ZM9 2.6H14V1.4H9V2.6ZM12.8813 21.4H10.1187V22.6H12.8813V21.4ZM16.4055 10.9189L15.2593 19.3243L16.4483 19.4864L17.5945 11.0811L16.4055 10.9189ZM7.74068 19.3243L6.5945 10.9189L5.4055 11.0811L6.55168 19.4864L7.74068 19.3243ZM6.6 11V5H5.4V11H6.6ZM16.4 5V8H17.6V5H16.4ZM16.4 8V11H17.6V8H16.4ZM6 11.6C6.74894 11.6 7.98603 11.7565 9.22504 12.2274C10.4643 12.6984 11.6504 13.4622 12.3845 14.6393L13.4027 14.0043C12.4831 12.5297 11.0378 11.6326 9.65138 11.1057C8.26469 10.5786 6.88179 10.4 6 10.4V11.6ZM13.6339 14.5308C14.1341 13.2789 14.712 11.834 15.3536 10.6537C15.6741 10.0639 15.9983 9.56359 16.3205 9.19523C16.6501 8.81839 16.9286 8.63632 17.1455 8.58209L16.8545 7.41791C16.2917 7.55862 15.8141 7.9515 15.4173 8.40518C15.013 8.86736 14.6402 9.4532 14.2992 10.0806C13.6176 11.3348 13.0136 12.849 12.5195 14.0855L13.6339 14.5308ZM6.42426 11.4243C6.72689 11.1216 7.59593 10.5519 9.19758 9.99333L8.80242 8.86026C7.1316 9.44296 6.06498 10.0865 5.57574 10.5757L6.42426 11.4243ZM9.19758 9.99333C10.9455 9.38373 13.5132 8.80614 17.0352 8.59896L16.9648 7.40104C13.3485 7.61376 10.6696 8.20908 8.80242 8.86026L9.19758 9.99333ZM9.6 9.42679V7H8.4V9.42679H9.6ZM11 5.6H12V4.4H11V5.6ZM13.4 7V8.28699H14.6V7H13.4ZM12 5.6C12.7732 5.6 13.4 6.2268 13.4 7H14.6C14.6 5.56406 13.4359 4.4 12 4.4V5.6ZM9.6 7C9.6 6.2268 10.2268 5.6 11 5.6V4.4C9.56406 4.4 8.4 5.56406 8.4 7H9.6ZM10.1187 21.4C8.9185 21.4 7.90284 20.5134 7.74068 19.3243L6.55168 19.4864C6.79492 21.2702 8.31842 22.6 10.1187 22.6V21.4ZM12.3845 14.6393C12.6719 15.1003 13.4087 15.0943 13.6339 14.5308L12.5195 14.0855C12.6826 13.6774 13.2038 13.6853 13.4027 14.0043L12.3845 14.6393ZM12.8813 22.6C14.6816 22.6 16.2051 21.2702 16.4483 19.4864L15.2593 19.3243C15.0972 20.5134 14.0815 21.4 12.8813 21.4V22.6ZM14 2.6C15.3255 2.6 16.4 3.67452 16.4 5H17.6C17.6 3.01178 15.9882 1.4 14 1.4V2.6ZM9 1.4C7.01178 1.4 5.4 3.01177 5.4 5H6.6C6.6 3.67452 7.67452 2.6 9 2.6V1.4Z" fill="#28293D"/>
</svg>
