<svg width="24" height="24" viewBox="0 0 24 24" fill="none" xmlns="http://www.w3.org/2000/svg">
<path d="M3 12V11.4H2.4V12H3ZM4.16321 22V22.6H4.16321L4.16321 22ZM11.9985 22V21.4H11.9985L11.9985 22ZM18.4434 3L18.7407 2.47884L18.2259 2.18516L17.9259 2.69632L18.4434 3ZM17.7727 13.1008L17.2568 12.7946L17.7727 13.1008ZM16.1838 13.5149L16.4775 12.9918L16.4653 12.9849L16.4527 12.9786L16.1838 13.5149ZM21.4182 4.69701L21.1209 5.21819L21.1244 5.22017L21.4182 4.69701ZM21.844 6.24245L22.3599 6.54872L21.844 6.24245ZM4.52425 12V12.6H4.52425L4.52425 12ZM4.52425 11.5V10.9H3.92425V11.5H4.52425ZM11.6374 11.5H12.2374V10.9H11.6374V11.5ZM12.5617 12V20.8687H13.7617V12H12.5617ZM11.9985 21.4L4.16321 21.4L4.16321 22.6L11.9985 22.6L11.9985 21.4ZM3.6 20.8687V12H2.4V20.8687H3.6ZM4.16321 21.4C3.83634 21.4 3.6 21.1465 3.6 20.8687H2.4C2.4 21.8404 3.20523 22.6 4.16321 22.6V21.4ZM12.5617 20.8687C12.5617 21.1465 12.3253 21.4 11.9985 21.4V22.6C12.9564 22.6 13.7617 21.8404 13.7617 20.8687H12.5617ZM13.6791 12.3037L18.9609 3.30368L17.9259 2.69632L12.6442 11.6963L13.6791 12.3037ZM18.1461 3.52116L21.1209 5.21817L21.7155 4.17585L18.7407 2.47884L18.1461 3.52116ZM21.328 5.93618L17.2568 12.7946L18.2887 13.4071L22.3599 6.54872L21.328 5.93618ZM16.4527 12.9786L13.4306 11.4636L12.8928 12.5364L15.9149 14.0513L16.4527 12.9786ZM17.2568 12.7946C17.1057 13.0491 16.7565 13.1484 16.4775 12.9918L15.89 14.0381C16.7238 14.5063 17.7973 14.2348 18.2887 13.4071L17.2568 12.7946ZM21.1244 5.22017C21.394 5.37157 21.4731 5.69186 21.328 5.93618L22.3599 6.54872C22.8573 5.71082 22.5551 4.64727 21.712 4.17385L21.1244 5.22017ZM3 12.6H4.52425V11.4H3V12.6ZM5.12425 12V11.5H3.92425V12H5.12425ZM4.52425 12.6L11.6374 12.6L11.6374 11.4L4.52425 11.4L4.52425 12.6ZM11.6374 12.6H13.1617V11.4H11.6374V12.6ZM11.0374 11.5V12H12.2374V11.5H11.0374ZM4.52425 12.1H5.54042V10.9H4.52425V12.1ZM6.14042 11.5V8.1H4.94042V11.5H6.14042ZM5.64204 8.6H10.5196V7.4H5.64204V8.6ZM5.54042 12.1H10.6213V10.9H5.54042V12.1ZM10.6213 12.1H11.6374V10.9H10.6213V12.1ZM10.0213 8.1V11.5H11.2213V8.1H10.0213ZM10.5196 8.6C10.2535 8.6 10.0213 8.38518 10.0213 8.1H11.2213C11.2213 7.70437 10.898 7.4 10.5196 7.4V8.6ZM6.14042 8.1C6.14042 8.38518 5.90818 8.6 5.64204 8.6V7.4C5.26365 7.4 4.94042 7.70437 4.94042 8.1H6.14042ZM5.54042 8.4C5.30147 8.4 5.12425 8.21188 5.12425 8H3.92425C3.92425 8.89269 4.65694 9.6 5.54042 9.6V8.4ZM5.12425 8C5.12425 7.78812 5.30147 7.6 5.54042 7.6V6.4C4.65694 6.4 3.92425 7.10731 3.92425 8H5.12425ZM5.54042 7.6C5.77937 7.6 5.95659 7.78812 5.95659 8H7.15659C7.15659 7.10731 6.42389 6.4 5.54042 6.4V7.6Z" fill="#28293D"/>
</svg>
