<svg width="24" height="24" viewBox="0 0 24 24" fill="none" xmlns="http://www.w3.org/2000/svg">
<path d="M2 8C2.14354 8 2.31889 8.04507 2.59972 8.19485C2.91875 8.365 3.18658 8.55823 3.6634 8.85166C4.5568 9.40144 5.74185 10 7.5 10V8C6.25815 8 5.4432 7.59856 4.7116 7.14834C4.37592 6.94177 3.925 6.635 3.5409 6.43015C3.11861 6.20493 2.60646 6 2 6V8ZM22 7C21.7984 7 21.5868 6.95143 21.3011 6.83715C20.9782 6.708 20.7017 6.55902 20.2316 6.34204C19.3403 5.93067 18.1932 5.5 16.5 5.5V7.5C17.8068 7.5 18.6597 7.81933 19.3934 8.15796C19.7358 8.31598 20.178 8.542 20.5583 8.6941C20.9757 8.86107 21.4516 9 22 9V7ZM7.5 10C9.23741 10 10.9298 9.27925 12.3846 8.67308C13.9298 8.02925 15.2374 7.5 16.5 7.5V5.5C14.7626 5.5 13.0702 6.22075 11.6154 6.82692C10.0702 7.47075 8.76259 8 7.5 8V10ZM2 12.5C2.14354 12.5 2.31889 12.5451 2.59972 12.6949C2.91875 12.865 3.18658 13.0582 3.6634 13.3517C4.5568 13.9014 5.74185 14.5 7.5 14.5V12.5C6.25815 12.5 5.4432 12.0986 4.7116 11.6483C4.37592 11.4418 3.925 11.135 3.5409 10.9301C3.11861 10.7049 2.60646 10.5 2 10.5V12.5ZM22 11.5C21.7984 11.5 21.5868 11.4514 21.3011 11.3371C20.9782 11.208 20.7017 11.059 20.2316 10.842C19.3403 10.4307 18.1932 10 16.5 10V12C17.8068 12 18.6597 12.3193 19.3934 12.658C19.7358 12.816 20.178 13.042 20.5583 13.1941C20.9757 13.3611 21.4516 13.5 22 13.5V11.5ZM7.5 14.5C9.23741 14.5 10.9298 13.7793 12.3846 13.1731C13.9298 12.5293 15.2374 12 16.5 12V10C14.7626 10 13.0702 10.7207 11.6154 11.3269C10.0702 11.9707 8.76259 12.5 7.5 12.5V14.5ZM2 17C2.14354 17 2.31889 17.0451 2.59972 17.1949C2.91875 17.365 3.18658 17.5582 3.6634 17.8517C4.5568 18.4014 5.74185 19 7.5 19V17C6.25815 17 5.4432 16.5986 4.7116 16.1483C4.37592 15.9418 3.925 15.635 3.5409 15.4301C3.11861 15.2049 2.60646 15 2 15V17ZM22 16C21.7984 16 21.5868 15.9514 21.3011 15.8371C20.9782 15.708 20.7017 15.559 20.2316 15.342C19.3403 14.9307 18.1932 14.5 16.5 14.5V16.5C17.8068 16.5 18.6597 16.8193 19.3934 17.158C19.7358 17.316 20.178 17.542 20.5583 17.6941C20.9757 17.8611 21.4516 18 22 18V16ZM7.5 19C9.23741 19 10.9298 18.2793 12.3846 17.6731C13.9298 17.0293 15.2374 16.5 16.5 16.5V14.5C14.7626 14.5 13.0702 15.2207 11.6154 15.8269C10.0702 16.4707 8.76259 17 7.5 17V19Z" fill="#28293D"/>
</svg>
