<svg width="24" height="24" viewBox="0 0 24 24" fill="none" xmlns="http://www.w3.org/2000/svg">
<path d="M6 17.05L6.19893 18.03L6 17.05ZM7 17.05L6.80107 18.03L7 17.05ZM8 19.5C8 20.3284 7.32843 21 6.5 21V23C8.433 23 10 21.433 10 19.5H8ZM6.5 21C5.67157 21 5 20.3284 5 19.5H3C3 21.433 4.567 23 6.5 23V21ZM5 19.5C5 18.7755 5.51468 18.1689 6.19893 18.03L5.80107 16.07C4.20308 16.3944 3 17.8056 3 19.5H5ZM6.19893 18.03C6.29538 18.0104 6.39595 18 6.5 18V16C6.26158 16 6.02773 16.024 5.80107 16.07L6.19893 18.03ZM7 17.05V3.5H5V17.05H7ZM6.5 18C6.60405 18 6.70462 18.0104 6.80107 18.03L7.19893 16.07C6.97227 16.024 6.73842 16 6.5 16V18ZM6.80107 18.03C7.48532 18.1689 8 18.7755 8 19.5H10C10 17.8056 8.79692 16.3944 7.19893 16.07L6.80107 18.03ZM6 3.5V17.05H8V3.5H6ZM6.5 4C6.22386 4 6 3.77614 6 3.5H8C8 2.67157 7.32843 2 6.5 2V4ZM7 3.5C7 3.77614 6.77614 4 6.5 4V2C5.67157 2 5 2.67157 5 3.5H7ZM18 2H17V4H18V2ZM17 11H18V9H17V11ZM18 11C19.6569 11 21 9.65685 21 8H19C19 8.55228 18.5523 9 18 9V11ZM14 8C14 9.65685 15.3431 11 17 11V9C16.4477 9 16 8.55228 16 8H14ZM17 2C15.3431 2 14 3.34315 14 5H16C16 4.44772 16.4477 4 17 4V2ZM21 5C21 3.34315 19.6569 2 18 2V4C18.5523 4 19 4.44772 19 5H21ZM14 5V6.5H16V5H14ZM14 6.5V8H16V6.5H14Z" fill="#28293D"/>
<circle cx="10.5" cy="3.5" r="1.5" fill="#28293D"/>
</svg>
