<svg width="24" height="24" viewBox="0 0 24 24" fill="none" xmlns="http://www.w3.org/2000/svg">
<path d="M10.1053 2V1C9.69103 1 9.31967 1.25539 9.17146 1.64221L10.1053 2ZM6 12.7143L5.0662 12.3565C4.9484 12.6639 4.98948 13.0097 5.17605 13.2809C5.36262 13.5522 5.67076 13.7143 6 13.7143V12.7143ZM10.1316 12.7143L11.0699 13.06C11.183 12.7532 11.1389 12.4105 10.9519 12.1423C10.7648 11.8741 10.4585 11.7143 10.1316 11.7143V12.7143ZM6.71053 22L5.77218 21.6543C5.60562 22.1064 5.78511 22.613 6.19916 22.8594C6.6132 23.1057 7.14406 23.0219 7.46196 22.6598L6.71053 22ZM18 9.14286L18.7514 9.80267C19.0105 9.50759 19.0729 9.08817 18.911 8.73043C18.749 8.37269 18.3927 8.14286 18 8.14286V9.14286ZM12.1842 9.14286L11.3172 8.64456C11.1394 8.95401 11.1399 9.33478 11.3187 9.64371C11.4974 9.95263 11.8273 10.1429 12.1842 10.1429V9.14286ZM16.2895 2L17.1565 2.4983C17.3343 2.18885 17.3338 1.80807 17.155 1.49915C16.9762 1.19023 16.6464 1 16.2895 1V2ZM9.17146 1.64221L5.0662 12.3565L6.9338 13.0721L11.0391 2.35779L9.17146 1.64221ZM6 13.7143H10.1316V11.7143H6V13.7143ZM9.19324 12.3686L5.77218 21.6543L7.64887 22.3457L11.0699 13.06L9.19324 12.3686ZM7.46196 22.6598L18.7514 9.80267L17.2486 8.48305L5.95909 21.3402L7.46196 22.6598ZM18 8.14286H12.1842V10.1429H18V8.14286ZM13.0512 9.64116L17.1565 2.4983L15.4225 1.5017L11.3172 8.64456L13.0512 9.64116ZM16.2895 1H10.1053V3H16.2895V1Z" fill="#28293D"/>
</svg>
