<svg width="24" height="24" viewBox="0 0 24 24" fill="none" xmlns="http://www.w3.org/2000/svg">
<path d="M3.18772 14.9721L2.82114 14.0417L2.80119 14.0496L2.78159 14.0583L3.18772 14.9721ZM2 18H1V19H2V18ZM20.8123 14.9721L21.2184 14.0583L21.1988 14.0496L21.1789 14.0417L20.8123 14.9721ZM22 18V19H23V18H22ZM11.041 9.25553L10.5608 10.1327L11.041 9.25553ZM11.6334 10.5696L2.82114 14.0417L3.55431 15.9025L12.3666 12.4304L11.6334 10.5696ZM1 16.7997V18H3V16.7997H1ZM13 11.5V10.5H11V11.5H13ZM2.78159 14.0583C1.6982 14.5398 1 15.6142 1 16.7997H3C3 16.4046 3.23273 16.0464 3.59386 15.8859L2.78159 14.0583ZM11.6334 12.4304L20.4457 15.9025L21.1789 14.0417L12.3666 10.5696L11.6334 12.4304ZM21 16.7997V18H23V16.7997H21ZM20.4061 15.8859C20.7673 16.0464 21 16.4046 21 16.7997H23C23 15.6142 22.3018 14.5398 21.2184 14.0583L20.4061 15.8859ZM2 19H22V17H2V19ZM11.5212 8.37836C11.2085 8.20715 11 7.8772 11 7.5H9C9 8.63699 9.63289 9.62472 10.5608 10.1327L11.5212 8.37836ZM11 7.5C11 6.94772 11.4477 6.5 12 6.5V4.5C10.3431 4.5 9 5.84315 9 7.5H11ZM12 6.5C12.5523 6.5 13 6.94772 13 7.5H15C15 5.84315 13.6569 4.5 12 4.5V6.5ZM13 10.5C13 9.91963 12.7472 9.45255 12.4613 9.1191C12.1796 8.79073 11.8315 8.5482 11.5212 8.37836L10.5608 10.1327C10.735 10.2281 10.8664 10.3316 10.9431 10.4211C11.0155 10.5055 11 10.5281 11 10.5H13Z" fill="#28293D"/>
</svg>
