<svg width="24" height="24" viewBox="0 0 24 24" fill="none" xmlns="http://www.w3.org/2000/svg">
<path d="M8 12H9V11H8V12ZM8.81919 10.4263L9.58212 9.77985L8.81919 10.4263ZM12 13H13V12H12V13ZM7 13H6V14H7V13ZM3 13V12H2V13H3ZM21 13H22V12H21V13ZM15 6.5L15.832 5.94528L15 6.5ZM19 6.5L19.832 5.94528L19 6.5ZM8 6V8C9.10457 8 10 7.10457 10 6H8ZM8 6H6C6 7.10457 6.89543 8 8 8V6ZM8 6V4C6.89543 4 6 4.89543 6 6H8ZM8 6H10C10 4.89543 9.10457 4 8 4V6ZM8 11H6C6 12.1046 6.89543 13 8 13V11ZM8 11V9C6.89543 9 6 9.89543 6 11H8ZM8 11C8.00274 11 7.99809 11.0002 7.98911 10.9979C7.98021 10.9956 7.97421 10.9926 7.97273 10.9918C7.97151 10.9912 8.00028 11.0067 8.05625 11.0728L9.58212 9.77985C9.23897 9.37488 8.72469 9 8 9V11ZM8.05625 11.0728C8.44124 11.5271 9.06955 12.2071 9.71853 12.7829C10.0417 13.0696 10.3928 13.351 10.7379 13.5666C11.0433 13.7574 11.5016 14 12 14V12C12.0984 12 12.0499 12.0281 11.7976 11.8704C11.5848 11.7375 11.327 11.5363 11.0459 11.2868C10.4862 10.7903 9.92408 10.1834 9.58212 9.77985L8.05625 11.0728ZM12 12H8V14H12V12ZM6 11V13H8V11H6ZM7 14H8V12H7V14ZM9 13V12H7V13H9ZM2 13V20H4V13H2ZM22 20V13H20V20H22ZM7 13V21H9V13H7ZM8 22H12V20H8V22ZM11 13V21H13V13H11ZM12 22H16V20H12V22ZM15 13V21H17V13H15ZM16 14H20V12H16V14ZM20 14H21V12H20V14ZM16 22H20V20H16V22ZM19 13V21H21V13H19ZM3 14H4V12H3V14ZM4 14H16V12H4V14ZM4 22H8V20H4V22ZM3 13V21H5V13H3ZM20 20V22C21.1046 22 22 21.1046 22 20H20ZM2 20C2 21.1046 2.89543 22 4 22V20H2ZM13 3C13 3.49296 12.9969 4.09602 13.1488 4.77943C13.3036 5.4758 13.6075 6.21402 14.168 7.05472L15.832 5.94528C15.3925 5.28605 15.1964 4.77425 15.1012 4.34558C15.0031 3.90397 15 3.507 15 3H13ZM14.168 7.05472C14.6075 7.714 14.8036 8.2258 14.8989 8.65444C14.997 9.09604 15 9.49298 15 10H17C17 9.50702 17.0031 8.90396 16.8512 8.22056C16.6965 7.5242 16.3925 6.786 15.832 5.94528L14.168 7.05472ZM17 3C17 3.49296 16.9969 4.09602 17.1488 4.77943C17.3036 5.4758 17.6075 6.21402 18.168 7.05472L19.832 5.94528C19.3925 5.28605 19.1964 4.77425 19.1012 4.34558C19.0031 3.90397 19 3.507 19 3H17ZM18.168 7.05472C18.6075 7.714 18.8036 8.2258 18.8989 8.65444C18.997 9.09604 19 9.49298 19 10H21C21 9.50702 21.0031 8.90396 20.8512 8.22056C20.6965 7.5242 20.3925 6.786 19.832 5.94528L18.168 7.05472Z" fill="#28293D"/>
</svg>
