<svg width="24" height="24" viewBox="0 0 24 24" fill="none" xmlns="http://www.w3.org/2000/svg">
<path d="M3.99928 20H2.99928V21H3.99928V20ZM13.9921 20V21H14.9921V20H13.9921ZM5.82239 8.92547L4.94219 9.40007L5.82239 8.92547ZM5.28436 10.8851L4.76379 10.0313L5.28436 10.8851ZM15.2819 8.11487L14.3167 7.85338L15.2819 8.11487ZM13.4461 9.16319L13.1899 10.1298L13.4461 9.16319ZM12.3862 7.34744L11.421 7.08596L12.3862 7.34744ZM14.222 6.29911L14.4782 5.33249L14.222 6.29911ZM20.5348 4L20.7909 3.03337L20.3948 2.92838L20.0389 3.13161L20.5348 4ZM21.5 4.25581L22.4652 4.51729L22.7281 3.54677L21.7562 3.28918L21.5 4.25581ZM17.7509 14.2762L16.8872 14.7803L17.0955 15.137L17.4947 15.2428L17.7509 14.2762ZM18.7161 14.532L18.4599 15.4986L19.4213 15.7534L19.6813 14.7935L18.7161 14.532ZM12.3373 7.64537L13.3356 7.7049L12.3373 7.64537ZM3.99928 21H13.9921V19H3.99928V21ZM14.9921 20V19.1105H12.9921V20H14.9921ZM2.99928 19.1105V20H4.99928V19.1105H2.99928ZM4.09921 18.0116C3.50212 18.0116 2.99928 18.4933 2.99928 19.1105H4.99928C4.99928 19.6185 4.58593 20.0116 4.09921 20.0116V18.0116ZM14.9921 19.1105C14.9921 18.4933 14.4893 18.0116 13.8922 18.0116V20.0116C13.4055 20.0116 12.9921 19.6185 12.9921 19.1105H14.9921ZM4.49892 10.1047C4.213 10.1047 4 9.8783 4 9.62211H2C2 11.0035 3.12919 12.1047 4.49892 12.1047V10.1047ZM4 9.62211C4 9.36593 4.213 9.13956 4.49892 9.13956V7.13956C3.12919 7.13956 2 8.24071 2 9.62211H4ZM4.49892 9.13956C4.69398 9.13956 4.8595 9.24671 4.94219 9.40007L6.7026 8.45088C6.281 7.66896 5.45036 7.13956 4.49892 7.13956V9.13956ZM4.94219 9.40007C4.97767 9.46587 4.99785 9.54041 4.99785 9.62211H6.99785C6.99785 9.2002 6.89108 8.80045 6.7026 8.45088L4.94219 9.40007ZM4.99785 9.62211C4.99785 9.78956 4.90963 9.94234 4.76379 10.0313L5.80492 11.7389C6.51532 11.3058 6.99785 10.5225 6.99785 9.62211H4.99785ZM4.76379 10.0313C4.6882 10.0773 4.59864 10.1047 4.49892 10.1047V12.1047C4.9752 12.1047 5.42371 11.9713 5.80492 11.7389L4.76379 10.0313ZM13.8922 18.0116H7.99641V20.0116H13.8922V18.0116ZM7.99641 18.0116H4.09921V20.0116H7.99641V18.0116ZM4.33579 11.2016L7.04784 19.3282L8.94498 18.6951L6.23293 10.5685L4.33579 11.2016ZM13.3514 7.60892C13.4195 7.35759 13.6894 7.19248 13.9658 7.26574L14.4782 5.33249C13.1554 4.98191 11.7814 5.7555 11.421 7.08596L13.3514 7.60892ZM13.9658 7.26574C14.1113 7.30431 14.2207 7.39892 14.2815 7.51776L16.0622 6.60718C15.7515 5.99955 15.1903 5.52121 14.4782 5.33249L13.9658 7.26574ZM14.2815 7.51776C14.3336 7.61954 14.3485 7.7361 14.3167 7.85338L16.2471 8.37635C16.414 7.76009 16.3314 7.13362 16.0622 6.60718L14.2815 7.51776ZM15.6677 7.93086L21.0307 4.86839L20.0389 3.13161L14.676 6.19408L15.6677 7.93086ZM20.2786 4.96663L21.2438 5.22244L21.7562 3.28918L20.7909 3.03337L20.2786 4.96663ZM14.3167 7.85338C14.2848 7.97097 14.2119 8.06725 14.1117 8.13207L15.1975 9.81163C15.693 9.49127 16.0802 8.9923 16.2471 8.37635L14.3167 7.85338ZM14.1117 8.13207C13.9945 8.20782 13.8482 8.23524 13.7023 8.19656L13.1899 10.1298C13.9016 10.3184 14.6257 10.1813 15.1975 9.81163L14.1117 8.13207ZM13.791 9.47598L16.8872 14.7803L18.6145 13.7721L15.5182 8.46773L13.791 9.47598ZM17.4947 15.2428L18.4599 15.4986L18.9723 13.5654L18.007 13.3096L17.4947 15.2428ZM19.6813 14.7935L22.4652 4.51729L20.5348 3.99433L17.7509 14.2705L19.6813 14.7935ZM19.5696 3.73852L16.7857 14.0147L18.7161 14.5377L21.5 4.26148L19.5696 3.73852ZM13.7023 8.19656C13.4654 8.13378 13.3227 7.91994 13.3356 7.7049L11.3391 7.58584C11.2699 8.74632 12.0285 9.82202 13.1899 10.1298L13.7023 8.19656ZM13.3356 7.7049C13.3374 7.67399 13.3425 7.64195 13.3514 7.60892L11.421 7.08596C11.3761 7.25167 11.349 7.41908 11.3391 7.58584L13.3356 7.7049ZM12.1445 6.66413L5.62959 7.94424L6.0152 9.90671L12.5301 8.62661L12.1445 6.66413Z" fill="#28293D"/>
</svg>
