<svg width="24" height="24" viewBox="0 0 24 24" fill="none" xmlns="http://www.w3.org/2000/svg">
<path d="M9 20H8V21H9V20ZM15 20V21H16V20H15ZM7 10C7 7.23858 9.23858 5 12 5V3C8.13401 3 5 6.13401 5 10H7ZM12 5C14.7614 5 17 7.23858 17 10H19C19 6.13401 15.866 3 12 3V5ZM9.50073 14.3317C8.00361 13.4657 7 11.8494 7 10H5C5 12.5922 6.40958 14.8541 8.49927 16.0629L9.50073 14.3317ZM8 15.1973V20H10V15.1973H8ZM12 20C11.6311 20 11.3076 19.8008 11.1332 19.4993L9.40196 20.5007C9.91916 21.3948 10.8883 22 12 22V20ZM9 21H10.2676V19H9V21ZM12.8668 19.4993C12.6924 19.8008 12.3689 20 12 20V22C13.1117 22 14.0808 21.3948 14.598 20.5007L12.8668 19.4993ZM13.7324 21H15V19H13.7324V21ZM17 10C17 11.8494 15.9964 13.4657 14.4993 14.3317L15.5007 16.0629C17.5904 14.8541 19 12.5922 19 10H17ZM16 20V15.1973H14V20H16ZM10.2676 21H13.7324V19H10.2676V21ZM9 16.1973H15V14.1973H9V16.1973Z" fill="#28293D"/>
<path d="M9 18H15V17H9V18ZM12.5 15V11H11.5V15H12.5ZM12.3536 10.6464L10.3536 8.64645L9.64645 9.35355L11.6464 11.3536L12.3536 10.6464ZM12.3536 11.3536L14.3536 9.35355L13.6464 8.64645L11.6464 10.6464L12.3536 11.3536Z" fill="#28293D"/>
</svg>
