<svg width="24" height="24" viewBox="0 0 24 24" fill="none" xmlns="http://www.w3.org/2000/svg">
<path d="M9 2C9 1.44772 8.55228 1 8 1C7.44772 1 7 1.44772 7 2H9ZM5 14H4V14.4142L4.29289 14.7071L5 14ZM10 19H11V18.5858L10.7071 18.2929L10 19ZM10 22H9V23H10V22ZM17 2C17 1.44772 16.5523 1 16 1C15.4477 1 15 1.44772 15 2H17ZM19 14L19.7071 14.7071L20 14.4142V14H19ZM14 19L13.2929 18.2929L13 18.5858V19H14ZM14 22V23H15V22H14ZM7 2V8H9V2H7ZM8 7H6V9H8V7ZM4 9V14H6V9H4ZM4.29289 14.7071L9.29289 19.7071L10.7071 18.2929L5.70711 13.2929L4.29289 14.7071ZM9 19V22H11V19H9ZM15 2V8H17V2H15ZM16 9H18V7H16V9ZM18 9V14H20V9H18ZM18.2929 13.2929L13.2929 18.2929L14.7071 19.7071L19.7071 14.7071L18.2929 13.2929ZM13 19V22H15V19H13ZM8 9H16V7H8V9ZM10 23H14V21H10V23ZM18 9H20C20 7.89543 19.1046 7 18 7V9ZM6 7C4.89543 7 4 7.89543 4 9H6H6V7Z" fill="#28293D"/>
</svg>
