<svg width="24" height="24" viewBox="0 0 24 24" fill="none" xmlns="http://www.w3.org/2000/svg">
<path d="M4 8V7H3V8H4ZM20 8H21V7H20V8ZM4 9H20V7H4V9ZM19 8V19H21V8H19ZM18 20H6V22H18V20ZM5 19V8H3V19H5ZM6 20C5.44772 20 5 19.5523 5 19H3C3 20.6569 4.34315 22 6 22V20ZM19 19C19 19.5523 18.5523 20 18 20V22C19.6569 22 21 20.6569 21 19H19ZM12 4C13.6569 4 15 5.34315 15 7H17C17 4.23858 14.7614 2 12 2V4ZM12 2C9.23858 2 7 4.23858 7 7H9C9 5.34315 10.3431 4 12 4V2ZM12 16C14.7614 16 17 13.7614 17 11H15C15 12.6569 13.6569 14 12 14V16ZM12 14C10.3431 14 9 12.6569 9 11H7C7 13.7614 9.23858 16 12 16V14Z" fill="#28293D"/>
</svg>
