<svg width="24" height="24" viewBox="0 0 24 24" fill="none" xmlns="http://www.w3.org/2000/svg">
<path d="M7 2V1H6.1802L6.01942 1.80388L7 2ZM5 12L4.01942 11.8039L3.7802 13H5V12ZM7.5 15V14H6.5V15H7.5ZM7.5 16H6.5V17H7.5V16ZM9 22L8.01361 22.1644L8.15287 23H9V22ZM17 2L17.9806 1.80388L17.8198 1H17V2ZM19 12V13H20.2198L19.9806 11.8039L19 12ZM16.5 15H17.5V14H16.5V15ZM16.5 16V17H17.5V16H16.5ZM15 22V23H15.8471L15.9864 22.1644L15 22ZM6.01942 1.80388L4.01942 11.8039L5.98058 12.1961L7.98058 2.19612L6.01942 1.80388ZM5 13H12V11H5V13ZM11 12V15H13V12H11ZM12 14H7.5V16H12V14ZM6.5 15V16H8.5V15H6.5ZM7.5 17H8V15H7.5V17ZM7.01361 16.1644L8.01361 22.1644L9.98639 21.8356L8.98639 15.8356L7.01361 16.1644ZM16.0194 2.19612L18.0194 12.1961L19.9806 11.8039L17.9806 1.80388L16.0194 2.19612ZM19 11H12V13H19V11ZM12 16H16.5V14H12V16ZM15.5 15V16H17.5V15H15.5ZM16.5 15H16V17H16.5V15ZM15.0136 15.8356L14.0136 21.8356L15.9864 22.1644L16.9864 16.1644L15.0136 15.8356ZM8 17H16V15H8V17ZM9 23H15V21H9V23ZM7 3H17V1H7V3Z" fill="#28293D"/>
</svg>
