<svg width="24" height="24" viewBox="0 0 24 24" fill="none" xmlns="http://www.w3.org/2000/svg">
<path d="M6 12L5.55279 11.1056L3.39345 12.1852L5.68377 12.9487L6 12ZM13 19L12.0513 19.3162L12.8148 21.6066L13.8944 19.4472L13 19ZM6.58132 12.1938L6.2651 13.1425L6.58132 12.1938ZM12.8062 18.4187L11.8575 18.7349L12.8062 18.4187ZM3.5 15.5L2.79289 14.7929L3.5 15.5ZM6.5 18.5L5.79289 17.7929L6.5 18.5ZM4.20711 16.2071L5.20711 15.2071L3.79289 13.7929L2.79289 14.7929L4.20711 16.2071ZM20.7929 2.79289L19.2929 4.29289L20.7071 5.70711L22.2071 4.20711L20.7929 2.79289ZM19.2929 4.29289L5.79289 17.7929L7.20711 19.2071L20.7071 5.70711L19.2929 4.29289ZM19.5528 4.10557L5.55279 11.1056L6.44721 12.8944L20.4472 5.89443L19.5528 4.10557ZM19.1056 4.55279L12.1056 18.5528L13.8944 19.4472L20.8944 5.44721L19.1056 4.55279ZM11.8575 18.7349L12.0513 19.3162L13.9487 18.6838L13.7549 18.1024L11.8575 18.7349ZM5.68377 12.9487L6.2651 13.1425L6.89755 11.2451L6.31623 11.0513L5.68377 12.9487ZM6.2651 13.1425C7.4203 13.5275 8.28061 14.5021 8.51942 15.6961L10.4806 15.3039C10.101 13.4061 8.73364 11.8571 6.89755 11.2451L6.2651 13.1425ZM9.30388 16.4806C10.4979 16.7194 11.4725 17.5797 11.8575 18.7349L13.7549 18.1024C13.1429 16.2664 11.5939 14.899 9.69612 14.5194L9.30388 16.4806ZM4.20711 17.7929C3.7692 17.355 3.7692 16.645 4.20711 16.2071L2.79289 14.7929C1.57394 16.0118 1.57394 17.9882 2.79289 19.2071L4.20711 17.7929ZM2.79289 19.2071C4.01184 20.4261 5.98816 20.4261 7.20711 19.2071L5.79289 17.7929C5.35499 18.2308 4.64501 18.2308 4.20711 17.7929L2.79289 19.2071Z" fill="#28293D"/>
</svg>
