<svg width="24" height="24" viewBox="0 0 24 24" fill="none" xmlns="http://www.w3.org/2000/svg">
<g clip-path="url(#clip0_402_15145)">
<path d="M2.47487 5.30332L3.18198 4.59622L2.14672 3.56096L1.55899 4.90189L2.47487 5.30332ZM6.01041 8.83886L5.3033 9.54597L6.01041 10.2531L6.71751 9.54597L6.01041 8.83886ZM8.83883 6.01043L9.54594 6.71754L10.253 6.01043L9.54594 5.30332L8.83883 6.01043ZM5.3033 2.4749L4.90187 1.55901L3.56093 2.14674L4.59619 3.182L5.3033 2.4749ZM9.7228 12.5513L10.4299 11.8441L9.94694 11.3612L9.32137 11.6354L9.7228 12.5513ZM12.5512 9.72283L11.6353 9.32139L11.3612 9.94696L11.8441 10.4299L12.5512 9.72283ZM4.33107 10.6951C2.98304 9.34702 2.66765 7.35457 3.39076 5.70476L1.55899 4.90189C0.516298 7.28082 0.966971 10.1594 2.91686 12.1093L4.33107 10.6951ZM1.76777 6.01043L5.3033 9.54597L6.71751 8.13175L3.18198 4.59622L1.76777 6.01043ZM6.71751 9.54597L9.54594 6.71754L8.13173 5.30332L5.3033 8.13175L6.71751 9.54597ZM5.70474 3.39079C7.35454 2.66767 9.347 2.98306 10.695 4.33109L12.1092 2.91688C10.1594 0.966995 7.2808 0.516322 4.90187 1.55901L5.70474 3.39079ZM9.54594 5.30332L6.01041 1.76779L4.59619 3.182L8.13173 6.71754L9.54594 5.30332ZM9.32137 11.6354C7.67156 12.3585 5.67911 12.0431 4.33107 10.6951L2.91686 12.1093C4.86674 14.0592 7.74531 14.5098 10.1242 13.4671L9.32137 11.6354ZM9.0157 13.2584L17.6777 21.9203L19.0919 20.5061L10.4299 11.8441L9.0157 13.2584ZM20.5061 21.9203L21.9203 20.5061L20.5061 19.0919L19.0919 20.5061L20.5061 21.9203ZM10.695 4.33109C12.0431 5.67913 12.3585 7.67158 11.6353 9.32139L13.4671 10.1243C14.5098 7.74533 14.0591 4.86677 12.1092 2.91688L10.695 4.33109ZM21.9203 17.6777L13.2583 9.01572L11.8441 10.4299L20.5061 19.0919L21.9203 17.6777ZM21.9203 20.5061C22.7014 19.7251 22.7014 18.4587 21.9203 17.6777L20.5061 19.0919L21.9203 20.5061ZM17.6777 21.9203C18.4587 22.7014 19.725 22.7014 20.5061 21.9203L19.0919 20.5061L17.6777 21.9203Z" fill="#28293D"/>
</g>
<defs>
<clipPath id="clip0_402_15145">
<rect width="24" height="24" fill="white"/>
</clipPath>
</defs>
</svg>
