<svg width="24" height="24" viewBox="0 0 24 24" fill="none" xmlns="http://www.w3.org/2000/svg">
<mask id="mask0_402_17562" style="mask-type:alpha" maskUnits="userSpaceOnUse" x="3" y="12" width="12" height="10">
<path d="M3 12H9V18H15V22H3V12Z" fill="white"/>
</mask>
<g mask="url(#mask0_402_17562)">
<circle cx="10" cy="17" r="4" stroke="#3E7BFA" stroke-width="2"/>
</g>
<path d="M17 15.5C17.3701 15.5 17.6933 15.7011 17.8662 16H17H12C11.4477 16 11 15.5523 11 15V9C11 8.44772 11.4477 8 12 8C12.201 8 12.5935 8.14459 12.8971 8.40961C12.9352 8.44293 13.0018 8.51457 13.1406 8.68213C13.1683 8.71562 13.1985 8.75241 13.2309 8.79191C13.3419 8.92715 13.479 9.09417 13.6326 9.26969L13 8.66748V11V14.5V15.5H14H17ZM13 4C13 4.55228 12.5523 5 12 5C11.4477 5 11 4.55228 11 4C11 3.44772 11.4477 3 12 3C12.5523 3 13 3.44772 13 4Z" stroke="#555770" stroke-width="2"/>
</svg>
