<svg width="24" height="24" viewBox="0 0 24 24" fill="none" xmlns="http://www.w3.org/2000/svg">
<path d="M12 18.5H7.5V14L7.5624 13.9584C10.2496 12.1669 13.7504 12.1669 16.4376 13.9584L16.5 14V18.5H12Z" stroke="#3E7BFA" stroke-width="2"/>
<path d="M9.87416 8.22652L8.00337 11.5939C7.67324 12.1882 7.5 12.8567 7.5 13.5365V14V18.5V21C7.5 21.5523 7.94772 22 8.5 22H15.5C16.0523 22 16.5 21.5523 16.5 21V18.5V14V13.5365C16.5 12.8567 16.3268 12.1882 15.9966 11.5939L14.1258 8.22652C14.0433 8.07796 14 7.91082 14 7.74087V3.67748C14 3.56384 14.0451 3.45486 14.1255 3.3745C14.355 3.14498 14.4352 2.80549 14.3325 2.49755L14.1842 2.0525C14.0742 1.72255 13.7654 1.5 13.4176 1.5H10.5824C10.2346 1.5 9.92582 1.72255 9.81583 2.0525L9.66748 2.49755C9.56484 2.80549 9.64498 3.14498 9.8745 3.3745C9.95486 3.45486 10 3.56384 10 3.67748V7.74087C10 7.91082 9.95669 8.07796 9.87416 8.22652Z" stroke="#555770" stroke-width="2"/>
</svg>
