<svg width="24" height="24" viewBox="0 0 24 24" fill="none" xmlns="http://www.w3.org/2000/svg">
<path d="M8.48594 14.3778C7.06941 12.9612 5.16639 12.4482 3.39746 12.9819C4.73951 9.87169 7.9406 6.69826 11.0268 4.7634C12.9394 4.34681 15.0748 5.07437 16.5004 6.49997M5.22993 9.88311C7.43948 7.67356 10.6701 7.9581 12.7324 10.0204" stroke="#3E7BFA" stroke-width="2"/>
<path d="M2.4125 16.4124C2.07184 18.1047 2.1351 20.0379 3.46365 21.1402V21.1402C4.5 22 6.46887 22.2866 7.61532 21.1402L21.1401 7.61539C22.2865 6.46894 22 4.49998 21.1401 3.46372V3.46372C20.2262 2.36246 18.7341 2.07792 17.3275 2.34127C15.1162 2.75529 13.1343 3.44192 11.0264 4.76341C7.94021 6.69827 4.73912 9.8717 3.39707 12.9819C2.99625 13.9108 2.66312 15.1673 2.4125 16.4124Z" stroke="#555770" stroke-width="2"/>
</svg>
