<svg width="24" height="24" viewBox="0 0 24 24" fill="none" xmlns="http://www.w3.org/2000/svg">
<path d="M11 6.67508C12.3771 8.15319 14.5111 8.8401 16.6061 8.27876C18.701 7.71742 20.2057 6.05553 20.6593 4.08689C19.2821 2.60877 17.1481 1.92186 15.0532 2.4832C12.9582 3.04454 11.4536 4.70643 11 6.67508Z" stroke="#555770" stroke-width="2"/>
<path d="M5.5 14C5.5 12 6.9 8.7 10.5 5.5M18.5 14C13.7 11.6 11.3333 7.83333 10.5 5.5M10.5 5.5V3" stroke="#3E7BFA" stroke-width="2"/>
<path d="M9 17.5C9 19.433 7.433 21 5.5 21C3.567 21 2 19.433 2 17.5C2 15.567 3.567 14 5.5 14C7.433 14 9 15.567 9 17.5Z" stroke="#555770" stroke-width="2"/>
<path d="M22 17.5C22 19.433 20.433 21 18.5 21C16.567 21 15 19.433 15 17.5C15 15.567 16.567 14 18.5 14C20.433 14 22 15.567 22 17.5Z" stroke="#555770" stroke-width="2"/>
</svg>
