<svg width="24" height="24" viewBox="0 0 24 24" fill="none" xmlns="http://www.w3.org/2000/svg">
<path d="M15.0083 9.95971C15.6443 8.60609 15.9998 7.09455 15.9998 5.5C15.9998 4.87579 15.9453 4.2643 15.8408 3.67003C15.6781 2.74423 16.6231 1.91794 17.3362 2.53028C19.579 4.45596 20.9998 7.31207 20.9998 10.5C20.9998 11.0702 20.9543 11.6297 20.8668 12.1752M10.4998 21C7.31182 21 4.45572 19.5793 2.53003 17.3365C1.9177 16.6233 2.74398 15.6784 3.66978 15.8411C4.26406 15.9455 4.87554 16 5.49975 16C6.9155 16 8.2658 15.7198 9.49823 15.2118L12.5089 20.808C11.8586 20.934 11.1869 21 10.4998 21Z" stroke="#555770" stroke-width="2"/>
<path d="M13.9795 21.7573C13.5267 21.9473 13.0127 21.7441 12.7801 21.3116L12.5092 20.808L9.49847 15.2119V15.2119C9.28326 14.8118 9.42503 14.3155 9.8026 14.0629C11.2892 13.0686 12.5685 11.7884 13.5618 10.3011C13.8333 9.89445 14.3454 9.70894 14.8027 9.88189L15.0086 9.95974L17.9378 11.0675L20.8671 12.1752L21.0588 12.2477C21.5339 12.4274 21.8027 12.9364 21.6463 13.4197C20.4263 17.1889 17.6024 20.2363 13.9795 21.7573Z" stroke="#3E7BFA" stroke-width="2"/>
</svg>
