<svg width="24" height="24" viewBox="0 0 24 24" fill="none" xmlns="http://www.w3.org/2000/svg">
<path d="M3.20685 4.86353L8.84936 10.4925L7.53277 11.806L4.71152 8.99146C2.26643 6.55222 3.13734 4.93287 3.20685 4.86353Z" fill="#555770"/>
<path d="M11.6706 13.307L19.382 21M8.84936 10.4925L3.20685 4.86353C3.13734 4.93287 2.26643 6.55222 4.71152 8.99146L7.53277 11.806L8.84936 10.4925Z" stroke="#3E7BFA" stroke-width="2"/>
<path d="M20.3227 4.67592C21.4653 5.81581 21.1285 7.99997 19.5704 9.55438C18.0122 11.1088 15.8228 11.4448 14.6802 10.3049C13.5376 9.16501 13.8744 6.98085 15.4325 5.42645C16.9907 3.87204 19.1801 3.53602 20.3227 4.67592Z" fill="#555770"/>
<path d="M14.6802 10.3049C15.8228 11.4448 18.0122 11.1088 19.5704 9.55438C21.1285 7.99997 21.4653 5.81581 20.3227 4.67592C19.1801 3.53602 16.9907 3.87204 15.4325 5.42645C13.8744 6.98085 13.5376 9.16501 14.6802 10.3049ZM14.6802 10.3049L11.6708 13.307L4.14746 20.8124" stroke="#555770" stroke-width="2"/>
</svg>
