<svg width="24" height="24" viewBox="0 0 24 24" fill="none" xmlns="http://www.w3.org/2000/svg">
<path d="M21 13H3M12 22V4.22302M7.02331 5.50001V20.5M16.9767 5.50001V20.5M4.51555 8.00001H19.4845M4.51555 18H19.4845" stroke="#3E7BFA" stroke-width="2"/>
<path d="M10 4.22302V3C10 2.44772 10.4477 2 11 2H13C13.5523 2 14 2.44772 14 3V4.22302M10 4.22302H12H14M10 4.22302C8.92134 4.46778 7.91627 4.90628 7.02331 5.5C6.0315 6.15944 5.17799 7.01037 4.51555 8C3.55827 9.4301 3 11.1499 3 13C3 14.8501 3.55827 16.5699 4.51555 18C5.17799 18.9896 6.0315 19.8406 7.02331 20.5C8.44877 21.4478 10.1599 22 12 22C13.8401 22 15.5512 21.4478 16.9767 20.5C17.9685 19.8406 18.822 18.9896 19.4845 18C20.4417 16.5699 21 14.8501 21 13C21 11.1499 20.4417 9.4301 19.4845 8C18.822 7.01037 17.9685 6.15944 16.9767 5.5C16.0837 4.90628 15.0787 4.46778 14 4.22302" stroke="#555770" stroke-width="2"/>
</svg>
