<svg width="24" height="24" viewBox="0 0 24 24" fill="none" xmlns="http://www.w3.org/2000/svg">
<path d="M17.9171 9L18.9033 9.16546L19.0988 8H17.9171V9ZM6.08301 9V8H4.90126L5.09679 9.16546L6.08301 9ZM15 19V20H16V19H15ZM13.3979 13.8363L13.1658 12.8636L13.3979 13.8363ZM15.7288 17.456L16.3648 18.2276L17.0509 17.6621L16.5695 16.9146L15.7288 17.456ZM10.6022 13.8363L10.8343 12.8636L10.6022 13.8363ZM5.15866 20.4595C4.86015 20.9242 4.99484 21.5428 5.4595 21.8413C5.92416 22.1399 6.54283 22.0052 6.84134 21.5405L5.15866 20.4595ZM17.9171 8H6.08301V10H17.9171V8ZM16.9309 8.83454C16.5988 10.8142 15.0997 12.4021 13.1658 12.8636L13.63 14.809C16.3401 14.1623 18.4374 11.9425 18.9033 9.16546L16.9309 8.83454ZM13.1658 12.8636C12.7928 12.9526 12.4026 13 12 13V15C12.5601 15 13.1061 14.934 13.63 14.809L13.1658 12.8636ZM16 19C16 18.6895 16.1404 18.4126 16.3648 18.2276L15.0927 16.6843C14.4271 17.233 14 18.067 14 19H16ZM12.5572 14.3777L14.888 17.9974L16.5695 16.9146L14.2387 13.2949L12.5572 14.3777ZM12 13C11.5975 13 11.2073 12.9526 10.8343 12.8636L10.3701 14.809C10.894 14.934 11.44 15 12 15V13ZM10.8343 12.8636C8.9004 12.4021 7.40134 10.8142 7.06922 8.83454L5.09679 9.16546C5.56268 11.9425 7.65996 14.1623 10.3701 14.809L10.8343 12.8636ZM9.76083 13.2958L6.44352 18.4595L8.1262 19.5405L11.4435 14.3768L9.76083 13.2958ZM6.44352 18.4595L5.15866 20.4595L6.84134 21.5405L8.1262 19.5405L6.44352 18.4595ZM7.28486 20H15V18H7.28486V20Z" fill="#555770"/>
<path d="M19 19C19 20.1046 18.1046 21 17 21C15.8954 21 15 20.1046 15 19C15 18.3783 15.2837 17.8228 15.7287 17.456C16.0743 17.1711 16.5172 17 17 17C18.1046 17 19 17.8954 19 19Z" stroke="#3E7BFA" stroke-width="2"/>
<path d="M8.52248 2C8.52251 2.5964 8.29391 3.5268 9.29398 4.5268C10.3138 5.54657 9.93076 6.50462 9.93076 6.99907M11.0225 2C11.0225 2.5964 10.7939 3.5268 11.794 4.5268C12.8138 5.54657 12.4308 6.50462 12.4308 6.99907M13.5225 2C13.5225 2.5964 13.2939 3.5268 14.294 4.5268C15.3138 5.54657 14.9308 6.50462 14.9308 6.99907" stroke="#3E7BFA"/>
</svg>
