<svg width="24" height="24" viewBox="0 0 24 24" fill="none" xmlns="http://www.w3.org/2000/svg">
<path d="M12.2489 7.01358C11.7758 7.72593 11.5002 8.58078 11.5002 9.5C11.5002 9.669 11.5095 9.83583 11.5277 10M12.2489 7.01358C13.0549 5.79998 14.4341 5 16.0002 5C16.0828 5 16.1649 5.00223 16.2465 5.00662M12.2489 7.01358C11.6616 5.33458 10.1071 4.10978 8.2533 4.007M11.5277 10H9.17153H4.0002C3.83437 9.53083 3.74414 9.02595 3.74414 8.5C3.74414 6.01472 5.51492 4 8.0002 4C8.08514 4 8.16952 4.00235 8.2533 4.007M11.5277 10H14.8289H20.0002C20.0183 9.83583 20.0277 9.669 20.0277 9.5C20.0277 7.09735 18.6172 5.13449 16.2465 5.00662M16.2465 5.00662C15.6306 3.25538 13.962 2 12.0002 2C10.437 2 9.05992 2.79709 8.2533 4.007" stroke="#555770" stroke-width="2"/>
<path d="M12 17C4.4 17 3 13 3 10H4H9.17133H11.5275H14.8287H20H21C21 13 19.6 17 12 17ZM12 17V22M12 22H6M12 22H18" stroke="#3E7BFA" stroke-width="2"/>
</svg>
