<svg width="24" height="24" viewBox="0 0 24 24" fill="none" xmlns="http://www.w3.org/2000/svg">
<path d="M3.87084 16.3874L13.2248 5.78577C13.0364 7.11198 13.4522 8.50756 14.4723 9.52769C15.4924 10.5478 16.888 10.9636 18.2142 10.7751L7.61253 20.1291M3.87084 16.3874L2.2071 18.0512C1.81658 18.4417 1.81658 19.0749 2.20711 19.4654L4.53458 21.7929C4.92511 22.1834 5.55827 22.1834 5.9488 21.7929L7.61253 20.1291M3.87084 16.3874L7.61253 20.1291" stroke="#3E7BFA" stroke-width="2"/>
<path d="M12.6014 11.3985L10.1069 13.893M20.7084 9.5277C22.4305 7.80563 22.4305 5.01361 20.7084 3.29155C18.9863 1.56948 16.1943 1.56948 14.4722 3.29155C13.7703 3.99349 13.3545 4.87321 13.2248 5.78578C13.0363 7.11199 13.4521 8.50758 14.4722 9.5277C15.4924 10.5478 16.8879 10.9636 18.2142 10.7752C19.1267 10.6455 20.0064 10.2296 20.7084 9.5277Z" stroke="#555770" stroke-width="2"/>
</svg>
