<svg width="24" height="24" viewBox="0 0 24 24" fill="none" xmlns="http://www.w3.org/2000/svg">
<path d="M12 8C13.1443 8 14.2138 8.32035 15.1237 8.87627L19 5C17.6608 4.3304 15.553 3.70473 14 4.27623M12 8C10.8557 8 9.78616 8.32035 8.87627 8.87627L5 5C6.33919 4.3304 8.44699 3.70473 10 4.27623M12 8C12 5.78448 11.1529 4.70049 10 4.27623M12 8C12 5.78448 12.8471 4.70049 14 4.27623M10 4.27623C10.1667 3.85082 10.8 2.8 12 2C13.2 2.8 13.8333 3.85082 14 4.27623" stroke="#3E7BFA" stroke-width="2"/>
<path d="M15.1237 8.87627C14.2138 8.32035 13.1443 8 12 8C10.8557 8 9.78616 8.32035 8.87627 8.87627M15.1237 8.87627C16.4802 9.70499 17.4819 11.0572 17.848 12.652M15.1237 8.87627L12 12M17.848 12.652C17.9474 13.0853 18 13.5365 18 14V17C18 17.3158 17.9756 17.6259 17.9286 17.9286C17.6719 19.5808 16.7411 21.01 15.4262 21.9262C14.4548 22.6031 13.2737 23 12 23C10.7263 23 9.54521 22.6031 8.5738 21.9262M17.848 12.652L15.25 15.25M8.5738 21.9262C7.2589 21.01 6.32811 19.5808 6.07142 17.9286M8.5738 21.9262L12 18.5M6.07142 17.9286C6.0244 17.6259 6 17.3158 6 17V14C6 13.5365 6.05255 13.0853 6.15202 12.652M6.07142 17.9286L8.75 15.25M6.15202 12.652C6.51813 11.0572 7.51985 9.70499 8.87627 8.87627M6.15202 12.652L7.18605 13.6861M8.87627 8.87627L10.4381 10.4381M15.25 15.25L12 18.5M15.25 15.25L17 17M12 12L13.625 13.625M12 12L8.75 15.25M8.75 15.25L10.375 16.875M12 18.5L13.7131 20.2131" stroke="#555770" stroke-width="2"/>
</svg>
