<svg width="24" height="24" viewBox="0 0 24 24" fill="none" xmlns="http://www.w3.org/2000/svg">
<path d="M14.5 13H11.5C10.6716 13 10 13.6716 10 14.5V14.5C10 15.3284 10.6716 16 11.5 16H12.5C13.3284 16 14 16.6716 14 17.5V17.5C14 18.3284 13.3284 19 12.5 19H9.5" stroke="#3E7BFA" stroke-width="2"/>
<path d="M18.1001 6.52381H5.89999M18.1001 6.52381L18.3356 6.99742C18.7541 7.83887 18.7541 8.8278 18.3356 9.66925L18.1001 10.1429M18.1001 6.52381C17.9533 5.20116 17.1696 4.02773 16 3.2076M5.89999 6.52381L5.66447 6.99736C5.24594 7.83884 5.24594 8.82783 5.66447 9.66931L5.89999 10.1429M5.89999 6.52381C6.0467 5.20116 6.83042 4.02773 8 3.2076M5.89999 10.1429H18.1001M5.89999 10.1429L5.1633 19.8486C5.07518 21.0095 5.99334 22 7.15756 22H16.8424C18.0067 22 18.9248 21.0095 18.8367 19.8486L18.1001 10.1429M8 3.2076C8.44808 2.8934 8.95278 2.63106 9.5 2.43204M8 3.2076C8.5 3.42643 9.5 3.57767 9.5 2.43204M9.5 2.43204C10.2634 2.1544 11.1095 2 12 2C12.8905 2 13.7367 2.1544 14.5 2.43204M14.5 2.43204C15.0473 2.63106 15.552 2.8934 16 3.2076M14.5 2.43204C14.5001 2.92643 14.8001 3.77369 16 3.2076" stroke="#555770" stroke-width="2"/>
</svg>
