<svg width="24" height="24" viewBox="0 0 24 24" fill="none" xmlns="http://www.w3.org/2000/svg">
<path d="M12.0002 0V9L12.0001 14M17.6155 14H12.0001M6.38477 14H12.0001" stroke="#3E7BFA" stroke-width="2"/>
<path d="M6 9C6 5.68629 8.68629 3 12 3C15.3137 3 18 5.68629 18 9M6 9H12H18M6 9V9C5.72386 9 5.5 9.22386 5.5 9.5V9.5C5.5 9.77614 5.72386 10 6 10H6.07692M6 9L6.07692 10M18 9V9C18.2761 9 18.5 9.22386 18.5 9.5V9.5C18.5 9.77614 18.2761 10 18 10H17.9231M18 9L17.9231 10M6.07692 10H17.9231M6.07692 10L6.38462 14L6.92898 21.0767C6.96905 21.5977 7.40349 22 7.92603 22H16.074C16.5965 22 17.0309 21.5977 17.071 21.0767L17.6154 14L17.9231 10" stroke="#555770" stroke-width="2"/>
</svg>
