<svg width="24" height="24" viewBox="0 0 24 24" fill="none" xmlns="http://www.w3.org/2000/svg">
<path d="M16.5 8.1C16.5 8.56944 15.9963 8.95 15.375 8.95C14.7537 8.95 14.25 8.56944 14.25 8.1C14.25 7.63056 14.7537 7.25 15.375 7.25C15.9963 7.25 16.5 7.63056 16.5 8.1Z" stroke="#3E7BFA" stroke-width="2"/>
<path d="M21 8.1C21 5.28335 17.9779 3 14.25 3C11.5258 3 9.17856 4.2193 8.11205 5.975C6.71965 8.26719 7.5 7.675 4.125 10.3706C3.42143 11.0276 3 11.8641 3 12.775M21 8.1C21 9.87393 19.8013 11.4363 17.9825 12.35C14.8125 13.625 13.6875 13.625 11.8359 15.325C10.9527 16.1359 9.56184 16.6 8.0625 16.6C5.26656 16.6 3 14.8875 3 12.775M21 8.1V11.5C21 13.2739 19.8013 14.8363 17.9825 15.75C14.8125 17.025 13.6875 17.025 11.8359 18.725C10.9527 19.5359 9.56184 20 8.0625 20C5.26656 20 3 18.2875 3 16.175V12.775" stroke="#555770" stroke-width="2"/>
</svg>
