<svg width="24" height="24" viewBox="0 0 24 24" fill="none" xmlns="http://www.w3.org/2000/svg">
<g clip-path="url(#clip0_402_17074)">
<path d="M12 22C6.47715 22 2 17.5228 2 12C2 8.25544 4.05775 4.99011 7.10872 3.2756C7.11476 3.29726 7.11667 3.32067 7.11328 3.34521C7.03855 3.8866 7 4.43906 7 4.99997C7 11.6274 12.3726 17 19 17C19.5609 17 20.1134 16.9614 20.6548 16.8867C20.6793 16.8833 20.7027 16.8852 20.7244 16.8913C19.0099 19.9422 15.7445 22 12 22Z" stroke="#3E7BFA" stroke-width="2" stroke-linejoin="round"/>
<mask id="mask0_402_17074" style="mask-type:alpha" maskUnits="userSpaceOnUse" x="4" y="8" width="21" height="21">
<rect x="15.5938" y="8.41382" width="12" height="16.3401" transform="rotate(45 15.5938 8.41382)" fill="black"/>
</mask>
<g mask="url(#mask0_402_17074)">
<path d="M12 22C6.47715 22 2 17.5228 2 12C2 8.25544 4.05775 4.99011 7.10872 3.2756C7.11476 3.29726 7.11667 3.32067 7.11328 3.34521C7.03855 3.8866 7 4.43906 7 4.99997C7 11.6274 12.3726 17 19 17C19.5609 17 20.1134 16.9614 20.6548 16.8867C20.6793 16.8833 20.7027 16.8852 20.7244 16.8913C19.0099 19.9422 15.7445 22 12 22Z" stroke="#555770" stroke-width="2" stroke-linejoin="round"/>
</g>
</g>
<defs>
<clipPath id="clip0_402_17074">
<rect width="24" height="24" fill="white"/>
</clipPath>
</defs>
</svg>
