<svg width="24" height="24" viewBox="0 0 24 24" fill="none" xmlns="http://www.w3.org/2000/svg">
<path d="M6 17.05C4.85888 17.2816 4 18.2905 4 19.5C4 20.8807 5.11929 22 6.5 22C7.88071 22 9 20.8807 9 19.5C9 18.2905 8.14112 17.2816 7 17.05M6 17.05C6.16155 17.0172 6.32877 17 6.5 17C6.67123 17 6.83845 17.0172 7 17.05M6 17.05V3.5C6 3.22386 6.22386 3 6.5 3C6.77614 3 7 3.22386 7 3.5V17.05" stroke="#555770" stroke-width="2"/>
<path d="M20 8C20 9.10457 19.1046 10 18 10H17C15.8954 10 15 9.10457 15 8V6.5V5C15 3.89543 15.8954 3 17 3H18C19.1046 3 20 3.89543 20 5" stroke="#3E7BFA" stroke-width="2"/>
<circle cx="10.5" cy="3.5" r="1.5" fill="#3E7BFA"/>
</svg>
