<svg width="24" height="24" viewBox="0 0 24 24" fill="none" xmlns="http://www.w3.org/2000/svg">
<mask id="mask0_402_17992" style="mask-type:alpha" maskUnits="userSpaceOnUse" x="0" y="0" width="24" height="24">
<path d="M21.5033 21.5L0.00325155 0L0 24H24V0H5.69812V2.86644L23 20.1683L21.5033 21.5Z" fill="white"/>
</mask>
<g mask="url(#mask0_402_17992)">
<path d="M21.8293 7.17071L17.7071 11.2929C17.3166 11.6834 17.3166 12.3166 17.7071 12.7071L21.8293 16.8293C21.8923 16.8923 22 16.8477 22 16.7586V7.24142C22 7.15233 21.8923 7.10771 21.8293 7.17071Z" stroke="#555770" stroke-width="2"/>
<path d="M2 7C2 6.44772 2.44772 6 3 6H16C16.5523 6 17 6.44772 17 7V12V17C17 17.5523 16.5523 18 16 18H3C2.44772 18 2 17.5523 2 17V7Z" stroke="#3E7BFA" stroke-width="2"/>
<path d="M1.58301 3L19.083 20.5" stroke="#555770" stroke-width="2"/>
</g>
</svg>
