<svg width="24" height="24" viewBox="0 0 24 24" fill="none" xmlns="http://www.w3.org/2000/svg">
<mask id="mask0_402_18023" style="mask-type:alpha" maskUnits="userSpaceOnUse" x="2" y="4" width="20" height="16">
<path d="M2 6C2 4.89543 2.89543 4 4 4H22V18C22 19.1046 21.1046 20 20 20H4C2.89543 20 2 19.1046 2 18V6Z" fill="white"/>
</mask>
<g mask="url(#mask0_402_18023)">
<path d="M3 2.5V5V18C3 18.5523 3.44772 19 4 19H20C20.5523 19 21 18.5523 21 18V9M3 2.5L6.21682 8.4741C6.39124 8.79801 6.72941 9 7.09729 9H11.5M3 2.5H8.5M21 9H16.5M21 9V8M8.5 2.5L11.5 9M8.5 2.5H13.5M11.5 9H16.5M13.5 2.5L16.5 9M13.5 2.5H18.5M18.5 2.5L21 8M18.5 2.5H21V8" stroke="#555770" stroke-width="2"/>
<path d="M12 16L12 11M12 16L13 15L11 15L12 16Z" stroke="#3E7BFA" stroke-width="2"/>
</g>
</svg>
