<svg width="24" height="24" viewBox="0 0 24 24" fill="none" xmlns="http://www.w3.org/2000/svg">
<path d="M1 14C1 16.7614 3.23858 19 6 19H19C21.2091 19 23 17.2091 23 15C23 12.7909 21.2091 11 19 11C18.6542 11 18.3187 11.0439 17.9987 11.1264C17.9996 11.0843 18 11.0422 18 11C18 7.68629 15.3137 5 12 5C9.38338 5 7.15796 6.67497 6.33746 9.01121C6.22594 9.00378 6.11341 9 6 9C3.23858 9 1 11.2386 1 14Z" stroke="#555770" stroke-width="2"/>
<path d="M18.9999 19C21.2091 19 22.9999 17.2091 22.9999 15C22.9999 12.7909 21.2091 11 18.9999 11C18.6542 11 18.3186 11.0439 17.9986 11.1264C17.9995 11.0843 17.9999 11.0422 17.9999 11C17.9999 7.68629 15.3136 5 11.9999 5C9.60184 5 7.53234 6.40688 6.57178 8.4403" stroke="#3E7BFA" stroke-width="2"/>
</svg>
