<svg width="24" height="24" viewBox="0 0 24 24" fill="none" xmlns="http://www.w3.org/2000/svg">
<path d="M9.24902 9.73045C9.24902 8.12189 10.5659 6.9563 12.03 6.9563C13.4941 6.9563 14.7512 8.12189 14.7512 9.73045C14.7512 10.9689 13.739 11.3652 12.8083 12.4056C12.2784 12.998 12.0001 13.5872 12.0001 14M12.0001 15L12.03 17.0437" stroke="#3E7BFA" stroke-width="2"/>
<path d="M2 1V4M2 23V20M22 1V4M22 23V20M2 4H6V8M2 4V8M2 8H6M2 8V12M6 8V12M2 12H6M2 12V16M6 12V16M2 16H6M2 16V20M6 16V20H2M22 4H18V8M22 4V8M18 8H22M18 8V12M22 8V12M18 12H22M18 12V16M22 12V16M18 16H22M18 16V20H22M22 16V20" stroke="#3E7BFA" stroke-width="2"/>
<path d="M6 2H18V4V8V12V16V20V22H6V20V16V12V8V4V2Z" stroke="#555770" stroke-width="2"/>
</svg>
