<svg width="24" height="24" viewBox="0 0 24 24" fill="none" xmlns="http://www.w3.org/2000/svg">
<path d="M8.2666 3.54545L8.98161 2.84634C8.69741 2.55568 8.26555 2.46599 7.88911 2.61944C7.51268 2.77289 7.2666 3.13895 7.2666 3.54545H8.2666ZM9.8666 5.18182L9.15159 5.88094C9.33974 6.07335 9.59749 6.18182 9.8666 6.18182C10.1357 6.18182 10.3935 6.07335 10.5816 5.88094L9.8666 5.18182ZM11.9999 3L12.7149 2.30088C12.5268 2.10847 12.269 2 11.9999 2C11.7308 2 11.4731 2.10847 11.2849 2.30088L11.9999 3ZM14.1333 5.18182L13.4183 5.88094C13.6064 6.07335 13.8642 6.18182 14.1333 6.18182C14.4024 6.18182 14.6601 6.07335 14.8483 5.88094L14.1333 5.18182ZM15.7333 3.54545H16.7333C16.7333 3.13895 16.4872 2.77289 16.1108 2.61944C15.7343 2.46599 15.3025 2.55568 15.0183 2.84634L15.7333 3.54545ZM14.7333 7.36364C14.7333 8.94138 13.4884 10.1818 11.9999 10.1818V12.1818C14.6351 12.1818 16.7333 10.0033 16.7333 7.36364H14.7333ZM11.9999 10.1818C10.5114 10.1818 9.2666 8.94138 9.2666 7.36364H7.2666C7.2666 10.0033 9.36472 12.1818 11.9999 12.1818V10.1818ZM9.2666 7.36364V3.54545H7.2666V7.36364H9.2666ZM7.55159 4.24457L9.15159 5.88094L10.5816 4.4827L8.98161 2.84634L7.55159 4.24457ZM10.5816 5.88094L12.7149 3.69912L11.2849 2.30088L9.15159 4.4827L10.5816 5.88094ZM11.2849 3.69912L13.4183 5.88094L14.8483 4.4827L12.7149 2.30088L11.2849 3.69912ZM14.8483 5.88094L16.4483 4.24457L15.0183 2.84634L13.4183 4.4827L14.8483 5.88094ZM14.7333 3.54545V7.36364H16.7333V3.54545H14.7333ZM10.9999 11.1818V19.9091H12.9999V11.1818H10.9999Z" fill="#555770"/>
<path d="M11.8277 20.9416L11.9583 21.933C12.3749 21.8781 12.7128 21.5687 12.8039 21.1585L11.8277 20.9416ZM4.17228 12.3312L4.04169 11.3398C3.62509 11.3946 3.28723 11.7041 3.19609 12.1143L4.17228 12.3312ZM12.1723 20.9416L11.1961 21.1585C11.2872 21.5687 11.6251 21.8781 12.0417 21.933L12.1723 20.9416ZM19.8277 12.3312L20.8039 12.1143C20.7128 11.7041 20.3749 11.3946 19.9583 11.3398L19.8277 12.3312ZM10.9333 20C7.67751 20 5 17.2943 5 13.9091H3C3 18.3563 6.53081 22 10.9333 22V20ZM5.06667 13.2727C8.32249 13.2727 11 15.9784 11 19.3636H13C13 14.9165 9.46919 11.2727 5.06667 11.2727V13.2727ZM11 19.3636C11 19.8326 10.9485 20.288 10.8515 20.7247L12.8039 21.1585C12.9324 20.5802 13 19.9794 13 19.3636H11ZM11.6971 19.9501C11.4475 19.983 11.1926 20 10.9333 20V22C11.2802 22 11.6223 21.9772 11.9583 21.933L11.6971 19.9501ZM4.30287 13.3226C4.5525 13.2897 4.8074 13.2727 5.06667 13.2727V11.2727C4.71981 11.2727 4.37766 11.2955 4.04169 11.3398L4.30287 13.3226ZM5 13.9091C5 13.4401 5.05146 12.9847 5.14848 12.5481L3.19609 12.1143C3.06761 12.6925 3 13.2934 3 13.9091H5ZM13.0667 22C17.4692 22 21 18.3563 21 13.9091H19C19 17.2943 16.3225 20 13.0667 20V22ZM18.9333 11.2727C14.5308 11.2727 11 14.9165 11 19.3636H13C13 15.9784 15.6775 13.2727 18.9333 13.2727V11.2727ZM11 19.3636C11 19.9794 11.0676 20.5802 11.1961 21.1585L13.1485 20.7247C13.0515 20.288 13 19.8326 13 19.3636H11ZM12.0417 21.933C12.3777 21.9772 12.7198 22 13.0667 22V20C12.8074 20 12.5525 19.983 12.3029 19.9501L12.0417 21.933ZM19.9583 11.3398C19.6223 11.2955 19.2802 11.2727 18.9333 11.2727V13.2727C19.1926 13.2727 19.4475 13.2897 19.6971 13.3226L19.9583 11.3398ZM21 13.9091C21 13.2934 20.9324 12.6925 20.8039 12.1143L18.8515 12.5481C18.9485 12.9847 19 13.4401 19 13.9091H21Z" fill="#3E7BFA"/>
</svg>
