<svg width="24" height="24" viewBox="0 0 24 24" fill="none" xmlns="http://www.w3.org/2000/svg">
<path d="M12 21V3" stroke="#3E7BFA" stroke-width="2"/>
<path d="M8.5 10V13.0858C8.5 13.351 8.60536 13.6054 8.79289 13.7929L12 17V13.5L15.1508 10.7993C15.3724 10.6093 15.5 10.332 15.5 10.0401V7" stroke="#3E7BFA"/>
<path d="M14 21C14 22.1046 13.1046 23 12 23C10.8954 23 10 22.1046 10 21C10 19.8954 10.8954 19 12 19C13.1046 19 14 19.8954 14 21Z" fill="#555770"/>
<path d="M10 9.5C10 10.3284 9.32843 11 8.5 11C7.67157 11 7 10.3284 7 9.5C7 8.67157 7.67157 8 8.5 8C9.32843 8 10 8.67157 10 9.5Z" fill="#555770"/>
<path d="M17 5.00002L14 4.99994V8H17V5.00002Z" fill="#555770"/>
<path d="M14 4H10L12 1L14 4Z" fill="#555770"/>
</svg>
