<svg width="24" height="24" viewBox="0 0 24 24" fill="none" xmlns="http://www.w3.org/2000/svg">
<path d="M2 15L1.72127 14.4687C1.47678 14.5969 1.35138 14.8755 1.41742 15.1435C1.48347 15.4116 1.72392 15.6 2 15.6V15ZM2 8V7.4C1.72392 7.4 1.48347 7.5884 1.41742 7.85647C1.35138 8.12454 1.47678 8.40307 1.72127 8.53133L2 8ZM12.5 4L12.6552 3.42041C12.4499 3.36545 12.2308 3.4232 12.0793 3.57223C11.9277 3.72126 11.8664 3.93933 11.9179 4.14552L12.5 4ZM12.5 19L11.9179 18.8545C11.8664 19.0607 11.9277 19.2787 12.0793 19.4278C12.2308 19.5768 12.4499 19.6346 12.6552 19.5796L12.5 19ZM1.72127 8.53133C2.40869 8.89195 2.8136 9.32948 3.05516 9.80402C3.30137 10.2877 3.4 10.8537 3.4 11.5H4.6C4.6 10.7394 4.48513 9.96795 4.12458 9.25965C3.75939 8.54222 3.1643 7.93323 2.27873 7.46867L1.72127 8.53133ZM3.4 11.5C3.4 12.1463 3.30137 12.7123 3.05516 13.196C2.8136 13.6705 2.40869 14.1081 1.72127 14.4687L2.27873 15.5313C3.1643 15.0668 3.75939 14.4578 4.12458 13.7403C4.48513 13.032 4.6 12.2606 4.6 11.5H3.4ZM2 8.6C3.41407 8.6 4.71399 8.81877 5.77195 9.18332C6.84083 9.55163 7.6127 10.0509 8.03186 10.5738L8.96814 9.82316C8.35435 9.05754 7.34926 8.45758 6.16289 8.04878C4.9656 7.63622 3.53199 7.4 2 7.4V8.6ZM8.6 11.5C8.6 11.2033 8.71248 10.8927 8.96814 10.5738L8.03186 9.82316C7.64243 10.3089 7.4 10.8767 7.4 11.5H8.6ZM8.03186 12.4262C7.6127 12.9491 6.84083 13.4484 5.77195 13.8167C4.71399 14.1812 3.41407 14.4 2 14.4V15.6C3.53199 15.6 4.9656 15.3638 6.16289 14.9512C7.34926 14.5424 8.35435 13.9425 8.96814 13.1768L8.03186 12.4262ZM15 14.4C13.5859 14.4 12.286 14.1812 11.228 13.8167C10.1592 13.4484 9.3873 12.9491 8.96814 12.4262L8.03186 13.1768C8.64565 13.9425 9.65074 14.5424 10.8371 14.9512C12.0344 15.3638 13.468 15.6 15 15.6V14.4ZM8.96814 12.4262C8.71248 12.1073 8.6 11.7967 8.6 11.5H7.4C7.4 12.1233 7.64243 12.6911 8.03186 13.1768L8.96814 12.4262ZM8.96814 10.5738C9.50548 9.90349 10.6136 9.2828 12.1387 8.92057L11.8613 7.75306C10.2147 8.14418 8.80757 8.85556 8.03186 9.82316L8.96814 10.5738ZM12.1387 8.92057C13 8.71598 13.9705 8.6 15 8.6V7.4C13.8823 7.4 12.8185 7.52571 11.8613 7.75306L12.1387 8.92057ZM12.5516 8.57287C12.7367 8.14024 12.9753 7.41048 13.1166 6.57655C13.2572 5.74671 13.3099 4.76577 13.0821 3.85448L11.9179 4.14552C12.0901 4.83423 12.0595 5.63223 11.9334 6.37606C11.8081 7.11581 11.5966 7.75445 11.4484 8.10076L12.5516 8.57287ZM15 8.6C15.3253 8.6 15.6449 8.61158 15.9572 8.63392L16.0428 7.43697C15.7019 7.41259 15.3537 7.4 15 7.4V8.6ZM15.9572 8.63392C17.5871 8.75048 18.9945 9.15798 19.9742 9.71832C20.977 10.2919 21.4 10.9385 21.4 11.5H22.6C22.6 10.2982 21.7191 9.33392 20.57 8.67666C19.3978 8.00619 17.8052 7.56302 16.0428 7.43697L15.9572 8.63392ZM12.3448 4.57959C12.9478 4.74102 13.8321 5.12127 14.5035 5.71251C15.1628 6.29314 15.5629 7.0196 15.4084 7.93566L16.5916 8.13523C16.8371 6.67964 16.1538 5.56687 15.2965 4.81192C14.4513 4.0676 13.3855 3.61594 12.6552 3.42041L12.3448 4.57959ZM21.4 11.5C21.4 12.0615 20.977 12.7081 19.9742 13.2817C18.9945 13.842 17.5871 14.2495 15.9572 14.3661L16.0428 15.563C17.8052 15.437 19.3978 14.9938 20.57 14.3233C21.7191 13.6661 22.6 12.7018 22.6 11.5H21.4ZM15.9572 14.3661C15.6449 14.3884 15.3253 14.4 15 14.4V15.6C15.3537 15.6 15.7019 15.5874 16.0428 15.563L15.9572 14.3661ZM15.546 7.64319C14.5686 8.77442 13.3309 11.7955 15.4899 15.2805L16.5101 14.6486C14.6691 11.6769 15.7647 9.22558 16.454 8.4277L15.546 7.64319ZM11.4484 14.8992C11.5966 15.2456 11.8081 15.8842 11.9334 16.6239C12.0595 17.3678 12.0901 18.1658 11.9179 18.8545L13.0821 19.1455C13.3099 18.2342 13.2572 17.2533 13.1166 16.4235C12.9753 15.5895 12.7367 14.8598 12.5516 14.4271L11.4484 14.8992ZM12.6552 19.5796C13.3855 19.3841 14.4513 18.9324 15.2965 18.1881C16.1538 17.4331 16.8371 16.3204 16.5916 14.8648L15.4084 15.0643C15.5629 15.9804 15.1628 16.7069 14.5035 17.2875C13.8321 17.8787 12.9478 18.259 12.3448 18.4204L12.6552 19.5796Z" fill="#555770"/>
</svg>
