<svg width="24" height="24" viewBox="0 0 24 24" fill="none" xmlns="http://www.w3.org/2000/svg">
<path d="M2 13.7647L1.40234 13.8176L1.40379 13.834L1.40614 13.8504L2 13.7647ZM10 13.7647L10.595 13.8422L10.5966 13.8299L10.5977 13.8176L10 13.7647ZM1.5 8.11765H0.9V8.14416L0.902338 8.17057L1.5 8.11765ZM10.5 8.11765L11.0977 8.17057L11.1 8.14416V8.11765H10.5ZM14 17.7647L13.4023 17.8176L13.4038 17.834L13.4061 17.8504L14 17.7647ZM22 17.7647L22.595 17.8422L22.5966 17.8299L22.5977 17.8176L22 17.7647ZM13.5 12.1176H12.9V12.1442L12.9023 12.1706L13.5 12.1176ZM22.5 12.1176L23.0977 12.1706L23.1 12.1442V12.1176H22.5ZM6 17.4C4.9371 17.4 4.18696 16.9917 3.65131 16.3524C3.09861 15.6927 2.74874 14.7529 2.59386 13.6791L1.40614 13.8504C1.58025 15.0575 1.98773 16.2353 2.73147 17.1231C3.49225 18.0311 4.57762 18.6 6 18.6V17.4ZM9.40502 13.6873C9.25946 14.8055 8.90959 15.7395 8.35979 16.3833C7.82705 17.0071 7.0733 17.4 6 17.4V18.6C7.41198 18.6 8.50366 18.0627 9.27232 17.1626C10.0239 16.2825 10.4314 15.0988 10.595 13.8422L9.40502 13.6873ZM6 2.6C8.1887 2.6 9.9 4.26133 9.9 6.23529H11.1C11.1 3.53109 8.78186 1.4 6 1.4V2.6ZM6 1.4C3.21814 1.4 0.9 3.53109 0.9 6.23529H2.1C2.1 4.26133 3.8113 2.6 6 2.6V1.4ZM5.4 2V5.76471H6.6V2H5.4ZM2.59766 13.7118L2.09766 8.06473L0.902338 8.17057L1.40234 13.8176L2.59766 13.7118ZM2.1 8.11765V6.23529H0.9V8.11765H2.1ZM5.72199 5.233L1.22199 7.58594L1.77801 8.64935L6.27801 6.29641L5.72199 5.233ZM9.9 6.23529V8.11765H11.1V6.23529H9.9ZM9.90234 8.06473L9.40234 13.7118L10.5977 13.8176L11.0977 8.17057L9.90234 8.06473ZM5.72199 6.29641L10.222 8.64935L10.778 7.58594L6.27801 5.233L5.72199 6.29641ZM18 21.4C16.9371 21.4 16.187 20.9917 15.6513 20.3524C15.0986 19.6927 14.7487 18.7529 14.5939 17.6791L13.4061 17.8504C13.5802 19.0575 13.9877 20.2353 14.7315 21.1231C15.4923 22.0311 16.5776 22.6 18 22.6V21.4ZM21.405 17.6873C21.2595 18.8055 20.9096 19.7395 20.3598 20.3833C19.8271 21.0071 19.0733 21.4 18 21.4V22.6C19.412 22.6 20.5037 22.0627 21.2723 21.1626C22.0239 20.2825 22.4314 19.0988 22.595 17.8422L21.405 17.6873ZM18 6.6C20.1887 6.6 21.9 8.26133 21.9 10.2353H23.1C23.1 7.53109 20.7819 5.4 18 5.4V6.6ZM18 5.4C15.2181 5.4 12.9 7.53109 12.9 10.2353H14.1C14.1 8.26133 15.8113 6.6 18 6.6V5.4ZM17.4 6V9.76471H18.6V6H17.4ZM14.5977 17.7118L14.0977 12.0647L12.9023 12.1706L13.4023 17.8176L14.5977 17.7118ZM14.1 12.1176V10.2353H12.9V12.1176H14.1ZM17.722 9.233L13.222 11.5859L13.778 12.6494L18.278 10.2964L17.722 9.233ZM21.9 10.2353V12.1176H23.1V10.2353H21.9ZM21.9023 12.0647L21.4023 17.7118L22.5977 17.8176L23.0977 12.1706L21.9023 12.0647ZM17.722 10.2964L22.222 12.6494L22.778 11.5859L18.278 9.233L17.722 10.2964Z" fill="#555770"/>
</svg>
