<svg width="24" height="24" viewBox="0 0 24 24" fill="none" xmlns="http://www.w3.org/2000/svg">
<path d="M16 21.4H8V22.6H16V21.4ZM7.6 21V7H6.4V21H7.6ZM7.6 7V3H6.4V7H7.6ZM16.4 3V7H17.6V3H16.4ZM16.4 7V21H17.6V7H16.4ZM7 7.6H17V6.4H7V7.6ZM14.4219 0.839414L9.42189 18.8394L10.5781 19.1606L15.5781 1.16059L14.4219 0.839414ZM8 21.4C7.77909 21.4 7.6 21.2209 7.6 21H6.4C6.4 21.8837 7.11634 22.6 8 22.6V21.4ZM16 22.6C16.8837 22.6 17.6 21.8837 17.6 21H16.4C16.4 21.2209 16.2209 21.4 16 21.4V22.6Z" fill="#555770"/>
</svg>
