<svg width="24" height="24" viewBox="0 0 24 24" fill="none" xmlns="http://www.w3.org/2000/svg">
<path d="M8 2.83209C9.22492 2.2969 10.5778 2 12 2C13.4222 2 14.7751 2.2969 16 2.83209M8 2.83209C5.69311 3.84001 3.84001 5.69311 2.83209 8M8 2.83209C8.57068 4.14006 9.26348 5.72795 10 7.41604M16 21.1679C14.7751 21.7031 13.4222 22 12 22C10.5778 22 9.22493 21.7031 8 21.1679M16 21.1679C18.3069 20.16 20.16 18.3069 21.1679 16M16 21.1679C16 21.1679 15.1695 19.2643 14 16.584M16 2.83209C18.3069 3.84001 20.16 5.69311 21.1679 8M16 2.83209L14 7.41604M8 21.1679C5.69312 20.16 3.84001 18.3069 2.83209 16M8 21.1679L10 16.584M2.83209 8C2.29689 9.22492 2 10.5778 2 12C2 13.4222 2.29689 14.7751 2.83209 16M2.83209 8L7.41604 10M21.1679 16C21.7031 14.7751 22 13.4222 22 12C22 10.5778 21.7031 9.22492 21.1679 8M21.1679 16L16.584 14M21.1679 8L16.584 10M2.83209 16L7.41604 14M14 7.41604C13.3875 7.14845 12.7111 7 12 7C11.2889 7 10.6125 7.14845 10 7.41604M14 7.41604C15.1534 7.92 16.08 8.84656 16.584 10M16.584 10C16.8516 10.6125 17 11.2889 17 12C17 12.7111 16.8516 13.3875 16.584 14M16.584 14C16.08 15.1534 15.1534 16.08 14 16.584M14 16.584C13.3875 16.8516 12.7111 17 12 17C11.2889 17 10.6125 16.8516 10 16.584M10 16.584C8.84656 16.08 7.92 15.1534 7.41604 14M7.41604 14C7.14845 13.3875 7 12.7111 7 12C7 11.2889 7.14845 10.6125 7.41604 10M7.41604 10C7.92 8.84656 8.84656 7.92 10 7.41604" stroke="#555770" stroke-width="1.2"/>
</svg>
