<svg width="24" height="24" viewBox="0 0 24 24" fill="none" xmlns="http://www.w3.org/2000/svg">
<path d="M7.73223 3.17497L7.42491 2.65965L7.42491 2.65965L7.73223 3.17497ZM16.2678 3.17497L16.5751 2.65965L16.5751 2.65965L16.2678 3.17497ZM16.4 4.46043V15.0422H17.6V4.46043H16.4ZM7.6 15.0422V4.46043H6.4V15.0422H7.6ZM11.5 15.4362H8V16.6362H11.5V15.4362ZM10.9 16.0362V21.503H12.1V16.0362H10.9ZM16 15.4362H12.5V16.6362H16V15.4362ZM12.5 15.4362H11.5V16.6362H12.5V15.4362ZM13.1 21.503V16.0362H11.9V21.503H13.1ZM12 22.6C12.6041 22.6 13.1 22.1123 13.1 21.503H11.9C11.9 21.4427 11.9482 21.4 12 21.4V22.6ZM10.9 21.503C10.9 22.1123 11.3959 22.6 12 22.6V21.4C12.0518 21.4 12.1 21.4427 12.1 21.503H10.9ZM8.03956 3.69029C10.4771 2.23657 13.5229 2.23657 15.9604 3.69029L16.5751 2.65965C13.7589 0.980116 10.2411 0.980116 7.42491 2.65965L8.03956 3.69029ZM6.4 15.0422C6.4 15.926 7.11977 16.6362 8 16.6362V15.4362C7.77566 15.4362 7.6 15.2564 7.6 15.0422H6.4ZM16.4 15.0422C16.4 15.2564 16.2243 15.4362 16 15.4362V16.6362C16.8802 16.6362 17.6 15.926 17.6 15.0422H16.4ZM17.6 4.46043C17.6 3.72136 17.2099 3.03822 16.5751 2.65965L15.9604 3.69029C16.2342 3.85356 16.4 4.14634 16.4 4.46043H17.6ZM7.6 4.46043C7.6 4.14634 7.76578 3.85356 8.03956 3.69029L7.42491 2.65965C6.79013 3.03822 6.4 3.72136 6.4 4.46043H7.6Z" fill="#555770"/>
</svg>
