<svg width="24" height="24" viewBox="0 0 24 24" fill="none" xmlns="http://www.w3.org/2000/svg">
<path d="M5.5145 0.691303C5.34401 0.407154 4.97545 0.315015 4.6913 0.485504C4.40715 0.655993 4.31502 1.02455 4.4855 1.3087L5.5145 0.691303ZM11.5145 0.691303C11.344 0.407154 10.9755 0.315015 10.6913 0.485504C10.4072 0.655993 10.315 1.02455 10.4855 1.3087L11.5145 0.691303ZM4.4855 22.6913C4.31502 22.9755 4.40715 23.344 4.6913 23.5145C4.97545 23.685 5.34401 23.5928 5.5145 23.3087L4.4855 22.6913ZM10.4855 22.6913C10.315 22.9755 10.4072 23.344 10.6913 23.5145C10.9755 23.685 11.344 23.5928 11.5145 23.3087L10.4855 22.6913ZM21.8787 9.87868L21.4544 10.3029L21.8787 9.87868ZM21.8787 14.1213L21.4544 13.6971L21.8787 14.1213ZM15.5147 17.4H4V18.6H15.5147V17.4ZM1.6 15V9H0.4V15H1.6ZM19.3331 8.18162L21.4544 10.3029L22.3029 9.45441L20.1816 7.3331L19.3331 8.18162ZM21.4544 13.6971L19.3331 15.8184L20.1816 16.6669L22.3029 14.5456L21.4544 13.6971ZM4 6.6H8V5.4H4V6.6ZM8 6.6H15.5147V5.4H8V6.6ZM8.5145 5.6913L5.5145 0.691303L4.4855 1.3087L7.4855 6.3087L8.5145 5.6913ZM14.5145 5.6913L11.5145 0.691303L10.4855 1.3087L13.4855 6.3087L14.5145 5.6913ZM7.4855 17.6913L4.4855 22.6913L5.5145 23.3087L8.5145 18.3087L7.4855 17.6913ZM13.4855 17.6913L10.4855 22.6913L11.5145 23.3087L14.5145 18.3087L13.4855 17.6913ZM21.4544 10.3029C22.3917 11.2402 22.3917 12.7598 21.4544 13.6971L22.3029 14.5456C23.7088 13.1397 23.7088 10.8603 22.3029 9.45441L21.4544 10.3029ZM4 17.4C2.67452 17.4 1.6 16.3255 1.6 15H0.4C0.4 16.9882 2.01177 18.6 4 18.6V17.4ZM15.5147 18.6C17.2651 18.6 18.9439 17.9046 20.1816 16.6669L19.3331 15.8184C18.3204 16.8311 16.9469 17.4 15.5147 17.4V18.6ZM20.1816 7.3331C18.9439 6.09536 17.2651 5.4 15.5147 5.4V6.6C16.9469 6.6 18.3204 7.16893 19.3331 8.18162L20.1816 7.3331ZM1.6 9C1.6 7.67452 2.67452 6.6 4 6.6V5.4C2.01177 5.4 0.4 7.01177 0.4 9H1.6Z" fill="#555770"/>
<path d="M16.4546 14.0909L16.0737 13.6273L16.4546 14.0909ZM16.4546 9.9091L16.0737 10.3727L16.4546 9.9091ZM6 9.6L13.9156 9.6L13.9156 8.4L6 8.4L6 9.6ZM13.9156 14.4H6V15.6H13.9156V14.4ZM5.6 14V10H4.4V14H5.6ZM16.0737 10.3727L16.7377 10.9182L17.4994 9.99091L16.8354 9.44546L16.0737 10.3727ZM16.7377 13.0818L16.0737 13.6273L16.8354 14.5545L17.4994 14.0091L16.7377 13.0818ZM16.7377 10.9182C17.4196 11.4782 17.4196 12.5218 16.7377 13.0818L17.4994 14.0091C18.7657 12.969 18.7657 11.031 17.4994 9.99091L16.7377 10.9182ZM6 14.4C5.77909 14.4 5.6 14.2209 5.6 14H4.4C4.4 14.8837 5.11634 15.6 6 15.6V14.4ZM13.9156 15.6C14.9805 15.6 16.0125 15.2305 16.8354 14.5545L16.0737 13.6273C15.4655 14.1269 14.7027 14.4 13.9156 14.4V15.6ZM13.9156 9.6C14.7027 9.6 15.4655 9.87311 16.0737 10.3727L16.8354 9.44546C16.0125 8.7695 14.9805 8.4 13.9156 8.4L13.9156 9.6ZM6 8.4C5.11634 8.4 4.4 9.11634 4.4 10H5.6C5.6 9.77909 5.77909 9.6 6 9.6L6 8.4Z" fill="#555770"/>
</svg>
