<svg width="24" height="24" viewBox="0 0 24 24" fill="none" xmlns="http://www.w3.org/2000/svg">
<path d="M10 3L10.1807 2.42785L9.5614 2.23229L9.41537 2.86508L10 3ZM7 16L6.41537 15.8651L6.24577 16.6H7V16ZM16 16V16.6H16.4685L16.5821 16.1455L16 16ZM3 19V18.4H2.4V19H3ZM21 19L21.4243 19.4243L22.4485 18.4H21V19ZM9.41537 2.86508L6.41537 15.8651L7.58463 16.1349L10.5846 3.13492L9.41537 2.86508ZM7 16.6H16V15.4H7V16.6ZM16.5821 16.1455C17.0089 14.4385 17.434 11.6743 16.7434 8.99999C16.0412 6.28046 14.1915 3.69442 10.1807 2.42785L9.81932 3.57215C13.4085 4.70558 14.9755 6.95287 15.5816 9.30001C16.1993 11.6924 15.8245 14.2282 15.4179 15.8545L16.5821 16.1455ZM3 19.6H21V18.4H3V19.6ZM20.5757 18.5757C20.0724 19.079 19.6341 19.5121 18.9817 19.8383C18.3349 20.1618 17.4319 20.4 16 20.4V21.6C17.5681 21.6 18.6651 21.3382 19.5183 20.9117C20.3659 20.4879 20.9276 19.921 21.4243 19.4243L20.5757 18.5757ZM16 20.4C15.9922 20.4 15.9844 20.4 15.9766 20.4C15.9687 20.4 15.9609 20.4 15.9531 20.4C15.9453 20.4 15.9374 20.4 15.9296 20.4C15.9218 20.4 15.9139 20.4 15.9061 20.4C15.8982 20.4 15.8904 20.4 15.8825 20.4C15.8747 20.4 15.8668 20.4 15.859 20.4C15.8511 20.4 15.8433 20.4 15.8354 20.4C15.8275 20.4 15.8197 20.4 15.8118 20.4C15.8039 20.4 15.796 20.4 15.7882 20.4C15.7803 20.4 15.7724 20.4 15.7645 20.4C15.7566 20.4 15.7487 20.4 15.7408 20.4C15.7329 20.4 15.7251 20.4 15.7172 20.4C15.7093 20.4 15.7014 20.4 15.6934 20.4C15.6855 20.4 15.6776 20.4 15.6697 20.4C15.6618 20.4 15.6539 20.4 15.646 20.4C15.638 20.4 15.6301 20.4 15.6222 20.4C15.6143 20.4 15.6063 20.4 15.5984 20.4C15.5905 20.4 15.5825 20.4 15.5746 20.4C15.5667 20.4 15.5587 20.4 15.5508 20.4C15.5428 20.4 15.5349 20.4 15.5269 20.4C15.519 20.4 15.511 20.4 15.503 20.4C15.4951 20.4 15.4871 20.4 15.4792 20.4C15.4712 20.4 15.4632 20.4 15.4552 20.4C15.4473 20.4 15.4393 20.4 15.4313 20.4C15.4233 20.4 15.4154 20.4 15.4074 20.4C15.3994 20.4 15.3914 20.4 15.3834 20.4C15.3754 20.4 15.3674 20.4 15.3594 20.4C15.3514 20.4 15.3434 20.4 15.3354 20.4C15.3274 20.4 15.3194 20.4 15.3114 20.4C15.3034 20.4 15.2954 20.4 15.2874 20.4C15.2794 20.4 15.2713 20.4 15.2633 20.4C15.2553 20.4 15.2473 20.4 15.2393 20.4C15.2312 20.4 15.2232 20.4 15.2152 20.4C15.2071 20.4 15.1991 20.4 15.1911 20.4C15.183 20.4 15.175 20.4 15.1669 20.4C15.1589 20.4 15.1509 20.4 15.1428 20.4C15.1348 20.4 15.1267 20.4 15.1187 20.4C15.1106 20.4 15.1025 20.4 15.0945 20.4C15.0864 20.4 15.0784 20.4 15.0703 20.4C15.0622 20.4 15.0542 20.4 15.0461 20.4C15.038 20.4 15.03 20.4 15.0219 20.4C15.0138 20.4 15.0057 20.4 14.9976 20.4C14.9896 20.4 14.9815 20.4 14.9734 20.4C14.9653 20.4 14.9572 20.4 14.9491 20.4C14.941 20.4 14.9329 20.4 14.9249 20.4C14.9168 20.4 14.9087 20.4 14.9006 20.4C14.8925 20.4 14.8844 20.4 14.8763 20.4C14.8681 20.4 14.86 20.4 14.8519 20.4C14.8438 20.4 14.8357 20.4 14.8276 20.4C14.8195 20.4 14.8114 20.4 14.8032 20.4C14.7951 20.4 14.787 20.4 14.7789 20.4C14.7708 20.4 14.7626 20.4 14.7545 20.4C14.7464 20.4 14.7382 20.4 14.7301 20.4C14.722 20.4 14.7138 20.4 14.7057 20.4C14.6976 20.4 14.6894 20.4 14.6813 20.4C14.6731 20.4 14.665 20.4 14.6568 20.4C14.6487 20.4 14.6406 20.4 14.6324 20.4C14.6242 20.4 14.6161 20.4 14.6079 20.4C14.5998 20.4 14.5916 20.4 14.5835 20.4C14.5753 20.4 14.5672 20.4 14.559 20.4C14.5508 20.4 14.5427 20.4 14.5345 20.4C14.5263 20.4 14.5182 20.4 14.51 20.4C14.5018 20.4 14.4936 20.4 14.4855 20.4C14.4773 20.4 14.4691 20.4 14.4609 20.4C14.4528 20.4 14.4446 20.4 14.4364 20.4C14.4282 20.4 14.42 20.4 14.4118 20.4C14.4037 20.4 14.3955 20.4 14.3873 20.4C14.3791 20.4 14.3709 20.4 14.3627 20.4C14.3545 20.4 14.3463 20.4 14.3381 20.4C14.3299 20.4 14.3217 20.4 14.3135 20.4C14.3053 20.4 14.2971 20.4 14.2889 20.4C14.2807 20.4 14.2725 20.4 14.2643 20.4C14.2561 20.4 14.2479 20.4 14.2397 20.4C14.2315 20.4 14.2232 20.4 14.215 20.4C14.2068 20.4 14.1986 20.4 14.1904 20.4C14.1822 20.4 14.174 20.4 14.1657 20.4C14.1575 20.4 14.1493 20.4 14.1411 20.4C14.1328 20.4 14.1246 20.4 14.1164 20.4C14.1082 20.4 14.0999 20.4 14.0917 20.4C14.0835 20.4 14.0752 20.4 14.067 20.4C14.0588 20.4 14.0506 20.4 14.0423 20.4C14.0341 20.4 14.0258 20.4 14.0176 20.4C14.0094 20.4 14.0011 20.4 13.9929 20.4C13.9846 20.4 13.9764 20.4 13.9682 20.4C13.9599 20.4 13.9517 20.4 13.9434 20.4C13.9352 20.4 13.9269 20.4 13.9187 20.4C13.9104 20.4 13.9022 20.4 13.8939 20.4C13.8857 20.4 13.8774 20.4 13.8692 20.4C13.8609 20.4 13.8527 20.4 13.8444 20.4C13.8362 20.4 13.8279 20.4 13.8197 20.4C13.8114 20.4 13.8031 20.4 13.7949 20.4C13.7866 20.4 13.7784 20.4 13.7701 20.4C13.7618 20.4 13.7536 20.4 13.7453 20.4C13.737 20.4 13.7288 20.4 13.7205 20.4C13.7122 20.4 13.704 20.4 13.6957 20.4C13.6874 20.4 13.6792 20.4 13.6709 20.4C13.6626 20.4 13.6544 20.4 13.6461 20.4C13.6378 20.4 13.6295 20.4 13.6213 20.4C13.613 20.4 13.6047 20.4 13.5964 20.4C13.5882 20.4 13.5799 20.4 13.5716 20.4C13.5633 20.4 13.5551 20.4 13.5468 20.4C13.5385 20.4 13.5302 20.4 13.5219 20.4C13.5137 20.4 13.5054 20.4 13.4971 20.4C13.4888 20.4 13.4805 20.4 13.4722 20.4C13.464 20.4 13.4557 20.4 13.4474 20.4C13.4391 20.4 13.4308 20.4 13.4225 20.4C13.4142 20.4 13.406 20.4 13.3977 20.4C13.3894 20.4 13.3811 20.4 13.3728 20.4C13.3645 20.4 13.3562 20.4 13.3479 20.4C13.3397 20.4 13.3314 20.4 13.3231 20.4C13.3148 20.4 13.3065 20.4 13.2982 20.4C13.2899 20.4 13.2816 20.4 13.2733 20.4C13.265 20.4 13.2567 20.4 13.2484 20.4C13.2401 20.4 13.2318 20.4 13.2236 20.4C13.2153 20.4 13.207 20.4 13.1987 20.4C13.1904 20.4 13.1821 20.4 13.1738 20.4C13.1655 20.4 13.1572 20.4 13.1489 20.4C13.1406 20.4 13.1323 20.4 13.124 20.4C13.1157 20.4 13.1074 20.4 13.0991 20.4C13.0908 20.4 13.0825 20.4 13.0742 20.4C13.0659 20.4 13.0576 20.4 13.0493 20.4C13.041 20.4 13.0327 20.4 13.0244 20.4C13.0161 20.4 13.0078 20.4 12.9995 20.4C12.9912 20.4 12.9829 20.4 12.9746 20.4C12.9663 20.4 12.958 20.4 12.9497 20.4C12.9414 20.4 12.9331 20.4 12.9248 20.4C12.9165 20.4 12.9082 20.4 12.8999 20.4C12.8916 20.4 12.8833 20.4 12.875 20.4C12.8667 20.4 12.8584 20.4 12.8501 20.4C12.8418 20.4 12.8335 20.4 12.8252 20.4C12.8169 20.4 12.8086 20.4 12.8003 20.4C12.792 20.4 12.7837 20.4 12.7754 20.4C12.7671 20.4 12.7588 20.4 12.7505 20.4C12.7422 20.4 12.7339 20.4 12.7256 20.4C12.7173 20.4 12.709 20.4 12.7007 20.4C12.6924 20.4 12.6841 20.4 12.6758 20.4C12.6675 20.4 12.6592 20.4 12.6509 20.4C12.6426 20.4 12.6343 20.4 12.626 20.4C12.6177 20.4 12.6094 20.4 12.6011 20.4C12.5928 20.4 12.5845 20.4 12.5762 20.4C12.5679 20.4 12.5596 20.4 12.5513 20.4C12.543 20.4 12.5347 20.4 12.5264 20.4C12.5182 20.4 12.5099 20.4 12.5016 20.4C12.4933 20.4 12.485 20.4 12.4767 20.4C12.4684 20.4 12.4601 20.4 12.4518 20.4C12.4435 20.4 12.4352 20.4 12.4269 20.4C12.4186 20.4 12.4103 20.4 12.4021 20.4C12.3938 20.4 12.3855 20.4 12.3772 20.4C12.3689 20.4 12.3606 20.4 12.3523 20.4C12.344 20.4 12.3358 20.4 12.3275 20.4C12.3192 20.4 12.3109 20.4 12.3026 20.4C12.2943 20.4 12.286 20.4 12.2778 20.4C12.2695 20.4 12.2612 20.4 12.2529 20.4C12.2446 20.4 12.2363 20.4 12.2281 20.4C12.2198 20.4 12.2115 20.4 12.2032 20.4C12.1949 20.4 12.1867 20.4 12.1784 20.4C12.1701 20.4 12.1618 20.4 12.1536 20.4C12.1453 20.4 12.137 20.4 12.1287 20.4C12.1205 20.4 12.1122 20.4 12.1039 20.4C12.0956 20.4 12.0874 20.4 12.0791 20.4C12.0708 20.4 12.0626 20.4 12.0543 20.4C12.046 20.4 12.0378 20.4 12.0295 20.4C12.0212 20.4 12.013 20.4 12.0047 20.4C11.9964 20.4 11.9882 20.4 11.9799 20.4C11.9716 20.4 11.9634 20.4 11.9551 20.4C11.9469 20.4 11.9386 20.4 11.9303 20.4C11.9221 20.4 11.9138 20.4 11.9056 20.4C11.8973 20.4 11.8891 20.4 11.8808 20.4C11.8726 20.4 11.8643 20.4 11.8561 20.4C11.8478 20.4 11.8396 20.4 11.8313 20.4C11.8231 20.4 11.8148 20.4 11.8066 20.4C11.7983 20.4 11.7901 20.4 11.7818 20.4C11.7736 20.4 11.7654 20.4 11.7571 20.4C11.7489 20.4 11.7406 20.4 11.7324 20.4C11.7242 20.4 11.7159 20.4 11.7077 20.4C11.6994 20.4 11.6912 20.4 11.683 20.4C11.6748 20.4 11.6665 20.4 11.6583 20.4C11.6501 20.4 11.6418 20.4 11.6336 20.4C11.6254 20.4 11.6172 20.4 11.6089 20.4C11.6007 20.4 11.5925 20.4 11.5843 20.4C11.576 20.4 11.5678 20.4 11.5596 20.4C11.5514 20.4 11.5432 20.4 11.535 20.4C11.5268 20.4 11.5185 20.4 11.5103 20.4C11.5021 20.4 11.4939 20.4 11.4857 20.4C11.4775 20.4 11.4693 20.4 11.4611 20.4C11.4529 20.4 11.4447 20.4 11.4365 20.4C11.4283 20.4 11.4201 20.4 11.4119 20.4C11.4037 20.4 11.3955 20.4 11.3873 20.4C11.3791 20.4 11.3709 20.4 11.3627 20.4C11.3545 20.4 11.3463 20.4 11.3382 20.4C11.33 20.4 11.3218 20.4 11.3136 20.4C11.3054 20.4 11.2972 20.4 11.2891 20.4C11.2809 20.4 11.2727 20.4 11.2645 20.4C11.2564 20.4 11.2482 20.4 11.24 20.4C11.2318 20.4 11.2237 20.4 11.2155 20.4C11.2073 20.4 11.1992 20.4 11.191 20.4C11.1828 20.4 11.1747 20.4 11.1665 20.4C11.1584 20.4 11.1502 20.4 11.1421 20.4C11.1339 20.4 11.1258 20.4 11.1176 20.4C11.1094 20.4 11.1013 20.4 11.0932 20.4C11.085 20.4 11.0769 20.4 11.0687 20.4C11.0606 20.4 11.0524 20.4 11.0443 20.4C11.0362 20.4 11.028 20.4 11.0199 20.4C11.0118 20.4 11.0036 20.4 10.9955 20.4C10.9874 20.4 10.9792 20.4 10.9711 20.4C10.963 20.4 10.9549 20.4 10.9468 20.4C10.9386 20.4 10.9305 20.4 10.9224 20.4C10.9143 20.4 10.9062 20.4 10.8981 20.4C10.89 20.4 10.8819 20.4 10.8737 20.4C10.8656 20.4 10.8575 20.4 10.8494 20.4C10.8413 20.4 10.8332 20.4 10.8251 20.4C10.8171 20.4 10.809 20.4 10.8009 20.4C10.7928 20.4 10.7847 20.4 10.7766 20.4C10.7685 20.4 10.7604 20.4 10.7524 20.4C10.7443 20.4 10.7362 20.4 10.7281 20.4C10.72 20.4 10.712 20.4 10.7039 20.4C10.6958 20.4 10.6878 20.4 10.6797 20.4C10.6716 20.4 10.6636 20.4 10.6555 20.4C10.6475 20.4 10.6394 20.4 10.6313 20.4C10.6233 20.4 10.6152 20.4 10.6072 20.4C10.5991 20.4 10.5911 20.4 10.5831 20.4C10.575 20.4 10.567 20.4 10.5589 20.4C10.5509 20.4 10.5429 20.4 10.5348 20.4C10.5268 20.4 10.5188 20.4 10.5107 20.4C10.5027 20.4 10.4947 20.4 10.4867 20.4C10.4787 20.4 10.4706 20.4 10.4626 20.4C10.4546 20.4 10.4466 20.4 10.4386 20.4C10.4306 20.4 10.4226 20.4 10.4146 20.4C10.4066 20.4 10.3986 20.4 10.3906 20.4C10.3826 20.4 10.3746 20.4 10.3666 20.4C10.3586 20.4 10.3506 20.4 10.3426 20.4C10.3346 20.4 10.3267 20.4 10.3187 20.4C10.3107 20.4 10.3027 20.4 10.2948 20.4C10.2868 20.4 10.2788 20.4 10.2708 20.4C10.2629 20.4 10.2549 20.4 10.247 20.4C10.239 20.4 10.231 20.4 10.2231 20.4C10.2151 20.4 10.2072 20.4 10.1992 20.4C10.1913 20.4 10.1833 20.4 10.1754 20.4C10.1675 20.4 10.1595 20.4 10.1516 20.4C10.1437 20.4 10.1357 20.4 10.1278 20.4C10.1199 20.4 10.112 20.4 10.104 20.4C10.0961 20.4 10.0882 20.4 10.0803 20.4C10.0724 20.4 10.0645 20.4 10.0566 20.4C10.0486 20.4 10.0407 20.4 10.0328 20.4C10.0249 20.4 10.0171 20.4 10.0092 20.4C10.0013 20.4 9.99338 20.4 9.98549 20.4C9.9776 20.4 9.96972 20.4 9.96184 20.4C9.95396 20.4 9.94609 20.4 9.93822 20.4C9.93035 20.4 9.92248 20.4 9.91461 20.4C9.90675 20.4 9.89889 20.4 9.89103 20.4C9.88317 20.4 9.87532 20.4 9.86747 20.4C9.85962 20.4 9.85177 20.4 9.84393 20.4C9.83609 20.4 9.82825 20.4 9.82041 20.4C9.81258 20.4 9.80475 20.4 9.79692 20.4C9.78909 20.4 9.78127 20.4 9.77345 20.4C9.76563 20.4 9.75781 20.4 9.75 20.4C9.74219 20.4 9.73438 20.4 9.72657 20.4C9.71877 20.4 9.71097 20.4 9.70317 20.4C9.69537 20.4 9.68758 20.4 9.67979 20.4C9.672 20.4 9.66422 20.4 9.65644 20.4C9.64865 20.4 9.64088 20.4 9.6331 20.4C9.62533 20.4 9.61756 20.4 9.60979 20.4C9.60203 20.4 9.59427 20.4 9.58651 20.4C9.57875 20.4 9.571 20.4 9.56325 20.4C9.5555 20.4 9.54775 20.4 9.54001 20.4C9.53227 20.4 9.52453 20.4 9.5168 20.4C9.50907 20.4 9.50134 20.4 9.49361 20.4C9.48589 20.4 9.47817 20.4 9.47045 20.4C9.46273 20.4 9.45502 20.4 9.44731 20.4C9.4396 20.4 9.4319 20.4 9.4242 20.4C9.4165 20.4 9.4088 20.4 9.40111 20.4C9.39342 20.4 9.38573 20.4 9.37805 20.4C9.37037 20.4 9.36269 20.4 9.35502 20.4C9.34734 20.4 9.33967 20.4 9.33201 20.4C9.32434 20.4 9.31668 20.4 9.30902 20.4C9.30137 20.4 9.29371 20.4 9.28607 20.4C9.27842 20.4 9.27077 20.4 9.26314 20.4C9.2555 20.4 9.24786 20.4 9.24023 20.4C9.2326 20.4 9.22498 20.4 9.21735 20.4C9.20973 20.4 9.20212 20.4 9.1945 20.4C9.18689 20.4 9.17928 20.4 9.17168 20.4C9.16408 20.4 9.15648 20.4 9.14889 20.4C9.14129 20.4 9.1337 20.4 9.12612 20.4C9.11853 20.4 9.11095 20.4 9.10338 20.4C9.0958 20.4 9.08823 20.4 9.08066 20.4C9.0731 20.4 9.06554 20.4 9.05798 20.4C9.05042 20.4 9.04287 20.4 9.03532 20.4C9.02778 20.4 9.02023 20.4 9.0127 20.4C9.00516 20.4 8.99762 20.4 8.9901 20.4C8.98257 20.4 8.97504 20.4 8.96753 20.4C8.96001 20.4 8.95249 20.4 8.94498 20.4C8.93748 20.4 8.92997 20.4 8.92247 20.4C8.91497 20.4 8.90748 20.4 8.89999 20.4C8.8925 20.4 8.88502 20.4 8.87754 20.4C8.87006 20.4 8.86258 20.4 8.85511 20.4C8.84764 20.4 8.84018 20.4 8.83272 20.4C8.82526 20.4 8.8178 20.4 8.81035 20.4C8.8029 20.4 8.79546 20.4 8.78802 20.4C8.78058 20.4 8.77315 20.4 8.76572 20.4C8.75829 20.4 8.75086 20.4 8.74344 20.4C8.73603 20.4 8.72861 20.4 8.7212 20.4C8.71379 20.4 8.70639 20.4 8.69899 20.4C8.69159 20.4 8.6842 20.4 8.67681 20.4C8.66942 20.4 8.66204 20.4 8.65466 20.4C8.64729 20.4 8.63991 20.4 8.63255 20.4C8.62518 20.4 8.61782 20.4 8.61046 20.4C8.6031 20.4 8.59575 20.4 8.58841 20.4C8.58106 20.4 8.57372 20.4 8.56639 20.4C8.55905 20.4 8.55172 20.4 8.5444 20.4C8.53707 20.4 8.52975 20.4 8.52244 20.4C8.51513 20.4 8.50782 20.4 8.50051 20.4C8.49321 20.4 8.48591 20.4 8.47862 20.4C8.47133 20.4 8.46404 20.4 8.45676 20.4C8.44948 20.4 8.44221 20.4 8.43494 20.4C8.42767 20.4 8.4204 20.4 8.41315 20.4C8.40589 20.4 8.39863 20.4 8.39139 20.4C8.38414 20.4 8.3769 20.4 8.36966 20.4C8.36242 20.4 8.35519 20.4 8.34797 20.4C8.34074 20.4 8.33352 20.4 8.32631 20.4C8.3191 20.4 8.31189 20.4 8.30469 20.4C8.29749 20.4 8.29029 20.4 8.2831 20.4C8.27591 20.4 8.26872 20.4 8.26154 20.4C8.25436 20.4 8.24719 20.4 8.24002 20.4C8.23286 20.4 8.22569 20.4 8.21854 20.4C8.21138 20.4 8.20423 20.4 8.19709 20.4C8.18994 20.4 8.18281 20.4 8.17567 20.4C8.16854 20.4 8.16141 20.4 8.15429 20.4C8.14717 20.4 8.14006 20.4 8.13295 20.4C8.12584 20.4 8.11874 20.4 8.11164 20.4C8.10454 20.4 8.09745 20.4 8.09037 20.4C8.08328 20.4 8.07621 20.4 8.06913 20.4C8.06206 20.4 8.05499 20.4 8.04793 20.4C8.04087 20.4 8.03382 20.4 8.02677 20.4C8.01972 20.4 8.01268 20.4 8.00564 20.4C7.99861 20.4 7.99158 20.4 7.98455 20.4C7.97753 20.4 7.97051 20.4 7.9635 20.4C7.95649 20.4 7.94948 20.4 7.94249 20.4C7.93549 20.4 7.92849 20.4 7.92151 20.4C7.91452 20.4 7.90754 20.4 7.90057 20.4C7.89359 20.4 7.88662 20.4 7.87966 20.4C7.8727 20.4 7.86575 20.4 7.8588 20.4C7.85185 20.4 7.84491 20.4 7.83797 20.4C7.83104 20.4 7.82411 20.4 7.81718 20.4C7.81026 20.4 7.80334 20.4 7.79643 20.4C7.78952 20.4 7.78262 20.4 7.77572 20.4C7.76882 20.4 7.76193 20.4 7.75505 20.4C7.74816 20.4 7.74129 20.4 7.73441 20.4C7.72754 20.4 7.72068 20.4 7.71382 20.4C7.70696 20.4 7.70011 20.4 7.69326 20.4C7.68642 20.4 7.67958 20.4 7.67275 20.4C7.66592 20.4 7.65909 20.4 7.65227 20.4C7.64545 20.4 7.63864 20.4 7.63184 20.4C7.62503 20.4 7.61823 20.4 7.61144 20.4C7.60465 20.4 7.59786 20.4 7.59108 20.4C7.58431 20.4 7.57753 20.4 7.57077 20.4C7.564 20.4 7.55724 20.4 7.55049 20.4C7.54374 20.4 7.537 20.4 7.53026 20.4C7.52352 20.4 7.51679 20.4 7.51007 20.4C7.50334 20.4 7.49662 20.4 7.48991 20.4C7.4832 20.4 7.4765 20.4 7.4698 20.4C7.46311 20.4 7.45642 20.4 7.44973 20.4C7.44305 20.4 7.43637 20.4 7.42971 20.4C7.42304 20.4 7.41637 20.4 7.40972 20.4C7.40307 20.4 7.39642 20.4 7.38978 20.4C7.38314 20.4 7.3765 20.4 7.36987 20.4C7.36325 20.4 7.35663 20.4 7.35002 20.4C7.3434 20.4 7.3368 20.4 7.3302 20.4C7.3236 20.4 7.31701 20.4 7.31042 20.4C7.30384 20.4 7.29726 20.4 7.29069 20.4C7.28412 20.4 7.27756 20.4 7.27101 20.4C7.26445 20.4 7.2579 20.4 7.25136 20.4C7.24482 20.4 7.23829 20.4 7.23176 20.4C7.22523 20.4 7.21871 20.4 7.2122 20.4C7.20569 20.4 7.19919 20.4 7.19269 20.4C7.18619 20.4 7.1797 20.4 7.17322 20.4C7.16674 20.4 7.16026 20.4 7.15379 20.4C7.14733 20.4 7.14087 20.4 7.13441 20.4C7.12796 20.4 7.12151 20.4 7.11508 20.4C7.10864 20.4 7.10221 20.4 7.09578 20.4C7.08936 20.4 7.08294 20.4 7.07654 20.4C7.07013 20.4 7.06373 20.4 7.05733 20.4C7.05094 20.4 7.04456 20.4 7.03818 20.4C7.0318 20.4 7.02543 20.4 7.01907 20.4C7.0127 20.4 7.00635 20.4 7 20.4C6.99365 20.4 6.98731 20.4 6.98098 20.4C6.97465 20.4 6.96832 20.4 6.96201 20.4C6.95569 20.4 6.94938 20.4 6.94308 20.4C6.93678 20.4 6.93048 20.4 6.9242 20.4C6.91791 20.4 6.91163 20.4 6.90536 20.4C6.89909 20.4 6.89283 20.4 6.88657 20.4C6.88032 20.4 6.87407 20.4 6.86783 20.4C6.86159 20.4 6.85536 20.4 6.84914 20.4C6.84291 20.4 6.8367 20.4 6.83049 20.4C6.82428 20.4 6.81808 20.4 6.81189 20.4C6.8057 20.4 6.79951 20.4 6.79334 20.4C6.78716 20.4 6.78099 20.4 6.77483 20.4C6.76867 20.4 6.76252 20.4 6.75637 20.4C6.75023 20.4 6.74409 20.4 6.73797 20.4C6.73184 20.4 6.72572 20.4 6.71961 20.4C6.71349 20.4 6.70739 20.4 6.70129 20.4C6.6952 20.4 6.68911 20.4 6.68303 20.4C6.67695 20.4 6.67088 20.4 6.66482 20.4C6.65875 20.4 6.6527 20.4 6.64665 20.4C6.6406 20.4 6.63456 20.4 6.62853 20.4C6.6225 20.4 6.61648 20.4 6.61047 20.4C6.60445 20.4 6.59845 20.4 6.59245 20.4C6.58645 20.4 6.58046 20.4 6.57448 20.4C6.5685 20.4 6.56253 20.4 6.55656 20.4C6.5506 20.4 6.54464 20.4 6.5387 20.4C6.53275 20.4 6.52681 20.4 6.52088 20.4C6.51495 20.4 6.50903 20.4 6.50311 20.4C6.4972 20.4 6.49129 20.4 6.4854 20.4C6.4795 20.4 6.47361 20.4 6.46773 20.4C6.46185 20.4 6.45598 20.4 6.45011 20.4C6.44425 20.4 6.4384 20.4 6.43255 20.4C6.42671 20.4 6.42087 20.4 6.41504 20.4C6.40921 20.4 6.40339 20.4 6.39758 20.4C6.39177 20.4 6.38596 20.4 6.38017 20.4C6.37437 20.4 6.36859 20.4 6.36281 20.4C6.35703 20.4 6.35127 20.4 6.34551 20.4C6.33975 20.4 6.334 20.4 6.32825 20.4C6.32251 20.4 6.31678 20.4 6.31105 20.4C6.30533 20.4 6.29961 20.4 6.2939 20.4C6.2882 20.4 6.2825 20.4 6.27681 20.4C6.27112 20.4 6.26544 20.4 6.25977 20.4C6.2541 20.4 6.24843 20.4 6.24278 20.4C6.23712 20.4 6.23148 20.4 6.22584 20.4C6.22021 20.4 6.21458 20.4 6.20896 20.4C6.20334 20.4 6.19773 20.4 6.19213 20.4C6.18653 20.4 6.18094 20.4 6.17536 20.4C6.16977 20.4 6.1642 20.4 6.15863 20.4C6.15307 20.4 6.14751 20.4 6.14197 20.4C6.13642 20.4 6.13088 20.4 6.12536 20.4C6.11983 20.4 6.11431 20.4 6.1088 20.4C6.10329 20.4 6.09779 20.4 6.09229 20.4C6.0868 20.4 6.08132 20.4 6.07585 20.4C6.07037 20.4 6.06491 20.4 6.05945 20.4C6.054 20.4 6.04855 20.4 6.04311 20.4C6.03768 20.4 6.03225 20.4 6.02683 20.4C6.02141 20.4 6.016 20.4 6.0106 20.4C6.00521 20.4 5.99981 20.4 5.99443 20.4C5.98905 20.4 5.98368 20.4 5.97832 20.4C5.97296 20.4 5.9676 20.4 5.96226 20.4C5.95692 20.4 5.95158 20.4 5.94626 20.4C5.94093 20.4 5.93562 20.4 5.93031 20.4C5.925 20.4 5.91971 20.4 5.91442 20.4C5.90913 20.4 5.90386 20.4 5.89859 20.4C5.89332 20.4 5.88806 20.4 5.88281 20.4C5.87756 20.4 5.87232 20.4 5.86709 20.4C5.86186 20.4 5.85664 20.4 5.85143 20.4C5.84622 20.4 5.84102 20.4 5.83583 20.4C5.83064 20.4 5.82546 20.4 5.82028 20.4C5.81511 20.4 5.80995 20.4 5.8048 20.4C5.79964 20.4 5.7945 20.4 5.78937 20.4C5.78423 20.4 5.77911 20.4 5.774 20.4C5.76888 20.4 5.76378 20.4 5.75868 20.4C5.75359 20.4 5.7485 20.4 5.74343 20.4C5.73835 20.4 5.73329 20.4 5.72823 20.4C5.72318 20.4 5.71813 20.4 5.7131 20.4C5.70806 20.4 5.70303 20.4 5.69802 20.4C5.693 20.4 5.688 20.4 5.683 20.4C5.67801 20.4 5.67302 20.4 5.66804 20.4C5.66307 20.4 5.6581 20.4 5.65314 20.4C5.64819 20.4 5.64324 20.4 5.63831 20.4C5.63337 20.4 5.62844 20.4 5.62353 20.4C5.61861 20.4 5.6137 20.4 5.60881 20.4C5.60391 20.4 5.59903 20.4 5.59415 20.4C5.58928 20.4 5.58441 20.4 5.57955 20.4C5.5747 20.4 5.56985 20.4 5.56502 20.4C5.56018 20.4 5.55536 20.4 5.55054 20.4C5.54573 20.4 5.54092 20.4 5.53613 20.4C5.53133 20.4 5.52655 20.4 5.52177 20.4C5.517 20.4 5.51224 20.4 5.50748 20.4C5.50273 20.4 5.49799 20.4 5.49325 20.4C5.48852 20.4 5.4838 20.4 5.47909 20.4C5.47437 20.4 5.46967 20.4 5.46498 20.4C5.46029 20.4 5.45561 20.4 5.45094 20.4C5.44626 20.4 5.4416 20.4 5.43695 20.4C5.4323 20.4 5.42766 20.4 5.42304 20.4C5.41841 20.4 5.41379 20.4 5.40918 20.4C5.40457 20.4 5.39997 20.4 5.39539 20.4C5.3908 20.4 5.38622 20.4 5.38166 20.4C5.37709 20.4 5.37254 20.4 5.36799 20.4C5.36345 20.4 5.35891 20.4 5.35439 20.4C5.34986 20.4 5.34535 20.4 5.34085 20.4C5.33635 20.4 5.33185 20.4 5.32737 20.4C5.32289 20.4 5.31842 20.4 5.31396 20.4C5.3095 20.4 5.30505 20.4 5.30061 20.4C5.29618 20.4 5.29175 20.4 5.28733 20.4C5.28291 20.4 5.27851 20.4 5.27411 20.4C5.26972 20.4 5.26533 20.4 5.26096 20.4C5.25658 20.4 5.25222 20.4 5.24787 20.4C5.24352 20.4 5.23918 20.4 5.23485 20.4C5.23052 20.4 5.2262 20.4 5.22189 20.4C5.21758 20.4 5.21328 20.4 5.20899 20.4C5.20471 20.4 5.20043 20.4 5.19617 20.4C5.1919 20.4 5.18765 20.4 5.18341 20.4C5.17916 20.4 5.17493 20.4 5.17071 20.4C5.16649 20.4 5.16228 20.4 5.15808 20.4C5.15388 20.4 5.14969 20.4 5.14552 20.4C5.14134 20.4 5.13718 20.4 5.13302 20.4C5.12887 20.4 5.12472 20.4 5.12059 20.4C5.11646 20.4 5.11234 20.4 5.10823 20.4C5.10412 20.4 5.10002 20.4 5.09593 20.4C5.09184 20.4 5.08777 20.4 5.0837 20.4C5.07964 20.4 5.07558 20.4 5.07154 20.4C5.0675 20.4 5.06347 20.4 5.05945 20.4C5.05543 20.4 5.05142 20.4 5.04742 20.4C5.04343 20.4 5.03944 20.4 5.03546 20.4C5.03149 20.4 5.02753 20.4 5.02357 20.4C5.01962 20.4 5.01568 20.4 5.01175 20.4C5.00782 20.4 5.00391 20.4 5 20.4V21.6C5.00391 21.6 5.00782 21.6 5.01175 21.6C5.01568 21.6 5.01962 21.6 5.02357 21.6C5.02753 21.6 5.03149 21.6 5.03546 21.6C5.03944 21.6 5.04343 21.6 5.04742 21.6C5.05142 21.6 5.05543 21.6 5.05945 21.6C5.06347 21.6 5.0675 21.6 5.07154 21.6C5.07558 21.6 5.07964 21.6 5.0837 21.6C5.08777 21.6 5.09184 21.6 5.09593 21.6C5.10002 21.6 5.10412 21.6 5.10823 21.6C5.11234 21.6 5.11646 21.6 5.12059 21.6C5.12472 21.6 5.12887 21.6 5.13302 21.6C5.13718 21.6 5.14134 21.6 5.14552 21.6C5.14969 21.6 5.15388 21.6 5.15808 21.6C5.16228 21.6 5.16649 21.6 5.17071 21.6C5.17493 21.6 5.17916 21.6 5.18341 21.6C5.18765 21.6 5.1919 21.6 5.19617 21.6C5.20043 21.6 5.20471 21.6 5.20899 21.6C5.21328 21.6 5.21758 21.6 5.22189 21.6C5.2262 21.6 5.23052 21.6 5.23485 21.6C5.23918 21.6 5.24352 21.6 5.24787 21.6C5.25222 21.6 5.25658 21.6 5.26096 21.6C5.26533 21.6 5.26972 21.6 5.27411 21.6C5.27851 21.6 5.28291 21.6 5.28733 21.6C5.29175 21.6 5.29618 21.6 5.30061 21.6C5.30505 21.6 5.3095 21.6 5.31396 21.6C5.31842 21.6 5.32289 21.6 5.32737 21.6C5.33185 21.6 5.33635 21.6 5.34085 21.6C5.34535 21.6 5.34986 21.6 5.35439 21.6C5.35891 21.6 5.36345 21.6 5.36799 21.6C5.37254 21.6 5.37709 21.6 5.38166 21.6C5.38622 21.6 5.3908 21.6 5.39539 21.6C5.39997 21.6 5.40457 21.6 5.40918 21.6C5.41379 21.6 5.41841 21.6 5.42304 21.6C5.42766 21.6 5.4323 21.6 5.43695 21.6C5.4416 21.6 5.44626 21.6 5.45094 21.6C5.45561 21.6 5.46029 21.6 5.46498 21.6C5.46967 21.6 5.47437 21.6 5.47909 21.6C5.4838 21.6 5.48852 21.6 5.49325 21.6C5.49799 21.6 5.50273 21.6 5.50748 21.6C5.51224 21.6 5.517 21.6 5.52177 21.6C5.52655 21.6 5.53133 21.6 5.53613 21.6C5.54092 21.6 5.54573 21.6 5.55054 21.6C5.55536 21.6 5.56018 21.6 5.56502 21.6C5.56985 21.6 5.5747 21.6 5.57955 21.6C5.58441 21.6 5.58928 21.6 5.59415 21.6C5.59903 21.6 5.60391 21.6 5.60881 21.6C5.6137 21.6 5.61861 21.6 5.62353 21.6C5.62844 21.6 5.63337 21.6 5.63831 21.6C5.64324 21.6 5.64819 21.6 5.65314 21.6C5.6581 21.6 5.66307 21.6 5.66804 21.6C5.67302 21.6 5.67801 21.6 5.683 21.6C5.688 21.6 5.693 21.6 5.69802 21.6C5.70303 21.6 5.70806 21.6 5.7131 21.6C5.71813 21.6 5.72318 21.6 5.72823 21.6C5.73329 21.6 5.73835 21.6 5.74343 21.6C5.7485 21.6 5.75359 21.6 5.75868 21.6C5.76378 21.6 5.76888 21.6 5.774 21.6C5.77911 21.6 5.78423 21.6 5.78937 21.6C5.7945 21.6 5.79964 21.6 5.8048 21.6C5.80995 21.6 5.81511 21.6 5.82028 21.6C5.82546 21.6 5.83064 21.6 5.83583 21.6C5.84102 21.6 5.84622 21.6 5.85143 21.6C5.85664 21.6 5.86186 21.6 5.86709 21.6C5.87232 21.6 5.87756 21.6 5.88281 21.6C5.88806 21.6 5.89332 21.6 5.89859 21.6C5.90386 21.6 5.90913 21.6 5.91442 21.6C5.91971 21.6 5.925 21.6 5.93031 21.6C5.93562 21.6 5.94093 21.6 5.94626 21.6C5.95158 21.6 5.95692 21.6 5.96226 21.6C5.9676 21.6 5.97296 21.6 5.97832 21.6C5.98368 21.6 5.98905 21.6 5.99443 21.6C5.99981 21.6 6.00521 21.6 6.0106 21.6C6.016 21.6 6.02141 21.6 6.02683 21.6C6.03225 21.6 6.03768 21.6 6.04311 21.6C6.04855 21.6 6.054 21.6 6.05945 21.6C6.06491 21.6 6.07037 21.6 6.07585 21.6C6.08132 21.6 6.0868 21.6 6.09229 21.6C6.09779 21.6 6.10329 21.6 6.1088 21.6C6.11431 21.6 6.11983 21.6 6.12536 21.6C6.13088 21.6 6.13642 21.6 6.14197 21.6C6.14751 21.6 6.15307 21.6 6.15863 21.6C6.1642 21.6 6.16977 21.6 6.17536 21.6C6.18094 21.6 6.18653 21.6 6.19213 21.6C6.19773 21.6 6.20334 21.6 6.20896 21.6C6.21458 21.6 6.22021 21.6 6.22584 21.6C6.23148 21.6 6.23712 21.6 6.24278 21.6C6.24843 21.6 6.2541 21.6 6.25977 21.6C6.26544 21.6 6.27112 21.6 6.27681 21.6C6.2825 21.6 6.2882 21.6 6.2939 21.6C6.29961 21.6 6.30533 21.6 6.31105 21.6C6.31678 21.6 6.32251 21.6 6.32825 21.6C6.334 21.6 6.33975 21.6 6.34551 21.6C6.35127 21.6 6.35703 21.6 6.36281 21.6C6.36859 21.6 6.37437 21.6 6.38017 21.6C6.38596 21.6 6.39177 21.6 6.39758 21.6C6.40339 21.6 6.40921 21.6 6.41504 21.6C6.42087 21.6 6.42671 21.6 6.43255 21.6C6.4384 21.6 6.44425 21.6 6.45011 21.6C6.45598 21.6 6.46185 21.6 6.46773 21.6C6.47361 21.6 6.4795 21.6 6.4854 21.6C6.49129 21.6 6.4972 21.6 6.50311 21.6C6.50903 21.6 6.51495 21.6 6.52088 21.6C6.52681 21.6 6.53275 21.6 6.5387 21.6C6.54464 21.6 6.5506 21.6 6.55656 21.6C6.56253 21.6 6.5685 21.6 6.57448 21.6C6.58046 21.6 6.58645 21.6 6.59245 21.6C6.59845 21.6 6.60445 21.6 6.61047 21.6C6.61648 21.6 6.6225 21.6 6.62853 21.6C6.63456 21.6 6.6406 21.6 6.64665 21.6C6.6527 21.6 6.65875 21.6 6.66482 21.6C6.67088 21.6 6.67695 21.6 6.68303 21.6C6.68911 21.6 6.6952 21.6 6.70129 21.6C6.70739 21.6 6.71349 21.6 6.71961 21.6C6.72572 21.6 6.73184 21.6 6.73797 21.6C6.74409 21.6 6.75023 21.6 6.75637 21.6C6.76252 21.6 6.76867 21.6 6.77483 21.6C6.78099 21.6 6.78716 21.6 6.79334 21.6C6.79951 21.6 6.8057 21.6 6.81189 21.6C6.81808 21.6 6.82428 21.6 6.83049 21.6C6.8367 21.6 6.84291 21.6 6.84914 21.6C6.85536 21.6 6.86159 21.6 6.86783 21.6C6.87407 21.6 6.88032 21.6 6.88657 21.6C6.89283 21.6 6.89909 21.6 6.90536 21.6C6.91163 21.6 6.91791 21.6 6.9242 21.6C6.93048 21.6 6.93678 21.6 6.94308 21.6C6.94938 21.6 6.95569 21.6 6.96201 21.6C6.96832 21.6 6.97465 21.6 6.98098 21.6C6.98731 21.6 6.99365 21.6 7 21.6C7.00635 21.6 7.0127 21.6 7.01907 21.6C7.02543 21.6 7.0318 21.6 7.03818 21.6C7.04456 21.6 7.05094 21.6 7.05733 21.6C7.06373 21.6 7.07013 21.6 7.07654 21.6C7.08294 21.6 7.08936 21.6 7.09578 21.6C7.10221 21.6 7.10864 21.6 7.11508 21.6C7.12151 21.6 7.12796 21.6 7.13441 21.6C7.14087 21.6 7.14733 21.6 7.15379 21.6C7.16026 21.6 7.16674 21.6 7.17322 21.6C7.1797 21.6 7.18619 21.6 7.19269 21.6C7.19919 21.6 7.20569 21.6 7.2122 21.6C7.21871 21.6 7.22523 21.6 7.23176 21.6C7.23829 21.6 7.24482 21.6 7.25136 21.6C7.2579 21.6 7.26445 21.6 7.27101 21.6C7.27756 21.6 7.28412 21.6 7.29069 21.6C7.29726 21.6 7.30384 21.6 7.31042 21.6C7.31701 21.6 7.3236 21.6 7.3302 21.6C7.3368 21.6 7.3434 21.6 7.35002 21.6C7.35663 21.6 7.36325 21.6 7.36987 21.6C7.3765 21.6 7.38314 21.6 7.38978 21.6C7.39642 21.6 7.40307 21.6 7.40972 21.6C7.41637 21.6 7.42304 21.6 7.42971 21.6C7.43637 21.6 7.44305 21.6 7.44973 21.6C7.45642 21.6 7.46311 21.6 7.4698 21.6C7.4765 21.6 7.4832 21.6 7.48991 21.6C7.49662 21.6 7.50334 21.6 7.51007 21.6C7.51679 21.6 7.52352 21.6 7.53026 21.6C7.537 21.6 7.54374 21.6 7.55049 21.6C7.55724 21.6 7.564 21.6 7.57077 21.6C7.57753 21.6 7.58431 21.6 7.59108 21.6C7.59786 21.6 7.60465 21.6 7.61144 21.6C7.61823 21.6 7.62503 21.6 7.63184 21.6C7.63864 21.6 7.64545 21.6 7.65227 21.6C7.65909 21.6 7.66592 21.6 7.67275 21.6C7.67958 21.6 7.68642 21.6 7.69326 21.6C7.70011 21.6 7.70696 21.6 7.71382 21.6C7.72068 21.6 7.72754 21.6 7.73441 21.6C7.74129 21.6 7.74816 21.6 7.75505 21.6C7.76193 21.6 7.76882 21.6 7.77572 21.6C7.78262 21.6 7.78952 21.6 7.79643 21.6C7.80334 21.6 7.81026 21.6 7.81718 21.6C7.82411 21.6 7.83104 21.6 7.83797 21.6C7.84491 21.6 7.85185 21.6 7.8588 21.6C7.86575 21.6 7.8727 21.6 7.87966 21.6C7.88662 21.6 7.89359 21.6 7.90057 21.6C7.90754 21.6 7.91452 21.6 7.92151 21.6C7.92849 21.6 7.93549 21.6 7.94249 21.6C7.94948 21.6 7.95649 21.6 7.9635 21.6C7.97051 21.6 7.97753 21.6 7.98455 21.6C7.99158 21.6 7.99861 21.6 8.00564 21.6C8.01268 21.6 8.01972 21.6 8.02677 21.6C8.03382 21.6 8.04087 21.6 8.04793 21.6C8.05499 21.6 8.06206 21.6 8.06913 21.6C8.07621 21.6 8.08328 21.6 8.09037 21.6C8.09745 21.6 8.10454 21.6 8.11164 21.6C8.11874 21.6 8.12584 21.6 8.13295 21.6C8.14006 21.6 8.14717 21.6 8.15429 21.6C8.16141 21.6 8.16854 21.6 8.17567 21.6C8.18281 21.6 8.18994 21.6 8.19709 21.6C8.20423 21.6 8.21138 21.6 8.21854 21.6C8.22569 21.6 8.23286 21.6 8.24002 21.6C8.24719 21.6 8.25436 21.6 8.26154 21.6C8.26872 21.6 8.27591 21.6 8.2831 21.6C8.29029 21.6 8.29749 21.6 8.30469 21.6C8.31189 21.6 8.3191 21.6 8.32631 21.6C8.33352 21.6 8.34074 21.6 8.34797 21.6C8.35519 21.6 8.36242 21.6 8.36966 21.6C8.3769 21.6 8.38414 21.6 8.39139 21.6C8.39863 21.6 8.40589 21.6 8.41315 21.6C8.4204 21.6 8.42767 21.6 8.43494 21.6C8.44221 21.6 8.44948 21.6 8.45676 21.6C8.46404 21.6 8.47133 21.6 8.47862 21.6C8.48591 21.6 8.49321 21.6 8.50051 21.6C8.50782 21.6 8.51513 21.6 8.52244 21.6C8.52975 21.6 8.53707 21.6 8.5444 21.6C8.55172 21.6 8.55905 21.6 8.56639 21.6C8.57372 21.6 8.58106 21.6 8.58841 21.6C8.59575 21.6 8.6031 21.6 8.61046 21.6C8.61782 21.6 8.62518 21.6 8.63255 21.6C8.63991 21.6 8.64729 21.6 8.65466 21.6C8.66204 21.6 8.66942 21.6 8.67681 21.6C8.6842 21.6 8.69159 21.6 8.69899 21.6C8.70639 21.6 8.71379 21.6 8.7212 21.6C8.72861 21.6 8.73603 21.6 8.74344 21.6C8.75086 21.6 8.75829 21.6 8.76572 21.6C8.77315 21.6 8.78058 21.6 8.78802 21.6C8.79546 21.6 8.8029 21.6 8.81035 21.6C8.8178 21.6 8.82526 21.6 8.83272 21.6C8.84018 21.6 8.84764 21.6 8.85511 21.6C8.86258 21.6 8.87006 21.6 8.87754 21.6C8.88502 21.6 8.8925 21.6 8.89999 21.6C8.90748 21.6 8.91497 21.6 8.92247 21.6C8.92997 21.6 8.93748 21.6 8.94498 21.6C8.95249 21.6 8.96001 21.6 8.96753 21.6C8.97504 21.6 8.98257 21.6 8.9901 21.6C8.99762 21.6 9.00516 21.6 9.0127 21.6C9.02023 21.6 9.02778 21.6 9.03532 21.6C9.04287 21.6 9.05042 21.6 9.05798 21.6C9.06554 21.6 9.0731 21.6 9.08066 21.6C9.08823 21.6 9.0958 21.6 9.10338 21.6C9.11095 21.6 9.11853 21.6 9.12612 21.6C9.1337 21.6 9.14129 21.6 9.14889 21.6C9.15648 21.6 9.16408 21.6 9.17168 21.6C9.17928 21.6 9.18689 21.6 9.1945 21.6C9.20212 21.6 9.20973 21.6 9.21735 21.6C9.22498 21.6 9.2326 21.6 9.24023 21.6C9.24786 21.6 9.2555 21.6 9.26314 21.6C9.27077 21.6 9.27842 21.6 9.28607 21.6C9.29371 21.6 9.30137 21.6 9.30902 21.6C9.31668 21.6 9.32434 21.6 9.33201 21.6C9.33967 21.6 9.34734 21.6 9.35502 21.6C9.36269 21.6 9.37037 21.6 9.37805 21.6C9.38573 21.6 9.39342 21.6 9.40111 21.6C9.4088 21.6 9.4165 21.6 9.4242 21.6C9.4319 21.6 9.4396 21.6 9.44731 21.6C9.45502 21.6 9.46273 21.6 9.47045 21.6C9.47817 21.6 9.48589 21.6 9.49361 21.6C9.50134 21.6 9.50907 21.6 9.5168 21.6C9.52453 21.6 9.53227 21.6 9.54001 21.6C9.54775 21.6 9.5555 21.6 9.56325 21.6C9.571 21.6 9.57875 21.6 9.58651 21.6C9.59427 21.6 9.60203 21.6 9.60979 21.6C9.61756 21.6 9.62533 21.6 9.6331 21.6C9.64088 21.6 9.64865 21.6 9.65644 21.6C9.66422 21.6 9.672 21.6 9.67979 21.6C9.68758 21.6 9.69537 21.6 9.70317 21.6C9.71097 21.6 9.71877 21.6 9.72657 21.6C9.73438 21.6 9.74219 21.6 9.75 21.6C9.75781 21.6 9.76563 21.6 9.77345 21.6C9.78127 21.6 9.78909 21.6 9.79692 21.6C9.80475 21.6 9.81258 21.6 9.82041 21.6C9.82825 21.6 9.83609 21.6 9.84393 21.6C9.85177 21.6 9.85962 21.6 9.86747 21.6C9.87532 21.6 9.88317 21.6 9.89103 21.6C9.89889 21.6 9.90675 21.6 9.91461 21.6C9.92248 21.6 9.93035 21.6 9.93822 21.6C9.94609 21.6 9.95396 21.6 9.96184 21.6C9.96972 21.6 9.9776 21.6 9.98549 21.6C9.99338 21.6 10.0013 21.6 10.0092 21.6C10.0171 21.6 10.0249 21.6 10.0328 21.6C10.0407 21.6 10.0486 21.6 10.0566 21.6C10.0645 21.6 10.0724 21.6 10.0803 21.6C10.0882 21.6 10.0961 21.6 10.104 21.6C10.112 21.6 10.1199 21.6 10.1278 21.6C10.1357 21.6 10.1437 21.6 10.1516 21.6C10.1595 21.6 10.1675 21.6 10.1754 21.6C10.1833 21.6 10.1913 21.6 10.1992 21.6C10.2072 21.6 10.2151 21.6 10.2231 21.6C10.231 21.6 10.239 21.6 10.247 21.6C10.2549 21.6 10.2629 21.6 10.2708 21.6C10.2788 21.6 10.2868 21.6 10.2948 21.6C10.3027 21.6 10.3107 21.6 10.3187 21.6C10.3267 21.6 10.3346 21.6 10.3426 21.6C10.3506 21.6 10.3586 21.6 10.3666 21.6C10.3746 21.6 10.3826 21.6 10.3906 21.6C10.3986 21.6 10.4066 21.6 10.4146 21.6C10.4226 21.6 10.4306 21.6 10.4386 21.6C10.4466 21.6 10.4546 21.6 10.4626 21.6C10.4706 21.6 10.4787 21.6 10.4867 21.6C10.4947 21.6 10.5027 21.6 10.5107 21.6C10.5188 21.6 10.5268 21.6 10.5348 21.6C10.5429 21.6 10.5509 21.6 10.5589 21.6C10.567 21.6 10.575 21.6 10.5831 21.6C10.5911 21.6 10.5991 21.6 10.6072 21.6C10.6152 21.6 10.6233 21.6 10.6313 21.6C10.6394 21.6 10.6475 21.6 10.6555 21.6C10.6636 21.6 10.6716 21.6 10.6797 21.6C10.6878 21.6 10.6958 21.6 10.7039 21.6C10.712 21.6 10.72 21.6 10.7281 21.6C10.7362 21.6 10.7443 21.6 10.7524 21.6C10.7604 21.6 10.7685 21.6 10.7766 21.6C10.7847 21.6 10.7928 21.6 10.8009 21.6C10.809 21.6 10.8171 21.6 10.8251 21.6C10.8332 21.6 10.8413 21.6 10.8494 21.6C10.8575 21.6 10.8656 21.6 10.8737 21.6C10.8819 21.6 10.89 21.6 10.8981 21.6C10.9062 21.6 10.9143 21.6 10.9224 21.6C10.9305 21.6 10.9386 21.6 10.9468 21.6C10.9549 21.6 10.963 21.6 10.9711 21.6C10.9792 21.6 10.9874 21.6 10.9955 21.6C11.0036 21.6 11.0118 21.6 11.0199 21.6C11.028 21.6 11.0362 21.6 11.0443 21.6C11.0524 21.6 11.0606 21.6 11.0687 21.6C11.0769 21.6 11.085 21.6 11.0932 21.6C11.1013 21.6 11.1094 21.6 11.1176 21.6C11.1258 21.6 11.1339 21.6 11.1421 21.6C11.1502 21.6 11.1584 21.6 11.1665 21.6C11.1747 21.6 11.1828 21.6 11.191 21.6C11.1992 21.6 11.2073 21.6 11.2155 21.6C11.2237 21.6 11.2318 21.6 11.24 21.6C11.2482 21.6 11.2564 21.6 11.2645 21.6C11.2727 21.6 11.2809 21.6 11.2891 21.6C11.2972 21.6 11.3054 21.6 11.3136 21.6C11.3218 21.6 11.33 21.6 11.3382 21.6C11.3463 21.6 11.3545 21.6 11.3627 21.6C11.3709 21.6 11.3791 21.6 11.3873 21.6C11.3955 21.6 11.4037 21.6 11.4119 21.6C11.4201 21.6 11.4283 21.6 11.4365 21.6C11.4447 21.6 11.4529 21.6 11.4611 21.6C11.4693 21.6 11.4775 21.6 11.4857 21.6C11.4939 21.6 11.5021 21.6 11.5103 21.6C11.5185 21.6 11.5268 21.6 11.535 21.6C11.5432 21.6 11.5514 21.6 11.5596 21.6C11.5678 21.6 11.576 21.6 11.5843 21.6C11.5925 21.6 11.6007 21.6 11.6089 21.6C11.6172 21.6 11.6254 21.6 11.6336 21.6C11.6418 21.6 11.6501 21.6 11.6583 21.6C11.6665 21.6 11.6748 21.6 11.683 21.6C11.6912 21.6 11.6994 21.6 11.7077 21.6C11.7159 21.6 11.7242 21.6 11.7324 21.6C11.7406 21.6 11.7489 21.6 11.7571 21.6C11.7654 21.6 11.7736 21.6 11.7818 21.6C11.7901 21.6 11.7983 21.6 11.8066 21.6C11.8148 21.6 11.8231 21.6 11.8313 21.6C11.8396 21.6 11.8478 21.6 11.8561 21.6C11.8643 21.6 11.8726 21.6 11.8808 21.6C11.8891 21.6 11.8973 21.6 11.9056 21.6C11.9138 21.6 11.9221 21.6 11.9303 21.6C11.9386 21.6 11.9469 21.6 11.9551 21.6C11.9634 21.6 11.9716 21.6 11.9799 21.6C11.9882 21.6 11.9964 21.6 12.0047 21.6C12.013 21.6 12.0212 21.6 12.0295 21.6C12.0378 21.6 12.046 21.6 12.0543 21.6C12.0626 21.6 12.0708 21.6 12.0791 21.6C12.0874 21.6 12.0956 21.6 12.1039 21.6C12.1122 21.6 12.1205 21.6 12.1287 21.6C12.137 21.6 12.1453 21.6 12.1536 21.6C12.1618 21.6 12.1701 21.6 12.1784 21.6C12.1867 21.6 12.1949 21.6 12.2032 21.6C12.2115 21.6 12.2198 21.6 12.2281 21.6C12.2363 21.6 12.2446 21.6 12.2529 21.6C12.2612 21.6 12.2695 21.6 12.2778 21.6C12.286 21.6 12.2943 21.6 12.3026 21.6C12.3109 21.6 12.3192 21.6 12.3275 21.6C12.3358 21.6 12.344 21.6 12.3523 21.6C12.3606 21.6 12.3689 21.6 12.3772 21.6C12.3855 21.6 12.3938 21.6 12.4021 21.6C12.4103 21.6 12.4186 21.6 12.4269 21.6C12.4352 21.6 12.4435 21.6 12.4518 21.6C12.4601 21.6 12.4684 21.6 12.4767 21.6C12.485 21.6 12.4933 21.6 12.5016 21.6C12.5099 21.6 12.5182 21.6 12.5264 21.6C12.5347 21.6 12.543 21.6 12.5513 21.6C12.5596 21.6 12.5679 21.6 12.5762 21.6C12.5845 21.6 12.5928 21.6 12.6011 21.6C12.6094 21.6 12.6177 21.6 12.626 21.6C12.6343 21.6 12.6426 21.6 12.6509 21.6C12.6592 21.6 12.6675 21.6 12.6758 21.6C12.6841 21.6 12.6924 21.6 12.7007 21.6C12.709 21.6 12.7173 21.6 12.7256 21.6C12.7339 21.6 12.7422 21.6 12.7505 21.6C12.7588 21.6 12.7671 21.6 12.7754 21.6C12.7837 21.6 12.792 21.6 12.8003 21.6C12.8086 21.6 12.8169 21.6 12.8252 21.6C12.8335 21.6 12.8418 21.6 12.8501 21.6C12.8584 21.6 12.8667 21.6 12.875 21.6C12.8833 21.6 12.8916 21.6 12.8999 21.6C12.9082 21.6 12.9165 21.6 12.9248 21.6C12.9331 21.6 12.9414 21.6 12.9497 21.6C12.958 21.6 12.9663 21.6 12.9746 21.6C12.9829 21.6 12.9912 21.6 12.9995 21.6C13.0078 21.6 13.0161 21.6 13.0244 21.6C13.0327 21.6 13.041 21.6 13.0493 21.6C13.0576 21.6 13.0659 21.6 13.0742 21.6C13.0825 21.6 13.0908 21.6 13.0991 21.6C13.1074 21.6 13.1157 21.6 13.124 21.6C13.1323 21.6 13.1406 21.6 13.1489 21.6C13.1572 21.6 13.1655 21.6 13.1738 21.6C13.1821 21.6 13.1904 21.6 13.1987 21.6C13.207 21.6 13.2153 21.6 13.2236 21.6C13.2318 21.6 13.2401 21.6 13.2484 21.6C13.2567 21.6 13.265 21.6 13.2733 21.6C13.2816 21.6 13.2899 21.6 13.2982 21.6C13.3065 21.6 13.3148 21.6 13.3231 21.6C13.3314 21.6 13.3397 21.6 13.3479 21.6C13.3562 21.6 13.3645 21.6 13.3728 21.6C13.3811 21.6 13.3894 21.6 13.3977 21.6C13.406 21.6 13.4142 21.6 13.4225 21.6C13.4308 21.6 13.4391 21.6 13.4474 21.6C13.4557 21.6 13.464 21.6 13.4722 21.6C13.4805 21.6 13.4888 21.6 13.4971 21.6C13.5054 21.6 13.5137 21.6 13.5219 21.6C13.5302 21.6 13.5385 21.6 13.5468 21.6C13.5551 21.6 13.5633 21.6 13.5716 21.6C13.5799 21.6 13.5882 21.6 13.5964 21.6C13.6047 21.6 13.613 21.6 13.6213 21.6C13.6295 21.6 13.6378 21.6 13.6461 21.6C13.6544 21.6 13.6626 21.6 13.6709 21.6C13.6792 21.6 13.6874 21.6 13.6957 21.6C13.704 21.6 13.7122 21.6 13.7205 21.6C13.7288 21.6 13.737 21.6 13.7453 21.6C13.7536 21.6 13.7618 21.6 13.7701 21.6C13.7784 21.6 13.7866 21.6 13.7949 21.6C13.8031 21.6 13.8114 21.6 13.8197 21.6C13.8279 21.6 13.8362 21.6 13.8444 21.6C13.8527 21.6 13.8609 21.6 13.8692 21.6C13.8774 21.6 13.8857 21.6 13.8939 21.6C13.9022 21.6 13.9104 21.6 13.9187 21.6C13.9269 21.6 13.9352 21.6 13.9434 21.6C13.9517 21.6 13.9599 21.6 13.9682 21.6C13.9764 21.6 13.9846 21.6 13.9929 21.6C14.0011 21.6 14.0094 21.6 14.0176 21.6C14.0258 21.6 14.0341 21.6 14.0423 21.6C14.0506 21.6 14.0588 21.6 14.067 21.6C14.0752 21.6 14.0835 21.6 14.0917 21.6C14.0999 21.6 14.1082 21.6 14.1164 21.6C14.1246 21.6 14.1328 21.6 14.1411 21.6C14.1493 21.6 14.1575 21.6 14.1657 21.6C14.174 21.6 14.1822 21.6 14.1904 21.6C14.1986 21.6 14.2068 21.6 14.215 21.6C14.2232 21.6 14.2315 21.6 14.2397 21.6C14.2479 21.6 14.2561 21.6 14.2643 21.6C14.2725 21.6 14.2807 21.6 14.2889 21.6C14.2971 21.6 14.3053 21.6 14.3135 21.6C14.3217 21.6 14.3299 21.6 14.3381 21.6C14.3463 21.6 14.3545 21.6 14.3627 21.6C14.3709 21.6 14.3791 21.6 14.3873 21.6C14.3955 21.6 14.4037 21.6 14.4118 21.6C14.42 21.6 14.4282 21.6 14.4364 21.6C14.4446 21.6 14.4528 21.6 14.4609 21.6C14.4691 21.6 14.4773 21.6 14.4855 21.6C14.4936 21.6 14.5018 21.6 14.51 21.6C14.5182 21.6 14.5263 21.6 14.5345 21.6C14.5427 21.6 14.5508 21.6 14.559 21.6C14.5672 21.6 14.5753 21.6 14.5835 21.6C14.5916 21.6 14.5998 21.6 14.6079 21.6C14.6161 21.6 14.6242 21.6 14.6324 21.6C14.6406 21.6 14.6487 21.6 14.6568 21.6C14.665 21.6 14.6731 21.6 14.6813 21.6C14.6894 21.6 14.6976 21.6 14.7057 21.6C14.7138 21.6 14.722 21.6 14.7301 21.6C14.7382 21.6 14.7464 21.6 14.7545 21.6C14.7626 21.6 14.7708 21.6 14.7789 21.6C14.787 21.6 14.7951 21.6 14.8032 21.6C14.8114 21.6 14.8195 21.6 14.8276 21.6C14.8357 21.6 14.8438 21.6 14.8519 21.6C14.86 21.6 14.8681 21.6 14.8763 21.6C14.8844 21.6 14.8925 21.6 14.9006 21.6C14.9087 21.6 14.9168 21.6 14.9249 21.6C14.9329 21.6 14.941 21.6 14.9491 21.6C14.9572 21.6 14.9653 21.6 14.9734 21.6C14.9815 21.6 14.9896 21.6 14.9976 21.6C15.0057 21.6 15.0138 21.6 15.0219 21.6C15.03 21.6 15.038 21.6 15.0461 21.6C15.0542 21.6 15.0622 21.6 15.0703 21.6C15.0784 21.6 15.0864 21.6 15.0945 21.6C15.1025 21.6 15.1106 21.6 15.1187 21.6C15.1267 21.6 15.1348 21.6 15.1428 21.6C15.1509 21.6 15.1589 21.6 15.1669 21.6C15.175 21.6 15.183 21.6 15.1911 21.6C15.1991 21.6 15.2071 21.6 15.2152 21.6C15.2232 21.6 15.2312 21.6 15.2393 21.6C15.2473 21.6 15.2553 21.6 15.2633 21.6C15.2713 21.6 15.2794 21.6 15.2874 21.6C15.2954 21.6 15.3034 21.6 15.3114 21.6C15.3194 21.6 15.3274 21.6 15.3354 21.6C15.3434 21.6 15.3514 21.6 15.3594 21.6C15.3674 21.6 15.3754 21.6 15.3834 21.6C15.3914 21.6 15.3994 21.6 15.4074 21.6C15.4154 21.6 15.4233 21.6 15.4313 21.6C15.4393 21.6 15.4473 21.6 15.4552 21.6C15.4632 21.6 15.4712 21.6 15.4792 21.6C15.4871 21.6 15.4951 21.6 15.503 21.6C15.511 21.6 15.519 21.6 15.5269 21.6C15.5349 21.6 15.5428 21.6 15.5508 21.6C15.5587 21.6 15.5667 21.6 15.5746 21.6C15.5825 21.6 15.5905 21.6 15.5984 21.6C15.6063 21.6 15.6143 21.6 15.6222 21.6C15.6301 21.6 15.638 21.6 15.646 21.6C15.6539 21.6 15.6618 21.6 15.6697 21.6C15.6776 21.6 15.6855 21.6 15.6934 21.6C15.7014 21.6 15.7093 21.6 15.7172 21.6C15.7251 21.6 15.7329 21.6 15.7408 21.6C15.7487 21.6 15.7566 21.6 15.7645 21.6C15.7724 21.6 15.7803 21.6 15.7882 21.6C15.796 21.6 15.8039 21.6 15.8118 21.6C15.8197 21.6 15.8275 21.6 15.8354 21.6C15.8433 21.6 15.8511 21.6 15.859 21.6C15.8668 21.6 15.8747 21.6 15.8825 21.6C15.8904 21.6 15.8982 21.6 15.9061 21.6C15.9139 21.6 15.9218 21.6 15.9296 21.6C15.9374 21.6 15.9453 21.6 15.9531 21.6C15.9609 21.6 15.9687 21.6 15.9766 21.6C15.9844 21.6 15.9922 21.6 16 21.6V20.4ZM5 20.4C4.69514 20.4 4.34006 20.2415 4.04926 19.9507C3.75847 19.6599 3.6 19.3049 3.6 19H2.4C2.4 19.6951 2.74153 20.3401 3.20074 20.7993C3.65994 21.2585 4.30486 21.6 5 21.6V20.4Z" fill="#555770"/>
</svg>
