<svg width="24" height="24" viewBox="0 0 24 24" fill="none" xmlns="http://www.w3.org/2000/svg">
<path d="M18 9H18.6V8.4H18V9ZM6 9V8.4H5.4V9H6ZM8 9V9.6H8.6V9H8ZM8 6V5.4H7.4V6H8ZM16 9H15.4V9.6H16V9ZM16 6H16.6V5.4H16V6ZM10.5 2V1.4H9.9V2H10.5ZM13.5 2H14.1V1.4H13.5V2ZM11.1213 12.8787V13.4787H11.3698L11.5456 13.3029L11.1213 12.8787ZM12 12L12.4243 11.5757L12 11.1515L11.5757 11.5757L12 12ZM9.87868 12.8787V12.2787H9.27868V12.8787H9.87868ZM12.8787 12.8787L12.4544 13.3029L12.6302 13.4787H12.8787V12.8787ZM14.1213 12.8787H14.7213V12.2787H14.1213V12.8787ZM14.1213 14.1213H13.5213V14.3698L13.6971 14.5456L14.1213 14.1213ZM15 15L15.4243 15.4243L15.8485 15L15.4243 14.5757L15 15ZM14.1213 15.8787L13.6971 15.4544L13.5213 15.6302V15.8787H14.1213ZM14.1213 17.1213V17.7213H14.7213V17.1213H14.1213ZM12.8787 17.1213V16.5213H12.6301L12.4544 16.6971L12.8787 17.1213ZM12 18L11.5757 18.4243L12 18.8485L12.4243 18.4243L12 18ZM11.1213 17.1213L11.5456 16.6971L11.3699 16.5213H11.1213V17.1213ZM9.87868 17.1213H9.27868V17.7213H9.87868V17.1213ZM9.87868 15.8787H10.4787V15.6302L10.3029 15.4544L9.87868 15.8787ZM9 15L8.57574 14.5757L8.15147 15L8.57574 15.4243L9 15ZM9.87868 14.1213L10.3029 14.5456L10.4787 14.3698V14.1213H9.87868ZM17.4 9V18H18.6V9H17.4ZM14 21.4H10V22.6H14V21.4ZM6.6 18V9H5.4V18H6.6ZM6 9.6H8V8.4H6V9.6ZM8.6 9V6H7.4V9H8.6ZM16 9.6H18V8.4H16V9.6ZM15.4 6V9H16.6V6H15.4ZM8 6.6H10.5V5.4H8V6.6ZM11.1 6V2H9.9V6H11.1ZM10.5 2.6H13.5V1.4H10.5V2.6ZM13.5 6.6H16V5.4H13.5V6.6ZM12.9 2V6H14.1V2H12.9ZM10 21.4C8.12223 21.4 6.6 19.8778 6.6 18H5.4C5.4 20.5405 7.45949 22.6 10 22.6V21.4ZM17.4 18C17.4 19.8778 15.8778 21.4 14 21.4V22.6C16.5405 22.6 18.6 20.5405 18.6 18H17.4ZM11.5456 13.3029L12.4243 12.4243L11.5757 11.5757L10.6971 12.4544L11.5456 13.3029ZM9.87868 13.4787H11.1213V12.2787H9.87868V13.4787ZM12.8787 13.4787H14.1213V12.2787H12.8787V13.4787ZM11.5757 12.4243L12.4544 13.3029L13.3029 12.4544L12.4243 11.5757L11.5757 12.4243ZM13.6971 14.5456L14.5757 15.4243L15.4243 14.5757L14.5456 13.6971L13.6971 14.5456ZM13.5213 12.8787V14.1213H14.7213V12.8787H13.5213ZM13.5213 15.8787V17.1213H14.7213V15.8787H13.5213ZM14.5757 14.5757L13.6971 15.4544L14.5456 16.3029L15.4243 15.4243L14.5757 14.5757ZM12.4544 16.6971L11.5757 17.5757L12.4243 18.4243L13.3029 17.5456L12.4544 16.6971ZM14.1213 16.5213H12.8787V17.7213H14.1213V16.5213ZM11.1213 16.5213H9.87868V17.7213H11.1213V16.5213ZM12.4243 17.5757L11.5456 16.6971L10.6971 17.5456L11.5757 18.4243L12.4243 17.5757ZM10.3029 15.4544L9.42426 14.5757L8.57574 15.4243L9.45442 16.3029L10.3029 15.4544ZM10.4787 17.1213V15.8787H9.27868V17.1213H10.4787ZM10.4787 14.1213V12.8787H9.27868V14.1213H10.4787ZM9.42426 15.4243L10.3029 14.5456L9.45442 13.6971L8.57574 14.5757L9.42426 15.4243ZM10.5 6.6H13.5V5.4H10.5V6.6Z" fill="#555770"/>
</svg>
