<svg width="24" height="24" viewBox="0 0 24 24" fill="none" xmlns="http://www.w3.org/2000/svg">
<path d="M7 12L6.57574 12.4243L6.75147 12.6H7V12ZM2.17929 9.02782L6.57574 13.4243L7.42426 12.5757L3.02782 8.17929L2.17929 9.02782ZM2.67929 8.52782L6.57574 12.4243L7.42426 11.5757L3.52782 7.67929L2.67929 8.52782ZM7 12.6H21.5V11.4H7V12.6ZM6.57574 12.5757L2.57574 16.5757L3.42426 17.4243L7.42426 13.4243L6.57574 12.5757ZM7 13.6H18V12.4H7V13.6ZM18 13.6H21.5V12.4H18V13.6ZM17.5757 13.4243L21.5757 17.4243L22.4243 16.5757L18.4243 12.5757L17.5757 13.4243ZM2.85355 8.6C2.78819 8.6 2.72551 8.57404 2.67929 8.52782L3.52782 7.67929C3.34899 7.50046 3.10645 7.4 2.85355 7.4V8.6ZM21.4 12.5C21.4 12.4448 21.4448 12.4 21.5 12.4V13.6C22.1075 13.6 22.6 13.1075 22.6 12.5H21.4ZM21.5 12.6C21.4448 12.6 21.4 12.5552 21.4 12.5H22.6C22.6 11.8925 22.1075 11.4 21.5 11.4V12.6ZM3.02782 8.17929C3.18307 8.33454 3.07311 8.6 2.85355 8.6V7.4C2.00403 7.4 1.57858 8.42711 2.17929 9.02782L3.02782 8.17929Z" fill="#555770"/>
</svg>
