<svg width="24" height="24" viewBox="0 0 24 24" fill="none" xmlns="http://www.w3.org/2000/svg">
<path d="M14.7716 14.8851L15.1948 15.3104L14.7716 14.8851ZM9.11494 9.22835L8.68957 8.80519L9.11494 9.22835ZM9.59583 9.59583C11.7078 7.48385 13.8208 5.99497 15.5653 5.22578C16.4392 4.84047 17.1909 4.64894 17.7866 4.63013C18.379 4.61143 18.7631 4.76243 19.0004 4.99964L19.8489 4.15111C19.305 3.60727 18.554 3.4053 17.7487 3.43073C16.9467 3.45605 16.0383 3.70574 15.0812 4.12777C13.1636 4.97326 10.9311 6.56352 8.74731 8.74731L9.59583 9.59583ZM19.0004 4.99964C19.2376 5.23685 19.3886 5.62102 19.3699 6.2134C19.3511 6.8091 19.1595 7.56083 18.7742 8.43471C18.005 10.1792 16.5161 12.2922 14.4042 14.4042L15.2527 15.2527C17.4365 13.0689 19.0267 10.8364 19.8722 8.91884C20.2943 7.96169 20.5439 7.05325 20.5693 6.25126C20.5947 5.44597 20.3927 4.69495 19.8489 4.15111L19.0004 4.99964ZM14.4042 9.59583C14.8376 10.0293 15.0763 10.675 15.0622 11.54C15.0481 12.4099 14.7761 13.4642 14.2286 14.63L15.3147 15.1401C15.9097 13.8734 16.2443 12.6491 16.2621 11.5595C16.2799 10.4651 15.9758 9.47038 15.2527 8.74731L14.4042 9.59583ZM14.4042 14.4042C14.3856 14.4227 14.367 14.4412 14.3485 14.4597L15.1948 15.3104C15.2141 15.2912 15.2334 15.272 15.2527 15.2527L14.4042 14.4042ZM14.3485 14.4597C12.2455 16.5518 10.1451 18.0249 8.41182 18.7843C7.54359 19.1647 6.79711 19.3529 6.20564 19.3701C5.61761 19.3872 5.23584 19.2366 4.99964 19.0004L4.15111 19.8489C4.69252 20.3903 5.43938 20.5929 6.24057 20.5696C7.03831 20.5464 7.94164 20.3004 8.89337 19.8834C10.8 19.0481 13.0201 17.4738 15.1948 15.3104L14.3485 14.4597ZM9.37 9.77144C10.5358 9.22389 11.5901 8.95191 12.46 8.93776C13.325 8.92368 13.9707 9.16241 14.4042 9.59583L15.2527 8.74731C14.5296 8.02423 13.5349 7.7201 12.4405 7.73792C11.3509 7.75565 10.1266 8.09032 8.85987 8.68527L9.37 9.77144ZM4.99964 19.0004C4.76344 18.7642 4.61277 18.3824 4.6299 17.7944C4.64712 17.2029 4.83533 16.4564 5.21572 15.5882C5.9751 13.8549 7.44823 11.7545 9.5403 9.65151L8.68957 8.80519C6.52617 10.9799 4.9519 13.2 4.11658 15.1066C3.69961 16.0584 3.45363 16.9617 3.4304 17.7594C3.40708 18.5606 3.6097 19.3075 4.15111 19.8489L4.99964 19.0004ZM9.5403 9.65151C9.55877 9.63295 9.57728 9.61439 9.59583 9.59583L8.74731 8.74731C8.72801 8.7666 8.70877 8.78589 8.68957 8.80519L9.5403 9.65151ZM8.53517 16.1719L7.82807 15.4648L6.97954 16.3133L7.68665 17.0205L8.53517 16.1719ZM8.88873 15.8184L8.18162 15.1113L7.33309 15.9598L8.0402 16.6669L8.88873 15.8184Z" fill="#555770"/>
</svg>
