<svg width="24" height="24" viewBox="0 0 24 24" fill="none" xmlns="http://www.w3.org/2000/svg">
<path d="M12 12L12.5867 11.8743C12.5274 11.5976 12.2829 11.4 12 11.4C11.7171 11.4 11.4726 11.5976 11.4133 11.8743L12 12ZM10.5 19V19.6H10.985L11.0867 19.1257L10.5 19ZM2.5 19L1.91261 18.8776L1.76212 19.6H2.5V19ZM13.5 19L12.9133 19.1257L13.015 19.6H13.5V19ZM21.5 19V19.6H22.2379L22.0874 18.8776L21.5 19ZM11.4133 11.8743L9.91332 18.8743L11.0867 19.1257L12.5867 12.1257L11.4133 11.8743ZM10.5 18.4H2.5V19.6H10.5V18.4ZM3.08739 19.1224L5.58739 7.12237L4.41261 6.87763L1.91261 18.8776L3.08739 19.1224ZM5.6 7V4.6H4.4V7H5.6ZM11.4133 12.1257L12.9133 19.1257L14.0867 18.8743L12.5867 11.8743L11.4133 12.1257ZM13.5 19.6H21.5V18.4H13.5V19.6ZM22.0874 18.8776L19.5874 6.87763L18.4126 7.12237L20.9126 19.1224L22.0874 18.8776ZM19.6 7V4.6H18.4V7H19.6ZM5.1 5.1H18.9V3.9H5.1V5.1ZM5 7.6H19V6.4H5V7.6ZM19.6 4.6C19.6 4.21339 19.2866 3.9 18.9 3.9V5.1C18.6239 5.1 18.4 4.87615 18.4 4.6H19.6ZM5.6 4.6C5.6 4.87614 5.37614 5.1 5.1 5.1V3.9C4.7134 3.9 4.4 4.2134 4.4 4.6H5.6Z" fill="#555770"/>
</svg>
