<svg width="24" height="24" viewBox="0 0 24 24" fill="none" xmlns="http://www.w3.org/2000/svg">
<path d="M17.4 12C17.4 14.9823 14.9823 17.4 12 17.4V18.6C15.6451 18.6 18.6 15.6451 18.6 12H17.4ZM12 17.4C9.01766 17.4 6.6 14.9823 6.6 12H5.4C5.4 15.6451 8.35492 18.6 12 18.6V17.4ZM6.6 12C6.6 9.01766 9.01766 6.6 12 6.6V5.4C8.35492 5.4 5.4 8.35492 5.4 12H6.6ZM12 6.6C14.9823 6.6 17.4 9.01766 17.4 12H18.6C18.6 8.35492 15.6451 5.4 12 5.4V6.6ZM17.5757 4.42427L19.5757 6.42427L20.4243 5.57574L18.4243 3.57574L17.5757 4.42427ZM5.57574 3.57574L3.57574 5.57574L4.42426 6.42427L6.42426 4.42427L5.57574 3.57574ZM3.57574 18.4243L5.57574 20.4243L6.42426 19.5757L4.42426 17.5757L3.57574 18.4243ZM18.4243 20.4243L20.4243 18.4243L19.5757 17.5757L17.5757 19.5757L18.4243 20.4243ZM12 10.6C12.3867 10.6 12.7359 10.756 12.9899 11.01L13.8384 10.1615C13.3686 9.69165 12.7178 9.4 12 9.4V10.6ZM12.9899 11.01C13.2439 11.264 13.4 11.6132 13.4 12H14.6C14.6 11.2822 14.3083 10.6313 13.8384 10.1615L12.9899 11.01ZM18.5757 4.57569L12.9899 10.1615L13.8384 11.01L19.4242 5.42422L18.5757 4.57569ZM10.6 12C10.6 11.6132 10.7561 11.264 11.0101 11.01L10.1616 10.1615C9.6917 10.6313 9.4 11.2822 9.4 12H10.6ZM11.0101 11.01C11.2641 10.756 11.6133 10.6 12 10.6V9.4C11.2822 9.4 10.6314 9.69165 10.1616 10.1615L11.0101 11.01ZM4.57578 5.42422L10.1616 11.01L11.0101 10.1615L5.42431 4.57569L4.57578 5.42422ZM10.1615 12.9899L4.57569 18.5757L5.42422 19.4242L11.01 13.8384L10.1615 12.9899ZM12 13.4C11.6132 13.4 11.264 13.2439 11.01 12.9899L10.1615 13.8384C10.6313 14.3083 11.2822 14.6 12 14.6V13.4ZM11.01 12.9899C10.756 12.7359 10.6 12.3867 10.6 12H9.4C9.4 12.7178 9.69165 13.3686 10.1615 13.8384L11.01 12.9899ZM12.99 13.8384L18.5758 19.4242L19.4243 18.5757L13.8385 12.9899L12.99 13.8384ZM13.4 12C13.4 12.3867 13.244 12.7359 12.99 12.9899L13.8385 13.8384C14.3084 13.3686 14.6 12.7178 14.6 12H13.4ZM12.99 12.9899C12.736 13.2439 12.3868 13.4 12 13.4V14.6C12.7178 14.6 13.3687 14.3083 13.8385 13.8384L12.99 12.9899ZM10.5 2.6H12V1.4H10.5V2.6ZM12 2.6H13.5V1.4H12V2.6ZM12.6 10V2H11.4V10H12.6ZM1.4 10.5V12H2.6V10.5H1.4ZM1.4 12V13.5H2.6V12H1.4ZM10 11.4H2V12.6H10V11.4ZM10.5 22.6H12V21.4H10.5V22.6ZM12 22.6H13.5V21.4H12V22.6ZM11.4 14V22H12.6V14H11.4ZM21.4 10.5V12H22.6V10.5H21.4ZM21.4 12V13.5H22.6V12H21.4ZM14 12.6H22V11.4H14V12.6Z" fill="#555770"/>
</svg>
