<svg width="24" height="24" viewBox="0 0 24 24" fill="none" xmlns="http://www.w3.org/2000/svg">
<path d="M6.75 17L6.12531 16.2191L6.39922 16H6.75V17ZM3.16247 19.87L3.78716 20.6509L3.16247 19.87ZM4 3H20V5H4V3ZM22 5V16H20V5H22ZM2 16V5H4V16H2ZM2 19.7919V16H4V19.7919H2ZM7.37469 17.7809L3.78716 20.6509L2.53778 19.0892L6.12531 16.2191L7.37469 17.7809ZM6.75 16H20V18H6.75V16ZM4 19.7919C4 19.0373 3.12705 18.6177 2.53778 19.0892L3.78716 20.6509C3.06693 21.2271 2 20.7143 2 19.7919H4ZM20 3C21.1046 3 22 3.89543 22 5H20H20V3ZM4 5V5H2C2 3.89543 2.89543 3 4 3V5ZM22 16C22 17.1046 21.1046 18 20 18V16H20H22Z" fill="#28293D"/>
<path d="M8.54268 10.7006L9.31115 10.0607L9.31115 10.0607L8.54268 10.7006ZM12 14L11.3264 14.7391L12 15.353L12.6736 14.7391L12 14ZM15.4573 10.7006L14.6888 10.0607V10.0607L15.4573 10.7006ZM9 9.05878C9 8.44653 9.47482 8 10 8V6C8.31604 6 7 7.39696 7 9.05878H9ZM10 8C10.5252 8 11 8.44653 11 9.05878H13C13 7.39696 11.684 6 10 6V8ZM9.31115 10.0607C9.15077 9.86812 9.08222 9.70668 9.04702 9.57121C9.00869 9.4237 9 9.272 9 9.05878H7C7 9.60752 7.03872 10.4572 7.77421 11.3405L9.31115 10.0607ZM7.77421 11.3405C8.08124 11.7092 9.00669 12.5883 9.78072 13.3117C10.1834 13.6881 10.5696 14.0447 10.855 14.3071C10.9977 14.4384 11.1154 14.5462 11.1974 14.6213C11.2385 14.6588 11.2706 14.6882 11.2925 14.7082C11.3035 14.7182 11.3119 14.7259 11.3176 14.7311C11.3205 14.7337 11.3226 14.7357 11.3241 14.737C11.3248 14.7377 11.3254 14.7382 11.3258 14.7385C11.326 14.7387 11.3261 14.7388 11.3262 14.7389C11.3263 14.739 11.3263 14.739 11.3263 14.739C11.3264 14.7391 11.3264 14.7391 12 14C12.6736 13.2609 12.6736 13.2609 12.6736 13.2609C12.6736 13.2609 12.6735 13.2609 12.6735 13.2608C12.6734 13.2608 12.6733 13.2606 12.6731 13.2605C12.6728 13.2602 12.6723 13.2597 12.6716 13.2591C12.6703 13.2579 12.6682 13.256 12.6655 13.2535C12.66 13.2485 12.6518 13.241 12.6411 13.2312C12.6196 13.2116 12.588 13.1827 12.5475 13.1457C12.4665 13.0716 12.3501 12.9649 12.2087 12.8349C11.9259 12.5748 11.5439 12.2221 11.1463 11.8505C10.3198 11.0781 9.51661 10.3075 9.31115 10.0607L7.77421 11.3405ZM17 9.05878C17 7.39696 15.684 6 14 6V8C14.5252 8 15 8.44653 15 9.05878H17ZM14 6C12.316 6 11 7.39696 11 9.05878H13C13 8.44653 13.4748 8 14 8V6ZM16.2258 11.3405C16.9613 10.4572 17 9.60752 17 9.05878H15C15 9.272 14.9913 9.4237 14.953 9.57121C14.9178 9.70668 14.8492 9.86812 14.6888 10.0607L16.2258 11.3405ZM14.6888 10.0607C14.4834 10.3075 13.6802 11.0781 12.8537 11.8505C12.4561 12.2221 12.0741 12.5748 11.7913 12.8349C11.6499 12.9649 11.5335 13.0716 11.4525 13.1457C11.412 13.1827 11.3804 13.2116 11.3589 13.2312C11.3482 13.241 11.34 13.2485 11.3345 13.2535C11.3318 13.256 11.3297 13.2579 11.3284 13.2591C11.3277 13.2597 11.3272 13.2602 11.3269 13.2605C11.3267 13.2606 11.3266 13.2608 11.3265 13.2608C11.3265 13.2609 11.3264 13.2609 11.3264 13.2609C11.3264 13.2609 11.3264 13.2609 12 14C12.6736 14.7391 12.6736 14.7391 12.6737 14.739C12.6737 14.739 12.6737 14.739 12.6738 14.7389C12.6739 14.7388 12.674 14.7387 12.6742 14.7385C12.6746 14.7382 12.6752 14.7377 12.6759 14.737C12.6774 14.7357 12.6795 14.7337 12.6824 14.7311C12.6881 14.7259 12.6965 14.7182 12.7075 14.7082C12.7294 14.6882 12.7615 14.6588 12.8026 14.6213C12.8846 14.5462 13.0023 14.4384 13.145 14.3071C13.4304 14.0447 13.8166 13.6881 14.2193 13.3117C14.9933 12.5883 15.9188 11.7092 16.2258 11.3405L14.6888 10.0607Z" fill="#28293D"/>
</svg>
