<svg width="24" height="24" viewBox="0 0 24 24" fill="none" xmlns="http://www.w3.org/2000/svg">
<path d="M6 22L18 22L18 20L6 20L6 22ZM20 20L20 4L18 4L18 20L20 20ZM4 4L4 20L6 20L6 4L4 4ZM18 2L6 2L6 4L18 4L18 2ZM20 4C20 2.89543 19.1046 2 18 2L18 4L18 4L20 4ZM18 22C19.1046 22 20 21.1046 20 20L18 20L18 20L18 22ZM6 20L6 20L4 20C4 21.1046 4.89543 22 6 22L6 20ZM6 4L6 4L6 2C4.89543 2 4 2.89543 4 4L6 4Z" fill="#28293D"/>
<path d="M8.54268 12.7006L9.31115 12.0607L9.31115 12.0607L8.54268 12.7006ZM12 16L11.3264 16.7391L12 17.353L12.6736 16.7391L12 16ZM15.4573 12.7006L14.6888 12.0607V12.0607L15.4573 12.7006ZM9 11.0588C9 10.4465 9.47482 10 10 10V8C8.31604 8 7 9.39696 7 11.0588H9ZM10 10C10.5252 10 11 10.4465 11 11.0588H13C13 9.39696 11.684 8 10 8V10ZM9.31115 12.0607C9.15077 11.8681 9.08222 11.7067 9.04702 11.5712C9.00869 11.4237 9 11.272 9 11.0588H7C7 11.6075 7.03872 12.4572 7.77421 13.3405L9.31115 12.0607ZM7.77421 13.3405C8.08124 13.7092 9.00669 14.5883 9.78072 15.3117C10.1834 15.6881 10.5696 16.0447 10.855 16.3071C10.9977 16.4384 11.1154 16.5462 11.1974 16.6213C11.2385 16.6588 11.2706 16.6882 11.2925 16.7082C11.3035 16.7182 11.3119 16.7259 11.3176 16.7311C11.3205 16.7337 11.3226 16.7357 11.3241 16.737C11.3248 16.7377 11.3254 16.7382 11.3258 16.7385C11.326 16.7387 11.3261 16.7388 11.3262 16.7389C11.3263 16.739 11.3263 16.739 11.3263 16.739C11.3264 16.7391 11.3264 16.7391 12 16C12.6736 15.2609 12.6736 15.2609 12.6736 15.2609C12.6736 15.2609 12.6735 15.2609 12.6735 15.2608C12.6734 15.2608 12.6733 15.2606 12.6731 15.2605C12.6728 15.2602 12.6723 15.2597 12.6716 15.2591C12.6703 15.2579 12.6682 15.256 12.6655 15.2535C12.66 15.2485 12.6518 15.241 12.6411 15.2312C12.6196 15.2116 12.588 15.1827 12.5475 15.1457C12.4665 15.0716 12.3501 14.9649 12.2087 14.8349C11.9259 14.5748 11.5439 14.2221 11.1463 13.8505C10.3198 13.0781 9.51661 12.3075 9.31115 12.0607L7.77421 13.3405ZM17 11.0588C17 9.39696 15.684 8 14 8V10C14.5252 10 15 10.4465 15 11.0588H17ZM14 8C12.316 8 11 9.39696 11 11.0588H13C13 10.4465 13.4748 10 14 10V8ZM16.2258 13.3405C16.9613 12.4572 17 11.6075 17 11.0588H15C15 11.272 14.9913 11.4237 14.953 11.5712C14.9178 11.7067 14.8492 11.8681 14.6888 12.0607L16.2258 13.3405ZM14.6888 12.0607C14.4834 12.3075 13.6802 13.0781 12.8537 13.8505C12.4561 14.2221 12.0741 14.5748 11.7913 14.8349C11.6499 14.9649 11.5335 15.0716 11.4525 15.1457C11.412 15.1827 11.3804 15.2116 11.3589 15.2312C11.3482 15.241 11.34 15.2485 11.3345 15.2535C11.3318 15.256 11.3297 15.2579 11.3284 15.2591C11.3277 15.2597 11.3272 15.2602 11.3269 15.2605C11.3267 15.2606 11.3266 15.2608 11.3265 15.2608C11.3265 15.2609 11.3264 15.2609 11.3264 15.2609C11.3264 15.2609 11.3264 15.2609 12 16C12.6736 16.7391 12.6736 16.7391 12.6737 16.739C12.6737 16.739 12.6737 16.739 12.6738 16.7389C12.6739 16.7388 12.674 16.7387 12.6742 16.7385C12.6746 16.7382 12.6752 16.7377 12.6759 16.737C12.6774 16.7357 12.6795 16.7337 12.6824 16.7311C12.6881 16.7259 12.6965 16.7182 12.7075 16.7082C12.7294 16.6882 12.7615 16.6588 12.8026 16.6213C12.8846 16.5462 13.0023 16.4384 13.145 16.3071C13.4304 16.0447 13.8166 15.6881 14.2193 15.3117C14.9933 14.5883 15.9188 13.7092 16.2258 13.3405L14.6888 12.0607Z" fill="#28293D"/>
</svg>
