<svg width="24" height="24" viewBox="0 0 24 24" fill="none" xmlns="http://www.w3.org/2000/svg">
<path d="M3.35671 12.9874L4.11596 12.3366L3.35671 12.9874ZM12 21.0004L11.3371 21.7491L12 22.336L12.6629 21.7491L12 21.0004ZM20.6433 12.9874L19.884 12.3366L20.6433 12.9874ZM3 9C3 6.79086 4.79086 5 7 5V3C3.68629 3 1 5.68629 1 9H3ZM7 5C9.20914 5 11 6.79086 11 9H13C13 5.68629 10.3137 3 7 3V5ZM4.11596 12.3366C3.06517 11.1107 3 10.0354 3 9H1C1 10.2158 1.08579 11.8746 2.59745 13.6382L4.11596 12.3366ZM2.59745 13.6382C3.2898 14.4459 5.51268 16.5027 7.48662 18.2948C8.48957 19.2054 9.45198 20.0687 10.1635 20.7043C10.5193 21.0222 10.8125 21.2832 11.0168 21.4648C11.119 21.5556 11.199 21.6266 11.2534 21.6749C11.2807 21.6991 11.3015 21.7176 11.3156 21.73C11.3227 21.7363 11.328 21.741 11.3316 21.7442C11.3334 21.7458 11.3348 21.747 11.3357 21.7478C11.3361 21.7482 11.3365 21.7485 11.3367 21.7487C11.3368 21.7489 11.3369 21.7489 11.337 21.749C11.3371 21.749 11.3371 21.7491 12 21.0004C12.6629 20.2517 12.6629 20.2516 12.6628 20.2516C12.6628 20.2515 12.6627 20.2515 12.6626 20.2514C12.6624 20.2512 12.6621 20.2509 12.6616 20.2505C12.6608 20.2498 12.6595 20.2486 12.6577 20.2471C12.6542 20.244 12.649 20.2393 12.6421 20.2332C12.6282 20.2209 12.6076 20.2026 12.5806 20.1787C12.5266 20.1308 12.4471 20.0603 12.3455 19.9699C12.1422 19.7893 11.8503 19.5294 11.4959 19.2128C10.7869 18.5795 9.82873 17.7199 8.831 16.814C6.80361 14.9734 4.70484 13.0236 4.11596 12.3366L2.59745 13.6382ZM23 9C23 5.68629 20.3137 3 17 3V5C19.2091 5 21 6.79086 21 9H23ZM17 3C13.6863 3 11 5.68629 11 9H13C13 6.79086 14.7909 5 17 5V3ZM21.4025 13.6382C22.9142 11.8746 23 10.2158 23 9H21C21 10.0354 20.9348 11.1107 19.884 12.3366L21.4025 13.6382ZM19.884 12.3366C19.2952 13.0236 17.1964 14.9734 15.169 16.814C14.1713 17.7199 13.2131 18.5795 12.5041 19.2128C12.1497 19.5294 11.8578 19.7893 11.6545 19.9699C11.5529 20.0603 11.4734 20.1308 11.4194 20.1787C11.3924 20.2026 11.3718 20.2209 11.3579 20.2332C11.351 20.2393 11.3458 20.244 11.3423 20.2471C11.3405 20.2486 11.3392 20.2498 11.3384 20.2505C11.3379 20.2509 11.3376 20.2512 11.3374 20.2514C11.3373 20.2515 11.3372 20.2515 11.3372 20.2516C11.3371 20.2516 11.3371 20.2517 12 21.0004C12.6629 21.7491 12.6629 21.749 12.663 21.749C12.6631 21.7489 12.6632 21.7489 12.6633 21.7487C12.6635 21.7485 12.6639 21.7482 12.6643 21.7478C12.6652 21.747 12.6666 21.7458 12.6684 21.7442C12.672 21.741 12.6773 21.7363 12.6844 21.73C12.6985 21.7176 12.7193 21.6991 12.7466 21.6749C12.801 21.6266 12.881 21.5556 12.9832 21.4648C13.1875 21.2832 13.4807 21.0222 13.8365 20.7043C14.548 20.0687 15.5104 19.2054 16.5134 18.2948C18.4873 16.5027 20.7102 14.4459 21.4025 13.6382L19.884 12.3366Z" fill="#28293D"/>
</svg>
