<svg width="24" height="24" viewBox="0 0 24 24" fill="none" xmlns="http://www.w3.org/2000/svg">
<mask id="mask0_402_12776" style="mask-type:alpha" maskUnits="userSpaceOnUse" x="3" y="12" width="12" height="10">
<path d="M3 12H9V18H15V22H3V12Z" fill="white"/>
</mask>
<g mask="url(#mask0_402_12776)">
<circle cx="10" cy="17" r="4.4" stroke="#555770" stroke-width="1.2"/>
</g>
<mask id="path-3-inside-1_402_12776" fill="white">
<path d="M14 4C14 5.10457 13.1046 6 12 6C10.8954 6 10 5.10457 10 4C10 2.89543 10.8954 2 12 2C13.1046 2 14 2.89543 14 4Z"/>
<path d="M12 7C10.8954 7 10 7.89543 10 9V15C10 16.1046 10.8954 17 12 17H17V22H19V16.6156C19 15.511 18.1046 14.6156 17 14.6156H14V11C14 11 14.918 11.8738 16 12.3429C17.082 12.8119 18.3267 13 19 13V11C19 11 17.4759 11.1363 16 10.0781C14.5241 9.01998 13.9852 8.03205 13.5547 7.65625C13.1242 7.28045 12.5072 7 12 7Z"/>
</mask>
<path d="M14 4C14 5.10457 13.1046 6 12 6C10.8954 6 10 5.10457 10 4C10 2.89543 10.8954 2 12 2C13.1046 2 14 2.89543 14 4Z" fill="black"/>
<path d="M12 7C10.8954 7 10 7.89543 10 9V15C10 16.1046 10.8954 17 12 17H17V22H19V16.6156C19 15.511 18.1046 14.6156 17 14.6156H14V11C14 11 14.918 11.8738 16 12.3429C17.082 12.8119 18.3267 13 19 13V11C19 11 17.4759 11.1363 16 10.0781C14.5241 9.01998 13.9852 8.03205 13.5547 7.65625C13.1242 7.28045 12.5072 7 12 7Z" fill="black"/>
<path d="M17 17H18.2V15.8H17V17ZM14 14.6156H12.8V15.8156H14V14.6156ZM14 11L14.8274 10.1308L12.8 8.20098V11H14ZM19 13V14.2H20.2V13H19ZM19 11H20.2V9.68792L18.8931 9.80477L19 11ZM17 22H15.8V23.2H17V22ZM19 22V23.2H20.2V22H19ZM12.8 4C12.8 4.44183 12.4418 4.8 12 4.8V7.2C13.7673 7.2 15.2 5.76731 15.2 4H12.8ZM12 4.8C11.5582 4.8 11.2 4.44183 11.2 4H8.8C8.8 5.76731 10.2327 7.2 12 7.2V4.8ZM11.2 4C11.2 3.55817 11.5582 3.2 12 3.2V0.8C10.2327 0.8 8.8 2.23269 8.8 4H11.2ZM12 3.2C12.4418 3.2 12.8 3.55817 12.8 4H15.2C15.2 2.23269 13.7673 0.8 12 0.8V3.2ZM11.2 9C11.2 8.55817 11.5582 8.2 12 8.2V5.8C10.2327 5.8 8.8 7.23269 8.8 9H11.2ZM12 15.8C11.5582 15.8 11.2 15.4418 11.2 15H8.8C8.8 16.7673 10.2327 18.2 12 18.2V15.8ZM17 15.8156C17.4418 15.8156 17.8 16.1737 17.8 16.6156H20.2C20.2 14.8482 18.7673 13.4156 17 13.4156V15.8156ZM8.8 9V15H11.2V9H8.8ZM17 13.4156H14V15.8156H17V13.4156ZM15.2 14.6156V11H12.8V14.6156H15.2ZM20.2 13V11H17.8V13H20.2ZM12 8.2C12.1397 8.2 12.4873 8.31742 12.7656 8.56028L14.3438 6.75222C13.761 6.24348 12.8747 5.8 12 5.8V8.2ZM12 18.2H17V15.8H12V18.2ZM15.8 17V22H18.2V17H15.8ZM17 23.2H19V20.8H17V23.2ZM20.2 22V16.6156H17.8V22H20.2ZM19 11C18.8931 9.80477 18.8936 9.80473 18.894 9.80469C18.8942 9.80468 18.8946 9.80464 18.8949 9.80461C18.8954 9.80456 18.896 9.80452 18.8965 9.80447C18.8975 9.80438 18.8985 9.8043 18.8993 9.80423C18.901 9.80409 18.9024 9.80398 18.9034 9.8039C18.9055 9.80374 18.9062 9.8037 18.9056 9.80374C18.9045 9.80381 18.8981 9.8042 18.887 9.80462C18.8646 9.80545 18.8233 9.80636 18.766 9.80507C18.6507 9.80246 18.4744 9.791 18.2588 9.75356C17.8257 9.67835 17.2567 9.50255 16.6992 9.10287L15.3008 11.0534C16.2192 11.7118 17.1502 11.997 17.8482 12.1182C18.1981 12.1789 18.495 12.1995 18.7116 12.2045C18.8202 12.2069 18.9096 12.2054 18.9763 12.203C19.0097 12.2017 19.0375 12.2002 19.0594 12.1988C19.0703 12.1981 19.0798 12.1974 19.0877 12.1968C19.0917 12.1965 19.0953 12.1962 19.0985 12.196C19.1001 12.1958 19.1016 12.1957 19.103 12.1956C19.1037 12.1955 19.1043 12.1955 19.105 12.1954C19.1053 12.1954 19.1058 12.1953 19.1059 12.1953C19.1064 12.1953 19.1069 12.1952 19 11ZM16.6992 9.10287C16.0536 8.64001 15.6168 8.19637 15.2883 7.82101C15.1163 7.62439 14.983 7.45767 14.8352 7.27914C14.7066 7.12381 14.5348 6.91893 14.3438 6.75222L12.7656 8.56028C12.7898 8.58147 12.8469 8.641 12.9865 8.80967C13.107 8.95514 13.2814 9.172 13.4823 9.4016C13.8999 9.8787 14.4705 10.4581 15.3008 11.0534L16.6992 9.10287ZM14 11C13.1726 11.8692 13.1728 11.8693 13.1729 11.8694C13.173 11.8695 13.1731 11.8696 13.1732 11.8697C13.1734 11.8699 13.1737 11.8701 13.1739 11.8704C13.1744 11.8708 13.1749 11.8713 13.1755 11.8719C13.1767 11.873 13.1781 11.8744 13.1797 11.8759C13.183 11.879 13.1872 11.8829 13.1923 11.8876C13.2024 11.8971 13.2161 11.9097 13.2331 11.9253C13.2671 11.9563 13.3147 11.999 13.3744 12.0506C13.4933 12.1537 13.662 12.2944 13.8683 12.4511C14.2726 12.7582 14.8588 13.1561 15.5227 13.4439L16.4773 11.2419C16.0592 11.0607 15.6454 10.7871 15.3202 10.54C15.1617 10.4197 15.0333 10.3125 14.9463 10.2371C14.903 10.1995 14.8704 10.1703 14.85 10.1517C14.8398 10.1424 14.8327 10.1358 14.8289 10.1322C14.827 10.1304 14.8258 10.1294 14.8256 10.1291C14.8255 10.129 14.8255 10.1291 14.8258 10.1294C14.826 10.1295 14.8262 10.1297 14.8264 10.1299C14.8266 10.1301 14.8267 10.1302 14.8269 10.1303C14.8269 10.1304 14.8271 10.1305 14.8271 10.1306C14.8272 10.1307 14.8274 10.1308 14 11ZM15.5227 13.4439C16.7671 13.9833 18.1758 14.2 19 14.2V11.8C18.4776 11.8 17.3969 11.6405 16.4773 11.2419L15.5227 13.4439Z" fill="#555770" mask="url(#path-3-inside-1_402_12776)"/>
</svg>
