<svg width="24" height="24" viewBox="0 0 24 24" fill="none" xmlns="http://www.w3.org/2000/svg">
<path d="M22 11H22.6V10.4H22V11ZM2 11V10.4H1.4V11H2ZM21.4 11C21.4 16.1915 17.1915 20.4 12 20.4V21.6C17.8542 21.6 22.6 16.8542 22.6 11H21.4ZM12 20.4C6.80852 20.4 2.6 16.1915 2.6 11H1.4C1.4 16.8542 6.14578 21.6 12 21.6V20.4ZM7 21.6H12V20.4H7V21.6ZM12 21.6H17V20.4H12V21.6ZM7 10.4H2V11.6H7V10.4ZM7.56921 10.8103L4.56921 1.81026L3.43079 2.18974L6.43079 11.1897L7.56921 10.8103ZM22 10.4H10V11.6H22V10.4ZM10 10.4H7V11.6H10V10.4ZM10.5967 10.9372L9.5967 1.43719L8.4033 1.56281L9.4033 11.0628L10.5967 10.9372ZM12.9 15.5C12.9 15.9971 12.4971 16.4 12 16.4V17.6C13.1598 17.6 14.1 16.6598 14.1 15.5H12.9ZM12 16.4C11.5029 16.4 11.1 15.9971 11.1 15.5H9.9C9.9 16.6598 10.8402 17.6 12 17.6V16.4ZM11.1 15.5C11.1 15.0029 11.5029 14.6 12 14.6V13.4C10.8402 13.4 9.9 14.3402 9.9 15.5H11.1ZM12 14.6C12.4971 14.6 12.9 15.0029 12.9 15.5H14.1C14.1 14.3402 13.1598 13.4 12 13.4V14.6Z" fill="#555770"/>
</svg>
