<svg width="24" height="24" viewBox="0 0 24 24" fill="none" xmlns="http://www.w3.org/2000/svg">
<path d="M4.8947 8.60287V8.00287H4.2947V8.60287H4.8947ZM14.6745 8.60287V8.00287H14.0669L14.0745 8.61039L14.6745 8.60287ZM9.45833 7.34094C9.64663 7.06826 9.57822 6.69457 9.30555 6.50628C9.03287 6.31798 8.65918 6.38639 8.47089 6.65906L9.45833 7.34094ZM14.6745 5.20129L14.0786 5.27162C14.104 5.48687 14.2436 5.67168 14.4436 5.75508C14.6437 5.83849 14.8731 5.80752 15.0439 5.67407L14.6745 5.20129ZM7.63566 4.6441L7.20346 5.06027C7.3527 5.21526 7.57351 5.27847 7.78216 5.22594C7.99082 5.1734 8.15537 5.01315 8.21341 4.80597L7.63566 4.6441ZM9.3 11.045L8.86935 11.4628L8.86935 11.4628L9.3 11.045ZM12.9 11.6991L12.641 11.1579L12.9 11.6991ZM13.2918 11.4737L12.954 10.9778L12.954 10.9778L13.2918 11.4737ZM8.96461 10.6364L9.45833 10.2954L8.96461 10.6364ZM15.3158 21.4H6.78944V22.6H15.3158V21.4ZM17.4 11.645H18.3474V10.445H17.4V11.645ZM20.4 14V16H21.6V14H20.4ZM16.8 11.045V19H18V11.045H16.8ZM16.8 19V20.0861H18V19H16.8ZM18.3474 18.4H17.4V19.6H18.3474V18.4ZM20.4 16C20.4 17.352 19.4956 18.4 18.3474 18.4V19.6C20.3384 19.6 21.6 17.8191 21.6 16H20.4ZM18.3474 11.645C19.5062 11.645 20.4 12.6604 20.4 14H21.6C21.6 12.1686 20.3278 10.445 18.3474 10.445V11.645ZM6.78944 21.4C6.08005 21.4 5.4947 20.8175 5.4947 20.0861H4.2947C4.2947 21.4688 5.40596 22.6 6.78944 22.6V21.4ZM15.3158 22.6C15.9978 22.6 16.6578 22.3237 17.1486 21.8882C17.641 21.4512 18 20.8183 18 20.0861H16.8C16.8 20.411 16.6401 20.735 16.352 20.9907C16.0622 21.2479 15.6802 21.4 15.3158 21.4V22.6ZM3.6 6.54546C3.6 5.3649 4.54587 4.41818 5.7 4.41818V3.21818C3.87179 3.21818 2.4 4.71355 2.4 6.54546H3.6ZM16.05 5.32727C16.9556 5.32727 17.7 6.07048 17.7 7H18.9C18.9 5.41914 17.6297 4.12727 16.05 4.12727V5.32727ZM15.0439 5.67407C15.3229 5.45607 15.671 5.32727 16.05 5.32727V4.12727C15.3929 4.12727 14.7867 4.35215 14.3051 4.7285L15.0439 5.67407ZM11.1 2.6C12.63 2.6 13.9005 3.76217 14.0786 5.27162L15.2704 5.13095C15.0228 3.03402 13.2549 1.4 11.1 1.4V2.6ZM5.7 4.41818C6.28852 4.41818 6.82065 4.66272 7.20346 5.06027L8.06787 4.22793C7.46957 3.60658 6.62977 3.21818 5.7 3.21818V4.41818ZM8.21341 4.80597C8.57127 3.5287 9.73193 2.6 11.1 2.6V1.4C9.17275 1.4 7.55514 2.70747 7.05791 4.48223L8.21341 4.80597ZM17.7 7C17.7 7.35767 17.6424 7.58803 17.5624 7.7356C17.4914 7.8664 17.3844 7.96809 17.1898 8.0409L17.6102 9.16483C18.0551 8.99842 18.3981 8.71185 18.6173 8.30761C18.8274 7.92014 18.9 7.46867 18.9 7H17.7ZM16.8 8.60287V11.045H18V8.60287H16.8ZM9 8.81818C9 8.75904 9.00195 8.70046 9.00579 8.64247L7.80841 8.56326C7.80283 8.64759 7.8 8.7326 7.8 8.81818H9ZM9.00579 8.64247C9.03772 8.15978 9.20044 7.71439 9.45833 7.34094L8.47089 6.65906C8.09318 7.20603 7.85501 7.85873 7.80841 8.56326L9.00579 8.64247ZM4.8947 9.20287H8.4071V8.00287H4.8947V9.20287ZM14.6745 9.20287H17.4V8.00287H14.6745V9.20287ZM5.07508 8.57712C4.22308 8.30855 3.6 7.5024 3.6 6.54546H2.4C2.4 8.03436 3.37064 9.29806 4.71432 9.7216L5.07508 8.57712ZM5.4947 20.0861V9.14936H4.2947V20.0861H5.4947ZM5.4947 9.14936V8.60287H4.2947V9.14936H5.4947ZM11.55 11.4C10.8384 11.4 10.1947 11.1056 9.73065 10.6272L8.86935 11.4628C9.54875 12.1631 10.4988 12.6 11.55 12.6V11.4ZM12.641 11.1579C12.3147 11.3141 11.9455 11.4 11.55 11.4V12.6C12.1212 12.6 12.6678 12.4754 13.159 12.2403L12.641 11.1579ZM14.0745 8.61039C14.0883 9.70589 13.6204 10.5239 12.954 10.9778L13.6296 11.9696C14.655 11.2712 15.2928 10.0599 15.2745 8.59534L14.0745 8.61039ZM12.954 10.9778C12.8546 11.0455 12.75 11.1057 12.641 11.1579L13.159 12.2403C13.3227 12.162 13.4799 12.0715 13.6296 11.9696L12.954 10.9778ZM12.6918 11.4737V18.3636H13.8918V11.4737H12.6918ZM9.73065 10.6272C9.63111 10.5246 9.53996 10.4136 9.45833 10.2954L8.47089 10.9773C8.5903 11.1502 8.72366 11.3126 8.86935 11.4628L9.73065 10.6272ZM9.45833 10.2954C9.16965 9.87738 9 9.36894 9 8.81818H7.8C7.8 9.61947 8.04778 10.3646 8.47089 10.9773L9.45833 10.2954ZM8.36461 10.6364V18.3636H9.56461V10.6364H8.36461Z" fill="#555770"/>
</svg>
