<svg width="24" height="24" viewBox="0 0 24 24" fill="none" xmlns="http://www.w3.org/2000/svg">
<path d="M21.1402 7.61539L20.7159 7.19112L20.7159 7.19112L21.1402 7.61539ZM7.61544 21.1402L8.0397 21.5644L8.0397 21.5644L7.61544 21.1402ZM11.0266 4.76341L10.7079 4.25505L11.0266 4.76341ZM17.3277 2.34127L17.4381 2.93103L17.3277 2.34127ZM20.7159 7.19112L7.19117 20.7159L8.0397 21.5644L21.5645 8.03965L20.7159 7.19112ZM20.6785 3.84687C21.0185 4.25661 21.263 4.88044 21.2932 5.52629C21.3232 6.16583 21.1423 6.76478 20.7159 7.19112L21.5645 8.03965C22.2846 7.31954 22.5336 6.36079 22.4919 5.47018C22.4505 4.58587 22.1218 3.70709 21.6019 3.08057L20.6785 3.84687ZM3.08066 21.6019C3.70721 22.1217 4.58596 22.4504 5.47025 22.4919C6.36085 22.5336 7.31959 22.2845 8.0397 21.5644L7.19117 20.7159C6.76484 21.1422 6.16592 21.3231 5.52638 21.2932C4.88055 21.2629 4.25669 21.0184 3.84688 20.6784L3.08066 21.6019ZM5.65393 10.3074C7.59837 8.36295 10.4479 8.58466 12.3078 10.4446L13.1563 9.5961C10.8918 7.33156 7.28006 6.98419 4.8054 9.45886L5.65393 10.3074ZM3.5705 13.5563C5.10993 13.0919 6.78756 13.5282 8.06141 14.802L8.90994 13.9535C7.35073 12.3943 5.22231 11.8045 3.2239 12.4074L3.5705 13.5563ZM3.00082 16.5308C3.24843 15.3007 3.57178 14.0917 3.9481 13.2196L2.8463 12.7442C2.42097 13.7298 2.07806 15.0339 1.82442 16.2939L3.00082 16.5308ZM3.9481 13.2196C5.22642 10.2571 8.32288 7.16661 11.3453 5.27176L10.7079 4.25505C7.55779 6.22994 4.25208 9.48629 2.8463 12.7442L3.9481 13.2196ZM11.3453 5.27176C13.3804 3.99584 15.2895 3.33329 17.4381 2.93103L17.2172 1.75152C14.9432 2.17728 12.8884 2.88799 10.7079 4.25505L11.3453 5.27176ZM11.1543 5.34966C12.8432 4.98179 14.7764 5.62474 16.0759 6.92425L16.9244 6.07572C15.3727 4.52401 13.035 3.71186 10.8989 4.17715L11.1543 5.34966ZM21.6019 3.08057C20.5012 1.75409 18.7525 1.46407 17.2172 1.75152L17.4381 2.93103C18.716 2.69176 19.9515 2.97084 20.6785 3.84687L21.6019 3.08057ZM3.84688 20.6784C2.79424 19.805 2.66724 18.188 3.00082 16.5308L1.82442 16.2939C1.4767 18.0214 1.47619 20.2707 3.08066 21.6019L3.84688 20.6784Z" fill="#555770"/>
</svg>
