<svg width="24" height="24" viewBox="0 0 24 24" fill="none" xmlns="http://www.w3.org/2000/svg">
<path d="M10 5L10.2308 4.44615L10.0046 4.35193L9.77717 4.44291L10 5ZM2 8.2L1.77717 7.64291L1.4 7.79378V8.2H2ZM22 10H22.6V9.6L22.2308 9.44615L22 10ZM2 17.2H1.4V17.7484L1.94622 17.7976L2 17.2ZM22 19L21.9462 19.5976L22.6 19.6564V19H22ZM9.77717 4.44291L1.77717 7.64291L2.22283 8.75709L10.2228 5.55709L9.77717 4.44291ZM1.94622 8.79758L21.9462 10.5976L22.0538 9.40242L2.05378 7.60242L1.94622 8.79758ZM22.2308 9.44615L10.2308 4.44615L9.76923 5.55385L21.7692 10.5538L22.2308 9.44615ZM1.94622 12.9976L21.9462 14.7976L22.0538 13.6024L2.05378 11.8024L1.94622 12.9976ZM1.94622 17.7976L21.9462 19.5976L22.0538 18.4024L2.05378 16.6024L1.94622 17.7976ZM21.4 10V14.2H22.6V10H21.4ZM21.4 14.2V19H22.6V14.2H21.4ZM1.4 8.2V12.4H2.6V8.2H1.4ZM1.4 12.4V17.2H2.6V12.4H1.4Z" fill="#555770"/>
</svg>
