<svg width="24" height="24" viewBox="0 0 24 24" fill="none" xmlns="http://www.w3.org/2000/svg">
<path d="M16.6061 8.27876L16.4508 7.6992L16.6061 8.27876ZM11 6.67507L10.4153 6.54037L10.3438 6.85091L10.561 7.08407L11 6.67507ZM15.0532 2.4832L14.8979 1.90365L15.0532 2.4832ZM20.6593 4.08688L21.2439 4.22159L21.3155 3.91105L21.0983 3.67788L20.6593 4.08688ZM8.4 17.5C8.4 19.1016 7.10163 20.4 5.5 20.4V21.6C7.76437 21.6 9.6 19.7643 9.6 17.5H8.4ZM5.5 20.4C3.89837 20.4 2.6 19.1016 2.6 17.5H1.4C1.4 19.7643 3.23563 21.6 5.5 21.6V20.4ZM2.6 17.5C2.6 15.8983 3.89837 14.6 5.5 14.6V13.4C3.23563 13.4 1.4 15.2356 1.4 17.5H2.6ZM5.5 14.6C7.10163 14.6 8.4 15.8983 8.4 17.5H9.6C9.6 15.2356 7.76437 13.4 5.5 13.4V14.6ZM21.4 17.5C21.4 19.1016 20.1016 20.4 18.5 20.4V21.6C20.7644 21.6 22.6 19.7643 22.6 17.5H21.4ZM18.5 20.4C16.8984 20.4 15.6 19.1016 15.6 17.5H14.4C14.4 19.7643 16.2356 21.6 18.5 21.6V20.4ZM15.6 17.5C15.6 15.8983 16.8984 14.6 18.5 14.6V13.4C16.2356 13.4 14.4 15.2356 14.4 17.5H15.6ZM18.5 14.6C20.1016 14.6 21.4 15.8983 21.4 17.5H22.6C22.6 15.2356 20.7644 13.4 18.5 13.4V14.6ZM6.1 14C6.1 12.2315 7.37358 9.0818 10.8986 5.94843L10.1014 5.05154C6.42642 8.31817 4.9 11.7684 4.9 14H6.1ZM9.93495 5.70178C10.8133 8.16123 13.2757 12.0587 18.2317 14.5366L18.7683 13.4633C14.1243 11.1413 11.8533 7.5054 11.065 5.29818L9.93495 5.70178ZM11.1 5.49998V2.99998H9.9V5.49998H11.1ZM16.4508 7.6992C14.5776 8.20112 12.6701 7.58746 11.439 6.26607L10.561 7.08407C12.0841 8.71892 14.4447 9.47908 16.7614 8.85831L16.4508 7.6992ZM11.5847 6.80978C11.9902 5.04987 13.3353 3.56467 15.2085 3.06276L14.8979 1.90365C12.5812 2.52441 10.917 4.36298 10.4153 6.54037L11.5847 6.80978ZM20.0746 3.95218C19.6691 5.71209 18.324 7.19729 16.4508 7.6992L16.7614 8.85831C19.0781 8.23755 20.7423 6.39897 21.2439 4.22159L20.0746 3.95218ZM15.2085 3.06276C17.0816 2.56084 18.9892 3.17449 20.2203 4.49588L21.0983 3.67788C19.5751 2.04304 17.2146 1.28288 14.8979 1.90365L15.2085 3.06276Z" fill="#555770"/>
</svg>
