<svg width="24" height="24" viewBox="0 0 24 24" fill="none" xmlns="http://www.w3.org/2000/svg">
<path d="M5.15145 16.5803L4.73692 16.1465L4.73692 16.1465L5.15145 16.5803ZM4.40636 19.7004H5.00636V19.1004H4.40636V19.7004ZM7.67145 18.9884L7.25692 18.5546L7.25692 18.5546L7.67145 18.9884ZM8.5 10.5L9.07486 10.6719L9.07486 10.6719L8.5 10.5ZM15.4312 3.3134L15.6403 3.87582L15.4312 3.3134ZM21.7525 9.06429L21.1859 8.86668L21.1859 8.86668L21.7525 9.06429ZM14 16L14.1482 16.5814L14.1482 16.5814L14 16ZM20.5878 4.34956L21.0023 3.91578L21.0023 3.91578L20.5878 4.34956ZM3.44382 19.1004C2.95183 19.1004 2.6 18.726 2.6 18.3207H1.4C1.4 19.4395 2.34101 20.3004 3.44382 20.3004V19.1004ZM2.6 18.3207C2.6 17.9154 2.95183 17.541 3.44382 17.541V16.341C2.34101 16.341 1.4 17.2019 1.4 18.3207H2.6ZM6.694 20.6203C6.694 21.0255 6.34217 21.4 5.85018 21.4V22.6C6.95299 22.6 7.894 21.739 7.894 20.6203H6.694ZM5.85018 21.4C5.35819 21.4 5.00636 21.0255 5.00636 20.6203H3.80636C3.80636 21.739 4.74737 22.6 5.85018 22.6V21.4ZM5.56598 17.0141L8.55744 14.1554L7.72838 13.2878L4.73692 16.1465L5.56598 17.0141ZM3.44382 20.3004H4.40636V19.1004H3.44382V20.3004ZM3.80636 19.7004V20.6203H5.00636V19.7004H3.80636ZM8.08598 19.4222L11.0774 16.5635L10.2484 15.696L7.25692 18.5546L8.08598 19.4222ZM7.72838 14.1554L10.2484 16.5635L11.0774 15.696L8.55744 13.2878L7.72838 14.1554ZM13.8518 15.4186C12.6834 15.7163 11.9471 15.7542 10.7706 15.5395L10.5552 16.72C11.9128 16.9677 12.8238 16.9189 14.1482 16.5814L13.8518 15.4186ZM21.1859 8.86668C20.8186 9.91989 19.6194 11.4058 18.1236 12.7422C16.6313 14.0755 14.9914 15.1282 13.8518 15.4186L14.1482 16.5814C15.5739 16.2181 17.3905 15.0064 18.9231 13.637C20.4524 12.2707 21.8468 10.6156 22.319 9.2619L21.1859 8.86668ZM20.1732 4.78334C21.2986 5.85874 21.6841 7.43852 21.1859 8.86668L22.319 9.2619C22.9758 7.37898 22.4595 5.3083 21.0023 3.91578L20.1732 4.78334ZM9.07486 10.6719C9.37921 9.65391 10.4361 8.16266 11.7732 6.78073C13.1066 5.40257 14.5896 4.26628 15.6403 3.87582L15.2222 2.75098C13.9148 3.23686 12.2797 4.53146 10.9108 5.94632C9.54551 7.35741 8.31587 9.02129 7.92514 10.3281L9.07486 10.6719ZM15.6403 3.87582C17.2113 3.29198 18.991 3.65355 20.1732 4.78334L21.0023 3.91578C19.4809 2.46188 17.2148 2.01049 15.2222 2.75098L15.6403 3.87582ZM7.894 20.6203C7.894 20.3071 7.8857 20.0609 7.91963 19.8293C7.95179 19.6098 8.01203 19.4929 8.08598 19.4222L7.25692 18.5546C6.91285 18.8834 6.78438 19.2999 6.73231 19.6553C6.68202 19.9986 6.694 20.3685 6.694 20.6203H7.894ZM8.73128 13.604C8.52174 12.5555 8.72031 11.8577 9.07486 10.6719L7.92514 10.3281C7.57167 11.5104 7.28064 12.4686 7.55454 13.8392L8.73128 13.604ZM3.44382 17.541C3.71131 17.541 4.09025 17.5522 4.44214 17.5051C4.8012 17.4571 5.22581 17.3391 5.56598 17.0141L4.73692 16.1465C4.65909 16.2209 4.52545 16.2833 4.28299 16.3157C4.03335 16.3491 3.76747 16.341 3.44382 16.341V17.541Z" fill="#555770"/>
</svg>
