<svg width="24" height="24" viewBox="0 0 24 24" fill="none" xmlns="http://www.w3.org/2000/svg">
<path d="M5 4V3.4H4.4V4H5ZM4 20.6H20V19.4H4V20.6ZM20.4 5V8H21.6V5H20.4ZM20 8.4H17V9.6H20V8.4ZM5 4.6H17V3.4H5V4.6ZM17 4.6H20V3.4H17V4.6ZM17.6 9V4H16.4V9H17.6ZM16.4 9V13H17.6V9H16.4ZM14 15.4H8V16.6H14V15.4ZM5.6 13V4H4.4V13H5.6ZM16.4 13C16.4 14.3255 15.3255 15.4 14 15.4V16.6C15.9882 16.6 17.6 14.9882 17.6 13H16.4ZM20.4 8C20.4 8.22091 20.2209 8.4 20 8.4V9.6C20.8837 9.6 21.6 8.88366 21.6 8H20.4ZM8 15.4C6.67452 15.4 5.6 14.3255 5.6 13H4.4C4.4 14.9882 6.01177 16.6 8 16.6V15.4ZM21.6 5C21.6 4.11634 20.8837 3.4 20 3.4V4.6C20.2209 4.6 20.4 4.77909 20.4 5H21.6Z" fill="#555770"/>
</svg>
