<svg width="24" height="24" viewBox="0 0 24 24" fill="none" xmlns="http://www.w3.org/2000/svg">
<path d="M5 13V12.4H4.20456L4.42309 13.1648L5 13ZM7 20L6.42309 20.1648L6.54742 20.6H7V20ZM17 20V20.6H17.4526L17.5769 20.1648L17 20ZM19 13L19.5769 13.1648L19.7954 12.4H19V13ZM10.0274 5.3318L10.6192 5.23299L10.0274 5.3318ZM17.4 11C17.4 11.6322 17.2916 12.2378 17.0929 12.8001L18.2243 13.1999C18.4678 12.5111 18.6 11.7703 18.6 11H17.4ZM6.90712 12.8001C6.70839 12.2378 6.6 11.6322 6.6 11H5.4C5.4 11.7703 5.53222 12.5111 5.77571 13.1999L6.90712 12.8001ZM6.34141 12.4H5V13.6H6.34141V12.4ZM4.42309 13.1648L6.42309 20.1648L7.57691 19.8352L5.57691 12.8352L4.42309 13.1648ZM17.5769 20.1648L19.5769 13.1648L18.4231 12.8352L16.4231 19.8352L17.5769 20.1648ZM19 12.4H17.6586V13.6H19V12.4ZM11.4 13V20H12.6V13H11.4ZM12 12.4H8.5V13.6H12V12.4ZM8.5 12.4H6.34141V13.6H8.5V12.4ZM7 20.6H9.5V19.4H7V20.6ZM9.5 20.6H12V19.4H9.5V20.6ZM7.90603 13.0849L8.90603 20.0849L10.094 19.9151L9.09397 12.9151L7.90603 13.0849ZM17.6586 12.4H15.5V13.6H17.6586V12.4ZM15.5 12.4H12V13.6H15.5V12.4ZM12 20.6H14.5V19.4H12V20.6ZM14.5 20.6H17V19.4H14.5V20.6ZM14.906 12.9151L13.906 19.9151L15.094 20.0849L16.094 13.0849L14.906 12.9151ZM10.6 5C10.6 4.2268 11.2268 3.6 12 3.6V2.4C10.5641 2.4 9.4 3.56406 9.4 5H10.6ZM12 3.6C12.7732 3.6 13.4 4.2268 13.4 5H14.6C14.6 3.56406 13.4359 2.4 12 2.4V3.6ZM13.4 5C13.4 5.07979 13.3934 5.15759 13.3808 5.23299L14.5644 5.43062C14.5879 5.29017 14.6 5.14628 14.6 5H13.4ZM13.3808 5.23299C13.2702 5.89519 12.6935 6.4 12 6.4V7.6C13.2896 7.6 14.3589 6.66173 14.5644 5.43062L13.3808 5.23299ZM13.7754 5.89848C15.8864 6.63304 17.4 8.64054 17.4 11H18.6C18.6 8.11414 16.7482 5.66234 14.1698 4.76513L13.7754 5.89848ZM12 6.4C11.3065 6.4 10.7298 5.89519 10.6192 5.23299L9.43559 5.43062C9.64115 6.66173 10.7104 7.6 12 7.6V6.4ZM10.6192 5.23299C10.6066 5.15759 10.6 5.0798 10.6 5H9.4C9.4 5.14628 9.41214 5.29017 9.43559 5.43062L10.6192 5.23299ZM6.6 11C6.6 8.64054 8.11359 6.63304 10.2246 5.89848L9.83021 4.76513C7.25183 5.66234 5.4 8.11414 5.4 11H6.6Z" fill="#555770"/>
</svg>
