<svg width="24" height="24" viewBox="0 0 24 24" fill="none" xmlns="http://www.w3.org/2000/svg">
<path d="M12 7.36926L12.4243 6.945L12 6.52073L11.5757 6.945L12 7.36926ZM7.36926 12L6.945 11.5757L6.52073 12L6.945 12.4243L7.36926 12ZM12 16.6307L11.5757 17.055L12 17.4793L12.4243 17.055L12 16.6307ZM16.6307 12L17.055 12.4243L17.4793 12L17.055 11.5757L16.6307 12ZM11.5757 6.945L6.945 11.5757L7.79353 12.4243L12.4243 7.79353L11.5757 6.945ZM12.4243 16.2065L7.79353 11.5757L6.945 12.4243L11.5757 17.055L12.4243 16.2065ZM11.5757 7.79353L16.2065 12.4243L17.055 11.5757L12.4243 6.945L11.5757 7.79353ZM16.2065 11.5757L11.5757 16.2065L12.4243 17.055L17.055 12.4243L16.2065 11.5757ZM5 1.6H19V0.4H5V1.6ZM19.4 2V22H20.6V2H19.4ZM19 22.4H5V23.6H19V22.4ZM4.6 22V2H3.4V22H4.6ZM5 22.4C4.77909 22.4 4.6 22.2209 4.6 22H3.4C3.4 22.8837 4.11634 23.6 5 23.6V22.4ZM19.4 22C19.4 22.2209 19.2209 22.4 19 22.4V23.6C19.8837 23.6 20.6 22.8837 20.6 22H19.4ZM19 1.6C19.2209 1.6 19.4 1.77909 19.4 2H20.6C20.6 1.11634 19.8837 0.4 19 0.4V1.6ZM5 0.4C4.11634 0.4 3.4 1.11635 3.4 2H4.6C4.6 1.77909 4.77909 1.6 5 1.6V0.4Z" fill="#555770"/>
</svg>
