<svg width="24" height="24" viewBox="0 0 24 24" fill="none" xmlns="http://www.w3.org/2000/svg">
<path d="M9.50781 11.1325L9.93207 11.5567L10.3563 11.1325L9.93207 10.7082L9.50781 11.1325ZM3.20584 4.8305L3.6301 4.40624L3.20584 3.98197L2.78157 4.40624L3.20584 4.8305ZM7.61722 13.0231L7.19295 13.4473L7.61722 13.8716L8.04148 13.4473L7.61722 13.0231ZM3.20584 8.61168L2.78157 9.03595L3.20584 8.61168ZM2.53741 6.05267L1.95079 5.9267L2.53741 6.05267ZM19.8987 5.10069C20.302 5.50306 20.4808 6.12429 20.3661 6.86826C20.2514 7.61195 19.8446 8.43302 19.1464 9.12961L19.9939 9.97915C20.8538 9.12133 21.3945 8.07312 21.5521 7.05116C21.7096 6.02947 21.4855 4.98867 20.7462 4.25114L19.8987 5.10069ZM19.1464 9.12961C18.4481 9.82617 17.6247 10.2324 16.8782 10.347C16.1312 10.4616 15.5073 10.2828 15.1037 9.88014L14.2562 10.7297C14.9952 11.4669 16.0374 11.69 17.0602 11.5331C18.0837 11.376 19.134 10.837 19.9939 9.97915L19.1464 9.12961ZM15.1037 9.88014C14.7004 9.47776 14.5216 8.85654 14.6363 8.11257C14.751 7.36888 15.1578 6.5478 15.856 5.85122L15.0085 5.00168C14.1487 5.8595 13.6079 6.9077 13.4503 7.92967C13.2928 8.95136 13.5169 9.99216 14.2562 10.7297L15.1037 9.88014ZM15.856 5.85122C16.5543 5.15466 17.3777 4.74844 18.1242 4.63388C18.8713 4.51922 19.4951 4.69802 19.8987 5.10069L20.7462 4.25114C20.0072 3.51391 18.965 3.29078 17.9422 3.44776C16.9187 3.60484 15.8684 4.14384 15.0085 5.00168L15.856 5.85122ZM14.2562 9.88014L3.72347 20.3876L4.57098 21.2372L15.1037 10.7297L14.2562 9.88014ZM9.93207 10.7082L3.6301 4.40624L2.78157 5.25477L9.08354 11.5567L9.93207 10.7082ZM8.04148 12.5988L3.6301 8.18742L2.78157 9.03595L7.19295 13.4473L8.04148 12.5988ZM3.6301 8.18742C3.49288 8.0502 3.31272 7.76364 3.19463 7.37834C3.07887 7.00065 3.03834 6.57774 3.12404 6.17864L1.95079 5.9267C1.81368 6.56519 1.88456 7.19898 2.04731 7.72999C2.20773 8.2534 2.47318 8.72755 2.78157 9.03595L3.6301 8.18742ZM3.12404 6.17864C3.19376 5.85396 3.34818 5.53668 3.6301 5.25477L2.78157 4.40624C2.32517 4.86264 2.06565 5.39181 1.95079 5.9267L3.12404 6.17864ZM19.8112 20.5873L12.1945 12.9706L11.346 13.8192L18.9626 21.4358L19.8112 20.5873ZM9.08354 10.7082L7.19295 12.5988L8.04148 13.4473L9.93207 11.5567L9.08354 10.7082Z" fill="#555770"/>
</svg>
