<svg width="24" height="24" viewBox="0 0 24 24" fill="none" xmlns="http://www.w3.org/2000/svg">
<path d="M7.02331 5.5L6.6911 5.00036L6.6911 5.00036L7.02331 5.5ZM16.9767 5.5L17.3089 5.00036L17.3089 5.00036L16.9767 5.5ZM4.51555 8L4.01694 7.66624L4.01694 7.66624L4.51555 8ZM19.4845 8L19.9831 7.66624L19.9831 7.66624L19.4845 8ZM4.51555 18L4.01694 18.3338L4.01694 18.3338L4.51555 18ZM13 1.4H11V2.6H13V1.4ZM9.4 3V4.22302H10.6V3H9.4ZM13.4 3V4.22302H14.6V3H13.4ZM3 13.6H21V12.4H3V13.6ZM10 4.82302H12V3.62302H10V4.82302ZM12 4.82302H14V3.62302H12V4.82302ZM11.4 4.22302V22H12.6V4.22302H11.4ZM7.35551 5.99964C8.18901 5.44546 9.1267 5.03643 10.1328 4.80814L9.86723 3.63789C8.71599 3.89912 7.64354 4.3671 6.6911 5.00036L7.35551 5.99964ZM12 21.4C10.2817 21.4 8.68559 20.8847 7.35551 20.0004L6.6911 20.9996C8.21194 22.0108 10.0381 22.6 12 22.6V21.4ZM6.42331 5.5V20.5H7.62331V5.5H6.42331ZM13.8672 4.80814C14.8733 5.03643 15.811 5.44546 16.6445 5.99964L17.3089 5.00036C16.3565 4.3671 15.284 3.89912 14.1328 3.63789L13.8672 4.80814ZM16.6445 20.0004C15.3144 20.8847 13.7183 21.4 12 21.4V22.6C13.9619 22.6 15.7881 22.0108 17.3089 20.9996L16.6445 20.0004ZM16.3767 5.5V20.5H17.5767V5.5H16.3767ZM3.6 13C3.6 11.2723 4.12092 9.66818 5.01415 8.33376L4.01694 7.66624C2.99562 9.19202 2.4 11.0274 2.4 13H3.6ZM5.01415 8.33376C5.63261 7.40983 6.42957 6.61529 7.35551 5.99964L6.6911 5.00036C5.63343 5.70359 4.72337 6.6109 4.01694 7.66624L5.01415 8.33376ZM16.6445 5.99964C17.5704 6.61529 18.3674 7.40983 18.9858 8.33376L19.9831 7.66624C19.2766 6.6109 18.3666 5.70359 17.3089 5.00036L16.6445 5.99964ZM18.9858 8.33376C19.8791 9.66818 20.4 11.2723 20.4 13H21.6C21.6 11.0274 21.0044 9.19202 19.9831 7.66624L18.9858 8.33376ZM4.51555 8.6H19.4845V7.4H4.51555V8.6ZM7.35551 20.0004C6.42957 19.3847 5.63261 18.5902 5.01415 17.6662L4.01694 18.3338C4.72337 19.3891 5.63343 20.2964 6.6911 20.9996L7.35551 20.0004ZM5.01415 17.6662C4.12092 16.3318 3.6 14.7277 3.6 13H2.4C2.4 14.9726 2.99562 16.808 4.01694 18.3338L5.01415 17.6662ZM20.4 13C20.4 14.7277 19.8791 16.3318 18.9858 17.6662L19.9831 18.3338C21.0044 16.808 21.6 14.9726 21.6 13H20.4ZM18.9858 17.6662C18.3674 18.5902 17.5704 19.3847 16.6445 20.0004L17.3089 20.9996C18.3666 20.2964 19.2766 19.3891 19.9831 18.3338L18.9858 17.6662ZM4.51555 18.6H19.4845V17.4H4.51555V18.6ZM11 1.4C10.1163 1.4 9.4 2.11634 9.4 3H10.6C10.6 2.77909 10.7791 2.6 11 2.6V1.4ZM13 2.6C13.2209 2.6 13.4 2.77909 13.4 3H14.6C14.6 2.11634 13.8837 1.4 13 1.4V2.6Z" fill="#555770"/>
</svg>
