<svg width="24" height="24" viewBox="0 0 24 24" fill="none" xmlns="http://www.w3.org/2000/svg">
<path d="M4 3V2.4H3.32964L3.40367 3.06626L4 3ZM20 3L20.5963 3.06626L20.6704 2.4H20V3ZM5.90116 20.1104L5.30483 20.1767L5.90116 20.1104ZM18.0988 20.1104L17.5025 20.0442L18.0988 20.1104ZM4 3.6H20V2.4H4V3.6ZM17.105 20.4H6.89504V21.6H17.105V20.4ZM6.49749 20.0442L5.263 8.93374L4.07034 9.06626L5.30483 20.1767L6.49749 20.0442ZM5.263 8.93374L4.59633 2.93374L3.40367 3.06626L4.07034 9.06626L5.263 8.93374ZM19.4037 2.93374L18.737 8.93374L19.9297 9.06626L20.5963 3.06626L19.4037 2.93374ZM18.737 8.93374L17.5025 20.0442L18.6952 20.1767L19.9297 9.06626L18.737 8.93374ZM4.66667 9.6H19.3333V8.4H4.66667V9.6ZM6.89504 20.4C6.69122 20.4 6.52 20.2467 6.49749 20.0442L5.30483 20.1767C5.39486 20.987 6.07976 21.6 6.89504 21.6V20.4ZM17.105 21.6C17.9202 21.6 18.6051 20.987 18.6952 20.1767L17.5025 20.0442C17.48 20.2467 17.3088 20.4 17.105 20.4V21.6Z" fill="#555770"/>
<path d="M12 12.5L12.36 12.02L12 11.75L11.64 12.02L12 12.5ZM13.4 16.1579C13.4 16.7984 12.8206 17.4 12 17.4V18.6C13.3885 18.6 14.6 17.5521 14.6 16.1579H13.4ZM12 17.4C11.1794 17.4 10.6 16.7984 10.6 16.1579H9.4C9.4 17.5521 10.6115 18.6 12 18.6V17.4ZM10.6 16.1579C10.6 15.265 11.016 14.4782 11.4741 13.8874C11.7 13.5962 11.9266 13.3651 12.0961 13.2075C12.1805 13.129 12.2498 13.0696 12.2965 13.031C12.3198 13.0117 12.3374 12.9977 12.3483 12.9891C12.3538 12.9848 12.3576 12.9819 12.3595 12.9804C12.3605 12.9796 12.3611 12.9792 12.3612 12.9791C12.3612 12.9791 12.3611 12.9791 12.3609 12.9793C12.3608 12.9794 12.3607 12.9795 12.3606 12.9796C12.3605 12.9796 12.3603 12.9797 12.3603 12.9798C12.3602 12.9799 12.36 12.98 12 12.5C11.64 12.02 11.6398 12.0201 11.6397 12.0203C11.6396 12.0203 11.6394 12.0205 11.6393 12.0206C11.639 12.0208 11.6387 12.021 11.6383 12.0213C11.6377 12.0218 11.6369 12.0224 11.6359 12.0231C11.6341 12.0245 11.6318 12.0262 11.629 12.0284C11.6234 12.0327 11.616 12.0384 11.6068 12.0456C11.5884 12.0601 11.563 12.0804 11.5317 12.1063C11.469 12.1582 11.382 12.2328 11.2789 12.3287C11.0734 12.5198 10.8 12.7985 10.5259 13.152C9.98404 13.8507 9.4 14.8929 9.4 16.1579H10.6ZM12 12.5C11.64 12.98 11.6398 12.9799 11.6397 12.9798C11.6397 12.9797 11.6395 12.9796 11.6394 12.9796C11.6393 12.9795 11.6392 12.9794 11.6391 12.9793C11.6389 12.9791 11.6388 12.9791 11.6388 12.9791C11.6389 12.9792 11.6395 12.9796 11.6405 12.9804C11.6424 12.9819 11.6462 12.9848 11.6517 12.9891C11.6626 12.9977 11.6802 13.0117 11.7035 13.031C11.7502 13.0696 11.8195 13.129 11.9039 13.2075C12.0734 13.3651 12.3 13.5962 12.5259 13.8874C12.984 14.4782 13.4 15.265 13.4 16.1579H14.6C14.6 14.8929 14.016 13.8507 13.4741 13.152C13.2 12.7985 12.9266 12.5198 12.7211 12.3287C12.618 12.2328 12.531 12.1582 12.4683 12.1063C12.437 12.0804 12.4116 12.0601 12.3932 12.0456C12.384 12.0384 12.3766 12.0327 12.371 12.0284C12.3682 12.0262 12.3659 12.0245 12.3641 12.0231C12.3631 12.0224 12.3623 12.0218 12.3617 12.0213C12.3613 12.021 12.361 12.0208 12.3607 12.0206C12.3606 12.0205 12.3604 12.0203 12.3603 12.0203C12.3602 12.0201 12.36 12.02 12 12.5Z" fill="#555770"/>
</svg>
