<svg width="24" height="24" viewBox="0 0 24 24" fill="none" xmlns="http://www.w3.org/2000/svg">
<path d="M9 7C9 8.65685 7.65685 10 6 10C4.34315 10 3 8.65685 3 7C3 5.34315 4.34315 4 6 4C7.65685 4 9 5.34315 9 7ZM9 7C9 8.65685 10.3431 10 12 10C13.6569 10 15 8.65685 15 7M9 7C9 5.34315 10.3431 4 12 4M15 7C15 5.34315 13.6569 4 12 4M15 7C15 8.65685 16.3431 10 18 10C19.6569 10 21 8.65685 21 7C21 5.34315 19.6569 4 18 4C16.3431 4 15 5.34315 15 7ZM12 4C12.3333 3.16667 13.2 1.4 14 1M12 13C12 14.6569 10.6569 16 9 16C7.34315 16 6 14.6569 6 13C6 11.3431 7.34315 10 9 10C10.6569 10 12 11.3431 12 13ZM12 13C12 14.6569 13.3431 16 15 16C16.6569 16 18 14.6569 18 13C18 11.3431 16.6569 10 15 10C13.3431 10 12 11.3431 12 13ZM15 19C15 20.6569 13.6569 22 12 22C10.3431 22 9 20.6569 9 19C9 17.3431 10.3431 16 12 16C13.6569 16 15 17.3431 15 19Z" stroke="#555770" stroke-width="1.2"/>
</svg>
