<svg width="24" height="24" viewBox="0 0 24 24" fill="none" xmlns="http://www.w3.org/2000/svg">
<path d="M8.2531 4.007L8.21989 4.60608L8.2531 4.007ZM3 10V9.4H2.4V10H3ZM21 10H21.6V9.4H21V10ZM4.34394 8.5C4.34394 6.30126 5.88921 4.6 8 4.6V3.4C5.14022 3.4 3.14394 5.72818 3.14394 8.5H4.34394ZM12.1 9.5C12.1 8.70248 12.3387 7.96254 12.7485 7.34553L11.7489 6.68164C11.2125 7.48931 10.9 8.45907 10.9 9.5H12.1ZM12.7485 7.34553C13.4481 6.29222 14.6433 5.6 16 5.6V4.4C14.2246 4.4 12.6614 5.30774 11.7489 6.68164L12.7485 7.34553ZM4.5657 9.80005C4.42226 9.39421 4.34394 8.9569 4.34394 8.5H3.14394C3.14394 9.09501 3.24609 9.66745 3.4343 10.1999L4.5657 9.80005ZM4 10.6H9.17133V9.4H4V10.6ZM12.1238 9.93407C12.1081 9.79176 12.1 9.64694 12.1 9.5H10.9C10.9 9.69107 10.9105 9.87991 10.9311 10.0659L12.1238 9.93407ZM9.17133 10.6H11.5275V9.4H9.17133V10.6ZM11.5275 10.6H14.8287V9.4H11.5275V10.6ZM19.4275 9.5C19.4275 9.64694 19.4194 9.79176 19.4036 9.93407L20.5964 10.0659C20.6169 9.87991 20.6275 9.69107 20.6275 9.5H19.4275ZM14.8287 10.6H20V9.4H14.8287V10.6ZM16 5.6C16.0718 5.6 16.1432 5.60194 16.214 5.60575L16.2786 4.4075C16.1863 4.40252 16.0934 4.4 16 4.4V5.6ZM16.214 5.60575C18.1809 5.71184 19.4275 7.32294 19.4275 9.5H20.6275C20.6275 6.87176 19.0531 4.55714 16.2786 4.4075L16.214 5.60575ZM12 2.6C13.6993 2.6 15.1462 3.68714 15.6803 5.20568L16.8123 4.80757C16.1146 2.82362 14.2243 1.4 12 1.4V2.6ZM8 4.6C8.07385 4.6 8.14716 4.60205 8.21989 4.60608L8.28631 3.40792C8.19148 3.40266 8.09602 3.4 8 3.4V4.6ZM8.21989 4.60608C9.82491 4.69506 11.1731 5.75595 11.6824 7.21171L12.8151 6.81546C12.1496 4.91322 10.3888 3.52449 8.28631 3.40792L8.21989 4.60608ZM8.75233 4.33982C9.45241 3.28972 10.6458 2.6 12 2.6V1.4C10.2278 1.4 8.66703 2.30446 7.75387 3.67417L8.75233 4.33982ZM4 9.4H3V10.6H4V9.4ZM2.4 10C2.4 11.583 2.76869 13.5085 4.21401 15.0372C5.66512 16.572 8.09955 17.6 12 17.6V16.4C8.30045 16.4 6.23488 15.428 5.08599 14.2128C3.93131 12.9915 3.6 11.417 3.6 10H2.4ZM12 17.6C15.9005 17.6 18.3349 16.572 19.786 15.0372C21.2313 13.5085 21.6 11.583 21.6 10H20.4C20.4 11.417 20.0687 12.9915 18.914 14.2128C17.7651 15.428 15.6995 16.4 12 16.4V17.6ZM21 9.4H20V10.6H21V9.4ZM11.4 17V22H12.6V17H11.4ZM12 21.4H6V22.6H12V21.4ZM12 22.6H18V21.4H12V22.6Z" fill="#555770"/>
</svg>
