<svg width="24" height="24" viewBox="0 0 24 24" fill="none" xmlns="http://www.w3.org/2000/svg">
<path d="M14.7647 5.49416L14.341 5.06929L14.341 5.06929L14.7647 5.49416ZM21.9999 5.49416L22.4236 5.91904L22.8497 5.49416L22.4236 5.06929L21.9999 5.49416ZM8.04618 12.1933L7.62253 11.7684L7.19631 12.1934L7.62265 12.6183L8.04618 12.1933ZM9.35741 13.5L9.78113 13.0752L9.78094 13.075L9.35741 13.5ZM5.73977 17.1072L5.31612 16.6823L5.31612 16.6823L5.73977 17.1072ZM4.25557 17.8402L4.16661 18.4336L4.16661 18.4336L4.25557 17.8402ZM2.71882 18.0582L3.14248 18.4831L3.14248 18.4831L2.71882 18.0582ZM2.04224 18.7328L2.45678 19.1668L2.46589 19.1577L2.04224 18.7328ZM1.99993 20.5L2.32783 19.9975L2.32783 19.9975L1.99993 20.5ZM8.04618 19.4077L7.62253 18.9829L8.04618 19.4077ZM15.1883 5.91904C16.9521 4.16032 19.8125 4.16032 21.5763 5.91904L22.4236 5.06929C20.1914 2.84357 16.5731 2.84357 14.341 5.06929L15.1883 5.91904ZM14.341 5.06929L7.62253 11.7684L8.46984 12.6182L15.1883 5.91904L14.341 5.06929ZM12.0875 16.2254L22.4236 5.91904L21.5763 5.06929L11.2402 15.3756L12.0875 16.2254ZM7.62265 12.6183L8.93388 13.925L9.78094 13.075L8.46971 11.7683L7.62265 12.6183ZM8.93369 13.9248L11.2401 16.2253L12.0875 15.3757L9.78113 13.0752L8.93369 13.9248ZM8.93376 13.0751L5.31612 16.6823L6.16342 17.5321L9.78106 13.9249L8.93376 13.0751ZM5.31612 16.6823C5.15794 16.8401 4.99427 17.0003 4.80854 17.1164C4.62805 17.2293 4.47918 17.267 4.34452 17.2468L4.16661 18.4336C4.68316 18.511 5.12287 18.3353 5.44492 18.1338C5.76173 17.9356 6.01456 17.6805 6.16342 17.5321L5.31612 16.6823ZM2.29517 17.6333L1.61859 18.308L2.46589 19.1577L3.14248 18.4831L2.29517 17.6333ZM1.67203 21.0025C3.32333 22.0801 6.12987 22.1658 8.46984 19.8326L7.62253 18.9829C5.6704 20.9294 3.48841 20.7549 2.32783 19.9975L1.67203 21.0025ZM8.46984 19.8326C10.0149 18.292 10.6781 17.6735 11.0742 17.2998C11.4888 16.9088 11.6332 16.7639 12.1213 16.1887L11.2063 15.4123C10.7469 15.9537 10.633 16.0664 10.2508 16.4269C9.85019 16.8048 9.1783 17.4316 7.62253 18.9829L8.46984 19.8326ZM1.6278 18.299C0.666992 19.2168 0.865087 20.4759 1.67203 21.0025L2.32783 19.9975C2.26584 19.9571 2.19363 19.8596 2.18445 19.7192C2.17641 19.5961 2.21648 19.3962 2.45669 19.1667L1.6278 18.299ZM4.34452 17.2468C4.08516 17.2079 3.73506 17.1553 3.39264 17.1766C3.03997 17.1985 2.62743 17.302 2.29517 17.6333L3.14248 18.4831C3.19423 18.4315 3.28154 18.3858 3.46698 18.3743C3.66266 18.3621 3.88893 18.3919 4.16661 18.4336L4.34452 17.2468Z" fill="#555770"/>
</svg>
