<svg width="24" height="24" viewBox="0 0 24 24" fill="none" xmlns="http://www.w3.org/2000/svg">
<path d="M4.99988 19L4.57561 18.5758L4.57561 18.5758L4.99988 19ZM12.8932 8.44177L12.2979 8.51724L12.8932 8.44177ZM11.9999 12L12.4241 12.4243L12.4241 12.4243L11.9999 12ZM15.5635 11.1074L15.4889 11.7028L15.5635 11.1074ZM3.79442 21.8451L3.24653 21.6006L3.79442 21.8451ZM2.21868 20.2948L2.45483 20.8464L2.21868 20.2948ZM20.6885 3.31137C21.2667 3.88955 21.5073 4.76748 21.3508 5.78434C21.1945 6.80076 20.6427 7.9103 19.7064 8.84659L20.555 9.69511C21.6527 8.59737 22.3378 7.26085 22.5369 5.96681C22.7359 4.6732 22.4505 3.37628 21.5371 2.46284L20.6885 3.31137ZM15.1533 4.29348C16.0896 3.35719 17.1991 2.80544 18.2156 2.64906C19.2324 2.49262 20.1104 2.73319 20.6885 3.31137L21.5371 2.46284C20.6236 1.5494 19.3267 1.264 18.0331 1.46302C16.7391 1.6621 15.4025 2.34721 14.3048 3.44495L15.1533 4.29348ZM2.45483 20.8464C2.66242 20.7575 2.90598 20.6638 3.18961 20.5692L2.81014 19.4308C2.49627 19.5354 2.22168 19.6409 1.98253 19.7433L2.45483 20.8464ZM3.18961 20.5692C3.97767 20.3066 4.51802 20.0389 4.87108 19.827C5.04755 19.7211 5.17689 19.6294 5.26668 19.5596C5.31156 19.5247 5.34649 19.4953 5.37244 19.4724C5.38541 19.4609 5.39612 19.4511 5.4047 19.4431C5.40899 19.439 5.41275 19.4355 5.41598 19.4323C5.4176 19.4307 5.41909 19.4293 5.42045 19.428C5.42113 19.4273 5.42177 19.4266 5.42239 19.426C5.4227 19.4257 5.423 19.4254 5.42329 19.4251C5.42344 19.425 5.42365 19.4248 5.42372 19.4247C5.42393 19.4245 5.42414 19.4243 4.99988 19C4.57561 18.5758 4.57582 18.5756 4.57602 18.5754C4.57609 18.5753 4.57629 18.5751 4.57642 18.575C4.57668 18.5747 4.57694 18.5744 4.57718 18.5742C4.57768 18.5737 4.57814 18.5733 4.57857 18.5728C4.57944 18.572 4.58019 18.5712 4.58081 18.5706C4.58207 18.5694 4.58283 18.5687 4.58309 18.5685C4.58361 18.568 4.58212 18.5694 4.57849 18.5726C4.57123 18.579 4.55539 18.5926 4.52995 18.6124C4.47912 18.6519 4.38971 18.7164 4.25368 18.798C3.98173 18.9612 3.52208 19.1935 2.81014 19.4308L3.18961 20.5692ZM4.34231 22.0897C4.45957 21.827 4.57339 21.5212 4.67585 21.1665L3.52298 20.8335C3.43528 21.1371 3.34025 21.3906 3.24653 21.6006L4.34231 22.0897ZM4.67585 21.1665C4.88856 20.4302 5.09764 19.9725 5.24244 19.7101C5.31479 19.579 5.37106 19.4968 5.40373 19.4528C5.42007 19.4308 5.43055 19.4183 5.43423 19.414C5.43608 19.4118 5.43624 19.4117 5.43459 19.4135C5.43377 19.4144 5.43249 19.4158 5.43076 19.4176C5.42989 19.4185 5.4289 19.4195 5.4278 19.4206C5.42725 19.4212 5.42667 19.4217 5.42606 19.4224C5.42576 19.4227 5.42544 19.423 5.42512 19.4233C5.42496 19.4235 5.42472 19.4237 5.42464 19.4238C5.42439 19.424 5.42414 19.4243 4.99988 19C4.57561 18.5758 4.57536 18.576 4.57511 18.5763C4.57502 18.5764 4.57476 18.5766 4.57459 18.5768C4.57424 18.5771 4.57389 18.5775 4.57353 18.5779C4.57281 18.5786 4.57206 18.5793 4.57129 18.5801C4.56975 18.5817 4.56811 18.5834 4.56637 18.5852C4.56289 18.5888 4.55901 18.5929 4.55476 18.5975C4.54624 18.6067 4.53621 18.6178 4.52478 18.6311C4.5019 18.6577 4.47343 18.6927 4.44025 18.7374C4.37386 18.8268 4.28876 18.9547 4.19183 19.1303C3.99805 19.4814 3.75691 20.0237 3.52298 20.8335L4.67585 21.1665ZM14.1712 9.8287C13.7926 9.45013 13.5624 8.94989 13.4884 8.3663L12.2979 8.51724C12.4009 9.32939 12.7321 10.0867 13.3227 10.6772L14.1712 9.8287ZM13.4884 8.3663C13.3326 7.13754 13.8819 5.5649 15.1533 4.29348L14.3048 3.44495C12.8297 4.92007 12.0859 6.84521 12.2979 8.51724L13.4884 8.3663ZM13.3227 9.8287L11.5756 11.5758L12.4241 12.4243L14.1712 10.6772L13.3227 9.8287ZM11.5756 11.5758L4.57561 18.5758L5.42414 19.4243L12.4241 12.4243L11.5756 11.5758ZM12.3055 8.563C12.3677 8.8643 12.4109 9.41034 12.3159 9.99633C12.2211 10.5814 11.9977 11.1537 11.5756 11.5758L12.4241 12.4243C13.0813 11.7671 13.3805 10.9285 13.5005 10.1883C13.6203 9.44912 13.5705 8.75564 13.4808 8.32054L12.3055 8.563ZM19.7064 8.84659C18.4366 10.1164 16.8662 10.666 15.6381 10.5121L15.4889 11.7028C17.1594 11.9121 19.0816 11.1685 20.555 9.69511L19.7064 8.84659ZM15.6381 10.5121C15.0526 10.4387 14.5507 10.2082 14.1712 9.8287L13.3227 10.6772C13.9147 11.2693 14.6744 11.6007 15.4889 11.7028L15.6381 10.5121ZM15.6805 10.5189C15.2437 10.4321 14.5475 10.3851 13.8075 10.5055C13.0675 10.6258 12.2283 10.9231 11.5756 11.5758L12.4241 12.4243C12.8399 12.0086 13.4111 11.7857 14.0001 11.6899C14.5892 11.5941 15.1406 11.6351 15.4465 11.6959L15.6805 10.5189ZM1.57561 22.4243C1.9656 22.8143 2.49024 23.0471 3.02067 23.0191C3.5782 22.9897 4.08277 22.6711 4.34231 22.0897L3.24653 21.6006C3.17239 21.7666 3.0691 21.8149 2.95749 21.8208C2.81877 21.8281 2.61298 21.7646 2.42414 21.5758L1.57561 22.4243ZM2.42414 21.5758C2.26106 21.4127 2.21694 21.2374 2.22954 21.1192C2.24029 21.0183 2.29351 20.9155 2.45483 20.8464L1.98253 19.7433C1.42584 19.9816 1.09352 20.4552 1.0363 20.992C0.980932 21.5114 1.18641 22.0351 1.57561 22.4243L2.42414 21.5758Z" fill="#555770"/>
</svg>
