<svg width="24" height="24" viewBox="0 0 24 24" fill="none" xmlns="http://www.w3.org/2000/svg">
<path d="M18 9H18.6V8.75147L18.4243 8.57574L18 9ZM11.045 2.04501L10.9884 1.44768L11.045 2.04501ZM21.4 12C21.4 17.1915 17.1915 21.4 12 21.4V22.6C17.8542 22.6 22.6 17.8542 22.6 12H21.4ZM12 21.4C6.80852 21.4 2.6 17.1915 2.6 12H1.4C1.4 17.8542 6.14578 22.6 12 22.6V21.4ZM12 2.6C17.1915 2.6 21.4 6.80852 21.4 12H22.6C22.6 6.14578 17.8542 1.4 12 1.4V2.6ZM13.4 12C13.4 12.7732 12.7732 13.4 12 13.4V14.6C13.4359 14.6 14.6 13.4359 14.6 12H13.4ZM12 13.4C11.2268 13.4 10.6 12.7732 10.6 12H9.4C9.4 13.4359 10.5641 14.6 12 14.6V13.4ZM10.6 12C10.6 11.2268 11.2268 10.6 12 10.6V9.4C10.5641 9.4 9.4 10.5641 9.4 12H10.6ZM12 10.6C12.7732 10.6 13.4 11.2268 13.4 12H14.6C14.6 10.5641 13.4359 9.4 12 9.4V10.6ZM16.9 10.6V12.9H18.1V10.6H16.9ZM17.6 13.6H18.4V12.4H17.6V13.6ZM19.1 12.9V10.6H17.9V12.9H19.1ZM18.4 9.9H18V11.1H18.4V9.9ZM18 9.9H17.6V11.1H18V9.9ZM18.6 10.5V9H17.4V10.5H18.6ZM2.6 12C2.6 7.11166 6.33185 3.09422 11.1016 2.64233L10.9884 1.44768C5.60841 1.95739 1.4 6.48688 1.4 12H2.6ZM11.1016 2.64233C11.3971 2.61433 11.6968 2.6 12 2.6V1.4C11.659 1.4 11.3215 1.41613 10.9884 1.44768L11.1016 2.64233ZM18.4243 8.57574L11.4693 1.62074L10.6207 2.46927L17.5757 9.42426L18.4243 8.57574ZM19.1 10.6C19.1 10.2134 18.7866 9.9 18.4 9.9V11.1C18.1239 11.1 17.9 10.8761 17.9 10.6H19.1ZM18.4 13.6C18.7866 13.6 19.1 13.2866 19.1 12.9H17.9C17.9 12.6239 18.1239 12.4 18.4 12.4V13.6ZM16.9 12.9C16.9 13.2866 17.2134 13.6 17.6 13.6V12.4C17.8761 12.4 18.1 12.6239 18.1 12.9H16.9ZM18.1 10.6C18.1 10.8761 17.8761 11.1 17.6 11.1V9.9C17.2134 9.9 16.9 10.2134 16.9 10.6H18.1Z" fill="#555770"/>
</svg>
