<svg width="24" height="24" viewBox="0 0 24 24" fill="none" xmlns="http://www.w3.org/2000/svg">
<mask id="mask0_402_12692" style="mask-type:alpha" maskUnits="userSpaceOnUse" x="0" y="0" width="24" height="24">
<path d="M20 20.5L3.5 3.99675H0V24H24V0H4V2.78777L20.8516 19.6484L20 20.5Z" fill="white"/>
</mask>
<g mask="url(#mask0_402_12692)">
<path d="M3.55566 4.90247L19.0557 20.4025" stroke="#555770" stroke-width="1.2"/>
<path d="M3 14V13H16V14H3Z" stroke="#555770" stroke-width="1.2"/>
<path d="M18.4 12V15H19.6V12H18.4ZM20.9 12V15H22.1V12H20.9ZM22.1 11V9H20.9V11H22.1ZM22.1 9C22.1 5.90721 19.5928 3.4 16.5 3.4V4.6C18.9301 4.6 20.9 6.56995 20.9 9H22.1ZM16.5 4.6H16.75V3.4H16.5V4.6ZM16.75 4.6C18.6002 4.6 20.1 3.10015 20.1 1.25H18.9C18.9 2.43741 17.9374 3.4 16.75 3.4V4.6ZM19.6 11V10H18.4V11H19.6ZM16 6.4H14.5V7.6H16V6.4ZM12.6 4.5C12.6 3.45066 13.4507 2.6 14.5 2.6V1.4C12.7879 1.4 11.4 2.78792 11.4 4.5H12.6ZM14.5 6.4C13.4507 6.4 12.6 5.54934 12.6 4.5H11.4C11.4 6.21208 12.7879 7.6 14.5 7.6V6.4ZM19.6 10C19.6 8.01177 17.9882 6.4 16 6.4V7.6C17.3255 7.6 18.4 8.67452 18.4 10H19.6Z" fill="#555770"/>
</g>
</svg>
