<svg width="24" height="24" viewBox="0 0 24 24" fill="none" xmlns="http://www.w3.org/2000/svg">
<path d="M19.8911 14.8721C18.3049 19.2303 13.4861 21.4773 9.12795 19.8911L8.71752 21.0187C13.6984 22.8316 19.2059 20.2635 21.0188 15.2825L19.8911 14.8721ZM9.12795 19.8911C4.76984 18.3049 2.52277 13.486 4.109 9.12786L2.98137 8.71744C1.16848 13.6984 3.73664 19.2058 8.71752 21.0187L9.12795 19.8911ZM4.109 9.12786C5.69522 4.76972 10.5141 2.52265 14.8722 4.10888L15.2826 2.98125C10.3017 1.16835 4.79426 3.73653 2.98137 8.71744L4.109 9.12786ZM14.8722 4.10888C19.2303 5.69511 21.4773 10.514 19.8911 14.8721L21.0188 15.2825C22.8316 10.3016 20.2635 4.79416 15.2826 2.98125L14.8722 4.10888ZM19.891 9.12787C21.4772 13.486 19.2302 18.3049 14.872 19.8911L15.2825 21.0187C20.2634 19.2058 22.8315 13.6984 21.0186 8.71745L19.891 9.12787ZM14.872 19.8911C10.5139 21.4773 5.6951 19.2303 4.10888 14.8721L2.98125 15.2826C4.79414 20.2635 10.3016 22.8317 15.2825 21.0187L14.872 19.8911ZM4.10888 14.8721C2.52265 10.514 4.76972 5.69512 9.12783 4.10889L8.7174 2.98126C3.73652 4.79417 1.16836 10.3016 2.98125 15.2826L4.10888 14.8721ZM9.12783 4.10889C13.4859 2.52266 18.3048 4.76973 19.891 9.12787L21.0186 8.71745C19.2057 3.73654 13.6983 1.16836 8.7174 2.98126L9.12783 4.10889Z" fill="#555770"/>
<path d="M14.5137 3.33983L8.35902 20.2497L9.48665 20.6601L15.6413 3.75025L14.5137 3.33983ZM3.34007 9.48644L20.2498 15.6411L20.6603 14.5135L3.7505 8.35881L3.34007 9.48644ZM8.3589 3.75027L14.5135 20.6601L15.6412 20.2497L9.48653 3.33984L8.3589 3.75027ZM3.75038 15.6411L20.6601 9.48646L20.2497 8.35882L3.33995 14.5135L3.75038 15.6411Z" fill="#555770"/>
</svg>
