<svg width="24" height="24" viewBox="0 0 24 24" fill="none" xmlns="http://www.w3.org/2000/svg">
<path d="M17.848 12.652L18.4328 12.5178L17.848 12.652ZM17.9286 17.9286L17.3357 17.8365L17.9286 17.9286ZM15.4262 21.9262L15.0832 21.4339L15.0832 21.4339L15.4262 21.9262ZM6.07142 17.9286L5.47853 18.0207L6.07142 17.9286ZM19 5L19.4243 5.42426L20.0129 4.83563L19.2683 4.46334L19 5ZM5 5L4.73167 4.46334L3.9871 4.83563L4.57574 5.42426L5 5ZM12 2L12.3328 1.50077L12 1.27889L11.6672 1.50077L12 2ZM14 4.27623L14.2072 4.83932L14 4.27623ZM15.25 15.25L14.8257 14.8257L14.8257 14.8257L15.25 15.25ZM12 12L11.5757 11.5757L11.5757 11.5757L12 12ZM8.75 15.25L8.32574 14.8257L8.32574 14.8257L8.75 15.25ZM17.4 14V17H18.6V14H17.4ZM6.6 17V14H5.4V17H6.6ZM12 8.6C13.0308 8.6 13.9925 8.88826 14.8109 9.38827L15.4365 8.36426C14.4351 7.75244 13.2578 7.4 12 7.4V8.6ZM14.8109 9.38827C16.0328 10.1348 16.9341 11.3525 17.2632 12.7863L18.4328 12.5178C18.0297 10.7619 16.9275 9.2752 15.4365 8.36426L14.8109 9.38827ZM17.2632 12.7863C17.3526 13.1758 17.4 13.582 17.4 14H18.6C18.6 13.491 18.5423 12.9948 18.4328 12.5178L17.2632 12.7863ZM17.4 17C17.4 17.2849 17.378 17.5642 17.3357 17.8365L18.5215 18.0207C18.5732 17.6877 18.6 17.3468 18.6 17H17.4ZM17.3357 17.8365C17.1049 19.3217 16.2679 20.6084 15.0832 21.4339L15.7692 22.4185C17.2143 21.4115 18.2388 19.8398 18.5215 18.0207L17.3357 17.8365ZM15.0832 21.4339C14.2092 22.043 13.1472 22.4 12 22.4V23.6C13.4003 23.6 14.7004 23.1632 15.7692 22.4185L15.0832 21.4339ZM12 22.4C10.8528 22.4 9.79085 22.043 8.91682 21.4339L8.23077 22.4185C9.29957 23.1632 10.5997 23.6 12 23.6V22.4ZM8.91682 21.4339C7.73212 20.6084 6.89506 19.3217 6.66431 17.8365L5.47853 18.0207C5.76116 19.8398 6.78568 21.4115 8.23077 22.4185L8.91682 21.4339ZM6.66431 17.8365C6.62201 17.5642 6.6 17.2849 6.6 17H5.4C5.4 17.3468 5.4268 17.6877 5.47853 18.0207L6.66431 17.8365ZM5.56723 12.5178C5.45772 12.9948 5.4 13.491 5.4 14H6.6C6.6 13.582 6.64738 13.1758 6.73681 12.7863L5.56723 12.5178ZM12 7.4C10.7422 7.4 9.56486 7.75244 8.56345 8.36426L9.18908 9.38827C10.0075 8.88826 10.9692 8.6 12 8.6V7.4ZM8.56345 8.36426C7.07247 9.2752 5.97031 10.7619 5.56723 12.5178L6.73681 12.7863C7.06595 11.3525 7.96722 10.1348 9.18908 9.38827L8.56345 8.36426ZM15.548 9.30053L19.4243 5.42426L18.5757 4.57573L14.6995 8.452L15.548 9.30053ZM9.30053 8.452L5.42426 4.57573L4.57574 5.42426L8.452 9.30053L9.30053 8.452ZM5.26833 5.53666C5.8973 5.22217 6.7065 4.91885 7.53173 4.76217C8.36441 4.60409 9.15797 4.6057 9.79279 4.83932L10.2072 3.71315C9.28903 3.37526 8.25218 3.40396 7.30791 3.58323C6.35619 3.76392 5.44189 4.10824 4.73167 4.46334L5.26833 5.53666ZM9.79279 4.83932C10.2502 5.00763 10.636 5.29921 10.9161 5.77212C11.2017 6.25451 11.4 6.9649 11.4 8H12.6C12.6 6.81958 12.3747 5.88021 11.9486 5.16066C11.5169 4.43163 10.9027 3.96909 10.2072 3.71315L9.79279 4.83932ZM10.5587 4.4951C10.6832 4.17728 11.2409 3.22717 12.3328 2.49923L11.6672 1.50077C10.3591 2.37283 9.65016 3.52437 9.44134 4.05736L10.5587 4.4951ZM19.2683 4.46334C18.5581 4.10824 17.6438 3.76392 16.6921 3.58323C15.7478 3.40396 14.711 3.37526 13.7928 3.71315L14.2072 4.83932C14.842 4.6057 15.6356 4.60409 16.4683 4.76217C17.2935 4.91885 18.1027 5.22217 18.7317 5.53666L19.2683 4.46334ZM13.7928 3.71315C13.0973 3.96909 12.4831 4.43163 12.0514 5.16066C11.6253 5.88021 11.4 6.81958 11.4 8H12.6C12.6 6.9649 12.7983 6.25451 13.0839 5.77212C13.364 5.29921 13.7498 5.00763 14.2072 4.83932L13.7928 3.71315ZM14.5587 4.05736C14.3498 3.52437 13.6409 2.37283 12.3328 1.50077L11.6672 2.49923C12.7591 3.22717 13.3168 4.17728 13.4413 4.4951L14.5587 4.05736ZM17.4237 12.2278L14.8257 14.8257L15.6743 15.6743L18.2722 13.0763L17.4237 12.2278ZM14.6995 8.452L11.5757 11.5757L12.4243 12.4243L15.548 9.30053L14.6995 8.452ZM11.5757 12.4243L13.2007 14.0493L14.0493 13.2007L12.4243 11.5757L11.5757 12.4243ZM11.5757 11.5757L8.32574 14.8257L9.17426 15.6743L12.4243 12.4243L11.5757 11.5757ZM8.32574 14.8257L5.64716 17.5043L6.49568 18.3528L9.17426 15.6743L8.32574 14.8257ZM14.8257 14.8257L11.5757 18.0757L12.4243 18.9243L15.6743 15.6743L14.8257 14.8257ZM11.5757 18.0757L8.14953 21.5019L8.99806 22.3505L12.4243 18.9243L11.5757 18.0757ZM8.32574 15.6743L9.95074 17.2993L10.7993 16.4507L9.17426 14.8257L8.32574 15.6743ZM8.452 9.30053L10.0139 10.8624L10.8624 10.0139L9.30053 8.452L8.452 9.30053ZM5.72776 13.0763L6.76179 14.1103L7.61032 13.2618L6.57628 12.2278L5.72776 13.0763ZM11.5757 18.9243L13.2888 20.6374L14.1374 19.7888L12.4243 18.0757L11.5757 18.9243ZM14.8257 15.6743L16.5757 17.4243L17.4243 16.5757L15.6743 14.8257L14.8257 15.6743Z" fill="#555770"/>
</svg>
