<svg width="24" height="24" viewBox="0 0 24 24" fill="none" xmlns="http://www.w3.org/2000/svg">
<path d="M13 5.32356L12.9119 5.91705L13 5.32356ZM5.32356 11L5.91705 11.0881L5.32356 11ZM5.32356 13L5.91705 12.9119L5.32356 13ZM11 18.6764L11.0881 18.0829L11 18.6764ZM11 21.9506L10.9407 22.5477L11 21.9506ZM21.9506 11L22.5477 10.9407L21.9506 11ZM18.6764 13L18.0829 12.9119L18.6764 13ZM21.9506 13L22.5477 13.0593L21.9506 13ZM11.0881 5.91705C11.3854 5.87292 11.6898 5.85 12 5.85V4.65C11.6306 4.65 11.2672 4.6773 10.9119 4.73007L11.0881 5.91705ZM11.0593 2.64644C11.3685 2.61574 11.6823 2.6 12 2.6V1.4C11.6427 1.4 11.2893 1.4177 10.9407 1.45231L11.0593 2.64644ZM11.6 5.32356V2.04938H10.4V5.32356H11.6ZM12 2.6C12.3177 2.6 12.6315 2.61574 12.9407 2.64644L13.0593 1.45231C12.7107 1.4177 12.3573 1.4 12 1.4V2.6ZM12 5.85C12.3102 5.85 12.6146 5.87292 12.9119 5.91705L13.0881 4.73007C12.7328 4.6773 12.3694 4.65 12 4.65V5.85ZM12.4 2.04938V5.32356H13.6V2.04938H12.4ZM5.85 12C5.85 11.6898 5.87292 11.3854 5.91705 11.0881L4.73007 10.9119C4.6773 11.2672 4.65 11.6306 4.65 12H5.85ZM5.91705 11.0881C6.31298 8.42207 8.42207 6.31298 11.0881 5.91705L10.9119 4.73007C7.72311 5.20362 5.20362 7.72311 4.73007 10.9119L5.91705 11.0881ZM2.6 12C2.6 11.6823 2.61574 11.3685 2.64644 11.0593L1.45231 10.9407C1.4177 11.2893 1.4 11.6427 1.4 12H2.6ZM2.64644 11.0593C3.08726 6.61935 6.61935 3.08726 11.0593 2.64644L10.9407 1.45231C5.93181 1.94963 1.94963 5.93181 1.45231 10.9407L2.64644 11.0593ZM5.32356 10.4H2.04938V11.6H5.32356V10.4ZM5.91705 12.9119C5.87292 12.6146 5.85 12.3102 5.85 12H4.65C4.65 12.3694 4.6773 12.7328 4.73007 13.0881L5.91705 12.9119ZM2.64644 12.9407C2.61574 12.6315 2.6 12.3177 2.6 12H1.4C1.4 12.3573 1.4177 12.7107 1.45231 13.0593L2.64644 12.9407ZM5.32356 12.4H2.04938V13.6H5.32356V12.4ZM12 18.15C11.6898 18.15 11.3854 18.1271 11.0881 18.0829L10.9119 19.2699C11.2672 19.3227 11.6306 19.35 12 19.35V18.15ZM11.0881 18.0829C8.42207 17.687 6.31298 15.5779 5.91705 12.9119L4.73007 13.0881C5.20362 16.2769 7.72311 18.7964 10.9119 19.2699L11.0881 18.0829ZM12 21.4C11.6823 21.4 11.3685 21.3843 11.0593 21.3536L10.9407 22.5477C11.2893 22.5823 11.6427 22.6 12 22.6V21.4ZM11.0593 21.3536C6.61935 20.9127 3.08726 17.3806 2.64644 12.9407L1.45231 13.0593C1.94962 18.0682 5.93181 22.0504 10.9407 22.5477L11.0593 21.3536ZM10.4 18.6764V21.9506H11.6V18.6764H10.4ZM12.9119 18.0829C12.6146 18.1271 12.3102 18.15 12 18.15V19.35C12.3694 19.35 12.7328 19.3227 13.0881 19.2699L12.9119 18.0829ZM12.9407 21.3536C12.6315 21.3843 12.3177 21.4 12 21.4V22.6C12.3573 22.6 12.7107 22.5823 13.0593 22.5477L12.9407 21.3536ZM12.4 18.6764V21.9506H13.6V18.6764H12.4ZM12.9119 5.91705C15.5779 6.31298 17.687 8.42207 18.0829 11.0881L19.2699 10.9119C18.7964 7.72311 16.2769 5.20362 13.0881 4.73007L12.9119 5.91705ZM18.0829 11.0881C18.1271 11.3854 18.15 11.6898 18.15 12H19.35C19.35 11.6306 19.3227 11.2672 19.2699 10.9119L18.0829 11.0881ZM12.9407 2.64644C17.3806 3.08726 20.9127 6.61935 21.3536 11.0593L22.5477 10.9407C22.0504 5.93181 18.0682 1.94963 13.0593 1.45231L12.9407 2.64644ZM21.3536 11.0593C21.3843 11.3685 21.4 11.6823 21.4 12H22.6C22.6 11.6427 22.5823 11.2893 22.5477 10.9407L21.3536 11.0593ZM18.6764 11.6H21.9506V10.4H18.6764V11.6ZM18.15 12C18.15 12.3102 18.1271 12.6146 18.0829 12.9119L19.2699 13.0881C19.3227 12.7328 19.35 12.3694 19.35 12H18.15ZM18.0829 12.9119C17.687 15.5779 15.5779 17.687 12.9119 18.0829L13.0881 19.2699C16.2769 18.7964 18.7964 16.2769 19.2699 13.0881L18.0829 12.9119ZM21.4 12C21.4 12.3177 21.3843 12.6315 21.3536 12.9407L22.5477 13.0593C22.5823 12.7107 22.6 12.3573 22.6 12H21.4ZM21.3536 12.9407C20.9127 17.3806 17.3806 20.9127 12.9407 21.3536L13.0593 22.5477C18.0682 22.0504 22.0504 18.0682 22.5477 13.0593L21.3536 12.9407ZM18.6764 13.6H21.9506V12.4H18.6764V13.6Z" fill="#555770"/>
<path d="M8.5 9.5V9H8V9.5H8.5ZM8.5 11.5H8V12H8.5V11.5ZM11.5 9H8.5V10H11.5V9ZM8 9.5V11.5H9V9.5H8ZM8.5 12H9.5V11H8.5V12ZM9.5 14H8V15H9.5V14ZM12.5 11V13H13.5V11H12.5ZM16.5 13V11H15.5V13H16.5ZM16.5 11C16.5 9.89543 15.6046 9 14.5 9V10C15.0523 10 15.5 10.4477 15.5 11H16.5ZM12.5 13C12.5 14.1046 13.3954 15 14.5 15V14C13.9477 14 13.5 13.5523 13.5 13H12.5ZM13.5 11C13.5 10.4477 13.9477 10 14.5 10V9C13.3954 9 12.5 9.89543 12.5 11H13.5ZM10.5 13C10.5 13.5523 10.0523 14 9.5 14V15C10.6046 15 11.5 14.1046 11.5 13H10.5ZM14.5 15C15.6046 15 16.5 14.1046 16.5 13H15.5C15.5 13.5523 15.0523 14 14.5 14V15ZM9.5 12C10.0523 12 10.5 12.4477 10.5 13H11.5C11.5 11.8954 10.6046 11 9.5 11V12Z" fill="#555770"/>
</svg>
