<svg width="24" height="24" viewBox="0 0 24 24" fill="none" xmlns="http://www.w3.org/2000/svg">
<path d="M4.0001 12V11.4H3.4001V12H4.0001ZM20.0001 12H20.6001V11.4H20.0001V12ZM5.24668 6.25114L5.05694 5.68193L5.24668 6.25114ZM18.7535 6.25114L18.9433 5.68193L18.9433 5.68193L18.7535 6.25114ZM20.9 9L20.9 8.4L20.9 9ZM20.9972 8.90006L21.5962 8.86625L20.9972 8.90006ZM3.1 9L3.1 9.6L3.1 9ZM3.00284 8.90006L2.40379 8.86625L3.00284 8.90006ZM4.0001 12.6H20.0001V11.4H4.0001V12.6ZM19.4001 12V18H20.6001V12H19.4001ZM18.0001 19.4H6.0001V20.6H18.0001V19.4ZM4.6001 18V12H3.4001V18H4.6001ZM6.0001 19.4C5.2269 19.4 4.6001 18.7732 4.6001 18H3.4001C3.4001 19.4359 4.56416 20.6 6.0001 20.6V19.4ZM19.4001 18C19.4001 18.7732 18.7733 19.4 18.0001 19.4V20.6C19.436 20.6 20.6001 19.4359 20.6001 18H19.4001ZM20.9 8.4L3.1 8.4L3.1 9.6L20.9 9.6L20.9 8.4ZM21.5962 8.86625C21.5545 8.12673 21.176 7.4305 20.7008 6.89049C20.2227 6.34714 19.5917 5.89806 18.9433 5.68193L18.5638 6.82035C18.9789 6.95874 19.438 7.27185 19.7999 7.68321C20.1648 8.09789 20.3764 8.54886 20.3981 8.93387L21.5962 8.86625ZM3.60189 8.93387C3.62362 8.54889 3.8352 8.09793 4.20015 7.68323C4.56216 7.27187 5.02124 6.95874 5.43642 6.82035L5.05694 5.68193C4.40856 5.89806 3.77746 6.34713 3.29931 6.89046C2.82409 7.43046 2.44553 8.1267 2.40379 8.86625L3.60189 8.93387ZM5.43642 6.82035C6.63031 6.42239 7.85133 6.13594 9.08428 5.96102L8.91572 4.77291C7.61147 4.95796 6.31984 5.26097 5.05694 5.68193L5.43642 6.82035ZM12 1.9C10.8839 1.9 9.9644 2.22624 9.32428 2.87076C8.68572 3.51372 8.4 4.39815 8.4 5.36696H9.6C9.6 4.62935 9.81428 4.0803 10.1757 3.71638C10.5356 3.35402 11.1161 3.1 12 3.1V1.9ZM9 5.96696C9.00394 5.96696 9.00789 5.96696 9.01183 5.96696C9.01578 5.96696 9.01972 5.96696 9.02367 5.96696C9.02761 5.96696 9.03155 5.96696 9.0355 5.96696C9.03944 5.96696 9.04338 5.96696 9.04733 5.96696C9.05127 5.96696 9.05521 5.96696 9.05915 5.96696C9.0631 5.96696 9.06704 5.96696 9.07098 5.96696C9.07492 5.96696 9.07887 5.96696 9.08281 5.96696C9.08675 5.96696 9.09069 5.96696 9.09463 5.96696C9.09857 5.96696 9.10251 5.96696 9.10645 5.96696C9.11039 5.96696 9.11434 5.96696 9.11828 5.96696C9.12222 5.96696 9.12616 5.96696 9.1301 5.96696C9.13404 5.96696 9.13798 5.96696 9.14192 5.96696C9.14585 5.96696 9.14979 5.96696 9.15373 5.96696C9.15767 5.96696 9.16161 5.96696 9.16555 5.96696C9.16949 5.96696 9.17343 5.96696 9.17736 5.96696C9.1813 5.96696 9.18524 5.96696 9.18918 5.96696C9.19312 5.96696 9.19705 5.96696 9.20099 5.96696C9.20493 5.96696 9.20887 5.96696 9.2128 5.96696C9.21674 5.96696 9.22068 5.96696 9.22461 5.96696C9.22855 5.96696 9.23249 5.96696 9.23642 5.96696C9.24036 5.96696 9.24429 5.96696 9.24823 5.96696C9.25217 5.96696 9.2561 5.96696 9.26004 5.96696C9.26397 5.96696 9.26791 5.96696 9.27184 5.96696C9.27578 5.96696 9.27971 5.96696 9.28365 5.96696C9.28758 5.96696 9.29152 5.96696 9.29545 5.96696C9.29938 5.96696 9.30332 5.96696 9.30725 5.96696C9.31118 5.96696 9.31512 5.96696 9.31905 5.96696C9.32298 5.96696 9.32692 5.96696 9.33085 5.96696C9.33478 5.96696 9.33872 5.96696 9.34265 5.96696C9.34658 5.96696 9.35051 5.96696 9.35445 5.96696C9.35838 5.96696 9.36231 5.96696 9.36624 5.96696C9.37017 5.96696 9.37411 5.96696 9.37804 5.96696C9.38197 5.96696 9.3859 5.96696 9.38983 5.96696C9.39376 5.96696 9.39769 5.96696 9.40162 5.96696C9.40555 5.96696 9.40948 5.96696 9.41341 5.96696C9.41734 5.96696 9.42127 5.96696 9.4252 5.96696C9.42913 5.96696 9.43306 5.96696 9.43699 5.96696C9.44092 5.96696 9.44485 5.96696 9.44878 5.96696C9.45271 5.96696 9.45664 5.96696 9.46057 5.96696C9.46449 5.96696 9.46842 5.96696 9.47235 5.96696C9.47628 5.96696 9.48021 5.96696 9.48414 5.96696C9.48806 5.96696 9.49199 5.96696 9.49592 5.96696C9.49985 5.96696 9.50377 5.96696 9.5077 5.96696C9.51163 5.96696 9.51555 5.96696 9.51948 5.96696C9.52341 5.96696 9.52733 5.96696 9.53126 5.96696C9.53519 5.96696 9.53911 5.96696 9.54304 5.96696C9.54697 5.96696 9.55089 5.96696 9.55482 5.96696C9.55874 5.96696 9.56267 5.96696 9.56659 5.96696C9.57052 5.96696 9.57444 5.96696 9.57837 5.96696C9.58229 5.96696 9.58622 5.96696 9.59014 5.96696C9.59407 5.96696 9.59799 5.96696 9.60192 5.96696C9.60584 5.96696 9.60977 5.96696 9.61369 5.96696C9.61761 5.96696 9.62154 5.96696 9.62546 5.96696C9.62938 5.96696 9.63331 5.96696 9.63723 5.96696C9.64115 5.96696 9.64508 5.96696 9.649 5.96696C9.65292 5.96696 9.65684 5.96696 9.66077 5.96696C9.66469 5.96696 9.66861 5.96696 9.67253 5.96696C9.67646 5.96696 9.68038 5.96696 9.6843 5.96696C9.68822 5.96696 9.69214 5.96696 9.69606 5.96696C9.69999 5.96696 9.70391 5.96696 9.70783 5.96696C9.71175 5.96696 9.71567 5.96696 9.71959 5.96696C9.72351 5.96696 9.72743 5.96696 9.73135 5.96696C9.73527 5.96696 9.73919 5.96696 9.74311 5.96696C9.74703 5.96696 9.75095 5.96696 9.75487 5.96696C9.75879 5.96696 9.76271 5.96696 9.76663 5.96696C9.77055 5.96696 9.77447 5.96696 9.77839 5.96696C9.78231 5.96696 9.78623 5.96696 9.79015 5.96696C9.79406 5.96696 9.79798 5.96696 9.8019 5.96696C9.80582 5.96696 9.80974 5.96696 9.81366 5.96696C9.81757 5.96696 9.82149 5.96696 9.82541 5.96696C9.82933 5.96696 9.83325 5.96696 9.83716 5.96696C9.84108 5.96696 9.845 5.96696 9.84891 5.96696C9.85283 5.96696 9.85675 5.96696 9.86067 5.96696C9.86458 5.96696 9.8685 5.96696 9.87242 5.96696C9.87633 5.96696 9.88025 5.96696 9.88416 5.96696C9.88808 5.96696 9.892 5.96696 9.89591 5.96696C9.89983 5.96696 9.90374 5.96696 9.90766 5.96696C9.91157 5.96696 9.91549 5.96696 9.9194 5.96696C9.92332 5.96696 9.92724 5.96696 9.93115 5.96696C9.93506 5.96696 9.93898 5.96696 9.94289 5.96696C9.94681 5.96696 9.95072 5.96696 9.95464 5.96696C9.95855 5.96696 9.96247 5.96696 9.96638 5.96696C9.97029 5.96696 9.97421 5.96696 9.97812 5.96696C9.98204 5.96696 9.98595 5.96696 9.98986 5.96696C9.99378 5.96696 9.99769 5.96696 10.0016 5.96696C10.0055 5.96696 10.0094 5.96696 10.0133 5.96696C10.0173 5.96696 10.0212 5.96696 10.0251 5.96696C10.029 5.96696 10.0329 5.96696 10.0368 5.96696C10.0407 5.96696 10.0446 5.96696 10.0486 5.96696C10.0525 5.96696 10.0564 5.96696 10.0603 5.96696C10.0642 5.96696 10.0681 5.96696 10.072 5.96696C10.0759 5.96696 10.0798 5.96696 10.0838 5.96696C10.0877 5.96696 10.0916 5.96696 10.0955 5.96696C10.0994 5.96696 10.1033 5.96696 10.1072 5.96696C10.1111 5.96696 10.115 5.96696 10.1189 5.96696C10.1229 5.96696 10.1268 5.96696 10.1307 5.96696C10.1346 5.96696 10.1385 5.96696 10.1424 5.96696C10.1463 5.96696 10.1502 5.96696 10.1541 5.96696C10.158 5.96696 10.162 5.96696 10.1659 5.96696C10.1698 5.96696 10.1737 5.96696 10.1776 5.96696C10.1815 5.96696 10.1854 5.96696 10.1893 5.96696C10.1932 5.96696 10.1971 5.96696 10.201 5.96696C10.205 5.96696 10.2089 5.96696 10.2128 5.96696C10.2167 5.96696 10.2206 5.96696 10.2245 5.96696C10.2284 5.96696 10.2323 5.96696 10.2362 5.96696C10.2401 5.96696 10.244 5.96696 10.2479 5.96696C10.2518 5.96696 10.2557 5.96696 10.2597 5.96696C10.2636 5.96696 10.2675 5.96696 10.2714 5.96696C10.2753 5.96696 10.2792 5.96696 10.2831 5.96696C10.287 5.96696 10.2909 5.96696 10.2948 5.96696C10.2987 5.96696 10.3026 5.96696 10.3065 5.96696C10.3104 5.96696 10.3143 5.96696 10.3183 5.96696C10.3222 5.96696 10.3261 5.96696 10.33 5.96696C10.3339 5.96696 10.3378 5.96696 10.3417 5.96696C10.3456 5.96696 10.3495 5.96696 10.3534 5.96696C10.3573 5.96696 10.3612 5.96696 10.3651 5.96696C10.369 5.96696 10.3729 5.96696 10.3768 5.96696C10.3807 5.96696 10.3846 5.96696 10.3885 5.96696C10.3924 5.96696 10.3963 5.96696 10.4003 5.96696C10.4042 5.96696 10.4081 5.96696 10.412 5.96696C10.4159 5.96696 10.4198 5.96696 10.4237 5.96696C10.4276 5.96696 10.4315 5.96696 10.4354 5.96696C10.4393 5.96696 10.4432 5.96696 10.4471 5.96696C10.451 5.96696 10.4549 5.96696 10.4588 5.96696C10.4627 5.96696 10.4666 5.96696 10.4705 5.96696C10.4744 5.96696 10.4783 5.96696 10.4822 5.96696C10.4861 5.96696 10.49 5.96696 10.4939 5.96696C10.4978 5.96696 10.5017 5.96696 10.5056 5.96696C10.5095 5.96696 10.5134 5.96696 10.5173 5.96696C10.5212 5.96696 10.5251 5.96696 10.529 5.96696C10.5329 5.96696 10.5368 5.96696 10.5407 5.96696C10.5446 5.96696 10.5485 5.96696 10.5524 5.96696C10.5563 5.96696 10.5602 5.96696 10.5641 5.96696C10.568 5.96696 10.5719 5.96696 10.5758 5.96696C10.5797 5.96696 10.5837 5.96696 10.5876 5.96696C10.5915 5.96696 10.5954 5.96696 10.5993 5.96696C10.6032 5.96696 10.6071 5.96696 10.611 5.96696C10.6149 5.96696 10.6188 5.96696 10.6227 5.96696C10.6266 5.96696 10.6304 5.96696 10.6343 5.96696C10.6382 5.96696 10.6421 5.96696 10.646 5.96696C10.6499 5.96696 10.6538 5.96696 10.6577 5.96696C10.6616 5.96696 10.6655 5.96696 10.6694 5.96696C10.6733 5.96696 10.6772 5.96696 10.6811 5.96696C10.685 5.96696 10.6889 5.96696 10.6928 5.96696C10.6967 5.96696 10.7006 5.96696 10.7045 5.96696C10.7084 5.96696 10.7123 5.96696 10.7162 5.96696C10.7201 5.96696 10.724 5.96696 10.7279 5.96696C10.7318 5.96696 10.7357 5.96696 10.7396 5.96696C10.7435 5.96696 10.7474 5.96696 10.7513 5.96696C10.7552 5.96696 10.7591 5.96696 10.763 5.96696C10.7669 5.96696 10.7708 5.96696 10.7747 5.96696C10.7786 5.96696 10.7825 5.96696 10.7864 5.96696C10.7903 5.96696 10.7942 5.96696 10.7981 5.96696C10.802 5.96696 10.8059 5.96696 10.8098 5.96696C10.8137 5.96696 10.8176 5.96696 10.8214 5.96696C10.8253 5.96696 10.8292 5.96696 10.8331 5.96696C10.837 5.96696 10.8409 5.96696 10.8448 5.96696C10.8487 5.96696 10.8526 5.96696 10.8565 5.96696C10.8604 5.96696 10.8643 5.96696 10.8682 5.96696C10.8721 5.96696 10.876 5.96696 10.8799 5.96696C10.8838 5.96696 10.8877 5.96696 10.8916 5.96696C10.8955 5.96696 10.8994 5.96696 10.9033 5.96696C10.9072 5.96696 10.9111 5.96696 10.9149 5.96696C10.9188 5.96696 10.9227 5.96696 10.9266 5.96696C10.9305 5.96696 10.9344 5.96696 10.9383 5.96696C10.9422 5.96696 10.9461 5.96696 10.95 5.96696C10.9539 5.96696 10.9578 5.96696 10.9617 5.96696C10.9656 5.96696 10.9695 5.96696 10.9734 5.96696C10.9773 5.96696 10.9812 5.96696 10.985 5.96696C10.9889 5.96696 10.9928 5.96696 10.9967 5.96696C11.0006 5.96696 11.0045 5.96696 11.0084 5.96696C11.0123 5.96696 11.0162 5.96696 11.0201 5.96696C11.024 5.96696 11.0279 5.96696 11.0318 5.96696C11.0357 5.96696 11.0396 5.96696 11.0435 5.96696C11.0473 5.96696 11.0512 5.96696 11.0551 5.96696C11.059 5.96696 11.0629 5.96696 11.0668 5.96696C11.0707 5.96696 11.0746 5.96696 11.0785 5.96696C11.0824 5.96696 11.0863 5.96696 11.0902 5.96696C11.0941 5.96696 11.098 5.96696 11.1019 5.96696C11.1057 5.96696 11.1096 5.96696 11.1135 5.96696C11.1174 5.96696 11.1213 5.96696 11.1252 5.96696C11.1291 5.96696 11.133 5.96696 11.1369 5.96696C11.1408 5.96696 11.1447 5.96696 11.1486 5.96696C11.1525 5.96696 11.1563 5.96696 11.1602 5.96696C11.1641 5.96696 11.168 5.96696 11.1719 5.96696C11.1758 5.96696 11.1797 5.96696 11.1836 5.96696C11.1875 5.96696 11.1914 5.96696 11.1953 5.96696C11.1992 5.96696 11.203 5.96696 11.2069 5.96696C11.2108 5.96696 11.2147 5.96696 11.2186 5.96696C11.2225 5.96696 11.2264 5.96696 11.2303 5.96696C11.2342 5.96696 11.2381 5.96696 11.242 5.96696C11.2459 5.96696 11.2497 5.96696 11.2536 5.96696C11.2575 5.96696 11.2614 5.96696 11.2653 5.96696C11.2692 5.96696 11.2731 5.96696 11.277 5.96696C11.2809 5.96696 11.2848 5.96696 11.2887 5.96696C11.2925 5.96696 11.2964 5.96696 11.3003 5.96696C11.3042 5.96696 11.3081 5.96696 11.312 5.96696C11.3159 5.96696 11.3198 5.96696 11.3237 5.96696C11.3276 5.96696 11.3314 5.96696 11.3353 5.96696C11.3392 5.96696 11.3431 5.96696 11.347 5.96696C11.3509 5.96696 11.3548 5.96696 11.3587 5.96696C11.3626 5.96696 11.3665 5.96696 11.3703 5.96696C11.3742 5.96696 11.3781 5.96696 11.382 5.96696C11.3859 5.96696 11.3898 5.96696 11.3937 5.96696C11.3976 5.96696 11.4015 5.96696 11.4054 5.96696C11.4092 5.96696 11.4131 5.96696 11.417 5.96696C11.4209 5.96696 11.4248 5.96696 11.4287 5.96696C11.4326 5.96696 11.4365 5.96696 11.4404 5.96696C11.4443 5.96696 11.4481 5.96696 11.452 5.96696C11.4559 5.96696 11.4598 5.96696 11.4637 5.96696C11.4676 5.96696 11.4715 5.96696 11.4754 5.96696C11.4793 5.96696 11.4831 5.96696 11.487 5.96696C11.4909 5.96696 11.4948 5.96696 11.4987 5.96696C11.5026 5.96696 11.5065 5.96696 11.5104 5.96696C11.5143 5.96696 11.5181 5.96696 11.522 5.96696C11.5259 5.96696 11.5298 5.96696 11.5337 5.96696C11.5376 5.96696 11.5415 5.96696 11.5454 5.96696C11.5493 5.96696 11.5531 5.96696 11.557 5.96696C11.5609 5.96696 11.5648 5.96696 11.5687 5.96696C11.5726 5.96696 11.5765 5.96696 11.5804 5.96696C11.5843 5.96696 11.5881 5.96696 11.592 5.96696C11.5959 5.96696 11.5998 5.96696 11.6037 5.96696C11.6076 5.96696 11.6115 5.96696 11.6154 5.96696C11.6193 5.96696 11.6231 5.96696 11.627 5.96696C11.6309 5.96696 11.6348 5.96696 11.6387 5.96696C11.6426 5.96696 11.6465 5.96696 11.6504 5.96696C11.6542 5.96696 11.6581 5.96696 11.662 5.96696C11.6659 5.96696 11.6698 5.96696 11.6737 5.96696C11.6776 5.96696 11.6815 5.96696 11.6854 5.96696C11.6892 5.96696 11.6931 5.96696 11.697 5.96696C11.7009 5.96696 11.7048 5.96696 11.7087 5.96696C11.7126 5.96696 11.7165 5.96696 11.7203 5.96696C11.7242 5.96696 11.7281 5.96696 11.732 5.96696C11.7359 5.96696 11.7398 5.96696 11.7437 5.96696C11.7476 5.96696 11.7514 5.96696 11.7553 5.96696C11.7592 5.96696 11.7631 5.96696 11.767 5.96696C11.7709 5.96696 11.7748 5.96696 11.7787 5.96696C11.7826 5.96696 11.7864 5.96696 11.7903 5.96696C11.7942 5.96696 11.7981 5.96696 11.802 5.96696C11.8059 5.96696 11.8098 5.96696 11.8137 5.96696C11.8175 5.96696 11.8214 5.96696 11.8253 5.96696C11.8292 5.96696 11.8331 5.96696 11.837 5.96696C11.8409 5.96696 11.8448 5.96696 11.8486 5.96696C11.8525 5.96696 11.8564 5.96696 11.8603 5.96696C11.8642 5.96696 11.8681 5.96696 11.872 5.96696C11.8759 5.96696 11.8797 5.96696 11.8836 5.96696C11.8875 5.96696 11.8914 5.96696 11.8953 5.96696C11.8992 5.96696 11.9031 5.96696 11.907 5.96696C11.9108 5.96696 11.9147 5.96696 11.9186 5.96696C11.9225 5.96696 11.9264 5.96696 11.9303 5.96696C11.9342 5.96696 11.9381 5.96696 11.9419 5.96696C11.9458 5.96696 11.9497 5.96696 11.9536 5.96696C11.9575 5.96696 11.9614 5.96696 11.9653 5.96696C11.9692 5.96696 11.973 5.96696 11.9769 5.96696C11.9808 5.96696 11.9847 5.96696 11.9886 5.96696C11.9925 5.96696 11.9964 5.96696 12.0003 5.96696C12.0041 5.96696 12.008 5.96696 12.0119 5.96696C12.0158 5.96696 12.0197 5.96696 12.0236 5.96696C12.0275 5.96696 12.0314 5.96696 12.0352 5.96696C12.0391 5.96696 12.043 5.96696 12.0469 5.96696C12.0508 5.96696 12.0547 5.96696 12.0586 5.96696C12.0625 5.96696 12.0663 5.96696 12.0702 5.96696C12.0741 5.96696 12.078 5.96696 12.0819 5.96696C12.0858 5.96696 12.0897 5.96696 12.0935 5.96696C12.0974 5.96696 12.1013 5.96696 12.1052 5.96696C12.1091 5.96696 12.113 5.96696 12.1169 5.96696C12.1208 5.96696 12.1246 5.96696 12.1285 5.96696C12.1324 5.96696 12.1363 5.96696 12.1402 5.96696C12.1441 5.96696 12.148 5.96696 12.1519 5.96696C12.1557 5.96696 12.1596 5.96696 12.1635 5.96696C12.1674 5.96696 12.1713 5.96696 12.1752 5.96696C12.1791 5.96696 12.183 5.96696 12.1869 5.96696C12.1907 5.96696 12.1946 5.96696 12.1985 5.96696C12.2024 5.96696 12.2063 5.96696 12.2102 5.96696C12.2141 5.96696 12.218 5.96696 12.2218 5.96696C12.2257 5.96696 12.2296 5.96696 12.2335 5.96696C12.2374 5.96696 12.2413 5.96696 12.2452 5.96696C12.2491 5.96696 12.2529 5.96696 12.2568 5.96696C12.2607 5.96696 12.2646 5.96696 12.2685 5.96696C12.2724 5.96696 12.2763 5.96696 12.2802 5.96696C12.284 5.96696 12.2879 5.96696 12.2918 5.96696C12.2957 5.96696 12.2996 5.96696 12.3035 5.96696C12.3074 5.96696 12.3113 5.96696 12.3151 5.96696C12.319 5.96696 12.3229 5.96696 12.3268 5.96696C12.3307 5.96696 12.3346 5.96696 12.3385 5.96696C12.3424 5.96696 12.3463 5.96696 12.3501 5.96696C12.354 5.96696 12.3579 5.96696 12.3618 5.96696C12.3657 5.96696 12.3696 5.96696 12.3735 5.96696C12.3774 5.96696 12.3812 5.96696 12.3851 5.96696C12.389 5.96696 12.3929 5.96696 12.3968 5.96696C12.4007 5.96696 12.4046 5.96696 12.4085 5.96696C12.4124 5.96696 12.4162 5.96696 12.4201 5.96696C12.424 5.96696 12.4279 5.96696 12.4318 5.96696C12.4357 5.96696 12.4396 5.96696 12.4435 5.96696C12.4473 5.96696 12.4512 5.96696 12.4551 5.96696C12.459 5.96696 12.4629 5.96696 12.4668 5.96696C12.4707 5.96696 12.4746 5.96696 12.4785 5.96696C12.4823 5.96696 12.4862 5.96696 12.4901 5.96696C12.494 5.96696 12.4979 5.96696 12.5018 5.96696C12.5057 5.96696 12.5096 5.96696 12.5135 5.96696C12.5173 5.96696 12.5212 5.96696 12.5251 5.96696C12.529 5.96696 12.5329 5.96696 12.5368 5.96696C12.5407 5.96696 12.5446 5.96696 12.5485 5.96696C12.5524 5.96696 12.5562 5.96696 12.5601 5.96696C12.564 5.96696 12.5679 5.96696 12.5718 5.96696C12.5757 5.96696 12.5796 5.96696 12.5835 5.96696C12.5874 5.96696 12.5912 5.96696 12.5951 5.96696C12.599 5.96696 12.6029 5.96696 12.6068 5.96696C12.6107 5.96696 12.6146 5.96696 12.6185 5.96696C12.6224 5.96696 12.6263 5.96696 12.6301 5.96696C12.634 5.96696 12.6379 5.96696 12.6418 5.96696C12.6457 5.96696 12.6496 5.96696 12.6535 5.96696C12.6574 5.96696 12.6613 5.96696 12.6652 5.96696C12.669 5.96696 12.6729 5.96696 12.6768 5.96696C12.6807 5.96696 12.6846 5.96696 12.6885 5.96696C12.6924 5.96696 12.6963 5.96696 12.7002 5.96696C12.7041 5.96696 12.7079 5.96696 12.7118 5.96696C12.7157 5.96696 12.7196 5.96696 12.7235 5.96696C12.7274 5.96696 12.7313 5.96696 12.7352 5.96696C12.7391 5.96696 12.743 5.96696 12.7469 5.96696C12.7507 5.96696 12.7546 5.96696 12.7585 5.96696C12.7624 5.96696 12.7663 5.96696 12.7702 5.96696C12.7741 5.96696 12.778 5.96696 12.7819 5.96696C12.7858 5.96696 12.7897 5.96696 12.7935 5.96696C12.7974 5.96696 12.8013 5.96696 12.8052 5.96696C12.8091 5.96696 12.813 5.96696 12.8169 5.96696C12.8208 5.96696 12.8247 5.96696 12.8286 5.96696C12.8325 5.96696 12.8364 5.96696 12.8402 5.96696C12.8441 5.96696 12.848 5.96696 12.8519 5.96696C12.8558 5.96696 12.8597 5.96696 12.8636 5.96696C12.8675 5.96696 12.8714 5.96696 12.8753 5.96696C12.8792 5.96696 12.8831 5.96696 12.8869 5.96696C12.8908 5.96696 12.8947 5.96696 12.8986 5.96696C12.9025 5.96696 12.9064 5.96696 12.9103 5.96696C12.9142 5.96696 12.9181 5.96696 12.922 5.96696C12.9259 5.96696 12.9298 5.96696 12.9337 5.96696C12.9376 5.96696 12.9414 5.96696 12.9453 5.96696C12.9492 5.96696 12.9531 5.96696 12.957 5.96696C12.9609 5.96696 12.9648 5.96696 12.9687 5.96696C12.9726 5.96696 12.9765 5.96696 12.9804 5.96696C12.9843 5.96696 12.9882 5.96696 12.9921 5.96696C12.996 5.96696 12.9998 5.96696 13.0037 5.96696C13.0076 5.96696 13.0115 5.96696 13.0154 5.96696C13.0193 5.96696 13.0232 5.96696 13.0271 5.96696C13.031 5.96696 13.0349 5.96696 13.0388 5.96696C13.0427 5.96696 13.0466 5.96696 13.0505 5.96696C13.0544 5.96696 13.0583 5.96696 13.0621 5.96696C13.066 5.96696 13.0699 5.96696 13.0738 5.96696C13.0777 5.96696 13.0816 5.96696 13.0855 5.96696C13.0894 5.96696 13.0933 5.96696 13.0972 5.96696C13.1011 5.96696 13.105 5.96696 13.1089 5.96696C13.1128 5.96696 13.1167 5.96696 13.1206 5.96696C13.1245 5.96696 13.1284 5.96696 13.1323 5.96696C13.1362 5.96696 13.14 5.96696 13.1439 5.96696C13.1478 5.96696 13.1517 5.96696 13.1556 5.96696C13.1595 5.96696 13.1634 5.96696 13.1673 5.96696C13.1712 5.96696 13.1751 5.96696 13.179 5.96696C13.1829 5.96696 13.1868 5.96696 13.1907 5.96696C13.1946 5.96696 13.1985 5.96696 13.2024 5.96696C13.2063 5.96696 13.2102 5.96696 13.2141 5.96696C13.218 5.96696 13.2219 5.96696 13.2258 5.96696C13.2297 5.96696 13.2336 5.96696 13.2375 5.96696C13.2414 5.96696 13.2452 5.96696 13.2491 5.96696C13.253 5.96696 13.2569 5.96696 13.2608 5.96696C13.2647 5.96696 13.2686 5.96696 13.2725 5.96696C13.2764 5.96696 13.2803 5.96696 13.2842 5.96696C13.2881 5.96696 13.292 5.96696 13.2959 5.96696C13.2998 5.96696 13.3037 5.96696 13.3076 5.96696C13.3115 5.96696 13.3154 5.96696 13.3193 5.96696C13.3232 5.96696 13.3271 5.96696 13.331 5.96696C13.3349 5.96696 13.3388 5.96696 13.3427 5.96696C13.3466 5.96696 13.3505 5.96696 13.3544 5.96696C13.3583 5.96696 13.3622 5.96696 13.3661 5.96696C13.37 5.96696 13.3739 5.96696 13.3778 5.96696C13.3817 5.96696 13.3856 5.96696 13.3895 5.96696C13.3934 5.96696 13.3973 5.96696 13.4012 5.96696C13.4051 5.96696 13.409 5.96696 13.4129 5.96696C13.4168 5.96696 13.4207 5.96696 13.4246 5.96696C13.4285 5.96696 13.4324 5.96696 13.4363 5.96696C13.4402 5.96696 13.4441 5.96696 13.448 5.96696C13.4519 5.96696 13.4558 5.96696 13.4597 5.96696C13.4636 5.96696 13.4675 5.96696 13.4714 5.96696C13.4753 5.96696 13.4792 5.96696 13.4831 5.96696C13.487 5.96696 13.4909 5.96696 13.4948 5.96696C13.4987 5.96696 13.5026 5.96696 13.5065 5.96696C13.5104 5.96696 13.5143 5.96696 13.5182 5.96696C13.5221 5.96696 13.526 5.96696 13.5299 5.96696C13.5338 5.96696 13.5377 5.96696 13.5416 5.96696C13.5455 5.96696 13.5494 5.96696 13.5533 5.96696C13.5572 5.96696 13.5611 5.96696 13.565 5.96696C13.5689 5.96696 13.5728 5.96696 13.5767 5.96696C13.5806 5.96696 13.5846 5.96696 13.5885 5.96696C13.5924 5.96696 13.5963 5.96696 13.6002 5.96696C13.6041 5.96696 13.608 5.96696 13.6119 5.96696C13.6158 5.96696 13.6197 5.96696 13.6236 5.96696C13.6275 5.96696 13.6314 5.96696 13.6353 5.96696C13.6392 5.96696 13.6431 5.96696 13.647 5.96696C13.6509 5.96696 13.6548 5.96696 13.6587 5.96696C13.6626 5.96696 13.6665 5.96696 13.6704 5.96696C13.6743 5.96696 13.6783 5.96696 13.6822 5.96696C13.6861 5.96696 13.69 5.96696 13.6939 5.96696C13.6978 5.96696 13.7017 5.96696 13.7056 5.96696C13.7095 5.96696 13.7134 5.96696 13.7173 5.96696C13.7212 5.96696 13.7251 5.96696 13.729 5.96696C13.7329 5.96696 13.7368 5.96696 13.7407 5.96696C13.7446 5.96696 13.7486 5.96696 13.7525 5.96696C13.7564 5.96696 13.7603 5.96696 13.7642 5.96696C13.7681 5.96696 13.772 5.96696 13.7759 5.96696C13.7798 5.96696 13.7837 5.96696 13.7876 5.96696C13.7915 5.96696 13.7954 5.96696 13.7993 5.96696C13.8033 5.96696 13.8072 5.96696 13.8111 5.96696C13.815 5.96696 13.8189 5.96696 13.8228 5.96696C13.8267 5.96696 13.8306 5.96696 13.8345 5.96696C13.8384 5.96696 13.8423 5.96696 13.8462 5.96696C13.8502 5.96696 13.8541 5.96696 13.858 5.96696C13.8619 5.96696 13.8658 5.96696 13.8697 5.96696C13.8736 5.96696 13.8775 5.96696 13.8814 5.96696C13.8853 5.96696 13.8893 5.96696 13.8932 5.96696C13.8971 5.96696 13.901 5.96696 13.9049 5.96696C13.9088 5.96696 13.9127 5.96696 13.9166 5.96696C13.9205 5.96696 13.9244 5.96696 13.9284 5.96696C13.9323 5.96696 13.9362 5.96696 13.9401 5.96696C13.944 5.96696 13.9479 5.96696 13.9518 5.96696C13.9557 5.96696 13.9596 5.96696 13.9636 5.96696C13.9675 5.96696 13.9714 5.96696 13.9753 5.96696C13.9792 5.96696 13.9831 5.96696 13.987 5.96696C13.9909 5.96696 13.9949 5.96696 13.9988 5.96696C14.0027 5.96696 14.0066 5.96696 14.0105 5.96696C14.0144 5.96696 14.0183 5.96696 14.0222 5.96696C14.0262 5.96696 14.0301 5.96696 14.034 5.96696C14.0379 5.96696 14.0418 5.96696 14.0457 5.96696C14.0496 5.96696 14.0536 5.96696 14.0575 5.96696C14.0614 5.96696 14.0653 5.96696 14.0692 5.96696C14.0731 5.96696 14.077 5.96696 14.081 5.96696C14.0849 5.96696 14.0888 5.96696 14.0927 5.96696C14.0966 5.96696 14.1005 5.96696 14.1044 5.96696C14.1084 5.96696 14.1123 5.96696 14.1162 5.96696C14.1201 5.96696 14.124 5.96696 14.1279 5.96696C14.1318 5.96696 14.1358 5.96696 14.1397 5.96696C14.1436 5.96696 14.1475 5.96696 14.1514 5.96696C14.1553 5.96696 14.1593 5.96696 14.1632 5.96696C14.1671 5.96696 14.171 5.96696 14.1749 5.96696C14.1788 5.96696 14.1828 5.96696 14.1867 5.96696C14.1906 5.96696 14.1945 5.96696 14.1984 5.96696C14.2024 5.96696 14.2063 5.96696 14.2102 5.96696C14.2141 5.96696 14.218 5.96696 14.2219 5.96696C14.2259 5.96696 14.2298 5.96696 14.2337 5.96696C14.2376 5.96696 14.2415 5.96696 14.2455 5.96696C14.2494 5.96696 14.2533 5.96696 14.2572 5.96696C14.2611 5.96696 14.2651 5.96696 14.269 5.96696C14.2729 5.96696 14.2768 5.96696 14.2807 5.96696C14.2847 5.96696 14.2886 5.96696 14.2925 5.96696C14.2964 5.96696 14.3003 5.96696 14.3043 5.96696C14.3082 5.96696 14.3121 5.96696 14.316 5.96696C14.3199 5.96696 14.3239 5.96696 14.3278 5.96696C14.3317 5.96696 14.3356 5.96696 14.3395 5.96696C14.3435 5.96696 14.3474 5.96696 14.3513 5.96696C14.3552 5.96696 14.3592 5.96696 14.3631 5.96696C14.367 5.96696 14.3709 5.96696 14.3749 5.96696C14.3788 5.96696 14.3827 5.96696 14.3866 5.96696C14.3905 5.96696 14.3945 5.96696 14.3984 5.96696C14.4023 5.96696 14.4062 5.96696 14.4102 5.96696C14.4141 5.96696 14.418 5.96696 14.4219 5.96696C14.4259 5.96696 14.4298 5.96696 14.4337 5.96696C14.4376 5.96696 14.4416 5.96696 14.4455 5.96696C14.4494 5.96696 14.4533 5.96696 14.4573 5.96696C14.4612 5.96696 14.4651 5.96696 14.469 5.96696C14.473 5.96696 14.4769 5.96696 14.4808 5.96696C14.4847 5.96696 14.4887 5.96696 14.4926 5.96696C14.4965 5.96696 14.5004 5.96696 14.5044 5.96696C14.5083 5.96696 14.5122 5.96696 14.5162 5.96696C14.5201 5.96696 14.524 5.96696 14.5279 5.96696C14.5319 5.96696 14.5358 5.96696 14.5397 5.96696C14.5436 5.96696 14.5476 5.96696 14.5515 5.96696C14.5554 5.96696 14.5594 5.96696 14.5633 5.96696C14.5672 5.96696 14.5711 5.96696 14.5751 5.96696C14.579 5.96696 14.5829 5.96696 14.5869 5.96696C14.5908 5.96696 14.5947 5.96696 14.5987 5.96696C14.6026 5.96696 14.6065 5.96696 14.6104 5.96696C14.6144 5.96696 14.6183 5.96696 14.6222 5.96696C14.6262 5.96696 14.6301 5.96696 14.634 5.96696C14.638 5.96696 14.6419 5.96696 14.6458 5.96696C14.6497 5.96696 14.6537 5.96696 14.6576 5.96696C14.6615 5.96696 14.6655 5.96696 14.6694 5.96696C14.6733 5.96696 14.6773 5.96696 14.6812 5.96696C14.6851 5.96696 14.6891 5.96696 14.693 5.96696C14.6969 5.96696 14.7009 5.96696 14.7048 5.96696C14.7087 5.96696 14.7127 5.96696 14.7166 5.96696C14.7205 5.96696 14.7245 5.96696 14.7284 5.96696C14.7323 5.96696 14.7363 5.96696 14.7402 5.96696C14.7441 5.96696 14.7481 5.96696 14.752 5.96696C14.7559 5.96696 14.7599 5.96696 14.7638 5.96696C14.7678 5.96696 14.7717 5.96696 14.7756 5.96696C14.7796 5.96696 14.7835 5.96696 14.7874 5.96696C14.7914 5.96696 14.7953 5.96696 14.7992 5.96696C14.8032 5.96696 14.8071 5.96696 14.8111 5.96696C14.815 5.96696 14.8189 5.96696 14.8229 5.96696C14.8268 5.96696 14.8307 5.96696 14.8347 5.96696C14.8386 5.96696 14.8426 5.96696 14.8465 5.96696C14.8504 5.96696 14.8544 5.96696 14.8583 5.96696C14.8622 5.96696 14.8662 5.96696 14.8701 5.96696C14.8741 5.96696 14.878 5.96696 14.8819 5.96696C14.8859 5.96696 14.8898 5.96696 14.8938 5.96696C14.8977 5.96696 14.9016 5.96696 14.9056 5.96696C14.9095 5.96696 14.9135 5.96696 14.9174 5.96696C14.9213 5.96696 14.9253 5.96696 14.9292 5.96696C14.9332 5.96696 14.9371 5.96696 14.9411 5.96696C14.945 5.96696 14.9489 5.96696 14.9529 5.96696C14.9568 5.96696 14.9608 5.96696 14.9647 5.96696C14.9686 5.96696 14.9726 5.96696 14.9765 5.96696C14.9805 5.96696 14.9844 5.96696 14.9884 5.96696C14.9923 5.96696 14.9963 5.96696 15.0002 5.96696V4.76696C14.9963 4.76696 14.9923 4.76696 14.9884 4.76696C14.9844 4.76696 14.9805 4.76696 14.9765 4.76696C14.9726 4.76696 14.9686 4.76696 14.9647 4.76696C14.9608 4.76696 14.9568 4.76696 14.9529 4.76696C14.9489 4.76696 14.945 4.76696 14.9411 4.76696C14.9371 4.76696 14.9332 4.76696 14.9292 4.76696C14.9253 4.76696 14.9213 4.76696 14.9174 4.76696C14.9135 4.76696 14.9095 4.76696 14.9056 4.76696C14.9016 4.76696 14.8977 4.76696 14.8938 4.76696C14.8898 4.76696 14.8859 4.76696 14.8819 4.76696C14.878 4.76696 14.8741 4.76696 14.8701 4.76696C14.8662 4.76696 14.8622 4.76696 14.8583 4.76696C14.8544 4.76696 14.8504 4.76696 14.8465 4.76696C14.8426 4.76696 14.8386 4.76696 14.8347 4.76696C14.8307 4.76696 14.8268 4.76696 14.8229 4.76696C14.8189 4.76696 14.815 4.76696 14.8111 4.76696C14.8071 4.76696 14.8032 4.76696 14.7992 4.76696C14.7953 4.76696 14.7914 4.76696 14.7874 4.76696C14.7835 4.76696 14.7796 4.76696 14.7756 4.76696C14.7717 4.76696 14.7678 4.76696 14.7638 4.76696C14.7599 4.76696 14.7559 4.76696 14.752 4.76696C14.7481 4.76696 14.7441 4.76696 14.7402 4.76696C14.7363 4.76696 14.7323 4.76696 14.7284 4.76696C14.7245 4.76696 14.7205 4.76696 14.7166 4.76696C14.7127 4.76696 14.7087 4.76696 14.7048 4.76696C14.7009 4.76696 14.6969 4.76696 14.693 4.76696C14.6891 4.76696 14.6851 4.76696 14.6812 4.76696C14.6773 4.76696 14.6733 4.76696 14.6694 4.76696C14.6655 4.76696 14.6615 4.76696 14.6576 4.76696C14.6537 4.76696 14.6497 4.76696 14.6458 4.76696C14.6419 4.76696 14.638 4.76696 14.634 4.76696C14.6301 4.76696 14.6262 4.76696 14.6222 4.76696C14.6183 4.76696 14.6144 4.76696 14.6104 4.76696C14.6065 4.76696 14.6026 4.76696 14.5987 4.76696C14.5947 4.76696 14.5908 4.76696 14.5869 4.76696C14.5829 4.76696 14.579 4.76696 14.5751 4.76696C14.5711 4.76696 14.5672 4.76696 14.5633 4.76696C14.5594 4.76696 14.5554 4.76696 14.5515 4.76696C14.5476 4.76696 14.5436 4.76696 14.5397 4.76696C14.5358 4.76696 14.5319 4.76696 14.5279 4.76696C14.524 4.76696 14.5201 4.76696 14.5162 4.76696C14.5122 4.76696 14.5083 4.76696 14.5044 4.76696C14.5004 4.76696 14.4965 4.76696 14.4926 4.76696C14.4887 4.76696 14.4847 4.76696 14.4808 4.76696C14.4769 4.76696 14.473 4.76696 14.469 4.76696C14.4651 4.76696 14.4612 4.76696 14.4573 4.76696C14.4533 4.76696 14.4494 4.76696 14.4455 4.76696C14.4416 4.76696 14.4376 4.76696 14.4337 4.76696C14.4298 4.76696 14.4259 4.76696 14.4219 4.76696C14.418 4.76696 14.4141 4.76696 14.4102 4.76696C14.4062 4.76696 14.4023 4.76696 14.3984 4.76696C14.3945 4.76696 14.3905 4.76696 14.3866 4.76696C14.3827 4.76696 14.3788 4.76696 14.3749 4.76696C14.3709 4.76696 14.367 4.76696 14.3631 4.76696C14.3592 4.76696 14.3552 4.76696 14.3513 4.76696C14.3474 4.76696 14.3435 4.76696 14.3395 4.76696C14.3356 4.76696 14.3317 4.76696 14.3278 4.76696C14.3239 4.76696 14.3199 4.76696 14.316 4.76696C14.3121 4.76696 14.3082 4.76696 14.3043 4.76696C14.3003 4.76696 14.2964 4.76696 14.2925 4.76696C14.2886 4.76696 14.2847 4.76696 14.2807 4.76696C14.2768 4.76696 14.2729 4.76696 14.269 4.76696C14.2651 4.76696 14.2611 4.76696 14.2572 4.76696C14.2533 4.76696 14.2494 4.76696 14.2455 4.76696C14.2415 4.76696 14.2376 4.76696 14.2337 4.76696C14.2298 4.76696 14.2259 4.76696 14.2219 4.76696C14.218 4.76696 14.2141 4.76696 14.2102 4.76696C14.2063 4.76696 14.2024 4.76696 14.1984 4.76696C14.1945 4.76696 14.1906 4.76696 14.1867 4.76696C14.1828 4.76696 14.1788 4.76696 14.1749 4.76696C14.171 4.76696 14.1671 4.76696 14.1632 4.76696C14.1593 4.76696 14.1553 4.76696 14.1514 4.76696C14.1475 4.76696 14.1436 4.76696 14.1397 4.76696C14.1358 4.76696 14.1318 4.76696 14.1279 4.76696C14.124 4.76696 14.1201 4.76696 14.1162 4.76696C14.1123 4.76696 14.1084 4.76696 14.1044 4.76696C14.1005 4.76696 14.0966 4.76696 14.0927 4.76696C14.0888 4.76696 14.0849 4.76696 14.081 4.76696C14.077 4.76696 14.0731 4.76696 14.0692 4.76696C14.0653 4.76696 14.0614 4.76696 14.0575 4.76696C14.0536 4.76696 14.0496 4.76696 14.0457 4.76696C14.0418 4.76696 14.0379 4.76696 14.034 4.76696C14.0301 4.76696 14.0262 4.76696 14.0222 4.76696C14.0183 4.76696 14.0144 4.76696 14.0105 4.76696C14.0066 4.76696 14.0027 4.76696 13.9988 4.76696C13.9949 4.76696 13.9909 4.76696 13.987 4.76696C13.9831 4.76696 13.9792 4.76696 13.9753 4.76696C13.9714 4.76696 13.9675 4.76696 13.9636 4.76696C13.9596 4.76696 13.9557 4.76696 13.9518 4.76696C13.9479 4.76696 13.944 4.76696 13.9401 4.76696C13.9362 4.76696 13.9323 4.76696 13.9284 4.76696C13.9244 4.76696 13.9205 4.76696 13.9166 4.76696C13.9127 4.76696 13.9088 4.76696 13.9049 4.76696C13.901 4.76696 13.8971 4.76696 13.8932 4.76696C13.8893 4.76696 13.8853 4.76696 13.8814 4.76696C13.8775 4.76696 13.8736 4.76696 13.8697 4.76696C13.8658 4.76696 13.8619 4.76696 13.858 4.76696C13.8541 4.76696 13.8502 4.76696 13.8462 4.76696C13.8423 4.76696 13.8384 4.76696 13.8345 4.76696C13.8306 4.76696 13.8267 4.76696 13.8228 4.76696C13.8189 4.76696 13.815 4.76696 13.8111 4.76696C13.8072 4.76696 13.8033 4.76696 13.7993 4.76696C13.7954 4.76696 13.7915 4.76696 13.7876 4.76696C13.7837 4.76696 13.7798 4.76696 13.7759 4.76696C13.772 4.76696 13.7681 4.76696 13.7642 4.76696C13.7603 4.76696 13.7564 4.76696 13.7525 4.76696C13.7486 4.76696 13.7446 4.76696 13.7407 4.76696C13.7368 4.76696 13.7329 4.76696 13.729 4.76696C13.7251 4.76696 13.7212 4.76696 13.7173 4.76696C13.7134 4.76696 13.7095 4.76696 13.7056 4.76696C13.7017 4.76696 13.6978 4.76696 13.6939 4.76696C13.69 4.76696 13.6861 4.76696 13.6822 4.76696C13.6783 4.76696 13.6743 4.76696 13.6704 4.76696C13.6665 4.76696 13.6626 4.76696 13.6587 4.76696C13.6548 4.76696 13.6509 4.76696 13.647 4.76696C13.6431 4.76696 13.6392 4.76696 13.6353 4.76696C13.6314 4.76696 13.6275 4.76696 13.6236 4.76696C13.6197 4.76696 13.6158 4.76696 13.6119 4.76696C13.608 4.76696 13.6041 4.76696 13.6002 4.76696C13.5963 4.76696 13.5924 4.76696 13.5885 4.76696C13.5846 4.76696 13.5806 4.76696 13.5767 4.76696C13.5728 4.76696 13.5689 4.76696 13.565 4.76696C13.5611 4.76696 13.5572 4.76696 13.5533 4.76696C13.5494 4.76696 13.5455 4.76696 13.5416 4.76696C13.5377 4.76696 13.5338 4.76696 13.5299 4.76696C13.526 4.76696 13.5221 4.76696 13.5182 4.76696C13.5143 4.76696 13.5104 4.76696 13.5065 4.76696C13.5026 4.76696 13.4987 4.76696 13.4948 4.76696C13.4909 4.76696 13.487 4.76696 13.4831 4.76696C13.4792 4.76696 13.4753 4.76696 13.4714 4.76696C13.4675 4.76696 13.4636 4.76696 13.4597 4.76696C13.4558 4.76696 13.4519 4.76696 13.448 4.76696C13.4441 4.76696 13.4402 4.76696 13.4363 4.76696C13.4324 4.76696 13.4285 4.76696 13.4246 4.76696C13.4207 4.76696 13.4168 4.76696 13.4129 4.76696C13.409 4.76696 13.4051 4.76696 13.4012 4.76696C13.3973 4.76696 13.3934 4.76696 13.3895 4.76696C13.3856 4.76696 13.3817 4.76696 13.3778 4.76696C13.3739 4.76696 13.37 4.76696 13.3661 4.76696C13.3622 4.76696 13.3583 4.76696 13.3544 4.76696C13.3505 4.76696 13.3466 4.76696 13.3427 4.76696C13.3388 4.76696 13.3349 4.76696 13.331 4.76696C13.3271 4.76696 13.3232 4.76696 13.3193 4.76696C13.3154 4.76696 13.3115 4.76696 13.3076 4.76696C13.3037 4.76696 13.2998 4.76696 13.2959 4.76696C13.292 4.76696 13.2881 4.76696 13.2842 4.76696C13.2803 4.76696 13.2764 4.76696 13.2725 4.76696C13.2686 4.76696 13.2647 4.76696 13.2608 4.76696C13.2569 4.76696 13.253 4.76696 13.2491 4.76696C13.2452 4.76696 13.2414 4.76696 13.2375 4.76696C13.2336 4.76696 13.2297 4.76696 13.2258 4.76696C13.2219 4.76696 13.218 4.76696 13.2141 4.76696C13.2102 4.76696 13.2063 4.76696 13.2024 4.76696C13.1985 4.76696 13.1946 4.76696 13.1907 4.76696C13.1868 4.76696 13.1829 4.76696 13.179 4.76696C13.1751 4.76696 13.1712 4.76696 13.1673 4.76696C13.1634 4.76696 13.1595 4.76696 13.1556 4.76696C13.1517 4.76696 13.1478 4.76696 13.1439 4.76696C13.14 4.76696 13.1362 4.76696 13.1323 4.76696C13.1284 4.76696 13.1245 4.76696 13.1206 4.76696C13.1167 4.76696 13.1128 4.76696 13.1089 4.76696C13.105 4.76696 13.1011 4.76696 13.0972 4.76696C13.0933 4.76696 13.0894 4.76696 13.0855 4.76696C13.0816 4.76696 13.0777 4.76696 13.0738 4.76696C13.0699 4.76696 13.066 4.76696 13.0621 4.76696C13.0583 4.76696 13.0544 4.76696 13.0505 4.76696C13.0466 4.76696 13.0427 4.76696 13.0388 4.76696C13.0349 4.76696 13.031 4.76696 13.0271 4.76696C13.0232 4.76696 13.0193 4.76696 13.0154 4.76696C13.0115 4.76696 13.0076 4.76696 13.0037 4.76696C12.9998 4.76696 12.996 4.76696 12.9921 4.76696C12.9882 4.76696 12.9843 4.76696 12.9804 4.76696C12.9765 4.76696 12.9726 4.76696 12.9687 4.76696C12.9648 4.76696 12.9609 4.76696 12.957 4.76696C12.9531 4.76696 12.9492 4.76696 12.9453 4.76696C12.9414 4.76696 12.9376 4.76696 12.9337 4.76696C12.9298 4.76696 12.9259 4.76696 12.922 4.76696C12.9181 4.76696 12.9142 4.76696 12.9103 4.76696C12.9064 4.76696 12.9025 4.76696 12.8986 4.76696C12.8947 4.76696 12.8908 4.76696 12.8869 4.76696C12.8831 4.76696 12.8792 4.76696 12.8753 4.76696C12.8714 4.76696 12.8675 4.76696 12.8636 4.76696C12.8597 4.76696 12.8558 4.76696 12.8519 4.76696C12.848 4.76696 12.8441 4.76696 12.8402 4.76696C12.8364 4.76696 12.8325 4.76696 12.8286 4.76696C12.8247 4.76696 12.8208 4.76696 12.8169 4.76696C12.813 4.76696 12.8091 4.76696 12.8052 4.76696C12.8013 4.76696 12.7974 4.76696 12.7935 4.76696C12.7897 4.76696 12.7858 4.76696 12.7819 4.76696C12.778 4.76696 12.7741 4.76696 12.7702 4.76696C12.7663 4.76696 12.7624 4.76696 12.7585 4.76696C12.7546 4.76696 12.7507 4.76696 12.7469 4.76696C12.743 4.76696 12.7391 4.76696 12.7352 4.76696C12.7313 4.76696 12.7274 4.76696 12.7235 4.76696C12.7196 4.76696 12.7157 4.76696 12.7118 4.76696C12.7079 4.76696 12.7041 4.76696 12.7002 4.76696C12.6963 4.76696 12.6924 4.76696 12.6885 4.76696C12.6846 4.76696 12.6807 4.76696 12.6768 4.76696C12.6729 4.76696 12.669 4.76696 12.6652 4.76696C12.6613 4.76696 12.6574 4.76696 12.6535 4.76696C12.6496 4.76696 12.6457 4.76696 12.6418 4.76696C12.6379 4.76696 12.634 4.76696 12.6301 4.76696C12.6263 4.76696 12.6224 4.76696 12.6185 4.76696C12.6146 4.76696 12.6107 4.76696 12.6068 4.76696C12.6029 4.76696 12.599 4.76696 12.5951 4.76696C12.5912 4.76696 12.5874 4.76696 12.5835 4.76696C12.5796 4.76696 12.5757 4.76696 12.5718 4.76696C12.5679 4.76696 12.564 4.76696 12.5601 4.76696C12.5562 4.76696 12.5524 4.76696 12.5485 4.76696C12.5446 4.76696 12.5407 4.76696 12.5368 4.76696C12.5329 4.76696 12.529 4.76696 12.5251 4.76696C12.5212 4.76696 12.5173 4.76696 12.5135 4.76696C12.5096 4.76696 12.5057 4.76696 12.5018 4.76696C12.4979 4.76696 12.494 4.76696 12.4901 4.76696C12.4862 4.76696 12.4823 4.76696 12.4785 4.76696C12.4746 4.76696 12.4707 4.76696 12.4668 4.76696C12.4629 4.76696 12.459 4.76696 12.4551 4.76696C12.4512 4.76696 12.4473 4.76696 12.4435 4.76696C12.4396 4.76696 12.4357 4.76696 12.4318 4.76696C12.4279 4.76696 12.424 4.76696 12.4201 4.76696C12.4162 4.76696 12.4124 4.76696 12.4085 4.76696C12.4046 4.76696 12.4007 4.76696 12.3968 4.76696C12.3929 4.76696 12.389 4.76696 12.3851 4.76696C12.3812 4.76696 12.3774 4.76696 12.3735 4.76696C12.3696 4.76696 12.3657 4.76696 12.3618 4.76696C12.3579 4.76696 12.354 4.76696 12.3501 4.76696C12.3463 4.76696 12.3424 4.76696 12.3385 4.76696C12.3346 4.76696 12.3307 4.76696 12.3268 4.76696C12.3229 4.76696 12.319 4.76696 12.3151 4.76696C12.3113 4.76696 12.3074 4.76696 12.3035 4.76696C12.2996 4.76696 12.2957 4.76696 12.2918 4.76696C12.2879 4.76696 12.284 4.76696 12.2802 4.76696C12.2763 4.76696 12.2724 4.76696 12.2685 4.76696C12.2646 4.76696 12.2607 4.76696 12.2568 4.76696C12.2529 4.76696 12.2491 4.76696 12.2452 4.76696C12.2413 4.76696 12.2374 4.76696 12.2335 4.76696C12.2296 4.76696 12.2257 4.76696 12.2218 4.76696C12.218 4.76696 12.2141 4.76696 12.2102 4.76696C12.2063 4.76696 12.2024 4.76696 12.1985 4.76696C12.1946 4.76696 12.1907 4.76696 12.1869 4.76696C12.183 4.76696 12.1791 4.76696 12.1752 4.76696C12.1713 4.76696 12.1674 4.76696 12.1635 4.76696C12.1596 4.76696 12.1557 4.76696 12.1519 4.76696C12.148 4.76696 12.1441 4.76696 12.1402 4.76696C12.1363 4.76696 12.1324 4.76696 12.1285 4.76696C12.1246 4.76696 12.1208 4.76696 12.1169 4.76696C12.113 4.76696 12.1091 4.76696 12.1052 4.76696C12.1013 4.76696 12.0974 4.76696 12.0935 4.76696C12.0897 4.76696 12.0858 4.76696 12.0819 4.76696C12.078 4.76696 12.0741 4.76696 12.0702 4.76696C12.0663 4.76696 12.0625 4.76696 12.0586 4.76696C12.0547 4.76696 12.0508 4.76696 12.0469 4.76696C12.043 4.76696 12.0391 4.76696 12.0352 4.76696C12.0314 4.76696 12.0275 4.76696 12.0236 4.76696C12.0197 4.76696 12.0158 4.76696 12.0119 4.76696C12.008 4.76696 12.0041 4.76696 12.0003 4.76696C11.9964 4.76696 11.9925 4.76696 11.9886 4.76696C11.9847 4.76696 11.9808 4.76696 11.9769 4.76696C11.973 4.76696 11.9692 4.76696 11.9653 4.76696C11.9614 4.76696 11.9575 4.76696 11.9536 4.76696C11.9497 4.76696 11.9458 4.76696 11.9419 4.76696C11.9381 4.76696 11.9342 4.76696 11.9303 4.76696C11.9264 4.76696 11.9225 4.76696 11.9186 4.76696C11.9147 4.76696 11.9108 4.76696 11.907 4.76696C11.9031 4.76696 11.8992 4.76696 11.8953 4.76696C11.8914 4.76696 11.8875 4.76696 11.8836 4.76696C11.8797 4.76696 11.8759 4.76696 11.872 4.76696C11.8681 4.76696 11.8642 4.76696 11.8603 4.76696C11.8564 4.76696 11.8525 4.76696 11.8486 4.76696C11.8448 4.76696 11.8409 4.76696 11.837 4.76696C11.8331 4.76696 11.8292 4.76696 11.8253 4.76696C11.8214 4.76696 11.8175 4.76696 11.8137 4.76696C11.8098 4.76696 11.8059 4.76696 11.802 4.76696C11.7981 4.76696 11.7942 4.76696 11.7903 4.76696C11.7864 4.76696 11.7826 4.76696 11.7787 4.76696C11.7748 4.76696 11.7709 4.76696 11.767 4.76696C11.7631 4.76696 11.7592 4.76696 11.7553 4.76696C11.7514 4.76696 11.7476 4.76696 11.7437 4.76696C11.7398 4.76696 11.7359 4.76696 11.732 4.76696C11.7281 4.76696 11.7242 4.76696 11.7203 4.76696C11.7165 4.76696 11.7126 4.76696 11.7087 4.76696C11.7048 4.76696 11.7009 4.76696 11.697 4.76696C11.6931 4.76696 11.6892 4.76696 11.6854 4.76696C11.6815 4.76696 11.6776 4.76696 11.6737 4.76696C11.6698 4.76696 11.6659 4.76696 11.662 4.76696C11.6581 4.76696 11.6542 4.76696 11.6504 4.76696C11.6465 4.76696 11.6426 4.76696 11.6387 4.76696C11.6348 4.76696 11.6309 4.76696 11.627 4.76696C11.6231 4.76696 11.6193 4.76696 11.6154 4.76696C11.6115 4.76696 11.6076 4.76696 11.6037 4.76696C11.5998 4.76696 11.5959 4.76696 11.592 4.76696C11.5881 4.76696 11.5843 4.76696 11.5804 4.76696C11.5765 4.76696 11.5726 4.76696 11.5687 4.76696C11.5648 4.76696 11.5609 4.76696 11.557 4.76696C11.5531 4.76696 11.5493 4.76696 11.5454 4.76696C11.5415 4.76696 11.5376 4.76696 11.5337 4.76696C11.5298 4.76696 11.5259 4.76696 11.522 4.76696C11.5181 4.76696 11.5143 4.76696 11.5104 4.76696C11.5065 4.76696 11.5026 4.76696 11.4987 4.76696C11.4948 4.76696 11.4909 4.76696 11.487 4.76696C11.4831 4.76696 11.4793 4.76696 11.4754 4.76696C11.4715 4.76696 11.4676 4.76696 11.4637 4.76696C11.4598 4.76696 11.4559 4.76696 11.452 4.76696C11.4481 4.76696 11.4443 4.76696 11.4404 4.76696C11.4365 4.76696 11.4326 4.76696 11.4287 4.76696C11.4248 4.76696 11.4209 4.76696 11.417 4.76696C11.4131 4.76696 11.4092 4.76696 11.4054 4.76696C11.4015 4.76696 11.3976 4.76696 11.3937 4.76696C11.3898 4.76696 11.3859 4.76696 11.382 4.76696C11.3781 4.76696 11.3742 4.76696 11.3703 4.76696C11.3665 4.76696 11.3626 4.76696 11.3587 4.76696C11.3548 4.76696 11.3509 4.76696 11.347 4.76696C11.3431 4.76696 11.3392 4.76696 11.3353 4.76696C11.3314 4.76696 11.3276 4.76696 11.3237 4.76696C11.3198 4.76696 11.3159 4.76696 11.312 4.76696C11.3081 4.76696 11.3042 4.76696 11.3003 4.76696C11.2964 4.76696 11.2925 4.76696 11.2887 4.76696C11.2848 4.76696 11.2809 4.76696 11.277 4.76696C11.2731 4.76696 11.2692 4.76696 11.2653 4.76696C11.2614 4.76696 11.2575 4.76696 11.2536 4.76696C11.2497 4.76696 11.2459 4.76696 11.242 4.76696C11.2381 4.76696 11.2342 4.76696 11.2303 4.76696C11.2264 4.76696 11.2225 4.76696 11.2186 4.76696C11.2147 4.76696 11.2108 4.76696 11.2069 4.76696C11.203 4.76696 11.1992 4.76696 11.1953 4.76696C11.1914 4.76696 11.1875 4.76696 11.1836 4.76696C11.1797 4.76696 11.1758 4.76696 11.1719 4.76696C11.168 4.76696 11.1641 4.76696 11.1602 4.76696C11.1563 4.76696 11.1525 4.76696 11.1486 4.76696C11.1447 4.76696 11.1408 4.76696 11.1369 4.76696C11.133 4.76696 11.1291 4.76696 11.1252 4.76696C11.1213 4.76696 11.1174 4.76696 11.1135 4.76696C11.1096 4.76696 11.1057 4.76696 11.1019 4.76696C11.098 4.76696 11.0941 4.76696 11.0902 4.76696C11.0863 4.76696 11.0824 4.76696 11.0785 4.76696C11.0746 4.76696 11.0707 4.76696 11.0668 4.76696C11.0629 4.76696 11.059 4.76696 11.0551 4.76696C11.0512 4.76696 11.0473 4.76696 11.0435 4.76696C11.0396 4.76696 11.0357 4.76696 11.0318 4.76696C11.0279 4.76696 11.024 4.76696 11.0201 4.76696C11.0162 4.76696 11.0123 4.76696 11.0084 4.76696C11.0045 4.76696 11.0006 4.76696 10.9967 4.76696C10.9928 4.76696 10.9889 4.76696 10.985 4.76696C10.9812 4.76696 10.9773 4.76696 10.9734 4.76696C10.9695 4.76696 10.9656 4.76696 10.9617 4.76696C10.9578 4.76696 10.9539 4.76696 10.95 4.76696C10.9461 4.76696 10.9422 4.76696 10.9383 4.76696C10.9344 4.76696 10.9305 4.76696 10.9266 4.76696C10.9227 4.76696 10.9188 4.76696 10.9149 4.76696C10.9111 4.76696 10.9072 4.76696 10.9033 4.76696C10.8994 4.76696 10.8955 4.76696 10.8916 4.76696C10.8877 4.76696 10.8838 4.76696 10.8799 4.76696C10.876 4.76696 10.8721 4.76696 10.8682 4.76696C10.8643 4.76696 10.8604 4.76696 10.8565 4.76696C10.8526 4.76696 10.8487 4.76696 10.8448 4.76696C10.8409 4.76696 10.837 4.76696 10.8331 4.76696C10.8292 4.76696 10.8253 4.76696 10.8214 4.76696C10.8176 4.76696 10.8137 4.76696 10.8098 4.76696C10.8059 4.76696 10.802 4.76696 10.7981 4.76696C10.7942 4.76696 10.7903 4.76696 10.7864 4.76696C10.7825 4.76696 10.7786 4.76696 10.7747 4.76696C10.7708 4.76696 10.7669 4.76696 10.763 4.76696C10.7591 4.76696 10.7552 4.76696 10.7513 4.76696C10.7474 4.76696 10.7435 4.76696 10.7396 4.76696C10.7357 4.76696 10.7318 4.76696 10.7279 4.76696C10.724 4.76696 10.7201 4.76696 10.7162 4.76696C10.7123 4.76696 10.7084 4.76696 10.7045 4.76696C10.7006 4.76696 10.6967 4.76696 10.6928 4.76696C10.6889 4.76696 10.685 4.76696 10.6811 4.76696C10.6772 4.76696 10.6733 4.76696 10.6694 4.76696C10.6655 4.76696 10.6616 4.76696 10.6577 4.76696C10.6538 4.76696 10.6499 4.76696 10.646 4.76696C10.6421 4.76696 10.6382 4.76696 10.6343 4.76696C10.6304 4.76696 10.6266 4.76696 10.6227 4.76696C10.6188 4.76696 10.6149 4.76696 10.611 4.76696C10.6071 4.76696 10.6032 4.76696 10.5993 4.76696C10.5954 4.76696 10.5915 4.76696 10.5876 4.76696C10.5837 4.76696 10.5797 4.76696 10.5758 4.76696C10.5719 4.76696 10.568 4.76696 10.5641 4.76696C10.5602 4.76696 10.5563 4.76696 10.5524 4.76696C10.5485 4.76696 10.5446 4.76696 10.5407 4.76696C10.5368 4.76696 10.5329 4.76696 10.529 4.76696C10.5251 4.76696 10.5212 4.76696 10.5173 4.76696C10.5134 4.76696 10.5095 4.76696 10.5056 4.76696C10.5017 4.76696 10.4978 4.76696 10.4939 4.76696C10.49 4.76696 10.4861 4.76696 10.4822 4.76696C10.4783 4.76696 10.4744 4.76696 10.4705 4.76696C10.4666 4.76696 10.4627 4.76696 10.4588 4.76696C10.4549 4.76696 10.451 4.76696 10.4471 4.76696C10.4432 4.76696 10.4393 4.76696 10.4354 4.76696C10.4315 4.76696 10.4276 4.76696 10.4237 4.76696C10.4198 4.76696 10.4159 4.76696 10.412 4.76696C10.4081 4.76696 10.4042 4.76696 10.4003 4.76696C10.3963 4.76696 10.3924 4.76696 10.3885 4.76696C10.3846 4.76696 10.3807 4.76696 10.3768 4.76696C10.3729 4.76696 10.369 4.76696 10.3651 4.76696C10.3612 4.76696 10.3573 4.76696 10.3534 4.76696C10.3495 4.76696 10.3456 4.76696 10.3417 4.76696C10.3378 4.76696 10.3339 4.76696 10.33 4.76696C10.3261 4.76696 10.3222 4.76696 10.3183 4.76696C10.3143 4.76696 10.3104 4.76696 10.3065 4.76696C10.3026 4.76696 10.2987 4.76696 10.2948 4.76696C10.2909 4.76696 10.287 4.76696 10.2831 4.76696C10.2792 4.76696 10.2753 4.76696 10.2714 4.76696C10.2675 4.76696 10.2636 4.76696 10.2597 4.76696C10.2557 4.76696 10.2518 4.76696 10.2479 4.76696C10.244 4.76696 10.2401 4.76696 10.2362 4.76696C10.2323 4.76696 10.2284 4.76696 10.2245 4.76696C10.2206 4.76696 10.2167 4.76696 10.2128 4.76696C10.2089 4.76696 10.205 4.76696 10.201 4.76696C10.1971 4.76696 10.1932 4.76696 10.1893 4.76696C10.1854 4.76696 10.1815 4.76696 10.1776 4.76696C10.1737 4.76696 10.1698 4.76696 10.1659 4.76696C10.162 4.76696 10.158 4.76696 10.1541 4.76696C10.1502 4.76696 10.1463 4.76696 10.1424 4.76696C10.1385 4.76696 10.1346 4.76696 10.1307 4.76696C10.1268 4.76696 10.1229 4.76696 10.1189 4.76696C10.115 4.76696 10.1111 4.76696 10.1072 4.76696C10.1033 4.76696 10.0994 4.76696 10.0955 4.76696C10.0916 4.76696 10.0877 4.76696 10.0838 4.76696C10.0798 4.76696 10.0759 4.76696 10.072 4.76696C10.0681 4.76696 10.0642 4.76696 10.0603 4.76696C10.0564 4.76696 10.0525 4.76696 10.0486 4.76696C10.0446 4.76696 10.0407 4.76696 10.0368 4.76696C10.0329 4.76696 10.029 4.76696 10.0251 4.76696C10.0212 4.76696 10.0173 4.76696 10.0133 4.76696C10.0094 4.76696 10.0055 4.76696 10.0016 4.76696C9.99769 4.76696 9.99378 4.76696 9.98986 4.76696C9.98595 4.76696 9.98204 4.76696 9.97812 4.76696C9.97421 4.76696 9.97029 4.76696 9.96638 4.76696C9.96247 4.76696 9.95855 4.76696 9.95464 4.76696C9.95072 4.76696 9.94681 4.76696 9.94289 4.76696C9.93898 4.76696 9.93506 4.76696 9.93115 4.76696C9.92724 4.76696 9.92332 4.76696 9.9194 4.76696C9.91549 4.76696 9.91157 4.76696 9.90766 4.76696C9.90374 4.76696 9.89983 4.76696 9.89591 4.76696C9.892 4.76696 9.88808 4.76696 9.88416 4.76696C9.88025 4.76696 9.87633 4.76696 9.87242 4.76696C9.8685 4.76696 9.86458 4.76696 9.86067 4.76696C9.85675 4.76696 9.85283 4.76696 9.84891 4.76696C9.845 4.76696 9.84108 4.76696 9.83716 4.76696C9.83325 4.76696 9.82933 4.76696 9.82541 4.76696C9.82149 4.76696 9.81757 4.76696 9.81366 4.76696C9.80974 4.76696 9.80582 4.76696 9.8019 4.76696C9.79798 4.76696 9.79406 4.76696 9.79015 4.76696C9.78623 4.76696 9.78231 4.76696 9.77839 4.76696C9.77447 4.76696 9.77055 4.76696 9.76663 4.76696C9.76271 4.76696 9.75879 4.76696 9.75487 4.76696C9.75095 4.76696 9.74703 4.76696 9.74311 4.76696C9.73919 4.76696 9.73527 4.76696 9.73135 4.76696C9.72743 4.76696 9.72351 4.76696 9.71959 4.76696C9.71567 4.76696 9.71175 4.76696 9.70783 4.76696C9.70391 4.76696 9.69999 4.76696 9.69606 4.76696C9.69214 4.76696 9.68822 4.76696 9.6843 4.76696C9.68038 4.76696 9.67646 4.76696 9.67253 4.76696C9.66861 4.76696 9.66469 4.76696 9.66077 4.76696C9.65684 4.76696 9.65292 4.76696 9.649 4.76696C9.64508 4.76696 9.64115 4.76696 9.63723 4.76696C9.63331 4.76696 9.62938 4.76696 9.62546 4.76696C9.62154 4.76696 9.61761 4.76696 9.61369 4.76696C9.60977 4.76696 9.60584 4.76696 9.60192 4.76696C9.59799 4.76696 9.59407 4.76696 9.59014 4.76696C9.58622 4.76696 9.58229 4.76696 9.57837 4.76696C9.57444 4.76696 9.57052 4.76696 9.56659 4.76696C9.56267 4.76696 9.55874 4.76696 9.55482 4.76696C9.55089 4.76696 9.54697 4.76696 9.54304 4.76696C9.53911 4.76696 9.53519 4.76696 9.53126 4.76696C9.52733 4.76696 9.52341 4.76696 9.51948 4.76696C9.51555 4.76696 9.51163 4.76696 9.5077 4.76696C9.50377 4.76696 9.49985 4.76696 9.49592 4.76696C9.49199 4.76696 9.48806 4.76696 9.48414 4.76696C9.48021 4.76696 9.47628 4.76696 9.47235 4.76696C9.46842 4.76696 9.46449 4.76696 9.46057 4.76696C9.45664 4.76696 9.45271 4.76696 9.44878 4.76696C9.44485 4.76696 9.44092 4.76696 9.43699 4.76696C9.43306 4.76696 9.42913 4.76696 9.4252 4.76696C9.42127 4.76696 9.41734 4.76696 9.41341 4.76696C9.40948 4.76696 9.40555 4.76696 9.40162 4.76696C9.39769 4.76696 9.39376 4.76696 9.38983 4.76696C9.3859 4.76696 9.38197 4.76696 9.37804 4.76696C9.37411 4.76696 9.37017 4.76696 9.36624 4.76696C9.36231 4.76696 9.35838 4.76696 9.35445 4.76696C9.35051 4.76696 9.34658 4.76696 9.34265 4.76696C9.33872 4.76696 9.33478 4.76696 9.33085 4.76696C9.32692 4.76696 9.32298 4.76696 9.31905 4.76696C9.31512 4.76696 9.31118 4.76696 9.30725 4.76696C9.30332 4.76696 9.29938 4.76696 9.29545 4.76696C9.29152 4.76696 9.28758 4.76696 9.28365 4.76696C9.27971 4.76696 9.27578 4.76696 9.27184 4.76696C9.26791 4.76696 9.26397 4.76696 9.26004 4.76696C9.2561 4.76696 9.25217 4.76696 9.24823 4.76696C9.24429 4.76696 9.24036 4.76696 9.23642 4.76696C9.23249 4.76696 9.22855 4.76696 9.22461 4.76696C9.22068 4.76696 9.21674 4.76696 9.2128 4.76696C9.20887 4.76696 9.20493 4.76696 9.20099 4.76696C9.19705 4.76696 9.19312 4.76696 9.18918 4.76696C9.18524 4.76696 9.1813 4.76696 9.17736 4.76696C9.17343 4.76696 9.16949 4.76696 9.16555 4.76696C9.16161 4.76696 9.15767 4.76696 9.15373 4.76696C9.14979 4.76696 9.14585 4.76696 9.14192 4.76696C9.13798 4.76696 9.13404 4.76696 9.1301 4.76696C9.12616 4.76696 9.12222 4.76696 9.11828 4.76696C9.11434 4.76696 9.11039 4.76696 9.10645 4.76696C9.10251 4.76696 9.09857 4.76696 9.09463 4.76696C9.09069 4.76696 9.08675 4.76696 9.08281 4.76696C9.07887 4.76696 9.07492 4.76696 9.07098 4.76696C9.06704 4.76696 9.0631 4.76696 9.05915 4.76696C9.05521 4.76696 9.05127 4.76696 9.04733 4.76696C9.04338 4.76696 9.03944 4.76696 9.0355 4.76696C9.03155 4.76696 9.02761 4.76696 9.02367 4.76696C9.01972 4.76696 9.01578 4.76696 9.01183 4.76696C9.00789 4.76696 9.00394 4.76696 9 4.76696V5.96696ZM14.9159 5.96102C16.1489 6.13594 17.3699 6.42239 18.5638 6.82035L18.9433 5.68193C17.6804 5.26097 16.3887 4.95796 15.0845 4.77291L14.9159 5.96102ZM12 3.1C12.8839 3.1 13.4645 3.35403 13.8244 3.7164C14.1859 4.08033 14.4002 4.62938 14.4002 5.36696H15.6002C15.6002 4.39812 15.3144 3.51369 14.6758 2.87074C14.0356 2.22624 13.1161 1.9 12 1.9V3.1ZM20.9 9.6C21.2771 9.6 21.62 9.2878 21.5962 8.86625L20.3981 8.93387C20.3805 8.6226 20.6333 8.4 20.9 8.4L20.9 9.6ZM3.1 8.4C3.36668 8.4 3.61945 8.6226 3.60189 8.93387L2.40379 8.86625C2.38 9.28781 2.72286 9.6 3.1 9.6L3.1 8.4Z" fill="#555770"/>
</svg>
