<svg width="24" height="24" viewBox="0 0 24 24" fill="none" xmlns="http://www.w3.org/2000/svg">
<path d="M19.9381 14.5V15.1H20.6176L20.5335 14.4258L19.9381 14.5ZM4.06189 14.5L3.4665 14.4258L3.38243 15.1H4.06189V14.5ZM12.4 6.5C12.4 6.72091 12.2209 6.9 12 6.9V8.1C12.8837 8.1 13.6 7.38366 13.6 6.5H12.4ZM12 6.9C11.7791 6.9 11.6 6.72091 11.6 6.5H10.4C10.4 7.38366 11.1163 8.1 12 8.1V6.9ZM11.6 6.5C11.6 6.27909 11.7791 6.1 12 6.1V4.9C11.1163 4.9 10.4 5.61634 10.4 6.5H11.6ZM12 6.1C12.2209 6.1 12.4 6.27909 12.4 6.5H13.6C13.6 5.61634 12.8837 4.9 12 4.9V6.1ZM12 8.1C15.7732 8.1 18.8876 10.9245 19.3427 14.5742L20.5335 14.4258C20.0044 10.1829 16.386 6.9 12 6.9V8.1ZM4.65728 14.5742C5.1124 10.9245 8.22681 8.1 12 8.1V6.9C7.61396 6.9 3.99559 10.1829 3.4665 14.4258L4.65728 14.5742ZM19.9381 13.9H4.06189V15.1H19.9381V13.9ZM2 17.6H22V16.4H2V17.6Z" fill="#555770"/>
</svg>
