<svg width="24" height="24" viewBox="0 0 24 24" fill="none" xmlns="http://www.w3.org/2000/svg">
<g clip-path="url(#clip0_402_12700)">
<path d="M2 12L2.01009 11.4001L0.950528 11.3823L1.48038 12.3L2 12ZM5.5 18.0622L4.98038 18.3622L5.51024 19.2799L6.02459 18.3534L5.5 18.0622ZM4.16506 10.75L3.86506 10.2304L3.34545 10.5304L3.64545 11.05L4.16506 10.75ZM17.5885 3L18.1081 2.7L17.8081 2.18038L17.2885 2.48038L17.5885 3ZM21.0885 9.06218L21.3885 9.58179L21.9081 9.28179L21.6081 8.76218L21.0885 9.06218ZM7.66506 16.8122L7.14545 17.1122L7.44545 17.6318L7.96506 17.3318L7.66506 16.8122ZM14.9282 20.9689L14.3282 20.9636L14.3228 21.5662L14.9255 21.5689L14.9282 20.9689ZM1.48038 12.3L4.98038 18.3622L6.01962 17.7622L2.51962 11.7L1.48038 12.3ZM6.02459 18.3534L7.43965 15.8044L6.39048 15.2219L4.97541 17.771L6.02459 18.3534ZM7.43468 15.2131L5.43468 11.749L4.39545 12.349L6.39545 15.8131L7.43468 15.2131ZM4.92516 11.4491L2.01009 11.4001L1.98991 12.5999L4.90497 12.649L4.92516 11.4491ZM5.43468 11.749L4.68468 10.45L3.64545 11.05L4.39545 12.349L5.43468 11.749ZM4.46506 11.2696L17.8885 3.51962L17.2885 2.48038L3.86506 10.2304L4.46506 11.2696ZM17.0688 3.3L20.5688 9.36218L21.6081 8.76218L18.1081 2.7L17.0688 3.3ZM20.7885 8.54256L7.36506 16.2926L7.96506 17.3318L21.3885 9.58179L20.7885 8.54256ZM8.18468 16.5122L7.43468 15.2131L6.39545 15.8131L7.14545 17.1122L8.18468 16.5122ZM15.3727 12.3622C15.8974 13.2709 15.586 14.433 14.6772 14.9576L15.2772 15.9969C16.7599 15.1408 17.268 13.2449 16.4119 11.7622L15.3727 12.3622ZM14.6772 14.9576C13.7685 15.4823 12.6065 15.1709 12.0818 14.2622L11.0426 14.8622C11.8986 16.3449 13.7945 16.8529 15.2772 15.9969L14.6772 14.9576ZM14.3773 15.4719L14.3282 20.9636L15.5282 20.9743L15.5772 15.4826L14.3773 15.4719ZM14.9255 21.5689L21.8717 21.6L21.877 20.4L14.9309 20.3689L14.9255 21.5689Z" fill="#555770"/>
</g>
<defs>
<clipPath id="clip0_402_12700">
<rect width="24" height="24" fill="white"/>
</clipPath>
</defs>
</svg>
