<svg width="24" height="24" viewBox="0 0 24 24" fill="none" xmlns="http://www.w3.org/2000/svg">
<path d="M6.50012 5.99991V5.39991H5.90012L5.90012 5.99991L6.50012 5.99991ZM8.50012 21.9999H7.90012V22.5999H8.50012V21.9999ZM17.5001 5.99991H18.1001V5.39991H17.5001V5.99991ZM15.5001 21.9999V22.5999H16.1001V21.9999H15.5001ZM7.50001 13L6.95686 13.2549L7.50001 13ZM16.5001 13L17.0432 13.2549L16.5001 13ZM6.62302 10L6.02844 10.0804L6.62302 10ZM17.3771 10L17.9717 10.0805L17.9717 10.0805L17.3771 10ZM8.50012 22.5999H15.5001V21.3999H8.50012V22.5999ZM6.95686 13.2549C7.49665 14.405 7.73988 15.8177 7.84138 17.3521C7.943 18.8883 7.90012 20.4777 7.90012 21.9999H9.10012C9.10012 20.5222 9.14386 18.8617 9.03876 17.2729C8.93354 15.6823 8.67672 14.095 8.04316 12.7451L6.95686 13.2549ZM15.9569 12.7451C15.3234 14.095 15.0666 15.6823 14.9614 17.2729C14.8563 18.8617 14.9001 20.5222 14.9001 21.9999H16.1001C16.1001 20.4777 16.0572 18.8883 16.1588 17.3521C16.2603 15.8177 16.5035 14.405 17.0432 13.2549L15.9569 12.7451ZM6.50012 6.59991H17.5001V5.39991H6.50012V6.59991ZM5.90012 5.99991C5.90012 7.32268 5.83979 8.68608 6.02844 10.0804L7.21761 9.91956C7.04317 8.63023 7.10012 7.39337 7.10012 5.99991L5.90012 5.99991ZM6.02844 10.0804C6.16619 11.0986 6.43649 12.1462 6.95686 13.2549L8.04316 12.7451C7.58127 11.761 7.34124 10.8334 7.21761 9.91956L6.02844 10.0804ZM16.9001 5.99991C16.9001 7.39335 16.957 8.63022 16.7825 9.91954L17.9717 10.0805C18.1604 8.6861 18.1001 7.32273 18.1001 5.99991H16.9001ZM16.7825 9.91954C16.6588 10.8334 16.4188 11.761 15.9569 12.7451L17.0432 13.2549C17.5636 12.1462 17.8339 11.0986 17.9717 10.0805L16.7825 9.91954ZM6.62302 10.6H12.5V9.4H6.62302V10.6ZM12.5 10.6H17.3771V9.4H12.5V10.6ZM14.4219 0.839414L11.9219 9.83941L13.0781 10.1606L15.5781 1.16059L14.4219 0.839414Z" fill="#555770"/>
</svg>
