<svg width="24" height="24" viewBox="0 0 24 24" fill="none" xmlns="http://www.w3.org/2000/svg">
<path d="M21 11L21.5959 11.0701L21.6747 10.4H21V11ZM12 17L11.4817 17.3023L12 18.1908L12.5183 17.3023L12 17ZM12 21L11.8894 21.5897L12 21.6105L12.1106 21.5897L12 21ZM3 11V10.4H2.32527L2.40411 11.0701L3 11ZM12 3.5L12.4685 3.12518L12 2.53953L11.5315 3.12518L12 3.5ZM14.5 9L14.7683 9.53666L15.1647 9.33848L15.0918 8.90136L14.5 9ZM12 11L11.5757 11.4243L12 11.8485L12.4243 11.4243L12 11ZM9.5 9L8.90816 8.90136L8.83531 9.33848L9.23167 9.53666L9.5 9ZM21 10.4C18.979 10.4 14.4016 11.6921 11.4817 16.6977L12.5183 17.3023C15.1984 12.7079 19.3543 11.6 21 11.6V10.4ZM20.4041 10.9299C20.2478 12.2583 19.6293 14.3611 18.2848 16.2666C16.9489 18.1597 14.9084 19.8442 11.8894 20.4103L12.1106 21.5897C15.4916 20.9558 17.7845 19.0569 19.2652 16.9584C20.7373 14.8722 21.4188 12.575 21.5959 11.0701L20.4041 10.9299ZM3 11.6C4.64569 11.6 8.80163 12.7079 11.4817 17.3023L12.5183 16.6977C9.59837 11.6921 5.02098 10.4 3 10.4V11.6ZM2.40411 11.0701C2.58116 12.575 3.26267 14.8722 4.73476 16.9584C6.21555 19.0569 8.50843 20.9558 11.8894 21.5897L12.1106 20.4103C9.09157 19.8442 7.05112 18.1597 5.71524 16.2666C4.37067 14.3611 3.75218 12.2583 3.59589 10.9299L2.40411 11.0701ZM11.5315 3.87482C12.1617 4.6626 13.531 6.8358 13.9082 9.09864L15.0918 8.90136C14.669 6.3642 13.1716 4.00406 12.4685 3.12518L11.5315 3.87482ZM14.2317 8.46334C13.1341 9.01211 12.5724 9.57904 11.5757 10.5757L12.4243 11.4243C13.4276 10.421 13.8659 9.98789 14.7683 9.53666L14.2317 8.46334ZM11.5315 3.12518C10.8284 4.00406 9.33102 6.3642 8.90816 8.90136L10.0918 9.09864C10.469 6.8358 11.8383 4.6626 12.4685 3.87482L11.5315 3.12518ZM9.23167 9.53666C10.1341 9.98789 10.5724 10.421 11.5757 11.4243L12.4243 10.5757C11.4276 9.57904 10.8659 9.01211 9.76833 8.46334L9.23167 9.53666Z" fill="#555770"/>
</svg>
