<svg width="24" height="24" viewBox="0 0 24 24" fill="none" xmlns="http://www.w3.org/2000/svg">
<path d="M11.2531 15.2107L11.8495 15.2759C11.8752 15.041 11.7606 14.8129 11.5568 14.6932C11.3529 14.5736 11.0979 14.5848 10.9053 14.7218L11.2531 15.2107ZM11 17.527L10.4035 17.4618L10.3309 18.127H11V17.527ZM13 17.527V18.127H13.6691L13.5964 17.4618L13 17.527ZM12.7469 15.2107L13.0946 14.7217C12.902 14.5848 12.647 14.5736 12.4432 14.6933C12.2394 14.8129 12.1247 15.041 12.1504 15.2759L12.7469 15.2107ZM7.54006 10.9544L7.1218 10.5242L7.11196 10.5337L7.10256 10.5437L7.54006 10.9544ZM12.1494 6.47301L12.5818 6.05706L12.1636 5.62232L11.7311 6.04281L12.1494 6.47301ZM16.4599 10.9544L16.8985 10.5449L16.8923 10.5384L16.4599 10.9544ZM9.60992 15.1345C8.3738 15.1345 7.37173 14.1324 7.37173 12.8963H6.17173C6.17173 14.7951 7.71106 16.3345 9.60992 16.3345V15.1345ZM16.6282 12.8963C16.6282 14.1324 15.6261 15.1345 14.39 15.1345V16.3345C16.2889 16.3345 17.8282 14.7951 17.8282 12.8963H16.6282ZM10.9053 14.7218C10.5398 14.9817 10.0936 15.1345 9.60992 15.1345V16.3345C10.351 16.3345 11.0389 16.0993 11.6008 15.6997L10.9053 14.7218ZM10.6566 15.1455L10.4035 17.4618L11.5965 17.5922L11.8495 15.2759L10.6566 15.1455ZM11 18.127H13V16.927H11V18.127ZM7.37173 12.8963C7.37173 12.3036 7.60131 11.7658 7.97755 11.365L7.10256 10.5437C6.52583 11.1582 6.17173 11.9866 6.17173 12.8963H7.37173ZM11.7311 6.04281L7.1218 10.5242L7.95831 11.3846L12.5676 6.9032L11.7311 6.04281ZM11.7169 6.88895L16.0275 11.3703L16.8923 10.5384L12.5818 6.05706L11.7169 6.88895ZM16.0213 11.3638C16.3962 11.7654 16.6282 12.3074 16.6282 12.8963H17.8282C17.8282 11.9883 17.4703 11.1575 16.8985 10.5449L16.0213 11.3638ZM5 1.6H19V0.4H5V1.6ZM19.4 2V22H20.6V2H19.4ZM19 22.4H5V23.6H19V22.4ZM4.6 22V2H3.4V22H4.6ZM5 22.4C4.77909 22.4 4.6 22.2209 4.6 22H3.4C3.4 22.8837 4.11634 23.6 5 23.6V22.4ZM19.4 22C19.4 22.2209 19.2209 22.4 19 22.4V23.6C19.8837 23.6 20.6 22.8837 20.6 22H19.4ZM19 1.6C19.2209 1.6 19.4 1.77909 19.4 2H20.6C20.6 1.11634 19.8837 0.4 19 0.4V1.6ZM5 0.4C4.11634 0.4 3.4 1.11635 3.4 2H4.6C4.6 1.77909 4.77909 1.6 5 1.6V0.4ZM13.5964 17.4618L13.3433 15.1455L12.1504 15.2759L12.4036 17.5922L13.5964 17.4618ZM14.39 15.1345C13.9065 15.1345 13.4601 14.9817 13.0946 14.7217L12.3991 15.6997C12.961 16.0992 13.649 16.3345 14.39 16.3345V15.1345Z" fill="#555770"/>
</svg>
