<svg width="24" height="24" viewBox="0 0 24 24" fill="none" xmlns="http://www.w3.org/2000/svg">
<path d="M7.5 10L6.90463 9.92558L6.9 9.96265V10H7.5ZM3 10L2.41791 9.85448L2.4 9.92614V10H3ZM16.5 10H17.1V9.97504L17.0979 9.95017L16.5 10ZM21 10H21.6V9.92614L21.5821 9.85448L21 10ZM4 11.6632L4.3068 11.1476L4 11.6632ZM20 11.6632L19.6932 11.1476L20 11.6632ZM4.31063 4.75746L3.72855 4.61194L4.31063 4.75746ZM6.9 10C6.9 10.7087 6.22966 11.4 5.25 11.4V12.6C6.75562 12.6 8.1 11.5004 8.1 10H6.9ZM11.4 10C11.4 10.7087 10.7297 11.4 9.75 11.4V12.6C11.2556 12.6 12.6 11.5004 12.6 10H11.4ZM9.75 11.4C8.77034 11.4 8.1 10.7087 8.1 10H6.9C6.9 11.5004 8.24438 12.6 9.75 12.6V11.4ZM15.9 10C15.9 10.7087 15.2297 11.4 14.25 11.4V12.6C15.7556 12.6 17.1 11.5004 17.1 10H15.9ZM14.25 11.4C13.2703 11.4 12.6 10.7087 12.6 10H11.4C11.4 11.5004 12.7444 12.6 14.25 12.6V11.4ZM18.75 11.4C17.7703 11.4 17.1 10.7087 17.1 10H15.9C15.9 11.5004 17.2444 12.6 18.75 12.6V11.4ZM3.58209 10.1455L4.89272 4.90299L3.72855 4.61194L2.41791 9.85448L3.58209 10.1455ZM19.1073 4.90299L20.4179 10.1455L21.5821 9.85448L20.2715 4.61194L19.1073 4.90299ZM16 4.6H18.7192V3.4H16V4.6ZM17.0979 9.95017L16.5979 3.95017L15.4021 4.04983L15.9021 10.0498L17.0979 9.95017ZM12 4.6H16V3.4H12V4.6ZM12.6 10V4H11.4V10H12.6ZM5.28078 4.6H8.25V3.4H5.28078V4.6ZM8.25 4.6H12V3.4H8.25V4.6ZM8.09537 10.0744L8.84537 4.07442L7.65463 3.92558L6.90463 9.92558L8.09537 10.0744ZM5.25 11.4C4.89494 11.4 4.57107 11.3048 4.3068 11.1476L3.6932 12.1788C4.14398 12.4471 4.67999 12.6 5.25 12.6V11.4ZM4.3068 11.1476C3.85806 10.8806 3.6 10.4517 3.6 10H2.4C2.4 10.9352 2.93595 11.7283 3.6932 12.1788L4.3068 11.1476ZM3.4 11.6632V19H4.6V11.6632H3.4ZM5 20.6H19V19.4H5V20.6ZM20.4 10C20.4 10.4517 20.1419 10.8806 19.6932 11.1476L20.3068 12.1788C21.0641 11.7283 21.6 10.9352 21.6 10H20.4ZM19.6932 11.1476C19.4289 11.3048 19.1051 11.4 18.75 11.4V12.6C19.32 12.6 19.856 12.4471 20.3068 12.1788L19.6932 11.1476ZM20.6 19V11.6632H19.4V19H20.6ZM19 20.6C19.8837 20.6 20.6 19.8837 20.6 19H19.4C19.4 19.2209 19.2209 19.4 19 19.4V20.6ZM3.4 19C3.4 19.8837 4.11634 20.6 5 20.6V19.4C4.77909 19.4 4.6 19.2209 4.6 19H3.4ZM20.2715 4.61194C20.0934 3.89968 19.4534 3.4 18.7192 3.4V4.6C18.9028 4.6 19.0628 4.72492 19.1073 4.90299L20.2715 4.61194ZM4.89272 4.90299C4.93724 4.72492 5.09723 4.6 5.28078 4.6V3.4C4.54659 3.4 3.90662 3.89968 3.72855 4.61194L4.89272 4.90299Z" fill="#555770"/>
</svg>
