<svg width="24" height="24" viewBox="0 0 24 24" fill="none" xmlns="http://www.w3.org/2000/svg">
<path d="M21.6 17V7H20.4V17H21.6ZM20 5.4H4V6.6H20V5.4ZM4 18.6H20V17.4H4V18.6ZM2.4 7V17H3.6V7H2.4ZM8 15.6H16V14.4H8V15.6ZM5 9.6H7V8.4H5V9.6ZM5 12.6H7V11.4H5V12.6ZM8 12.6H10V11.4H8V12.6ZM8 9.6H10V8.4H8V9.6ZM11 9.6H13V8.4H11V9.6ZM11 12.6H13V11.4H11V12.6ZM14 9.6H16V8.4H14V9.6ZM14 12.6H16V11.4H14V12.6ZM17 9.6H19V8.4H17V9.6ZM17 12.6H19V11.4H17V12.6ZM4 5.4C3.11635 5.4 2.4 6.11634 2.4 7H3.6C3.6 6.77909 3.77909 6.6 4 6.6V5.4ZM21.6 7C21.6 6.11634 20.8837 5.4 20 5.4V6.6C20.2209 6.6 20.4 6.77909 20.4 7H21.6ZM20.4 17C20.4 17.2209 20.2209 17.4 20 17.4V18.6C20.8837 18.6 21.6 17.8837 21.6 17H20.4ZM4 17.4C3.77909 17.4 3.6 17.2209 3.6 17H2.4C2.4 17.8837 3.11634 18.6 4 18.6V17.4Z" fill="#555770"/>
</svg>
