<svg width="24" height="24" viewBox="0 0 24 24" fill="none" xmlns="http://www.w3.org/2000/svg">
<path d="M13.5 17.4L-5.24538e-08 17.4L5.24536e-08 18.6L13.5 18.6L13.5 17.4Z" fill="#555770"/>
<mask id="mask0_402_13649" style="mask-type:alpha" maskUnits="userSpaceOnUse" x="1" y="3" width="22" height="17">
<path d="M1 19.5V3H23V6.5H13.5V19.5H1Z" fill="white"/>
</mask>
<g mask="url(#mask0_402_13649)">
<path d="M20 5V4.4V5ZM20 4.4L4 4.4L4 5.6L20 5.6V4.4ZM2.4 6V16H3.6V6H2.4ZM4 17.6H20V16.4H4V17.6ZM20.4 6V16H21.6V6H20.4ZM20 17.6C20.8837 17.6 21.6 16.8837 21.6 16H20.4C20.4 16.2209 20.2209 16.4 20 16.4V17.6ZM4 4.4C3.11635 4.4 2.4 5.11634 2.4 6H3.6C3.6 5.77909 3.77909 5.6 4 5.6L4 4.4ZM20 5.6C20.2209 5.6 20.4 5.77909 20.4 6H21.6C21.6 5.11634 20.8837 4.4 20 4.4V5.6ZM2.4 16C2.4 16.8837 3.11634 17.6 4 17.6V16.4C3.77909 16.4 3.6 16.2209 3.6 16H2.4Z" fill="#555770"/>
</g>
<path d="M18.4 9L18.4 9.6L18.4 9.6L18.4 9ZM19.6 9L19.6 9.6H19.6L19.6 9ZM17 20.6L21 20.6L21 19.4L17 19.4L17 20.6ZM22.6 19L22.6 10L21.4 10L21.4 19L22.6 19ZM15.4 10L15.4 19L16.6 19L16.6 10L15.4 10ZM18.4 8.4L17 8.4L17 9.6L18.4 9.6L18.4 8.4ZM21 8.4L19.6 8.4L19.6 9.6L21 9.6L21 8.4ZM19.6 8.4L18.4 8.4L18.4 9.6L19.6 9.6L19.6 8.4ZM22.6 10C22.6 9.11634 21.8837 8.4 21 8.4L21 9.6C21.2209 9.6 21.4 9.77909 21.4 10L22.6 10ZM21 20.6C21.8837 20.6 22.6 19.8837 22.6 19L21.4 19C21.4 19.2209 21.2209 19.4 21 19.4L21 20.6ZM17 19.4C16.7791 19.4 16.6 19.2209 16.6 19L15.4 19C15.4 19.8837 16.1163 20.6 17 20.6L17 19.4ZM16.6 10C16.6 9.77909 16.7791 9.6 17 9.6L17 8.4C16.1163 8.4 15.4 9.11634 15.4 10L16.6 10Z" fill="#555770"/>
</svg>
