<svg width="24" height="24" viewBox="0 0 24 24" fill="none" xmlns="http://www.w3.org/2000/svg">
<path d="M24 17.4L5.24537e-08 17.4L-5.24537e-08 18.6L24 18.6L24 17.4Z" fill="#555770"/>
<path d="M4 17.6H21V16.4H4V17.6ZM2.4 6V16H3.6V6H2.4ZM13 4.4H4V5.6H13V4.4ZM3.6 6C3.6 5.77909 3.77909 5.6 4 5.6V4.4C3.11634 4.4 2.4 5.11634 2.4 6H3.6ZM4 16.4C3.77909 16.4 3.6 16.2209 3.6 16H2.4C2.4 16.8837 3.11634 17.6 4 17.6V16.4Z" fill="#555770"/>
<path d="M21.4 5V7.5H22.6V5H21.4ZM22 6.9H16V8.1H22V6.9ZM16.6 7.5V5H15.4V7.5H16.6ZM16 6.9H15.1V8.1H16V6.9ZM14.4 7.6V12H15.6V7.6H14.4ZM16 13.6H22V12.4H16V13.6ZM23.6 12V7.6H22.4V12H23.6ZM22.9 6.9H22V8.1H22.9V6.9ZM23.6 7.6C23.6 7.2134 23.2866 6.9 22.9 6.9V8.1C22.6239 8.1 22.4 7.87614 22.4 7.6H23.6ZM15.1 6.9C14.7134 6.9 14.4 7.2134 14.4 7.6H15.6C15.6 7.87614 15.3761 8.1 15.1 8.1V6.9ZM22 13.6C22.8837 13.6 23.6 12.8837 23.6 12H22.4C22.4 12.2209 22.2209 12.4 22 12.4V13.6ZM19 2.6C20.3255 2.6 21.4 3.67452 21.4 5H22.6C22.6 3.01178 20.9882 1.4 19 1.4V2.6ZM14.4 12C14.4 12.8837 15.1163 13.6 16 13.6V12.4C15.7791 12.4 15.6 12.2209 15.6 12H14.4ZM19 1.4C17.0118 1.4 15.4 3.01177 15.4 5H16.6C16.6 3.67452 17.6745 2.6 19 2.6V1.4Z" fill="#555770"/>
</svg>
