<svg width="24" height="24" viewBox="0 0 24 24" fill="none" xmlns="http://www.w3.org/2000/svg">
<path d="M10 3L10 2.4H10L10 3ZM14 3L14 2.4L14 2.4L14 3ZM10.1 4L10.1 3.4L10.1 4ZM8 21.6L16 21.6L16 20.4L8 20.4L8 21.6ZM17.6 20L17.6 4L16.4 4L16.4 20L17.6 20ZM6.4 4L6.4 20L7.6 20L7.6 4L6.4 4ZM10 2.4L8 2.4L8 3.6L10 3.6L10 2.4ZM9.4 3L9.4 3.9L10.6 3.9L10.6 3L9.4 3ZM10.1 4.6L13.9 4.6L13.9 3.4L10.1 3.4L10.1 4.6ZM16 2.4L14 2.4L14 3.6L16 3.6L16 2.4ZM14 2.4L10 2.4L10 3.6L14 3.6L14 2.4ZM14.6 3.9L14.6 3L13.4 3L13.4 3.9L14.6 3.9ZM13.9 4.6C14.2866 4.6 14.6 4.2866 14.6 3.9L13.4 3.9C13.4 3.62386 13.6239 3.4 13.9 3.4L13.9 4.6ZM17.6 4C17.6 3.11635 16.8837 2.4 16 2.4L16 3.6C16.2209 3.6 16.4 3.77909 16.4 4L17.6 4ZM16 21.6C16.8837 21.6 17.6 20.8837 17.6 20L16.4 20C16.4 20.2209 16.2209 20.4 16 20.4L16 21.6ZM8 20.4C7.77909 20.4 7.6 20.2209 7.6 20L6.4 20C6.4 20.8837 7.11634 21.6 8 21.6L8 20.4ZM9.4 3.9C9.4 4.2866 9.7134 4.6 10.1 4.6L10.1 3.4C10.3761 3.4 10.6 3.62386 10.6 3.9L9.4 3.9ZM7.6 4C7.6 3.77909 7.77909 3.6 8 3.6L8 2.4C7.11634 2.4 6.4 3.11634 6.4 4L7.6 4Z" fill="#555770"/>
</svg>
