<svg width="24" height="24" viewBox="0 0 24 24" fill="none" xmlns="http://www.w3.org/2000/svg">
<path d="M17 5L17.6 5L17.6 4.4L17 4.4L17 5ZM9 21.6L15 21.6L15 20.4L9 20.4L9 21.6ZM15 2.4L9 2.4L9 3.6L15 3.6L15 2.4ZM17 4.4L7 4.4L7 5.6L17 5.6L17 4.4ZM6.4 5L6.4 19L7.6 19L7.6 5L6.4 5ZM17.6 19L17.6 5L16.4 5L16.4 19L17.6 19ZM7 19.6L17 19.6L17 18.4L7 18.4L7 19.6ZM15 3.6C15.7732 3.6 16.4 4.2268 16.4 5L17.6 5C17.6 3.56406 16.4359 2.4 15 2.4L15 3.6ZM15 21.6C16.4359 21.6 17.6 20.4359 17.6 19L16.4 19C16.4 19.7732 15.7732 20.4 15 20.4L15 21.6ZM9 20.4C8.2268 20.4 7.6 19.7732 7.6 19L6.4 19C6.4 20.4359 7.56406 21.6 9 21.6L9 20.4ZM9 2.4C7.56406 2.4 6.4 3.56406 6.4 5L7.6 5C7.6 4.2268 8.2268 3.6 9 3.6L9 2.4Z" fill="#555770"/>
</svg>
