<svg width="24" height="24" viewBox="0 0 24 24" fill="none" xmlns="http://www.w3.org/2000/svg">
<path d="M21.6 16V6H20.4V16H21.6ZM20 4.4H4V5.6H20V4.4ZM2.4 6V16H3.6V6H2.4ZM7 20.6H12V19.4H7V20.6ZM12 20.6H17V19.4H12V20.6ZM4 17.6H12V16.4H4V17.6ZM12 17.6H20V16.4H12V17.6ZM12.6 20V17H11.4V20H12.6ZM4 4.4C3.11635 4.4 2.4 5.11634 2.4 6H3.6C3.6 5.77909 3.77909 5.6 4 5.6V4.4ZM21.6 6C21.6 5.11634 20.8837 4.4 20 4.4V5.6C20.2209 5.6 20.4 5.77909 20.4 6H21.6ZM20.4 16C20.4 16.2209 20.2209 16.4 20 16.4V17.6C20.8837 17.6 21.6 16.8837 21.6 16H20.4ZM2.4 16C2.4 16.8837 3.11634 17.6 4 17.6V16.4C3.77909 16.4 3.6 16.2209 3.6 16H2.4Z" fill="#555770"/>
<path d="M13.6222 10.1991C13.6222 11.0764 12.9019 11.7982 12 11.7982V12.9982C13.5528 12.9982 14.8222 11.7509 14.8222 10.1991H13.6222ZM12 11.7982C11.0982 11.7982 10.3778 11.0764 10.3778 10.1991H9.17779C9.17779 11.7509 10.4473 12.9982 12 12.9982V11.7982ZM10.3778 10.1991C10.3778 9.32184 11.0982 8.6 12 8.6V7.4C10.4473 7.4 9.17779 8.64731 9.17779 10.1991H10.3778ZM12 8.6C12.9019 8.6 13.6222 9.32184 13.6222 10.1991H14.8222C14.8222 8.64731 13.5528 7.4 12 7.4V8.6ZM12 15.6C13.296 15.6 14.4166 16.2438 15.0462 17.3059L16.0785 16.6941C15.2286 15.2603 13.7115 14.4 12 14.4V15.6ZM8.95389 17.3059C9.58345 16.2438 10.704 15.6 12 15.6V14.4C10.2885 14.4 8.77144 15.2603 7.9216 16.6941L8.95389 17.3059Z" fill="#555770"/>
</svg>
