<svg width="24" height="24" viewBox="0 0 24 24" fill="none" xmlns="http://www.w3.org/2000/svg">
<path d="M21.6 18V6H20.4V18H21.6ZM20 4.4H4V5.6H20V4.4ZM4 19.6H20V18.4H4V19.6ZM2.4 6V18H3.6V6H2.4ZM4 4.4C3.11635 4.4 2.4 5.11634 2.4 6H3.6C3.6 5.77909 3.77909 5.6 4 5.6V4.4ZM21.6 6C21.6 5.11634 20.8837 4.4 20 4.4V5.6C20.2209 5.6 20.4 5.77909 20.4 6H21.6ZM20.4 18C20.4 18.2209 20.2209 18.4 20 18.4V19.6C20.8837 19.6 21.6 18.8837 21.6 18H20.4ZM4 18.4C3.77909 18.4 3.6 18.2209 3.6 18H2.4C2.4 18.8837 3.11634 19.6 4 19.6V18.4Z" fill="#555770"/>
<path d="M5 16L10.6 9L14 13.4545L15.5 11.5455L19 16H12H5Z" stroke="#555770" stroke-width="1.2"/>
</svg>
