<svg width="24" height="24" viewBox="0 0 24 24" fill="none" xmlns="http://www.w3.org/2000/svg">
<path d="M17 7.6H7V6.4H17V7.6ZM7 16.4H17V17.6H7V16.4ZM17 16.4C19.4301 16.4 21.4 14.4301 21.4 12H22.6C22.6 15.0928 20.0928 17.6 17 17.6V16.4ZM2.6 12C2.6 14.4301 4.56995 16.4 7 16.4V17.6C3.90721 17.6 1.4 15.0928 1.4 12H2.6ZM7 7.6C4.56995 7.6 2.6 9.56995 2.6 12H1.4C1.4 8.90721 3.90721 6.4 7 6.4V7.6ZM17 6.4C20.0928 6.4 22.6 8.90721 22.6 12H21.4C21.4 9.56995 19.4301 7.6 17 7.6V6.4Z" fill="#555770"/>
<circle cx="17" cy="12" r="3.15" stroke="#555770" stroke-width="1.2"/>
</svg>
