<svg width="24" height="24" viewBox="0 0 24 24" fill="none" xmlns="http://www.w3.org/2000/svg">
<path d="M19.5693 17.403L19.1244 17.0005L19.1244 17.0005L19.5693 17.403ZM16.6 14.7506C16.6 13.5153 17.6229 12.6 18.7887 12.6V11.4C17.0182 11.4 15.4 12.796 15.4 14.7506H16.6ZM18.7887 12.6C19.9376 12.6 20.9177 13.4989 20.9177 14.7506H22.1177C22.1177 12.8124 20.5763 11.4 18.7887 11.4V12.6ZM20.9177 14.7506C20.9177 15.1553 20.7684 15.4186 20.4635 15.732C20.2979 15.9021 20.1073 16.0658 19.869 16.2774C19.639 16.4818 19.3805 16.7174 19.1244 17.0005L20.0142 17.8055C20.2248 17.5728 20.4431 17.3725 20.6659 17.1747C20.8805 16.9841 21.1185 16.7795 21.3235 16.5689C21.7594 16.1209 22.1177 15.5738 22.1177 14.7506H20.9177ZM19.1244 17.0005C18.4831 17.7092 18.1887 18.583 18.1887 19.5H19.3887C19.3887 18.8491 19.5927 18.2714 20.0142 17.8055L19.1244 17.0005ZM18.1887 20.5V22.0017H19.3887V20.5H18.1887Z" fill="#555770"/>
<mask id="mask0_402_13558" style="mask-type:alpha" maskUnits="userSpaceOnUse" x="0" y="0" width="24" height="24">
<path d="M16 0H0V24H13.5V9.5H24V0H16Z" fill="white"/>
</mask>
<g mask="url(#mask0_402_13558)">
<path d="M12 3C8.74374 3 5.6788 3.81915 3 5.26261L12 21L21 5.26261C18.3212 3.81915 15.2563 3 12 3Z" stroke="#555770" stroke-width="1.2"/>
<path d="M12 7C9.47009 7 7.09688 7.67107 5.04871 8.84492L12 21L18.9514 8.84492C16.9032 7.67107 14.53 7 12 7Z" fill="#555770"/>
</g>
</svg>
