<svg width="24" height="24" viewBox="0 0 24 24" fill="none" xmlns="http://www.w3.org/2000/svg">
<path d="M6.41848 2V1.4H5.52832L5.86232 2.22513L6.41848 2ZM17.5815 2L18.1377 2.22513L18.4717 1.4H17.5815V2ZM5.36827 9.52417L4.87247 9.18625L4.87125 9.18806L5.36827 9.52417ZM18.6384 9.53403L19.1359 9.19866L19.1342 9.19612L18.6384 9.53403ZM17.0884 6L17.6795 5.89728L17.0884 6ZM19.4 14C19.4 18.0869 16.0869 21.4 12 21.4V22.6C16.7496 22.6 20.6 18.7496 20.6 14H19.4ZM12 21.4C7.91309 21.4 4.6 18.0869 4.6 14H3.4C3.4 18.7496 7.25035 22.6 12 22.6V21.4ZM5.86232 2.22513C6.20887 3.08125 6.4 4.01756 6.4 5H7.6C7.6 3.86064 7.37812 2.77161 6.97465 1.77487L5.86232 2.22513ZM17.6 5C17.6 4.01756 17.7911 3.08125 18.1377 2.22513L17.0254 1.77487C16.6219 2.77161 16.4 3.86064 16.4 5H17.6ZM6.41848 2.6H17.5815V1.4H6.41848V2.6ZM4.6 14C4.6 12.4654 5.06648 11.0415 5.8653 9.86028L4.87125 9.18806C3.94244 10.5616 3.4 12.2183 3.4 14H4.6ZM18.1409 9.8694C18.9359 11.0489 19.4 12.4693 19.4 14H20.6C20.6 12.2229 20.0604 10.5701 19.1359 9.19866L18.1409 9.8694ZM6.4 5C6.4 5.30092 6.37234 5.60053 6.32093 5.89775L7.50338 6.10225C7.56555 5.74277 7.6 5.37463 7.6 5H6.4ZM6.32093 5.89775C6.11738 7.07465 5.54386 8.20118 4.87247 9.18626L5.86407 9.86208C6.58656 8.80202 7.25943 7.51274 7.50338 6.10225L6.32093 5.89775ZM19.1342 9.19612C18.4624 8.21053 17.8845 7.07722 17.6795 5.89728L16.4972 6.10272C16.7428 7.51604 17.4201 8.81184 18.1426 9.87195L19.1342 9.19612ZM17.6795 5.89728C17.6278 5.59979 17.6 5.30029 17.6 5H16.4C16.4 5.37454 16.4347 5.7429 16.4972 6.10272L17.6795 5.89728ZM6.91215 6.6H17.0884V5.4H6.91215V6.6Z" fill="#28293D"/>
<path d="M12.1455 13.4179C11.6614 13.2969 11.2509 13.1268 10.974 12.9138C10.7127 12.713 10.6 12.5021 10.6 12.25H9.4C9.4 12.9644 9.76494 13.4979 10.2425 13.8652C10.7044 14.2203 11.294 14.442 11.8545 14.5821L12.1455 13.4179ZM10.6 12.25C10.6 11.6876 11.149 11.1 12 11.1V9.9C10.6418 9.9 9.4 10.8794 9.4 12.25H10.6ZM12 11.1C12.851 11.1 13.4 11.6876 13.4 12.25H14.6C14.6 10.8794 13.3582 9.9 12 9.9V11.1ZM13.4 15.75C13.4 16.3124 12.851 16.9 12 16.9V18.1C13.3582 18.1 14.6 17.1206 14.6 15.75H13.4ZM12 16.9C11.149 16.9 10.6 16.3124 10.6 15.75H9.4C9.4 17.1206 10.6418 18.1 12 18.1V16.9ZM11.8545 14.5821C12.3136 14.6969 12.7267 14.8669 13.0116 15.0837C13.2848 15.2917 13.4 15.5064 13.4 15.75H14.6C14.6 15.0271 14.2152 14.4918 13.7384 14.1289C13.2733 13.7749 12.6864 13.5531 12.1455 13.4179L11.8545 14.5821ZM12.6 10.5V9H11.4V10.5H12.6ZM11.4 17.5V19H12.6V17.5H11.4Z" fill="#28293D"/>
</svg>
