<svg width="24" height="24" viewBox="0 0 24 24" fill="none" xmlns="http://www.w3.org/2000/svg">
<path d="M17 7L7 17M22 12C22 17.5228 17.5228 22 12 22C6.47715 22 2 17.5228 2 12C2 6.47715 6.47715 2 12 2C17.5228 2 22 6.47715 22 12Z" stroke="#28293D" stroke-width="1.2"/>
<path d="M9.9 8.5C9.9 9.2732 9.2732 9.9 8.5 9.9V11.1C9.93594 11.1 11.1 9.93594 11.1 8.5H9.9ZM8.5 9.9C7.7268 9.9 7.1 9.2732 7.1 8.5H5.9C5.9 9.93594 7.06406 11.1 8.5 11.1V9.9ZM7.1 8.5C7.1 7.7268 7.7268 7.1 8.5 7.1V5.9C7.06406 5.9 5.9 7.06406 5.9 8.5H7.1ZM8.5 7.1C9.2732 7.1 9.9 7.7268 9.9 8.5H11.1C11.1 7.06406 9.93594 5.9 8.5 5.9V7.1ZM16.9 15.5C16.9 16.2732 16.2732 16.9 15.5 16.9V18.1C16.9359 18.1 18.1 16.9359 18.1 15.5H16.9ZM15.5 16.9C14.7268 16.9 14.1 16.2732 14.1 15.5H12.9C12.9 16.9359 14.0641 18.1 15.5 18.1V16.9ZM14.1 15.5C14.1 14.7268 14.7268 14.1 15.5 14.1V12.9C14.0641 12.9 12.9 14.0641 12.9 15.5H14.1ZM15.5 14.1C16.2732 14.1 16.9 14.7268 16.9 15.5H18.1C18.1 14.0641 16.9359 12.9 15.5 12.9V14.1Z" fill="#28293D"/>
</svg>
