<svg width="24" height="24" viewBox="0 0 24 24" fill="none" xmlns="http://www.w3.org/2000/svg">
<path d="M9.6 8.15C9.6 6.86732 10.9808 5.6 13 5.6V4.4C10.601 4.4 8.4 5.95329 8.4 8.15H9.6ZM13 5.6C15.0192 5.6 16.4 6.86732 16.4 8.15H17.6C17.6 5.95329 15.399 4.4 13 4.4V5.6ZM8.4 8.15C8.4 11.1352 8.54775 13.7572 8.25676 15.6789C8.11248 16.6318 7.87102 17.3143 7.51974 17.7516C7.19606 18.1545 6.73897 18.4 6 18.4V19.6C7.06103 19.6 7.87894 19.2205 8.45526 18.5031C9.00398 17.8201 9.28752 16.887 9.44324 15.8586C9.75225 13.8178 9.6 11.0148 9.6 8.15H8.4ZM6 12.6H16V11.4H6V12.6ZM6 19.6C7.09349 19.6 8.05081 19.3247 8.97154 19.0798C9.9043 18.8317 10.8428 18.6 12.0096 18.6V17.4C10.6765 17.4 9.61016 17.6683 8.66309 17.9202C7.70401 18.1753 6.90651 18.4 6 18.4V19.6ZM12.0096 18.6C12.4156 18.6 12.844 18.702 13.3289 18.8538C13.7813 18.9955 14.3405 19.2021 14.859 19.332C15.3993 19.4674 15.9936 19.5497 16.6123 19.4334C17.2425 19.3151 17.8481 19.0004 18.4243 18.4243L17.5757 17.5757C17.1519 17.9996 16.7587 18.1849 16.3907 18.2541C16.0113 18.3253 15.608 18.2826 15.1507 18.168C14.6716 18.0479 14.2332 17.8795 13.6874 17.7087C13.1741 17.548 12.6037 17.4 12.0096 17.4V18.6Z" fill="#28293D"/>
</svg>
