<svg width="24" height="24" viewBox="0 0 24 24" fill="none" xmlns="http://www.w3.org/2000/svg">
<path d="M7.5 15.5707L7.07997 15.9992L7.5 15.5707ZM10.2584 11.3291L10.7032 11.7318L10.2584 11.3291ZM11.6709 12.7416L11.2682 12.2968L11.6709 12.7416ZM4 3.6H20V2.4H4V3.6ZM3.6 20V4H2.4V20H3.6ZM6 20.4H4V21.6H6V20.4ZM5.4 21V23H6.6V21H5.4ZM20 20.4H18V21.6H20V20.4ZM18 20.4H6V21.6H18V20.4ZM17.4 21V23H18.6V21H17.4ZM20.4 4V6H21.6V4H20.4ZM21 5.4H20.1V6.6H21V5.4ZM19.4 6.1V8.9H20.6V6.1H19.4ZM20.4 6V9H21.6V6H20.4ZM20.1 9.6H21V8.4H20.1V9.6ZM20.4 9V15H21.6V9H20.4ZM21 14.4H20.1V15.6H21V14.4ZM19.4 15.1V17.9H20.6V15.1H19.4ZM20.4 15V18H21.6V15H20.4ZM20.4 18V20H21.6V18H20.4ZM20.1 18.6H21V17.4H20.1V18.6ZM19.4 8.9C19.4 9.2866 19.7134 9.6 20.1 9.6V8.4C20.3761 8.4 20.6 8.62385 20.6 8.9H19.4ZM20.1 5.4C19.7134 5.4 19.4 5.7134 19.4 6.1H20.6C20.6 6.37615 20.3761 6.6 20.1 6.6V5.4ZM19.4 17.9C19.4 18.2866 19.7134 18.6 20.1 18.6V17.4C20.3761 17.4 20.6 17.6239 20.6 17.9H19.4ZM2.4 20C2.4 20.8837 3.11634 21.6 4 21.6V20.4C3.77909 20.4 3.6 20.2209 3.6 20H2.4ZM20.1 14.4C19.7134 14.4 19.4 14.7134 19.4 15.1H20.6C20.6 15.3761 20.3761 15.6 20.1 15.6V14.4ZM20 21.6C20.8837 21.6 21.6 20.8837 21.6 20H20.4C20.4 20.2209 20.2209 20.4 20 20.4V21.6ZM20 3.6C20.2209 3.6 20.4 3.77909 20.4 4H21.6C21.6 3.11634 20.8837 2.4 20 2.4V3.6ZM4 2.4C3.11634 2.4 2.4 3.11635 2.4 4H3.6C3.6 3.77909 3.77909 3.6 4 3.6V2.4ZM6.6 12C6.6 10.8006 7.07911 9.71429 7.85774 8.92003L7.00082 8.07997C6.01121 9.08946 5.4 10.474 5.4 12H6.6ZM7.85774 8.92003C8.65701 8.10472 9.76902 7.6 11 7.6V6.4C9.43359 6.4 8.01648 7.04392 7.00082 8.07997L7.85774 8.92003ZM15.4 12C15.4 13.231 14.8953 14.343 14.08 15.1423L14.92 15.9992C15.9561 14.9835 16.6 13.5664 16.6 12H15.4ZM14.08 15.1423C13.2857 15.9209 12.1994 16.4 11 16.4V17.6C12.526 17.6 13.9105 16.9888 14.92 15.9992L14.08 15.1423ZM11 7.6C12.231 7.6 13.343 8.10472 14.1423 8.92003L14.9992 8.07997C13.9835 7.04392 12.5664 6.4 11 6.4V7.6ZM14.1423 8.92003C14.9209 9.71429 15.4 10.8006 15.4 12H16.6C16.6 10.474 15.9888 9.08946 14.9992 8.07997L14.1423 8.92003ZM11 16.4C9.80059 16.4 8.71429 15.9209 7.92003 15.1423L7.07997 15.9992C8.08946 16.9888 9.47395 17.6 11 17.6V16.4ZM7.92003 15.1423C7.10472 14.343 6.6 13.231 6.6 12H5.4C5.4 13.5664 6.04392 14.9835 7.07997 15.9992L7.92003 15.1423ZM11 11.6C11.1176 11.6 11.2227 11.65 11.2968 11.7318L12.1864 10.9265C11.8945 10.604 11.4706 10.4 11 10.4V11.6ZM11.2968 11.7318C11.3614 11.8032 11.4 11.8964 11.4 12H12.6C12.6 11.5873 12.443 11.2099 12.1864 10.9265L11.2968 11.7318ZM14.1465 8.07574L11.3173 10.9049L12.1658 11.7534L14.995 8.92426L14.1465 8.07574ZM10.6 12C10.6 11.8964 10.6386 11.8032 10.7032 11.7318L9.81359 10.9265C9.55702 11.2099 9.4 11.5873 9.4 12H10.6ZM10.7032 11.7318C10.7773 11.65 10.8824 11.6 11 11.6V10.4C10.5294 10.4 10.1055 10.604 9.81359 10.9265L10.7032 11.7318ZM7.00502 8.92426L9.83415 11.7534L10.6827 10.9049L7.85355 8.07574L7.00502 8.92426ZM9.90487 12.3173L7.07574 15.1465L7.92426 15.995L10.7534 13.1658L9.90487 12.3173ZM11 12.4C10.8964 12.4 10.8032 12.3614 10.7318 12.2968L9.92648 13.1864C10.2099 13.443 10.5873 13.6 11 13.6V12.4ZM10.7318 12.2968C10.65 12.2227 10.6 12.1176 10.6 12H9.4C9.4 12.4706 9.60398 12.8945 9.92648 13.1864L10.7318 12.2968ZM11.2466 13.1658L14.0757 15.995L14.9243 15.1465L12.0951 12.3173L11.2466 13.1658ZM11.4 12C11.4 12.1176 11.35 12.2227 11.2682 12.2968L12.0735 13.1864C12.396 12.8945 12.6 12.4706 12.6 12H11.4ZM11.2682 12.2968C11.1968 12.3614 11.1036 12.4 11 12.4V13.6C11.4127 13.6 11.7901 13.443 12.0735 13.1864L11.2682 12.2968Z" fill="#28293D"/>
</svg>
