<svg width="24" height="24" viewBox="0 0 24 24" fill="none" xmlns="http://www.w3.org/2000/svg">
<path d="M8.4 20C8.4 20.7732 7.7732 21.4 7 21.4C6.2268 21.4 5.6 20.7732 5.6 20C5.6 19.2268 6.2268 18.6 7 18.6C7.7732 18.6 8.4 19.2268 8.4 20ZM18.4 20C18.4 20.7732 17.7732 21.4 17 21.4C16.2268 21.4 15.6 20.7732 15.6 20C15.6 19.2268 16.2268 18.6 17 18.6C17.7732 18.6 18.4 19.2268 18.4 20Z" stroke="#28293D" stroke-width="1.2"/>
<path d="M3.5 3L4.03666 2.73167L3.87082 2.4H3.5V3ZM8 12L7.46334 12.2683L7.62918 12.6H8V12ZM16 12V12.6H16.3482L16.5209 12.2977L16 12ZM19.9145 5.14961L20.4355 5.4473L19.9145 5.14961ZM1 3.6H3.5V2.4H1V3.6ZM8 12.6H16V11.4H8V12.6ZM16.5209 12.2977L20.4355 5.4473L19.3936 4.85193L15.4791 11.7023L16.5209 12.2977ZM2.96334 3.26833L3.96334 5.26833L5.03666 4.73167L4.03666 2.73167L2.96334 3.26833ZM19.8277 4.4H4.5V5.6H19.8277V4.4ZM6.61803 16.6H19V15.4H6.61803V16.6ZM3.96334 5.26833L6.96334 11.2683L8.03666 10.7317L5.03666 4.73167L3.96334 5.26833ZM6.96334 11.2683L7.46334 12.2683L8.53666 11.7317L8.03666 10.7317L6.96334 11.2683ZM6.26026 14.8211L8.03666 11.2683L6.96334 10.7317L5.18695 14.2845L6.26026 14.8211ZM6.61803 15.4C6.32068 15.4 6.12728 15.0871 6.26026 14.8211L5.18695 14.2845C4.65503 15.3483 5.42862 16.6 6.61803 16.6V15.4ZM20.4355 5.4473C20.7021 4.98064 20.3652 4.4 19.8277 4.4V5.6C19.4438 5.6 19.2031 5.18526 19.3936 4.85193L20.4355 5.4473Z" fill="#28293D"/>
</svg>
