<svg width="24" height="24" viewBox="0 0 24 24" fill="none" xmlns="http://www.w3.org/2000/svg">
<path d="M9.54268 14.2006L9.0816 14.5845L9.54268 14.2006ZM13 17.5L12.5958 17.9435L13 18.3118L13.4042 17.9435L13 17.5ZM16.4573 14.2006L15.9962 13.8167L15.9962 13.8167L16.4573 14.2006ZM9.6 12.5588C9.6 11.7366 10.2431 11.1 11 11.1V9.9C9.5478 9.9 8.4 11.1069 8.4 12.5588H9.6ZM11 11.1C11.7569 11.1 12.4 11.7366 12.4 12.5588H13.6C13.6 11.1069 12.4522 9.9 11 9.9V11.1ZM10.0038 13.8167C9.62508 13.3619 9.6 12.9711 9.6 12.5588H8.4C8.4 13.0734 8.43531 13.8084 9.0816 14.5845L10.0038 13.8167ZM9.0816 14.5845C9.36832 14.9289 10.2693 15.7863 11.0538 16.5195C11.4555 16.8949 11.8409 17.2508 12.1257 17.5127C12.2682 17.6437 12.3856 17.7513 12.4674 17.8261C12.5084 17.8636 12.5404 17.8929 12.5622 17.9128C12.5732 17.9228 12.5815 17.9304 12.5872 17.9356C12.59 17.9381 12.5922 17.9401 12.5936 17.9414C12.5943 17.9421 12.5949 17.9426 12.5953 17.9429C12.5954 17.9431 12.5956 17.9432 12.5957 17.9433C12.5957 17.9434 12.5958 17.9434 12.5958 17.9434C12.5958 17.9434 12.5958 17.9435 13 17.5C13.4042 17.0565 13.4042 17.0565 13.4041 17.0565C13.4041 17.0565 13.4041 17.0565 13.4041 17.0564C13.404 17.0564 13.4038 17.0563 13.4037 17.0561C13.4033 17.0558 13.4028 17.0553 13.4021 17.0547C13.4007 17.0534 13.3987 17.0515 13.3959 17.049C13.3904 17.044 13.3821 17.0365 13.3714 17.0266C13.3498 17.0069 13.3181 16.978 13.2775 16.9408C13.1963 16.8665 13.0796 16.7596 12.938 16.6294C12.6547 16.3688 12.2718 16.0153 11.8732 15.6427C11.0572 14.8801 10.2295 14.0878 10.0038 13.8167L9.0816 14.5845ZM17.6 12.5588C17.6 11.1069 16.4522 9.9 15 9.9V11.1C15.7569 11.1 16.4 11.7366 16.4 12.5588H17.6ZM15 9.9C13.5478 9.9 12.4 11.1069 12.4 12.5588H13.6C13.6 11.7366 14.2431 11.1 15 11.1V9.9ZM16.9184 14.5845C17.5647 13.8084 17.6 13.0734 17.6 12.5588H16.4C16.4 12.9711 16.3749 13.3619 15.9962 13.8167L16.9184 14.5845ZM15.9962 13.8167C15.7705 14.0878 14.9428 14.8801 14.1268 15.6427C13.7282 16.0153 13.3453 16.3688 13.062 16.6294C12.9204 16.7596 12.8037 16.8665 12.7225 16.9408C12.6819 16.978 12.6502 17.0069 12.6286 17.0266C12.6179 17.0365 12.6096 17.044 12.6041 17.049C12.6013 17.0515 12.5993 17.0534 12.5979 17.0547C12.5972 17.0553 12.5967 17.0558 12.5963 17.0561C12.5962 17.0563 12.596 17.0564 12.5959 17.0564C12.5959 17.0565 12.5959 17.0565 12.5959 17.0565C12.5958 17.0565 12.5958 17.0565 13 17.5C13.4042 17.9435 13.4042 17.9434 13.4042 17.9434C13.4042 17.9434 13.4043 17.9434 13.4043 17.9433C13.4044 17.9432 13.4046 17.9431 13.4047 17.9429C13.4051 17.9426 13.4057 17.9421 13.4064 17.9414C13.4078 17.9401 13.41 17.9381 13.4128 17.9356C13.4185 17.9304 13.4268 17.9228 13.4378 17.9128C13.4596 17.8929 13.4916 17.8636 13.5326 17.8261C13.6144 17.7513 13.7318 17.6437 13.8743 17.5127C14.1591 17.2508 14.5445 16.8949 14.9462 16.5195C15.7307 15.7863 16.6317 14.9289 16.9184 14.5845L15.9962 13.8167ZM7.4 6.5C7.4 6.99706 6.99706 7.4 6.5 7.4V8.6C7.6598 8.6 8.6 7.6598 8.6 6.5H7.4ZM6.5 7.4C6.00294 7.4 5.6 6.99706 5.6 6.5H4.4C4.4 7.6598 5.3402 8.6 6.5 8.6V7.4ZM5.6 6.5C5.6 6.00294 6.00294 5.6 6.5 5.6V4.4C5.3402 4.4 4.4 5.3402 4.4 6.5H5.6ZM6.5 5.6C6.99706 5.6 7.4 6.00294 7.4 6.5H8.6C8.6 5.3402 7.6598 4.4 6.5 4.4V5.6Z" fill="#28293D"/>
<path d="M3 11.0858V4C3 3.44772 3.44772 3 4 3H11.0858C11.351 3 11.6054 3.10536 11.7929 3.29289L20.7929 12.2929C21.1834 12.6834 21.1834 13.3166 20.7929 13.7071L13.7071 20.7929C13.3166 21.1834 12.6834 21.1834 12.2929 20.7929L3.29289 11.7929C3.10536 11.6054 3 11.351 3 11.0858Z" stroke="#28293D" stroke-width="1.2"/>
</svg>
