<svg width="24" height="24" viewBox="0 0 24 24" fill="none" xmlns="http://www.w3.org/2000/svg">
<path d="M9.4012 6.5L10.2776 6.01849L10.2723 6.00882L10.2668 5.99927L9.4012 6.5ZM8.75354 12.3785L9.68302 12.7474L9.68302 12.7474L8.75354 12.3785ZM8.49848 18.3461L7.54819 18.6575L7.54819 18.6575L8.49848 18.3461ZM9.24847 20.4365L10.1736 20.0568L10.1736 20.0568L9.24847 20.4365ZM14.5988 6.5L13.7332 5.99927L13.7277 6.00882L13.7224 6.01849L14.5988 6.5ZM15.2465 12.3785L14.317 12.7474L14.317 12.7474L15.2465 12.3785ZM15.5015 18.3461L16.4518 18.6575L16.4518 18.6575L15.5015 18.3461ZM14.7515 20.4365L13.8264 20.0568L13.8264 20.0568L14.7515 20.4365ZM9.99986 5C9.99986 3.89543 10.8953 3 11.9999 3V1C9.79072 1 7.99986 2.79086 7.99986 5H9.99986ZM10.2668 5.99927C10.0972 5.70612 9.99986 5.36595 9.99986 5H7.99986C7.99986 5.72691 8.19467 6.41136 8.5356 7.00073L10.2668 5.99927ZM8.52477 6.98151C8.82093 7.52059 8.89274 8.18812 8.75042 9.05425C8.6063 9.93134 8.26003 10.9111 7.82406 12.0096L9.68302 12.7474C10.1219 11.6414 10.5418 10.487 10.724 9.37853C10.9079 8.25906 10.8661 7.08957 10.2776 6.01849L8.52477 6.98151ZM7.54819 18.6575C7.76729 19.3262 8.0526 20.1564 8.32335 20.8161L10.1736 20.0568C9.9315 19.4669 9.66448 18.6931 9.44877 18.0347L7.54819 18.6575ZM8.32335 20.8161C8.63469 21.5748 9.3706 22 10.1182 22V20C10.1158 20 10.1216 19.9993 10.1332 20.0067C10.1466 20.0153 10.1637 20.0326 10.1736 20.0568L8.32335 20.8161ZM7.82406 12.0096C7.35369 13.1949 7.09863 14.4611 7.09863 15.7486H9.09863C9.09863 14.7259 9.30123 13.7094 9.68302 12.7474L7.82406 12.0096ZM16.0001 5C16.0001 2.79074 14.2089 1 11.9999 1V3C13.1046 3 14.0001 3.89555 14.0001 5H16.0001ZM15.4644 7.00073C15.8053 6.41136 16.0001 5.72691 16.0001 5H14.0001C14.0001 5.36595 13.9028 5.70612 13.7332 5.99927L15.4644 7.00073ZM13.7224 6.01849C13.1339 7.08957 13.0921 8.25906 13.276 9.37853C13.4582 10.487 13.8781 11.6414 14.317 12.7474L16.1759 12.0096C15.74 10.9111 15.3937 9.93134 15.2496 9.05425C15.1073 8.18812 15.1791 7.52059 15.4752 6.98151L13.7224 6.01849ZM14.5512 18.0347C14.3355 18.6931 14.0685 19.4669 13.8264 20.0568L15.6767 20.8161C15.9474 20.1564 16.2327 19.3262 16.4518 18.6575L14.5512 18.0347ZM13.8264 20.0568C13.8363 20.0326 13.8534 20.0153 13.8668 20.0067C13.8784 19.9993 13.8842 20 13.8818 20V22C14.6294 22 15.3653 21.5748 15.6767 20.8161L13.8264 20.0568ZM10.1182 22H13.8818V20H10.1182V22ZM14.317 12.7474C14.616 13.5009 14.8051 14.2879 14.8731 15.0849L16.8658 14.9151C16.7807 13.916 16.5444 12.938 16.1759 12.0096L14.317 12.7474ZM14.8731 15.0849C14.8918 15.3055 14.9014 15.5268 14.9014 15.7486H16.9014C16.9014 15.4696 16.8894 15.1916 16.8658 14.9151L14.8731 15.0849ZM8.09863 16H15.8694V14H8.09863V16ZM7.09863 15.7486C7.09863 16.5911 7.20194 17.4394 7.43017 18.2661L9.35805 17.7339C9.18202 17.0963 9.09863 16.4283 9.09863 15.7486H7.09863ZM7.43017 18.2661C7.46634 18.3972 7.50565 18.5276 7.54819 18.6575L9.44877 18.0347C9.41618 17.9352 9.38595 17.8349 9.35805 17.7339L7.43017 18.2661ZM14.9014 15.7486C14.9014 16.4283 14.818 17.0963 14.642 17.7339L16.5698 18.2661C16.7981 17.4394 16.9014 16.5911 16.9014 15.7486H14.9014ZM14.642 17.7339C14.6141 17.8349 14.5838 17.9352 14.5512 18.0347L16.4518 18.6575C16.4943 18.5276 16.5337 18.3972 16.5698 18.2661L14.642 17.7339ZM8.39411 19H15.6059V17H8.39411V19Z" fill="#555770"/>
</svg>
