<svg width="24" height="24" viewBox="0 0 24 24" fill="none" xmlns="http://www.w3.org/2000/svg">
<path d="M7 3V2H6V3H7ZM6 12H5V12.5L5.4 12.8L6 12ZM11 19.3819L11.6669 20.1271L11.6669 20.1271L11 19.3819ZM11.0078 19.3751L11.6695 20.1248L11.6695 20.1248L11.0078 19.3751ZM17 3H18V2H17V3ZM18 12L18.8321 12.5547L19 12.3028V12H18ZM13 19.3819L12.3331 20.1271L12.3331 20.1271L13 19.3819ZM12.9922 19.3751L12.3305 20.1248L12.3305 20.1248L12.9922 19.3751ZM11.5 18.7555L12.3557 19.2729L12.5 19.0343V18.7555H11.5ZM11.5 13.4921H12.5V12.5235L11.5319 12.4926L11.5 13.4921ZM12.5 18.7555H11.5V19.0343L11.6443 19.2729L12.5 18.7555ZM12.5 13.4948L12.479 12.4951L11.5 12.5156V13.4948H12.5ZM8 9V3H6V9H8ZM7 8H6.1V10H7V8ZM5 9.1V12H7V9.1H5ZM9.5 20.5C9.5 21.8807 10.6193 23 12 23V21C11.7239 21 11.5 20.7761 11.5 20.5H9.5ZM11.5 20.5C11.5 20.352 11.563 20.2201 11.6669 20.1271L10.3331 18.6368C9.82323 19.0931 9.5 19.7595 9.5 20.5H11.5ZM11.6669 20.1271C11.6677 20.1264 11.6685 20.1257 11.6695 20.1248L10.346 18.6253C10.3418 18.629 10.3375 18.6329 10.3331 18.6368L11.6669 20.1271ZM11.6695 20.1248C11.7583 20.0464 11.8725 20 12 20V18C11.3666 18 10.7861 18.2369 10.346 18.6254L11.6695 20.1248ZM18 9V3H16V9H18ZM17 10H17.9V8H17V10ZM17 9.1V12H19V9.1H17ZM12.5 20.5C12.5 20.7761 12.2761 21 12 21V23C13.3807 23 14.5 21.8807 14.5 20.5H12.5ZM14.5 20.5C14.5 19.7595 14.1768 19.0931 13.6669 18.6368L12.3331 20.1271C12.437 20.2201 12.5 20.352 12.5 20.5H14.5ZM13.6669 18.6368C13.6625 18.6329 13.6582 18.629 13.654 18.6253L12.3305 20.1248C12.3315 20.1257 12.3323 20.1264 12.3331 20.1271L13.6669 18.6368ZM13.654 18.6254C13.2139 18.2369 12.6334 18 12 18V20C12.1275 20 12.2417 20.0464 12.3305 20.1248L13.654 18.6254ZM7 4H17V2H7V4ZM7 10H17V8H7V10ZM11.6749 20.1199C11.8913 19.9262 12.1372 19.6343 12.3557 19.2729L10.6443 18.2381C10.5152 18.4515 10.3918 18.5843 10.3406 18.6302L11.6749 20.1199ZM12.5 18.7555V13.4921H10.5V18.7555H12.5ZM13.6594 18.6302C13.6082 18.5843 13.4848 18.4515 13.3557 18.2381L11.6443 19.2729C11.8628 19.6343 12.1087 19.9262 12.3251 20.1199L13.6594 18.6302ZM18 12C17.1679 11.4453 17.1686 11.4444 17.1691 11.4435C17.1693 11.4432 17.1699 11.4423 17.1703 11.4417C17.1711 11.4406 17.1719 11.4394 17.1726 11.4383C17.1742 11.4361 17.1756 11.4339 17.1771 11.4319C17.1799 11.4277 17.1826 11.4239 17.1851 11.4205C17.19 11.4136 17.1942 11.4081 17.1975 11.4038C17.2041 11.3953 17.2072 11.3919 17.206 11.3932C17.2039 11.3956 17.1843 11.4171 17.1418 11.4526C17.0574 11.5231 16.8768 11.6536 16.5525 11.7995C15.9014 12.0924 14.6663 12.4491 12.479 12.4951L12.521 14.4946C14.9011 14.4447 16.416 14.054 17.373 13.6234C17.8528 13.4076 18.1908 13.1824 18.424 12.9876C18.5403 12.8904 18.6293 12.8018 18.696 12.7274C18.7293 12.6902 18.7568 12.6568 18.7793 12.6277C18.7906 12.6131 18.8005 12.5997 18.8093 12.5875C18.8137 12.5814 18.8177 12.5756 18.8215 12.5702C18.8234 12.5674 18.8253 12.5648 18.827 12.5622C18.8279 12.5609 18.8287 12.5596 18.8296 12.5584C18.83 12.5578 18.8306 12.5568 18.8308 12.5565C18.8314 12.5556 18.8321 12.5547 18 12ZM13.5 18.7555V13.4948H11.5V18.7555H13.5ZM6 12C5.4 12.8 5.40037 12.8003 5.40074 12.8006C5.40087 12.8007 5.40125 12.8009 5.40152 12.8011C5.40206 12.8015 5.40262 12.802 5.40322 12.8024C5.40441 12.8033 5.40571 12.8043 5.40713 12.8053C5.40997 12.8074 5.41328 12.8098 5.41705 12.8126C5.42458 12.8181 5.43397 12.8248 5.44522 12.8327C5.4677 12.8486 5.49762 12.8692 5.53495 12.8938C5.60963 12.9431 5.71405 13.0087 5.84823 13.0853C6.11661 13.2384 6.50416 13.4354 7.01087 13.6335C8.02581 14.0303 9.51288 14.4291 11.4681 14.4916L11.5319 12.4926C9.82045 12.4379 8.55753 12.0908 7.73913 11.7708C7.32917 11.6105 7.02923 11.4564 6.83927 11.3481C6.74429 11.2939 6.67683 11.2511 6.63692 11.2248C6.61697 11.2116 6.60391 11.2026 6.59775 11.1982C6.59467 11.196 6.59332 11.1951 6.5937 11.1953C6.59388 11.1955 6.5945 11.1959 6.59555 11.1967C6.59608 11.1971 6.59671 11.1975 6.59745 11.1981C6.59782 11.1984 6.59822 11.1987 6.59865 11.199C6.59886 11.1991 6.5992 11.1994 6.5993 11.1995C6.59965 11.1997 6.6 11.2 6 12ZM17.9 10C17.4029 10 17 9.59706 17 9.1H19C19 8.49249 18.5075 8 17.9 8V10ZM6.1 8C5.49249 8 5 8.49249 5 9.1H7C7 9.59706 6.59706 10 6.1 10V8Z" fill="#555770"/>
</svg>
