<svg width="24" height="24" viewBox="0 0 24 24" fill="none" xmlns="http://www.w3.org/2000/svg">
<path d="M6.07079 5.07071L6.7779 4.3636L6.07079 5.07071ZM14.4294 13.4293L13.7223 14.1364L14.4294 13.4293ZM11.4294 16.4293L10.7223 17.1364L10.7223 17.1364L11.4294 16.4293ZM3.07079 8.07071L2.36369 8.77782L2.36369 8.77782L3.07079 8.07071ZM3.07079 7.92929L2.36369 7.22218L2.36369 7.22218L3.07079 7.92929ZM5.92937 5.07071L5.22226 4.3636L5.92937 5.07071ZM5.36369 5.77782L13.7223 14.1364L15.1365 12.7222L6.7779 4.3636L5.36369 5.77782ZM13.7223 12.8636L10.8637 15.7222L12.2779 17.1364L15.1365 14.2778L13.7223 12.8636ZM12.1365 15.7222L3.7779 7.3636L2.36369 8.77782L10.7223 17.1364L12.1365 15.7222ZM3.7779 8.6364L6.63648 5.77782L5.22226 4.3636L2.36369 7.22218L3.7779 8.6364ZM22.0001 5.5C22.0001 3.567 20.4331 2 18.5001 2V4C19.3285 4 20.0001 4.67157 20.0001 5.5H22.0001ZM18.5001 9C20.4331 9 22.0001 7.433 22.0001 5.5H20.0001C20.0001 6.32843 19.3285 7 18.5001 7V9ZM15.0001 5.5C15.0001 7.433 16.5671 9 18.5001 9V7C17.6717 7 17.0001 6.32843 17.0001 5.5H15.0001ZM17.0001 5.5C17.0001 4.67157 17.6717 4 18.5001 4V2C16.5671 2 15.0001 3.567 15.0001 5.5H17.0001ZM3.7779 7.3636C4.12937 7.71507 4.12938 8.28492 3.7779 8.6364L2.36369 7.22218C1.9341 7.65177 1.93412 8.34825 2.36369 8.77782L3.7779 7.3636ZM10.8637 15.7222C11.2152 15.3707 11.785 15.3707 12.1365 15.7222L10.7223 17.1364C11.1518 17.566 11.8483 17.566 12.2779 17.1364L10.8637 15.7222ZM13.7223 14.1364C13.3708 13.7849 13.3708 13.2151 13.7223 12.8636L15.1365 14.2778C15.5661 13.8482 15.566 13.1518 15.1365 12.7222L13.7223 14.1364ZM6.7779 4.3636C6.34832 3.93403 5.65184 3.93403 5.22226 4.3636L6.63648 5.77782C6.28501 6.12929 5.71516 6.12929 5.36369 5.77782L6.7779 4.3636ZM14.293 17.7071L18.793 22.2071L20.2072 20.7929L15.7072 16.2929L14.293 17.7071Z" fill="#555770"/>
</svg>
