<svg width="24" height="24" viewBox="0 0 24 24" fill="none" xmlns="http://www.w3.org/2000/svg">
<path d="M13.5744 7.68781L14.3378 8.33375L14.3378 8.33375L13.5744 7.68781ZM3.99048 19.0143L3.2271 18.3683L2.63275 19.0707L3.28338 19.7214L3.99048 19.0143ZM4.98573 20.0095L4.27862 20.7166L4.92925 21.3673L5.63167 20.7729L4.98573 20.0095ZM16.3122 10.4256L16.9581 11.189L16.9581 11.189L16.3122 10.4256ZM16.431 7.56899L17.1381 6.86188L17.1381 6.86188L16.431 7.56899ZM9.04325 13.0428L9.80663 13.6888L9.80663 13.6888L9.04325 13.0428ZM6.9762 18.3253L6.33026 17.5619L6.33026 17.5619L6.9762 18.3253ZM3.28338 19.7214L4.27862 20.7166L5.69283 19.3024L4.69759 18.3072L3.28338 19.7214ZM15.7239 8.2761C16.1138 8.66604 16.0872 9.30598 15.6662 9.6622L16.9581 11.189C18.2723 10.077 18.3554 8.0792 17.1381 6.86188L15.7239 8.2761ZM17.1381 6.86188C15.9208 5.64457 13.923 5.72766 12.811 7.04187L14.3378 8.33375C14.694 7.91277 15.334 7.88615 15.7239 8.2761L17.1381 6.86188ZM4.91135 16.3778L3.2271 18.3683L4.75387 19.6602L6.43812 17.6697L4.91135 16.3778ZM5.67473 16.0238H3.99048V18.0238H5.67473V16.0238ZM12.811 7.04187L8.27986 12.3969L9.80663 13.6888L14.3378 8.33375L12.811 7.04187ZM8.27986 12.3969L4.91135 16.3778L6.43812 17.6697L9.80663 13.6888L8.27986 12.3969ZM3.99048 14.0428H9.04325V12.0428H3.99048V14.0428ZM5.63167 20.7729L7.62215 19.0886L6.33026 17.5619L4.33978 19.2461L5.63167 20.7729ZM5.9762 18.3253V20.0095H7.9762V18.3253H5.9762ZM7.62215 19.0886L11.6031 15.7201L10.3112 14.1934L6.33026 17.5619L7.62215 19.0886ZM11.6031 15.7201L16.9581 11.189L15.6662 9.6622L10.3112 14.1934L11.6031 15.7201ZM11.9572 20.0095V14.9567H9.95718V20.0095H11.9572ZM5.9762 20.0095C5.9762 21.6611 7.31509 23 8.96669 23V21C8.41966 21 7.9762 20.5565 7.9762 20.0095H5.9762ZM3 15.0333C3 14.4863 3.44345 14.0428 3.99048 14.0428V12.0428C2.33888 12.0428 1 13.3817 1 15.0333H3ZM8.96669 23C10.6183 23 11.9572 21.6611 11.9572 20.0095H9.95718C9.95718 20.5565 9.51372 21 8.96669 21V23ZM3.99048 16.0238C3.44345 16.0238 3 15.5803 3 15.0333H1C1 16.6849 2.33888 18.0238 3.99048 18.0238V16.0238Z" fill="#555770"/>
<path d="M21 3L17 7" stroke="#555770"/>
</svg>
