<svg width="24" height="24" viewBox="0 0 24 24" fill="none" xmlns="http://www.w3.org/2000/svg">
<path d="M16 20.6882L16.1634 21.6747L16 20.6882ZM9.52115 8.1221C9.0363 8.38657 8.85764 8.994 9.1221 9.47885C9.38657 9.9637 9.994 10.1424 10.4789 9.8779L9.52115 8.1221ZM21.4789 3.8779C21.9637 3.61343 22.1424 3.006 21.8779 2.52115C21.6134 2.0363 21.006 1.85764 20.5211 2.1221L21.4789 3.8779ZM20 9C20 9.00073 20.0001 9.00494 19.9969 9.01529C19.9936 9.02644 19.9852 9.04845 19.9649 9.08143C19.9225 9.15057 19.8359 9.25453 19.6738 9.38232C19.3436 9.64253 18.8038 9.9206 18.0477 10.1726C16.546 10.6732 14.4077 11 12 11V13C14.5629 13 16.9246 12.6552 18.6802 12.07C19.5528 11.7791 20.331 11.4108 20.9117 10.9531C21.4811 10.5044 22 9.85195 22 9H20ZM12 11C9.59229 11 7.45402 10.6732 5.95227 10.1726C5.19616 9.9206 4.65642 9.64253 4.32624 9.38232C4.16408 9.25453 4.07752 9.15057 4.03507 9.08143C4.01483 9.04845 4.00645 9.02644 4.00305 9.01529C3.9999 9.00494 4 9.00073 4 9H2C2 9.85195 2.51889 10.5044 3.08829 10.9531C3.66896 11.4108 4.44724 11.7791 5.31981 12.07C7.07541 12.6552 9.43715 13 12 13V11ZM4 9C4 8.99927 3.9999 8.99506 4.00305 8.98471C4.00645 8.97356 4.01483 8.95155 4.03507 8.91857C4.07752 8.84943 4.16408 8.74547 4.32624 8.61768C4.65642 8.35747 5.19616 8.0794 5.95227 7.82736C7.45402 7.32678 9.59229 7 12 7V5C9.43715 5 7.07541 5.3448 5.31981 5.93C4.44724 6.22085 3.66896 6.58923 3.08829 7.04685C2.51889 7.49559 2 8.14805 2 9H4ZM12 7C14.4077 7 16.546 7.32678 18.0477 7.82736C18.8038 8.0794 19.3436 8.35747 19.6738 8.61768C19.8359 8.74547 19.9225 8.84943 19.9649 8.91857C19.9852 8.95155 19.9936 8.97356 19.9969 8.98471C20.0001 8.99506 20 8.99927 20 9H22C22 8.14805 21.4811 7.49559 20.9117 7.04685C20.331 6.58923 19.5528 6.22085 18.6802 5.93C16.9246 5.3448 14.5629 5 12 5V7ZM2 9V18H4V9H2ZM20 9V18H22V9H20ZM12 20C10.6137 20 9.31035 19.8916 8.16343 19.7016L7.83657 21.6747C9.09956 21.8839 10.5126 22 12 22V20ZM8.16343 19.7016C6.74053 19.4659 5.60515 19.1123 4.85486 18.717C4.47923 18.5191 4.2444 18.3337 4.11437 18.1863C4.05196 18.1156 4.02316 18.0643 4.01054 18.0352C4.00439 18.0211 4.00195 18.0119 4.00098 18.0075C4.00005 18.0032 4 18.001 4 18H2C2 19.1972 2.99824 19.9994 3.92257 20.4864C4.93141 21.018 6.29604 21.4195 7.83657 21.6747L8.16343 19.7016ZM11.0916 11.5818L7.09165 20.27L8.90835 21.1064L12.9084 12.4182L11.0916 11.5818ZM20 18C20 18.001 19.9999 18.0032 19.999 18.0075C19.998 18.0119 19.9956 18.0211 19.9895 18.0352C19.9768 18.0643 19.948 18.1156 19.8856 18.1863C19.7556 18.3337 19.5208 18.5191 19.1451 18.717C18.3948 19.1123 17.2595 19.4659 15.8366 19.7016L16.1634 21.6747C17.704 21.4195 19.0686 21.018 20.0774 20.4864C21.0018 19.9994 22 19.1972 22 18H20ZM15.8366 19.7016C14.6896 19.8916 13.3863 20 12 20V22C13.4874 22 14.9004 21.8839 16.1634 21.6747L15.8366 19.7016ZM11.0916 12.4182L15.0916 21.1064L16.9084 20.27L12.9084 11.5818L11.0916 12.4182ZM16.9194 21.0815L21.9194 9.39331L20.0806 8.60669L15.0806 20.2949L16.9194 21.0815ZM8.91941 20.2949L3.91941 8.60669L2.08059 9.39331L7.08059 21.0815L8.91941 20.2949ZM10.4789 9.8779L21.4789 3.8779L20.5211 2.1221L9.52115 8.1221L10.4789 9.8779Z" fill="#555770"/>
</svg>
