<svg width="24" height="24" viewBox="0 0 24 24" fill="none" xmlns="http://www.w3.org/2000/svg">
<path d="M4.09858 8.6664L3.10867 8.52471L3.10867 8.52471L4.09858 8.6664ZM3.01702 16.2226L4.00693 16.3643L4.00693 16.3643L3.01702 16.2226ZM5.60375 17.5912L6.27571 18.3318L6.27571 18.3318L5.60375 17.5912ZM8.11047 15.3168V14.3168H7.72442L7.43851 14.5762L8.11047 15.3168ZM19.9014 8.6664L20.8913 8.52471L20.8913 8.52471L19.9014 8.6664ZM20.983 16.2226L19.9931 16.3643L19.9931 16.3643L20.983 16.2226ZM18.3962 17.5912L17.7243 18.3318L17.7243 18.3318L18.3962 17.5912ZM15.8895 15.3168L16.5615 14.5762L16.2756 14.3168H15.8895V15.3168ZM3.10867 8.52471L2.02711 16.0809L4.00693 16.3643L5.08849 8.80809L3.10867 8.52471ZM6.27571 18.3318L8.78243 16.0574L7.43851 14.5762L4.9318 16.8506L6.27571 18.3318ZM8.11047 16.3168H12.2593V14.3168H8.11047V16.3168ZM2.02711 16.0809C1.6874 18.4543 4.50728 19.9363 6.27571 18.3318L4.9318 16.8506C4.5426 17.2037 3.93427 16.872 4.00693 16.3643L2.02711 16.0809ZM7.17894 5C5.13434 5 3.39837 6.50077 3.10867 8.52471L5.08849 8.80809C5.23678 7.77209 6.12652 7 7.17894 7V5ZM18.9115 8.80809L19.9931 16.3643L21.9729 16.0809L20.8913 8.52471L18.9115 8.80809ZM19.0682 16.8506L16.5615 14.5762L15.2176 16.0574L17.7243 18.3318L19.0682 16.8506ZM15.8895 14.3168H11.7407V16.3168H15.8895V14.3168ZM19.9931 16.3643C20.0657 16.872 19.4574 17.2037 19.0682 16.8506L17.7243 18.3318C19.4927 19.9363 22.3126 18.4543 21.9729 16.0809L19.9931 16.3643ZM16.8211 7C17.8735 7 18.7632 7.77209 18.9115 8.80809L20.8913 8.52471C20.6016 6.50077 18.8657 5 16.8211 5V7ZM7.17894 7H16.8211V5H7.17894V7Z" fill="#555770"/>
<path d="M17 11.5C17.2761 11.5 17.5 11.7239 17.5 12C17.5 12.2761 17.2761 12.5 17 12.5C16.7239 12.5 16.5 12.2761 16.5 12C16.5 11.7239 16.7239 11.5 17 11.5Z" fill="#555770"/>
<path d="M15.5 8.5C15.7761 8.5 16 8.72386 16 9C16 9.27614 15.7761 9.5 15.5 9.5C15.2239 9.5 15 9.27614 15 9C15 8.72386 15.2239 8.5 15.5 8.5Z" fill="#555770"/>
<path d="M9.75 13V10.5H8.25V13H9.75ZM9.75 10.5V8H8.25V10.5H9.75ZM6.5 11.25H9V9.75H6.5V11.25ZM9 11.25H11.5V9.75H9V11.25ZM18.25 12C18.25 11.3096 17.6904 10.75 17 10.75V12.25C16.8619 12.25 16.75 12.1381 16.75 12H18.25ZM17 13.25C17.6904 13.25 18.25 12.6904 18.25 12H16.75C16.75 11.8619 16.8619 11.75 17 11.75V13.25ZM15.75 12C15.75 12.6904 16.3096 13.25 17 13.25V11.75C17.1381 11.75 17.25 11.8619 17.25 12H15.75ZM17.25 12C17.25 12.1381 17.1381 12.25 17 12.25V10.75C16.3096 10.75 15.75 11.3096 15.75 12H17.25ZM16.75 9C16.75 8.30964 16.1904 7.75 15.5 7.75V9.25C15.3619 9.25 15.25 9.13807 15.25 9H16.75ZM15.5 10.25C16.1904 10.25 16.75 9.69036 16.75 9H15.25C15.25 8.86193 15.3619 8.75 15.5 8.75V10.25ZM14.25 9C14.25 9.69036 14.8096 10.25 15.5 10.25V8.75C15.6381 8.75 15.75 8.86193 15.75 9H14.25ZM15.75 9C15.75 9.13807 15.6381 9.25 15.5 9.25V7.75C14.8096 7.75 14.25 8.30964 14.25 9H15.75Z" fill="#555770"/>
</svg>
