<svg width="24" height="24" viewBox="0 0 24 24" fill="none" xmlns="http://www.w3.org/2000/svg">
<mask id="mask0_402_14911" style="mask-type:alpha" maskUnits="userSpaceOnUse" x="1" y="3" width="22" height="18">
<path d="M11.7321 18.5H12.6654L6 4.14382V3H23V21H1V14H9.64286L11.7321 18.5Z" fill="white"/>
</mask>
<g mask="url(#mask0_402_14911)">
<path d="M16.5 5V4H18.0668L17.407 5.42111L16.5 5ZM15.5 5L14.5909 4.58335L14.8583 4H15.5V5ZM10 17L10.9091 17.4167L10.6417 18H10V17ZM7 17H6V16H7V17ZM7 19V20H6V19H7ZM3.5 17V16H4.5V17H3.5ZM3.5 19H4.5V20H3.5V19ZM3 19V20H2V19H3ZM10.0269 18.9421L9.11987 18.521L10.0269 18.9421ZM16.5 6H15.5V4H16.5V6ZM16.4091 5.41665L10.9091 17.4167L9.09094 16.5833L14.5909 4.58335L16.4091 5.41665ZM10 18H7V16H10V18ZM8 17V19H6V17H8ZM7 18H9.93618V20H7V18ZM9.11987 18.521L15.593 4.57889L17.407 5.42111L10.9339 19.3632L9.11987 18.521ZM4.5 17V19H2.5V17H4.5ZM3.5 20H3V18H3.5V20ZM2 19V17.1H4V19H2ZM3.1 16H3.5V18H3.1V16ZM2 17.1C2 16.4925 2.49249 16 3.1 16V18C3.59706 18 4 17.5971 4 17.1H2ZM9.93618 18C9.58587 18 9.26739 18.2033 9.11987 18.521L10.9339 19.3632C10.7536 19.7516 10.3643 20 9.93618 20V18Z" fill="#555770"/>
</g>
<path d="M7.5 5V4H5.93319L6.59299 5.42111L7.5 5ZM8.5 5L9.40906 4.58335L9.1417 4H8.5V5ZM14 17L13.0909 17.4167L13.3583 18H14V17ZM17 17H18V16H17V17ZM17 19V20H18V19H17ZM20.5 17V16H19.5V17H20.5ZM20.5 19H19.5V20H20.5V19ZM21 19V20H22V19H21ZM13.9731 18.9421L14.8801 18.521L13.9731 18.9421ZM7.5 6H8.5V4H7.5V6ZM7.59094 5.41665L13.0909 17.4167L14.9091 16.5833L9.40906 4.58335L7.59094 5.41665ZM14 18H17V16H14V18ZM16 17V19H18V17H16ZM17 18H14.0638V20H17V18ZM14.8801 18.521L8.40701 4.57889L6.59299 5.42111L13.0661 19.3632L14.8801 18.521ZM19.5 17V19H21.5V17H19.5ZM20.5 20H21V18H20.5V20ZM22 19V17.1H20V19H22ZM20.9 16H20.5V18H20.9V16ZM22 17.1C22 16.4925 21.5075 16 20.9 16V18C20.4029 18 20 17.5971 20 17.1H22ZM14.0638 18C14.4141 18 14.7326 18.2033 14.8801 18.521L13.0661 19.3632C13.2464 19.7516 13.6357 20 14.0638 20V18Z" fill="#555770"/>
</svg>
