<svg width="24" height="24" viewBox="0 0 24 24" fill="none" xmlns="http://www.w3.org/2000/svg">
<path d="M14.0001 19L13.965 19.9994L13.9825 20H14.0001V19ZM3.93089 18.9985L3.92938 17.9985L3.92938 17.9985L3.93089 18.9985ZM2.96319 18.0683L1.96323 18.078L2.96319 18.0683ZM11.7395 9.32834L12.236 8.46029L12.2279 8.4557L12.2198 8.45126L11.7395 9.32834ZM20.0001 12C20.0001 15.3137 17.3138 18 14.0001 18V20C18.4184 20 22.0001 16.4183 22.0001 12H20.0001ZM14.0001 6C17.3138 6 20.0001 8.68629 20.0001 12H22.0001C22.0001 7.58172 18.4184 4 14.0001 4V6ZM14.0352 18.0006C13.6438 17.9869 7.59984 17.993 3.92938 17.9985L3.9324 19.9985C5.77804 19.9957 8.20311 19.9929 10.2125 19.9923C11.2172 19.9921 12.1175 19.9924 12.7893 19.9935C13.1253 19.9941 13.4033 19.9949 13.6083 19.996C13.7109 19.9965 13.7942 19.9971 13.8569 19.9977C13.8882 19.9981 13.9135 19.9984 13.9329 19.9987C13.9426 19.9989 13.9502 19.999 13.956 19.9991C13.9589 19.9992 13.9611 19.9993 13.9627 19.9993C13.9644 19.9994 13.9651 19.9994 13.965 19.9994L14.0352 18.0006ZM3.92938 17.9985C3.92712 17.9985 3.93287 17.9982 3.94107 18.006C3.94536 18.0101 3.95112 18.0171 3.95591 18.0279C3.96106 18.0394 3.96306 18.0508 3.96314 18.0585L1.96323 18.078C1.97406 19.1886 2.8951 20.0001 3.93241 19.9985L3.92938 17.9985ZM12.0001 11.5C12.0001 12.3284 11.3285 13 10.5001 13V15C12.4331 15 14.0001 13.433 14.0001 11.5H12.0001ZM8.1076 7.80102C9.51961 6.72116 11.4213 6 14.0001 6V4C11.021 4 8.68316 4.84302 6.89264 6.21235L8.1076 7.80102ZM11.243 10.1964C11.6975 10.4563 12.0001 10.9434 12.0001 11.5H14.0001C14.0001 10.1971 13.2877 9.06182 12.236 8.46029L11.243 10.1964ZM7.01979 7.88377L11.2592 10.2054L12.2198 8.45126L7.98045 6.1296L7.01979 7.88377ZM3.96314 18.0585C3.95203 16.9186 4.06537 15.581 4.37167 14.2195L2.42043 13.7805C2.07725 15.3061 1.95077 16.7984 1.96323 18.078L3.96314 18.0585ZM4.37167 14.2195C4.92113 11.7769 6.06533 9.36288 8.1076 7.80102L6.89264 6.21235C4.34444 8.16113 3.02881 11.0761 2.42043 13.7805L4.37167 14.2195ZM10.5001 13H3.39605V15H10.5001V13Z" fill="#555770"/>
</svg>
