<svg width="24" height="24" viewBox="0 0 24 24" fill="none" xmlns="http://www.w3.org/2000/svg">
<path d="M13 6L13.7071 5.29289L13.4142 5H13V6ZM4.5 10L5.20711 9.29289L4.91421 9H4.5V10ZM10.5 16L9.79289 16.7071L10.0858 17H10.5V16ZM12.5 16V17H13.0818L13.3694 16.4942L12.5 16ZM15.9106 10L16.78 10.4942L16.78 10.4942L15.9106 10ZM11 10V9H10.7694L10.5621 9.10099L11 10ZM19 7.5H20V5.9441L18.5847 6.59034L19 7.5ZM19 8.5V9.5H20V8.5H19ZM6.89434 12L6.4564 11.101L6.4564 11.101L6.89434 12ZM6 15C6 16.1046 5.10457 17 4 17V19C6.20914 19 8 17.2091 8 15H6ZM4 17C2.89543 17 2 16.1046 2 15H0C0 17.2091 1.79086 19 4 19V17ZM2 15C2 13.8954 2.89543 13 4 13V11C1.79086 11 0 12.7909 0 15H2ZM4 13C5.10457 13 6 13.8954 6 15H8C8 12.7909 6.20914 11 4 11V13ZM22 15C22 16.1046 21.1046 17 20 17V19C22.2091 19 24 17.2091 24 15H22ZM20 17C18.8954 17 18 16.1046 18 15H16C16 17.2091 17.7909 19 20 19V17ZM18 15C18 13.8954 18.8954 13 20 13V11C17.7909 11 16 12.7909 16 15H18ZM20 13C21.1046 13 22 13.8954 22 15H24C24 12.7909 22.2091 11 20 11V13ZM9 7H13V5H9V7ZM0 11H4.5V9H0V11ZM10.5 17H12.5V15H10.5V17ZM15.6006 10.0148L18.4379 12.8337L19.8475 11.4149L17.0102 8.59601L15.6006 10.0148ZM16.78 10.4942L17.1748 9.7996L15.4361 8.81125L15.0412 9.50583L16.78 10.4942ZM15.9106 9H11V11H15.9106V9ZM3.79289 10.7071L5.92206 12.8363L7.33628 11.4221L5.20711 9.29289L3.79289 10.7071ZM12.2929 6.70711L15.2035 9.61771L16.6177 8.20349L13.7071 5.29289L12.2929 6.70711ZM15.2035 9.61771L15.5983 10.0125L17.0125 8.59831L16.6177 8.20349L15.2035 9.61771ZM16.3259 9.82026L17.2252 9.40966L16.3945 7.59034L15.4953 8.00094L16.3259 9.82026ZM17.2252 9.40966L19.4153 8.40966L18.5847 6.59034L16.3945 7.59034L17.2252 9.40966ZM18 7.5V8.5H20V7.5H18ZM19 7.5H16.8099V9.5H19V7.5ZM5.92206 12.8363L7.79289 14.7071L9.20711 13.2929L7.33628 11.4221L5.92206 12.8363ZM7.79289 14.7071L9.79289 16.7071L11.2071 15.2929L9.20711 13.2929L7.79289 14.7071ZM13.3694 16.4942L14.5062 14.4942L12.7675 13.5058L11.6306 15.5058L13.3694 16.4942ZM8.5 15H13.6369V13H8.5V15ZM14.5062 14.4942L15.6431 12.4942L13.9044 11.5058L12.7675 13.5058L14.5062 14.4942ZM15.6431 12.4942L16.78 10.4942L15.0412 9.50583L13.9044 11.5058L15.6431 12.4942ZM6.4564 11.101L6.19124 11.2302L7.06711 13.0282L7.33227 12.899L6.4564 11.101ZM14.7737 11H6.89434V13H14.7737V11ZM10.5621 9.10099L6.4564 11.101L7.33227 12.899L11.4379 10.899L10.5621 9.10099Z" fill="#555770"/>
</svg>
