<svg width="24" height="24" viewBox="0 0 24 24" fill="none" xmlns="http://www.w3.org/2000/svg">
<path d="M8.08541 6.42439L8.22599 5.43432L7.41205 5.31874L7.14122 6.09497L8.08541 6.42439ZM3 21L2.05582 20.6706L1.37335 22.6267L3.32942 21.9442L3 21ZM15.5089 4.35636L16.216 3.64925L16.216 3.64925L15.5089 4.35636ZM14.8644 3.71186L14.0644 3.11186L13.544 3.8057L14.1573 4.41897L14.8644 3.71186ZM17.5756 15.9146L17.905 16.8588L18.6813 16.588L18.5657 15.774L17.5756 15.9146ZM20.2881 9.13559L19.581 9.8427L20.1943 10.456L20.8881 9.93559L20.2881 9.13559ZM13.4793 11.8183C13.121 12.1767 12.54 12.1767 12.1817 11.8183L10.7675 13.2325C11.9069 14.3719 13.7542 14.3719 14.8935 13.2325L13.4793 11.8183ZM12.1817 11.8183C11.8233 11.46 11.8233 10.879 12.1817 10.5207L10.7675 9.10645C9.62808 10.2458 9.62808 12.0931 10.7675 13.2325L12.1817 11.8183ZM12.1817 10.5207C12.54 10.1623 13.121 10.1623 13.4793 10.5207L14.8935 9.10645C13.7542 7.96707 11.9069 7.96707 10.7675 9.10645L12.1817 10.5207ZM13.4793 10.5207C13.8377 10.879 13.8377 11.46 13.4793 11.8183L14.8935 13.2325C16.0329 12.0931 16.0329 10.2458 14.8935 9.10645L13.4793 10.5207ZM7.14122 6.09497L2.05582 20.6706L3.94418 21.3294L9.02959 6.75381L7.14122 6.09497ZM3.70711 21.7071L12.1817 13.2325L10.7675 11.8183L2.29289 20.2929L3.70711 21.7071ZM14.8751 3.58285C12.9686 5.145 10.5448 5.76358 8.22599 5.43432L7.94482 7.41446C10.7976 7.81954 13.7877 7.05944 16.1427 5.12987L14.8751 3.58285ZM15.6644 4.31186L17.6983 1.6L16.0983 0.4L14.0644 3.11186L15.6644 4.31186ZM14.1573 4.41897L14.8018 5.06346L16.216 3.64925L15.5715 3.00476L14.1573 4.41897ZM17.2462 14.9704L2.67058 20.0558L3.32942 21.9442L17.905 16.8588L17.2462 14.9704ZM18.8701 7.85732C16.9406 10.2123 16.1805 13.2024 16.5855 16.0552L18.5657 15.774C18.2364 13.4552 18.855 11.0314 20.4172 9.12489L18.8701 7.85732ZM20.8881 9.93559L23.6 7.9017L22.4 6.3017L19.6881 8.33559L20.8881 9.93559ZM20.9952 8.42849L20.3507 7.78399L18.9365 9.19821L19.581 9.8427L20.9952 8.42849ZM14.8018 5.06346L18.9365 9.19821L20.3507 7.78399L16.216 3.64925L14.8018 5.06346Z" fill="#555770"/>
</svg>
