<svg width="24" height="24" viewBox="0 0 24 24" fill="none" xmlns="http://www.w3.org/2000/svg">
<path d="M14.3158 12.9734L13.9987 12.025L13.3158 12.2533V12.9734H14.3158ZM18.9474 7.74763V8.74763H19.3624L19.6555 8.4537L18.9474 7.74763ZM20.6842 6.0057V5.0057H20.2691L19.9761 5.29963L20.6842 6.0057ZM21.2632 10.6509L21.5802 11.5993L22.0327 11.448L22.1998 11.0011L21.2632 10.6509ZM6.76191 17.656L7.20798 16.761L6.76191 17.656ZM2.72965 20.4121L3.43779 19.7061L2.72965 20.4121ZM22.4951 7.35592L23.4318 7.70614L22.4951 7.35592ZM4.89474 12.9734C4.89474 10.6684 6.73357 8.74763 9.38095 8.74763V6.74763C5.68748 6.74763 2.89474 9.50622 2.89474 12.9734H4.89474ZM9.38095 8.74763H18.9474V6.74763H9.38095V8.74763ZM19.6555 8.4537L21.3924 6.71177L19.9761 5.29963L18.2392 7.04156L19.6555 8.4537ZM20.6842 7.0057H21.5585V5.0057H20.6842V7.0057ZM21.5585 7.0057L20.3265 10.3006L22.1998 11.0011L23.4318 7.70614L21.5585 7.0057ZM20.9461 9.70245L13.9987 12.025L14.6329 13.9218L21.5802 11.5993L20.9461 9.70245ZM8.38095 10.4118V15.7059H10.381V10.4118H8.38095ZM6.76191 14.0588H12V12.0588H6.76191V14.0588ZM9.10526 17.1992C8.42637 17.1992 7.76538 17.0389 7.20798 16.761L6.31583 18.551C7.15365 18.9686 8.12045 19.1992 9.10526 19.1992V17.1992ZM7.20798 16.761C5.82832 16.0734 4.89474 14.6423 4.89474 12.9734H2.89474C2.89474 15.4083 4.26414 17.5284 6.31583 18.551L7.20798 16.761ZM5.76191 17.656V21H7.76191V17.656H5.76191ZM13.3158 12.9734C13.3158 14.652 12.4011 16.0777 11.0301 16.761L11.9223 18.551C13.9826 17.5241 15.3158 15.3986 15.3158 12.9734H13.3158ZM11.0301 16.761C10.4773 17.0366 9.78945 17.1992 9.10526 17.1992V19.1992C10.0848 19.1992 11.0798 18.9709 11.9223 18.551L11.0301 16.761ZM10.4762 17.656V21H12.4762V17.656H10.4762ZM11.4762 20H6.76191V22H11.4762V20ZM6.76191 20H4.14593V22H6.76191V20ZM3.43779 19.7061L2.86604 19.1326L1.44975 20.5448L2.02151 21.1182L3.43779 19.7061ZM11.4762 22H16.7143V20H11.4762V22ZM10.381 7.74763V4.58824H8.38095V7.74763H10.381ZM10.381 4.58824V3H8.38095V4.58824H10.381ZM9.38095 3.58824H1V5.58824H9.38095V3.58824ZM9.38095 5.58824H17.7895V3.58824H9.38095V5.58824ZM4.14593 20C3.88021 20 3.62541 19.8942 3.43779 19.7061L2.02151 21.1182C2.58437 21.6827 3.34876 22 4.14593 22V20ZM21.5585 7.0057L21.5585 7.0057L23.4318 7.70614C23.9206 6.39894 22.9541 5.0057 21.5585 5.0057V7.0057Z" fill="#555770"/>
</svg>
