<svg width="24" height="24" viewBox="0 0 24 24" fill="none" xmlns="http://www.w3.org/2000/svg">
<path d="M9.9187 8.1355L10.7762 8.65L9.9187 8.1355ZM10.0877 8.13148L10.9197 7.57678L10.0877 8.13148ZM7.02913 12.9514L6.17164 12.437L7.02913 12.9514ZM13.9323 13.8985L14.7644 13.3438L13.9323 13.8985ZM22 16V6H20V16H22ZM20 4H4V6H20V4ZM2 6V16H4V6H2ZM7 21H12V19H7V21ZM12 21H17V19H12V21ZM4 18H12V16H4V18ZM12 18H20V16H12V18ZM13 20V17H11V20H13ZM5 14H6.94338V12H5V14ZM7.88662 13.4659L10.7762 8.65L9.06121 7.62101L6.17164 12.437L7.88662 13.4659ZM9.2556 8.68618L13.1003 14.4532L14.7644 13.3438L10.9197 7.57678L9.2556 8.68618ZM14.7934 14.6209L17.6778 11.7364L16.2636 10.3222L13.3791 13.2066L14.7934 14.6209ZM17.0414 12H19V10H17.0414V12ZM10.7762 8.65C10.4363 9.21654 9.6221 9.23592 9.2556 8.68618L10.9197 7.57678C10.4718 6.90488 9.47667 6.92856 9.06121 7.62101L10.7762 8.65ZM6.94338 14C7.32977 14 7.68783 13.7973 7.88662 13.4659L6.17164 12.437C6.33429 12.1659 6.62724 12 6.94338 12V14ZM4 4C2.89543 4 2 4.89543 2 6H4L4 6V4ZM22 6C22 4.89543 21.1046 4 20 4V6L20 6H22ZM17.6778 11.7364C17.509 11.9052 17.2801 12 17.0414 12V10C16.7497 10 16.4699 10.1159 16.2636 10.3222L17.6778 11.7364ZM20 16L20 16V18C21.1046 18 22 17.1046 22 16H20ZM13.1003 14.4532C13.4853 15.0308 14.3025 15.1117 14.7934 14.6209L13.3791 13.2066C13.7807 12.805 14.4493 12.8712 14.7644 13.3438L13.1003 14.4532ZM2 16C2 17.1046 2.89543 18 4 18V16L4 16H2Z" fill="#555770"/>
</svg>
