<svg width="24" height="24" viewBox="0 0 24 24" fill="none" xmlns="http://www.w3.org/2000/svg">
<path d="M2.74619 6.75794L3.493 6.0929L3.493 6.0929L2.74619 6.75794ZM7.5 11L6.85137 11.7611L7.5 12.3139L8.14863 11.7611L7.5 11ZM12.2538 6.75794L11.507 6.0929L11.507 6.0929L12.2538 6.75794ZM22 9H23V8H22V9ZM3 4.647C3 3.77302 3.74718 3 4.75 3V1C2.71525 1 1 2.59718 1 4.647H3ZM4.75 3C5.75282 3 6.5 3.77302 6.5 4.647H8.5C8.5 2.59718 6.78475 1 4.75 1V3ZM3.493 6.0929C3.2415 5.81047 3.12956 5.56737 3.07233 5.36144C3.01161 5.14292 3 4.92482 3 4.647H1C1 5.33992 1.05447 6.36188 1.99938 7.42297L3.493 6.0929ZM1.99938 7.42297C2.40462 7.87804 3.65626 8.99098 4.72932 9.9287C5.28214 10.4118 5.81244 10.8697 6.20434 11.2067C6.40036 11.3752 6.56191 11.5137 6.67455 11.61C6.73087 11.6582 6.77497 11.6959 6.80504 11.7216C6.82008 11.7344 6.8316 11.7442 6.8394 11.7509C6.8433 11.7542 6.84627 11.7568 6.84827 11.7585C6.84927 11.7593 6.85004 11.76 6.85055 11.7604C6.85081 11.7606 6.85101 11.7608 6.85115 11.7609C6.85122 11.761 6.85127 11.761 6.85131 11.761C6.85135 11.7611 6.85137 11.7611 7.5 11C8.14863 10.2389 8.14862 10.2389 8.1486 10.2389C8.14857 10.2388 8.14854 10.2388 8.14848 10.2388C8.14837 10.2387 8.1482 10.2385 8.14797 10.2383C8.14751 10.2379 8.1468 10.2373 8.14585 10.2365C8.14396 10.2349 8.14111 10.2325 8.13732 10.2293C8.12976 10.2228 8.11846 10.2132 8.10367 10.2005C8.07408 10.1753 8.0305 10.138 7.97473 10.0903C7.86317 9.99488 7.70288 9.85754 7.50828 9.69022C7.11895 9.35544 6.59292 8.90122 6.04538 8.42272C4.91769 7.43725 3.79243 6.42915 3.493 6.0929L1.99938 7.42297ZM14 4.647C14 2.59718 12.2847 1 10.25 1V3C11.2528 3 12 3.77302 12 4.647H14ZM10.25 1C8.21525 1 6.5 2.59718 6.5 4.647H8.5C8.5 3.77302 9.24718 3 10.25 3V1ZM13.0006 7.42297C13.9455 6.36188 14 5.33992 14 4.647H12C12 4.92482 11.9884 5.14292 11.9277 5.36144C11.8704 5.56737 11.7585 5.81047 11.507 6.0929L13.0006 7.42297ZM11.507 6.0929C11.2076 6.42915 10.0823 7.43725 8.95462 8.42272C8.40708 8.90122 7.88105 9.35544 7.49172 9.69022C7.29712 9.85754 7.13683 9.99488 7.02527 10.0903C6.9695 10.138 6.92592 10.1753 6.89633 10.2005C6.88154 10.2132 6.87024 10.2228 6.86268 10.2293C6.85889 10.2325 6.85604 10.2349 6.85415 10.2365C6.8532 10.2373 6.85249 10.2379 6.85203 10.2383C6.8518 10.2385 6.85163 10.2387 6.85152 10.2388C6.85146 10.2388 6.85143 10.2388 6.8514 10.2389C6.85138 10.2389 6.85137 10.2389 7.5 11C8.14863 11.7611 8.14865 11.7611 8.14869 11.761C8.14873 11.761 8.14878 11.761 8.14885 11.7609C8.14899 11.7608 8.14919 11.7606 8.14945 11.7604C8.14996 11.76 8.15073 11.7593 8.15173 11.7585C8.15373 11.7568 8.1567 11.7542 8.1606 11.7509C8.1684 11.7442 8.17992 11.7344 8.19496 11.7216C8.22503 11.6959 8.26913 11.6582 8.32545 11.61C8.43809 11.5137 8.59964 11.3752 8.79566 11.2067C9.18756 10.8697 9.71786 10.4118 10.2707 9.9287C11.3437 8.99098 12.5954 7.87804 13.0006 7.42297L11.507 6.0929ZM1.70711 22.7071L9 15.4142L7.58579 14L0.292893 21.2929L1.70711 22.7071ZM9 15.4142L11.5858 18L13 16.5858L10.4142 14L9 15.4142ZM14.4142 18L22.7071 9.70711L21.2929 8.29289L13 16.5858L14.4142 18ZM22 8H18V10H22V8ZM21 9V13H23V9H21ZM11.5858 18C12.3668 18.7811 13.6332 18.781 14.4142 18L13 16.5858L13 16.5858L11.5858 18ZM9 15.4142L9 15.4142L10.4142 14C9.63317 13.219 8.36684 13.2189 7.58579 14L9 15.4142Z" fill="#555770"/>
</svg>
