<svg width="24" height="24" viewBox="0 0 24 24" fill="none" xmlns="http://www.w3.org/2000/svg">
<mask id="path-1-inside-1_402_14611" fill="white">
<path d="M20 20H4C2.89543 20 2 19.1046 2 18V7V6C2 4.89543 2.89543 4 4 4H9L11 6H21C21.5523 6 22 6.44772 22 7V18C22 19.1046 21.1046 20 20 20Z"/>
</mask>
<path d="M11 6L9.58579 7.41421L10.1716 8H11V6ZM9 4L10.4142 2.58579L9.82843 2H9V4ZM4 22H20V18H4V22ZM21 4H11V8H21V4ZM12.4142 4.58579L10.4142 2.58579L7.58579 5.41421L9.58579 7.41421L12.4142 4.58579ZM9 2H4V6H9V2ZM0 6V7H4V6H0ZM24 18V7H20V18H24ZM0 7V18H4V7H0ZM21 8C20.4477 8 20 7.55229 20 7H24C24 5.34315 22.6569 4 21 4V8ZM20 22C22.2091 22 24 20.2091 24 18H20V22ZM4 18H0C0 20.2091 1.79086 22 4 22V18ZM4 2C1.79086 2 0 3.79086 0 6H4H4V2Z" fill="#555770" mask="url(#path-1-inside-1_402_14611)"/>
<path d="M11 10V16H13V10H11ZM9 14H15V12H9V14Z" fill="#555770"/>
</svg>
