<svg width="24" height="24" viewBox="0 0 24 24" fill="none" xmlns="http://www.w3.org/2000/svg">
<path d="M6.6389 2C6.6389 1.44772 6.19119 1 5.6389 1C5.08662 1 4.6389 1.44772 4.6389 2H6.6389ZM4.6389 4.16216C4.6389 4.71445 5.08662 5.16216 5.6389 5.16216C6.19119 5.16216 6.6389 4.71445 6.6389 4.16216H4.6389ZM10.8611 2C10.8611 1.44772 10.4134 1 9.86114 1C9.30886 1 8.86114 1.44772 8.86114 2H10.8611ZM8.86114 4.16216C8.86114 4.71445 9.30886 5.16216 9.86114 5.16216C10.4134 5.16216 10.8611 4.71445 10.8611 4.16216H8.86114ZM21 9.56757C21 10.5306 20.2439 11.2703 19.3611 11.2703V13.2703C21.3932 13.2703 23 11.5899 23 9.56757H21ZM19.3611 11.2703C18.4783 11.2703 17.7222 10.5306 17.7222 9.56757H15.7222C15.7222 11.5899 17.329 13.2703 19.3611 13.2703V11.2703ZM17.7222 9.56757C17.7222 8.60454 18.4783 7.86486 19.3611 7.86486V5.86486C17.329 5.86486 15.7222 7.54528 15.7222 9.56757H17.7222ZM19.3611 7.86486C20.2439 7.86486 21 8.60454 21 9.56757H23C23 7.54528 21.3932 5.86486 19.3611 5.86486V7.86486ZM18.3611 16.0541C18.3611 18.8083 16.1872 21 13.5555 21V23C17.3365 23 20.3611 19.8675 20.3611 16.0541H18.3611ZM13.5555 21C10.9239 21 8.74994 18.8083 8.74994 16.0541H6.74994C6.74994 19.8675 9.77451 23 13.5555 23V21ZM11.5 11.1892C11.5 13.3463 9.79865 15.0541 7.74994 15.0541V17.0541C10.9479 17.0541 13.5 14.4056 13.5 11.1892H11.5ZM7.74994 15.0541C5.70127 15.0541 4 13.3464 4 11.1892H2C2 14.4056 4.55188 17.0541 7.74994 17.0541V15.0541ZM20.3611 16.0541V12.2703H18.3611V16.0541H20.3611ZM4 11.1892V4.08108H2V11.1892H4ZM4 4.08108H5.6389V2.08108H4V4.08108ZM6.6389 3.08108V2H4.6389V3.08108H6.6389ZM4.6389 3.08108V4.16216H6.6389V3.08108H4.6389ZM13.5 11.1892V4.08108H11.5V11.1892H13.5ZM11.5 2.08108H9.86114V4.08108H11.5V2.08108ZM10.8611 3.08108V2H8.86114V3.08108H10.8611ZM8.86114 3.08108V4.16216H10.8611V3.08108H8.86114ZM13.5 4.08108C13.5 2.97651 12.6046 2.08108 11.5 2.08108V4.08108L11.5 4.08108H13.5ZM4 4.08108L4 4.08108V2.08108C2.89543 2.08108 2 2.97651 2 4.08108H4Z" fill="#555770"/>
</svg>
