<svg width="24" height="24" viewBox="0 0 24 24" fill="none" xmlns="http://www.w3.org/2000/svg">
<path d="M14.8293 15L13.8865 14.6668L13.8865 14.6668L14.8293 15ZM5.00001 5H19V3H5.00001V5ZM19 5V19H21V5H19ZM19 19H5.00001V21H19V19ZM5.00001 19L5.00001 5L3.00001 5L3.00001 19L5.00001 19ZM14 14C14 14.2355 13.9597 14.4595 13.8865 14.6668L15.7721 15.3332C15.92 14.9149 16 14.4657 16 14H14ZM13.8865 14.6668C13.6114 15.4449 12.8692 16 12 16V18C13.7432 18 15.2235 16.8855 15.7721 15.3332L13.8865 14.6668ZM20 14H14.8293V16H20V14ZM12 16C11.1307 16 10.3886 15.4449 10.1135 14.6668L8.22787 15.3332C8.77651 16.8855 10.2568 18 12 18V16ZM10.1135 14.6668C10.0403 14.4595 10 14.2355 10 14H8C8 14.4657 8.08001 14.9149 8.22787 15.3332L10.1135 14.6668ZM9.17071 14H4V16H9.17071V14ZM5.00001 3C3.89544 3 3.00001 3.89543 3.00001 5L5.00001 5L5.00001 5V3ZM19 5L19 5H21C21 3.89543 20.1046 3 19 3V5ZM19 19L19 19V21C20.1046 21 21 20.1046 21 19H19ZM5.00001 19L5.00001 19L3.00001 19C3.00001 20.1046 3.89544 21 5.00001 21V19Z" fill="#555770"/>
<path d="M12 8L11.2929 7.29289L12 6.58579L12.7071 7.29289L12 8ZM13 9L13.7071 8.29289L15.4142 10L13 10L13 9ZM11 9L11 10L8.58579 10L10.2929 8.29289L11 9ZM13 8L13 14L11 14L11 8L13 8ZM12.7071 7.29289L13.7071 8.29289L12.2929 9.70711L11.2929 8.70711L12.7071 7.29289ZM13 10L11 10L11 8L13 8L13 10ZM10.2929 8.29289L11.2929 7.29289L12.7071 8.70711L11.7071 9.70711L10.2929 8.29289Z" fill="#555770"/>
</svg>
