<svg width="24" height="24" viewBox="0 0 24 24" fill="none" xmlns="http://www.w3.org/2000/svg">
<path d="M14.8293 15.0001L13.8865 14.6668L13.8865 14.6668L14.8293 15.0001ZM20 5L21 5L20 5ZM20 19.0001L19 19.0001L20 19.0001ZM5.00001 5H19V3H5.00001V5ZM19 5L19 19.0001L21 19.0001L21 5L19 5ZM19 19.0001H5.00001V21.0001H19V19.0001ZM5.00001 19.0001V5H3.00001V19.0001H5.00001ZM14 14.0001C14 14.2356 13.9597 14.4596 13.8865 14.6668L15.7721 15.3333C15.92 14.915 16 14.4658 16 14.0001H14ZM13.8865 14.6668C13.6114 15.445 12.8692 16.0001 12 16.0001V18.0001C13.7432 18.0001 15.2235 16.8855 15.7721 15.3333L13.8865 14.6668ZM20 14.0001H14.8293V16.0001H20V14.0001ZM12 16.0001C11.1307 16.0001 10.3886 15.445 10.1135 14.6668L8.22787 15.3333C8.77651 16.8855 10.2568 18.0001 12 18.0001V16.0001ZM10.1135 14.6668C10.0403 14.4596 10 14.2356 10 14.0001H8C8 14.4658 8.08001 14.915 8.22787 15.3333L10.1135 14.6668ZM9.17071 14.0001H4V16.0001H9.17071V14.0001ZM5.00001 3C3.89544 3 3.00001 3.89543 3.00001 5H5.00001L5.00001 5V3ZM19 5L19 5L21 5C21 3.89543 20.1046 3 19 3V5ZM19 19.0001L19 19.0001V21.0001C20.1046 21.0001 21 20.1046 21 19.0001L19 19.0001ZM5.00001 19.0001L5.00001 19.0001H3.00001C3.00001 20.1046 3.89544 21.0001 5.00001 21.0001V19.0001Z" fill="#555770"/>
</svg>
