<svg width="24" height="24" viewBox="0 0 24 24" fill="none" xmlns="http://www.w3.org/2000/svg">
<path d="M18.364 9.87864L15.5356 12.7071L16.9498 14.1213L19.7782 11.2929L18.364 9.87864ZM11.2929 8.46442L14.1214 5.636L12.7071 4.22178L9.87871 7.05021L11.2929 8.46442ZM11.2929 19.7781L14.1214 16.9497L12.7071 15.5355L9.87871 18.3639L11.2929 19.7781ZM7.05029 9.87864L4.22186 12.7071L5.63607 14.1213L8.4645 11.2929L7.05029 9.87864ZM14.8285 7.75732L7.75739 14.8284L9.17161 16.2426L16.2427 9.17153L14.8285 7.75732ZM5.63607 18.3639C4.4645 17.1923 4.4645 15.2929 5.63607 14.1213L4.22186 12.7071C2.26924 14.6597 2.26924 17.8255 4.22186 19.7781L5.63607 18.3639ZM18.364 5.636C19.5356 6.80757 19.5356 8.70707 18.364 9.87864L19.7782 11.2929C21.7308 9.34023 21.7308 6.17441 19.7782 4.22178L18.364 5.636ZM4.22186 19.7781C6.17448 21.7308 9.34031 21.7308 11.2929 19.7781L9.87871 18.3639C8.70714 19.5355 6.80765 19.5355 5.63607 18.3639L4.22186 19.7781ZM19.7782 4.22178C17.8256 2.26916 14.6598 2.26916 12.7071 4.22178L14.1214 5.636C15.2929 4.46442 17.1924 4.46442 18.364 5.636L19.7782 4.22178Z" fill="#555770"/>
</svg>
