<svg width="24" height="24" viewBox="0 0 24 24" fill="none" xmlns="http://www.w3.org/2000/svg">
<path d="M22 11.5V6C22 5.44772 21.5523 5 21 5H3C2.44772 5 2 5.44772 2 6V18C2 18.5523 2.44772 19 3 19H12" stroke="#555770" stroke-width="2"/>
<path d="M2 6L12 12L22 6" stroke="#555770" stroke-width="2"/>
<path d="M22 17L22.7071 17.7071L23.4142 17L22.7071 16.2929L22 17ZM14 18H22V16H14V18ZM22.7071 16.2929L19.7071 13.2929L18.2929 14.7071L21.2929 17.7071L22.7071 16.2929ZM19.7071 20.7071L22.7071 17.7071L21.2929 16.2929L18.2929 19.2929L19.7071 20.7071Z" fill="#555770"/>
</svg>
