<svg width="24" height="24" viewBox="0 0 24 24" fill="none" xmlns="http://www.w3.org/2000/svg">
<path d="M22 9V6C22 5.44772 21.5523 5 21 5H3C2.44772 5 2 5.44772 2 6V18C2 18.5523 2.44772 19 3 19H12" stroke="#555770" stroke-width="2"/>
<path d="M2 6L12 12L22 6" stroke="#555770" stroke-width="2"/>
<path d="M21.125 14.625V17H23.125V14.625H21.125ZM22.125 16H16.875V18H22.125V16ZM17.875 17V14.625H15.875V17H17.875ZM16.875 16H16.1V18H16.875V16ZM15 17.1V21H17V17.1H15ZM17 23H22V21H17V23ZM24 21V17.1H22V21H24ZM22.9 16H22.125V18H22.9V16ZM24 17.1C24 16.4925 23.5075 16 22.9 16V18C22.4029 18 22 17.5971 22 17.1H24ZM16.1 16C15.4925 16 15 16.4925 15 17.1H17C17 17.5971 16.5971 18 16.1 18V16ZM22 23C23.1046 23 24 22.1046 24 21H22L22 21V23ZM19.5 13C20.3975 13 21.125 13.7275 21.125 14.625H23.125C23.125 12.623 21.502 11 19.5 11V13ZM15 21C15 22.1046 15.8954 23 17 23V21L17 21H15ZM19.5 11C17.498 11 15.875 12.623 15.875 14.625H17.875C17.875 13.7275 18.6025 13 19.5 13V11Z" fill="#555770"/>
</svg>
