<svg width="24" height="24" viewBox="0 0 24 24" fill="none" xmlns="http://www.w3.org/2000/svg">
<path d="M7 1V0H6V1H7ZM13 1H14V0H13V1ZM13 3V4H14V3H13ZM7 6H4V8H7V6ZM2 8V20H4V8H2ZM4 22H20V20H4V22ZM22 20V8H20V20H22ZM20 6H10V8H20V6ZM6 7V12H8V7H6ZM7 2H13V0H7V2ZM12 1V3H14V1H12ZM8 7V3H6V7H8ZM8 3V1H6V3H8ZM13 2H7V4H13V2ZM22 8C22 6.89543 21.1046 6 20 6V8L20 8H22ZM20 22C21.1046 22 22 21.1046 22 20H20L20 20V22ZM2 20C2 21.1046 2.89543 22 4 22V20L4 20H2ZM4 6C2.89543 6 2 6.89543 2 8H4V8V6Z" fill="#555770"/>
</svg>
