<svg width="24" height="24" viewBox="0 0 24 24" fill="none" xmlns="http://www.w3.org/2000/svg">
<path d="M6.75 17L6.1253 16.2191L6.39922 16H6.75V17ZM3.16247 19.87L3.78716 20.6509L3.16247 19.87ZM4 3H20V5H4V3ZM22 5V16H20V5H22ZM2 16V5H4V16H2ZM2 19.7919V16H4V19.7919H2ZM7.3747 17.7809L3.78716 20.6509L2.53777 19.0892L6.1253 16.2191L7.3747 17.7809ZM6.75 16H20V18H6.75V16ZM4 19.7919C4 19.0373 3.12705 18.6177 2.53777 19.0892L3.78716 20.6509C3.06693 21.2271 2 20.7143 2 19.7919H4ZM20 3C21.1046 3 22 3.89543 22 5H20L20 5V3ZM4 5L4 5H2C2 3.89543 2.89543 3 4 3V5ZM22 16C22 17.1046 21.1046 18 20 18V16L20 16H22Z" fill="#555770"/>
<path d="M15 7.5L9 13.5M9 7.5L15 13.5" stroke="#555770" stroke-width="2"/>
</svg>
