<svg width="24" height="24" viewBox="0 0 24 24" fill="none" xmlns="http://www.w3.org/2000/svg">
<path d="M20 14L19.2929 13.2929L19 13.5858V14H20ZM22 12L22.7071 12.7071L23.4142 12L22.7071 11.2929L22 12ZM20 10H19V10.4142L19.2929 10.7071L20 10ZM19 4H4V6H19V4ZM4 20H19V18H4V20ZM2 6V18H4V6H2ZM21 18V14H19V18H21ZM20.7071 14.7071L22.7071 12.7071L21.2929 11.2929L19.2929 13.2929L20.7071 14.7071ZM22.7071 11.2929L20.7071 9.29289L19.2929 10.7071L21.2929 12.7071L22.7071 11.2929ZM21 10V6H19V10H21ZM4 4C2.89543 4 2 4.89543 2 6H4L4 6V4ZM19 6L19 6H21C21 4.89543 20.1046 4 19 4V6ZM19 20C20.1046 20 21 19.1046 21 18H19L19 18V20ZM4 18L4 18H2C2 19.1046 2.89543 20 4 20V18Z" fill="#555770"/>
<path d="M13 12C13 12.8284 12.3284 13.5 11.5 13.5C10.6716 13.5 10 12.8284 10 12C10 11.1716 10.6716 10.5 11.5 10.5C12.3284 10.5 13 11.1716 13 12Z" fill="#555770"/>
<path d="M8.5 12C8.5 12.8284 7.82843 13.5 7 13.5C6.17157 13.5 5.5 12.8284 5.5 12C5.5 11.1716 6.17157 10.5 7 10.5C7.82843 10.5 8.5 11.1716 8.5 12Z" fill="#555770"/>
<path d="M17.5 12C17.5 12.8284 16.8284 13.5 16 13.5C15.1716 13.5 14.5 12.8284 14.5 12C14.5 11.1716 15.1716 10.5 16 10.5C16.8284 10.5 17.5 11.1716 17.5 12Z" fill="#555770"/>
</svg>
