<svg width="24" height="24" viewBox="0 0 24 24" fill="none" xmlns="http://www.w3.org/2000/svg">
<path d="M19.1461 6.06473L20.0578 5.654L19.7981 5.07741L19.1658 5.06493L19.1461 6.06473ZM6.06473 19.1461L5.06493 19.1658L5.07741 19.7981L5.654 20.0578L6.06473 19.1461ZM10.1169 15.742L10.11 14.742L10.11 14.742L10.1169 15.742ZM10.1864 15.7705L10.8935 15.0634L10.8935 15.0634L10.1864 15.7705ZM15.742 10.1169L14.742 10.11L14.742 10.11L15.742 10.1169ZM15.7705 10.1864L15.0634 10.8935L15.0634 10.8935L15.7705 10.1864ZM6.00002 15.8689L6.99982 15.8491L6.00002 15.8689ZM6.0967 15.7696L6.10357 16.7696L6.10357 16.7696L6.0967 15.7696ZM15.8689 6.00002L15.8491 6.99982L15.8689 6.00002ZM15.7696 6.0967L16.7696 6.10357L16.7696 6.10357L15.7696 6.0967ZM19.1658 5.06493L15.8886 5.00021L15.8491 6.99982L19.1263 7.06454L19.1658 5.06493ZM14.7696 6.08983L14.742 10.11L16.742 10.1237L16.7696 6.10357L14.7696 6.08983ZM18.2343 6.47547C19.2069 8.63452 19.2536 11.1256 18.3706 13.3461L20.229 14.0852C21.3092 11.3689 21.2564 8.31458 20.0578 5.654L18.2343 6.47547ZM18.3706 13.3461C17.9335 14.4453 17.2684 15.4786 16.3735 16.3735L17.7877 17.7877C18.8783 16.6972 19.693 15.433 20.229 14.0852L18.3706 13.3461ZM15.0634 10.8935L18.5927 14.4228L20.0069 13.0086L16.4776 9.47928L15.0634 10.8935ZM7.06454 19.1263L6.99982 15.8491L5.00021 15.8886L5.06493 19.1658L7.06454 19.1263ZM6.10357 16.7696L10.1237 16.742L10.11 14.742L6.08983 14.7696L6.10357 16.7696ZM5.654 20.0578C8.31458 21.2564 11.3689 21.3092 14.0852 20.229L13.3461 18.3706C11.1256 19.2536 8.63452 19.2069 6.47547 18.2343L5.654 20.0578ZM14.0852 20.229C15.433 19.693 16.6972 18.8783 17.7877 17.7877L16.3735 16.3735C15.4786 17.2684 14.4453 17.9335 13.3461 18.3706L14.0852 20.229ZM9.47928 16.4776L13.0086 20.0069L14.4228 18.5927L10.8935 15.0634L9.47928 16.4776ZM10.1237 16.742C9.8822 16.7436 9.65007 16.6484 9.47928 16.4776L10.8935 15.0634C10.6859 14.8558 10.4037 14.74 10.11 14.742L10.1237 16.742ZM14.742 10.11C14.74 10.4037 14.8558 10.6859 15.0634 10.8935L16.4776 9.47928C16.6484 9.65007 16.7436 9.8822 16.742 10.1237L14.742 10.11ZM6.99982 15.8491C7.00976 16.3521 6.60661 16.7661 6.10357 16.7696L6.08983 14.7696C5.47826 14.7738 4.98814 15.2772 5.00021 15.8886L6.99982 15.8491ZM15.8886 5.00021C15.2772 4.98814 14.7738 5.47826 14.7696 6.08983L16.7696 6.10357C16.7661 6.60661 16.3521 7.00976 15.8491 6.99982L15.8886 5.00021Z" fill="#555770"/>
<path d="M12 12L4 4M4 4V10M4 4H10" stroke="#555770" stroke-width="2"/>
</svg>
