<svg width="24" height="24" viewBox="0 0 24 24" fill="none" xmlns="http://www.w3.org/2000/svg">
<path d="M2.5 13.5L1.56486 13.1457L1.34082 13.7371L1.77907 14.193L2.5 13.5ZM21.5 13.5L22.2209 14.193L22.6592 13.7371L22.4351 13.1457L21.5 13.5ZM16.0851 13.0294L15.3829 13.7413L16.0851 13.0294ZM7.9149 13.0294L7.21266 12.3174L7.9149 13.0294ZM19.167 15.927L18.4461 15.234L19.167 15.927ZM19.0247 15.9289L19.7269 15.2169L19.0247 15.9289ZM4.83298 15.927L4.11205 16.62L4.83298 15.927ZM4.9753 15.9289L4.27306 15.2169L4.9753 15.9289ZM1.77907 14.193L4.11205 16.62L5.55391 15.234L3.22093 12.807L1.77907 14.193ZM5.67753 16.6408L8.61713 13.7413L7.21266 12.3174L4.27306 15.2169L5.67753 16.6408ZM3.43514 13.8543C4.29939 11.573 6.0799 9.72463 8.34044 8.75044L7.5489 6.91374C4.79849 8.09905 2.62398 10.3501 1.56486 13.1457L3.43514 13.8543ZM8.34044 8.75044C9.4594 8.26822 10.6965 8 12 8V6C10.4198 6 8.91368 6.32557 7.5489 6.91374L8.34044 8.75044ZM8.94467 12.9582V7.83209H6.94467V12.9582H8.94467ZM20.7791 12.807L18.4461 15.234L19.8879 16.62L22.2209 14.193L20.7791 12.807ZM19.7269 15.2169L16.7873 12.3174L15.3829 13.7413L18.3225 16.6408L19.7269 15.2169ZM22.4351 13.1457C21.376 10.3501 19.2015 8.09905 16.4511 6.91374L15.6596 8.75044C17.9201 9.72463 19.7006 11.573 20.5649 13.8543L22.4351 13.1457ZM16.4511 6.91374C15.0863 6.32557 13.5802 6 12 6V8C13.3035 8 14.5406 8.26822 15.6596 8.75044L16.4511 6.91374ZM17.0553 12.9582V7.83209H15.0553V12.9582H17.0553ZM16.7873 12.3174C16.9588 12.4865 17.0553 12.7173 17.0553 12.9582H15.0553C15.0553 13.2525 15.1733 13.5346 15.3829 13.7413L16.7873 12.3174ZM8.61713 13.7413C8.8267 13.5346 8.94467 13.2525 8.94467 12.9582H6.94467C6.94467 12.7173 7.0412 12.4865 7.21266 12.3174L8.61713 13.7413ZM18.4461 15.234C18.7937 14.8724 19.3698 14.8647 19.7269 15.2169L18.3225 16.6408C18.7589 17.0713 19.4631 17.0619 19.8879 16.62L18.4461 15.234ZM4.11205 16.62C4.5369 17.0619 5.24107 17.0713 5.67753 16.6408L4.27306 15.2169C4.63017 14.8647 5.2063 14.8724 5.55391 15.234L4.11205 16.62Z" fill="#555770"/>
</svg>
