<svg width="24" height="24" viewBox="0 0 24 24" fill="none" xmlns="http://www.w3.org/2000/svg">
<path d="M2.5 18.5L1.56486 18.1457L1.34082 18.7371L1.77907 19.193L2.5 18.5ZM21.5 18.5L22.2209 19.193L22.6592 18.7371L22.4351 18.1457L21.5 18.5ZM16.0851 18.0294L15.3829 18.7413L16.0851 18.0294ZM7.9149 18.0294L7.21266 17.3174L7.9149 18.0294ZM19.167 20.927L18.4461 20.234L19.167 20.927ZM19.0247 20.9289L19.7269 20.2169L19.0247 20.9289ZM4.83298 20.927L4.11205 21.62L4.83298 20.927ZM4.9753 20.9289L4.27306 20.2169L4.9753 20.9289ZM1.77907 19.193L4.11205 21.62L5.55391 20.234L3.22093 17.807L1.77907 19.193ZM5.67753 21.6408L8.61713 18.7413L7.21266 17.3174L4.27306 20.2169L5.67753 21.6408ZM3.43514 18.8543C4.29939 16.573 6.0799 14.7246 8.34044 13.7504L7.5489 11.9137C4.79849 13.099 2.62398 15.3501 1.56486 18.1457L3.43514 18.8543ZM8.34044 13.7504C9.4594 13.2682 10.6965 13 12 13V11C10.4198 11 8.91368 11.3256 7.5489 11.9137L8.34044 13.7504ZM8.94467 17.9582V12.8321H6.94467V17.9582H8.94467ZM20.7791 17.807L18.4461 20.234L19.8879 21.62L22.2209 19.193L20.7791 17.807ZM19.7269 20.2169L16.7873 17.3174L15.3829 18.7413L18.3225 21.6408L19.7269 20.2169ZM22.4351 18.1457C21.376 15.3501 19.2015 13.099 16.4511 11.9137L15.6596 13.7504C17.9201 14.7246 19.7006 16.573 20.5649 18.8543L22.4351 18.1457ZM16.4511 11.9137C15.0863 11.3256 13.5802 11 12 11V13C13.3035 13 14.5406 13.2682 15.6596 13.7504L16.4511 11.9137ZM17.0553 17.9582V12.8321H15.0553V17.9582H17.0553ZM16.7873 17.3174C16.9588 17.4865 17.0553 17.7173 17.0553 17.9582H15.0553C15.0553 18.2525 15.1733 18.5346 15.3829 18.7413L16.7873 17.3174ZM8.61713 18.7413C8.8267 18.5346 8.94467 18.2525 8.94467 17.9582H6.94467C6.94467 17.7173 7.0412 17.4865 7.21266 17.3174L8.61713 18.7413ZM18.4461 20.234C18.7937 19.8724 19.3698 19.8647 19.7269 20.2169L18.3225 21.6408C18.7589 22.0713 19.4631 22.0619 19.8879 21.62L18.4461 20.234ZM4.11205 21.62C4.5369 22.0619 5.24107 22.0713 5.67753 21.6408L4.27306 20.2169C4.63017 19.8647 5.2063 19.8724 5.55391 20.234L4.11205 21.62Z" fill="#555770"/>
<path d="M12 2V7M19.5 4.5L15.75 8.25M4.5 4.5L8.25 8.25" stroke="#555770" stroke-width="2"/>
</svg>
