<svg width="24" height="24" viewBox="0 0 24 24" fill="none" xmlns="http://www.w3.org/2000/svg">
<path d="M3 22L2.04119 21.716C1.95157 22.0185 2.00997 22.3455 2.19874 22.5983C2.38751 22.8511 2.6845 23 3 23V22ZM21 22V23C21.3155 23 21.6125 22.8511 21.8013 22.5983C21.99 22.3455 22.0484 22.0185 21.9588 21.716L21 22ZM12 11C9.79086 11 8 9.20914 8 7H6C6 10.3137 8.68629 13 12 13V11ZM8 7C8 4.79086 9.79086 3 12 3V1C8.68629 1 6 3.68629 6 7H8ZM3.95881 22.284C5.04818 18.6067 8.26481 16 12 16V14C7.28876 14 3.35554 17.2791 2.04119 21.716L3.95881 22.284ZM12 16C15.7352 16 18.9518 18.6067 20.0412 22.284L21.9588 21.716C20.6445 17.2791 16.7112 14 12 14V16ZM3 23H21V21H3V23ZM12 3C12.7302 3 13.4119 3.19477 13.9993 3.53452L15.0007 1.80331C14.1172 1.29221 13.0912 1 12 1V3Z" fill="#555770"/>
<path d="M21.125 5.625V8H23.125V5.625H21.125ZM22.125 7H16.875V9H22.125V7ZM17.875 8V5.625H15.875V8H17.875ZM16.875 7H16.1V9H16.875V7ZM15 8.1V12H17V8.1H15ZM17 14H22V12H17V14ZM24 12V8.1H22V12H24ZM22.9 7H22.125V9H22.9V7ZM24 8.1C24 7.49249 23.5075 7 22.9 7V9C22.4029 9 22 8.59706 22 8.1H24ZM16.1 7C15.4925 7 15 7.49249 15 8.1H17C17 8.59706 16.5971 9 16.1 9V7ZM22 14C23.1046 14 24 13.1046 24 12H22L22 12V14ZM19.5 4C20.3975 4 21.125 4.72754 21.125 5.625H23.125C23.125 3.62297 21.502 2 19.5 2V4ZM15 12C15 13.1046 15.8954 14 17 14V12L17 12H15ZM19.5 2C17.498 2 15.875 3.62297 15.875 5.625H17.875C17.875 4.72754 18.6025 4 19.5 4V2Z" fill="#555770"/>
</svg>
