<svg width="24" height="24" viewBox="0 0 24 24" fill="none" xmlns="http://www.w3.org/2000/svg">
<path d="M9.5 19L10.2682 18.3598C10.0782 18.1318 9.79678 18 9.5 18V19ZM12 22L11.2318 22.6402C11.4218 22.8682 11.7032 23 12 23C12.2968 23 12.5782 22.8682 12.7682 22.6402L12 22ZM14.5 19V18C14.2032 18 13.9218 18.1318 13.7318 18.3598L14.5 19ZM6 3H18V1H6V3ZM19 4V17H21V4H19ZM5 17V4H3V17H5ZM9.5 18H6V20H9.5V18ZM12.7682 21.3598L10.2682 18.3598L8.73178 19.6402L11.2318 22.6402L12.7682 21.3598ZM18 18H14.5V20H18V18ZM13.7318 18.3598L11.2318 21.3598L12.7682 22.6402L15.2682 19.6402L13.7318 18.3598ZM3 17C3 18.6569 4.34315 20 6 20V18C5.44772 18 5 17.5523 5 17H3ZM19 17C19 17.5523 18.5523 18 18 18V20C19.6569 20 21 18.6569 21 17H19ZM18 3C18.5523 3 19 3.44772 19 4H21C21 2.34315 19.6569 1 18 1V3ZM6 1C4.34315 1 3 2.34315 3 4H5C5 3.44772 5.44772 3 6 3V1Z" fill="#555770"/>
<path d="M13.2222 8.19911C13.2222 8.85153 12.6849 9.39822 12 9.39822V11.3982C13.7697 11.3982 15.2222 9.97576 15.2222 8.19911H13.2222ZM12 9.39822C11.3151 9.39822 10.7778 8.85153 10.7778 8.19911H8.77777C8.77777 9.97576 10.2303 11.3982 12 11.3982V9.39822ZM10.7778 8.19911C10.7778 7.54669 11.3151 7 12 7V5C10.2303 5 8.77777 6.42246 8.77777 8.19911H10.7778ZM12 7C12.6849 7 13.2222 7.54669 13.2222 8.19911H15.2222C15.2222 6.42246 13.7697 5 12 5V7ZM8.958 16.2868C9.37707 14.8868 10.6041 13.9212 12 13.9212V11.9212C9.64195 11.9212 7.69125 13.5444 7.042 15.7132L8.958 16.2868ZM12 13.9212C13.3959 13.9212 14.6229 14.8868 15.042 16.2868L16.958 15.7132C16.3088 13.5444 14.358 11.9212 12 11.9212V13.9212Z" fill="#555770"/>
</svg>
