<svg width="24" height="24" viewBox="0 0 24 24" fill="none" xmlns="http://www.w3.org/2000/svg">
<path d="M22 2L20.5 2.5L21 3M22 2L21.5 3.5L21 3M22 2L21 3M21 3L18.5278 5.47223M4 20L3 21M4 20H3L5 18H6M4 20L6 18M4 20V21L6 19V18M6 18L7.74937 16.2506" stroke="#555770" stroke-width="2"/>
<path d="M7.5 5C5.01472 5 3 6.97517 3 9.41167C3 10.4048 3.06793 11.611 4.22104 12.9299C4.71337 13.493 6.20338 14.8641 7.74937 16.2506C9.82427 18.1115 12 20 12 20C12 20 18.6259 14.2488 19.779 12.9299C20.9321 11.611 21 10.4048 21 9.41167C21 7.69033 19.9944 6.19925 18.5278 5.47223C17.9184 5.17017 17.2295 5 16.5 5C14.0147 5 12 6.97517 12 9.41167C12 6.97517 9.98528 5 7.5 5Z" stroke="#3E7BFA" stroke-width="2"/>
</svg>
