<svg width="24" height="24" viewBox="0 0 24 24" fill="none" xmlns="http://www.w3.org/2000/svg">
<path d="M20 4H4C3.44772 4 3 4.44772 3 5V16V19.7919C3 19.8758 3.09699 19.9224 3.16247 19.87L6.75 17H20C20.5523 17 21 16.5523 21 16V5C21 4.44772 20.5523 4 20 4Z" stroke="#555770" stroke-width="2"/>
<path d="M10 7C8.89543 7 8 7.92175 8 9.05878C8 9.52225 8.03019 10.0851 8.54268 10.7006C9.05517 11.3161 12 14 12 14C12 14 14.9448 11.3161 15.4573 10.7006C15.9698 10.0851 16 9.52225 16 9.05878C16 7.92175 15.1046 7 14 7C12.8954 7 12 7.92175 12 9.05878C12 7.92175 11.1046 7 10 7Z" stroke="#3E7BFA" stroke-width="2"/>
</svg>
