<svg width="24" height="24" viewBox="0 0 24 24" fill="none" xmlns="http://www.w3.org/2000/svg">
<path d="M13.1665 12.5236L13.3997 12.5452L13.2238 12.6997C12.8663 13.0138 12.709 13.498 12.8136 13.9622L13.7891 13.7424L12.8136 13.9622L12.8651 14.1907L12.6637 14.0711C12.2546 13.8282 11.7454 13.8282 11.3363 14.0711L11.1349 14.1907L11.1864 13.9622C11.291 13.498 11.1337 13.0138 10.7762 12.6997L10.6003 12.5452L10.8335 12.5236C11.3073 12.4796 11.7192 12.1804 11.9074 11.7433L10.9889 11.3478L11.9074 11.7433L12 11.5283L12.0926 11.7433C12.2808 12.1804 12.6927 12.4796 13.1665 12.5236Z" stroke="#555770" stroke-width="2" stroke-linecap="round" stroke-linejoin="round"/>
<path d="M10.2929 6.70711L10.5858 7H11H21V18C21 18.5523 20.5523 19 20 19H4C3.44772 19 3 18.5523 3 18V7V6C3 5.44772 3.44772 5 4 5H8.58579L10.2929 6.70711Z" stroke="#555770" stroke-width="2"/>
<path d="M10.2929 6.70711L10.5858 7H11H20C20.5523 7 21 7.44772 21 8V18C21 18.5523 20.5523 19 20 19H4C3.44772 19 3 18.5523 3 18V6C3 5.44772 3.44772 5 4 5H8.58579L10.2929 6.70711Z" stroke="#555770" stroke-width="2"/>
<mask id="mask0_402_17860" style="mask-type:alpha" maskUnits="userSpaceOnUse" x="1" y="8" width="22" height="14">
<rect x="1" y="22" width="14" height="22" transform="rotate(-90 1 22)" fill="black"/>
</mask>
<g mask="url(#mask0_402_17860)">
<path d="M10.2929 6.70711L10.5858 7H11H20C20.5523 7 21 7.44772 21 8V18C21 18.5523 20.5523 19 20 19H4C3.44772 19 3 18.5523 3 18V6C3 5.44772 3.44772 5 4 5H8.58579L10.2929 6.70711Z" stroke="#3E7BFA" stroke-width="2"/>
</g>
</svg>
