<svg width="24" height="24" viewBox="0 0 24 24" fill="none" xmlns="http://www.w3.org/2000/svg">
<path d="M13.4118 6.82355L4.14645 16.0889C4.05268 16.1826 4 16.3098 4 16.4424V19C4 19.5523 4.44772 20 5 20H7.5576C7.69021 20 7.81738 19.9473 7.91115 19.8536L17.1765 10.5883" stroke="#3E7BFA" stroke-width="2"/>
<path d="M13.8824 7.29412L12 5.41176L13.4118 6.82353L13.8824 7.29412ZM13.8824 7.29412L16.4694 4.70711C16.8599 4.31658 17.4931 4.31658 17.8836 4.70711L19.2929 6.11642C19.6834 6.50695 19.6834 7.14011 19.2929 7.53064L16.7059 10.1176M13.8824 7.29412L16.7059 10.1176M16.7059 10.1176L18.5882 12L17.1765 10.5882L16.7059 10.1176Z" stroke="#555770" stroke-width="2"/>
</svg>
