<svg width="24" height="24" viewBox="0 0 24 24" fill="none" xmlns="http://www.w3.org/2000/svg">
<path d="M12 7V13M12 15V17" stroke="#3E7BFA" stroke-width="2"/>
<path d="M2 1V4M2 23V20M22 1V4M22 23V20M2 4H6V8M2 4V8M2 8H6M2 8V12M6 8V12M2 12H6M2 12V16M6 12V16M2 16H6M2 16V20M6 16V20H2M22 4H18V8M22 4V8M18 8H22M18 8V12M22 8V12M18 12H22M18 12V16M22 12V16M18 16H22M18 16V20H22M22 16V20" stroke="#3E7BFA" stroke-width="2"/>
<path d="M6 2H18V4V8V12V16V20V22H6V20V16V12V8V4V2Z" stroke="#555770" stroke-width="2"/>
</svg>
