<svg width="24" height="24" viewBox="0 0 24 24" fill="none" xmlns="http://www.w3.org/2000/svg">
<path d="M12 12C13.6569 12 15 13.3431 15 15C15 16.6569 13.6569 18 12 18C10.3431 18 9 16.6569 9 15C9 13.3431 10.3431 12 12 12Z" stroke="#3E7BFA" stroke-width="2"/>
<path d="M12 6C12.5523 6 13 6.44772 13 7C13 7.55228 12.5523 8 12 8C11.4477 8 11 7.55228 11 7C11 6.44772 11.4477 6 12 6Z" stroke="#3E7BFA" stroke-width="2"/>
<path d="M18.9 22H5.1C5.04477 22 5 21.9552 5 21.9V2.1C5 2.04477 5.04477 2 5.1 2H18.9C18.9552 2 19 2.04477 19 2.1L19 21.9C19 21.9552 18.9552 22 18.9 22Z" stroke="#555770" stroke-width="2"/>
</svg>
