<svg width="24" height="24" viewBox="0 0 24 24" fill="none" xmlns="http://www.w3.org/2000/svg">
<path d="M4 6H20V4H4V6ZM20 6V18H22V6H20ZM20.0062 18C20.0007 18 19.9953 18 19.9898 18C19.9843 18 19.9788 18 19.9733 18C19.9677 18 19.9622 18 19.9566 18C19.9511 18 19.9455 18 19.9399 18C19.9343 18 19.9286 18 19.923 18C19.9173 18 19.9117 18 19.906 18C19.9003 18 19.8946 18 19.8889 18C19.8831 18 19.8774 18 19.8716 18C19.8659 18 19.8601 18 19.8543 18C19.8485 18 19.8427 18 19.8368 18C19.831 18 19.8251 18 19.8192 18C19.8134 18 19.8075 18 19.8015 18C19.7956 18 19.7897 18 19.7837 18C19.7778 18 19.7718 18 19.7658 18C19.7598 18 19.7538 18 19.7477 18C19.7417 18 19.7357 18 19.7296 18C19.7235 18 19.7174 18 19.7113 18C19.7052 18 19.6991 18 19.6929 18C19.6868 18 19.6806 18 19.6744 18C19.6682 18 19.662 18 19.6558 18C19.6496 18 19.6433 18 19.6371 18C19.6308 18 19.6245 18 19.6182 18C19.6119 18 19.6056 18 19.5993 18C19.5929 18 19.5866 18 19.5802 18C19.5738 18 19.5674 18 19.561 18C19.5546 18 19.5482 18 19.5418 18C19.5353 18 19.5288 18 19.5224 18C19.5159 18 19.5094 18 19.5028 18C19.4963 18 19.4898 18 19.4832 18C19.4767 18 19.4701 18 19.4635 18C19.4569 18 19.4503 18 19.4437 18C19.437 18 19.4304 18 19.4237 18C19.4171 18 19.4104 18 19.4037 18C19.397 18 19.3902 18 19.3835 18C19.3768 18 19.37 18 19.3632 18C19.3565 18 19.3497 18 19.3429 18C19.336 18 19.3292 18 19.3224 18C19.3155 18 19.3087 18 19.3018 18C19.2949 18 19.288 18 19.2811 18C19.2742 18 19.2672 18 19.2603 18C19.2533 18 19.2464 18 19.2394 18C19.2324 18 19.2254 18 19.2184 18C19.2113 18 19.2043 18 19.1972 18C19.1902 18 19.1831 18 19.176 18C19.1689 18 19.1618 18 19.1547 18C19.1476 18 19.1404 18 19.1333 18C19.1261 18 19.1189 18 19.1117 18C19.1045 18 19.0973 18 19.0901 18C19.0829 18 19.0756 18 19.0683 18C19.0611 18 19.0538 18 19.0465 18C19.0392 18 19.0319 18 19.0246 18C19.0172 18 19.0099 18 19.0025 18C18.9951 18 18.9878 18 18.9804 18C18.973 18 18.9655 18 18.9581 18C18.9507 18 18.9432 18 18.9358 18C18.9283 18 18.9208 18 18.9133 18C18.9058 18 18.8983 18 18.8908 18C18.8832 18 18.8757 18 18.8681 18C18.8606 18 18.853 18 18.8454 18C18.8378 18 18.8302 18 18.8225 18C18.8149 18 18.8072 18 18.7996 18C18.7919 18 18.7842 18 18.7765 18C18.7688 18 18.7611 18 18.7534 18C18.7457 18 18.7379 18 18.7302 18C18.7224 18 18.7146 18 18.7068 18C18.699 18 18.6912 18 18.6834 18C18.6756 18 18.6677 18 18.6599 18C18.652 18 18.6441 18 18.6362 18C18.6284 18 18.6205 18 18.6125 18C18.6046 18 18.5967 18 18.5887 18C18.5808 18 18.5728 18 18.5648 18C18.5568 18 18.5488 18 18.5408 18C18.5328 18 18.5248 18 18.5167 18C18.5087 18 18.5006 18 18.4925 18C18.4844 18 18.4763 18 18.4682 18C18.4601 18 18.452 18 18.4439 18C18.4357 18 18.4276 18 18.4194 18C18.4112 18 18.403 18 18.3948 18C18.3866 18 18.3784 18 18.3702 18C18.3619 18 18.3537 18 18.3454 18C18.3372 18 18.3289 18 18.3206 18C18.3123 18 18.304 18 18.2957 18C18.2873 18 18.279 18 18.2707 18C18.2623 18 18.2539 18 18.2455 18C18.2372 18 18.2288 18 18.2203 18C18.2119 18 18.2035 18 18.1951 18C18.1866 18 18.1782 18 18.1697 18C18.1612 18 18.1527 18 18.1442 18C18.1357 18 18.1272 18 18.1187 18C18.1101 18 18.1016 18 18.093 18C18.0845 18 18.0759 18 18.0673 18C18.0587 18 18.0501 18 18.0415 18C18.0329 18 18.0242 18 18.0156 18C18.0069 18 17.9983 18 17.9896 18C17.9809 18 17.9722 18 17.9635 18C17.9548 18 17.9461 18 17.9374 18C17.9286 18 17.9199 18 17.9111 18C17.9024 18 17.8936 18 17.8848 18C17.876 18 17.8672 18 17.8584 18C17.8496 18 17.8407 18 17.8319 18C17.823 18 17.8142 18 17.8053 18C17.7964 18 17.7875 18 17.7786 18C17.7697 18 17.7608 18 17.7519 18C17.743 18 17.734 18 17.7251 18C17.7161 18 17.7071 18 17.6981 18C17.6892 18 17.6802 18 17.6712 18C17.6621 18 17.6531 18 17.6441 18C17.635 18 17.626 18 17.6169 18C17.6078 18 17.5988 18 17.5897 18C17.5806 18 17.5715 18 17.5624 18C17.5532 18 17.5441 18 17.535 18C17.5258 18 17.5166 18 17.5075 18C17.4983 18 17.4891 18 17.4799 18C17.4707 18 17.4615 18 17.4523 18C17.443 18 17.4338 18 17.4246 18C17.4153 18 17.406 18 17.3968 18C17.3875 18 17.3782 18 17.3689 18C17.3596 18 17.3503 18 17.3409 18C17.3316 18 17.3223 18 17.3129 18C17.3035 18 17.2942 18 17.2848 18C17.2754 18 17.266 18 17.2566 18C17.2472 18 17.2378 18 17.2284 18C17.2189 18 17.2095 18 17.2 18C17.1906 18 17.1811 18 17.1716 18C17.1621 18 17.1526 18 17.1431 18C17.1336 18 17.1241 18 17.1146 18C17.105 18 17.0955 18 17.0859 18C17.0764 18 17.0668 18 17.0572 18C17.0476 18 17.038 18 17.0284 18C17.0188 18 17.0092 18 16.9996 18C16.9899 18 16.9803 18 16.9706 18C16.961 18 16.9513 18 16.9416 18C16.932 18 16.9223 18 16.9126 18C16.9029 18 16.8931 18 16.8834 18C16.8737 18 16.864 18 16.8542 18C16.8444 18 16.8347 18 16.8249 18C16.8151 18 16.8053 18 16.7956 18C16.7858 18 16.7759 18 16.7661 18C16.7563 18 16.7465 18 16.7366 18C16.7268 18 16.7169 18 16.707 18C16.6972 18 16.6873 18 16.6774 18C16.6675 18 16.6576 18 16.6477 18C16.6378 18 16.6279 18 16.6179 18C16.608 18 16.598 18 16.5881 18C16.5781 18 16.5681 18 16.5582 18C16.5482 18 16.5382 18 16.5282 18C16.5182 18 16.5082 18 16.4981 18C16.4881 18 16.4781 18 16.468 18C16.458 18 16.4479 18 16.4378 18C16.4278 18 16.4177 18 16.4076 18C16.3975 18 16.3874 18 16.3773 18C16.3672 18 16.357 18 16.3469 18C16.3368 18 16.3266 18 16.3164 18C16.3063 18 16.2961 18 16.2859 18C16.2758 18 16.2656 18 16.2554 18C16.2452 18 16.2349 18 16.2247 18C16.2145 18 16.2043 18 16.194 18C16.1838 18 16.1735 18 16.1633 18C16.153 18 16.1427 18 16.1324 18C16.1221 18 16.1118 18 16.1015 18C16.0912 18 16.0809 18 16.0706 18C16.0603 18 16.0499 18 16.0396 18C16.0292 18 16.0189 18 16.0085 18C15.9981 18 15.9878 18 15.9774 18C15.967 18 15.9566 18 15.9462 18C15.9358 18 15.9253 18 15.9149 18C15.9045 18 15.894 18 15.8836 18C15.8731 18 15.8627 18 15.8522 18C15.8417 18 15.8313 18 15.8208 18C15.8103 18 15.7998 18 15.7893 18C15.7788 18 15.7683 18 15.7577 18C15.7472 18 15.7367 18 15.7261 18C15.7156 18 15.705 18 15.6944 18C15.6839 18 15.6733 18 15.6627 18C15.6521 18 15.6415 18 15.6309 18C15.6203 18 15.6097 18 15.5991 18C15.5885 18 15.5778 18 15.5672 18C15.5566 18 15.5459 18 15.5352 18C15.5246 18 15.5139 18 15.5032 18C15.4926 18 15.4819 18 15.4712 18C15.4605 18 15.4498 18 15.439 18C15.4283 18 15.4176 18 15.4069 18C15.3961 18 15.3854 18 15.3746 18C15.3639 18 15.3531 18 15.3424 18C15.3316 18 15.3208 18 15.31 18C15.2992 18 15.2884 18 15.2776 18C15.2668 18 15.256 18 15.2452 18C15.2344 18 15.2235 18 15.2127 18C15.2019 18 15.191 18 15.1802 18C15.1693 18 15.1584 18 15.1476 18C15.1367 18 15.1258 18 15.1149 18C15.104 18 15.0931 18 15.0822 18C15.0713 18 15.0604 18 15.0495 18C15.0385 18 15.0276 18 15.0167 18C15.0057 18 14.9948 18 14.9838 18C14.9729 18 14.9619 18 14.9509 18C14.9399 18 14.929 18 14.918 18C14.907 18 14.896 18 14.885 18C14.874 18 14.8629 18 14.8519 18C14.8409 18 14.8299 18 14.8188 18C14.8078 18 14.7967 18 14.7857 18C14.7746 18 14.7636 18 14.7525 18C14.7414 18 14.7303 18 14.7193 18C14.7082 18 14.6971 18 14.686 18C14.6749 18 14.6638 18 14.6526 18C14.6415 18 14.6304 18 14.6193 18C14.6081 18 14.597 18 14.5858 18C14.5747 18 14.5635 18 14.5524 18C14.5412 18 14.53 18 14.5189 18C14.5077 18 14.4965 18 14.4853 18C14.4741 18 14.4629 18 14.4517 18C14.4405 18 14.4293 18 14.4181 18C14.4069 18 14.3956 18 14.3844 18C14.3732 18 14.3619 18 14.3507 18C14.3394 18 14.3282 18 14.3169 18C14.3056 18 14.2944 18 14.2831 18C14.2718 18 14.2605 18 14.2492 18C14.2379 18 14.2266 18 14.2153 18C14.204 18 14.1927 18 14.1814 18C14.1701 18 14.1587 18 14.1474 18C14.1361 18 14.1247 18 14.1134 18C14.102 18 14.0907 18 14.0793 18C14.068 18 14.0566 18 14.0452 18C14.0339 18 14.0225 18 14.0111 18C13.9997 18 13.9883 18 13.9769 18C13.9655 18 13.9541 18 13.9427 18C13.9313 18 13.9199 18 13.9084 18C13.897 18 13.8856 18 13.8741 18C13.8627 18 13.8513 18 13.8398 18C13.8284 18 13.8169 18 13.8054 18C13.794 18 13.7825 18 13.771 18C13.7596 18 13.7481 18 13.7366 18C13.7251 18 13.7136 18 13.7021 18C13.6906 18 13.6791 18 13.6676 18C13.6561 18 13.6446 18 13.6331 18C13.6215 18 13.61 18 13.5985 18C13.5869 18 13.5754 18 13.5639 18C13.5523 18 13.5408 18 13.5292 18C13.5177 18 13.5061 18 13.4945 18C13.483 18 13.4714 18 13.4598 18C13.4482 18 13.4366 18 13.4251 18C13.4135 18 13.4019 18 13.3903 18C13.3787 18 13.3671 18 13.3554 18C13.3438 18 13.3322 18 13.3206 18C13.309 18 13.2973 18 13.2857 18C13.2741 18 13.2624 18 13.2508 18C13.2392 18 13.2275 18 13.2159 18C13.2042 18 13.1925 18 13.1809 18C13.1692 18 13.1576 18 13.1459 18C13.1342 18 13.1225 18 13.1108 18C13.0992 18 13.0875 18 13.0758 18C13.0641 18 13.0524 18 13.0407 18C13.029 18 13.0173 18 13.0056 18C12.9938 18 12.9821 18 12.9704 18C12.9587 18 12.947 18 12.9352 18C12.9235 18 12.9118 18 12.9 18C12.8883 18 12.8765 18 12.8648 18C12.853 18 12.8413 18 12.8295 18C12.8178 18 12.806 18 12.7942 18C12.7825 18 12.7707 18 12.7589 18C12.7471 18 12.7354 18 12.7236 18C12.7118 18 12.7 18 12.6882 18C12.6764 18 12.6646 18 12.6528 18C12.641 18 12.6292 18 12.6174 18C12.6056 18 12.5938 18 12.582 18C12.5701 18 12.5583 18 12.5465 18C12.5347 18 12.5228 18 12.511 18C12.4992 18 12.4873 18 12.4755 18C12.4637 18 12.4518 18 12.44 18C12.4281 18 12.4163 18 12.4044 18C12.3925 18 12.3807 18 12.3688 18C12.357 18 12.3451 18 12.3332 18C12.3213 18 12.3095 18 12.2976 18C12.2857 18 12.2738 18 12.262 18C12.2501 18 12.2382 18 12.2263 18C12.2144 18 12.2025 18 12.1906 18C12.1787 18 12.1668 18 12.1549 18C12.143 18 12.1311 18 12.1192 18C12.1073 18 12.0953 18 12.0834 18C12.0715 18 12.0596 18 12.0477 18C12.0357 18 12.0238 18 12.0119 18C11.9999 18 11.988 18 11.9761 18C11.9641 18 11.9522 18 11.9402 18C11.9283 18 11.9164 18 11.9044 18C11.8925 18 11.8805 18 11.8685 18C11.8566 18 11.8446 18 11.8327 18C11.8207 18 11.8088 18 11.7968 18C11.7848 18 11.7729 18 11.7609 18C11.7489 18 11.7369 18 11.725 18C11.713 18 11.701 18 11.689 18C11.677 18 11.6651 18 11.6531 18C11.6411 18 11.6291 18 11.6171 18C11.6051 18 11.5931 18 11.5811 18C11.5691 18 11.5571 18 11.5451 18C11.5331 18 11.5211 18 11.5091 18C11.4971 18 11.4851 18 11.4731 18C11.4611 18 11.4491 18 11.4371 18C11.425 18 11.413 18 11.401 18C11.389 18 11.377 18 11.365 18C11.3529 18 11.3409 18 11.3289 18C11.3169 18 11.3048 18 11.2928 18C11.2808 18 11.2687 18 11.2567 18C11.2447 18 11.2326 18 11.2206 18C11.2086 18 11.1965 18 11.1845 18C11.1724 18 11.1604 18 11.1484 18C11.1363 18 11.1243 18 11.1122 18C11.1002 18 11.0881 18 11.0761 18C11.064 18 11.052 18 11.0399 18C11.0279 18 11.0158 18 11.0038 18C10.9917 18 10.9797 18 10.9676 18C10.9555 18 10.9435 18 10.9314 18C10.9194 18 10.9073 18 10.8952 18C10.8832 18 10.8711 18 10.859 18C10.847 18 10.8349 18 10.8228 18C10.8108 18 10.7987 18 10.7866 18C10.7746 18 10.7625 18 10.7504 18C10.7383 18 10.7263 18 10.7142 18C10.7021 18 10.6901 18 10.678 18C10.6659 18 10.6538 18 10.6418 18C10.6297 18 10.6176 18 10.6055 18C10.5934 18 10.5814 18 10.5693 18C10.5572 18 10.5451 18 10.533 18C10.521 18 10.5089 18 10.4968 18C10.4847 18 10.4726 18 10.4605 18C10.4485 18 10.4364 18 10.4243 18C10.4122 18 10.4001 18 10.388 18C10.376 18 10.3639 18 10.3518 18C10.3397 18 10.3276 18 10.3155 18C10.3034 18 10.2914 18 10.2793 18C10.2672 18 10.2551 18 10.243 18C10.2309 18 10.2188 18 10.2068 18C10.1947 18 10.1826 18 10.1705 18C10.1584 18 10.1463 18 10.1342 18C10.1221 18 10.1101 18 10.098 18C10.0859 18 10.0738 18 10.0617 18C10.0496 18 10.0375 18 10.0255 18C10.0134 18 10.0013 18 9.9892 18C9.97712 18 9.96503 18 9.95295 18C9.94086 18 9.92878 18 9.9167 18C9.90461 18 9.89253 18 9.88045 18C9.86837 18 9.85628 18 9.8442 18C9.83212 18 9.82004 18 9.80796 18C9.79588 18 9.7838 18 9.77172 18C9.75964 18 9.74756 18 9.73548 18C9.72341 18 9.71133 18 9.69925 18C9.68718 18 9.6751 18 9.66303 18C9.65095 18 9.63888 18 9.62681 18C9.61473 18 9.60266 18 9.59059 18C9.57852 18 9.56645 18 9.55438 18C9.54231 18 9.53025 18 9.51818 18C9.50611 18 9.49405 18 9.48198 18C9.46992 18 9.45785 18 9.44579 18C9.43373 18 9.42167 18 9.40961 18C9.39755 18 9.38549 18 9.37344 18C9.36138 18 9.34932 18 9.33727 18C9.32522 18 9.31316 18 9.30111 18C9.28906 18 9.27701 18 9.26496 18C9.25291 18 9.24087 18 9.22882 18C9.21678 18 9.20473 18 9.19269 18C9.18065 18 9.16861 18 9.15657 18C9.14453 18 9.13249 18 9.12046 18C9.10842 18 9.09639 18 9.08436 18C9.07233 18 9.0603 18 9.04827 18C9.03624 18 9.02422 18 9.01219 18C9.00017 18 8.98815 18 8.97613 18C8.96411 18 8.95209 18 8.94007 18C8.92806 18 8.91604 18 8.90403 18C8.89202 18 8.88001 18 8.868 18C8.85599 18 8.84399 18 8.83198 18C8.81998 18 8.80798 18 8.79598 18C8.78398 18 8.77199 18 8.75999 18C8.748 18 8.73601 18 8.72402 18C8.71203 18 8.70004 18 8.68806 18C8.67607 18 8.66409 18 8.65211 18C8.64013 18 8.62816 18 8.61618 18C8.60421 18 8.59224 18 8.58027 18C8.5683 18 8.55634 18 8.54437 18C8.53241 18 8.52045 18 8.50849 18C8.49653 18 8.48458 18 8.47263 18C8.46067 18 8.44872 18 8.43678 18C8.42483 18 8.41289 18 8.40095 18C8.38901 18 8.37707 18 8.36513 18C8.3532 18 8.34127 18 8.32934 18C8.31741 18 8.30549 18 8.29356 18C8.28164 18 8.26972 18 8.25781 18C8.24589 18 8.23398 18 8.22207 18C8.21016 18 8.19825 18 8.18635 18C8.17445 18 8.16255 18 8.15065 18C8.13876 18 8.12687 18 8.11498 18C8.10309 18 8.0912 18 8.07932 18C8.06744 18 8.05556 18 8.04368 18C8.03181 18 8.01994 18 8.00807 18C7.9962 18 7.98434 18 7.97248 18C7.96062 18 7.94876 18 7.93691 18C7.92505 18 7.9132 18 7.90136 18C7.88951 18 7.87767 18 7.86583 18C7.85399 18 7.84216 18 7.83033 18C7.8185 18 7.80667 18 7.79485 18C7.78303 18 7.77121 18 7.7594 18C7.74758 18 7.73577 18 7.72397 18C7.71216 18 7.70036 18 7.68856 18C7.67676 18 7.66497 18 7.65318 18C7.64139 18 7.62961 18 7.61783 18C7.60605 18 7.59427 18 7.5825 18C7.57073 18 7.55896 18 7.54719 18C7.53543 18 7.52367 18 7.51192 18C7.50016 18 7.48841 18 7.47667 18C7.46492 18 7.45318 18 7.44145 18C7.42971 18 7.41798 18 7.40625 18C7.39452 18 7.3828 18 7.37108 18C7.35937 18 7.34765 18 7.33595 18C7.32424 18 7.31254 18 7.30084 18C7.28914 18 7.27744 18 7.26576 18C7.25407 18 7.24238 18 7.2307 18C7.21903 18 7.20735 18 7.19568 18C7.18401 18 7.17235 18 7.16069 18C7.14903 18 7.13738 18 7.12573 18C7.11408 18 7.10244 18 7.0908 18C7.07916 18 7.06753 18 7.0559 18C7.04427 18 7.03265 18 7.02103 18C7.00942 18 6.9978 18 6.9862 18C6.97459 18 6.96299 18 6.95139 18C6.9398 18 6.92821 18 6.91662 18C6.90504 18 6.89346 18 6.88189 18C6.87031 18 6.85875 18 6.84718 18C6.83562 18 6.82406 18 6.81251 18C6.80096 18 6.78942 18 6.77788 18C6.76634 18 6.7548 18 6.74327 18C6.73175 18 6.72022 18 6.70871 18C6.69719 18 6.68568 18 6.67418 18C6.66267 18 6.65117 18 6.63968 18C6.62819 18 6.6167 18 6.60522 18C6.59374 18 6.58226 18 6.57079 18C6.55933 18 6.54786 18 6.53641 18C6.52495 18 6.5135 18 6.50206 18C6.49061 18 6.47917 18 6.46774 18C6.45631 18 6.44489 18 6.43347 18C6.42205 18 6.41064 18 6.39923 18C6.38782 18 6.37643 18 6.36503 18C6.35364 18 6.34225 18 6.33087 18C6.31949 18 6.30812 18 6.29675 18C6.28538 18 6.27402 18 6.26267 18C6.25132 18 6.23997 18 6.22863 18C6.21729 18 6.20595 18 6.19463 18C6.1833 18 6.17198 18 6.16067 18C6.14935 18 6.13805 18 6.12675 18C6.11545 18 6.10415 18 6.09287 18C6.08158 18 6.0703 18 6.05903 18C6.04776 18 6.0365 18 6.02524 18C6.01398 18 6.00273 18 5.99149 18C5.98024 18 5.96901 18 5.95778 18C5.94655 18 5.93532 18 5.92411 18C5.91289 18 5.90169 18 5.89049 18C5.87929 18 5.86809 18 5.85691 18C5.84572 18 5.83454 18 5.82337 18C5.8122 18 5.80104 18 5.78988 18C5.77873 18 5.76758 18 5.75644 18C5.7453 18 5.73416 18 5.72304 18C5.71191 18 5.7008 18 5.68969 18C5.67857 18 5.66747 18 5.65638 18C5.64528 18 5.6342 18 5.62312 18C5.61204 18 5.60096 18 5.5899 18C5.57884 18 5.56778 18 5.55673 18C5.54569 18 5.53465 18 5.52361 18C5.51258 18 5.50156 18 5.49054 18C5.47952 18 5.46852 18 5.45752 18C5.44652 18 5.43552 18 5.42454 18C5.41356 18 5.40258 18 5.39161 18C5.38065 18 5.36969 18 5.35874 18C5.34779 18 5.33684 18 5.32591 18C5.31498 18 5.30405 18 5.29313 18C5.28221 18 5.27131 18 5.2604 18C5.2495 18 5.23861 18 5.22773 18C5.21684 18 5.20597 18 5.1951 18C5.18424 18 5.17338 18 5.16253 18C5.15168 18 5.14084 18 5.13001 18C5.11918 18 5.10835 18 5.09754 18C5.08672 18 5.07592 18 5.06512 18C5.05432 18 5.04354 18 5.03276 18C5.02198 18 5.01121 18 5.00044 18C4.98968 18 4.97893 18 4.96819 18C4.95744 18 4.94671 18 4.93598 18C4.92526 18 4.91454 18 4.90383 18C4.89313 18 4.88243 18 4.87174 18C4.86105 18 4.85037 18 4.8397 18C4.82903 18 4.81837 18 4.80772 18C4.79707 18 4.78642 18 4.77579 18C4.76516 18 4.75453 18 4.74392 18C4.7333 18 4.7227 18 4.7121 18C4.70151 18 4.69092 18 4.68034 18C4.66977 18 4.6592 18 4.64864 18C4.63809 18 4.62754 18 4.617 18C4.60646 18 4.59593 18 4.58541 18C4.5749 18 4.56439 18 4.55389 18C4.54339 18 4.5329 18 4.52242 18C4.51194 18 4.50147 18 4.49101 18C4.48055 18 4.4701 18 4.45966 18C4.44922 18 4.43879 18 4.42837 18C4.41795 18 4.40754 18 4.39714 18C4.38674 18 4.37635 18 4.36597 18C4.35559 18 4.34522 18 4.33486 18C4.3245 18 4.31415 18 4.30381 18C4.29347 18 4.28315 18 4.27283 18C4.26251 18 4.2522 18 4.2419 18C4.23161 18 4.22132 18 4.21104 18C4.20077 18 4.1905 18 4.18024 18C4.16999 18 4.15974 18 4.14951 18C4.13927 18 4.12905 18 4.11884 18C4.10862 18 4.09842 18 4.08823 18C4.07804 18 4.06785 18 4.05768 18C4.04751 18 4.03735 18 4.0272 18C4.01705 18 4.00692 18 3.99679 18V20C4.00692 20 4.01705 20 4.0272 20C4.03735 20 4.04751 20 4.05768 20C4.06785 20 4.07804 20 4.08823 20C4.09842 20 4.10862 20 4.11884 20C4.12905 20 4.13927 20 4.14951 20C4.15974 20 4.16999 20 4.18024 20C4.1905 20 4.20077 20 4.21104 20C4.22132 20 4.23161 20 4.2419 20C4.2522 20 4.26251 20 4.27283 20C4.28315 20 4.29347 20 4.30381 20C4.31415 20 4.3245 20 4.33486 20C4.34522 20 4.35559 20 4.36597 20C4.37635 20 4.38674 20 4.39714 20C4.40754 20 4.41795 20 4.42837 20C4.43879 20 4.44922 20 4.45966 20C4.4701 20 4.48055 20 4.49101 20C4.50147 20 4.51194 20 4.52242 20C4.5329 20 4.54339 20 4.55389 20C4.56439 20 4.5749 20 4.58541 20C4.59593 20 4.60646 20 4.617 20C4.62754 20 4.63809 20 4.64864 20C4.6592 20 4.66977 20 4.68034 20C4.69092 20 4.70151 20 4.7121 20C4.7227 20 4.7333 20 4.74392 20C4.75453 20 4.76516 20 4.77579 20C4.78642 20 4.79707 20 4.80772 20C4.81837 20 4.82903 20 4.8397 20C4.85037 20 4.86105 20 4.87174 20C4.88243 20 4.89313 20 4.90383 20C4.91454 20 4.92526 20 4.93598 20C4.94671 20 4.95744 20 4.96819 20C4.97893 20 4.98968 20 5.00044 20C5.01121 20 5.02198 20 5.03276 20C5.04354 20 5.05432 20 5.06512 20C5.07592 20 5.08672 20 5.09754 20C5.10835 20 5.11918 20 5.13001 20C5.14084 20 5.15168 20 5.16253 20C5.17338 20 5.18424 20 5.1951 20C5.20597 20 5.21684 20 5.22773 20C5.23861 20 5.2495 20 5.2604 20C5.27131 20 5.28221 20 5.29313 20C5.30405 20 5.31498 20 5.32591 20C5.33684 20 5.34779 20 5.35874 20C5.36969 20 5.38065 20 5.39161 20C5.40258 20 5.41356 20 5.42454 20C5.43552 20 5.44652 20 5.45752 20C5.46852 20 5.47952 20 5.49054 20C5.50156 20 5.51258 20 5.52361 20C5.53465 20 5.54569 20 5.55673 20C5.56778 20 5.57884 20 5.5899 20C5.60096 20 5.61204 20 5.62312 20C5.6342 20 5.64528 20 5.65638 20C5.66747 20 5.67857 20 5.68969 20C5.7008 20 5.71191 20 5.72304 20C5.73416 20 5.7453 20 5.75644 20C5.76758 20 5.77873 20 5.78988 20C5.80104 20 5.8122 20 5.82337 20C5.83454 20 5.84572 20 5.85691 20C5.86809 20 5.87929 20 5.89049 20C5.90169 20 5.91289 20 5.92411 20C5.93532 20 5.94655 20 5.95778 20C5.96901 20 5.98024 20 5.99149 20C6.00273 20 6.01398 20 6.02524 20C6.0365 20 6.04776 20 6.05903 20C6.0703 20 6.08158 20 6.09287 20C6.10415 20 6.11545 20 6.12675 20C6.13805 20 6.14935 20 6.16067 20C6.17198 20 6.1833 20 6.19463 20C6.20595 20 6.21729 20 6.22863 20C6.23997 20 6.25132 20 6.26267 20C6.27402 20 6.28538 20 6.29675 20C6.30812 20 6.31949 20 6.33087 20C6.34225 20 6.35364 20 6.36503 20C6.37643 20 6.38782 20 6.39923 20C6.41064 20 6.42205 20 6.43347 20C6.44489 20 6.45631 20 6.46774 20C6.47917 20 6.49061 20 6.50206 20C6.5135 20 6.52495 20 6.53641 20C6.54786 20 6.55933 20 6.57079 20C6.58226 20 6.59374 20 6.60522 20C6.6167 20 6.62819 20 6.63968 20C6.65117 20 6.66267 20 6.67418 20C6.68568 20 6.69719 20 6.70871 20C6.72022 20 6.73175 20 6.74327 20C6.7548 20 6.76634 20 6.77788 20C6.78942 20 6.80096 20 6.81251 20C6.82406 20 6.83562 20 6.84718 20C6.85875 20 6.87031 20 6.88189 20C6.89346 20 6.90504 20 6.91662 20C6.92821 20 6.9398 20 6.95139 20C6.96299 20 6.97459 20 6.9862 20C6.9978 20 7.00942 20 7.02103 20C7.03265 20 7.04427 20 7.0559 20C7.06753 20 7.07916 20 7.0908 20C7.10244 20 7.11408 20 7.12573 20C7.13738 20 7.14903 20 7.16069 20C7.17235 20 7.18401 20 7.19568 20C7.20735 20 7.21903 20 7.2307 20C7.24238 20 7.25407 20 7.26576 20C7.27744 20 7.28914 20 7.30084 20C7.31254 20 7.32424 20 7.33595 20C7.34765 20 7.35937 20 7.37108 20C7.3828 20 7.39452 20 7.40625 20C7.41798 20 7.42971 20 7.44145 20C7.45318 20 7.46492 20 7.47667 20C7.48841 20 7.50016 20 7.51192 20C7.52367 20 7.53543 20 7.54719 20C7.55896 20 7.57073 20 7.5825 20C7.59427 20 7.60605 20 7.61783 20C7.62961 20 7.64139 20 7.65318 20C7.66497 20 7.67676 20 7.68856 20C7.70036 20 7.71216 20 7.72397 20C7.73577 20 7.74758 20 7.7594 20C7.77121 20 7.78303 20 7.79485 20C7.80667 20 7.8185 20 7.83033 20C7.84216 20 7.85399 20 7.86583 20C7.87767 20 7.88951 20 7.90136 20C7.9132 20 7.92505 20 7.93691 20C7.94876 20 7.96062 20 7.97248 20C7.98434 20 7.9962 20 8.00807 20C8.01994 20 8.03181 20 8.04368 20C8.05556 20 8.06744 20 8.07932 20C8.0912 20 8.10309 20 8.11498 20C8.12687 20 8.13876 20 8.15065 20C8.16255 20 8.17445 20 8.18635 20C8.19825 20 8.21016 20 8.22207 20C8.23398 20 8.24589 20 8.25781 20C8.26972 20 8.28164 20 8.29356 20C8.30549 20 8.31741 20 8.32934 20C8.34127 20 8.3532 20 8.36513 20C8.37707 20 8.38901 20 8.40095 20C8.41289 20 8.42483 20 8.43678 20C8.44872 20 8.46067 20 8.47263 20C8.48458 20 8.49653 20 8.50849 20C8.52045 20 8.53241 20 8.54437 20C8.55634 20 8.5683 20 8.58027 20C8.59224 20 8.60421 20 8.61618 20C8.62816 20 8.64013 20 8.65211 20C8.66409 20 8.67607 20 8.68806 20C8.70004 20 8.71203 20 8.72402 20C8.73601 20 8.748 20 8.75999 20C8.77199 20 8.78398 20 8.79598 20C8.80798 20 8.81998 20 8.83198 20C8.84399 20 8.85599 20 8.868 20C8.88001 20 8.89202 20 8.90403 20C8.91604 20 8.92806 20 8.94007 20C8.95209 20 8.96411 20 8.97613 20C8.98815 20 9.00017 20 9.01219 20C9.02422 20 9.03624 20 9.04827 20C9.0603 20 9.07233 20 9.08436 20C9.09639 20 9.10842 20 9.12046 20C9.13249 20 9.14453 20 9.15657 20C9.16861 20 9.18065 20 9.19269 20C9.20473 20 9.21678 20 9.22882 20C9.24087 20 9.25291 20 9.26496 20C9.27701 20 9.28906 20 9.30111 20C9.31316 20 9.32522 20 9.33727 20C9.34932 20 9.36138 20 9.37344 20C9.38549 20 9.39755 20 9.40961 20C9.42167 20 9.43373 20 9.44579 20C9.45785 20 9.46992 20 9.48198 20C9.49405 20 9.50611 20 9.51818 20C9.53025 20 9.54231 20 9.55438 20C9.56645 20 9.57852 20 9.59059 20C9.60266 20 9.61473 20 9.62681 20C9.63888 20 9.65095 20 9.66303 20C9.6751 20 9.68718 20 9.69925 20C9.71133 20 9.72341 20 9.73548 20C9.74756 20 9.75964 20 9.77172 20C9.7838 20 9.79588 20 9.80796 20C9.82004 20 9.83212 20 9.8442 20C9.85628 20 9.86837 20 9.88045 20C9.89253 20 9.90461 20 9.9167 20C9.92878 20 9.94086 20 9.95295 20C9.96503 20 9.97712 20 9.9892 20C10.0013 20 10.0134 20 10.0255 20C10.0375 20 10.0496 20 10.0617 20C10.0738 20 10.0859 20 10.098 20C10.1101 20 10.1221 20 10.1342 20C10.1463 20 10.1584 20 10.1705 20C10.1826 20 10.1947 20 10.2068 20C10.2188 20 10.2309 20 10.243 20C10.2551 20 10.2672 20 10.2793 20C10.2914 20 10.3034 20 10.3155 20C10.3276 20 10.3397 20 10.3518 20C10.3639 20 10.376 20 10.388 20C10.4001 20 10.4122 20 10.4243 20C10.4364 20 10.4485 20 10.4605 20C10.4726 20 10.4847 20 10.4968 20C10.5089 20 10.521 20 10.533 20C10.5451 20 10.5572 20 10.5693 20C10.5814 20 10.5934 20 10.6055 20C10.6176 20 10.6297 20 10.6418 20C10.6538 20 10.6659 20 10.678 20C10.6901 20 10.7021 20 10.7142 20C10.7263 20 10.7383 20 10.7504 20C10.7625 20 10.7746 20 10.7866 20C10.7987 20 10.8108 20 10.8228 20C10.8349 20 10.847 20 10.859 20C10.8711 20 10.8832 20 10.8952 20C10.9073 20 10.9194 20 10.9314 20C10.9435 20 10.9555 20 10.9676 20C10.9797 20 10.9917 20 11.0038 20C11.0158 20 11.0279 20 11.0399 20C11.052 20 11.064 20 11.0761 20C11.0881 20 11.1002 20 11.1122 20C11.1243 20 11.1363 20 11.1484 20C11.1604 20 11.1724 20 11.1845 20C11.1965 20 11.2086 20 11.2206 20C11.2326 20 11.2447 20 11.2567 20C11.2687 20 11.2808 20 11.2928 20C11.3048 20 11.3169 20 11.3289 20C11.3409 20 11.3529 20 11.365 20C11.377 20 11.389 20 11.401 20C11.413 20 11.425 20 11.4371 20C11.4491 20 11.4611 20 11.4731 20C11.4851 20 11.4971 20 11.5091 20C11.5211 20 11.5331 20 11.5451 20C11.5571 20 11.5691 20 11.5811 20C11.5931 20 11.6051 20 11.6171 20C11.6291 20 11.6411 20 11.6531 20C11.6651 20 11.677 20 11.689 20C11.701 20 11.713 20 11.725 20C11.7369 20 11.7489 20 11.7609 20C11.7729 20 11.7848 20 11.7968 20C11.8088 20 11.8207 20 11.8327 20C11.8446 20 11.8566 20 11.8685 20C11.8805 20 11.8925 20 11.9044 20C11.9164 20 11.9283 20 11.9402 20C11.9522 20 11.9641 20 11.9761 20C11.988 20 11.9999 20 12.0119 20C12.0238 20 12.0357 20 12.0477 20C12.0596 20 12.0715 20 12.0834 20C12.0953 20 12.1073 20 12.1192 20C12.1311 20 12.143 20 12.1549 20C12.1668 20 12.1787 20 12.1906 20C12.2025 20 12.2144 20 12.2263 20C12.2382 20 12.2501 20 12.262 20C12.2738 20 12.2857 20 12.2976 20C12.3095 20 12.3213 20 12.3332 20C12.3451 20 12.357 20 12.3688 20C12.3807 20 12.3925 20 12.4044 20C12.4163 20 12.4281 20 12.44 20C12.4518 20 12.4637 20 12.4755 20C12.4873 20 12.4992 20 12.511 20C12.5228 20 12.5347 20 12.5465 20C12.5583 20 12.5701 20 12.582 20C12.5938 20 12.6056 20 12.6174 20C12.6292 20 12.641 20 12.6528 20C12.6646 20 12.6764 20 12.6882 20C12.7 20 12.7118 20 12.7236 20C12.7354 20 12.7471 20 12.7589 20C12.7707 20 12.7825 20 12.7942 20C12.806 20 12.8178 20 12.8295 20C12.8413 20 12.853 20 12.8648 20C12.8765 20 12.8883 20 12.9 20C12.9118 20 12.9235 20 12.9352 20C12.947 20 12.9587 20 12.9704 20C12.9821 20 12.9938 20 13.0056 20C13.0173 20 13.029 20 13.0407 20C13.0524 20 13.0641 20 13.0758 20C13.0875 20 13.0992 20 13.1108 20C13.1225 20 13.1342 20 13.1459 20C13.1576 20 13.1692 20 13.1809 20C13.1925 20 13.2042 20 13.2159 20C13.2275 20 13.2392 20 13.2508 20C13.2624 20 13.2741 20 13.2857 20C13.2973 20 13.309 20 13.3206 20C13.3322 20 13.3438 20 13.3554 20C13.3671 20 13.3787 20 13.3903 20C13.4019 20 13.4135 20 13.4251 20C13.4366 20 13.4482 20 13.4598 20C13.4714 20 13.483 20 13.4945 20C13.5061 20 13.5177 20 13.5292 20C13.5408 20 13.5523 20 13.5639 20C13.5754 20 13.5869 20 13.5985 20C13.61 20 13.6215 20 13.6331 20C13.6446 20 13.6561 20 13.6676 20C13.6791 20 13.6906 20 13.7021 20C13.7136 20 13.7251 20 13.7366 20C13.7481 20 13.7596 20 13.771 20C13.7825 20 13.794 20 13.8054 20C13.8169 20 13.8284 20 13.8398 20C13.8513 20 13.8627 20 13.8741 20C13.8856 20 13.897 20 13.9084 20C13.9199 20 13.9313 20 13.9427 20C13.9541 20 13.9655 20 13.9769 20C13.9883 20 13.9997 20 14.0111 20C14.0225 20 14.0339 20 14.0452 20C14.0566 20 14.068 20 14.0793 20C14.0907 20 14.102 20 14.1134 20C14.1247 20 14.1361 20 14.1474 20C14.1587 20 14.1701 20 14.1814 20C14.1927 20 14.204 20 14.2153 20C14.2266 20 14.2379 20 14.2492 20C14.2605 20 14.2718 20 14.2831 20C14.2944 20 14.3056 20 14.3169 20C14.3282 20 14.3394 20 14.3507 20C14.3619 20 14.3732 20 14.3844 20C14.3956 20 14.4069 20 14.4181 20C14.4293 20 14.4405 20 14.4517 20C14.4629 20 14.4741 20 14.4853 20C14.4965 20 14.5077 20 14.5189 20C14.53 20 14.5412 20 14.5524 20C14.5635 20 14.5747 20 14.5858 20C14.597 20 14.6081 20 14.6193 20C14.6304 20 14.6415 20 14.6526 20C14.6638 20 14.6749 20 14.686 20C14.6971 20 14.7082 20 14.7193 20C14.7303 20 14.7414 20 14.7525 20C14.7636 20 14.7746 20 14.7857 20C14.7967 20 14.8078 20 14.8188 20C14.8299 20 14.8409 20 14.8519 20C14.8629 20 14.874 20 14.885 20C14.896 20 14.907 20 14.918 20C14.929 20 14.9399 20 14.9509 20C14.9619 20 14.9729 20 14.9838 20C14.9948 20 15.0057 20 15.0167 20C15.0276 20 15.0385 20 15.0495 20C15.0604 20 15.0713 20 15.0822 20C15.0931 20 15.104 20 15.1149 20C15.1258 20 15.1367 20 15.1476 20C15.1584 20 15.1693 20 15.1802 20C15.191 20 15.2019 20 15.2127 20C15.2235 20 15.2344 20 15.2452 20C15.256 20 15.2668 20 15.2776 20C15.2884 20 15.2992 20 15.31 20C15.3208 20 15.3316 20 15.3424 20C15.3531 20 15.3639 20 15.3746 20C15.3854 20 15.3961 20 15.4069 20C15.4176 20 15.4283 20 15.439 20C15.4498 20 15.4605 20 15.4712 20C15.4819 20 15.4926 20 15.5032 20C15.5139 20 15.5246 20 15.5352 20C15.5459 20 15.5566 20 15.5672 20C15.5778 20 15.5885 20 15.5991 20C15.6097 20 15.6203 20 15.6309 20C15.6415 20 15.6521 20 15.6627 20C15.6733 20 15.6839 20 15.6944 20C15.705 20 15.7156 20 15.7261 20C15.7367 20 15.7472 20 15.7577 20C15.7683 20 15.7788 20 15.7893 20C15.7998 20 15.8103 20 15.8208 20C15.8313 20 15.8417 20 15.8522 20C15.8627 20 15.8731 20 15.8836 20C15.894 20 15.9045 20 15.9149 20C15.9253 20 15.9358 20 15.9462 20C15.9566 20 15.967 20 15.9774 20C15.9878 20 15.9981 20 16.0085 20C16.0189 20 16.0292 20 16.0396 20C16.0499 20 16.0603 20 16.0706 20C16.0809 20 16.0912 20 16.1015 20C16.1118 20 16.1221 20 16.1324 20C16.1427 20 16.153 20 16.1633 20C16.1735 20 16.1838 20 16.194 20C16.2043 20 16.2145 20 16.2247 20C16.2349 20 16.2452 20 16.2554 20C16.2656 20 16.2758 20 16.2859 20C16.2961 20 16.3063 20 16.3164 20C16.3266 20 16.3368 20 16.3469 20C16.357 20 16.3672 20 16.3773 20C16.3874 20 16.3975 20 16.4076 20C16.4177 20 16.4278 20 16.4378 20C16.4479 20 16.458 20 16.468 20C16.4781 20 16.4881 20 16.4981 20C16.5082 20 16.5182 20 16.5282 20C16.5382 20 16.5482 20 16.5582 20C16.5681 20 16.5781 20 16.5881 20C16.598 20 16.608 20 16.6179 20C16.6279 20 16.6378 20 16.6477 20C16.6576 20 16.6675 20 16.6774 20C16.6873 20 16.6972 20 16.707 20C16.7169 20 16.7268 20 16.7366 20C16.7465 20 16.7563 20 16.7661 20C16.7759 20 16.7858 20 16.7956 20C16.8053 20 16.8151 20 16.8249 20C16.8347 20 16.8444 20 16.8542 20C16.864 20 16.8737 20 16.8834 20C16.8931 20 16.9029 20 16.9126 20C16.9223 20 16.932 20 16.9416 20C16.9513 20 16.961 20 16.9706 20C16.9803 20 16.9899 20 16.9996 20C17.0092 20 17.0188 20 17.0284 20C17.038 20 17.0476 20 17.0572 20C17.0668 20 17.0764 20 17.0859 20C17.0955 20 17.105 20 17.1146 20C17.1241 20 17.1336 20 17.1431 20C17.1526 20 17.1621 20 17.1716 20C17.1811 20 17.1906 20 17.2 20C17.2095 20 17.2189 20 17.2284 20C17.2378 20 17.2472 20 17.2566 20C17.266 20 17.2754 20 17.2848 20C17.2942 20 17.3035 20 17.3129 20C17.3223 20 17.3316 20 17.3409 20C17.3503 20 17.3596 20 17.3689 20C17.3782 20 17.3875 20 17.3968 20C17.406 20 17.4153 20 17.4246 20C17.4338 20 17.443 20 17.4523 20C17.4615 20 17.4707 20 17.4799 20C17.4891 20 17.4983 20 17.5075 20C17.5166 20 17.5258 20 17.535 20C17.5441 20 17.5532 20 17.5624 20C17.5715 20 17.5806 20 17.5897 20C17.5988 20 17.6078 20 17.6169 20C17.626 20 17.635 20 17.6441 20C17.6531 20 17.6621 20 17.6712 20C17.6802 20 17.6892 20 17.6981 20C17.7071 20 17.7161 20 17.7251 20C17.734 20 17.743 20 17.7519 20C17.7608 20 17.7697 20 17.7786 20C17.7875 20 17.7964 20 17.8053 20C17.8142 20 17.823 20 17.8319 20C17.8407 20 17.8496 20 17.8584 20C17.8672 20 17.876 20 17.8848 20C17.8936 20 17.9024 20 17.9111 20C17.9199 20 17.9286 20 17.9374 20C17.9461 20 17.9548 20 17.9635 20C17.9722 20 17.9809 20 17.9896 20C17.9983 20 18.0069 20 18.0156 20C18.0242 20 18.0329 20 18.0415 20C18.0501 20 18.0587 20 18.0673 20C18.0759 20 18.0845 20 18.093 20C18.1016 20 18.1101 20 18.1187 20C18.1272 20 18.1357 20 18.1442 20C18.1527 20 18.1612 20 18.1697 20C18.1782 20 18.1866 20 18.1951 20C18.2035 20 18.2119 20 18.2203 20C18.2288 20 18.2372 20 18.2455 20C18.2539 20 18.2623 20 18.2707 20C18.279 20 18.2873 20 18.2957 20C18.304 20 18.3123 20 18.3206 20C18.3289 20 18.3372 20 18.3454 20C18.3537 20 18.3619 20 18.3702 20C18.3784 20 18.3866 20 18.3948 20C18.403 20 18.4112 20 18.4194 20C18.4276 20 18.4357 20 18.4439 20C18.452 20 18.4601 20 18.4682 20C18.4763 20 18.4844 20 18.4925 20C18.5006 20 18.5087 20 18.5167 20C18.5248 20 18.5328 20 18.5408 20C18.5488 20 18.5568 20 18.5648 20C18.5728 20 18.5808 20 18.5887 20C18.5967 20 18.6046 20 18.6125 20C18.6205 20 18.6284 20 18.6362 20C18.6441 20 18.652 20 18.6599 20C18.6677 20 18.6756 20 18.6834 20C18.6912 20 18.699 20 18.7068 20C18.7146 20 18.7224 20 18.7302 20C18.7379 20 18.7457 20 18.7534 20C18.7611 20 18.7688 20 18.7765 20C18.7842 20 18.7919 20 18.7996 20C18.8072 20 18.8149 20 18.8225 20C18.8302 20 18.8378 20 18.8454 20C18.853 20 18.8606 20 18.8681 20C18.8757 20 18.8832 20 18.8908 20C18.8983 20 18.9058 20 18.9133 20C18.9208 20 18.9283 20 18.9358 20C18.9432 20 18.9507 20 18.9581 20C18.9655 20 18.973 20 18.9804 20C18.9878 20 18.9951 20 19.0025 20C19.0099 20 19.0172 20 19.0246 20C19.0319 20 19.0392 20 19.0465 20C19.0538 20 19.0611 20 19.0683 20C19.0756 20 19.0829 20 19.0901 20C19.0973 20 19.1045 20 19.1117 20C19.1189 20 19.1261 20 19.1333 20C19.1404 20 19.1476 20 19.1547 20C19.1618 20 19.1689 20 19.176 20C19.1831 20 19.1902 20 19.1972 20C19.2043 20 19.2113 20 19.2184 20C19.2254 20 19.2324 20 19.2394 20C19.2464 20 19.2533 20 19.2603 20C19.2672 20 19.2742 20 19.2811 20C19.288 20 19.2949 20 19.3018 20C19.3087 20 19.3155 20 19.3224 20C19.3292 20 19.336 20 19.3429 20C19.3497 20 19.3565 20 19.3632 20C19.37 20 19.3768 20 19.3835 20C19.3902 20 19.397 20 19.4037 20C19.4104 20 19.4171 20 19.4237 20C19.4304 20 19.437 20 19.4437 20C19.4503 20 19.4569 20 19.4635 20C19.4701 20 19.4767 20 19.4832 20C19.4898 20 19.4963 20 19.5028 20C19.5094 20 19.5159 20 19.5224 20C19.5288 20 19.5353 20 19.5418 20C19.5482 20 19.5546 20 19.561 20C19.5674 20 19.5738 20 19.5802 20C19.5866 20 19.5929 20 19.5993 20C19.6056 20 19.6119 20 19.6182 20C19.6245 20 19.6308 20 19.6371 20C19.6433 20 19.6496 20 19.6558 20C19.662 20 19.6682 20 19.6744 20C19.6806 20 19.6868 20 19.6929 20C19.6991 20 19.7052 20 19.7113 20C19.7174 20 19.7235 20 19.7296 20C19.7357 20 19.7417 20 19.7477 20C19.7538 20 19.7598 20 19.7658 20C19.7718 20 19.7778 20 19.7837 20C19.7897 20 19.7956 20 19.8015 20C19.8075 20 19.8134 20 19.8192 20C19.8251 20 19.831 20 19.8368 20C19.8427 20 19.8485 20 19.8543 20C19.8601 20 19.8659 20 19.8716 20C19.8774 20 19.8831 20 19.8889 20C19.8946 20 19.9003 20 19.906 20C19.9117 20 19.9173 20 19.923 20C19.9286 20 19.9343 20 19.9399 20C19.9455 20 19.9511 20 19.9566 20C19.9622 20 19.9677 20 19.9733 20C19.9788 20 19.9843 20 19.9898 20C19.9953 20 20.0007 20 20.0062 20V18ZM4 18V6H2V18H4ZM11 7V9H13V7H11ZM13 17V15H11V17H13ZM9 16H13.9V14H9V16ZM15 14.9V12.1H13V14.9H15ZM13.9 11H10.1V13H13.9V11ZM11 11.9V9.1H9V11.9H11ZM10.1 10H15V8H10.1V10ZM15 12.1C15 11.4925 14.5075 11 13.9 11V13C13.4029 13 13 12.5971 13 12.1H15ZM13.9 16C14.5075 16 15 15.5075 15 14.9H13C13 14.4029 13.4029 14 13.9 14V16ZM3.99679 18C3.99548 18 3.99538 17.9999 3.99613 18C3.99682 18.0002 3.99764 18.0004 3.99843 18.0008C3.99992 18.0014 4.00025 18.0019 3.99996 18.0016C3.99966 18.0013 3.99971 18.0012 3.99992 18.0017C4.00004 18.002 4.00012 18.0022 4.00014 18.0023C4.00017 18.0025 4 18.0018 4 18H2C2 19.1004 2.88803 20 3.99679 20V18ZM20 18C20 18.0023 19.9998 18.0033 19.9998 18.0035C19.9997 18.0037 19.9997 18.0037 19.9998 18.0035C19.9999 18.0032 20 18.0031 20.0001 18.003C20.0002 18.0029 20.0011 18.002 20.0033 18.0011C20.0044 18.0006 20.0055 18.0003 20.0065 18.0001C20.0075 17.9999 20.0075 18 20.0062 18V20C21.1188 20 22 19.0965 22 18H20ZM11 9.1C11 9.59706 10.5971 10 10.1 10V8C9.49249 8 9 8.49249 9 9.1H11ZM20 6L20 6H22C22 4.89543 21.1046 4 20 4V6ZM10.1 11C10.5971 11 11 11.4029 11 11.9H9C9 12.5075 9.49249 13 10.1 13V11ZM4 4C2.89543 4 2 4.89543 2 6H4L4 6V4Z" fill="#555770"/>
</svg>
