<svg width="24" height="24" viewBox="0 0 24 24" fill="none" xmlns="http://www.w3.org/2000/svg">
<circle cx="12" cy="12" r="10" stroke="#555770" stroke-width="2"/>
<path d="M12 12L12.2272 11.0262L12 12ZM12.2272 11.0262C11.5019 10.8569 10.8968 10.6209 10.4954 10.3329C10.1168 10.0612 10 9.81121 10 9.55H8C8 10.6419 8.59966 11.4341 9.32934 11.9577C10.0362 12.465 10.9311 12.7774 11.7728 12.9738L12.2272 11.0262ZM10 9.55C10 8.92899 10.6966 8.1 12 8.1V6.1C9.98972 6.1 8 7.46482 8 9.55H10ZM12 8.1C13.3034 8.1 14 8.92899 14 9.55H16C16 7.46482 14.0103 6.1 12 6.1V8.1ZM14 14.45C14 15.071 13.3034 15.9 12 15.9V17.9C14.0103 17.9 16 16.5352 16 14.45H14ZM12 15.9C10.6966 15.9 10 15.071 10 14.45H8C8 16.5352 9.98972 17.9 12 17.9V15.9ZM11.7728 12.9738C12.4603 13.1343 13.0696 13.3701 13.4833 13.6641C13.8822 13.9474 14 14.2035 14 14.45H16C16 13.3434 15.3678 12.5495 14.6417 12.0336C13.9304 11.5283 13.0397 11.2157 12.2272 11.0262L11.7728 12.9738ZM13 7.1V5H11V7.1H13ZM11 16.9V19H13V16.9H11Z" fill="#555770"/>
</svg>
