<svg width="24" height="24" viewBox="0 0 24 24" fill="none" xmlns="http://www.w3.org/2000/svg">
<path d="M7.5 15.5707L6.79996 16.2848L6.79996 16.2848L7.5 15.5707ZM10.2584 11.3291L10.9998 12.0002L10.9998 12.0002L10.2584 11.3291ZM11.6709 12.7416L10.9998 12.0002L10.9998 12.0002L11.6709 12.7416ZM4 4H20V2H4V4ZM4 20V4H2V20H4ZM6 20H4V22H6V20ZM5 21V23H7V21H5ZM20 20H18V22H20V20ZM18 20H6V22H18V20ZM17 21V23H19V21H17ZM20 4V6H22V4H20ZM21 5H20.1V7H21V5ZM19 6.1V8.9H21V6.1H19ZM20 6V9H22V6H20ZM20.1 10H21V8H20.1V10ZM20 9V15H22V9H20ZM21 14H20.1V16H21V14ZM19 15.1V17.9H21V15.1H19ZM20 15V18H22V15H20ZM20 18V20H22V18H20ZM20.1 19H21V17H20.1V19ZM19 8.9C19 9.50752 19.4925 10 20.1 10V8C20.5971 8 21 8.40294 21 8.9H19ZM20.1 5C19.4925 5 19 5.49248 19 6.1H21C21 6.59706 20.5971 7 20.1 7V5ZM19 17.9C19 18.5075 19.4925 19 20.1 19V17C20.5971 17 21 17.4029 21 17.9H19ZM2 20C2 21.1046 2.89543 22 4 22V20H4H2ZM20.1 14C19.4925 14 19 14.4925 19 15.1H21C21 15.5971 20.5971 16 20.1 16V14ZM20 22C21.1046 22 22 21.1046 22 20H20V22ZM20 4H22C22 2.89543 21.1046 2 20 2V4ZM4 2C2.89543 2 2 2.89543 2 4H4V4V2ZM7 12C7 10.9095 7.43508 9.92257 8.14338 9.20004L6.71518 7.79996C5.65524 8.88118 5 10.3651 5 12H7ZM8.14338 9.20004C8.87052 8.45831 9.88083 8 11 8V6C9.32177 6 7.80298 6.69032 6.71518 7.79996L8.14338 9.20004ZM15 12C15 13.1192 14.5417 14.1295 13.8 14.8566L15.2 16.2848C16.3097 15.197 17 13.6782 17 12H15ZM13.8 14.8566C13.0774 15.5649 12.0905 16 11 16V18C12.6349 18 14.1188 17.3448 15.2 16.2848L13.8 14.8566ZM11 8C12.1192 8 13.1295 8.45831 13.8566 9.20004L15.2848 7.79996C14.197 6.69032 12.6782 6 11 6V8ZM13.8566 9.20004C14.5649 9.92257 15 10.9095 15 12H17C17 10.3651 16.3448 8.88118 15.2848 7.79996L13.8566 9.20004ZM11 16C9.90948 16 8.92257 15.5649 8.20004 14.8566L6.79996 16.2848C7.88118 17.3448 9.36507 18 11 18V16ZM8.20004 14.8566C7.45831 14.1295 7 13.1192 7 12H5C5 13.6782 5.69032 15.197 6.79996 16.2848L8.20004 14.8566ZM11 12L11.0002 12.0002L12.483 10.658C12.1184 10.2553 11.5883 10 11 10V12ZM11.0002 12.0002L11 12H13C13 11.4843 12.8035 11.0122 12.483 10.658L11.0002 12.0002ZM13.8636 7.79289L11.0345 10.622L12.4487 12.0362L15.2778 9.20711L13.8636 7.79289ZM11 12L10.9998 12.0002L9.51704 10.658C9.19649 11.0122 9 11.4843 9 12H11ZM10.9998 12.0002L11 12V10C10.4117 10 9.8816 10.2553 9.51704 10.658L10.9998 12.0002ZM6.72218 9.20711L9.55131 12.0362L10.9655 10.622L8.13639 7.79289L6.72218 9.20711ZM9.62202 12.0345L6.79289 14.8636L8.20711 16.2778L11.0362 13.4487L9.62202 12.0345ZM11 12L11.0002 12.0002L9.65804 13.483C10.0122 13.8035 10.4843 14 11 14V12ZM11.0002 12.0002L11 12H9C9 12.5883 9.2553 13.1184 9.65804 13.483L11.0002 12.0002ZM10.9638 13.4487L13.7929 16.2778L15.2071 14.8636L12.378 12.0345L10.9638 13.4487ZM11 12L10.9998 12.0002L12.342 13.483C12.7447 13.1184 13 12.5883 13 12H11ZM10.9998 12.0002L11 12V14C11.5157 14 11.9878 13.8035 12.342 13.483L10.9998 12.0002Z" fill="#555770"/>
</svg>
