<svg width="24" height="24" viewBox="0 0 24 24" fill="none" xmlns="http://www.w3.org/2000/svg">
<path d="M21.9276 9.14472L21.0332 8.69751L21.9276 9.14472ZM18.0276 16.9447L18.9221 17.3919L18.0276 16.9447ZM5.97236 16.9447L5.07793 17.3919L5.97236 16.9447ZM11.9168 3.12481L12.7488 3.67951L11.9168 3.12481ZM12.0832 3.12481L11.2512 3.67951L12.0832 3.12481ZM2.07236 9.14472L2.96679 8.69751L2.07236 9.14472ZM1.17793 9.59193L5.07793 17.3919L6.86679 16.4975L2.96679 8.69751L1.17793 9.59193ZM6.0618 18H17.9382V16H6.0618V18ZM18.9221 17.3919L22.8221 9.59193L21.0332 8.69751L17.1332 16.4975L18.9221 17.3919ZM16 8H8V10H16V8ZM8 8H2.1618V10H8V8ZM11.0847 2.57011L7.16795 8.4453L8.83205 9.5547L12.7488 3.67951L11.0847 2.57011ZM21.8382 8H16V10H21.8382V8ZM11.2512 3.67951L15.1679 9.5547L16.8321 8.4453L12.9153 2.57011L11.2512 3.67951ZM22.8221 9.59193C23.1878 8.86054 22.6559 8 21.8382 8V10C21.1692 10 20.734 9.29592 21.0332 8.69751L22.8221 9.59193ZM17.9382 18C18.3548 18 18.7357 17.7646 18.9221 17.3919L17.1332 16.4975C17.2857 16.1926 17.5973 16 17.9382 16V18ZM5.07793 17.3919C5.26426 17.7646 5.64515 18 6.0618 18V16C6.4027 16 6.71434 16.1926 6.86679 16.4975L5.07793 17.3919ZM12.7488 3.67951C12.3926 4.21387 11.6074 4.21387 11.2512 3.67951L12.9153 2.57011C12.4799 1.917 11.5201 1.917 11.0847 2.57011L12.7488 3.67951ZM2.96679 8.69751C3.26599 9.29592 2.83085 10 2.1618 10V8C1.34408 8 0.812238 8.86054 1.17793 9.59193L2.96679 8.69751Z" fill="#555770"/>
<rect x="10" y="11" width="4" height="4" rx="2" fill="#555770"/>
</svg>
