<svg width="24" height="24" viewBox="0 0 24 24" fill="none" xmlns="http://www.w3.org/2000/svg">
<g clip-path="url(#clip0_402_15969)">
<mask id="mask0_402_15969" style="mask-type:alpha" maskUnits="userSpaceOnUse" x="0" y="0" width="24" height="24">
<path d="M12 -5.24537e-07L12 6L10 6L10 -6.11959e-07L0 -1.04907e-06L-1.04907e-06 24L12 24L12 18L14 18L14 24L24 24L24 0L12 -5.24537e-07Z" fill="white"/>
</mask>
<g mask="url(#mask0_402_15969)">
<circle cx="12" cy="12" r="8" transform="rotate(90 12 12)" stroke="#555770" stroke-width="2"/>
<path d="M14 14L14 21L21 21L14 14Z" fill="#555770"/>
<path d="M10 10L10 3L3 3L10 10Z" fill="#555770"/>
</g>
</g>
<defs>
<clipPath id="clip0_402_15969">
<rect width="24" height="24" fill="white"/>
</clipPath>
</defs>
</svg>
