<svg width="24" height="24" viewBox="0 0 24 24" fill="none" xmlns="http://www.w3.org/2000/svg">
<path d="M21 12L21.7071 12.7071L22.4142 12L21.7071 11.2929L21 12ZM12 21L11.2929 21.7071L12 22.4142L12.7071 21.7071L12 21ZM12 3L12.7071 2.29289L12 1.58579L11.2929 2.29289L12 3ZM3 12L2.29289 11.2929L1.58579 12L2.29289 12.7071L3 12ZM16.9179 9.3321L20.2929 12.7071L21.7071 11.2929L18.3321 7.91789L16.9179 9.3321ZM12.7071 20.2929L9.3321 16.9179L7.91789 18.3321L11.2929 21.7071L12.7071 20.2929ZM20.2929 11.2929L16.9179 14.6679L18.3321 16.0821L21.7071 12.7071L20.2929 11.2929ZM9.3321 7.0821L12.7071 3.70711L11.2929 2.29289L7.91789 5.66789L9.3321 7.0821ZM14.6679 16.9179L11.2929 20.2929L12.7071 21.7071L16.0821 18.3321L14.6679 16.9179ZM3.70711 12.7071L7.0821 9.3321L5.66789 7.91789L2.29289 11.2929L3.70711 12.7071ZM11.2929 3.70711L14.6679 7.0821L16.0821 5.66789L12.7071 2.29289L11.2929 3.70711ZM7.0821 14.6679L3.70711 11.2929L2.29289 12.7071L5.66789 16.0821L7.0821 14.6679ZM11 3V9H13V3H11ZM3 13H8.99999V11H3V13ZM13 21V15H11V21H13ZM21 11H15V13H21V11Z" fill="#555770"/>
</svg>
