<svg width="24" height="24" viewBox="0 0 24 24" fill="none" xmlns="http://www.w3.org/2000/svg">
<path d="M12 8L11.2929 8.70711L12 9.41421L12.7071 8.70711L12 8ZM12 16L12.7071 15.2929L12 14.5858L11.2929 15.2929L12 16ZM7.29289 4.70711L11.2929 8.70711L12.7071 7.29289L8.70711 3.29289L7.29289 4.70711ZM12.7071 8.70711L16.7071 4.70711L15.2929 3.29289L11.2929 7.29289L12.7071 8.70711ZM8.70711 20.7071L12.7071 16.7071L11.2929 15.2929L7.29289 19.2929L8.70711 20.7071ZM11.2929 16.7071L15.2929 20.7071L16.7071 19.2929L12.7071 15.2929L11.2929 16.7071Z" fill="#555770"/>
</svg>
