<svg width="24" height="24" viewBox="0 0 24 24" fill="none" xmlns="http://www.w3.org/2000/svg">
<path d="M7.5 16L8.20711 16.7071L9.91421 15H7.5V16ZM6 17.5L5.29289 18.2071L6 18.9142L6.70711 18.2071L6 17.5ZM4.5 16V15H2.08579L3.79289 16.7071L4.5 16ZM18 5.5L18.7071 4.79289L18 4.08579L17.2929 4.79289L18 5.5ZM16.5 7L15.7929 6.29289L14.0858 8H16.5V7ZM19.5 7V8H21.9142L20.2071 6.29289L19.5 7ZM6.79289 15.2929L5.29289 16.7929L6.70711 18.2071L8.20711 16.7071L6.79289 15.2929ZM6.70711 16.7929L5.20711 15.2929L3.79289 16.7071L5.29289 18.2071L6.70711 16.7929ZM4.5 17H6V15H4.5V17ZM6 17H7.5V15H6V17ZM7 16V8H5V16H7ZM11 8V15H13V8H11ZM17.2929 4.79289L15.7929 6.29289L17.2071 7.70711L18.7071 6.20711L17.2929 4.79289ZM20.2071 6.29289L18.7071 4.79289L17.2929 6.20711L18.7929 7.70711L20.2071 6.29289ZM16.5 8H18V6H16.5V8ZM18 8H19.5V6H18V8ZM17 7V15H19V7H17ZM15 19C17.2091 19 19 17.2091 19 15H17C17 16.1046 16.1046 17 15 17V19ZM11 15C11 17.2091 12.7909 19 15 19V17C13.8954 17 13 16.1046 13 15H11ZM9 6C10.1046 6 11 6.89543 11 8H13C13 5.79086 11.2091 4 9 4V6ZM7 8C7 6.89543 7.89543 6 9 6V4C6.79086 4 5 5.79086 5 8H7Z" fill="#555770"/>
</svg>
