<svg width="24" height="24" viewBox="0 0 24 24" fill="none" xmlns="http://www.w3.org/2000/svg">
<path d="M12.6967 20.2612L13.4324 20.9385L12.6967 20.2612ZM11.3033 20.2612L10.5676 20.9385L11.3033 20.2612ZM18 10C18 10.5606 17.788 11.3125 17.36 12.218C16.9401 13.1064 16.3519 14.0608 15.6929 15.0028C14.3754 16.8859 12.8337 18.636 11.961 19.5838L13.4324 20.9385C14.3302 19.9633 15.9401 18.1383 17.3317 16.1493C18.0272 15.1552 18.6829 14.0994 19.1682 13.0726C19.6454 12.063 20 10.9949 20 10H18ZM12.039 19.5838C11.1663 18.636 9.62455 16.8859 8.30708 15.0028C7.64807 14.0608 7.05994 13.1064 6.64 12.218C6.21202 11.3125 6 10.5606 6 10H4C4 10.9949 4.35458 12.063 4.83182 13.0726C5.31711 14.0994 5.97284 15.1552 6.66833 16.1493C8.05988 18.1383 9.66976 19.9633 10.5676 20.9385L12.039 19.5838ZM6 10C6 6.68629 8.68629 4 12 4V2C7.58172 2 4 5.58172 4 10H6ZM12 4C15.3137 4 18 6.68629 18 10H20C20 5.58172 16.4183 2 12 2V4ZM11.961 19.5838C11.9609 19.584 11.9621 19.5827 11.9648 19.5808C11.9674 19.5789 11.9708 19.577 11.9748 19.5752C11.9828 19.5717 11.9915 19.57 12 19.57C12.0085 19.57 12.0172 19.5717 12.0252 19.5752C12.0292 19.577 12.0326 19.5789 12.0352 19.5808C12.0379 19.5827 12.0391 19.584 12.039 19.5838L10.5676 20.9385C11.3428 21.7805 12.6572 21.7805 13.4324 20.9385L11.961 19.5838Z" fill="#555770"/>
<path d="M12 6V14M16 10H8" stroke="#3E7BFA" stroke-width="2"/>
</svg>
