<svg width="24" height="24" viewBox="0 0 24 24" fill="none" xmlns="http://www.w3.org/2000/svg">
<path d="M12 5.64598C13.765 4.59914 15.8143 4 18 4C19.4025 4 20.7489 4.2467 22 4.70009V19.0541C20.7489 18.6007 19.4025 18.354 18 18.354C15.8143 18.354 13.765 18.9532 12 20M12 5.64598V20M12 5.64598C10.235 4.59914 8.18572 4 6 4C4.59746 4 3.25112 4.2467 2 4.70009V19.0541C3.25112 18.6007 4.59746 18.354 6 18.354C8.18572 18.354 10.235 18.9532 12 20" stroke="#555770" stroke-width="2"/>
<mask id="mask0_402_19360" style="mask-type:alpha" maskUnits="userSpaceOnUse" x="12" y="1" width="12" height="22">
<rect x="12" y="1" width="12" height="22" fill="black"/>
</mask>
<g mask="url(#mask0_402_19360)">
<path d="M12 5.64598C13.765 4.59914 15.8143 4 18 4C19.4025 4 20.7489 4.2467 22 4.70009V19.0541C20.7489 18.6007 19.4025 18.354 18 18.354C15.8143 18.354 13.765 18.9532 12 20M12 5.64598V20M12 5.64598C10.235 4.59914 8.18572 4 6 4C4.59746 4 3.25112 4.2467 2 4.70009V19.0541C3.25112 18.6007 4.59746 18.354 6 18.354C8.18572 18.354 10.235 18.9532 12 20" stroke="#3E7BFA" stroke-width="2"/>
</g>
</svg>
