<svg width="24" height="24" viewBox="0 0 24 24" fill="none" xmlns="http://www.w3.org/2000/svg">
<path d="M18.2869 3.58322C16.2276 2.2564 13.7009 2 12.1722 2C10.6434 2 8.11659 2.2564 6.05733 3.58322M16.2487 22C11.6626 22 9.62435 17.8974 9.62435 15.3333C9.62435 12.7692 11.153 12.2564 12.1722 12.2564C13.7009 12.2564 14.72 13.4044 14.72 14.8205C14.72 16.359 16.1421 17.3846 17.2678 17.3846C18.7291 17.3846 19.8156 16.359 19.8156 14.8205C19.8156 12.7692 17.7774 7.1282 12.1722 7.1282C8.60521 7.1282 2.18469 10.8205 5.03826 19.4359" stroke="#3E7BFA" stroke-width="1.5" stroke-linecap="round"/>
<path d="M21 10.2051C19.3061 6.61537 15.9444 4.56409 12.1722 4.56409C8.39995 4.56409 4.52869 7.12819 3 10.2051M12.1722 14.8205C12.1722 16.8718 13.1913 19.9487 18.7965 19.9487M17.2678 14.8205C17.2678 13.1111 16.2487 9.69229 12.1722 9.69229C7.07652 9.69229 7.07652 14.8205 7.07652 15.8461C7.07652 16.8718 7.58609 20.4615 10.1339 22" stroke="#555770" stroke-width="1.5" stroke-linecap="round"/>
</svg>
