<svg width="24" height="24" viewBox="0 0 24 24" fill="none" xmlns="http://www.w3.org/2000/svg">
<path d="M20 7.87228C20.6393 9.10862 21 10.5119 21 12C21 13.4881 20.6393 14.8914 20 16.1277V7.87228ZM12 3V21C7.02944 21 3 16.9706 3 12C3 7.02944 7.02944 3 12 3Z" stroke="#3E7BFA" stroke-width="2"/>
<path d="M12 21C7.02944 21 3 16.9706 3 12C3 7.02944 7.02944 3 12 3C12.3045 3 12.6051 3.01508 12.9012 3.04448C13.5221 3.10612 14.1239 3.23078 14.7004 3.41185C15.3327 3.61047 15.9352 3.87714 16.4993 4.20343C17.1563 4.58347 17.7611 5.04438 18.3 5.57267C19.9674 7.20726 21 9.48214 21 12C21 14.5179 19.9674 16.7927 18.3 18.4273C17.7611 18.9556 17.1563 19.4165 16.4993 19.7966C15.9352 20.1229 15.3327 20.3895 14.7004 20.5881C14.1239 20.7692 13.5221 20.8939 12.9012 20.9555C12.6051 20.9849 12.3045 21 12 21Z" stroke="#555770" stroke-width="2"/>
</svg>
