<svg width="24" height="24" viewBox="0 0 24 24" fill="none" xmlns="http://www.w3.org/2000/svg">
<path d="M8.76205 21.7089H15.238C16.1732 21.7089 16.5967 20.5394 15.8781 19.9406L12.6402 17.2423C12.2693 16.9333 11.7307 16.9333 11.3598 17.2423L8.12187 19.9406C7.40335 20.5394 7.82675 21.7089 8.76205 21.7089Z" fill="#3E7BFA"/>
<path d="M7 3H17V5.92893C17 6.9898 16.5786 8.00721 15.8284 8.75736L14 10.5858C13.2189 11.3668 13.219 12.6332 14 13.4142L15.8284 15.2426C16.5786 15.9928 17 17.0102 17 18.0711V21H7L7 18.0711C7 17.0102 7.42143 15.9928 8.17157 15.2426L10 13.4142C10.7811 12.6332 10.781 11.3668 10 10.5858L8.17157 8.75736C7.42143 8.00721 7 6.9898 7 5.92893V3Z" stroke="#555770" stroke-width="2"/>
</svg>
