<svg width="24" height="24" viewBox="0 0 24 24" fill="none" xmlns="http://www.w3.org/2000/svg">
<path d="M9 4L3.06838 5.97721C3.02754 5.99082 3 6.02903 3 6.07208V20.8613C3 20.9295 3.06687 20.9777 3.13162 20.9561L9 19V4ZM9 4L15 6M15 6L20.8684 4.04387C20.9331 4.02229 21 4.07049 21 4.13874V11M15 6V9" stroke="#3E7BFA" stroke-width="2"/>
<path d="M18.8853 18.8853L23 23M20.0667 16.0333C20.0667 18.2609 18.2609 20.0667 16.0333 20.0667C13.8058 20.0667 12 18.2609 12 16.0333C12 13.8058 13.8058 12 16.0333 12C18.2609 12 20.0667 13.8058 20.0667 16.0333Z" stroke="#555770" stroke-width="2"/>
</svg>
