<svg width="24" height="24" viewBox="0 0 24 24" fill="none" xmlns="http://www.w3.org/2000/svg">
<mask id="mask0_402_19209" style="mask-type:alpha" maskUnits="userSpaceOnUse" x="3" y="3" width="18" height="18">
<path d="M7 17V7H17V17H7Z" fill="white"/>
<path d="M5 5V3H3V5H5Z" fill="white"/>
<path d="M9 5V3H7V5H9Z" fill="white"/>
<path d="M13 5V3H11V5H13Z" fill="white"/>
<path d="M17 5V3H15V5H17Z" fill="white"/>
<path d="M21 5V3H19V5H21Z" fill="white"/>
<path d="M5 21V19H3V21H5Z" fill="white"/>
<path d="M9 21V19H7V21H9Z" fill="white"/>
<path d="M13 21V19H11V21H13Z" fill="white"/>
<path d="M17 21V19H15V21H17Z" fill="white"/>
<path d="M21 21V19H19V21H21Z" fill="white"/>
<path d="M5 9V7H3V9H5Z" fill="white"/>
<path d="M5 13V11H3V13H5Z" fill="white"/>
<path d="M5 17V15H3V17H5Z" fill="white"/>
<path d="M21 9V7H19V9H21Z" fill="white"/>
<path d="M21 13V11H19V13H21Z" fill="white"/>
<path d="M21 17V15H19V17H21Z" fill="white"/>
</mask>
<g mask="url(#mask0_402_19209)">
<path d="M4 19V5C4 4.44772 4.44772 4 5 4H19C19.5523 4 20 4.44772 20 5V19C20 19.5523 19.5523 20 19 20H5C4.44772 20 4 19.5523 4 19Z" stroke="#3E7BFA" stroke-width="2"/>
<path d="M8 16V8H16V16H8Z" stroke="#555770" stroke-width="2"/>
</g>
</svg>
