<svg width="24" height="24" viewBox="0 0 24 24" fill="none" xmlns="http://www.w3.org/2000/svg">
<path d="M20.5239 11.4766L21.4784 11.1783V11.1783L20.5239 11.4766ZM19.1481 7.07391L18.1936 7.37218V7.37218L19.1481 7.07391ZM8.5 15.3438L9.21907 14.6488L8.94951 14.3699L8.56238 14.3457L8.5 15.3438ZM12.4104 19.3899L11.6913 20.0848L11.6913 20.0848L12.4104 19.3899ZM14 15.5L14.0995 14.505C13.745 14.4695 13.3985 14.6253 13.1897 14.914C12.9809 15.2027 12.9415 15.5806 13.0862 15.9061L14 15.5ZM17.0005 15.8001L16.901 16.7951L17.0005 15.8001ZM15.375 18.5939L16.2889 18.1877L15.375 18.5939ZM8 15.3125H7V16.252L7.93762 16.3106L8 15.3125ZM8 5V4H7V5H8ZM20.1147 14.328L20.9467 14.8827L20.1147 14.328ZM21.4784 11.1783L20.1026 6.77563L18.1936 7.37218L19.5694 11.7748L21.4784 11.1783ZM7.78093 16.0387L11.6913 20.0848L13.1294 18.6949L9.21907 14.6488L7.78093 16.0387ZM13.8485 21H14.4612V19H13.8485V21ZM13.9005 16.495L16.901 16.7951L17.1 14.805L14.0995 14.505L13.9005 16.495ZM16.2889 18.1877L14.9138 15.0939L13.0862 15.9061L14.4612 19L16.2889 18.1877ZM7.93762 16.3106L8.43762 16.3418L8.56238 14.3457L8.06238 14.3144L7.93762 16.3106ZM16.3272 4H8V6H16.3272V4ZM9 15.3125V5H7V15.3125H9ZM14.4612 21C15.9086 21 16.8767 19.5103 16.2889 18.1877L14.4612 19V21ZM11.6913 20.0848C12.2565 20.6697 13.0351 21 13.8485 21V19C13.5774 19 13.3178 18.8899 13.1294 18.6949L11.6913 20.0848ZM20.1026 6.77563C19.5865 5.12433 18.0572 4 16.3272 4V6C17.1825 6 17.9385 6.55583 18.1936 7.37218L20.1026 6.77563ZM20.9467 14.8827C21.6742 13.7915 21.8696 12.43 21.4784 11.1783L19.5694 11.7748C19.7805 12.4501 19.6751 13.1846 19.2826 13.7733L20.9467 14.8827ZM19.2826 13.7733C18.8019 14.4944 17.9624 14.8912 17.1 14.805L16.901 16.7951C18.4995 16.9549 20.0556 16.2194 20.9467 14.8827L19.2826 13.7733Z" fill="#555770"/>
<path d="M3.93762 15.0586L3.87524 16.0567H3.87524L3.93762 15.0586ZM8 15.3125L7.93762 16.3106L9 16.377V15.3125H8ZM8 5H9V4H8V5ZM2 6V14.0605H4V6H2ZM3.87524 16.0567L7.93762 16.3106L8.06238 14.3144L4 14.0605L3.87524 16.0567ZM8 4H4V6H8V4ZM9 15.3125V5H7V15.3125H9ZM2 14.0605C2 15.1167 2.82117 15.9908 3.87524 16.0567L4 14.0605H4H2ZM4 6H4V4C2.89543 4 2 4.89543 2 6H4Z" fill="#3E7BFA"/>
</svg>
