<svg width="24" height="24" viewBox="0 0 24 24" fill="none" xmlns="http://www.w3.org/2000/svg">
<path d="M6 17.05L6.11936 17.638L6 17.05ZM7 17.05L6.88064 17.638L7 17.05ZM8.4 19.5C8.4 20.5493 7.54934 21.4 6.5 21.4V22.6C8.21208 22.6 9.6 21.2121 9.6 19.5H8.4ZM6.5 21.4C5.45066 21.4 4.6 20.5493 4.6 19.5H3.4C3.4 21.2121 4.78792 22.6 6.5 22.6V21.4ZM4.6 19.5C4.6 18.5815 5.25236 17.814 6.11936 17.638L5.88064 16.462C4.4654 16.7493 3.4 17.9995 3.4 19.5H4.6ZM6.11936 17.638C6.24185 17.6132 6.36908 17.6 6.5 17.6V16.4C6.28846 16.4 6.08126 16.4213 5.88064 16.462L6.11936 17.638ZM6.6 17.05V3.5H5.4V17.05H6.6ZM6.5 17.6C6.63092 17.6 6.75815 17.6132 6.88064 17.638L7.11936 16.462C6.91874 16.4213 6.71154 16.4 6.5 16.4V17.6ZM6.88064 17.638C7.74764 17.814 8.4 18.5815 8.4 19.5H9.6C9.6 17.9995 8.5346 16.7493 7.11936 16.462L6.88064 17.638ZM6.4 3.5V17.05H7.6V3.5H6.4ZM6.5 3.6C6.44477 3.6 6.4 3.55523 6.4 3.5H7.6C7.6 2.89249 7.10751 2.4 6.5 2.4V3.6ZM6.6 3.5C6.6 3.55523 6.55523 3.6 6.5 3.6V2.4C5.89249 2.4 5.4 2.89249 5.4 3.5H6.6ZM18 2.4H17V3.6H18V2.4ZM17 10.6H18V9.4H17V10.6ZM18 10.6C19.4359 10.6 20.6 9.43594 20.6 8H19.4C19.4 8.7732 18.7732 9.4 18 9.4V10.6ZM14.4 8C14.4 9.43594 15.5641 10.6 17 10.6V9.4C16.2268 9.4 15.6 8.7732 15.6 8H14.4ZM17 2.4C15.5641 2.4 14.4 3.56406 14.4 5H15.6C15.6 4.2268 16.2268 3.6 17 3.6V2.4ZM20.6 5C20.6 3.56406 19.4359 2.4 18 2.4V3.6C18.7732 3.6 19.4 4.2268 19.4 5H20.6ZM14.4 5V6.5H15.6V5H14.4ZM14.4 6.5V8H15.6V6.5H14.4Z" fill="#28293D"/>
<circle cx="10.5" cy="3.5" r="0.9" stroke="#28293D" stroke-width="1.2"/>
</svg>
