<svg width="24" height="24" viewBox="0 0 24 24" fill="none" xmlns="http://www.w3.org/2000/svg">
<path d="M10.1053 2V1.4C9.85672 1.4 9.63391 1.55324 9.54498 1.78532L10.1053 2ZM6 12.7143L5.43972 12.4996C5.36904 12.6841 5.39369 12.8915 5.50563 13.0543C5.61757 13.217 5.80246 13.3143 6 13.3143V12.7143ZM10.1316 12.7143L10.6946 12.9217C10.7624 12.7376 10.7359 12.532 10.6237 12.3711C10.5115 12.2102 10.3278 12.1143 10.1316 12.1143V12.7143ZM6.71053 22L6.14752 21.7926C6.04758 22.0638 6.15528 22.3678 6.4037 22.5156C6.65213 22.6634 6.97065 22.6131 7.16139 22.3959L6.71053 22ZM18 9.14286L18.4509 9.53874C18.6063 9.3617 18.6438 9.11005 18.5466 8.8954C18.4494 8.68076 18.2356 8.54286 18 8.54286V9.14286ZM12.1842 9.14286L11.664 8.84388C11.5573 9.02955 11.5576 9.25801 11.6649 9.44337C11.7721 9.62872 11.9701 9.74286 12.1842 9.74286V9.14286ZM16.2895 2L16.8097 2.29898C16.9164 2.11331 16.9161 1.88484 16.8088 1.69949C16.7015 1.51414 16.5036 1.4 16.2895 1.4V2ZM9.54498 1.78532L5.43972 12.4996L6.56028 12.929L10.6655 2.21468L9.54498 1.78532ZM6 13.3143H10.1316V12.1143H6V13.3143ZM9.56857 12.5069L6.14752 21.7926L7.27353 22.2074L10.6946 12.9217L9.56857 12.5069ZM7.16139 22.3959L18.4509 9.53874L17.5491 8.74697L6.25967 21.6041L7.16139 22.3959ZM18 8.54286H12.1842V9.74286H18V8.54286ZM12.7044 9.44184L16.8097 2.29898L15.7693 1.70102L11.664 8.84388L12.7044 9.44184ZM16.2895 1.4H10.1053V2.6H16.2895V1.4Z" fill="#28293D"/>
</svg>
