<svg width="24" height="24" viewBox="0 0 24 24" fill="none" xmlns="http://www.w3.org/2000/svg">
<path d="M2 6.6C3.15848 6.6 4.02546 6.15809 4.76833 5.78666C5.52546 5.40809 6.15848 5.1 7 5.1V3.9C5.84152 3.9 4.97454 4.34191 4.23167 4.71334C3.47454 5.09191 2.84152 5.4 2 5.4V6.6ZM12 5.4C11.1585 5.4 10.5255 5.09191 9.76833 4.71334C9.02546 4.34191 8.15848 3.9 7 3.9V5.1C7.84152 5.1 8.47454 5.40809 9.23167 5.78666C9.97454 6.15809 10.8415 6.6 12 6.6V5.4ZM12 6.6C13.1585 6.6 14.0255 6.15809 14.7683 5.78666C15.5255 5.40809 16.1585 5.1 17 5.1V3.9C15.8415 3.9 14.9745 4.34191 14.2317 4.71334C13.4745 5.09191 12.8415 5.4 12 5.4V6.6ZM22 5.4C21.1585 5.4 20.5255 5.09191 19.7683 4.71334C19.0255 4.34191 18.1585 3.9 17 3.9V5.1C17.8415 5.1 18.4745 5.40809 19.2317 5.78666C19.9745 6.15809 20.8415 6.6 22 6.6V5.4ZM2 11.1C3.15848 11.1 4.02546 10.6581 4.76833 10.2867C5.52546 9.90809 6.15848 9.6 7 9.6V8.4C5.84152 8.4 4.97454 8.84191 4.23167 9.21334C3.47454 9.59191 2.84152 9.9 2 9.9V11.1ZM12 9.9C11.1585 9.9 10.5255 9.59191 9.76833 9.21334C9.02546 8.84191 8.15848 8.4 7 8.4V9.6C7.84152 9.6 8.47454 9.90809 9.23167 10.2867C9.97454 10.6581 10.8415 11.1 12 11.1V9.9ZM12 11.1C13.1585 11.1 14.0255 10.6581 14.7683 10.2867C15.5255 9.90809 16.1585 9.6 17 9.6V8.4C15.8415 8.4 14.9745 8.84191 14.2317 9.21334C13.4745 9.59191 12.8415 9.9 12 9.9V11.1ZM22 9.9C21.1585 9.9 20.5255 9.59191 19.7683 9.21334C19.0255 8.84191 18.1585 8.4 17 8.4V9.6C17.8415 9.6 18.4745 9.90809 19.2317 10.2867C19.9745 10.6581 20.8415 11.1 22 11.1V9.9ZM2 15.6C3.15848 15.6 4.02546 15.1581 4.76833 14.7867C5.52546 14.4081 6.15848 14.1 7 14.1V12.9C5.84152 12.9 4.97454 13.3419 4.23167 13.7133C3.47454 14.0919 2.84152 14.4 2 14.4V15.6ZM12 14.4C11.1585 14.4 10.5255 14.0919 9.76833 13.7133C9.02546 13.3419 8.15848 12.9 7 12.9V14.1C7.84152 14.1 8.47454 14.4081 9.23167 14.7867C9.97454 15.1581 10.8415 15.6 12 15.6V14.4ZM12 15.6C13.1585 15.6 14.0255 15.1581 14.7683 14.7867C15.5255 14.4081 16.1585 14.1 17 14.1V12.9C15.8415 12.9 14.9745 13.3419 14.2317 13.7133C13.4745 14.0919 12.8415 14.4 12 14.4V15.6ZM22 14.4C21.1585 14.4 20.5255 14.0919 19.7683 13.7133C19.0255 13.3419 18.1585 12.9 17 12.9V14.1C17.8415 14.1 18.4745 14.4081 19.2317 14.7867C19.9745 15.1581 20.8415 15.6 22 15.6V14.4ZM2 20.1C3.15848 20.1 4.02546 19.6581 4.76833 19.2867C5.52546 18.9081 6.15848 18.6 7 18.6V17.4C5.84152 17.4 4.97454 17.8419 4.23167 18.2133C3.47454 18.5919 2.84152 18.9 2 18.9V20.1ZM12 18.9C11.1585 18.9 10.5255 18.5919 9.76833 18.2133C9.02546 17.8419 8.15848 17.4 7 17.4V18.6C7.84152 18.6 8.47454 18.9081 9.23167 19.2867C9.97454 19.6581 10.8415 20.1 12 20.1V18.9ZM12 20.1C13.1585 20.1 14.0255 19.6581 14.7683 19.2867C15.5255 18.9081 16.1585 18.6 17 18.6V17.4C15.8415 17.4 14.9745 17.8419 14.2317 18.2133C13.4745 18.5919 12.8415 18.9 12 18.9V20.1ZM22 18.9C21.1585 18.9 20.5255 18.5919 19.7683 18.2133C19.0255 17.8419 18.1585 17.4 17 17.4V18.6C17.8415 18.6 18.4745 18.9081 19.2317 19.2867C19.9745 19.6581 20.8415 20.1 22 20.1V18.9Z" fill="#28293D"/>
</svg>
