<svg width="24" height="24" viewBox="0 0 24 24" fill="none" xmlns="http://www.w3.org/2000/svg">
<circle cx="12" cy="12" r="9" stroke="#28293D" stroke-width="2"/>
<path d="M15 16H9" stroke="#28293D" stroke-width="2"/>
<mask id="path-3-inside-1_402_14532" fill="white">
<path d="M11 11C11 10.9562 6.5 11 6.5 11V9L11 9C11 9 11 9 11 11Z"/>
<path d="M17.5 9V11L13 11V9L17.5 9Z"/>
</mask>
<path d="M6.5 11H4.5V13.0196L6.51947 12.9999L6.5 11ZM6.5 9L6.5 7L4.5 7V9H6.5ZM11 9H13V7L11 7L11 9ZM17.5 9H19.5V7L17.5 7L17.5 9ZM17.5 11V13H19.5V11H17.5ZM13 11H11V13H13V11ZM13 9L13 7L11 7V9H13ZM13 11C13 9.86253 12.1267 9.3439 12.0388 9.29038C11.8191 9.15675 11.6251 9.09826 11.566 9.08073C11.4179 9.03676 11.2962 9.01994 11.2667 9.01578C11.1792 9.00344 11.1041 8.99856 11.0758 8.99677C11.0026 8.99214 10.9227 8.98965 10.8553 8.98802C10.7121 8.98453 10.5205 8.98258 10.3066 8.98154C9.87467 8.97944 9.30423 8.98085 8.74029 8.9836C8.17484 8.98635 7.61 8.99048 7.18691 8.99391C6.97526 8.99562 6.79885 8.99717 6.67528 8.99829C6.61349 8.99885 6.56491 8.9993 6.53172 8.99961C6.51512 8.99977 6.50238 8.99989 6.49375 8.99997C6.48944 9.00001 6.48616 9.00004 6.48395 9.00006C6.48284 9.00007 6.482 9.00008 6.48143 9.00009C6.48114 9.00009 6.48092 9.00009 6.48077 9.00009C6.4807 9.0001 6.48064 9.0001 6.4806 9.0001C6.48056 9.0001 6.48053 9.0001 6.5 11C6.51947 12.9999 6.51948 12.9999 6.5195 12.9999C6.51953 12.9999 6.51957 12.9999 6.51964 12.9999C6.51976 12.9999 6.51995 12.9999 6.52021 12.9999C6.52073 12.9999 6.52152 12.9999 6.52258 12.9999C6.52469 12.9999 6.52786 12.9998 6.53206 12.9998C6.54047 12.9997 6.55299 12.9996 6.56936 12.9994C6.60209 12.9991 6.65018 12.9987 6.71144 12.9981C6.83397 12.997 7.00913 12.9955 7.21936 12.9938C7.64002 12.9904 8.20019 12.9863 8.75976 12.9836C9.32082 12.9808 9.87539 12.9795 10.2872 12.9815C10.4952 12.9825 10.6552 12.9843 10.758 12.9868C10.8137 12.9882 10.8304 12.9892 10.8232 12.9888C10.8195 12.9886 10.8089 12.9879 10.7935 12.9865C10.7806 12.9853 10.7492 12.9824 10.7076 12.9765C10.6866 12.9736 10.5713 12.958 10.4275 12.9153C10.3707 12.8984 10.1782 12.8406 9.95968 12.7076C9.84869 12.6401 9.64246 12.5006 9.44728 12.2603C9.23852 12.0032 9.00004 11.5723 9.00004 11H13ZM8.5 11V9H4.5V11H8.5ZM6.5 11L11 11L11 7L6.5 7L6.5 11ZM11 9C9.00004 9 9.00004 9 9.00004 9C9.00004 9 9.00004 9 9.00004 9C9.00004 9 9.00004 9 9.00004 9C9.00004 9 9.00004 9 9.00004 9C9.00004 9 9.00004 9 9.00004 9C9.00004 9 9.00004 9 9.00004 9C9.00004 9 9.00004 9 9.00004 9.00001C9.00004 9.00001 9.00004 9.00001 9.00004 9.00001C9.00004 9.00001 9.00004 9.00001 9.00004 9.00001C9.00004 9.00001 9.00004 9.00001 9.00004 9.00001C9.00004 9.00002 9.00004 9.00002 9.00004 9.00002C9.00004 9.00002 9.00004 9.00002 9.00004 9.00003C9.00004 9.00003 9.00004 9.00003 9.00004 9.00003C9.00004 9.00004 9.00004 9.00004 9.00004 9.00004C9.00004 9.00004 9.00004 9.00005 9.00004 9.00005C9.00004 9.00005 9.00004 9.00006 9.00004 9.00006C9.00004 9.00006 9.00004 9.00007 9.00004 9.00007C9.00004 9.00008 9.00004 9.00008 9.00004 9.00009C9.00004 9.00009 9.00004 9.0001 9.00004 9.0001C9.00004 9.00011 9.00004 9.00011 9.00004 9.00012C9.00004 9.00013 9.00004 9.00013 9.00004 9.00014C9.00004 9.00014 9.00004 9.00015 9.00004 9.00016C9.00004 9.00017 9.00004 9.00017 9.00004 9.00018C9.00004 9.00019 9.00004 9.0002 9.00004 9.00021C9.00004 9.00021 9.00004 9.00022 9.00004 9.00023C9.00004 9.00024 9.00004 9.00025 9.00004 9.00026C9.00004 9.00027 9.00004 9.00028 9.00004 9.00029C9.00004 9.0003 9.00004 9.00032 9.00004 9.00033C9.00004 9.00034 9.00004 9.00035 9.00004 9.00036C9.00004 9.00038 9.00004 9.00039 9.00004 9.0004C9.00004 9.00042 9.00004 9.00043 9.00004 9.00044C9.00004 9.00046 9.00004 9.00047 9.00004 9.00049C9.00004 9.0005 9.00004 9.00052 9.00004 9.00054C9.00004 9.00055 9.00004 9.00057 9.00004 9.00059C9.00004 9.0006 9.00004 9.00062 9.00004 9.00064C9.00004 9.00066 9.00004 9.00068 9.00004 9.0007C9.00004 9.00071 9.00004 9.00073 9.00004 9.00075C9.00004 9.00078 9.00004 9.0008 9.00004 9.00082C9.00004 9.00084 9.00004 9.00086 9.00004 9.00088C9.00004 9.00091 9.00004 9.00093 9.00004 9.00095C9.00004 9.00098 9.00004 9.001 9.00004 9.00103C9.00004 9.00105 9.00004 9.00108 9.00004 9.0011C9.00004 9.00113 9.00004 9.00116 9.00004 9.00118C9.00004 9.00121 9.00004 9.00124 9.00004 9.00127C9.00004 9.0013 9.00004 9.00133 9.00004 9.00136C9.00004 9.00139 9.00004 9.00142 9.00004 9.00145C9.00004 9.00148 9.00004 9.00151 9.00004 9.00155C9.00004 9.00158 9.00004 9.00161 9.00004 9.00165C9.00004 9.00168 9.00004 9.00172 9.00004 9.00175C9.00004 9.00179 9.00004 9.00183 9.00004 9.00186C9.00004 9.0019 9.00004 9.00194 9.00004 9.00198C9.00004 9.00202 9.00004 9.00205 9.00004 9.0021C9.00004 9.00214 9.00004 9.00218 9.00004 9.00222C9.00004 9.00226 9.00004 9.0023 9.00004 9.00235C9.00004 9.00239 9.00004 9.00243 9.00004 9.00248C9.00004 9.00252 9.00004 9.00257 9.00004 9.00262C9.00004 9.00266 9.00004 9.00271 9.00004 9.00276C9.00004 9.00281 9.00004 9.00286 9.00004 9.00291C9.00004 9.00296 9.00004 9.00301 9.00004 9.00306C9.00004 9.00311 9.00004 9.00317 9.00004 9.00322C9.00004 9.00327 9.00004 9.00333 9.00004 9.00338C9.00004 9.00344 9.00004 9.00349 9.00004 9.00355C9.00004 9.00361 9.00004 9.00367 9.00004 9.00373C9.00004 9.00379 9.00004 9.00385 9.00004 9.00391C9.00004 9.00397 9.00004 9.00403 9.00004 9.00409C9.00004 9.00416 9.00004 9.00422 9.00004 9.00428C9.00004 9.00435 9.00004 9.00441 9.00004 9.00448C9.00004 9.00455 9.00004 9.00462 9.00004 9.00469C9.00004 9.00475 9.00004 9.00482 9.00004 9.0049C9.00004 9.00497 9.00004 9.00504 9.00004 9.00511C9.00004 9.00518 9.00004 9.00526 9.00004 9.00533C9.00004 9.00541 9.00004 9.00548 9.00004 9.00556C9.00004 9.00564 9.00004 9.00572 9.00004 9.0058C9.00004 9.00588 9.00004 9.00596 9.00004 9.00604C9.00004 9.00612 9.00004 9.0062 9.00004 9.00629C9.00004 9.00637 9.00004 9.00646 9.00004 9.00654C9.00004 9.00663 9.00004 9.00671 9.00004 9.0068C9.00004 9.00689 9.00004 9.00698 9.00004 9.00707C9.00004 9.00716 9.00004 9.00725 9.00004 9.00735C9.00004 9.00744 9.00004 9.00753 9.00004 9.00763C9.00004 9.00772 9.00004 9.00782 9.00004 9.00792C9.00004 9.00802 9.00004 9.00812 9.00004 9.00822C9.00004 9.00832 9.00004 9.00842 9.00004 9.00852C9.00004 9.00862 9.00004 9.00873 9.00004 9.00883C9.00004 9.00894 9.00004 9.00904 9.00004 9.00915C9.00004 9.00926 9.00004 9.00937 9.00004 9.00948C9.00004 9.00959 9.00004 9.0097 9.00004 9.00981C9.00004 9.00993 9.00004 9.01004 9.00004 9.01015C9.00004 9.01027 9.00004 9.01039 9.00004 9.0105C9.00004 9.01062 9.00004 9.01074 9.00004 9.01086C9.00004 9.01098 9.00004 9.01111 9.00004 9.01123C9.00004 9.01135 9.00004 9.01148 9.00004 9.0116C9.00004 9.01173 9.00004 9.01186 9.00004 9.01199C9.00004 9.01211 9.00004 9.01225 9.00004 9.01238C9.00004 9.01251 9.00004 9.01264 9.00004 9.01278C9.00004 9.01291 9.00004 9.01305 9.00004 9.01318C9.00004 9.01332 9.00004 9.01346 9.00004 9.0136C9.00004 9.01374 9.00004 9.01388 9.00004 9.01402C9.00004 9.01417 9.00004 9.01431 9.00004 9.01446C9.00004 9.0146 9.00004 9.01475 9.00004 9.0149C9.00004 9.01505 9.00004 9.0152 9.00004 9.01535C9.00004 9.0155 9.00004 9.01566 9.00004 9.01581C9.00004 9.01597 9.00004 9.01612 9.00004 9.01628C9.00004 9.01644 9.00004 9.0166 9.00004 9.01676C9.00004 9.01692 9.00004 9.01709 9.00004 9.01725C9.00004 9.01741 9.00004 9.01758 9.00004 9.01775C9.00004 9.01791 9.00004 9.01808 9.00004 9.01825C9.00004 9.01843 9.00004 9.0186 9.00004 9.01877C9.00004 9.01895 9.00004 9.01912 9.00004 9.0193C9.00004 9.01947 9.00004 9.01965 9.00004 9.01983C9.00004 9.02001 9.00004 9.0202 9.00004 9.02038C9.00004 9.02056 9.00004 9.02075 9.00004 9.02094C9.00004 9.02112 9.00004 9.02131 9.00004 9.0215C9.00004 9.02169 9.00004 9.02188 9.00004 9.02208C9.00004 9.02227 9.00004 9.02247 9.00004 9.02266C9.00004 9.02286 9.00004 9.02306 9.00004 9.02326C9.00004 9.02346 9.00004 9.02366 9.00004 9.02387C9.00004 9.02407 9.00004 9.02428 9.00004 9.02448C9.00004 9.02469 9.00004 9.0249 9.00004 9.02511C9.00004 9.02532 9.00004 9.02553 9.00004 9.02575C9.00004 9.02596 9.00004 9.02618 9.00004 9.0264C9.00004 9.02662 9.00004 9.02684 9.00004 9.02706C9.00004 9.02728 9.00004 9.0275 9.00004 9.02773C9.00004 9.02795 9.00004 9.02818 9.00004 9.02841C9.00004 9.02864 9.00004 9.02887 9.00004 9.0291C9.00004 9.02934 9.00004 9.02957 9.00004 9.02981C9.00004 9.03004 9.00004 9.03028 9.00004 9.03052C9.00004 9.03076 9.00004 9.03101 9.00004 9.03125C9.00004 9.03149 9.00004 9.03174 9.00004 9.03199C9.00004 9.03224 9.00004 9.03249 9.00004 9.03274C9.00004 9.03299 9.00004 9.03324 9.00004 9.0335C9.00004 9.03375 9.00004 9.03401 9.00004 9.03427C9.00004 9.03453 9.00004 9.03479 9.00004 9.03506C9.00004 9.03532 9.00004 9.03559 9.00004 9.03585C9.00004 9.03612 9.00004 9.03639 9.00004 9.03666C9.00004 9.03693 9.00004 9.03721 9.00004 9.03748C9.00004 9.03776 9.00004 9.03804 9.00004 9.03832C9.00004 9.0386 9.00004 9.03888 9.00004 9.03916C9.00004 9.03945 9.00004 9.03973 9.00004 9.04002C9.00004 9.04031 9.00004 9.0406 9.00004 9.04089C9.00004 9.04118 9.00004 9.04148 9.00004 9.04177C9.00004 9.04207 9.00004 9.04237 9.00004 9.04267C9.00004 9.04297 9.00004 9.04327 9.00004 9.04357C9.00004 9.04388 9.00004 9.04419 9.00004 9.04449C9.00004 9.0448 9.00004 9.04511 9.00004 9.04543C9.00004 9.04574 9.00004 9.04606 9.00004 9.04637C9.00004 9.04669 9.00004 9.04701 9.00004 9.04733C9.00004 9.04766 9.00004 9.04798 9.00004 9.04831C9.00004 9.04863 9.00004 9.04896 9.00004 9.04929C9.00004 9.04962 9.00004 9.04996 9.00004 9.05029C9.00004 9.05063 9.00004 9.05096 9.00004 9.0513C9.00004 9.05164 9.00004 9.05199 9.00004 9.05233C9.00004 9.05267 9.00004 9.05302 9.00004 9.05337C9.00004 9.05372 9.00004 9.05407 9.00004 9.05442C9.00004 9.05478 9.00004 9.05513 9.00004 9.05549C9.00004 9.05585 9.00004 9.05621 9.00004 9.05657C9.00004 9.05693 9.00004 9.0573 9.00004 9.05767C9.00004 9.05803 9.00004 9.0584 9.00004 9.05877C9.00004 9.05915 9.00004 9.05952 9.00004 9.0599C9.00004 9.06027 9.00004 9.06065 9.00004 9.06104C9.00004 9.06142 9.00004 9.0618 9.00004 9.06219C9.00004 9.06257 9.00004 9.06296 9.00004 9.06335C9.00004 9.06374 9.00004 9.06414 9.00004 9.06453C9.00004 9.06493 9.00004 9.06533 9.00004 9.06573C9.00004 9.06613 9.00004 9.06653 9.00004 9.06694C9.00004 9.06734 9.00004 9.06775 9.00004 9.06816C9.00004 9.06857 9.00004 9.06899 9.00004 9.0694C9.00004 9.06982 9.00004 9.07024 9.00004 9.07066C9.00004 9.07108 9.00004 9.0715 9.00004 9.07193C9.00004 9.07235 9.00004 9.07278 9.00004 9.07321C9.00004 9.07364 9.00004 9.07407 9.00004 9.07451C9.00004 9.07494 9.00004 9.07538 9.00004 9.07582C9.00004 9.07626 9.00004 9.07671 9.00004 9.07715C9.00004 9.0776 9.00004 9.07805 9.00004 9.0785C9.00004 9.07895 9.00004 9.0794 9.00004 9.07986C9.00004 9.08032 9.00004 9.08078 9.00004 9.08124C9.00004 9.0817 9.00004 9.08216 9.00004 9.08263C9.00004 9.0831 9.00004 9.08357 9.00004 9.08404C9.00004 9.08451 9.00004 9.08499 9.00004 9.08546C9.00004 9.08594 9.00004 9.08642 9.00004 9.0869C9.00004 9.08739 9.00004 9.08787 9.00004 9.08836C9.00004 9.08885 9.00004 9.08934 9.00004 9.08983C9.00004 9.09033 9.00004 9.09082 9.00004 9.09132C9.00004 9.09182 9.00004 9.09232 9.00004 9.09283C9.00004 9.09333 9.00004 9.09384 9.00004 9.09435C9.00004 9.09486 9.00004 9.09537 9.00004 9.09589C9.00004 9.0964 9.00004 9.09692 9.00004 9.09744C9.00004 9.09796 9.00004 9.09849 9.00004 9.09901C9.00004 9.09954 9.00004 9.10007 9.00004 9.1006C9.00004 9.10113 9.00004 9.10167 9.00004 9.10221C9.00004 9.10275 9.00004 9.10329 9.00004 9.10383C9.00004 9.10437 9.00004 9.10492 9.00004 9.10547C9.00004 9.10602 9.00004 9.10657 9.00004 9.10713C9.00004 9.10768 9.00004 9.10824 9.00004 9.1088C9.00004 9.10936 9.00004 9.10992 9.00004 9.11049C9.00004 9.11106 9.00004 9.11163 9.00004 9.1122C9.00004 9.11277 9.00004 9.11335 9.00004 9.11393C9.00004 9.1145 9.00004 9.11508 9.00004 9.11567C9.00004 9.11625 9.00004 9.11684 9.00004 9.11743C9.00004 9.11802 9.00004 9.11861 9.00004 9.11921C9.00004 9.11981 9.00004 9.1204 9.00004 9.12101C9.00004 9.12161 9.00004 9.12221 9.00004 9.12282C9.00004 9.12343 9.00004 9.12404 9.00004 9.12465C9.00004 9.12527 9.00004 9.12589 9.00004 9.12651C9.00004 9.12713 9.00004 9.12775 9.00004 9.12838C9.00004 9.129 9.00004 9.12963 9.00004 9.13026C9.00004 9.1309 9.00004 9.13153 9.00004 9.13217C9.00004 9.13281 9.00004 9.13345 9.00004 9.13409C9.00004 9.13474 9.00004 9.13539 9.00004 9.13604C9.00004 9.13669 9.00004 9.13734 9.00004 9.138C9.00004 9.13866 9.00004 9.13932 9.00004 9.13998C9.00004 9.14064 9.00004 9.14131 9.00004 9.14198C9.00004 9.14265 9.00004 9.14332 9.00004 9.144C9.00004 9.14467 9.00004 9.14535 9.00004 9.14604C9.00004 9.14672 9.00004 9.1474 9.00004 9.14809C9.00004 9.14878 9.00004 9.14947 9.00004 9.15017C9.00004 9.15086 9.00004 9.15156 9.00004 9.15226C9.00004 9.15297 9.00004 9.15367 9.00004 9.15438C9.00004 9.15509 9.00004 9.1558 9.00004 9.15651C9.00004 9.15723 9.00004 9.15795 9.00004 9.15867C9.00004 9.15939 9.00004 9.16011 9.00004 9.16084C9.00004 9.16157 9.00004 9.1623 9.00004 9.16303C9.00004 9.16377 9.00004 9.16451 9.00004 9.16525C9.00004 9.16599 9.00004 9.16673 9.00004 9.16748C9.00004 9.16823 9.00004 9.16898 9.00004 9.16973C9.00004 9.17049 9.00004 9.17125 9.00004 9.17201C9.00004 9.17277 9.00004 9.17353 9.00004 9.1743C9.00004 9.17507 9.00004 9.17584 9.00004 9.17661C9.00004 9.17739 9.00004 9.17817 9.00004 9.17895C9.00004 9.17973 9.00004 9.18051 9.00004 9.1813C9.00004 9.18209 9.00004 9.18288 9.00004 9.18368C9.00004 9.18447 9.00004 9.18527 9.00004 9.18607C9.00004 9.18688 9.00004 9.18768 9.00004 9.18849C9.00004 9.1893 9.00004 9.19011 9.00004 9.19093C9.00004 9.19174 9.00004 9.19256 9.00004 9.19339C9.00004 9.19421 9.00004 9.19503 9.00004 9.19586C9.00004 9.19669 9.00004 9.19753 9.00004 9.19837C9.00004 9.1992 9.00004 9.20004 9.00004 9.20089C9.00004 9.20173 9.00004 9.20258 9.00004 9.20343C9.00004 9.20428 9.00004 9.20514 9.00004 9.20599C9.00004 9.20685 9.00004 9.20771 9.00004 9.20858C9.00004 9.20944 9.00004 9.21031 9.00004 9.21119C9.00004 9.21206 9.00004 9.21294 9.00004 9.21382C9.00004 9.2147 9.00004 9.21558 9.00004 9.21647C9.00004 9.21735 9.00004 9.21824 9.00004 9.21914C9.00004 9.22003 9.00004 9.22093 9.00004 9.22183C9.00004 9.22273 9.00004 9.22364 9.00004 9.22455C9.00004 9.22546 9.00004 9.22637 9.00004 9.22729C9.00004 9.2282 9.00004 9.22912 9.00004 9.23005C9.00004 9.23097 9.00004 9.2319 9.00004 9.23283C9.00004 9.23376 9.00004 9.2347 9.00004 9.23564C9.00004 9.23657 9.00004 9.23752 9.00004 9.23846C9.00004 9.23941 9.00004 9.24036 9.00004 9.24131C9.00004 9.24227 9.00004 9.24323 9.00004 9.24419C9.00004 9.24515 9.00004 9.24611 9.00004 9.24708C9.00004 9.24805 9.00004 9.24902 9.00004 9.25C9.00004 9.25098 9.00004 9.25196 9.00004 9.25294C9.00004 9.25393 9.00004 9.25491 9.00004 9.25591C9.00004 9.2569 9.00004 9.25789 9.00004 9.25889C9.00004 9.25989 9.00004 9.2609 9.00004 9.2619C9.00004 9.26291 9.00004 9.26392 9.00004 9.26494C9.00004 9.26595 9.00004 9.26697 9.00004 9.26799C9.00004 9.26902 9.00004 9.27004 9.00004 9.27107C9.00004 9.2721 9.00004 9.27314 9.00004 9.27418C9.00004 9.27522 9.00004 9.27626 9.00004 9.27731C9.00004 9.27835 9.00004 9.2794 9.00004 9.28046C9.00004 9.28151 9.00004 9.28257 9.00004 9.28363C9.00004 9.28469 9.00004 9.28576 9.00004 9.28683C9.00004 9.2879 9.00004 9.28897 9.00004 9.29005C9.00004 9.29113 9.00004 9.29221 9.00004 9.2933C9.00004 9.29439 9.00004 9.29548 9.00004 9.29657C9.00004 9.29766 9.00004 9.29876 9.00004 9.29987C9.00004 9.30097 9.00004 9.30207 9.00004 9.30319C9.00004 9.3043 9.00004 9.30541 9.00004 9.30653C9.00004 9.30765 9.00004 9.30877 9.00004 9.3099C9.00004 9.31102 9.00004 9.31216 9.00004 9.31329C9.00004 9.31443 9.00004 9.31557 9.00004 9.31671C9.00004 9.31785 9.00004 9.319 9.00004 9.32015C9.00004 9.3213 9.00004 9.32246 9.00004 9.32362C9.00004 9.32478 9.00004 9.32594 9.00004 9.32711C9.00004 9.32828 9.00004 9.32945 9.00004 9.33063C9.00004 9.3318 9.00004 9.33299 9.00004 9.33417C9.00004 9.33536 9.00004 9.33654 9.00004 9.33774C9.00004 9.33893 9.00004 9.34013 9.00004 9.34133C9.00004 9.34253 9.00004 9.34374 9.00004 9.34495C9.00004 9.34616 9.00004 9.34737 9.00004 9.34859C9.00004 9.34981 9.00004 9.35103 9.00004 9.35226C9.00004 9.35349 9.00004 9.35472 9.00004 9.35596C9.00004 9.35719 9.00004 9.35843 9.00004 9.35968C9.00004 9.36092 9.00004 9.36217 9.00004 9.36342C9.00004 9.36468 9.00004 9.36594 9.00004 9.3672C9.00004 9.36846 9.00004 9.36973 9.00004 9.371C9.00004 9.37227 9.00004 9.37354 9.00004 9.37482C9.00004 9.3761 9.00004 9.37738 9.00004 9.37867C9.00004 9.37996 9.00004 9.38125 9.00004 9.38255C9.00004 9.38385 9.00004 9.38515 9.00004 9.38645C9.00004 9.38776 9.00004 9.38907 9.00004 9.39038C9.00004 9.3917 9.00004 9.39302 9.00004 9.39434C9.00004 9.39566 9.00004 9.39699 9.00004 9.39832C9.00004 9.39965 9.00004 9.40099 9.00004 9.40233C9.00004 9.40367 9.00004 9.40502 9.00004 9.40637C9.00004 9.40772 9.00004 9.40907 9.00004 9.41043C9.00004 9.41179 9.00004 9.41315 9.00004 9.41452C9.00004 9.41589 9.00004 9.41726 9.00004 9.41864C9.00004 9.42002 9.00004 9.4214 9.00004 9.42279C9.00004 9.42417 9.00004 9.42556 9.00004 9.42696C9.00004 9.42835 9.00004 9.42975 9.00004 9.43116C9.00004 9.43256 9.00004 9.43397 9.00004 9.43538C9.00004 9.4368 9.00004 9.43822 9.00004 9.43964C9.00004 9.44106 9.00004 9.44249 9.00004 9.44392C9.00004 9.44535 9.00004 9.44679 9.00004 9.44823C9.00004 9.44967 9.00004 9.45112 9.00004 9.45257C9.00004 9.45402 9.00004 9.45547 9.00004 9.45693C9.00004 9.45839 9.00004 9.45986 9.00004 9.46133C9.00004 9.4628 9.00004 9.46427 9.00004 9.46575C9.00004 9.46723 9.00004 9.46871 9.00004 9.4702C9.00004 9.47169 9.00004 9.47318 9.00004 9.47468C9.00004 9.47617 9.00004 9.47768 9.00004 9.47918C9.00004 9.48069 9.00004 9.4822 9.00004 9.48372C9.00004 9.48523 9.00004 9.48676 9.00004 9.48828C9.00004 9.48981 9.00004 9.49134 9.00004 9.49287C9.00004 9.49441 9.00004 9.49595 9.00004 9.49749C9.00004 9.49904 9.00004 9.50059 9.00004 9.50214C9.00004 9.5037 9.00004 9.50526 9.00004 9.50682C9.00004 9.50839 9.00004 9.50996 9.00004 9.51153C9.00004 9.5131 9.00004 9.51468 9.00004 9.51627C9.00004 9.51785 9.00004 9.51944 9.00004 9.52103C9.00004 9.52262 9.00004 9.52422 9.00004 9.52583C9.00004 9.52743 9.00004 9.52904 9.00004 9.53065C9.00004 9.53226 9.00004 9.53388 9.00004 9.5355C9.00004 9.53713 9.00004 9.53875 9.00004 9.54039C9.00004 9.54202 9.00004 9.54366 9.00004 9.5453C9.00004 9.54694 9.00004 9.54859 9.00004 9.55024C9.00004 9.55189 9.00004 9.55355 9.00004 9.55521C9.00004 9.55688 9.00004 9.55854 9.00004 9.56021C9.00004 9.56189 9.00004 9.56356 9.00004 9.56525C9.00004 9.56693 9.00004 9.56862 9.00004 9.57031C9.00004 9.572 9.00004 9.5737 9.00004 9.5754C9.00004 9.5771 9.00004 9.57881 9.00004 9.58052C9.00004 9.58224 9.00004 9.58395 9.00004 9.58568C9.00004 9.5874 9.00004 9.58913 9.00004 9.59086C9.00004 9.59259 9.00004 9.59433 9.00004 9.59607C9.00004 9.59781 9.00004 9.59956 9.00004 9.60132C9.00004 9.60307 9.00004 9.60483 9.00004 9.60659C9.00004 9.60835 9.00004 9.61012 9.00004 9.6119C9.00004 9.61367 9.00004 9.61545 9.00004 9.61723C9.00004 9.61902 9.00004 9.62081 9.00004 9.6226C9.00004 9.62439 9.00004 9.62619 9.00004 9.628C9.00004 9.6298 9.00004 9.63161 9.00004 9.63343C9.00004 9.63524 9.00004 9.63706 9.00004 9.63889C9.00004 9.64071 9.00004 9.64254 9.00004 9.64438C9.00004 9.64622 9.00004 9.64806 9.00004 9.6499C9.00004 9.65175 9.00004 9.6536 9.00004 9.65546C9.00004 9.65731 9.00004 9.65918 9.00004 9.66104C9.00004 9.66291 9.00004 9.66478 9.00004 9.66666C9.00004 9.66854 9.00004 9.67042 9.00004 9.67231C9.00004 9.6742 9.00004 9.67609 9.00004 9.67799C9.00004 9.67989 9.00004 9.6818 9.00004 9.68371C9.00004 9.68562 9.00004 9.68753 9.00004 9.68945C9.00004 9.69137 9.00004 9.6933 9.00004 9.69523C9.00004 9.69716 9.00004 9.6991 9.00004 9.70104C9.00004 9.70298 9.00004 9.70493 9.00004 9.70688C9.00004 9.70883 9.00004 9.71079 9.00004 9.71275C9.00004 9.71472 9.00004 9.71669 9.00004 9.71866C9.00004 9.72064 9.00004 9.72262 9.00004 9.7246C9.00004 9.72659 9.00004 9.72858 9.00004 9.73057C9.00004 9.73257 9.00004 9.73457 9.00004 9.73658C9.00004 9.73858 9.00004 9.7406 9.00004 9.74261C9.00004 9.74463 9.00004 9.74666 9.00004 9.74869C9.00004 9.75071 9.00004 9.75275 9.00004 9.75479C9.00004 9.75683 9.00004 9.75887 9.00004 9.76093C9.00004 9.76298 9.00004 9.76503 9.00004 9.76709C9.00004 9.76916 9.00004 9.77122 9.00004 9.7733C9.00004 9.77537 9.00004 9.77745 9.00004 9.77953C9.00004 9.78162 9.00004 9.78371 9.00004 9.7858C9.00004 9.7879 9.00004 9.79 9.00004 9.79211C9.00004 9.79421 9.00004 9.79633 9.00004 9.79844C9.00004 9.80056 9.00004 9.80269 9.00004 9.80481C9.00004 9.80694 9.00004 9.80908 9.00004 9.81122C9.00004 9.81336 9.00004 9.8155 9.00004 9.81766C9.00004 9.81981 9.00004 9.82197 9.00004 9.82413C9.00004 9.82629 9.00004 9.82846 9.00004 9.83064C9.00004 9.83281 9.00004 9.83499 9.00004 9.83718C9.00004 9.83936 9.00004 9.84155 9.00004 9.84375C9.00004 9.84595 9.00004 9.84815 9.00004 9.85036C9.00004 9.85257 9.00004 9.85478 9.00004 9.857C9.00004 9.85922 9.00004 9.86145 9.00004 9.86368C9.00004 9.86591 9.00004 9.86815 9.00004 9.87039C9.00004 9.87264 9.00004 9.87489 9.00004 9.87714C9.00004 9.8794 9.00004 9.88166 9.00004 9.88392C9.00004 9.88619 9.00004 9.88846 9.00004 9.89074C9.00004 9.89302 9.00004 9.8953 9.00004 9.89759C9.00004 9.89988 9.00004 9.90218 9.00004 9.90448C9.00004 9.90678 9.00004 9.90909 9.00004 9.9114C9.00004 9.91371 9.00004 9.91603 9.00004 9.91836C9.00004 9.92068 9.00004 9.92301 9.00004 9.92535C9.00004 9.92769 9.00004 9.93003 9.00004 9.93238C9.00004 9.93473 9.00004 9.93708 9.00004 9.93944C9.00004 9.9418 9.00004 9.94417 9.00004 9.94654C9.00004 9.94891 9.00004 9.95129 9.00004 9.95367C9.00004 9.95606 9.00004 9.95845 9.00004 9.96084C9.00004 9.96324 9.00004 9.96564 9.00004 9.96805C9.00004 9.97046 9.00004 9.97287 9.00004 9.97529C9.00004 9.97771 9.00004 9.98014 9.00004 9.98257C9.00004 9.985 9.00004 9.98744 9.00004 9.98989C9.00004 9.99233 9.00004 9.99478 9.00004 9.99724C9.00004 9.99969 9.00004 10.0022 9.00004 10.0046C9.00004 10.0071 9.00004 10.0096 9.00004 10.012C9.00004 10.0145 9.00004 10.017 9.00004 10.0195C9.00004 10.022 9.00004 10.0245 9.00004 10.027C9.00004 10.0295 9.00004 10.032 9.00004 10.0345C9.00004 10.0371 9.00004 10.0396 9.00004 10.0421C9.00004 10.0446 9.00004 10.0472 9.00004 10.0497C9.00004 10.0523 9.00004 10.0548 9.00004 10.0574C9.00004 10.0599 9.00004 10.0625 9.00004 10.065C9.00004 10.0676 9.00004 10.0702 9.00004 10.0728C9.00004 10.0753 9.00004 10.0779 9.00004 10.0805C9.00004 10.0831 9.00004 10.0857 9.00004 10.0883C9.00004 10.0909 9.00004 10.0935 9.00004 10.0961C9.00004 10.0987 9.00004 10.1014 9.00004 10.104C9.00004 10.1066 9.00004 10.1093 9.00004 10.1119C9.00004 10.1145 9.00004 10.1172 9.00004 10.1198C9.00004 10.1225 9.00004 10.1252 9.00004 10.1278C9.00004 10.1305 9.00004 10.1332 9.00004 10.1358C9.00004 10.1385 9.00004 10.1412 9.00004 10.1439C9.00004 10.1466 9.00004 10.1493 9.00004 10.152C9.00004 10.1547 9.00004 10.1574 9.00004 10.1601C9.00004 10.1628 9.00004 10.1656 9.00004 10.1683C9.00004 10.171 9.00004 10.1738 9.00004 10.1765C9.00004 10.1792 9.00004 10.182 9.00004 10.1847C9.00004 10.1875 9.00004 10.1903 9.00004 10.193C9.00004 10.1958 9.00004 10.1986 9.00004 10.2014C9.00004 10.2041 9.00004 10.2069 9.00004 10.2097C9.00004 10.2125 9.00004 10.2153 9.00004 10.2181C9.00004 10.2209 9.00004 10.2237 9.00004 10.2266C9.00004 10.2294 9.00004 10.2322 9.00004 10.235C9.00004 10.2379 9.00004 10.2407 9.00004 10.2436C9.00004 10.2464 9.00004 10.2493 9.00004 10.2521C9.00004 10.255 9.00004 10.2578 9.00004 10.2607C9.00004 10.2636 9.00004 10.2665 9.00004 10.2693C9.00004 10.2722 9.00004 10.2751 9.00004 10.278C9.00004 10.2809 9.00004 10.2838 9.00004 10.2867C9.00004 10.2896 9.00004 10.2926 9.00004 10.2955C9.00004 10.2984 9.00004 10.3013 9.00004 10.3043C9.00004 10.3072 9.00004 10.3102 9.00004 10.3131C9.00004 10.3161 9.00004 10.319 9.00004 10.322C9.00004 10.3249 9.00004 10.3279 9.00004 10.3309C9.00004 10.3339 9.00004 10.3369 9.00004 10.3398C9.00004 10.3428 9.00004 10.3458 9.00004 10.3488C9.00004 10.3518 9.00004 10.3549 9.00004 10.3579C9.00004 10.3609 9.00004 10.3639 9.00004 10.3669C9.00004 10.37 9.00004 10.373 9.00004 10.3761C9.00004 10.3791 9.00004 10.3821 9.00004 10.3852C9.00004 10.3883 9.00004 10.3913 9.00004 10.3944C9.00004 10.3975 9.00004 10.4006 9.00004 10.4036C9.00004 10.4067 9.00004 10.4098 9.00004 10.4129C9.00004 10.416 9.00004 10.4191 9.00004 10.4222C9.00004 10.4253 9.00004 10.4285 9.00004 10.4316C9.00004 10.4347 9.00004 10.4378 9.00004 10.441C9.00004 10.4441 9.00004 10.4473 9.00004 10.4504C9.00004 10.4536 9.00004 10.4567 9.00004 10.4599C9.00004 10.4631 9.00004 10.4662 9.00004 10.4694C9.00004 10.4726 9.00004 10.4758 9.00004 10.479C9.00004 10.4822 9.00004 10.4854 9.00004 10.4886C9.00004 10.4918 9.00004 10.495 9.00004 10.4982C9.00004 10.5015 9.00004 10.5047 9.00004 10.5079C9.00004 10.5112 9.00004 10.5144 9.00004 10.5176C9.00004 10.5209 9.00004 10.5242 9.00004 10.5274C9.00004 10.5307 9.00004 10.534 9.00004 10.5372C9.00004 10.5405 9.00004 10.5438 9.00004 10.5471C9.00004 10.5504 9.00004 10.5537 9.00004 10.557C9.00004 10.5603 9.00004 10.5636 9.00004 10.5669C9.00004 10.5702 9.00004 10.5736 9.00004 10.5769C9.00004 10.5802 9.00004 10.5836 9.00004 10.5869C9.00004 10.5903 9.00004 10.5936 9.00004 10.597C9.00004 10.6003 9.00004 10.6037 9.00004 10.6071C9.00004 10.6105 9.00004 10.6139 9.00004 10.6172C9.00004 10.6206 9.00004 10.624 9.00004 10.6274C9.00004 10.6308 9.00004 10.6343 9.00004 10.6377C9.00004 10.6411 9.00004 10.6445 9.00004 10.6479C9.00004 10.6514 9.00004 10.6548 9.00004 10.6583C9.00004 10.6617 9.00004 10.6652 9.00004 10.6686C9.00004 10.6721 9.00004 10.6756 9.00004 10.679C9.00004 10.6825 9.00004 10.686 9.00004 10.6895C9.00004 10.693 9.00004 10.6965 9.00004 10.7C9.00004 10.7035 9.00004 10.707 9.00004 10.7105C9.00004 10.714 9.00004 10.7176 9.00004 10.7211C9.00004 10.7246 9.00004 10.7282 9.00004 10.7317C9.00004 10.7353 9.00004 10.7388 9.00004 10.7424C9.00004 10.746 9.00004 10.7495 9.00004 10.7531C9.00004 10.7567 9.00004 10.7603 9.00004 10.7639C9.00004 10.7675 9.00004 10.7711 9.00004 10.7747C9.00004 10.7783 9.00004 10.7819 9.00004 10.7855C9.00004 10.7891 9.00004 10.7928 9.00004 10.7964C9.00004 10.8 9.00004 10.8037 9.00004 10.8073C9.00004 10.811 9.00004 10.8146 9.00004 10.8183C9.00004 10.822 9.00004 10.8256 9.00004 10.8293C9.00004 10.833 9.00004 10.8367 9.00004 10.8404C9.00004 10.8441 9.00004 10.8478 9.00004 10.8515C9.00004 10.8552 9.00004 10.8589 9.00004 10.8626C9.00004 10.8664 9.00004 10.8701 9.00004 10.8738C9.00004 10.8776 9.00004 10.8813 9.00004 10.8851C9.00004 10.8888 9.00004 10.8926 9.00004 10.8964C9.00004 10.9001 9.00004 10.9039 9.00004 10.9077C9.00004 10.9115 9.00004 10.9153 9.00004 10.9191C9.00004 10.9229 9.00004 10.9267 9.00004 10.9305C9.00004 10.9343 9.00004 10.9381 9.00004 10.942C9.00004 10.9458 9.00004 10.9496 9.00004 10.9535C9.00004 10.9573 9.00004 10.9612 9.00004 10.965C9.00004 10.9689 9.00004 10.9728 9.00004 10.9767C9.00004 10.9805 9.00004 10.9844 9.00004 10.9883C9.00004 10.9922 9.00004 10.9961 9.00004 11H13C13 10.9961 13 10.9922 13 10.9883C13 10.9844 13 10.9805 13 10.9767C13 10.9728 13 10.9689 13 10.965C13 10.9612 13 10.9573 13 10.9535C13 10.9496 13 10.9458 13 10.942C13 10.9381 13 10.9343 13 10.9305C13 10.9267 13 10.9229 13 10.9191C13 10.9153 13 10.9115 13 10.9077C13 10.9039 13 10.9001 13 10.8964C13 10.8926 13 10.8888 13 10.8851C13 10.8813 13 10.8776 13 10.8738C13 10.8701 13 10.8664 13 10.8626C13 10.8589 13 10.8552 13 10.8515C13 10.8478 13 10.8441 13 10.8404C13 10.8367 13 10.833 13 10.8293C13 10.8256 13 10.822 13 10.8183C13 10.8146 13 10.811 13 10.8073C13 10.8037 13 10.8 13 10.7964C13 10.7928 13 10.7891 13 10.7855C13 10.7819 13 10.7783 13 10.7747C13 10.7711 13 10.7675 13 10.7639C13 10.7603 13 10.7567 13 10.7531C13 10.7495 13 10.746 13 10.7424C13 10.7388 13 10.7353 13 10.7317C13 10.7282 13 10.7246 13 10.7211C13 10.7176 13 10.714 13 10.7105C13 10.707 13 10.7035 13 10.7C13 10.6965 13 10.693 13 10.6895C13 10.686 13 10.6825 13 10.679C13 10.6756 13 10.6721 13 10.6686C13 10.6652 13 10.6617 13 10.6583C13 10.6548 13 10.6514 13 10.6479C13 10.6445 13 10.6411 13 10.6377C13 10.6343 13 10.6308 13 10.6274C13 10.624 13 10.6206 13 10.6172C13 10.6139 13 10.6105 13 10.6071C13 10.6037 13 10.6003 13 10.597C13 10.5936 13 10.5903 13 10.5869C13 10.5836 13 10.5802 13 10.5769C13 10.5736 13 10.5702 13 10.5669C13 10.5636 13 10.5603 13 10.557C13 10.5537 13 10.5504 13 10.5471C13 10.5438 13 10.5405 13 10.5372C13 10.534 13 10.5307 13 10.5274C13 10.5242 13 10.5209 13 10.5176C13 10.5144 13 10.5112 13 10.5079C13 10.5047 13 10.5015 13 10.4982C13 10.495 13 10.4918 13 10.4886C13 10.4854 13 10.4822 13 10.479C13 10.4758 13 10.4726 13 10.4694C13 10.4662 13 10.4631 13 10.4599C13 10.4567 13 10.4536 13 10.4504C13 10.4473 13 10.4441 13 10.441C13 10.4378 13 10.4347 13 10.4316C13 10.4285 13 10.4253 13 10.4222C13 10.4191 13 10.416 13 10.4129C13 10.4098 13 10.4067 13 10.4036C13 10.4006 13 10.3975 13 10.3944C13 10.3913 13 10.3883 13 10.3852C13 10.3821 13 10.3791 13 10.3761C13 10.373 13 10.37 13 10.3669C13 10.3639 13 10.3609 13 10.3579C13 10.3549 13 10.3518 13 10.3488C13 10.3458 13 10.3428 13 10.3398C13 10.3369 13 10.3339 13 10.3309C13 10.3279 13 10.3249 13 10.322C13 10.319 13 10.3161 13 10.3131C13 10.3102 13 10.3072 13 10.3043C13 10.3013 13 10.2984 13 10.2955C13 10.2926 13 10.2896 13 10.2867C13 10.2838 13 10.2809 13 10.278C13 10.2751 13 10.2722 13 10.2693C13 10.2665 13 10.2636 13 10.2607C13 10.2578 13 10.255 13 10.2521C13 10.2493 13 10.2464 13 10.2436C13 10.2407 13 10.2379 13 10.235C13 10.2322 13 10.2294 13 10.2266C13 10.2237 13 10.2209 13 10.2181C13 10.2153 13 10.2125 13 10.2097C13 10.2069 13 10.2041 13 10.2014C13 10.1986 13 10.1958 13 10.193C13 10.1903 13 10.1875 13 10.1847C13 10.182 13 10.1792 13 10.1765C13 10.1738 13 10.171 13 10.1683C13 10.1656 13 10.1628 13 10.1601C13 10.1574 13 10.1547 13 10.152C13 10.1493 13 10.1466 13 10.1439C13 10.1412 13 10.1385 13 10.1358C13 10.1332 13 10.1305 13 10.1278C13 10.1252 13 10.1225 13 10.1198C13 10.1172 13 10.1145 13 10.1119C13 10.1093 13 10.1066 13 10.104C13 10.1014 13 10.0987 13 10.0961C13 10.0935 13 10.0909 13 10.0883C13 10.0857 13 10.0831 13 10.0805C13 10.0779 13 10.0753 13 10.0728C13 10.0702 13 10.0676 13 10.065C13 10.0625 13 10.0599 13 10.0574C13 10.0548 13 10.0523 13 10.0497C13 10.0472 13 10.0446 13 10.0421C13 10.0396 13 10.0371 13 10.0345C13 10.032 13 10.0295 13 10.027C13 10.0245 13 10.022 13 10.0195C13 10.017 13 10.0145 13 10.012C13 10.0096 13 10.0071 13 10.0046C13 10.0022 13 9.99969 13 9.99724C13 9.99478 13 9.99233 13 9.98989C13 9.98744 13 9.985 13 9.98257C13 9.98014 13 9.97771 13 9.97529C13 9.97287 13 9.97046 13 9.96805C13 9.96564 13 9.96324 13 9.96084C13 9.95845 13 9.95606 13 9.95367C13 9.95129 13 9.94891 13 9.94654C13 9.94417 13 9.9418 13 9.93944C13 9.93708 13 9.93473 13 9.93238C13 9.93003 13 9.92769 13 9.92535C13 9.92301 13 9.92068 13 9.91836C13 9.91603 13 9.91371 13 9.9114C13 9.90909 13 9.90678 13 9.90448C13 9.90218 13 9.89988 13 9.89759C13 9.8953 13 9.89302 13 9.89074C13 9.88846 13 9.88619 13 9.88392C13 9.88166 13 9.8794 13 9.87714C13 9.87489 13 9.87264 13 9.87039C13 9.86815 13 9.86591 13 9.86368C13 9.86145 13 9.85922 13 9.857C13 9.85478 13 9.85257 13 9.85036C13 9.84815 13 9.84595 13 9.84375C13 9.84155 13 9.83936 13 9.83718C13 9.83499 13 9.83281 13 9.83064C13 9.82846 13 9.82629 13 9.82413C13 9.82197 13 9.81981 13 9.81766C13 9.8155 13 9.81336 13 9.81122C13 9.80908 13 9.80694 13 9.80481C13 9.80269 13 9.80056 13 9.79844C13 9.79633 13 9.79421 13 9.79211C13 9.79 13 9.7879 13 9.7858C13 9.78371 13 9.78162 13 9.77953C13 9.77745 13 9.77537 13 9.7733C13 9.77122 13 9.76916 13 9.76709C13 9.76503 13 9.76298 13 9.76093C13 9.75887 13 9.75683 13 9.75479C13 9.75275 13 9.75071 13 9.74869C13 9.74666 13 9.74463 13 9.74261C13 9.7406 13 9.73858 13 9.73658C13 9.73457 13 9.73257 13 9.73057C13 9.72858 13 9.72659 13 9.7246C13 9.72262 13 9.72064 13 9.71866C13 9.71669 13 9.71472 13 9.71275C13 9.71079 13 9.70883 13 9.70688C13 9.70493 13 9.70298 13 9.70104C13 9.6991 13 9.69716 13 9.69523C13 9.6933 13 9.69137 13 9.68945C13 9.68753 13 9.68562 13 9.68371C13 9.6818 13 9.67989 13 9.67799C13 9.67609 13 9.6742 13 9.67231C13 9.67042 13 9.66854 13 9.66666C13 9.66478 13 9.66291 13 9.66104C13 9.65918 13 9.65731 13 9.65546C13 9.6536 13 9.65175 13 9.6499C13 9.64806 13 9.64622 13 9.64438C13 9.64254 13 9.64071 13 9.63889C13 9.63706 13 9.63524 13 9.63343C13 9.63161 13 9.6298 13 9.628C13 9.62619 13 9.62439 13 9.6226C13 9.62081 13 9.61902 13 9.61723C13 9.61545 13 9.61367 13 9.6119C13 9.61012 13 9.60835 13 9.60659C13 9.60483 13 9.60307 13 9.60132C13 9.59956 13 9.59781 13 9.59607C13 9.59433 13 9.59259 13 9.59086C13 9.58913 13 9.5874 13 9.58568C13 9.58395 13 9.58224 13 9.58052C13 9.57881 13 9.5771 13 9.5754C13 9.5737 13 9.572 13 9.57031C13 9.56862 13 9.56693 13 9.56525C13 9.56356 13 9.56189 13 9.56021C13 9.55854 13 9.55688 13 9.55521C13 9.55355 13 9.55189 13 9.55024C13 9.54859 13 9.54694 13 9.5453C13 9.54366 13 9.54202 13 9.54039C13 9.53875 13 9.53713 13 9.5355C13 9.53388 13 9.53226 13 9.53065C13 9.52904 13 9.52743 13 9.52583C13 9.52422 13 9.52262 13 9.52103C13 9.51944 13 9.51785 13 9.51627C13 9.51468 13 9.5131 13 9.51153C13 9.50996 13 9.50839 13 9.50682C13 9.50526 13 9.5037 13 9.50214C13 9.50059 13 9.49904 13 9.49749C13 9.49595 13 9.49441 13 9.49287C13 9.49134 13 9.48981 13 9.48828C13 9.48676 13 9.48523 13 9.48372C13 9.4822 13 9.48069 13 9.47918C13 9.47768 13 9.47617 13 9.47468C13 9.47318 13 9.47169 13 9.4702C13 9.46871 13 9.46723 13 9.46575C13 9.46427 13 9.4628 13 9.46133C13 9.45986 13 9.45839 13 9.45693C13 9.45547 13 9.45402 13 9.45257C13 9.45112 13 9.44967 13 9.44823C13 9.44679 13 9.44535 13 9.44392C13 9.44249 13 9.44106 13 9.43964C13 9.43822 13 9.4368 13 9.43538C13 9.43397 13 9.43256 13 9.43116C13 9.42975 13 9.42835 13 9.42696C13 9.42556 13 9.42417 13 9.42279C13 9.4214 13 9.42002 13 9.41864C13 9.41726 13 9.41589 13 9.41452C13 9.41315 13 9.41179 13 9.41043C13 9.40907 13 9.40772 13 9.40637C13 9.40502 13 9.40367 13 9.40233C13 9.40099 13 9.39965 13 9.39832C13 9.39699 13 9.39566 13 9.39434C13 9.39302 13 9.3917 13 9.39038C13 9.38907 13 9.38776 13 9.38645C13 9.38515 13 9.38385 13 9.38255C13 9.38125 13 9.37996 13 9.37867C13 9.37738 13 9.3761 13 9.37482C13 9.37354 13 9.37227 13 9.371C13 9.36973 13 9.36846 13 9.3672C13 9.36594 13 9.36468 13 9.36342C13 9.36217 13 9.36092 13 9.35968C13 9.35843 13 9.35719 13 9.35596C13 9.35472 13 9.35349 13 9.35226C13 9.35103 13 9.34981 13 9.34859C13 9.34737 13 9.34616 13 9.34495C13 9.34374 13 9.34253 13 9.34133C13 9.34013 13 9.33893 13 9.33774C13 9.33654 13 9.33536 13 9.33417C13 9.33299 13 9.3318 13 9.33063C13 9.32945 13 9.32828 13 9.32711C13 9.32594 13 9.32478 13 9.32362C13 9.32246 13 9.3213 13 9.32015C13 9.319 13 9.31785 13 9.31671C13 9.31557 13 9.31443 13 9.31329C13 9.31216 13 9.31102 13 9.3099C13 9.30877 13 9.30765 13 9.30653C13 9.30541 13 9.3043 13 9.30319C13 9.30207 13 9.30097 13 9.29987C13 9.29876 13 9.29766 13 9.29657C13 9.29548 13 9.29439 13 9.2933C13 9.29221 13 9.29113 13 9.29005C13 9.28897 13 9.2879 13 9.28683C13 9.28576 13 9.28469 13 9.28363C13 9.28257 13 9.28151 13 9.28046C13 9.2794 13 9.27835 13 9.27731C13 9.27626 13 9.27522 13 9.27418C13 9.27314 13 9.2721 13 9.27107C13 9.27004 13 9.26902 13 9.26799C13 9.26697 13 9.26595 13 9.26494C13 9.26392 13 9.26291 13 9.2619C13 9.2609 13 9.25989 13 9.25889C13 9.25789 13 9.2569 13 9.25591C13 9.25491 13 9.25393 13 9.25294C13 9.25196 13 9.25098 13 9.25C13 9.24902 13 9.24805 13 9.24708C13 9.24611 13 9.24515 13 9.24419C13 9.24323 13 9.24227 13 9.24131C13 9.24036 13 9.23941 13 9.23846C13 9.23752 13 9.23657 13 9.23564C13 9.2347 13 9.23376 13 9.23283C13 9.2319 13 9.23097 13 9.23005C13 9.22912 13 9.2282 13 9.22729C13 9.22637 13 9.22546 13 9.22455C13 9.22364 13 9.22273 13 9.22183C13 9.22093 13 9.22003 13 9.21914C13 9.21824 13 9.21735 13 9.21647C13 9.21558 13 9.2147 13 9.21382C13 9.21294 13 9.21206 13 9.21119C13 9.21031 13 9.20944 13 9.20858C13 9.20771 13 9.20685 13 9.20599C13 9.20514 13 9.20428 13 9.20343C13 9.20258 13 9.20173 13 9.20089C13 9.20004 13 9.1992 13 9.19837C13 9.19753 13 9.19669 13 9.19586C13 9.19503 13 9.19421 13 9.19339C13 9.19256 13 9.19174 13 9.19093C13 9.19011 13 9.1893 13 9.18849C13 9.18768 13 9.18688 13 9.18607C13 9.18527 13 9.18447 13 9.18368C13 9.18288 13 9.18209 13 9.1813C13 9.18051 13 9.17973 13 9.17895C13 9.17817 13 9.17739 13 9.17661C13 9.17584 13 9.17507 13 9.1743C13 9.17353 13 9.17277 13 9.17201C13 9.17125 13 9.17049 13 9.16973C13 9.16898 13 9.16823 13 9.16748C13 9.16673 13 9.16599 13 9.16525C13 9.16451 13 9.16377 13 9.16303C13 9.1623 13 9.16157 13 9.16084C13 9.16011 13 9.15939 13 9.15867C13 9.15795 13 9.15723 13 9.15651C13 9.1558 13 9.15509 13 9.15438C13 9.15367 13 9.15297 13 9.15226C13 9.15156 13 9.15086 13 9.15017C13 9.14947 13 9.14878 13 9.14809C13 9.1474 13 9.14672 13 9.14604C13 9.14535 13 9.14467 13 9.144C13 9.14332 13 9.14265 13 9.14198C13 9.14131 13 9.14064 13 9.13998C13 9.13932 13 9.13866 13 9.138C13 9.13734 13 9.13669 13 9.13604C13 9.13539 13 9.13474 13 9.13409C13 9.13345 13 9.13281 13 9.13217C13 9.13153 13 9.1309 13 9.13026C13 9.12963 13 9.129 13 9.12838C13 9.12775 13 9.12713 13 9.12651C13 9.12589 13 9.12527 13 9.12465C13 9.12404 13 9.12343 13 9.12282C13 9.12221 13 9.12161 13 9.12101C13 9.1204 13 9.11981 13 9.11921C13 9.11861 13 9.11802 13 9.11743C13 9.11684 13 9.11625 13 9.11567C13 9.11508 13 9.1145 13 9.11393C13 9.11335 13 9.11277 13 9.1122C13 9.11163 13 9.11106 13 9.11049C13 9.10992 13 9.10936 13 9.1088C13 9.10824 13 9.10768 13 9.10713C13 9.10657 13 9.10602 13 9.10547C13 9.10492 13 9.10437 13 9.10383C13 9.10329 13 9.10275 13 9.10221C13 9.10167 13 9.10113 13 9.1006C13 9.10007 13 9.09954 13 9.09901C13 9.09849 13 9.09796 13 9.09744C13 9.09692 13 9.0964 13 9.09589C13 9.09537 13 9.09486 13 9.09435C13 9.09384 13 9.09333 13 9.09283C13 9.09232 13 9.09182 13 9.09132C13 9.09082 13 9.09033 13 9.08983C13 9.08934 13 9.08885 13 9.08836C13 9.08787 13 9.08739 13 9.0869C13 9.08642 13 9.08594 13 9.08546C13 9.08499 13 9.08451 13 9.08404C13 9.08357 13 9.0831 13 9.08263C13 9.08216 13 9.0817 13 9.08124C13 9.08078 13 9.08032 13 9.07986C13 9.0794 13 9.07895 13 9.0785C13 9.07805 13 9.0776 13 9.07715C13 9.07671 13 9.07626 13 9.07582C13 9.07538 13 9.07494 13 9.07451C13 9.07407 13 9.07364 13 9.07321C13 9.07278 13 9.07235 13 9.07193C13 9.0715 13 9.07108 13 9.07066C13 9.07024 13 9.06982 13 9.0694C13 9.06899 13 9.06857 13 9.06816C13 9.06775 13 9.06734 13 9.06694C13 9.06653 13 9.06613 13 9.06573C13 9.06533 13 9.06493 13 9.06453C13 9.06414 13 9.06374 13 9.06335C13 9.06296 13 9.06257 13 9.06219C13 9.0618 13 9.06142 13 9.06104C13 9.06065 13 9.06027 13 9.0599C13 9.05952 13 9.05915 13 9.05877C13 9.0584 13 9.05803 13 9.05767C13 9.0573 13 9.05693 13 9.05657C13 9.05621 13 9.05585 13 9.05549C13 9.05513 13 9.05478 13 9.05442C13 9.05407 13 9.05372 13 9.05337C13 9.05302 13 9.05267 13 9.05233C13 9.05199 13 9.05164 13 9.0513C13 9.05096 13 9.05063 13 9.05029C13 9.04996 13 9.04962 13 9.04929C13 9.04896 13 9.04863 13 9.04831C13 9.04798 13 9.04766 13 9.04733C13 9.04701 13 9.04669 13 9.04637C13 9.04606 13 9.04574 13 9.04543C13 9.04511 13 9.0448 13 9.04449C13 9.04419 13 9.04388 13 9.04357C13 9.04327 13 9.04297 13 9.04267C13 9.04237 13 9.04207 13 9.04177C13 9.04148 13 9.04118 13 9.04089C13 9.0406 13 9.04031 13 9.04002C13 9.03973 13 9.03945 13 9.03916C13 9.03888 13 9.0386 13 9.03832C13 9.03804 13 9.03776 13 9.03748C13 9.03721 13 9.03693 13 9.03666C13 9.03639 13 9.03612 13 9.03585C13 9.03559 13 9.03532 13 9.03506C13 9.03479 13 9.03453 13 9.03427C13 9.03401 13 9.03375 13 9.0335C13 9.03324 13 9.03299 13 9.03274C13 9.03249 13 9.03224 13 9.03199C13 9.03174 13 9.03149 13 9.03125C13 9.03101 13 9.03076 13 9.03052C13 9.03028 13 9.03004 13 9.02981C13 9.02957 13 9.02934 13 9.0291C13 9.02887 13 9.02864 13 9.02841C13 9.02818 13 9.02795 13 9.02773C13 9.0275 13 9.02728 13 9.02706C13 9.02684 13 9.02662 13 9.0264C13 9.02618 13 9.02596 13 9.02575C13 9.02553 13 9.02532 13 9.02511C13 9.0249 13 9.02469 13 9.02448C13 9.02428 13 9.02407 13 9.02387C13 9.02366 13 9.02346 13 9.02326C13 9.02306 13 9.02286 13 9.02266C13 9.02247 13 9.02227 13 9.02208C13 9.02188 13 9.02169 13 9.0215C13 9.02131 13 9.02112 13 9.02094C13 9.02075 13 9.02056 13 9.02038C13 9.0202 13 9.02001 13 9.01983C13 9.01965 13 9.01947 13 9.0193C13 9.01912 13 9.01895 13 9.01877C13 9.0186 13 9.01843 13 9.01825C13 9.01808 13 9.01791 13 9.01775C13 9.01758 13 9.01741 13 9.01725C13 9.01709 13 9.01692 13 9.01676C13 9.0166 13 9.01644 13 9.01628C13 9.01612 13 9.01597 13 9.01581C13 9.01566 13 9.0155 13 9.01535C13 9.0152 13 9.01505 13 9.0149C13 9.01475 13 9.0146 13 9.01446C13 9.01431 13 9.01417 13 9.01402C13 9.01388 13 9.01374 13 9.0136C13 9.01346 13 9.01332 13 9.01318C13 9.01305 13 9.01291 13 9.01278C13 9.01264 13 9.01251 13 9.01238C13 9.01225 13 9.01211 13 9.01199C13 9.01186 13 9.01173 13 9.0116C13 9.01148 13 9.01135 13 9.01123C13 9.01111 13 9.01098 13 9.01086C13 9.01074 13 9.01062 13 9.0105C13 9.01039 13 9.01027 13 9.01015C13 9.01004 13 9.00993 13 9.00981C13 9.0097 13 9.00959 13 9.00948C13 9.00937 13 9.00926 13 9.00915C13 9.00904 13 9.00894 13 9.00883C13 9.00873 13 9.00862 13 9.00852C13 9.00842 13 9.00832 13 9.00822C13 9.00812 13 9.00802 13 9.00792C13 9.00782 13 9.00772 13 9.00763C13 9.00753 13 9.00744 13 9.00735C13 9.00725 13 9.00716 13 9.00707C13 9.00698 13 9.00689 13 9.0068C13 9.00671 13 9.00663 13 9.00654C13 9.00646 13 9.00637 13 9.00629C13 9.0062 13 9.00612 13 9.00604C13 9.00596 13 9.00588 13 9.0058C13 9.00572 13 9.00564 13 9.00556C13 9.00548 13 9.00541 13 9.00533C13 9.00526 13 9.00518 13 9.00511C13 9.00504 13 9.00497 13 9.0049C13 9.00482 13 9.00475 13 9.00469C13 9.00462 13 9.00455 13 9.00448C13 9.00441 13 9.00435 13 9.00428C13 9.00422 13 9.00416 13 9.00409C13 9.00403 13 9.00397 13 9.00391C13 9.00385 13 9.00379 13 9.00373C13 9.00367 13 9.00361 13 9.00355C13 9.00349 13 9.00344 13 9.00338C13 9.00333 13 9.00327 13 9.00322C13 9.00317 13 9.00311 13 9.00306C13 9.00301 13 9.00296 13 9.00291C13 9.00286 13 9.00281 13 9.00276C13 9.00271 13 9.00266 13 9.00262C13 9.00257 13 9.00252 13 9.00248C13 9.00243 13 9.00239 13 9.00235C13 9.0023 13 9.00226 13 9.00222C13 9.00218 13 9.00214 13 9.0021C13 9.00205 13 9.00202 13 9.00198C13 9.00194 13 9.0019 13 9.00186C13 9.00183 13 9.00179 13 9.00175C13 9.00172 13 9.00168 13 9.00165C13 9.00161 13 9.00158 13 9.00155C13 9.00151 13 9.00148 13 9.00145C13 9.00142 13 9.00139 13 9.00136C13 9.00133 13 9.0013 13 9.00127C13 9.00124 13 9.00121 13 9.00118C13 9.00116 13 9.00113 13 9.0011C13 9.00108 13 9.00105 13 9.00103C13 9.001 13 9.00098 13 9.00095C13 9.00093 13 9.00091 13 9.00088C13 9.00086 13 9.00084 13 9.00082C13 9.0008 13 9.00078 13 9.00075C13 9.00073 13 9.00071 13 9.0007C13 9.00068 13 9.00066 13 9.00064C13 9.00062 13 9.0006 13 9.00059C13 9.00057 13 9.00055 13 9.00054C13 9.00052 13 9.0005 13 9.00049C13 9.00047 13 9.00046 13 9.00044C13 9.00043 13 9.00042 13 9.0004C13 9.00039 13 9.00038 13 9.00036C13 9.00035 13 9.00034 13 9.00033C13 9.00032 13 9.0003 13 9.00029C13 9.00028 13 9.00027 13 9.00026C13 9.00025 13 9.00024 13 9.00023C13 9.00022 13 9.00021 13 9.00021C13 9.0002 13 9.00019 13 9.00018C13 9.00017 13 9.00017 13 9.00016C13 9.00015 13 9.00014 13 9.00014C13 9.00013 13 9.00013 13 9.00012C13 9.00011 13 9.00011 13 9.0001C13 9.0001 13 9.00009 13 9.00009C13 9.00008 13 9.00008 13 9.00007C13 9.00007 13 9.00006 13 9.00006C13 9.00006 13 9.00005 13 9.00005C13 9.00005 13 9.00004 13 9.00004C13 9.00004 13 9.00004 13 9.00003C13 9.00003 13 9.00003 13 9.00003C13 9.00002 13 9.00002 13 9.00002C13 9.00002 13 9.00002 13 9.00001C13 9.00001 13 9.00001 13 9.00001C13 9.00001 13 9.00001 13 9.00001C13 9.00001 13 9.00001 13 9.00001C13 9 13 9 13 9C13 9 13 9 13 9C13 9 13 9 13 9C13 9 13 9 13 9C13 9 13 9 13 9C13 9 13 9 13 9C13 9 13 9 11 9ZM15.5 9V11H19.5V9H15.5ZM17.5 9L13 9V13L17.5 13V9ZM15 11V9H11V11H15ZM13 11L17.5 11L17.5 7L13 7L13 11Z" fill="#28293D" mask="url(#path-3-inside-1_402_14532)"/>
</svg>
