<svg width="24" height="24" viewBox="0 0 24 24" fill="none" xmlns="http://www.w3.org/2000/svg">
<path d="M17 9V8.5H14V9M17 9H20.4879M17 9V9.5M20.4879 9C20.4281 8.83096 20.3635 8.66423 20.2941 8.5C18.9286 5.26806 15.7292 3 12 3C8.27084 3 5.07142 5.26806 3.70591 8.5C3.63652 8.66423 3.57186 8.83096 3.51212 9M20.4879 9C20.8195 9.93834 21 10.9481 21 12C21 16.9706 16.9706 21 12 21C7.02944 21 3 16.9706 3 12C3 10.9481 3.18046 9.93834 3.51212 9M7 9V8.5H10V9M7 9H3.51212M7 9V9.5M10 9H14M10 9V9.5M14 9V9.5M7 9.5V11H10V9.5M7 9.5H10M14 9.5V11H17V9.5M14 9.5H17" stroke="#28293D" stroke-width="2"/>
<path d="M7 14C7.99804 15.7934 9.86346 17 12 17C14.1365 17 16.002 15.7934 17 14" stroke="#28293D" stroke-width="2"/>
</svg>
