<svg width="24" height="24" viewBox="0 0 24 24" fill="none" xmlns="http://www.w3.org/2000/svg">
<circle cx="12" cy="12" r="9" stroke="#28293D" stroke-width="2"/>
<path d="M16.3026 15L17.0604 15.6525C17.3155 15.3562 17.3746 14.9385 17.2116 14.5832C17.0486 14.2278 16.6936 14 16.3026 14V15ZM7.69775 15V14C7.30682 14 6.95173 14.2278 6.78877 14.5832C6.62582 14.9385 6.68488 15.3562 6.93996 15.6525L7.69775 15ZM15.5448 14.3475C14.6649 15.3695 13.3992 16 12.0002 16V18C14.0202 18 15.8265 17.0855 17.0604 15.6525L15.5448 14.3475ZM12.0002 16C10.6011 16 9.33551 15.3695 8.45555 14.3475L6.93996 15.6525C8.17387 17.0855 9.98016 18 12.0002 18V16ZM16.3026 14H7.69775V16H16.3026V14Z" fill="#28293D"/>
<path d="M9 11C8.44772 11 8 10.5523 8 10C8 9.44772 8.44772 9 9 9C9.55228 9 10 9.44772 10 10C10 10.5523 9.55228 11 9 11ZM15 11C14.4477 11 14 10.5523 14 10C14 9.44772 14.4477 9 15 9C15.5523 9 16 9.44772 16 10C16 10.5523 15.5523 11 15 11Z" stroke="#28293D" stroke-width="2"/>
</svg>
