<svg width="24" height="24" viewBox="0 0 24 24" fill="none" xmlns="http://www.w3.org/2000/svg">
<path d="M22 11H23V10H22V11ZM2 11V10H1V11H2ZM21 11C21 15.9706 16.9706 20 12 20V22C18.0751 22 23 17.0751 23 11H21ZM12 20C7.02944 20 3 15.9706 3 11H1C1 17.0751 5.92487 22 12 22V20ZM7 22H12V20H7V22ZM12 22H17V20H12V22ZM7 10H2V12H7V10ZM7.94868 10.6838L4.94868 1.68377L3.05132 2.31623L6.05132 11.3162L7.94868 10.6838ZM22 10H10V12H22V10ZM10 10H7V12H10V10ZM10.9945 10.8953L9.99451 1.39532L8.00549 1.60468L9.00549 11.1047L10.9945 10.8953ZM12.5 15.5C12.5 15.7761 12.2761 16 12 16V18C13.3807 18 14.5 16.8807 14.5 15.5H12.5ZM12 16C11.7239 16 11.5 15.7761 11.5 15.5H9.5C9.5 16.8807 10.6193 18 12 18V16ZM11.5 15.5C11.5 15.2239 11.7239 15 12 15V13C10.6193 13 9.5 14.1193 9.5 15.5H11.5ZM12 15C12.2761 15 12.5 15.2239 12.5 15.5H14.5C14.5 14.1193 13.3807 13 12 13V15Z" fill="#555770"/>
</svg>
