<svg width="24" height="24" viewBox="0 0 24 24" fill="none" xmlns="http://www.w3.org/2000/svg">
<path d="M4.8947 8.60287V7.60287H3.8947V8.60287H4.8947ZM14.6745 8.60287V7.60287H13.6619L13.6746 8.61541L14.6745 8.60287ZM9.78748 7.56823C10.1013 7.11377 9.9873 6.49096 9.53284 6.17713C9.07838 5.86331 8.45557 5.97731 8.14174 6.43177L9.78748 7.56823ZM14.6745 5.20129L13.6814 5.31851C13.7237 5.67726 13.9563 5.98527 14.2897 6.12428C14.6231 6.26329 15.0056 6.21168 15.2902 5.98926L14.6745 5.20129ZM7.63566 4.6441L6.91532 5.33771C7.16406 5.59604 7.53208 5.70139 7.87983 5.61383C8.22759 5.52627 8.50183 5.25919 8.59858 4.91388L7.63566 4.6441ZM9.3 11.045L8.58225 11.7413L8.58225 11.7413L9.3 11.045ZM12.9 11.6991L12.4683 10.7971L12.9 11.6991ZM13.2918 11.4737L12.7289 10.6472L12.7289 10.6472L13.2918 11.4737ZM8.96461 10.6364L9.78748 10.0681L9.78748 10.0681L8.96461 10.6364ZM15.3158 21H6.78944V23H15.3158V21ZM17.4 12.045H18.3474V10.045H17.4V12.045ZM20 14V16H22V14H20ZM16.4 11.045V19H18.4V11.045H16.4ZM16.4 19V20.0861H18.4V19H16.4ZM18.3474 18H17.4V20H18.3474V18ZM20 16C20 17.1963 19.2147 18 18.3474 18V20C20.6193 20 22 17.9748 22 16H20ZM18.3474 12.045C19.2323 12.045 20 12.8244 20 14H22C22 12.0046 20.6017 10.045 18.3474 10.045V12.045ZM6.78944 21C6.30474 21 5.8947 20.6003 5.8947 20.0861H3.8947C3.8947 21.6859 5.18127 23 6.78944 23V21ZM15.3158 23C16.1036 23 16.8564 22.6823 17.4141 22.1874C17.9746 21.6899 18.4 20.954 18.4 20.0861H16.4C16.4 20.2752 16.3065 20.4963 16.0865 20.6915C15.8637 20.8892 15.5743 21 15.3158 21V23ZM4 6.54546C4 5.58201 4.77057 4.81818 5.7 4.81818V2.81818C3.64709 2.81818 2 4.49644 2 6.54546H4ZM16.05 5.72727C16.7309 5.72727 17.3 6.28759 17.3 7H19.3C19.3 5.20202 17.8544 3.72727 16.05 3.72727V5.72727ZM15.2902 5.98926C15.5016 5.82405 15.7638 5.72727 16.05 5.72727V3.72727C15.3002 3.72727 14.608 3.98418 14.0588 4.41332L15.2902 5.98926ZM11.1 3C12.4217 3 13.5263 4.00489 13.6814 5.31851L15.6676 5.08406C15.397 2.7913 13.4632 1 11.1 1V3ZM5.7 4.81818C6.17476 4.81818 6.60435 5.01476 6.91532 5.33771L8.356 3.95048C7.68588 3.25453 6.74352 2.81818 5.7 2.81818V4.81818ZM8.59858 4.91388C8.90998 3.80244 9.91832 3 11.1 3V1C8.98635 1 7.21644 2.43373 6.67274 4.37431L8.59858 4.91388ZM17.3 7C17.3 7.32068 17.2474 7.47732 17.2107 7.54493C17.1892 7.58458 17.1609 7.62464 17.0496 7.66626L17.7504 9.53948C18.2786 9.34186 18.7003 8.99367 18.9689 8.49828C19.2224 8.03084 19.3 7.50567 19.3 7H17.3ZM16.4 8.60287V11.045H18.4V8.60287H16.4ZM9.4 8.81818C9.4 8.76786 9.40166 8.71808 9.40492 8.66888L7.40928 8.53686C7.40312 8.62997 7.4 8.72378 7.4 8.81818H9.4ZM9.40492 8.66888C9.43196 8.26013 9.56953 7.88385 9.78748 7.56823L8.14174 6.43177C7.72409 7.03658 7.46078 7.75839 7.40928 8.53686L9.40492 8.66888ZM4.8947 9.60287H8.4071V7.60287H4.8947V9.60287ZM14.6745 9.60287H17.4V7.60287H14.6745V9.60287ZM5.19533 8.19562C4.50722 7.97872 4 7.32508 4 6.54546H2C2 8.21168 3.08649 9.62789 4.59407 10.1031L5.19533 8.19562ZM5.8947 20.0861V9.14936H3.8947V20.0861H5.8947ZM5.8947 9.14936V8.60287H3.8947V9.14936H5.8947ZM11.55 11C10.9516 11 10.41 10.7531 10.0177 10.3487L8.58225 11.7413C9.33343 12.5156 10.3856 13 11.55 13V11ZM12.4683 10.7971C12.197 10.9269 11.887 11 11.55 11V13C12.1797 13 12.7855 12.8626 13.3317 12.6011L12.4683 10.7971ZM13.6746 8.61541C13.6868 9.58787 13.2755 10.2749 12.7289 10.6472L13.8548 12.3002C14.9998 11.5202 15.6943 10.178 15.6744 8.59033L13.6746 8.61541ZM12.7289 10.6472C12.6462 10.7035 12.5591 10.7536 12.4683 10.7971L13.3317 12.6011C13.5136 12.5141 13.6884 12.4135 13.8548 12.3002L12.7289 10.6472ZM12.2918 11.4737V18.3636H14.2918V11.4737H12.2918ZM10.0177 10.3487C9.93359 10.2619 9.85651 10.1681 9.78748 10.0681L8.14174 11.2046C8.27375 11.3958 8.42118 11.5753 8.58225 11.7413L10.0177 10.3487ZM9.78748 10.0681C9.54361 9.71498 9.4 9.28543 9.4 8.81818H7.4C7.4 9.70298 7.67382 10.527 8.14174 11.2046L9.78748 10.0681ZM7.96461 10.6364V18.3636H9.96461V10.6364H7.96461Z" fill="#555770"/>
</svg>
