<svg width="24" height="24" viewBox="0 0 24 24" fill="none" xmlns="http://www.w3.org/2000/svg">
<path d="M14.1842 2.0525L15.1328 1.73627L14.1842 2.0525ZM14.3598 8.79985L13.7196 9.56807L14.3598 8.79985ZM8.07945 10.1005L7.43926 9.33224L8.07945 10.1005ZM8.71963 10.8687L10.2804 9.56807L9 8.03162L7.43926 9.33224L8.71963 10.8687ZM11 8.03163V3.67748H9V8.03163H11ZM10.6162 2.81378L10.7645 2.36872L8.86715 1.73627L8.7188 2.18132L10.6162 2.81378ZM16.5607 9.33224L15 8.03162L13.7196 9.56807L15.2804 10.8687L16.5607 9.33224ZM15 8.03163V3.67748H13V8.03163H15ZM15.2812 2.18132L15.1328 1.73627L13.2355 2.36872L13.3838 2.81378L15.2812 2.18132ZM16 21H8V23H16V21ZM10.5824 2.5H13.4176V0.5H10.5824V2.5ZM8 13.5V12.4051H6V13.5H8ZM18 13.5V12.4051H16V13.5H18ZM7 14.5H17V12.5H7V14.5ZM8 21V18.5H6V21H8ZM8 18.5V13.5H6V18.5H8ZM18 21V18.5H16V21H18ZM18 18.5V13.5H16V18.5H18ZM7 19.5H17V17.5H7V19.5ZM15.1328 1.73627C14.8868 0.997981 14.1958 0.5 13.4176 0.5V2.5C13.335 2.5 13.2616 2.44712 13.2355 2.36872L15.1328 1.73627ZM14.8326 4.08161C15.33 3.58426 15.5036 2.84859 15.2812 2.18132L13.3838 2.81378C13.3667 2.76238 13.3801 2.70571 13.4184 2.6674L14.8326 4.08161ZM15 3.67748C15 3.82906 14.9398 3.97443 14.8326 4.08161L13.4184 2.6674C13.1505 2.93529 13 3.29862 13 3.67748H15ZM15 8.03162L15 8.03163H13C13 8.62518 13.2636 9.18808 13.7196 9.56807L15 8.03162ZM15.2804 10.8687C15.7364 11.2487 16 11.8116 16 12.4051H18C18 11.218 17.4727 10.0922 16.5607 9.33224L15.2804 10.8687ZM16 23C17.1046 23 18 22.1046 18 21H16L16 21V23ZM10.7645 2.36872C10.7384 2.44712 10.665 2.5 10.5824 2.5V0.5C9.80416 0.5 9.11325 0.997981 8.86715 1.73627L10.7645 2.36872ZM10.5816 2.6674C10.6199 2.70571 10.6333 2.76238 10.6162 2.81378L8.7188 2.18132C8.49638 2.84859 8.67004 3.58426 9.1674 4.08161L10.5816 2.6674ZM11 3.67748C11 3.29862 10.8495 2.93529 10.5816 2.6674L9.1674 4.08161C9.06021 3.97443 9 3.82906 9 3.67748H11ZM10.2804 9.56807C10.7364 9.18808 11 8.62518 11 8.03163H9L9 8.03162L10.2804 9.56807ZM7.43926 9.33224C6.52729 10.0922 6 11.218 6 12.4051H8C8 11.8116 8.26365 11.2487 8.71963 10.8687L7.43926 9.33224ZM8 21L8 21H6C6 22.1046 6.89543 23 8 23V21Z" fill="#555770"/>
</svg>
