<svg width="24" height="24" viewBox="0 0 24 24" fill="none" xmlns="http://www.w3.org/2000/svg">
<path d="M14.1842 2.0525L15.1328 1.73627L14.1842 2.0525ZM14.1258 8.22652L15 7.74087L14.1258 8.22652ZM15.9966 11.5939L15.1225 12.0796L15.9966 11.5939ZM9.87416 8.22652L10.7483 8.71216L9.87416 8.22652ZM8.87753 12.0796L10.7483 8.71216L9 7.74087L7.12921 11.1083L8.87753 12.0796ZM11 7.74087V3.67748H9V7.74087H11ZM10.6162 2.81378L10.7645 2.36872L8.86715 1.73627L8.7188 2.18132L10.6162 2.81378ZM16.8708 11.1083L15 7.74087L13.2517 8.71216L15.1225 12.0796L16.8708 11.1083ZM15 7.74087V3.67748H13V7.74087H15ZM15.2812 2.18132L15.1328 1.73627L13.2355 2.36872L13.3838 2.81378L15.2812 2.18132ZM15.5 21H8.5V23H15.5V21ZM10.5824 2.5H13.4176V0.5H10.5824V2.5ZM8.5 21V18.5H6.5V21H8.5ZM17.5 21V18.5H15.5V21H17.5ZM7.5 19.5H12V17.5H7.5V19.5ZM12 19.5H16.5V17.5H12V19.5ZM8.5 18.5V14H6.5V18.5H8.5ZM8.5 14V13.5365H6.5V14H8.5ZM8.0547 14.8321L8.1171 14.7905L7.0077 13.1264L6.9453 13.1679L8.0547 14.8321ZM17.5 18.5V14H15.5V18.5H17.5ZM17.5 14V13.5365H15.5V14H17.5ZM15.8829 14.7905L15.9453 14.8321L17.0547 13.1679L16.9923 13.1264L15.8829 14.7905ZM8.1171 14.7905C10.4684 13.2229 13.5316 13.2229 15.8829 14.7905L16.9923 13.1264C13.9692 11.111 10.0308 11.111 7.0077 13.1264L8.1171 14.7905ZM15.1328 1.73627C14.8868 0.997981 14.1958 0.5 13.4176 0.5V2.5C13.335 2.5 13.2616 2.44712 13.2355 2.36872L15.1328 1.73627ZM14.8326 4.08161C15.33 3.58426 15.5036 2.84859 15.2812 2.18132L13.3838 2.81378C13.3667 2.76238 13.3801 2.70571 13.4184 2.6674L14.8326 4.08161ZM15 3.67748C15 3.82906 14.9398 3.97443 14.8326 4.08161L13.4184 2.6674C13.1505 2.93529 13 3.29863 13 3.67748H15ZM15 7.74087L15 7.74087H13C13 8.08076 13.0866 8.41504 13.2517 8.71216L15 7.74087ZM15.1225 12.0796C15.3701 12.5252 15.5 13.0267 15.5 13.5365H17.5C17.5 12.6868 17.2834 11.8511 16.8708 11.1083L15.1225 12.0796ZM15.5 23C16.6046 23 17.5 22.1046 17.5 21H15.5L15.5 21V23ZM10.7645 2.36872C10.7384 2.44712 10.665 2.5 10.5824 2.5V0.5C9.80416 0.5 9.11325 0.997981 8.86715 1.73627L10.7645 2.36872ZM10.5816 2.6674C10.6199 2.70571 10.6333 2.76238 10.6162 2.81378L8.7188 2.18132C8.49638 2.84859 8.67004 3.58426 9.1674 4.08161L10.5816 2.6674ZM11 3.67748C11 3.29863 10.8495 2.93529 10.5816 2.6674L9.1674 4.08161C9.06021 3.97443 9 3.82906 9 3.67748H11ZM10.7483 8.71216C10.9134 8.41504 11 8.08076 11 7.74087H9L9 7.74087L10.7483 8.71216ZM7.12921 11.1083C6.71655 11.8511 6.5 12.6868 6.5 13.5365H8.5C8.5 13.0267 8.62993 12.5252 8.87753 12.0796L7.12921 11.1083ZM8.5 21L8.5 21H6.5C6.5 22.1046 7.39543 23 8.5 23V21Z" fill="#555770"/>
</svg>
