<svg width="24" height="24" viewBox="0 0 24 24" fill="none" xmlns="http://www.w3.org/2000/svg">
<path d="M21.1401 7.61539L20.433 6.90828L20.433 6.90828L21.1401 7.61539ZM7.61532 21.1402L8.32242 21.8473L8.32242 21.8473L7.61532 21.1402ZM11.0264 4.76341L10.4953 3.91615L11.0264 4.76341ZM17.3275 2.34127L17.5116 3.32419L17.3275 2.34127ZM20.433 6.90828L6.90821 20.433L8.32242 21.8473L21.8472 8.32249L20.433 6.90828ZM20.3705 4.10231C20.6506 4.43979 20.867 4.97863 20.8936 5.545C20.9196 6.10085 20.7614 6.57986 20.433 6.90828L21.8472 8.32249C22.6652 7.50446 22.937 6.42577 22.8914 5.45147C22.8463 4.48768 22.4895 3.52392 21.9096 2.82513L20.3705 4.10231ZM2.82513 21.9098C3.52392 22.4895 4.48764 22.8463 5.45142 22.8914C6.42571 22.937 7.50438 22.6653 8.32242 21.8473L6.90821 20.433C6.5798 20.7615 6.10082 20.9196 5.54497 20.8936C4.97862 20.8671 4.43973 20.6506 4.10217 20.3705L2.82513 21.9098ZM5.93665 10.5902C7.70435 8.82253 10.2997 9.00236 12.0249 10.7275L13.4391 9.31325C11.0397 6.91386 7.17384 6.52461 4.52243 9.17602L5.93665 10.5902ZM3.68591 13.9393C5.07235 13.521 6.59971 13.9061 7.77844 15.0849L9.19266 13.6707C7.53833 12.0163 5.25965 11.3754 3.10824 12.0245L3.68591 13.9393ZM3.39284 16.6097C3.63843 15.3896 3.95526 14.2123 4.31524 13.3781L2.47891 12.5857C2.03725 13.6092 1.68782 14.945 1.43217 16.215L3.39284 16.6097ZM4.31524 13.3781C5.55107 10.5141 8.57779 7.47883 11.5576 5.61067L10.4953 3.91615C7.30264 5.91772 3.92718 9.22934 2.47891 12.5857L4.31524 13.3781ZM11.5576 5.61067C13.5443 4.36513 15.4048 3.71863 17.5116 3.32419L17.1435 1.35835C14.8276 1.79194 12.7243 2.5187 10.4953 3.91615L11.5576 5.61067ZM11.2393 5.7405C12.7791 5.40509 14.5775 5.99165 15.7929 7.20709L17.2071 5.79288C15.5713 4.1571 13.0989 3.28855 10.8136 3.78632L11.2393 5.7405ZM21.9096 2.82513C20.6843 1.3485 18.7646 1.05484 17.1435 1.35835L17.5116 3.32419C18.7037 3.10099 19.7682 3.37643 20.3705 4.10231L21.9096 2.82513ZM4.10217 20.3705C3.23347 19.6498 3.06396 18.2435 3.39284 16.6097L1.43217 16.215C1.07973 17.9659 1.03672 20.426 2.82513 21.9098L4.10217 20.3705Z" fill="#555770"/>
</svg>
