<svg width="24" height="24" viewBox="0 0 24 24" fill="none" xmlns="http://www.w3.org/2000/svg">
<path d="M16.6061 8.27876L16.3473 7.31283L16.6061 8.27876ZM11 6.67507L10.0255 6.45056L9.90628 6.96813L10.2683 7.35674L11 6.67507ZM15.0532 2.4832L14.7944 1.51728L15.0532 2.4832ZM20.6593 4.08688L21.6337 4.31139L21.753 3.79382L21.3909 3.40522L20.6593 4.08688ZM8 17.5C8 18.8807 6.88071 20 5.5 20V22C7.98528 22 10 19.9853 10 17.5H8ZM5.5 20C4.11929 20 3 18.8807 3 17.5H1C1 19.9853 3.01472 22 5.5 22V20ZM3 17.5C3 16.1193 4.11929 15 5.5 15V13C3.01472 13 1 15.0147 1 17.5H3ZM5.5 15C6.88071 15 8 16.1193 8 17.5H10C10 15.0147 7.98528 13 5.5 13V15ZM21 17.5C21 18.8807 19.8807 20 18.5 20V22C20.9853 22 23 19.9853 23 17.5H21ZM18.5 20C17.1193 20 16 18.8807 16 17.5H14C14 19.9853 16.0147 22 18.5 22V20ZM16 17.5C16 16.1193 17.1193 15 18.5 15V13C16.0147 13 14 15.0147 14 17.5H16ZM18.5 15C19.8807 15 21 16.1193 21 17.5H23C23 15.0147 20.9853 13 18.5 13V15ZM6.5 14C6.5 12.3858 7.6893 9.33634 11.1644 6.24739L9.83564 4.75257C6.1107 8.06362 4.5 11.6141 4.5 14H6.5ZM9.55826 5.83632C10.4667 8.37984 12.9929 12.3645 18.0528 14.8944L18.9472 13.1055C14.4071 10.8355 12.2 7.28679 11.4417 5.16364L9.55826 5.83632ZM11.5 5.49998V2.99998H9.5V5.49998H11.5ZM16.3473 7.31283C14.6219 7.77513 12.8654 7.21031 11.7317 5.99341L10.2683 7.35674C11.8888 9.09607 14.4003 9.90506 16.8649 9.24468L16.3473 7.31283ZM11.9745 6.89958C12.3479 5.27884 13.5867 3.91143 15.312 3.44913L14.7944 1.51728C12.3298 2.17766 10.5592 4.13402 10.0255 6.45056L11.9745 6.89958ZM19.6848 3.86237C19.3114 5.48312 18.0726 6.85053 16.3473 7.31283L16.8649 9.24468C19.3295 8.5843 21.1 6.62794 21.6337 4.31139L19.6848 3.86237ZM15.312 3.44913C17.0373 2.98683 18.7938 3.55165 19.9276 4.76855L21.3909 3.40522C19.7704 1.66589 17.2589 0.856894 14.7944 1.51728L15.312 3.44913Z" fill="#555770"/>
</svg>
