<svg width="24" height="24" viewBox="0 0 24 24" fill="none" xmlns="http://www.w3.org/2000/svg">
<path d="M5 13V12H3.67427L4.03848 13.2747L5 13ZM7 20L6.03848 20.2747L6.2457 21H7V20ZM17 20V21H17.7543L17.9615 20.2747L17 20ZM19 13L19.9615 13.2747L20.3257 12H19V13ZM10.0274 5.3318L11.0137 5.16711L10.0274 5.3318ZM17 11C17 11.5862 16.8995 12.1467 16.7157 12.6668L18.6014 13.3332C18.8598 12.6021 19 11.8164 19 11H17ZM7.28425 12.6668C7.10045 12.1467 7 11.5862 7 11H5C5 11.8164 5.14016 12.6021 5.39857 13.3332L7.28425 12.6668ZM6.34141 12H5V14H6.34141V12ZM4.03848 13.2747L6.03848 20.2747L7.96152 19.7253L5.96152 12.7253L4.03848 13.2747ZM17.9615 20.2747L19.9615 13.2747L18.0385 12.7253L16.0385 19.7253L17.9615 20.2747ZM19 12H17.6586V14H19V12ZM11 13V20H13V13H11ZM12 12H8.5V14H12V12ZM8.5 12H6.34141V14H8.5V12ZM7 21H9.5V19H7V21ZM9.5 21H12V19H9.5V21ZM7.51005 13.1414L8.51005 20.1414L10.4899 19.8586L9.48995 12.8586L7.51005 13.1414ZM17.6586 12H15.5V14H17.6586V12ZM15.5 12H12V14H15.5V12ZM12 21H14.5V19H12V21ZM14.5 21H17V19H14.5V21ZM14.5101 12.8586L13.5101 19.8586L15.4899 20.1414L16.4899 13.1414L14.5101 12.8586ZM11 5C11 4.44772 11.4477 4 12 4V2C10.3431 2 9 3.34315 9 5H11ZM12 4C12.5523 4 13 4.44772 13 5H15C15 3.34315 13.6569 2 12 2V4ZM13 5C13 5.05763 12.9952 5.1134 12.9863 5.16711L14.9589 5.49649C14.986 5.33437 15 5.16844 15 5H13ZM12.9863 5.16711C12.9074 5.63968 12.4948 6 12 6V8C13.4883 8 14.7217 6.91724 14.9589 5.49649L12.9863 5.16711ZM13.644 6.27626C15.5992 6.95661 17 8.816 17 11H19C19 7.93867 17.0354 5.33877 14.3012 4.38735L13.644 6.27626ZM12 6C11.5052 6 11.0926 5.63968 11.0137 5.16711L9.04105 5.49649C9.27827 6.91724 10.5117 8 12 8V6ZM11.0137 5.16711C11.0048 5.1134 11 5.05764 11 5H9C9 5.16844 9.01398 5.33436 9.04105 5.49649L11.0137 5.16711ZM7 11C7 8.816 8.40085 6.95661 10.356 6.27626L9.69875 4.38735C6.96458 5.33877 5 7.93867 5 11H7Z" fill="#555770"/>
</svg>
