<svg width="24" height="24" viewBox="0 0 24 24" fill="none" xmlns="http://www.w3.org/2000/svg">
<path d="M12 7.36926L12.7071 6.66216L12 5.95505L11.2929 6.66216L12 7.36926ZM7.36926 12L6.66216 11.2929L5.95505 12L6.66216 12.7071L7.36926 12ZM12 16.6307L11.2929 17.3378L12 18.0449L12.7071 17.3378L12 16.6307ZM16.6307 12L17.3378 12.7071L18.0449 12L17.3378 11.2929L16.6307 12ZM11.2929 6.66216L6.66216 11.2929L8.07637 12.7071L12.7071 8.07637L11.2929 6.66216ZM12.7071 15.9236L8.07637 11.2929L6.66216 12.7071L11.2929 17.3378L12.7071 15.9236ZM11.2929 8.07637L15.9236 12.7071L17.3378 11.2929L12.7071 6.66216L11.2929 8.07637ZM15.9236 11.2929L11.2929 15.9236L12.7071 17.3378L17.3378 12.7071L15.9236 11.2929ZM5 2H19V0H5V2ZM19 2V22H21V2H19ZM19 22H5V24H19V22ZM5 22V2H3V22H5ZM5 22H3C3 23.1046 3.89543 24 5 24V22ZM19 22V24C20.1046 24 21 23.1046 21 22H19ZM19 2H21C21 0.895431 20.1046 0 19 0V2ZM5 0C3.89543 0 3 0.895431 3 2H5V2V0Z" fill="#555770"/>
</svg>
