<svg width="24" height="24" viewBox="0 0 24 24" fill="none" xmlns="http://www.w3.org/2000/svg">
<path d="M14.1695 2L14.8766 1.29289L14.1695 0.585786L13.4624 1.29289L14.1695 2ZM22 9.83051L22.7071 10.5376L23.4142 9.83051L22.7071 9.1234L22 9.83051ZM10.9661 13.0339L11.6732 12.3268L11.6732 12.3268L10.9661 13.0339ZM0.792892 21.7929C0.402368 22.1834 0.402368 22.8166 0.792892 23.2071C1.18342 23.5976 1.81658 23.5976 2.20711 23.2071L0.792892 21.7929ZM9.17217 11.24L9.87928 10.5329L9.17217 11.24ZM12.76 14.8278L12.0529 15.5349L12.76 14.8278ZM14.5302 5.20815L10.259 9.47933L11.6732 10.8935L15.9444 6.62236L14.5302 5.20815ZM17.3776 8.05561L13.1065 12.3268L14.5207 13.741L18.7919 9.46982L17.3776 8.05561ZM13.4624 2.70711L21.2929 10.5376L22.7071 9.1234L14.8766 1.29289L13.4624 2.70711ZM21.2929 9.1234L16.2956 14.1207L17.7098 15.5349L22.7071 10.5376L21.2929 9.1234ZM9.87928 7.70443L14.8766 2.70711L13.4624 1.29289L8.46506 6.29022L9.87928 7.70443ZM10.259 12.3268L0.792892 21.7929L2.20711 23.2071L11.6732 13.741L10.259 12.3268ZM13.4671 14.1207L11.6732 12.3268L10.259 13.741L12.0529 15.5349L13.4671 14.1207ZM11.6732 12.3268L9.87928 10.5329L8.46506 11.9471L10.259 13.741L11.6732 12.3268ZM8.46506 6.29022C6.90296 7.85231 6.90297 10.385 8.46506 11.9471L9.87928 10.5329C9.09823 9.75181 9.09823 8.48548 9.87928 7.70443L8.46506 6.29022ZM16.2956 14.1207C15.5145 14.9018 14.2482 14.9018 13.4671 14.1207L12.0529 15.5349C13.615 17.097 16.1477 17.097 17.7098 15.5349L16.2956 14.1207Z" fill="#555770"/>
</svg>
