<svg width="24" height="24" viewBox="0 0 24 24" fill="none" xmlns="http://www.w3.org/2000/svg">
<path d="M17.9171 9L18.9033 9.16546L19.0988 8H17.9171V9ZM6.08301 9V8H4.90126L5.09679 9.16546L6.08301 9ZM13.3979 13.8363L13.1658 12.8636L13.1658 12.8636L13.3979 13.8363ZM15.7288 17.456L16.3648 18.2276L16.3648 18.2276L15.7288 17.456ZM10.6022 13.8363L10.8343 12.8636L10.8343 12.8636L10.6022 13.8363ZM5.15866 20.4595C4.86015 20.9242 4.99484 21.5428 5.4595 21.8413C5.92416 22.1399 6.54283 22.0052 6.84134 21.5405L5.15866 20.4595ZM17.9171 8H6.08301V10H17.9171V8ZM18 19C18 19.5523 17.5523 20 17 20V22C18.6569 22 20 20.6569 20 19H18ZM17 20C16.4478 20 16 19.5523 16 19H14C14 20.6569 15.3432 22 17 22V20ZM17 18C17.5523 18 18 18.4477 18 19H20C20 17.3431 18.6569 16 17 16V18ZM16.9309 8.83454C16.5988 10.8142 15.0997 12.4021 13.1658 12.8636L13.63 14.809C16.3401 14.1623 18.4374 11.9425 18.9033 9.16546L16.9309 8.83454ZM13.1658 12.8636C12.7928 12.9526 12.4026 13 12 13V15C12.5601 15 13.1061 14.934 13.63 14.809L13.1658 12.8636ZM16 19C16 18.6895 16.1404 18.4126 16.3648 18.2276L15.0927 16.6843C14.4271 17.233 14 18.067 14 19H16ZM16.3648 18.2276C16.5379 18.0849 16.7577 18 17 18V16C16.2767 16 15.6108 16.2573 15.0927 16.6843L16.3648 18.2276ZM12.5572 14.3777L14.888 17.9974L16.5695 16.9146L14.2387 13.2949L12.5572 14.3777ZM12 13C11.5975 13 11.2073 12.9526 10.8343 12.8636L10.3701 14.809C10.894 14.934 11.44 15 12 15V13ZM10.8343 12.8636C8.9004 12.4021 7.40134 10.8142 7.06923 8.83454L5.09679 9.16546C5.56268 11.9425 7.65996 14.1623 10.3701 14.809L10.8343 12.8636ZM9.76083 13.2958L6.44352 18.4595L8.1262 19.5405L11.4435 14.3768L9.76083 13.2958ZM6.44352 18.4595L5.15866 20.4595L6.84134 21.5405L8.1262 19.5405L6.44352 18.4595ZM7.28486 20H15V18H7.28486V20Z" fill="#555770"/>
<path d="M9.29398 4.5268L9.64752 4.17324L9.29398 4.5268ZM11.794 4.5268L12.1475 4.17324L11.794 4.5268ZM14.294 4.5268L14.6475 4.17324L14.294 4.5268ZM8.02248 2.00002C8.02249 2.20064 7.96398 2.7102 8.03927 3.18962C8.12301 3.72292 8.36318 4.30315 8.94044 4.88037L9.64752 4.17324C9.22471 3.75045 9.07914 3.36549 9.02716 3.03449C8.96672 2.64961 9.0225 2.39577 9.02248 1.99998L8.02248 2.00002ZM8.94044 4.88037C9.36065 5.30055 9.47277 5.6804 9.49617 5.99681C9.50862 6.16502 9.49659 6.32691 9.4779 6.49097C9.46196 6.63075 9.43076 6.8376 9.43076 6.99907H10.4308C10.4308 6.91331 10.4474 6.81499 10.4715 6.6042C10.4927 6.4177 10.5127 6.18363 10.4935 5.92305C10.4534 5.38188 10.2472 4.77282 9.64752 4.17324L8.94044 4.88037ZM10.5225 2.00002C10.5225 2.20064 10.464 2.7102 10.5393 3.18962C10.623 3.72292 10.8632 4.30315 11.4404 4.88037L12.1475 4.17324C11.7247 3.75045 11.5791 3.36549 11.5272 3.03449C11.4667 2.64961 11.5225 2.39577 11.5225 1.99998L10.5225 2.00002ZM11.4404 4.88037C11.8607 5.30055 11.9728 5.6804 11.9962 5.99681C12.0086 6.16502 11.9966 6.32691 11.9779 6.49097C11.962 6.63075 11.9308 6.8376 11.9308 6.99907H12.9308C12.9308 6.91331 12.9474 6.81499 12.9715 6.6042C12.9927 6.4177 13.0127 6.18363 12.9935 5.92305C12.9534 5.38188 12.7472 4.77282 12.1475 4.17324L11.4404 4.88037ZM13.0225 2.00002C13.0225 2.20064 12.964 2.7102 13.0393 3.18962C13.123 3.72292 13.3632 4.30315 13.9404 4.88037L14.6475 4.17324C14.2247 3.75045 14.0791 3.36549 14.0272 3.03449C13.9667 2.64961 14.0225 2.39577 14.0225 1.99998L13.0225 2.00002ZM13.9404 4.88037C14.3607 5.30055 14.4728 5.6804 14.4962 5.99681C14.5086 6.16502 14.4966 6.32691 14.4779 6.49097C14.462 6.63075 14.4308 6.8376 14.4308 6.99907H15.4308C15.4308 6.91331 15.4474 6.81499 15.4715 6.6042C15.4927 6.4177 15.5127 6.18363 15.4935 5.92305C15.4534 5.38188 15.2472 4.77282 14.6475 4.17324L13.9404 4.88037Z" fill="#555770"/>
</svg>
