<svg width="24" height="24" viewBox="0 0 24 24" fill="none" xmlns="http://www.w3.org/2000/svg">
<path d="M7.6102 11.9495L8.37055 11.3L8.37055 11.3L7.6102 11.9495ZM12 16.6307L11.2765 17.321L12 18.0794L12.7236 17.321L12 16.6307ZM16.3898 11.9495L15.6295 11.3L15.6295 11.3L16.3898 11.9495ZM7.92114 9.91743C7.92114 9.05916 8.6136 8.36926 9.46058 8.36926V6.36926C7.50257 6.36926 5.92114 7.96107 5.92114 9.91743H7.92114ZM9.46058 8.36926C10.3075 8.36926 11 9.05916 11 9.91743H13C13 7.96107 11.4186 6.36926 9.46058 6.36926V8.36926ZM8.37055 11.3C8.14301 11.0337 8.04065 10.8032 7.98791 10.6054C7.9319 10.3952 7.92114 10.1851 7.92114 9.91743H5.92114C5.92114 10.5806 5.96957 11.5685 6.84984 12.599L8.37055 11.3ZM6.84984 12.599C7.19606 13.0044 8.31691 14.1989 9.32237 15.2627C9.83133 15.8012 10.3198 16.3157 10.6809 16.6955C10.8615 16.8854 11.0103 17.0417 11.114 17.1506C11.1659 17.205 11.2064 17.2476 11.2341 17.2765C11.2479 17.291 11.2585 17.3021 11.2656 17.3096C11.2692 17.3133 11.2719 17.3162 11.2737 17.3181C11.2746 17.319 11.2753 17.3198 11.2757 17.3202C11.276 17.3205 11.2762 17.3207 11.2763 17.3208C11.2763 17.3209 11.2764 17.3209 11.2764 17.3209C11.2764 17.321 11.2765 17.321 12 16.6307C12.7236 15.9405 12.7236 15.9404 12.7235 15.9404C12.7235 15.9404 12.7235 15.9403 12.7234 15.9403C12.7233 15.9402 12.7231 15.94 12.7229 15.9398C12.7225 15.9393 12.7218 15.9386 12.7209 15.9377C12.7191 15.9358 12.7165 15.933 12.7129 15.9293C12.7059 15.9219 12.6954 15.9109 12.6816 15.8965C12.6542 15.8677 12.6138 15.8253 12.5621 15.7711C12.4588 15.6626 12.3104 15.5068 12.1303 15.3173C11.77 14.9384 11.283 14.4255 10.7759 13.8889C9.7491 12.8025 8.67505 11.6565 8.37055 11.3L6.84984 12.599ZM18.0789 9.91743C18.0789 7.96107 16.4974 6.36926 14.5394 6.36926V8.36926C15.3864 8.36926 16.0789 9.05916 16.0789 9.91743H18.0789ZM14.5394 6.36926C12.5814 6.36926 11 7.96107 11 9.91743H13C13 9.05916 13.6925 8.36926 14.5394 8.36926V6.36926ZM17.1502 12.599C18.0304 11.5685 18.0789 10.5806 18.0789 9.91743H16.0789C16.0789 10.1851 16.0681 10.3952 16.0121 10.6054C15.9594 10.8032 15.857 11.0337 15.6295 11.3L17.1502 12.599ZM15.6295 11.3C15.325 11.6565 14.2509 12.8025 13.2241 13.8889C12.717 14.4255 12.23 14.9384 11.8697 15.3173C11.6896 15.5068 11.5412 15.6626 11.4379 15.7711C11.3862 15.8253 11.3458 15.8677 11.3184 15.8965C11.3046 15.9109 11.2941 15.9219 11.2871 15.9293C11.2836 15.933 11.2809 15.9358 11.2791 15.9377C11.2782 15.9386 11.2776 15.9393 11.2771 15.9398C11.2769 15.94 11.2767 15.9402 11.2766 15.9403C11.2766 15.9403 11.2765 15.9404 11.2765 15.9404C11.2765 15.9404 11.2765 15.9405 12 16.6307C12.7236 17.321 12.7236 17.321 12.7236 17.3209C12.7236 17.3209 12.7237 17.3209 12.7237 17.3208C12.7239 17.3207 12.724 17.3205 12.7243 17.3202C12.7247 17.3198 12.7254 17.319 12.7263 17.3181C12.7281 17.3162 12.7309 17.3133 12.7344 17.3096C12.7416 17.3021 12.7521 17.291 12.7659 17.2765C12.7936 17.2476 12.8341 17.205 12.886 17.1506C12.9897 17.0417 13.1385 16.8854 13.3191 16.6955C13.6802 16.3157 14.1687 15.8012 14.6776 15.2627C15.6831 14.1989 16.804 13.0044 17.1502 12.599L15.6295 11.3ZM5 2H19V0H5V2ZM19 2V22H21V2H19ZM19 22H5V24H19V22ZM5 22V2H3V22H5ZM5 22H3C3 23.1046 3.89543 24 5 24V22ZM19 22V24C20.1046 24 21 23.1046 21 22H19ZM19 2H21C21 0.895431 20.1046 0 19 0V2ZM5 0C3.89543 0 3 0.895431 3 2H5V2V0Z" fill="#555770"/>
</svg>
