<svg width="24" height="24" viewBox="0 0 24 24" fill="none" xmlns="http://www.w3.org/2000/svg">
<path d="M21 3V21H23V3H21ZM3 21V3H1V21H3ZM21 21H12V23H21V21ZM12 21H3V23H12V21ZM3 3H12V1H3V3ZM12 3H21V1H12V3ZM13 22V2H11V22H13ZM14.5 12H19.5V10H14.5V12ZM14.5 15.5H19.5V13.5H14.5V15.5ZM14.5 19H18V17H14.5V19ZM4.5 12H9.5V10H4.5V12ZM4.5 15.5H9.5V13.5H4.5V15.5ZM4.5 19H8V17H4.5V19ZM1 21C1 22.1046 1.89543 23 3 23V21H3H1ZM21 21V23C22.1046 23 23 22.1046 23 21H21ZM23 3C23 1.89543 22.1046 1 21 1V3H23ZM3 3V3V1C1.89543 1 1 1.89543 1 3H3ZM17 6V8C18.1046 8 19 7.10457 19 6H17ZM17 6H15C15 7.10457 15.8954 8 17 8V6ZM17 6V4C15.8954 4 15 4.89543 15 6H17ZM17 6H19C19 4.89543 18.1046 4 17 4V6ZM7 6V8C8.10457 8 9 7.10457 9 6H7ZM7 6H5C5 7.10457 5.89543 8 7 8V6ZM7 6V4C5.89543 4 5 4.89543 5 6H7ZM7 6H9C9 4.89543 8.10457 4 7 4V6Z" fill="#555770"/>
</svg>
