<svg width="24" height="24" viewBox="0 0 24 24" fill="none" xmlns="http://www.w3.org/2000/svg">
<path d="M4.53458 21.7929L3.82747 22.5L4.53458 21.7929ZM2.2071 18.0512L2.91421 18.7583L2.2071 18.0512ZM2.20711 19.4654L2.91421 18.7583L2.91421 18.7583L2.20711 19.4654ZM15.1794 3.99866C16.5109 2.66711 18.6698 2.66711 20.0013 3.99866L21.4155 2.58444C19.303 0.471853 15.8778 0.471853 13.7652 2.58444L15.1794 3.99866ZM20.0013 3.99866C21.3329 5.3302 21.3329 7.48905 20.0013 8.82059L21.4155 10.2348C23.5281 8.12222 23.5281 4.69703 21.4155 2.58444L20.0013 3.99866ZM15.1794 8.82059C14.3911 8.03227 14.0688 6.95474 14.2149 5.92649L12.2348 5.64507C12.004 7.26925 12.5133 8.98289 13.7652 10.2348L15.1794 8.82059ZM14.2149 5.92649C14.3152 5.22099 14.6358 4.54223 15.1794 3.99866L13.7652 2.58444C12.9049 3.44476 12.3939 4.52544 12.2348 5.64507L14.2149 5.92649ZM12.475 5.12418L3.12098 15.7259L4.62069 17.0491L13.9747 6.44739L12.475 5.12418ZM20.0013 8.82059C19.4578 9.36417 18.779 9.68484 18.0735 9.78511L18.3549 11.7652C19.4745 11.6061 20.5552 11.0951 21.4155 10.2348L20.0013 8.82059ZM18.0735 9.78511C17.0453 9.93124 15.9677 9.60892 15.1794 8.82059L13.7652 10.2348C15.0171 11.4867 16.7307 11.996 18.3549 11.7652L18.0735 9.78511ZM17.5526 10.0253L6.95092 19.3793L8.27413 20.879L18.8758 11.525L17.5526 10.0253ZM3.16373 15.6804L1.5 17.3441L2.91421 18.7583L4.57795 17.0946L3.16373 15.6804ZM1.5 20.1725L3.82747 22.5L5.24169 21.0858L2.91421 18.7583L1.5 20.1725ZM6.6559 22.5L8.31964 20.8363L6.90542 19.422L5.24169 21.0858L6.6559 22.5ZM11.8943 10.6914L9.39988 13.1859L10.8141 14.6001L13.3086 12.1057L11.8943 10.6914ZM3.16373 17.0946L6.90542 20.8363L8.31963 19.422L4.57794 15.6804L3.16373 17.0946ZM3.82747 22.5C4.60852 23.281 5.87486 23.281 6.6559 22.5L5.24169 21.0858L5.24169 21.0858L3.82747 22.5ZM1.5 17.3441C0.71895 18.1251 0.718951 19.3915 1.5 20.1725L2.91421 18.7583L2.91421 18.7583L1.5 17.3441Z" fill="#555770"/>
</svg>
