<svg width="24" height="24" viewBox="0 0 24 24" fill="none" xmlns="http://www.w3.org/2000/svg">
<path d="M18 9H19V8.58579L18.7071 8.29289L18 9ZM11.045 2.04501L10.9507 1.04947L11.045 2.04501ZM21 12C21 16.9706 16.9706 21 12 21V23C18.0751 23 23 18.0751 23 12H21ZM12 21C7.02944 21 3 16.9706 3 12H1C1 18.0751 5.92487 23 12 23V21ZM12 3C16.9706 3 21 7.02944 21 12H23C23 5.92487 18.0751 1 12 1V3ZM13 12C13 12.5523 12.5523 13 12 13V15C13.6569 15 15 13.6569 15 12H13ZM12 13C11.4477 13 11 12.5523 11 12H9C9 13.6569 10.3431 15 12 15V13ZM11 12C11 11.4477 11.4477 11 12 11V9C10.3431 9 9 10.3431 9 12H11ZM12 11C12.5523 11 13 11.4477 13 12H15C15 10.3431 13.6569 9 12 9V11ZM16.5 10.6V12.9H18.5V10.6H16.5ZM17.6 14H18.4V12H17.6V14ZM19.5 12.9V10.6H17.5V12.9H19.5ZM18.4 9.5H18V11.5H18.4V9.5ZM18 9.5H17.6V11.5H18V9.5ZM19 10.5V9H17V10.5H19ZM3 12C3 7.31992 6.573 3.47317 11.1393 3.04055L10.9507 1.04947C5.36726 1.57845 1 6.27862 1 12H3ZM11.1393 3.04055C11.4223 3.01374 11.7094 3 12 3V1C11.6463 1 11.2963 1.01672 10.9507 1.04947L11.1393 3.04055ZM18.7071 8.29289L11.7521 1.3379L10.3379 2.75212L17.2929 9.70711L18.7071 8.29289ZM19.5 10.6C19.5 9.99249 19.0075 9.5 18.4 9.5V11.5C17.9029 11.5 17.5 11.0971 17.5 10.6H19.5ZM18.4 14C19.0075 14 19.5 13.5075 19.5 12.9H17.5C17.5 12.4029 17.9029 12 18.4 12V14ZM16.5 12.9C16.5 13.5075 16.9925 14 17.6 14V12C18.0971 12 18.5 12.4029 18.5 12.9H16.5ZM18.5 10.6C18.5 11.0971 18.0971 11.5 17.6 11.5V9.5C16.9925 9.5 16.5 9.99249 16.5 10.6H18.5Z" fill="#555770"/>
</svg>
