<svg width="24" height="24" viewBox="0 0 24 24" fill="none" xmlns="http://www.w3.org/2000/svg">
<mask id="mask0_402_14976" style="mask-type:alpha" maskUnits="userSpaceOnUse" x="0" y="0" width="24" height="24">
<path d="M19.7839 19.7807L4 3.99675H0V24H24V0H5.69812V2.86644L21.1981 18.3664L19.7839 19.7807Z" fill="white"/>
</mask>
<g mask="url(#mask0_402_14976)">
<path d="M3.52441 4.94153L19.0244 20.4415" stroke="#555770" stroke-width="2"/>
<path d="M3 14V13H16V14H3Z" stroke="#555770" stroke-width="2"/>
<path d="M18.25 12V15H19.75V12H18.25ZM20.75 12V15H22.25V12H20.75ZM22.25 11V9H20.75V11H22.25ZM22.25 9C22.25 5.82436 19.6756 3.25 16.5 3.25V4.75C18.8472 4.75 20.75 6.65279 20.75 9H22.25ZM16.5 4.75H16.75V3.25H16.5V4.75ZM16.75 4.75C18.683 4.75 20.25 3.183 20.25 1.25H18.75C18.75 2.35457 17.8546 3.25 16.75 3.25V4.75ZM19.75 11V10H18.25V11H19.75ZM16 6.25H14.5V7.75H16V6.25ZM12.75 4.5C12.75 3.5335 13.5335 2.75 14.5 2.75V1.25C12.7051 1.25 11.25 2.70507 11.25 4.5H12.75ZM14.5 6.25C13.5335 6.25 12.75 5.4665 12.75 4.5H11.25C11.25 6.29493 12.7051 7.75 14.5 7.75V6.25ZM19.75 10C19.75 7.92893 18.0711 6.25 16 6.25V7.75C17.2426 7.75 18.25 8.75736 18.25 10H19.75Z" fill="#555770"/>
</g>
</svg>
