<svg width="24" height="24" viewBox="0 0 24 24" fill="none" xmlns="http://www.w3.org/2000/svg">
<path d="M3 5.26261L2.52564 4.38229L1.62279 4.86878L2.13193 5.75905L3 5.26261ZM12 21L11.1319 21.4964L12 23.0143L12.8681 21.4964L12 21ZM21 5.26261L21.8681 5.75905L22.3772 4.86878L21.4744 4.38228L21 5.26261ZM17.5127 11.3604L18.3808 11.8569L18.3808 11.8569L17.5127 11.3604ZM14.8612 15.9968L15.7293 16.4933L15.7293 16.4933L14.8612 15.9968ZM3.47436 6.14294C6.01099 4.77608 8.91338 4 12 4V2C8.5741 2 5.3466 2.86221 2.52564 4.38229L3.47436 6.14294ZM2.13193 5.75905L11.1319 21.4964L12.8681 20.5036L3.86807 4.76617L2.13193 5.75905ZM12 4C15.0866 4 17.989 4.77608 20.5256 6.14294L21.4744 4.38228C18.6534 2.86221 15.4259 2 12 2V4ZM13 13C13 11.8954 13.8954 11 15 11V9C12.7909 9 11 10.7909 11 13H13ZM11 6C11 6.55228 10.5523 7 10 7V9C11.6569 9 13 7.65685 13 6H11ZM10 7C9.44772 7 9 6.55228 9 6H7C7 7.65685 8.34315 9 10 9V7ZM9 6C9 5.44772 9.44772 5 10 5V3C8.34315 3 7 4.34315 7 6H9ZM10 5C10.5523 5 11 5.44772 11 6H13C13 4.34315 11.6569 3 10 3V5ZM15 11C15.7002 11 16.317 11.359 16.6758 11.9077L18.3497 10.8132C17.6372 9.72351 16.4034 9 15 9V11ZM18.3808 11.8569L21.8681 5.75905L20.1319 4.76617L16.6447 10.864L18.3808 11.8569ZM12.8681 21.4964L15.7293 16.4933L13.9932 15.5004L11.1319 20.5036L12.8681 21.4964ZM15.7293 16.4933L18.3808 11.8569L16.6447 10.864L13.9932 15.5004L15.7293 16.4933ZM14.9067 14.9979C13.8459 14.9496 13 14.0733 13 13H11C11 15.1474 12.6917 16.8991 14.8158 16.9958L14.9067 14.9979Z" fill="#555770"/>
</svg>
