<svg width="24" height="24" viewBox="0 0 24 24" fill="none" xmlns="http://www.w3.org/2000/svg">
<path d="M13 5.32356L12.8531 6.31272L13 5.32356ZM5.32356 11L6.31272 11.1469L5.32356 11ZM5.32356 13L6.31272 12.8531L5.32356 13ZM11 18.6764L11.1469 17.6873L11 18.6764ZM11 21.9506L10.9012 22.9457L11 21.9506ZM21.9506 11L22.9457 10.9012L21.9506 11ZM18.6764 13L17.6873 12.8531L18.6764 13ZM21.9506 13L22.9457 13.0988L21.9506 13ZM11.1469 6.31272C11.4247 6.27146 11.7095 6.25 12 6.25V4.25C11.6109 4.25 11.2279 4.27876 10.8531 4.33441L11.1469 6.31272ZM11.0988 3.04448C11.3949 3.01508 11.6955 3 12 3V1C11.6295 1 11.2629 1.01836 10.9012 1.05427L11.0988 3.04448ZM12 5.32356V2.04938H10V5.32356H12ZM12 3C12.3045 3 12.6051 3.01508 12.9012 3.04448L13.0988 1.05427C12.7371 1.01836 12.3705 1 12 1V3ZM12 6.25C12.2905 6.25 12.5753 6.27146 12.8531 6.31272L13.1469 4.33441C12.7721 4.27876 12.3891 4.25 12 4.25V6.25ZM12 2.04938V5.32356H14V2.04938H12ZM6.25 12C6.25 11.7095 6.27146 11.4247 6.31272 11.1469L4.33441 10.8531C4.27876 11.2279 4.25 11.6109 4.25 12H6.25ZM6.31272 11.1469C6.68277 8.65506 8.65506 6.68277 11.1469 6.31272L10.8531 4.33441C7.49012 4.83383 4.83383 7.49012 4.33441 10.8531L6.31272 11.1469ZM3 12C3 11.6955 3.01508 11.3949 3.04448 11.0988L1.05427 10.9012C1.01836 11.2629 1 11.6295 1 12H3ZM3.04448 11.0988C3.46647 6.84854 6.84853 3.46647 11.0988 3.04448L10.9012 1.05427C5.70263 1.57041 1.57041 5.70263 1.05427 10.9012L3.04448 11.0988ZM5.32356 10H2.04938V12H5.32356V10ZM6.31272 12.8531C6.27146 12.5753 6.25 12.2905 6.25 12H4.25C4.25 12.3891 4.27876 12.7721 4.33441 13.1469L6.31272 12.8531ZM3.04448 12.9012C3.01508 12.6051 3 12.3045 3 12H1C1 12.3705 1.01836 12.7371 1.05427 13.0988L3.04448 12.9012ZM5.32356 12H2.04938V14H5.32356V12ZM12 17.75C11.7095 17.75 11.4247 17.7285 11.1469 17.6873L10.8531 19.6656C11.2279 19.7212 11.6109 19.75 12 19.75V17.75ZM11.1469 17.6873C8.65506 17.3172 6.68277 15.3449 6.31272 12.8531L4.33441 13.1469C4.83383 16.5099 7.49012 19.1662 10.8531 19.6656L11.1469 17.6873ZM12 21C11.6955 21 11.3949 20.9849 11.0988 20.9555L10.9012 22.9457C11.2629 22.9816 11.6295 23 12 23V21ZM11.0988 20.9555C6.84853 20.5335 3.46647 17.1515 3.04448 12.9012L1.05427 13.0988C1.57041 18.2974 5.70263 22.4296 10.9012 22.9457L11.0988 20.9555ZM10 18.6764V21.9506H12V18.6764H10ZM12.8531 17.6873C12.5753 17.7285 12.2905 17.75 12 17.75V19.75C12.3891 19.75 12.7721 19.7212 13.1469 19.6656L12.8531 17.6873ZM12.9012 20.9555C12.6051 20.9849 12.3045 21 12 21V23C12.3705 23 12.7371 22.9816 13.0988 22.9457L12.9012 20.9555ZM12 18.6764V21.9506H14V18.6764H12ZM12.8531 6.31272C15.3449 6.68277 17.3172 8.65506 17.6873 11.1469L19.6656 10.8531C19.1662 7.49012 16.5099 4.83383 13.1469 4.33441L12.8531 6.31272ZM17.6873 11.1469C17.7285 11.4247 17.75 11.7095 17.75 12H19.75C19.75 11.6109 19.7212 11.2279 19.6656 10.8531L17.6873 11.1469ZM12.9012 3.04448C17.1515 3.46647 20.5335 6.84854 20.9555 11.0988L22.9457 10.9012C22.4296 5.70263 18.2974 1.57041 13.0988 1.05427L12.9012 3.04448ZM20.9555 11.0988C20.9849 11.3949 21 11.6955 21 12H23C23 11.6295 22.9816 11.2629 22.9457 10.9012L20.9555 11.0988ZM18.6764 12H21.9506V10H18.6764V12ZM17.75 12C17.75 12.2905 17.7285 12.5753 17.6873 12.8531L19.6656 13.1469C19.7212 12.7721 19.75 12.3891 19.75 12H17.75ZM17.6873 12.8531C17.3172 15.3449 15.3449 17.3172 12.8531 17.6873L13.1469 19.6656C16.5099 19.1662 19.1662 16.5099 19.6656 13.1469L17.6873 12.8531ZM21 12C21 12.3045 20.9849 12.6051 20.9555 12.9012L22.9457 13.0988C22.9816 12.7371 23 12.3705 23 12H21ZM20.9555 12.9012C20.5335 17.1515 17.1515 20.5335 12.9012 20.9555L13.0988 22.9457C18.2974 22.4296 22.4296 18.2974 22.9457 13.0988L20.9555 12.9012ZM18.6764 14H21.9506V12H18.6764V14Z" fill="#555770"/>
<path d="M8.5 9.5V9H8V9.5H8.5ZM8.5 11.5H8V12H8.5V11.5ZM11.5 9H8.5V10H11.5V9ZM8 9.5V11.5H9V9.5H8ZM8.5 12H9.5V11H8.5V12ZM9.5 14H8V15H9.5V14ZM12.5 11V13H13.5V11H12.5ZM16.5 13V11H15.5V13H16.5ZM16.5 11C16.5 9.89543 15.6046 9 14.5 9V10C15.0523 10 15.5 10.4477 15.5 11H16.5ZM12.5 13C12.5 14.1046 13.3954 15 14.5 15V14C13.9477 14 13.5 13.5523 13.5 13H12.5ZM13.5 11C13.5 10.4477 13.9477 10 14.5 10V9C13.3954 9 12.5 9.89543 12.5 11H13.5ZM10.5 13C10.5 13.5523 10.0523 14 9.5 14V15C10.6046 15 11.5 14.1046 11.5 13H10.5ZM14.5 15C15.6046 15 16.5 14.1046 16.5 13H15.5C15.5 13.5523 15.0523 14 14.5 14V15ZM9.5 12C10.0523 12 10.5 12.4477 10.5 13H11.5C11.5 11.8954 10.6046 11 9.5 11V12Z" fill="#555770"/>
</svg>
