<svg width="24" height="24" viewBox="0 0 24 24" fill="none" xmlns="http://www.w3.org/2000/svg">
<path d="M4 7V6H2.85782L3.00877 7.13216L4 7ZM6 22L5.00877 22.1322L5.12448 23H6V22ZM20 7L20.9912 7.13216L21.1422 6H20V7ZM18 22V23H18.8755L18.9912 22.1322L18 22ZM4.5 4.5L4.25746 3.52986L3.5 3.71922V4.5H4.5ZM8.5 4.5L8.25746 5.47014L9.22761 5.71268L9.47014 4.74254L8.5 4.5ZM9 2.5L8.8356 1.51361L8.18888 1.62139L8.02986 2.25746L9 2.5ZM12 2L12.8321 1.4453L12.4734 0.907308L11.8356 1.01361L12 2ZM13 3.5L12.1679 4.0547L12.5916 4.69022L13.3162 4.44868L13 3.5ZM14.5 3L14.8162 3.94868L15.0402 3.87403L15.2071 3.70711L14.5 3ZM16 1.5L16.3714 0.571523L15.7592 0.32663L15.2929 0.792893L16 1.5ZM18.5 2.5H19.5V1.82297L18.8714 1.57152L18.5 2.5ZM18.5 4H17.5V5H18.5V4ZM20 4H21V3H20V4ZM20 5L20.9701 5.24254L21 5.12311V5H20ZM14.5 6L14.0528 5.10557L13.7546 5.25464L13.6056 5.55279L14.5 6ZM11 5.5H12V5.26393L11.8944 5.05279L11 5.5ZM6.5 4L6.74254 3.02986L6.5 2.96922L6.25746 3.02986L6.5 4ZM3.00877 7.13216L5.00877 22.1322L6.99123 21.8678L4.99123 6.86784L3.00877 7.13216ZM19.0088 6.86784L17.0088 21.8678L18.9912 22.1322L20.9912 7.13216L19.0088 6.86784ZM11 7V22H13V7H11ZM6 23H9V21H6V23ZM9 23H12V21H9V23ZM7.00221 7.06652L8.00221 22.0665L9.99779 21.9335L8.99779 6.93348L7.00221 7.06652ZM12 23H15V21H12V23ZM15 23H18V21H15V23ZM15.0022 6.93348L14.0022 21.9335L15.9978 22.0665L16.9978 7.06652L15.0022 6.93348ZM4 8H4.5V6H4V8ZM4.5 8H8V6H4.5V8ZM5.5 7V4.5H3.5V7H5.5ZM9.47014 4.74254L9.97014 2.74254L8.02986 2.25746L7.52986 4.25746L9.47014 4.74254ZM9.1644 3.48639L12.1644 2.98639L11.8356 1.01361L8.8356 1.51361L9.1644 3.48639ZM11.1679 2.5547L12.1679 4.0547L13.8321 2.9453L12.8321 1.4453L11.1679 2.5547ZM13.3162 4.44868L14.8162 3.94868L14.1838 2.05132L12.6838 2.55132L13.3162 4.44868ZM15.2071 3.70711L16.7071 2.20711L15.2929 0.792893L13.7929 2.29289L15.2071 3.70711ZM15.6286 2.42848L18.1286 3.42848L18.8714 1.57152L16.3714 0.571523L15.6286 2.42848ZM17.5 2.5V4H19.5V2.5H17.5ZM18.5 5H20V3H18.5V5ZM19 4V5H21V4H19ZM16 8H19.5V6H16V8ZM19.5 8H20V6H19.5V8ZM19.0299 4.75746L18.5299 6.75746L20.4701 7.24254L20.9701 5.24254L19.0299 4.75746ZM12 8H14V6H12V8ZM14 8H16V6H14V8ZM14.8944 7.44721L15.3944 6.44721L13.6056 5.55279L13.1056 6.55279L14.8944 7.44721ZM14.9472 6.89443L15.9472 6.39443L15.0528 4.60557L14.0528 5.10557L14.9472 6.89443ZM8 8H11V6H8V8ZM11 8H12V6H11V8ZM12 7V5.5H10V7H12ZM11.8944 5.05279L11.3944 4.05279L9.60557 4.94721L10.1056 5.94721L11.8944 5.05279ZM4.74254 5.47014L6.74254 4.97014L6.25746 3.02986L4.25746 3.52986L4.74254 5.47014ZM6.25746 4.97014L8.25746 5.47014L8.74254 3.52986L6.74254 3.02986L6.25746 4.97014Z" fill="#555770"/>
</svg>
