<svg width="24" height="24" viewBox="0 0 24 24" fill="none" xmlns="http://www.w3.org/2000/svg">
<path d="M4.0001 12V11H3.0001V12H4.0001ZM20.0001 12H21.0001V11H20.0001V12ZM5.24668 6.25114L4.93045 5.30246L5.24668 6.25114ZM18.7535 6.25114L19.0697 5.30246L19.0697 5.30246L18.7535 6.25114ZM20.9 9L20.9 8L20.9 9ZM20.9972 8.90006L21.9956 8.84372L20.9972 8.90006ZM3.1 9L3.1 10L3.1 9ZM3.00284 8.90006L2.00443 8.84371L3.00284 8.90006ZM4.0001 13H20.0001V11H4.0001V13ZM19.0001 12V18H21.0001V12H19.0001ZM18.0001 19H6.0001V21H18.0001V19ZM5.0001 18V12H3.0001V18H5.0001ZM6.0001 19C5.44781 19 5.0001 18.5523 5.0001 18H3.0001C3.0001 19.6569 4.34325 21 6.0001 21V19ZM19.0001 18C19.0001 18.5523 18.5524 19 18.0001 19V21C19.657 21 21.0001 19.6569 21.0001 18H19.0001ZM20.9 8L3.1 8L3.1 10L20.9 10L20.9 8ZM21.9956 8.84372C21.9472 7.98602 21.513 7.20803 21.0011 6.62625C20.4843 6.03891 19.7959 5.5445 19.0697 5.30246L18.4373 7.19983C18.7747 7.3123 19.1764 7.58009 19.4996 7.94744C19.8278 8.32035 19.9837 8.68956 19.9988 8.9564L21.9956 8.84372ZM4.00125 8.95641C4.01631 8.68962 4.17224 8.32042 4.50043 7.94749C4.82373 7.58012 5.22547 7.3123 5.56291 7.19982L4.93045 5.30246C4.20434 5.5445 3.51589 6.03888 2.99903 6.62621C2.48706 7.20797 2.05284 7.98597 2.00443 8.84371L4.00125 8.95641ZM5.56291 7.19982C6.7338 6.80953 7.93129 6.52861 9.14047 6.35705L8.85953 4.37688C7.53151 4.5653 6.21635 4.87383 4.93045 5.30246L5.56291 7.19982ZM12 1.5C10.8065 1.5 9.77401 1.85032 9.04047 2.58889C8.30954 3.32486 8 4.32109 8 5.36696H10C10 4.70641 10.1905 4.26916 10.4595 3.99825C10.726 3.72995 11.1935 3.5 12 3.5V1.5ZM9 6.36696C9.00394 6.36696 9.00789 6.36696 9.01183 6.36696C9.01578 6.36696 9.01972 6.36696 9.02367 6.36696C9.02761 6.36696 9.03155 6.36696 9.0355 6.36696C9.03944 6.36696 9.04338 6.36696 9.04733 6.36696C9.05127 6.36696 9.05521 6.36696 9.05915 6.36696C9.0631 6.36696 9.06704 6.36696 9.07098 6.36696C9.07492 6.36696 9.07887 6.36696 9.08281 6.36696C9.08675 6.36696 9.09069 6.36696 9.09463 6.36696C9.09857 6.36696 9.10251 6.36696 9.10645 6.36696C9.11039 6.36696 9.11434 6.36696 9.11828 6.36696C9.12222 6.36696 9.12616 6.36696 9.1301 6.36696C9.13404 6.36696 9.13798 6.36696 9.14192 6.36696C9.14585 6.36696 9.14979 6.36696 9.15373 6.36696C9.15767 6.36696 9.16161 6.36696 9.16555 6.36696C9.16949 6.36696 9.17343 6.36696 9.17736 6.36696C9.1813 6.36696 9.18524 6.36696 9.18918 6.36696C9.19312 6.36696 9.19705 6.36696 9.20099 6.36696C9.20493 6.36696 9.20887 6.36696 9.2128 6.36696C9.21674 6.36696 9.22068 6.36696 9.22461 6.36696C9.22855 6.36696 9.23249 6.36696 9.23642 6.36696C9.24036 6.36696 9.24429 6.36696 9.24823 6.36696C9.25217 6.36696 9.2561 6.36696 9.26004 6.36696C9.26397 6.36696 9.26791 6.36696 9.27184 6.36696C9.27578 6.36696 9.27971 6.36696 9.28365 6.36696C9.28758 6.36696 9.29152 6.36696 9.29545 6.36696C9.29938 6.36696 9.30332 6.36696 9.30725 6.36696C9.31118 6.36696 9.31512 6.36696 9.31905 6.36696C9.32298 6.36696 9.32692 6.36696 9.33085 6.36696C9.33478 6.36696 9.33872 6.36696 9.34265 6.36696C9.34658 6.36696 9.35051 6.36696 9.35445 6.36696C9.35838 6.36696 9.36231 6.36696 9.36624 6.36696C9.37017 6.36696 9.37411 6.36696 9.37804 6.36696C9.38197 6.36696 9.3859 6.36696 9.38983 6.36696C9.39376 6.36696 9.39769 6.36696 9.40162 6.36696C9.40555 6.36696 9.40948 6.36696 9.41341 6.36696C9.41734 6.36696 9.42127 6.36696 9.4252 6.36696C9.42913 6.36696 9.43306 6.36696 9.43699 6.36696C9.44092 6.36696 9.44485 6.36696 9.44878 6.36696C9.45271 6.36696 9.45664 6.36696 9.46057 6.36696C9.46449 6.36696 9.46842 6.36696 9.47235 6.36696C9.47628 6.36696 9.48021 6.36696 9.48414 6.36696C9.48806 6.36696 9.49199 6.36696 9.49592 6.36696C9.49985 6.36696 9.50377 6.36696 9.5077 6.36696C9.51163 6.36696 9.51555 6.36696 9.51948 6.36696C9.52341 6.36696 9.52733 6.36696 9.53126 6.36696C9.53519 6.36696 9.53911 6.36696 9.54304 6.36696C9.54697 6.36696 9.55089 6.36696 9.55482 6.36696C9.55874 6.36696 9.56267 6.36696 9.56659 6.36696C9.57052 6.36696 9.57444 6.36696 9.57837 6.36696C9.58229 6.36696 9.58622 6.36696 9.59014 6.36696C9.59407 6.36696 9.59799 6.36696 9.60192 6.36696C9.60584 6.36696 9.60977 6.36696 9.61369 6.36696C9.61761 6.36696 9.62154 6.36696 9.62546 6.36696C9.62938 6.36696 9.63331 6.36696 9.63723 6.36696C9.64115 6.36696 9.64508 6.36696 9.649 6.36696C9.65292 6.36696 9.65684 6.36696 9.66077 6.36696C9.66469 6.36696 9.66861 6.36696 9.67253 6.36696C9.67646 6.36696 9.68038 6.36696 9.6843 6.36696C9.68822 6.36696 9.69214 6.36696 9.69606 6.36696C9.69999 6.36696 9.70391 6.36696 9.70783 6.36696C9.71175 6.36696 9.71567 6.36696 9.71959 6.36696C9.72351 6.36696 9.72743 6.36696 9.73135 6.36696C9.73527 6.36696 9.73919 6.36696 9.74311 6.36696C9.74703 6.36696 9.75095 6.36696 9.75487 6.36696C9.75879 6.36696 9.76271 6.36696 9.76663 6.36696C9.77055 6.36696 9.77447 6.36696 9.77839 6.36696C9.78231 6.36696 9.78623 6.36696 9.79015 6.36696C9.79406 6.36696 9.79798 6.36696 9.8019 6.36696C9.80582 6.36696 9.80974 6.36696 9.81366 6.36696C9.81757 6.36696 9.82149 6.36696 9.82541 6.36696C9.82933 6.36696 9.83325 6.36696 9.83716 6.36696C9.84108 6.36696 9.845 6.36696 9.84891 6.36696C9.85283 6.36696 9.85675 6.36696 9.86067 6.36696C9.86458 6.36696 9.8685 6.36696 9.87242 6.36696C9.87633 6.36696 9.88025 6.36696 9.88416 6.36696C9.88808 6.36696 9.892 6.36696 9.89591 6.36696C9.89983 6.36696 9.90374 6.36696 9.90766 6.36696C9.91157 6.36696 9.91549 6.36696 9.9194 6.36696C9.92332 6.36696 9.92724 6.36696 9.93115 6.36696C9.93506 6.36696 9.93898 6.36696 9.94289 6.36696C9.94681 6.36696 9.95072 6.36696 9.95464 6.36696C9.95855 6.36696 9.96247 6.36696 9.96638 6.36696C9.97029 6.36696 9.97421 6.36696 9.97812 6.36696C9.98204 6.36696 9.98595 6.36696 9.98986 6.36696C9.99378 6.36696 9.99769 6.36696 10.0016 6.36696C10.0055 6.36696 10.0094 6.36696 10.0133 6.36696C10.0173 6.36696 10.0212 6.36696 10.0251 6.36696C10.029 6.36696 10.0329 6.36696 10.0368 6.36696C10.0407 6.36696 10.0446 6.36696 10.0486 6.36696C10.0525 6.36696 10.0564 6.36696 10.0603 6.36696C10.0642 6.36696 10.0681 6.36696 10.072 6.36696C10.0759 6.36696 10.0798 6.36696 10.0838 6.36696C10.0877 6.36696 10.0916 6.36696 10.0955 6.36696C10.0994 6.36696 10.1033 6.36696 10.1072 6.36696C10.1111 6.36696 10.115 6.36696 10.1189 6.36696C10.1229 6.36696 10.1268 6.36696 10.1307 6.36696C10.1346 6.36696 10.1385 6.36696 10.1424 6.36696C10.1463 6.36696 10.1502 6.36696 10.1541 6.36696C10.158 6.36696 10.162 6.36696 10.1659 6.36696C10.1698 6.36696 10.1737 6.36696 10.1776 6.36696C10.1815 6.36696 10.1854 6.36696 10.1893 6.36696C10.1932 6.36696 10.1971 6.36696 10.201 6.36696C10.205 6.36696 10.2089 6.36696 10.2128 6.36696C10.2167 6.36696 10.2206 6.36696 10.2245 6.36696C10.2284 6.36696 10.2323 6.36696 10.2362 6.36696C10.2401 6.36696 10.244 6.36696 10.2479 6.36696C10.2518 6.36696 10.2557 6.36696 10.2597 6.36696C10.2636 6.36696 10.2675 6.36696 10.2714 6.36696C10.2753 6.36696 10.2792 6.36696 10.2831 6.36696C10.287 6.36696 10.2909 6.36696 10.2948 6.36696C10.2987 6.36696 10.3026 6.36696 10.3065 6.36696C10.3104 6.36696 10.3143 6.36696 10.3183 6.36696C10.3222 6.36696 10.3261 6.36696 10.33 6.36696C10.3339 6.36696 10.3378 6.36696 10.3417 6.36696C10.3456 6.36696 10.3495 6.36696 10.3534 6.36696C10.3573 6.36696 10.3612 6.36696 10.3651 6.36696C10.369 6.36696 10.3729 6.36696 10.3768 6.36696C10.3807 6.36696 10.3846 6.36696 10.3885 6.36696C10.3924 6.36696 10.3963 6.36696 10.4003 6.36696C10.4042 6.36696 10.4081 6.36696 10.412 6.36696C10.4159 6.36696 10.4198 6.36696 10.4237 6.36696C10.4276 6.36696 10.4315 6.36696 10.4354 6.36696C10.4393 6.36696 10.4432 6.36696 10.4471 6.36696C10.451 6.36696 10.4549 6.36696 10.4588 6.36696C10.4627 6.36696 10.4666 6.36696 10.4705 6.36696C10.4744 6.36696 10.4783 6.36696 10.4822 6.36696C10.4861 6.36696 10.49 6.36696 10.4939 6.36696C10.4978 6.36696 10.5017 6.36696 10.5056 6.36696C10.5095 6.36696 10.5134 6.36696 10.5173 6.36696C10.5212 6.36696 10.5251 6.36696 10.529 6.36696C10.5329 6.36696 10.5368 6.36696 10.5407 6.36696C10.5446 6.36696 10.5485 6.36696 10.5524 6.36696C10.5563 6.36696 10.5602 6.36696 10.5641 6.36696C10.568 6.36696 10.5719 6.36696 10.5758 6.36696C10.5797 6.36696 10.5837 6.36696 10.5876 6.36696C10.5915 6.36696 10.5954 6.36696 10.5993 6.36696C10.6032 6.36696 10.6071 6.36696 10.611 6.36696C10.6149 6.36696 10.6188 6.36696 10.6227 6.36696C10.6266 6.36696 10.6304 6.36696 10.6343 6.36696C10.6382 6.36696 10.6421 6.36696 10.646 6.36696C10.6499 6.36696 10.6538 6.36696 10.6577 6.36696C10.6616 6.36696 10.6655 6.36696 10.6694 6.36696C10.6733 6.36696 10.6772 6.36696 10.6811 6.36696C10.685 6.36696 10.6889 6.36696 10.6928 6.36696C10.6967 6.36696 10.7006 6.36696 10.7045 6.36696C10.7084 6.36696 10.7123 6.36696 10.7162 6.36696C10.7201 6.36696 10.724 6.36696 10.7279 6.36696C10.7318 6.36696 10.7357 6.36696 10.7396 6.36696C10.7435 6.36696 10.7474 6.36696 10.7513 6.36696C10.7552 6.36696 10.7591 6.36696 10.763 6.36696C10.7669 6.36696 10.7708 6.36696 10.7747 6.36696C10.7786 6.36696 10.7825 6.36696 10.7864 6.36696C10.7903 6.36696 10.7942 6.36696 10.7981 6.36696C10.802 6.36696 10.8059 6.36696 10.8098 6.36696C10.8137 6.36696 10.8176 6.36696 10.8214 6.36696C10.8253 6.36696 10.8292 6.36696 10.8331 6.36696C10.837 6.36696 10.8409 6.36696 10.8448 6.36696C10.8487 6.36696 10.8526 6.36696 10.8565 6.36696C10.8604 6.36696 10.8643 6.36696 10.8682 6.36696C10.8721 6.36696 10.876 6.36696 10.8799 6.36696C10.8838 6.36696 10.8877 6.36696 10.8916 6.36696C10.8955 6.36696 10.8994 6.36696 10.9033 6.36696C10.9072 6.36696 10.9111 6.36696 10.9149 6.36696C10.9188 6.36696 10.9227 6.36696 10.9266 6.36696C10.9305 6.36696 10.9344 6.36696 10.9383 6.36696C10.9422 6.36696 10.9461 6.36696 10.95 6.36696C10.9539 6.36696 10.9578 6.36696 10.9617 6.36696C10.9656 6.36696 10.9695 6.36696 10.9734 6.36696C10.9773 6.36696 10.9812 6.36696 10.985 6.36696C10.9889 6.36696 10.9928 6.36696 10.9967 6.36696C11.0006 6.36696 11.0045 6.36696 11.0084 6.36696C11.0123 6.36696 11.0162 6.36696 11.0201 6.36696C11.024 6.36696 11.0279 6.36696 11.0318 6.36696C11.0357 6.36696 11.0396 6.36696 11.0435 6.36696C11.0473 6.36696 11.0512 6.36696 11.0551 6.36696C11.059 6.36696 11.0629 6.36696 11.0668 6.36696C11.0707 6.36696 11.0746 6.36696 11.0785 6.36696C11.0824 6.36696 11.0863 6.36696 11.0902 6.36696C11.0941 6.36696 11.098 6.36696 11.1019 6.36696C11.1057 6.36696 11.1096 6.36696 11.1135 6.36696C11.1174 6.36696 11.1213 6.36696 11.1252 6.36696C11.1291 6.36696 11.133 6.36696 11.1369 6.36696C11.1408 6.36696 11.1447 6.36696 11.1486 6.36696C11.1525 6.36696 11.1563 6.36696 11.1602 6.36696C11.1641 6.36696 11.168 6.36696 11.1719 6.36696C11.1758 6.36696 11.1797 6.36696 11.1836 6.36696C11.1875 6.36696 11.1914 6.36696 11.1953 6.36696C11.1992 6.36696 11.203 6.36696 11.2069 6.36696C11.2108 6.36696 11.2147 6.36696 11.2186 6.36696C11.2225 6.36696 11.2264 6.36696 11.2303 6.36696C11.2342 6.36696 11.2381 6.36696 11.242 6.36696C11.2459 6.36696 11.2497 6.36696 11.2536 6.36696C11.2575 6.36696 11.2614 6.36696 11.2653 6.36696C11.2692 6.36696 11.2731 6.36696 11.277 6.36696C11.2809 6.36696 11.2848 6.36696 11.2887 6.36696C11.2925 6.36696 11.2964 6.36696 11.3003 6.36696C11.3042 6.36696 11.3081 6.36696 11.312 6.36696C11.3159 6.36696 11.3198 6.36696 11.3237 6.36696C11.3276 6.36696 11.3314 6.36696 11.3353 6.36696C11.3392 6.36696 11.3431 6.36696 11.347 6.36696C11.3509 6.36696 11.3548 6.36696 11.3587 6.36696C11.3626 6.36696 11.3665 6.36696 11.3703 6.36696C11.3742 6.36696 11.3781 6.36696 11.382 6.36696C11.3859 6.36696 11.3898 6.36696 11.3937 6.36696C11.3976 6.36696 11.4015 6.36696 11.4054 6.36696C11.4092 6.36696 11.4131 6.36696 11.417 6.36696C11.4209 6.36696 11.4248 6.36696 11.4287 6.36696C11.4326 6.36696 11.4365 6.36696 11.4404 6.36696C11.4443 6.36696 11.4481 6.36696 11.452 6.36696C11.4559 6.36696 11.4598 6.36696 11.4637 6.36696C11.4676 6.36696 11.4715 6.36696 11.4754 6.36696C11.4793 6.36696 11.4831 6.36696 11.487 6.36696C11.4909 6.36696 11.4948 6.36696 11.4987 6.36696C11.5026 6.36696 11.5065 6.36696 11.5104 6.36696C11.5143 6.36696 11.5181 6.36696 11.522 6.36696C11.5259 6.36696 11.5298 6.36696 11.5337 6.36696C11.5376 6.36696 11.5415 6.36696 11.5454 6.36696C11.5493 6.36696 11.5531 6.36696 11.557 6.36696C11.5609 6.36696 11.5648 6.36696 11.5687 6.36696C11.5726 6.36696 11.5765 6.36696 11.5804 6.36696C11.5843 6.36696 11.5881 6.36696 11.592 6.36696C11.5959 6.36696 11.5998 6.36696 11.6037 6.36696C11.6076 6.36696 11.6115 6.36696 11.6154 6.36696C11.6193 6.36696 11.6231 6.36696 11.627 6.36696C11.6309 6.36696 11.6348 6.36696 11.6387 6.36696C11.6426 6.36696 11.6465 6.36696 11.6504 6.36696C11.6542 6.36696 11.6581 6.36696 11.662 6.36696C11.6659 6.36696 11.6698 6.36696 11.6737 6.36696C11.6776 6.36696 11.6815 6.36696 11.6854 6.36696C11.6892 6.36696 11.6931 6.36696 11.697 6.36696C11.7009 6.36696 11.7048 6.36696 11.7087 6.36696C11.7126 6.36696 11.7165 6.36696 11.7203 6.36696C11.7242 6.36696 11.7281 6.36696 11.732 6.36696C11.7359 6.36696 11.7398 6.36696 11.7437 6.36696C11.7476 6.36696 11.7514 6.36696 11.7553 6.36696C11.7592 6.36696 11.7631 6.36696 11.767 6.36696C11.7709 6.36696 11.7748 6.36696 11.7787 6.36696C11.7826 6.36696 11.7864 6.36696 11.7903 6.36696C11.7942 6.36696 11.7981 6.36696 11.802 6.36696C11.8059 6.36696 11.8098 6.36696 11.8137 6.36696C11.8175 6.36696 11.8214 6.36696 11.8253 6.36696C11.8292 6.36696 11.8331 6.36696 11.837 6.36696C11.8409 6.36696 11.8448 6.36696 11.8486 6.36696C11.8525 6.36696 11.8564 6.36696 11.8603 6.36696C11.8642 6.36696 11.8681 6.36696 11.872 6.36696C11.8759 6.36696 11.8797 6.36696 11.8836 6.36696C11.8875 6.36696 11.8914 6.36696 11.8953 6.36696C11.8992 6.36696 11.9031 6.36696 11.907 6.36696C11.9108 6.36696 11.9147 6.36696 11.9186 6.36696C11.9225 6.36696 11.9264 6.36696 11.9303 6.36696C11.9342 6.36696 11.9381 6.36696 11.9419 6.36696C11.9458 6.36696 11.9497 6.36696 11.9536 6.36696C11.9575 6.36696 11.9614 6.36696 11.9653 6.36696C11.9692 6.36696 11.973 6.36696 11.9769 6.36696C11.9808 6.36696 11.9847 6.36696 11.9886 6.36696C11.9925 6.36696 11.9964 6.36696 12.0003 6.36696C12.0041 6.36696 12.008 6.36696 12.0119 6.36696C12.0158 6.36696 12.0197 6.36696 12.0236 6.36696C12.0275 6.36696 12.0314 6.36696 12.0352 6.36696C12.0391 6.36696 12.043 6.36696 12.0469 6.36696C12.0508 6.36696 12.0547 6.36696 12.0586 6.36696C12.0625 6.36696 12.0663 6.36696 12.0702 6.36696C12.0741 6.36696 12.078 6.36696 12.0819 6.36696C12.0858 6.36696 12.0897 6.36696 12.0935 6.36696C12.0974 6.36696 12.1013 6.36696 12.1052 6.36696C12.1091 6.36696 12.113 6.36696 12.1169 6.36696C12.1208 6.36696 12.1246 6.36696 12.1285 6.36696C12.1324 6.36696 12.1363 6.36696 12.1402 6.36696C12.1441 6.36696 12.148 6.36696 12.1519 6.36696C12.1557 6.36696 12.1596 6.36696 12.1635 6.36696C12.1674 6.36696 12.1713 6.36696 12.1752 6.36696C12.1791 6.36696 12.183 6.36696 12.1869 6.36696C12.1907 6.36696 12.1946 6.36696 12.1985 6.36696C12.2024 6.36696 12.2063 6.36696 12.2102 6.36696C12.2141 6.36696 12.218 6.36696 12.2218 6.36696C12.2257 6.36696 12.2296 6.36696 12.2335 6.36696C12.2374 6.36696 12.2413 6.36696 12.2452 6.36696C12.2491 6.36696 12.2529 6.36696 12.2568 6.36696C12.2607 6.36696 12.2646 6.36696 12.2685 6.36696C12.2724 6.36696 12.2763 6.36696 12.2802 6.36696C12.284 6.36696 12.2879 6.36696 12.2918 6.36696C12.2957 6.36696 12.2996 6.36696 12.3035 6.36696C12.3074 6.36696 12.3113 6.36696 12.3151 6.36696C12.319 6.36696 12.3229 6.36696 12.3268 6.36696C12.3307 6.36696 12.3346 6.36696 12.3385 6.36696C12.3424 6.36696 12.3463 6.36696 12.3501 6.36696C12.354 6.36696 12.3579 6.36696 12.3618 6.36696C12.3657 6.36696 12.3696 6.36696 12.3735 6.36696C12.3774 6.36696 12.3812 6.36696 12.3851 6.36696C12.389 6.36696 12.3929 6.36696 12.3968 6.36696C12.4007 6.36696 12.4046 6.36696 12.4085 6.36696C12.4124 6.36696 12.4162 6.36696 12.4201 6.36696C12.424 6.36696 12.4279 6.36696 12.4318 6.36696C12.4357 6.36696 12.4396 6.36696 12.4435 6.36696C12.4473 6.36696 12.4512 6.36696 12.4551 6.36696C12.459 6.36696 12.4629 6.36696 12.4668 6.36696C12.4707 6.36696 12.4746 6.36696 12.4785 6.36696C12.4823 6.36696 12.4862 6.36696 12.4901 6.36696C12.494 6.36696 12.4979 6.36696 12.5018 6.36696C12.5057 6.36696 12.5096 6.36696 12.5135 6.36696C12.5173 6.36696 12.5212 6.36696 12.5251 6.36696C12.529 6.36696 12.5329 6.36696 12.5368 6.36696C12.5407 6.36696 12.5446 6.36696 12.5485 6.36696C12.5524 6.36696 12.5562 6.36696 12.5601 6.36696C12.564 6.36696 12.5679 6.36696 12.5718 6.36696C12.5757 6.36696 12.5796 6.36696 12.5835 6.36696C12.5874 6.36696 12.5912 6.36696 12.5951 6.36696C12.599 6.36696 12.6029 6.36696 12.6068 6.36696C12.6107 6.36696 12.6146 6.36696 12.6185 6.36696C12.6224 6.36696 12.6263 6.36696 12.6301 6.36696C12.634 6.36696 12.6379 6.36696 12.6418 6.36696C12.6457 6.36696 12.6496 6.36696 12.6535 6.36696C12.6574 6.36696 12.6613 6.36696 12.6652 6.36696C12.669 6.36696 12.6729 6.36696 12.6768 6.36696C12.6807 6.36696 12.6846 6.36696 12.6885 6.36696C12.6924 6.36696 12.6963 6.36696 12.7002 6.36696C12.7041 6.36696 12.7079 6.36696 12.7118 6.36696C12.7157 6.36696 12.7196 6.36696 12.7235 6.36696C12.7274 6.36696 12.7313 6.36696 12.7352 6.36696C12.7391 6.36696 12.743 6.36696 12.7469 6.36696C12.7507 6.36696 12.7546 6.36696 12.7585 6.36696C12.7624 6.36696 12.7663 6.36696 12.7702 6.36696C12.7741 6.36696 12.778 6.36696 12.7819 6.36696C12.7858 6.36696 12.7897 6.36696 12.7935 6.36696C12.7974 6.36696 12.8013 6.36696 12.8052 6.36696C12.8091 6.36696 12.813 6.36696 12.8169 6.36696C12.8208 6.36696 12.8247 6.36696 12.8286 6.36696C12.8325 6.36696 12.8364 6.36696 12.8402 6.36696C12.8441 6.36696 12.848 6.36696 12.8519 6.36696C12.8558 6.36696 12.8597 6.36696 12.8636 6.36696C12.8675 6.36696 12.8714 6.36696 12.8753 6.36696C12.8792 6.36696 12.8831 6.36696 12.8869 6.36696C12.8908 6.36696 12.8947 6.36696 12.8986 6.36696C12.9025 6.36696 12.9064 6.36696 12.9103 6.36696C12.9142 6.36696 12.9181 6.36696 12.922 6.36696C12.9259 6.36696 12.9298 6.36696 12.9337 6.36696C12.9376 6.36696 12.9414 6.36696 12.9453 6.36696C12.9492 6.36696 12.9531 6.36696 12.957 6.36696C12.9609 6.36696 12.9648 6.36696 12.9687 6.36696C12.9726 6.36696 12.9765 6.36696 12.9804 6.36696C12.9843 6.36696 12.9882 6.36696 12.9921 6.36696C12.996 6.36696 12.9998 6.36696 13.0037 6.36696C13.0076 6.36696 13.0115 6.36696 13.0154 6.36696C13.0193 6.36696 13.0232 6.36696 13.0271 6.36696C13.031 6.36696 13.0349 6.36696 13.0388 6.36696C13.0427 6.36696 13.0466 6.36696 13.0505 6.36696C13.0544 6.36696 13.0583 6.36696 13.0621 6.36696C13.066 6.36696 13.0699 6.36696 13.0738 6.36696C13.0777 6.36696 13.0816 6.36696 13.0855 6.36696C13.0894 6.36696 13.0933 6.36696 13.0972 6.36696C13.1011 6.36696 13.105 6.36696 13.1089 6.36696C13.1128 6.36696 13.1167 6.36696 13.1206 6.36696C13.1245 6.36696 13.1284 6.36696 13.1323 6.36696C13.1362 6.36696 13.14 6.36696 13.1439 6.36696C13.1478 6.36696 13.1517 6.36696 13.1556 6.36696C13.1595 6.36696 13.1634 6.36696 13.1673 6.36696C13.1712 6.36696 13.1751 6.36696 13.179 6.36696C13.1829 6.36696 13.1868 6.36696 13.1907 6.36696C13.1946 6.36696 13.1985 6.36696 13.2024 6.36696C13.2063 6.36696 13.2102 6.36696 13.2141 6.36696C13.218 6.36696 13.2219 6.36696 13.2258 6.36696C13.2297 6.36696 13.2336 6.36696 13.2375 6.36696C13.2414 6.36696 13.2452 6.36696 13.2491 6.36696C13.253 6.36696 13.2569 6.36696 13.2608 6.36696C13.2647 6.36696 13.2686 6.36696 13.2725 6.36696C13.2764 6.36696 13.2803 6.36696 13.2842 6.36696C13.2881 6.36696 13.292 6.36696 13.2959 6.36696C13.2998 6.36696 13.3037 6.36696 13.3076 6.36696C13.3115 6.36696 13.3154 6.36696 13.3193 6.36696C13.3232 6.36696 13.3271 6.36696 13.331 6.36696C13.3349 6.36696 13.3388 6.36696 13.3427 6.36696C13.3466 6.36696 13.3505 6.36696 13.3544 6.36696C13.3583 6.36696 13.3622 6.36696 13.3661 6.36696C13.37 6.36696 13.3739 6.36696 13.3778 6.36696C13.3817 6.36696 13.3856 6.36696 13.3895 6.36696C13.3934 6.36696 13.3973 6.36696 13.4012 6.36696C13.4051 6.36696 13.409 6.36696 13.4129 6.36696C13.4168 6.36696 13.4207 6.36696 13.4246 6.36696C13.4285 6.36696 13.4324 6.36696 13.4363 6.36696C13.4402 6.36696 13.4441 6.36696 13.448 6.36696C13.4519 6.36696 13.4558 6.36696 13.4597 6.36696C13.4636 6.36696 13.4675 6.36696 13.4714 6.36696C13.4753 6.36696 13.4792 6.36696 13.4831 6.36696C13.487 6.36696 13.4909 6.36696 13.4948 6.36696C13.4987 6.36696 13.5026 6.36696 13.5065 6.36696C13.5104 6.36696 13.5143 6.36696 13.5182 6.36696C13.5221 6.36696 13.526 6.36696 13.5299 6.36696C13.5338 6.36696 13.5377 6.36696 13.5416 6.36696C13.5455 6.36696 13.5494 6.36696 13.5533 6.36696C13.5572 6.36696 13.5611 6.36696 13.565 6.36696C13.5689 6.36696 13.5728 6.36696 13.5767 6.36696C13.5806 6.36696 13.5846 6.36696 13.5885 6.36696C13.5924 6.36696 13.5963 6.36696 13.6002 6.36696C13.6041 6.36696 13.608 6.36696 13.6119 6.36696C13.6158 6.36696 13.6197 6.36696 13.6236 6.36696C13.6275 6.36696 13.6314 6.36696 13.6353 6.36696C13.6392 6.36696 13.6431 6.36696 13.647 6.36696C13.6509 6.36696 13.6548 6.36696 13.6587 6.36696C13.6626 6.36696 13.6665 6.36696 13.6704 6.36696C13.6743 6.36696 13.6783 6.36696 13.6822 6.36696C13.6861 6.36696 13.69 6.36696 13.6939 6.36696C13.6978 6.36696 13.7017 6.36696 13.7056 6.36696C13.7095 6.36696 13.7134 6.36696 13.7173 6.36696C13.7212 6.36696 13.7251 6.36696 13.729 6.36696C13.7329 6.36696 13.7368 6.36696 13.7407 6.36696C13.7446 6.36696 13.7486 6.36696 13.7525 6.36696C13.7564 6.36696 13.7603 6.36696 13.7642 6.36696C13.7681 6.36696 13.772 6.36696 13.7759 6.36696C13.7798 6.36696 13.7837 6.36696 13.7876 6.36696C13.7915 6.36696 13.7954 6.36696 13.7993 6.36696C13.8033 6.36696 13.8072 6.36696 13.8111 6.36696C13.815 6.36696 13.8189 6.36696 13.8228 6.36696C13.8267 6.36696 13.8306 6.36696 13.8345 6.36696C13.8384 6.36696 13.8423 6.36696 13.8462 6.36696C13.8502 6.36696 13.8541 6.36696 13.858 6.36696C13.8619 6.36696 13.8658 6.36696 13.8697 6.36696C13.8736 6.36696 13.8775 6.36696 13.8814 6.36696C13.8853 6.36696 13.8893 6.36696 13.8932 6.36696C13.8971 6.36696 13.901 6.36696 13.9049 6.36696C13.9088 6.36696 13.9127 6.36696 13.9166 6.36696C13.9205 6.36696 13.9244 6.36696 13.9284 6.36696C13.9323 6.36696 13.9362 6.36696 13.9401 6.36696C13.944 6.36696 13.9479 6.36696 13.9518 6.36696C13.9557 6.36696 13.9596 6.36696 13.9636 6.36696C13.9675 6.36696 13.9714 6.36696 13.9753 6.36696C13.9792 6.36696 13.9831 6.36696 13.987 6.36696C13.9909 6.36696 13.9949 6.36696 13.9988 6.36696C14.0027 6.36696 14.0066 6.36696 14.0105 6.36696C14.0144 6.36696 14.0183 6.36696 14.0222 6.36696C14.0262 6.36696 14.0301 6.36696 14.034 6.36696C14.0379 6.36696 14.0418 6.36696 14.0457 6.36696C14.0496 6.36696 14.0536 6.36696 14.0575 6.36696C14.0614 6.36696 14.0653 6.36696 14.0692 6.36696C14.0731 6.36696 14.077 6.36696 14.081 6.36696C14.0849 6.36696 14.0888 6.36696 14.0927 6.36696C14.0966 6.36696 14.1005 6.36696 14.1044 6.36696C14.1084 6.36696 14.1123 6.36696 14.1162 6.36696C14.1201 6.36696 14.124 6.36696 14.1279 6.36696C14.1318 6.36696 14.1358 6.36696 14.1397 6.36696C14.1436 6.36696 14.1475 6.36696 14.1514 6.36696C14.1553 6.36696 14.1593 6.36696 14.1632 6.36696C14.1671 6.36696 14.171 6.36696 14.1749 6.36696C14.1788 6.36696 14.1828 6.36696 14.1867 6.36696C14.1906 6.36696 14.1945 6.36696 14.1984 6.36696C14.2024 6.36696 14.2063 6.36696 14.2102 6.36696C14.2141 6.36696 14.218 6.36696 14.2219 6.36696C14.2259 6.36696 14.2298 6.36696 14.2337 6.36696C14.2376 6.36696 14.2415 6.36696 14.2455 6.36696C14.2494 6.36696 14.2533 6.36696 14.2572 6.36696C14.2611 6.36696 14.2651 6.36696 14.269 6.36696C14.2729 6.36696 14.2768 6.36696 14.2807 6.36696C14.2847 6.36696 14.2886 6.36696 14.2925 6.36696C14.2964 6.36696 14.3003 6.36696 14.3043 6.36696C14.3082 6.36696 14.3121 6.36696 14.316 6.36696C14.3199 6.36696 14.3239 6.36696 14.3278 6.36696C14.3317 6.36696 14.3356 6.36696 14.3395 6.36696C14.3435 6.36696 14.3474 6.36696 14.3513 6.36696C14.3552 6.36696 14.3592 6.36696 14.3631 6.36696C14.367 6.36696 14.3709 6.36696 14.3749 6.36696C14.3788 6.36696 14.3827 6.36696 14.3866 6.36696C14.3905 6.36696 14.3945 6.36696 14.3984 6.36696C14.4023 6.36696 14.4062 6.36696 14.4102 6.36696C14.4141 6.36696 14.418 6.36696 14.4219 6.36696C14.4259 6.36696 14.4298 6.36696 14.4337 6.36696C14.4376 6.36696 14.4416 6.36696 14.4455 6.36696C14.4494 6.36696 14.4533 6.36696 14.4573 6.36696C14.4612 6.36696 14.4651 6.36696 14.469 6.36696C14.473 6.36696 14.4769 6.36696 14.4808 6.36696C14.4847 6.36696 14.4887 6.36696 14.4926 6.36696C14.4965 6.36696 14.5004 6.36696 14.5044 6.36696C14.5083 6.36696 14.5122 6.36696 14.5162 6.36696C14.5201 6.36696 14.524 6.36696 14.5279 6.36696C14.5319 6.36696 14.5358 6.36696 14.5397 6.36696C14.5436 6.36696 14.5476 6.36696 14.5515 6.36696C14.5554 6.36696 14.5594 6.36696 14.5633 6.36696C14.5672 6.36696 14.5711 6.36696 14.5751 6.36696C14.579 6.36696 14.5829 6.36696 14.5869 6.36696C14.5908 6.36696 14.5947 6.36696 14.5987 6.36696C14.6026 6.36696 14.6065 6.36696 14.6104 6.36696C14.6144 6.36696 14.6183 6.36696 14.6222 6.36696C14.6262 6.36696 14.6301 6.36696 14.634 6.36696C14.638 6.36696 14.6419 6.36696 14.6458 6.36696C14.6497 6.36696 14.6537 6.36696 14.6576 6.36696C14.6615 6.36696 14.6655 6.36696 14.6694 6.36696C14.6733 6.36696 14.6773 6.36696 14.6812 6.36696C14.6851 6.36696 14.6891 6.36696 14.693 6.36696C14.6969 6.36696 14.7009 6.36696 14.7048 6.36696C14.7087 6.36696 14.7127 6.36696 14.7166 6.36696C14.7205 6.36696 14.7245 6.36696 14.7284 6.36696C14.7323 6.36696 14.7363 6.36696 14.7402 6.36696C14.7441 6.36696 14.7481 6.36696 14.752 6.36696C14.7559 6.36696 14.7599 6.36696 14.7638 6.36696C14.7678 6.36696 14.7717 6.36696 14.7756 6.36696C14.7796 6.36696 14.7835 6.36696 14.7874 6.36696C14.7914 6.36696 14.7953 6.36696 14.7992 6.36696C14.8032 6.36696 14.8071 6.36696 14.8111 6.36696C14.815 6.36696 14.8189 6.36696 14.8229 6.36696C14.8268 6.36696 14.8307 6.36696 14.8347 6.36696C14.8386 6.36696 14.8426 6.36696 14.8465 6.36696C14.8504 6.36696 14.8544 6.36696 14.8583 6.36696C14.8622 6.36696 14.8662 6.36696 14.8701 6.36696C14.8741 6.36696 14.878 6.36696 14.8819 6.36696C14.8859 6.36696 14.8898 6.36696 14.8938 6.36696C14.8977 6.36696 14.9016 6.36696 14.9056 6.36696C14.9095 6.36696 14.9135 6.36696 14.9174 6.36696C14.9213 6.36696 14.9253 6.36696 14.9292 6.36696C14.9332 6.36696 14.9371 6.36696 14.9411 6.36696C14.945 6.36696 14.9489 6.36696 14.9529 6.36696C14.9568 6.36696 14.9608 6.36696 14.9647 6.36696C14.9686 6.36696 14.9726 6.36696 14.9765 6.36696C14.9805 6.36696 14.9844 6.36696 14.9884 6.36696C14.9923 6.36696 14.9963 6.36696 15.0002 6.36696V4.36696C14.9963 4.36696 14.9923 4.36696 14.9884 4.36696C14.9844 4.36696 14.9805 4.36696 14.9765 4.36696C14.9726 4.36696 14.9686 4.36696 14.9647 4.36696C14.9608 4.36696 14.9568 4.36696 14.9529 4.36696C14.9489 4.36696 14.945 4.36696 14.9411 4.36696C14.9371 4.36696 14.9332 4.36696 14.9292 4.36696C14.9253 4.36696 14.9213 4.36696 14.9174 4.36696C14.9135 4.36696 14.9095 4.36696 14.9056 4.36696C14.9016 4.36696 14.8977 4.36696 14.8938 4.36696C14.8898 4.36696 14.8859 4.36696 14.8819 4.36696C14.878 4.36696 14.8741 4.36696 14.8701 4.36696C14.8662 4.36696 14.8622 4.36696 14.8583 4.36696C14.8544 4.36696 14.8504 4.36696 14.8465 4.36696C14.8426 4.36696 14.8386 4.36696 14.8347 4.36696C14.8307 4.36696 14.8268 4.36696 14.8229 4.36696C14.8189 4.36696 14.815 4.36696 14.8111 4.36696C14.8071 4.36696 14.8032 4.36696 14.7992 4.36696C14.7953 4.36696 14.7914 4.36696 14.7874 4.36696C14.7835 4.36696 14.7796 4.36696 14.7756 4.36696C14.7717 4.36696 14.7678 4.36696 14.7638 4.36696C14.7599 4.36696 14.7559 4.36696 14.752 4.36696C14.7481 4.36696 14.7441 4.36696 14.7402 4.36696C14.7363 4.36696 14.7323 4.36696 14.7284 4.36696C14.7245 4.36696 14.7205 4.36696 14.7166 4.36696C14.7127 4.36696 14.7087 4.36696 14.7048 4.36696C14.7009 4.36696 14.6969 4.36696 14.693 4.36696C14.6891 4.36696 14.6851 4.36696 14.6812 4.36696C14.6773 4.36696 14.6733 4.36696 14.6694 4.36696C14.6655 4.36696 14.6615 4.36696 14.6576 4.36696C14.6537 4.36696 14.6497 4.36696 14.6458 4.36696C14.6419 4.36696 14.638 4.36696 14.634 4.36696C14.6301 4.36696 14.6262 4.36696 14.6222 4.36696C14.6183 4.36696 14.6144 4.36696 14.6104 4.36696C14.6065 4.36696 14.6026 4.36696 14.5987 4.36696C14.5947 4.36696 14.5908 4.36696 14.5869 4.36696C14.5829 4.36696 14.579 4.36696 14.5751 4.36696C14.5711 4.36696 14.5672 4.36696 14.5633 4.36696C14.5594 4.36696 14.5554 4.36696 14.5515 4.36696C14.5476 4.36696 14.5436 4.36696 14.5397 4.36696C14.5358 4.36696 14.5319 4.36696 14.5279 4.36696C14.524 4.36696 14.5201 4.36696 14.5162 4.36696C14.5122 4.36696 14.5083 4.36696 14.5044 4.36696C14.5004 4.36696 14.4965 4.36696 14.4926 4.36696C14.4887 4.36696 14.4847 4.36696 14.4808 4.36696C14.4769 4.36696 14.473 4.36696 14.469 4.36696C14.4651 4.36696 14.4612 4.36696 14.4573 4.36696C14.4533 4.36696 14.4494 4.36696 14.4455 4.36696C14.4416 4.36696 14.4376 4.36696 14.4337 4.36696C14.4298 4.36696 14.4259 4.36696 14.4219 4.36696C14.418 4.36696 14.4141 4.36696 14.4102 4.36696C14.4062 4.36696 14.4023 4.36696 14.3984 4.36696C14.3945 4.36696 14.3905 4.36696 14.3866 4.36696C14.3827 4.36696 14.3788 4.36696 14.3749 4.36696C14.3709 4.36696 14.367 4.36696 14.3631 4.36696C14.3592 4.36696 14.3552 4.36696 14.3513 4.36696C14.3474 4.36696 14.3435 4.36696 14.3395 4.36696C14.3356 4.36696 14.3317 4.36696 14.3278 4.36696C14.3239 4.36696 14.3199 4.36696 14.316 4.36696C14.3121 4.36696 14.3082 4.36696 14.3043 4.36696C14.3003 4.36696 14.2964 4.36696 14.2925 4.36696C14.2886 4.36696 14.2847 4.36696 14.2807 4.36696C14.2768 4.36696 14.2729 4.36696 14.269 4.36696C14.2651 4.36696 14.2611 4.36696 14.2572 4.36696C14.2533 4.36696 14.2494 4.36696 14.2455 4.36696C14.2415 4.36696 14.2376 4.36696 14.2337 4.36696C14.2298 4.36696 14.2259 4.36696 14.2219 4.36696C14.218 4.36696 14.2141 4.36696 14.2102 4.36696C14.2063 4.36696 14.2024 4.36696 14.1984 4.36696C14.1945 4.36696 14.1906 4.36696 14.1867 4.36696C14.1828 4.36696 14.1788 4.36696 14.1749 4.36696C14.171 4.36696 14.1671 4.36696 14.1632 4.36696C14.1593 4.36696 14.1553 4.36696 14.1514 4.36696C14.1475 4.36696 14.1436 4.36696 14.1397 4.36696C14.1358 4.36696 14.1318 4.36696 14.1279 4.36696C14.124 4.36696 14.1201 4.36696 14.1162 4.36696C14.1123 4.36696 14.1084 4.36696 14.1044 4.36696C14.1005 4.36696 14.0966 4.36696 14.0927 4.36696C14.0888 4.36696 14.0849 4.36696 14.081 4.36696C14.077 4.36696 14.0731 4.36696 14.0692 4.36696C14.0653 4.36696 14.0614 4.36696 14.0575 4.36696C14.0536 4.36696 14.0496 4.36696 14.0457 4.36696C14.0418 4.36696 14.0379 4.36696 14.034 4.36696C14.0301 4.36696 14.0262 4.36696 14.0222 4.36696C14.0183 4.36696 14.0144 4.36696 14.0105 4.36696C14.0066 4.36696 14.0027 4.36696 13.9988 4.36696C13.9949 4.36696 13.9909 4.36696 13.987 4.36696C13.9831 4.36696 13.9792 4.36696 13.9753 4.36696C13.9714 4.36696 13.9675 4.36696 13.9636 4.36696C13.9596 4.36696 13.9557 4.36696 13.9518 4.36696C13.9479 4.36696 13.944 4.36696 13.9401 4.36696C13.9362 4.36696 13.9323 4.36696 13.9284 4.36696C13.9244 4.36696 13.9205 4.36696 13.9166 4.36696C13.9127 4.36696 13.9088 4.36696 13.9049 4.36696C13.901 4.36696 13.8971 4.36696 13.8932 4.36696C13.8893 4.36696 13.8853 4.36696 13.8814 4.36696C13.8775 4.36696 13.8736 4.36696 13.8697 4.36696C13.8658 4.36696 13.8619 4.36696 13.858 4.36696C13.8541 4.36696 13.8502 4.36696 13.8462 4.36696C13.8423 4.36696 13.8384 4.36696 13.8345 4.36696C13.8306 4.36696 13.8267 4.36696 13.8228 4.36696C13.8189 4.36696 13.815 4.36696 13.8111 4.36696C13.8072 4.36696 13.8033 4.36696 13.7993 4.36696C13.7954 4.36696 13.7915 4.36696 13.7876 4.36696C13.7837 4.36696 13.7798 4.36696 13.7759 4.36696C13.772 4.36696 13.7681 4.36696 13.7642 4.36696C13.7603 4.36696 13.7564 4.36696 13.7525 4.36696C13.7486 4.36696 13.7446 4.36696 13.7407 4.36696C13.7368 4.36696 13.7329 4.36696 13.729 4.36696C13.7251 4.36696 13.7212 4.36696 13.7173 4.36696C13.7134 4.36696 13.7095 4.36696 13.7056 4.36696C13.7017 4.36696 13.6978 4.36696 13.6939 4.36696C13.69 4.36696 13.6861 4.36696 13.6822 4.36696C13.6783 4.36696 13.6743 4.36696 13.6704 4.36696C13.6665 4.36696 13.6626 4.36696 13.6587 4.36696C13.6548 4.36696 13.6509 4.36696 13.647 4.36696C13.6431 4.36696 13.6392 4.36696 13.6353 4.36696C13.6314 4.36696 13.6275 4.36696 13.6236 4.36696C13.6197 4.36696 13.6158 4.36696 13.6119 4.36696C13.608 4.36696 13.6041 4.36696 13.6002 4.36696C13.5963 4.36696 13.5924 4.36696 13.5885 4.36696C13.5846 4.36696 13.5806 4.36696 13.5767 4.36696C13.5728 4.36696 13.5689 4.36696 13.565 4.36696C13.5611 4.36696 13.5572 4.36696 13.5533 4.36696C13.5494 4.36696 13.5455 4.36696 13.5416 4.36696C13.5377 4.36696 13.5338 4.36696 13.5299 4.36696C13.526 4.36696 13.5221 4.36696 13.5182 4.36696C13.5143 4.36696 13.5104 4.36696 13.5065 4.36696C13.5026 4.36696 13.4987 4.36696 13.4948 4.36696C13.4909 4.36696 13.487 4.36696 13.4831 4.36696C13.4792 4.36696 13.4753 4.36696 13.4714 4.36696C13.4675 4.36696 13.4636 4.36696 13.4597 4.36696C13.4558 4.36696 13.4519 4.36696 13.448 4.36696C13.4441 4.36696 13.4402 4.36696 13.4363 4.36696C13.4324 4.36696 13.4285 4.36696 13.4246 4.36696C13.4207 4.36696 13.4168 4.36696 13.4129 4.36696C13.409 4.36696 13.4051 4.36696 13.4012 4.36696C13.3973 4.36696 13.3934 4.36696 13.3895 4.36696C13.3856 4.36696 13.3817 4.36696 13.3778 4.36696C13.3739 4.36696 13.37 4.36696 13.3661 4.36696C13.3622 4.36696 13.3583 4.36696 13.3544 4.36696C13.3505 4.36696 13.3466 4.36696 13.3427 4.36696C13.3388 4.36696 13.3349 4.36696 13.331 4.36696C13.3271 4.36696 13.3232 4.36696 13.3193 4.36696C13.3154 4.36696 13.3115 4.36696 13.3076 4.36696C13.3037 4.36696 13.2998 4.36696 13.2959 4.36696C13.292 4.36696 13.2881 4.36696 13.2842 4.36696C13.2803 4.36696 13.2764 4.36696 13.2725 4.36696C13.2686 4.36696 13.2647 4.36696 13.2608 4.36696C13.2569 4.36696 13.253 4.36696 13.2491 4.36696C13.2452 4.36696 13.2414 4.36696 13.2375 4.36696C13.2336 4.36696 13.2297 4.36696 13.2258 4.36696C13.2219 4.36696 13.218 4.36696 13.2141 4.36696C13.2102 4.36696 13.2063 4.36696 13.2024 4.36696C13.1985 4.36696 13.1946 4.36696 13.1907 4.36696C13.1868 4.36696 13.1829 4.36696 13.179 4.36696C13.1751 4.36696 13.1712 4.36696 13.1673 4.36696C13.1634 4.36696 13.1595 4.36696 13.1556 4.36696C13.1517 4.36696 13.1478 4.36696 13.1439 4.36696C13.14 4.36696 13.1362 4.36696 13.1323 4.36696C13.1284 4.36696 13.1245 4.36696 13.1206 4.36696C13.1167 4.36696 13.1128 4.36696 13.1089 4.36696C13.105 4.36696 13.1011 4.36696 13.0972 4.36696C13.0933 4.36696 13.0894 4.36696 13.0855 4.36696C13.0816 4.36696 13.0777 4.36696 13.0738 4.36696C13.0699 4.36696 13.066 4.36696 13.0621 4.36696C13.0583 4.36696 13.0544 4.36696 13.0505 4.36696C13.0466 4.36696 13.0427 4.36696 13.0388 4.36696C13.0349 4.36696 13.031 4.36696 13.0271 4.36696C13.0232 4.36696 13.0193 4.36696 13.0154 4.36696C13.0115 4.36696 13.0076 4.36696 13.0037 4.36696C12.9998 4.36696 12.996 4.36696 12.9921 4.36696C12.9882 4.36696 12.9843 4.36696 12.9804 4.36696C12.9765 4.36696 12.9726 4.36696 12.9687 4.36696C12.9648 4.36696 12.9609 4.36696 12.957 4.36696C12.9531 4.36696 12.9492 4.36696 12.9453 4.36696C12.9414 4.36696 12.9376 4.36696 12.9337 4.36696C12.9298 4.36696 12.9259 4.36696 12.922 4.36696C12.9181 4.36696 12.9142 4.36696 12.9103 4.36696C12.9064 4.36696 12.9025 4.36696 12.8986 4.36696C12.8947 4.36696 12.8908 4.36696 12.8869 4.36696C12.8831 4.36696 12.8792 4.36696 12.8753 4.36696C12.8714 4.36696 12.8675 4.36696 12.8636 4.36696C12.8597 4.36696 12.8558 4.36696 12.8519 4.36696C12.848 4.36696 12.8441 4.36696 12.8402 4.36696C12.8364 4.36696 12.8325 4.36696 12.8286 4.36696C12.8247 4.36696 12.8208 4.36696 12.8169 4.36696C12.813 4.36696 12.8091 4.36696 12.8052 4.36696C12.8013 4.36696 12.7974 4.36696 12.7935 4.36696C12.7897 4.36696 12.7858 4.36696 12.7819 4.36696C12.778 4.36696 12.7741 4.36696 12.7702 4.36696C12.7663 4.36696 12.7624 4.36696 12.7585 4.36696C12.7546 4.36696 12.7507 4.36696 12.7469 4.36696C12.743 4.36696 12.7391 4.36696 12.7352 4.36696C12.7313 4.36696 12.7274 4.36696 12.7235 4.36696C12.7196 4.36696 12.7157 4.36696 12.7118 4.36696C12.7079 4.36696 12.7041 4.36696 12.7002 4.36696C12.6963 4.36696 12.6924 4.36696 12.6885 4.36696C12.6846 4.36696 12.6807 4.36696 12.6768 4.36696C12.6729 4.36696 12.669 4.36696 12.6652 4.36696C12.6613 4.36696 12.6574 4.36696 12.6535 4.36696C12.6496 4.36696 12.6457 4.36696 12.6418 4.36696C12.6379 4.36696 12.634 4.36696 12.6301 4.36696C12.6263 4.36696 12.6224 4.36696 12.6185 4.36696C12.6146 4.36696 12.6107 4.36696 12.6068 4.36696C12.6029 4.36696 12.599 4.36696 12.5951 4.36696C12.5912 4.36696 12.5874 4.36696 12.5835 4.36696C12.5796 4.36696 12.5757 4.36696 12.5718 4.36696C12.5679 4.36696 12.564 4.36696 12.5601 4.36696C12.5562 4.36696 12.5524 4.36696 12.5485 4.36696C12.5446 4.36696 12.5407 4.36696 12.5368 4.36696C12.5329 4.36696 12.529 4.36696 12.5251 4.36696C12.5212 4.36696 12.5173 4.36696 12.5135 4.36696C12.5096 4.36696 12.5057 4.36696 12.5018 4.36696C12.4979 4.36696 12.494 4.36696 12.4901 4.36696C12.4862 4.36696 12.4823 4.36696 12.4785 4.36696C12.4746 4.36696 12.4707 4.36696 12.4668 4.36696C12.4629 4.36696 12.459 4.36696 12.4551 4.36696C12.4512 4.36696 12.4473 4.36696 12.4435 4.36696C12.4396 4.36696 12.4357 4.36696 12.4318 4.36696C12.4279 4.36696 12.424 4.36696 12.4201 4.36696C12.4162 4.36696 12.4124 4.36696 12.4085 4.36696C12.4046 4.36696 12.4007 4.36696 12.3968 4.36696C12.3929 4.36696 12.389 4.36696 12.3851 4.36696C12.3812 4.36696 12.3774 4.36696 12.3735 4.36696C12.3696 4.36696 12.3657 4.36696 12.3618 4.36696C12.3579 4.36696 12.354 4.36696 12.3501 4.36696C12.3463 4.36696 12.3424 4.36696 12.3385 4.36696C12.3346 4.36696 12.3307 4.36696 12.3268 4.36696C12.3229 4.36696 12.319 4.36696 12.3151 4.36696C12.3113 4.36696 12.3074 4.36696 12.3035 4.36696C12.2996 4.36696 12.2957 4.36696 12.2918 4.36696C12.2879 4.36696 12.284 4.36696 12.2802 4.36696C12.2763 4.36696 12.2724 4.36696 12.2685 4.36696C12.2646 4.36696 12.2607 4.36696 12.2568 4.36696C12.2529 4.36696 12.2491 4.36696 12.2452 4.36696C12.2413 4.36696 12.2374 4.36696 12.2335 4.36696C12.2296 4.36696 12.2257 4.36696 12.2218 4.36696C12.218 4.36696 12.2141 4.36696 12.2102 4.36696C12.2063 4.36696 12.2024 4.36696 12.1985 4.36696C12.1946 4.36696 12.1907 4.36696 12.1869 4.36696C12.183 4.36696 12.1791 4.36696 12.1752 4.36696C12.1713 4.36696 12.1674 4.36696 12.1635 4.36696C12.1596 4.36696 12.1557 4.36696 12.1519 4.36696C12.148 4.36696 12.1441 4.36696 12.1402 4.36696C12.1363 4.36696 12.1324 4.36696 12.1285 4.36696C12.1246 4.36696 12.1208 4.36696 12.1169 4.36696C12.113 4.36696 12.1091 4.36696 12.1052 4.36696C12.1013 4.36696 12.0974 4.36696 12.0935 4.36696C12.0897 4.36696 12.0858 4.36696 12.0819 4.36696C12.078 4.36696 12.0741 4.36696 12.0702 4.36696C12.0663 4.36696 12.0625 4.36696 12.0586 4.36696C12.0547 4.36696 12.0508 4.36696 12.0469 4.36696C12.043 4.36696 12.0391 4.36696 12.0352 4.36696C12.0314 4.36696 12.0275 4.36696 12.0236 4.36696C12.0197 4.36696 12.0158 4.36696 12.0119 4.36696C12.008 4.36696 12.0041 4.36696 12.0003 4.36696C11.9964 4.36696 11.9925 4.36696 11.9886 4.36696C11.9847 4.36696 11.9808 4.36696 11.9769 4.36696C11.973 4.36696 11.9692 4.36696 11.9653 4.36696C11.9614 4.36696 11.9575 4.36696 11.9536 4.36696C11.9497 4.36696 11.9458 4.36696 11.9419 4.36696C11.9381 4.36696 11.9342 4.36696 11.9303 4.36696C11.9264 4.36696 11.9225 4.36696 11.9186 4.36696C11.9147 4.36696 11.9108 4.36696 11.907 4.36696C11.9031 4.36696 11.8992 4.36696 11.8953 4.36696C11.8914 4.36696 11.8875 4.36696 11.8836 4.36696C11.8797 4.36696 11.8759 4.36696 11.872 4.36696C11.8681 4.36696 11.8642 4.36696 11.8603 4.36696C11.8564 4.36696 11.8525 4.36696 11.8486 4.36696C11.8448 4.36696 11.8409 4.36696 11.837 4.36696C11.8331 4.36696 11.8292 4.36696 11.8253 4.36696C11.8214 4.36696 11.8175 4.36696 11.8137 4.36696C11.8098 4.36696 11.8059 4.36696 11.802 4.36696C11.7981 4.36696 11.7942 4.36696 11.7903 4.36696C11.7864 4.36696 11.7826 4.36696 11.7787 4.36696C11.7748 4.36696 11.7709 4.36696 11.767 4.36696C11.7631 4.36696 11.7592 4.36696 11.7553 4.36696C11.7514 4.36696 11.7476 4.36696 11.7437 4.36696C11.7398 4.36696 11.7359 4.36696 11.732 4.36696C11.7281 4.36696 11.7242 4.36696 11.7203 4.36696C11.7165 4.36696 11.7126 4.36696 11.7087 4.36696C11.7048 4.36696 11.7009 4.36696 11.697 4.36696C11.6931 4.36696 11.6892 4.36696 11.6854 4.36696C11.6815 4.36696 11.6776 4.36696 11.6737 4.36696C11.6698 4.36696 11.6659 4.36696 11.662 4.36696C11.6581 4.36696 11.6542 4.36696 11.6504 4.36696C11.6465 4.36696 11.6426 4.36696 11.6387 4.36696C11.6348 4.36696 11.6309 4.36696 11.627 4.36696C11.6231 4.36696 11.6193 4.36696 11.6154 4.36696C11.6115 4.36696 11.6076 4.36696 11.6037 4.36696C11.5998 4.36696 11.5959 4.36696 11.592 4.36696C11.5881 4.36696 11.5843 4.36696 11.5804 4.36696C11.5765 4.36696 11.5726 4.36696 11.5687 4.36696C11.5648 4.36696 11.5609 4.36696 11.557 4.36696C11.5531 4.36696 11.5493 4.36696 11.5454 4.36696C11.5415 4.36696 11.5376 4.36696 11.5337 4.36696C11.5298 4.36696 11.5259 4.36696 11.522 4.36696C11.5181 4.36696 11.5143 4.36696 11.5104 4.36696C11.5065 4.36696 11.5026 4.36696 11.4987 4.36696C11.4948 4.36696 11.4909 4.36696 11.487 4.36696C11.4831 4.36696 11.4793 4.36696 11.4754 4.36696C11.4715 4.36696 11.4676 4.36696 11.4637 4.36696C11.4598 4.36696 11.4559 4.36696 11.452 4.36696C11.4481 4.36696 11.4443 4.36696 11.4404 4.36696C11.4365 4.36696 11.4326 4.36696 11.4287 4.36696C11.4248 4.36696 11.4209 4.36696 11.417 4.36696C11.4131 4.36696 11.4092 4.36696 11.4054 4.36696C11.4015 4.36696 11.3976 4.36696 11.3937 4.36696C11.3898 4.36696 11.3859 4.36696 11.382 4.36696C11.3781 4.36696 11.3742 4.36696 11.3703 4.36696C11.3665 4.36696 11.3626 4.36696 11.3587 4.36696C11.3548 4.36696 11.3509 4.36696 11.347 4.36696C11.3431 4.36696 11.3392 4.36696 11.3353 4.36696C11.3314 4.36696 11.3276 4.36696 11.3237 4.36696C11.3198 4.36696 11.3159 4.36696 11.312 4.36696C11.3081 4.36696 11.3042 4.36696 11.3003 4.36696C11.2964 4.36696 11.2925 4.36696 11.2887 4.36696C11.2848 4.36696 11.2809 4.36696 11.277 4.36696C11.2731 4.36696 11.2692 4.36696 11.2653 4.36696C11.2614 4.36696 11.2575 4.36696 11.2536 4.36696C11.2497 4.36696 11.2459 4.36696 11.242 4.36696C11.2381 4.36696 11.2342 4.36696 11.2303 4.36696C11.2264 4.36696 11.2225 4.36696 11.2186 4.36696C11.2147 4.36696 11.2108 4.36696 11.2069 4.36696C11.203 4.36696 11.1992 4.36696 11.1953 4.36696C11.1914 4.36696 11.1875 4.36696 11.1836 4.36696C11.1797 4.36696 11.1758 4.36696 11.1719 4.36696C11.168 4.36696 11.1641 4.36696 11.1602 4.36696C11.1563 4.36696 11.1525 4.36696 11.1486 4.36696C11.1447 4.36696 11.1408 4.36696 11.1369 4.36696C11.133 4.36696 11.1291 4.36696 11.1252 4.36696C11.1213 4.36696 11.1174 4.36696 11.1135 4.36696C11.1096 4.36696 11.1057 4.36696 11.1019 4.36696C11.098 4.36696 11.0941 4.36696 11.0902 4.36696C11.0863 4.36696 11.0824 4.36696 11.0785 4.36696C11.0746 4.36696 11.0707 4.36696 11.0668 4.36696C11.0629 4.36696 11.059 4.36696 11.0551 4.36696C11.0512 4.36696 11.0473 4.36696 11.0435 4.36696C11.0396 4.36696 11.0357 4.36696 11.0318 4.36696C11.0279 4.36696 11.024 4.36696 11.0201 4.36696C11.0162 4.36696 11.0123 4.36696 11.0084 4.36696C11.0045 4.36696 11.0006 4.36696 10.9967 4.36696C10.9928 4.36696 10.9889 4.36696 10.985 4.36696C10.9812 4.36696 10.9773 4.36696 10.9734 4.36696C10.9695 4.36696 10.9656 4.36696 10.9617 4.36696C10.9578 4.36696 10.9539 4.36696 10.95 4.36696C10.9461 4.36696 10.9422 4.36696 10.9383 4.36696C10.9344 4.36696 10.9305 4.36696 10.9266 4.36696C10.9227 4.36696 10.9188 4.36696 10.9149 4.36696C10.9111 4.36696 10.9072 4.36696 10.9033 4.36696C10.8994 4.36696 10.8955 4.36696 10.8916 4.36696C10.8877 4.36696 10.8838 4.36696 10.8799 4.36696C10.876 4.36696 10.8721 4.36696 10.8682 4.36696C10.8643 4.36696 10.8604 4.36696 10.8565 4.36696C10.8526 4.36696 10.8487 4.36696 10.8448 4.36696C10.8409 4.36696 10.837 4.36696 10.8331 4.36696C10.8292 4.36696 10.8253 4.36696 10.8214 4.36696C10.8176 4.36696 10.8137 4.36696 10.8098 4.36696C10.8059 4.36696 10.802 4.36696 10.7981 4.36696C10.7942 4.36696 10.7903 4.36696 10.7864 4.36696C10.7825 4.36696 10.7786 4.36696 10.7747 4.36696C10.7708 4.36696 10.7669 4.36696 10.763 4.36696C10.7591 4.36696 10.7552 4.36696 10.7513 4.36696C10.7474 4.36696 10.7435 4.36696 10.7396 4.36696C10.7357 4.36696 10.7318 4.36696 10.7279 4.36696C10.724 4.36696 10.7201 4.36696 10.7162 4.36696C10.7123 4.36696 10.7084 4.36696 10.7045 4.36696C10.7006 4.36696 10.6967 4.36696 10.6928 4.36696C10.6889 4.36696 10.685 4.36696 10.6811 4.36696C10.6772 4.36696 10.6733 4.36696 10.6694 4.36696C10.6655 4.36696 10.6616 4.36696 10.6577 4.36696C10.6538 4.36696 10.6499 4.36696 10.646 4.36696C10.6421 4.36696 10.6382 4.36696 10.6343 4.36696C10.6304 4.36696 10.6266 4.36696 10.6227 4.36696C10.6188 4.36696 10.6149 4.36696 10.611 4.36696C10.6071 4.36696 10.6032 4.36696 10.5993 4.36696C10.5954 4.36696 10.5915 4.36696 10.5876 4.36696C10.5837 4.36696 10.5797 4.36696 10.5758 4.36696C10.5719 4.36696 10.568 4.36696 10.5641 4.36696C10.5602 4.36696 10.5563 4.36696 10.5524 4.36696C10.5485 4.36696 10.5446 4.36696 10.5407 4.36696C10.5368 4.36696 10.5329 4.36696 10.529 4.36696C10.5251 4.36696 10.5212 4.36696 10.5173 4.36696C10.5134 4.36696 10.5095 4.36696 10.5056 4.36696C10.5017 4.36696 10.4978 4.36696 10.4939 4.36696C10.49 4.36696 10.4861 4.36696 10.4822 4.36696C10.4783 4.36696 10.4744 4.36696 10.4705 4.36696C10.4666 4.36696 10.4627 4.36696 10.4588 4.36696C10.4549 4.36696 10.451 4.36696 10.4471 4.36696C10.4432 4.36696 10.4393 4.36696 10.4354 4.36696C10.4315 4.36696 10.4276 4.36696 10.4237 4.36696C10.4198 4.36696 10.4159 4.36696 10.412 4.36696C10.4081 4.36696 10.4042 4.36696 10.4003 4.36696C10.3963 4.36696 10.3924 4.36696 10.3885 4.36696C10.3846 4.36696 10.3807 4.36696 10.3768 4.36696C10.3729 4.36696 10.369 4.36696 10.3651 4.36696C10.3612 4.36696 10.3573 4.36696 10.3534 4.36696C10.3495 4.36696 10.3456 4.36696 10.3417 4.36696C10.3378 4.36696 10.3339 4.36696 10.33 4.36696C10.3261 4.36696 10.3222 4.36696 10.3183 4.36696C10.3143 4.36696 10.3104 4.36696 10.3065 4.36696C10.3026 4.36696 10.2987 4.36696 10.2948 4.36696C10.2909 4.36696 10.287 4.36696 10.2831 4.36696C10.2792 4.36696 10.2753 4.36696 10.2714 4.36696C10.2675 4.36696 10.2636 4.36696 10.2597 4.36696C10.2557 4.36696 10.2518 4.36696 10.2479 4.36696C10.244 4.36696 10.2401 4.36696 10.2362 4.36696C10.2323 4.36696 10.2284 4.36696 10.2245 4.36696C10.2206 4.36696 10.2167 4.36696 10.2128 4.36696C10.2089 4.36696 10.205 4.36696 10.201 4.36696C10.1971 4.36696 10.1932 4.36696 10.1893 4.36696C10.1854 4.36696 10.1815 4.36696 10.1776 4.36696C10.1737 4.36696 10.1698 4.36696 10.1659 4.36696C10.162 4.36696 10.158 4.36696 10.1541 4.36696C10.1502 4.36696 10.1463 4.36696 10.1424 4.36696C10.1385 4.36696 10.1346 4.36696 10.1307 4.36696C10.1268 4.36696 10.1229 4.36696 10.1189 4.36696C10.115 4.36696 10.1111 4.36696 10.1072 4.36696C10.1033 4.36696 10.0994 4.36696 10.0955 4.36696C10.0916 4.36696 10.0877 4.36696 10.0838 4.36696C10.0798 4.36696 10.0759 4.36696 10.072 4.36696C10.0681 4.36696 10.0642 4.36696 10.0603 4.36696C10.0564 4.36696 10.0525 4.36696 10.0486 4.36696C10.0446 4.36696 10.0407 4.36696 10.0368 4.36696C10.0329 4.36696 10.029 4.36696 10.0251 4.36696C10.0212 4.36696 10.0173 4.36696 10.0133 4.36696C10.0094 4.36696 10.0055 4.36696 10.0016 4.36696C9.99769 4.36696 9.99378 4.36696 9.98986 4.36696C9.98595 4.36696 9.98204 4.36696 9.97812 4.36696C9.97421 4.36696 9.97029 4.36696 9.96638 4.36696C9.96247 4.36696 9.95855 4.36696 9.95464 4.36696C9.95072 4.36696 9.94681 4.36696 9.94289 4.36696C9.93898 4.36696 9.93506 4.36696 9.93115 4.36696C9.92724 4.36696 9.92332 4.36696 9.9194 4.36696C9.91549 4.36696 9.91157 4.36696 9.90766 4.36696C9.90374 4.36696 9.89983 4.36696 9.89591 4.36696C9.892 4.36696 9.88808 4.36696 9.88416 4.36696C9.88025 4.36696 9.87633 4.36696 9.87242 4.36696C9.8685 4.36696 9.86458 4.36696 9.86067 4.36696C9.85675 4.36696 9.85283 4.36696 9.84891 4.36696C9.845 4.36696 9.84108 4.36696 9.83716 4.36696C9.83325 4.36696 9.82933 4.36696 9.82541 4.36696C9.82149 4.36696 9.81757 4.36696 9.81366 4.36696C9.80974 4.36696 9.80582 4.36696 9.8019 4.36696C9.79798 4.36696 9.79406 4.36696 9.79015 4.36696C9.78623 4.36696 9.78231 4.36696 9.77839 4.36696C9.77447 4.36696 9.77055 4.36696 9.76663 4.36696C9.76271 4.36696 9.75879 4.36696 9.75487 4.36696C9.75095 4.36696 9.74703 4.36696 9.74311 4.36696C9.73919 4.36696 9.73527 4.36696 9.73135 4.36696C9.72743 4.36696 9.72351 4.36696 9.71959 4.36696C9.71567 4.36696 9.71175 4.36696 9.70783 4.36696C9.70391 4.36696 9.69999 4.36696 9.69606 4.36696C9.69214 4.36696 9.68822 4.36696 9.6843 4.36696C9.68038 4.36696 9.67646 4.36696 9.67253 4.36696C9.66861 4.36696 9.66469 4.36696 9.66077 4.36696C9.65684 4.36696 9.65292 4.36696 9.649 4.36696C9.64508 4.36696 9.64115 4.36696 9.63723 4.36696C9.63331 4.36696 9.62938 4.36696 9.62546 4.36696C9.62154 4.36696 9.61761 4.36696 9.61369 4.36696C9.60977 4.36696 9.60584 4.36696 9.60192 4.36696C9.59799 4.36696 9.59407 4.36696 9.59014 4.36696C9.58622 4.36696 9.58229 4.36696 9.57837 4.36696C9.57444 4.36696 9.57052 4.36696 9.56659 4.36696C9.56267 4.36696 9.55874 4.36696 9.55482 4.36696C9.55089 4.36696 9.54697 4.36696 9.54304 4.36696C9.53911 4.36696 9.53519 4.36696 9.53126 4.36696C9.52733 4.36696 9.52341 4.36696 9.51948 4.36696C9.51555 4.36696 9.51163 4.36696 9.5077 4.36696C9.50377 4.36696 9.49985 4.36696 9.49592 4.36696C9.49199 4.36696 9.48806 4.36696 9.48414 4.36696C9.48021 4.36696 9.47628 4.36696 9.47235 4.36696C9.46842 4.36696 9.46449 4.36696 9.46057 4.36696C9.45664 4.36696 9.45271 4.36696 9.44878 4.36696C9.44485 4.36696 9.44092 4.36696 9.43699 4.36696C9.43306 4.36696 9.42913 4.36696 9.4252 4.36696C9.42127 4.36696 9.41734 4.36696 9.41341 4.36696C9.40948 4.36696 9.40555 4.36696 9.40162 4.36696C9.39769 4.36696 9.39376 4.36696 9.38983 4.36696C9.3859 4.36696 9.38197 4.36696 9.37804 4.36696C9.37411 4.36696 9.37017 4.36696 9.36624 4.36696C9.36231 4.36696 9.35838 4.36696 9.35445 4.36696C9.35051 4.36696 9.34658 4.36696 9.34265 4.36696C9.33872 4.36696 9.33478 4.36696 9.33085 4.36696C9.32692 4.36696 9.32298 4.36696 9.31905 4.36696C9.31512 4.36696 9.31118 4.36696 9.30725 4.36696C9.30332 4.36696 9.29938 4.36696 9.29545 4.36696C9.29152 4.36696 9.28758 4.36696 9.28365 4.36696C9.27971 4.36696 9.27578 4.36696 9.27184 4.36696C9.26791 4.36696 9.26397 4.36696 9.26004 4.36696C9.2561 4.36696 9.25217 4.36696 9.24823 4.36696C9.24429 4.36696 9.24036 4.36696 9.23642 4.36696C9.23249 4.36696 9.22855 4.36696 9.22461 4.36696C9.22068 4.36696 9.21674 4.36696 9.2128 4.36696C9.20887 4.36696 9.20493 4.36696 9.20099 4.36696C9.19705 4.36696 9.19312 4.36696 9.18918 4.36696C9.18524 4.36696 9.1813 4.36696 9.17736 4.36696C9.17343 4.36696 9.16949 4.36696 9.16555 4.36696C9.16161 4.36696 9.15767 4.36696 9.15373 4.36696C9.14979 4.36696 9.14585 4.36696 9.14192 4.36696C9.13798 4.36696 9.13404 4.36696 9.1301 4.36696C9.12616 4.36696 9.12222 4.36696 9.11828 4.36696C9.11434 4.36696 9.11039 4.36696 9.10645 4.36696C9.10251 4.36696 9.09857 4.36696 9.09463 4.36696C9.09069 4.36696 9.08675 4.36696 9.08281 4.36696C9.07887 4.36696 9.07492 4.36696 9.07098 4.36696C9.06704 4.36696 9.0631 4.36696 9.05915 4.36696C9.05521 4.36696 9.05127 4.36696 9.04733 4.36696C9.04338 4.36696 9.03944 4.36696 9.0355 4.36696C9.03155 4.36696 9.02761 4.36696 9.02367 4.36696C9.01972 4.36696 9.01578 4.36696 9.01183 4.36696C9.00789 4.36696 9.00394 4.36696 9 4.36696V6.36696ZM14.8597 6.35705C16.0689 6.52861 17.2664 6.80953 18.4373 7.19983L19.0697 5.30246C17.7839 4.87383 16.4687 4.5653 15.1407 4.37688L14.8597 6.35705ZM12 3.5C12.8065 3.5 13.2741 3.72995 13.5406 3.99829C13.8097 4.26922 14.0002 4.70646 14.0002 5.36696H16.0002C16.0002 4.32104 15.6906 3.3248 14.9596 2.58886C14.226 1.85031 13.1935 1.5 12 1.5V3.5ZM20.9 10C21.4917 10 22.0331 9.50954 21.9956 8.84372L19.9988 8.9564C19.9674 8.40086 20.4187 8 20.9 8L20.9 10ZM3.1 8C3.58129 8 4.03261 8.40086 4.00125 8.95641L2.00443 8.84371C1.96685 9.50954 2.50826 10 3.1 10L3.1 8Z" fill="#555770"/>
</svg>
