<svg width="24" height="24" viewBox="0 0 24 24" fill="none" xmlns="http://www.w3.org/2000/svg">
<path d="M18.8367 19.8486L19.8338 19.773L18.8367 19.8486ZM5.66447 9.66931L6.55984 9.22398L5.66447 9.66931ZM18.1001 5.52381H5.89999V7.52381H18.1001V5.52381ZM5.00462 6.07848L4.7691 6.55203L6.55984 7.44268L6.79536 6.96913L5.00462 6.07848ZM4.7691 10.1146L5.00462 10.5882L6.79536 9.69753L6.55984 9.22398L4.7691 10.1146ZM17.2047 6.96912L17.4402 7.44272L19.231 6.55211L18.9954 6.0785L17.2047 6.96912ZM17.4402 9.22394L17.2047 9.69755L18.9954 10.5882L19.231 10.1146L17.4402 9.22394ZM18.1001 9.14286H5.89999V11.1429H18.1001V9.14286ZM4.90286 10.0672L4.16616 19.7729L6.16043 19.9243L6.89713 10.2185L4.90286 10.0672ZM7.15756 23H16.8424V21H7.15756V23ZM19.8338 19.773L19.0972 10.0672L17.1029 10.2185L17.8396 19.9243L19.8338 19.773ZM14.5 12H11.5V14H14.5V12ZM11.5 17H12.5V15H11.5V17ZM12.5 18H9.5V20H12.5V18ZM6.8939 6.63405C7.00335 5.64728 7.5948 4.7131 8.57413 4.02637L7.42587 2.38884C6.06605 3.34237 5.09005 4.75504 4.90609 6.41357L6.8939 6.63405ZM8.57413 4.02637C8.94773 3.76439 9.37387 3.54199 9.84179 3.37181L9.15821 1.49226C8.53169 1.72012 7.94842 2.02242 7.42587 2.38884L8.57413 4.02637ZM9.84179 3.37181C10.4945 3.13444 11.2248 3 12 3V1C10.9942 1 10.0323 1.17436 9.15821 1.49226L9.84179 3.37181ZM7.59907 4.12371C7.93715 4.27167 8.55691 4.45725 9.17979 4.30169C9.52601 4.21523 9.88924 4.01654 10.1522 3.64499C10.4069 3.28514 10.5 2.85849 10.5 2.43204H8.5C8.5 2.5784 8.46813 2.56245 8.51968 2.48962C8.54496 2.4539 8.57907 2.4214 8.61724 2.39691C8.65356 2.3736 8.68272 2.36441 8.69521 2.36129C8.70674 2.35841 8.70521 2.36034 8.68721 2.36047C8.6695 2.36059 8.64287 2.35891 8.60799 2.35316C8.53489 2.34111 8.45851 2.31669 8.40093 2.2915L7.59907 4.12371ZM12 3C12.7752 3 13.5056 3.13444 14.1583 3.37181L14.8418 1.49226C13.9677 1.17436 13.0059 1 12 1V3ZM14.1583 3.37181C14.6262 3.54199 15.0523 3.76439 15.4259 4.02637L16.5742 2.38884C16.0516 2.02242 15.4684 1.72012 14.8418 1.49226L14.1583 3.37181ZM15.4259 4.02637C16.4053 4.7131 16.9967 5.64728 17.1062 6.63405L19.094 6.41357C18.91 4.75504 17.934 3.34237 16.5742 2.38884L15.4259 4.02637ZM13.5 2.43207C13.5001 2.80799 13.6027 3.48443 14.1305 3.96022C14.7728 4.53933 15.6311 4.48733 16.4267 4.11202L15.5734 2.30319C15.4732 2.35045 15.4009 2.37414 15.3539 2.38562C15.3073 2.397 15.2904 2.39521 15.2978 2.3955C15.3067 2.39584 15.3342 2.39864 15.3719 2.4138C15.4096 2.42902 15.4432 2.45091 15.4697 2.47478C15.5189 2.51916 15.5227 2.54998 15.514 2.5241C15.5106 2.51404 15.5068 2.49901 15.5039 2.4802C15.5011 2.46138 15.5001 2.44433 15.5 2.432L13.5 2.43207ZM13 17.5C13 17.7761 12.7761 18 12.5 18V20C13.8807 20 15 18.8807 15 17.5H13ZM12.5 17C12.7761 17 13 17.2239 13 17.5H15C15 16.1193 13.8807 15 12.5 15V17ZM9 14.5C9 15.8807 10.1193 17 11.5 17V15C11.2239 15 11 14.7761 11 14.5H9ZM4.16616 19.7729C4.03399 21.5143 5.41123 23 7.15756 23V21C6.57545 21 6.11637 20.5048 6.16043 19.9243L4.16616 19.7729ZM11.5 12C10.1193 12 9 13.1193 9 14.5H11C11 14.2239 11.2239 14 11.5 14V12ZM17.4402 7.44272C17.7192 8.00369 17.7192 8.66298 17.4402 9.22394L19.231 10.1146C19.789 8.99262 19.789 7.67405 19.231 6.55211L17.4402 7.44272ZM16.8424 23C18.5888 23 19.966 21.5143 19.8338 19.773L17.8396 19.9243C17.8836 20.5048 17.4246 21 16.8424 21V23ZM4.7691 6.55203C4.21107 7.67401 4.21107 8.99266 4.7691 10.1146L6.55984 9.22398C6.28082 8.663 6.28082 8.00367 6.55984 7.44268L4.7691 6.55203Z" fill="#555770"/>
</svg>
