<svg width="24" height="24" viewBox="0 0 24 24" fill="none" xmlns="http://www.w3.org/2000/svg">
<g clip-path="url(#clip0_402_14984)">
<path d="M2 12L2.01682 11.0001L0.250879 10.9704L1.13397 12.5L2 12ZM5.5 18.0622L4.63397 18.5622L5.51707 20.0917L6.37431 18.5475L5.5 18.0622ZM4.16506 10.75L3.66506 9.88397L2.79904 10.384L3.29904 11.25L4.16506 10.75ZM17.5885 3L18.4545 2.5L17.9545 1.63397L17.0885 2.13397L17.5885 3ZM21.0885 9.06218L21.5885 9.9282L22.4545 9.4282L21.9545 8.56218L21.0885 9.06218ZM7.66506 16.8122L6.79904 17.3122L7.29904 18.1782L8.16506 17.6782L7.66506 16.8122ZM14.9282 20.9689L13.9282 20.96L13.9193 21.9644L14.9237 21.9689L14.9282 20.9689ZM1.13397 12.5L4.63397 18.5622L6.36603 17.5622L2.86603 11.5L1.13397 12.5ZM6.37431 18.5475L7.78938 15.9985L6.04075 15.0278L4.62569 17.5768L6.37431 18.5475ZM7.78109 15.0131L5.78109 11.549L4.04904 12.549L6.04904 16.0131L7.78109 15.0131ZM4.93188 11.0492L2.01682 11.0001L1.98318 12.9999L4.89824 13.0489L4.93188 11.0492ZM5.78109 11.549L5.03109 10.25L3.29904 11.25L4.04904 12.549L5.78109 11.549ZM4.66506 11.616L18.0885 3.86603L17.0885 2.13397L3.66506 9.88397L4.66506 11.616ZM16.7224 3.5L20.2224 9.56218L21.9545 8.56218L18.4545 2.5L16.7224 3.5ZM20.5885 8.19615L7.16506 15.9462L8.16506 17.6782L21.5885 9.9282L20.5885 8.19615ZM8.53109 16.3122L7.78109 15.0131L6.04904 16.0131L6.79904 17.3122L8.53109 16.3122ZM15.0263 12.5622C15.4405 13.2796 15.1947 14.197 14.4772 14.6112L15.4772 16.3433C17.1513 15.3768 17.7248 13.2362 16.7583 11.5622L15.0263 12.5622ZM14.4772 14.6112C13.7598 15.0254 12.8424 14.7796 12.4282 14.0622L10.6962 15.0622C11.6627 16.7362 13.8032 17.3098 15.4772 16.3433L14.4772 14.6112ZM13.9773 15.4683L13.9282 20.96L15.9282 20.9778L15.9772 15.4862L13.9773 15.4683ZM14.9237 21.9689L21.8699 22L21.8788 20L14.9327 19.9689L14.9237 21.9689Z" fill="#555770"/>
</g>
<defs>
<clipPath id="clip0_402_14984">
<rect width="24" height="24" fill="white"/>
</clipPath>
</defs>
</svg>
