<svg width="24" height="24" viewBox="0 0 24 24" fill="none" xmlns="http://www.w3.org/2000/svg">
<path d="M3 18V17H16V18H3Z" stroke="#555770" stroke-width="2"/>
<path d="M18.25 16V19H19.75V16H18.25ZM20.75 16V19H22.25V16H20.75ZM22.25 15V13H20.75V15H22.25ZM22.25 13C22.25 9.82436 19.6756 7.25 16.5 7.25V8.75C18.8472 8.75 20.75 10.6528 20.75 13H22.25ZM16.5 8.75H16.75V7.25H16.5V8.75ZM16.75 1.75H16.5V3.25H16.75V1.75ZM20.25 5.25C20.25 3.317 18.683 1.75 16.75 1.75V3.25C17.8546 3.25 18.75 4.14543 18.75 5.25H20.25ZM16.75 8.75C18.683 8.75 20.25 7.183 20.25 5.25H18.75C18.75 6.35457 17.8546 7.25 16.75 7.25V8.75ZM19.75 15V14H18.25V15H19.75ZM16 10.25H14.5V11.75H16V10.25ZM12.75 8.5C12.75 7.5335 13.5335 6.75 14.5 6.75V5.25C12.7051 5.25 11.25 6.70507 11.25 8.5H12.75ZM14.5 10.25C13.5335 10.25 12.75 9.4665 12.75 8.5H11.25C11.25 10.2949 12.7051 11.75 14.5 11.75V10.25ZM19.75 14C19.75 11.9289 18.0711 10.25 16 10.25V11.75C17.2426 11.75 18.25 12.7574 18.25 14H19.75Z" fill="#555770"/>
</svg>
