<svg width="24" height="24" viewBox="0 0 24 24" fill="none" xmlns="http://www.w3.org/2000/svg">
<path d="M21 11L21.9932 11.1168L22.1245 10H21V11ZM12 17L11.1362 17.5039L12 18.9846L12.8638 17.5039L12 17ZM12 21L11.8157 21.9829L12 22.0174L12.1843 21.9829L12 21ZM3 11V10H1.87546L2.00685 11.1168L3 11ZM12 3.5L12.7809 2.8753L12 1.89922L11.2191 2.8753L12 3.5ZM14.5 9L14.9472 9.89443L15.6078 9.56413L15.4864 8.8356L14.5 9ZM12 11L11.2929 11.7071L12 12.4142L12.7071 11.7071L12 11ZM9.5 9L8.51361 8.8356L8.39219 9.56413L9.05279 9.89443L9.5 9ZM21 10C18.8539 10 14.1361 11.3536 11.1362 16.4961L12.8638 17.5039C15.4639 13.0464 19.4794 12 21 12V10ZM20.0068 10.8832C19.8575 12.1528 19.26 14.1907 17.9579 16.036C16.6704 17.8607 14.7141 19.4737 11.8157 20.0171L12.1843 21.9829C15.6859 21.3263 18.063 19.356 19.5921 17.189C21.1067 15.0426 21.8092 12.6805 21.9932 11.1168L20.0068 10.8832ZM3 12C4.52059 12 8.53606 13.0464 11.1362 17.5039L12.8638 16.4961C9.86394 11.3536 5.14608 10 3 10V12ZM2.00685 11.1168C2.19081 12.6805 2.89333 15.0426 4.40794 17.189C5.93703 19.356 8.31406 21.3263 11.8157 21.9829L12.1843 20.0171C9.28594 19.4737 7.32964 17.8607 6.04206 16.036C4.74 14.1907 4.14252 12.1528 3.99315 10.8832L2.00685 11.1168ZM11.2191 4.1247C11.8251 4.88212 13.1517 6.99299 13.5136 9.1644L15.4864 8.8356C15.0483 6.20701 13.5083 3.78455 12.7809 2.8753L11.2191 4.1247ZM14.0528 8.10557C12.8902 8.68685 12.2874 9.29841 11.2929 10.2929L12.7071 11.7071C13.7126 10.7016 14.1098 10.3132 14.9472 9.89443L14.0528 8.10557ZM11.2191 2.8753C10.4917 3.78455 8.95171 6.20701 8.51361 8.8356L10.4864 9.1644C10.8483 6.99299 12.1749 4.88212 12.7809 4.1247L11.2191 2.8753ZM9.05279 9.89443C9.89023 10.3132 10.2874 10.7016 11.2929 11.7071L12.7071 10.2929C11.7126 9.29841 11.1098 8.68685 9.94721 8.10557L9.05279 9.89443Z" fill="#555770"/>
</svg>
