<svg width="24" height="24" viewBox="0 0 24 24" fill="none" xmlns="http://www.w3.org/2000/svg">
<path d="M7.5 10L6.50772 9.87597L6.5 9.93774V10H7.5ZM3 10L2.02986 9.75746L2 9.87689V10H3ZM16.5 10H17.5V9.95841L17.4965 9.91695L16.5 10ZM21 10H22V9.87689L21.9701 9.75746L21 10ZM4 11.6632L4.51133 10.8038L4 11.6632ZM20 11.6632L19.4887 10.8038L20 11.6632ZM4.31063 4.75746L3.34049 4.51493L4.31063 4.75746ZM6.5 10C6.5 10.4448 6.05434 11 5.25 11V13C6.93094 13 8.5 11.7643 8.5 10H6.5ZM11 10C11 10.4448 10.5543 11 9.75 11V13C11.4309 13 13 11.7643 13 10H11ZM9.75 11C8.94566 11 8.5 10.4448 8.5 10H6.5C6.5 11.7643 8.06906 13 9.75 13V11ZM15.5 10C15.5 10.4448 15.0543 11 14.25 11V13C15.9309 13 17.5 11.7643 17.5 10H15.5ZM14.25 11C13.4457 11 13 10.4448 13 10H11C11 11.7643 12.5691 13 14.25 13V11ZM18.75 11C17.9457 11 17.5 10.4448 17.5 10H15.5C15.5 11.7643 17.0691 13 18.75 13V11ZM3.97014 10.2425L5.28078 5L3.34049 4.51493L2.02986 9.75746L3.97014 10.2425ZM18.7192 5L20.0299 10.2425L21.9701 9.75746L20.6595 4.51493L18.7192 5ZM16 5H18.7192V3H16V5ZM17.4965 9.91695L16.9965 3.91695L15.0035 4.08305L15.5035 10.083L17.4965 9.91695ZM12 5H16V3H12V5ZM13 10V4H11V10H13ZM5.28078 5H8.25V3H5.28078V5ZM8.25 5H12V3H8.25V5ZM8.49228 10.124L9.24228 4.12403L7.25772 3.87597L6.50772 9.87597L8.49228 10.124ZM5.25 11C4.96658 11 4.71343 10.9241 4.51133 10.8038L3.48867 12.5226C4.00162 12.8278 4.60834 13 5.25 13V11ZM4.51133 10.8038C4.16544 10.598 4 10.2905 4 10H2C2 11.0963 2.62858 12.0108 3.48867 12.5226L4.51133 10.8038ZM3 11.6632V19H5V11.6632H3ZM5 21H19V19H5V21ZM20 10C20 10.2905 19.8346 10.598 19.4887 10.8038L20.5113 12.5226C21.3714 12.0108 22 11.0963 22 10H20ZM19.4887 10.8038C19.2866 10.9241 19.0334 11 18.75 11V13C19.3917 13 19.9984 12.8278 20.5113 12.5226L19.4887 10.8038ZM21 19V11.6632H19V19H21ZM19 21C20.1046 21 21 20.1046 21 19H19L19 19V21ZM3 19C3 20.1046 3.89543 21 5 21V19L5 19H3ZM20.6595 4.51493C20.4369 3.62459 19.637 3 18.7192 3V5L18.7192 5L20.6595 4.51493ZM5.28078 5L5.28078 5V3C4.36304 3 3.56308 3.62459 3.34049 4.51493L5.28078 5Z" fill="#555770"/>
</svg>
