<svg width="24" height="24" viewBox="0 0 24 24" fill="none" xmlns="http://www.w3.org/2000/svg">
<path d="M21.4142 12.0674L21.8385 12.4917L21.8385 12.4917L21.4142 12.0674ZM21.4142 5.89586L21.8385 5.4716L21.8385 5.47159L21.4142 5.89586ZM18.661 5.28506L18.3523 4.77056L18.661 5.28506ZM21.1042 5.58583L20.6799 6.01009L20.6799 6.01009L21.1042 5.58583ZM21.1042 12.3775L20.6799 11.9532L20.6799 11.9532L21.1042 12.3775ZM18.661 12.6782L18.3498 13.1912L18.3523 13.1927L18.661 12.6782ZM2.58579 12.0674L3.01005 11.6432L3.01005 11.6432L2.58579 12.0674ZM5.33902 5.28506L5.03032 5.79955L5.03032 5.79955L5.33902 5.28506ZM2.89582 12.3775L2.47155 12.8017L2.47155 12.8017L2.89582 12.3775ZM5.33902 12.6782L5.64772 13.1927L5.65021 13.1912L5.33902 12.6782ZM10 11.2141L10.3004 10.6947L10.3004 10.6947L10 11.2141ZM11 6.08165H13V4.88165H11V6.08165ZM9.6 9.48165V7.48164H8.4V9.48165H9.6ZM15.3087 7.99614L18.9697 5.79955L18.3523 4.77056L14.6913 6.96715L15.3087 7.99614ZM20.6799 6.01009L20.99 6.32012L21.8385 5.47159L21.5284 5.16157L20.6799 6.01009ZM21.4 7.31007V7.62307H22.6V7.31007H21.4ZM21.4 10.3402V10.6532H22.6V10.3402H21.4ZM20.9899 11.6432L20.6799 11.9532L21.5284 12.8017L21.8385 12.4917L20.9899 11.6432ZM18.9722 12.1652L15.118 9.82723L14.4957 10.8532L18.3498 13.1912L18.9722 12.1652ZM21.4 10.6532C21.4 11.0245 21.2525 11.3806 20.9899 11.6432L21.8385 12.4917C22.3261 12.0041 22.6 11.3428 22.6 10.6532H21.4ZM21.303 9.92926C21.3668 10.0569 21.4 10.1976 21.4 10.3402H22.6C22.6 10.0113 22.5234 9.68683 22.3763 9.3926L21.303 9.92926ZM21.303 8.03403C21.0047 8.63057 21.0047 9.33272 21.303 9.92926L22.3763 9.3926C22.2469 9.1339 22.2469 8.82939 22.3763 8.57069L21.303 8.03403ZM21.4 7.62307C21.4 7.76574 21.3668 7.90644 21.303 8.03403L22.3763 8.57069C22.5234 8.27646 22.6 7.95203 22.6 7.62307H21.4ZM20.99 6.32012C21.2525 6.58267 21.4 6.93877 21.4 7.31007H22.6C22.6 6.62051 22.3261 5.95919 21.8385 5.4716L20.99 6.32012ZM13 6.08165C13.7732 6.08165 14.4 6.70845 14.4 7.48165H15.6C15.6 6.0457 14.4359 4.88165 13 4.88165V6.08165ZM18.9697 5.79955C19.5205 5.46903 20.2257 5.55584 20.6799 6.01009L21.5284 5.16157C20.6848 4.31795 19.3753 4.15674 18.3523 4.77056L18.9697 5.79955ZM20.6799 11.9532C20.2257 12.4075 19.5205 12.4943 18.9697 12.1637L18.3523 13.1927C19.3753 13.8066 20.6848 13.6453 21.5284 12.8017L20.6799 11.9532ZM11 4.88165C9.56406 4.88165 8.4 6.0457 8.4 7.48164H9.6C9.6 6.70845 10.2268 6.08165 11 6.08165V4.88165ZM15.6 9.48165V7.48165H14.4V9.48165H15.6ZM9.3087 6.96715L5.64772 4.77056L5.03032 5.79955L8.6913 7.99614L9.3087 6.96715ZM2.47155 5.16157L2.16152 5.4716L3.01005 6.32012L3.32008 6.01009L2.47155 5.16157ZM1.4 7.31007V7.62307H2.6V7.31007H1.4ZM1.4 10.3402V10.6532H2.6V10.3402H1.4ZM2.16152 12.4917L2.47155 12.8017L3.32008 11.9532L3.01005 11.6432L2.16152 12.4917ZM5.65021 13.1912L9.50434 10.8532L8.88195 9.82723L5.02783 12.1652L5.65021 13.1912ZM1.4 10.6532C1.4 11.3428 1.67393 12.0041 2.16152 12.4917L3.01005 11.6432C2.7475 11.3806 2.6 11.0245 2.6 10.6532H1.4ZM1.6237 9.3926C1.47659 9.68683 1.4 10.0113 1.4 10.3402H2.6C2.6 10.1976 2.63321 10.0569 2.69701 9.92926L1.6237 9.3926ZM1.6237 8.57069C1.75305 8.82939 1.75305 9.1339 1.6237 9.3926L2.69701 9.92926C2.99528 9.33272 2.99528 8.63057 2.69701 8.03403L1.6237 8.57069ZM1.4 7.62307C1.4 7.95203 1.47659 8.27646 1.6237 8.57069L2.69701 8.03403C2.63321 7.90643 2.6 7.76573 2.6 7.62307H1.4ZM2.16152 5.4716C1.67393 5.95919 1.4 6.62051 1.4 7.31007H2.6C2.6 6.93877 2.7475 6.58267 3.01005 6.32012L2.16152 5.4716ZM5.64772 4.77056C4.62468 4.15674 3.31517 4.31795 2.47155 5.16157L3.32008 6.01009C3.77433 5.55584 4.47946 5.46903 5.03032 5.79955L5.64772 4.77056ZM2.47155 12.8017C3.31517 13.6453 4.62468 13.8066 5.64772 13.1927L5.03032 12.1637C4.47946 12.4943 3.77434 12.4075 3.32008 11.9532L2.47155 12.8017ZM13 10.8816H11V12.0816H13V10.8816ZM11 10.8816C10.744 10.8816 10.5057 10.8135 10.3004 10.6947L9.69956 11.7334C10.0826 11.955 10.5274 12.0816 11 12.0816V10.8816ZM10.3004 10.6947C9.88041 10.4517 9.6 9.99909 9.6 9.48165H8.4C8.4 10.4448 8.92399 11.2848 9.69956 11.7334L10.3004 10.6947ZM9.45393 10.9655L5.45393 19.7514L6.54607 20.2486L10.5461 11.4627L9.45393 10.9655ZM13 12.0816C13.4726 12.0816 13.9174 11.955 14.3004 11.7334L13.6996 10.6947C13.4943 10.8135 13.256 10.8816 13 10.8816V12.0816ZM14.3004 11.7334C15.076 11.2848 15.6 10.4448 15.6 9.48165H14.4C14.4 9.99909 14.1196 10.4517 13.6996 10.6947L14.3004 11.7334ZM13.4539 11.4627L17.4539 20.2486L18.5461 19.7514L14.5461 10.9655L13.4539 11.4627Z" fill="#555770"/>
</svg>
