<svg width="24" height="24" viewBox="0 0 24 24" fill="none" xmlns="http://www.w3.org/2000/svg">
<path d="M15.415 5.11612L14.9871 5.53667L14.9871 5.53667L15.415 5.11612ZM17.6273 2.86494L17.1993 3.28549L17.6273 2.86494ZM17.6273 11.8697L18.055 12.2904L18.0552 12.2902L17.6273 11.8697ZM15.415 9.61849L15.8428 10.0392L15.843 10.039L15.415 9.61849ZM8.45977 16.6902L8.032 16.2695L8.032 16.2695L8.45977 16.6902ZM12.4598 4.27426L12.604 4.85666L12.4598 4.27426ZM12.4598 12.6232L12.032 12.2025L12.032 12.2025L12.4598 12.6232ZM5.02868 20.3189L5.45662 19.8984L5.45662 19.8984L5.02868 20.3189ZM5.0287 20.1787L5.45648 20.5995L5.45648 20.5995L5.0287 20.1787ZM8.84717 2.93503L9.27512 2.51449L9.27512 2.51449L8.84717 2.93503ZM8.84776 2.79533L9.26923 3.22236L8.84776 2.79533ZM7.10071 22.4275L6.67276 22.848L6.67276 22.848L7.10071 22.4275ZM7.24333 22.4275L7.67111 22.8482L7.67111 22.8482L7.24333 22.4275ZM10.9192 5.04354L10.4913 5.46409L10.4913 5.46409L10.9192 5.04354ZM11.063 5.04467L11.4774 5.47856L11.4774 5.47856L11.063 5.04467ZM8.41922 3.35558L10.4913 5.46409L11.3472 4.623L9.27512 2.51449L8.41922 3.35558ZM18.0552 12.2902C20.7282 9.57019 20.7282 5.16442 18.0552 2.4444L17.1993 3.28549C19.4135 5.53864 19.4135 9.19598 17.1993 11.4491L18.0552 12.2902ZM4.60073 20.7395L6.67276 22.848L7.52866 22.0069L5.45662 19.8984L4.60073 20.7395ZM14.9871 5.53667C15.9794 6.54653 15.9794 8.18809 14.9871 9.19795L15.843 10.039C17.2941 8.56231 17.2941 6.17231 15.843 4.69558L14.9871 5.53667ZM8.032 16.2695L4.60093 19.758L5.45648 20.5995L8.88754 17.1109L8.032 16.2695ZM7.85977 16.6902V21.1907H9.05977V16.6902H7.85977ZM7.67111 22.8482L8.88754 21.6114L8.032 20.7699L6.81556 22.0068L7.67111 22.8482ZM12.3877 0.449124C10.9437 0.623843 9.54445 1.26467 8.42628 2.36829L9.26923 3.22236C10.1934 2.31026 11.3448 1.78406 12.5318 1.64044L12.3877 0.449124ZM11.8598 1.04478V4.27426H13.0598V1.04478H11.8598ZM11.4774 5.47856C11.8064 5.16436 12.1956 4.95783 12.604 4.85666L12.3155 3.69186C11.7082 3.8423 11.1317 4.14937 10.6486 4.61078L11.4774 5.47856ZM12.604 4.85666C13.4308 4.65185 14.3392 4.87738 14.9871 5.53667L15.843 4.69558C14.8882 3.72402 13.5409 3.38831 12.3155 3.69186L12.604 4.85666ZM14.9872 9.19777L12.032 12.2025L12.8875 13.044L15.8428 10.0392L14.9872 9.19777ZM12.032 12.2025L8.032 16.2695L8.88754 17.1109L12.8875 13.044L12.032 12.2025ZM11.8598 12.6232V17.1237H13.0598V12.6232H11.8598ZM8.88754 21.6114L12.8875 17.5444L12.032 16.703L8.032 20.7699L8.88754 21.6114ZM12.8875 17.5444L18.055 12.2904L17.1995 11.4489L12.032 16.703L12.8875 17.5444ZM18.0552 2.4444C17.6621 2.04441 17.2324 1.7025 16.7764 1.41923L16.1431 2.43852C16.5183 2.67164 16.8733 2.95378 17.1993 3.28549L18.0552 2.4444ZM16.7764 1.41923C15.4424 0.590437 13.8909 0.267245 12.3877 0.449124L12.5318 1.64044C13.7695 1.49068 15.046 1.75688 16.1431 2.43852L16.7764 1.41923ZM15.8598 1.92888V12.9644H17.0598V1.92888H15.8598ZM5.45662 19.8984C5.64785 20.093 5.64778 20.4049 5.45648 20.5995L4.60093 19.758C4.3331 20.0303 4.33301 20.4671 4.60073 20.7395L5.45662 19.8984ZM9.27512 2.51449C9.46501 2.70772 9.46971 3.02449 9.26923 3.22236L8.42628 2.36829C8.14815 2.6428 8.15287 3.08454 8.41922 3.35558L9.27512 2.51449ZM6.67276 22.848C6.947 23.1271 7.39674 23.1272 7.67111 22.8482L6.81556 22.0068C7.01153 21.8075 7.33278 21.8076 7.52866 22.0069L6.67276 22.848ZM10.4913 5.46409C10.769 5.74676 11.2088 5.73512 11.4774 5.47856L10.6486 4.61078C10.8363 4.43146 11.1478 4.42008 11.3472 4.623L10.4913 5.46409Z" fill="#555770"/>
</svg>
