<svg width="24" height="24" viewBox="0 0 24 24" fill="none" xmlns="http://www.w3.org/2000/svg">
<mask id="mask0_402_12484" style="mask-type:alpha" maskUnits="userSpaceOnUse" x="6" y="0" width="12" height="24">
<rect x="6" width="12" height="24" fill="white"/>
</mask>
<g mask="url(#mask0_402_12484)">
<path d="M12.2 2L12.7797 1.8454L12.5125 0.843174L11.7769 1.57453L12.2 2ZM7 24H6.4V25.4485L7.42426 24.4243L7 24ZM13.8 6.8125C13.8 7.68603 13.0869 8.4 12.2 8.4V9.6C13.7432 9.6 15 8.35521 15 6.8125H13.8ZM12.2 8.4C11.3131 8.4 10.6 7.68603 10.6 6.8125H9.4C9.4 8.35521 10.6568 9.6 12.2 9.6V8.4ZM10.6 6.8125C10.6 6.32307 10.7871 5.53382 11.1555 4.68405C11.5202 3.84277 12.0323 3.01286 12.6231 2.42547L11.7769 1.57453C11.0477 2.29964 10.4598 3.27192 10.0545 4.20673C9.65291 5.13306 9.4 6.0938 9.4 6.8125H10.6ZM11.6203 2.1546C12.0483 3.75975 12.6481 4.58071 13.1196 5.21096C13.5657 5.80735 13.8 6.12034 13.8 6.8125H15C15 5.69216 14.5343 5.0989 14.0804 4.49216C13.6519 3.91929 13.1517 3.24025 12.7797 1.8454L11.6203 2.1546ZM8 13.6H12V12.4H8V13.6ZM12 13.6H16V12.4H12V13.6ZM7.6 24V18H6.4V24H7.6ZM7.6 18V14H6.4V18H7.6ZM11.5757 12.5757L6.57574 17.5757L7.42426 18.4243L12.4243 13.4243L11.5757 12.5757ZM7.42426 24.4243L17.4243 14.4243L16.5757 13.5757L6.57574 23.5757L7.42426 24.4243ZM16.4 14V20H17.6V14H16.4ZM16.4 20V24H17.6V20H16.4ZM16.5757 19.5757L11.0757 25.0757L11.9243 25.9243L17.4243 20.4243L16.5757 19.5757ZM16 13.6C16.2209 13.6 16.4 13.7791 16.4 14H17.6C17.6 13.1163 16.8837 12.4 16 12.4V13.6ZM8 12.4C7.11634 12.4 6.4 13.1163 6.4 14H7.6C7.6 13.7791 7.77909 13.6 8 13.6V12.4Z" fill="#555770"/>
</g>
</svg>
