<svg width="24" height="24" viewBox="0 0 24 24" fill="none" xmlns="http://www.w3.org/2000/svg">
<path d="M15.9999 6.25472L15.6566 6.74683L15.6566 6.74683L15.9999 6.25472ZM17.7452 8.00003L17.2531 8.34329L17.2531 8.34329L17.7452 8.00003ZM17.7417 1.67853L17.1809 1.4651L17.1809 1.4651L17.7417 1.67853ZM18.5092 1.51426L18.1341 1.98255L18.1341 1.98255L18.5092 1.51426ZM21.1009 2.24259L21.1835 2.83688L21.1835 2.83688L21.1009 2.24259ZM22.3214 6.25828L22.5348 6.81903L22.5348 6.81903L22.3214 6.25828ZM22.4857 5.49077L22.0174 5.86587L22.0174 5.86587L22.4857 5.49077ZM21.7574 2.89902L22.3516 2.98157L22.3516 2.98157L21.7574 2.89902ZM7.99991 17.7453L8.34317 17.2532L8.34317 17.2532L7.99991 17.7453ZM6.2546 16L6.74671 15.6568L6.74671 15.6568L6.2546 16ZM6.25815 22.3215L6.81891 22.535L6.81891 22.535L6.25815 22.3215ZM5.49065 22.4858L5.86575 22.0175L5.86575 22.0175L5.49065 22.4858ZM2.89889 21.7575L2.81634 21.1632L2.81634 21.1632L2.89889 21.7575ZM1.67841 17.7418L1.46498 17.181L1.46498 17.181L1.67841 17.7418ZM1.51414 18.5093L1.98243 18.1342L1.98243 18.1342L1.51414 18.5093ZM2.24246 21.101L1.64817 21.0185L1.64817 21.0185L2.24246 21.101ZM7.13853 6.96346L6.72179 6.5318L6.72179 6.5318L7.13853 6.96346ZM11.1624 5.04961L11.0914 4.45383L11.1624 5.04961ZM11.9999 5.60003C13.3605 5.60003 14.6202 6.02391 15.6566 6.74683L16.3432 5.76261C15.1119 4.90378 13.6138 4.40003 11.9999 4.40003V5.60003ZM15.6566 6.74683C16.2783 7.18044 16.8195 7.72164 17.2531 8.34329L18.2373 7.65677C17.7228 6.91912 17.0808 6.27714 16.3432 5.76261L15.6566 6.74683ZM17.2531 8.34329C17.976 9.3797 18.3999 10.6395 18.3999 12H19.5999C19.5999 10.3861 19.0962 8.88803 18.2373 7.65677L17.2531 8.34329ZM16.5607 6.46815L18.3024 1.89196L17.1809 1.4651L15.4392 6.04129L16.5607 6.46815ZM18.1341 1.98255C18.8005 2.51632 19.863 3.02031 21.1835 2.83688L21.0184 1.64829C20.1058 1.77505 19.365 1.43103 18.8843 1.04596L18.1341 1.98255ZM17.9586 8.56079L22.5348 6.81903L22.108 5.69752L17.5318 7.43927L17.9586 8.56079ZM22.954 5.11567C22.5689 4.63493 22.2249 3.89411 22.3516 2.98157L21.1631 2.81646C20.9796 4.13695 21.4836 5.19948 22.0174 5.86587L22.954 5.11567ZM22.5348 6.81903C22.9125 6.67528 23.1161 6.34863 23.1766 6.04029C23.2362 5.73673 23.1732 5.38937 22.954 5.11567L22.0174 5.86587C21.9951 5.83808 21.9972 5.81843 21.9991 5.80913C22.0007 5.80087 22.006 5.78252 22.0234 5.75993C22.0423 5.73527 22.0717 5.71134 22.108 5.69752L22.5348 6.81903ZM21.1835 2.83688C21.1559 2.84072 21.1395 2.83486 21.138 2.83425C21.1371 2.83391 21.1387 2.83446 21.1421 2.83671C21.1455 2.83896 21.1495 2.84218 21.1536 2.84629C21.1578 2.85041 21.161 2.85447 21.1632 2.85785C21.1655 2.86123 21.166 2.86283 21.1657 2.86198C21.1651 2.86043 21.1592 2.84409 21.1631 2.81646L22.3516 2.98157C22.4076 2.57878 22.2283 2.22386 22.0022 1.99777C21.7761 1.77168 21.4212 1.59234 21.0184 1.64829L21.1835 2.83688ZM18.3024 1.89196C18.2886 1.92827 18.2647 1.95763 18.24 1.97659C18.2174 1.99396 18.1991 1.99925 18.1908 2.00087C18.1815 2.00269 18.1619 2.00481 18.1341 1.98255L18.8843 1.04596C18.6106 0.826729 18.2632 0.763752 17.9597 0.823341C17.6513 0.883868 17.3247 1.08741 17.1809 1.4651L18.3024 1.89196ZM11.9999 18.4C10.6393 18.4 9.37958 17.9761 8.34317 17.2532L7.65665 18.2375C8.88791 19.0963 10.386 19.6 11.9999 19.6V18.4ZM8.34317 17.2532C7.72152 16.8196 7.18032 16.2784 6.74671 15.6568L5.76249 16.3433C6.27702 17.0809 6.919 17.7229 7.65665 18.2375L8.34317 17.2532ZM6.74671 15.6568C6.02379 14.6204 5.59991 13.3606 5.59991 12H4.39991C4.39991 13.614 4.90366 15.112 5.76249 16.3433L6.74671 15.6568ZM7.43915 17.5319L5.6974 22.1081L6.81891 22.535L8.56066 17.9588L7.43915 17.5319ZM5.86575 22.0175C5.19936 21.4837 4.13683 20.9798 2.81634 21.1632L2.98145 22.3518C3.89399 22.225 4.63481 22.569 5.11555 22.9541L5.86575 22.0175ZM6.04117 15.4393L1.46498 17.181L1.89184 18.3025L6.46803 16.5608L6.04117 15.4393ZM1.04584 18.8844C1.4309 19.3651 1.77493 20.1059 1.64817 21.0185L2.83676 21.1836C3.02019 19.8631 2.5162 18.8006 1.98243 18.1342L1.04584 18.8844ZM1.46498 17.181C1.08729 17.3248 0.883747 17.6514 0.823219 17.9598C0.76363 18.2633 0.826607 18.6107 1.04584 18.8844L1.98243 18.1342C2.00469 18.162 2.00257 18.1816 2.00074 18.1909C1.99912 18.1992 1.99384 18.2175 1.97646 18.2401C1.95751 18.2648 1.92815 18.2887 1.89184 18.3025L1.46498 17.181ZM2.81634 21.1632C2.84397 21.1593 2.86031 21.1652 2.86186 21.1658C2.86271 21.1661 2.86111 21.1656 2.85772 21.1634C2.85435 21.1611 2.85029 21.1579 2.84617 21.1538C2.84206 21.1496 2.83884 21.1456 2.83659 21.1422C2.83433 21.1388 2.83379 21.1372 2.83413 21.1381C2.83473 21.1396 2.8406 21.156 2.83676 21.1836L1.64817 21.0185C1.59222 21.4213 1.77155 21.7762 1.99764 22.0023C2.22373 22.2284 2.57865 22.4077 2.98145 22.3518L2.81634 21.1632ZM5.6974 22.1081C5.71122 22.0718 5.73515 22.0424 5.7598 22.0235C5.7824 22.0061 5.80075 22.0008 5.80901 21.9992C5.81831 21.9974 5.83796 21.9952 5.86575 22.0175L5.11555 22.9541C5.38925 23.1733 5.73661 23.2363 6.04017 23.1767C6.3485 23.1162 6.67516 22.9127 6.81891 22.535L5.6974 22.1081ZM17.5 12.4C14.2415 12.4 11.6 9.75851 11.6 6.50003H10.4C10.4 10.4213 13.5788 13.6 17.5 13.6V12.4ZM15.5 16.4C11.137 16.4 7.6 12.8631 7.6 8.50003H6.4C6.4 13.5258 10.4742 17.6 15.5 17.6V16.4ZM7.6 8.50003C7.6 8.01169 7.64424 7.53421 7.72877 7.07122L6.54829 6.85569C6.45083 7.38945 6.4 7.93907 6.4 8.50003H7.6ZM5.59991 12C5.59991 10.1919 6.34895 8.55973 7.55526 7.39512L6.72179 6.5318C5.29094 7.91318 4.39991 9.85307 4.39991 12H5.59991ZM7.55526 7.39512C8.53442 6.44981 9.81275 5.81478 11.2335 5.64539L11.0914 4.45383C9.40188 4.65526 7.88302 5.41072 6.72179 6.5318L7.55526 7.39512ZM11.2335 5.64539C11.4845 5.61546 11.7403 5.60003 11.9999 5.60003V4.40003C11.6927 4.40003 11.3895 4.41829 11.0914 4.45383L11.2335 5.64539ZM11.6 6.50003C11.6 6.04663 11.651 5.60588 11.7474 5.18294L10.5774 4.91629C10.4612 5.42611 10.4 5.95628 10.4 6.50003H11.6ZM18.817 12.2526C18.3941 12.349 17.9534 12.4 17.5 12.4V13.6C18.0437 13.6 18.5738 13.5388 19.0836 13.4226L18.817 12.2526ZM18.3999 12C18.3999 12.2597 18.3845 12.5155 18.3545 12.7666L19.5461 12.9087C19.5816 12.6105 19.5999 12.3073 19.5999 12H18.3999ZM18.3545 12.7666C18.1851 14.1873 17.5501 15.4656 16.6047 16.4448L17.468 17.2783C18.5891 16.1171 19.3446 14.5982 19.5461 12.9087L18.3545 12.7666ZM16.6047 16.4448C15.4401 17.651 13.808 18.4 11.9999 18.4V19.6C14.1468 19.6 16.0866 18.7091 17.468 17.2783L16.6047 16.4448ZM16.9286 16.2713C16.4657 16.3558 15.9883 16.4 15.5 16.4V17.6C16.0609 17.6 16.6104 17.5492 17.1441 17.4518L16.9286 16.2713Z" fill="#555770"/>
</svg>
