<svg width="24" height="24" viewBox="0 0 24 24" fill="none" xmlns="http://www.w3.org/2000/svg">
<path d="M16.6335 5.61686L16.4719 5.03904L16.4719 5.03904L16.6335 5.61686ZM10 13L9.4173 13.1432L9.41884 13.1492L10 13ZM6.15172 19.791L5.57056 19.9402L5.57056 19.9402L6.15172 19.791ZM11.2294 22.8514L11.3911 23.4293L11.3911 23.4293L11.2294 22.8514ZM13.1301 22.0595L13.4706 22.5535L13.4706 22.5535L13.1301 22.0595ZM11.7587 22.7034L11.597 22.1256L11.597 22.1256L11.7587 22.7034ZM6.73721 7.40239L7.31837 7.25322L6.73721 7.40239ZM7.85081 8.07357L7.68918 7.49575L7.68918 7.49575L7.85081 8.07357ZM17.2765 4.45434L16.6953 4.6035L16.6953 4.6035L17.2765 4.45434ZM15.4569 1.03258L15.2953 0.454758L15.4569 1.03258ZM16.5705 1.70376L17.1516 1.5546L17.1516 1.5546L16.5705 1.70376ZM18.8448 14.2318L18.2636 14.381L18.2636 14.381L18.8448 14.2318ZM16.9584 19.4208L16.6179 18.9268L16.6179 18.9268L16.9584 19.4208ZM6.67415 3.48929L6.83578 4.06711L6.67415 3.48929ZM6.03121 4.65182L5.45005 4.80099L6.03121 4.65182ZM9.7424 13.8039L10.1006 14.2852L9.7424 13.8039ZM9.9036 13.6406L9.39339 13.3249L9.9036 13.6406ZM6.83578 4.06711L15.6185 1.6104L15.2953 0.454758L6.51252 2.91147L6.83578 4.06711ZM15.9893 1.85293L16.6953 4.6035L17.8576 4.30517L17.1516 1.5546L15.9893 1.85293ZM7.31837 7.25322L6.61237 4.50265L5.45005 4.80099L6.15604 7.55156L7.31837 7.25322ZM16.0524 5.76603L18.2636 14.381L19.4259 14.0827L17.2147 5.46769L16.0524 5.76603ZM16.6179 18.9268L12.7895 21.5655L13.4706 22.5535L17.2989 19.9148L16.6179 18.9268ZM11.597 22.1256L11.0678 22.2736L11.3911 23.4293L11.9203 23.2812L11.597 22.1256ZM8.79761 15.2551L10.1006 14.2852L9.38415 13.3226L8.08111 14.2925L8.79761 15.2551ZM16.4719 5.03904L8.56746 7.25008L8.89071 8.40572L16.7952 6.19468L16.4719 5.03904ZM8.56746 7.25008L7.68918 7.49575L8.01244 8.65139L8.89071 8.40572L8.56746 7.25008ZM10.5827 12.8568L9.31175 7.68473L8.14642 7.97108L9.41733 13.1432L10.5827 12.8568ZM10.4138 13.9563C10.6164 13.6289 10.6781 13.2284 10.5812 12.8508L9.41884 13.1492C9.43479 13.2113 9.42367 13.2759 9.39339 13.3249L10.4138 13.9563ZM6.73288 19.6419C6.55034 18.9307 6.57478 18.1909 6.78642 17.5111L5.64067 17.1544C5.36377 18.0438 5.33189 19.0103 5.57056 19.9402L6.73288 19.6419ZM11.0678 22.2736C9.20082 22.7959 7.24733 21.6462 6.73288 19.6419L5.57056 19.9402C6.24137 22.5537 8.83462 24.1444 11.3911 23.4293L11.0678 22.2736ZM12.7895 21.5655C12.4225 21.8184 12.0198 22.0073 11.597 22.1256L11.9203 23.2812C12.4721 23.1269 12.9955 22.8809 13.4706 22.5535L12.7895 21.5655ZM6.15604 7.55156C6.3642 8.36252 7.18265 8.8835 8.01244 8.65139L7.68918 7.49575C7.54886 7.53501 7.37016 7.45499 7.31837 7.25322L6.15604 7.55156ZM16.6953 4.6035C16.7493 4.8137 16.6232 4.99671 16.4719 5.03904L16.7952 6.19468C17.614 5.96565 18.0636 5.1077 17.8576 4.30517L16.6953 4.6035ZM15.6185 1.6104C15.7588 1.57115 15.9375 1.65117 15.9893 1.85293L17.1516 1.5546C16.9435 0.743631 16.125 0.22265 15.2953 0.454758L15.6185 1.6104ZM18.2636 14.381C18.7098 16.1195 18.0363 17.9491 16.6179 18.9268L17.2989 19.9148C19.1465 18.6413 19.9927 16.2906 19.4259 14.0827L18.2636 14.381ZM6.51252 2.91147C5.69373 3.1405 5.24406 3.99845 5.45005 4.80099L6.61237 4.50265C6.55842 4.29245 6.68445 4.10944 6.83578 4.06711L6.51252 2.91147ZM8.08111 14.2925C7.17227 14.9689 6.05074 15.8373 5.64067 17.1544L6.78642 17.5111C7.06437 16.6184 7.84976 15.9606 8.79761 15.2551L8.08111 14.2925ZM10.1006 14.2852C10.1827 14.2242 10.3135 14.1184 10.4138 13.9563L9.39339 13.3249C9.4041 13.3076 9.4126 13.2995 9.4116 13.3005C9.41119 13.3009 9.40901 13.303 9.40433 13.3069C9.39962 13.3108 9.39315 13.3159 9.38415 13.3226L10.1006 14.2852Z" fill="#555770"/>
</svg>
