<svg width="24" height="24" viewBox="0 0 24 24" fill="none" xmlns="http://www.w3.org/2000/svg">
<path d="M20.4 9V21H21.6V9H20.4ZM3.6 21L3.60005 9.00001L2.40005 9L2.4 21L3.6 21ZM4.00005 8.60001L12 8.6L12 7.4L4.00005 7.40001L4.00005 8.60001ZM12 8.6L20 8.6L20 7.4L12 7.4L12 8.6ZM20 21.4H12V22.6H20V21.4ZM12 21.4H4V22.6H12V21.4ZM11.4 8L11.4 22L12.6 22L12.6 8.00001L11.4 8ZM3.60005 9.00001C3.60005 8.77909 3.77913 8.60001 4.00005 8.60001L4.00005 7.40001C3.11639 7.40001 2.40005 8.11635 2.40005 9L3.60005 9.00001ZM21.6 9C21.6 8.11634 20.8837 7.4 20 7.4L20 8.6C20.2209 8.6 20.4 8.77909 20.4 9H21.6ZM2.4 21C2.4 21.8837 3.11635 22.6 4 22.6V21.4C3.77909 21.4 3.6 21.2209 3.6 21L2.4 21ZM20.4 21C20.4 21.2209 20.2209 21.4 20 21.4V22.6C20.8837 22.6 21.6 21.8837 21.6 21H20.4Z" fill="#555770"/>
<path d="M16.6971 6.69706C15.7598 7.63431 14.2402 7.63431 13.3029 6.69706L12.4544 7.54558C13.8603 8.95147 16.1397 8.95147 17.5456 7.54558L16.6971 6.69706ZM13.3029 6.69706C12.3657 5.7598 12.3657 4.2402 13.3029 3.30294L12.4544 2.45442C11.0485 3.8603 11.0485 6.1397 12.4544 7.54558L13.3029 6.69706ZM13.3029 3.30294C14.2402 2.36569 15.7598 2.36569 16.6971 3.30294L17.5456 2.45442C16.1397 1.04853 13.8603 1.04853 12.4544 2.45442L13.3029 3.30294ZM16.6971 3.30294C17.6343 4.2402 17.6343 5.7598 16.6971 6.69706L17.5456 7.54558C18.9515 6.1397 18.9515 3.8603 17.5456 2.45442L16.6971 3.30294ZM12.4544 7.54558L17.5757 12.6669L18.4243 11.8184L13.3029 6.69706L12.4544 7.54558ZM6.45442 7.54558C7.8603 8.95147 10.1397 8.95147 11.5456 7.54558L10.6971 6.69706C9.7598 7.63431 8.2402 7.63431 7.30294 6.69706L6.45442 7.54558ZM11.5456 7.54558C12.9515 6.1397 12.9515 3.8603 11.5456 2.45442L10.6971 3.30294C11.6343 4.2402 11.6343 5.7598 10.6971 6.69706L11.5456 7.54558ZM11.5456 2.45442C10.1397 1.04853 7.8603 1.04853 6.45442 2.45442L7.30294 3.30294C8.2402 2.36569 9.7598 2.36569 10.6971 3.30294L11.5456 2.45442ZM6.45442 2.45442C5.04853 3.8603 5.04853 6.1397 6.45442 7.54558L7.30294 6.69706C6.36569 5.7598 6.36569 4.2402 7.30294 3.30294L6.45442 2.45442ZM10.6971 6.69706L5.57574 11.8184L6.42426 12.6669L11.5456 7.54558L10.6971 6.69706Z" fill="#555770"/>
</svg>
