<svg width="24" height="24" viewBox="0 0 24 24" fill="none" xmlns="http://www.w3.org/2000/svg">
<path d="M12.5 4L12.9335 3.58517C12.7784 3.42311 12.5459 3.36109 12.3307 3.42438L12.5 4ZM4 6.5L3.8307 5.92438C3.59751 5.99297 3.42874 6.19546 3.4033 6.43719L4 6.5ZM19.063 12.5L19.6441 12.6496L19.6441 12.6496L19.063 12.5ZM14.8333 12L14.2573 12.168L14.2573 12.168L14.8333 12ZM16.4 17V20H17.6V17H16.4ZM16 20.4H3V21.6H16V20.4ZM2.6 20V17H1.4V20H2.6ZM3 20.4C2.77909 20.4 2.6 20.2209 2.6 20H1.4C1.4 20.8837 2.11634 21.6 3 21.6V20.4ZM16.4 20C16.4 20.2209 16.2209 20.4 16 20.4V21.6C16.8837 21.6 17.6 20.8837 17.6 20H16.4ZM16 16.6C16.2209 16.6 16.4 16.7791 16.4 17H17.6C17.6 16.1163 16.8837 15.4 16 15.4V16.6ZM3 15.4C2.11634 15.4 1.4 16.1163 1.4 17H2.6C2.6 16.7791 2.77909 16.6 3 16.6V15.4ZM21 14.4C20.2268 14.4 19.6 13.7732 19.6 13H18.4C18.4 14.4359 19.5641 15.6 21 15.6V14.4ZM22.4 13C22.4 13.7732 21.7732 14.4 21 14.4V15.6C22.4359 15.6 23.6 14.4359 23.6 13H22.4ZM21 11.6C21.7732 11.6 22.4 12.2268 22.4 13H23.6C23.6 11.5641 22.4359 10.4 21 10.4V11.6ZM12.3307 3.42438L3.8307 5.92438L4.1693 7.07562L12.6693 4.57562L12.3307 3.42438ZM3 16.6H16V15.4H3V16.6ZM3.4033 6.43719L2.4033 15.9372L3.5967 16.0628L4.5967 6.56281L3.4033 6.43719ZM21 10.4C20.341 10.4 19.738 10.6459 19.28 11.0502L20.0741 11.9498C20.3213 11.7317 20.6445 11.6 21 11.6V10.4ZM12.0665 4.41483L19.2436 11.9148L20.1106 11.0852L12.9335 3.58517L12.0665 4.41483ZM19.28 11.0502C18.8971 11.3881 18.6138 11.8382 18.4819 12.3504L19.6441 12.6496C19.7146 12.3756 19.8666 12.133 20.0741 11.9498L19.28 11.0502ZM18.4819 12.3504C18.4283 12.5587 18.4 12.7765 18.4 13H19.6C19.6 12.8782 19.6154 12.7609 19.6441 12.6496L18.4819 12.3504ZM16.576 15.832L15.4093 11.832L14.2573 12.168L15.424 16.168L16.576 15.832ZM15.4093 11.832L13.076 3.832L11.924 4.168L14.2573 12.168L15.4093 11.832ZM19.1334 11.9041L14.9038 11.4041L14.7629 12.5959L18.9926 13.0959L19.1334 11.9041Z" fill="#555770"/>
</svg>
