<svg width="24" height="24" viewBox="0 0 24 24" fill="none" xmlns="http://www.w3.org/2000/svg">
<path d="M3 14V13.4H2.4V14H3ZM20 10V9.4H19.4V10H20ZM21 10H21.6V9.4H21V10ZM3 15H2.4V15.6H3V15ZM16 14.6C16.7627 14.6 17.8933 14.3761 18.8506 13.6869C19.8384 12.9757 20.6 11.7956 20.6 10H19.4C19.4 11.4044 18.8283 12.2243 18.1494 12.7131C17.44 13.2239 16.5707 13.4 16 13.4V14.6ZM20 10.6H21V9.4H20V10.6ZM20.4 10C20.4 10.7373 20.1739 11.8567 19.5131 12.7744C18.8743 13.6616 17.8044 14.4 16 14.4V15.6C18.1956 15.6 19.6257 14.6717 20.4869 13.4756C21.3261 12.31 21.6 10.9293 21.6 10H20.4ZM16 14.4C15.9922 14.4 15.9844 14.4 15.9765 14.4C15.9687 14.4 15.9609 14.4 15.953 14.4C15.9452 14.4 15.9373 14.4 15.9294 14.4C15.9216 14.4 15.9137 14.4 15.9058 14.4C15.8979 14.4 15.8901 14.4 15.8822 14.4C15.8743 14.4 15.8663 14.4 15.8584 14.4C15.8505 14.4 15.8426 14.4 15.8346 14.4C15.8267 14.4 15.8188 14.4 15.8108 14.4C15.8029 14.4 15.7949 14.4 15.7869 14.4C15.779 14.4 15.771 14.4 15.763 14.4C15.755 14.4 15.747 14.4 15.739 14.4C15.731 14.4 15.723 14.4 15.715 14.4C15.707 14.4 15.6989 14.4 15.6909 14.4C15.6829 14.4 15.6748 14.4 15.6668 14.4C15.6587 14.4 15.6506 14.4 15.6426 14.4C15.6345 14.4 15.6264 14.4 15.6183 14.4C15.6103 14.4 15.6022 14.4 15.5941 14.4C15.586 14.4 15.5779 14.4 15.5697 14.4C15.5616 14.4 15.5535 14.4 15.5454 14.4C15.5372 14.4 15.5291 14.4 15.5209 14.4C15.5128 14.4 15.5046 14.4 15.4965 14.4C15.4883 14.4 15.4801 14.4 15.4719 14.4C15.4637 14.4 15.4556 14.4 15.4474 14.4C15.4392 14.4 15.431 14.4 15.4227 14.4C15.4145 14.4 15.4063 14.4 15.3981 14.4C15.3898 14.4 15.3816 14.4 15.3734 14.4C15.3651 14.4 15.3569 14.4 15.3486 14.4C15.3403 14.4 15.3321 14.4 15.3238 14.4C15.3155 14.4 15.3072 14.4 15.2989 14.4C15.2907 14.4 15.2824 14.4 15.274 14.4C15.2657 14.4 15.2574 14.4 15.2491 14.4C15.2408 14.4 15.2325 14.4 15.2241 14.4C15.2158 14.4 15.2074 14.4 15.1991 14.4C15.1907 14.4 15.1824 14.4 15.174 14.4C15.1656 14.4 15.1573 14.4 15.1489 14.4C15.1405 14.4 15.1321 14.4 15.1237 14.4C15.1153 14.4 15.1069 14.4 15.0985 14.4C15.0901 14.4 15.0817 14.4 15.0733 14.4C15.0648 14.4 15.0564 14.4 15.048 14.4C15.0395 14.4 15.0311 14.4 15.0226 14.4C15.0142 14.4 15.0057 14.4 14.9973 14.4C14.9888 14.4 14.9803 14.4 14.9718 14.4C14.9634 14.4 14.9549 14.4 14.9464 14.4C14.9379 14.4 14.9294 14.4 14.9209 14.4C14.9124 14.4 14.9038 14.4 14.8953 14.4C14.8868 14.4 14.8783 14.4 14.8697 14.4C14.8612 14.4 14.8526 14.4 14.8441 14.4C14.8355 14.4 14.827 14.4 14.8184 14.4C14.8099 14.4 14.8013 14.4 14.7927 14.4C14.7841 14.4 14.7755 14.4 14.767 14.4C14.7584 14.4 14.7498 14.4 14.7412 14.4C14.7326 14.4 14.7239 14.4 14.7153 14.4C14.7067 14.4 14.6981 14.4 14.6895 14.4C14.6808 14.4 14.6722 14.4 14.6635 14.4C14.6549 14.4 14.6463 14.4 14.6376 14.4C14.6289 14.4 14.6203 14.4 14.6116 14.4C14.6029 14.4 14.5943 14.4 14.5856 14.4C14.5769 14.4 14.5682 14.4 14.5595 14.4C14.5508 14.4 14.5421 14.4 14.5334 14.4C14.5247 14.4 14.516 14.4 14.5073 14.4C14.4986 14.4 14.4898 14.4 14.4811 14.4C14.4724 14.4 14.4636 14.4 14.4549 14.4C14.4461 14.4 14.4374 14.4 14.4286 14.4C14.4199 14.4 14.4111 14.4 14.4023 14.4C14.3936 14.4 14.3848 14.4 14.376 14.4C14.3672 14.4 14.3585 14.4 14.3497 14.4C14.3409 14.4 14.3321 14.4 14.3233 14.4C14.3145 14.4 14.3056 14.4 14.2968 14.4C14.288 14.4 14.2792 14.4 14.2704 14.4C14.2615 14.4 14.2527 14.4 14.2439 14.4C14.235 14.4 14.2262 14.4 14.2173 14.4C14.2085 14.4 14.1996 14.4 14.1908 14.4C14.1819 14.4 14.173 14.4 14.1642 14.4C14.1553 14.4 14.1464 14.4 14.1375 14.4C14.1286 14.4 14.1197 14.4 14.1108 14.4C14.1019 14.4 14.093 14.4 14.0841 14.4C14.0752 14.4 14.0663 14.4 14.0574 14.4C14.0485 14.4 14.0396 14.4 14.0306 14.4C14.0217 14.4 14.0128 14.4 14.0038 14.4C13.9949 14.4 13.9859 14.4 13.977 14.4C13.968 14.4 13.9591 14.4 13.9501 14.4C13.9412 14.4 13.9322 14.4 13.9232 14.4C13.9143 14.4 13.9053 14.4 13.8963 14.4C13.8873 14.4 13.8783 14.4 13.8693 14.4C13.8603 14.4 13.8513 14.4 13.8423 14.4C13.8333 14.4 13.8243 14.4 13.8153 14.4C13.8063 14.4 13.7973 14.4 13.7883 14.4C13.7792 14.4 13.7702 14.4 13.7612 14.4C13.7521 14.4 13.7431 14.4 13.7341 14.4C13.725 14.4 13.716 14.4 13.7069 14.4C13.6979 14.4 13.6888 14.4 13.6797 14.4C13.6707 14.4 13.6616 14.4 13.6525 14.4C13.6435 14.4 13.6344 14.4 13.6253 14.4C13.6162 14.4 13.6071 14.4 13.5981 14.4C13.589 14.4 13.5799 14.4 13.5708 14.4C13.5617 14.4 13.5526 14.4 13.5435 14.4C13.5343 14.4 13.5252 14.4 13.5161 14.4C13.507 14.4 13.4979 14.4 13.4887 14.4C13.4796 14.4 13.4705 14.4 13.4613 14.4C13.4522 14.4 13.4431 14.4 13.4339 14.4C13.4248 14.4 13.4156 14.4 13.4065 14.4C13.3973 14.4 13.3882 14.4 13.379 14.4C13.3698 14.4 13.3607 14.4 13.3515 14.4C13.3423 14.4 13.3331 14.4 13.324 14.4C13.3148 14.4 13.3056 14.4 13.2964 14.4C13.2872 14.4 13.278 14.4 13.2688 14.4C13.2596 14.4 13.2504 14.4 13.2412 14.4C13.232 14.4 13.2228 14.4 13.2136 14.4C13.2044 14.4 13.1952 14.4 13.1859 14.4C13.1767 14.4 13.1675 14.4 13.1583 14.4C13.149 14.4 13.1398 14.4 13.1306 14.4C13.1213 14.4 13.1121 14.4 13.1028 14.4C13.0936 14.4 13.0843 14.4 13.0751 14.4C13.0658 14.4 13.0566 14.4 13.0473 14.4C13.0381 14.4 13.0288 14.4 13.0195 14.4C13.0103 14.4 13.001 14.4 12.9917 14.4C12.9824 14.4 12.9732 14.4 12.9639 14.4C12.9546 14.4 12.9453 14.4 12.936 14.4C12.9267 14.4 12.9174 14.4 12.9081 14.4C12.8988 14.4 12.8895 14.4 12.8802 14.4C12.8709 14.4 12.8616 14.4 12.8523 14.4C12.843 14.4 12.8337 14.4 12.8244 14.4C12.815 14.4 12.8057 14.4 12.7964 14.4C12.7871 14.4 12.7777 14.4 12.7684 14.4C12.7591 14.4 12.7497 14.4 12.7404 14.4C12.7311 14.4 12.7217 14.4 12.7124 14.4C12.703 14.4 12.6937 14.4 12.6843 14.4C12.675 14.4 12.6656 14.4 12.6563 14.4C12.6469 14.4 12.6375 14.4 12.6282 14.4C12.6188 14.4 12.6094 14.4 12.6001 14.4C12.5907 14.4 12.5813 14.4 12.5719 14.4C12.5626 14.4 12.5532 14.4 12.5438 14.4C12.5344 14.4 12.525 14.4 12.5156 14.4C12.5062 14.4 12.4969 14.4 12.4875 14.4C12.4781 14.4 12.4687 14.4 12.4593 14.4C12.4499 14.4 12.4405 14.4 12.4311 14.4C12.4216 14.4 12.4122 14.4 12.4028 14.4C12.3934 14.4 12.384 14.4 12.3746 14.4C12.3652 14.4 12.3557 14.4 12.3463 14.4C12.3369 14.4 12.3275 14.4 12.318 14.4C12.3086 14.4 12.2992 14.4 12.2897 14.4C12.2803 14.4 12.2709 14.4 12.2614 14.4C12.252 14.4 12.2426 14.4 12.2331 14.4C12.2237 14.4 12.2142 14.4 12.2048 14.4C12.1953 14.4 12.1859 14.4 12.1764 14.4C12.167 14.4 12.1575 14.4 12.148 14.4C12.1386 14.4 12.1291 14.4 12.1197 14.4C12.1102 14.4 12.1007 14.4 12.0913 14.4C12.0818 14.4 12.0723 14.4 12.0629 14.4C12.0534 14.4 12.0439 14.4 12.0344 14.4C12.025 14.4 12.0155 14.4 12.006 14.4C11.9965 14.4 11.987 14.4 11.9775 14.4C11.9681 14.4 11.9586 14.4 11.9491 14.4C11.9396 14.4 11.9301 14.4 11.9206 14.4C11.9111 14.4 11.9016 14.4 11.8921 14.4C11.8826 14.4 11.8731 14.4 11.8636 14.4C11.8541 14.4 11.8446 14.4 11.8351 14.4C11.8256 14.4 11.8161 14.4 11.8066 14.4C11.7971 14.4 11.7876 14.4 11.7781 14.4C11.7685 14.4 11.759 14.4 11.7495 14.4C11.74 14.4 11.7305 14.4 11.721 14.4C11.7114 14.4 11.7019 14.4 11.6924 14.4C11.6829 14.4 11.6733 14.4 11.6638 14.4C11.6543 14.4 11.6448 14.4 11.6352 14.4C11.6257 14.4 11.6162 14.4 11.6066 14.4C11.5971 14.4 11.5876 14.4 11.578 14.4C11.5685 14.4 11.559 14.4 11.5494 14.4C11.5399 14.4 11.5303 14.4 11.5208 14.4C11.5113 14.4 11.5017 14.4 11.4922 14.4C11.4826 14.4 11.4731 14.4 11.4635 14.4C11.454 14.4 11.4444 14.4 11.4349 14.4C11.4253 14.4 11.4158 14.4 11.4062 14.4C11.3967 14.4 11.3871 14.4 11.3776 14.4C11.368 14.4 11.3585 14.4 11.3489 14.4C11.3394 14.4 11.3298 14.4 11.3202 14.4C11.3107 14.4 11.3011 14.4 11.2916 14.4C11.282 14.4 11.2724 14.4 11.2629 14.4C11.2533 14.4 11.2438 14.4 11.2342 14.4C11.2246 14.4 11.2151 14.4 11.2055 14.4C11.1959 14.4 11.1864 14.4 11.1768 14.4C11.1672 14.4 11.1576 14.4 11.1481 14.4C11.1385 14.4 11.1289 14.4 11.1194 14.4C11.1098 14.4 11.1002 14.4 11.0906 14.4C11.0811 14.4 11.0715 14.4 11.0619 14.4C11.0524 14.4 11.0428 14.4 11.0332 14.4C11.0236 14.4 11.014 14.4 11.0045 14.4C10.9949 14.4 10.9853 14.4 10.9757 14.4C10.9662 14.4 10.9566 14.4 10.947 14.4C10.9374 14.4 10.9278 14.4 10.9183 14.4C10.9087 14.4 10.8991 14.4 10.8895 14.4C10.8799 14.4 10.8704 14.4 10.8608 14.4C10.8512 14.4 10.8416 14.4 10.832 14.4C10.8224 14.4 10.8129 14.4 10.8033 14.4C10.7937 14.4 10.7841 14.4 10.7745 14.4C10.7649 14.4 10.7554 14.4 10.7458 14.4C10.7362 14.4 10.7266 14.4 10.717 14.4C10.7074 14.4 10.6979 14.4 10.6883 14.4C10.6787 14.4 10.6691 14.4 10.6595 14.4C10.6499 14.4 10.6404 14.4 10.6308 14.4C10.6212 14.4 10.6116 14.4 10.602 14.4C10.5924 14.4 10.5828 14.4 10.5733 14.4C10.5637 14.4 10.5541 14.4 10.5445 14.4C10.5349 14.4 10.5253 14.4 10.5158 14.4C10.5062 14.4 10.4966 14.4 10.487 14.4C10.4774 14.4 10.4678 14.4 10.4583 14.4C10.4487 14.4 10.4391 14.4 10.4295 14.4C10.4199 14.4 10.4103 14.4 10.4008 14.4C10.3912 14.4 10.3816 14.4 10.372 14.4C10.3624 14.4 10.3528 14.4 10.3433 14.4C10.3337 14.4 10.3241 14.4 10.3145 14.4C10.3049 14.4 10.2954 14.4 10.2858 14.4C10.2762 14.4 10.2666 14.4 10.2571 14.4C10.2475 14.4 10.2379 14.4 10.2283 14.4C10.2187 14.4 10.2092 14.4 10.1996 14.4C10.19 14.4 10.1805 14.4 10.1709 14.4C10.1613 14.4 10.1517 14.4 10.1422 14.4C10.1326 14.4 10.123 14.4 10.1134 14.4C10.1039 14.4 10.0943 14.4 10.0847 14.4C10.0752 14.4 10.0656 14.4 10.056 14.4C10.0465 14.4 10.0369 14.4 10.0273 14.4C10.0178 14.4 10.0082 14.4 9.99864 14.4C9.98908 14.4 9.97951 14.4 9.96995 14.4C9.96039 14.4 9.95083 14.4 9.94127 14.4C9.93171 14.4 9.92215 14.4 9.9126 14.4C9.90304 14.4 9.89348 14.4 9.88393 14.4C9.87437 14.4 9.86482 14.4 9.85527 14.4C9.84572 14.4 9.83617 14.4 9.82662 14.4C9.81707 14.4 9.80752 14.4 9.79797 14.4C9.78842 14.4 9.77888 14.4 9.76933 14.4C9.75979 14.4 9.75024 14.4 9.7407 14.4C9.73116 14.4 9.72162 14.4 9.71208 14.4C9.70254 14.4 9.693 14.4 9.68346 14.4C9.67393 14.4 9.66439 14.4 9.65486 14.4C9.64533 14.4 9.63579 14.4 9.62626 14.4C9.61673 14.4 9.6072 14.4 9.59768 14.4C9.58815 14.4 9.57862 14.4 9.5691 14.4C9.55958 14.4 9.55005 14.4 9.54053 14.4C9.53101 14.4 9.52149 14.4 9.51198 14.4C9.50246 14.4 9.49294 14.4 9.48343 14.4C9.47392 14.4 9.46441 14.4 9.4549 14.4C9.44539 14.4 9.43588 14.4 9.42637 14.4C9.41686 14.4 9.40736 14.4 9.39786 14.4C9.38835 14.4 9.37885 14.4 9.36936 14.4C9.35986 14.4 9.35036 14.4 9.34087 14.4C9.33137 14.4 9.32188 14.4 9.31239 14.4C9.3029 14.4 9.29341 14.4 9.28392 14.4C9.27443 14.4 9.26495 14.4 9.25547 14.4C9.24599 14.4 9.23651 14.4 9.22703 14.4C9.21755 14.4 9.20807 14.4 9.1986 14.4C9.18913 14.4 9.17966 14.4 9.17019 14.4C9.16072 14.4 9.15125 14.4 9.14179 14.4C9.13232 14.4 9.12286 14.4 9.1134 14.4C9.10394 14.4 9.09448 14.4 9.08503 14.4C9.07557 14.4 9.06612 14.4 9.05667 14.4C9.04722 14.4 9.03777 14.4 9.02833 14.4C9.01888 14.4 9.00944 14.4 9 14.4C8.99056 14.4 8.98112 14.4 8.97169 14.4C8.96225 14.4 8.95282 14.4 8.94339 14.4C8.93396 14.4 8.92453 14.4 8.91511 14.4C8.90568 14.4 8.89626 14.4 8.88684 14.4C8.87742 14.4 8.86801 14.4 8.85859 14.4C8.84918 14.4 8.83977 14.4 8.83036 14.4C8.82095 14.4 8.81155 14.4 8.80215 14.4C8.79274 14.4 8.78335 14.4 8.77395 14.4C8.76455 14.4 8.75516 14.4 8.74577 14.4C8.73638 14.4 8.72699 14.4 8.7176 14.4C8.70822 14.4 8.69884 14.4 8.68946 14.4C8.68008 14.4 8.6707 14.4 8.66133 14.4C8.65196 14.4 8.64259 14.4 8.63322 14.4C8.62386 14.4 8.61449 14.4 8.60513 14.4C8.59577 14.4 8.58642 14.4 8.57706 14.4C8.56771 14.4 8.55836 14.4 8.54901 14.4C8.53966 14.4 8.53032 14.4 8.52098 14.4C8.51164 14.4 8.5023 14.4 8.49297 14.4C8.48363 14.4 8.4743 14.4 8.46497 14.4C8.45565 14.4 8.44632 14.4 8.437 14.4C8.42768 14.4 8.41837 14.4 8.40905 14.4C8.39974 14.4 8.39043 14.4 8.38112 14.4C8.37182 14.4 8.36251 14.4 8.35321 14.4C8.34391 14.4 8.33462 14.4 8.32533 14.4C8.31603 14.4 8.30674 14.4 8.29746 14.4C8.28817 14.4 8.27889 14.4 8.26962 14.4C8.26034 14.4 8.25106 14.4 8.24179 14.4C8.23252 14.4 8.22326 14.4 8.21399 14.4C8.20473 14.4 8.19547 14.4 8.18622 14.4C8.17696 14.4 8.16771 14.4 8.15846 14.4C8.14922 14.4 8.13997 14.4 8.13073 14.4C8.12149 14.4 8.11226 14.4 8.10303 14.4C8.0938 14.4 8.08457 14.4 8.07534 14.4C8.06612 14.4 8.0569 14.4 8.04769 14.4C8.03847 14.4 8.02926 14.4 8.02005 14.4C8.01084 14.4 8.00164 14.4 7.99244 14.4C7.98324 14.4 7.97405 14.4 7.96486 14.4C7.95567 14.4 7.94648 14.4 7.9373 14.4C7.92812 14.4 7.91894 14.4 7.90976 14.4C7.90059 14.4 7.89142 14.4 7.88226 14.4C7.87309 14.4 7.86393 14.4 7.85477 14.4C7.84562 14.4 7.83646 14.4 7.82732 14.4C7.81817 14.4 7.80903 14.4 7.79989 14.4C7.79075 14.4 7.78161 14.4 7.77248 14.4C7.76336 14.4 7.75423 14.4 7.74511 14.4C7.73599 14.4 7.72687 14.4 7.71776 14.4C7.70865 14.4 7.69954 14.4 7.69044 14.4C7.68134 14.4 7.67224 14.4 7.66315 14.4C7.65405 14.4 7.64497 14.4 7.63588 14.4C7.6268 14.4 7.61772 14.4 7.60865 14.4C7.59957 14.4 7.5905 14.4 7.58144 14.4C7.57237 14.4 7.56331 14.4 7.55426 14.4C7.5452 14.4 7.53615 14.4 7.52711 14.4C7.51806 14.4 7.50902 14.4 7.49999 14.4C7.49095 14.4 7.48192 14.4 7.4729 14.4C7.46387 14.4 7.45485 14.4 7.44584 14.4C7.43682 14.4 7.42781 14.4 7.41881 14.4C7.4098 14.4 7.4008 14.4 7.39181 14.4C7.38281 14.4 7.37383 14.4 7.36484 14.4C7.35586 14.4 7.34688 14.4 7.3379 14.4C7.32893 14.4 7.31996 14.4 7.311 14.4C7.30203 14.4 7.29308 14.4 7.28412 14.4C7.27517 14.4 7.26622 14.4 7.25728 14.4C7.24834 14.4 7.2394 14.4 7.23047 14.4C7.22154 14.4 7.21261 14.4 7.20369 14.4C7.19477 14.4 7.18585 14.4 7.17695 14.4C7.16804 14.4 7.15913 14.4 7.15023 14.4C7.14133 14.4 7.13244 14.4 7.12355 14.4C7.11467 14.4 7.10578 14.4 7.09691 14.4C7.08803 14.4 7.07916 14.4 7.0703 14.4C7.06143 14.4 7.05257 14.4 7.04372 14.4C7.03486 14.4 7.02602 14.4 7.01717 14.4C7.00833 14.4 6.9995 14.4 6.99066 14.4C6.98183 14.4 6.97301 14.4 6.96419 14.4C6.95537 14.4 6.94656 14.4 6.93775 14.4C6.92894 14.4 6.92014 14.4 6.91135 14.4C6.90255 14.4 6.89376 14.4 6.88498 14.4C6.8762 14.4 6.86742 14.4 6.85865 14.4C6.84988 14.4 6.84111 14.4 6.83235 14.4C6.82359 14.4 6.81484 14.4 6.80609 14.4C6.79734 14.4 6.7886 14.4 6.77987 14.4C6.77113 14.4 6.7624 14.4 6.75368 14.4C6.74496 14.4 6.73624 14.4 6.72753 14.4C6.71882 14.4 6.71012 14.4 6.70142 14.4C6.69273 14.4 6.68403 14.4 6.67535 14.4C6.66666 14.4 6.65799 14.4 6.64931 14.4C6.64064 14.4 6.63198 14.4 6.62332 14.4C6.61466 14.4 6.60601 14.4 6.59736 14.4C6.58871 14.4 6.58007 14.4 6.57144 14.4C6.56281 14.4 6.55418 14.4 6.54556 14.4C6.53694 14.4 6.52832 14.4 6.51972 14.4C6.51111 14.4 6.50251 14.4 6.49392 14.4C6.48532 14.4 6.47674 14.4 6.46816 14.4C6.45957 14.4 6.451 14.4 6.44243 14.4C6.43387 14.4 6.42531 14.4 6.41675 14.4C6.4082 14.4 6.39965 14.4 6.39111 14.4C6.38257 14.4 6.37404 14.4 6.36551 14.4C6.35699 14.4 6.34847 14.4 6.33996 14.4C6.33144 14.4 6.32294 14.4 6.31444 14.4C6.30594 14.4 6.29745 14.4 6.28897 14.4C6.28048 14.4 6.272 14.4 6.26353 14.4C6.25506 14.4 6.2466 14.4 6.23814 14.4C6.22969 14.4 6.22124 14.4 6.2128 14.4C6.20435 14.4 6.19592 14.4 6.18749 14.4C6.17906 14.4 6.17064 14.4 6.16223 14.4C6.15382 14.4 6.14541 14.4 6.13701 14.4C6.12861 14.4 6.12022 14.4 6.11184 14.4C6.10346 14.4 6.09508 14.4 6.08671 14.4C6.07834 14.4 6.06998 14.4 6.06162 14.4C6.05327 14.4 6.04492 14.4 6.03658 14.4C6.02824 14.4 6.01991 14.4 6.01158 14.4C6.00326 14.4 5.99494 14.4 5.98663 14.4C5.97832 14.4 5.97002 14.4 5.96173 14.4C5.95343 14.4 5.94515 14.4 5.93687 14.4C5.92859 14.4 5.92032 14.4 5.91205 14.4C5.90379 14.4 5.89553 14.4 5.88728 14.4C5.87903 14.4 5.87079 14.4 5.86256 14.4C5.85433 14.4 5.8461 14.4 5.83788 14.4C5.82967 14.4 5.82146 14.4 5.81326 14.4C5.80505 14.4 5.79686 14.4 5.78867 14.4C5.78049 14.4 5.77231 14.4 5.76414 14.4C5.75597 14.4 5.74781 14.4 5.73965 14.4C5.7315 14.4 5.72335 14.4 5.71521 14.4C5.70708 14.4 5.69895 14.4 5.69082 14.4C5.6827 14.4 5.67459 14.4 5.66648 14.4C5.65838 14.4 5.65028 14.4 5.64219 14.4C5.6341 14.4 5.62602 14.4 5.61794 14.4C5.60987 14.4 5.60181 14.4 5.59375 14.4C5.58569 14.4 5.57765 14.4 5.5696 14.4C5.56156 14.4 5.55353 14.4 5.54551 14.4C5.53749 14.4 5.52947 14.4 5.52146 14.4C5.51346 14.4 5.50546 14.4 5.49747 14.4C5.48948 14.4 5.4815 14.4 5.47353 14.4C5.46555 14.4 5.45759 14.4 5.44963 14.4C5.44168 14.4 5.43373 14.4 5.42579 14.4C5.41785 14.4 5.40992 14.4 5.402 14.4C5.39408 14.4 5.38617 14.4 5.37826 14.4C5.37036 14.4 5.36246 14.4 5.35458 14.4C5.34669 14.4 5.33881 14.4 5.33094 14.4C5.32307 14.4 5.31521 14.4 5.30736 14.4C5.29951 14.4 5.29166 14.4 5.28383 14.4C5.276 14.4 5.26817 14.4 5.26035 14.4C5.25254 14.4 5.24473 14.4 5.23693 14.4C5.22913 14.4 5.22134 14.4 5.21356 14.4C5.20578 14.4 5.19801 14.4 5.19025 14.4C5.18248 14.4 5.17473 14.4 5.16699 14.4C5.15924 14.4 5.15151 14.4 5.14378 14.4C5.13605 14.4 5.12834 14.4 5.12063 14.4C5.11292 14.4 5.10522 14.4 5.09753 14.4C5.08984 14.4 5.08216 14.4 5.07449 14.4C5.06682 14.4 5.05916 14.4 5.0515 14.4C5.04385 14.4 5.03621 14.4 5.02857 14.4C5.02094 14.4 5.01331 14.4 5.0057 14.4C4.99808 14.4 4.99048 14.4 4.98288 14.4C4.97528 14.4 4.9677 14.4 4.96012 14.4C4.95254 14.4 4.94497 14.4 4.93741 14.4C4.92985 14.4 4.92231 14.4 4.91477 14.4C4.90723 14.4 4.8997 14.4 4.89218 14.4C4.88465 14.4 4.87714 14.4 4.86964 14.4C4.86214 14.4 4.85465 14.4 4.84717 14.4C4.83969 14.4 4.83221 14.4 4.82475 14.4C4.81729 14.4 4.80984 14.4 4.80239 14.4C4.79495 14.4 4.78752 14.4 4.78009 14.4C4.77267 14.4 4.76526 14.4 4.75785 14.4C4.75045 14.4 4.74306 14.4 4.73567 14.4C4.72829 14.4 4.72091 14.4 4.71355 14.4C4.70619 14.4 4.69883 14.4 4.69149 14.4C4.68414 14.4 4.67681 14.4 4.66949 14.4C4.66216 14.4 4.65485 14.4 4.64755 14.4C4.64024 14.4 4.63295 14.4 4.62566 14.4C4.61838 14.4 4.61111 14.4 4.60384 14.4C4.59658 14.4 4.58933 14.4 4.58209 14.4C4.57484 14.4 4.56761 14.4 4.56039 14.4C4.55317 14.4 4.54595 14.4 4.53875 14.4C4.53155 14.4 4.52436 14.4 4.51718 14.4C4.51 14.4 4.50283 14.4 4.49567 14.4C4.48851 14.4 4.48136 14.4 4.47422 14.4C4.46708 14.4 4.45995 14.4 4.45283 14.4C4.44571 14.4 4.4386 14.4 4.43151 14.4C4.42441 14.4 4.41732 14.4 4.41025 14.4C4.40317 14.4 4.39611 14.4 4.38905 14.4C4.382 14.4 4.37495 14.4 4.36792 14.4C4.36088 14.4 4.35386 14.4 4.34685 14.4C4.33984 14.4 4.33283 14.4 4.32584 14.4C4.31885 14.4 4.31187 14.4 4.3049 14.4C4.29793 14.4 4.29098 14.4 4.28403 14.4C4.27708 14.4 4.27014 14.4 4.26322 14.4C4.25629 14.4 4.24938 14.4 4.24247 14.4C4.23557 14.4 4.22868 14.4 4.2218 14.4C4.21491 14.4 4.20804 14.4 4.20118 14.4C4.19432 14.4 4.18747 14.4 4.18064 14.4C4.1738 14.4 4.16697 14.4 4.16016 14.4C4.15334 14.4 4.14654 14.4 4.13974 14.4C4.13295 14.4 4.12617 14.4 4.1194 14.4C4.11263 14.4 4.10587 14.4 4.09912 14.4C4.09237 14.4 4.08563 14.4 4.07891 14.4C4.07218 14.4 4.06547 14.4 4.05876 14.4C4.05206 14.4 4.04537 14.4 4.03869 14.4C4.03201 14.4 4.02534 14.4 4.01868 14.4C4.01202 14.4 4.00538 14.4 3.99874 14.4C3.99211 14.4 3.98548 14.4 3.97887 14.4C3.97226 14.4 3.96566 14.4 3.95907 14.4C3.95248 14.4 3.94591 14.4 3.93934 14.4C3.93277 14.4 3.92622 14.4 3.91968 14.4C3.91314 14.4 3.90661 14.4 3.90009 14.4C3.89357 14.4 3.88706 14.4 3.88057 14.4C3.87407 14.4 3.86759 14.4 3.86112 14.4C3.85464 14.4 3.84818 14.4 3.84174 14.4C3.83529 14.4 3.82885 14.4 3.82243 14.4C3.816 14.4 3.80959 14.4 3.80319 14.4C3.79679 14.4 3.7904 14.4 3.78402 14.4C3.77765 14.4 3.77128 14.4 3.76493 14.4C3.75858 14.4 3.75224 14.4 3.74591 14.4C3.73958 14.4 3.73326 14.4 3.72696 14.4C3.72065 14.4 3.71436 14.4 3.70808 14.4C3.7018 14.4 3.69553 14.4 3.68928 14.4C3.68302 14.4 3.67678 14.4 3.67055 14.4C3.66432 14.4 3.6581 14.4 3.65189 14.4C3.64568 14.4 3.63949 14.4 3.63331 14.4C3.62712 14.4 3.62095 14.4 3.6148 14.4C3.60864 14.4 3.60249 14.4 3.59636 14.4C3.59023 14.4 3.58411 14.4 3.578 14.4C3.57189 14.4 3.5658 14.4 3.55971 14.4C3.55363 14.4 3.54756 14.4 3.5415 14.4C3.53545 14.4 3.5294 14.4 3.52337 14.4C3.51734 14.4 3.51132 14.4 3.50531 14.4C3.4993 14.4 3.49331 14.4 3.48732 14.4C3.48134 14.4 3.47537 14.4 3.46942 14.4C3.46346 14.4 3.45752 14.4 3.45159 14.4C3.44565 14.4 3.43974 14.4 3.43383 14.4C3.42792 14.4 3.42203 14.4 3.41615 14.4C3.41027 14.4 3.40441 14.4 3.39855 14.4C3.3927 14.4 3.38686 14.4 3.38103 14.4C3.3752 14.4 3.36939 14.4 3.36358 14.4C3.35778 14.4 3.35199 14.4 3.34622 14.4C3.34044 14.4 3.33468 14.4 3.32893 14.4C3.32318 14.4 3.31744 14.4 3.31172 14.4C3.30599 14.4 3.30028 14.4 3.29458 14.4C3.28889 14.4 3.2832 14.4 3.27753 14.4C3.27186 14.4 3.2662 14.4 3.26056 14.4C3.25491 14.4 3.24928 14.4 3.24367 14.4C3.23805 14.4 3.23244 14.4 3.22685 14.4C3.22126 14.4 3.21568 14.4 3.21012 14.4C3.20455 14.4 3.199 14.4 3.19347 14.4C3.18793 14.4 3.1824 14.4 3.17689 14.4C3.17138 14.4 3.16589 14.4 3.1604 14.4C3.15492 14.4 3.14945 14.4 3.14399 14.4C3.13853 14.4 3.13309 14.4 3.12766 14.4C3.12223 14.4 3.11682 14.4 3.11142 14.4C3.10601 14.4 3.10063 14.4 3.09525 14.4C3.08988 14.4 3.08452 14.4 3.07917 14.4C3.07382 14.4 3.06849 14.4 3.06317 14.4C3.05785 14.4 3.05254 14.4 3.04725 14.4C3.04196 14.4 3.03668 14.4 3.03142 14.4C3.02615 14.4 3.0209 14.4 3.01567 14.4C3.01043 14.4 3.00521 14.4 3 14.4V15.6C3.00521 15.6 3.01043 15.6 3.01567 15.6C3.0209 15.6 3.02615 15.6 3.03142 15.6C3.03668 15.6 3.04196 15.6 3.04725 15.6C3.05254 15.6 3.05785 15.6 3.06317 15.6C3.06849 15.6 3.07382 15.6 3.07917 15.6C3.08452 15.6 3.08988 15.6 3.09525 15.6C3.10063 15.6 3.10601 15.6 3.11142 15.6C3.11682 15.6 3.12223 15.6 3.12766 15.6C3.13309 15.6 3.13853 15.6 3.14399 15.6C3.14945 15.6 3.15492 15.6 3.1604 15.6C3.16589 15.6 3.17138 15.6 3.17689 15.6C3.1824 15.6 3.18793 15.6 3.19347 15.6C3.199 15.6 3.20455 15.6 3.21012 15.6C3.21568 15.6 3.22126 15.6 3.22685 15.6C3.23244 15.6 3.23805 15.6 3.24367 15.6C3.24928 15.6 3.25491 15.6 3.26056 15.6C3.2662 15.6 3.27186 15.6 3.27753 15.6C3.2832 15.6 3.28889 15.6 3.29458 15.6C3.30028 15.6 3.30599 15.6 3.31172 15.6C3.31744 15.6 3.32318 15.6 3.32893 15.6C3.33468 15.6 3.34044 15.6 3.34622 15.6C3.35199 15.6 3.35778 15.6 3.36358 15.6C3.36939 15.6 3.3752 15.6 3.38103 15.6C3.38686 15.6 3.3927 15.6 3.39855 15.6C3.40441 15.6 3.41027 15.6 3.41615 15.6C3.42203 15.6 3.42792 15.6 3.43383 15.6C3.43974 15.6 3.44565 15.6 3.45159 15.6C3.45752 15.6 3.46346 15.6 3.46942 15.6C3.47537 15.6 3.48134 15.6 3.48732 15.6C3.49331 15.6 3.4993 15.6 3.50531 15.6C3.51132 15.6 3.51734 15.6 3.52337 15.6C3.5294 15.6 3.53545 15.6 3.5415 15.6C3.54756 15.6 3.55363 15.6 3.55971 15.6C3.5658 15.6 3.57189 15.6 3.578 15.6C3.58411 15.6 3.59023 15.6 3.59636 15.6C3.60249 15.6 3.60864 15.6 3.6148 15.6C3.62095 15.6 3.62712 15.6 3.63331 15.6C3.63949 15.6 3.64568 15.6 3.65189 15.6C3.6581 15.6 3.66432 15.6 3.67055 15.6C3.67678 15.6 3.68302 15.6 3.68928 15.6C3.69553 15.6 3.7018 15.6 3.70808 15.6C3.71436 15.6 3.72065 15.6 3.72696 15.6C3.73326 15.6 3.73958 15.6 3.74591 15.6C3.75224 15.6 3.75858 15.6 3.76493 15.6C3.77128 15.6 3.77765 15.6 3.78402 15.6C3.7904 15.6 3.79679 15.6 3.80319 15.6C3.80959 15.6 3.816 15.6 3.82243 15.6C3.82885 15.6 3.83529 15.6 3.84174 15.6C3.84818 15.6 3.85464 15.6 3.86112 15.6C3.86759 15.6 3.87407 15.6 3.88057 15.6C3.88706 15.6 3.89357 15.6 3.90009 15.6C3.90661 15.6 3.91314 15.6 3.91968 15.6C3.92622 15.6 3.93277 15.6 3.93934 15.6C3.94591 15.6 3.95248 15.6 3.95907 15.6C3.96566 15.6 3.97226 15.6 3.97887 15.6C3.98548 15.6 3.99211 15.6 3.99874 15.6C4.00538 15.6 4.01202 15.6 4.01868 15.6C4.02534 15.6 4.03201 15.6 4.03869 15.6C4.04537 15.6 4.05206 15.6 4.05876 15.6C4.06547 15.6 4.07218 15.6 4.07891 15.6C4.08563 15.6 4.09237 15.6 4.09912 15.6C4.10587 15.6 4.11263 15.6 4.1194 15.6C4.12617 15.6 4.13295 15.6 4.13974 15.6C4.14654 15.6 4.15334 15.6 4.16016 15.6C4.16697 15.6 4.1738 15.6 4.18064 15.6C4.18747 15.6 4.19432 15.6 4.20118 15.6C4.20804 15.6 4.21491 15.6 4.2218 15.6C4.22868 15.6 4.23557 15.6 4.24247 15.6C4.24938 15.6 4.25629 15.6 4.26322 15.6C4.27014 15.6 4.27708 15.6 4.28403 15.6C4.29098 15.6 4.29793 15.6 4.3049 15.6C4.31187 15.6 4.31885 15.6 4.32584 15.6C4.33283 15.6 4.33984 15.6 4.34685 15.6C4.35386 15.6 4.36088 15.6 4.36792 15.6C4.37495 15.6 4.382 15.6 4.38905 15.6C4.39611 15.6 4.40317 15.6 4.41025 15.6C4.41732 15.6 4.42441 15.6 4.43151 15.6C4.4386 15.6 4.44571 15.6 4.45283 15.6C4.45995 15.6 4.46708 15.6 4.47422 15.6C4.48136 15.6 4.48851 15.6 4.49567 15.6C4.50283 15.6 4.51 15.6 4.51718 15.6C4.52436 15.6 4.53155 15.6 4.53875 15.6C4.54595 15.6 4.55317 15.6 4.56039 15.6C4.56761 15.6 4.57484 15.6 4.58209 15.6C4.58933 15.6 4.59658 15.6 4.60384 15.6C4.61111 15.6 4.61838 15.6 4.62566 15.6C4.63295 15.6 4.64024 15.6 4.64755 15.6C4.65485 15.6 4.66216 15.6 4.66949 15.6C4.67681 15.6 4.68414 15.6 4.69149 15.6C4.69883 15.6 4.70619 15.6 4.71355 15.6C4.72091 15.6 4.72829 15.6 4.73567 15.6C4.74306 15.6 4.75045 15.6 4.75785 15.6C4.76526 15.6 4.77267 15.6 4.78009 15.6C4.78752 15.6 4.79495 15.6 4.80239 15.6C4.80984 15.6 4.81729 15.6 4.82475 15.6C4.83221 15.6 4.83969 15.6 4.84717 15.6C4.85465 15.6 4.86214 15.6 4.86964 15.6C4.87714 15.6 4.88465 15.6 4.89218 15.6C4.8997 15.6 4.90723 15.6 4.91477 15.6C4.92231 15.6 4.92985 15.6 4.93741 15.6C4.94497 15.6 4.95254 15.6 4.96012 15.6C4.9677 15.6 4.97528 15.6 4.98288 15.6C4.99048 15.6 4.99808 15.6 5.0057 15.6C5.01331 15.6 5.02094 15.6 5.02857 15.6C5.03621 15.6 5.04385 15.6 5.0515 15.6C5.05916 15.6 5.06682 15.6 5.07449 15.6C5.08216 15.6 5.08984 15.6 5.09753 15.6C5.10522 15.6 5.11292 15.6 5.12063 15.6C5.12834 15.6 5.13605 15.6 5.14378 15.6C5.15151 15.6 5.15924 15.6 5.16699 15.6C5.17473 15.6 5.18248 15.6 5.19025 15.6C5.19801 15.6 5.20578 15.6 5.21356 15.6C5.22134 15.6 5.22913 15.6 5.23693 15.6C5.24473 15.6 5.25254 15.6 5.26035 15.6C5.26817 15.6 5.276 15.6 5.28383 15.6C5.29166 15.6 5.29951 15.6 5.30736 15.6C5.31521 15.6 5.32307 15.6 5.33094 15.6C5.33881 15.6 5.34669 15.6 5.35458 15.6C5.36246 15.6 5.37036 15.6 5.37826 15.6C5.38617 15.6 5.39408 15.6 5.402 15.6C5.40992 15.6 5.41785 15.6 5.42579 15.6C5.43373 15.6 5.44168 15.6 5.44963 15.6C5.45759 15.6 5.46555 15.6 5.47353 15.6C5.4815 15.6 5.48948 15.6 5.49747 15.6C5.50546 15.6 5.51346 15.6 5.52146 15.6C5.52947 15.6 5.53749 15.6 5.54551 15.6C5.55353 15.6 5.56156 15.6 5.5696 15.6C5.57765 15.6 5.58569 15.6 5.59375 15.6C5.60181 15.6 5.60987 15.6 5.61794 15.6C5.62602 15.6 5.6341 15.6 5.64219 15.6C5.65028 15.6 5.65838 15.6 5.66648 15.6C5.67459 15.6 5.6827 15.6 5.69082 15.6C5.69895 15.6 5.70708 15.6 5.71521 15.6C5.72335 15.6 5.7315 15.6 5.73965 15.6C5.74781 15.6 5.75597 15.6 5.76414 15.6C5.77231 15.6 5.78049 15.6 5.78867 15.6C5.79686 15.6 5.80505 15.6 5.81326 15.6C5.82146 15.6 5.82967 15.6 5.83788 15.6C5.8461 15.6 5.85433 15.6 5.86256 15.6C5.87079 15.6 5.87903 15.6 5.88728 15.6C5.89553 15.6 5.90379 15.6 5.91205 15.6C5.92032 15.6 5.92859 15.6 5.93687 15.6C5.94515 15.6 5.95343 15.6 5.96173 15.6C5.97002 15.6 5.97832 15.6 5.98663 15.6C5.99494 15.6 6.00326 15.6 6.01158 15.6C6.01991 15.6 6.02824 15.6 6.03658 15.6C6.04492 15.6 6.05327 15.6 6.06162 15.6C6.06998 15.6 6.07834 15.6 6.08671 15.6C6.09508 15.6 6.10346 15.6 6.11184 15.6C6.12022 15.6 6.12861 15.6 6.13701 15.6C6.14541 15.6 6.15382 15.6 6.16223 15.6C6.17064 15.6 6.17906 15.6 6.18749 15.6C6.19592 15.6 6.20435 15.6 6.2128 15.6C6.22124 15.6 6.22969 15.6 6.23814 15.6C6.2466 15.6 6.25506 15.6 6.26353 15.6C6.272 15.6 6.28048 15.6 6.28897 15.6C6.29745 15.6 6.30594 15.6 6.31444 15.6C6.32294 15.6 6.33144 15.6 6.33996 15.6C6.34847 15.6 6.35699 15.6 6.36551 15.6C6.37404 15.6 6.38257 15.6 6.39111 15.6C6.39965 15.6 6.4082 15.6 6.41675 15.6C6.42531 15.6 6.43387 15.6 6.44243 15.6C6.451 15.6 6.45957 15.6 6.46816 15.6C6.47674 15.6 6.48532 15.6 6.49392 15.6C6.50251 15.6 6.51111 15.6 6.51972 15.6C6.52832 15.6 6.53694 15.6 6.54556 15.6C6.55418 15.6 6.56281 15.6 6.57144 15.6C6.58007 15.6 6.58871 15.6 6.59736 15.6C6.60601 15.6 6.61466 15.6 6.62332 15.6C6.63198 15.6 6.64064 15.6 6.64931 15.6C6.65799 15.6 6.66666 15.6 6.67535 15.6C6.68403 15.6 6.69273 15.6 6.70142 15.6C6.71012 15.6 6.71882 15.6 6.72753 15.6C6.73624 15.6 6.74496 15.6 6.75368 15.6C6.7624 15.6 6.77113 15.6 6.77987 15.6C6.7886 15.6 6.79734 15.6 6.80609 15.6C6.81484 15.6 6.82359 15.6 6.83235 15.6C6.84111 15.6 6.84988 15.6 6.85865 15.6C6.86742 15.6 6.8762 15.6 6.88498 15.6C6.89376 15.6 6.90255 15.6 6.91135 15.6C6.92014 15.6 6.92894 15.6 6.93775 15.6C6.94656 15.6 6.95537 15.6 6.96419 15.6C6.97301 15.6 6.98183 15.6 6.99066 15.6C6.9995 15.6 7.00833 15.6 7.01717 15.6C7.02602 15.6 7.03486 15.6 7.04372 15.6C7.05257 15.6 7.06143 15.6 7.0703 15.6C7.07916 15.6 7.08803 15.6 7.09691 15.6C7.10578 15.6 7.11467 15.6 7.12355 15.6C7.13244 15.6 7.14133 15.6 7.15023 15.6C7.15913 15.6 7.16804 15.6 7.17695 15.6C7.18585 15.6 7.19477 15.6 7.20369 15.6C7.21261 15.6 7.22154 15.6 7.23047 15.6C7.2394 15.6 7.24834 15.6 7.25728 15.6C7.26622 15.6 7.27517 15.6 7.28412 15.6C7.29308 15.6 7.30203 15.6 7.311 15.6C7.31996 15.6 7.32893 15.6 7.3379 15.6C7.34688 15.6 7.35586 15.6 7.36484 15.6C7.37383 15.6 7.38281 15.6 7.39181 15.6C7.4008 15.6 7.4098 15.6 7.41881 15.6C7.42781 15.6 7.43682 15.6 7.44584 15.6C7.45485 15.6 7.46387 15.6 7.4729 15.6C7.48192 15.6 7.49095 15.6 7.49999 15.6C7.50902 15.6 7.51806 15.6 7.52711 15.6C7.53615 15.6 7.5452 15.6 7.55426 15.6C7.56331 15.6 7.57237 15.6 7.58144 15.6C7.5905 15.6 7.59957 15.6 7.60865 15.6C7.61772 15.6 7.6268 15.6 7.63588 15.6C7.64497 15.6 7.65405 15.6 7.66315 15.6C7.67224 15.6 7.68134 15.6 7.69044 15.6C7.69954 15.6 7.70865 15.6 7.71776 15.6C7.72687 15.6 7.73599 15.6 7.74511 15.6C7.75423 15.6 7.76336 15.6 7.77248 15.6C7.78161 15.6 7.79075 15.6 7.79989 15.6C7.80903 15.6 7.81817 15.6 7.82732 15.6C7.83646 15.6 7.84562 15.6 7.85477 15.6C7.86393 15.6 7.87309 15.6 7.88226 15.6C7.89142 15.6 7.90059 15.6 7.90976 15.6C7.91894 15.6 7.92812 15.6 7.9373 15.6C7.94648 15.6 7.95567 15.6 7.96486 15.6C7.97405 15.6 7.98324 15.6 7.99244 15.6C8.00164 15.6 8.01084 15.6 8.02005 15.6C8.02926 15.6 8.03847 15.6 8.04769 15.6C8.0569 15.6 8.06612 15.6 8.07534 15.6C8.08457 15.6 8.0938 15.6 8.10303 15.6C8.11226 15.6 8.12149 15.6 8.13073 15.6C8.13997 15.6 8.14922 15.6 8.15846 15.6C8.16771 15.6 8.17696 15.6 8.18622 15.6C8.19547 15.6 8.20473 15.6 8.21399 15.6C8.22326 15.6 8.23252 15.6 8.24179 15.6C8.25106 15.6 8.26034 15.6 8.26962 15.6C8.27889 15.6 8.28817 15.6 8.29746 15.6C8.30674 15.6 8.31603 15.6 8.32533 15.6C8.33462 15.6 8.34391 15.6 8.35321 15.6C8.36251 15.6 8.37182 15.6 8.38112 15.6C8.39043 15.6 8.39974 15.6 8.40905 15.6C8.41837 15.6 8.42768 15.6 8.437 15.6C8.44632 15.6 8.45565 15.6 8.46497 15.6C8.4743 15.6 8.48363 15.6 8.49297 15.6C8.5023 15.6 8.51164 15.6 8.52098 15.6C8.53032 15.6 8.53966 15.6 8.54901 15.6C8.55836 15.6 8.56771 15.6 8.57706 15.6C8.58642 15.6 8.59577 15.6 8.60513 15.6C8.61449 15.6 8.62386 15.6 8.63322 15.6C8.64259 15.6 8.65196 15.6 8.66133 15.6C8.6707 15.6 8.68008 15.6 8.68946 15.6C8.69884 15.6 8.70822 15.6 8.7176 15.6C8.72699 15.6 8.73638 15.6 8.74577 15.6C8.75516 15.6 8.76455 15.6 8.77395 15.6C8.78335 15.6 8.79274 15.6 8.80215 15.6C8.81155 15.6 8.82095 15.6 8.83036 15.6C8.83977 15.6 8.84918 15.6 8.85859 15.6C8.86801 15.6 8.87742 15.6 8.88684 15.6C8.89626 15.6 8.90568 15.6 8.91511 15.6C8.92453 15.6 8.93396 15.6 8.94339 15.6C8.95282 15.6 8.96225 15.6 8.97169 15.6C8.98112 15.6 8.99056 15.6 9 15.6C9.00944 15.6 9.01888 15.6 9.02833 15.6C9.03777 15.6 9.04722 15.6 9.05667 15.6C9.06612 15.6 9.07557 15.6 9.08503 15.6C9.09448 15.6 9.10394 15.6 9.1134 15.6C9.12286 15.6 9.13232 15.6 9.14179 15.6C9.15125 15.6 9.16072 15.6 9.17019 15.6C9.17966 15.6 9.18913 15.6 9.1986 15.6C9.20807 15.6 9.21755 15.6 9.22703 15.6C9.23651 15.6 9.24599 15.6 9.25547 15.6C9.26495 15.6 9.27443 15.6 9.28392 15.6C9.29341 15.6 9.3029 15.6 9.31239 15.6C9.32188 15.6 9.33137 15.6 9.34087 15.6C9.35036 15.6 9.35986 15.6 9.36936 15.6C9.37885 15.6 9.38835 15.6 9.39786 15.6C9.40736 15.6 9.41686 15.6 9.42637 15.6C9.43588 15.6 9.44539 15.6 9.4549 15.6C9.46441 15.6 9.47392 15.6 9.48343 15.6C9.49294 15.6 9.50246 15.6 9.51198 15.6C9.52149 15.6 9.53101 15.6 9.54053 15.6C9.55005 15.6 9.55958 15.6 9.5691 15.6C9.57862 15.6 9.58815 15.6 9.59768 15.6C9.6072 15.6 9.61673 15.6 9.62626 15.6C9.63579 15.6 9.64533 15.6 9.65486 15.6C9.66439 15.6 9.67393 15.6 9.68346 15.6C9.693 15.6 9.70254 15.6 9.71208 15.6C9.72162 15.6 9.73116 15.6 9.7407 15.6C9.75024 15.6 9.75979 15.6 9.76933 15.6C9.77888 15.6 9.78842 15.6 9.79797 15.6C9.80752 15.6 9.81707 15.6 9.82662 15.6C9.83617 15.6 9.84572 15.6 9.85527 15.6C9.86482 15.6 9.87437 15.6 9.88393 15.6C9.89348 15.6 9.90304 15.6 9.9126 15.6C9.92215 15.6 9.93171 15.6 9.94127 15.6C9.95083 15.6 9.96039 15.6 9.96995 15.6C9.97951 15.6 9.98908 15.6 9.99864 15.6C10.0082 15.6 10.0178 15.6 10.0273 15.6C10.0369 15.6 10.0465 15.6 10.056 15.6C10.0656 15.6 10.0752 15.6 10.0847 15.6C10.0943 15.6 10.1039 15.6 10.1134 15.6C10.123 15.6 10.1326 15.6 10.1422 15.6C10.1517 15.6 10.1613 15.6 10.1709 15.6C10.1805 15.6 10.19 15.6 10.1996 15.6C10.2092 15.6 10.2187 15.6 10.2283 15.6C10.2379 15.6 10.2475 15.6 10.2571 15.6C10.2666 15.6 10.2762 15.6 10.2858 15.6C10.2954 15.6 10.3049 15.6 10.3145 15.6C10.3241 15.6 10.3337 15.6 10.3433 15.6C10.3528 15.6 10.3624 15.6 10.372 15.6C10.3816 15.6 10.3912 15.6 10.4008 15.6C10.4103 15.6 10.4199 15.6 10.4295 15.6C10.4391 15.6 10.4487 15.6 10.4583 15.6C10.4678 15.6 10.4774 15.6 10.487 15.6C10.4966 15.6 10.5062 15.6 10.5158 15.6C10.5253 15.6 10.5349 15.6 10.5445 15.6C10.5541 15.6 10.5637 15.6 10.5733 15.6C10.5828 15.6 10.5924 15.6 10.602 15.6C10.6116 15.6 10.6212 15.6 10.6308 15.6C10.6404 15.6 10.6499 15.6 10.6595 15.6C10.6691 15.6 10.6787 15.6 10.6883 15.6C10.6979 15.6 10.7074 15.6 10.717 15.6C10.7266 15.6 10.7362 15.6 10.7458 15.6C10.7554 15.6 10.7649 15.6 10.7745 15.6C10.7841 15.6 10.7937 15.6 10.8033 15.6C10.8129 15.6 10.8224 15.6 10.832 15.6C10.8416 15.6 10.8512 15.6 10.8608 15.6C10.8704 15.6 10.8799 15.6 10.8895 15.6C10.8991 15.6 10.9087 15.6 10.9183 15.6C10.9278 15.6 10.9374 15.6 10.947 15.6C10.9566 15.6 10.9662 15.6 10.9757 15.6C10.9853 15.6 10.9949 15.6 11.0045 15.6C11.014 15.6 11.0236 15.6 11.0332 15.6C11.0428 15.6 11.0524 15.6 11.0619 15.6C11.0715 15.6 11.0811 15.6 11.0906 15.6C11.1002 15.6 11.1098 15.6 11.1194 15.6C11.1289 15.6 11.1385 15.6 11.1481 15.6C11.1576 15.6 11.1672 15.6 11.1768 15.6C11.1864 15.6 11.1959 15.6 11.2055 15.6C11.2151 15.6 11.2246 15.6 11.2342 15.6C11.2438 15.6 11.2533 15.6 11.2629 15.6C11.2724 15.6 11.282 15.6 11.2916 15.6C11.3011 15.6 11.3107 15.6 11.3202 15.6C11.3298 15.6 11.3394 15.6 11.3489 15.6C11.3585 15.6 11.368 15.6 11.3776 15.6C11.3871 15.6 11.3967 15.6 11.4062 15.6C11.4158 15.6 11.4253 15.6 11.4349 15.6C11.4444 15.6 11.454 15.6 11.4635 15.6C11.4731 15.6 11.4826 15.6 11.4922 15.6C11.5017 15.6 11.5113 15.6 11.5208 15.6C11.5303 15.6 11.5399 15.6 11.5494 15.6C11.559 15.6 11.5685 15.6 11.578 15.6C11.5876 15.6 11.5971 15.6 11.6066 15.6C11.6162 15.6 11.6257 15.6 11.6352 15.6C11.6448 15.6 11.6543 15.6 11.6638 15.6C11.6733 15.6 11.6829 15.6 11.6924 15.6C11.7019 15.6 11.7114 15.6 11.721 15.6C11.7305 15.6 11.74 15.6 11.7495 15.6C11.759 15.6 11.7685 15.6 11.7781 15.6C11.7876 15.6 11.7971 15.6 11.8066 15.6C11.8161 15.6 11.8256 15.6 11.8351 15.6C11.8446 15.6 11.8541 15.6 11.8636 15.6C11.8731 15.6 11.8826 15.6 11.8921 15.6C11.9016 15.6 11.9111 15.6 11.9206 15.6C11.9301 15.6 11.9396 15.6 11.9491 15.6C11.9586 15.6 11.9681 15.6 11.9775 15.6C11.987 15.6 11.9965 15.6 12.006 15.6C12.0155 15.6 12.025 15.6 12.0344 15.6C12.0439 15.6 12.0534 15.6 12.0629 15.6C12.0723 15.6 12.0818 15.6 12.0913 15.6C12.1007 15.6 12.1102 15.6 12.1197 15.6C12.1291 15.6 12.1386 15.6 12.148 15.6C12.1575 15.6 12.167 15.6 12.1764 15.6C12.1859 15.6 12.1953 15.6 12.2048 15.6C12.2142 15.6 12.2237 15.6 12.2331 15.6C12.2426 15.6 12.252 15.6 12.2614 15.6C12.2709 15.6 12.2803 15.6 12.2897 15.6C12.2992 15.6 12.3086 15.6 12.318 15.6C12.3275 15.6 12.3369 15.6 12.3463 15.6C12.3557 15.6 12.3652 15.6 12.3746 15.6C12.384 15.6 12.3934 15.6 12.4028 15.6C12.4122 15.6 12.4216 15.6 12.4311 15.6C12.4405 15.6 12.4499 15.6 12.4593 15.6C12.4687 15.6 12.4781 15.6 12.4875 15.6C12.4969 15.6 12.5062 15.6 12.5156 15.6C12.525 15.6 12.5344 15.6 12.5438 15.6C12.5532 15.6 12.5626 15.6 12.5719 15.6C12.5813 15.6 12.5907 15.6 12.6001 15.6C12.6094 15.6 12.6188 15.6 12.6282 15.6C12.6375 15.6 12.6469 15.6 12.6563 15.6C12.6656 15.6 12.675 15.6 12.6843 15.6C12.6937 15.6 12.703 15.6 12.7124 15.6C12.7217 15.6 12.7311 15.6 12.7404 15.6C12.7497 15.6 12.7591 15.6 12.7684 15.6C12.7777 15.6 12.7871 15.6 12.7964 15.6C12.8057 15.6 12.815 15.6 12.8244 15.6C12.8337 15.6 12.843 15.6 12.8523 15.6C12.8616 15.6 12.8709 15.6 12.8802 15.6C12.8895 15.6 12.8988 15.6 12.9081 15.6C12.9174 15.6 12.9267 15.6 12.936 15.6C12.9453 15.6 12.9546 15.6 12.9639 15.6C12.9732 15.6 12.9824 15.6 12.9917 15.6C13.001 15.6 13.0103 15.6 13.0195 15.6C13.0288 15.6 13.0381 15.6 13.0473 15.6C13.0566 15.6 13.0658 15.6 13.0751 15.6C13.0843 15.6 13.0936 15.6 13.1028 15.6C13.1121 15.6 13.1213 15.6 13.1306 15.6C13.1398 15.6 13.149 15.6 13.1583 15.6C13.1675 15.6 13.1767 15.6 13.1859 15.6C13.1952 15.6 13.2044 15.6 13.2136 15.6C13.2228 15.6 13.232 15.6 13.2412 15.6C13.2504 15.6 13.2596 15.6 13.2688 15.6C13.278 15.6 13.2872 15.6 13.2964 15.6C13.3056 15.6 13.3148 15.6 13.324 15.6C13.3331 15.6 13.3423 15.6 13.3515 15.6C13.3607 15.6 13.3698 15.6 13.379 15.6C13.3882 15.6 13.3973 15.6 13.4065 15.6C13.4156 15.6 13.4248 15.6 13.4339 15.6C13.4431 15.6 13.4522 15.6 13.4613 15.6C13.4705 15.6 13.4796 15.6 13.4887 15.6C13.4979 15.6 13.507 15.6 13.5161 15.6C13.5252 15.6 13.5343 15.6 13.5435 15.6C13.5526 15.6 13.5617 15.6 13.5708 15.6C13.5799 15.6 13.589 15.6 13.5981 15.6C13.6071 15.6 13.6162 15.6 13.6253 15.6C13.6344 15.6 13.6435 15.6 13.6525 15.6C13.6616 15.6 13.6707 15.6 13.6797 15.6C13.6888 15.6 13.6979 15.6 13.7069 15.6C13.716 15.6 13.725 15.6 13.7341 15.6C13.7431 15.6 13.7521 15.6 13.7612 15.6C13.7702 15.6 13.7792 15.6 13.7883 15.6C13.7973 15.6 13.8063 15.6 13.8153 15.6C13.8243 15.6 13.8333 15.6 13.8423 15.6C13.8513 15.6 13.8603 15.6 13.8693 15.6C13.8783 15.6 13.8873 15.6 13.8963 15.6C13.9053 15.6 13.9143 15.6 13.9232 15.6C13.9322 15.6 13.9412 15.6 13.9501 15.6C13.9591 15.6 13.968 15.6 13.977 15.6C13.9859 15.6 13.9949 15.6 14.0038 15.6C14.0128 15.6 14.0217 15.6 14.0306 15.6C14.0396 15.6 14.0485 15.6 14.0574 15.6C14.0663 15.6 14.0752 15.6 14.0841 15.6C14.093 15.6 14.1019 15.6 14.1108 15.6C14.1197 15.6 14.1286 15.6 14.1375 15.6C14.1464 15.6 14.1553 15.6 14.1642 15.6C14.173 15.6 14.1819 15.6 14.1908 15.6C14.1996 15.6 14.2085 15.6 14.2173 15.6C14.2262 15.6 14.235 15.6 14.2439 15.6C14.2527 15.6 14.2615 15.6 14.2704 15.6C14.2792 15.6 14.288 15.6 14.2968 15.6C14.3056 15.6 14.3145 15.6 14.3233 15.6C14.3321 15.6 14.3409 15.6 14.3497 15.6C14.3585 15.6 14.3672 15.6 14.376 15.6C14.3848 15.6 14.3936 15.6 14.4023 15.6C14.4111 15.6 14.4199 15.6 14.4286 15.6C14.4374 15.6 14.4461 15.6 14.4549 15.6C14.4636 15.6 14.4724 15.6 14.4811 15.6C14.4898 15.6 14.4986 15.6 14.5073 15.6C14.516 15.6 14.5247 15.6 14.5334 15.6C14.5421 15.6 14.5508 15.6 14.5595 15.6C14.5682 15.6 14.5769 15.6 14.5856 15.6C14.5943 15.6 14.6029 15.6 14.6116 15.6C14.6203 15.6 14.6289 15.6 14.6376 15.6C14.6463 15.6 14.6549 15.6 14.6635 15.6C14.6722 15.6 14.6808 15.6 14.6895 15.6C14.6981 15.6 14.7067 15.6 14.7153 15.6C14.7239 15.6 14.7326 15.6 14.7412 15.6C14.7498 15.6 14.7584 15.6 14.767 15.6C14.7755 15.6 14.7841 15.6 14.7927 15.6C14.8013 15.6 14.8099 15.6 14.8184 15.6C14.827 15.6 14.8355 15.6 14.8441 15.6C14.8526 15.6 14.8612 15.6 14.8697 15.6C14.8783 15.6 14.8868 15.6 14.8953 15.6C14.9038 15.6 14.9124 15.6 14.9209 15.6C14.9294 15.6 14.9379 15.6 14.9464 15.6C14.9549 15.6 14.9634 15.6 14.9718 15.6C14.9803 15.6 14.9888 15.6 14.9973 15.6C15.0057 15.6 15.0142 15.6 15.0226 15.6C15.0311 15.6 15.0395 15.6 15.048 15.6C15.0564 15.6 15.0648 15.6 15.0733 15.6C15.0817 15.6 15.0901 15.6 15.0985 15.6C15.1069 15.6 15.1153 15.6 15.1237 15.6C15.1321 15.6 15.1405 15.6 15.1489 15.6C15.1573 15.6 15.1656 15.6 15.174 15.6C15.1824 15.6 15.1907 15.6 15.1991 15.6C15.2074 15.6 15.2158 15.6 15.2241 15.6C15.2325 15.6 15.2408 15.6 15.2491 15.6C15.2574 15.6 15.2657 15.6 15.274 15.6C15.2824 15.6 15.2907 15.6 15.2989 15.6C15.3072 15.6 15.3155 15.6 15.3238 15.6C15.3321 15.6 15.3403 15.6 15.3486 15.6C15.3569 15.6 15.3651 15.6 15.3734 15.6C15.3816 15.6 15.3898 15.6 15.3981 15.6C15.4063 15.6 15.4145 15.6 15.4227 15.6C15.431 15.6 15.4392 15.6 15.4474 15.6C15.4556 15.6 15.4637 15.6 15.4719 15.6C15.4801 15.6 15.4883 15.6 15.4965 15.6C15.5046 15.6 15.5128 15.6 15.5209 15.6C15.5291 15.6 15.5372 15.6 15.5454 15.6C15.5535 15.6 15.5616 15.6 15.5697 15.6C15.5779 15.6 15.586 15.6 15.5941 15.6C15.6022 15.6 15.6103 15.6 15.6183 15.6C15.6264 15.6 15.6345 15.6 15.6426 15.6C15.6506 15.6 15.6587 15.6 15.6668 15.6C15.6748 15.6 15.6829 15.6 15.6909 15.6C15.6989 15.6 15.707 15.6 15.715 15.6C15.723 15.6 15.731 15.6 15.739 15.6C15.747 15.6 15.755 15.6 15.763 15.6C15.771 15.6 15.779 15.6 15.7869 15.6C15.7949 15.6 15.8029 15.6 15.8108 15.6C15.8188 15.6 15.8267 15.6 15.8346 15.6C15.8426 15.6 15.8505 15.6 15.8584 15.6C15.8663 15.6 15.8743 15.6 15.8822 15.6C15.8901 15.6 15.8979 15.6 15.9058 15.6C15.9137 15.6 15.9216 15.6 15.9294 15.6C15.9373 15.6 15.9452 15.6 15.953 15.6C15.9609 15.6 15.9687 15.6 15.9765 15.6C15.9844 15.6 15.9922 15.6 16 15.6V14.4ZM3.6 15V14H2.4V15H3.6ZM12 14.6H16V13.4H12V14.6ZM12.6 14V9H11.4V14H12.6ZM3 14.6H6V13.4H3V14.6ZM6 14.6H12V13.4H6V14.6ZM6.6 14V9H5.4V14H6.6ZM2 9.6H16V8.4H2V9.6Z" fill="#555770"/>
</svg>
