<svg width="24" height="24" viewBox="0 0 24 24" fill="none" xmlns="http://www.w3.org/2000/svg">
<path d="M12.6458 3L12.6458 2.4H12.6458V3ZM7.35418 3L7.35418 2.4L7.35418 2.4L7.35418 3ZM16.5 13.3969L15.9431 13.6202L15.9431 13.6202L16.5 13.3969ZM16.4 16C16.4 19.5346 13.5346 22.4 10 22.4V23.6C14.1974 23.6 17.6 20.1974 17.6 16H16.4ZM10 22.4C6.46538 22.4 3.6 19.5346 3.6 16H2.4C2.4 20.1974 5.80264 23.6 10 23.6V22.4ZM7.05449 7.69956C6.76556 7.20008 6.6 6.62028 6.6 6H5.4C5.4 6.83686 5.62402 7.62323 6.01577 8.30044L7.05449 7.69956ZM6.53513 7.4H5.6V8.6H6.53513V7.4ZM4.9 8.1V9.9H6.1V8.1H4.9ZM3.6 16C3.6 13.6726 4.84192 11.6348 6.70208 10.5139L6.08275 9.48608C3.87724 10.815 2.4 13.2347 2.4 16H3.6ZM5.6 10.6H6.39241V9.4H5.6V10.6ZM13.4 6C13.4 6.62028 13.2344 7.20008 12.9455 7.69956L13.9842 8.30044C14.376 7.62323 14.6 6.83686 14.6 6H13.4ZM6.53513 8.6H13.4649V7.4H6.53513V8.6ZM13.4649 8.6H14.4V7.4H13.4649V8.6ZM13.9 8.1V9.9H15.1V8.1H13.9ZM14.4 9.4H13.6076V10.6H14.4V9.4ZM9.5 9.4H6.39241V10.6H9.5V9.4ZM8.9 10V15.9H10.1V10H8.9ZM9.6 16.6H11.9V15.4H9.6V16.6ZM13.6076 9.4H12V10.6H13.6076V9.4ZM12 9.4H9.5V10.6H12V9.4ZM12.6 15.9V10H11.4V15.9H12.6ZM8.1 3V1.1H6.9V3H8.1ZM7.6 1.6H12.4V0.4H7.6V1.6ZM7.5 3.6H12.5V2.4H7.5V3.6ZM11.9 1.1V3H13.1V1.1H11.9ZM12.5 3.6H12.6458V2.4H12.5V3.6ZM12.6458 3.6L15 3.6L15 2.4L12.6458 2.4L12.6458 3.6ZM12.2488 3.44984C12.9556 4.07372 13.4 4.9846 13.4 6H14.6C14.6 4.62602 13.9969 3.39216 13.0429 2.55016L12.2488 3.44984ZM5 3.6L7.35418 3.6L7.35418 2.4L5 2.4L5 3.6ZM7.35418 3.6H7.5V2.4H7.35418V3.6ZM6.6 6C6.6 4.9846 7.04436 4.07372 7.75122 3.44984L6.95714 2.55016C6.00315 3.39216 5.4 4.62602 5.4 6H6.6ZM13.2979 10.5139C14.4856 11.2296 15.4219 12.32 15.9431 13.6202L17.0569 13.1737C16.4376 11.6286 15.3264 10.3352 13.9173 9.48608L13.2979 10.5139ZM15.9431 13.6202C16.2376 14.355 16.4 15.1578 16.4 16H17.6C17.6 15.0023 17.4074 14.0481 17.0569 13.1737L15.9431 13.6202ZM16.9193 13.8261L21.4193 9.42915L20.5807 8.57085L16.0807 12.9678L16.9193 13.8261ZM21.6 9V5H20.4V9H21.6ZM21 9.6H23.5V8.4H21V9.6ZM12.4 1.6C12.1239 1.6 11.9 1.37614 11.9 1.1H13.1C13.1 0.713401 12.7866 0.4 12.4 0.4V1.6ZM8.1 1.1C8.1 1.37614 7.87614 1.6 7.6 1.6V0.4C7.2134 0.4 6.9 0.713401 6.9 1.1H8.1ZM11.9 16.6C12.2866 16.6 12.6 16.2866 12.6 15.9H11.4C11.4 15.6239 11.6239 15.4 11.9 15.4V16.6ZM8.9 15.9C8.9 16.2866 9.2134 16.6 9.6 16.6V15.4C9.87614 15.4 10.1 15.6239 10.1 15.9H8.9ZM13.9 9.9C13.9 9.62386 14.1239 9.4 14.4 9.4V10.6C14.7866 10.6 15.1 10.2866 15.1 9.9H13.9ZM4.9 9.9C4.9 10.2866 5.2134 10.6 5.6 10.6V9.4C5.87614 9.4 6.1 9.62386 6.1 9.9H4.9ZM14.4 8.6C14.1239 8.6 13.9 8.37614 13.9 8.1H15.1C15.1 7.7134 14.7866 7.4 14.4 7.4V8.6ZM5.6 7.4C5.2134 7.4 4.9 7.7134 4.9 8.1H6.1C6.1 8.37614 5.87614 8.6 5.6 8.6V7.4Z" fill="#555770"/>
</svg>
