<svg width="24" height="24" viewBox="0 0 24 24" fill="none" xmlns="http://www.w3.org/2000/svg">
<path d="M14.5626 9.93519L14.9867 9.51078L14.5626 9.93519ZM15.7123 20.8637L15.2772 21.2769L15.7123 20.8637ZM20.7574 15.604L20.3603 16.0538L20.3603 16.0538L20.7574 15.604ZM8.401 3.23222L8.84914 2.83326L8.84914 2.83326L8.401 3.23222ZM3.14025 8.30032L2.72739 8.73569L2.72739 8.73569L3.14025 8.30032ZM16.1474 20.4505C14.1308 18.3272 11.4222 15.4917 9.96051 14.031L9.11229 14.8799C10.5607 16.3272 13.2579 19.1507 15.2772 21.2769L16.1474 20.4505ZM9.96051 14.031C8.50133 12.5729 5.6741 9.87629 3.55311 7.86495L2.72739 8.73569C4.85127 10.7498 7.66637 13.435 9.11229 14.8799L9.96051 14.031ZM7.95286 3.63118C9.96401 5.89026 12.6706 8.8928 14.1385 10.3596L14.9867 9.51078C13.5486 8.07371 10.8668 5.09965 8.84914 2.83326L7.95286 3.63118ZM14.1385 10.3596C15.5598 11.7799 18.2651 14.2041 20.3603 16.0538L21.1545 15.1543C19.0534 13.2992 16.3771 10.9001 14.9867 9.51078L14.1385 10.3596ZM20.5091 20.5101C19.2986 21.7198 17.3269 21.6925 16.1474 20.4505L15.2772 21.2769C16.9203 23.007 19.6684 23.0466 21.3573 21.359L20.5091 20.5101ZM21.3573 21.359C23.0966 19.621 22.9929 16.7773 21.1545 15.1543L20.3603 16.0538C21.6848 17.2231 21.7541 19.2661 20.5091 20.5101L21.3573 21.359ZM3.49319 3.4935C4.73832 2.24929 6.77948 2.31315 7.95286 3.63118L8.84914 2.83326C7.22003 1.00331 4.38131 0.909599 2.64497 2.64466L3.49319 3.4935ZM2.64497 2.64466C0.951864 4.33653 0.991765 7.08979 2.72739 8.73569L3.55311 7.86495C2.30636 6.68266 2.27898 4.70682 3.49319 3.4935L2.64497 2.64466Z" fill="#555770"/>
<path d="M8.9 8.25V9.75H10.1V8.25H8.9ZM8.6 9.75V8.25H7.4V9.75H8.6ZM8.75 9.9C8.66716 9.9 8.6 9.83284 8.6 9.75H7.4C7.4 10.4956 8.00442 11.1 8.75 11.1V9.9ZM8.9 9.75C8.9 9.83284 8.83284 9.9 8.75 9.9V11.1C9.49558 11.1 10.1 10.4956 10.1 9.75H8.9ZM8.75 8.1C8.83284 8.1 8.9 8.16716 8.9 8.25H10.1C10.1 7.50442 9.49558 6.9 8.75 6.9V8.1ZM8.75 6.9C8.00442 6.9 7.4 7.50442 7.4 8.25H8.6C8.6 8.16716 8.66716 8.1 8.75 8.1V6.9ZM14.9 14.25V15.75H16.1V14.25H14.9ZM14.6 15.75V14.25H13.4V15.75H14.6ZM14.75 15.9C14.6672 15.9 14.6 15.8328 14.6 15.75H13.4C13.4 16.4956 14.0044 17.1 14.75 17.1V15.9ZM14.9 15.75C14.9 15.8328 14.8328 15.9 14.75 15.9V17.1C15.4956 17.1 16.1 16.4956 16.1 15.75H14.9ZM14.75 14.1C14.8328 14.1 14.9 14.1672 14.9 14.25H16.1C16.1 13.5044 15.4956 12.9 14.75 12.9V14.1ZM14.75 12.9C14.0044 12.9 13.4 13.5044 13.4 14.25H14.6C14.6 14.1672 14.6672 14.1 14.75 14.1V12.9Z" fill="#555770"/>
</svg>
