<svg width="24" height="24" viewBox="0 0 24 24" fill="none" xmlns="http://www.w3.org/2000/svg">
<path d="M4 16.6H20V15.4H4V16.6ZM20.4 17V20H21.6V17H20.4ZM20 20.4H4V21.6H20V20.4ZM3.6 20V17H2.4V20H3.6ZM4 20.4C3.77909 20.4 3.6 20.2209 3.6 20H2.4C2.4 20.8837 3.11635 21.6 4 21.6V20.4ZM20.4 20C20.4 20.2209 20.2209 20.4 20 20.4V21.6C20.8837 21.6 21.6 20.8837 21.6 20H20.4ZM20 16.6C20.2209 16.6 20.4 16.7791 20.4 17H21.6C21.6 16.1163 20.8837 15.4 20 15.4V16.6ZM4 15.4C3.11634 15.4 2.4 16.1163 2.4 17H3.6C3.6 16.7791 3.77909 16.6 4 16.6V15.4ZM4.6 16C4.6 11.9131 7.91309 8.6 12 8.6V7.4C7.25035 7.4 3.4 11.2504 3.4 16H4.6ZM12 8.6C16.0869 8.6 19.4 11.9131 19.4 16H20.6C20.6 11.2504 16.7496 7.4 12 7.4V8.6ZM13.4 6C13.4 6.7732 12.7732 7.4 12 7.4V8.6C13.4359 8.6 14.6 7.43594 14.6 6H13.4ZM12 7.4C11.2268 7.4 10.6 6.7732 10.6 6H9.4C9.4 7.43594 10.5641 8.6 12 8.6V7.4ZM10.6 6C10.6 5.2268 11.2268 4.6 12 4.6V3.4C10.5641 3.4 9.4 4.56406 9.4 6H10.6ZM12 4.6C12.7732 4.6 13.4 5.2268 13.4 6H14.6C14.6 4.56406 13.4359 3.4 12 3.4V4.6Z" fill="#555770"/>
</svg>
