<svg width="24" height="24" viewBox="0 0 24 24" fill="none" xmlns="http://www.w3.org/2000/svg">
<path d="M3 10L5 10L6.15003 12M6.15003 12H20.85C20.532 13.5665 19.7258 14.9557 18.5971 16.0018M6.15003 12C6.46801 13.5665 7.27422 14.9557 8.40293 16.0018M8.40293 16.0018C7.0672 16.0528 6 17.1518 6 18.5C6 19.8807 7.11929 21 8.5 21C9.88071 21 11 19.8807 11 18.5C11 18.1427 10.925 17.8029 10.79 17.4954M8.40293 16.0018C8.43513 16.0006 8.46749 16 8.5 16C9.52339 16 10.4032 16.6149 10.79 17.4954M10.79 17.4954C11.6305 17.8213 12.5444 18 13.5 18C14.4556 18 15.3695 17.8213 16.21 17.4954M18.5971 16.0018C18.5649 16.0006 18.5325 16 18.5 16C17.4766 16 16.5968 16.6149 16.21 17.4954M18.5971 16.0018C19.9328 16.0528 21 17.1518 21 18.5C21 19.8807 19.8807 21 18.5 21C17.1193 21 16 19.8807 16 18.5C16 18.1427 16.075 17.8029 16.21 17.4954M15 3.15002V9H20.85C20.2534 6.0613 17.9387 3.74655 15 3.15002Z" stroke="#28293D" stroke-width="1.2"/>
</svg>
