<svg width="24" height="24" viewBox="0 0 24 24" fill="none" xmlns="http://www.w3.org/2000/svg">
<path d="M14.5758 4.42429C14.9014 4.7499 15.006 5.21282 14.8896 5.62664L13.3735 4.11052C13.7873 3.9941 14.2502 4.09869 14.5758 4.42429Z" stroke="#28293D" stroke-width="1.2"/>
<path d="M3 14V13.4H2.4V14H3ZM21 14H21.6V13.4H21V14ZM15.5858 3.4142L16.0101 3.83846L15.5858 3.4142ZM9 12.25L9.52095 11.9523L9 12.25ZM20.4 14V19H21.6V14H20.4ZM3.6 19V14H2.4V19H3.6ZM5 19.4H4V20.6H5V19.4ZM4.4 20V20.9H5.6V20H4.4ZM5.1 21.6H18.9V20.4H5.1V21.6ZM20 19.4H19V20.6H20V19.4ZM19 19.4H5V20.6H19V19.4ZM19.6 20.9V20H18.4V20.9H19.6ZM19 14.6H21V13.4H19V14.6ZM19.6 14V4.82841H18.4V14H19.6ZM15.1615 2.98993L14.0757 4.07572L14.9243 4.92425L16.0101 3.83846L15.1615 2.98993ZM19.6 4.82841C19.6 2.51206 16.7994 1.35202 15.1615 2.98993L16.0101 3.83846C16.892 2.95651 18.4 3.58114 18.4 4.82841H19.6ZM18.9 21.6C19.2866 21.6 19.6 21.2866 19.6 20.9H18.4C18.4 20.6238 18.6239 20.4 18.9 20.4V21.6ZM4.4 20.9C4.4 21.2866 4.7134 21.6 5.1 21.6V20.4C5.37615 20.4 5.6 20.6238 5.6 20.9H4.4ZM2.4 19C2.4 19.8836 3.11634 20.6 4 20.6V19.4C3.77909 19.4 3.6 19.2209 3.6 19H2.4ZM20.4 19C20.4 19.2209 20.2209 19.4 20 19.4V20.6C20.8837 20.6 21.6 19.8836 21.6 19H20.4ZM3 14.6H19V13.4H3V14.6ZM7.9 6.74998C7.9 7.38511 7.38513 7.89998 6.75 7.89998V9.09998C8.04787 9.09998 9.1 8.04785 9.1 6.74998H7.9ZM6.75 7.89998C6.11487 7.89998 5.6 7.38511 5.6 6.74998H4.4C4.4 8.04785 5.45213 9.09998 6.75 9.09998V7.89998ZM5.6 6.74998C5.6 6.11486 6.11487 5.59998 6.75 5.59998V4.39998C5.45213 4.39998 4.4 5.45212 4.4 6.74998H5.6ZM6.75 5.59998C7.38513 5.59998 7.9 6.11486 7.9 6.74998H9.1C9.1 5.45212 8.04787 4.39998 6.75 4.39998V5.59998ZM5.6 12.25C5.6 11.6149 6.11487 11.1 6.75 11.1V9.89998C5.45213 9.89998 4.4 10.9521 4.4 12.25H5.6ZM6.75 11.1C7.04313 11.1 7.34654 11.2316 7.65732 11.5006C7.96883 11.7701 8.24994 12.1467 8.47905 12.5477L9.52095 11.9523C9.25006 11.4782 8.88941 10.9798 8.44255 10.5931C7.99495 10.2058 7.42337 9.89998 6.75 9.89998V11.1ZM8.47905 12.5477C8.74225 13.0083 9.0747 13.4997 9.46925 13.8833C9.85717 14.2605 10.375 14.6 11 14.6V13.4C10.825 13.4 10.5928 13.302 10.3057 13.0229C10.0253 12.7503 9.75775 12.3667 9.52095 11.9523L8.47905 12.5477ZM4.4 12.25V14H5.6V12.25H4.4Z" fill="#28293D"/>
</svg>
