<svg width="24" height="24" viewBox="0 0 24 24" fill="none" xmlns="http://www.w3.org/2000/svg">
<path d="M12 8V7.4H11.4V8H12ZM1.4 5V16H2.6V5H1.4ZM1.4 16V20H2.6V16H1.4ZM21.4 16V20H22.6V16H21.4ZM22.6 16V11H21.4V16H22.6ZM19 7.4H12V8.6H19V7.4ZM2 16.6H12V15.4H2V16.6ZM12 16.6H22V15.4H12V16.6ZM11.4 8V16H12.6V8H11.4ZM9.6 11C9.6 9.56406 8.43594 8.4 7 8.4V9.6C7.7732 9.6 8.4 10.2268 8.4 11H9.6ZM7 13.6C8.43594 13.6 9.6 12.4359 9.6 11H8.4C8.4 11.7732 7.7732 12.4 7 12.4V13.6ZM4.4 11C4.4 12.4359 5.56406 13.6 7 13.6V12.4C6.2268 12.4 5.6 11.7732 5.6 11H4.4ZM5.6 11C5.6 10.2268 6.2268 9.6 7 9.6V8.4C5.56406 8.4 4.4 9.56406 4.4 11H5.6ZM22.6 11C22.6 9.01178 20.9882 7.4 19 7.4V8.6C20.3255 8.6 21.4 9.67452 21.4 11H22.6Z" fill="#28293D"/>
</svg>
