<svg width="24" height="24" viewBox="0 0 24 24" fill="none" xmlns="http://www.w3.org/2000/svg">
<path d="M3.18772 14.9721L2.96778 14.4139L2.9558 14.4186L2.94404 14.4238L3.18772 14.9721ZM2 18H1.4V18.6H2V18ZM20.8123 14.9721L21.056 14.4238L21.0442 14.4186L21.0322 14.4139L20.8123 14.9721ZM22 18V18.6H22.6V18H22ZM11.041 9.25553L10.7529 9.78183L11.041 9.25553ZM11.7801 10.9418L2.96778 14.4139L3.40767 15.5304L12.2199 12.0582L11.7801 10.9418ZM1.4 16.7997V18H2.6V16.7997H1.4ZM12.6 11.5V10.5H11.4V11.5H12.6ZM2.94404 14.4238C2.00511 14.8411 1.4 15.7723 1.4 16.7997H2.6C2.6 16.2465 2.92583 15.7451 3.43141 15.5204L2.94404 14.4238ZM11.7801 12.0582L20.5923 15.5304L21.0322 14.4139L12.2199 10.9418L11.7801 12.0582ZM21.4 16.7997V18H22.6V16.7997H21.4ZM20.5686 15.5204C21.0742 15.7451 21.4 16.2465 21.4 16.7997H22.6C22.6 15.7723 21.9949 14.8411 21.056 14.4238L20.5686 15.5204ZM2 18.6H22V17.4H2V18.6ZM11.3291 8.72923C10.8933 8.49067 10.6 8.02916 10.6 7.5H9.4C9.4 8.48503 9.948 9.3412 10.7529 9.78183L11.3291 8.72923ZM10.6 7.5C10.6 6.7268 11.2268 6.1 12 6.1V4.9C10.5641 4.9 9.4 6.06406 9.4 7.5H10.6ZM12 6.1C12.7732 6.1 13.4 6.7268 13.4 7.5H14.6C14.6 6.06406 13.4359 4.9 12 4.9V6.1ZM12.6 10.5C12.6 10.0413 12.4009 9.66315 12.1576 9.3795C11.917 9.09891 11.6122 8.88417 11.3291 8.72923L10.7529 9.78183C10.9543 9.89208 11.129 10.0234 11.2467 10.1607C11.3618 10.2949 11.4 10.4064 11.4 10.5H12.6Z" fill="#28293D"/>
</svg>
