<svg width="24" height="24" viewBox="0 0 24 24" fill="none" xmlns="http://www.w3.org/2000/svg">
<mask id="path-1-inside-1_402_12887" fill="white">
<path d="M4 19L3.5 16H5.5L5 19H4Z"/>
<path d="M19 19L18.5 16H20.5L20 19H19Z"/>
</mask>
<path d="M3.5 16V14.8H2.08345L2.31633 16.1973L3.5 16ZM4 19L2.81633 19.1973L2.98345 20.2H4V19ZM5 19V20.2H6.01655L6.18367 19.1973L5 19ZM5.5 16L6.68367 16.1973L6.91655 14.8H5.5V16ZM18.5 16V14.8H17.0834L17.3163 16.1973L18.5 16ZM19 19L17.8163 19.1973L17.9834 20.2H19V19ZM20 19V20.2H21.0166L21.1837 19.1973L20 19ZM20.5 16L21.6837 16.1973L21.9166 14.8H20.5V16ZM2.31633 16.1973L2.81633 19.1973L5.18367 18.8027L4.68367 15.8027L2.31633 16.1973ZM4 20.2H5V17.8H4V20.2ZM6.18367 19.1973L6.68367 16.1973L4.31633 15.8027L3.81633 18.8027L6.18367 19.1973ZM5.5 14.8H3.5V17.2H5.5V14.8ZM17.3163 16.1973L17.8163 19.1973L20.1837 18.8027L19.6837 15.8027L17.3163 16.1973ZM19 20.2H20V17.8H19V20.2ZM21.1837 19.1973L21.6837 16.1973L19.3163 15.8027L18.8163 18.8027L21.1837 19.1973ZM20.5 14.8H18.5V17.2H20.5V14.8Z" fill="#28293D" mask="url(#path-1-inside-1_402_12887)"/>
<path d="M3 16H2.4V16.6H3V16ZM21 16V16.6H21.6V16H21ZM3 16.6H21V15.4H3V16.6ZM21.6 16V12H20.4V16H21.6ZM2.4 12V16H3.6V12H2.4ZM5 10.4H4V11.6H5V10.4ZM5.6 11V7H4.4V11H5.6ZM6 6.6H12V5.4H6V6.6ZM12 10.4H5V11.6H12V10.4ZM11.4 6V11H12.6V6H11.4ZM20 10.4H19V11.6H20V10.4ZM19 10.4H12V11.6H19V10.4ZM19.6 11V7H18.4V11H19.6ZM18 5.4H12V6.6H18V5.4ZM19.6 7C19.6 6.11634 18.8837 5.4 18 5.4V6.6C18.2209 6.6 18.4 6.77909 18.4 7H19.6ZM5.6 7C5.6 6.77909 5.77909 6.6 6 6.6V5.4C5.11634 5.4 4.4 6.11634 4.4 7H5.6ZM3.6 12C3.6 11.7791 3.77909 11.6 4 11.6V10.4C3.11634 10.4 2.4 11.1163 2.4 12H3.6ZM21.6 12C21.6 11.1163 20.8837 10.4 20 10.4V11.6C20.2209 11.6 20.4 11.7791 20.4 12H21.6Z" fill="#28293D"/>
</svg>
