<svg width="24" height="24" viewBox="0 0 24 24" fill="none" xmlns="http://www.w3.org/2000/svg">
<path d="M3.99928 20H3.39928V20.6H3.99928V20ZM13.9921 20V20.6H14.5921V20H13.9921ZM5.82239 8.92547L5.29427 9.21023L5.82239 8.92547ZM5.28436 10.8851L4.97202 10.3728L5.28436 10.8851ZM15.2819 8.11487L14.7028 7.95798L15.2819 8.11487ZM13.4461 9.16319L13.2924 9.74317L13.4461 9.16319ZM12.3862 7.34744L11.8071 7.19055L12.3862 7.34744ZM14.222 6.29911L14.3757 5.71914L14.222 6.29911ZM20.5348 4L20.6885 3.42002L20.4508 3.35703L20.2372 3.47897L20.5348 4ZM21.5 4.25581L22.0791 4.4127L22.2369 3.83039L21.6537 3.67583L21.5 4.25581ZM17.7509 14.2762L17.2327 14.5787L17.3576 14.7927L17.5972 14.8562L17.7509 14.2762ZM18.7161 14.532L18.5624 15.112L19.1392 15.2649L19.2952 14.6889L18.7161 14.532ZM12.3373 7.64537L12.9363 7.68109L12.3373 7.64537ZM3.99928 20.6H13.9921V19.4H3.99928V20.6ZM14.5921 20V19.1105H13.3921V20H14.5921ZM3.39928 19.1105V20H4.59928V19.1105H3.39928ZM4.09921 18.4116C3.71888 18.4116 3.39928 18.7183 3.39928 19.1105H4.59928C4.59928 19.3934 4.36916 19.6116 4.09921 19.6116V18.4116ZM14.5921 19.1105C14.5921 18.7183 14.2725 18.4116 13.8922 18.4116V19.6116C13.6222 19.6116 13.3921 19.3934 13.3921 19.1105H14.5921ZM4.49892 10.5047C3.99623 10.5047 3.6 10.1033 3.6 9.62211H2.4C2.4 10.7785 3.34595 11.7047 4.49892 11.7047V10.5047ZM3.6 9.62211C3.6 9.14089 3.99623 8.73956 4.49892 8.73956V7.53956C3.34595 7.53956 2.4 8.46576 2.4 9.62211H3.6ZM4.49892 8.73956C4.84525 8.73956 5.1438 8.93116 5.29427 9.21023L6.35052 8.64072C5.9967 7.98451 5.29908 7.53956 4.49892 7.53956V8.73956ZM5.29427 9.21023C5.36035 9.33278 5.39785 9.47237 5.39785 9.62211H6.59785C6.59785 9.26824 6.5084 8.93354 6.35052 8.64072L5.29427 9.21023ZM5.39785 9.62211C5.39785 9.93616 5.23077 10.215 4.97202 10.3728L5.5967 11.3974C6.19418 11.0331 6.59785 10.3759 6.59785 9.62211H5.39785ZM4.97202 10.3728C4.8353 10.4561 4.67396 10.5047 4.49892 10.5047V11.7047C4.89989 11.7047 5.27661 11.5925 5.5967 11.3974L4.97202 10.3728ZM13.8922 18.4116H7.99641V19.6116H13.8922V18.4116ZM7.99641 18.4116H4.09921V19.6116H7.99641V18.4116ZM4.71521 11.075L7.42727 19.2016L8.56555 18.8217L5.8535 10.6951L4.71521 11.075ZM12.9653 7.50433C13.0919 7.03717 13.5826 6.75036 14.0683 6.87909L14.3757 5.71914C13.2622 5.42403 12.109 6.07592 11.8071 7.19055L12.9653 7.50433ZM14.0683 6.87909C14.3271 6.94769 14.5269 7.11905 14.6376 7.33564L15.7061 6.7893C15.4453 6.27943 14.9745 5.87783 14.3757 5.71914L14.0683 6.87909ZM14.6376 7.33564C14.7331 7.52236 14.7616 7.7409 14.7028 7.95798L15.861 8.27176C16.0009 7.75529 15.9318 7.23081 15.7061 6.7893L14.6376 7.33564ZM15.4694 7.5835L20.8323 4.52103L20.2372 3.47897L14.8743 6.54144L15.4694 7.5835ZM20.3811 4.57998L21.3463 4.83579L21.6537 3.67583L20.6885 3.42002L20.3811 4.57998ZM14.7028 7.95798C14.6439 8.17524 14.5082 8.35205 14.3288 8.46799L14.9803 9.47572C15.3968 9.20646 15.7212 8.78804 15.861 8.27176L14.7028 7.95798ZM14.3288 8.46799C14.1207 8.60252 13.8589 8.65188 13.5998 8.58321L13.2924 9.74317C13.8909 9.90179 14.4995 9.78661 14.9803 9.47572L14.3288 8.46799ZM14.1364 9.27433L17.2327 14.5787L18.269 13.9737L15.1728 8.66938L14.1364 9.27433ZM17.5972 14.8562L18.5624 15.112L18.8698 13.952L17.9046 13.6962L17.5972 14.8562ZM19.2952 14.6889L22.0791 4.4127L20.9209 4.09892L18.137 14.3751L19.2952 14.6889ZM19.9556 3.84311L17.1717 14.1193L18.33 14.4331L21.1139 4.15689L19.9556 3.84311ZM13.5998 8.58321C13.178 8.47143 12.9122 8.08522 12.9363 7.68109L11.7384 7.60965C11.6805 8.58104 12.3159 9.48437 13.2924 9.74317L13.5998 8.58321ZM12.9363 7.68109C12.9397 7.62301 12.9492 7.5639 12.9653 7.50433L11.8071 7.19055C11.7694 7.32973 11.7467 7.47006 11.7384 7.60965L12.9363 7.68109ZM12.2217 7.05663L5.70671 8.33673L5.93808 9.51422L12.453 8.23411L12.2217 7.05663Z" fill="#28293D"/>
</svg>
