<svg width="24" height="24" viewBox="0 0 24 24" fill="none" xmlns="http://www.w3.org/2000/svg">
<path d="M14 10.5351L14.3004 10.0158L14 10.5351ZM8.53513 16L8.01576 16.3004L8.53513 16ZM4.4 4V20H5.6V4H4.4ZM6 21.6H18V20.4H6V21.6ZM19.6 20V4H18.4V20H19.6ZM18 2.4H6V3.6H18V2.4ZM19.6 4C19.6 3.11635 18.8837 2.4 18 2.4V3.6C18.2209 3.6 18.4 3.77909 18.4 4H19.6ZM18 21.6C18.8837 21.6 19.6 20.8837 19.6 20H18.4C18.4 20.2209 18.2209 20.4 18 20.4V21.6ZM4.4 20C4.4 20.8837 5.11634 21.6 6 21.6V20.4C5.77909 20.4 5.6 20.2209 5.6 20H4.4ZM5.6 4C5.6 3.77909 5.77909 3.6 6 3.6V2.4C5.11635 2.4 4.4 3.11634 4.4 4H5.6ZM15.4 14C15.4 15.8778 13.8778 17.4 12 17.4V18.6C14.5405 18.6 16.6 16.5405 16.6 14H15.4ZM8.6 14C8.6 12.1222 10.1222 10.6 12 10.6V9.4C9.45949 9.4 7.4 11.4595 7.4 14H8.6ZM12 10.6C12.6203 10.6 13.2001 10.7656 13.6996 11.0545L14.3004 10.0158C13.6232 9.62402 12.8369 9.4 12 9.4V10.6ZM13.6996 11.0545C14.7174 11.6433 15.4 12.7423 15.4 14H16.6C16.6 12.2966 15.6738 10.8102 14.3004 10.0158L13.6996 11.0545ZM12 17.4C10.7423 17.4 9.64327 16.7174 9.05449 15.6996L8.01576 16.3004C8.81022 17.6738 10.2966 18.6 12 18.6V17.4ZM9.05449 15.6996C8.76556 15.2001 8.6 14.6203 8.6 14H7.4C7.4 14.8369 7.62402 15.6232 8.01576 16.3004L9.05449 15.6996ZM13.5757 10.1109L8.11086 15.5757L8.95939 16.4243L14.4243 10.9594L13.5757 10.1109ZM11.5757 9.57574L7.57574 13.5757L8.42426 14.4243L12.4243 10.4243L11.5757 9.57574Z" fill="#28293D"/>
<path d="M9 6C9 6.55228 8.55228 7 8 7C7.44772 7 7 6.55228 7 6C7 5.44772 7.44772 5 8 5C8.55228 5 9 5.44772 9 6Z" fill="#28293D"/>
<path d="M12 6C12 6.55228 11.5523 7 11 7C10.4477 7 10 6.55228 10 6C10 5.44772 10.4477 5 11 5C11.5523 5 12 5.44772 12 6Z" fill="#28293D"/>
</svg>
