<svg width="24" height="24" viewBox="0 0 24 24" fill="none" xmlns="http://www.w3.org/2000/svg">
<path d="M8.6 2C8.6 1.66863 8.33137 1.4 8 1.4C7.66863 1.4 7.4 1.66863 7.4 2H8.6ZM5 14H4.4V14.2485L4.57574 14.4243L5 14ZM10 19H10.6V18.7515L10.4243 18.5757L10 19ZM10 22H9.4V22.6H10V22ZM16.6 2C16.6 1.66863 16.3314 1.4 16 1.4C15.6686 1.4 15.4 1.66863 15.4 2H16.6ZM19 14L19.4243 14.4243L19.6 14.2485V14H19ZM14 19L13.5757 18.5757L13.4 18.7515V19H14ZM14 22V22.6H14.6V22H14ZM7.4 2V8H8.6V2H7.4ZM8 7.4H6V8.6H8V7.4ZM4.4 9V14H5.6V9H4.4ZM4.57574 14.4243L9.57574 19.4243L10.4243 18.5757L5.42426 13.5757L4.57574 14.4243ZM9.4 19V22H10.6V19H9.4ZM15.4 2V8H16.6V2H15.4ZM16 8.6H18V7.4H16V8.6ZM18.4 9V14H19.6V9H18.4ZM18.5757 13.5757L13.5757 18.5757L14.4243 19.4243L19.4243 14.4243L18.5757 13.5757ZM13.4 19V22H14.6V19H13.4ZM8 8.6H16V7.4H8V8.6ZM10 22.6H14V21.4H10V22.6ZM18 8.6C18.2209 8.6 18.4 8.77909 18.4 9H19.6C19.6 8.11634 18.8837 7.4 18 7.4V8.6ZM6 7.4C5.11634 7.4 4.4 8.11634 4.4 9H5.6C5.6 8.77909 5.77909 8.6 6 8.6V7.4Z" fill="#28293D"/>
</svg>
