<svg width="24" height="24" viewBox="0 0 24 24" fill="none" xmlns="http://www.w3.org/2000/svg">
<path d="M4 8V7.4H3.4V8H4ZM20 8H20.6V7.4H20V8ZM4 8.6H20V7.4H4V8.6ZM19.4 8V19H20.6V8H19.4ZM18 20.4H6V21.6H18V20.4ZM4.6 19V8H3.4V19H4.6ZM6 20.4C5.2268 20.4 4.6 19.7732 4.6 19H3.4C3.4 20.4359 4.56406 21.6 6 21.6V20.4ZM19.4 19C19.4 19.7732 18.7732 20.4 18 20.4V21.6C19.4359 21.6 20.6 20.4359 20.6 19H19.4ZM12 4.6C13.8778 4.6 15.4 6.12223 15.4 8H16.6C16.6 5.45949 14.5405 3.4 12 3.4V4.6ZM12 3.4C9.45949 3.4 7.4 5.45949 7.4 8H8.6C8.6 6.12223 10.1222 4.6 12 4.6V3.4ZM12 15.6C14.5405 15.6 16.6 13.5405 16.6 11H15.4C15.4 12.8778 13.8778 14.4 12 14.4V15.6ZM12 14.4C10.1222 14.4 8.6 12.8778 8.6 11H7.4C7.4 13.5405 9.45949 15.6 12 15.6V14.4Z" fill="#28293D"/>
</svg>
