<svg width="24" height="24" viewBox="0 0 24 24" fill="none" xmlns="http://www.w3.org/2000/svg">
<path d="M5 15H4.4V15.6H5V15ZM19 15V15.6H19.6V15H19ZM5.6 15V12H4.4V15H5.6ZM0.4 12V17H1.6V12H0.4ZM3 19.6H21V18.4H3V19.6ZM23.6 17V12H22.4V17H23.6ZM18.4 12V15H19.6V12H18.4ZM19 14.4H5V15.6H19V14.4ZM6 5.6H18V4.4H6V5.6ZM19.4 7V10H20.6V7H19.4ZM4.6 10V7H3.4V10H4.6ZM18 5.6C18.7732 5.6 19.4 6.2268 19.4 7H20.6C20.6 5.56406 19.4359 4.4 18 4.4V5.6ZM6 4.4C4.56406 4.4 3.4 5.56406 3.4 7H4.6C4.6 6.2268 5.2268 5.6 6 5.6V4.4ZM19.6 12C19.6 11.2268 20.2268 10.6 21 10.6V9.4C19.5641 9.4 18.4 10.5641 18.4 12H19.6ZM23.6 12C23.6 10.5641 22.4359 9.4 21 9.4V10.6C21.7732 10.6 22.4 11.2268 22.4 12H23.6ZM21 19.6C22.4359 19.6 23.6 18.4359 23.6 17H22.4C22.4 17.7732 21.7732 18.4 21 18.4V19.6ZM0.4 17C0.4 18.4359 1.56406 19.6 3 19.6V18.4C2.2268 18.4 1.6 17.7732 1.6 17H0.4ZM1.6 12C1.6 11.2268 2.2268 10.6 3 10.6V9.4C1.56406 9.4 0.4 10.5641 0.4 12H1.6ZM5.6 12C5.6 10.5641 4.43594 9.4 3 9.4V10.6C3.7732 10.6 4.4 11.2268 4.4 12H5.6Z" fill="#28293D"/>
</svg>
