<svg width="24" height="24" viewBox="0 0 24 24" fill="none" xmlns="http://www.w3.org/2000/svg">
<path d="M6 12L5.73167 11.4633L4.43607 12.1111L5.81026 12.5692L6 12ZM13 19L12.4308 19.1897L12.8889 20.5639L13.5367 19.2683L13 19ZM6.58132 12.1938L6.39159 12.763L6.58132 12.1938ZM12.8062 18.4187L12.237 18.6084L12.8062 18.4187ZM3.5 15.5L3.07574 15.0757L3.5 15.5ZM6.5 18.5L6.07574 18.0757L6.5 18.5ZM3.92426 15.9243L4.92426 14.9243L4.07574 14.0757L3.07574 15.0757L3.92426 15.9243ZM21.0757 3.07574L19.5757 4.57574L20.4243 5.42426L21.9243 3.92426L21.0757 3.07574ZM19.5757 4.57574L6.07574 18.0757L6.92426 18.9243L20.4243 5.42426L19.5757 4.57574ZM19.7317 4.46334L5.73167 11.4633L6.26833 12.5367L20.2683 5.53666L19.7317 4.46334ZM19.4633 4.73167L12.4633 18.7317L13.5367 19.2683L20.5367 5.26833L19.4633 4.73167ZM12.237 18.6084L12.4308 19.1897L13.5692 18.8103L13.3754 18.2289L12.237 18.6084ZM5.81026 12.5692L6.39159 12.763L6.77106 11.6246L6.18974 11.4308L5.81026 12.5692ZM6.39159 12.763C7.68297 13.1934 8.64469 14.2829 8.91165 15.6177L10.0883 15.3823C9.73693 13.6253 8.47097 12.1912 6.77106 11.6246L6.39159 12.763ZM9.38233 16.0883C10.7171 16.3553 11.8066 17.317 12.237 18.6084L13.3754 18.2289C12.8088 16.529 11.3747 15.2631 9.61767 14.9117L9.38233 16.0883ZM3.92426 18.0757C3.33015 17.4816 3.33015 16.5184 3.92426 15.9243L3.07574 15.0757C2.01299 16.1385 2.01299 17.8615 3.07574 18.9243L3.92426 18.0757ZM3.07574 18.9243C4.13848 19.987 5.86152 19.987 6.92426 18.9243L6.07574 18.0757C5.48162 18.6698 4.51838 18.6698 3.92426 18.0757L3.07574 18.9243Z" fill="#28293D"/>
</svg>
