<svg width="24" height="24" viewBox="0 0 24 24" fill="none" xmlns="http://www.w3.org/2000/svg">
<path d="M9.38095 10.4118V15.7059M6.76191 13.0588H12M6.76191 17.656V21M6.76191 21H11.4762M6.76191 21H4.14593C3.61448 21 3.10489 20.7885 2.72965 20.4121L2.15789 19.8387M11.4762 17.656V21M11.4762 21H16.7143M9.38095 3V4.58824M9.38095 4.58824H1M9.38095 4.58824H17.7895" stroke="#3E7BFA" stroke-width="2"/>
<path d="M9.38075 7.74763C6.21032 7.74763 3.89453 10.0873 3.89453 12.9734C3.89453 15.0253 5.04603 16.8009 6.7617 17.656C7.45931 18.0037 8.2732 18.1992 9.10506 18.1992C9.93691 18.1992 10.7784 18.0037 11.476 17.656C13.1917 16.8009 14.3156 15.0253 14.3156 12.9734L21.263 10.6509L22.4949 7.35592C22.7393 6.70232 22.2561 6.0057 21.5583 6.0057H20.684L18.9472 7.74763H9.38075ZM9.38075 7.74763V5.58594" stroke="#555770" stroke-width="2"/>
</svg>
