<svg width="24" height="24" viewBox="0 0 24 24" fill="none" xmlns="http://www.w3.org/2000/svg">
<g clip-path="url(#clip0_402_16931)">
<path d="M9.4 4.11864H3.8C3.35817 4.11864 3 4.46771 3 4.8983V8.01695M9.4 4.11864H15C15.4418 4.11864 15.8 4.46771 15.8 4.8983V8.01695M9.4 4.11864V1M9.4 20.4915H13.4C14.7255 20.4915 15.8 19.4443 15.8 18.1525V8.01695M9.4 20.4915H5.4C4.07452 20.4915 3 19.4443 3 18.1525V8.01695M9.4 20.4915V24M3 8.01695H15.8" stroke="#555770" stroke-width="2"/>
<path d="M4.59961 1.00001H9.39961L15.9996 1.00001C18.761 1 20.9996 3.23858 20.9996 6.00001V24M11.7996 15.0339C11.7996 16.3257 10.7251 17.3729 9.39961 17.3729C8.07413 17.3729 6.99961 16.3257 6.99961 15.0339C6.99961 13.7421 9.39961 11.1356 9.39961 11.1356C9.39961 11.1356 11.7996 13.7421 11.7996 15.0339Z" stroke="#3E7BFA" stroke-width="2"/>
</g>
<defs>
<clipPath id="clip0_402_16931">
<rect width="24" height="24" fill="white"/>
</clipPath>
</defs>
</svg>
