<svg width="24" height="24" viewBox="0 0 24 24" fill="none" xmlns="http://www.w3.org/2000/svg">
<path d="M4.75 2C3.23122 2 2 3.1851 2 4.647C2 5.2429 2.04151 5.96661 2.74619 6.75794C3.45086 7.54926 7.5 11 7.5 11C7.5 11 11.5491 7.54926 12.2538 6.75794C12.9585 5.96661 13 5.2429 13 4.647C13 3.1851 11.7688 2 10.25 2C8.73122 2 7.5 3.1851 7.5 4.647C7.5 3.1851 6.26878 2 4.75 2Z" stroke="#3E7BFA" stroke-width="2"/>
<path d="M1 22L8.29289 14.7071C8.68342 14.3166 9.31658 14.3166 9.70711 14.7071L12.2929 17.2929C12.6834 17.6834 13.3166 17.6834 13.7071 17.2929L22 9M22 9H18M22 9V13" stroke="#555770" stroke-width="2"/>
</svg>
