<svg width="24" height="24" viewBox="0 0 24 24" fill="none" xmlns="http://www.w3.org/2000/svg">
<path fill-rule="evenodd" clip-rule="evenodd" d="M20 4C20 2.89543 19.1046 2 18 2H6C4.89543 2 4 2.89543 4 4V21C4 22.1046 4.89543 23 6 23H18C19.1046 23 20 22.1046 20 21V4ZM18 4L18 21H6L6 4L18 4ZM12 3.7515C12.415 3.7515 12.7515 3.41504 12.7515 3C12.7515 2.58496 12.415 2.2485 12 2.2485C11.585 2.2485 11.2485 2.58496 11.2485 3C11.2485 3.41504 11.585 3.7515 12 3.7515Z" fill="#555770"/>
<mask id="path-2-inside-1_402_16959" fill="white">
<path fill-rule="evenodd" clip-rule="evenodd" d="M16 2V6H8V2H10.2676C10.6134 1.4022 11.2597 1 12 1C12.7403 1 13.3866 1.4022 13.7324 2H16ZM12 3.7515C12.415 3.7515 12.7515 3.41504 12.7515 3C12.7515 2.58496 12.415 2.2485 12 2.2485C11.585 2.2485 11.2485 2.58496 11.2485 3C11.2485 3.41504 11.585 3.7515 12 3.7515Z"/>
</mask>
<path fill-rule="evenodd" clip-rule="evenodd" d="M16 2V6H8V2H10.2676C10.6134 1.4022 11.2597 1 12 1C12.7403 1 13.3866 1.4022 13.7324 2H16ZM12 3.7515C12.415 3.7515 12.7515 3.41504 12.7515 3C12.7515 2.58496 12.415 2.2485 12 2.2485C11.585 2.2485 11.2485 2.58496 11.2485 3C11.2485 3.41504 11.585 3.7515 12 3.7515Z" fill="#3E7BFA"/>
<path d="M16 6V7H17V6H16ZM16 2H17V1H16V2ZM8 6H7V7H8V6ZM8 2V1H7V2H8ZM10.2676 2V3H10.8444L11.1332 2.50073L10.2676 2ZM13.7324 2L12.8668 2.50073L13.1556 3H13.7324V2ZM17 6V2H15V6H17ZM8 7H16V5H8V7ZM7 2V6H9V2H7ZM10.2676 1H8V3H10.2676V1ZM12 0C10.8883 0 9.91916 0.605181 9.40196 1.49927L11.1332 2.50073C11.3076 2.19922 11.6311 2 12 2V0ZM14.598 1.49927C14.0808 0.605181 13.1117 0 12 0V2C12.3689 2 12.6924 2.19922 12.8668 2.50073L14.598 1.49927ZM16 1H13.7324V3H16V1ZM11.7515 3C11.7515 2.86276 11.8628 2.7515 12 2.7515V4.7515C12.9673 4.7515 13.7515 3.96733 13.7515 3H11.7515ZM12 3.2485C11.8628 3.2485 11.7515 3.13724 11.7515 3H13.7515C13.7515 2.03267 12.9673 1.2485 12 1.2485V3.2485ZM12.2485 3C12.2485 3.13724 12.1372 3.2485 12 3.2485V1.2485C11.0327 1.2485 10.2485 2.03267 10.2485 3H12.2485ZM12 2.7515C12.1372 2.7515 12.2485 2.86276 12.2485 3H10.2485C10.2485 3.96733 11.0327 4.7515 12 4.7515V2.7515Z" fill="#3E7BFA" mask="url(#path-2-inside-1_402_16959)"/>
<path d="M12 10V16M9 13H15" stroke="#3E7BFA" stroke-width="2"/>
</svg>
