<svg width="24" height="24" viewBox="0 0 24 24" fill="none" xmlns="http://www.w3.org/2000/svg">
<path d="M7 8C7 5.23858 9.23858 3 12 3C14.7614 3 17 5.23858 17 8V12V16C17 18.7614 14.7614 21 12 21C9.23858 21 7 18.7614 7 16V12V8Z" stroke="#555770" stroke-width="2"/>
<path d="M12 6C10.8954 6 10 6.89543 10 8" stroke="#3E7BFA" stroke-width="2"/>
<mask id="mask0_402_16977" style="mask-type:alpha" maskUnits="userSpaceOnUse" x="1" y="1" width="22" height="11">
<rect x="1" y="12" width="11" height="22" transform="rotate(-90 1 12)" fill="black"/>
</mask>
<g mask="url(#mask0_402_16977)">
<path d="M7 8C7 5.23858 9.23858 3 12 3C14.7614 3 17 5.23858 17 8V12V16C17 18.7614 14.7614 21 12 21C9.23858 21 7 18.7614 7 16V12V8Z" stroke="#3E7BFA" stroke-width="2"/>
</g>
</svg>
