<svg width="15" height="15" viewBox="0 0 15 15" fill="none" xmlns="http://www.w3.org/2000/svg">
<path d="M12.163 8.5061C11.9677 8.70136 11.9677 9.01795 12.163 9.21321C12.3582 9.40847 12.6748 9.40847 12.8701 9.21321L12.163 8.5061ZM12.8701 4.97057C12.6748 4.77531 12.3582 4.77531 12.163 4.97057C11.9677 5.16583 11.9677 5.48241 12.163 5.67767L12.8701 4.97057ZM12.8701 9.21321L13.2236 8.85966L12.5165 8.15255L12.163 8.5061L12.8701 9.21321ZM13.2236 5.32412L12.8701 4.97057L12.163 5.67767L12.5165 6.03123L13.2236 5.32412ZM13.2236 8.85966C14.2 7.88334 14.2 6.30043 13.2236 5.32412L12.5165 6.03123C13.1023 6.61701 13.1023 7.56676 12.5165 8.15255L13.2236 8.85966Z" fill="#3E7BFA"/>
<path d="M2.26347 5.67768C2.45873 5.48241 2.45873 5.16583 2.26347 4.97057C2.06821 4.77531 1.75163 4.77531 1.55636 4.97057L2.26347 5.67768ZM1.55636 9.21321C1.75163 9.40847 2.06821 9.40847 2.26347 9.21321C2.45873 9.01795 2.45873 8.70136 2.26347 8.5061L1.55636 9.21321ZM1.55636 4.97057L1.20281 5.32412L1.90992 6.03123L2.26347 5.67768L1.55636 4.97057ZM1.20281 8.85966L1.55636 9.21321L2.26347 8.5061L1.90992 8.15255L1.20281 8.85966ZM1.20281 5.32412C0.2265 6.30043 0.2265 7.88334 1.20281 8.85966L1.90992 8.15255C1.32413 7.56676 1.32413 6.61701 1.90992 6.03123L1.20281 5.32412Z" fill="#3E7BFA"/>
<path d="M8.62744 2.14213C8.8227 2.3374 9.13928 2.3374 9.33455 2.14213C9.52981 1.94687 9.52981 1.63029 9.33455 1.43503L8.62744 2.14213ZM5.09191 1.43503C4.89664 1.63029 4.89664 1.94687 5.09191 2.14213C5.28717 2.3374 5.60375 2.3374 5.79901 2.14213L5.09191 1.43503ZM9.33455 1.43503L8.98099 1.08147L8.27389 1.78858L8.62744 2.14213L9.33455 1.43503ZM5.44546 1.08147L5.09191 1.43503L5.79901 2.14213L6.15257 1.78858L5.44546 1.08147ZM8.98099 1.08147C8.00468 0.105162 6.42177 0.105162 5.44546 1.08147L6.15257 1.78858C6.73835 1.20279 7.6881 1.20279 8.27389 1.78858L8.98099 1.08147Z" fill="#3E7BFA"/>
<path d="M5.79901 12.0416C5.60375 11.8464 5.28717 11.8464 5.09191 12.0416C4.89664 12.2369 4.89664 12.5535 5.09191 12.7487L5.79901 12.0416ZM9.33455 12.7487C9.52981 12.5535 9.52981 12.2369 9.33455 12.0416C9.13928 11.8464 8.8227 11.8464 8.62744 12.0416L9.33455 12.7487ZM5.09191 12.7487L5.44546 13.1023L6.15257 12.3952L5.79901 12.0416L5.09191 12.7487ZM8.98099 13.1023L9.33455 12.7487L8.62744 12.0416L8.27389 12.3952L8.98099 13.1023ZM5.44546 13.1023C6.42177 14.0786 8.00468 14.0786 8.98099 13.1023L8.27389 12.3952C7.6881 12.981 6.73835 12.981 6.15257 12.3952L5.44546 13.1023Z" fill="#3E7BFA"/>
<circle cx="7.21323" cy="7.09187" r="2" transform="rotate(45 7.21323 7.09187)" stroke="#8F90A6"/>
</svg>
