<svg width="24" height="24" viewBox="0 0 24 24" fill="none" xmlns="http://www.w3.org/2000/svg">
<path d="M3 6V5H2V6H3ZM3 9H2V10H3V9ZM5 21L4.00345 21.083L4.07987 22H5V21ZM14 22H13V23H14V22ZM14.5 22V23H15.5V22H14.5ZM14.5 21.5V20.5H13.5V21.5H14.5ZM20.5 21.5H21.5V20.5H20.5V21.5ZM20.5 22H19.5V23H20.5V22ZM21 22V23H22V22H21ZM15.5 2.5V1.5H14.5V2.5H15.5ZM19.5 2.5H20.5V1.5H19.5V2.5ZM15.7676 6L16.6332 5.49927L16.6332 5.49927L15.7676 6ZM3 10H4V8H3V10ZM3.00345 9.08305L4.00345 21.083L5.99655 20.917L4.99655 8.91695L3.00345 9.08305ZM15 18C15 16.6193 16.1193 15.5 17.5 15.5V13.5C15.0147 13.5 13 15.5147 13 18H15ZM17.5 15.5C18.8807 15.5 20 16.6193 20 18H22C22 15.5147 19.9853 13.5 17.5 13.5V15.5ZM14 23H14.5V21H14V23ZM15.5 22V21.5H13.5V22H15.5ZM14.5 22.5H20.5V20.5H14.5V22.5ZM19.5 21.5V22H21.5V21.5H19.5ZM20.5 23H21V21H20.5V23ZM22 22V18H20V22H22ZM16.5 5V2.5H14.5V5H16.5ZM15.5 3.5H19.5V1.5H15.5V3.5ZM18.5 2.5V5H20.5V2.5H18.5ZM18.5 5C18.5 5.55228 18.0523 6 17.5 6V8C19.1569 8 20.5 6.65685 20.5 5H18.5ZM2 6V9H4V6H2ZM13 18V21H15V18H13ZM13 21V22H15V21H13ZM5 22H14V20H5V22ZM17.5 6C17.1311 6 16.8076 5.80078 16.6332 5.49927L14.902 6.50073C15.4192 7.39482 16.3883 8 17.5 8V6ZM16.6332 5.49927C16.5487 5.35321 16.5 5.1838 16.5 5H14.5C14.5 5.54477 14.6461 6.05845 14.902 6.50073L16.6332 5.49927ZM15.7676 5H3V7H15.7676V5ZM18.5 14.5V9H16.5V14.5H18.5ZM18.5 9V7H16.5V9H18.5ZM4 10H17.5V8H4V10Z" fill="#555770"/>
</svg>
