<svg width="24" height="24" viewBox="0 0 24 24" fill="none" xmlns="http://www.w3.org/2000/svg">
<path d="M3 7.00002L3.1163 6.00681L1.99998 5.87609L2 7.00004L3 7.00002ZM3.00003 9L2.00003 9.00002L2.00005 9.87319L2.86525 9.99088L3.00003 9ZM21 7L22 6.99997L21.9999 5.87608L20.8837 6.00679L21 7ZM21 9.01122L21.1348 10.0021L22.0001 9.8844L22 9.01118L21 9.01122ZM13.0005 16.8985L12.0006 16.8867L13.0005 16.8985ZM10.9994 16.8985L9.99942 16.9103L10.9994 16.8985ZM2 7.00004L2.00003 9.00002L4.00003 8.99998L4 7L2 7.00004ZM2.86525 9.99088C4.07318 10.1552 5.88587 10.7136 7.37843 11.8358C8.84075 12.9353 9.9716 14.549 9.99942 16.9103L11.9993 16.8867C11.9627 13.7833 10.4324 11.6298 8.58037 10.2373C6.7586 8.86748 4.60383 8.20894 3.13481 8.00912L2.86525 9.99088ZM2.8837 7.99323C3.58068 8.07485 7.43269 8.50004 11.9999 8.50004V6.50004C7.54224 6.50004 3.77593 6.08404 3.1163 6.00681L2.8837 7.99323ZM20 7.00003L20 9.01125L22 9.01118L22 6.99997L20 7.00003ZM20.8653 8.02034C19.3974 8.22001 17.2426 8.8753 15.4205 10.2423C13.5679 11.6321 12.0372 13.7831 12.0006 16.8867L14.0005 16.9103C14.0283 14.5493 15.1589 12.9388 16.6207 11.8421C18.1129 10.7226 19.9258 10.1666 21.1348 10.0021L20.8653 8.02034ZM20.8837 6.00679C20.224 6.08402 16.4575 6.50004 11.9999 6.50004V8.50004C16.5671 8.50004 20.4193 8.07483 21.1163 7.99321L20.8837 6.00679ZM11.0999 18H12.8999V16H11.0999V18ZM12.0006 16.8867C12.0061 16.4218 12.3804 16 12.8999 16V18C13.53 18 13.9937 17.4856 14.0005 16.9103L12.0006 16.8867ZM9.99942 16.9103C10.0062 17.4857 10.47 18 11.0999 18V16C11.6195 16 11.9938 16.4217 11.9993 16.8867L9.99942 16.9103Z" fill="#555770"/>
</svg>
