<svg width="24" height="24" viewBox="0 0 24 24" fill="none" xmlns="http://www.w3.org/2000/svg">
<path d="M3.88506 14.1029L4.60737 14.7945L4.65695 14.7427L4.69863 14.6843L3.88506 14.1029ZM9.56113 20.0312L8.9415 19.2463L8.88691 19.2894L8.83882 19.3396L9.56113 20.0312ZM15.639 3.24478L16.0934 2.35399L16.0934 2.35399L15.639 3.24478ZM19.8961 7.69099L20.8019 7.26738L19.8961 7.69099ZM14.2642 2.18153L14.6101 1.24325L14.6101 1.24325L14.2642 2.18153ZM20.7863 8.99342L21.7353 8.67819L21.7353 8.67819L20.7863 8.99342ZM5.81643 18.8032L6.4105 19.6076L6.4105 19.6076L5.81643 18.8032ZM8.35359 16.1546L7.54186 15.5706L8.35359 16.1546ZM7.60514 15.3554L8.21707 16.1463L7.60514 15.3554ZM5.08556 17.9868L4.27025 17.4077L5.08556 17.9868ZM8.32822 15.7793L7.60592 16.4709L7.60592 16.4709L8.32822 15.7793ZM5.52235 18.7771L6.24465 18.0855L6.24465 18.0855L5.52235 18.7771ZM5.11043 18.3468L4.38813 19.0384L4.38813 19.0384L5.11043 18.3468ZM3.17555 14.8439L3.89786 15.5355L3.89786 15.5355L3.17555 14.8439ZM7.9477 15.3819L8.67001 14.6903L8.67001 14.6903L7.9477 15.3819ZM8.85162 20.7722L8.12931 20.0806L8.12931 20.0806L8.85162 20.7722ZM20.3255 11.5333L20.9451 12.3182L20.951 12.3136L20.9568 12.3088L20.3255 11.5333ZM20.9972 10.0919L20.0003 10.1709L20.9972 10.0919ZM12.0947 2.61599L11.2933 2.0179L11.2871 2.02616L11.2812 2.03453L12.0947 2.61599ZM13.1148 2L13.0803 1.00059L13.1148 2ZM3.89786 15.5355L4.60737 14.7945L3.16275 13.4113L2.45325 14.1523L3.89786 15.5355ZM4.69863 14.6843L12.9083 3.19746L11.2812 2.03453L3.07149 13.5214L4.69863 14.6843ZM19.7058 10.7484L8.9415 19.2463L10.1808 20.8161L20.9451 12.3182L19.7058 10.7484ZM8.83882 19.3396L8.12931 20.0806L9.57392 21.4638L10.2834 20.7227L8.83882 19.3396ZM4.38813 19.0384L4.80004 19.4686L6.24465 18.0855L5.83274 17.6553L4.38813 19.0384ZM9.05053 15.0878L8.67001 14.6903L7.2254 16.0735L7.60592 16.4709L9.05053 15.0878ZM15.1846 4.13557C16.3263 4.71796 16.7061 4.60596 17.5555 5.49306L19.0001 4.10992C17.8427 2.90105 16.6988 2.66279 16.0934 2.35399L15.1846 4.13557ZM17.5555 5.49306C18.4072 6.38261 18.4756 7.01418 18.9902 8.11461L20.8019 7.26738C20.4632 6.54319 20.1552 5.31634 19.0001 4.10992L17.5555 5.49306ZM13.8311 13.9792L20.5316 8.46303L19.2605 6.91896L12.56 12.4351L13.8311 13.9792ZM14.8408 2.64239L9.55933 9.64063L11.1557 10.8454L16.4372 3.84717L14.8408 2.64239ZM13.1493 2.9994C13.3651 2.99196 13.6355 3.01555 13.9183 3.11981L14.6101 1.24325C14.0316 1.03 13.4928 0.986363 13.0803 1.00059L13.1493 2.9994ZM13.9183 3.11981C14.0741 3.17724 14.1576 3.24749 14.2966 3.39596C14.4243 3.53234 14.7231 3.90015 15.1846 4.13557L16.0934 2.35399C16.0217 2.31739 15.9997 2.2887 15.7566 2.02903C15.5247 1.78144 15.1874 1.45608 14.6101 1.24325L13.9183 3.11981ZM18.9902 8.11461C19.2078 8.57986 19.4953 8.85542 19.6364 9.00455C19.7546 9.12949 19.7952 9.18206 19.8373 9.30865L21.7353 8.67819C21.5597 8.14947 21.2929 7.84525 21.0892 7.63002C20.9085 7.43898 20.8597 7.39099 20.8019 7.26738L18.9902 8.11461ZM19.8373 9.30865C19.9289 9.58459 19.9779 9.88883 20.0003 10.1709L21.9941 10.0128C21.9635 9.62803 21.8933 9.15398 21.7353 8.67819L19.8373 9.30865ZM6.4105 19.6076C7.4086 18.8705 8.46572 17.711 9.16531 16.7386L7.54186 15.5706C6.92754 16.4244 6.01003 17.4171 5.22235 17.9988L6.4105 19.6076ZM6.99321 14.5645C5.95612 15.3669 5.03633 16.329 4.27025 17.4077L5.90086 18.5658C6.55506 17.6446 7.33853 16.8261 8.21707 16.1463L6.99321 14.5645ZM7.60592 16.4709C7.36638 16.2207 7.34512 15.844 7.54186 15.5706L9.16531 16.7386C9.52644 16.2367 9.48356 15.54 9.05053 15.0878L7.60592 16.4709ZM4.80004 19.4686C5.22287 19.9103 5.91017 19.9771 6.4105 19.6076L5.22235 17.9988C5.54059 17.7638 5.97952 17.8086 6.24465 18.0855L4.80004 19.4686ZM5.83274 17.6553C6.07747 17.9109 6.09586 18.2912 5.90086 18.5658L4.27025 17.4077C3.91927 17.9019 3.95826 18.5895 4.38813 19.0384L5.83274 17.6553ZM3.89786 20.0806C2.70071 18.8303 2.70071 16.7858 3.89786 15.5355L2.45325 14.1523C0.515584 16.1761 0.515584 19.44 2.45325 21.4638L3.89786 20.0806ZM8.67001 14.6903C8.22758 14.2283 7.50664 14.1673 6.99321 14.5645L8.21707 16.1463C7.91305 16.3816 7.48354 16.3431 7.2254 16.0735L8.67001 14.6903ZM2.45325 21.4638C4.41439 23.5121 7.61278 23.5121 9.57392 21.4638L8.12931 20.0806C6.95565 21.3064 5.07152 21.3064 3.89786 20.0806L2.45325 21.4638ZM20.9568 12.3088C21.5821 11.7998 22.0707 10.9802 21.9941 10.0128L20.0003 10.1709C20.0138 10.3412 19.9309 10.565 19.6941 10.7578L20.9568 12.3088ZM12.8962 3.21409C12.9672 3.1189 13.034 3.05969 13.0835 3.02803C13.129 2.99898 13.1488 2.99942 13.1493 2.9994L13.0803 1.00059C12.2468 1.02934 11.6461 1.54522 11.2933 2.0179L12.8962 3.21409Z" fill="#555770"/>
</svg>
