<svg width="24" height="24" viewBox="0 0 24 24" fill="none" xmlns="http://www.w3.org/2000/svg">
<path d="M2 13.7647L1.0039 13.8529L1.00632 13.8803L1.01024 13.9075L2 13.7647ZM10 13.7647L10.9916 13.8938L10.9943 13.8734L10.9961 13.8529L10 13.7647ZM1.5 8.11765H0.5V8.16183L0.503897 8.20584L1.5 8.11765ZM10.5 8.11765L11.4961 8.20584L11.5 8.16183V8.11765H10.5ZM14 17.7647L13.0039 17.8529L13.0063 17.8803L13.0102 17.9075L14 17.7647ZM22 17.7647L22.9916 17.8938L22.9943 17.8734L22.9961 17.8529L22 17.7647ZM13.5 12.1176H12.5V12.1618L12.5039 12.2058L13.5 12.1176ZM22.5 12.1176L23.4961 12.2058L23.5 12.1618V12.1176H22.5ZM6 17C5.05693 17 4.41853 16.6453 3.95792 16.0955C3.46891 15.5118 3.13823 14.6514 2.98976 13.622L1.01024 13.9075C1.19075 15.159 1.61744 16.4162 2.42486 17.3799C3.26068 18.3776 4.45779 19 6 19V17ZM9.00837 13.6356C8.86882 14.7077 8.53815 15.5585 8.05561 16.1235C7.60152 16.6553 6.96041 17 6 17V19C7.52487 19 8.7292 18.4145 9.5765 17.4223C10.3954 16.4635 10.8221 15.1966 10.9916 13.8938L9.00837 13.6356ZM6 3C7.99098 3 9.5 4.50474 9.5 6.23529H11.5C11.5 3.28767 8.97959 1 6 1V3ZM6 1C3.02041 1 0.5 3.28767 0.5 6.23529H2.5C2.5 4.50474 4.00902 3 6 3V1ZM5 2V5.76471H7V2H5ZM2.9961 13.6765L2.4961 8.02945L0.503897 8.20584L1.0039 13.8529L2.9961 13.6765ZM2.5 8.11765V6.23529H0.5V8.11765H2.5ZM5.53664 4.87853L1.03664 7.23148L1.96336 9.00382L6.46336 6.65088L5.53664 4.87853ZM9.5 6.23529V8.11765H11.5V6.23529H9.5ZM9.5039 8.02945L9.0039 13.6765L10.9961 13.8529L11.4961 8.20584L9.5039 8.02945ZM5.53664 6.65088L10.0366 9.00382L10.9634 7.23148L6.46336 4.87853L5.53664 6.65088ZM18 21C17.0569 21 16.4185 20.6453 15.9579 20.0955C15.4689 19.5118 15.1382 18.6514 14.9898 17.622L13.0102 17.9075C13.1908 19.159 13.6174 20.4162 14.4249 21.3799C15.2607 22.3776 16.4578 23 18 23V21ZM21.0084 17.6356C20.8688 18.7077 20.5381 19.5585 20.0556 20.1235C19.6015 20.6553 18.9604 21 18 21V23C19.5249 23 20.7292 22.4145 21.5765 21.4223C22.3954 20.4635 22.8221 19.1966 22.9916 17.8938L21.0084 17.6356ZM18 7C19.991 7 21.5 8.50474 21.5 10.2353H23.5C23.5 7.28767 20.9796 5 18 5V7ZM18 5C15.0204 5 12.5 7.28767 12.5 10.2353H14.5C14.5 8.50474 16.009 7 18 7V5ZM17 6V9.76471H19V6H17ZM14.9961 17.6765L14.4961 12.0295L12.5039 12.2058L13.0039 17.8529L14.9961 17.6765ZM14.5 12.1176V10.2353H12.5V12.1176H14.5ZM17.5366 8.87853L13.0366 11.2315L13.9634 13.0038L18.4634 10.6509L17.5366 8.87853ZM21.5 10.2353V12.1176H23.5V10.2353H21.5ZM21.5039 12.0295L21.0039 17.6765L22.9961 17.8529L23.4961 12.2058L21.5039 12.0295ZM17.5366 10.6509L22.0366 13.0038L22.9634 11.2315L18.4634 8.87853L17.5366 10.6509Z" fill="#555770"/>
</svg>
