<svg width="24" height="24" viewBox="0 0 24 24" fill="none" xmlns="http://www.w3.org/2000/svg">
<path d="M18 9H19V8H18V9ZM6 9V8H5V9H6ZM8 9V10H9V9H8ZM8 6V5H7V6H8ZM16 9H15V10H16V9ZM16 6H17V5H16V6ZM10.5 2V1H9.5V2H10.5ZM13.5 2H14.5V1H13.5V2ZM11.1213 12.8787V13.8787H11.5355L11.8284 13.5858L11.1213 12.8787ZM12 12L12.7071 11.2929L12 10.5858L11.2929 11.2929L12 12ZM9.87868 12.8787V11.8787H8.87868V12.8787H9.87868ZM12.8787 12.8787L12.1716 13.5858L12.4645 13.8787H12.8787V12.8787ZM14.1213 12.8787H15.1213V11.8787H14.1213V12.8787ZM14.1213 14.1213H13.1213V14.5355L13.4142 14.8284L14.1213 14.1213ZM15 15L15.7071 15.7071L16.4142 15L15.7071 14.2929L15 15ZM14.1213 15.8787L13.4142 15.1716L13.1213 15.4645V15.8787H14.1213ZM14.1213 17.1213V18.1213H15.1213V17.1213H14.1213ZM12.8787 17.1213V16.1213H12.4645L12.1716 16.4142L12.8787 17.1213ZM12 18L11.2929 18.7071L12 19.4142L12.7071 18.7071L12 18ZM11.1213 17.1213L11.8284 16.4142L11.5355 16.1213H11.1213V17.1213ZM9.87868 17.1213H8.87868V18.1213H9.87868V17.1213ZM9.87868 15.8787H10.8787V15.4645L10.5858 15.1716L9.87868 15.8787ZM9 15L8.29289 14.2929L7.58579 15L8.29289 15.7071L9 15ZM9.87868 14.1213L10.5858 14.8284L10.8787 14.5355V14.1213H9.87868ZM17 9V18H19V9H17ZM14 21H10V23H14V21ZM7 18V9H5V18H7ZM6 10H8V8H6V10ZM9 9V6H7V9H9ZM16 10H18V8H16V10ZM15 6V9H17V6H15ZM8 7H10.5V5H8V7ZM11.5 6V2H9.5V6H11.5ZM10.5 3H13.5V1H10.5V3ZM13.5 7H16V5H13.5V7ZM12.5 2V6H14.5V2H12.5ZM10 21C8.34315 21 7 19.6569 7 18H5C5 20.7614 7.23858 23 10 23V21ZM17 18C17 19.6569 15.6569 21 14 21V23C16.7614 23 19 20.7614 19 18H17ZM11.8284 13.5858L12.7071 12.7071L11.2929 11.2929L10.4142 12.1716L11.8284 13.5858ZM9.87868 13.8787H11.1213V11.8787H9.87868V13.8787ZM12.8787 13.8787H14.1213V11.8787H12.8787V13.8787ZM11.2929 12.7071L12.1716 13.5858L13.5858 12.1716L12.7071 11.2929L11.2929 12.7071ZM13.4142 14.8284L14.2929 15.7071L15.7071 14.2929L14.8284 13.4142L13.4142 14.8284ZM13.1213 12.8787V14.1213H15.1213V12.8787H13.1213ZM13.1213 15.8787V17.1213H15.1213V15.8787H13.1213ZM14.2929 14.2929L13.4142 15.1716L14.8284 16.5858L15.7071 15.7071L14.2929 14.2929ZM12.1716 16.4142L11.2929 17.2929L12.7071 18.7071L13.5858 17.8284L12.1716 16.4142ZM14.1213 16.1213H12.8787V18.1213H14.1213V16.1213ZM11.1213 16.1213H9.87868V18.1213H11.1213V16.1213ZM12.7071 17.2929L11.8284 16.4142L10.4142 17.8284L11.2929 18.7071L12.7071 17.2929ZM10.5858 15.1716L9.70711 14.2929L8.29289 15.7071L9.17157 16.5858L10.5858 15.1716ZM10.8787 17.1213V15.8787H8.87868V17.1213H10.8787ZM10.8787 14.1213V12.8787H8.87868V14.1213H10.8787ZM9.70711 15.7071L10.5858 14.8284L9.17157 13.4142L8.29289 14.2929L9.70711 15.7071ZM10.5 7H13.5V5H10.5V7Z" fill="#555770"/>
</svg>
