<svg width="24" height="24" viewBox="0 0 24 24" fill="none" xmlns="http://www.w3.org/2000/svg">
<path d="M2.60377 14.6036L1.89667 15.3107L2.60377 14.6036ZM3.10377 14.1036L2.39667 14.8107L2.39667 14.8107L3.10377 14.1036ZM7.00022 18L6.29311 18.7071L6.58601 19H7.00022V18ZM3.00024 8L2.11956 7.5263L1.32688 9H3.00024V8ZM21.0002 8V9H22.6736L21.8809 7.5263L21.0002 8ZM1.89667 15.3107L6.29311 19.7071L7.70733 18.2929L3.31088 13.8964L1.89667 15.3107ZM2.39667 14.8107L6.29311 18.7071L7.70733 17.2929L3.81088 13.3964L2.39667 14.8107ZM7.00022 19H21.5002V17H7.00022V19ZM6.29311 18.2929L2.29311 22.2929L3.70733 23.7071L7.70733 19.7071L6.29311 18.2929ZM7.00022 20H18.0002V18H7.00022V20ZM18.0002 20H21.5002V18H18.0002V20ZM17.2931 19.7071L21.2931 23.7071L22.7073 22.2929L18.7073 18.2929L17.2931 19.7071ZM2.85377 15C2.68232 15 2.5179 14.9319 2.39667 14.8107L3.81088 13.3964C3.55704 13.1426 3.21276 13 2.85377 13V15ZM21.0002 18.5C21.0002 18.2239 21.2241 18 21.5002 18V20C22.3286 20 23.0002 19.3284 23.0002 18.5H21.0002ZM21.5002 19C21.2241 19 21.0002 18.7761 21.0002 18.5H23.0002C23.0002 17.6716 22.3286 17 21.5002 17V19ZM3.31088 13.8964C3.71812 14.3037 3.4297 15 2.85377 15V13C1.64789 13 1.04398 14.458 1.89667 15.3107L3.31088 13.8964ZM3.88093 8.4737C5.3549 5.73336 8.09648 3 12.0002 3V1C7.05189 1 3.76655 4.46429 2.11956 7.5263L3.88093 8.4737ZM12.0002 3C15.904 3 18.6456 5.73337 20.1196 8.4737L21.8809 7.5263C20.2339 4.46428 16.9485 1 12.0002 1V3ZM11.0002 8V18.5H13.0002V8H11.0002ZM3.00024 9H9.00022V7H3.00024V9ZM9.00022 9H12.0002V7H9.00022V9ZM11.2931 1.29289C10.7369 1.8491 9.93246 2.81697 9.26071 3.97238C8.59724 5.11356 8.00022 6.54486 8.00022 8H10.0002C10.0002 7.05514 10.4032 5.98644 10.9897 4.97762C11.568 3.98303 12.2635 3.1509 12.7073 2.70711L11.2931 1.29289ZM12.0002 9H15.0002V7H12.0002V9ZM15.0002 9H21.0002V7H15.0002V9ZM11.241 2.65079C11.7431 3.23666 12.4413 4.05375 13.0177 5.0145C13.5986 5.98266 14.0002 7.0075 14.0002 8H16.0002C16.0002 6.4925 15.4018 5.10067 14.7327 3.9855C14.0592 2.86291 13.2573 1.93001 12.7595 1.34921L11.241 2.65079Z" fill="#555770"/>
</svg>
