<svg width="24" height="24" viewBox="0 0 24 24" fill="none" xmlns="http://www.w3.org/2000/svg">
<path d="M12 12L12.9778 11.7905C12.879 11.3294 12.4715 11 12 11C11.5285 11 11.121 11.3294 11.0222 11.7905L12 12ZM10.5 19V20H11.3084L11.4778 19.2095L10.5 19ZM2.5 19L1.52102 18.796L1.2702 20H2.5V19ZM13.5 19L12.5222 19.2095L12.6916 20H13.5V19ZM21.5 19V20H22.7298L22.479 18.796L21.5 19ZM11.0222 11.7905L9.5222 18.7905L11.4778 19.2095L12.9778 12.2095L11.0222 11.7905ZM10.5 18H2.5V20H10.5V18ZM3.47898 19.204L5.97898 7.20395L4.02102 6.79605L1.52102 18.796L3.47898 19.204ZM6 7V4.6H4V7H6ZM11.0222 12.2095L12.5222 19.2095L14.4778 18.7905L12.9778 11.7905L11.0222 12.2095ZM13.5 20H21.5V18H13.5V20ZM22.479 18.796L19.979 6.79605L18.021 7.20395L20.521 19.204L22.479 18.796ZM20 7V4.6H18V7H20ZM5.1 5.5H18.9V3.5H5.1V5.5ZM5 8H19V6H5V8ZM20 4.6C20 3.99248 19.5075 3.5 18.9 3.5V5.5C18.403 5.5 18 5.09707 18 4.6H20ZM6 4.6C6 5.09706 5.59706 5.5 5.1 5.5V3.5C4.49249 3.5 4 3.99249 4 4.6H6Z" fill="#555770"/>
</svg>
