<svg width="24" height="24" viewBox="0 0 24 24" fill="none" xmlns="http://www.w3.org/2000/svg">
<path d="M7 19H6.4V19.6H7V19ZM7 6V5.4H6.4V6H7ZM7 19.6H13.5625V18.4H7V19.6ZM6.4 12.5V19H7.6V12.5H6.4ZM13.5625 11.9H7V13.1H13.5625V11.9ZM17.6 15.75C17.6 13.5924 15.7602 11.9 13.5625 11.9V13.1C15.1618 13.1 16.4 14.3177 16.4 15.75H17.6ZM13.5625 19.6C15.7602 19.6 17.6 17.9076 17.6 15.75H16.4C16.4 17.1823 15.1618 18.4 13.5625 18.4V19.6ZM7 13.1H12.875V11.9H7V13.1ZM6.4 6V12.5H7.6V6H6.4ZM12.875 5.4H7V6.6H12.875V5.4ZM16.9125 9.25C16.9125 7.09244 15.0727 5.4 12.875 5.4V6.6C14.4743 6.6 15.7125 7.81771 15.7125 9.25H16.9125ZM12.875 13.1C15.0727 13.1 16.9125 11.4076 16.9125 9.25H15.7125C15.7125 10.6823 14.4743 11.9 12.875 11.9V13.1Z" fill="#28293D"/>
</svg>
