<svg width="24" height="24" viewBox="0 0 24 24" fill="none" xmlns="http://www.w3.org/2000/svg">
<path d="M12.2439 17L11.8144 17.419L12.2439 17.8592L12.6734 17.419L12.2439 17ZM7.36585 17L6.93638 17.419L7.36058 17.8538L7.79012 17.4243L7.36585 17ZM6.44858 11.919L11.8144 17.419L12.6734 16.581L7.30752 11.081L6.44858 11.919ZM12.6734 17.419L22.4295 7.41899L21.5705 6.58101L11.8144 16.581L12.6734 17.419ZM1.57053 11.919L6.93638 17.419L7.79532 16.581L2.42947 11.081L1.57053 11.919ZM7.79012 17.4243L8.79012 16.4243L7.94159 15.5757L6.94159 16.5757L7.79012 17.4243ZM11.672 13.5424L17.7901 7.42426L16.9416 6.57574L10.8235 12.6938L11.672 13.5424Z" fill="#28293D"/>
</svg>
