<svg width="24" height="24" viewBox="0 0 24 24" fill="none" xmlns="http://www.w3.org/2000/svg">
<path d="M6 8V7.4H5.4V8H6ZM6 12.4444H5.4V13.0444H6V12.4444ZM10.3636 12.4444L10.9221 12.6638L10.9636 12.558V12.4444H10.3636ZM10.3636 8H10.9636V7.4H10.3636V8ZM13.6364 8V7.4H13.0364V8H13.6364ZM13.6364 12.4444H13.0364V13.0444H13.6364V12.4444ZM18 12.4444L18.5585 12.6638L18.6 12.558V12.4444H18ZM18 8H18.6V7.4H18V8ZM5.4 8V12.4444H6.6V8H5.4ZM6 13.0444H10.3636V11.8444H6V13.0444ZM10.9636 12.4444V8H9.76364V12.4444H10.9636ZM10.3636 7.4H6V8.6H10.3636V7.4ZM9.80516 12.2251L7.62334 17.7807L8.74029 18.2193L10.9221 12.6638L9.80516 12.2251ZM13.0364 8V12.4444H14.2364V8H13.0364ZM13.6364 13.0444H18V11.8444H13.6364V13.0444ZM18.6 12.4444V8H17.4V12.4444H18.6ZM18 7.4H13.6364V8.6H18V7.4ZM17.4415 12.2251L15.2597 17.7807L16.3767 18.2193L18.5585 12.6638L17.4415 12.2251Z" fill="#28293D"/>
</svg>
