<svg width="24" height="24" viewBox="0 0 24 24" fill="none" xmlns="http://www.w3.org/2000/svg">
<mask id="mask0_402_13884" style="mask-type:alpha" maskUnits="userSpaceOnUse" x="3" y="3" width="18" height="18">
<path d="M3 3H5V20.5H3V3Z" fill="white"/>
<path d="M3 20.5H5V21H3V20.5Z" fill="white"/>
<path d="M11.4062 15H12.5977V17H11.4062V15Z" fill="white"/>
<path d="M19 15H21V17H19V15Z" fill="white"/>
<path d="M7 11H9V13H7V11Z" fill="white"/>
<path d="M11.4062 11H12.5977V13H11.4062V11Z" fill="white"/>
<path d="M15 11H17V13H15V11Z" fill="white"/>
<path d="M19 11.3984H21V12.5977H19V11.3984Z" fill="white"/>
<path d="M11.4062 7H12.5977V9H11.4062V7Z" fill="white"/>
<path d="M19 7H21V9H19V7Z" fill="white"/>
<path d="M7 3H9V5H7V3Z" fill="white"/>
<path d="M7 19H9V21H7V19Z" fill="white"/>
<path d="M11.4062 3H12.5977V5H11.4062V3Z" fill="white"/>
<path d="M11.4062 19H12.5977V21H11.4062V19Z" fill="white"/>
<path d="M15 3H17V5H15V3Z" fill="white"/>
<path d="M15 19H17V21H15V19Z" fill="white"/>
<path d="M19 3H21V5H19V3Z" fill="white"/>
<path d="M19 19H21V21H19V19Z" fill="white"/>
</mask>
<g mask="url(#mask0_402_13884)">
<path d="M20.4 11.4H12.6V3.6H20.4V11.4ZM11.4 3.6V11.4H3.6V3.6H11.4ZM3.6 12.6H11.4V20.4H3.6V12.6ZM12.6 12.6H20.4V20.4H12.6V12.6Z" stroke="#28293D" stroke-width="1.2"/>
</g>
</svg>
