<svg width="24" height="24" viewBox="0 0 24 24" fill="none" xmlns="http://www.w3.org/2000/svg">
<mask id="mask0_402_13875" style="mask-type:alpha" maskUnits="userSpaceOnUse" x="3" y="3" width="18" height="18">
<path d="M3 21L3 19L20.5 19L20.5 21L3 21Z" fill="white"/>
<path d="M20.5 21L20.5 19L21 19L21 21L20.5 21Z" fill="white"/>
<path d="M15 13L15 11L17 11L17 13L15 13Z" fill="white"/>
<path d="M15 5L15 3L17 3L17 5L15 5Z" fill="white"/>
<path d="M11.4023 17L11.4023 15L12.5937 15L12.5937 17L11.4023 17Z" fill="white"/>
<path d="M11.4023 13L11.4023 11L12.5937 11L12.5937 13L11.4023 13Z" fill="white"/>
<path d="M11.4023 9L11.4023 7L12.5937 7L12.5937 9L11.4023 9Z" fill="white"/>
<path d="M11.4023 5L11.4023 3L12.5937 3L12.5937 5L11.4023 5Z" fill="white"/>
<path d="M7 13L7 11L9 11L9 13L7 13Z" fill="white"/>
<path d="M7 5L7 3L9 3L9 5L7 5Z" fill="white"/>
<path d="M3 17L3 15L5 15L5 17L3 17Z" fill="white"/>
<path d="M19 17L19 15L21 15L21 17L19 17Z" fill="white"/>
<path d="M3 12.5977L3 11.4023L5 11.4023L5 12.5977L3 12.5977Z" fill="white"/>
<path d="M19 12.5977L19 11.4023L21 11.4023L21 12.5977L19 12.5977Z" fill="white"/>
<path d="M3 9L3 7L5 7L5 9L3 9Z" fill="white"/>
<path d="M19 9L19 7L21 7L21 9L19 9Z" fill="white"/>
<path d="M3 5L3 3L5 3L5 5L3 5Z" fill="white"/>
<path d="M19 5L19 3L21 3L21 5L19 5Z" fill="white"/>
</mask>
<g mask="url(#mask0_402_13875)">
<path d="M20.4 11.4H12.6V3.6H20.4V11.4ZM11.4 3.6V11.4H3.6V3.6H11.4ZM3.6 12.6H11.4V20.4H3.6V12.6ZM12.6 12.6H20.4V20.4H12.6V12.6Z" stroke="#28293D" stroke-width="1.2"/>
</g>
</svg>
