<svg width="24" height="24" viewBox="0 0 24 24" fill="none" xmlns="http://www.w3.org/2000/svg">
<mask id="mask0_402_13893" style="mask-type:alpha" maskUnits="userSpaceOnUse" x="3" y="3" width="18" height="18">
<path d="M21 3L21 5L19 5L19 3L21 3Z" fill="white"/>
<path d="M5 3L5 5L3 5L3 3L5 3Z" fill="white"/>
<path d="M9 3L9 5L7 5L7 3L9 3Z" fill="white"/>
<path d="M9 11.4102L9 12.6016L7 12.6016L7 11.4102L9 11.4102Z" fill="white"/>
<path d="M9 19L9 21L7 21L7 19L9 19Z" fill="white"/>
<path d="M12.6016 3L12.6016 4.49368L13 4.49368L13 19.457L12.6016 19.457L12.6016 21L11.3984 21L11.3984 19.457L11 19.457L11 4.49368L11.3984 4.49368L11.3984 3L12.6016 3Z" fill="white"/>
<path d="M17 3L17 5L15 5L15 3L17 3Z" fill="white"/>
<path d="M17 11.3984L17 12.6016L15 12.6016L15 11.3984L17 11.3984Z" fill="white"/>
<path d="M17 19L17 21L15 21L15 19L17 19Z" fill="white"/>
<path d="M21 7L21 9L19 9L19 7L21 7Z" fill="white"/>
<path d="M5 7L5 9L3 9L3 7L5 7Z" fill="white"/>
<path d="M21 11.3984L21 12.6016L19 12.6016L19 11.3984L21 11.3984Z" fill="white"/>
<path d="M5 11.4102L5 12.6016L3 12.6016L3 11.4102L5 11.4102Z" fill="white"/>
<path d="M21 15L21 17L19 17L19 15L21 15Z" fill="white"/>
<path d="M5 15L5 17L3 17L3 15L5 15Z" fill="white"/>
<path d="M21 19L21 21L19 21L19 19L21 19Z" fill="white"/>
<path d="M5 19L5 21L3 21L3 19L5 19Z" fill="white"/>
</mask>
<g mask="url(#mask0_402_13893)">
<path d="M20.4 11.4H12.6V3.6H20.4V11.4ZM11.4 3.6V11.4H3.6V3.6H11.4ZM3.6 12.6H11.4V20.4H3.6V12.6ZM12.6 12.6H20.4V20.4H12.6V12.6Z" stroke="#28293D" stroke-width="1.2"/>
</g>
</svg>
