<svg width="24" height="24" viewBox="0 0 24 24" fill="none" xmlns="http://www.w3.org/2000/svg">
<path d="M21 5.5H21.6V4.9H21V5.5ZM21 12V12.6H21.6V12H21ZM11 12V11.4H10.4V12H11ZM10.5 21H9.9V21.6H10.5V21ZM11.5 21V21.6H12.1V21H11.5ZM4.1 3.6H17.9V2.4H4.1V3.6ZM17.9 7.4H4.1V8.6H17.9V7.4ZM4.6 7.9V3.1H3.4V7.9H4.6ZM17.4 3.1V5.5H18.6V3.1H17.4ZM17.4 5.5V7.9H18.6V5.5H17.4ZM21 4.9H18V6.1H21V4.9ZM20.4 5.5V12H21.6V5.5H20.4ZM21 11.4H11V12.6H21V11.4ZM10.4 12V14H11.6V12H10.4ZM11 13.4H10.6V14.6H11V13.4ZM9.9 14.1V21H11.1V14.1H9.9ZM10.5 21.6H11V20.4H10.5V21.6ZM12.1 21V14.1H10.9V21H12.1ZM11.4 13.4H11V14.6H11.4V13.4ZM11.5 20.4H11V21.6H11.5V20.4ZM4.1 7.4C4.37614 7.4 4.6 7.62385 4.6 7.9H3.4C3.4 8.2866 3.71341 8.6 4.1 8.6V7.4ZM12.1 14.1C12.1 13.7134 11.7866 13.4 11.4 13.4V14.6C11.1239 14.6 10.9 14.3761 10.9 14.1H12.1ZM17.9 8.6C18.2866 8.6 18.6 8.2866 18.6 7.9H17.4C17.4 7.62386 17.6239 7.4 17.9 7.4V8.6ZM17.9 3.6C17.6239 3.6 17.4 3.37615 17.4 3.1H18.6C18.6 2.7134 18.2866 2.4 17.9 2.4V3.6ZM10.6 13.4C10.2134 13.4 9.9 13.7134 9.9 14.1H11.1C11.1 14.3761 10.8761 14.6 10.6 14.6V13.4ZM4.1 2.4C3.7134 2.4 3.4 2.7134 3.4 3.1H4.6C4.6 3.37614 4.37614 3.6 4.1 3.6V2.4Z" fill="#28293D"/>
</svg>
