<svg width="24" height="24" viewBox="0 0 24 24" fill="none" xmlns="http://www.w3.org/2000/svg">
<path d="M3 20H21" stroke="#28293D" stroke-width="1.2"/>
<path d="M16.8305 9.79091L17.3465 10.097C17.4277 9.96016 17.4512 9.79665 17.4118 9.64247C17.3725 9.48829 17.2734 9.35606 17.1366 9.27487L16.8305 9.79091ZM12.8588 16.4864L12.5527 17.0024C12.8377 17.1715 13.2058 17.0775 13.3748 16.7925L12.8588 16.4864ZM4.3974 11.4672L3.88136 11.1611C3.7123 11.4461 3.80629 11.8142 4.09129 11.9833L4.3974 11.4672ZM4.95094 3.44176L8.06296 5.28777L8.67518 4.25569L5.56315 2.40968L4.95094 3.44176ZM8.06296 5.28777L16.5244 10.307L17.1366 9.27487L8.67518 4.25569L8.06296 5.28777ZM13.3748 16.7925L17.3465 10.097L16.3144 9.48481L12.3428 16.1803L13.3748 16.7925ZM4.09129 11.9833L12.5527 17.0024L13.1649 15.9704L4.70351 10.9512L4.09129 11.9833ZM4.91344 11.7733L8.88511 5.07784L7.85303 4.46562L3.88136 11.1611L4.91344 11.7733Z" fill="#28293D"/>
<path d="M14.7617 10.2031L6.63281 11.0117L12.2617 14.3555L14.7617 10.2031Z" fill="#28293D"/>
<path d="M19.9832 13.8217C19.9832 14.4573 19.468 14.9725 18.8324 14.9725C18.1968 14.9725 17.6816 14.4573 17.6816 13.8217C17.6816 13.7306 17.7331 13.536 17.888 13.2368C18.0329 12.9569 18.2328 12.6518 18.4427 12.3623C18.5768 12.1775 18.7113 12.0038 18.8324 11.8531C18.9535 12.0038 19.088 12.1775 19.2221 12.3623C19.432 12.6518 19.6319 12.9569 19.7768 13.2368C19.9317 13.536 19.9832 13.7306 19.9832 13.8217Z" stroke="#28293D" stroke-width="1.2"/>
</svg>
