<svg width="24" height="24" viewBox="0 0 24 24" fill="none" xmlns="http://www.w3.org/2000/svg">
<mask id="path-1-inside-1_402_14711" fill="white">
<path d="M1 12C1 18.0751 5.92487 23 12 23C16.1671 23 19.793 20.6828 21.6596 17.2667C22.0533 16.5461 21.3315 15.7838 20.518 15.8961C20.0218 15.9646 19.515 16 19 16C12.9249 16 8 11.0751 8 4.99997C8 4.48493 8.0354 3.97816 8.10389 3.48195C8.21618 2.66849 7.45385 1.94668 6.73324 2.34042C3.31713 4.20697 1 7.83287 1 12Z"/>
</mask>
<path d="M8.10389 3.48195L10.0851 3.75543L10.0851 3.75543L8.10389 3.48195ZM6.73324 2.34042L7.69221 4.09552L7.69221 4.09552L6.73324 2.34042ZM20.518 15.8961L20.7915 17.8773L20.7915 17.8773L20.518 15.8961ZM21.6596 17.2667L23.4146 18.2257L23.4146 18.2257L21.6596 17.2667ZM12 21C7.02944 21 3 16.9705 3 12H-1C-1 19.1797 4.8203 25 12 25V21ZM19 14C14.0294 14 10 9.97054 10 4.99997H6C6 12.1797 11.8203 18 19 18V14ZM10 4.99997C10 4.57668 10.0291 4.16127 10.0851 3.75543L6.12268 3.20847C6.04171 3.79504 6 4.39319 6 4.99997H10ZM3 12C3 8.59323 4.89208 5.6255 7.69221 4.09552L5.77426 0.585327C1.74219 2.78843 -1 7.07252 -1 12H3ZM20.2445 13.9149C19.8387 13.9709 19.4233 14 19 14V18C19.6068 18 20.2049 17.9583 20.7915 17.8773L20.2445 13.9149ZM19.9045 16.3078C18.3745 19.1079 15.4067 21 12 21V25C16.9275 25 21.2115 22.2578 23.4146 18.2257L19.9045 16.3078ZM20.7915 17.8773C20.5135 17.9157 20.234 17.8124 20.0353 17.5849C19.9283 17.4625 19.8195 17.2737 19.7827 17.0221C19.7437 16.7551 19.7991 16.5006 19.9045 16.3078L23.4146 18.2257C24.0684 17.0293 23.7526 15.7602 23.0477 14.9533C22.3831 14.1925 21.336 13.7642 20.2445 13.9149L20.7915 17.8773ZM10.0851 3.75543C10.2358 2.66394 9.80744 1.61684 9.0467 0.952278C8.23982 0.247392 6.97068 -0.0683916 5.77426 0.585327L7.69221 4.09552C7.49934 4.2009 7.24486 4.25628 6.97785 4.21724C6.72625 4.18045 6.53752 4.07164 6.4151 3.96469C6.18761 3.76597 6.0843 3.48651 6.12268 3.20847L10.0851 3.75543Z" fill="#555770" mask="url(#path-1-inside-1_402_14711)"/>
</svg>
