<svg width="24" height="24" viewBox="0 0 24 24" fill="none" xmlns="http://www.w3.org/2000/svg">
<mask id="mask0_402_14653" style="mask-type:alpha" maskUnits="userSpaceOnUse" x="0" y="0" width="24" height="23">
<path d="M13.5 12H6L0 23V0H24V23H13.5V12Z" fill="white"/>
</mask>
<g mask="url(#mask0_402_14653)">
<path d="M8.5 18C4.91015 18 2 15.0899 2 11.5C2 7.91015 4.91015 5 8.5 5C11.1125 5 13.367 6.54123 14.4001 8.76837C14.6481 9.30288 15.2709 9.54592 15.8137 9.32635L15.4427 8.40939L15.8137 9.32635C16.3331 9.11621 16.9018 9 17.5 9C19.9853 9 22 11.0147 22 13.5C22 15.9853 19.9853 18 17.5 18H8.5Z" stroke="#555770" stroke-width="2"/>
</g>
<path d="M11 18.4211C11 19.8454 9.88071 21 8.5 21C7.11929 21 6 19.8454 6 18.4211C6 16.9967 8.5 14 8.5 14C8.5 14 11 16.9967 11 18.4211Z" stroke="#555770" stroke-width="2"/>
<path d="M17.3146 2.06551L17.6613 1.12755L17.3146 2.06551ZM16.41 3.76862C16.41 3.31599 16.3455 2.88015 16.2259 2.46892L18.1462 1.91011C18.3182 2.50105 18.41 3.12496 18.41 3.76862H16.41ZM20 7.3586C20 5.36257 18.7395 3.65841 16.9679 3.00348L17.6613 1.12755C20.1928 2.06334 22 4.49866 22 7.3586H20ZM14.0151 7.8313C15.4455 7.03833 16.41 5.51543 16.41 3.76862H18.41C18.41 6.27136 17.0252 8.44929 14.9849 9.58047L14.0151 7.8313ZM19.4614 9.53112C19.805 8.88398 20 8.14555 20 7.3586H22C22 8.48038 21.7211 9.53997 21.228 10.4689L19.4614 9.53112ZM16.2259 2.46892C15.9918 1.66444 16.7534 0.791907 17.6613 1.12755L16.9679 3.00348C17.7218 3.28217 18.3344 2.5569 18.1462 1.91011L16.2259 2.46892Z" fill="#555770"/>
</svg>
