<svg width="24" height="24" viewBox="0 0 24 24" fill="none" xmlns="http://www.w3.org/2000/svg">
<mask id="mask0_402_14635" style="mask-type:alpha" maskUnits="userSpaceOnUse" x="0" y="0" width="24" height="23">
<path d="M13.5 12H6L0 23V0H15L10 11.5H14.5V16.5H16.5L24 9V23H13.5V12Z" fill="white"/>
</mask>
<g mask="url(#mask0_402_14635)">
<path d="M8.5 18C4.91015 18 2 15.0899 2 11.5C2 7.91015 4.91015 5 8.5 5C11.1125 5 13.367 6.54123 14.4001 8.76837C14.6481 9.30288 15.2709 9.54592 15.8137 9.32635L15.4427 8.40939L15.8137 9.32635C16.3331 9.11621 16.9018 9 17.5 9C19.9853 9 22 11.0147 22 13.5C22 15.9853 19.9853 18 17.5 18H8.5Z" stroke="#555770" stroke-width="2"/>
</g>
<path d="M11.5 15.3125L5.5 19.6875M5.5 15.3125L11.5 19.6875M8.5 14V21" stroke="#555770" stroke-width="1.5"/>
<path d="M16.7368 3V2.25C16.4362 2.25 16.1646 2.42957 16.0468 2.70622L16.7368 3ZM14 9.42857L13.3099 9.13479C13.2113 9.36646 13.2355 9.63216 13.3744 9.84219C13.5132 10.0522 13.7482 10.1786 14 10.1786V9.42857ZM16.7544 9.42857L17.4485 9.7127C17.5432 9.4814 17.5164 9.21813 17.3771 9.0106C17.2378 8.80308 17.0043 8.67857 16.7544 8.67857V9.42857ZM14.4737 15L13.7796 14.7159C13.6436 15.0481 13.7621 15.4301 14.0622 15.627C14.3623 15.824 14.7598 15.7807 15.0105 15.5237L14.4737 15ZM22 7.28571L22.5368 7.80946C22.7475 7.59354 22.8083 7.27242 22.6911 6.99443C22.574 6.71645 22.3017 6.53571 22 6.53571V7.28571ZM18.1228 7.28571L17.4907 6.88205C17.3433 7.11294 17.3334 7.40585 17.4651 7.6461C17.5967 7.88635 17.8489 8.03571 18.1228 8.03571V7.28571ZM20.8596 3L21.4918 3.40366C21.6392 3.17277 21.649 2.87987 21.5174 2.63962C21.3858 2.39936 21.1336 2.25 20.8596 2.25V3ZM16.0468 2.70622L13.3099 9.13479L14.6901 9.72235L17.4269 3.29378L16.0468 2.70622ZM14 10.1786H16.7544V8.67857H14V10.1786ZM16.0603 9.14444L13.7796 14.7159L15.1678 15.2841L17.4485 9.7127L16.0603 9.14444ZM15.0105 15.5237L22.5368 7.80946L21.4632 6.76197L13.9369 14.4763L15.0105 15.5237ZM22 6.53571H18.1228V8.03571H22V6.53571ZM18.7549 7.68938L21.4918 3.40366L20.2275 2.59634L17.4907 6.88205L18.7549 7.68938ZM20.8596 2.25H16.7368V3.75H20.8596V2.25Z" fill="#555770"/>
</svg>
