<svg width="24" height="24" viewBox="0 0 24 24" fill="none" xmlns="http://www.w3.org/2000/svg">
<path d="M2 7C3.26413 7 4.20909 6.51349 4.94721 6.14443C5.70909 5.76349 6.26413 5.5 7 5.5V3.5C5.73587 3.5 4.79091 3.98651 4.05279 4.35557C3.29091 4.73651 2.73587 5 2 5V7ZM12 5C11.2641 5 10.7091 4.73651 9.94721 4.35557C9.20909 3.98651 8.26413 3.5 7 3.5V5.5C7.73587 5.5 8.29091 5.76349 9.05279 6.14443C9.79091 6.51349 10.7359 7 12 7V5ZM12 7C13.2641 7 14.2091 6.51349 14.9472 6.14443C15.7091 5.76349 16.2641 5.5 17 5.5V3.5C15.7359 3.5 14.7909 3.98651 14.0528 4.35557C13.2909 4.73651 12.7359 5 12 5V7ZM22 5C21.2641 5 20.7091 4.73651 19.9472 4.35557C19.2091 3.98651 18.2641 3.5 17 3.5V5.5C17.7359 5.5 18.2909 5.76349 19.0528 6.14443C19.7909 6.51349 20.7359 7 22 7V5ZM2 11.5C3.26413 11.5 4.20909 11.0135 4.94721 10.6444C5.70909 10.2635 6.26413 10 7 10V8C5.73587 8 4.79091 8.48651 4.05279 8.85557C3.29091 9.23651 2.73587 9.5 2 9.5V11.5ZM12 9.5C11.2641 9.5 10.7091 9.23651 9.94721 8.85557C9.20909 8.48651 8.26413 8 7 8V10C7.73587 10 8.29091 10.2635 9.05279 10.6444C9.79091 11.0135 10.7359 11.5 12 11.5V9.5ZM12 11.5C13.2641 11.5 14.2091 11.0135 14.9472 10.6444C15.7091 10.2635 16.2641 10 17 10V8C15.7359 8 14.7909 8.48651 14.0528 8.85557C13.2909 9.23651 12.7359 9.5 12 9.5V11.5ZM22 9.5C21.2641 9.5 20.7091 9.23651 19.9472 8.85557C19.2091 8.48651 18.2641 8 17 8V10C17.7359 10 18.2909 10.2635 19.0528 10.6444C19.7909 11.0135 20.7359 11.5 22 11.5V9.5ZM2 16C3.26413 16 4.20909 15.5135 4.94721 15.1444C5.70909 14.7635 6.26413 14.5 7 14.5V12.5C5.73587 12.5 4.79091 12.9865 4.05279 13.3556C3.29091 13.7365 2.73587 14 2 14V16ZM12 14C11.2641 14 10.7091 13.7365 9.94721 13.3556C9.20909 12.9865 8.26413 12.5 7 12.5V14.5C7.73587 14.5 8.29091 14.7635 9.05279 15.1444C9.79091 15.5135 10.7359 16 12 16V14ZM12 16C13.2641 16 14.2091 15.5135 14.9472 15.1444C15.7091 14.7635 16.2641 14.5 17 14.5V12.5C15.7359 12.5 14.7909 12.9865 14.0528 13.3556C13.2909 13.7365 12.7359 14 12 14V16ZM22 14C21.2641 14 20.7091 13.7365 19.9472 13.3556C19.2091 12.9865 18.2641 12.5 17 12.5V14.5C17.7359 14.5 18.2909 14.7635 19.0528 15.1444C19.7909 15.5135 20.7359 16 22 16V14ZM2 20.5C3.26413 20.5 4.20909 20.0135 4.94721 19.6444C5.70909 19.2635 6.26413 19 7 19V17C5.73587 17 4.79091 17.4865 4.05279 17.8556C3.29091 18.2365 2.73587 18.5 2 18.5V20.5ZM12 18.5C11.2641 18.5 10.7091 18.2365 9.94721 17.8556C9.20909 17.4865 8.26413 17 7 17V19C7.73587 19 8.29091 19.2635 9.05279 19.6444C9.79091 20.0135 10.7359 20.5 12 20.5V18.5ZM12 20.5C13.2641 20.5 14.2091 20.0135 14.9472 19.6444C15.7091 19.2635 16.2641 19 17 19V17C15.7359 17 14.7909 17.4865 14.0528 17.8556C13.2909 18.2365 12.7359 18.5 12 18.5V20.5ZM22 18.5C21.2641 18.5 20.7091 18.2365 19.9472 17.8556C19.2091 17.4865 18.2641 17 17 17V19C17.7359 19 18.2909 19.2635 19.0528 19.6444C19.7909 20.0135 20.7359 20.5 22 20.5V18.5Z" fill="#555770"/>
</svg>
