<svg width="24" height="24" viewBox="0 0 24 24" fill="none" xmlns="http://www.w3.org/2000/svg">
<path d="M6.31933 15.6712L7.02706 16.3776L7.02706 16.3776L6.31933 15.6712ZM17.2402 6.80769L16.5324 7.51417L16.5324 7.51417L17.2402 6.80769ZM9.50209 9.71346L8.79435 9.00699L8.79435 9.00699L9.50209 9.71346ZM13.0937 10.9615L12.386 11.668L12.386 11.668L13.0937 10.9615ZM21.7321 7.15385L22.7024 6.91172L22.4177 5.77121L21.3376 6.23496L21.7321 7.15385ZM13.4393 15.4615L12.5199 15.0682L12.0585 16.1466L13.1963 16.4316L13.4393 15.4615ZM7.91071 12.6923L8.89135 12.8881L7.91071 12.6923ZM5.61159 14.9647L0.292261 20.2935L1.70774 21.7065L7.02706 16.3776L5.61159 14.9647ZM15.4958 2.29353L14.1137 3.67814L15.5292 5.09109L16.9113 3.70647L15.4958 2.29353ZM14.1137 5.09109L16.5324 7.51417L17.9479 6.10122L15.5292 3.67814L14.1137 5.09109ZM14.1137 3.67814L9.96725 7.83199L11.3827 9.24494L15.5292 5.09109L14.1137 3.67814ZM9.96725 7.83199L8.79435 9.00699L10.2098 10.4199L11.3827 9.24494L9.96725 7.83199ZM13.8015 10.2551L11.3827 7.83199L9.96725 9.24494L12.386 11.668L13.8015 10.2551ZM16.5324 7.51417C16.9987 7.98129 17.6962 8.44342 18.6642 8.61454C19.6294 8.78518 20.7785 8.65154 22.1266 8.07274L21.3376 6.23496C20.267 6.69461 19.5157 6.73405 19.0123 6.64508C18.5118 6.55658 18.1727 6.3264 17.9479 6.10122L16.5324 7.51417ZM12.386 11.668C12.6107 11.8931 12.841 12.2333 12.9295 12.736C13.0186 13.2414 12.9789 13.9952 12.5199 15.0682L14.3587 15.8549C14.9362 14.5048 15.0693 13.3547 14.8992 12.389C14.7286 11.4205 14.2678 10.7222 13.8015 10.2551L12.386 11.668ZM20.7619 7.39597C21.3794 9.87038 20.7451 11.9195 19.4695 13.1974C18.1942 14.475 16.1503 15.1096 13.6822 14.4915L13.1963 16.4316C16.2568 17.1981 19.0504 16.4481 20.8849 14.6103C22.7191 12.7729 23.467 9.97578 22.7024 6.91172L20.7619 7.39597ZM6.93006 12.4965C6.74333 13.4318 6.28448 14.2906 5.61159 14.9647L7.02706 16.3776C7.97888 15.4241 8.62747 14.2099 8.89135 12.8881L6.93006 12.4965ZM8.89135 12.8881C9.07808 11.9528 9.53694 11.094 10.2098 10.4199L8.79435 9.00699C7.84253 9.96051 7.19395 11.1747 6.93006 12.4965L8.89135 12.8881Z" fill="#555770"/>
</svg>
