<svg width="24" height="24" viewBox="0 0 24 24" fill="none" xmlns="http://www.w3.org/2000/svg">
<path d="M4 2L4.35112 1.06367L3 0.557V2H4ZM20 2H21V0.557L19.6489 1.06367L20 2ZM20 11L20.5433 11.8396L21 11.544V11H20ZM4 11H3V11.544L3.45675 11.8396L4 11ZM19 2V11H21V2H19ZM5 11V2H3V11H5ZM4 2C3.64888 2.93633 3.64904 2.93639 3.64922 2.93646C3.6493 2.93649 3.6495 2.93656 3.64966 2.93662C3.64999 2.93674 3.65037 2.93689 3.65082 2.93705C3.65171 2.93739 3.65284 2.93781 3.65422 2.93832C3.65697 2.93935 3.6607 2.94073 3.66537 2.94246C3.67473 2.94591 3.6879 2.95074 3.70476 2.95686C3.73849 2.9691 3.78701 2.9865 3.84934 3.00831C3.97396 3.05193 4.15397 3.11327 4.38149 3.1864C4.83617 3.33255 5.48258 3.52642 6.25746 3.72014C7.79869 4.10545 9.88658 4.5 12 4.5V2.5C10.1134 2.5 8.20131 2.14455 6.74254 1.77986C6.01742 1.59858 5.41383 1.41745 4.99351 1.28235C4.78353 1.21485 4.61979 1.15901 4.51004 1.12059C4.45518 1.10139 4.41385 1.08656 4.38703 1.07683C4.37362 1.07197 4.36385 1.06837 4.35782 1.06615C4.35481 1.06504 4.35273 1.06427 4.35161 1.06385C4.35105 1.06364 4.35073 1.06352 4.35065 1.06349C4.3506 1.06348 4.35062 1.06348 4.3507 1.06351C4.35074 1.06353 4.35085 1.06357 4.35087 1.06358C4.35099 1.06362 4.35112 1.06367 4 2ZM12 4.5C14.1134 4.5 16.2013 4.10545 17.7425 3.72014C18.5174 3.52642 19.1638 3.33255 19.6185 3.1864C19.846 3.11327 20.026 3.05193 20.1507 3.00831C20.213 2.9865 20.2615 2.9691 20.2952 2.95686C20.3121 2.95074 20.3253 2.94591 20.3346 2.94246C20.3393 2.94073 20.343 2.93935 20.3458 2.93832C20.3472 2.93781 20.3483 2.93739 20.3492 2.93705C20.3496 2.93689 20.35 2.93674 20.3503 2.93662C20.3505 2.93656 20.3507 2.93649 20.3508 2.93646C20.351 2.93639 20.3511 2.93633 20 2C19.6489 1.06367 19.649 1.06362 19.6491 1.06358C19.6492 1.06357 19.6493 1.06353 19.6493 1.06351C19.6494 1.06348 19.6494 1.06348 19.6494 1.06349C19.6493 1.06352 19.649 1.06364 19.6484 1.06385C19.6473 1.06427 19.6452 1.06504 19.6422 1.06615C19.6362 1.06837 19.6264 1.07197 19.613 1.07683C19.5861 1.08656 19.5448 1.10139 19.49 1.12059C19.3802 1.15901 19.2165 1.21485 19.0065 1.28235C18.5862 1.41745 17.9826 1.59858 17.2575 1.77986C15.7987 2.14455 13.8866 2.5 12 2.5V4.5ZM20 11C19.6489 10.0637 19.649 10.0636 19.6491 10.0636C19.6492 10.0636 19.6493 10.0635 19.6493 10.0635C19.6494 10.0635 19.6494 10.0635 19.6494 10.0635C19.6493 10.0635 19.649 10.0636 19.6484 10.0639C19.6473 10.0643 19.6452 10.065 19.6422 10.0662C19.6362 10.0684 19.6264 10.072 19.613 10.0768C19.5861 10.0866 19.5448 10.1014 19.49 10.1206C19.3802 10.159 19.2165 10.2149 19.0065 10.2823C18.5862 10.4174 17.9826 10.5986 17.2575 10.7799C15.7987 11.1446 13.8866 11.5 12 11.5V13.5C14.1134 13.5 16.2013 13.1054 17.7425 12.7201C18.5174 12.5264 19.1638 12.3326 19.6185 12.1864C19.846 12.1133 20.026 12.0519 20.1507 12.0083C20.213 11.9865 20.2615 11.9691 20.2952 11.9569C20.3121 11.9507 20.3253 11.9459 20.3346 11.9425C20.3393 11.9407 20.343 11.9393 20.3458 11.9383C20.3472 11.9378 20.3483 11.9374 20.3492 11.9371C20.3496 11.9369 20.35 11.9367 20.3503 11.9366C20.3505 11.9366 20.3507 11.9365 20.3508 11.9365C20.351 11.9364 20.3511 11.9363 20 11ZM12 11.5C10.1134 11.5 8.20131 11.1446 6.74254 10.7799C6.01742 10.5986 5.41383 10.4174 4.99351 10.2823C4.78353 10.2149 4.61979 10.159 4.51004 10.1206C4.45518 10.1014 4.41385 10.0866 4.38703 10.0768C4.37362 10.072 4.36385 10.0684 4.35782 10.0662C4.35481 10.065 4.35273 10.0643 4.35161 10.0639C4.35105 10.0636 4.35073 10.0635 4.35065 10.0635C4.3506 10.0635 4.35062 10.0635 4.3507 10.0635C4.35074 10.0635 4.35085 10.0636 4.35087 10.0636C4.35099 10.0636 4.35112 10.0637 4 11C3.64888 11.9363 3.64904 11.9364 3.64922 11.9365C3.6493 11.9365 3.6495 11.9366 3.64966 11.9366C3.64999 11.9367 3.65037 11.9369 3.65082 11.9371C3.65171 11.9374 3.65284 11.9378 3.65422 11.9383C3.65697 11.9393 3.6607 11.9407 3.66537 11.9425C3.67473 11.9459 3.6879 11.9507 3.70476 11.9569C3.73849 11.9691 3.78701 11.9865 3.84934 12.0083C3.97396 12.0519 4.15397 12.1133 4.38149 12.1864C4.83617 12.3326 5.48258 12.5264 6.25746 12.7201C7.79869 13.1054 9.88658 13.5 12 13.5V11.5ZM19.4567 10.1604L2.45675 21.1604L3.54325 22.8396L20.5433 11.8396L19.4567 10.1604ZM3.45675 11.8396L20.4567 22.8396L21.5433 21.1604L4.54325 10.1604L3.45675 11.8396ZM2 9H6V7H2V9ZM18 9H22V7H18V9Z" fill="#555770"/>
</svg>
