<svg width="24" height="24" viewBox="0 0 24 24" fill="none" xmlns="http://www.w3.org/2000/svg">
<path d="M17 8V16H19V8H17ZM12 21C9.23858 21 7 18.7614 7 16H5C5 19.866 8.13401 23 12 23V21ZM17 16C17 18.7614 14.7614 21 12 21V23C15.866 23 19 19.866 19 16H17ZM12 3C14.7614 3 17 5.23858 17 8H19C19 4.13401 15.866 1 12 1V3ZM12 1C8.13401 1 5 4.13401 5 8H7C7 5.23858 9.23858 3 12 3V1ZM7 9V8H5V9H7ZM6 13H6.9V11H6V13ZM6 12.1V14.9H8V12.1H6ZM7 16V15H5V16H7ZM7 15V12H5V15H7ZM6.9 14H6V16H6.9V14ZM6 14H5.1V16H6V14ZM6 14.9V12.1H4V14.9H6ZM5.1 13H6V11H5.1V13ZM6 12.1C6 12.5971 5.59706 13 5.1 13V11C4.49249 11 4 11.4925 4 12.1H6ZM5.1 14C5.59706 14 6 14.4029 6 14.9H4C4 15.5075 4.49249 16 5.1 16V14ZM6 14.9C6 14.4029 6.40294 14 6.9 14V16C7.50751 16 8 15.5075 8 14.9H6ZM6.9 13C6.40294 13 6 12.5971 6 12.1H8C8 11.4925 7.50751 11 6.9 11V13Z" fill="#555770"/>
</svg>
