<svg width="24" height="24" viewBox="0 0 24 24" fill="none" xmlns="http://www.w3.org/2000/svg">
<path d="M8 2V1H7V2H8ZM8 7H7V8H8V7ZM18 7V8H18.4142L18.7071 7.70711L18 7ZM20.5 4.5L21.2071 5.20711L21.9142 4.5L21.2071 3.79289L20.5 4.5ZM18 2L18.7071 1.29289L18.4142 1H18V2ZM16 10H17V9H16V10ZM16 15V16H17V15H16ZM6 15L5.29289 15.7071L5.58579 16H6V15ZM3.5 12.5L2.79289 11.7929L2.08579 12.5L2.79289 13.2071L3.5 12.5ZM6 10V9H5.58579L5.29289 9.29289L6 10ZM7 2V7H9V2H7ZM18.7071 7.70711L21.2071 5.20711L19.7929 3.79289L17.2929 6.29289L18.7071 7.70711ZM21.2071 3.79289L18.7071 1.29289L17.2929 2.70711L19.7929 5.20711L21.2071 3.79289ZM18 1H8V3H18V1ZM15 10V15H17V10H15ZM6.70711 14.2929L4.20711 11.7929L2.79289 13.2071L5.29289 15.7071L6.70711 14.2929ZM4.20711 13.2071L6.70711 10.7071L5.29289 9.29289L2.79289 11.7929L4.20711 13.2071ZM8 8H12V6H8V8ZM12 8H18V6H12V8ZM6 11H12V9H6V11ZM12 11H16V9H12V11ZM11 7V10H13V7H11ZM16 14H12V16H16V14ZM12 14H6V16H12V14ZM11 15V24H13V15H11Z" fill="#555770"/>
</svg>
