<svg width="24" height="24" viewBox="0 0 24 24" fill="none" xmlns="http://www.w3.org/2000/svg">
<path d="M18 2L18.2831 1.0409L16.6742 0.56605L17.0217 2.20717L18 2ZM15 4H16V2.27426L14.5027 3.1324L15 4ZM18.0215 11.9726L19 11.7663L18.0215 11.9726ZM19.9133 11.3573L19.0005 11.7657L19.9133 11.3573ZM17.5 11C15.4833 11 14 9.52076 14 7.875H12C12 10.7856 14.5461 13 17.5 13V11ZM17.0217 2.20717C17.1443 2.78611 17.2421 3.63435 17.1213 4.28658C17.0618 4.60749 16.9663 4.78597 16.8861 4.87292C16.8356 4.92766 16.7486 5 16.5 5V7C17.2584 7 17.8955 6.72859 18.3565 6.22864C18.7878 5.76091 18.991 5.17376 19.0878 4.65092C19.2796 3.61565 19.1204 2.46389 18.9783 1.79283L17.0217 2.20717ZM14 7.875C14 6.64647 14.6219 5.3693 15.4973 4.8676L14.5027 3.1324C12.8346 4.08845 12 6.15114 12 7.875H14ZM16.5 5C16.4253 5 16.333 4.97773 16.2153 4.79534C16.0847 4.59284 16 4.28755 16 4H14C14 4.61232 14.1653 5.30703 14.5347 5.87956C14.917 6.47221 15.5747 7 16.5 7V5ZM17.7169 2.9591C18.8207 3.28487 21 4.72945 21 7.875H23C23 3.62055 20.0028 1.54847 18.2831 1.0409L17.7169 2.9591ZM19 11.7653V13.7653C20.1046 13.7653 21 12.8698 21 11.7653H19ZM19 11.7653V9.76528C17.8954 9.76528 17 10.6607 17 11.7653H19ZM19 11.7663C19.0001 11.7669 19 11.7666 19 11.7653H17C17 11.9061 17.0147 12.0446 17.043 12.1789L19 11.7663ZM17.9163 10.9781C17.7801 10.9926 17.6412 11 17.5 11V13C17.7116 13 17.9207 12.9888 18.1267 12.967L17.9163 10.9781ZM19 11.7653L19.0005 11.7657L20.8261 10.9489C20.5148 10.2532 19.8155 9.76528 19 9.76528V11.7653ZM19.0005 11.7657L19 11.7653H21C21 11.4765 20.9382 11.1994 20.8261 10.9489L19.0005 11.7657ZM21 7.875C21 8.94156 20.3947 9.91851 19.4093 10.4936L20.4173 12.221C21.9408 11.332 23 9.73686 23 7.875H21ZM19 11.7653L18.9994 11.7645L17.2869 12.7977C17.6354 13.3754 18.2717 13.7653 19 13.7653V11.7653ZM18.9994 11.7645C18.9995 11.7647 18.9998 11.7654 19 11.7663L17.043 12.1789C17.0899 12.4012 17.1736 12.6098 17.2869 12.7977L18.9994 11.7645ZM17.6274 11.4244L1.48422 21.1433L2.51578 22.8567L18.6589 13.1379L17.6274 11.4244Z" fill="#555770"/>
</svg>
