<svg width="24" height="24" viewBox="0 0 24 24" fill="none" xmlns="http://www.w3.org/2000/svg">
<path d="M8.5 4L7.79289 3.29289L7.5 3.58579V4H8.5ZM9.5 3V2H9.08579L8.79289 2.29289L9.5 3ZM14.5 3L15.2071 2.29289L14.9142 2H14.5V3ZM15.5 4H16.5V3.58579L16.2071 3.29289L15.5 4ZM20 8V20H22V8H20ZM20 20H4V22H20V20ZM4 20V8H2V20H4ZM4 8H8.5V6H4V8ZM9.5 7V4H7.5V7H9.5ZM9.20711 4.70711L10.2071 3.70711L8.79289 2.29289L7.79289 3.29289L9.20711 4.70711ZM9.5 4H14.5V2H9.5V4ZM13.7929 3.70711L14.7929 4.70711L16.2071 3.29289L15.2071 2.29289L13.7929 3.70711ZM8.5 8H15.5V6H8.5V8ZM15.5 8H20V6H15.5V8ZM14.5 4V7H16.5V4H14.5ZM11 11V14H13V11H11ZM11 14V17H13V14H11ZM12 13H9V15H12V13ZM12 15H15V13H12V15ZM4 20L4 20H2C2 21.1046 2.89543 22 4 22V20ZM20 20L20 20V22C21.1046 22 22 21.1046 22 20H20ZM22 8C22 6.89543 21.1046 6 20 6V8L20 8H22ZM4 8L4 8V6C2.89543 6 2 6.89543 2 8H4Z" fill="#555770"/>
</svg>
