<svg width="24" height="24" viewBox="0 0 24 24" fill="none" xmlns="http://www.w3.org/2000/svg">
<path d="M17 11L17.9908 11.1351L18 11.0679V11H17ZM6 11H5V11.0679L5.00917 11.1351L6 11ZM13.0767 14.3081L14.0053 14.6792L13.0767 14.3081ZM9 3H14V1H9V3ZM12.8813 21H10.1187V23H12.8813V21ZM16.0092 10.8649L14.863 19.2702L16.8446 19.5405L17.9908 11.1351L16.0092 10.8649ZM8.13701 19.2702L6.99083 10.8649L5.00917 11.1351L6.15535 19.5405L8.13701 19.2702ZM7 11V5H5V11H7ZM16 5V8H18V5H16ZM16 8V11H18V8H16ZM6 12C6.70465 12 7.89314 12.1491 9.08293 12.6013C10.2731 13.0536 11.3729 13.7731 12.045 14.851L13.7421 13.7927C12.7607 12.2188 11.229 11.2774 9.7935 10.7318C8.35758 10.186 6.92608 10 6 10V12ZM14.0053 14.6792C14.5076 13.4222 15.0768 12.0005 15.705 10.8447C16.0188 10.2674 16.3267 9.79567 16.6216 9.45859C16.9288 9.10735 17.1409 8.99555 17.2425 8.97014L16.7575 7.02986C16.0793 7.19939 15.5354 7.66253 15.1162 8.14183C14.6846 8.63528 14.2956 9.24966 13.9478 9.88962C13.2528 11.1684 12.6401 12.7058 12.1481 13.9371L14.0053 14.6792ZM6.70711 11.7071C6.94753 11.4667 7.7507 10.9216 9.3293 10.371L8.6707 8.48257C6.97682 9.07331 5.84435 9.74144 5.29289 10.2929L6.70711 11.7071ZM9.3293 10.371C11.0375 9.77528 13.5681 9.2036 17.0587 8.99827L16.9413 7.00173C13.2936 7.21629 10.5776 7.81753 8.6707 8.48257L9.3293 10.371ZM10 9.42679V7H8V9.42679H10ZM11 6H12V4H11V6ZM13 7V8.28699H15V7H13ZM12 6C12.5523 6 13 6.44772 13 7H15C15 5.34315 13.6569 4 12 4V6ZM10 7C10 6.44772 10.4477 6 11 6V4C9.34315 4 8 5.34315 8 7H10ZM10.1187 21C9.11853 21 8.27215 20.2612 8.13701 19.2702L6.15535 19.5405C6.42562 21.5224 8.11839 23 10.1187 23V21ZM12.045 14.851C12.4947 15.5719 13.6507 15.5666 14.0053 14.6792L12.1481 13.9371C12.4406 13.2051 13.381 13.2137 13.7421 13.7927L12.045 14.851ZM12.8813 23C14.8816 23 16.5744 21.5224 16.8446 19.5405L14.863 19.2702C14.7279 20.2612 13.8815 21 12.8813 21V23ZM14 3C15.1046 3 16 3.89543 16 5H18C18 2.79086 16.2091 1 14 1V3ZM9 1C6.79086 1 5 2.79086 5 5H7C7 3.89543 7.89543 3 9 3V1Z" fill="#555770"/>
</svg>
