<svg width="24" height="24" viewBox="0 0 24 24" fill="none" xmlns="http://www.w3.org/2000/svg">
<mask id="mask0_402_16363" style="mask-type:alpha" maskUnits="userSpaceOnUse" x="3" y="7" width="14" height="14">
<path d="M3 21V7H4.86667V19.1333H17V21H3Z" fill="white"/>
</mask>
<g mask="url(#mask0_402_16363)">
<rect x="4" y="8" width="12" height="12" rx="1" stroke="#555770" stroke-width="2"/>
</g>
<path d="M13 6.73333V9H10.7333V11H13V13.2667H15V11H17.2667V9H15V6.73333H13ZM9 4H19C19.5523 4 20 4.44772 20 5V15C20 15.5523 19.5523 16 19 16H9C8.44772 16 8 15.5523 8 15V5C8 4.44772 8.44772 4 9 4Z" stroke="#555770" stroke-width="2"/>
</svg>
