<svg width="24" height="24" viewBox="0 0 24 24" fill="none" xmlns="http://www.w3.org/2000/svg">
<mask id="path-1-inside-1_402_16300" fill="white">
<path d="M5 3L6 2L7 3V7H8V18L7 19V22H5V19L4 18V7H5V3Z"/>
<path d="M11 3L12 2L13 3V7H14V18L13 19V22H11V19L10 18V7H11V3Z"/>
<path d="M17 3L18 2L19 3V7H20V18L19 19V22H17V19L16 18V7H17V3Z"/>
</mask>
<path d="M6 2L7.41421 0.585786L6 -0.828427L4.58579 0.585786L6 2ZM5 3L3.58579 1.58579L3 2.17157V3H5ZM5 7V9H7V7H5ZM4 7V5H2V7H4ZM4 18H2V18.8284L2.58579 19.4142L4 18ZM5 19H7V18.1716L6.41421 17.5858L5 19ZM5 22H3V24H5V22ZM7 22V24H9V22H7ZM7 19L5.58579 17.5858L5 18.1716V19H7ZM8 18L9.41421 19.4142L10 18.8284V18H8ZM8 7H10V5H8V7ZM7 7H5V9H7V7ZM7 3H9V2.17157L8.41421 1.58579L7 3ZM12 2L13.4142 0.585786L12 -0.828427L10.5858 0.585786L12 2ZM11 3L9.58579 1.58579L9 2.17157V3H11ZM11 7V9H13V7H11ZM10 7V5H8V7H10ZM10 18H8V18.8284L8.58579 19.4142L10 18ZM11 19H13V18.1716L12.4142 17.5858L11 19ZM11 22H9V24H11V22ZM13 22V24H15V22H13ZM13 19L11.5858 17.5858L11 18.1716V19H13ZM14 18L15.4142 19.4142L16 18.8284V18H14ZM14 7H16V5H14V7ZM13 7H11V9H13V7ZM13 3H15V2.17157L14.4142 1.58579L13 3ZM18 2L19.4142 0.585786L18 -0.828427L16.5858 0.585786L18 2ZM17 3L15.5858 1.58579L15 2.17157V3H17ZM17 7V9H19V7H17ZM16 7V5H14V7H16ZM16 18H14V18.8284L14.5858 19.4142L16 18ZM17 19H19V18.1716L18.4142 17.5858L17 19ZM17 22H15V24H17V22ZM19 22V24H21V22H19ZM19 19L17.5858 17.5858L17 18.1716V19H19ZM20 18L21.4142 19.4142L22 18.8284V18H20ZM20 7H22V5H20V7ZM19 7H17V9H19V7ZM19 3H21V2.17157L20.4142 1.58579L19 3ZM4.58579 0.585786L3.58579 1.58579L6.41421 4.41421L7.41421 3.41421L4.58579 0.585786ZM3 3V7H7V3H3ZM5 5H4V9H5V5ZM2 7V18H6V7H2ZM2.58579 19.4142L3.58579 20.4142L6.41421 17.5858L5.41421 16.5858L2.58579 19.4142ZM3 19V22H7V19H3ZM9 22V19H5V22H9ZM8.41421 20.4142L9.41421 19.4142L6.58579 16.5858L5.58579 17.5858L8.41421 20.4142ZM10 18V7H6V18H10ZM8 5H7V9H8V5ZM9 7V3H5V7H9ZM8.41421 1.58579L7.41421 0.585786L4.58579 3.41421L5.58579 4.41421L8.41421 1.58579ZM10.5858 0.585786L9.58579 1.58579L12.4142 4.41421L13.4142 3.41421L10.5858 0.585786ZM9 3V7H13V3H9ZM11 5H10V9H11V5ZM8 7V18H12V7H8ZM8.58579 19.4142L9.58579 20.4142L12.4142 17.5858L11.4142 16.5858L8.58579 19.4142ZM9 19V22H13V19H9ZM15 22V19H11V22H15ZM14.4142 20.4142L15.4142 19.4142L12.5858 16.5858L11.5858 17.5858L14.4142 20.4142ZM16 18V7H12V18H16ZM14 5H13V9H14V5ZM15 7V3H11V7H15ZM14.4142 1.58579L13.4142 0.585786L10.5858 3.41421L11.5858 4.41421L14.4142 1.58579ZM16.5858 0.585786L15.5858 1.58579L18.4142 4.41421L19.4142 3.41421L16.5858 0.585786ZM15 3V7H19V3H15ZM17 5H16V9H17V5ZM14 7V18H18V7H14ZM14.5858 19.4142L15.5858 20.4142L18.4142 17.5858L17.4142 16.5858L14.5858 19.4142ZM15 19V22H19V19H15ZM21 22V19H17V22H21ZM20.4142 20.4142L21.4142 19.4142L18.5858 16.5858L17.5858 17.5858L20.4142 20.4142ZM22 18V7H18V18H22ZM20 5H19V9H20V5ZM21 7V3H17V7H21ZM20.4142 1.58579L19.4142 0.585786L16.5858 3.41421L17.5858 4.41421L20.4142 1.58579ZM5 24H7V20H5V24ZM11 24H13V20H11V24ZM17 24H19V20H17V24Z" fill="#555770" mask="url(#path-1-inside-1_402_16300)"/>
</svg>
