<svg width="24" height="24" viewBox="0 0 24 24" fill="none" xmlns="http://www.w3.org/2000/svg">
<mask id="path-1-inside-1_402_16388" fill="white">
<path d="M22 12C22 17.5228 17.5228 22 12 22C11.3151 22 10.6462 21.9311 10 21.8C5.43552 20.8734 2 16.8379 2 12C2 10.1801 2.48618 8.47366 3.33574 7.00361C5.06427 4.01261 8.2971 2 12 2C13.4222 2 14.7751 2.29689 16 2.83209C19.5318 4.3752 22 7.89936 22 12Z"/>
</mask>
<path d="M9.16025 15.7404L9.9923 15.1857L9.9923 15.1857L9.16025 15.7404ZM14.5 13H11.6V15H14.5V13ZM11 12.4V11.8H9V12.4H11ZM14 8.8V8.75H12V8.8H14ZM14.25 8.5H14.5V6.5H14.25V8.5ZM14.5 8.5C15.8807 8.5 17 7.38071 17 6H15C15 6.27614 14.7761 6.5 14.5 6.5V8.5ZM14 8.75C14 8.61193 14.1119 8.5 14.25 8.5V6.5C13.0074 6.5 12 7.50736 12 8.75H14ZM11.8 11C13.015 11 14 10.015 14 8.8H12C12 8.91046 11.9105 9 11.8 9V11ZM11.6 13C11.2686 13 11 12.7314 11 12.4H9C9 13.8359 10.1641 15 11.6 15V13ZM18.5 17C18.5 14.7909 16.7091 13 14.5 13V15C15.6046 15 16.5 15.8954 16.5 17H18.5ZM11 11.8C11 11.3582 11.3582 11 11.8 11V9C10.2536 9 9 10.2536 9 11.8H11ZM8.3282 16.2951C8.76625 16.9521 9 17.7242 9 18.5139H11C11 17.3293 10.6494 16.1713 9.9923 15.1857L8.3282 16.2951ZM2.50369 7.55831L8.3282 16.2951L9.9923 15.1857L4.16779 6.44891L2.50369 7.55831ZM17 6V2.83209H15V6H17ZM9 18.5139V21.8H11V18.5139H9ZM18.5 20.353V17H16.5V20.353H18.5ZM3.33574 7.00361L1.60411 6.00288L3.33574 7.00361ZM16 2.83209L16.8007 0.999382L16.8007 0.999382L16 2.83209ZM10 21.8L10.3979 19.8399L10 21.8ZM20 12C20 16.4183 16.4183 20 12 20V24C18.6274 24 24 18.6274 24 12H20ZM4 12C4 10.5407 4.3889 9.17833 5.06737 8.00434L1.60411 6.00288C0.583454 7.76898 0 9.81939 0 12H4ZM5.06737 8.00434C6.45321 5.60632 9.0402 4 12 4V0C7.554 0 3.67533 2.4189 1.60411 6.00288L5.06737 8.00434ZM12 4C13.1415 4 14.2221 4.23785 15.1993 4.66479L16.8007 0.999382C15.3281 0.355937 13.703 0 12 0V4ZM15.1993 4.66479C18.0289 5.90111 20 8.7226 20 12H24C24 7.07613 21.0347 2.84929 16.8007 0.999382L15.1993 4.66479ZM12 20C11.4494 20 10.9139 19.9447 10.3979 19.8399L9.60214 23.76C10.3786 23.9176 11.1807 24 12 24V20ZM10.3979 19.8399C6.74712 19.0989 4 15.868 4 12H0C0 17.8078 4.12392 22.648 9.60214 23.76L10.3979 19.8399Z" fill="#555770" mask="url(#path-1-inside-1_402_16388)"/>
</svg>
