<svg width="24" height="24" viewBox="0 0 24 24" fill="none" xmlns="http://www.w3.org/2000/svg">
<path d="M17.8807 4.21368C18.2289 4.43803 18.693 4.33763 18.9174 3.98944C19.1417 3.64124 19.0413 3.1771 18.6931 2.95275L17.8807 4.21368ZM5.65112 2.95275C5.30292 3.1771 5.20252 3.64124 5.42687 3.98944C5.65122 4.33763 6.11536 4.43803 6.46355 4.21368L5.65112 2.95275ZM20.3217 10.5252C20.4985 10.8998 20.9455 11.0602 21.3201 10.8834C21.6947 10.7066 21.855 10.2597 21.6783 9.88506L20.3217 10.5252ZM2.32833 9.87142C2.14403 10.2424 2.29534 10.6925 2.6663 10.8768C3.03725 11.0611 3.48737 10.9098 3.67167 10.5388L2.32833 9.87142ZM16.2487 22.75C16.6629 22.75 16.9987 22.4142 16.9987 22C16.9987 21.5858 16.6629 21.25 16.2487 21.25V22.75ZM4.3263 19.6717C4.45653 20.0649 4.88087 20.2781 5.27407 20.1479C5.66728 20.0176 5.88046 19.5933 5.75022 19.2001L4.3263 19.6717ZM12.9222 14.8205C12.9222 14.4063 12.5864 14.0705 12.1722 14.0705C11.758 14.0705 11.4222 14.4063 11.4222 14.8205H12.9222ZM18.7965 20.6987C19.2107 20.6987 19.5465 20.3629 19.5465 19.9487C19.5465 19.5345 19.2107 19.1987 18.7965 19.1987L18.7965 20.6987ZM16.5178 14.8205C16.5178 15.2347 16.8536 15.5705 17.2678 15.5705C17.682 15.5705 18.0178 15.2347 18.0178 14.8205H16.5178ZM9.74623 22.642C10.1008 22.8561 10.5618 22.7423 10.7759 22.3877C10.9901 22.0331 10.8762 21.5721 10.5216 21.358L9.74623 22.642ZM12.1722 2.75C13.6468 2.75 16.0008 3.00241 17.8807 4.21368L18.6931 2.95275C16.4545 1.51039 13.7551 1.25 12.1722 1.25V2.75ZM6.46355 4.21368C8.34348 3.00242 10.6976 2.75 12.1722 2.75V1.25C10.5893 1.25 7.8897 1.51039 5.65112 2.95275L6.46355 4.21368ZM12.1722 5.3141C15.6565 5.3141 18.7527 7.20007 20.3217 10.5252L21.6783 9.88506C19.8595 6.03069 16.2322 3.8141 12.1722 3.8141V5.3141ZM3.67167 10.5388C5.07717 7.70987 8.69252 5.3141 12.1722 5.3141V3.8141C8.10738 3.8141 3.98022 6.54654 2.32833 9.87142L3.67167 10.5388ZM19.0656 14.8205C19.0656 15.407 18.8621 15.8501 18.5627 16.1459C18.2614 16.4434 17.8197 16.6346 17.2678 16.6346V18.1346C18.1772 18.1346 19.0094 17.813 19.6167 17.2131C20.2259 16.6114 20.5656 15.7725 20.5656 14.8205H19.0656ZM17.2678 16.6346C16.9151 16.6346 16.4523 16.4645 16.0748 16.1232C15.7088 15.7923 15.47 15.3439 15.47 14.8205H13.97C13.97 15.8356 14.4422 16.6693 15.0687 17.2358C15.6837 17.7919 16.4948 18.1346 17.2678 18.1346V16.6346ZM10.3744 15.3333C10.3744 14.2054 10.7048 13.6665 11.0117 13.3962C11.3383 13.1087 11.7726 13.0064 12.1722 13.0064V11.5064C11.5526 11.5064 10.713 11.6606 10.0204 12.2705C9.30822 12.8976 8.87435 13.8972 8.87435 15.3333H10.3744ZM12.1722 13.0064C13.2587 13.0064 13.97 13.7901 13.97 14.8205H15.47C15.47 13.0187 14.143 11.5064 12.1722 11.5064V13.0064ZM8.87435 15.3333C8.87435 16.7867 9.44253 18.6191 10.6323 20.0983C11.8409 21.6008 13.7033 22.75 16.2487 22.75V21.25C14.208 21.25 12.7582 20.3479 11.8011 19.1581C10.8253 17.945 10.3744 16.4441 10.3744 15.3333H8.87435ZM20.5656 14.8205C20.5656 13.6216 19.9968 11.5465 18.7027 9.76445C17.3851 7.94985 15.267 6.3782 12.1722 6.3782V7.8782C14.6825 7.8782 16.3862 9.12707 17.489 10.6458C18.6154 12.197 19.0656 13.9682 19.0656 14.8205H20.5656ZM12.1722 6.3782C10.1769 6.3782 7.46758 7.39178 5.62526 9.56649C3.7415 11.7901 2.82781 15.1475 4.3263 19.6717L5.75022 19.2001C4.39514 15.1089 5.26493 12.3124 6.76978 10.5361C8.31607 8.71078 10.6005 7.8782 12.1722 7.8782V6.3782ZM11.4222 14.8205C11.4222 15.957 11.7036 17.452 12.8336 18.6651C13.974 19.8893 15.8588 20.6987 18.7965 20.6987L18.7965 19.1987C16.129 19.1987 14.7016 18.4697 13.9312 17.6426C13.1503 16.8044 12.9222 15.7353 12.9222 14.8205H11.4222ZM18.0178 14.8205C18.0178 13.8468 17.7337 12.4021 16.8587 11.179C15.9561 9.91743 14.4569 8.9423 12.1722 8.9423V10.4423C13.964 10.4423 15.0126 11.1766 15.6387 12.0518C16.2924 12.9655 16.5178 14.0849 16.5178 14.8205H18.0178ZM12.1722 8.9423C10.7664 8.9423 9.65714 9.29826 8.79893 9.89325C7.94551 10.4849 7.39028 11.2781 7.02996 12.0759C6.32039 13.6469 6.32652 15.3314 6.32652 15.8462H7.82652C7.82652 15.3352 7.83265 13.9428 8.39699 12.6933C8.67362 12.0808 9.07383 11.5279 9.65356 11.126C10.2285 10.7274 11.0301 10.4423 12.1722 10.4423V8.9423ZM6.32652 15.8462C6.32652 16.4432 6.46811 17.6846 6.94549 18.9886C7.42233 20.2911 8.26943 21.7503 9.74623 22.642L10.5216 21.358C9.45057 20.7112 8.76897 19.6063 8.35407 18.4729C7.93971 17.3411 7.82652 16.2748 7.82652 15.8462H6.32652Z" fill="#555770"/>
</svg>
