<svg width="24" height="24" viewBox="0 0 24 24" fill="none" xmlns="http://www.w3.org/2000/svg">
<mask id="path-1-inside-1_402_16724" fill="white">
<path d="M12 22C16.6944 22 20.5 18.3063 20.5 13.75C20.5 6.49361 15.3717 2.97129 12.6582 2.05156C12.5863 2.02718 12.5175 2.08905 12.5301 2.16395C12.964 4.74708 12.1295 10.4774 8.45624 9.99699C8.44158 9.99507 8.42695 9.98983 8.41473 9.9815C7.84048 9.59017 7.52193 8.60076 7.50109 6.92748C7.50012 6.84953 7.41482 6.80164 7.34903 6.84346C5.03113 8.3169 3.5 10.8599 3.5 13.75C3.5 18.3063 7.30558 22 12 22Z"/>
</mask>
<path d="M12.5301 2.16395L10.5577 2.49528L10.5577 2.49529L12.5301 2.16395ZM8.45624 9.99699L8.71562 8.01388L8.71561 8.01388L8.45624 9.99699ZM7.34903 6.84346L8.42196 8.53131L8.42196 8.53131L7.34903 6.84346ZM8.41473 9.9815L7.28846 11.6342L7.28847 11.6342L8.41473 9.9815ZM7.50109 6.92748L5.50125 6.95239L5.50125 6.95239L7.50109 6.92748ZM12.6582 2.05156L13.3002 0.157406L13.3002 0.157405L12.6582 2.05156ZM18.5 13.75C18.5 17.1459 15.6466 20 12 20V24C17.7423 24 22.5 19.4668 22.5 13.75H18.5ZM12 20C8.35345 20 5.5 17.1459 5.5 13.75H1.5C1.5 19.4668 6.25771 24 12 24V20ZM10.5577 2.49529C10.7209 3.46666 10.6426 5.19509 10.1527 6.54873C9.91171 7.21473 9.63072 7.62197 9.393 7.82816C9.21825 7.97973 9.04337 8.05674 8.71562 8.01388L8.19687 11.9801C9.70575 12.1774 11.0127 11.7183 12.0139 10.8499C12.9522 10.036 13.5415 8.9393 13.914 7.90988C14.6512 5.87268 14.7732 3.44437 14.5025 1.83261L10.5577 2.49529ZM5.5 13.75C5.5 11.59 6.64158 9.66305 8.42196 8.53131L6.27611 5.15561C3.42068 6.97074 1.5 10.1298 1.5 13.75H5.5ZM9.54101 8.32878C9.77077 8.48535 9.74461 8.61829 9.66352 8.35221C9.5856 8.0965 9.51011 7.6386 9.50094 6.90257L5.50125 6.95239C5.51292 7.88963 5.60712 8.76308 5.83724 9.51823C6.06421 10.263 6.48445 11.0863 7.28846 11.6342L9.54101 8.32878ZM12.0162 3.94571C14.1929 4.68352 18.5 7.60914 18.5 13.75H22.5C22.5 5.37807 16.5504 1.25905 13.3002 0.157406L12.0162 3.94571ZM8.42196 8.53131C7.11424 9.3626 5.51902 8.37952 5.50125 6.95239L9.50094 6.90257C9.48122 5.31954 7.71539 4.24069 6.2761 5.15562L8.42196 8.53131ZM8.71561 8.01388C8.98273 8.04881 9.27095 8.14474 9.541 8.32877L7.28847 11.6342C7.58296 11.8349 7.90043 11.9413 8.19688 11.9801L8.71561 8.01388ZM14.5025 1.83262C14.7237 3.14982 13.4716 4.43901 12.0162 3.94571L13.3002 0.157405C11.701 -0.384663 10.3113 1.02828 10.5577 2.49528L14.5025 1.83262Z" fill="#555770" mask="url(#path-1-inside-1_402_16724)"/>
</svg>
