<svg width="24" height="24" viewBox="0 0 24 24" fill="none" xmlns="http://www.w3.org/2000/svg">
<path d="M15 10L14.2929 9.29289L13.5858 10L14.2929 10.7071L15 10ZM19.8293 5.17071L20.5364 5.87782L19.8293 5.17071ZM5 5V2.5H3V5H5ZM4 6H19.7586V4H4V6ZM19.1222 4.4636L14.2929 9.29289L15.7071 10.7071L20.5364 5.87782L19.1222 4.4636ZM14.2929 10.7071L19.1222 15.5364L20.5364 14.1222L15.7071 9.29289L14.2929 10.7071ZM5 23V15H3V23H5ZM5 15V5H3V15H5ZM19.7586 14H4V16H19.7586V14ZM19.1222 15.5364C18.5552 14.9694 18.9568 14 19.7586 14V16C20.7386 16 21.2294 14.8152 20.5364 14.1222L19.1222 15.5364ZM19.7586 6C18.9568 6 18.5552 5.03058 19.1222 4.4636L20.5364 5.87782C21.2294 5.18485 20.7386 4 19.7586 4V6Z" fill="#555770"/>
</svg>
