<svg width="24" height="24" viewBox="0 0 24 24" fill="none" xmlns="http://www.w3.org/2000/svg">
<mask id="path-1-inside-1_402_16386" fill="white">
<path d="M22 12C22 17.5228 17.5228 22 12 22C6.47715 22 2 17.5228 2 12C2 6.47715 6.47715 2 12 2C17.5228 2 22 6.47715 22 12Z"/>
</mask>
<path d="M22 12L22.6247 12.7809L23.6008 12L22.6247 11.2191L22 12ZM12 22L11.2191 22.6247L12 23.6008L12.7809 22.6247L12 22ZM2 12L1.3753 11.2191L0.399219 12L1.3753 12.7809L2 12ZM12 2L12.7809 1.3753L12 0.399219L11.2191 1.3753L12 2ZM12.7809 22.6247C17.7501 16.4131 17.7501 7.58687 12.7809 1.3753L11.2191 2.6247C15.604 8.10583 15.604 15.8942 11.2191 21.3753L12.7809 22.6247ZM11.2191 1.3753C6.24988 7.58687 6.24988 16.4131 11.2191 22.6247L12.7809 21.3753C8.39596 15.8942 8.39596 8.10583 12.7809 2.6247L11.2191 1.3753ZM21.3753 11.2191C15.8942 15.604 8.10583 15.604 2.6247 11.2191L1.3753 12.7809C7.58687 17.7501 16.4131 17.7501 22.6247 12.7809L21.3753 11.2191ZM2.6247 12.7809C8.10583 8.39596 15.8942 8.39596 21.3753 12.7809L22.6247 11.2191C16.4131 6.24988 7.58687 6.24988 1.3753 11.2191L2.6247 12.7809ZM20 12C20 16.4183 16.4183 20 12 20V24C18.6274 24 24 18.6274 24 12H20ZM12 20C7.58172 20 4 16.4183 4 12H0C0 18.6274 5.37258 24 12 24V20ZM4 12C4 7.58172 7.58172 4 12 4V0C5.37258 0 0 5.37258 0 12H4ZM12 4C16.4183 4 20 7.58172 20 12H24C24 5.37258 18.6274 0 12 0V4Z" fill="#555770" mask="url(#path-1-inside-1_402_16386)"/>
</svg>
