<svg width="24" height="24" viewBox="0 0 24 24" fill="none" xmlns="http://www.w3.org/2000/svg">
<path d="M21 12L21.8 12.6L22.25 12L21.8 11.4L21 12ZM16.8 6.4L17.6 5.8L16.8 6.4ZM16.8 17.6L17.6 18.2L16.8 17.6ZM3 7V17H5V7H3ZM5 19H16V17H5V19ZM17.6 18.2L21.8 12.6L20.2 11.4L16 17L17.6 18.2ZM21.8 11.4L17.6 5.8L16 7L20.2 12.6L21.8 11.4ZM16 5H5V7H16V5ZM17.6 5.8C17.2223 5.29639 16.6295 5 16 5V7L16 7L17.6 5.8ZM16 19C16.6295 19 17.2223 18.7036 17.6 18.2L16 17L16 17V19ZM3 17C3 18.1046 3.89543 19 5 19V17L5 17H3ZM5 7L5 7V5C3.89543 5 3 5.89543 3 7H5Z" fill="#555770"/>
</svg>
