<svg width="24" height="24" viewBox="0 0 24 24" fill="none" xmlns="http://www.w3.org/2000/svg">
<path d="M20.5239 12.5234L21.4784 12.8217L21.4784 12.8217L20.5239 12.5234ZM19.1481 16.9261L18.1936 16.6278L18.1936 16.6278L19.1481 16.9261ZM8.5 8.65625L9.21907 9.35119L8.94951 9.63011L8.56238 9.6543L8.5 8.65625ZM12.4104 4.61012L11.6913 3.91518L11.6913 3.91518L12.4104 4.61012ZM14 8.5L14.0995 9.49504C13.745 9.53049 13.3985 9.37467 13.1897 9.08601C12.9809 8.79734 12.9415 8.4194 13.0862 8.09386L14 8.5ZM17.0005 8.19995L16.901 7.20491L16.901 7.20491L17.0005 8.19995ZM15.375 5.40614L16.2889 5.81228L16.2889 5.81228L15.375 5.40614ZM3.93762 8.9414L3.87524 7.94335L3.87524 7.94335L3.93762 8.9414ZM20.1147 9.67198L20.9467 9.11728L20.9467 9.11728L20.1147 9.67198ZM2 18V9.93945H4V18H2ZM21.4784 12.8217L20.1026 17.2244L18.1936 16.6278L19.5694 12.2252L21.4784 12.8217ZM7.78093 7.96131L11.6913 3.91518L13.1294 5.30506L9.21907 9.35119L7.78093 7.96131ZM13.8485 3H14.4612V5H13.8485V3ZM13.9005 7.50496L16.901 7.20491L17.1 9.19499L14.0995 9.49504L13.9005 7.50496ZM16.2889 5.81228L14.9138 8.90614L13.0862 8.09386L14.4612 5L16.2889 5.81228ZM3.87524 7.94335L7.93762 7.68945L8.06238 9.68555L4 9.93945L3.87524 7.94335ZM7.93762 7.68945L8.43762 7.6582L8.56238 9.6543L8.06238 9.68555L7.93762 7.68945ZM16.3272 20H8V18H16.3272V20ZM8 20H4V18H8V20ZM9 8.6875V19H7V8.6875H9ZM14.4612 3C15.9086 3 16.8767 4.4897 16.2889 5.81228L14.4612 5L14.4612 5V3ZM11.6913 3.91518C12.2565 3.33029 13.0351 3 13.8485 3V5C13.5774 5 13.3178 5.1101 13.1294 5.30506L11.6913 3.91518ZM20.1026 17.2244C19.5865 18.8757 18.0572 20 16.3272 20V18C17.1825 18 17.9385 17.4442 18.1936 16.6278L20.1026 17.2244ZM20.9467 9.11728C21.6742 10.2085 21.8696 11.57 21.4784 12.8217L19.5694 12.2252C19.7805 11.5499 19.6751 10.8154 19.2826 10.2267L20.9467 9.11728ZM19.2826 10.2267C18.8019 9.50558 17.9624 9.10875 17.1 9.19499L16.901 7.20491C18.4995 7.04507 20.0556 7.78064 20.9467 9.11728L19.2826 10.2267ZM2 9.93945C2 8.88333 2.82117 8.00923 3.87524 7.94335L4 9.93945L4 9.93945H2ZM4 18H4V20C2.89543 20 2 19.1046 2 18H4Z" fill="#555770"/>
</svg>
