<svg width="24" height="24" viewBox="0 0 24 24" fill="none" xmlns="http://www.w3.org/2000/svg">
<mask id="path-1-inside-1_402_16462" fill="white">
<path d="M2 5C2 3.89543 2.89543 3 4 3C5.10457 3 6 3.89543 6 5C6 6.10457 5.10457 7 4 7C2.89543 7 2 6.10457 2 5Z"/>
<path d="M2 12C2 10.8954 2.89543 10 4 10C5.10457 10 6 10.8954 6 12C6 13.1046 5.10457 14 4 14C2.89543 14 2 13.1046 2 12Z"/>
<path d="M2 19C2 17.8954 2.89543 17 4 17C5.10457 17 6 17.8954 6 19C6 20.1046 5.10457 21 4 21C2.89543 21 2 20.1046 2 19Z"/>
<path d="M8 5C8 3.89543 8.89543 3 10 3H20C21.1046 3 22 3.89543 22 5C22 6.10457 21.1046 7 20 7H10C8.89543 7 8 6.10457 8 5Z"/>
<path d="M8 12C8 10.8954 8.89543 10 10 10H20C21.1046 10 22 10.8954 22 12C22 13.1046 21.1046 14 20 14H10C8.89543 14 8 13.1046 8 12Z"/>
<path d="M8 19C8 17.8954 8.89543 17 10 17H20C21.1046 17 22 17.8954 22 19C22 20.1046 21.1046 21 20 21H10C8.89543 21 8 20.1046 8 19Z"/>
</mask>
<path d="M10 5H20V1H10V5ZM20 5H10V9H20V5ZM10 12H20V8H10V12ZM20 12H10V16H20V12ZM10 19H20V15H10V19ZM20 19H10V23H20V19ZM10 19H6C6 21.2091 7.79086 23 10 23V19ZM20 19V23C22.2091 23 24 21.2091 24 19H20ZM20 19H24C24 16.7909 22.2091 15 20 15V19ZM10 15C7.79086 15 6 16.7909 6 19H10V15ZM10 12H6C6 14.2091 7.79086 16 10 16V12ZM20 12V16C22.2091 16 24 14.2091 24 12H20ZM20 12H24C24 9.79086 22.2091 8 20 8V12ZM10 8C7.79086 8 6 9.79086 6 12H10V8ZM10 5H6C6 7.20914 7.79086 9 10 9V5ZM20 5V9C22.2091 9 24 7.20914 24 5H20ZM20 5H24C24 2.79086 22.2091 1 20 1V5ZM10 1C7.79086 1 6 2.79086 6 5H10V1ZM4 19H0C0 21.2091 1.79086 23 4 23V19ZM4 19V23C6.20914 23 8 21.2091 8 19H4ZM4 19H8C8 16.7909 6.20914 15 4 15V19ZM4 15C1.79086 15 0 16.7909 0 19H4V15ZM4 12H0C0 14.2091 1.79086 16 4 16V12ZM4 12V16C6.20914 16 8 14.2091 8 12H4ZM4 12H8C8 9.79086 6.20914 8 4 8V12ZM4 8C1.79086 8 0 9.79086 0 12H4V8ZM4 5H0C0 7.20914 1.79086 9 4 9V5ZM4 5V9C6.20914 9 8 7.20914 8 5H4ZM4 5H8C8 2.79086 6.20914 1 4 1V5ZM4 1C1.79086 1 0 2.79086 0 5H4V1Z" fill="#555770" mask="url(#path-1-inside-1_402_16462)"/>
</svg>
