<svg width="24" height="24" viewBox="0 0 24 24" fill="none" xmlns="http://www.w3.org/2000/svg">
<mask id="path-1-inside-1_402_16459" fill="white">
<rect x="1" y="1" width="22" height="22" rx="1"/>
</mask>
<rect x="1" y="1" width="22" height="22" rx="1" stroke="#555770" stroke-width="4" mask="url(#path-1-inside-1_402_16459)"/>
<path d="M10 7C9.44772 7 9 7.44772 9 8C9 8.55228 9.44772 9 10 9V7ZM18 9C18.5523 9 19 8.55228 19 8C19 7.44772 18.5523 7 18 7V9ZM5.98047 7C5.42818 7 4.98047 7.44772 4.98047 8C4.98047 8.55228 5.42818 9 5.98047 9L5.98047 7ZM6.5 9C7.05228 9 7.5 8.55228 7.5 8C7.5 7.44772 7.05228 7 6.5 7L6.5 9ZM10 11C9.44772 11 9 11.4477 9 12C9 12.5523 9.44772 13 10 13V11ZM18 13C18.5523 13 19 12.5523 19 12C19 11.4477 18.5523 11 18 11V13ZM5.98047 11C5.42818 11 4.98047 11.4477 4.98047 12C4.98047 12.5523 5.42818 13 5.98047 13V11ZM6.5 13C7.05228 13 7.5 12.5523 7.5 12C7.5 11.4477 7.05228 11 6.5 11V13ZM10 15C9.44772 15 9 15.4477 9 16C9 16.5523 9.44772 17 10 17V15ZM18 17C18.5523 17 19 16.5523 19 16C19 15.4477 18.5523 15 18 15V17ZM5.98047 15C5.42818 15 4.98047 15.4477 4.98047 16C4.98047 16.5523 5.42818 17 5.98047 17V15ZM6.5 17C7.05228 17 7.5 16.5523 7.5 16C7.5 15.4477 7.05228 15 6.5 15V17ZM10 9H18V7H10V9ZM5.98047 9L6.5 9L6.5 7L5.98047 7L5.98047 9ZM10 13H18V11H10V13ZM5.98047 13H6.5V11H5.98047V13ZM10 17H18V15H10V17ZM5.98047 17H6.5V15H5.98047V17Z" fill="#555770"/>
</svg>
