<svg width="24" height="24" viewBox="0 0 24 24" fill="none" xmlns="http://www.w3.org/2000/svg">
<mask id="mask0_402_16716" style="mask-type:alpha" maskUnits="userSpaceOnUse" x="0" y="0" width="24" height="24">
<path d="M12 17C14.7614 17 17 14.7614 17 12C17 9.23858 14.7614 7 12 7C11.4774 7 10.9735 7.08018 10.5 7.2289L8 0H24V24H0V0H3L9.81794 7.5C8.14985 8.31036 7 10.0209 7 12C7 14.7614 9.23858 17 12 17Z" fill="white"/>
</mask>
<g mask="url(#mask0_402_16716)">
<path d="M11 1V23H13V1H11ZM19.0711 3.51469L3.51471 19.071L4.92893 20.4853L20.4853 4.92891L19.0711 3.51469ZM23 11L1 11L1 13L23 13L23 11ZM20.4853 19.0711L4.92893 3.51474L3.51471 4.92895L19.0711 20.4853L20.4853 19.0711Z" fill="#555770"/>
</g>
</svg>
