<svg width="24" height="24" viewBox="0 0 24 24" fill="none" xmlns="http://www.w3.org/2000/svg">
<mask id="path-1-inside-1_402_16706" fill="white">
<path d="M12 7C10.3431 7 9 5.65685 9 4C9 2.34315 10.3431 1 12 1C13.6569 1 15 2.34315 15 4C15 5.65685 13.6569 7 12 7Z"/>
<path d="M12 15C10.3431 15 9 13.6569 9 12C9 10.3431 10.3431 9 12 9C13.6569 9 15 10.3431 15 12C15 13.6569 13.6569 15 12 15Z"/>
<path d="M12 23C10.3431 23 9 21.6569 9 20C9 18.3431 10.3431 17 12 17C13.6569 17 15 18.3431 15 20C15 21.6569 13.6569 23 12 23Z"/>
</mask>
<path d="M12 5C11.4477 5 11 4.55228 11 4L7 4C7 6.76142 9.23858 9 12 9L12 5ZM11 4C11 3.44772 11.4477 3 12 3L12 -1C9.23858 -1 7 1.23858 7 4L11 4ZM12 3C12.5523 3 13 3.44772 13 4L17 4C17 1.23858 14.7614 -1 12 -1L12 3ZM13 4C13 4.55228 12.5523 5 12 5L12 9C14.7614 9 17 6.76142 17 4L13 4ZM12 13C11.4477 13 11 12.5523 11 12L7 12C7 14.7614 9.23858 17 12 17L12 13ZM11 12C11 11.4477 11.4477 11 12 11L12 7C9.23858 7 7 9.23858 7 12L11 12ZM12 11C12.5523 11 13 11.4477 13 12L17 12C17 9.23858 14.7614 7 12 7L12 11ZM13 12C13 12.5523 12.5523 13 12 13L12 17C14.7614 17 17 14.7614 17 12L13 12ZM12 21C11.4477 21 11 20.5523 11 20L7 20C7 22.7614 9.23858 25 12 25L12 21ZM11 20C11 19.4477 11.4477 19 12 19L12 15C9.23858 15 7 17.2386 7 20L11 20ZM12 19C12.5523 19 13 19.4477 13 20L17 20C17 17.2386 14.7614 15 12 15L12 19ZM13 20C13 20.5523 12.5523 21 12 21L12 25C14.7614 25 17 22.7614 17 20L13 20Z" fill="#555770" mask="url(#path-1-inside-1_402_16706)"/>
</svg>
