<svg width="24" height="24" viewBox="0 0 24 24" fill="none" xmlns="http://www.w3.org/2000/svg">
<path d="M5.75 12C5.75 12.6904 5.19036 13.25 4.5 13.25C3.80964 13.25 3.25 12.6904 3.25 12C3.25 11.3096 3.80964 10.75 4.5 10.75C5.19036 10.75 5.75 11.3096 5.75 12ZM13.25 12C13.25 12.6904 12.6904 13.25 12 13.25C11.3096 13.25 10.75 12.6904 10.75 12C10.75 11.3096 11.3096 10.75 12 10.75C12.6904 10.75 13.25 11.3096 13.25 12ZM20.75 12C20.75 12.6904 20.1904 13.25 19.5 13.25C18.8096 13.25 18.25 12.6904 18.25 12C18.25 11.3096 18.8096 10.75 19.5 10.75C20.1904 10.75 20.75 11.3096 20.75 12Z" stroke="#555770" stroke-width="2.5"/>
</svg>
