<svg width="24" height="24" viewBox="0 0 24 24" fill="none" xmlns="http://www.w3.org/2000/svg">
<path d="M8 12L8.5547 12.8321L9 12.5352V12H8ZM16 12H15V12.5352L15.4453 12.8321L16 12ZM5.29006 13.8066L5.84476 14.6387L5.29006 13.8066ZM6 5H8V3H6V5ZM7 4V12H9V4H7ZM7.4453 11.1679L4.73536 12.9746L5.84476 14.6387L8.5547 12.8321L7.4453 11.1679ZM19.2646 12.9746L16.5547 11.1679L15.4453 12.8321L18.1552 14.6387L19.2646 12.9746ZM8 5H16V3H8V5ZM16 5H18V3H16V5ZM17 12V4H15V12H17ZM5.65139 16H12V14H5.65139V16ZM12 16H18.3486V14H12V16ZM11 15V22H13V15H11ZM20 14.3486C20 13.7965 19.7241 13.2809 19.2646 12.9746L18.1552 14.6387C18.0583 14.574 18 14.4652 18 14.3486H20ZM18 14.3486C18 14.1561 18.1561 14 18.3486 14V16C19.2606 16 20 15.2606 20 14.3486H18ZM4 14.3486C4 15.2606 4.73935 16 5.65139 16V14C5.84392 14 6 14.1561 6 14.3486H4ZM4.73536 12.9746C4.27595 13.2809 4 13.7965 4 14.3486H6C6 14.4652 5.94175 14.574 5.84476 14.6387L4.73536 12.9746Z" fill="#555770"/>
</svg>
