<svg width="24" height="24" viewBox="0 0 24 24" fill="none" xmlns="http://www.w3.org/2000/svg">
<mask id="mask0_402_16349" style="mask-type:alpha" maskUnits="userSpaceOnUse" x="3" y="3" width="18" height="18">
<path d="M7 17V7H17V17H7Z" fill="white"/>
<path d="M5 5V3H3V5H5Z" fill="white"/>
<path d="M9 5V3H7V5H9Z" fill="white"/>
<path d="M13 5V3H11V5H13Z" fill="white"/>
<path d="M17 5V3H15V5H17Z" fill="white"/>
<path d="M21 5V3H19V5H21Z" fill="white"/>
<path d="M5 21V19H3V21H5Z" fill="white"/>
<path d="M9 21V19H7V21H9Z" fill="white"/>
<path d="M13 21V19H11V21H13Z" fill="white"/>
<path d="M17 21V19H15V21H17Z" fill="white"/>
<path d="M21 21V19H19V21H21Z" fill="white"/>
<path d="M5 9V7H3V9H5Z" fill="white"/>
<path d="M5 13V11H3V13H5Z" fill="white"/>
<path d="M5 17V15H3V17H5Z" fill="white"/>
<path d="M21 9V7H19V9H21Z" fill="white"/>
<path d="M21 13V11H19V13H21Z" fill="white"/>
<path d="M21 17V15H19V17H21Z" fill="white"/>
</mask>
<g mask="url(#mask0_402_16349)">
<path d="M8 8V7H7V8H8ZM8 16H7V17H8V16ZM16 16V17H17V16H16ZM16 8H17V7H16V8ZM3 5V19H5V5H3ZM5 21H19V19H5V21ZM21 19V5H19V19H21ZM19 3H5V5H19V3ZM7 8V16H9V8H7ZM8 17H16V15H8V17ZM17 16V8H15V16H17ZM16 7H8V9H16V7ZM21 5C21 3.89543 20.1046 3 19 3V5L19 5H21ZM19 21C20.1046 21 21 20.1046 21 19H19L19 19V21ZM3 19C3 20.1046 3.89543 21 5 21V19L5 19H3ZM5 5L5 5V3C3.89543 3 3 3.89543 3 5H5Z" fill="#555770"/>
</g>
</svg>
