<svg width="24" height="24" viewBox="0 0 24 24" fill="none" xmlns="http://www.w3.org/2000/svg">
<path d="M9.97844 5.84894L10.2879 6.79986C10.6437 6.68407 10.9051 6.37933 10.9654 6.01004L9.97844 5.84894ZM10.4435 3V2C9.95336 2 9.53548 2.3552 9.45653 2.8389L10.4435 3ZM9.97844 18.1511L10.9654 17.99C10.9051 17.6207 10.6437 17.3159 10.2879 17.2001L9.97844 18.1511ZM10.4435 21L9.45653 21.1611C9.53548 21.6448 9.95336 22 10.4435 22V21ZM3.42749 15.152L2.79451 14.3778C2.41508 14.6881 2.31641 15.2275 2.56146 15.652L3.42749 15.152ZM4.98401 17.848L4.11799 18.348C4.36304 18.7724 4.87959 18.9567 5.33797 18.7832L4.98401 17.848ZM4.98401 6.15199L5.33947 5.2173C4.8808 5.04287 4.36334 5.22702 4.11799 5.65199L4.98401 6.15199ZM3.42749 8.84796L2.56146 8.34796C2.31641 8.77241 2.41508 9.3119 2.79451 9.62213L3.42749 8.84796ZM7.67077 7.17374L7.31531 8.10843C7.66369 8.24092 8.05684 8.16866 8.33534 7.92096L7.67077 7.17374ZM5.64017 10.6571L6.61842 10.8646C6.69604 10.4985 6.56282 10.1198 6.27316 9.88296L5.64017 10.6571ZM5.64017 13.3428L6.27315 14.117C6.56282 13.8802 6.69603 13.5014 6.61842 13.1354L5.64017 13.3428ZM7.67462 16.8297L8.33861 16.0819C8.06055 15.835 7.66845 15.7628 7.32067 15.8944L7.67462 16.8297ZM14.0216 18.1511L13.7121 17.2001C13.3563 17.3159 13.0949 17.6207 13.0346 17.99L14.0216 18.1511ZM13.5565 21V22C14.0466 22 14.4645 21.6448 14.5435 21.1611L13.5565 21ZM14.0216 5.84894L13.0346 6.01004C13.0949 6.37933 13.3563 6.68407 13.7121 6.79986L14.0216 5.84894ZM13.5565 3L14.5435 2.8389C14.4645 2.3552 14.0466 2 13.5565 2V3ZM20.5725 8.84801L21.2055 9.62218C21.5849 9.31195 21.6836 8.77245 21.4385 8.34801L20.5725 8.84801ZM19.016 6.15204L19.882 5.65204C19.637 5.22759 19.1204 5.0433 18.662 5.21677L19.016 6.15204ZM19.016 17.848L18.6605 18.7827C19.1192 18.9571 19.6367 18.773 19.882 18.348L19.016 17.848ZM20.5725 15.152L21.4385 15.652C21.6836 15.2276 21.5849 14.6881 21.2055 14.3779L20.5725 15.152ZM16.3292 16.8263L16.6847 15.8916C16.3363 15.7591 15.9432 15.8313 15.6647 16.079L16.3292 16.8263ZM18.3598 13.3429L17.3816 13.1354C17.304 13.5015 17.4372 13.8802 17.7268 14.117L18.3598 13.3429ZM18.3598 10.6572L17.7268 9.883C17.4372 10.1198 17.304 10.4986 17.3816 10.8646L18.3598 10.6572ZM16.3254 7.17031L15.6614 7.91806C15.9394 8.16497 16.3315 8.2372 16.6793 8.10558L16.3254 7.17031ZM14 12C14 13.1046 13.1046 14 12 14V16C14.2091 16 16 14.2091 16 12H14ZM12 14C10.8954 14 10 13.1046 10 12H8C8 14.2091 9.79086 16 12 16V14ZM10 12C10 10.8954 10.8954 10 12 10V8C9.79086 8 8 9.79086 8 12H10ZM12 10C13.1046 10 14 10.8954 14 12H16C16 9.79086 14.2091 8 12 8V10ZM10.9654 6.01004L11.4304 3.1611L9.45653 2.8389L8.9915 5.68785L10.9654 6.01004ZM8.9915 18.3122L9.45653 21.1611L11.4304 20.8389L10.9654 17.99L8.9915 18.3122ZM2.56146 15.652L4.11799 18.348L5.85004 17.348L4.29352 14.652L2.56146 15.652ZM4.11799 5.65199L2.56146 8.34796L4.29352 9.34796L5.85004 6.65199L4.11799 5.65199ZM8.33534 7.92096C8.89572 7.42256 9.55861 7.03718 10.2879 6.79986L9.66899 4.89803C8.67271 5.22224 7.76898 5.7481 7.00619 6.42651L8.33534 7.92096ZM4.62856 7.08668L7.31531 8.10843L8.02622 6.23904L5.33947 5.2173L4.62856 7.08668ZM6.49999 12C6.49999 11.6097 6.54093 11.23 6.61842 10.8646L4.66192 10.4497C4.55569 10.9507 4.49999 11.4694 4.49999 12H6.49999ZM6.27316 9.88296L4.06047 8.0738L2.79451 9.62213L5.00719 11.4313L6.27316 9.88296ZM5.00719 12.5687L2.79451 14.3778L4.06047 15.9262L6.27315 14.117L5.00719 12.5687ZM4.49999 12C4.49999 12.5306 4.55569 13.0493 4.66192 13.5503L6.61842 13.1354C6.54093 12.77 6.49999 12.3903 6.49999 12H4.49999ZM7.01064 17.5774C7.77249 18.2539 8.67464 18.7784 9.66899 19.102L10.2879 17.2001C9.56003 16.9633 8.8983 16.5789 8.33861 16.0819L7.01064 17.5774ZM7.32067 15.8944L4.63006 16.9127L5.33797 18.7832L8.02858 17.7649L7.32067 15.8944ZM13.0346 17.99L12.5696 20.8389L14.5435 21.1611L15.0085 18.3122L13.0346 17.99ZM15.0085 5.68784L14.5435 2.8389L12.5696 3.1611L13.0346 6.01004L15.0085 5.68784ZM21.4385 8.34801L19.882 5.65204L18.15 6.65204L19.7065 9.34801L21.4385 8.34801ZM19.882 18.348L21.4385 15.652L19.7065 14.652L18.15 17.348L19.882 18.348ZM15.6647 16.079C15.1043 16.5774 14.4414 16.9628 13.7121 17.2001L14.331 19.102C15.3273 18.7778 16.231 18.2519 16.9938 17.5735L15.6647 16.079ZM19.3714 16.9133L16.6847 15.8916L15.9738 17.761L18.6605 18.7827L19.3714 16.9133ZM17.5 12C17.5 12.3903 17.4591 12.77 17.3816 13.1354L19.3381 13.5503C19.4443 13.0493 19.5 12.5306 19.5 12H17.5ZM17.7268 14.117L19.9395 15.9262L21.2055 14.3779L18.9928 12.5687L17.7268 14.117ZM18.9928 11.4313L21.2055 9.62218L19.9395 8.07384L17.7268 9.883L18.9928 11.4313ZM19.5 12C19.5 11.4694 19.4443 10.9507 19.3381 10.4497L17.3816 10.8646C17.4591 11.23 17.5 11.6097 17.5 12H19.5ZM16.9894 6.42257C16.2275 5.74606 15.3254 5.22161 14.331 4.89803L13.7121 6.79986C14.44 7.03672 15.1017 7.42107 15.6614 7.91806L16.9894 6.42257ZM16.6793 8.10558L19.3699 7.0873L18.662 5.21677L15.9714 6.23505L16.6793 8.10558ZM10.4435 4H13.5565V2H10.4435V4ZM10.4435 22H13.5565V20H10.4435V22Z" fill="#555770"/>
</svg>
