<svg width="24" height="24" viewBox="0 0 24 24" fill="none" xmlns="http://www.w3.org/2000/svg">
<mask id="path-1-inside-1_402_16548" fill="white">
<path d="M4 6.8198C4 6.34312 4.33646 5.93271 4.80388 5.83922L4.83975 5.83205C7.22477 5.35505 9.43873 4.26673 11.2683 2.68131C11.6856 2.31962 12.3144 2.31962 12.7317 2.68131C14.5613 4.26673 16.7752 5.35505 19.1602 5.83205L19.1961 5.83922C19.6635 5.93271 20 6.34312 20 6.8198V10.7679C20 16.0724 16.8598 20.8738 12 23C7.1402 20.8738 4 16.0724 4 10.7679V6.8198Z"/>
</mask>
<path d="M12 23L11.1984 24.8323L12 25.183L12.8016 24.8323L12 23ZM19.1602 5.83205L19.5525 3.87089L19.5525 3.87089L19.1602 5.83205ZM4.83975 5.83205L4.44752 3.87089L4.44752 3.87089L4.83975 5.83205ZM12.7317 2.68131L11.422 4.19276L12.7317 2.68131ZM4.80388 5.83922L4.41165 3.87806L4.80388 5.83922ZM18 6.8198V10.7679H22V6.8198H18ZM6 10.7679V6.8198H2V10.7679H6ZM2 10.7679C2 16.867 5.61059 22.3877 11.1984 24.8323L12.8016 21.1677C8.66981 19.36 6 15.2778 6 10.7679H2ZM18 10.7679C18 15.2778 15.3302 19.36 11.1984 21.1677L12.8016 24.8323C18.3894 22.3877 22 16.867 22 10.7679H18ZM5.19612 7.80038L5.23198 7.79321L4.44752 3.87089L4.41165 3.87806L5.19612 7.80038ZM18.768 7.79321L18.8039 7.80038L19.5883 3.87806L19.5525 3.87089L18.768 7.79321ZM11.422 4.19276C13.5126 6.00447 16.0426 7.24812 18.768 7.79321L19.5525 3.87089C17.5079 3.46197 15.6099 2.52899 14.0415 1.16987L11.422 4.19276ZM5.23198 7.79321C7.95743 7.24812 10.4874 6.00447 12.578 4.19276L9.95847 1.16987C8.39008 2.52899 6.49211 3.46197 4.44752 3.87089L5.23198 7.79321ZM22 6.8198C22 5.38976 20.9906 4.15852 19.5883 3.87806L18.8039 7.80038C18.3365 7.7069 18 7.29649 18 6.8198H22ZM14.0415 1.16987C12.8725 0.156774 11.1275 0.156772 9.95847 1.16987L12.578 4.19276C12.2437 4.48248 11.7563 4.48248 11.422 4.19276L14.0415 1.16987ZM6 6.8198C6 7.29648 5.66354 7.7069 5.19612 7.80038L4.41165 3.87806C3.00938 4.15852 2 5.38976 2 6.8198H6Z" fill="#555770" mask="url(#path-1-inside-1_402_16548)"/>
<path d="M12.8105 13.403L13.5521 14.0739L13.5521 14.0739L12.8105 13.403ZM10.2412 10.7506C10.2412 9.75511 11.0657 9 12.03 9V7C10.0578 7 8.24121 8.55627 8.24121 10.7506H10.2412ZM12.03 9C12.9659 9 13.7589 9.72778 13.7589 10.7506H15.7589C15.7589 8.5836 14.0304 7 12.03 7V9ZM13.7589 10.7506C13.7589 11.0159 13.6793 11.1845 13.418 11.453C13.2656 11.6096 13.0907 11.7598 12.8446 11.9784C12.6121 12.1848 12.3402 12.4322 12.0689 12.7321L13.5521 14.0739C13.7474 13.858 13.9524 13.6694 14.1727 13.4737C14.3794 13.2902 14.6333 13.0719 14.8513 12.8479C15.3309 12.355 15.7589 11.7133 15.7589 10.7506H13.7589ZM12.0689 12.7321C11.6901 13.1508 11.4382 13.6535 11.2811 14.0861C11.1276 14.5085 11.03 14.9604 11.03 15.3186H13.03C13.03 15.2675 13.0569 15.0553 13.1609 14.769C13.2612 14.493 13.3995 14.2425 13.5521 14.0739L12.0689 12.7321ZM11.03 16.335V18.0017H13.03V16.335H11.03Z" fill="#555770"/>
</svg>
