<svg width="24" height="24" viewBox="0 0 24 24" fill="none" xmlns="http://www.w3.org/2000/svg">
<mask id="mask0_402_16433" style="mask-type:alpha" maskUnits="userSpaceOnUse" x="0" y="0" width="24" height="24">
<path d="M19.7839 19.7807L4 3.99675H0V24H24V0H5.69812V2.86644L21.1981 18.3664L19.7839 19.7807Z" fill="white"/>
</mask>
<g mask="url(#mask0_402_16433)">
<path d="M3.52441 4.94153L19.0244 20.4415" stroke="#555770" stroke-width="2"/>
<path d="M20.1818 12C20.1818 16.5187 16.5187 20.1818 12 20.1818M20.1818 12C20.1818 7.48131 16.5187 3.81818 12 3.81818M20.1818 12H23M12 20.1818C7.48131 20.1818 3.81818 16.5187 3.81818 12M12 20.1818V23M3.81818 12C3.81818 7.48131 7.48131 3.81818 12 3.81818M3.81818 12H1M12 3.81818V1" stroke="#555770" stroke-width="2"/>
</g>
</svg>
