<svg width="24" height="24" viewBox="0 0 24 24" fill="none" xmlns="http://www.w3.org/2000/svg">
<g clip-path="url(#clip0_402_19088)">
<path d="M6.5 6V5L5.79289 6.70711L6.5 6ZM13 12.5L13.7071 13.2071L14.4142 12.5L13.7071 11.7929L13 12.5ZM6.5 19L5.79289 18.2929L6.5 20V19ZM18 5H6.5V7H18V5ZM5.79289 6.70711L12.2929 13.2071L13.7071 11.7929L7.20711 5.29289L5.79289 6.70711ZM12.2929 11.7929L5.79289 18.2929L7.20711 19.7071L13.7071 13.2071L12.2929 11.7929ZM6.5 20H18V18H6.5V20Z" fill="#555770"/>
<mask id="mask0_402_19088" style="mask-type:alpha" maskUnits="userSpaceOnUse" x="1" y="12" width="22" height="12">
<rect x="23" y="12.5093" width="11.4907" height="22" transform="rotate(90 23 12.5093)" fill="black"/>
</mask>
<g mask="url(#mask0_402_19088)">
<path d="M6.5 6V5L5.79289 6.70711L6.5 6ZM13 12.5L13.7071 13.2071L14.4142 12.5L13.7071 11.7929L13 12.5ZM6.5 19L5.79289 18.2929L6.5 20V19ZM18 5H6.5V7H18V5ZM5.79289 6.70711L12.2929 13.2071L13.7071 11.7929L7.20711 5.29289L5.79289 6.70711ZM12.2929 11.7929L5.79289 18.2929L7.20711 19.7071L13.7071 13.2071L12.2929 11.7929ZM6.5 20H18V18H6.5V20Z" fill="#3E7BFA"/>
</g>
</g>
<defs>
<clipPath id="clip0_402_19088">
<rect width="24" height="24" fill="white"/>
</clipPath>
</defs>
</svg>
