<svg width="24" height="24" viewBox="0 0 24 24" fill="none" xmlns="http://www.w3.org/2000/svg">
<mask id="mask0_402_19021" style="mask-type:alpha" maskUnits="userSpaceOnUse" x="3" y="3" width="18" height="18">
<path d="M3 3H5V19H3V3Z" fill="white"/>
<path d="M3 19H5V21H3V19Z" fill="white"/>
<path d="M19 15H21V17H19V15Z" fill="white"/>
<path d="M19 11H21V13H19V11Z" fill="white"/>
<path d="M19 7H21V9H19V7Z" fill="white"/>
<path d="M7 3H9V5H7V3Z" fill="white"/>
<path d="M11 3H13V5H11V3Z" fill="white"/>
<path d="M15 3H17V5H15V3Z" fill="white"/>
<path d="M19 3H21V5H19V3Z" fill="white"/>
<path d="M5 19H21V21H5V19Z" fill="white"/>
</mask>
<g mask="url(#mask0_402_19021)">
<path d="M20 12V20H12H4V12V4H12H20V12Z" stroke="#3E7BFA" stroke-width="2"/>
</g>
<mask id="mask1_402_19021" style="mask-type:alpha" maskUnits="userSpaceOnUse" x="2" y="2" width="20" height="20">
<path d="M6 2H2V22H22V18H6V2Z" fill="black"/>
</mask>
<g mask="url(#mask1_402_19021)">
<mask id="mask2_402_19021" style="mask-type:alpha" maskUnits="userSpaceOnUse" x="3" y="3" width="18" height="18">
<path d="M3 3H5V19H3V3Z" fill="white"/>
<path d="M3 19H5V21H3V19Z" fill="white"/>
<path d="M19 15H21V17H19V15Z" fill="white"/>
<path d="M19 11H21V13H19V11Z" fill="white"/>
<path d="M19 7H21V9H19V7Z" fill="white"/>
<path d="M7 3H9V5H7V3Z" fill="white"/>
<path d="M11 3H13V5H11V3Z" fill="white"/>
<path d="M15 3H17V5H15V3Z" fill="white"/>
<path d="M19 3H21V5H19V3Z" fill="white"/>
<path d="M5 19H21V21H5V19Z" fill="white"/>
</mask>
<g mask="url(#mask2_402_19021)">
<path d="M20 12V20H12H4V12V4H12H20V12Z" stroke="#555770" stroke-width="2"/>
</g>
</g>
</svg>
