<svg width="24" height="24" viewBox="0 0 24 24" fill="none" xmlns="http://www.w3.org/2000/svg">
<mask id="mask0_402_18992" style="mask-type:alpha" maskUnits="userSpaceOnUse" x="3" y="3" width="18" height="18">
<path d="M3 3H5V20.5H3V3Z" fill="white"/>
<path d="M3 20.5H5V21H3V20.5Z" fill="white"/>
<path d="M11 15H13V17H11V15Z" fill="white"/>
<path d="M19 15H21V17H19V15Z" fill="white"/>
<path d="M7 11H9V13H7V11Z" fill="white"/>
<path d="M11 11H13V13H11V11Z" fill="white"/>
<path d="M15 11H17V13H15V11Z" fill="white"/>
<path d="M19 11H21V13H19V11Z" fill="white"/>
<path d="M11 7H13V9H11V7Z" fill="white"/>
<path d="M19 7H21V9H19V7Z" fill="white"/>
<path d="M7 3H9V5H7V3Z" fill="white"/>
<path d="M7 19H9V21H7V19Z" fill="white"/>
<path d="M11 3H13V5H11V3Z" fill="white"/>
<path d="M11 19H13V21H11V19Z" fill="white"/>
<path d="M15 3H17V5H15V3Z" fill="white"/>
<path d="M15 19H17V21H15V19Z" fill="white"/>
<path d="M19 3H21V5H19V3Z" fill="white"/>
<path d="M19 19H21V21H19V19Z" fill="white"/>
</mask>
<g mask="url(#mask0_402_18992)">
<path d="M20 12V20H12H4V12V4H12H20V12Z" stroke="#3E7BFA" stroke-width="2"/>
<path d="M4 3V12V21" stroke="#555770" stroke-width="2"/>
</g>
</svg>
