<svg width="24" height="24" viewBox="0 0 24 24" fill="none" xmlns="http://www.w3.org/2000/svg">
<path d="M11.5 6.08535V3.1C11.5 3.04477 11.5448 3 11.6 3H12.4C12.4552 3 12.5 3.04477 12.5 3.1V6.08535M11 8.61805L6 22M13 8.61805L18 22M17 11.899C15.7295 13.1955 13.9587 14 12 14C10.0413 14 8.27052 13.1955 7 11.899" stroke="#555770" stroke-width="2"/>
<path d="M17 11.899C15.7295 13.1955 13.9587 14 12 14C10.0413 14 8.27052 13.1955 7 11.899M10.5 7.5C10.5 6.84689 10.9174 6.29127 11.5 6.08535C11.6564 6.03008 11.8247 6 12 6C12.1753 6 12.3436 6.03008 12.5 6.08535C13.0826 6.29127 13.5 6.84689 13.5 7.5C13.5 7.94425 13.3069 8.34339 13 8.61805C12.7346 8.85557 12.3842 9 12 9C11.6158 9 11.2654 8.85557 11 8.61805C10.6931 8.34339 10.5 7.94425 10.5 7.5Z" stroke="#3E7BFA" stroke-width="2"/>
</svg>
