<svg width="23" height="24" viewBox="0 0 23 24" fill="none" xmlns="http://www.w3.org/2000/svg">
<path d="M19.2633 14.435C18.8728 14.8255 18.8728 15.4587 19.2633 15.8492C19.6538 16.2398 20.287 16.2398 20.6775 15.8492L19.2633 14.435ZM20.6775 8.77821C20.287 8.38769 19.6538 8.38769 19.2633 8.77821C18.8728 9.16873 18.8728 9.8019 19.2633 10.1924L20.6775 8.77821ZM20.6775 15.8492L22.0917 14.435L20.6775 13.0208L19.2633 14.435L20.6775 15.8492ZM22.0917 10.1924L20.6775 8.77821L19.2633 10.1924L20.6775 11.6066L22.0917 10.1924ZM22.0917 14.435C23.2633 13.2635 23.2633 11.364 22.0917 10.1924L20.6775 11.6066C21.068 11.9971 21.068 12.6303 20.6775 13.0208L22.0917 14.435Z" fill="#3E7BFA"/>
<path d="M3.70738 10.1924C4.09791 9.8019 4.09791 9.16874 3.70738 8.77821C3.31686 8.38769 2.6837 8.38769 2.29317 8.77821L3.70738 10.1924ZM2.29317 15.8492C2.6837 16.2398 3.31686 16.2398 3.70738 15.8492C4.09791 15.4587 4.09791 14.8255 3.70739 14.435L2.29317 15.8492ZM2.29317 8.77821L0.878983 10.1924L2.2932 11.6066L3.70738 10.1924L2.29317 8.77821ZM0.878982 14.435L2.29317 15.8492L3.70739 14.435L2.2932 13.0208L0.878982 14.435ZM0.878983 10.1924C-0.292589 11.364 -0.292591 13.2635 0.878982 14.435L2.2932 13.0208C1.90267 12.6303 1.90267 11.9971 2.2932 11.6066L0.878983 10.1924Z" fill="#3E7BFA"/>
<path d="M13.6066 4.53551C13.9972 4.92603 14.6303 4.92603 15.0209 4.53551C15.4114 4.14499 15.4114 3.51182 15.0209 3.1213L13.6066 4.53551ZM7.94984 3.1213C7.55932 3.51182 7.55932 4.14499 7.94984 4.53551C8.34037 4.92603 8.97353 4.92603 9.36405 4.53551L7.94984 3.1213ZM15.0209 3.1213L13.6067 1.70711L12.1925 3.12132L13.6066 4.53551L15.0209 3.1213ZM9.36403 1.70711L7.94984 3.1213L9.36405 4.53551L10.7782 3.12132L9.36403 1.70711ZM13.6067 1.70711C12.4351 0.535532 10.5356 0.535535 9.36403 1.70711L10.7782 3.12132C11.1688 2.7308 11.8019 2.7308 12.1925 3.12132L13.6067 1.70711Z" fill="#3E7BFA"/>
<path d="M9.36406 20.0917C8.97353 19.7012 8.34037 19.7012 7.94984 20.0917C7.55932 20.4822 7.55932 21.1154 7.94984 21.5059L9.36406 20.0917ZM15.0209 21.5059C15.4114 21.1154 15.4114 20.4822 15.0209 20.0917C14.6303 19.7012 13.9972 19.7012 13.6066 20.0917L15.0209 21.5059ZM7.94984 21.5059L9.36403 22.9201L10.7782 21.5059L9.36406 20.0917L7.94984 21.5059ZM13.6067 22.9201L15.0209 21.5059L13.6066 20.0917L12.1925 21.5059L13.6067 22.9201ZM9.36403 22.9201C10.5356 24.0917 12.4351 24.0917 13.6067 22.9201L12.1925 21.5059C11.8019 21.8964 11.1688 21.8964 10.7782 21.5059L9.36403 22.9201Z" fill="#3E7BFA"/>
<path d="M13.6066 14.4351C12.4351 15.6066 10.5356 15.6066 9.36405 14.4351C8.19249 13.2635 8.19249 11.3641 9.36405 10.1925C10.5356 9.02093 12.4351 9.02093 13.6066 10.1925C14.7782 11.3641 14.7782 13.2635 13.6066 14.4351Z" stroke="#555770" stroke-width="2"/>
</svg>
