<svg width="24" height="24" viewBox="0 0 24 24" fill="none" xmlns="http://www.w3.org/2000/svg">
<path d="M12 2.5C7.58172 2.5 4 5.58172 4 10C4 11.4066 4.36303 12.7285 5.00052 13.8769C5.28613 14.3915 5.40098 14.995 5.23196 15.5587C4.86713 16.7755 5.77994 18 7.05027 18C7.57446 18 8 18.4249 8 18.9491V20C8 20.5523 8.44772 21 9 21H15C15.5523 21 16 20.5523 16 20V18.9491C16 18.4249 16.4255 18 16.9497 18C18.2201 18 19.1329 16.7755 18.768 15.5587C18.599 14.995 18.7139 14.3915 18.9995 13.8769C19.637 12.7285 20 11.4066 20 10C20 5.58172 16.4183 2.5 12 2.5Z" stroke="#3E7BFA" stroke-width="2"/>
<path d="M10.5037 17.187C10.4205 16.2043 11.4628 15.3235 11.999 15.0028C12.5352 15.3235 13.5776 16.2043 13.4943 17.187C13.39 18.4189 12.1639 18.059 11.9943 17.3669C11.8248 18.059 10.6081 18.4189 10.5037 17.187Z" fill="#555770"/>
<path d="M10 12.75C10 13.4404 9.44036 14 8.75 14C8.05964 14 7.5 13.4404 7.5 12.75C7.5 12.0596 8.05964 11.5 8.75 11.5C9.44036 11.5 10 12.0596 10 12.75Z" fill="#555770"/>
<path d="M16.5 12.75C16.5 13.4404 15.9404 14 15.25 14C14.5596 14 14 13.4404 14 12.75C14 12.0596 14.5596 11.5 15.25 11.5C15.9404 11.5 16.5 12.0596 16.5 12.75Z" fill="#555770"/>
<path d="M10 12.75C10 13.4404 9.44036 14 8.75 14C8.05964 14 7.5 13.4404 7.5 12.75C7.5 12.0596 8.05964 11.5 8.75 11.5C9.44036 11.5 10 12.0596 10 12.75Z" stroke="#555770" stroke-width="2"/>
<path d="M16.5 12.75C16.5 13.4404 15.9404 14 15.25 14C14.5596 14 14 13.4404 14 12.75C14 12.0596 14.5596 11.5 15.25 11.5C15.9404 11.5 16.5 12.0596 16.5 12.75Z" stroke="#555770" stroke-width="2"/>
</svg>
