<svg width="24" height="24" viewBox="0 0 24 24" fill="none" xmlns="http://www.w3.org/2000/svg">
<mask id="path-1-inside-1_402_18427" fill="white">
<path d="M2.5 21V19H21.5V21H2.5Z"/>
</mask>
<path d="M2.5 19V16H-0.5V19H2.5ZM2.5 21H-0.5V24H2.5V21ZM21.5 21V24H24.5V21H21.5ZM21.5 19H24.5V16H21.5V19ZM-0.5 19V21H5.5V19H-0.5ZM2.5 24H21.5V18H2.5V24ZM24.5 21V19H18.5V21H24.5ZM21.5 16H2.5V22H21.5V16Z" fill="#3E7BFA" mask="url(#path-1-inside-1_402_18427)"/>
<path d="M11.6126 10.2856V6.2103L13.3761 11.9788L13.6161 12.7639L11.6126 12.2249V10.2856ZM19.7229 14.4069L16.7339 13.6027L19.7256 14.3968C19.7265 14.3971 19.7271 14.3972 19.7275 14.3974C19.7279 14.3978 19.7283 14.3984 19.7288 14.3993C19.7293 14.4002 19.7296 14.4009 19.7298 14.4013C19.7297 14.4018 19.7296 14.4024 19.7293 14.4033C19.7291 14.4041 19.7289 14.4047 19.7288 14.4051C19.7284 14.4055 19.7278 14.4059 19.7269 14.4064C19.726 14.4069 19.7253 14.4072 19.7248 14.4074C19.7244 14.4073 19.7238 14.4072 19.7229 14.4069Z" stroke="#555770" stroke-width="3"/>
</svg>
