<svg width="24" height="24" viewBox="0 0 24 24" fill="none" xmlns="http://www.w3.org/2000/svg">
<mask id="mask0_402_18430" style="mask-type:alpha" maskUnits="userSpaceOnUse" x="0" y="0" width="24" height="24">
<path d="M19.7839 19.7807L4 3.99675H0V24H24V0H5.69812V2.86644L21.1981 18.3664L19.7839 19.7807Z" fill="white"/>
</mask>
<g mask="url(#mask0_402_18430)">
<path d="M11.2605 10.2929L12 9.85792L12.7395 10.2929L17.5671 13.1327L13.9232 12.061L12 11.4953L10.0768 12.061L6.43294 13.1327L11.2605 10.2929Z" stroke="#555770" stroke-width="3"/>
<mask id="mask1_402_18430" style="mask-type:alpha" maskUnits="userSpaceOnUse" x="2" y="1" width="10" height="22">
<rect width="10" height="22" transform="matrix(-1 0 0 1 12 1)" fill="black"/>
</mask>
<g mask="url(#mask1_402_18430)">
<path d="M11.2605 10.2929L12 9.85792L12.7395 10.2929L17.5671 13.1327L13.9232 12.061L12 11.4953L10.0768 12.061L6.43294 13.1327L11.2605 10.2929Z" stroke="#3E7BFA" stroke-width="3"/>
<path d="M3.52441 4.94153L19.0244 20.4415" stroke="#555770" stroke-width="2"/>
</g>
</g>
</svg>
