<svg width="24" height="24" viewBox="0 0 24 24" fill="none" xmlns="http://www.w3.org/2000/svg">
<path d="M12.2936 10.4083L10.1905 6.9176L14.6779 10.9486L15.2886 11.4972L13.2943 12.0694L12.2936 10.4083ZM21.3673 9.75306L18.3916 10.6068L21.3644 9.743C21.3653 9.74276 21.3659 9.74261 21.3663 9.74251C21.3668 9.74267 21.3675 9.74295 21.3684 9.74345C21.3693 9.74395 21.37 9.74441 21.3703 9.74472C21.3705 9.74515 21.3707 9.74577 21.3709 9.74661C21.3712 9.74745 21.3713 9.74807 21.3714 9.74851C21.3712 9.74896 21.371 9.74968 21.3705 9.75058C21.37 9.75148 21.3695 9.75209 21.3692 9.75246C21.3688 9.75261 21.3682 9.75282 21.3673 9.75306Z" stroke="#555770" stroke-width="3"/>
<mask id="path-2-inside-1_402_18424" fill="white">
<path d="M2.5 21V19H21.5V21H2.5Z"/>
</mask>
<path d="M2.5 19V16H-0.5V19H2.5ZM2.5 21H-0.5V24H2.5V21ZM21.5 21V24H24.5V21H21.5ZM21.5 19H24.5V16H21.5V19ZM-0.5 19V21H5.5V19H-0.5ZM2.5 24H21.5V18H2.5V24ZM24.5 21V19H18.5V21H24.5ZM21.5 16H2.5V22H21.5V16Z" fill="#3E7BFA" mask="url(#path-2-inside-1_402_18424)"/>
</svg>
