<svg width="24" height="24" viewBox="0 0 24 24" fill="none" xmlns="http://www.w3.org/2000/svg">
<path d="M13.1951 10.8048C12.5152 10.1249 12.5152 9.02258 13.1951 8.34269C13.875 7.66279 14.9774 7.66279 15.6573 8.34269M15.6573 15.7291C16.3754 17.0628 16.7653 20.2841 12.5797 22.5L10.3976 20.3179L12.2442 18.4713M8.5 16.7311L5.99803 19.233L5.38248 18.6175L4.76692 18.0019L7.26889 15.5M8.27086 8.34269C7.21392 9.39962 6.29986 10.5453 5.52867 11.7558L3.68207 13.6024L1.5 11.4203C3.71592 7.23473 6.93721 7.62457 8.27086 8.34269Z" stroke="#3E7BFA" stroke-width="2"/>
<path d="M13.1953 10.8048C13.8752 11.4847 14.9776 11.4848 15.6575 10.8049C16.3374 10.125 16.3373 9.02262 15.6574 8.34272M14.9357 3.92785C12.51 4.90517 10.2369 6.3768 8.271 8.34272C7.21406 9.39966 6.3 10.5454 5.52881 11.7558L7.26903 15.5L8.50014 16.7311L12.2443 18.4713C13.4548 17.7002 14.6005 16.7861 15.6575 15.7292C17.6234 13.7632 19.095 11.4902 20.0723 9.06446M14.9357 3.92785C17.0424 3.07907 19.2643 2.60312 21.5001 2.5C21.397 4.73585 20.9211 6.95776 20.0723 9.06446M14.9357 3.92785L20.0723 9.06446" stroke="#555770" stroke-width="2"/>
</svg>
