<svg width="12" height="12" viewBox="0 0 12 12" fill="none" xmlns="http://www.w3.org/2000/svg">
<g clip-path="url(#clip0_406_2117)">
<path d="M4.20711 11.2071C3.81658 11.5976 3.18342 11.5976 2.79289 11.2071C2.40237 10.8166 2.40237 10.1834 2.79289 9.79289L4.20711 11.2071ZM8 6L8.70711 5.29289C9.09763 5.68342 9.09763 6.31658 8.70711 6.70711L8 6ZM2.79289 2.20711C2.40237 1.81658 2.40237 1.18342 2.79289 0.792893C3.18342 0.402369 3.81658 0.402369 4.20711 0.792893L2.79289 2.20711ZM2.79289 9.79289L7.29289 5.29289L8.70711 6.70711L4.20711 11.2071L2.79289 9.79289ZM7.29289 6.70711L2.79289 2.20711L4.20711 0.792893L8.70711 5.29289L7.29289 6.70711Z" fill="#3E7BFA"/>
</g>
<defs>
<clipPath id="clip0_406_2117">
<rect width="12" height="12" fill="white" transform="translate(0 12) rotate(-90)"/>
</clipPath>
</defs>
</svg>
