<svg width="24" height="24" viewBox="0 0 24 24" fill="none" xmlns="http://www.w3.org/2000/svg">
<path d="M20 13C20 17.4183 16.4183 21 12 21C7.58172 21 4 17.4183 4 13C4 8.58172 7.58172 5 12 5C16.4183 5 20 8.58172 20 13Z" stroke="#555770" stroke-width="2"/>
<path fill-rule="evenodd" clip-rule="evenodd" d="M11.0567 10.0953L11.2737 8.75H12.7263L12.9433 10.0953C13.3451 10.2277 13.7099 10.4422 14.0183 10.7193L15.2737 10.2385L16 11.5116L14.9675 12.3659C15.0104 12.5705 15.033 12.7826 15.033 13C15.033 13.2174 15.0104 13.4296 14.9675 13.6341L16 14.4885L15.2737 15.7616L14.0201 15.2791C13.7114 15.5569 13.3459 15.7721 12.9433 15.9047L12.7263 17.25H11.2737L11.0567 15.9047C10.6549 15.7723 10.2901 15.5578 9.98175 15.2807L8.72628 15.7615L8 14.4884L9.03245 13.6341C8.98959 13.4295 8.96704 13.2174 8.96704 13C8.96704 12.7826 8.98959 12.5704 9.03245 12.3659L8 11.5115L8.72628 10.2384L9.97995 10.7209C10.2886 10.4431 10.6541 10.2279 11.0567 10.0953ZM12 14.4167C12.7731 14.4167 13.3999 13.7824 13.3999 13C13.3999 12.2176 12.7731 11.5833 12 11.5833C11.2269 11.5833 10.6002 12.2176 10.6002 13C10.6002 13.7824 11.2269 14.4167 12 14.4167Z" fill="#3E7BFA"/>
<mask id="mask0_402_18910" style="mask-type:alpha" maskUnits="userSpaceOnUse" x="0" y="1" width="24" height="12">
<path d="M12 2C5.92487 2 1 6.92487 1 13H0V1H24V13H23C23 6.92487 18.0751 2 12 2Z" fill="white"/>
</mask>
<g mask="url(#mask0_402_18910)">
<path d="M9 6C9 8.20914 7.20914 10 5 10C2.79086 10 1 8.20914 1 6C1 3.79086 2.79086 2 5 2C7.20914 2 9 3.79086 9 6Z" fill="#3E7BFA"/>
<path d="M23 6C23 8.20914 21.2091 10 19 10C16.7909 10 15 8.20914 15 6C15 3.79086 16.7909 2 19 2C21.2091 2 23 3.79086 23 6Z" fill="#3E7BFA"/>
</g>
</svg>
