<svg width="24" height="24" viewBox="0 0 24 24" fill="none" xmlns="http://www.w3.org/2000/svg">
<path d="M21.4142 12.0674L22.1213 12.7745L22.1213 12.7745L21.4142 12.0674ZM21.4142 5.89586L22.1213 5.18875L22.1213 5.18875L21.4142 5.89586ZM18.661 5.28506L18.1465 4.42757L18.661 5.28506ZM21.1042 5.58583L20.3971 6.29294L20.3971 6.29294L21.1042 5.58583ZM21.1042 12.3775L20.3971 11.6704L20.3971 11.6704L21.1042 12.3775ZM18.661 12.6782L18.1423 13.5332L18.1465 13.5357L18.661 12.6782ZM2.58579 12.0674L3.29289 11.3603H3.29289L2.58579 12.0674ZM5.33902 5.28506L4.82453 6.14255L5.33902 5.28506ZM2.89582 12.3775L2.18871 13.0846H2.18871L2.89582 12.3775ZM5.33902 12.6782L5.85352 13.5357L5.85768 13.5332L5.33902 12.6782ZM10 11.2141L10.5007 10.3485L10 11.2141ZM11 6.48165H13V4.48165H11V6.48165ZM10 9.48165V7.48164H8V9.48165H10ZM15.5145 8.33914L19.1755 6.14255L18.1465 4.42757L14.4855 6.62415L15.5145 8.33914ZM20.3971 6.29294L20.7071 6.60297L22.1213 5.18875L21.8113 4.87872L20.3971 6.29294ZM21 7.31007V7.62307H23V7.31007H21ZM21 10.3402V10.6532H23V10.3402H21ZM20.7071 11.3603L20.3971 11.6704L21.8113 13.0846L22.1213 12.7745L20.7071 11.3603ZM19.1796 11.8232L15.3255 9.48523L14.2882 11.1952L18.1423 13.5332L19.1796 11.8232ZM21 10.6532C21 10.9184 20.8946 11.1728 20.7071 11.3603L22.1213 12.7745C22.6839 12.2119 23 11.4489 23 10.6532H21ZM20.9452 10.1081C20.9812 10.1802 21 10.2597 21 10.3402H23C23 9.94916 22.909 9.56348 22.7341 9.21372L20.9452 10.1081ZM20.9452 7.85515C20.5906 8.56429 20.5906 9.39899 20.9452 10.1081L22.7341 9.21372C22.661 9.06763 22.661 8.89567 22.7341 8.74957L20.9452 7.85515ZM21 7.62307C21 7.70364 20.9812 7.78309 20.9452 7.85515L22.7341 8.74957C22.909 8.3998 23 8.01412 23 7.62307H21ZM20.7071 6.60297C20.8946 6.7905 21 7.04485 21 7.31007H23C23 6.51442 22.6839 5.75136 22.1213 5.18875L20.7071 6.60297ZM13 6.48165C13.5523 6.48165 14 6.92936 14 7.48165H16C16 5.82479 14.6569 4.48165 13 4.48165V6.48165ZM19.1755 6.14255C19.569 5.90647 20.0726 5.96847 20.3971 6.29294L21.8113 4.87872C20.8379 3.90532 19.3269 3.71931 18.1465 4.42757L19.1755 6.14255ZM20.3971 11.6704C20.0726 11.9948 19.569 12.0568 19.1755 11.8207L18.1465 13.5357C19.3269 14.244 20.8379 14.058 21.8113 13.0846L20.3971 11.6704ZM11 4.48165C9.34315 4.48165 8 5.82479 8 7.48164H10C10 6.92936 10.4477 6.48165 11 6.48165V4.48165ZM16 9.48165V7.48165H14V9.48165H16ZM9.5145 6.62415L5.85352 4.42757L4.82453 6.14255L8.4855 8.33914L9.5145 6.62415ZM2.18871 4.87872L1.87868 5.18875L3.29289 6.60297L3.60292 6.29294L2.18871 4.87872ZM1 7.31007V7.62307H3V7.31007H1ZM1 10.3402V10.6532H3V10.3402H1ZM1.87868 12.7745L2.18871 13.0846L3.60292 11.6704L3.29289 11.3603L1.87868 12.7745ZM5.85768 13.5332L9.7118 11.1952L8.67449 9.48523L4.82036 11.8232L5.85768 13.5332ZM1 10.6532C1 11.4489 1.31607 12.2119 1.87868 12.7745L3.29289 11.3603C3.10536 11.1728 3 10.9184 3 10.6532H1ZM1.26593 9.21372C1.09105 9.56348 1 9.94916 1 10.3402H3C3 10.2597 3.01876 10.1802 3.05478 10.1081L1.26593 9.21372ZM1.26593 8.74957C1.33898 8.89567 1.33898 9.06762 1.26593 9.21372L3.05478 10.1081C3.40936 9.399 3.40936 8.56429 3.05478 7.85515L1.26593 8.74957ZM1 7.62307C1 8.01413 1.09105 8.39981 1.26593 8.74957L3.05478 7.85515C3.01876 7.78309 3 7.70364 3 7.62307H1ZM1.87868 5.18875C1.31607 5.75136 1 6.51442 1 7.31007H3C3 7.04486 3.10536 6.7905 3.29289 6.60297L1.87868 5.18875ZM5.85352 4.42757C4.67309 3.71931 3.16211 3.90532 2.18871 4.87872L3.60292 6.29294C3.92739 5.96847 4.43105 5.90647 4.82453 6.14255L5.85352 4.42757ZM2.18871 13.0846C3.16211 14.058 4.67309 14.244 5.85352 13.5357L4.82452 11.8207C4.43105 12.0568 3.92739 11.9948 3.60292 11.6704L2.18871 13.0846ZM13 10.4816H11V12.4816H13V10.4816ZM11 10.4816C10.8162 10.4816 10.6468 10.433 10.5007 10.3485L9.49927 12.0797C9.94155 12.3355 10.4552 12.4816 11 12.4816V10.4816ZM10.5007 10.3485C10.1992 10.1741 10 9.85053 10 9.48165H8C8 10.5933 8.60518 11.5625 9.49927 12.0797L10.5007 10.3485ZM9.08988 10.7997L5.08988 19.5856L6.91012 20.4144L10.9101 11.6284L9.08988 10.7997ZM13 12.4816C13.5448 12.4816 14.0584 12.3355 14.5007 12.0797L13.4993 10.3485C13.3532 10.433 13.1838 10.4816 13 10.4816V12.4816ZM14.5007 12.0797C15.3948 11.5625 16 10.5933 16 9.48165H14C14 9.85053 13.8008 10.1741 13.4993 10.3485L14.5007 12.0797ZM13.0899 11.6284L17.0899 20.4144L18.9101 19.5856L14.9101 10.7997L13.0899 11.6284Z" fill="#28293D"/>
</svg>
