<svg width="24" height="24" viewBox="0 0 24 24" fill="none" xmlns="http://www.w3.org/2000/svg">
<path d="M15.9999 6.25472L15.4278 7.0749V7.07491L15.9999 6.25472ZM17.7452 8.00003L16.925 8.57213L17.7452 8.00003ZM17.7417 1.67853L16.8071 1.32281V1.32281L17.7417 1.67853ZM18.5092 1.51426L17.884 2.29475V2.29475L18.5092 1.51426ZM21.1009 2.24259L21.2385 3.23308L21.1009 2.24259ZM22.3214 6.25828L22.6771 7.19287L22.3214 6.25828ZM22.4857 5.49077L21.7052 6.11593V6.11593L22.4857 5.49077ZM21.7574 2.89902L22.7478 3.03661V3.0366L21.7574 2.89902ZM7.99991 17.7453L8.57201 16.9252L7.99991 17.7453ZM6.2546 16L7.07478 15.4279L6.2546 16ZM6.25815 22.3215L7.19275 22.6772L6.25815 22.3215ZM5.49065 22.4858L6.11581 21.7053H6.11581L5.49065 22.4858ZM2.89889 21.7575L2.76131 20.767L2.89889 21.7575ZM1.67841 17.7418L1.32269 16.8072H1.32269L1.67841 17.7418ZM1.51414 18.5093L2.29463 17.8841H2.29463L1.51414 18.5093ZM2.24246 21.101L1.25197 20.9635H1.25197L2.24246 21.101ZM7.13853 6.96346L6.44397 6.24402L7.13853 6.96346ZM11.1624 5.04961L11.044 4.05664L11.1624 5.04961ZM11.9999 6.00003C13.276 6.00003 14.4564 6.39729 15.4278 7.0749L16.572 5.43453C15.2758 4.5304 13.6983 4.00003 11.9999 4.00003V6.00003ZM15.4278 7.07491C16.0108 7.48155 16.5184 7.98915 16.925 8.57213L18.5654 7.42793C18.0239 6.65161 17.3483 5.97604 16.572 5.43453L15.4278 7.07491ZM16.925 8.57213C17.6026 9.54359 17.9999 10.7239 17.9999 12H19.9999C19.9999 10.3016 19.4695 8.72414 18.5654 7.42793L16.925 8.57213ZM16.9345 6.61044L18.6763 2.03425L16.8071 1.32281L15.0653 5.899L16.9345 6.61044ZM17.884 2.29475C18.6123 2.87808 19.782 3.43539 21.2385 3.23308L20.9633 1.2521C20.1868 1.35997 19.5532 1.06926 19.1343 0.733764L17.884 2.29475ZM18.1009 8.93462L22.6771 7.19287L21.9657 5.32368L17.3895 7.06544L18.1009 8.93462ZM23.2662 4.86561C22.9307 4.44675 22.64 3.81317 22.7478 3.03661L20.7669 2.76143C20.5645 4.2179 21.1219 5.38767 21.7052 6.11593L23.2662 4.86561ZM22.6771 7.19287C23.2085 6.99064 23.4875 6.53315 23.5691 6.11734C23.6492 5.7095 23.5659 5.23981 23.2662 4.86561L21.7052 6.11593C21.6024 5.98765 21.5843 5.84567 21.6066 5.73208C21.6304 5.61053 21.7288 5.41384 21.9657 5.32368L22.6771 7.19287ZM21.2385 3.23308C21.0316 3.26181 20.91 3.16832 20.8708 3.12914C20.8316 3.08996 20.7381 2.96831 20.7669 2.76143L22.7478 3.0366C22.825 2.48139 22.5774 2.00733 22.285 1.71493C21.9926 1.42252 21.5185 1.17497 20.9633 1.2521L21.2385 3.23308ZM18.6763 2.03425C18.5861 2.27111 18.3894 2.36951 18.2679 2.39338C18.1543 2.41567 18.0123 2.39751 17.884 2.29475L19.1343 0.733765C18.7601 0.434035 18.2904 0.350771 17.8826 0.430832C17.4668 0.512457 17.0093 0.791484 16.8071 1.32281L18.6763 2.03425ZM11.9999 18C10.7238 18 9.54346 17.6028 8.57201 16.9252L7.42781 18.5655C8.72402 19.4697 10.3015 20 11.9999 20V18ZM8.57201 16.9252C7.98903 16.5185 7.48143 16.0109 7.07478 15.4279L5.43441 16.5721C5.97591 17.3484 6.65149 18.024 7.42781 18.5655L8.57201 16.9252ZM7.07478 15.4279C6.39717 14.4565 5.99991 13.2761 5.99991 12H3.99991C3.99991 13.6984 4.53028 15.2759 5.43441 16.5721L7.07478 15.4279ZM7.06532 17.3896L5.32356 21.9658L7.19275 22.6772L8.9345 18.1011L7.06532 17.3896ZM6.11581 21.7053C5.38755 21.122 4.21778 20.5647 2.76131 20.767L3.03648 22.748C3.81305 22.6401 4.44663 22.9308 4.86548 23.2663L6.11581 21.7053ZM5.89888 15.0654L1.32269 16.8072L2.03413 18.6764L6.61032 16.9346L5.89888 15.0654ZM0.733642 19.1345C1.06914 19.5533 1.35985 20.1869 1.25197 20.9635L3.23295 21.2386C3.43527 19.7822 2.87796 18.6124 2.29463 17.8841L0.733642 19.1345ZM1.32269 16.8072C0.791363 17.0094 0.512335 17.4669 0.43071 17.8827C0.350649 18.2906 0.433912 18.7603 0.733642 19.1345L2.29463 17.8841C2.39738 18.0124 2.41555 18.1544 2.39325 18.268C2.36939 18.3895 2.27099 18.5862 2.03413 18.6764L1.32269 16.8072ZM2.76131 20.767C2.96819 20.7382 3.08984 20.8317 3.12902 20.8709C3.1682 20.9101 3.26169 21.0318 3.23295 21.2386L1.25197 20.9635C1.17485 21.5187 1.42239 21.9927 1.7148 22.2851C2.00721 22.5775 2.48127 22.8251 3.03648 22.748L2.76131 20.767ZM5.32356 21.9658C5.41371 21.7289 5.61041 21.6305 5.73196 21.6067C5.84554 21.5844 5.98752 21.6026 6.11581 21.7053L4.86548 23.2663C5.23969 23.566 5.70938 23.6493 6.11722 23.5692C6.53303 23.4876 6.99052 23.2086 7.19275 22.6772L5.32356 21.9658ZM17.5 12C14.4624 12 12 9.5376 12 6.50003H10C10 10.6422 13.3579 14 17.5 14V12ZM15.5 16C11.3579 16 8 12.6422 8 8.50003H6C6 13.7467 10.2533 18 15.5 18V16ZM8 8.50003C8 8.0359 8.04204 7.58246 8.12226 7.14307L6.15479 6.78384C6.05303 7.3412 6 7.91486 6 8.50003H8ZM5.99991 12C5.99991 10.3048 6.70162 8.77524 7.83309 7.68289L6.44397 6.24402C4.93827 7.69766 3.99991 9.74013 3.99991 12H5.99991ZM7.83309 7.68289C8.75155 6.79618 9.94971 6.20128 11.2808 6.04258L11.044 4.05664C9.26492 4.26876 7.66588 5.06435 6.44397 6.24402L7.83309 7.68289ZM11.2808 6.04258C11.5162 6.01451 11.7562 6.00003 11.9999 6.00003V4.00003C11.6768 4.00003 11.3578 4.01923 11.044 4.05664L11.2808 6.04258ZM12 6.50003C12 6.07674 12.0476 5.6658 12.1374 5.27182L10.1874 4.8274C10.0646 5.36618 10 5.92617 10 6.50003H12ZM18.7281 11.8626C18.3342 11.9524 17.9233 12 17.5 12V14C18.0738 14 18.6338 13.9354 19.1725 13.8126L18.7281 11.8626ZM17.9999 12C17.9999 12.2438 17.9854 12.4838 17.9573 12.7192L19.9433 12.956C19.9807 12.6422 19.9999 12.3231 19.9999 12H17.9999ZM17.9573 12.7192C17.7986 14.0503 17.2037 15.2485 16.3169 16.167L17.7558 17.5561C18.9355 16.3342 19.7311 14.7352 19.9433 12.956L17.9573 12.7192ZM16.3169 16.167C15.2246 17.2984 13.6951 18 11.9999 18V20C14.2597 20 16.3021 19.0617 17.7558 17.5561L16.3169 16.167ZM16.8568 15.8778C16.4174 15.958 15.9641 16 15.5 16V18C16.0851 18 16.6587 17.947 17.2159 17.8453L16.8568 15.8778Z" fill="#28293D"/>
</svg>
