<svg width="24" height="24" viewBox="0 0 24 24" fill="none" xmlns="http://www.w3.org/2000/svg">
<path d="M15.415 5.11612L14.7018 5.81704L15.415 5.11612ZM17.6273 2.86494L16.914 3.56585L17.6273 2.86494ZM17.6273 11.8697L18.3402 12.5709L18.3405 12.5706L17.6273 11.8697ZM15.415 9.61849L16.128 10.3197L16.1283 10.3194L15.415 9.61849ZM8.45977 16.6902L7.74681 15.989L8.45977 16.6902ZM12.4598 4.27426L12.7002 5.24492L12.4598 4.27426ZM12.4598 12.6232L11.7468 11.922L12.4598 12.6232ZM5.02868 20.3189L5.74192 19.618H5.74192L5.02868 20.3189ZM5.0287 20.1787L5.74166 20.8799L5.0287 20.1787ZM8.84717 2.93503L9.56042 2.23412L8.84717 2.93503ZM8.84776 2.79533L9.55022 3.50705L8.84776 2.79533ZM7.10071 22.4275L6.38746 23.1284H6.38746L7.10071 22.4275ZM7.24333 22.4275L7.95629 23.1287L7.24333 22.4275ZM10.9192 5.04354L10.206 5.74445L10.9192 5.04354ZM11.063 5.04467L11.7537 5.76783L11.063 5.04467ZM8.13392 3.63594L10.206 5.74445L11.6325 4.34263L9.56042 2.23412L8.13392 3.63594ZM18.3405 12.5706C21.1664 9.69493 21.1664 5.03968 18.3405 2.16403L16.914 3.56585C18.9752 5.66338 18.9752 9.07124 16.914 11.1688L18.3405 12.5706ZM4.31543 21.0198L6.38746 23.1284L7.81396 21.7265L5.74192 19.618L4.31543 21.0198ZM14.7018 5.81704C15.5412 6.67126 15.5412 8.06335 14.7018 8.91758L16.1283 10.3194C17.7324 8.68704 17.7324 6.04757 16.1283 4.41521L14.7018 5.81704ZM7.74681 15.989L4.31575 19.4775L5.74166 20.8799L9.17272 17.3914L7.74681 15.989ZM7.45977 16.6902V21.1907H9.45977V16.6902H7.45977ZM7.95629 23.1287L9.17272 21.8919L7.74681 20.4895L6.53038 21.7263L7.95629 23.1287ZM12.3396 0.0520208C10.81 0.237103 9.32815 0.916141 8.1453 2.0836L9.55022 3.50705C10.4097 2.6588 11.4785 2.1708 12.5799 2.03754L12.3396 0.0520208ZM11.4598 1.04478V4.27426H13.4598V1.04478H11.4598ZM11.7537 5.76783C12.0313 5.50269 12.3581 5.32967 12.7002 5.24492L12.2193 3.3036C11.5458 3.47045 10.9068 3.81104 10.3723 4.32152L11.7537 5.76783ZM12.7002 5.24492C13.3941 5.07303 14.1562 5.26183 14.7018 5.81704L16.1283 4.41521C15.0712 3.33957 13.5776 2.96712 12.2193 3.3036L12.7002 5.24492ZM14.7021 8.91728L11.7468 11.922L13.1727 13.3244L16.128 10.3197L14.7021 8.91728ZM11.7468 11.922L7.74681 15.989L9.17272 17.3914L13.1727 13.3244L11.7468 11.922ZM11.4598 12.6232V17.1237H13.4598V12.6232H11.4598ZM9.17272 21.8919L13.1727 17.8249L11.7468 16.4225L7.74681 20.4895L9.17272 21.8919ZM13.1727 17.8249L18.3402 12.5709L16.9143 11.1685L11.7468 16.4225L13.1727 17.8249ZM18.3405 2.16403C17.9251 1.74128 17.4704 1.37946 16.9875 1.07946L15.932 2.77829C16.2803 2.99468 16.6104 3.2569 16.914 3.56585L18.3405 2.16403ZM16.9875 1.07946C15.5746 0.201622 13.9313 -0.140565 12.3396 0.0520208L12.5799 2.03754C13.7291 1.89849 14.9138 2.1457 15.932 2.77829L16.9875 1.07946ZM15.4598 1.92888V12.9644H17.4598V1.92888H15.4598ZM5.74192 19.618C6.08613 19.9683 6.08601 20.5298 5.74166 20.8799L4.31575 19.4775C3.89487 19.9054 3.89473 20.5917 4.31543 21.0198L5.74192 19.618ZM9.56042 2.23412C9.90239 2.58211 9.91023 3.15172 9.55022 3.50705L8.1453 2.0836C7.70763 2.51557 7.71549 3.21014 8.13392 3.63594L9.56042 2.23412ZM6.38746 23.1284C6.81841 23.5669 7.52515 23.5671 7.95629 23.1287L6.53038 21.7263C6.88313 21.3676 7.46137 21.3677 7.81396 21.7265L6.38746 23.1284ZM10.206 5.74445C10.6428 6.18899 11.333 6.16967 11.7537 5.76783L10.3723 4.32152C10.7122 3.99691 11.274 3.97786 11.6325 4.34263L10.206 5.74445Z" fill="#28293D"/>
</svg>
