<svg width="24" height="24" viewBox="0 0 24 24" fill="none" xmlns="http://www.w3.org/2000/svg">
<path d="M13.5 6.1404L13.3136 7.12288L13.5 6.1404ZM7.5367 12.7833L8.24806 13.4861L7.5367 12.7833ZM16.0734 12.7832L15.362 13.4861L16.0734 12.7832ZM19.981 14.5558L20.9786 14.6243L19.981 14.5558ZM5 14C5 10.5837 7.4483 7.73712 10.6864 7.12288L10.3136 5.15792C6.14912 5.9479 3 9.60512 3 14H5ZM10.6864 7.12288C11.1111 7.0423 11.5502 7 12 7V5C11.4245 5 10.8606 5.05415 10.3136 5.15792L10.6864 7.12288ZM11.5 6.1404C11.5 5.26166 11.5109 4.6591 11.639 4.26263C11.6938 4.09328 11.7447 4.05103 11.7518 4.04538C11.7565 4.04171 11.7685 4.03282 11.7993 4.02334C11.8325 4.0131 11.8953 4 12 4V2C11.4522 2 10.9379 2.14038 10.5138 2.47463C10.0991 2.80149 9.86874 3.23677 9.73598 3.64747C9.48914 4.41109 9.5 5.37874 9.5 6.1404H11.5ZM12 7C12.4498 7 12.8889 7.0423 13.3136 7.12288L13.6864 5.15792C13.1394 5.05415 12.5755 5 12 5V7ZM13.3136 7.12288C16.5517 7.73712 19 10.5837 19 14H21C21 9.60512 17.8509 5.9479 13.6864 5.15792L13.3136 7.12288ZM12 4C12.1047 4 12.1675 4.0131 12.2007 4.02334C12.2315 4.03282 12.2435 4.04171 12.2482 4.04538C12.2553 4.05103 12.3062 4.09328 12.361 4.26263C12.4891 4.6591 12.5 5.26166 12.5 6.1404H14.5C14.5 5.37874 14.5109 4.41109 14.264 3.64747C14.1313 3.23677 13.9009 2.80149 13.4862 2.47463C13.0621 2.14038 12.5478 2 12 2V4ZM13 3V0H11V3H13ZM11.805 12C13.1969 12 14.4544 12.5674 15.362 13.4861L16.7848 12.0804C15.5168 10.7971 13.7531 10 11.805 10V12ZM8.24806 13.4861C9.15567 12.5674 10.4132 12 11.805 12V10C9.85698 10 8.09324 10.7971 6.82533 12.0804L8.24806 13.4861ZM6.82533 12.0804C6.05514 12.86 5.03317 13.3861 3.89319 13.5279L4.1401 15.5126C5.74091 15.3135 7.17287 14.5743 8.24806 13.4861L6.82533 12.0804ZM12 21C8.28733 21 5.24908 18.1091 5.01459 14.4562L3.0187 14.5843C3.32032 19.283 7.22569 23 12 23V21ZM5.01459 14.4562C5.00492 14.3055 5 14.1534 5 14H3C3 14.1962 3.00629 14.391 3.0187 14.5843L5.01459 14.4562ZM20.0402 13.5575C18.7697 13.4822 17.6267 12.9326 16.7848 12.0804L15.362 13.4861C16.5378 14.6761 18.1401 15.4484 19.9218 15.554L20.0402 13.5575ZM19 14C19 14.164 18.9944 14.3265 18.9833 14.4873L20.9786 14.6243C20.9928 14.4179 21 14.2097 21 14H19ZM18.9833 14.4873C18.7337 18.1255 15.7021 21 12 21V23C16.7608 23 20.6575 19.3041 20.9786 14.6243L18.9833 14.4873Z" fill="#28293D"/>
</svg>
