<svg width="24" height="24" viewBox="0 0 24 24" fill="none" xmlns="http://www.w3.org/2000/svg">
<path d="M20 9V21H22V9H20ZM4 21L4.00005 9.00001L2.00005 9L2 21L4 21ZM4.00005 9.00001L12 9L12 7L4.00005 7.00001L4.00005 9.00001ZM12 9L20 9L20 7L12 7L12 9ZM20 21H12V23H20V21ZM12 21H4V23H12V21ZM11 8L11 22L13 22L13 8.00001L11 8ZM4.00005 9.00001V9.00001L4.00005 7.00001C2.89548 7.00001 2.00005 7.89543 2.00005 9L4.00005 9.00001ZM22 9C22 7.89543 21.1046 7 20 7L20 9H22ZM2 21C2 22.1046 2.89543 23 4 23V21L2 21ZM20 21V21V23C21.1046 23 22 22.1046 22 21H20Z" fill="#28293D"/>
<path d="M16.4142 6.41421C15.6332 7.19526 14.3668 7.19526 13.5858 6.41421L12.1716 7.82843C13.7337 9.39052 16.2663 9.39052 17.8284 7.82843L16.4142 6.41421ZM13.5858 6.41421C12.8047 5.63316 12.8047 4.36683 13.5858 3.58579L12.1716 2.17157C10.6095 3.73367 10.6095 6.26633 12.1716 7.82843L13.5858 6.41421ZM13.5858 3.58579C14.3668 2.80474 15.6332 2.80474 16.4142 3.58579L17.8284 2.17157C16.2663 0.609476 13.7337 0.609476 12.1716 2.17157L13.5858 3.58579ZM16.4142 3.58579C17.1953 4.36683 17.1953 5.63316 16.4142 6.41421L17.8284 7.82843C19.3905 6.26633 19.3905 3.73367 17.8284 2.17157L16.4142 3.58579ZM12.1716 7.82843L17.2929 12.9497L18.7071 11.5355L13.5858 6.41421L12.1716 7.82843ZM6.17157 7.82843C7.73367 9.39052 10.2663 9.39052 11.8284 7.82843L10.4142 6.41421C9.63316 7.19526 8.36684 7.19526 7.58579 6.41421L6.17157 7.82843ZM11.8284 7.82843C13.3905 6.26633 13.3905 3.73367 11.8284 2.17157L10.4142 3.58579C11.1953 4.36683 11.1953 5.63316 10.4142 6.41421L11.8284 7.82843ZM11.8284 2.17157C10.2663 0.609476 7.73367 0.609476 6.17157 2.17157L7.58579 3.58579C8.36684 2.80474 9.63316 2.80474 10.4142 3.58579L11.8284 2.17157ZM6.17157 2.17157C4.60948 3.73367 4.60948 6.26633 6.17157 7.82843L7.58579 6.41421C6.80474 5.63316 6.80474 4.36683 7.58579 3.58579L6.17157 2.17157ZM10.4142 6.41421L5.29289 11.5355L6.70711 12.9497L11.8284 7.82843L10.4142 6.41421Z" fill="#28293D"/>
</svg>
