<svg width="24" height="24" viewBox="0 0 24 24" fill="none" xmlns="http://www.w3.org/2000/svg">
<path d="M19.1801 6.30438L20.1219 5.96805L19.1801 6.30438ZM18.9542 13.6069L19.8733 14.0009L18.9542 13.6069ZM18.621 4.73881L19.5627 4.40247L18.621 4.73881ZM9.29386 4.47149L8.33234 4.19677L9.29386 4.47149ZM8.272 8.048L7.31047 7.77328L8.272 8.048ZM17 17.5V21H19V17.5H17ZM17 21H7V23H17V21ZM7 21V18H5V21H7ZM7 18H8V16H7V18ZM8.76822 16.3598L4.90925 11.729L3.37281 13.0094L7.23178 17.6402L8.76822 16.3598ZM6.41342 9.52523L6.74449 9.63559L7.37695 7.73822L7.04588 7.62787L6.41342 9.52523ZM9.23352 8.32273L10.2554 4.74621L8.33234 4.19677L7.31047 7.77328L9.23352 8.32273ZM12.4265 3.31109L16.0438 3.76326L16.2919 1.77871L12.6746 1.32654L12.4265 3.31109ZM17.6793 5.07515L18.2384 6.64072L20.1219 5.96805L19.5627 4.40247L17.6793 5.07515ZM8 18H17.5V16H8V18ZM18.035 13.213L16.5809 16.6061L18.4191 17.3939L19.8733 14.0009L18.035 13.213ZM18.2384 6.64072C19.002 8.77872 18.9293 11.1263 18.035 13.213L19.8733 14.0009C20.9663 11.4504 21.0551 8.58116 20.1219 5.96805L18.2384 6.64072ZM16.0438 3.76326C16.7929 3.85689 17.4254 4.36427 17.6793 5.07515L19.5627 4.40247C19.055 2.98071 17.79 1.96596 16.2919 1.77871L16.0438 3.76326ZM10.2554 4.74621C10.5263 3.79799 11.448 3.18878 12.4265 3.31109L12.6746 1.32654C10.7175 1.0819 8.87417 2.30033 8.33234 4.19677L10.2554 4.74621ZM6.74449 9.63559C7.79662 9.9863 8.92884 9.3891 9.23352 8.32273L7.31047 7.77328C7.31861 7.7448 7.34885 7.72886 7.37695 7.73822L6.74449 9.63559ZM4.82072 10.0717C5.16767 9.55127 5.82003 9.32744 6.41342 9.52523L7.04588 7.62787C5.59687 7.14486 4.00386 7.69144 3.15662 8.9623L4.82072 10.0717ZM7 21H7H5C5 22.1046 5.89543 23 7 23V21ZM17 21V23C18.1046 23 19 22.1046 19 21H17ZM19 17.5C19 16.6716 18.3284 16 17.5 16V18C17.2239 18 17 17.7761 17 17.5H19ZM4.90925 11.729C4.516 11.2572 4.47998 10.5828 4.82072 10.0717L3.15662 8.9623C2.32456 10.2104 2.41253 11.8571 3.37281 13.0094L4.90925 11.729ZM7 18V16C5.89543 16 5 16.8954 5 18H7Z" fill="#28293D"/>
</svg>
