<svg width="24" height="24" viewBox="0 0 24 24" fill="none" xmlns="http://www.w3.org/2000/svg">
<path d="M14.5626 9.93519L15.2694 9.22783L14.5626 9.93519ZM15.7123 20.8637L14.9872 21.5524L15.7123 20.8637ZM20.7574 15.604L20.0956 16.3537L20.7574 15.604ZM8.401 3.23222L9.1479 2.56728L8.401 3.23222ZM3.14025 8.30032L2.45215 9.02594H2.45215L3.14025 8.30032ZM16.4374 20.1751C14.4217 18.0527 11.7094 15.2131 10.2432 13.7481L8.82955 15.1628C10.2736 16.6058 12.967 19.4252 14.9872 21.5524L16.4374 20.1751ZM10.2432 13.7481C8.77965 12.2856 5.94838 9.58513 3.82835 7.57471L2.45215 9.02594C4.57699 11.0409 7.38806 13.7224 8.82955 15.1628L10.2432 13.7481ZM7.65409 3.89715C9.66308 6.15379 12.3779 9.16583 13.8557 10.6426L15.2694 9.22783C13.8412 7.80068 11.1677 4.83611 9.1479 2.56728L7.65409 3.89715ZM13.8557 10.6426C15.2874 12.0732 18.0024 14.5057 20.0956 16.3537L21.4193 14.8544C19.3161 12.9976 16.6495 10.6068 15.2694 9.22783L13.8557 10.6426ZM20.2264 20.2272C19.1753 21.2775 17.4625 21.2544 16.4374 20.1751L14.9872 21.5524C16.7848 23.4451 19.7917 23.4889 21.6401 21.6419L20.2264 20.2272ZM21.6401 21.6419C23.5442 19.7392 23.4289 16.6286 21.4193 14.8544L20.0956 16.3537C21.2487 17.3717 21.3065 19.1478 20.2264 20.2272L21.6401 21.6419ZM3.77593 3.77645C4.85732 2.69585 6.63263 2.74977 7.65409 3.89715L9.1479 2.56728C7.36687 0.566697 4.26231 0.463035 2.36224 2.36171L3.77593 3.77645ZM2.36224 2.36171C0.509491 4.2131 0.553567 7.22551 2.45215 9.02594L3.82835 7.57471C2.74456 6.54694 2.72136 4.83025 3.77593 3.77645L2.36224 2.36171Z" fill="#28293D"/>
<path d="M8.75 8.25V9.75H10.25V8.25H8.75ZM8.75 9.75V8.25H7.25V9.75H8.75ZM8.75 9.75H7.25C7.25 10.5784 7.92157 11.25 8.75 11.25V9.75ZM8.75 9.75V11.25C9.57843 11.25 10.25 10.5784 10.25 9.75H8.75ZM8.75 8.25H10.25C10.25 7.42157 9.57843 6.75 8.75 6.75V8.25ZM8.75 6.75C7.92157 6.75 7.25 7.42157 7.25 8.25H8.75V6.75ZM14.75 14.25V15.75H16.25V14.25H14.75ZM14.75 15.75V14.25H13.25V15.75H14.75ZM14.75 15.75H13.25C13.25 16.5784 13.9216 17.25 14.75 17.25V15.75ZM14.75 15.75V17.25C15.5784 17.25 16.25 16.5784 16.25 15.75H14.75ZM14.75 14.25H16.25C16.25 13.4216 15.5784 12.75 14.75 12.75V14.25ZM14.75 12.75C13.9216 12.75 13.25 13.4216 13.25 14.25H14.75V12.75Z" fill="#28293D"/>
</svg>
