<svg width="24" height="24" viewBox="0 0 24 24" fill="none" xmlns="http://www.w3.org/2000/svg">
<path d="M4 17H20V15H4V17ZM20 17V20H22V17H20ZM20 20H4V22H20V20ZM4 20V17H2V20H4ZM4 20H4H2C2 21.1046 2.89543 22 4 22V20ZM20 20V22C21.1046 22 22 21.1046 22 20H20ZM20 17H22C22 15.8954 21.1046 15 20 15V17ZM4 15C2.89543 15 2 15.8954 2 17H4V15ZM5 16C5 12.134 8.13401 9 12 9V7C7.02944 7 3 11.0294 3 16H5ZM12 9C15.866 9 19 12.134 19 16H21C21 11.0294 16.9706 7 12 7V9ZM13 6C13 6.55228 12.5523 7 12 7V9C13.6569 9 15 7.65685 15 6H13ZM12 7C11.4477 7 11 6.55228 11 6H9C9 7.65685 10.3431 9 12 9V7ZM11 6C11 5.44772 11.4477 5 12 5V3C10.3431 3 9 4.34315 9 6H11ZM12 5C12.5523 5 13 5.44772 13 6H15C15 4.34315 13.6569 3 12 3V5Z" fill="#28293D"/>
</svg>
