<svg width="24" height="24" viewBox="0 0 24 24" fill="none" xmlns="http://www.w3.org/2000/svg">
<path d="M4 5.6H20V4.4H4V5.6ZM20.4 6V18H21.6V6H20.4ZM20.0062 18.4C20.0007 18.4 19.9953 18.4 19.9898 18.4C19.9843 18.4 19.9788 18.4 19.9733 18.4C19.9677 18.4 19.9622 18.4 19.9566 18.4C19.9511 18.4 19.9455 18.4 19.9399 18.4C19.9343 18.4 19.9286 18.4 19.923 18.4C19.9173 18.4 19.9117 18.4 19.906 18.4C19.9003 18.4 19.8946 18.4 19.8889 18.4C19.8831 18.4 19.8774 18.4 19.8716 18.4C19.8659 18.4 19.8601 18.4 19.8543 18.4C19.8485 18.4 19.8427 18.4 19.8368 18.4C19.831 18.4 19.8251 18.4 19.8192 18.4C19.8134 18.4 19.8075 18.4 19.8015 18.4C19.7956 18.4 19.7897 18.4 19.7837 18.4C19.7778 18.4 19.7718 18.4 19.7658 18.4C19.7598 18.4 19.7538 18.4 19.7477 18.4C19.7417 18.4 19.7357 18.4 19.7296 18.4C19.7235 18.4 19.7174 18.4 19.7113 18.4C19.7052 18.4 19.6991 18.4 19.6929 18.4C19.6868 18.4 19.6806 18.4 19.6744 18.4C19.6682 18.4 19.662 18.4 19.6558 18.4C19.6496 18.4 19.6433 18.4 19.6371 18.4C19.6308 18.4 19.6245 18.4 19.6182 18.4C19.6119 18.4 19.6056 18.4 19.5993 18.4C19.5929 18.4 19.5866 18.4 19.5802 18.4C19.5738 18.4 19.5674 18.4 19.561 18.4C19.5546 18.4 19.5482 18.4 19.5418 18.4C19.5353 18.4 19.5288 18.4 19.5224 18.4C19.5159 18.4 19.5094 18.4 19.5028 18.4C19.4963 18.4 19.4898 18.4 19.4832 18.4C19.4767 18.4 19.4701 18.4 19.4635 18.4C19.4569 18.4 19.4503 18.4 19.4437 18.4C19.437 18.4 19.4304 18.4 19.4237 18.4C19.4171 18.4 19.4104 18.4 19.4037 18.4C19.397 18.4 19.3902 18.4 19.3835 18.4C19.3768 18.4 19.37 18.4 19.3632 18.4C19.3565 18.4 19.3497 18.4 19.3429 18.4C19.336 18.4 19.3292 18.4 19.3224 18.4C19.3155 18.4 19.3087 18.4 19.3018 18.4C19.2949 18.4 19.288 18.4 19.2811 18.4C19.2742 18.4 19.2672 18.4 19.2603 18.4C19.2533 18.4 19.2464 18.4 19.2394 18.4C19.2324 18.4 19.2254 18.4 19.2184 18.4C19.2113 18.4 19.2043 18.4 19.1972 18.4C19.1902 18.4 19.1831 18.4 19.176 18.4C19.1689 18.4 19.1618 18.4 19.1547 18.4C19.1476 18.4 19.1404 18.4 19.1333 18.4C19.1261 18.4 19.1189 18.4 19.1117 18.4C19.1045 18.4 19.0973 18.4 19.0901 18.4C19.0829 18.4 19.0756 18.4 19.0683 18.4C19.0611 18.4 19.0538 18.4 19.0465 18.4C19.0392 18.4 19.0319 18.4 19.0246 18.4C19.0172 18.4 19.0099 18.4 19.0025 18.4C18.9951 18.4 18.9878 18.4 18.9804 18.4C18.973 18.4 18.9655 18.4 18.9581 18.4C18.9507 18.4 18.9432 18.4 18.9358 18.4C18.9283 18.4 18.9208 18.4 18.9133 18.4C18.9058 18.4 18.8983 18.4 18.8908 18.4C18.8832 18.4 18.8757 18.4 18.8681 18.4C18.8606 18.4 18.853 18.4 18.8454 18.4C18.8378 18.4 18.8302 18.4 18.8225 18.4C18.8149 18.4 18.8072 18.4 18.7996 18.4C18.7919 18.4 18.7842 18.4 18.7765 18.4C18.7688 18.4 18.7611 18.4 18.7534 18.4C18.7457 18.4 18.7379 18.4 18.7302 18.4C18.7224 18.4 18.7146 18.4 18.7068 18.4C18.699 18.4 18.6912 18.4 18.6834 18.4C18.6756 18.4 18.6677 18.4 18.6599 18.4C18.652 18.4 18.6441 18.4 18.6362 18.4C18.6284 18.4 18.6205 18.4 18.6125 18.4C18.6046 18.4 18.5967 18.4 18.5887 18.4C18.5808 18.4 18.5728 18.4 18.5648 18.4C18.5568 18.4 18.5488 18.4 18.5408 18.4C18.5328 18.4 18.5248 18.4 18.5167 18.4C18.5087 18.4 18.5006 18.4 18.4925 18.4C18.4844 18.4 18.4763 18.4 18.4682 18.4C18.4601 18.4 18.452 18.4 18.4439 18.4C18.4357 18.4 18.4276 18.4 18.4194 18.4C18.4112 18.4 18.403 18.4 18.3948 18.4C18.3866 18.4 18.3784 18.4 18.3702 18.4C18.3619 18.4 18.3537 18.4 18.3454 18.4C18.3372 18.4 18.3289 18.4 18.3206 18.4C18.3123 18.4 18.304 18.4 18.2957 18.4C18.2873 18.4 18.279 18.4 18.2707 18.4C18.2623 18.4 18.2539 18.4 18.2455 18.4C18.2372 18.4 18.2288 18.4 18.2203 18.4C18.2119 18.4 18.2035 18.4 18.1951 18.4C18.1866 18.4 18.1782 18.4 18.1697 18.4C18.1612 18.4 18.1527 18.4 18.1442 18.4C18.1357 18.4 18.1272 18.4 18.1187 18.4C18.1101 18.4 18.1016 18.4 18.093 18.4C18.0845 18.4 18.0759 18.4 18.0673 18.4C18.0587 18.4 18.0501 18.4 18.0415 18.4C18.0329 18.4 18.0242 18.4 18.0156 18.4C18.0069 18.4 17.9983 18.4 17.9896 18.4C17.9809 18.4 17.9722 18.4 17.9635 18.4C17.9548 18.4 17.9461 18.4 17.9374 18.4C17.9286 18.4 17.9199 18.4 17.9111 18.4C17.9024 18.4 17.8936 18.4 17.8848 18.4C17.876 18.4 17.8672 18.4 17.8584 18.4C17.8496 18.4 17.8407 18.4 17.8319 18.4C17.823 18.4 17.8142 18.4 17.8053 18.4C17.7964 18.4 17.7875 18.4 17.7786 18.4C17.7697 18.4 17.7608 18.4 17.7519 18.4C17.743 18.4 17.734 18.4 17.7251 18.4C17.7161 18.4 17.7071 18.4 17.6981 18.4C17.6892 18.4 17.6802 18.4 17.6712 18.4C17.6621 18.4 17.6531 18.4 17.6441 18.4C17.635 18.4 17.626 18.4 17.6169 18.4C17.6078 18.4 17.5988 18.4 17.5897 18.4C17.5806 18.4 17.5715 18.4 17.5624 18.4C17.5532 18.4 17.5441 18.4 17.535 18.4C17.5258 18.4 17.5166 18.4 17.5075 18.4C17.4983 18.4 17.4891 18.4 17.4799 18.4C17.4707 18.4 17.4615 18.4 17.4523 18.4C17.443 18.4 17.4338 18.4 17.4246 18.4C17.4153 18.4 17.406 18.4 17.3968 18.4C17.3875 18.4 17.3782 18.4 17.3689 18.4C17.3596 18.4 17.3503 18.4 17.3409 18.4C17.3316 18.4 17.3223 18.4 17.3129 18.4C17.3035 18.4 17.2942 18.4 17.2848 18.4C17.2754 18.4 17.266 18.4 17.2566 18.4C17.2472 18.4 17.2378 18.4 17.2284 18.4C17.2189 18.4 17.2095 18.4 17.2 18.4C17.1906 18.4 17.1811 18.4 17.1716 18.4C17.1621 18.4 17.1526 18.4 17.1431 18.4C17.1336 18.4 17.1241 18.4 17.1146 18.4C17.105 18.4 17.0955 18.4 17.0859 18.4C17.0764 18.4 17.0668 18.4 17.0572 18.4C17.0476 18.4 17.038 18.4 17.0284 18.4C17.0188 18.4 17.0092 18.4 16.9996 18.4C16.9899 18.4 16.9803 18.4 16.9706 18.4C16.961 18.4 16.9513 18.4 16.9416 18.4C16.932 18.4 16.9223 18.4 16.9126 18.4C16.9029 18.4 16.8931 18.4 16.8834 18.4C16.8737 18.4 16.864 18.4 16.8542 18.4C16.8444 18.4 16.8347 18.4 16.8249 18.4C16.8151 18.4 16.8053 18.4 16.7956 18.4C16.7858 18.4 16.7759 18.4 16.7661 18.4C16.7563 18.4 16.7465 18.4 16.7366 18.4C16.7268 18.4 16.7169 18.4 16.707 18.4C16.6972 18.4 16.6873 18.4 16.6774 18.4C16.6675 18.4 16.6576 18.4 16.6477 18.4C16.6378 18.4 16.6279 18.4 16.6179 18.4C16.608 18.4 16.598 18.4 16.5881 18.4C16.5781 18.4 16.5681 18.4 16.5582 18.4C16.5482 18.4 16.5382 18.4 16.5282 18.4C16.5182 18.4 16.5082 18.4 16.4981 18.4C16.4881 18.4 16.4781 18.4 16.468 18.4C16.458 18.4 16.4479 18.4 16.4378 18.4C16.4278 18.4 16.4177 18.4 16.4076 18.4C16.3975 18.4 16.3874 18.4 16.3773 18.4C16.3672 18.4 16.357 18.4 16.3469 18.4C16.3368 18.4 16.3266 18.4 16.3164 18.4C16.3063 18.4 16.2961 18.4 16.2859 18.4C16.2758 18.4 16.2656 18.4 16.2554 18.4C16.2452 18.4 16.2349 18.4 16.2247 18.4C16.2145 18.4 16.2043 18.4 16.194 18.4C16.1838 18.4 16.1735 18.4 16.1633 18.4C16.153 18.4 16.1427 18.4 16.1324 18.4C16.1221 18.4 16.1118 18.4 16.1015 18.4C16.0912 18.4 16.0809 18.4 16.0706 18.4C16.0603 18.4 16.0499 18.4 16.0396 18.4C16.0292 18.4 16.0189 18.4 16.0085 18.4C15.9981 18.4 15.9878 18.4 15.9774 18.4C15.967 18.4 15.9566 18.4 15.9462 18.4C15.9358 18.4 15.9253 18.4 15.9149 18.4C15.9045 18.4 15.894 18.4 15.8836 18.4C15.8731 18.4 15.8627 18.4 15.8522 18.4C15.8417 18.4 15.8313 18.4 15.8208 18.4C15.8103 18.4 15.7998 18.4 15.7893 18.4C15.7788 18.4 15.7683 18.4 15.7577 18.4C15.7472 18.4 15.7367 18.4 15.7261 18.4C15.7156 18.4 15.705 18.4 15.6944 18.4C15.6839 18.4 15.6733 18.4 15.6627 18.4C15.6521 18.4 15.6415 18.4 15.6309 18.4C15.6203 18.4 15.6097 18.4 15.5991 18.4C15.5885 18.4 15.5778 18.4 15.5672 18.4C15.5566 18.4 15.5459 18.4 15.5352 18.4C15.5246 18.4 15.5139 18.4 15.5032 18.4C15.4926 18.4 15.4819 18.4 15.4712 18.4C15.4605 18.4 15.4498 18.4 15.439 18.4C15.4283 18.4 15.4176 18.4 15.4069 18.4C15.3961 18.4 15.3854 18.4 15.3746 18.4C15.3639 18.4 15.3531 18.4 15.3424 18.4C15.3316 18.4 15.3208 18.4 15.31 18.4C15.2992 18.4 15.2884 18.4 15.2776 18.4C15.2668 18.4 15.256 18.4 15.2452 18.4C15.2344 18.4 15.2235 18.4 15.2127 18.4C15.2019 18.4 15.191 18.4 15.1802 18.4C15.1693 18.4 15.1584 18.4 15.1476 18.4C15.1367 18.4 15.1258 18.4 15.1149 18.4C15.104 18.4 15.0931 18.4 15.0822 18.4C15.0713 18.4 15.0604 18.4 15.0495 18.4C15.0385 18.4 15.0276 18.4 15.0167 18.4C15.0057 18.4 14.9948 18.4 14.9838 18.4C14.9729 18.4 14.9619 18.4 14.9509 18.4C14.9399 18.4 14.929 18.4 14.918 18.4C14.907 18.4 14.896 18.4 14.885 18.4C14.874 18.4 14.8629 18.4 14.8519 18.4C14.8409 18.4 14.8299 18.4 14.8188 18.4C14.8078 18.4 14.7967 18.4 14.7857 18.4C14.7746 18.4 14.7636 18.4 14.7525 18.4C14.7414 18.4 14.7303 18.4 14.7193 18.4C14.7082 18.4 14.6971 18.4 14.686 18.4C14.6749 18.4 14.6638 18.4 14.6526 18.4C14.6415 18.4 14.6304 18.4 14.6193 18.4C14.6081 18.4 14.597 18.4 14.5858 18.4C14.5747 18.4 14.5635 18.4 14.5524 18.4C14.5412 18.4 14.53 18.4 14.5189 18.4C14.5077 18.4 14.4965 18.4 14.4853 18.4C14.4741 18.4 14.4629 18.4 14.4517 18.4C14.4405 18.4 14.4293 18.4 14.4181 18.4C14.4069 18.4 14.3956 18.4 14.3844 18.4C14.3732 18.4 14.3619 18.4 14.3507 18.4C14.3394 18.4 14.3282 18.4 14.3169 18.4C14.3056 18.4 14.2944 18.4 14.2831 18.4C14.2718 18.4 14.2605 18.4 14.2492 18.4C14.2379 18.4 14.2266 18.4 14.2153 18.4C14.204 18.4 14.1927 18.4 14.1814 18.4C14.1701 18.4 14.1587 18.4 14.1474 18.4C14.1361 18.4 14.1247 18.4 14.1134 18.4C14.102 18.4 14.0907 18.4 14.0793 18.4C14.068 18.4 14.0566 18.4 14.0452 18.4C14.0339 18.4 14.0225 18.4 14.0111 18.4C13.9997 18.4 13.9883 18.4 13.9769 18.4C13.9655 18.4 13.9541 18.4 13.9427 18.4C13.9313 18.4 13.9199 18.4 13.9084 18.4C13.897 18.4 13.8856 18.4 13.8741 18.4C13.8627 18.4 13.8513 18.4 13.8398 18.4C13.8284 18.4 13.8169 18.4 13.8054 18.4C13.794 18.4 13.7825 18.4 13.771 18.4C13.7596 18.4 13.7481 18.4 13.7366 18.4C13.7251 18.4 13.7136 18.4 13.7021 18.4C13.6906 18.4 13.6791 18.4 13.6676 18.4C13.6561 18.4 13.6446 18.4 13.6331 18.4C13.6215 18.4 13.61 18.4 13.5985 18.4C13.5869 18.4 13.5754 18.4 13.5639 18.4C13.5523 18.4 13.5408 18.4 13.5292 18.4C13.5177 18.4 13.5061 18.4 13.4945 18.4C13.483 18.4 13.4714 18.4 13.4598 18.4C13.4482 18.4 13.4366 18.4 13.4251 18.4C13.4135 18.4 13.4019 18.4 13.3903 18.4C13.3787 18.4 13.3671 18.4 13.3554 18.4C13.3438 18.4 13.3322 18.4 13.3206 18.4C13.309 18.4 13.2973 18.4 13.2857 18.4C13.2741 18.4 13.2624 18.4 13.2508 18.4C13.2392 18.4 13.2275 18.4 13.2159 18.4C13.2042 18.4 13.1925 18.4 13.1809 18.4C13.1692 18.4 13.1576 18.4 13.1459 18.4C13.1342 18.4 13.1225 18.4 13.1108 18.4C13.0992 18.4 13.0875 18.4 13.0758 18.4C13.0641 18.4 13.0524 18.4 13.0407 18.4C13.029 18.4 13.0173 18.4 13.0056 18.4C12.9938 18.4 12.9821 18.4 12.9704 18.4C12.9587 18.4 12.947 18.4 12.9352 18.4C12.9235 18.4 12.9118 18.4 12.9 18.4C12.8883 18.4 12.8765 18.4 12.8648 18.4C12.853 18.4 12.8413 18.4 12.8295 18.4C12.8178 18.4 12.806 18.4 12.7942 18.4C12.7825 18.4 12.7707 18.4 12.7589 18.4C12.7471 18.4 12.7354 18.4 12.7236 18.4C12.7118 18.4 12.7 18.4 12.6882 18.4C12.6764 18.4 12.6646 18.4 12.6528 18.4C12.641 18.4 12.6292 18.4 12.6174 18.4C12.6056 18.4 12.5938 18.4 12.582 18.4C12.5701 18.4 12.5583 18.4 12.5465 18.4C12.5347 18.4 12.5228 18.4 12.511 18.4C12.4992 18.4 12.4873 18.4 12.4755 18.4C12.4637 18.4 12.4518 18.4 12.44 18.4C12.4281 18.4 12.4163 18.4 12.4044 18.4C12.3925 18.4 12.3807 18.4 12.3688 18.4C12.357 18.4 12.3451 18.4 12.3332 18.4C12.3213 18.4 12.3095 18.4 12.2976 18.4C12.2857 18.4 12.2738 18.4 12.262 18.4C12.2501 18.4 12.2382 18.4 12.2263 18.4C12.2144 18.4 12.2025 18.4 12.1906 18.4C12.1787 18.4 12.1668 18.4 12.1549 18.4C12.143 18.4 12.1311 18.4 12.1192 18.4C12.1073 18.4 12.0953 18.4 12.0834 18.4C12.0715 18.4 12.0596 18.4 12.0477 18.4C12.0357 18.4 12.0238 18.4 12.0119 18.4C11.9999 18.4 11.988 18.4 11.9761 18.4C11.9641 18.4 11.9522 18.4 11.9402 18.4C11.9283 18.4 11.9164 18.4 11.9044 18.4C11.8925 18.4 11.8805 18.4 11.8685 18.4C11.8566 18.4 11.8446 18.4 11.8327 18.4C11.8207 18.4 11.8088 18.4 11.7968 18.4C11.7848 18.4 11.7729 18.4 11.7609 18.4C11.7489 18.4 11.7369 18.4 11.725 18.4C11.713 18.4 11.701 18.4 11.689 18.4C11.677 18.4 11.6651 18.4 11.6531 18.4C11.6411 18.4 11.6291 18.4 11.6171 18.4C11.6051 18.4 11.5931 18.4 11.5811 18.4C11.5691 18.4 11.5571 18.4 11.5451 18.4C11.5331 18.4 11.5211 18.4 11.5091 18.4C11.4971 18.4 11.4851 18.4 11.4731 18.4C11.4611 18.4 11.4491 18.4 11.4371 18.4C11.425 18.4 11.413 18.4 11.401 18.4C11.389 18.4 11.377 18.4 11.365 18.4C11.3529 18.4 11.3409 18.4 11.3289 18.4C11.3169 18.4 11.3048 18.4 11.2928 18.4C11.2808 18.4 11.2687 18.4 11.2567 18.4C11.2447 18.4 11.2326 18.4 11.2206 18.4C11.2086 18.4 11.1965 18.4 11.1845 18.4C11.1724 18.4 11.1604 18.4 11.1484 18.4C11.1363 18.4 11.1243 18.4 11.1122 18.4C11.1002 18.4 11.0881 18.4 11.0761 18.4C11.064 18.4 11.052 18.4 11.0399 18.4C11.0279 18.4 11.0158 18.4 11.0038 18.4C10.9917 18.4 10.9797 18.4 10.9676 18.4C10.9555 18.4 10.9435 18.4 10.9314 18.4C10.9194 18.4 10.9073 18.4 10.8952 18.4C10.8832 18.4 10.8711 18.4 10.859 18.4C10.847 18.4 10.8349 18.4 10.8228 18.4C10.8108 18.4 10.7987 18.4 10.7866 18.4C10.7746 18.4 10.7625 18.4 10.7504 18.4C10.7383 18.4 10.7263 18.4 10.7142 18.4C10.7021 18.4 10.6901 18.4 10.678 18.4C10.6659 18.4 10.6538 18.4 10.6418 18.4C10.6297 18.4 10.6176 18.4 10.6055 18.4C10.5934 18.4 10.5814 18.4 10.5693 18.4C10.5572 18.4 10.5451 18.4 10.533 18.4C10.521 18.4 10.5089 18.4 10.4968 18.4C10.4847 18.4 10.4726 18.4 10.4605 18.4C10.4485 18.4 10.4364 18.4 10.4243 18.4C10.4122 18.4 10.4001 18.4 10.388 18.4C10.376 18.4 10.3639 18.4 10.3518 18.4C10.3397 18.4 10.3276 18.4 10.3155 18.4C10.3034 18.4 10.2914 18.4 10.2793 18.4C10.2672 18.4 10.2551 18.4 10.243 18.4C10.2309 18.4 10.2188 18.4 10.2068 18.4C10.1947 18.4 10.1826 18.4 10.1705 18.4C10.1584 18.4 10.1463 18.4 10.1342 18.4C10.1221 18.4 10.1101 18.4 10.098 18.4C10.0859 18.4 10.0738 18.4 10.0617 18.4C10.0496 18.4 10.0375 18.4 10.0255 18.4C10.0134 18.4 10.0013 18.4 9.9892 18.4C9.97712 18.4 9.96503 18.4 9.95295 18.4C9.94086 18.4 9.92878 18.4 9.9167 18.4C9.90461 18.4 9.89253 18.4 9.88045 18.4C9.86837 18.4 9.85628 18.4 9.8442 18.4C9.83212 18.4 9.82004 18.4 9.80796 18.4C9.79588 18.4 9.7838 18.4 9.77172 18.4C9.75964 18.4 9.74756 18.4 9.73548 18.4C9.72341 18.4 9.71133 18.4 9.69925 18.4C9.68718 18.4 9.6751 18.4 9.66303 18.4C9.65095 18.4 9.63888 18.4 9.62681 18.4C9.61473 18.4 9.60266 18.4 9.59059 18.4C9.57852 18.4 9.56645 18.4 9.55438 18.4C9.54231 18.4 9.53025 18.4 9.51818 18.4C9.50611 18.4 9.49405 18.4 9.48198 18.4C9.46992 18.4 9.45785 18.4 9.44579 18.4C9.43373 18.4 9.42167 18.4 9.40961 18.4C9.39755 18.4 9.38549 18.4 9.37344 18.4C9.36138 18.4 9.34932 18.4 9.33727 18.4C9.32522 18.4 9.31316 18.4 9.30111 18.4C9.28906 18.4 9.27701 18.4 9.26496 18.4C9.25291 18.4 9.24087 18.4 9.22882 18.4C9.21678 18.4 9.20473 18.4 9.19269 18.4C9.18065 18.4 9.16861 18.4 9.15657 18.4C9.14453 18.4 9.13249 18.4 9.12046 18.4C9.10842 18.4 9.09639 18.4 9.08436 18.4C9.07233 18.4 9.0603 18.4 9.04827 18.4C9.03624 18.4 9.02422 18.4 9.01219 18.4C9.00017 18.4 8.98815 18.4 8.97613 18.4C8.96411 18.4 8.95209 18.4 8.94007 18.4C8.92806 18.4 8.91604 18.4 8.90403 18.4C8.89202 18.4 8.88001 18.4 8.868 18.4C8.85599 18.4 8.84399 18.4 8.83198 18.4C8.81998 18.4 8.80798 18.4 8.79598 18.4C8.78398 18.4 8.77199 18.4 8.75999 18.4C8.748 18.4 8.73601 18.4 8.72402 18.4C8.71203 18.4 8.70004 18.4 8.68806 18.4C8.67607 18.4 8.66409 18.4 8.65211 18.4C8.64013 18.4 8.62816 18.4 8.61618 18.4C8.60421 18.4 8.59224 18.4 8.58027 18.4C8.5683 18.4 8.55634 18.4 8.54437 18.4C8.53241 18.4 8.52045 18.4 8.50849 18.4C8.49653 18.4 8.48458 18.4 8.47263 18.4C8.46067 18.4 8.44872 18.4 8.43678 18.4C8.42483 18.4 8.41289 18.4 8.40095 18.4C8.38901 18.4 8.37707 18.4 8.36513 18.4C8.3532 18.4 8.34127 18.4 8.32934 18.4C8.31741 18.4 8.30549 18.4 8.29356 18.4C8.28164 18.4 8.26972 18.4 8.25781 18.4C8.24589 18.4 8.23398 18.4 8.22207 18.4C8.21016 18.4 8.19825 18.4 8.18635 18.4C8.17445 18.4 8.16255 18.4 8.15065 18.4C8.13876 18.4 8.12687 18.4 8.11498 18.4C8.10309 18.4 8.0912 18.4 8.07932 18.4C8.06744 18.4 8.05556 18.4 8.04368 18.4C8.03181 18.4 8.01994 18.4 8.00807 18.4C7.9962 18.4 7.98434 18.4 7.97248 18.4C7.96062 18.4 7.94876 18.4 7.93691 18.4C7.92505 18.4 7.9132 18.4 7.90136 18.4C7.88951 18.4 7.87767 18.4 7.86583 18.4C7.85399 18.4 7.84216 18.4 7.83033 18.4C7.8185 18.4 7.80667 18.4 7.79485 18.4C7.78303 18.4 7.77121 18.4 7.7594 18.4C7.74758 18.4 7.73577 18.4 7.72397 18.4C7.71216 18.4 7.70036 18.4 7.68856 18.4C7.67676 18.4 7.66497 18.4 7.65318 18.4C7.64139 18.4 7.62961 18.4 7.61783 18.4C7.60605 18.4 7.59427 18.4 7.5825 18.4C7.57073 18.4 7.55896 18.4 7.54719 18.4C7.53543 18.4 7.52367 18.4 7.51192 18.4C7.50016 18.4 7.48841 18.4 7.47667 18.4C7.46492 18.4 7.45318 18.4 7.44145 18.4C7.42971 18.4 7.41798 18.4 7.40625 18.4C7.39452 18.4 7.3828 18.4 7.37108 18.4C7.35937 18.4 7.34765 18.4 7.33595 18.4C7.32424 18.4 7.31254 18.4 7.30084 18.4C7.28914 18.4 7.27744 18.4 7.26576 18.4C7.25407 18.4 7.24238 18.4 7.2307 18.4C7.21903 18.4 7.20735 18.4 7.19568 18.4C7.18401 18.4 7.17235 18.4 7.16069 18.4C7.14903 18.4 7.13738 18.4 7.12573 18.4C7.11408 18.4 7.10244 18.4 7.0908 18.4C7.07916 18.4 7.06753 18.4 7.0559 18.4C7.04427 18.4 7.03265 18.4 7.02103 18.4C7.00942 18.4 6.9978 18.4 6.9862 18.4C6.97459 18.4 6.96299 18.4 6.95139 18.4C6.9398 18.4 6.92821 18.4 6.91662 18.4C6.90504 18.4 6.89346 18.4 6.88189 18.4C6.87031 18.4 6.85875 18.4 6.84718 18.4C6.83562 18.4 6.82406 18.4 6.81251 18.4C6.80096 18.4 6.78942 18.4 6.77788 18.4C6.76634 18.4 6.7548 18.4 6.74327 18.4C6.73175 18.4 6.72022 18.4 6.70871 18.4C6.69719 18.4 6.68568 18.4 6.67418 18.4C6.66267 18.4 6.65117 18.4 6.63968 18.4C6.62819 18.4 6.6167 18.4 6.60522 18.4C6.59374 18.4 6.58226 18.4 6.57079 18.4C6.55933 18.4 6.54786 18.4 6.53641 18.4C6.52495 18.4 6.5135 18.4 6.50206 18.4C6.49061 18.4 6.47917 18.4 6.46774 18.4C6.45631 18.4 6.44489 18.4 6.43347 18.4C6.42205 18.4 6.41064 18.4 6.39923 18.4C6.38782 18.4 6.37643 18.4 6.36503 18.4C6.35364 18.4 6.34225 18.4 6.33087 18.4C6.31949 18.4 6.30812 18.4 6.29675 18.4C6.28538 18.4 6.27402 18.4 6.26267 18.4C6.25132 18.4 6.23997 18.4 6.22863 18.4C6.21729 18.4 6.20595 18.4 6.19463 18.4C6.1833 18.4 6.17198 18.4 6.16067 18.4C6.14935 18.4 6.13805 18.4 6.12675 18.4C6.11545 18.4 6.10415 18.4 6.09287 18.4C6.08158 18.4 6.0703 18.4 6.05903 18.4C6.04776 18.4 6.0365 18.4 6.02524 18.4C6.01398 18.4 6.00273 18.4 5.99149 18.4C5.98024 18.4 5.96901 18.4 5.95778 18.4C5.94655 18.4 5.93532 18.4 5.92411 18.4C5.91289 18.4 5.90169 18.4 5.89049 18.4C5.87929 18.4 5.86809 18.4 5.85691 18.4C5.84572 18.4 5.83454 18.4 5.82337 18.4C5.8122 18.4 5.80104 18.4 5.78988 18.4C5.77873 18.4 5.76758 18.4 5.75644 18.4C5.7453 18.4 5.73416 18.4 5.72304 18.4C5.71191 18.4 5.7008 18.4 5.68969 18.4C5.67857 18.4 5.66747 18.4 5.65638 18.4C5.64528 18.4 5.6342 18.4 5.62312 18.4C5.61204 18.4 5.60096 18.4 5.5899 18.4C5.57884 18.4 5.56778 18.4 5.55673 18.4C5.54569 18.4 5.53465 18.4 5.52361 18.4C5.51258 18.4 5.50156 18.4 5.49054 18.4C5.47952 18.4 5.46852 18.4 5.45752 18.4C5.44652 18.4 5.43552 18.4 5.42454 18.4C5.41356 18.4 5.40258 18.4 5.39161 18.4C5.38065 18.4 5.36969 18.4 5.35874 18.4C5.34779 18.4 5.33684 18.4 5.32591 18.4C5.31498 18.4 5.30405 18.4 5.29313 18.4C5.28221 18.4 5.27131 18.4 5.2604 18.4C5.2495 18.4 5.23861 18.4 5.22773 18.4C5.21684 18.4 5.20597 18.4 5.1951 18.4C5.18424 18.4 5.17338 18.4 5.16253 18.4C5.15168 18.4 5.14084 18.4 5.13001 18.4C5.11918 18.4 5.10835 18.4 5.09754 18.4C5.08672 18.4 5.07592 18.4 5.06512 18.4C5.05432 18.4 5.04354 18.4 5.03276 18.4C5.02198 18.4 5.01121 18.4 5.00044 18.4C4.98968 18.4 4.97893 18.4 4.96819 18.4C4.95744 18.4 4.94671 18.4 4.93598 18.4C4.92526 18.4 4.91454 18.4 4.90383 18.4C4.89313 18.4 4.88243 18.4 4.87174 18.4C4.86105 18.4 4.85037 18.4 4.8397 18.4C4.82903 18.4 4.81837 18.4 4.80772 18.4C4.79707 18.4 4.78642 18.4 4.77579 18.4C4.76516 18.4 4.75453 18.4 4.74392 18.4C4.7333 18.4 4.7227 18.4 4.7121 18.4C4.70151 18.4 4.69092 18.4 4.68034 18.4C4.66977 18.4 4.6592 18.4 4.64864 18.4C4.63809 18.4 4.62754 18.4 4.617 18.4C4.60646 18.4 4.59593 18.4 4.58541 18.4C4.5749 18.4 4.56439 18.4 4.55389 18.4C4.54339 18.4 4.5329 18.4 4.52242 18.4C4.51194 18.4 4.50147 18.4 4.49101 18.4C4.48055 18.4 4.4701 18.4 4.45966 18.4C4.44922 18.4 4.43879 18.4 4.42837 18.4C4.41795 18.4 4.40754 18.4 4.39714 18.4C4.38674 18.4 4.37635 18.4 4.36597 18.4C4.35559 18.4 4.34522 18.4 4.33486 18.4C4.3245 18.4 4.31415 18.4 4.30381 18.4C4.29347 18.4 4.28315 18.4 4.27283 18.4C4.26251 18.4 4.2522 18.4 4.2419 18.4C4.23161 18.4 4.22132 18.4 4.21104 18.4C4.20077 18.4 4.1905 18.4 4.18024 18.4C4.16999 18.4 4.15974 18.4 4.14951 18.4C4.13927 18.4 4.12905 18.4 4.11884 18.4C4.10862 18.4 4.09842 18.4 4.08823 18.4C4.07804 18.4 4.06785 18.4 4.05768 18.4C4.04751 18.4 4.03735 18.4 4.0272 18.4C4.01705 18.4 4.00692 18.4 3.99679 18.4V19.6C4.00692 19.6 4.01705 19.6 4.0272 19.6C4.03735 19.6 4.04751 19.6 4.05768 19.6C4.06785 19.6 4.07804 19.6 4.08823 19.6C4.09842 19.6 4.10862 19.6 4.11884 19.6C4.12905 19.6 4.13927 19.6 4.14951 19.6C4.15974 19.6 4.16999 19.6 4.18024 19.6C4.1905 19.6 4.20077 19.6 4.21104 19.6C4.22132 19.6 4.23161 19.6 4.2419 19.6C4.2522 19.6 4.26251 19.6 4.27283 19.6C4.28315 19.6 4.29347 19.6 4.30381 19.6C4.31415 19.6 4.3245 19.6 4.33486 19.6C4.34522 19.6 4.35559 19.6 4.36597 19.6C4.37635 19.6 4.38674 19.6 4.39714 19.6C4.40754 19.6 4.41795 19.6 4.42837 19.6C4.43879 19.6 4.44922 19.6 4.45966 19.6C4.4701 19.6 4.48055 19.6 4.49101 19.6C4.50147 19.6 4.51194 19.6 4.52242 19.6C4.5329 19.6 4.54339 19.6 4.55389 19.6C4.56439 19.6 4.5749 19.6 4.58541 19.6C4.59593 19.6 4.60646 19.6 4.617 19.6C4.62754 19.6 4.63809 19.6 4.64864 19.6C4.6592 19.6 4.66977 19.6 4.68034 19.6C4.69092 19.6 4.70151 19.6 4.7121 19.6C4.7227 19.6 4.7333 19.6 4.74392 19.6C4.75453 19.6 4.76516 19.6 4.77579 19.6C4.78642 19.6 4.79707 19.6 4.80772 19.6C4.81837 19.6 4.82903 19.6 4.8397 19.6C4.85037 19.6 4.86105 19.6 4.87174 19.6C4.88243 19.6 4.89313 19.6 4.90383 19.6C4.91454 19.6 4.92526 19.6 4.93598 19.6C4.94671 19.6 4.95744 19.6 4.96819 19.6C4.97893 19.6 4.98968 19.6 5.00044 19.6C5.01121 19.6 5.02198 19.6 5.03276 19.6C5.04354 19.6 5.05432 19.6 5.06512 19.6C5.07592 19.6 5.08672 19.6 5.09754 19.6C5.10835 19.6 5.11918 19.6 5.13001 19.6C5.14084 19.6 5.15168 19.6 5.16253 19.6C5.17338 19.6 5.18424 19.6 5.1951 19.6C5.20597 19.6 5.21684 19.6 5.22773 19.6C5.23861 19.6 5.2495 19.6 5.2604 19.6C5.27131 19.6 5.28221 19.6 5.29313 19.6C5.30405 19.6 5.31498 19.6 5.32591 19.6C5.33684 19.6 5.34779 19.6 5.35874 19.6C5.36969 19.6 5.38065 19.6 5.39161 19.6C5.40258 19.6 5.41356 19.6 5.42454 19.6C5.43552 19.6 5.44652 19.6 5.45752 19.6C5.46852 19.6 5.47952 19.6 5.49054 19.6C5.50156 19.6 5.51258 19.6 5.52361 19.6C5.53465 19.6 5.54569 19.6 5.55673 19.6C5.56778 19.6 5.57884 19.6 5.5899 19.6C5.60096 19.6 5.61204 19.6 5.62312 19.6C5.6342 19.6 5.64528 19.6 5.65638 19.6C5.66747 19.6 5.67857 19.6 5.68969 19.6C5.7008 19.6 5.71191 19.6 5.72304 19.6C5.73416 19.6 5.7453 19.6 5.75644 19.6C5.76758 19.6 5.77873 19.6 5.78988 19.6C5.80104 19.6 5.8122 19.6 5.82337 19.6C5.83454 19.6 5.84572 19.6 5.85691 19.6C5.86809 19.6 5.87929 19.6 5.89049 19.6C5.90169 19.6 5.91289 19.6 5.92411 19.6C5.93532 19.6 5.94655 19.6 5.95778 19.6C5.96901 19.6 5.98024 19.6 5.99149 19.6C6.00273 19.6 6.01398 19.6 6.02524 19.6C6.0365 19.6 6.04776 19.6 6.05903 19.6C6.0703 19.6 6.08158 19.6 6.09287 19.6C6.10415 19.6 6.11545 19.6 6.12675 19.6C6.13805 19.6 6.14935 19.6 6.16067 19.6C6.17198 19.6 6.1833 19.6 6.19463 19.6C6.20595 19.6 6.21729 19.6 6.22863 19.6C6.23997 19.6 6.25132 19.6 6.26267 19.6C6.27402 19.6 6.28538 19.6 6.29675 19.6C6.30812 19.6 6.31949 19.6 6.33087 19.6C6.34225 19.6 6.35364 19.6 6.36503 19.6C6.37643 19.6 6.38782 19.6 6.39923 19.6C6.41064 19.6 6.42205 19.6 6.43347 19.6C6.44489 19.6 6.45631 19.6 6.46774 19.6C6.47917 19.6 6.49061 19.6 6.50206 19.6C6.5135 19.6 6.52495 19.6 6.53641 19.6C6.54786 19.6 6.55933 19.6 6.57079 19.6C6.58226 19.6 6.59374 19.6 6.60522 19.6C6.6167 19.6 6.62819 19.6 6.63968 19.6C6.65117 19.6 6.66267 19.6 6.67418 19.6C6.68568 19.6 6.69719 19.6 6.70871 19.6C6.72022 19.6 6.73175 19.6 6.74327 19.6C6.7548 19.6 6.76634 19.6 6.77788 19.6C6.78942 19.6 6.80096 19.6 6.81251 19.6C6.82406 19.6 6.83562 19.6 6.84718 19.6C6.85875 19.6 6.87031 19.6 6.88189 19.6C6.89346 19.6 6.90504 19.6 6.91662 19.6C6.92821 19.6 6.9398 19.6 6.95139 19.6C6.96299 19.6 6.97459 19.6 6.9862 19.6C6.9978 19.6 7.00942 19.6 7.02103 19.6C7.03265 19.6 7.04427 19.6 7.0559 19.6C7.06753 19.6 7.07916 19.6 7.0908 19.6C7.10244 19.6 7.11408 19.6 7.12573 19.6C7.13738 19.6 7.14903 19.6 7.16069 19.6C7.17235 19.6 7.18401 19.6 7.19568 19.6C7.20735 19.6 7.21903 19.6 7.2307 19.6C7.24238 19.6 7.25407 19.6 7.26576 19.6C7.27744 19.6 7.28914 19.6 7.30084 19.6C7.31254 19.6 7.32424 19.6 7.33595 19.6C7.34765 19.6 7.35937 19.6 7.37108 19.6C7.3828 19.6 7.39452 19.6 7.40625 19.6C7.41798 19.6 7.42971 19.6 7.44145 19.6C7.45318 19.6 7.46492 19.6 7.47667 19.6C7.48841 19.6 7.50016 19.6 7.51192 19.6C7.52367 19.6 7.53543 19.6 7.54719 19.6C7.55896 19.6 7.57073 19.6 7.5825 19.6C7.59427 19.6 7.60605 19.6 7.61783 19.6C7.62961 19.6 7.64139 19.6 7.65318 19.6C7.66497 19.6 7.67676 19.6 7.68856 19.6C7.70036 19.6 7.71216 19.6 7.72397 19.6C7.73577 19.6 7.74758 19.6 7.7594 19.6C7.77121 19.6 7.78303 19.6 7.79485 19.6C7.80667 19.6 7.8185 19.6 7.83033 19.6C7.84216 19.6 7.85399 19.6 7.86583 19.6C7.87767 19.6 7.88951 19.6 7.90136 19.6C7.9132 19.6 7.92505 19.6 7.93691 19.6C7.94876 19.6 7.96062 19.6 7.97248 19.6C7.98434 19.6 7.9962 19.6 8.00807 19.6C8.01994 19.6 8.03181 19.6 8.04368 19.6C8.05556 19.6 8.06744 19.6 8.07932 19.6C8.0912 19.6 8.10309 19.6 8.11498 19.6C8.12687 19.6 8.13876 19.6 8.15065 19.6C8.16255 19.6 8.17445 19.6 8.18635 19.6C8.19825 19.6 8.21016 19.6 8.22207 19.6C8.23398 19.6 8.24589 19.6 8.25781 19.6C8.26972 19.6 8.28164 19.6 8.29356 19.6C8.30549 19.6 8.31741 19.6 8.32934 19.6C8.34127 19.6 8.3532 19.6 8.36513 19.6C8.37707 19.6 8.38901 19.6 8.40095 19.6C8.41289 19.6 8.42483 19.6 8.43678 19.6C8.44872 19.6 8.46067 19.6 8.47263 19.6C8.48458 19.6 8.49653 19.6 8.50849 19.6C8.52045 19.6 8.53241 19.6 8.54437 19.6C8.55634 19.6 8.5683 19.6 8.58027 19.6C8.59224 19.6 8.60421 19.6 8.61618 19.6C8.62816 19.6 8.64013 19.6 8.65211 19.6C8.66409 19.6 8.67607 19.6 8.68806 19.6C8.70004 19.6 8.71203 19.6 8.72402 19.6C8.73601 19.6 8.748 19.6 8.75999 19.6C8.77199 19.6 8.78398 19.6 8.79598 19.6C8.80798 19.6 8.81998 19.6 8.83198 19.6C8.84399 19.6 8.85599 19.6 8.868 19.6C8.88001 19.6 8.89202 19.6 8.90403 19.6C8.91604 19.6 8.92806 19.6 8.94007 19.6C8.95209 19.6 8.96411 19.6 8.97613 19.6C8.98815 19.6 9.00017 19.6 9.01219 19.6C9.02422 19.6 9.03624 19.6 9.04827 19.6C9.0603 19.6 9.07233 19.6 9.08436 19.6C9.09639 19.6 9.10842 19.6 9.12046 19.6C9.13249 19.6 9.14453 19.6 9.15657 19.6C9.16861 19.6 9.18065 19.6 9.19269 19.6C9.20473 19.6 9.21678 19.6 9.22882 19.6C9.24087 19.6 9.25291 19.6 9.26496 19.6C9.27701 19.6 9.28906 19.6 9.30111 19.6C9.31316 19.6 9.32522 19.6 9.33727 19.6C9.34932 19.6 9.36138 19.6 9.37344 19.6C9.38549 19.6 9.39755 19.6 9.40961 19.6C9.42167 19.6 9.43373 19.6 9.44579 19.6C9.45785 19.6 9.46992 19.6 9.48198 19.6C9.49405 19.6 9.50611 19.6 9.51818 19.6C9.53025 19.6 9.54231 19.6 9.55438 19.6C9.56645 19.6 9.57852 19.6 9.59059 19.6C9.60266 19.6 9.61473 19.6 9.62681 19.6C9.63888 19.6 9.65095 19.6 9.66303 19.6C9.6751 19.6 9.68718 19.6 9.69925 19.6C9.71133 19.6 9.72341 19.6 9.73548 19.6C9.74756 19.6 9.75964 19.6 9.77172 19.6C9.7838 19.6 9.79588 19.6 9.80796 19.6C9.82004 19.6 9.83212 19.6 9.8442 19.6C9.85628 19.6 9.86837 19.6 9.88045 19.6C9.89253 19.6 9.90461 19.6 9.9167 19.6C9.92878 19.6 9.94086 19.6 9.95295 19.6C9.96503 19.6 9.97712 19.6 9.9892 19.6C10.0013 19.6 10.0134 19.6 10.0255 19.6C10.0375 19.6 10.0496 19.6 10.0617 19.6C10.0738 19.6 10.0859 19.6 10.098 19.6C10.1101 19.6 10.1221 19.6 10.1342 19.6C10.1463 19.6 10.1584 19.6 10.1705 19.6C10.1826 19.6 10.1947 19.6 10.2068 19.6C10.2188 19.6 10.2309 19.6 10.243 19.6C10.2551 19.6 10.2672 19.6 10.2793 19.6C10.2914 19.6 10.3034 19.6 10.3155 19.6C10.3276 19.6 10.3397 19.6 10.3518 19.6C10.3639 19.6 10.376 19.6 10.388 19.6C10.4001 19.6 10.4122 19.6 10.4243 19.6C10.4364 19.6 10.4485 19.6 10.4605 19.6C10.4726 19.6 10.4847 19.6 10.4968 19.6C10.5089 19.6 10.521 19.6 10.533 19.6C10.5451 19.6 10.5572 19.6 10.5693 19.6C10.5814 19.6 10.5934 19.6 10.6055 19.6C10.6176 19.6 10.6297 19.6 10.6418 19.6C10.6538 19.6 10.6659 19.6 10.678 19.6C10.6901 19.6 10.7021 19.6 10.7142 19.6C10.7263 19.6 10.7383 19.6 10.7504 19.6C10.7625 19.6 10.7746 19.6 10.7866 19.6C10.7987 19.6 10.8108 19.6 10.8228 19.6C10.8349 19.6 10.847 19.6 10.859 19.6C10.8711 19.6 10.8832 19.6 10.8952 19.6C10.9073 19.6 10.9194 19.6 10.9314 19.6C10.9435 19.6 10.9555 19.6 10.9676 19.6C10.9797 19.6 10.9917 19.6 11.0038 19.6C11.0158 19.6 11.0279 19.6 11.0399 19.6C11.052 19.6 11.064 19.6 11.0761 19.6C11.0881 19.6 11.1002 19.6 11.1122 19.6C11.1243 19.6 11.1363 19.6 11.1484 19.6C11.1604 19.6 11.1724 19.6 11.1845 19.6C11.1965 19.6 11.2086 19.6 11.2206 19.6C11.2326 19.6 11.2447 19.6 11.2567 19.6C11.2687 19.6 11.2808 19.6 11.2928 19.6C11.3048 19.6 11.3169 19.6 11.3289 19.6C11.3409 19.6 11.3529 19.6 11.365 19.6C11.377 19.6 11.389 19.6 11.401 19.6C11.413 19.6 11.425 19.6 11.4371 19.6C11.4491 19.6 11.4611 19.6 11.4731 19.6C11.4851 19.6 11.4971 19.6 11.5091 19.6C11.5211 19.6 11.5331 19.6 11.5451 19.6C11.5571 19.6 11.5691 19.6 11.5811 19.6C11.5931 19.6 11.6051 19.6 11.6171 19.6C11.6291 19.6 11.6411 19.6 11.6531 19.6C11.6651 19.6 11.677 19.6 11.689 19.6C11.701 19.6 11.713 19.6 11.725 19.6C11.7369 19.6 11.7489 19.6 11.7609 19.6C11.7729 19.6 11.7848 19.6 11.7968 19.6C11.8088 19.6 11.8207 19.6 11.8327 19.6C11.8446 19.6 11.8566 19.6 11.8685 19.6C11.8805 19.6 11.8925 19.6 11.9044 19.6C11.9164 19.6 11.9283 19.6 11.9402 19.6C11.9522 19.6 11.9641 19.6 11.9761 19.6C11.988 19.6 11.9999 19.6 12.0119 19.6C12.0238 19.6 12.0357 19.6 12.0477 19.6C12.0596 19.6 12.0715 19.6 12.0834 19.6C12.0953 19.6 12.1073 19.6 12.1192 19.6C12.1311 19.6 12.143 19.6 12.1549 19.6C12.1668 19.6 12.1787 19.6 12.1906 19.6C12.2025 19.6 12.2144 19.6 12.2263 19.6C12.2382 19.6 12.2501 19.6 12.262 19.6C12.2738 19.6 12.2857 19.6 12.2976 19.6C12.3095 19.6 12.3213 19.6 12.3332 19.6C12.3451 19.6 12.357 19.6 12.3688 19.6C12.3807 19.6 12.3925 19.6 12.4044 19.6C12.4163 19.6 12.4281 19.6 12.44 19.6C12.4518 19.6 12.4637 19.6 12.4755 19.6C12.4873 19.6 12.4992 19.6 12.511 19.6C12.5228 19.6 12.5347 19.6 12.5465 19.6C12.5583 19.6 12.5701 19.6 12.582 19.6C12.5938 19.6 12.6056 19.6 12.6174 19.6C12.6292 19.6 12.641 19.6 12.6528 19.6C12.6646 19.6 12.6764 19.6 12.6882 19.6C12.7 19.6 12.7118 19.6 12.7236 19.6C12.7354 19.6 12.7471 19.6 12.7589 19.6C12.7707 19.6 12.7825 19.6 12.7942 19.6C12.806 19.6 12.8178 19.6 12.8295 19.6C12.8413 19.6 12.853 19.6 12.8648 19.6C12.8765 19.6 12.8883 19.6 12.9 19.6C12.9118 19.6 12.9235 19.6 12.9352 19.6C12.947 19.6 12.9587 19.6 12.9704 19.6C12.9821 19.6 12.9938 19.6 13.0056 19.6C13.0173 19.6 13.029 19.6 13.0407 19.6C13.0524 19.6 13.0641 19.6 13.0758 19.6C13.0875 19.6 13.0992 19.6 13.1108 19.6C13.1225 19.6 13.1342 19.6 13.1459 19.6C13.1576 19.6 13.1692 19.6 13.1809 19.6C13.1925 19.6 13.2042 19.6 13.2159 19.6C13.2275 19.6 13.2392 19.6 13.2508 19.6C13.2624 19.6 13.2741 19.6 13.2857 19.6C13.2973 19.6 13.309 19.6 13.3206 19.6C13.3322 19.6 13.3438 19.6 13.3554 19.6C13.3671 19.6 13.3787 19.6 13.3903 19.6C13.4019 19.6 13.4135 19.6 13.4251 19.6C13.4366 19.6 13.4482 19.6 13.4598 19.6C13.4714 19.6 13.483 19.6 13.4945 19.6C13.5061 19.6 13.5177 19.6 13.5292 19.6C13.5408 19.6 13.5523 19.6 13.5639 19.6C13.5754 19.6 13.5869 19.6 13.5985 19.6C13.61 19.6 13.6215 19.6 13.6331 19.6C13.6446 19.6 13.6561 19.6 13.6676 19.6C13.6791 19.6 13.6906 19.6 13.7021 19.6C13.7136 19.6 13.7251 19.6 13.7366 19.6C13.7481 19.6 13.7596 19.6 13.771 19.6C13.7825 19.6 13.794 19.6 13.8054 19.6C13.8169 19.6 13.8284 19.6 13.8398 19.6C13.8513 19.6 13.8627 19.6 13.8741 19.6C13.8856 19.6 13.897 19.6 13.9084 19.6C13.9199 19.6 13.9313 19.6 13.9427 19.6C13.9541 19.6 13.9655 19.6 13.9769 19.6C13.9883 19.6 13.9997 19.6 14.0111 19.6C14.0225 19.6 14.0339 19.6 14.0452 19.6C14.0566 19.6 14.068 19.6 14.0793 19.6C14.0907 19.6 14.102 19.6 14.1134 19.6C14.1247 19.6 14.1361 19.6 14.1474 19.6C14.1587 19.6 14.1701 19.6 14.1814 19.6C14.1927 19.6 14.204 19.6 14.2153 19.6C14.2266 19.6 14.2379 19.6 14.2492 19.6C14.2605 19.6 14.2718 19.6 14.2831 19.6C14.2944 19.6 14.3056 19.6 14.3169 19.6C14.3282 19.6 14.3394 19.6 14.3507 19.6C14.3619 19.6 14.3732 19.6 14.3844 19.6C14.3956 19.6 14.4069 19.6 14.4181 19.6C14.4293 19.6 14.4405 19.6 14.4517 19.6C14.4629 19.6 14.4741 19.6 14.4853 19.6C14.4965 19.6 14.5077 19.6 14.5189 19.6C14.53 19.6 14.5412 19.6 14.5524 19.6C14.5635 19.6 14.5747 19.6 14.5858 19.6C14.597 19.6 14.6081 19.6 14.6193 19.6C14.6304 19.6 14.6415 19.6 14.6526 19.6C14.6638 19.6 14.6749 19.6 14.686 19.6C14.6971 19.6 14.7082 19.6 14.7193 19.6C14.7303 19.6 14.7414 19.6 14.7525 19.6C14.7636 19.6 14.7746 19.6 14.7857 19.6C14.7967 19.6 14.8078 19.6 14.8188 19.6C14.8299 19.6 14.8409 19.6 14.8519 19.6C14.8629 19.6 14.874 19.6 14.885 19.6C14.896 19.6 14.907 19.6 14.918 19.6C14.929 19.6 14.9399 19.6 14.9509 19.6C14.9619 19.6 14.9729 19.6 14.9838 19.6C14.9948 19.6 15.0057 19.6 15.0167 19.6C15.0276 19.6 15.0385 19.6 15.0495 19.6C15.0604 19.6 15.0713 19.6 15.0822 19.6C15.0931 19.6 15.104 19.6 15.1149 19.6C15.1258 19.6 15.1367 19.6 15.1476 19.6C15.1584 19.6 15.1693 19.6 15.1802 19.6C15.191 19.6 15.2019 19.6 15.2127 19.6C15.2235 19.6 15.2344 19.6 15.2452 19.6C15.256 19.6 15.2668 19.6 15.2776 19.6C15.2884 19.6 15.2992 19.6 15.31 19.6C15.3208 19.6 15.3316 19.6 15.3424 19.6C15.3531 19.6 15.3639 19.6 15.3746 19.6C15.3854 19.6 15.3961 19.6 15.4069 19.6C15.4176 19.6 15.4283 19.6 15.439 19.6C15.4498 19.6 15.4605 19.6 15.4712 19.6C15.4819 19.6 15.4926 19.6 15.5032 19.6C15.5139 19.6 15.5246 19.6 15.5352 19.6C15.5459 19.6 15.5566 19.6 15.5672 19.6C15.5778 19.6 15.5885 19.6 15.5991 19.6C15.6097 19.6 15.6203 19.6 15.6309 19.6C15.6415 19.6 15.6521 19.6 15.6627 19.6C15.6733 19.6 15.6839 19.6 15.6944 19.6C15.705 19.6 15.7156 19.6 15.7261 19.6C15.7367 19.6 15.7472 19.6 15.7577 19.6C15.7683 19.6 15.7788 19.6 15.7893 19.6C15.7998 19.6 15.8103 19.6 15.8208 19.6C15.8313 19.6 15.8417 19.6 15.8522 19.6C15.8627 19.6 15.8731 19.6 15.8836 19.6C15.894 19.6 15.9045 19.6 15.9149 19.6C15.9253 19.6 15.9358 19.6 15.9462 19.6C15.9566 19.6 15.967 19.6 15.9774 19.6C15.9878 19.6 15.9981 19.6 16.0085 19.6C16.0189 19.6 16.0292 19.6 16.0396 19.6C16.0499 19.6 16.0603 19.6 16.0706 19.6C16.0809 19.6 16.0912 19.6 16.1015 19.6C16.1118 19.6 16.1221 19.6 16.1324 19.6C16.1427 19.6 16.153 19.6 16.1633 19.6C16.1735 19.6 16.1838 19.6 16.194 19.6C16.2043 19.6 16.2145 19.6 16.2247 19.6C16.2349 19.6 16.2452 19.6 16.2554 19.6C16.2656 19.6 16.2758 19.6 16.2859 19.6C16.2961 19.6 16.3063 19.6 16.3164 19.6C16.3266 19.6 16.3368 19.6 16.3469 19.6C16.357 19.6 16.3672 19.6 16.3773 19.6C16.3874 19.6 16.3975 19.6 16.4076 19.6C16.4177 19.6 16.4278 19.6 16.4378 19.6C16.4479 19.6 16.458 19.6 16.468 19.6C16.4781 19.6 16.4881 19.6 16.4981 19.6C16.5082 19.6 16.5182 19.6 16.5282 19.6C16.5382 19.6 16.5482 19.6 16.5582 19.6C16.5681 19.6 16.5781 19.6 16.5881 19.6C16.598 19.6 16.608 19.6 16.6179 19.6C16.6279 19.6 16.6378 19.6 16.6477 19.6C16.6576 19.6 16.6675 19.6 16.6774 19.6C16.6873 19.6 16.6972 19.6 16.707 19.6C16.7169 19.6 16.7268 19.6 16.7366 19.6C16.7465 19.6 16.7563 19.6 16.7661 19.6C16.7759 19.6 16.7858 19.6 16.7956 19.6C16.8053 19.6 16.8151 19.6 16.8249 19.6C16.8347 19.6 16.8444 19.6 16.8542 19.6C16.864 19.6 16.8737 19.6 16.8834 19.6C16.8931 19.6 16.9029 19.6 16.9126 19.6C16.9223 19.6 16.932 19.6 16.9416 19.6C16.9513 19.6 16.961 19.6 16.9706 19.6C16.9803 19.6 16.9899 19.6 16.9996 19.6C17.0092 19.6 17.0188 19.6 17.0284 19.6C17.038 19.6 17.0476 19.6 17.0572 19.6C17.0668 19.6 17.0764 19.6 17.0859 19.6C17.0955 19.6 17.105 19.6 17.1146 19.6C17.1241 19.6 17.1336 19.6 17.1431 19.6C17.1526 19.6 17.1621 19.6 17.1716 19.6C17.1811 19.6 17.1906 19.6 17.2 19.6C17.2095 19.6 17.2189 19.6 17.2284 19.6C17.2378 19.6 17.2472 19.6 17.2566 19.6C17.266 19.6 17.2754 19.6 17.2848 19.6C17.2942 19.6 17.3035 19.6 17.3129 19.6C17.3223 19.6 17.3316 19.6 17.3409 19.6C17.3503 19.6 17.3596 19.6 17.3689 19.6C17.3782 19.6 17.3875 19.6 17.3968 19.6C17.406 19.6 17.4153 19.6 17.4246 19.6C17.4338 19.6 17.443 19.6 17.4523 19.6C17.4615 19.6 17.4707 19.6 17.4799 19.6C17.4891 19.6 17.4983 19.6 17.5075 19.6C17.5166 19.6 17.5258 19.6 17.535 19.6C17.5441 19.6 17.5532 19.6 17.5624 19.6C17.5715 19.6 17.5806 19.6 17.5897 19.6C17.5988 19.6 17.6078 19.6 17.6169 19.6C17.626 19.6 17.635 19.6 17.6441 19.6C17.6531 19.6 17.6621 19.6 17.6712 19.6C17.6802 19.6 17.6892 19.6 17.6981 19.6C17.7071 19.6 17.7161 19.6 17.7251 19.6C17.734 19.6 17.743 19.6 17.7519 19.6C17.7608 19.6 17.7697 19.6 17.7786 19.6C17.7875 19.6 17.7964 19.6 17.8053 19.6C17.8142 19.6 17.823 19.6 17.8319 19.6C17.8407 19.6 17.8496 19.6 17.8584 19.6C17.8672 19.6 17.876 19.6 17.8848 19.6C17.8936 19.6 17.9024 19.6 17.9111 19.6C17.9199 19.6 17.9286 19.6 17.9374 19.6C17.9461 19.6 17.9548 19.6 17.9635 19.6C17.9722 19.6 17.9809 19.6 17.9896 19.6C17.9983 19.6 18.0069 19.6 18.0156 19.6C18.0242 19.6 18.0329 19.6 18.0415 19.6C18.0501 19.6 18.0587 19.6 18.0673 19.6C18.0759 19.6 18.0845 19.6 18.093 19.6C18.1016 19.6 18.1101 19.6 18.1187 19.6C18.1272 19.6 18.1357 19.6 18.1442 19.6C18.1527 19.6 18.1612 19.6 18.1697 19.6C18.1782 19.6 18.1866 19.6 18.1951 19.6C18.2035 19.6 18.2119 19.6 18.2203 19.6C18.2288 19.6 18.2372 19.6 18.2455 19.6C18.2539 19.6 18.2623 19.6 18.2707 19.6C18.279 19.6 18.2873 19.6 18.2957 19.6C18.304 19.6 18.3123 19.6 18.3206 19.6C18.3289 19.6 18.3372 19.6 18.3454 19.6C18.3537 19.6 18.3619 19.6 18.3702 19.6C18.3784 19.6 18.3866 19.6 18.3948 19.6C18.403 19.6 18.4112 19.6 18.4194 19.6C18.4276 19.6 18.4357 19.6 18.4439 19.6C18.452 19.6 18.4601 19.6 18.4682 19.6C18.4763 19.6 18.4844 19.6 18.4925 19.6C18.5006 19.6 18.5087 19.6 18.5167 19.6C18.5248 19.6 18.5328 19.6 18.5408 19.6C18.5488 19.6 18.5568 19.6 18.5648 19.6C18.5728 19.6 18.5808 19.6 18.5887 19.6C18.5967 19.6 18.6046 19.6 18.6125 19.6C18.6205 19.6 18.6284 19.6 18.6362 19.6C18.6441 19.6 18.652 19.6 18.6599 19.6C18.6677 19.6 18.6756 19.6 18.6834 19.6C18.6912 19.6 18.699 19.6 18.7068 19.6C18.7146 19.6 18.7224 19.6 18.7302 19.6C18.7379 19.6 18.7457 19.6 18.7534 19.6C18.7611 19.6 18.7688 19.6 18.7765 19.6C18.7842 19.6 18.7919 19.6 18.7996 19.6C18.8072 19.6 18.8149 19.6 18.8225 19.6C18.8302 19.6 18.8378 19.6 18.8454 19.6C18.853 19.6 18.8606 19.6 18.8681 19.6C18.8757 19.6 18.8832 19.6 18.8908 19.6C18.8983 19.6 18.9058 19.6 18.9133 19.6C18.9208 19.6 18.9283 19.6 18.9358 19.6C18.9432 19.6 18.9507 19.6 18.9581 19.6C18.9655 19.6 18.973 19.6 18.9804 19.6C18.9878 19.6 18.9951 19.6 19.0025 19.6C19.0099 19.6 19.0172 19.6 19.0246 19.6C19.0319 19.6 19.0392 19.6 19.0465 19.6C19.0538 19.6 19.0611 19.6 19.0683 19.6C19.0756 19.6 19.0829 19.6 19.0901 19.6C19.0973 19.6 19.1045 19.6 19.1117 19.6C19.1189 19.6 19.1261 19.6 19.1333 19.6C19.1404 19.6 19.1476 19.6 19.1547 19.6C19.1618 19.6 19.1689 19.6 19.176 19.6C19.1831 19.6 19.1902 19.6 19.1972 19.6C19.2043 19.6 19.2113 19.6 19.2184 19.6C19.2254 19.6 19.2324 19.6 19.2394 19.6C19.2464 19.6 19.2533 19.6 19.2603 19.6C19.2672 19.6 19.2742 19.6 19.2811 19.6C19.288 19.6 19.2949 19.6 19.3018 19.6C19.3087 19.6 19.3155 19.6 19.3224 19.6C19.3292 19.6 19.336 19.6 19.3429 19.6C19.3497 19.6 19.3565 19.6 19.3632 19.6C19.37 19.6 19.3768 19.6 19.3835 19.6C19.3902 19.6 19.397 19.6 19.4037 19.6C19.4104 19.6 19.4171 19.6 19.4237 19.6C19.4304 19.6 19.437 19.6 19.4437 19.6C19.4503 19.6 19.4569 19.6 19.4635 19.6C19.4701 19.6 19.4767 19.6 19.4832 19.6C19.4898 19.6 19.4963 19.6 19.5028 19.6C19.5094 19.6 19.5159 19.6 19.5224 19.6C19.5288 19.6 19.5353 19.6 19.5418 19.6C19.5482 19.6 19.5546 19.6 19.561 19.6C19.5674 19.6 19.5738 19.6 19.5802 19.6C19.5866 19.6 19.5929 19.6 19.5993 19.6C19.6056 19.6 19.6119 19.6 19.6182 19.6C19.6245 19.6 19.6308 19.6 19.6371 19.6C19.6433 19.6 19.6496 19.6 19.6558 19.6C19.662 19.6 19.6682 19.6 19.6744 19.6C19.6806 19.6 19.6868 19.6 19.6929 19.6C19.6991 19.6 19.7052 19.6 19.7113 19.6C19.7174 19.6 19.7235 19.6 19.7296 19.6C19.7357 19.6 19.7417 19.6 19.7477 19.6C19.7538 19.6 19.7598 19.6 19.7658 19.6C19.7718 19.6 19.7778 19.6 19.7837 19.6C19.7897 19.6 19.7956 19.6 19.8015 19.6C19.8075 19.6 19.8134 19.6 19.8192 19.6C19.8251 19.6 19.831 19.6 19.8368 19.6C19.8427 19.6 19.8485 19.6 19.8543 19.6C19.8601 19.6 19.8659 19.6 19.8716 19.6C19.8774 19.6 19.8831 19.6 19.8889 19.6C19.8946 19.6 19.9003 19.6 19.906 19.6C19.9117 19.6 19.9173 19.6 19.923 19.6C19.9286 19.6 19.9343 19.6 19.9399 19.6C19.9455 19.6 19.9511 19.6 19.9566 19.6C19.9622 19.6 19.9677 19.6 19.9733 19.6C19.9788 19.6 19.9843 19.6 19.9898 19.6C19.9953 19.6 20.0007 19.6 20.0062 19.6V18.4ZM3.6 18V6H2.4V18H3.6ZM11.4 7V9H12.6V7H11.4ZM12.6 17V15H11.4V17H12.6ZM9.39844 15.6H13.9V14.4H9.39844V15.6ZM14.6 14.9V12.1H13.4V14.9H14.6ZM13.9 11.4H10.1V12.6H13.9V11.4ZM10.6 11.9V9.1H9.4V11.9H10.6ZM10.1 9.6H14.6055V8.4H10.1V9.6ZM14.6 12.1C14.6 11.7134 14.2866 11.4 13.9 11.4V12.6C13.6239 12.6 13.4 12.3761 13.4 12.1H14.6ZM13.9 15.6C14.2866 15.6 14.6 15.2866 14.6 14.9H13.4C13.4 14.6239 13.6239 14.4 13.9 14.4V15.6ZM3.99679 18.4C3.77839 18.4 3.6 18.2234 3.6 18H2.4C2.4 18.8811 3.11062 19.6 3.99679 19.6V18.4ZM20.4 18C20.4 18.2258 20.2223 18.4 20.0062 18.4V19.6C20.8947 19.6 21.6 18.8788 21.6 18H20.4ZM10.6 9.1C10.6 9.37614 10.3761 9.6 10.1 9.6V8.4C9.7134 8.4 9.4 8.7134 9.4 9.1H10.6ZM20 5.6C20.2209 5.6 20.4 5.77909 20.4 6H21.6C21.6 5.11634 20.8837 4.4 20 4.4V5.6ZM10.1 11.4C10.3761 11.4 10.6 11.6239 10.6 11.9H9.4C9.4 12.2866 9.7134 12.6 10.1 12.6V11.4ZM4 4.4C3.11634 4.4 2.4 5.11635 2.4 6H3.6C3.6 5.77909 3.77909 5.6 4 5.6V4.4Z" fill="#555770"/>
</svg>
