<svg width="24" height="24" viewBox="0 0 24 24" fill="none" xmlns="http://www.w3.org/2000/svg">
<path d="M12.1 14.75V9.25H10.9V14.75H12.1ZM11.5 8.65H8.5V9.85H11.5V8.65ZM11.5 9.85H14.5V8.65H11.5V9.85ZM6 8.65H3V9.85H6V8.65ZM1.9 9.75V12.25H3.1V9.75H1.9ZM1.9 12.25V14.75H3.1V12.25H1.9ZM7.1 14.75V12.25H5.9V14.75H7.1ZM7.1 12.25V9.75H5.9V12.25H7.1ZM2.5 12.85H6.5V11.65H2.5V12.85ZM17.1 14.75V9.75H15.9V14.75H17.1ZM20.9 9.75V14.75H22.1V9.75H20.9ZM17 9.85H19V8.65H17V9.85ZM19 9.85H21V8.65H19V9.85ZM18.4 9.25V13.75H19.6V9.25H18.4ZM22.1 9.75C22.1 9.14249 21.6075 8.65 21 8.65V9.85C20.9448 9.85 20.9 9.80523 20.9 9.75H22.1ZM17.1 9.75C17.1 9.80523 17.0552 9.85 17 9.85V8.65C16.3925 8.65 15.9 9.14249 15.9 9.75H17.1ZM3 8.65C2.39249 8.65 1.9 9.14249 1.9 9.75H3.1C3.1 9.80523 3.05523 9.85 3 9.85V8.65ZM6 9.85C5.94477 9.85 5.9 9.80523 5.9 9.75H7.1C7.1 9.14249 6.60751 8.65 6 8.65V9.85Z" fill="#555770"/>
</svg>
