<svg width="24" height="24" viewBox="0 0 24 24" fill="none" xmlns="http://www.w3.org/2000/svg">
<path d="M8 11L8.42426 10.5757L8 10.1515L7.57574 10.5757L8 11ZM12 15L11.5757 15.4243L12 15.8485L12.4243 15.4243L12 15ZM20 7H20.6V6.4H20V7ZM4 20H3.4V20.6H4V20ZM4.42426 15.4243L8.42426 11.4243L7.57574 10.5757L3.57574 14.5757L4.42426 15.4243ZM7.57574 11.4243L11.5757 15.4243L12.4243 14.5757L8.42426 10.5757L7.57574 11.4243ZM20 6.4H16V7.6H20V6.4ZM19.4 7V11H20.6V7H19.4ZM4 20.6H21V19.4H4V20.6ZM4.6 20V15H3.4V20H4.6ZM4.6 15V4H3.4V15H4.6ZM12.4243 15.4243L20.4243 7.42426L19.5757 6.57574L11.5757 14.5757L12.4243 15.4243Z" fill="#555770"/>
</svg>
