<svg width="24" height="24" viewBox="0 0 24 24" fill="none" xmlns="http://www.w3.org/2000/svg">
<path d="M12.1317 11.4146C11.1203 11.1871 10.2057 10.856 9.55792 10.4077C8.92211 9.96773 8.6 9.46074 8.6 8.85H7.4C7.4 9.97895 8.03322 10.8119 8.87507 11.3945C9.70494 11.9688 10.7903 12.3428 11.8683 12.5854L12.1317 11.4146ZM8.6 8.85C8.6 7.56732 9.98076 6.3 12 6.3V5.1C9.60096 5.1 7.4 6.65328 7.4 8.85H8.6ZM12 6.3C14.0192 6.3 15.4 7.56732 15.4 8.85H16.6C16.6 6.65328 14.399 5.1 12 5.1V6.3ZM15.4 15.15C15.4 16.4327 14.0192 17.7 12 17.7V18.9C14.399 18.9 16.6 17.3467 16.6 15.15H15.4ZM12 17.7C9.98076 17.7 8.6 16.4327 8.6 15.15H7.4C7.4 17.3467 9.60096 18.9 12 18.9V17.7ZM11.8683 12.5854C12.8325 12.8023 13.7495 13.1333 14.4109 13.5864C15.0655 14.0348 15.4 14.5482 15.4 15.15H16.6C16.6 14.0121 15.9345 13.1755 15.0891 12.5964C14.2505 12.0219 13.1675 11.6477 12.1317 11.4146L11.8683 12.5854ZM12.6 5.7V3H11.4V5.7H12.6ZM11.4 18.3V21H12.6V18.3H11.4Z" fill="#555770"/>
</svg>
