<svg width="24" height="24" viewBox="0 0 24 24" fill="none" xmlns="http://www.w3.org/2000/svg">
<circle cx="12" cy="12" r="10" stroke="#555770" stroke-width="1.2"/>
<path d="M12 12L12.1363 11.4157L12 12ZM12.1363 11.4157C11.3877 11.241 10.7247 10.9897 10.2622 10.6578C9.8134 10.3358 9.6 9.97735 9.6 9.55H8.4C8.4 10.4758 8.90309 11.1595 9.56255 11.6328C10.2083 12.0962 11.0452 12.3933 11.8637 12.5843L12.1363 11.4157ZM9.6 9.55C9.6 8.63615 10.5552 7.7 12 7.7V6.5C10.1311 6.5 8.4 7.75765 8.4 9.55H9.6ZM12 7.7C13.4448 7.7 14.4 8.63615 14.4 9.55H15.6C15.6 7.75765 13.8689 6.5 12 6.5V7.7ZM14.4 14.45C14.4 15.3638 13.4448 16.3 12 16.3V17.5C13.8689 17.5 15.6 16.2423 15.6 14.45H14.4ZM12 16.3C10.5552 16.3 9.6 15.3638 9.6 14.45H8.4C8.4 16.2423 10.1311 17.5 12 17.5V16.3ZM11.8637 12.5843C12.5762 12.7506 13.2418 13.0018 13.715 13.338C14.1793 13.6678 14.4 14.0315 14.4 14.45H15.6C15.6 13.5154 15.0707 12.8291 14.41 12.3597C13.7582 11.8967 12.9238 11.5994 12.1363 11.4157L11.8637 12.5843ZM12.6 7.1V5H11.4V7.1H12.6ZM11.4 16.9V19H12.6V16.9H11.4Z" fill="#555770"/>
</svg>
