<svg width="24" height="24" viewBox="0 0 24 24" fill="none" xmlns="http://www.w3.org/2000/svg">
<path d="M21.9276 9.14472L21.391 8.87639L21.9276 9.14472ZM18.0276 16.9447L18.5643 17.213L18.0276 16.9447ZM5.97236 16.9447L5.4357 17.213L5.97236 16.9447ZM11.9168 3.12481L12.416 3.45763L11.9168 3.12481ZM12.0832 3.12481L11.584 3.45763L12.0832 3.12481ZM2.07236 9.14472L2.60902 8.87639L2.60902 8.87639L2.07236 9.14472ZM1.5357 9.41305L5.4357 17.213L6.50902 16.6764L2.60902 8.87639L1.5357 9.41305ZM6.0618 17.6H17.9382V16.4H6.0618V17.6ZM18.5643 17.213L22.4643 9.41305L21.391 8.87639L17.491 16.6764L18.5643 17.213ZM16 8.4H8V9.6H16V8.4ZM8 8.4H2.1618V9.6H8V8.4ZM11.4176 2.79199L7.50077 8.66718L8.49923 9.33282L12.416 3.45763L11.4176 2.79199ZM21.8382 8.4H16V9.6H21.8382V8.4ZM11.584 3.45763L15.5008 9.33282L16.4992 8.66718L12.5824 2.79199L11.584 3.45763ZM22.4643 9.41305C22.697 8.94762 22.3586 8.4 21.8382 8.4V9.6C21.4665 9.6 21.2248 9.20885 21.391 8.87639L22.4643 9.41305ZM17.9382 17.6C18.2033 17.6 18.4457 17.4502 18.5643 17.213L17.491 16.6764C17.5757 16.507 17.7488 16.4 17.9382 16.4V17.6ZM5.4357 17.213C5.55428 17.4502 5.79666 17.6 6.0618 17.6V16.4C6.25119 16.4 6.42432 16.507 6.50902 16.6764L5.4357 17.213ZM12.416 3.45763C12.2181 3.75449 11.7819 3.75449 11.584 3.45763L12.5824 2.79199C12.3054 2.37637 11.6946 2.37637 11.4176 2.79199L12.416 3.45763ZM2.60902 8.87639C2.77524 9.20884 2.53349 9.6 2.1618 9.6V8.4C1.64144 8.4 1.30299 8.94762 1.5357 9.41305L2.60902 8.87639Z" fill="#555770"/>
<rect x="10.6" y="11.6" width="2.8" height="2.8" rx="1.4" stroke="#555770" stroke-width="1.2"/>
</svg>
