<svg width="24" height="24" viewBox="0 0 24 24" fill="none" xmlns="http://www.w3.org/2000/svg">
<path d="M10 2V1H9V2H10ZM4.5 18L3.52986 18.2425L3.71922 19H4.5V18ZM8 15.5L8.78087 14.8753L8 13.8992L7.21913 14.8753L8 15.5ZM8 21L8.44721 20.1056L7.92816 19.846L7.4453 20.1679L8 21ZM14 2H15V1H14V2ZM19.5 18V19H20.2808L20.4701 18.2425L19.5 18ZM16 15.5L16.7809 14.8753L16 13.8992L15.2191 14.8753L16 15.5ZM16 21L16.5547 20.1679L16.0718 19.846L15.5528 20.1056L16 21ZM11.9684 9.01054L12.2846 9.95922L11.9684 9.01054ZM12.0316 9.01054L11.7154 9.95922L12.0316 9.01054ZM3.08785 11.9707L2.77162 11.022L3.08785 11.9707ZM3.02246 12.0898L3.9926 11.8473L3.02246 12.0898ZM20.9121 11.9707L21.2284 11.022L20.9121 11.9707ZM20.9775 12.0898L20.0074 11.8473L20.9775 12.0898ZM9 2V5H11V2H9ZM10 4H6V6H10V4ZM4 6V11.3333H6V6H4ZM3.40408 12.9194L5.31623 12.282L4.68377 10.3846L2.77162 11.022L3.40408 12.9194ZM5.31623 12.282L12.2846 9.95922L11.6521 8.06186L4.68377 10.3846L5.31623 12.282ZM2.05232 12.3324L3.52986 18.2425L5.47014 17.7575L3.9926 11.8473L2.05232 12.3324ZM4.5 19C5.13359 19 5.72296 18.7441 6.18671 18.4713C6.66614 18.1893 7.1134 17.8279 7.48517 17.4899C7.86057 17.1487 8.18138 16.8107 8.40736 16.5596C8.52095 16.4334 8.61207 16.3275 8.67576 16.2519C8.70764 16.2141 8.73274 16.1837 8.75044 16.1622C8.7593 16.1514 8.76631 16.1427 8.7714 16.1364C8.77395 16.1333 8.77602 16.1307 8.7776 16.1288C8.77839 16.1278 8.77906 16.127 8.7796 16.1263C8.77988 16.1259 8.78012 16.1256 8.78033 16.1254C8.78043 16.1252 8.78057 16.1251 8.78062 16.125C8.78075 16.1248 8.78087 16.1247 8 15.5C7.21913 14.8753 7.21924 14.8752 7.21933 14.8751C7.21935 14.875 7.21944 14.8749 7.21949 14.8749C7.21958 14.8747 7.21964 14.8747 7.21967 14.8746C7.21972 14.8746 7.21967 14.8746 7.21949 14.8749C7.21914 14.8753 7.21831 14.8763 7.21703 14.8779C7.21447 14.8811 7.21007 14.8865 7.20391 14.894C7.19158 14.909 7.17224 14.9324 7.1465 14.9629C7.09496 15.0241 7.01811 15.1135 6.92077 15.2217C6.72487 15.4393 6.45193 15.7263 6.13983 16.0101C5.8241 16.2971 5.49011 16.5607 5.17267 16.7474C4.83954 16.9434 4.61641 17 4.5 17V19ZM8 15.5C7.21913 16.1247 7.21929 16.1249 7.21945 16.1251C7.21952 16.1252 7.21969 16.1254 7.21982 16.1256C7.22008 16.1259 7.22037 16.1262 7.2207 16.1266C7.22134 16.1275 7.22211 16.1284 7.22301 16.1295C7.22479 16.1317 7.22707 16.1346 7.22984 16.138C7.23537 16.1448 7.24285 16.1539 7.25221 16.1652C7.27092 16.1879 7.29722 16.2193 7.33059 16.2582C7.39726 16.336 7.49261 16.4443 7.61269 16.5729C7.85165 16.829 8.19464 17.1722 8.60982 17.5182C9.39283 18.1707 10.628 19 12 19V17C11.372 17 10.6072 16.5793 9.89018 15.9818C9.55536 15.7028 9.27335 15.421 9.07481 15.2083C8.97614 15.1026 8.89961 15.0156 8.8491 14.9566C8.82388 14.9272 8.80525 14.9049 8.79369 14.8909C8.78792 14.8839 8.78392 14.879 8.78176 14.8764C8.78068 14.8751 8.78006 14.8743 8.77991 14.8741C8.77983 14.874 8.77988 14.8741 8.78003 14.8743C8.78011 14.8744 8.78022 14.8745 8.78036 14.8747C8.78043 14.8748 8.78056 14.8749 8.78059 14.875C8.78073 14.8751 8.78087 14.8753 8 15.5ZM12 21C11.1513 21 10.2663 20.7847 9.56623 20.5513C9.22217 20.4366 8.93589 20.3221 8.73767 20.2371C8.63881 20.1947 8.56255 20.16 8.51273 20.1368C8.48784 20.1252 8.4696 20.1164 8.45851 20.1111C8.45297 20.1084 8.44921 20.1065 8.44731 20.1056C8.44635 20.1051 8.44587 20.1049 8.44585 20.1049C8.44584 20.1049 8.44595 20.1049 8.44617 20.1051C8.44629 20.1051 8.44643 20.1052 8.4466 20.1053C8.44669 20.1053 8.44684 20.1054 8.44689 20.1054C8.44705 20.1055 8.44721 20.1056 8 21C7.55279 21.8944 7.55297 21.8945 7.55316 21.8946C7.55323 21.8947 7.55343 21.8947 7.55358 21.8948C7.55387 21.895 7.5542 21.8951 7.55456 21.8953C7.55527 21.8957 7.55611 21.8961 7.55707 21.8966C7.55899 21.8975 7.5614 21.8987 7.56429 21.9001C7.57008 21.903 7.5778 21.9067 7.58739 21.9114C7.60657 21.9207 7.63326 21.9334 7.66696 21.9492C7.73432 21.9806 7.82994 22.024 7.94983 22.0754C8.18911 22.1779 8.52783 22.3134 8.93377 22.4487C9.73368 22.7153 10.8487 23 12 23V21ZM8 21C7.4453 20.1679 7.44548 20.1678 7.44566 20.1677C7.44571 20.1677 7.44588 20.1676 7.44598 20.1675C7.44619 20.1674 7.44637 20.1672 7.44653 20.1671C7.44686 20.1669 7.44709 20.1668 7.44724 20.1667C7.44754 20.1665 7.44749 20.1665 7.44709 20.1668C7.4463 20.1673 7.44414 20.1687 7.44066 20.1709C7.43369 20.1754 7.42146 20.1832 7.40432 20.1939C7.36998 20.2153 7.31627 20.2479 7.24605 20.288C7.10491 20.3687 6.90088 20.4775 6.65636 20.5862C6.14984 20.8113 5.54844 21 5 21V23C5.95156 23 6.85016 22.6887 7.46864 22.4138C7.78662 22.2725 8.05134 22.1313 8.23833 22.0245C8.33216 21.9709 8.40736 21.9253 8.46092 21.892C8.48772 21.8753 8.50918 21.8617 8.52491 21.8515C8.53279 21.8464 8.53923 21.8422 8.54421 21.839C8.5467 21.8373 8.54882 21.8359 8.55057 21.8348C8.55145 21.8342 8.55223 21.8337 8.55292 21.8332C8.55326 21.833 8.55358 21.8328 8.55388 21.8326C8.55403 21.8325 8.55423 21.8324 8.55431 21.8323C8.55451 21.8322 8.5547 21.8321 8 21ZM5 21H2V23H5V21ZM13 2V5H15V2H13ZM14 6H18V4H14V6ZM18 6V11.3333H20V6H18ZM21.2284 11.022L19.3162 10.3846L18.6838 12.282L20.5959 12.9194L21.2284 11.022ZM19.3162 10.3846L12.3479 8.06186L11.7154 9.95922L18.6838 12.282L19.3162 10.3846ZM20.0074 11.8473L18.5299 17.7575L20.4701 18.2425L21.9477 12.3324L20.0074 11.8473ZM19.5 17C19.3836 17 19.1605 16.9434 18.8273 16.7474C18.5099 16.5607 18.1759 16.2971 17.8602 16.0101C17.5481 15.7263 17.2751 15.4393 17.0792 15.2217C16.9819 15.1135 16.905 15.0241 16.8535 14.9629C16.8278 14.9324 16.8084 14.909 16.7961 14.894C16.7899 14.8865 16.7855 14.8811 16.783 14.8779C16.7817 14.8763 16.7809 14.8753 16.7805 14.8749C16.7803 14.8746 16.7803 14.8746 16.7803 14.8746C16.7804 14.8747 16.7804 14.8747 16.7805 14.8749C16.7806 14.8749 16.7806 14.875 16.7807 14.8751C16.7808 14.8752 16.7809 14.8753 16 15.5C15.2191 16.1247 15.2193 16.1248 15.2194 16.125C15.2194 16.1251 15.2196 16.1252 15.2197 16.1254C15.2199 16.1256 15.2201 16.1259 15.2204 16.1263C15.2209 16.127 15.2216 16.1278 15.2224 16.1288C15.224 16.1307 15.226 16.1333 15.2286 16.1364C15.2337 16.1427 15.2407 16.1514 15.2496 16.1622C15.2673 16.1837 15.2924 16.2141 15.3242 16.2519C15.3879 16.3275 15.479 16.4334 15.5926 16.5596C15.8186 16.8107 16.1394 17.1487 16.5148 17.4899C16.8866 17.8279 17.3339 18.1893 17.8133 18.4713C18.277 18.7441 18.8664 19 19.5 19V17ZM16 15.5C15.2191 14.8753 15.2193 14.8751 15.2194 14.875C15.2194 14.8749 15.2196 14.8748 15.2196 14.8747C15.2198 14.8745 15.2199 14.8744 15.22 14.8743C15.2201 14.8741 15.2202 14.874 15.2201 14.8741C15.2199 14.8743 15.2193 14.8751 15.2182 14.8764C15.2161 14.879 15.2121 14.8839 15.2063 14.8909C15.1948 14.9049 15.1761 14.9272 15.1509 14.9566C15.1004 15.0156 15.0239 15.1026 14.9252 15.2083C14.7266 15.421 14.4446 15.7028 14.1098 15.9818C13.3928 16.5793 12.628 17 12 17V19C13.372 19 14.6072 18.1707 15.3902 17.5182C15.8054 17.1722 16.1484 16.829 16.3873 16.5729C16.5074 16.4443 16.6027 16.336 16.6694 16.2582C16.7028 16.2193 16.7291 16.1879 16.7478 16.1652C16.7572 16.1539 16.7646 16.1448 16.7702 16.138C16.7729 16.1346 16.7752 16.1317 16.777 16.1295C16.7779 16.1284 16.7787 16.1275 16.7793 16.1266C16.7796 16.1262 16.7799 16.1259 16.7802 16.1256C16.7803 16.1254 16.7805 16.1252 16.7805 16.1251C16.7807 16.1249 16.7809 16.1247 16 15.5ZM12 23C13.1513 23 14.2663 22.7153 15.0662 22.4487C15.4722 22.3134 15.8109 22.1779 16.0502 22.0754C16.1701 22.024 16.2657 21.9806 16.333 21.9492C16.3667 21.9334 16.3934 21.9207 16.4126 21.9114C16.4222 21.9067 16.4299 21.903 16.4357 21.9001C16.4386 21.8987 16.441 21.8975 16.4429 21.8966C16.4439 21.8961 16.4447 21.8957 16.4454 21.8953C16.4458 21.8951 16.4461 21.895 16.4464 21.8948C16.4466 21.8947 16.4468 21.8947 16.4468 21.8946C16.447 21.8945 16.4472 21.8944 16 21C15.5528 20.1056 15.553 20.1055 15.5531 20.1054C15.5532 20.1054 15.5533 20.1053 15.5534 20.1053C15.5536 20.1052 15.5537 20.1051 15.5538 20.1051C15.5541 20.1049 15.5542 20.1049 15.5542 20.1049C15.5541 20.1049 15.5536 20.1051 15.5527 20.1056C15.5508 20.1065 15.547 20.1084 15.5415 20.1111C15.5304 20.1164 15.5122 20.1252 15.4873 20.1368C15.4374 20.16 15.3612 20.1947 15.2623 20.2371C15.0641 20.3221 14.7778 20.4366 14.4338 20.5513C13.7337 20.7847 12.8487 21 12 21V23ZM16 21C15.4453 21.8321 15.4455 21.8322 15.4457 21.8323C15.4458 21.8324 15.446 21.8325 15.4461 21.8326C15.4464 21.8328 15.4467 21.833 15.4471 21.8332C15.4478 21.8337 15.4486 21.8342 15.4494 21.8348C15.4512 21.8359 15.4533 21.8373 15.4558 21.839C15.4608 21.8422 15.4672 21.8464 15.4751 21.8515C15.4908 21.8617 15.5123 21.8753 15.5391 21.892C15.5926 21.9253 15.6678 21.9709 15.7617 22.0245C15.9487 22.1313 16.2134 22.2725 16.5314 22.4138C17.1498 22.6887 18.0484 23 19 23V21C18.4516 21 17.8502 20.8113 17.3436 20.5862C17.0991 20.4775 16.8951 20.3687 16.754 20.288C16.6837 20.2479 16.63 20.2153 16.5957 20.1939C16.5785 20.1832 16.5663 20.1754 16.5593 20.1709C16.5559 20.1687 16.5537 20.1673 16.5529 20.1668C16.5525 20.1665 16.5525 20.1665 16.5528 20.1667C16.5529 20.1668 16.5531 20.1669 16.5535 20.1671C16.5536 20.1672 16.5538 20.1674 16.554 20.1675C16.5541 20.1676 16.5543 20.1677 16.5543 20.1677C16.5545 20.1678 16.5547 20.1679 16 21ZM19 23H22V21H19V23ZM14 1H10V3H14V1ZM10 6H14V4H10V6ZM18 6L18 6H20C20 4.89543 19.1046 4 18 4V6ZM12.2846 9.95922C12.0999 10.0208 11.9001 10.0208 11.7154 9.95922L12.3479 8.06186C12.1221 7.98659 11.8779 7.98659 11.6521 8.06186L12.2846 9.95922ZM2.77162 11.022C2.22633 11.2038 1.91291 11.7747 2.05232 12.3324L3.9926 11.8473C4.10666 12.3035 3.85023 12.7707 3.40408 12.9194L2.77162 11.022ZM20.5959 12.9194C20.1498 12.7707 19.8933 12.3035 20.0074 11.8473L21.9477 12.3324C22.0871 11.7747 21.7737 11.2038 21.2284 11.022L20.5959 12.9194ZM6 4C4.89543 4 4 4.89543 4 6H6L6 6V4Z" fill="#555770"/>
</svg>
