<svg width="24" height="24" viewBox="0 0 24 24" fill="none" xmlns="http://www.w3.org/2000/svg">
<path d="M5 6C6 6 6 6.0017 5.99999 6.0034C5.99999 6.00396 5.99998 6.00565 5.99998 6.00677C5.99996 6.00901 5.99994 6.01122 5.99991 6.01341C5.99985 6.0178 5.99976 6.0221 5.99964 6.02632C5.99941 6.03475 5.99906 6.04285 5.99862 6.05062C5.99775 6.06617 5.99649 6.08042 5.99497 6.09342C5.99193 6.11948 5.98787 6.14039 5.98381 6.1566C5.97545 6.19004 5.96791 6.20035 5.97315 6.19137C5.98075 6.17836 6.06128 6.04531 6.37114 5.86824C7.02113 5.49682 8.56246 5 12 5V3C8.43754 3 6.47887 3.50318 5.37886 4.13176C4.81372 4.45469 4.45675 4.82164 4.2456 5.18363C4.14146 5.36215 4.07923 5.52871 4.04353 5.67153C4.0258 5.74243 4.0149 5.80631 4.00845 5.86166C4.00522 5.88931 4.00311 5.91478 4.0018 5.9379C4.00115 5.94946 4.0007 5.96043 4.00041 5.97078C4.00027 5.97596 4.00017 5.98099 4.0001 5.98586C4.00006 5.98829 4.00004 5.99069 4.00002 5.99305C4.00002 5.99422 4.00001 5.99597 4.00001 5.99655C4 5.99828 4 6 5 6ZM19 6C20 6 20 5.99828 20 5.99655C20 5.99597 20 5.99422 20 5.99305C20 5.99069 19.9999 5.98829 19.9999 5.98586C19.9998 5.98099 19.9997 5.97596 19.9996 5.97078C19.9993 5.96043 19.9988 5.94946 19.9982 5.9379C19.9969 5.91478 19.9948 5.88931 19.9916 5.86166C19.9851 5.80631 19.9742 5.74243 19.9565 5.67153C19.9208 5.52871 19.8585 5.36215 19.7544 5.18363C19.5432 4.82164 19.1863 4.45469 18.6211 4.13176C17.5211 3.50318 15.5625 3 12 3V5C15.4375 5 16.9789 5.49682 17.6289 5.86824C17.9387 6.04531 18.0193 6.17836 18.0268 6.19137C18.0321 6.20035 18.0245 6.19004 18.0162 6.1566C18.0121 6.14039 18.0081 6.11948 18.005 6.09342C18.0035 6.08042 18.0023 6.06617 18.0014 6.05062C18.0009 6.04285 18.0006 6.03475 18.0004 6.02632C18.0002 6.0221 18.0002 6.0178 18.0001 6.01341C18.0001 6.01122 18 6.00901 18 6.00677C18 6.00565 18 6.00396 18 6.0034C18 6.0017 18 6 19 6ZM6 7V6H4V7H6ZM20 7V6H18V7H20ZM5 8H19V6H5V8ZM20 18V12H18V18H20ZM20 12V7H18V12H20ZM6 18V12H4V18H6ZM6 12V7H4V12H6ZM19 11H5V13H19V11ZM5 19V20.9H7V19H5ZM6.1 22H6.9V20H6.1V22ZM6 20H7V18H6V20ZM8 20.9V19H6V20.9H8ZM7 20H17V18H7V20ZM16 19V20.9H18V19H16ZM17.1 22H17.9V20H17.1V22ZM17 20H18V18H17V20ZM19 20.9V19H17V20.9H19ZM17.9 22C18.5075 22 19 21.5075 19 20.9H17C17 20.4029 17.4029 20 17.9 20V22ZM18 18V18V20C19.1046 20 20 19.1046 20 18H18ZM16 20.9C16 21.5075 16.4925 22 17.1 22V20C17.5971 20 18 20.4029 18 20.9H16ZM4 18C4 19.1046 4.89543 20 6 20V18V18H4ZM6.9 22C7.50751 22 8 21.5075 8 20.9H6C6 20.4029 6.40294 20 6.9 20V22ZM5 20.9C5 21.5075 5.49249 22 6.1 22V20C6.59706 20 7 20.4029 7 20.9H5Z" fill="#555770"/>
<path d="M10 15.5C10 16.3284 9.32843 17 8.5 17C7.67157 17 7 16.3284 7 15.5C7 14.6716 7.67157 14 8.5 14C9.32843 14 10 14.6716 10 15.5Z" fill="#555770"/>
<path d="M17 15.5C17 16.3284 16.3284 17 15.5 17C14.6716 17 14 16.3284 14 15.5C14 14.6716 14.6716 14 15.5 14C16.3284 14 17 14.6716 17 15.5Z" fill="#555770"/>
</svg>
