<svg width="24" height="24" viewBox="0 0 24 24" fill="none" xmlns="http://www.w3.org/2000/svg">
<mask id="path-1-inside-1_402_15722" fill="white">
<path d="M2.5 21V19H21.5V21H2.5Z"/>
<path d="M2.63694 11.5138L5.29473 15.9252L21.7812 11.1949C22.5776 10.9664 23.0396 10.1373 22.815 9.3399C22.5882 8.53507 21.749 8.06926 20.9461 8.30258L15.6805 9.83269L8.65129 3.51843L6.73235 4.08408L11.0089 11.1824L6.08063 12.5959L4.08619 11.0949L2.63694 11.5138Z"/>
</mask>
<path d="M2.5 19V16H-0.5V19H2.5ZM2.5 21H-0.5V24H2.5V21ZM21.5 21V24H24.5V21H21.5ZM21.5 19H24.5V16H21.5V19ZM5.29473 15.9252L2.72507 17.4734L3.91176 19.4431L6.12211 18.8089L5.29473 15.9252ZM2.63694 11.5138L1.80384 8.63184L-1.94835 9.71648L0.0672806 13.062L2.63694 11.5138ZM4.08619 11.0949L5.89015 8.69788L4.69276 7.79674L3.2531 8.2129L4.08619 11.0949ZM6.08063 12.5959L4.27667 14.9929L5.47096 15.8917L6.90774 15.4796L6.08063 12.5959ZM11.0089 11.1824L11.836 14.0661L15.5986 12.9869L13.5786 9.63419L11.0089 11.1824ZM6.73235 4.08408L5.88411 1.2065L2.15798 2.30486L4.16269 5.63226L6.73235 4.08408ZM8.65129 3.51843L10.6561 1.28666L9.40987 0.167201L7.80305 0.640847L8.65129 3.51843ZM15.6805 9.83269L13.6757 12.0645L14.9163 13.1789L16.5176 12.7135L15.6805 9.83269ZM20.9461 8.30258L21.7832 11.1834L21.7832 11.1834L20.9461 8.30258ZM21.7812 11.1949L22.6086 14.0785L22.6086 14.0785L21.7812 11.1949ZM22.815 9.3399L19.9273 10.1533L19.9273 10.1533L22.815 9.3399ZM-0.5 19V21H5.5V19H-0.5ZM2.5 24H21.5V18H2.5V24ZM24.5 21V19H18.5V21H24.5ZM21.5 16H2.5V22H21.5V16ZM7.86439 14.3771L5.2066 9.96566L0.0672806 13.062L2.72507 17.4734L7.86439 14.3771ZM3.47004 14.3958L4.91929 13.9769L3.2531 8.2129L1.80384 8.63184L3.47004 14.3958ZM2.28223 13.4919L4.27667 14.9929L7.88459 10.1989L5.89015 8.69788L2.28223 13.4919ZM6.90774 15.4796L11.836 14.0661L10.1818 8.29864L5.25353 9.71216L6.90774 15.4796ZM13.5786 9.63419L9.30201 2.53591L4.16269 5.63226L8.43928 12.7305L13.5786 9.63419ZM7.58058 6.96167L9.49952 6.39602L7.80305 0.640847L5.88411 1.2065L7.58058 6.96167ZM6.6465 5.75021L13.6757 12.0645L17.6853 7.60092L10.6561 1.28666L6.6465 5.75021ZM16.5176 12.7135L21.7832 11.1834L20.109 5.42175L14.8434 6.95186L16.5176 12.7135ZM20.9539 8.31123L4.46735 13.0416L6.12211 18.8089L22.6086 14.0785L20.9539 8.31123ZM19.9273 10.1533C19.7043 9.36142 20.1631 8.53813 20.9539 8.31123L22.6086 14.0785C24.9921 13.3947 26.3749 10.9133 25.7026 8.52648L19.9273 10.1533ZM21.7832 11.1834C20.9859 11.4151 20.1525 10.9526 19.9273 10.1533L25.7026 8.52648C25.024 6.11758 22.5122 4.7234 20.109 5.42175L21.7832 11.1834Z" fill="#555770" mask="url(#path-1-inside-1_402_15722)"/>
</svg>
