<svg width="24" height="24" viewBox="0 0 24 24" fill="none" xmlns="http://www.w3.org/2000/svg">
<mask id="path-1-inside-1_402_15730" fill="white">
<path d="M10.5 9V4.12132C10.5 3.7235 10.658 3.34196 10.9393 3.06066C11.5251 2.47487 12.4749 2.47487 13.0607 3.06066C13.342 3.34196 13.5 3.7235 13.5 4.12132V9L22 14V16L13.5 13.5V19L16 20.5V22L12 21L8 22V20.5L10.5 19V13.5L2 16V14L10.5 9Z"/>
</mask>
<path d="M10.5 9L12.0211 11.5858L13.5 10.7158V9H10.5ZM2 14L0.47894 11.4142L-1 12.2842V14H2ZM2 16H-1V20.0094L2.8465 18.8781L2 16ZM10.5 13.5H13.5V9.49058L9.6535 10.6219L10.5 13.5ZM10.5 19L12.0435 21.5725L13.5 20.6986V19H10.5ZM8 20.5L6.45651 17.9275L5 18.8014V20.5H8ZM8 22H5V25.8423L8.72761 24.9104L8 22ZM12 21L12.7276 18.0896L12 17.9077L11.2724 18.0896L12 21ZM13.5 9H10.5V10.7158L11.9789 11.5858L13.5 9ZM22 14H25V12.2842L23.5211 11.4142L22 14ZM22 16L21.1535 18.8781L25 20.0094V16H22ZM13.5 13.5L14.3465 10.6219L10.5 9.49058V13.5H13.5ZM13.5 19H10.5V20.6986L11.9565 21.5725L13.5 19ZM16 20.5H19V18.8014L17.5435 17.9275L16 20.5ZM16 22L15.2724 24.9104L19 25.8423V22H16ZM10.9393 3.06066L8.81802 0.939339L8.81802 0.93934L10.9393 3.06066ZM13.0607 3.06066L15.182 0.93934L15.182 0.939339L13.0607 3.06066ZM7.5 4.12132V9H13.5V4.12132H7.5ZM8.97894 6.4142L0.47894 11.4142L3.52106 16.5858L12.0211 11.5858L8.97894 6.4142ZM-1 14V16H5V14H-1ZM2.8465 18.8781L11.3465 16.3781L9.6535 10.6219L1.1535 13.1219L2.8465 18.8781ZM7.5 13.5V19H13.5V13.5H7.5ZM8.95651 16.4275L6.45651 17.9275L9.54349 23.0725L12.0435 21.5725L8.95651 16.4275ZM5 20.5V22H11V20.5H5ZM8.72761 24.9104L12.7276 23.9104L11.2724 18.0896L7.27239 19.0896L8.72761 24.9104ZM10.5 4.12132V9H16.5V4.12132H10.5ZM11.9789 11.5858L20.4789 16.5858L23.5211 11.4142L15.0211 6.4142L11.9789 11.5858ZM19 14V16H25V14H19ZM22.8465 13.1219L14.3465 10.6219L12.6535 16.3781L21.1535 18.8781L22.8465 13.1219ZM10.5 13.5V19H16.5V13.5H10.5ZM11.9565 21.5725L14.4565 23.0725L17.5435 17.9275L15.0435 16.4275L11.9565 21.5725ZM13 20.5V22H19V20.5H13ZM16.7276 19.0896L12.7276 18.0896L11.2724 23.9104L15.2724 24.9104L16.7276 19.0896ZM8.81802 0.93934C7.97411 1.78325 7.5 2.92785 7.5 4.12132H13.5C13.5 4.51914 13.342 4.90068 13.0607 5.18198L8.81802 0.93934ZM10.9393 5.18198C10.658 4.90068 10.5 4.51914 10.5 4.12132H16.5C16.5 2.92785 16.0259 1.78325 15.182 0.93934L10.9393 5.18198ZM13.0607 5.18198C12.4749 5.76777 11.5251 5.76777 10.9393 5.18198L15.182 0.939339C13.4246 -0.818019 10.5754 -0.818019 8.81802 0.939339L13.0607 5.18198Z" fill="#555770" mask="url(#path-1-inside-1_402_15730)"/>
</svg>
