<svg width="24" height="24" viewBox="0 0 24 24" fill="none" xmlns="http://www.w3.org/2000/svg">
<path d="M8.27086 8.34272L8.97797 9.04983L8.97797 9.04983L8.27086 8.34272ZM21.5 2.5L22.4989 2.54607L22.5495 1.45054L21.4539 1.50106L21.5 2.5ZM1.5 11.4204L0.616213 10.9525L0.270641 11.6052L0.792894 12.1275L1.5 11.4204ZM3.68207 13.6024L2.97496 14.3095L3.68207 15.0167L4.38918 14.3095L3.68207 13.6024ZM12.5797 22.5L11.8725 23.2071L12.3948 23.7294L13.0475 23.3838L12.5797 22.5ZM10.3976 20.3179L9.69048 19.6108L8.98337 20.3179L9.69048 21.025L10.3976 20.3179ZM4.76692 18.002L4.05982 17.2949L3.35271 18.002L4.05982 18.7091L4.76692 18.002ZM5.99803 19.2331L5.29092 19.9402L5.99803 20.6473L6.70514 19.9402L5.99803 19.2331ZM13.9022 10.0977C13.6129 9.80837 13.6129 9.3392 13.9022 9.04983L12.488 7.63562C11.4176 8.70604 11.4176 10.4415 12.488 11.512L13.9022 10.0977ZM13.9022 9.04983C14.1916 8.76046 14.6608 8.76046 14.9502 9.04983L16.3644 7.63562C15.2939 6.56519 13.5584 6.56519 12.488 7.63562L13.9022 9.04983ZM8.97797 9.04983C10.847 7.18079 13.0061 5.78334 15.3093 4.8554L14.5619 3.00031C12.0136 4.027 9.62658 5.5728 7.56376 7.63562L8.97797 9.04983ZM15.3093 4.8554C17.3101 4.04927 19.4211 3.59694 21.5461 3.49894L21.4539 1.50106C19.1072 1.60929 16.7744 2.10887 14.5619 3.00031L15.3093 4.8554ZM6.37205 12.2932C7.10439 11.1437 7.97283 10.055 8.97797 9.04983L7.56376 7.63562C6.45501 8.74436 5.49533 9.94707 4.68529 11.2185L6.37205 12.2932ZM8.74496 7.46225C7.88082 6.99694 6.48062 6.66701 4.95652 7.07698C3.39538 7.49691 1.83107 8.65776 0.616213 10.9525L2.38379 11.8883C3.38485 9.99739 4.53914 9.26034 5.47604 9.00832C6.44998 8.74634 7.32726 8.97038 7.79676 9.22319L8.74496 7.46225ZM0.792894 12.1275L2.97496 14.3095L4.38918 12.8953L2.20711 10.7133L0.792894 12.1275ZM4.38918 14.3095L6.23578 12.463L4.82156 11.0487L2.97496 12.8953L4.38918 14.3095ZM12.488 11.512C13.5584 12.5823 15.294 12.5825 16.3644 11.512L14.9502 10.0978C14.6609 10.3871 14.1917 10.3872 13.9022 10.0977L12.488 11.512ZM16.3644 11.512C17.4349 10.4415 17.4347 8.70599 16.3644 7.63562L14.9502 9.04983C15.2396 9.33925 15.2395 9.80847 14.9502 10.0978L16.3644 11.512ZM16.3644 16.4363C18.4272 14.3735 19.973 11.9864 20.9997 9.43816L19.1447 8.69075C18.2167 10.9939 16.8193 13.153 14.9502 15.022L16.3644 16.4363ZM20.9997 9.43816C21.8912 7.22558 22.3907 4.89277 22.4989 2.54607L20.5011 2.45393C20.4031 4.57892 19.9508 6.68994 19.1447 8.69075L20.9997 9.43816ZM12.7815 19.3147C14.053 18.5047 15.2557 17.545 16.3644 16.4363L14.9502 15.022C13.9451 16.0272 12.8564 16.8956 11.7069 17.628L12.7815 19.3147ZM14.7768 16.2033C15.0297 16.6728 15.2537 17.55 14.9917 18.524C14.7397 19.4609 14.0027 20.6152 12.1118 21.6162L13.0475 23.3838C15.3423 22.1689 16.5031 20.6046 16.9231 19.0435C17.333 17.5194 17.0031 16.1192 16.5378 15.2551L14.7768 16.2033ZM13.2868 21.7929L11.1047 19.6108L9.69048 21.025L11.8725 23.2071L13.2868 21.7929ZM11.1047 21.025L12.9513 19.1784L11.5371 17.7642L9.69048 19.6108L11.1047 21.025ZM14.2285 4.63496L19.3651 9.77156L20.7793 8.35735L15.6427 3.22075L14.2285 4.63496ZM4.62183 12.1773L6.36206 15.9215L8.17573 15.0785L6.43551 11.3344L4.62183 12.1773ZM6.56179 16.2071L7.79289 17.4382L9.20711 16.024L7.976 14.7929L6.56179 16.2071ZM6.56179 14.7929L4.05982 17.2949L5.47403 18.7091L7.976 16.2071L6.56179 14.7929ZM8.07852 17.6379L11.8227 19.3782L12.6657 17.5645L8.92148 15.8243L8.07852 17.6379ZM6.70514 19.9402L9.20711 17.4382L7.79289 16.024L5.29092 18.526L6.70514 19.9402ZM4.05982 18.7091L4.67537 19.3246L6.08958 17.9104L5.47403 17.2949L4.05982 18.7091ZM4.67537 19.3246L5.29092 19.9402L6.70514 18.526L6.08958 17.9104L4.67537 19.3246Z" fill="#555770"/>
</svg>
