<svg width="24" height="24" viewBox="0 0 24 24" fill="none" xmlns="http://www.w3.org/2000/svg">
<path d="M19 12V8H17V12H19ZM21 14H18V16H21V14ZM11 6H5V8H11V6ZM4 13H11V11H4V13ZM10 7V12H12V7H10ZM17 6H12V8H17V6ZM12 6H11V8H12V6ZM11 13H12V11H11V13ZM12 13H18V11H12V13ZM11 7V12H13V7H11ZM5 14V13.5H3V14H5ZM5 13.5V12H3V13.5H5ZM17 12V13.5H19V12H17ZM17 13.5V15H19V13.5H17ZM4 14.5H18V12.5H4V14.5ZM19 8C19 6.89543 18.1046 6 17 6V8H19ZM5 14H5H3C3 15.1046 3.89543 16 5 16V14ZM11 16C11 16.5523 10.5523 17 10 17V19C11.6569 19 13 17.6569 13 16H11ZM10 17C9.44772 17 9 16.5523 9 16H7C7 17.6569 8.34315 19 10 19V17ZM9 16C9 15.4477 9.44772 15 10 15V13C8.34315 13 7 14.3431 7 16H9ZM10 15C10.5523 15 11 15.4477 11 16H13C13 14.3431 11.6569 13 10 13V15ZM18 14H11.7324V16H18V14ZM8.25 14H5V16H8.25V14ZM5 12V8H3V12H5ZM5 6C3.89543 6 3 6.89543 3 8H5L5 8V6Z" fill="#555770"/>
</svg>
