<svg width="24" height="24" viewBox="0 0 24 24" fill="none" xmlns="http://www.w3.org/2000/svg">
<path d="M13.4142 22L22 13.4142L20.5858 12L12 20.5858L13.4142 22ZM22 10.5858L13.4142 2L12 3.41421L20.5858 12L22 10.5858ZM2 13.4142L10.5858 22L12 20.5858L3.41421 12L2 13.4142ZM10.5858 2L2 10.5858L3.41421 12L12 3.41421L10.5858 2ZM13.4142 2C12.6332 1.21895 11.3668 1.21895 10.5858 2L12 3.41421L12 3.41421L13.4142 2ZM22 13.4142C22.7811 12.6332 22.781 11.3668 22 10.5858L20.5858 12L20.5858 12L22 13.4142ZM12 20.5858L12 20.5858L10.5858 22C11.3668 22.7811 12.6332 22.7811 13.4142 22L12 20.5858ZM3.41421 12L3.41421 12L2 10.5858C1.21895 11.3668 1.21895 12.6332 2 13.4142L3.41421 12Z" fill="#555770"/>
<path d="M15 10H10V12H15V10ZM8 12V15H10V12H8ZM10 10C8.89543 10 8 10.8954 8 12H10H10V10Z" fill="#555770"/>
</svg>
