<svg width="24" height="24" viewBox="0 0 24 24" fill="none" xmlns="http://www.w3.org/2000/svg">
<path d="M16.5 6L17.1727 5.26006L16.8866 5H16.5V6ZM22 11H23V10.5576L22.6727 10.2601L22 11ZM22 15V16H23V15H22ZM2 15H1V16H2V15ZM7 16C7 16.5523 6.55228 17 6 17V19C7.65685 19 9 17.6569 9 16H7ZM6 17C5.44772 17 5 16.5523 5 16H3C3 17.6569 4.34315 19 6 19V17ZM19 16C19 16.5523 18.5523 17 18 17V19C19.6569 19 21 17.6569 21 16H19ZM18 17C17.4477 17 17 16.5523 17 16H15C15 17.6569 16.3431 19 18 19V17ZM15.8273 6.73994L21.3273 11.7399L22.6727 10.2601L17.1727 5.26006L15.8273 6.73994ZM21 11V15H23V11H21ZM3 15V11H1V15H3ZM3 11V7H1V11H3ZM3 7H8V5H3V7ZM2 12H8V10H2V12ZM7 6V11H9V6H7ZM8 7H14V5H8V7ZM14 7H16.5V5H14V7ZM8 12H14V10H8V12ZM14 12H22V10H14V12ZM13 6V11H15V6H13ZM6 15C6.36888 15 6.69242 15.1992 6.86683 15.5007L8.59804 14.4993C8.08084 13.6052 7.11168 13 6 13V15ZM6.86683 15.5007C6.95133 15.6468 7 15.8162 7 16H9C9 15.4552 8.85389 14.9416 8.59804 14.4993L6.86683 15.5007ZM4.26756 14H2V16H4.26756V14ZM5 16C5 15.8162 5.04867 15.6468 5.13317 15.5007L3.40196 14.4993C3.14611 14.9416 3 15.4552 3 16H5ZM5.13317 15.5007C5.30758 15.1992 5.63112 15 6 15V13C4.88832 13 3.91916 13.6052 3.40196 14.4993L5.13317 15.5007ZM16.2676 14H7.73244V16H16.2676V14ZM17 16C17 15.8162 17.0487 15.6468 17.1332 15.5007L15.402 14.4993C15.1461 14.9416 15 15.4552 15 16H17ZM17.1332 15.5007C17.3076 15.1992 17.6311 15 18 15V13C16.8883 13 15.9192 13.6052 15.402 14.4993L17.1332 15.5007ZM22 14H19.7324V16H22V14ZM18 15C18.3689 15 18.6924 15.1992 18.8668 15.5007L20.598 14.4993C20.0808 13.6052 19.1117 13 18 13V15ZM18.8668 15.5007C18.9513 15.6468 19 15.8162 19 16H21C21 15.4552 20.8539 14.9416 20.598 14.4993L18.8668 15.5007ZM3 7L3 7V5C1.89543 5 1 5.89543 1 7H3Z" fill="#555770"/>
</svg>
