<svg width="24" height="24" viewBox="0 0 24 24" fill="none" xmlns="http://www.w3.org/2000/svg">
<path d="M15.4 12C15.4 13.8778 13.8778 15.4 12 15.4V16.6C14.5405 16.6 16.6 14.5405 16.6 12H15.4ZM12 15.4C10.1222 15.4 8.6 13.8778 8.6 12H7.4C7.4 14.5405 9.45949 16.6 12 16.6V15.4ZM8.6 12C8.6 10.1222 10.1222 8.6 12 8.6V7.4C9.45949 7.4 7.4 9.45949 7.4 12H8.6ZM12 8.6C13.8778 8.6 15.4 10.1222 15.4 12H16.6C16.6 9.45949 14.5405 7.4 12 7.4V8.6ZM12 20.4C7.36081 20.4 3.6 16.6392 3.6 12H2.4C2.4 17.3019 6.69807 21.6 12 21.6V20.4ZM3.6 12C3.6 7.36081 7.36081 3.6 12 3.6V2.4C6.69807 2.4 2.4 6.69807 2.4 12H3.6ZM12 3.6C16.6392 3.6 20.4 7.36081 20.4 12H21.6C21.6 6.69807 17.3019 2.4 12 2.4V3.6ZM12 21.6H17V20.4H12V21.6ZM20.4 13.5C20.4 14.5493 19.5493 15.4 18.5 15.4V16.6C20.2121 16.6 21.6 15.2121 21.6 13.5H20.4ZM18.5 15.4C17.4507 15.4 16.6 14.5493 16.6 13.5H15.4C15.4 15.2121 16.7879 16.6 18.5 16.6V15.4ZM21.6 13.5V12H20.4V13.5H21.6ZM16.6 13.5V12H15.4V13.5H16.6Z" fill="#28293D"/>
</svg>
