<svg width="24" height="24" viewBox="0 0 24 24" fill="none" xmlns="http://www.w3.org/2000/svg">
<path d="M14.8293 15.0001V14.4001H14.405L14.2636 14.8001L14.8293 15.0001ZM9.17072 15.0001L9.73642 14.8001L9.59502 14.4001H9.17072V15.0001ZM5 4.60005L19 4.6L19 3.4L4.99999 3.40005L5 4.60005ZM19.4 5V19.0001H20.6V5H19.4ZM19 19.4001H5.00001V20.6001H19V19.4001ZM4.60001 19.0001L4.6 5.00005L3.4 5.00005L3.40001 19.0001L4.60001 19.0001ZM14.2636 14.8001C13.9338 15.7331 13.0441 16.4001 12 16.4001V17.6001C13.5684 17.6001 14.9011 16.5974 15.395 15.2L14.2636 14.8001ZM20 14.4001H14.8293V15.6001H20V14.4001ZM12 16.4001C10.956 16.4001 10.0662 15.7331 9.73642 14.8001L8.60501 15.2C9.09893 16.5974 10.4316 17.6001 12 17.6001V16.4001ZM9.17072 14.4001H4.00001V15.6001H9.17072V14.4001ZM4.99999 3.40005C4.11634 3.40006 3.4 4.1164 3.4 5.00005L4.6 5.00005C4.6 4.77914 4.77909 4.60005 5 4.60005L4.99999 3.40005ZM19 4.6C19.2209 4.6 19.4 4.77909 19.4 5H20.6C20.6 4.11634 19.8837 3.4 19 3.4L19 4.6ZM19.4 19.0001C19.4 19.221 19.2209 19.4001 19 19.4001V20.6001C19.8837 20.6001 20.6 19.8837 20.6 19.0001H19.4ZM5.00001 19.4001C4.77909 19.4001 4.60001 19.221 4.60001 19.0001L3.40001 19.0001C3.40001 19.8837 4.11635 20.6001 5.00001 20.6001V19.4001Z" fill="#28293D"/>
<path d="M12 12L11.5757 12.4243L12 12.8485L12.4243 12.4243L12 12ZM13 11L13.4243 11.4243L14.4485 10.4L13 10.4L13 11ZM11 11L11 10.4L9.55147 10.4L10.5757 11.4243L11 11ZM12.6 12L12.6 6L11.4 6L11.4 12L12.6 12ZM12.4243 12.4243L13.4243 11.4243L12.5757 10.5757L11.5757 11.5757L12.4243 12.4243ZM13 10.4L11 10.4L11 11.6L13 11.6L13 10.4ZM10.5757 11.4243L11.5757 12.4243L12.4243 11.5757L11.4243 10.5757L10.5757 11.4243Z" fill="#28293D"/>
</svg>
