<svg width="24" height="24" viewBox="0 0 24 24" fill="none" xmlns="http://www.w3.org/2000/svg">
<path d="M14.8293 14.9999V14.3999H14.405L14.2636 14.8L14.8293 14.9999ZM9.17071 14.9999L9.73641 14.8L9.59501 14.3999H9.17071V14.9999ZM20 19H19.4H20ZM19 20L19 20.6L19 20ZM5 19.9999L5 20.5999L5 19.9999ZM5.00001 4.60006L19 4.6L19 3.4L5.00001 3.40006L5.00001 4.60006ZM19.4 5L19.4 19H20.6L20.6 5L19.4 5ZM19 19.4L5.00001 19.3999L5 20.5999L19 20.6L19 19.4ZM4.60001 18.9999L4.60001 5.00006L3.40001 5.00006L3.40001 18.9999L4.60001 18.9999ZM14.2636 14.8C13.9338 15.733 13.044 16.3999 12 16.3999V17.5999C13.5684 17.5999 14.9011 16.5973 15.395 15.1999L14.2636 14.8ZM20 14.3999H14.8293V15.5999H20V14.3999ZM12 16.3999C10.956 16.3999 10.0662 15.733 9.73641 14.8L8.605 15.1999C9.09892 16.5973 10.4316 17.5999 12 17.5999V16.3999ZM9.17071 14.3999H4V15.5999H9.17071V14.3999ZM5.00001 3.40006C4.11635 3.40006 3.40001 4.1164 3.40001 5.00006L4.60001 5.00006C4.60001 4.77914 4.7791 4.60006 5.00001 4.60006L5.00001 3.40006ZM19 4.6C19.2209 4.6 19.4 4.77909 19.4 5L20.6 5C20.6 4.11635 19.8837 3.4 19 3.4L19 4.6ZM19.4 19C19.4 19.2209 19.2209 19.4 19 19.4L19 20.6C19.8837 20.6 20.6 19.8837 20.6 19H19.4ZM5.00001 19.3999C4.77909 19.3999 4.60001 19.2209 4.60001 18.9999L3.40001 18.9999C3.40001 19.8836 4.11635 20.5999 5 20.5999L5.00001 19.3999Z" fill="#28293D"/>
<path d="M12 7L11.5757 6.57574L12 6.15147L12.4243 6.57574L12 7ZM13 8L13.4243 7.57574L14.4485 8.6L13 8.6L13 8ZM11 8L11 8.6L9.55147 8.6L10.5757 7.57574L11 8ZM12.6 7L12.6 13L11.4 13L11.4 7L12.6 7ZM12.4243 6.57574L13.4243 7.57574L12.5757 8.42426L11.5757 7.42426L12.4243 6.57574ZM13 8.6L11 8.6L11 7.4L13 7.4L13 8.6ZM10.5757 7.57574L11.5757 6.57574L12.4243 7.42426L11.4243 8.42426L10.5757 7.57574Z" fill="#28293D"/>
</svg>
