<svg width="24" height="24" viewBox="0 0 24 24" fill="none" xmlns="http://www.w3.org/2000/svg">
<path d="M14.8293 15.0001V14.4001H14.405L14.2636 14.8001L14.8293 15.0001ZM9.17071 15.0001L9.73641 14.8001L9.59501 14.4001H9.17071V15.0001ZM5.00001 4.00005L5.00001 3.40005L5.00001 4.00005ZM19 4L19 3.4L19 4ZM20 5L20.6 5L20 5ZM20 19.0001H19.4H20ZM5.00001 4.60005L19 4.6L19 3.4L5.00001 3.40005L5.00001 4.60005ZM19.4 5L19.4 19.0001H20.6L20.6 5L19.4 5ZM19 19.4001H5.00003V20.6001H19V19.4001ZM4.60003 19.0001L4.60001 5.00005L3.40001 5.00005L3.40003 19.0001L4.60003 19.0001ZM14.2636 14.8001C13.9338 15.7331 13.044 16.4001 12 16.4001V17.6001C13.5684 17.6001 14.9011 16.5974 15.395 15.2L14.2636 14.8001ZM20 14.4001H14.8293V15.6001H20V14.4001ZM12 16.4001C10.956 16.4001 10.0662 15.7331 9.73641 14.8001L8.605 15.2C9.09892 16.5974 10.4316 17.6001 12 17.6001V16.4001ZM9.17071 14.4001H4V15.6001H9.17071V14.4001ZM5.00001 3.40005C4.11636 3.40006 3.40001 4.1164 3.40001 5.00005L4.60001 5.00005C4.60001 4.77914 4.7791 4.60005 5.00001 4.60005L5.00001 3.40005ZM19 4.6C19.2209 4.6 19.4 4.77909 19.4 5L20.6 5C20.6 4.11635 19.8837 3.4 19 3.4L19 4.6ZM19.4 19.0001C19.4 19.221 19.2209 19.4001 19 19.4001V20.6001C19.8837 20.6001 20.6 19.8837 20.6 19.0001H19.4ZM5.00003 19.4001C4.77911 19.4001 4.60003 19.221 4.60003 19.0001L3.40003 19.0001C3.40003 19.8837 4.11637 20.6001 5.00003 20.6001V19.4001Z" fill="#28293D"/>
</svg>
