<svg width="24" height="24" viewBox="0 0 24 24" fill="none" xmlns="http://www.w3.org/2000/svg">
<path d="M2 7L1.73167 6.46334C1.5284 6.56498 1.4 6.77274 1.4 7H2ZM22 7H22.6C22.6 6.77274 22.4716 6.56498 22.2683 6.46334L22 7ZM12 2L12.2683 1.46334L12 1.32918L11.7317 1.46334L12 2ZM12 12L11.7317 12.5367L12 12.6708L12.2683 12.5367L12 12ZM21 20.4H3V21.6H21V20.4ZM21.4 7V20H22.6V7H21.4ZM2.6 20V7H1.4V20H2.6ZM2.26833 7.53666L12.2683 2.53666L11.7317 1.46334L1.73167 6.46334L2.26833 7.53666ZM11.7317 2.53666L21.7317 7.53666L22.2683 6.46334L12.2683 1.46334L11.7317 2.53666ZM21.7317 6.46334L11.7317 11.4633L12.2683 12.5367L22.2683 7.53666L21.7317 6.46334ZM12.2683 11.4633L2.26833 6.46334L1.73167 7.53666L11.7317 12.5367L12.2683 11.4633ZM3 20.4C2.77909 20.4 2.6 20.2209 2.6 20H1.4C1.4 20.8837 2.11634 21.6 3 21.6V20.4ZM21 21.6C21.8837 21.6 22.6 20.8837 22.6 20H21.4C21.4 20.2209 21.2209 20.4 21 20.4V21.6Z" fill="#28293D"/>
</svg>
