<svg width="24" height="24" viewBox="0 0 24 24" fill="none" xmlns="http://www.w3.org/2000/svg">
<path d="M22 11.5V6C22 5.44772 21.5523 5 21 5H3C2.44772 5 2 5.44772 2 6V18C2 18.5523 2.44772 19 3 19H12" stroke="#28293D" stroke-width="1.2"/>
<path d="M2 6L12 12L22 6" stroke="#28293D" stroke-width="1.2"/>
<path d="M22 17L22.4243 17.4243L22.8485 17L22.4243 16.5757L22 17ZM14 17.6H22V16.4H14V17.6ZM22.4243 16.5757L19.4243 13.5757L18.5757 14.4243L21.5757 17.4243L22.4243 16.5757ZM19.4243 20.4243L22.4243 17.4243L21.5757 16.5757L18.5757 19.5757L19.4243 20.4243Z" fill="#28293D"/>
</svg>
