<svg width="24" height="24" viewBox="0 0 24 24" fill="none" xmlns="http://www.w3.org/2000/svg">
<path d="M7 1V0.4H6.4V1H7ZM13 1H13.6V0.4H13V1ZM13 4V4.6H13.6V4H13ZM7 6.4H4V7.6H7V6.4ZM2.4 8V20H3.6V8H2.4ZM4 21.6H20V20.4H4V21.6ZM21.6 20V8H20.4V20H21.6ZM20 6.4H9.5V7.6H20V6.4ZM6.4 7V12H7.6V7H6.4ZM7 1.6H13V0.4H7V1.6ZM12.4 1V4H13.6V1H12.4ZM7.6 7V4H6.4V7H7.6ZM7.6 4V1H6.4V4H7.6ZM13 3.4H7V4.6H13V3.4ZM21.6 8C21.6 7.11634 20.8837 6.4 20 6.4V7.6C20.2209 7.6 20.4 7.77909 20.4 8H21.6ZM20 21.6C20.8837 21.6 21.6 20.8837 21.6 20H20.4C20.4 20.2209 20.2209 20.4 20 20.4V21.6ZM2.4 20C2.4 20.8837 3.11634 21.6 4 21.6V20.4C3.77909 20.4 3.6 20.2209 3.6 20H2.4ZM4 6.4C3.11634 6.4 2.4 7.11634 2.4 8H3.6C3.6 7.77909 3.77909 7.6 4 7.6V6.4Z" fill="#28293D"/>
</svg>
