<svg width="24" height="24" viewBox="0 0 24 24" fill="none" xmlns="http://www.w3.org/2000/svg">
<path d="M17.25 17L17.6248 16.5315L17.4605 16.4H17.25V17ZM20.8375 19.87L20.4627 20.3385L20.8375 19.87ZM20 3.4H4V4.6H20V3.4ZM2.4 5V16H3.6V5H2.4ZM21.6 16V5H20.4V16H21.6ZM21.6 19.7919V16H20.4V19.7919H21.6ZM16.8752 17.4685L20.4627 20.3385L21.2123 19.4015L17.6248 16.5315L16.8752 17.4685ZM17.25 16.4H4V17.6H17.25V16.4ZM20.4 19.7919C20.4 19.3727 20.885 19.1396 21.2123 19.4015L20.4627 20.3385C20.921 20.7052 21.6 20.3789 21.6 19.7919H20.4ZM4 3.4C3.11635 3.4 2.4 4.11634 2.4 5H3.6C3.6 4.77909 3.77909 4.6 4 4.6V3.4ZM20 4.6C20.2209 4.6 20.4 4.77909 20.4 5H21.6C21.6 4.11634 20.8837 3.4 20 3.4V4.6ZM2.4 16C2.4 16.8837 3.11634 17.6 4 17.6V16.4C3.77909 16.4 3.6 16.2209 3.6 16H2.4Z" fill="#28293D"/>
</svg>
