<svg width="24" height="24" viewBox="0 0 24 24" fill="none" xmlns="http://www.w3.org/2000/svg">
<path d="M20 14L19.5757 13.5757L19.4 13.7515V14H20ZM22 12L22.4243 12.4243L22.8485 12L22.4243 11.5757L22 12ZM20 10H19.4V10.2485L19.5757 10.4243L20 10ZM19 4.4H4V5.6H19V4.4ZM4 19.6H19V18.4H4V19.6ZM2.4 6V18H3.6V6H2.4ZM20.6 18V14H19.4V18H20.6ZM20.4243 14.4243L22.4243 12.4243L21.5757 11.5757L19.5757 13.5757L20.4243 14.4243ZM22.4243 11.5757L20.4243 9.57574L19.5757 10.4243L21.5757 12.4243L22.4243 11.5757ZM20.6 10V6H19.4V10H20.6ZM4 4.4C3.11634 4.4 2.4 5.11634 2.4 6H3.6C3.6 5.77909 3.77909 5.6 4 5.6V4.4ZM19 5.6C19.2209 5.6 19.4 5.77909 19.4 6H20.6C20.6 5.11634 19.8837 4.4 19 4.4V5.6ZM19 19.6C19.8837 19.6 20.6 18.8837 20.6 18H19.4C19.4 18.2209 19.2209 18.4 19 18.4V19.6ZM4 18.4C3.77909 18.4 3.6 18.2209 3.6 18H2.4C2.4 18.8837 3.11634 19.6 4 19.6V18.4Z" fill="#28293D"/>
<path d="M13 12C13 12.8284 12.3284 13.5 11.5 13.5C10.6716 13.5 10 12.8284 10 12C10 11.1716 10.6716 10.5 11.5 10.5C12.3284 10.5 13 11.1716 13 12Z" fill="#28293D"/>
<path d="M8.5 12C8.5 12.8284 7.82843 13.5 7 13.5C6.17157 13.5 5.5 12.8284 5.5 12C5.5 11.1716 6.17157 10.5 7 10.5C7.82843 10.5 8.5 11.1716 8.5 12Z" fill="#28293D"/>
<path d="M17.5 12C17.5 12.8284 16.8284 13.5 16 13.5C15.1716 13.5 14.5 12.8284 14.5 12C14.5 11.1716 15.1716 10.5 16 10.5C16.8284 10.5 17.5 11.1716 17.5 12Z" fill="#28293D"/>
</svg>
