<svg width="24" height="24" viewBox="0 0 24 24" fill="none" xmlns="http://www.w3.org/2000/svg">
<path d="M2.5 13.5L1.93892 13.2874L1.80449 13.6423L2.06744 13.9158L2.5 13.5ZM21.5 13.5L21.9326 13.9158L22.1955 13.6423L22.0611 13.2874L21.5 13.5ZM16.0851 13.0294L15.6638 13.4565L16.0851 13.0294ZM7.9149 13.0294L7.49356 12.6022L7.9149 13.0294ZM19.167 15.927L18.7345 15.5112L19.167 15.927ZM19.0247 15.9289L19.446 15.5017L19.0247 15.9289ZM4.83298 15.927L4.40042 16.3428L4.83298 15.927ZM4.9753 15.9289L4.55396 15.5017L4.9753 15.9289ZM2.06744 13.9158L4.40042 16.3428L5.26554 15.5112L2.93256 13.0842L2.06744 13.9158ZM5.39664 16.356L8.33624 13.4565L7.49356 12.6022L4.55396 15.5017L5.39664 16.356ZM3.06108 13.7126C3.96431 11.3284 5.82362 9.39952 8.18214 8.3831L7.70721 7.28108C5.05477 8.42417 2.95907 10.5947 1.93892 13.2874L3.06108 13.7126ZM8.18214 8.3831C9.35025 7.87969 10.6411 7.6 12 7.6V6.4C10.4751 6.4 9.02283 6.7141 7.70721 7.28108L8.18214 8.3831ZM8.54467 12.9582V7.83209H7.34467V12.9582H8.54467ZM21.0674 13.0842L18.7345 15.5112L19.5996 16.3428L21.9326 13.9158L21.0674 13.0842ZM19.446 15.5017L16.5064 12.6022L15.6638 13.4565L18.6034 16.356L19.446 15.5017ZM22.0611 13.2874C21.0409 10.5947 18.9452 8.42417 16.2928 7.28108L15.8179 8.3831C18.1764 9.39952 20.0357 11.3284 20.9389 13.7126L22.0611 13.2874ZM16.2928 7.28108C14.9772 6.7141 13.5249 6.4 12 6.4V7.6C13.3589 7.6 14.6497 7.87969 15.8179 8.3831L16.2928 7.28108ZM16.6553 12.9582V7.83209H15.4553V12.9582H16.6553ZM16.5064 12.6022C16.6017 12.6962 16.6553 12.8244 16.6553 12.9582H15.4553C15.4553 13.1455 15.5304 13.325 15.6638 13.4565L16.5064 12.6022ZM8.33624 13.4565C8.4696 13.325 8.54467 13.1455 8.54467 12.9582H7.34467C7.34467 12.8244 7.3983 12.6962 7.49356 12.6022L8.33624 13.4565ZM18.7345 15.5112C18.9276 15.3103 19.2477 15.306 19.446 15.5017L18.6034 16.356C18.8811 16.63 19.3292 16.624 19.5996 16.3428L18.7345 15.5112ZM4.40042 16.3428C4.67078 16.624 5.11889 16.63 5.39664 16.356L4.55396 15.5017C4.75235 15.306 5.07242 15.3103 5.26554 15.5112L4.40042 16.3428Z" fill="#28293D"/>
</svg>
