<svg width="24" height="24" viewBox="0 0 24 24" fill="none" xmlns="http://www.w3.org/2000/svg">
<mask id="mask0_402_13375" style="mask-type:alpha" maskUnits="userSpaceOnUse" x="0" y="0" width="24" height="24">
<path d="M21.5033 21.5L0.00325155 0L0 24H24V0H5.69812V3.57552L22.645 20.5233L21.5033 21.5Z" fill="white"/>
</mask>
<g mask="url(#mask0_402_13375)">
<path d="M2.5 3L21 21.5" stroke="#28293D" stroke-width="1.5"/>
<path d="M19 7L19.6 7C19.6 6.84087 19.5368 6.68826 19.4243 6.57574L19 7ZM15 3L15.4243 2.57574C15.3117 2.46321 15.1591 2.4 15 2.4L15 3ZM6 21.6L18 21.6L18 20.4L6 20.4L6 21.6ZM4.4 4L4.4 20L5.6 20L5.6 4L4.4 4ZM19.6 20L19.6 7L18.4 7L18.4 20L19.6 20ZM15 2.4L6 2.4L6 3.6L15 3.6L15 2.4ZM19.4243 6.57574L15.4243 2.57574L14.5757 3.42426L18.5757 7.42426L19.4243 6.57574ZM12.6 15L12.6 11L11.4 11L11.4 15L12.6 15ZM12.6 18L12.6 16L11.4 16L11.4 18L12.6 18ZM9.6 13L9.6 11L8.4 11L8.4 13L9.6 13ZM9.6 18L9.6 14L8.4 14L8.4 18L9.6 18ZM15.6 13L15.6 11L14.4 11L14.4 13L15.6 13ZM15.6 18L15.6 14L14.4 14L14.4 18L15.6 18ZM18 21.6C18.8837 21.6 19.6 20.8837 19.6 20L18.4 20C18.4 20.2209 18.2209 20.4 18 20.4L18 21.6ZM6 20.4C5.77909 20.4 5.6 20.2209 5.6 20L4.4 20C4.4 20.8837 5.11634 21.6 6 21.6L6 20.4ZM5.6 4C5.6 3.77909 5.77909 3.6 6 3.6L6 2.4C5.11634 2.4 4.4 3.11634 4.4 4L5.6 4Z" fill="#28293D"/>
</g>
</svg>
