<svg width="24" height="24" viewBox="0 0 24 24" fill="none" xmlns="http://www.w3.org/2000/svg">
<path d="M19 7L19.6 7C19.6 6.84087 19.5368 6.68826 19.4243 6.57574L19 7ZM15 3L15.4243 2.57574C15.3117 2.46321 15.1591 2.4 15 2.4L15 3ZM6 21.6L18 21.6L18 20.4L6 20.4L6 21.6ZM4.4 4L4.4 20L5.6 20L5.6 4L4.4 4ZM19.6 20L19.6 7L18.4 7L18.4 20L19.6 20ZM15 2.4L6 2.4L6 3.6L15 3.6L15 2.4ZM19.4243 6.57574L15.4243 2.57574L14.5757 3.42426L18.5757 7.42426L19.4243 6.57574ZM18 21.6C18.8837 21.6 19.6 20.8837 19.6 20L18.4 20C18.4 20.2209 18.2209 20.4 18 20.4L18 21.6ZM6 20.4C5.77909 20.4 5.6 20.2209 5.6 20L4.4 20C4.4 20.8837 5.11634 21.6 6 21.6L6 20.4ZM5.6 4C5.6 3.77909 5.77909 3.6 6 3.6L6 2.4C5.11634 2.4 4.4 3.11634 4.4 4L5.6 4Z" fill="#28293D"/>
<path d="M9.5 16L8.9 16L8.9 16.6L9.5 16.6L9.5 16ZM10.5287 12.9285L10.2373 12.404L10.5287 12.9285ZM12.1113 7.4L9 7.4L9 8.6L12.1113 8.6L12.1113 7.4ZM8.9 14.6768L8.9 16L10.1 16L10.1 14.6768L8.9 14.6768ZM9.5 16.6L15 16.6L15 15.4L9.5 15.4L9.5 16.6ZM12.7372 11.0152L10.2373 12.404L10.8201 13.453L13.3199 12.0642L12.7372 11.0152ZM10.1 14.6768C10.1 14.1684 10.3756 13.6999 10.8201 13.453L10.2373 12.404C9.41192 12.8626 8.9 13.7326 8.9 14.6768L10.1 14.6768ZM13.4 9.88869C13.4 10.3567 13.1463 10.7879 12.7372 11.0152L13.3199 12.0642C14.11 11.6253 14.6 10.7925 14.6 9.88869L13.4 9.88869ZM12.1113 8.6C12.823 8.6 13.4 9.17697 13.4 9.88869L14.6 9.88869C14.6 8.51422 13.4858 7.4 12.1113 7.4L12.1113 8.6Z" fill="#28293D"/>
</svg>
