<svg width="24" height="24" viewBox="0 0 24 24" fill="none" xmlns="http://www.w3.org/2000/svg">
<path d="M19.25 19L19.6248 18.5315L19.4605 18.4H19.25V19ZM22.8375 21.87L22.4627 22.3385L22.8375 21.87ZM23.6 18V7H22.4V18H23.6ZM23.6 21.7919V18H22.4V21.7919H23.6ZM18.8752 19.4685L22.4627 22.3385L23.2123 21.4015L19.6248 18.5315L18.8752 19.4685ZM19.25 18.4H6V19.6H19.25V18.4ZM22 5.4H19.25V6.6H22V5.4ZM4.4 15V18H5.6V15H4.4ZM22.4 21.7919C22.4 21.3727 22.885 21.1396 23.2123 21.4015L22.4627 22.3385C22.921 22.7052 23.6 22.3789 23.6 21.7919H22.4ZM23.6 7C23.6 6.11634 22.8837 5.4 22 5.4V6.6C22.2209 6.6 22.4 6.77909 22.4 7H23.6ZM6 18.4C5.77909 18.4 5.6 18.2209 5.6 18H4.4C4.4 18.8837 5.11634 19.6 6 19.6V18.4Z" fill="#28293D"/>
<path d="M4.75 15L4.37518 14.5315L4.53953 14.4H4.75V15ZM1.16247 17.87L1.53729 18.3385L1.16247 17.87ZM2 1.4H18V2.6H2V1.4ZM19.6 3V14H18.4V3H19.6ZM0.4 14V3H1.6V14H0.4ZM0.4 17.7919V14H1.6V17.7919H0.4ZM5.12482 15.4685L1.53729 18.3385L0.787653 17.4015L4.37518 14.5315L5.12482 15.4685ZM4.75 14.4H18V15.6H4.75V14.4ZM1.6 17.7919C1.6 17.3727 1.11503 17.1396 0.787653 17.4015L1.53729 18.3385C1.07896 18.7052 0.4 18.3789 0.4 17.7919H1.6ZM18 1.4C18.8837 1.4 19.6 2.11634 19.6 3H18.4C18.4 2.77909 18.2209 2.6 18 2.6V1.4ZM2 2.6C1.77909 2.6 1.6 2.77909 1.6 3H0.4C0.4 2.11634 1.11634 1.4 2 1.4V2.6ZM19.6 14C19.6 14.8837 18.8837 15.6 18 15.6V14.4C18.2209 14.4 18.4 14.2209 18.4 14H19.6Z" fill="#28293D"/>
</svg>
