<svg width="24" height="24" viewBox="0 0 24 24" fill="none" xmlns="http://www.w3.org/2000/svg">
<path d="M11.4 4.5C11.4 4.83137 11.6686 5.1 12 5.1C12.3314 5.1 12.6 4.83137 12.6 4.5L11.4 4.5ZM6 21.6L18 21.6L18 20.4L6 20.4L6 21.6ZM19.6 20L19.6 4L18.4 4L18.4 20L19.6 20ZM4.4 4L4.4 20L5.6 20L5.6 4L4.4 4ZM18 2.4L12 2.4L12 3.6L18 3.6L18 2.4ZM12 2.4L6 2.4L6 3.6L12 3.6L12 2.4ZM12.6 3L12.6 2.62269e-08L11.4 -2.62268e-08L11.4 3L12.6 3ZM11.4 3L11.4 4.5L12.6 4.5L12.6 3L11.4 3ZM19.6 4C19.6 3.11634 18.8837 2.4 18 2.4L18 3.6C18.2209 3.6 18.4 3.77909 18.4 4L19.6 4ZM18 21.6C18.8837 21.6 19.6 20.8837 19.6 20L18.4 20C18.4 20.2209 18.2209 20.4 18 20.4L18 21.6ZM6 20.4C5.77909 20.4 5.6 20.2209 5.6 20L4.4 20C4.4 20.8837 5.11634 21.6 6 21.6L6 20.4ZM5.6 4C5.6 3.77909 5.77909 3.6 6 3.6L6 2.4C5.11634 2.4 4.4 3.11634 4.4 4L5.6 4Z" fill="#28293D"/>
<path d="M13.6222 10.1991C13.6222 11.0764 12.9019 11.7982 12 11.7982V12.9982C13.5527 12.9982 14.8222 11.7509 14.8222 10.1991H13.6222ZM12 11.7982C11.0981 11.7982 10.3778 11.0764 10.3778 10.1991H9.17778C9.17778 11.7509 10.4473 12.9982 12 12.9982V11.7982ZM10.3778 10.1991C10.3778 9.32184 11.0981 8.6 12 8.6V7.4C10.4473 7.4 9.17778 8.64731 9.17778 10.1991H10.3778ZM12 8.6C12.9019 8.6 13.6222 9.32184 13.6222 10.1991H14.8222C14.8222 8.64731 13.5527 7.4 12 7.4V8.6ZM8.5748 17.6721C9.03991 16.1183 10.4117 15.0212 12 15.0212V13.8212C9.83438 13.8212 8.02841 15.3129 7.4252 17.3279L8.5748 17.6721ZM12 15.0212C13.5883 15.0212 14.9601 16.1183 15.4252 17.6721L16.5748 17.3279C15.9716 15.3129 14.1656 13.8212 12 13.8212V15.0212Z" fill="#28293D"/>
</svg>
