<svg width="24" height="24" viewBox="0 0 24 24" fill="none" xmlns="http://www.w3.org/2000/svg">
<path d="M4.9 2V5.5H6.1V2H4.9ZM19.1 5.5V2H17.9V5.5H19.1ZM4.9 18.5V22H6.1V18.5H4.9ZM19.1 22V18.5H17.9V22H19.1ZM6.5 1.6H17.5V0.4H6.5V1.6ZM6.5 23.6H17.5V22.4H6.5V23.6ZM17.9 22C17.9 22.2209 17.7209 22.4 17.5 22.4V23.6C18.3837 23.6 19.1 22.8837 19.1 22H17.9ZM4.9 22C4.9 22.8837 5.61634 23.6 6.5 23.6V22.4C6.27909 22.4 6.1 22.2209 6.1 22H4.9ZM19.1 2C19.1 1.11634 18.3837 0.4 17.5 0.4V1.6C17.7209 1.6 17.9 1.77909 17.9 2H19.1ZM6.1 2C6.1 1.77909 6.27909 1.6 6.5 1.6V0.4C5.61634 0.4 4.9 1.11634 4.9 2H6.1Z" fill="#28293D"/>
<path d="M2.6 18V6C2.6 5.77909 2.77909 5.6 3 5.6H21C21.2209 5.6 21.4 5.77909 21.4 6V18C21.4 18.2209 21.2209 18.4 21 18.4H3C2.77909 18.4 2.6 18.2209 2.6 18Z" stroke="#28293D" stroke-width="1.2"/>
<path d="M13.6222 9.69911C13.6222 10.5764 12.9019 11.2982 12 11.2982V12.4982C13.5527 12.4982 14.8222 11.2509 14.8222 9.69911H13.6222ZM12 11.2982C11.0981 11.2982 10.3778 10.5764 10.3778 9.69911H9.17778C9.17778 11.2509 10.4473 12.4982 12 12.4982V11.2982ZM10.3778 9.69911C10.3778 8.82184 11.0981 8.1 12 8.1V6.9C10.4473 6.9 9.17778 8.14731 9.17778 9.69911H10.3778ZM12 8.1C12.9019 8.1 13.6222 8.82184 13.6222 9.69911H14.8222C14.8222 8.14731 13.5527 6.9 12 6.9V8.1ZM8.5748 17.1721C9.03991 15.6183 10.4117 14.5212 12 14.5212V13.3212C9.83438 13.3212 8.02841 14.8129 7.4252 16.8279L8.5748 17.1721ZM12 14.5212C13.5883 14.5212 14.9601 15.6183 15.4252 17.1721L16.5748 16.8279C15.9716 14.8129 14.1656 13.3212 12 13.3212V14.5212Z" fill="#28293D"/>
</svg>
