<svg width="24" height="24" viewBox="0 0 24 24" fill="none" xmlns="http://www.w3.org/2000/svg">
<path d="M9.5 19L9.96093 18.6159C9.84694 18.4791 9.67807 18.4 9.5 18.4V19ZM12 22L11.5391 22.3841C11.6531 22.5209 11.8219 22.6 12 22.6C12.1781 22.6 12.3469 22.5209 12.4609 22.3841L12 22ZM14.5 19V18.4C14.3219 18.4 14.1531 18.4791 14.0391 18.6159L14.5 19ZM6 2.6H18V1.4H6V2.6ZM19.4 4V17H20.6V4H19.4ZM4.6 17V4H3.4V17H4.6ZM9.5 18.4H6V19.6H9.5V18.4ZM12.4609 21.6159L9.96093 18.6159L9.03907 19.3841L11.5391 22.3841L12.4609 21.6159ZM18 18.4H14.5V19.6H18V18.4ZM14.0391 18.6159L11.5391 21.6159L12.4609 22.3841L14.9609 19.3841L14.0391 18.6159ZM3.4 17C3.4 18.4359 4.56406 19.6 6 19.6V18.4C5.2268 18.4 4.6 17.7732 4.6 17H3.4ZM19.4 17C19.4 17.7732 18.7732 18.4 18 18.4V19.6C19.4359 19.6 20.6 18.4359 20.6 17H19.4ZM18 2.6C18.7732 2.6 19.4 3.2268 19.4 4H20.6C20.6 2.56406 19.4359 1.4 18 1.4V2.6ZM6 1.4C4.56406 1.4 3.4 2.56406 3.4 4H4.6C4.6 3.2268 5.2268 2.6 6 2.6V1.4Z" fill="#28293D"/>
<path d="M13.6222 8.19911C13.6222 9.07637 12.9019 9.79822 12 9.79822V10.9982C13.5527 10.9982 14.8222 9.75091 14.8222 8.19911H13.6222ZM12 9.79822C11.0981 9.79822 10.3778 9.07637 10.3778 8.19911H9.17778C9.17778 9.75091 10.4473 10.9982 12 10.9982V9.79822ZM10.3778 8.19911C10.3778 7.32184 11.0981 6.6 12 6.6V5.4C10.4473 5.4 9.17778 6.64731 9.17778 8.19911H10.3778ZM12 6.6C12.9019 6.6 13.6222 7.32184 13.6222 8.19911H14.8222C14.8222 6.64731 13.5527 5.4 12 5.4V6.6ZM8.5748 15.6721C9.03991 14.1183 10.4117 13.0212 12 13.0212V11.8212C9.83438 11.8212 8.02841 13.3129 7.4252 15.3279L8.5748 15.6721ZM12 13.0212C13.5883 13.0212 14.9601 14.1183 15.4252 15.6721L16.5748 15.3279C15.9716 13.3129 14.1656 11.8212 12 11.8212V13.0212Z" fill="#28293D"/>
</svg>
