<svg width="24" height="24" viewBox="0 0 24 24" fill="none" xmlns="http://www.w3.org/2000/svg">
<mask id="mask0_402_13270" style="mask-type:alpha" maskUnits="userSpaceOnUse" x="0" y="0" width="24" height="24">
<path d="M21.5033 21.5L0.00325155 0L0 24H24V0H5.69812V3.57552L22.645 20.5233L21.5033 21.5Z" fill="white"/>
</mask>
<g mask="url(#mask0_402_13270)">
<path d="M3.5 4L20 20.5" stroke="#555770" stroke-width="1.5"/>
<path d="M5 8H17.5C19.9853 8 22 10.0147 22 12.5V12.5C22 14.9853 19.9853 17 17.5 17H5C3.34315 17 2 15.6569 2 14V14C2 12.3431 3.34315 11 5 11H16.5C17.3284 11 18 11.6716 18 12.5V12.5C18 13.3284 17.3284 14 16.5 14H5" stroke="#555770" stroke-width="1.2"/>
</g>
</svg>
