<svg width="24" height="24" viewBox="0 0 24 24" fill="none" xmlns="http://www.w3.org/2000/svg">
<path d="M18.6468 10.1615L15.8184 12.9899L16.6669 13.8384L19.4954 11.01L18.6468 10.1615ZM11.0101 8.18158L13.8385 5.35316L12.99 4.50463L10.1616 7.33305L11.0101 8.18158ZM11.0101 19.4953L13.8385 16.6669L12.99 15.8183L10.1616 18.6468L11.0101 19.4953ZM7.33313 10.1615L4.5047 12.9899L5.35323 13.8384L8.18166 11.01L7.33313 10.1615ZM15.1113 8.04016L8.04024 15.1112L8.88877 15.9598L15.9598 8.88869L15.1113 8.04016ZM5.35323 18.6468C4.02545 17.319 4.02545 15.1662 5.35323 13.8384L4.5047 12.9899C2.70829 14.7863 2.70829 17.6989 4.5047 19.4953L5.35323 18.6468ZM18.6468 5.35316C19.9746 6.68094 19.9746 8.8337 18.6468 10.1615L19.4954 11.01C21.2918 9.2136 21.2918 6.30104 19.4954 4.50463L18.6468 5.35316ZM4.5047 19.4953C6.30112 21.2917 9.21367 21.2917 11.0101 19.4953L10.1616 18.6468C8.83378 19.9745 6.68101 19.9745 5.35323 18.6468L4.5047 19.4953ZM19.4954 4.50463C17.699 2.70822 14.7864 2.70822 12.99 4.50463L13.8385 5.35316C15.1663 4.02537 17.3191 4.02537 18.6468 5.35316L19.4954 4.50463Z" fill="#555770"/>
</svg>
