<svg width="24" height="24" viewBox="0 0 24 24" fill="none" xmlns="http://www.w3.org/2000/svg">
<path d="M19.1461 6.06473L19.6931 5.81829L19.5373 5.47234L19.1579 5.46485L19.1461 6.06473ZM6.06473 19.1461L5.46485 19.1579L5.47234 19.5373L5.81829 19.6931L6.06473 19.1461ZM10.1169 15.742L10.1127 15.142L10.1127 15.142L10.1169 15.742ZM10.1864 15.7705L10.6107 15.3462L10.6107 15.3462L10.1864 15.7705ZM15.742 10.1169L15.142 10.1127L15.142 10.1127L15.742 10.1169ZM15.7705 10.1864L15.3462 10.6107L15.3462 10.6107L15.7705 10.1864ZM6.00002 15.8689L6.5999 15.857L6.00002 15.8689ZM6.0967 15.7696L6.10082 16.3696L6.10082 16.3696L6.0967 15.7696ZM15.8689 6.00002L15.857 6.5999L15.8689 6.00002ZM15.7696 6.0967L16.3696 6.10082L16.3696 6.10082L15.7696 6.0967ZM19.1579 5.46485L15.8807 5.40014L15.857 6.5999L19.1342 6.66462L19.1579 5.46485ZM15.1696 6.09258L15.142 10.1127L16.342 10.121L16.3696 6.10082L15.1696 6.09258ZM18.599 6.31117C19.6168 8.57054 19.6647 11.1742 18.7422 13.4939L19.8573 13.9374C20.898 11.3203 20.8465 8.37857 19.6931 5.81829L18.599 6.31117ZM18.7422 13.4939C18.2854 14.6428 17.5904 15.7223 16.6563 16.6563L17.5049 17.5049C18.5563 16.4534 19.3411 15.2355 19.8573 13.9374L18.7422 13.4939ZM15.3462 10.6107L18.8755 14.1399L19.724 13.2914L16.1948 9.76212L15.3462 10.6107ZM6.66462 19.1342L6.5999 15.857L5.40014 15.8807L5.46485 19.1579L6.66462 19.1342ZM6.10082 16.3696L10.121 16.342L10.1127 15.142L6.09258 15.1696L6.10082 16.3696ZM5.81829 19.6931C8.37857 20.8465 11.3203 20.898 13.9374 19.8573L13.4939 18.7422C11.1742 19.6647 8.57054 19.6168 6.31117 18.599L5.81829 19.6931ZM13.9374 19.8573C15.2355 19.3411 16.4534 18.5563 17.5049 17.5049L16.6563 16.6563C15.7223 17.5904 14.6428 18.2854 13.4939 18.7422L13.9374 19.8573ZM9.76212 16.1948L13.2914 19.724L14.1399 18.8755L10.6107 15.3462L9.76212 16.1948ZM10.121 16.342C9.98649 16.3429 9.85723 16.2899 9.76212 16.1948L10.6107 15.3462C10.4787 15.2143 10.2994 15.1407 10.1127 15.142L10.121 16.342ZM15.142 10.1127C15.1407 10.2994 15.2143 10.4787 15.3462 10.6107L16.1948 9.76212C16.2899 9.85723 16.3429 9.98649 16.342 10.121L15.142 10.1127ZM6.5999 15.857C6.60543 16.1371 6.38094 16.3677 6.10082 16.3696L6.09258 15.1696C5.70393 15.1723 5.39246 15.4922 5.40014 15.8807L6.5999 15.857ZM15.8807 5.40014C15.4922 5.39246 15.1723 5.70393 15.1696 6.09258L16.3696 6.10082C16.3677 6.38094 16.1371 6.60543 15.857 6.5999L15.8807 5.40014Z" fill="#555770"/>
<path d="M9.525 3.625V6H10.725V3.625H9.525ZM10.125 5.4H4.875V6.6H10.125V5.4ZM5.475 6V3.625H4.275V6H5.475ZM4.875 5.4H4.1V6.6H4.875V5.4ZM3.4 6.1V10H4.6V6.1H3.4ZM5 11.6H10V10.4H5V11.6ZM11.6 10V6.1H10.4V10H11.6ZM10.9 5.4H10.125V6.6H10.9V5.4ZM11.6 6.1C11.6 5.7134 11.2866 5.4 10.9 5.4V6.6C10.6239 6.6 10.4 6.37614 10.4 6.1H11.6ZM4.1 5.4C3.7134 5.4 3.4 5.7134 3.4 6.1H4.6C4.6 6.37614 4.37614 6.6 4.1 6.6V5.4ZM10 11.6C10.8837 11.6 11.6 10.8837 11.6 10H10.4C10.4 10.2209 10.2209 10.4 10 10.4V11.6ZM7.5 1.6C8.61838 1.6 9.525 2.50662 9.525 3.625H10.725C10.725 1.84388 9.28112 0.4 7.5 0.4V1.6ZM3.4 10C3.4 10.8837 4.11634 11.6 5 11.6V10.4C4.77909 10.4 4.6 10.2209 4.6 10H3.4ZM7.5 0.4C5.71888 0.4 4.275 1.84388 4.275 3.625H5.475C5.475 2.50662 6.38162 1.6 7.5 1.6V0.4Z" fill="#555770"/>
</svg>
