<svg width="24" height="24" viewBox="0 0 24 24" fill="none" xmlns="http://www.w3.org/2000/svg">
<path d="M22 9V6C22 5.44772 21.5523 5 21 5H3C2.44772 5 2 5.44772 2 6V18C2 18.5523 2.44772 19 3 19H12" stroke="#555770" stroke-width="1.2"/>
<path d="M2 6L12 12L22 6" stroke="#555770" stroke-width="1.2"/>
<path d="M21.525 14.625V17H22.725V14.625H21.525ZM22.125 16.4H16.875V17.6H22.125V16.4ZM17.475 17V14.625H16.275V17H17.475ZM16.875 16.4H16.1V17.6H16.875V16.4ZM15.4 17.1V21H16.6V17.1H15.4ZM17 22.6H22V21.4H17V22.6ZM23.6 21V17.1H22.4V21H23.6ZM22.9 16.4H22.125V17.6H22.9V16.4ZM23.6 17.1C23.6 16.7134 23.2866 16.4 22.9 16.4V17.6C22.6239 17.6 22.4 17.3761 22.4 17.1H23.6ZM16.1 16.4C15.7134 16.4 15.4 16.7134 15.4 17.1H16.6C16.6 17.3761 16.3761 17.6 16.1 17.6V16.4ZM22 22.6C22.8837 22.6 23.6 21.8837 23.6 21H22.4C22.4 21.2209 22.2209 21.4 22 21.4V22.6ZM19.5 12.6C20.6184 12.6 21.525 13.5066 21.525 14.625H22.725C22.725 12.8439 21.2811 11.4 19.5 11.4V12.6ZM15.4 21C15.4 21.8837 16.1163 22.6 17 22.6V21.4C16.7791 21.4 16.6 21.2209 16.6 21H15.4ZM19.5 11.4C17.7189 11.4 16.275 12.8439 16.275 14.625H17.475C17.475 13.5066 18.3816 12.6 19.5 12.6V11.4Z" fill="#555770"/>
</svg>
