<svg width="24" height="24" viewBox="0 0 24 24" fill="none" xmlns="http://www.w3.org/2000/svg">
<path d="M22 11.5V6C22 5.44772 21.5523 5 21 5H3C2.44772 5 2 5.44772 2 6V18C2 18.5523 2.44772 19 3 19H12" stroke="#555770" stroke-width="1.2"/>
<path d="M2 6L12 12L22 6" stroke="#555770" stroke-width="1.2"/>
<path d="M15 17L14.5757 17.4243L14.1515 17L14.5757 16.5757L15 17ZM23 17.6H15V16.4H23V17.6ZM14.5757 16.5757L17.5757 13.5757L18.4243 14.4243L15.4243 17.4243L14.5757 16.5757ZM17.5757 20.4243L14.5757 17.4243L15.4243 16.5757L18.4243 19.5757L17.5757 20.4243Z" fill="#555770"/>
</svg>
