<svg width="24" height="24" viewBox="0 0 24 24" fill="none" xmlns="http://www.w3.org/2000/svg">
<path d="M4 10L4.42426 10.4243L4.6 10.2485L4.6 10L4 10ZM2 12L1.57574 11.5757L1.15147 12L1.57574 12.4243L2 12ZM4 14L4.6 14L4.6 13.7515L4.42426 13.5757L4 14ZM5 19.6L20 19.6L20 18.4L5 18.4L5 19.6ZM20 4.4L5 4.4L5 5.6L20 5.6L20 4.4ZM21.6 18L21.6 6L20.4 6L20.4 18L21.6 18ZM3.4 6L3.4 10L4.6 10L4.6 6L3.4 6ZM3.57574 9.57573L1.57574 11.5757L2.42426 12.4243L4.42426 10.4243L3.57574 9.57573ZM1.57574 12.4243L3.57574 14.4243L4.42426 13.5757L2.42426 11.5757L1.57574 12.4243ZM3.4 14L3.4 18L4.6 18L4.6 14L3.4 14ZM20 19.6C20.8837 19.6 21.6 18.8837 21.6 18L20.4 18C20.4 18.2209 20.2209 18.4 20 18.4L20 19.6ZM5 18.4C4.77909 18.4 4.6 18.2209 4.6 18L3.4 18C3.4 18.8837 4.11634 19.6 5 19.6L5 18.4ZM5 4.4C4.11635 4.4 3.4 5.11634 3.4 6L4.6 6C4.6 5.77908 4.77909 5.6 5 5.6L5 4.4ZM20 5.6C20.2209 5.6 20.4 5.77909 20.4 6L21.6 6C21.6 5.11635 20.8837 4.4 20 4.4L20 5.6Z" fill="#555770"/>
<path d="M14 12C14 12.8284 13.3284 13.5 12.5 13.5C11.6716 13.5 11 12.8284 11 12C11 11.1716 11.6716 10.5 12.5 10.5C13.3284 10.5 14 11.1716 14 12Z" fill="#555770"/>
<path d="M9.5 12C9.5 12.8284 8.82843 13.5 8 13.5C7.17157 13.5 6.5 12.8284 6.5 12C6.5 11.1716 7.17157 10.5 8 10.5C8.82843 10.5 9.5 11.1716 9.5 12Z" fill="#555770"/>
<path d="M18.5 12C18.5 12.8284 17.8284 13.5 17 13.5C16.1716 13.5 15.5 12.8284 15.5 12C15.5 11.1716 16.1716 10.5 17 10.5C17.8284 10.5 18.5 11.1716 18.5 12Z" fill="#555770"/>
</svg>
