<svg width="24" height="24" viewBox="0 0 24 24" fill="none" xmlns="http://www.w3.org/2000/svg">
<path d="M6.75 17L6.37518 16.5315L6.53953 16.4H6.75V17ZM3.16247 19.87L3.53729 20.3385L3.16247 19.87ZM4 3.4H20V4.6H4V3.4ZM21.6 5V16H20.4V5H21.6ZM2.4 16V5H3.6V16H2.4ZM2.4 19.7919V16H3.6V19.7919H2.4ZM7.12482 17.4685L3.53729 20.3385L2.78765 19.4015L6.37518 16.5315L7.12482 17.4685ZM6.75 16.4H20V17.6H6.75V16.4ZM3.6 19.7919C3.6 19.3727 3.11503 19.1396 2.78765 19.4015L3.53729 20.3385C3.07896 20.7052 2.4 20.3789 2.4 19.7919H3.6ZM20 3.4C20.8837 3.4 21.6 4.11634 21.6 5H20.4C20.4 4.77909 20.2209 4.6 20 4.6V3.4ZM4 4.6C3.77909 4.6 3.6 4.77909 3.6 5H2.4C2.4 4.11634 3.11634 3.4 4 3.4V4.6ZM21.6 16C21.6 16.8837 20.8837 17.6 20 17.6V16.4C20.2209 16.4 20.4 16.2209 20.4 16H21.6Z" fill="#555770"/>
</svg>
