<svg width="24" height="24" viewBox="0 0 24 24" fill="none" xmlns="http://www.w3.org/2000/svg">
<path d="M6.75 17L6.37518 16.5315L6.53953 16.4H6.75V17ZM3.16247 19.87L3.53729 20.3385L3.16247 19.87ZM4 3.4H20V4.6H4V3.4ZM21.6 5V16H20.4V5H21.6ZM2.4 16V5H3.6V16H2.4ZM2.4 19.7919V16H3.6V19.7919H2.4ZM7.12482 17.4685L3.53729 20.3385L2.78765 19.4015L6.37518 16.5315L7.12482 17.4685ZM6.75 16.4H20V17.6H6.75V16.4ZM3.6 19.7919C3.6 19.3727 3.11503 19.1396 2.78765 19.4015L3.53729 20.3385C3.07896 20.7052 2.4 20.3789 2.4 19.7919H3.6ZM20 3.4C20.8837 3.4 21.6 4.11634 21.6 5H20.4C20.4 4.77909 20.2209 4.6 20 4.6V3.4ZM4 4.6C3.77909 4.6 3.6 4.77909 3.6 5H2.4C2.4 4.11634 3.11634 3.4 4 3.4V4.6ZM21.6 16C21.6 16.8837 20.8837 17.6 20 17.6V16.4C20.2209 16.4 20.4 16.2209 20.4 16H21.6Z" fill="#555770"/>
<path d="M12.7641 10.5912L12.3305 10.1765L12.3305 10.1765L12.7641 10.5912ZM11.1 9.00004C11.1 8.43313 11.6073 7.94998 12.269 7.94998V6.74998C11.068 6.74998 9.9 7.65341 9.9 9.00004H11.1ZM12.269 7.94998C12.9132 7.94998 13.4 8.41727 13.4 9.00004H14.6C14.6 7.66928 13.4874 6.74998 12.269 6.74998V7.94998ZM13.4 9.00004C13.4 9.14683 13.3556 9.24463 13.1859 9.40953C13.0886 9.50409 12.9768 9.59489 12.821 9.72568C12.6738 9.84934 12.502 9.9972 12.3305 10.1765L13.1977 11.006C13.3222 10.8758 13.4528 10.7622 13.5928 10.6446C13.7244 10.5341 13.8845 10.4039 14.0222 10.2701C14.3225 9.97828 14.6 9.58991 14.6 9.00004H13.4ZM12.3305 10.1765C12.1146 10.4022 11.9409 10.6568 11.8262 10.9724C11.7137 11.2821 11.669 11.6203 11.669 12H12.869C12.869 11.7119 12.9033 11.5219 12.9541 11.3822C13.0027 11.2484 13.0766 11.1326 13.1977 11.006L12.3305 10.1765ZM11.669 13V14H12.869V13H11.669Z" fill="#555770"/>
</svg>
