<svg width="24" height="24" viewBox="0 0 24 24" fill="none" xmlns="http://www.w3.org/2000/svg">
<path d="M18.1461 5.06473L18.6931 4.81829L18.5373 4.47234L18.1579 4.46485L18.1461 5.06473ZM5.06473 18.1461L4.46485 18.1579L4.47234 18.5373L4.81829 18.6931L5.06473 18.1461ZM9.11687 14.742L9.11275 14.142L9.11275 14.142L9.11687 14.742ZM9.18639 14.7705L9.61065 14.3462L9.61065 14.3462L9.18639 14.7705ZM14.742 9.11687L14.142 9.11275L14.142 9.11275L14.742 9.11687ZM14.7705 9.18639L14.3462 9.61065L14.3462 9.61065L14.7705 9.18639ZM5.00002 14.8689L5.5999 14.857L5.00002 14.8689ZM5.0967 14.7696L5.10082 15.3696L5.10082 15.3696L5.0967 14.7696ZM14.8689 5.00002L14.857 5.5999L14.8689 5.00002ZM14.7696 5.0967L15.3696 5.10082L15.3696 5.10082L14.7696 5.0967ZM18.1579 4.46485L14.8807 4.40014L14.857 5.5999L18.1342 5.66462L18.1579 4.46485ZM14.1696 5.09258L14.142 9.11275L15.342 9.12099L15.3696 5.10082L14.1696 5.09258ZM17.599 5.31117C18.6168 7.57054 18.6647 10.1742 17.7422 12.4939L18.8573 12.9374C19.898 10.3203 19.8465 7.37857 18.6931 4.81829L17.599 5.31117ZM17.7422 12.4939C17.2854 13.6428 16.5904 14.7223 15.6563 15.6563L16.5049 16.5049C17.5563 15.4534 18.3411 14.2355 18.8573 12.9374L17.7422 12.4939ZM14.3462 9.61065L17.8755 13.1399L18.724 12.2914L15.1948 8.76212L14.3462 9.61065ZM5.66462 18.1342L5.5999 14.857L4.40014 14.8807L4.46485 18.1579L5.66462 18.1342ZM5.10082 15.3696L9.12099 15.342L9.11275 14.142L5.09258 14.1696L5.10082 15.3696ZM4.81829 18.6931C7.37857 19.8465 10.3203 19.898 12.9374 18.8573L12.4939 17.7422C10.1742 18.6647 7.57054 18.6168 5.31117 17.599L4.81829 18.6931ZM12.9374 18.8573C14.2355 18.3411 15.4534 17.5563 16.5049 16.5049L15.6563 15.6563C14.7223 16.5904 13.6428 17.2854 12.4939 17.7422L12.9374 18.8573ZM8.76212 15.1948L12.2914 18.724L13.1399 17.8755L9.61065 14.3462L8.76212 15.1948ZM9.12099 15.342C8.98649 15.3429 8.85723 15.2899 8.76212 15.1948L9.61065 14.3462C9.4787 14.2143 9.29936 14.1407 9.11275 14.142L9.12099 15.342ZM14.142 9.11275C14.1407 9.29936 14.2143 9.4787 14.3462 9.61065L15.1948 8.76212C15.2899 8.85723 15.3429 8.98649 15.342 9.12099L14.142 9.11275ZM5.5999 14.857C5.60543 15.1371 5.38094 15.3677 5.10082 15.3696L5.09258 14.1696C4.70393 14.1723 4.39246 14.4922 4.40014 14.8807L5.5999 14.857ZM14.8807 4.40014C14.4922 4.39246 14.1723 4.70393 14.1696 5.09258L15.3696 5.10082C15.3677 5.38094 15.1371 5.60543 14.857 5.5999L14.8807 4.40014Z" fill="#555770"/>
</svg>
