<svg width="24" height="24" viewBox="0 0 24 24" fill="none" xmlns="http://www.w3.org/2000/svg">
<mask id="mask0_402_13413" style="mask-type:alpha" maskUnits="userSpaceOnUse" x="0" y="0" width="24" height="24">
<path d="M21.5033 21.5L0.00325155 0L0 24H24V0H5.69812V3.57552L22.645 20.5233L21.5033 21.5Z" fill="white"/>
</mask>
<g mask="url(#mask0_402_13413)">
<path d="M3.5 4L20 20.5" stroke="#555770" stroke-width="1.5"/>
<path d="M17.6569 4.2218L18.2039 3.97536L18.0481 3.62941L17.6687 3.62192L17.6569 4.2218ZM4.22183 17.6568L3.62195 17.6687L3.62944 18.048L3.97539 18.2039L4.22183 17.6568ZM8.38352 14.1607L8.3794 13.5607L8.38352 14.1607ZM14.1607 8.38349L14.7607 8.38762L14.1607 8.38349ZM4.15537 14.291L4.75525 14.2792L4.15537 14.291ZM4.25466 14.1891L4.25878 14.789L4.25466 14.1891ZM14.2911 4.15534L14.3029 3.55545L14.2911 4.15534ZM14.1891 4.25463L14.7891 4.25875L14.1891 4.25463ZM17.6687 3.62192L14.3029 3.55545L14.2792 4.75522L17.645 4.82168L17.6687 3.62192ZM13.5891 4.25051L13.5607 8.37937L14.7607 8.38762L14.7891 4.25875L13.5891 4.25051ZM17.1098 4.46824C18.157 6.79276 18.2062 9.47143 17.2572 11.8579L18.3722 12.3013C19.4395 9.61745 19.3866 6.60079 18.2039 3.97536L17.1098 4.46824ZM17.2572 11.8579C16.7872 13.0398 16.0721 14.1504 15.1113 15.1112L15.9598 15.9598C17.0381 14.8815 17.8429 13.6325 18.3722 12.3013L17.2572 11.8579ZM13.7658 8.87916L17.3904 12.5038L18.239 11.6553L14.6143 8.03063L13.7658 8.87916ZM4.82171 17.645L4.75525 14.2792L3.55548 14.3029L3.62195 17.6687L4.82171 17.645ZM4.25878 14.789L8.38765 14.7607L8.3794 13.5607L4.25054 13.5891L4.25878 14.789ZM3.97539 18.2039C6.60082 19.3866 9.61748 19.4395 12.3013 18.3722L11.8579 17.2571C9.47146 18.2062 6.79279 18.1569 4.46827 17.1098L3.97539 18.2039ZM12.3013 18.3722C13.6325 17.8428 14.8815 17.038 15.9598 15.9598L15.1113 15.1112C14.1504 16.0721 13.0399 16.7871 11.8579 17.2571L12.3013 18.3722ZM8.03066 14.6143L11.6554 18.2389L12.5039 17.3904L8.87919 13.7657L8.03066 14.6143ZM8.38765 14.7607C8.25385 14.7616 8.12527 14.7089 8.03066 14.6143L8.87919 13.7657C8.74673 13.6333 8.56672 13.5594 8.3794 13.5607L8.38765 14.7607ZM13.5607 8.37937C13.5595 8.56669 13.6333 8.7467 13.7658 8.87916L14.6143 8.03063C14.7089 8.12524 14.7616 8.25382 14.7607 8.38762L13.5607 8.37937ZM4.75525 14.2792C4.76075 14.5578 4.53744 14.7871 4.25878 14.789L4.25054 13.5891C3.86042 13.5918 3.54778 13.9128 3.55548 14.3029L4.75525 14.2792ZM14.3029 3.55545C13.9129 3.54775 13.5918 3.86039 13.5891 4.25051L14.7891 4.25875C14.7872 4.5374 14.5578 4.76072 14.2792 4.75522L14.3029 3.55545Z" fill="#555770"/>
</g>
</svg>
