<svg width="24" height="24" viewBox="0 0 24 24" fill="none" xmlns="http://www.w3.org/2000/svg">
<path d="M2.5 18.5L1.93892 18.2874L1.80449 18.6423L2.06744 18.9158L2.5 18.5ZM21.5 18.5L21.9326 18.9158L22.1955 18.6423L22.0611 18.2874L21.5 18.5ZM16.0851 18.0294L15.6638 18.4565L16.0851 18.0294ZM7.9149 18.0294L7.49356 17.6022L7.9149 18.0294ZM19.167 20.927L18.7345 20.5112L19.167 20.927ZM19.0247 20.9289L19.446 20.5017L19.0247 20.9289ZM4.83298 20.927L4.40042 21.3428L4.83298 20.927ZM4.9753 20.9289L4.55396 20.5017L4.9753 20.9289ZM2.06744 18.9158L4.40042 21.3428L5.26554 20.5112L2.93256 18.0842L2.06744 18.9158ZM5.39664 21.356L8.33624 18.4565L7.49356 17.6022L4.55396 20.5017L5.39664 21.356ZM3.06108 18.7126C3.96431 16.3284 5.82362 14.3995 8.18214 13.3831L7.70721 12.2811C5.05477 13.4242 2.95907 15.5947 1.93892 18.2874L3.06108 18.7126ZM8.18214 13.3831C9.35025 12.8797 10.6411 12.6 12 12.6V11.4C10.4751 11.4 9.02283 11.7141 7.70721 12.2811L8.18214 13.3831ZM8.54467 17.9582V12.8321H7.34467V17.9582H8.54467ZM21.0674 18.0842L18.7345 20.5112L19.5996 21.3428L21.9326 18.9158L21.0674 18.0842ZM19.446 20.5017L16.5064 17.6022L15.6638 18.4565L18.6034 21.356L19.446 20.5017ZM22.0611 18.2874C21.0409 15.5947 18.9452 13.4242 16.2928 12.2811L15.8179 13.3831C18.1764 14.3995 20.0357 16.3284 20.9389 18.7126L22.0611 18.2874ZM16.2928 12.2811C14.9772 11.7141 13.5249 11.4 12 11.4V12.6C13.3589 12.6 14.6497 12.8797 15.8179 13.3831L16.2928 12.2811ZM16.6553 17.9582V12.8321H15.4553V17.9582H16.6553ZM16.5064 17.6022C16.6017 17.6962 16.6553 17.8244 16.6553 17.9582H15.4553C15.4553 18.1455 15.5304 18.325 15.6638 18.4565L16.5064 17.6022ZM8.33624 18.4565C8.4696 18.325 8.54467 18.1455 8.54467 17.9582H7.34467C7.34467 17.8244 7.3983 17.6962 7.49356 17.6022L8.33624 18.4565ZM18.7345 20.5112C18.9276 20.3103 19.2477 20.306 19.446 20.5017L18.6034 21.356C18.8811 21.63 19.3292 21.624 19.5996 21.3428L18.7345 20.5112ZM4.40042 21.3428C4.67078 21.624 5.11889 21.63 5.39664 21.356L4.55396 20.5017C4.75235 20.306 5.07242 20.3103 5.26554 20.5112L4.40042 21.3428Z" fill="#555770"/>
<path d="M12 2V7M19.5 4.5L15.75 8.25M4.5 4.5L8.25 8.25" stroke="#555770" stroke-width="1.2"/>
</svg>
