<svg width="24" height="24" viewBox="0 0 24 24" fill="none" xmlns="http://www.w3.org/2000/svg">
<path d="M12.0667 8.25C12.0667 10.2771 10.4587 11.9 8.5 11.9V13.1C11.1437 13.1 13.2667 10.9173 13.2667 8.25H12.0667ZM8.5 11.9C6.54133 11.9 4.93333 10.2771 4.93333 8.25H3.73333C3.73333 10.9173 5.8563 13.1 8.5 13.1V11.9ZM4.93333 8.25C4.93333 6.2229 6.54133 4.6 8.5 4.6V3.4C5.8563 3.4 3.73333 5.58268 3.73333 8.25H4.93333ZM8.5 4.6C10.4587 4.6 12.0667 6.2229 12.0667 8.25H13.2667C13.2667 5.58268 11.1437 3.4 8.5 3.4V4.6ZM1.57619 21.1673C2.51318 17.9411 5.28141 15.65 8.5 15.65V14.45C4.6799 14.45 1.48992 17.1618 0.423808 20.8327L1.57619 21.1673ZM20.1778 11.75C20.1778 12.9317 19.2085 13.9 18 13.9V15.1C19.8598 15.1 21.3778 13.6058 21.3778 11.75H20.1778ZM18 13.9C16.7915 13.9 15.8222 12.9317 15.8222 11.75H14.6222C14.6222 13.6058 16.1402 15.1 18 15.1V13.9ZM15.8222 11.75C15.8222 10.5683 16.7915 9.6 18 9.6V8.4C16.1402 8.4 14.6222 9.89418 14.6222 11.75H15.8222ZM18 9.6C19.2085 9.6 20.1778 10.5683 20.1778 11.75H21.3778C21.3778 9.89417 19.8598 8.4 18 8.4V9.6ZM18 17.75C20.0574 17.75 21.8265 19.1712 22.4252 21.172L23.5748 20.828C22.8381 18.366 20.635 16.55 18 16.55V17.75ZM15.1099 18.8166C15.9054 18.1468 16.9095 17.75 18 17.75V16.55C16.6106 16.55 15.3361 17.0573 14.3369 17.8988L15.1099 18.8166ZM8.5 15.65C10.8196 15.65 12.8985 16.8355 14.2352 18.7065L15.2116 18.0089C13.6735 15.856 11.2463 14.45 8.5 14.45V15.65ZM14.2352 18.7065C14.7555 19.4348 15.1619 20.2656 15.4238 21.1673L16.5762 20.8327C16.2767 19.8013 15.8109 18.8477 15.2116 18.0089L14.2352 18.7065Z" fill="#555770"/>
</svg>
