<svg width="24" height="24" viewBox="0 0 24 24" fill="none" xmlns="http://www.w3.org/2000/svg">
<path d="M3 22L2.42471 21.8296C2.37094 22.0111 2.40598 22.2073 2.51924 22.359C2.6325 22.5107 2.8107 22.6 3 22.6V22ZM21 22V22.6C21.1893 22.6 21.3675 22.5107 21.4808 22.359C21.594 22.2073 21.6291 22.0111 21.5753 21.8296L21 22ZM12 11.4C9.56995 11.4 7.6 9.43005 7.6 7H6.4C6.4 10.0928 8.90721 12.6 12 12.6V11.4ZM7.6 7C7.6 4.56995 9.56995 2.6 12 2.6V1.4C8.90721 1.4 6.4 3.90721 6.4 7H7.6ZM3.57529 22.1704C4.70965 18.3412 8.0696 15.6 12 15.6V14.4C7.48397 14.4 3.69406 17.5446 2.42471 21.8296L3.57529 22.1704ZM12 15.6C15.9304 15.6 19.2903 18.3412 20.4247 22.1704L21.5753 21.8296C20.3059 17.5446 16.516 14.4 12 14.4V15.6ZM3 22.6H21V21.4H3V22.6ZM12 2.6C12.8024 2.6 13.553 2.81425 14.1996 3.18827L14.8004 2.14955C13.9761 1.67272 13.019 1.4 12 1.4V2.6Z" fill="#555770"/>
<path d="M21.525 5.625V8H22.725V5.625H21.525ZM22.125 7.4H16.875V8.6H22.125V7.4ZM17.475 8V5.625H16.275V8H17.475ZM16.875 7.4H16.1V8.6H16.875V7.4ZM15.4 8.1V12H16.6V8.1H15.4ZM17 13.6H22V12.4H17V13.6ZM23.6 12V8.1H22.4V12H23.6ZM22.9 7.4H22.125V8.6H22.9V7.4ZM23.6 8.1C23.6 7.7134 23.2866 7.4 22.9 7.4V8.6C22.6239 8.6 22.4 8.37614 22.4 8.1H23.6ZM16.1 7.4C15.7134 7.4 15.4 7.7134 15.4 8.1H16.6C16.6 8.37614 16.3761 8.6 16.1 8.6V7.4ZM22 13.6C22.8837 13.6 23.6 12.8837 23.6 12H22.4C22.4 12.2209 22.2209 12.4 22 12.4V13.6ZM19.5 3.6C20.6184 3.6 21.525 4.50662 21.525 5.625H22.725C22.725 3.84388 21.2811 2.4 19.5 2.4V3.6ZM15.4 12C15.4 12.8837 16.1163 13.6 17 13.6V12.4C16.7791 12.4 16.6 12.2209 16.6 12H15.4ZM19.5 2.4C17.7189 2.4 16.275 3.84388 16.275 5.625H17.475C17.475 4.50662 18.3816 3.6 19.5 3.6V2.4Z" fill="#555770"/>
</svg>
