<svg width="24" height="24" viewBox="0 0 24 24" fill="none" xmlns="http://www.w3.org/2000/svg">
<path d="M15 12C15 13.6569 13.6569 15 12 15V17C14.7614 17 17 14.7614 17 12H15ZM12 15C10.3431 15 9 13.6569 9 12H7C7 14.7614 9.23858 17 12 17V15ZM9 12C9 10.3431 10.3431 9 12 9V7C9.23858 7 7 9.23858 7 12H9ZM12 9C13.6569 9 15 10.3431 15 12H17C17 9.23858 14.7614 7 12 7V9ZM12 20C7.58172 20 4 16.4183 4 12H2C2 17.5228 6.47715 22 12 22V20ZM4 12C4 7.58172 7.58172 4 12 4V2C6.47715 2 2 6.47715 2 12H4ZM12 4C16.4183 4 20 7.58172 20 12H22C22 6.47715 17.5228 2 12 2V4ZM12 22H17V20H12V22ZM20 13.5C20 14.3284 19.3284 15 18.5 15V17C20.433 17 22 15.433 22 13.5H20ZM18.5 15C17.6716 15 17 14.3284 17 13.5H15C15 15.433 16.567 17 18.5 17V15ZM22 13.5V12H20V13.5H22ZM17 13.5V12H15V13.5H17Z" fill="#28293D"/>
</svg>
