<svg width="24" height="24" viewBox="0 0 24 24" fill="none" xmlns="http://www.w3.org/2000/svg">
<path d="M22 11.5V6C22 5.44772 21.5523 5 21 5H3C2.44772 5 2 5.44772 2 6V18C2 18.5523 2.44772 19 3 19H12" stroke="#28293D" stroke-width="2"/>
<path d="M2 6L12 12L22 6" stroke="#28293D" stroke-width="2"/>
<path d="M15 17L14.2929 17.7071L13.5858 17L14.2929 16.2929L15 17ZM23 18H15V16H23V18ZM14.2929 16.2929L17.2929 13.2929L18.7071 14.7071L15.7071 17.7071L14.2929 16.2929ZM17.2929 20.7071L14.2929 17.7071L15.7071 16.2929L18.7071 19.2929L17.2929 20.7071Z" fill="#28293D"/>
</svg>
