<svg width="24" height="24" viewBox="0 0 24 24" fill="none" xmlns="http://www.w3.org/2000/svg">
<path d="M2 7L1.55279 6.10557C1.214 6.27496 1 6.62123 1 7H2ZM22 7H23C23 6.62123 22.786 6.27496 22.4472 6.10557L22 7ZM12 2L12.4472 1.10557L12 0.881966L11.5528 1.10557L12 2ZM12 12L11.5528 12.8944L12 13.118L12.4472 12.8944L12 12ZM21 20H3V22H21V20ZM21 7V20H23V7H21ZM3 20V7H1V20H3ZM2.44721 7.89443L12.4472 2.89443L11.5528 1.10557L1.55279 6.10557L2.44721 7.89443ZM11.5528 2.89443L21.5528 7.89443L22.4472 6.10557L12.4472 1.10557L11.5528 2.89443ZM21.5528 6.10557L11.5528 11.1056L12.4472 12.8944L22.4472 7.89443L21.5528 6.10557ZM12.4472 11.1056L2.44721 6.10557L1.55279 7.89443L11.5528 12.8944L12.4472 11.1056ZM3 20H3H1C1 21.1046 1.89543 22 3 22V20ZM21 22C22.1046 22 23 21.1046 23 20H21V22Z" fill="#28293D"/>
</svg>
