<svg width="24" height="24" viewBox="0 0 24 24" fill="none" xmlns="http://www.w3.org/2000/svg">
<mask id="mask0_402_15629" style="mask-type:alpha" maskUnits="userSpaceOnUse" x="0" y="0" width="24" height="24">
<path d="M19.7839 19.7807L0.00325155 0V3.99675H0V24H24V0H5.69812V2.86644L21.1981 18.3664L23.9175 21.0858L22.5033 22.5L19.7839 19.7807Z" fill="white"/>
</mask>
<g mask="url(#mask0_402_15629)">
<path d="M1.58301 3L21.0002 22.4172" stroke="#28293D" stroke-width="2"/>
<path d="M17.25 17L17.8747 16.2191L17.6008 16H17.25V17ZM20.8375 19.87L20.2128 20.6509L20.8375 19.87ZM20 3H4V5H20V3ZM2 5V16H4V5H2ZM22 16V5H20V16H22ZM22 19.7919V16H20V19.7919H22ZM16.6253 17.7809L20.2128 20.6509L21.4622 19.0892L17.8747 16.2191L16.6253 17.7809ZM17.25 16H4V18H17.25V16ZM20 19.7919C20 19.0373 20.8729 18.6177 21.4622 19.0892L20.2128 20.6509C20.9331 21.2271 22 20.7143 22 19.7919H20ZM4 3C2.89543 3 2 3.89543 2 5H4H4V3ZM20 5V5H22C22 3.89543 21.1046 3 20 3V5ZM2 16C2 17.1046 2.89543 18 4 18V16H4H2Z" fill="#28293D"/>
</g>
</svg>
