<svg width="24" height="24" viewBox="0 0 24 24" fill="none" xmlns="http://www.w3.org/2000/svg">
<path d="M6.75 17L6.12531 16.2191L6.39922 16H6.75V17ZM3.16247 19.87L3.78716 20.6509L3.16247 19.87ZM4 3H20V5H4V3ZM22 5V16H20V5H22ZM2 16V5H4V16H2ZM2 19.7919V16H4V19.7919H2ZM7.37469 17.7809L3.78716 20.6509L2.53778 19.0892L6.12531 16.2191L7.37469 17.7809ZM6.75 16H20V18H6.75V16ZM4 19.7919C4 19.0373 3.12705 18.6177 2.53778 19.0892L3.78716 20.6509C3.06693 21.2271 2 20.7143 2 19.7919H4ZM20 3C21.1046 3 22 3.89543 22 5H20H20V3ZM4 5V5H2C2 3.89543 2.89543 3 4 3V5ZM22 16C22 17.1046 21.1046 18 20 18V16H20H22Z" fill="#28293D"/>
<path d="M16 7.5L11 12.5L8 9.5" stroke="#28293D" stroke-width="2"/>
</svg>
