<svg width="24" height="24" viewBox="0 0 24 24" fill="none" xmlns="http://www.w3.org/2000/svg">
<path d="M6.75 17L6.12531 16.2191L6.39922 16H6.75V17ZM3.16247 19.87L3.78716 20.6509L3.16247 19.87ZM4 3H20V5H4V3ZM22 5V16H20V5H22ZM2 16V5H4V16H2ZM2 19.7919V16H4V19.7919H2ZM7.37469 17.7809L3.78716 20.6509L2.53778 19.0892L6.12531 16.2191L7.37469 17.7809ZM6.75 16H20V18H6.75V16ZM4 19.7919C4 19.0373 3.12705 18.6177 2.53778 19.0892L3.78716 20.6509C3.06693 21.2271 2 20.7143 2 19.7919H4ZM20 3C21.1046 3 22 3.89543 22 5H20H20V3ZM4 5V5H2C2 3.89543 2.89543 3 4 3V5ZM22 16C22 17.1046 21.1046 18 20 18V16H20H22Z" fill="#28293D"/>
<path d="M12.7641 10.5912L12.0415 9.89996H12.0415L12.7641 10.5912ZM11.5 9.00004C11.5 8.69304 11.7871 8.34998 12.269 8.34998V6.34998C10.8882 6.34998 9.5 7.39351 9.5 9.00004H11.5ZM12.269 8.34998C12.7218 8.34998 13 8.6666 13 9.00004H15C15 7.41994 13.6788 6.34998 12.269 6.34998V8.34998ZM13 9.00004C13 9.01828 12.9981 9.02391 12.9988 9.02108C12.999 9.02009 12.9995 9.01857 13.0001 9.01691C13.0007 9.01528 13.0011 9.01457 13.0009 9.01504C12.9994 9.01788 12.9825 9.04938 12.9071 9.12268C12.8233 9.20415 12.7276 9.28182 12.5638 9.41939C12.4142 9.54507 12.2286 9.70433 12.0415 9.89996L13.4867 11.2825C13.5956 11.1687 13.7125 11.0664 13.8501 10.9508C13.9736 10.8472 14.1498 10.7038 14.301 10.5569C14.6448 10.2228 15 9.7376 15 9.00004H13ZM12.0415 9.89996C11.7549 10.1995 11.5699 10.5524 11.4566 10.8473C11.348 11.13 11.269 11.4552 11.269 11.7404H13.269C13.269 11.7735 13.2654 11.7683 13.2758 11.7207C13.2848 11.6796 13.3004 11.625 13.3236 11.5644C13.3737 11.4342 13.4362 11.3353 13.4867 11.2825L12.0415 9.89996ZM11.269 12.6499V14H13.269V12.6499H11.269Z" fill="#28293D"/>
</svg>
