<svg width="24" height="24" viewBox="0 0 24 24" fill="none" xmlns="http://www.w3.org/2000/svg">
<path d="M4 10L4.70711 10.7071L5 10.4142L5 10L4 10ZM2 12L1.29289 11.2929L0.585787 12L1.29289 12.7071L2 12ZM4 14L5 14L5 13.5858L4.70711 13.2929L4 14ZM5 20L20 20L20 18L5 18L5 20ZM20 4L5 4L5 6L20 6L20 4ZM22 18L22 6L20 6L20 18L22 18ZM3 6L3 10L5 10L5 6L3 6ZM3.29289 9.29289L1.29289 11.2929L2.70711 12.7071L4.70711 10.7071L3.29289 9.29289ZM1.29289 12.7071L3.29289 14.7071L4.70711 13.2929L2.70711 11.2929L1.29289 12.7071ZM3 14L3 18L5 18L5 14L3 14ZM20 20C21.1046 20 22 19.1046 22 18L20 18L20 18L20 20ZM5 18L5 18L3 18C3 19.1046 3.89543 20 5 20L5 18ZM5 4C3.89543 4 3 4.89543 3 6L5 6L5 4ZM20 6L22 6C22 4.89543 21.1046 4 20 4L20 6Z" fill="#28293D"/>
<path d="M14 12C14 12.8284 13.3284 13.5 12.5 13.5C11.6716 13.5 11 12.8284 11 12C11 11.1716 11.6716 10.5 12.5 10.5C13.3284 10.5 14 11.1716 14 12Z" fill="#28293D"/>
<path d="M9.5 12C9.5 12.8284 8.82843 13.5 8 13.5C7.17157 13.5 6.5 12.8284 6.5 12C6.5 11.1716 7.17157 10.5 8 10.5C8.82843 10.5 9.5 11.1716 9.5 12Z" fill="#28293D"/>
<path d="M18.5 12C18.5 12.8284 17.8284 13.5 17 13.5C16.1716 13.5 15.5 12.8284 15.5 12C15.5 11.1716 16.1716 10.5 17 10.5C17.8284 10.5 18.5 11.1716 18.5 12Z" fill="#28293D"/>
</svg>
