<svg width="24" height="24" viewBox="0 0 24 24" fill="none" xmlns="http://www.w3.org/2000/svg">
<mask id="mask0_402_15701" style="mask-type:alpha" maskUnits="userSpaceOnUse" x="0" y="0" width="24" height="24">
<path d="M19.7839 19.7807L4 3.99675H0V24H24V0H5.69812V2.86644L21.1981 18.3664L19.7839 19.7807Z" fill="white"/>
</mask>
<g mask="url(#mask0_402_15701)">
<path d="M3.52441 4.94153L19.0244 20.4415" stroke="#28293D" stroke-width="2"/>
<path d="M17.6567 4.2218L18.5685 3.81107L18.3087 3.23448L17.6765 3.22199L17.6567 4.2218ZM4.22171 17.6568L3.2219 17.6766L3.23439 18.3088L3.81097 18.5686L4.22171 17.6568ZM8.3834 14.1607L8.37653 13.1607L8.3834 14.1607ZM14.1606 8.38349L15.1606 8.39036L14.1606 8.38349ZM4.15524 14.291L5.15505 14.2713L4.15524 14.291ZM4.25454 14.1891L4.26141 15.189L4.25454 14.1891ZM14.2909 4.15534L14.3107 3.15553L14.2909 4.15534ZM14.189 4.25463L15.1889 4.2615L14.189 4.25463ZM17.6765 3.22199L14.3107 3.15553L14.2712 5.15514L17.637 5.2216L17.6765 3.22199ZM13.189 4.24776L13.1606 8.37663L15.1606 8.39036L15.1889 4.2615L13.189 4.24776ZM16.745 4.63253C17.747 6.85674 17.7949 9.42276 16.8854 11.7101L18.7438 12.4491C19.8505 9.66613 19.7964 6.5368 18.5685 3.81107L16.745 4.63253ZM16.8854 11.7101C16.4351 12.8423 15.75 13.9067 14.8283 14.8284L16.2425 16.2426C17.3599 15.1252 18.1947 13.83 18.7438 12.4491L16.8854 11.7101ZM13.4828 9.162L17.1075 12.7867L18.5217 11.3725L14.897 7.74779L13.4828 9.162ZM5.22151 17.6371L5.15505 14.2713L3.15544 14.3108L3.2219 17.6766L5.22151 17.6371ZM4.26141 15.189L8.39027 15.1607L8.37653 13.1607L4.24767 13.1891L4.26141 15.189ZM3.81097 18.5686C6.53671 19.7965 9.66603 19.8506 12.449 18.7439L11.71 16.8855C9.42267 17.795 6.85665 17.747 4.63244 16.7451L3.81097 18.5686ZM12.449 18.7439C13.83 18.1948 15.1251 17.36 16.2425 16.2426L14.8283 14.8284C13.9066 15.7501 12.8422 16.4352 11.71 16.8855L12.449 18.7439ZM7.74769 14.8971L11.3724 18.5218L12.7866 17.1076L9.16191 13.4829L7.74769 14.8971ZM8.39027 15.1607C8.14944 15.1623 7.91799 15.0674 7.74769 14.8971L9.16191 13.4829C8.95376 13.2747 8.67088 13.1587 8.37653 13.1607L8.39027 15.1607ZM13.1606 8.37663C13.1586 8.67097 13.2746 8.95386 13.4828 9.162L14.897 7.74779C15.0673 7.91808 15.1622 8.14953 15.1606 8.39036L13.1606 8.37663ZM5.15505 14.2713C5.16495 14.7728 4.76298 15.1856 4.26141 15.189L4.24767 13.1891C3.63463 13.1933 3.14334 13.6978 3.15544 14.3108L5.15505 14.2713ZM14.3107 3.15553C13.6978 3.14343 13.1932 3.63472 13.189 4.24776L15.1889 4.2615C15.1855 4.76307 14.7727 5.16504 14.2712 5.15514L14.3107 3.15553Z" fill="#28293D"/>
</g>
</svg>
