<svg width="24" height="24" viewBox="0 0 24 24" fill="none" xmlns="http://www.w3.org/2000/svg">
<path d="M18.1461 5.06473L19.0578 4.654L18.7981 4.07741L18.1658 4.06493L18.1461 5.06473ZM5.06473 18.1461L4.06493 18.1658L4.07741 18.7981L4.654 19.0578L5.06473 18.1461ZM9.11687 14.742L9.11 13.742L9.11687 14.742ZM9.18639 14.7705L9.8935 14.0634L9.18639 14.7705ZM14.742 9.11687L13.742 9.11L14.742 9.11687ZM14.7705 9.18639L14.0634 9.8935L14.7705 9.18639ZM5.00002 14.8689L5.99982 14.8491L5.00002 14.8689ZM5.0967 14.7696L5.10357 15.7696H5.10357L5.0967 14.7696ZM14.8689 5.00002L14.8491 5.99982L14.8689 5.00002ZM14.7696 5.0967L15.7696 5.10357V5.10357L14.7696 5.0967ZM18.1658 4.06493L14.8886 4.00021L14.8491 5.99982L18.1263 6.06454L18.1658 4.06493ZM13.7696 5.08983L13.742 9.11L15.742 9.12374L15.7696 5.10357L13.7696 5.08983ZM17.2343 5.47547C18.2069 7.63452 18.2536 10.1256 17.3706 12.3461L19.229 13.0852C20.3092 10.3689 20.2564 7.31458 19.0578 4.654L17.2343 5.47547ZM17.3706 12.3461C16.9335 13.4453 16.2684 14.4786 15.3735 15.3735L16.7877 16.7877C17.8783 15.6972 18.693 14.433 19.229 13.0852L17.3706 12.3461ZM14.0634 9.8935L17.5927 13.4228L19.0069 12.0086L15.4776 8.47928L14.0634 9.8935ZM6.06454 18.1263L5.99982 14.8491L4.00021 14.8886L4.06493 18.1658L6.06454 18.1263ZM5.10357 15.7696L9.12374 15.742L9.11 13.742L5.08983 13.7696L5.10357 15.7696ZM4.654 19.0578C7.31458 20.2564 10.3689 20.3092 13.0852 19.229L12.3461 17.3706C10.1256 18.2536 7.63452 18.2069 5.47547 17.2343L4.654 19.0578ZM13.0852 19.229C14.433 18.693 15.6972 17.8783 16.7877 16.7877L15.3735 15.3735C14.4786 16.2684 13.4453 16.9335 12.3461 17.3706L13.0852 19.229ZM8.47928 15.4776L12.0086 19.0069L13.4228 17.5927L9.8935 14.0634L8.47928 15.4776ZM9.12374 15.742C8.8822 15.7436 8.65007 15.6484 8.47928 15.4776L9.8935 14.0634C9.68586 13.8558 9.40365 13.74 9.11 13.742L9.12374 15.742ZM13.742 9.11C13.74 9.40365 13.8558 9.68586 14.0634 9.8935L15.4776 8.47928C15.6484 8.65007 15.7436 8.8822 15.742 9.12374L13.742 9.11ZM5.99982 14.8491C6.00976 15.3521 5.60661 15.7661 5.10357 15.7696L5.08983 13.7696C4.47826 13.7738 3.98814 14.2772 4.00021 14.8886L5.99982 14.8491ZM14.8886 4.00021C14.2772 3.98814 13.7738 4.47826 13.7696 5.08983L15.7696 5.10357C15.7661 5.60661 15.3521 6.00976 14.8491 5.99982L14.8886 4.00021Z" fill="#28293D"/>
</svg>
