<svg width="24" height="24" viewBox="0 0 24 24" fill="none" xmlns="http://www.w3.org/2000/svg">
<path d="M19 7L20 7C20 6.73478 19.8946 6.48043 19.7071 6.29289L19 7ZM15 3L15.7071 2.29289C15.5196 2.10536 15.2652 2 15 2L15 3ZM6 22L18 22L18 20L6 20L6 22ZM4 4L4 20L6 20L6 4L4 4ZM20 20L20 7L18 7L18 20L20 20ZM15 2L6 2L6 4L15 4L15 2ZM19.7071 6.29289L15.7071 2.29289L14.2929 3.70711L18.2929 7.70711L19.7071 6.29289ZM18 22C19.1046 22 20 21.1046 20 20L18 20L18 20L18 22ZM6 20L4 20C4 21.1046 4.89543 22 6 22L6 20ZM6 4L6 2C4.89543 2 4 2.89543 4 4L6 4Z" fill="#28293D"/>
<path d="M9.5 16L8.5 16L8.5 17L9.5 17L9.5 16ZM10.5287 12.9285L10.0431 12.0543L10.5287 12.9285ZM12.1113 7L9 7L9 9L12.1113 9L12.1113 7ZM8.5 14.6768L8.5 16L10.5 16L10.5 14.6768L8.5 14.6768ZM9.5 17L15 17L15 15L9.5 15L9.5 17ZM12.5429 10.6655L10.0431 12.0543L11.0144 13.8026L13.5142 12.4139L12.5429 10.6655ZM10.5 14.6768C10.5 14.3136 10.6969 13.979 11.0144 13.8026L10.0431 12.0543C9.09068 12.5834 8.5 13.5873 8.5 14.6768L10.5 14.6768ZM13 9.88869C13 10.2114 12.825 10.5088 12.5429 10.6655L13.5142 12.4139C14.4312 11.9044 15 10.9378 15 9.88869L13 9.88869ZM12.1113 9C12.6021 9 13 9.39788 13 9.88869L15 9.88869C15 8.29331 13.7067 7 12.1113 7L12.1113 9Z" fill="#28293D"/>
</svg>
