<svg width="24" height="24" viewBox="0 0 24 24" fill="none" xmlns="http://www.w3.org/2000/svg">
<path d="M19 7L20 7C20 6.73478 19.8946 6.48043 19.7071 6.29289L19 7ZM15 3L15.7071 2.29289C15.5196 2.10536 15.2652 2 15 2L15 3ZM6 22L18 22L18 20L6 20L6 22ZM4 4L4 20L6 20L6 4L4 4ZM20 20L20 7L18 7L18 20L20 20ZM15 2L6 2L6 4L15 4L15 2ZM19.7071 6.29289L15.7071 2.29289L14.2929 3.70711L18.2929 7.70711L19.7071 6.29289ZM18 22C19.1046 22 20 21.1046 20 20L18 20L18 20L18 22ZM6 20L4 20C4 21.1046 4.89543 22 6 22L6 20ZM6 4L6 2C4.89543 2 4 2.89543 4 4L6 4Z" fill="#28293D"/>
<path d="M12 7L12 13M12 17L12 15" stroke="#28293D" stroke-width="2"/>
</svg>
