<svg width="24" height="24" viewBox="0 0 24 24" fill="none" xmlns="http://www.w3.org/2000/svg">
<path d="M19.25 19L19.8747 18.2191L19.6008 18H19.25V19ZM22.8375 21.87L22.2128 22.6509L22.8375 21.87ZM24 18V7H22V18H24ZM24 21.7919V18H22V21.7919H24ZM18.6253 19.7809L22.2128 22.6509L23.4622 21.0892L19.8747 18.2191L18.6253 19.7809ZM19.25 18H6V20H19.25V18ZM22 5H20V7H22V5ZM4 16V18H6V16H4ZM22 21.7919C22 21.0373 22.8729 20.6177 23.4622 21.0892L22.2128 22.6509C22.9331 23.2271 24 22.7143 24 21.7919H22ZM24 7C24 5.89543 23.1046 5 22 5V7V7H24ZM6 18H6H4C4 19.1046 4.89543 20 6 20V18Z" fill="#28293D"/>
<path d="M4.75 15L4.12531 14.2191L4.39922 14H4.75V15ZM1.16247 17.87L1.78716 18.6509L1.16247 17.87ZM2 1H18V3H2V1ZM20 3V14H18V3H20ZM0 14V3H2V14H0ZM0 17.7919V14H2V17.7919H0ZM5.37469 15.7809L1.78716 18.6509L0.537775 17.0892L4.12531 14.2191L5.37469 15.7809ZM4.75 14H18V16H4.75V14ZM2 17.7919C2 17.0373 1.12705 16.6177 0.537775 17.0892L1.78716 18.6509C1.06693 19.2271 0 18.7143 0 17.7919H2ZM18 1C19.1046 1 20 1.89543 20 3H18H18V1ZM2 3V3H0C0 1.89543 0.895432 1 2 1V3ZM20 14C20 15.1046 19.1046 16 18 16V14H18H20Z" fill="#28293D"/>
</svg>
