<svg width="24" height="24" viewBox="0 0 24 24" fill="none" xmlns="http://www.w3.org/2000/svg">
<mask id="path-1-inside-1_402_15642" fill="white">
<path d="M5.1 17H18.9C18.9552 17 19 17.0448 19 17.1V22C19 22.5523 18.5523 23 18 23H6C5.44772 23 5 22.5523 5 22V17.1C5 17.0448 5.04477 17 5.1 17Z"/>
<path d="M18.9 7H5.1C5.04477 7 5 6.95523 5 6.9V2C5 1.44772 5.44772 1 6 1H18C18.5523 1 19 1.44772 19 2V6.9C19 6.95523 18.9552 7 18.9 7Z"/>
</mask>
<path d="M18.9 15H5.1V19H18.9V15ZM5.1 9H18.9V5H5.1V9ZM3 2V6.9H7V2H3ZM21 6.9V2H17V6.9H21ZM3 17.1V22H7V17.1H3ZM21 22V17.1H17V22H21ZM6 3H18V-1H6V3ZM6 25H18V21H6V25ZM17 22C17 21.4477 17.4477 21 18 21V25C19.6569 25 21 23.6569 21 22H17ZM3 22C3 23.6569 4.34315 25 6 25V21C6.55229 21 7 21.4477 7 22H3ZM21 2C21 0.343144 19.6569 -1 18 -1V3C17.4477 3 17 2.55229 17 2H21ZM7 2C7 2.55228 6.55228 3 6 3V-1C4.34315 -1 3 0.343146 3 2H7ZM18.9 9C20.0598 9 21 8.05981 21 6.9H17C17 5.85065 17.8507 5 18.9 5V9ZM5.1 5C6.14934 5 7 5.85065 7 6.9H3C3 8.0598 3.94021 9 5.1 9V5ZM18.9 19C17.8507 19 17 18.1494 17 17.1H21C21 15.9402 20.0598 15 18.9 15V19ZM5.1 15C3.94022 15 3 15.9402 3 17.1H7C7 18.1494 6.14933 19 5.1 19V15Z" fill="#28293D" mask="url(#path-1-inside-1_402_15642)"/>
<path d="M3 18L3 6L21 6V18H3Z" stroke="#28293D" stroke-width="2"/>
<path d="M12.7677 10.2323C12.7677 10.6563 12.424 11 12.0001 11V13C13.5286 13 14.7677 11.7609 14.7677 10.2323H12.7677ZM12.0001 11C11.5761 11 11.2325 10.6563 11.2325 10.2323H9.23246C9.23246 11.7609 10.4716 13 12.0001 13V11ZM11.2325 10.2323C11.2325 9.8084 11.5761 9.46472 12.0001 9.46472V7.46472C10.4716 7.46472 9.23246 8.70383 9.23246 10.2323H11.2325ZM12.0001 9.46472C12.424 9.46472 12.7677 9.8084 12.7677 10.2323H14.7677C14.7677 8.70383 13.5286 7.46472 12.0001 7.46472V9.46472ZM9.77717 15.8193C10.0896 14.7647 10.9951 14.0605 12.0001 14.0605V12.0605C10.019 12.0605 8.39692 13.4372 7.85955 15.2512L9.77717 15.8193ZM12.0001 14.0605C13.0051 14.0605 13.9106 14.7647 14.223 15.8193L16.1406 15.2512C15.6032 13.4372 13.9811 12.0605 12.0001 12.0605V14.0605Z" fill="#28293D"/>
</svg>
