<svg width="24" height="24" viewBox="0 0 24 24" fill="none" xmlns="http://www.w3.org/2000/svg">
<path d="M11 4.5C11 5.05228 11.4477 5.5 12 5.5C12.5523 5.5 13 5.05228 13 4.5L11 4.5ZM6 22L18 22L18 20L6 20L6 22ZM20 20L20 4L18 4L18 20L20 20ZM4 4L4 20L6 20L6 4L4 4ZM18 2L12 2L12 4L18 4L18 2ZM12 2L6 2L6 4L12 4L12 2ZM13 3L13 4.37114e-08L11 -4.37114e-08L11 3L13 3ZM11 3L11 4.5L13 4.5L13 3L11 3ZM20 4C20 2.89543 19.1046 2 18 2L18 4L18 4L20 4ZM18 22C19.1046 22 20 21.1046 20 20L18 20L18 20L18 22ZM6 20L4 20C4 21.1046 4.89543 22 6 22L6 20ZM6 4L6 2C4.89543 2 4 2.89543 4 4L6 4Z" fill="#28293D"/>
<path d="M13.2222 10.1991C13.2222 10.8515 12.6849 11.3982 12 11.3982V13.3982C13.7697 13.3982 15.2222 11.9758 15.2222 10.1991H13.2222ZM12 11.3982C11.3151 11.3982 10.7778 10.8515 10.7778 10.1991H8.77777C8.77777 11.9758 10.2303 13.3982 12 13.3982V11.3982ZM10.7778 10.1991C10.7778 9.54669 11.3151 9 12 9V7C10.2303 7 8.77777 8.42246 8.77777 10.1991H10.7778ZM12 9C12.6849 9 13.2222 9.54669 13.2222 10.1991H15.2222C15.2222 8.42246 13.7697 7 12 7V9ZM8.958 18.2868C9.37707 16.8868 10.6041 15.9212 12 15.9212V13.9212C9.64195 13.9212 7.69125 15.5444 7.042 17.7132L8.958 18.2868ZM12 15.9212C13.3959 15.9212 14.6229 16.8868 15.042 18.2868L16.958 17.7132C16.3088 15.5444 14.358 13.9212 12 13.9212V15.9212Z" fill="#28293D"/>
</svg>
