<svg width="24" height="24" viewBox="0 0 24 24" fill="none" xmlns="http://www.w3.org/2000/svg">
<path d="M12.9737 7.56959C13.4362 6.29158 13.634 4.83208 13.6345 3.5728C16.1515 4.92933 19.5 8.10656 19.5 13.75C19.5 17.7261 16.1705 21 12 21C7.82951 21 4.5 17.7261 4.5 13.75C4.5 11.7743 5.31815 9.97615 6.65574 8.6633C6.69403 8.86177 6.73988 9.04974 6.79381 9.22672C6.98431 9.85183 7.30603 10.4361 7.85159 10.8079L7.8516 10.8079C8.00496 10.9124 8.171 10.9682 8.32656 10.9885C9.54016 11.1473 10.5641 10.7837 11.3587 10.0944C12.1219 9.4325 12.634 8.50816 12.9737 7.56959Z" stroke="#555770" stroke-width="2"/>
<mask id="mask0_402_19673" style="mask-type:alpha" maskUnits="userSpaceOnUse" x="12" y="1" width="12" height="22">
<rect x="12" y="1" width="12" height="22" fill="black"/>
</mask>
<g mask="url(#mask0_402_19673)">
<path d="M12.9737 7.56959C13.4362 6.29158 13.634 4.83208 13.6345 3.5728C16.1515 4.92933 19.5 8.10656 19.5 13.75C19.5 17.7261 16.1705 21 12 21C7.82951 21 4.5 17.7261 4.5 13.75C4.5 11.7743 5.31815 9.97615 6.65574 8.6633C6.69403 8.86177 6.73988 9.04974 6.79381 9.22672C6.98431 9.85183 7.30603 10.4361 7.85159 10.8079L7.8516 10.8079C8.00496 10.9124 8.171 10.9682 8.32656 10.9885C9.54016 11.1473 10.5641 10.7837 11.3587 10.0944C12.1219 9.4325 12.634 8.50816 12.9737 7.56959Z" stroke="#3E7BFA" stroke-width="2"/>
</g>
</svg>
