<svg width="24" height="24" viewBox="0 0 24 24" fill="none" xmlns="http://www.w3.org/2000/svg">
<path d="M4 2C3.44772 2 3 2.44772 3 3C3 3.55228 3.44772 4 4 4V2ZM20 15V16H21V15H20ZM20 5H21V4H20V5ZM12 3L12.8944 2.55279L12.618 2H12V3ZM13 5L12.1056 5.44721L12.382 6H13V5ZM12 13L12.8944 12.5528L12.618 12H12V13ZM13 15L12.1056 15.4472L12.382 16H13V15ZM19 5V15H21V5H19ZM4 4H12V2H4V4ZM11.1056 3.44721L12.1056 5.44721L13.8944 4.55279L12.8944 2.55279L11.1056 3.44721ZM13 6H20V4H13V6ZM12 12H4V14H12V12ZM20 14H13V16H20V14ZM13.8944 14.5528L12.8944 12.5528L11.1056 13.4472L12.1056 15.4472L13.8944 14.5528Z" fill="#3E7BFA"/>
<path d="M5 3V2H3V3H5ZM5 23V13H3V23H5ZM5 13V3H3V13H5Z" fill="#555770"/>
</svg>
