<svg width="24" height="24" viewBox="0 0 24 24" fill="none" xmlns="http://www.w3.org/2000/svg">
<path d="M12 12.75C11.3096 12.75 10.75 12.1904 10.75 11.5C10.75 10.8096 11.3096 10.25 12 10.25C12.6904 10.25 13.25 10.8096 13.25 11.5C13.25 12.1904 12.6904 12.75 12 12.75Z" stroke="#3E7BFA" stroke-width="2.5"/>
<path d="M12 5.25C11.3096 5.25 10.75 4.69036 10.75 4C10.75 3.30964 11.3096 2.75 12 2.75C12.6904 2.75 13.25 3.30964 13.25 4C13.25 4.69036 12.6904 5.25 12 5.25ZM12 20.25C11.3096 20.25 10.75 19.6904 10.75 19C10.75 18.3096 11.3096 17.75 12 17.75C12.6904 17.75 13.25 18.3096 13.25 19C13.25 19.6904 12.6904 20.25 12 20.25Z" stroke="#555770" stroke-width="2.5"/>
</svg>
