<svg width="24" height="24" viewBox="0 0 24 24" fill="none" xmlns="http://www.w3.org/2000/svg">
<path d="M13 4C13 4.55228 12.5523 5 12 5C11.4477 5 11 4.55228 11 4C11 3.44772 11.4477 3 12 3C12.5523 3 13 3.44772 13 4ZM13 9.5C13 10.0523 12.5523 10.5 12 10.5C11.4477 10.5 11 10.0523 11 9.5C11 8.94772 11.4477 8.5 12 8.5C12.5523 8.5 13 8.94772 13 9.5ZM13 15C13 15.5523 12.5523 16 12 16C11.4477 16 11 15.5523 11 15C11 14.4477 11.4477 14 12 14C12.5523 14 13 14.4477 13 15ZM13 20.5C13 21.0523 12.5523 21.5 12 21.5C11.4477 21.5 11 21.0523 11 20.5C11 19.9477 11.4477 19.5 12 19.5C12.5523 19.5 13 19.9477 13 20.5Z" stroke="#3E7BFA" stroke-width="2"/>
<path d="M7 4C7 4.55228 6.55228 5 6 5C5.44772 5 5 4.55228 5 4C5 3.44772 5.44772 3 6 3C6.55228 3 7 3.44772 7 4ZM7 9.5C7 10.0523 6.55228 10.5 6 10.5C5.44772 10.5 5 10.0523 5 9.5C5 8.94772 5.44772 8.5 6 8.5C6.55228 8.5 7 8.94772 7 9.5ZM7 15C7 15.5523 6.55228 16 6 16C5.44772 16 5 15.5523 5 15C5 14.4477 5.44772 14 6 14C6.55228 14 7 14.4477 7 15ZM19 4C19 4.55228 18.5523 5 18 5C17.4477 5 17 4.55228 17 4C17 3.44772 17.4477 3 18 3C18.5523 3 19 3.44772 19 4ZM19 9.5C19 10.0523 18.5523 10.5 18 10.5C17.4477 10.5 17 10.0523 17 9.5C17 8.94772 17.4477 8.5 18 8.5C18.5523 8.5 19 8.94772 19 9.5ZM19 15C19 15.5523 18.5523 16 18 16C17.4477 16 17 15.5523 17 15C17 14.4477 17.4477 14 18 14C18.5523 14 19 14.4477 19 15Z" stroke="#555770" stroke-width="2"/>
</svg>
