<svg width="24" height="24" viewBox="0 0 24 24" fill="none" xmlns="http://www.w3.org/2000/svg">
<mask id="mask0_402_19372" style="mask-type:alpha" maskUnits="userSpaceOnUse" x="0" y="0" width="24" height="24">
<path d="M19.7839 19.7807L4 3.99675H0V24H24V0H5.69812V2.86644L21.1981 18.3664L19.7839 19.7807Z" fill="white"/>
</mask>
<g mask="url(#mask0_402_19372)">
<path d="M4 20V17.6642L17.25 4.41421L19.5858 6.75L20.2929 7.45711L19.5858 6.75L6.33579 20H4Z" stroke="#3E7BFA" stroke-width="2"/>
<mask id="mask1_402_19372" style="mask-type:alpha" maskUnits="userSpaceOnUse" x="2" y="4" width="20" height="18">
<path d="M19.7422 4.25879L2.50026 21.5007H19.4708L21.4464 19.5252L21.4464 5.96296L19.7422 4.25879Z" fill="black"/>
</mask>
<g mask="url(#mask1_402_19372)">
<path d="M4 20V17.6642L17.25 4.41421L19.5858 6.75L20.2929 7.45711L19.5858 6.75L6.33579 20H4Z" stroke="#3E7BFA" stroke-width="2"/>
</g>
<path d="M3.52441 4.94153L19.0244 20.4415" stroke="#555770" stroke-width="2"/>
</g>
</svg>
