<svg width="24" height="24" viewBox="0 0 24 24" fill="none" xmlns="http://www.w3.org/2000/svg">
<path d="M15 12C15 13.6569 13.6569 15 12 15C10.3431 15 9 13.6569 9 12C9 10.3431 10.3431 9 12 9C13.6569 9 15 10.3431 15 12Z" stroke="#3E7BFA" stroke-width="2"/>
<path d="M10.4437 3L9.97869 5.84894C9.1159 6.12971 8.33259 6.58533 7.67101 7.17374L4.98426 6.15199L3.42773 8.84796L5.64042 10.6571C5.54855 11.0903 5.50023 11.5396 5.50023 12C5.50023 12.4604 5.54855 12.9096 5.64041 13.3428L3.42773 15.152L4.98426 17.848L7.67487 16.8297C8.33564 17.4164 9.11758 17.8708 9.97869 18.1511L10.4437 21H13.5568L14.0218 18.1511C14.8846 17.8703 15.6679 17.4147 16.3295 16.8263L19.0162 17.848L20.5728 15.152L18.3601 13.3429C18.4519 12.9097 18.5003 12.4604 18.5003 12C18.5003 11.5396 18.4519 11.0904 18.3601 10.6572L20.5728 8.84801L19.0162 6.15204L16.3256 7.17031C15.6649 6.58356 14.8829 6.12917 14.0218 5.84894L13.5568 3H10.4437Z" stroke="#555770" stroke-width="2" stroke-linejoin="round"/>
</svg>
