<svg width="24" height="24" viewBox="0 0 24 24" fill="none" xmlns="http://www.w3.org/2000/svg">
<mask id="mask0_402_19317" style="mask-type:alpha" maskUnits="userSpaceOnUse" x="0" y="0" width="24" height="24">
<path d="M19.7839 19.7807L4 3.99675H0V24H24V0H5.69812V2.86644L21.1981 18.3664L19.7839 19.7807Z" fill="white"/>
</mask>
<g mask="url(#mask0_402_19317)">
<path d="M3.52441 4.94153L19.0244 20.4415" stroke="#555770" stroke-width="2"/>
<path d="M20.1818 12H23M12 20.1818V23M3.81818 12H1M12 3.81818V1" stroke="#3E7BFA" stroke-width="2"/>
<path d="M20.182 11.9999C20.182 16.5186 16.5189 20.1818 12.0002 20.1818C7.48148 20.1818 3.81836 16.5186 3.81836 11.9999C3.81836 7.48124 7.48148 3.81812 12.0002 3.81812C16.5189 3.81812 20.182 7.48124 20.182 11.9999Z" stroke="#555770" stroke-width="2"/>
</g>
</svg>
