<svg width="24" height="24" viewBox="0 0 24 24" fill="none" xmlns="http://www.w3.org/2000/svg">
<path d="M21.1665 11.5236L21.3997 11.5452L21.2238 11.6997C20.8663 12.0138 20.709 12.498 20.8136 12.9622L21.7891 12.7424L20.8136 12.9622L20.8651 13.1907L20.6637 13.0711C20.2546 12.8282 19.7454 12.8282 19.3363 13.0711L19.1349 13.1907L19.1864 12.9622C19.291 12.498 19.1337 12.0138 18.7762 11.6997L18.6003 11.5452L18.8335 11.5236C19.3073 11.4796 19.7192 11.1804 19.9074 10.7433L18.9889 10.3478L19.9074 10.7433L20 10.5283L20.0926 10.7433C20.2808 11.1804 20.6927 11.4796 21.1665 11.5236Z" stroke="#3E7BFA" stroke-width="2" stroke-linecap="round" stroke-linejoin="round"/>
<path d="M13.1665 11.5236L13.3997 11.5452L13.2238 11.6997C12.8663 12.0138 12.709 12.498 12.8136 12.9622L13.7891 12.7424L12.8136 12.9622L12.8651 13.1907L12.6637 13.0711C12.2546 12.8282 11.7454 12.8282 11.3363 13.0711L11.1349 13.1907L11.1864 12.9622C11.291 12.498 11.1337 12.0138 10.7762 11.6997L10.6003 11.5452L10.8335 11.5236C11.3073 11.4796 11.7192 11.1804 11.9074 10.7433L10.9889 10.3478L11.9074 10.7433L12 10.5283L12.0926 10.7433C12.2808 11.1804 12.6927 11.4796 13.1665 11.5236Z" stroke="#555770" stroke-width="2" stroke-linecap="round" stroke-linejoin="round"/>
<path d="M5.16655 11.5236L5.3997 11.5452L5.22379 11.6997C4.8663 12.0138 4.70896 12.498 4.81358 12.9622L5.78911 12.7424L4.81358 12.9622L4.86506 13.1907L4.66373 13.0711C4.25459 12.8282 3.74541 12.8282 3.33627 13.0711L3.13494 13.1907L3.18642 12.9622C3.29104 12.498 3.13369 12.0138 2.77621 11.6997L2.6003 11.5452L2.83345 11.5236C3.30725 11.4796 3.71918 11.1804 3.90739 10.7433L2.98893 10.3478L3.90739 10.7433L4 10.5283L4.09261 10.7433C4.28082 11.1804 4.69275 11.4796 5.16655 11.5236Z" stroke="#3E7BFA" stroke-width="2" stroke-linecap="round" stroke-linejoin="round"/>
</svg>
