<svg width="24" height="24" viewBox="0 0 24 24" fill="none" xmlns="http://www.w3.org/2000/svg">
<path d="M10.3636 2V1H9.95599L9.66452 1.28499L10.3636 2ZM9 3.33333L8.30088 2.61833L7.53399 3.36817L8.33564 4.08074L9 3.33333ZM13.6364 2L14.3355 1.28499L14.044 1H13.6364V2ZM15 3.33333L15.6644 4.08074L16.466 3.36817L15.6991 2.61833L15 3.33333ZM19 14C19 17.866 15.866 21 12 21V23C16.9706 23 21 18.9706 21 14H19ZM12 21C8.13401 21 5 17.866 5 14H3C3 18.9706 7.02944 23 12 23V21ZM5 14C5 10.134 8.13401 7 12 7V5C7.02944 5 3 9.02944 3 14H5ZM12 7C15.866 7 19 10.134 19 14H21C21 9.02944 16.9706 5 12 5V7ZM9.66452 1.28499L8.30088 2.61833L9.69912 4.04834L11.0628 2.71501L9.66452 1.28499ZM8.33564 4.08074L11.3356 6.74741L12.6644 5.25259L9.66436 2.58592L8.33564 4.08074ZM12.9372 2.71501L14.3009 4.04834L15.6991 2.61833L14.3355 1.28499L12.9372 2.71501ZM14.3356 2.58592L11.3356 5.25259L12.6644 6.74741L15.6644 4.08074L14.3356 2.58592ZM13.6364 1H10.3636V3H13.6364V1Z" fill="#555770"/>
</svg>
