<svg width="24" height="24" viewBox="0 0 24 24" fill="none" xmlns="http://www.w3.org/2000/svg">
<path d="M6.54545 4V3H6.08381L5.78437 3.35135L6.54545 4ZM2 9.33333L1.23891 8.68468L0.65903 9.36508L1.27046 10.0173L2 9.33333ZM12 20L11.2705 20.6839L12 21.4621L12.7295 20.6839L12 20ZM17.4545 4L18.2156 3.35135L17.9162 3H17.4545V4ZM22 9.33333L22.7295 10.0173L23.341 9.36508L22.7611 8.68468L22 9.33333ZM5.78437 3.35135L1.23891 8.68468L2.76109 9.98199L7.30654 4.64865L5.78437 3.35135ZM1.27046 10.0173L11.2705 20.6839L12.7295 19.3161L2.72954 8.64939L1.27046 10.0173ZM16.6935 4.64865L21.2389 9.98199L22.7611 8.68468L18.2156 3.35135L16.6935 4.64865ZM21.2705 8.64939L11.2705 19.3161L12.7295 20.6839L22.7295 10.0173L21.2705 8.64939ZM17.4545 3H12V5H17.4545V3ZM12 3H6.54545V5H12V3ZM2 10.3333H8V8.33333H2V10.3333ZM11.2 3.4L7.2 8.73333L8.8 9.93333L12.8 4.6L11.2 3.4ZM12.9363 19.6489L8.93633 8.98221L7.06367 9.68446L11.0637 20.3511L12.9363 19.6489ZM8 10.3333H16V8.33333H8V10.3333ZM16 10.3333H22V8.33333H16V10.3333ZM11.2 4.6L15.2 9.93333L16.8 8.73333L12.8 3.4L11.2 4.6ZM12.9363 20.3511L16.9363 9.68446L15.0637 8.98221L11.0637 19.6489L12.9363 20.3511Z" fill="#555770"/>
</svg>
