<svg width="24" height="24" viewBox="0 0 24 24" fill="none" xmlns="http://www.w3.org/2000/svg">
<path d="M4.22104 12.9299L4.97387 12.2717L4.97387 12.2717L4.22104 12.9299ZM12 20L11.3445 20.7552L12 21.3242L12.6555 20.7552L12 20ZM19.779 12.9299L19.0261 12.2717L19.0261 12.2717L19.779 12.9299ZM22 2L22.9487 2.31623L23.5811 0.418861L21.6838 1.05132L22 2ZM20.5 2.5L20.1838 1.55132L18.6488 2.06298L19.7929 3.20711L20.5 2.5ZM21.5 3.5L20.7929 4.20711L21.937 5.35123L22.4487 3.81623L21.5 3.5ZM3 20L2.29289 19.2929L0.585786 21H3V20ZM5 18V17H4.58579L4.29289 17.2929L5 18ZM6 19L6.70711 19.7071L7 19.4142V19H6ZM4 21H3V23.4142L4.70711 21.7071L4 21ZM7.74937 16.2506L8.41703 15.5062L7.74937 16.2506ZM18.5278 5.47223L18.0836 6.36819L18.0836 6.36819L18.5278 5.47223ZM4 9.41167C4 7.54605 5.54822 6 7.5 6V4C4.48122 4 2 6.40429 2 9.41167H4ZM7.5 6C9.45178 6 11 7.54605 11 9.41167H13C13 6.40429 10.5188 4 7.5 4V6ZM4.97387 12.2717C4.05629 11.2222 4 10.3112 4 9.41167H2C2 10.4985 2.07958 11.9999 3.4682 13.5881L4.97387 12.2717ZM16.5 4C13.4812 4 11 6.40429 11 9.41167H13C13 7.54605 14.5482 6 16.5 6V4ZM20.5318 13.5881C21.9204 11.9999 22 10.4985 22 9.41167H20C20 10.3112 19.9437 11.2222 19.0261 12.2717L20.5318 13.5881ZM19.0261 12.2717C18.5019 12.8712 16.6199 14.5858 14.7922 16.2126C13.8945 17.0116 13.0324 17.7698 12.3945 18.3285C12.0756 18.6077 11.8129 18.837 11.63 18.9964C11.5386 19.0761 11.4671 19.1383 11.4185 19.1805C11.3942 19.2016 11.3757 19.2177 11.3632 19.2286C11.357 19.234 11.3523 19.2381 11.3491 19.2408C11.3476 19.2421 11.3464 19.2432 11.3456 19.2438C11.3452 19.2442 11.3449 19.2444 11.3448 19.2446C11.3447 19.2447 11.3446 19.2447 11.3446 19.2448C11.3445 19.2448 11.3445 19.2448 12 20C12.6555 20.7552 12.6555 20.7552 12.6556 20.7551C12.6557 20.7551 12.6557 20.755 12.6558 20.7549C12.6561 20.7547 12.6564 20.7544 12.6568 20.7541C12.6576 20.7534 12.6589 20.7523 12.6605 20.7509C12.6637 20.7481 12.6685 20.7439 12.6749 20.7384C12.6876 20.7273 12.7064 20.711 12.7309 20.6897C12.7799 20.647 12.8519 20.5844 12.9439 20.5042C13.1279 20.3439 13.3918 20.1136 13.7121 19.8331C14.3526 19.2722 15.219 18.5102 16.1219 17.7065C17.8955 16.1279 19.9029 14.3074 20.5318 13.5881L19.0261 12.2717ZM21.6838 1.05132L20.1838 1.55132L20.8162 3.44868L22.3162 2.94868L21.6838 1.05132ZM19.7929 3.20711L20.2929 3.70711L21.7071 2.29289L21.2071 1.79289L19.7929 3.20711ZM20.2929 3.70711L20.7929 4.20711L22.2071 2.79289L21.7071 2.29289L20.2929 3.70711ZM22.4487 3.81623L22.9487 2.31623L21.0513 1.68377L20.5513 3.18377L22.4487 3.81623ZM3.29289 19.2929L2.29289 20.2929L3.70711 21.7071L4.70711 20.7071L3.29289 19.2929ZM4 19H3V21H4V19ZM3.70711 20.7071L5.70711 18.7071L4.29289 17.2929L2.29289 19.2929L3.70711 20.7071ZM21.2929 1.29289L20.2929 2.29289L21.7071 3.70711L22.7071 2.70711L21.2929 1.29289ZM5.29289 17.2929L3.29289 19.2929L4.70711 20.7071L6.70711 18.7071L5.29289 17.2929ZM5 19H6V17H5V19ZM5 18V19H7V18H5ZM5.29289 18.2929L3.29289 20.2929L4.70711 21.7071L6.70711 19.7071L5.29289 18.2929ZM5 21V20H3V21H5ZM7.04226 15.5435L5.29289 17.2929L6.70711 18.7071L8.45648 16.9577L7.04226 15.5435ZM3.4682 13.5881C4.01071 14.2086 5.55835 15.6289 7.08171 16.9951L8.41703 15.5062C6.84841 14.0994 5.41603 12.7774 4.97387 12.2717L3.4682 13.5881ZM7.08171 16.9951C8.12289 17.9289 9.18853 18.8688 9.99328 19.5748C10.3958 19.928 10.7334 20.2229 10.9704 20.4296C11.0889 20.5329 11.1823 20.6142 11.2462 20.6697C11.2781 20.6975 11.3026 20.7188 11.3192 20.7332C11.3275 20.7404 11.3338 20.7459 11.338 20.7496C11.3401 20.7514 11.3417 20.7528 11.3428 20.7537C11.3434 20.7542 11.3438 20.7546 11.3441 20.7548C11.3442 20.7549 11.3443 20.755 11.3444 20.7551C11.3444 20.7551 11.3444 20.7551 11.3445 20.7552C11.3445 20.7552 11.3445 20.7552 12 20C12.6555 19.2448 12.6555 19.2448 12.6555 19.2448C12.6555 19.2448 12.6555 19.2448 12.6554 19.2447C12.6554 19.2447 12.6553 19.2446 12.6552 19.2445C12.6549 19.2443 12.6545 19.244 12.654 19.2435C12.653 19.2426 12.6514 19.2413 12.6494 19.2395C12.6453 19.2359 12.6391 19.2306 12.6309 19.2235C12.6146 19.2093 12.5904 19.1882 12.5588 19.1607C12.4955 19.1057 12.4027 19.0249 12.2848 18.9221C12.0491 18.7166 11.713 18.423 11.3123 18.0714C10.5104 17.368 9.45075 16.4332 8.41703 15.5062L7.08171 16.9951ZM20.2929 2.29289L17.8207 4.76512L19.2349 6.17933L21.7071 3.70711L20.2929 2.29289ZM22 9.41167C22 7.28812 20.7587 5.46198 18.9719 4.57627L18.0836 6.36819C19.2302 6.93653 20 8.09255 20 9.41167H22ZM18.9719 4.57627C18.2271 4.20705 17.3864 4 16.5 4V6C17.0725 6 17.6098 6.13329 18.0836 6.36819L18.9719 4.57627Z" fill="#555770"/>
</svg>
