<svg width="24" height="24" viewBox="0 0 24 24" fill="none" xmlns="http://www.w3.org/2000/svg">
<path d="M2 8C2 7.44772 2.44772 7 3 7H21C21.5523 7 22 7.44772 22 8V20C22 20.5523 21.5523 21 21 21H3C2.44772 21 2 20.5523 2 20V8Z" stroke="#555770" stroke-width="2"/>
<path d="M9.40701 13.6433L10.1598 12.9851L10.1598 12.9851L9.40701 13.6433ZM12 16L11.3445 16.7552L12 17.3242L12.6555 16.7552L12 16ZM14.593 13.6433L13.8402 12.9851L13.8402 12.9851L14.593 13.6433ZM14.8283 13.303L13.9408 12.8422L13.9408 12.8422L14.8283 13.303ZM9.17169 13.303L10.0592 12.8422L9.17169 13.303ZM10.1852 14.3906L10.8591 13.6517L10.1852 14.3906ZM13.8148 14.3906L14.4886 15.1295L14.4886 15.1295L13.8148 14.3906ZM12 12.116L11.0304 12.3608C11.1425 12.8049 11.542 13.116 12 13.116C12.458 13.116 12.8575 12.8049 12.9696 12.3608L12 12.116ZM10 12.4706C10 12.2293 10.2051 12 10.5 12V10C9.13807 10 8 11.0875 8 12.4706H10ZM16 12.4706C16 11.0875 14.8619 10 13.5 10V12C13.7949 12 14 12.2293 14 12.4706H16ZM15.3458 14.3015C15.4974 14.1281 15.6198 13.9487 15.7158 13.7639L13.9408 12.8422C13.9222 12.8781 13.8919 12.9259 13.8402 12.9851L15.3458 14.3015ZM15.7158 13.7639C15.9897 13.2365 16 12.7542 16 12.4706H14C14 12.6739 13.9858 12.7555 13.9408 12.8422L15.7158 13.7639ZM15.4229 14.1071L22.5946 8.80406L21.4054 7.19594L14.2338 12.499L15.4229 14.1071ZM10.1598 12.9851C10.1081 12.9259 10.0778 12.8781 10.0592 12.8422L8.28421 13.7639C8.3802 13.9487 8.5026 14.1281 8.65418 14.3015L10.1598 12.9851ZM10.0592 12.8422C10.0142 12.7555 10 12.6739 10 12.4706H8C8 12.7542 8.01034 13.2365 8.28421 13.7639L10.0592 12.8422ZM1.40545 8.80406L8.57714 14.1071L9.76624 12.499L2.59455 7.19594L1.40545 8.80406ZM8.65418 14.3015C8.8204 14.4916 9.16962 14.8178 9.51139 15.1295L10.8591 13.6517C10.4885 13.3138 10.2353 13.0714 10.1598 12.9851L8.65418 14.3015ZM9.51139 15.1295C9.90624 15.4896 10.3651 15.8965 10.7232 16.2116C10.9027 16.3696 11.0578 16.5053 11.1681 16.6015C11.2232 16.6496 11.2672 16.6879 11.2974 16.7143C11.3125 16.7274 11.3242 16.7376 11.3322 16.7445C11.3362 16.748 11.3392 16.7506 11.3413 16.7524C11.3423 16.7533 11.3431 16.754 11.3436 16.7544C11.3439 16.7547 11.3441 16.7549 11.3443 16.755C11.3443 16.755 11.3444 16.7551 11.3444 16.7551C11.3444 16.7551 11.3445 16.7552 11.3445 16.7552C11.3445 16.7552 11.3445 16.7552 12 16C12.6555 15.2448 12.6555 15.2448 12.6555 15.2448C12.6555 15.2448 12.6555 15.2448 12.6555 15.2448C12.6555 15.2448 12.6554 15.2447 12.6554 15.2447C12.6553 15.2446 12.6551 15.2445 12.6549 15.2442C12.6544 15.2438 12.6537 15.2432 12.6527 15.2424C12.6508 15.2407 12.6479 15.2382 12.6441 15.2349C12.6365 15.2283 12.6251 15.2184 12.6103 15.2055C12.5808 15.1798 12.5376 15.1422 12.4833 15.0948C12.3746 14.9999 12.2216 14.866 12.0445 14.7102C11.6894 14.3977 11.2409 13.9999 10.8591 13.6517L9.51139 15.1295ZM13.8402 12.9851C13.7647 13.0714 13.5115 13.3138 13.1409 13.6517L14.4886 15.1295C14.8304 14.8178 15.1796 14.4916 15.3458 14.3015L13.8402 12.9851ZM13.1409 13.6517C12.7591 13.9999 12.3106 14.3977 11.9555 14.7102C11.7784 14.866 11.6254 14.9999 11.5167 15.0948C11.4624 15.1422 11.4192 15.1798 11.3897 15.2055C11.3749 15.2184 11.3635 15.2283 11.3559 15.2349C11.3521 15.2382 11.3492 15.2407 11.3473 15.2424C11.3463 15.2432 11.3456 15.2438 11.3451 15.2442C11.3449 15.2445 11.3447 15.2446 11.3446 15.2447C11.3446 15.2447 11.3445 15.2448 11.3445 15.2448C11.3445 15.2448 11.3445 15.2448 11.3445 15.2448C11.3445 15.2448 11.3445 15.2448 12 16C12.6555 16.7552 12.6555 16.7552 12.6555 16.7552C12.6555 16.7552 12.6556 16.7551 12.6556 16.7551C12.6556 16.7551 12.6557 16.755 12.6557 16.755C12.6559 16.7549 12.6561 16.7547 12.6564 16.7544C12.6569 16.754 12.6577 16.7533 12.6587 16.7524C12.6608 16.7506 12.6638 16.748 12.6678 16.7445C12.6758 16.7376 12.6875 16.7274 12.7026 16.7143C12.7328 16.6879 12.7768 16.6496 12.8319 16.6015C12.9422 16.5053 13.0973 16.3696 13.2768 16.2116C13.6349 15.8965 14.0938 15.4896 14.4886 15.1295L13.1409 13.6517ZM10.5 12C10.782 12 10.9894 12.1982 11.0304 12.3608L12.9696 11.8712C12.687 10.7521 11.6255 10 10.5 10V12ZM13.5 10C12.3745 10 11.313 10.7521 11.0304 11.8712L12.9696 12.3608C13.0106 12.1982 13.218 12 13.5 12V10Z" fill="#555770"/>
</svg>
