<svg width="24" height="24" viewBox="0 0 24 24" fill="none" xmlns="http://www.w3.org/2000/svg">
<circle cx="12" cy="12" r="9" stroke="#28293D" stroke-width="1.2"/>
<path d="M16.3024 15L16.7571 15.3915C16.9101 15.2137 16.9455 14.9631 16.8478 14.7499C16.75 14.5367 16.5369 14.4 16.3024 14.4V15ZM7.69751 15V14.4C7.46295 14.4 7.24989 14.5367 7.15212 14.7499C7.05435 14.9631 7.08978 15.2137 7.24283 15.3915L7.69751 15ZM15.8477 14.6085C14.7917 15.8349 13.7056 16.9 12 16.9V18.1C14.2944 18.1 15.6992 16.6201 16.7571 15.3915L15.8477 14.6085ZM12 16.9C10.2944 16.9 9.20817 15.8349 8.15219 14.6085L7.24283 15.3915C8.30072 16.6201 9.70561 18.1 12 18.1V16.9ZM16.3024 14.4H7.69751V15.6H16.3024V14.4Z" fill="#28293D"/>
<path d="M9 11.4C8.2268 11.4 7.6 10.7732 7.6 10C7.6 9.2268 8.2268 8.6 9 8.6C9.7732 8.6 10.4 9.2268 10.4 10C10.4 10.7732 9.7732 11.4 9 11.4ZM15 11.4C14.2268 11.4 13.6 10.7732 13.6 10C13.6 9.2268 14.2268 8.6 15 8.6C15.7732 8.6 16.4 9.2268 16.4 10C16.4 10.7732 15.7732 11.4 15 11.4Z" stroke="#28293D" stroke-width="1.2"/>
</svg>
