<svg width="24" height="24" viewBox="0 0 24 24" fill="none" xmlns="http://www.w3.org/2000/svg">
<path d="M16.4 7.25C16.4 8.56407 15.8857 10.1355 15.04 11.374C14.1847 12.6266 13.0929 13.4 12 13.4V14.6C13.6685 14.6 15.0767 13.4482 16.031 12.0507C16.995 10.639 17.6 8.83543 17.6 7.25H16.4ZM12 13.4C10.9071 13.4 9.81532 12.6266 8.95996 11.374C8.11428 10.1355 7.6 8.56407 7.6 7.25H6.4C6.4 8.83543 7.00501 10.639 7.96897 12.0507C8.92326 13.4482 10.3315 14.6 12 14.6V13.4ZM7.6 7.25C7.6 4.65395 9.5972 2.6 12 2.6V1.4C8.87996 1.4 6.4 4.04706 6.4 7.25H7.6ZM12 2.6C14.4028 2.6 16.4 4.65395 16.4 7.25H17.6C17.6 4.04706 15.12 1.4 12 1.4V2.6ZM11.5482 13.6052C11.1736 14.0339 10.7091 14.7413 10.5725 15.6623C10.4325 16.6051 10.647 17.7029 11.521 18.8614L12.479 18.1386C11.7831 17.2162 11.6704 16.4383 11.7595 15.8384C11.8517 15.2167 12.1723 14.7146 12.4518 14.3948L11.5482 13.6052ZM11.521 18.8614C12.8863 20.6709 12.0367 22.2103 11.6308 22.527L12.3692 23.473C13.2716 22.7686 14.2537 20.4909 12.479 18.1386L11.521 18.8614Z" fill="#555770"/>
</svg>
