<svg width="24" height="24" viewBox="0 0 24 24" fill="none" xmlns="http://www.w3.org/2000/svg">
<path d="M11 8.61805L11.4001 8.17097L11.4001 8.17097L11 8.61805ZM13 8.61805L12.5999 8.17097L12.5999 8.17097L13 8.61805ZM11.1 7.5C11.1 7.10907 11.3496 6.77489 11.6999 6.65106L11.3001 5.51965C10.4852 5.80765 9.9 6.58471 9.9 7.5H11.1ZM11.6999 6.65106C11.793 6.61816 11.8937 6.6 12 6.6V5.4C11.7556 5.4 11.5198 5.44199 11.3001 5.51965L11.6999 6.65106ZM12.1 6.08535V3.1H10.9V6.08535H12.1ZM12 8.4C11.7691 8.4 11.5598 8.31384 11.4001 8.17097L10.5999 9.06513C10.971 9.39731 11.4625 9.6 12 9.6V8.4ZM11.4001 8.17097C11.2151 8.00532 11.1 7.76649 11.1 7.5H9.9C9.9 8.12201 10.1712 8.68147 10.5999 9.06513L11.4001 8.17097ZM10.438 8.40805L5.43795 21.79L6.56205 22.21L11.562 8.82806L10.438 8.40805ZM12.1 3.1C12.1 3.37614 11.8761 3.6 11.6 3.6V2.4C11.2134 2.4 10.9 2.7134 10.9 3.1H12.1ZM14.1 7.5C14.1 6.58471 13.5148 5.80765 12.6999 5.51965L12.3001 6.65106C12.6504 6.77489 12.9 7.10907 12.9 7.5H14.1ZM12.6999 5.51965C12.4802 5.44199 12.2444 5.4 12 5.4V6.6C12.1063 6.6 12.207 6.61816 12.3001 6.65106L12.6999 5.51965ZM13.1 6.08535V3.1H11.9V6.08535H13.1ZM12 9.6C12.5375 9.6 13.029 9.39731 13.4001 9.06513L12.5999 8.17097C12.4402 8.31384 12.2309 8.4 12 8.4V9.6ZM13.4001 9.06513C13.8288 8.68147 14.1 8.12201 14.1 7.5H12.9C12.9 7.76649 12.7849 8.00532 12.5999 8.17097L13.4001 9.06513ZM12.438 8.82806L17.438 22.21L18.562 21.79L13.562 8.40805L12.438 8.82806ZM13.1 3.1C13.1 2.7134 12.7866 2.4 12.4 2.4V3.6C12.1239 3.6 11.9 3.37614 11.9 3.1H13.1ZM11.6 3.6H12.4V2.4H11.6V3.6ZM16.5715 11.479C15.4091 12.6652 13.7909 13.4 12 13.4V14.6C14.1265 14.6 16.0498 13.7259 17.4285 12.3189L16.5715 11.479ZM12 13.4C10.2091 13.4 8.59086 12.6652 7.42854 11.479L6.57146 12.3189C7.95018 13.7259 9.87355 14.6 12 14.6V13.4Z" fill="#555770"/>
</svg>
