<svg width="24" height="24" viewBox="0 0 24 24" fill="none" xmlns="http://www.w3.org/2000/svg">
<path d="M17.4 15C17.4 17.9823 14.9823 20.4 12 20.4V21.6C15.6451 21.6 18.6 18.6451 18.6 15H17.4ZM12 20.4C9.01766 20.4 6.6 17.9823 6.6 15H5.4C5.4 18.6451 8.35492 21.6 12 21.6V20.4ZM6.6 15C6.6 13.4087 6.96415 10.8657 7.86489 8.7416C8.77922 6.58545 10.1313 5.1 12 5.1V3.9C9.36872 3.9 7.72078 6.00769 6.76011 8.27312C5.78585 10.5706 5.4 13.2776 5.4 15H6.6ZM12 5.1C13.8687 5.1 15.2208 6.58545 16.1351 8.7416C17.0358 10.8657 17.4 13.4087 17.4 15H18.6C18.6 13.2776 18.2142 10.5706 17.2399 8.27312C16.2792 6.00769 14.6313 3.9 12 3.9V5.1Z" fill="#555770"/>
</svg>
