<svg width="24" height="24" viewBox="0 0 24 24" fill="none" xmlns="http://www.w3.org/2000/svg">
<path d="M4.50005 11L3.94297 10.7772L4.50005 11ZM15.8416 6.99332C16.114 6.8047 16.182 6.43092 15.9934 6.15847C15.8047 5.88602 15.431 5.81807 15.1585 6.00668L15.8416 6.99332ZM1.94291 22.7772C1.81985 23.0848 1.9695 23.434 2.27717 23.5571C2.58484 23.6802 2.93402 23.5305 3.05709 23.2228L1.94291 22.7772ZM20.7821 2.04725L20.9106 2.63333L20.9106 2.63333L20.7821 2.04725ZM20.8909 2.19316L20.3672 1.90034L20.8909 2.19316ZM20.6536 1.46116C17.1437 2.23062 13.4331 3.45654 10.3801 5.01942C7.36073 6.56509 4.8508 8.50759 3.94297 10.7772L5.05714 11.2228C5.793 9.38318 7.95213 7.61044 10.9269 6.08759C13.868 4.58197 17.4766 3.38613 20.9106 2.63333L20.6536 1.46116ZM3.94297 10.7772C3.40663 12.118 3.2218 13.5922 3.36445 14.8786C3.50441 16.1407 3.97732 17.347 4.89193 17.9907L5.58256 17.0093C5.07623 16.653 4.68055 15.8593 4.55714 14.7464C4.43643 13.6578 4.59347 12.382 5.05714 11.2228L3.94297 10.7772ZM4.89193 17.9907C5.70609 18.5636 6.89581 19.0176 8.38076 18.8197C9.86047 18.6225 11.5606 17.788 13.4243 15.9243L12.5758 15.0757C10.8395 16.812 9.3687 17.4775 8.22224 17.6303C7.08101 17.7824 6.18933 17.4364 5.58256 17.0093L4.89193 17.9907ZM13.4243 15.9243C15.2586 14.0899 16.7709 11.5805 18.0603 9.12689C18.707 7.89623 19.3044 6.66604 19.8594 5.53152C20.417 4.39185 20.9294 3.35371 21.4146 2.48598L20.3672 1.90034C19.8633 2.80158 19.3366 3.86944 18.7815 5.00418C18.2238 6.14408 17.6349 7.35671 16.998 8.56868C15.7202 11.0003 14.2762 13.3753 12.5758 15.0757L13.4243 15.9243ZM5.23724 17.5C5.75651 17.8006 5.75646 17.8007 5.75642 17.8008C5.75643 17.8007 5.75641 17.8008 5.75642 17.8008C5.75645 17.8007 5.75653 17.8006 5.75667 17.8003C5.75695 17.7998 5.75746 17.799 5.7582 17.7977C5.75967 17.7952 5.76206 17.7911 5.76535 17.7855C5.77193 17.7743 5.78214 17.7571 5.79594 17.734C5.82355 17.6879 5.86553 17.6185 5.92164 17.528C6.03385 17.3469 6.2025 17.0812 6.42557 16.7475C6.87182 16.0799 7.53514 15.141 8.39933 14.0627C10.1301 11.9032 12.6546 9.19968 15.8416 6.99332L15.1585 6.00668C11.8455 8.30032 9.2386 11.0968 7.46296 13.3123C6.57395 14.4215 5.89032 15.3889 5.42792 16.0806C5.19666 16.4266 5.02056 16.7039 4.90161 16.8959C4.84213 16.9919 4.79692 17.0665 4.76623 17.1178C4.75089 17.1434 4.73918 17.1632 4.73112 17.1769C4.7271 17.1838 4.72399 17.1891 4.72179 17.1928C4.7207 17.1947 4.71983 17.1962 4.71919 17.1973C4.71888 17.1978 4.71862 17.1983 4.71841 17.1986C4.71831 17.1988 4.7182 17.199 4.71815 17.1991C4.71806 17.1993 4.71798 17.1994 5.23724 17.5ZM4.72699 17.1843C3.46936 19.2173 2.95422 20.2489 1.94291 22.7772L3.05709 23.2228C4.04578 20.7511 4.53064 19.7827 5.7475 17.8157L4.72699 17.1843ZM20.9106 2.63333C20.4952 2.72438 20.1541 2.28153 20.3672 1.90034L21.4146 2.48598C21.7121 1.95387 21.2378 1.33309 20.6536 1.46116L20.9106 2.63333Z" fill="#555770"/>
</svg>
