<svg width="24" height="24" viewBox="0 0 24 24" fill="none" xmlns="http://www.w3.org/2000/svg">
<g clip-path="url(#clip0_402_12184)">
<path d="M15.182 19.2175C12.6764 21.7232 8.7437 21.9322 6 19.8445C5.75035 19.6545 5.51054 19.4455 5.28254 19.2175C5.05453 18.9895 4.84554 18.7497 4.65556 18.5C2.56789 15.7563 2.77688 11.8237 5.28254 9.31804C8.01621 6.58437 18.7176 5.78251 18.7176 5.78251C18.7176 5.78251 17.9157 16.4839 15.182 19.2175Z" stroke="#555770" stroke-width="1.2"/>
<path d="M4.65551 18.5C4.84548 18.7497 5.05448 18.9895 5.28249 19.2175C5.51048 19.4455 5.75029 19.6545 5.99994 19.8445C7.4999 17 10.4999 13.5 14.4999 9.50003C9.2999 12.474 6.5 16 4.65551 18.5Z" fill="#555770"/>
</g>
<defs>
<clipPath id="clip0_402_12184">
<rect width="24" height="24" fill="white"/>
</clipPath>
</defs>
</svg>
