<svg width="24" height="24" viewBox="0 0 24 24" fill="none" xmlns="http://www.w3.org/2000/svg">
<path d="M7.39074 3L7.74932 2.51894C7.55719 2.37573 7.29827 2.36057 7.09074 2.48038C6.88321 2.6002 6.76687 2.83202 6.79484 3.07001L7.39074 3ZM10.1312 5.04273L9.77257 5.52378C9.94865 5.65504 10.1824 5.6796 10.3819 5.58783L10.1312 5.04273ZM13.2364 3.6144L13.8047 3.80678C13.8815 3.5798 13.816 3.32886 13.6379 3.16852C13.4598 3.00817 13.2034 2.96916 12.9857 3.0693L13.2364 3.6144ZM12.1405 6.85193L11.5722 6.65955C11.5017 6.86757 11.5506 7.09744 11.6995 7.25883L12.1405 6.85193ZM14.4585 9.36381L14.4511 9.96377C14.6907 9.9667 14.9091 9.82677 15.0066 9.60785C15.1041 9.38893 15.0619 9.13301 14.8994 8.95691L14.4585 9.36381ZM11.0407 9.32199L11.0481 8.72203C10.8285 8.71934 10.625 8.83685 10.5175 9.02837L11.0407 9.32199ZM9.3681 12.3027L8.79524 12.4811C8.86649 12.7099 9.06706 12.8744 9.30538 12.8994C9.5437 12.9245 9.77407 12.8053 9.89134 12.5964L9.3681 12.3027ZM8.35174 9.03936L8.9246 8.86095C8.85929 8.65127 8.68465 8.49402 8.46929 8.45099L8.35174 9.03936ZM5 8.36969L4.6533 7.88C4.45772 8.01847 4.36329 8.26003 4.41311 8.49443C4.46293 8.72883 4.64745 8.91111 4.88244 8.95806L5 8.36969ZM7.78958 6.39463L8.13629 6.88432C8.31553 6.75742 8.41111 6.54273 8.38548 6.32462L7.78958 6.39463ZM7.03215 3.48106L9.77257 5.52378L10.4897 4.56167L7.74932 2.51894L7.03215 3.48106ZM10.3819 5.58783L13.4871 4.1595L12.9857 3.0693L9.88042 4.49763L10.3819 5.58783ZM12.6681 3.42202L11.5722 6.65955L12.7088 7.04431L13.8047 3.80678L12.6681 3.42202ZM11.6995 7.25883L14.0175 9.77071L14.8994 8.95691L12.5814 6.44503L11.6995 7.25883ZM14.4658 8.76385L11.0481 8.72203L11.0334 9.92194L14.4511 9.96377L14.4658 8.76385ZM10.5175 9.02837L8.84485 12.0091L9.89134 12.5964L11.564 9.6156L10.5175 9.02837ZM9.94096 12.1243L8.9246 8.86095L7.77888 9.21777L8.79524 12.4811L9.94096 12.1243ZM8.46929 8.45099L5.11756 7.78131L4.88244 8.95806L8.23418 9.62773L8.46929 8.45099ZM5.3467 8.85937L8.13629 6.88432L7.44288 5.90494L4.6533 7.88L5.3467 8.85937ZM8.38548 6.32462L7.98664 2.92999L6.79484 3.07001L7.19368 6.46465L8.38548 6.32462ZM10.5211 9.62199L17.3711 21.4865L18.4104 20.8865L11.5604 9.02199L10.5211 9.62199Z" fill="#555770"/>
</svg>
