<svg width="24" height="24" viewBox="0 0 24 24" fill="none" xmlns="http://www.w3.org/2000/svg">
<path d="M2 17L1.57574 16.5757L1.15147 17L1.57574 17.4243L2 17ZM17 2L17.4243 1.57574L17 1.15147L16.5757 1.57574L17 2ZM22 7L22.4243 7.42426L22.8485 7L22.4243 6.57573L22 7ZM7 22L6.57574 22.4243L7 22.8485L7.42426 22.4243L7 22ZM9.14286 19.8571L9.56712 20.2814L9.56712 20.2814L9.14286 19.8571ZM2.42426 17.4243L17.4243 2.42426L16.5757 1.57574L1.57574 16.5757L2.42426 17.4243ZM16.5757 2.42426L21.5757 7.42426L22.4243 6.57573L17.4243 1.57574L16.5757 2.42426ZM7.42426 21.5757L2.42426 16.5757L1.57574 17.4243L6.57574 22.4243L7.42426 21.5757ZM8.71859 19.4329L6.57574 21.5757L7.42426 22.4243L9.56712 20.2814L8.71859 19.4329ZM9.56712 19.4329L6.70998 16.5757L5.86145 17.4243L8.71859 20.2814L9.56712 19.4329ZM10.8615 17.29L8.71859 19.4329L9.56712 20.2814L11.71 18.1385L10.8615 17.29ZM11.71 17.29L9.92426 15.5043L9.07574 16.3528L10.8615 18.1385L11.71 17.29ZM13.0043 15.1472L10.8615 17.29L11.71 18.1385L13.8528 15.9957L13.0043 15.1472ZM13.8528 15.1472L10.9957 12.29L10.1472 13.1385L13.0043 15.9957L13.8528 15.1472ZM15.1472 13.0043L13.0043 15.1472L13.8528 15.9957L15.9957 13.8528L15.1472 13.0043ZM15.9957 13.0043L14.21 11.2186L13.3614 12.0671L15.1472 13.8528L15.9957 13.0043ZM17.29 10.8614L15.1472 13.0043L15.9957 13.8528L18.1385 11.71L17.29 10.8614ZM18.1385 10.8614L15.2814 8.00431L14.4329 8.85284L17.29 11.71L18.1385 10.8614ZM21.5757 6.57573L19.4329 8.71859L20.2814 9.56712L22.4243 7.42426L21.5757 6.57573ZM19.4329 8.71859L17.29 10.8614L18.1385 11.71L20.2814 9.56712L19.4329 8.71859ZM20.2814 8.71859L18.4957 6.93288L17.6472 7.78141L19.4329 9.56712L20.2814 8.71859Z" fill="#555770"/>
</svg>
