<svg width="24" height="24" viewBox="0 0 24 24" fill="none" xmlns="http://www.w3.org/2000/svg">
<path d="M5 15.917L4.90073 15.3253L4.4 15.4093V15.917H5ZM5 19H4.4V19.6H5V19ZM5.5 19.5H4.9V20.1H5.5V19.5ZM19 15.917H19.6V15.4093L19.0993 15.3253L19 15.917ZM19 19V19.6H19.6V19H19ZM18.5 19.5V20.1H19.1V19.5H18.5ZM9.87485 7.11654C9.85979 7.08794 9.84528 7.059 9.83136 7.02974L8.7478 7.54539C8.76872 7.58936 8.79051 7.63283 8.81314 7.67579L9.87485 7.11654ZM9.83136 7.02974C9.68321 6.71842 9.6 6.36977 9.6 6H8.4C8.4 6.55191 8.52461 7.0764 8.7478 7.54539L9.83136 7.02974ZM9.6 6C9.6 4.67452 10.6745 3.6 12 3.6V2.4C10.0118 2.4 8.4 4.01177 8.4 6H9.6ZM8.75518 7.56037C8.77222 7.59374 8.78901 7.62724 8.80554 7.66087L9.88244 7.13145C9.8632 7.09232 9.84371 7.05342 9.82397 7.01476L8.75518 7.56037ZM8.80554 7.66088C9.16521 8.39246 9.4 9.17788 9.4 10H10.6C10.6 8.9468 10.2991 7.97904 9.88244 7.13145L8.80554 7.66088ZM9.4 10C9.4 12.6751 7.45421 14.8969 4.90073 15.3253L5.09927 16.5088C8.22121 15.985 10.6 13.2709 10.6 10H9.4ZM4.4 15.917V19H5.6V15.917H4.4ZM5 19.6H5.5V18.4H5V19.6ZM4.9 19V19.5H6.1V19H4.9ZM15.1869 7.67579C15.2095 7.63284 15.2313 7.58936 15.2522 7.54539L14.1686 7.02974C14.1547 7.05899 14.1402 7.08793 14.1251 7.11654L15.1869 7.67579ZM15.2522 7.54539C15.4754 7.0764 15.6 6.55191 15.6 6H14.4C14.4 6.36977 14.3168 6.71842 14.1686 7.02974L15.2522 7.54539ZM15.6 6C15.6 4.01177 13.9882 2.4 12 2.4V3.6C13.3255 3.6 14.4 4.67452 14.4 6H15.6ZM14.176 7.01476C14.1563 7.05341 14.1368 7.09231 14.1176 7.13145L15.1945 7.66087C15.211 7.62724 15.2278 7.59374 15.2448 7.56037L14.176 7.01476ZM14.1176 7.13145C13.7009 7.97904 13.4 8.9468 13.4 10H14.6C14.6 9.17788 14.8348 8.39246 15.1945 7.66088L14.1176 7.13145ZM13.4 10C13.4 13.2709 15.7788 15.985 18.9007 16.5088L19.0993 15.3253C16.5458 14.8969 14.6 12.6751 14.6 10H13.4ZM18.4 15.917V19H19.6V15.917H18.4ZM19 18.4H18.5V19.6H19V18.4ZM17.9 19V19.5H19.1V19H17.9ZM5.5 19.6H18.5V18.4H5.5V19.6ZM5.5 20.1H18.5V18.9H5.5V20.1Z" fill="#555770"/>
</svg>
