<svg width="24" height="24" viewBox="0 0 24 24" fill="none" xmlns="http://www.w3.org/2000/svg">
<path d="M5.16808 3.97288L4.65016 3.66996L4.65016 3.66996L5.16808 3.97288ZM4.509 5.09974L3.99108 4.79682L3.99108 4.79682L4.509 5.09974ZM5.92603 13.8637L6.49218 14.0623L6.49218 14.0623L5.92603 13.8637ZM5.82582 14.1492L5.25967 13.9505L5.25967 13.9505L5.82582 14.1492ZM5.93234 17.5922L6.48531 17.3594L6.48531 17.3594L5.93234 17.5922ZM7.10461 20.376L7.65758 20.1431L7.65758 20.1431L7.10461 20.376ZM7.82068 20.9696L7.9593 20.3859L7.9593 20.3859L7.82068 20.9696ZM5.00072 9.49507L4.55942 9.90159L4.55942 9.90159L5.00072 9.49507ZM18.8319 3.97288L19.3498 3.66996L19.3498 3.66996L18.8319 3.97288ZM19.491 5.09974L18.9731 5.40266L18.9731 5.40266L19.491 5.09974ZM18.074 13.8637L17.5078 14.0623L17.5078 14.0623L18.074 13.8637ZM18.1742 14.1492L18.7403 13.9505L18.7403 13.9505L18.1742 14.1492ZM18.0677 17.5922L17.5147 17.3594L17.5147 17.3594L18.0677 17.5922ZM16.8954 20.376L17.4484 20.6088L17.4484 20.6088L16.8954 20.376ZM16.1793 20.9696L16.0407 20.3859L16.0407 20.3859L16.1793 20.9696ZM18.9993 9.49507L19.4406 9.90159L19.4406 9.90159L18.9993 9.49507ZM14.8839 19.9455L14.2854 19.9035L14.8839 19.9455ZM14.8938 19.7162L14.2945 19.7456L14.8938 19.7162ZM9.10625 19.7162L9.70553 19.7456L9.10625 19.7162ZM4.65016 3.66996L3.99108 4.79682L5.02692 5.40266L5.686 4.27581L4.65016 3.66996ZM5.35988 13.665L5.25967 13.9505L6.39197 14.3479L6.49218 14.0623L5.35988 13.665ZM5.37937 17.8251L6.55164 20.6088L7.65758 20.1431L6.48531 17.3594L5.37937 17.8251ZM7.68206 21.5534C8.73401 21.8032 9.79174 21.0024 9.71462 19.9035L8.51757 19.9875C8.53272 20.2034 8.2984 20.4664 7.9593 20.3859L7.68206 21.5534ZM6.55164 20.6088C6.75399 21.0893 7.17997 21.4342 7.68206 21.5534L7.9593 20.3859C7.81106 20.3507 7.70418 20.2538 7.65758 20.1431L6.55164 20.6088ZM5.25967 13.9505C4.81598 15.2149 4.85866 16.5886 5.37937 17.8251L6.48531 17.3594C6.07992 16.3967 6.04711 15.3306 6.39197 14.3479L5.25967 13.9505ZM4.55942 9.90159C5.5152 10.9391 5.81435 12.3699 5.35988 13.665L6.49218 14.0623C7.0968 12.3394 6.69166 10.4451 5.44201 9.08856L4.55942 9.90159ZM3.99108 4.79682C3.0273 6.44465 3.25962 8.49059 4.55942 9.90159L5.44201 9.08856C4.49438 8.05985 4.33324 6.58869 5.02692 5.40266L3.99108 4.79682ZM6.90879 2.4C5.98283 2.4 5.11411 2.87672 4.65016 3.66996L5.686 4.27581C5.92446 3.8681 6.3884 3.6 6.90879 3.6V2.4ZM18.314 4.27581L18.9731 5.40266L20.0089 4.79682L19.3498 3.66996L18.314 4.27581ZM17.5078 14.0623L17.608 14.3479L18.7403 13.9505L18.6401 13.665L17.5078 14.0623ZM17.5147 17.3594L16.3424 20.1431L17.4484 20.6088L18.6206 17.8251L17.5147 17.3594ZM16.0407 20.3859C15.7016 20.4664 15.4673 20.2034 15.4824 19.9875L14.2854 19.9035C14.2083 21.0024 15.266 21.8032 16.3179 21.5534L16.0407 20.3859ZM16.3424 20.1431C16.2958 20.2538 16.1889 20.3507 16.0407 20.3859L16.3179 21.5534C16.82 21.4342 17.246 21.0893 17.4484 20.6088L16.3424 20.1431ZM17.608 14.3479C17.9529 15.3306 17.9201 16.3967 17.5147 17.3594L18.6206 17.8251C19.1413 16.5886 19.184 15.2149 18.7403 13.9505L17.608 14.3479ZM18.558 9.08856C17.3083 10.4451 16.9032 12.3394 17.5078 14.0623L18.6401 13.665C18.1856 12.3699 18.4848 10.9391 19.4406 9.90159L18.558 9.08856ZM18.9731 5.40266C19.6668 6.58869 19.5056 8.05985 18.558 9.08856L19.4406 9.90159C20.7404 8.49059 20.9727 6.44465 20.0089 4.79682L18.9731 5.40266ZM17.0912 3.6C17.6116 3.6 18.0755 3.8681 18.314 4.27581L19.3498 3.66996C18.8859 2.87672 18.0172 2.4 17.0912 2.4V3.6ZM17.0912 2.4H6.90879V3.6H17.0912V2.4ZM9.70553 19.7456C9.76151 18.6054 9.9667 16.9618 10.3973 15.6217C10.6135 14.9487 10.8735 14.3945 11.1688 14.02C11.4595 13.6513 11.7335 13.5148 12 13.5148V12.3148C11.2397 12.3148 10.6529 12.736 10.2264 13.277C9.80454 13.8122 9.49096 14.5197 9.25483 15.2546C8.78071 16.7302 8.56587 18.4873 8.50697 19.6868L9.70553 19.7456ZM12 13.5148C12.2665 13.5148 12.5405 13.6513 12.8312 14.02C13.1265 14.3945 13.3865 14.9487 13.6027 15.6217C14.0333 16.9618 14.2385 18.6054 14.2945 19.7456L15.493 19.6868C15.4341 18.4873 15.2193 16.7302 14.7452 15.2546C14.509 14.5197 14.1955 13.8122 13.7736 13.277C13.3471 12.736 12.7603 12.3148 12 12.3148V13.5148ZM15.4824 19.9875C15.4856 19.9418 15.4991 19.8106 15.493 19.6868L14.2945 19.7456C14.296 19.7757 14.293 19.7955 14.2854 19.9035L15.4824 19.9875ZM9.71462 19.9035C9.70704 19.7955 9.70405 19.7757 9.70553 19.7456L8.50697 19.6868C8.50089 19.8106 8.51436 19.9418 8.51757 19.9875L9.71462 19.9035Z" fill="#555770"/>
</svg>
