<svg width="24" height="24" viewBox="0 0 24 24" fill="none" xmlns="http://www.w3.org/2000/svg">
<path d="M14.5 10.5H15.1V9.9H14.5V10.5ZM12.5 10.5V9.9H12.2515L12.0757 10.0757L12.5 10.5ZM10 13L9.57574 12.5757L9.15147 13L9.57574 13.4243L10 13ZM12 15L11.5757 15.4243L12 15.8485L12.4243 15.4243L12 15ZM14.5 12.5L14.9243 12.9243L15.1 12.7485V12.5H14.5ZM20.4 10V18H21.6V10H20.4ZM3.6 18V10H2.4V18H3.6ZM17 8.6H19V7.4H17V8.6ZM19 19.4H17V20.6H19V19.4ZM16.4 8V20H17.6V8H16.4ZM5 8.6H7V7.4H5V8.6ZM17 19.4H7V20.6H17V19.4ZM7 19.4H5V20.6H7V19.4ZM6.4 8V20H7.6V8H6.4ZM7 8.6H9V7.4H7V8.6ZM9.6 8V7H8.4V8H9.6ZM11 5.6H13V4.4H11V5.6ZM9 8.6H15V7.4H9V8.6ZM15 8.6H17V7.4H15V8.6ZM14.4 7V8H15.6V7H14.4ZM14.5 9.9H12.5V11.1H14.5V9.9ZM12.0757 10.0757L9.57574 12.5757L10.4243 13.4243L12.9243 10.9243L12.0757 10.0757ZM9.57574 13.4243L11.5757 15.4243L12.4243 14.5757L10.4243 12.5757L9.57574 13.4243ZM12.4243 15.4243L14.9243 12.9243L14.0757 12.0757L11.5757 14.5757L12.4243 15.4243ZM15.1 12.5V10.5H13.9V12.5H15.1ZM13 5.6C13.7732 5.6 14.4 6.2268 14.4 7H15.6C15.6 5.56406 14.4359 4.4 13 4.4V5.6ZM9.6 7C9.6 6.2268 10.2268 5.6 11 5.6V4.4C9.56406 4.4 8.4 5.56406 8.4 7H9.6ZM2.4 18C2.4 19.4359 3.56406 20.6 5 20.6V19.4C4.2268 19.4 3.6 18.7732 3.6 18H2.4ZM20.4 18C20.4 18.7732 19.7732 19.4 19 19.4V20.6C20.4359 20.6 21.6 19.4359 21.6 18H20.4ZM21.6 10C21.6 8.56406 20.4359 7.4 19 7.4V8.6C19.7732 8.6 20.4 9.2268 20.4 10H21.6ZM3.6 10C3.6 9.2268 4.2268 8.6 5 8.6V7.4C3.56406 7.4 2.4 8.56406 2.4 10H3.6Z" fill="#555770"/>
</svg>
