<svg width="24" height="24" viewBox="0 0 24 24" fill="none" xmlns="http://www.w3.org/2000/svg">
<path d="M18.5992 5.88025C16.4523 7.07584 15 9.36835 15 12.0001C15 14.6318 16.4523 16.9243 18.5992 18.1199M5.40088 5.88025C7.54774 7.07584 9.00002 9.36835 9.00002 12.0001C9.00002 14.6318 7.54774 16.9243 5.40088 18.1199" stroke="#3E7BFA" stroke-width="2"/>
<path d="M18.5991 5.8802C16.9555 4.10863 14.6072 3 12 3C9.39279 3 7.04451 4.10863 5.40085 5.8802C3.91094 7.48606 3 9.63665 3 12C3 14.3633 3.91094 16.5139 5.40085 18.1198C7.04451 19.8914 9.39279 21 12 21C14.6072 21 16.9555 19.8914 18.5991 18.1198C20.0891 16.5139 21 14.3633 21 12C21 9.63665 20.0891 7.48606 18.5991 5.8802Z" stroke="#555770" stroke-width="2"/>
</svg>
