<svg width="24" height="24" viewBox="0 0 24 24" fill="none" xmlns="http://www.w3.org/2000/svg">
<path d="M8.09863 15H8.13056M8.13056 15H15.8694C15.8906 15.2485 15.9014 15.4982 15.9014 15.7486C15.9014 16.5097 15.808 17.2679 15.6059 18H8.39411C8.19198 17.2679 8.09863 16.5097 8.09863 15.7486C8.09863 15.4982 8.10938 15.2485 8.13056 15Z" stroke="#3E7BFA" stroke-width="2"/>
<path d="M11.9999 2C10.343 2 8.99986 3.34315 8.99986 5C8.99986 5.54643 9.14595 6.05874 9.4012 6.5C10.2858 8.11016 9.62843 10.174 8.75354 12.3785C8.32746 13.4521 8.09863 14.5935 8.09863 15.7486C8.09863 16.5097 8.19198 17.2679 8.39411 18C8.42614 18.116 8.46091 18.2314 8.49848 18.3461C8.71588 19.0096 8.99205 19.8116 9.24847 20.4365C9.39228 20.7869 9.73938 21 10.1182 21H13.8818C14.2606 21 14.6077 20.7869 14.7515 20.4365C15.0079 19.8116 15.2841 19.0096 15.5015 18.3461C15.5391 18.2314 15.5739 18.116 15.6059 18C15.808 17.2679 15.9014 16.5097 15.9014 15.7486C15.9014 15.4982 15.8906 15.2485 15.8694 15C15.7929 14.1019 15.5802 13.2194 15.2465 12.3785C14.3716 10.174 13.7142 8.11016 14.5988 6.5C14.8541 6.05874 15.0001 5.54643 15.0001 5C15.0001 3.34315 13.6567 2 11.9999 2Z" stroke="#555770" stroke-width="2"/>
</svg>
