<svg width="24" height="24" viewBox="0 0 24 24" fill="none" xmlns="http://www.w3.org/2000/svg">
<g clip-path="url(#clip0_402_17364)">
<path d="M16.3793 18.415C17.8139 15.9304 17.0894 12.7917 14.788 11.1713M10.0049 1.45569C8.34803 4.32544 9.33128 7.99499 12.201 9.65184L13.0672 10.1519M5.83514 18.6781L8.08514 14.781M11.3766 9.08008L8.08514 14.781M7.79924 23.2762L11.5492 16.781M14.788 11.1713C14.6528 11.0761 14.5122 10.9862 14.3662 10.9019L13.0672 10.1519M14.788 11.1713L11.5492 16.781M8.08514 14.781L9.81719 15.781M11.5492 16.781L9.81719 15.781M9.81719 15.781L13.0672 10.1519" stroke="#555770" stroke-width="2"/>
<circle cx="15.5001" cy="6.93774" r="2" transform="rotate(30 15.5001 6.93774)" fill="#555770"/>
<circle cx="12.8527" cy="2.52267" r="1.5" transform="rotate(30 12.8527 2.52267)" fill="#3E7BFA"/>
</g>
<defs>
<clipPath id="clip0_402_17364">
<rect width="24" height="24" fill="white"/>
</clipPath>
</defs>
</svg>
