<svg width="24" height="24" viewBox="0 0 24 24" fill="none" xmlns="http://www.w3.org/2000/svg">
<path d="M7 7.5H17M10 4V20.7101M14 4V20.7101" stroke="#3E7BFA" stroke-width="2"/>
<path d="M4 4C3.44772 4 3 4.44772 3 5C3 5.55228 3.44772 6 4 6C4.55228 6 5 5.55228 5 5C5 4.44772 4.55228 4 4 4ZM4 4C5 4 7 5 7 7.5C7 10 5 10.134 5 14C5 17.171 7.10851 19.8496 10 20.7101C10.6337 20.8987 11.305 21 12 21C12.695 21 13.3663 20.8987 14 20.7101C16.8915 19.8496 19 17.171 19 14C19 10.134 17 10 17 7.5C17 5 19 4 20 4M20 4C20.5523 4 21 4.44772 21 5C21 5.55228 20.5523 6 20 6C19.4477 6 19 5.55228 19 5C19 4.44772 19.4477 4 20 4Z" stroke="#555770" stroke-width="2"/>
</svg>
