<svg width="24" height="24" viewBox="0 0 24 24" fill="none" xmlns="http://www.w3.org/2000/svg">
<mask id="mask0_402_17368" style="mask-type:alpha" maskUnits="userSpaceOnUse" x="1" y="3" width="22" height="18">
<path d="M11.7321 18.5H12.6654L6 4.14382V3H23V21H1V14H9.64286L11.7321 18.5Z" fill="white"/>
</mask>
<g mask="url(#mask0_402_17368)">
<path d="M15.5 5H16.5L10.0269 18.9421C10.0105 18.9774 9.9751 19 9.93618 19H7V17H10L15.5 5Z" stroke="#555770" stroke-width="2"/>
<path d="M3.5 19V17H3.1C3.04477 17 3 17.0448 3 17.1V19H3.5Z" stroke="#555770" stroke-width="2"/>
</g>
<path d="M8.5 5H7.5L13.9731 18.9421C13.9895 18.9774 14.0249 19 14.0638 19H17V17H14L8.5 5Z" stroke="#3E7BFA" stroke-width="2"/>
<path d="M20.5 19V17H20.9C20.9552 17 21 17.0448 21 17.1V19H20.5Z" stroke="#3E7BFA" stroke-width="2"/>
</svg>
