<svg width="24" height="24" viewBox="0 0 24 24" fill="none" xmlns="http://www.w3.org/2000/svg">
<path d="M9 6H13L15.9106 8.9106M0 10H4.5L6.62917 12.1292M16.3054 9.30542L19.1427 12.1243M16.3054 9.30542L15.9106 10M16.3054 9.30542L15.9106 8.9106M15.9106 10H11L6.89434 12M15.9106 10L14.7737 12M6.62917 12.1292L8.5 14M6.62917 12.1292L6.89434 12M15.9106 8.9106L16.8099 8.5M16.8099 8.5L19 7.5V8.5H16.8099ZM8.5 14L10.5 16H12.5L13.6369 14M8.5 14H13.6369M13.6369 14L14.7737 12M14.7737 12H6.89434" stroke="#555770" stroke-width="2"/>
<path d="M7 15C7 16.6569 5.65685 18 4 18C2.34315 18 1 16.6569 1 15C1 13.3431 2.34315 12 4 12C5.65685 12 7 13.3431 7 15Z" stroke="#3E7BFA" stroke-width="2"/>
<path d="M23 15C23 16.6569 21.6569 18 20 18C18.3431 18 17 16.6569 17 15C17 13.3431 18.3431 12 20 12C21.6569 12 23 13.3431 23 15Z" stroke="#3E7BFA" stroke-width="2"/>
</svg>
