<svg width="24" height="24" viewBox="0 0 24 24" fill="none" xmlns="http://www.w3.org/2000/svg">
<path d="M14.0001 19C17.8661 19 21.0001 15.866 21.0001 12C21.0001 8.13401 17.8661 5 14.0001 5C11.2211 5 9.10138 5.78209 7.50012 7.00668C5.20489 8.762 3.97497 11.4265 3.39605 14C3.07131 15.4435 2.9514 16.8585 2.96319 18.0683C2.9683 18.5935 3.40561 18.9993 3.93089 18.9985C7.62255 18.9929 13.633 18.9871 14.0001 19Z" stroke="#555770" stroke-width="2"/>
<path d="M10.5001 14C11.8808 14 13.0001 12.8807 13.0001 11.5C13.0001 10.5703 12.4925 9.7591 11.7394 9.32837L7.50007 7.00671C5.20484 8.76203 3.97492 11.4265 3.396 14H10.5001Z" stroke="#3E7BFA" stroke-width="2"/>
</svg>
