<svg width="24" height="24" viewBox="0 0 24 24" fill="none" xmlns="http://www.w3.org/2000/svg">
<path d="M12 22C17.5228 22 22 17.5228 22 12C22 6.47715 17.5228 2 12 2C6.47715 2 2 6.47715 2 12C2 17.5228 6.47715 22 12 22Z" stroke="#555770" stroke-width="2"/>
<path d="M10 14.5C10 15.6046 9.10457 16.5 8 16.5C6.89543 16.5 6 15.6046 6 14.5C6 13.3954 6.89543 12.5 8 12.5C9.10457 12.5 10 13.3954 10 14.5Z" stroke="#3E7BFA" stroke-width="2"/>
<path d="M18 14.5C18 15.6046 17.1046 16.5 16 16.5C14.8954 16.5 14 15.6046 14 14.5C14 13.3954 14.8954 12.5 16 12.5C17.1046 12.5 18 13.3954 18 14.5Z" stroke="#3E7BFA" stroke-width="2"/>
<path d="M14 7.5C14 8.60457 13.1046 9.5 12 9.5C10.8954 9.5 10 8.60457 10 7.5C10 6.39543 10.8954 5.5 12 5.5C13.1046 5.5 14 6.39543 14 7.5Z" stroke="#3E7BFA" stroke-width="2"/>
</svg>
