<svg width="24" height="24" viewBox="0 0 24 24" fill="none" xmlns="http://www.w3.org/2000/svg">
<path d="M12.0002 3H10.6002C10.545 3 10.5002 3.04477 10.5002 3.1V6H12.0002M12.0002 3H13.4002C13.4554 3 13.5002 3.04477 13.5002 3.1V6H12.0002M12.0002 3V6M6.61133 15L7.16688 10H16.8336L17.3891 15H6.61133Z" stroke="#3E7BFA" stroke-width="2"/>
<path d="M6 20.5V21H18V20.5M6 20.5L6.61111 15L7.16667 10L7.42934 7.63592C7.47242 7.24825 7.73696 6.92101 8.107 6.79767L10.5 6H12H13.5L15.893 6.79767C16.263 6.92101 16.5276 7.24825 16.5707 7.63592L16.8333 10L17.3889 15L18 20.5M6 20.5H18" stroke="#555770" stroke-width="2"/>
</svg>
