<svg width="24" height="24" viewBox="0 0 24 24" fill="none" xmlns="http://www.w3.org/2000/svg">
<path d="M12 12C13.6569 12 15 10.8807 15 9.5C15 8.11929 13.6569 7 12 7C10.3431 7 9 8.11929 9 9.5C9 10.8807 10.3431 12 12 12ZM12 12C10.3431 12 9 13.1193 9 14.5C9 15.8807 10.3431 17 12 17C13.6569 17 15 15.8807 15 14.5C15 13.1193 13.6569 12 12 12ZM22 12C22 17.5228 17.5228 22 12 22C6.47715 22 2 17.5228 2 12C2 6.47715 6.47715 2 12 2C17.5228 2 22 6.47715 22 12Z" stroke="#555770" stroke-width="2"/>
<path d="M5.67363 9C5.24169 9.90926 5 10.9264 5 12C5 13.0736 5.24169 14.0907 5.67363 15M18.3264 9C18.7583 9.90926 19 10.9264 19 12C19 13.0736 18.7583 14.0907 18.3264 15" stroke="#3E7BFA" stroke-width="2"/>
</svg>
