<svg width="24" height="24" viewBox="0 0 24 24" fill="none" xmlns="http://www.w3.org/2000/svg">
<path d="M19 20C19 20.5523 19.4477 21 20 21C20.5523 21 21 20.5523 21 20C21 19.4477 20.5523 19 20 19C19.4477 19 19 19.4477 19 20Z" stroke="#3E7BFA" stroke-width="2"/>
<path d="M9.10084 15C8.94871 14.8509 8.80336 14.695 8.66529 14.5326M9.10084 15C9.24188 15.1382 9.38875 15.2705 9.54103 15.3965M9.10084 15L3.49982 20.601M3.49982 20.601C3.33351 20.4011 3.22251 20.2124 3.14844 20.0495L8.66529 14.5326M3.49982 20.601C3.65753 20.7635 3.83901 20.8633 4.01376 20.9237L9.54103 15.3965M8.66529 14.5326C8.55802 14.4065 8.45514 14.2765 8.35689 14.1429C7.50381 12.9829 6.99982 11.5503 6.99982 10C6.99982 6.13401 10.1338 3 13.9998 3C17.8658 3 20.9998 6.13401 20.9998 10C20.9998 13.866 17.8658 17 13.9998 17C12.5126 17 11.1337 16.5362 9.99982 15.7453C9.84202 15.6352 9.68897 15.5188 9.54103 15.3965" stroke="#555770" stroke-width="2"/>
</svg>
