<svg width="24" height="24" viewBox="0 0 24 24" fill="none" xmlns="http://www.w3.org/2000/svg">
<path d="M6 8.5C6 9.32843 5.32843 10 4.5 10C3.67157 10 3 9.32843 3 8.5C3 7.67157 3.67157 7 4.5 7C5.32843 7 6 7.67157 6 8.5Z" stroke="#3E7BFA" stroke-width="2"/>
<path d="M10 12C10 12.5523 10.4477 13 11 13C11.5523 13 12 12.5523 12 12C12 11.4477 11.5523 11 11 11C10.4477 11 10 11.4477 10 12Z" stroke="#3E7BFA" stroke-width="2"/>
<path d="M16 12C16 14.7614 13.7614 17 11 17C8.23858 17 6 14.7614 6 12C6 9.23858 8.23858 7 11 7M16 12C16 10.8744 15.6281 9.83566 15.0004 9M16 12C16 10 16.5 9 18.5 9M11 7H21V9H18.5M11 7C12.6358 7 14.0882 7.78555 15.0004 9M15.0004 9H18.5M15 12C15 14.2091 13.2091 16 11 16C8.79086 16 7 14.2091 7 12C7 9.79086 8.79086 8 11 8C13.2091 8 15 9.79086 15 12Z" stroke="#555770" stroke-width="2"/>
</svg>
