<svg width="24" height="24" viewBox="0 0 24 24" fill="none" xmlns="http://www.w3.org/2000/svg">
<path d="M17 7H16V7.41421L16.2929 7.70711L17 7ZM19 12.6586L18.6668 11.7157L19 12.6586ZM13.6822 12L14.2359 11.1673L13.6822 12ZM6 7V6H4V7H6ZM6 18V12H4V18H6ZM6 12V7H4V12H6ZM5 19V20.9H7V19H5ZM6.1 22H6.9V20H6.1V22ZM6 20H7V18H6V20ZM8 20.9V19H6V20.9H8ZM7 20H17V18H7V20ZM16 19V20.9H18V19H16ZM17.1 22H17.9V20H17.1V22ZM17 20H18V18H17V20ZM19 20.9V19H17V20.9H19ZM17.9 22C18.5075 22 19 21.5075 19 20.9H17C17 20.4029 17.4029 20 17.9 20V22ZM18 18V20C19.1046 20 20 19.1046 20 18H18ZM16 20.9C16 21.5075 16.4925 22 17.1 22V20C17.5971 20 18 20.4029 18 20.9H16ZM4 18C4 19.1046 4.89543 20 6 20V18H4ZM6.9 22C7.50751 22 8 21.5075 8 20.9H6C6 20.4029 6.40294 20 6.9 20V22ZM5 20.9C5 21.5075 5.49249 22 6.1 22V20C6.59706 20 7 20.4029 7 20.9H5ZM17 2C19.7614 2 22 4.23858 22 7H24C24 3.13401 20.866 0 17 0V2ZM18 7V3.5H16V7H18ZM16.2929 7.70711L18.7929 10.2071L20.2071 8.79289L17.7071 6.29289L16.2929 7.70711ZM12 7C12 6.08781 12.2434 5.23549 12.668 4.50117L10.9367 3.4999C10.3408 4.53039 10 5.72692 10 7H12ZM12.668 4.50117C13.534 3.00381 15.1504 2 17 2V0C14.4075 0 12.1455 1.40986 10.9367 3.4999L12.668 4.50117ZM5 6C6 6 6 6.00169 5.99999 6.00337C5.99999 6.00392 5.99998 6.0056 5.99998 6.00671C5.99996 6.00892 5.99994 6.01112 5.99991 6.01329C5.99985 6.01763 5.99976 6.0219 5.99965 6.02608C5.99942 6.03444 5.99908 6.04247 5.99865 6.05018C5.99779 6.06561 5.99655 6.07975 5.99506 6.09268C5.99207 6.11858 5.98806 6.13943 5.98404 6.15567C5.97577 6.18914 5.96819 6.19999 5.97283 6.19193C5.97924 6.18081 6.0556 6.05191 6.35356 5.87838C6.97918 5.51403 8.47042 5.01882 11.8079 5.00052L11.7969 3.00055C8.33196 3.01954 6.42201 3.52406 5.34703 4.15012C4.79469 4.47179 4.44591 4.83577 4.23974 5.19373C4.1381 5.3702 4.07737 5.53464 4.04253 5.67556C4.02523 5.74552 4.01458 5.80857 4.00826 5.86323C4.00511 5.89054 4.00304 5.91571 4.00177 5.93856C4.00113 5.94999 4.00069 5.96083 4.0004 5.97108C4.00026 5.9762 4.00016 5.98118 4.0001 5.986C4.00006 5.98841 4.00004 5.99078 4.00002 5.99311C4.00002 5.99428 4.00001 5.996 4.00001 5.99659C4 5.9983 4 6 5 6ZM22 7C22 9.17547 20.6101 11.0289 18.6668 11.7157L19.3332 13.6014C22.0507 12.641 24 10.0494 24 7H22ZM18.6668 11.7157C18.1467 11.8995 17.5862 12 17 12V14C17.8164 14 18.6021 13.8598 19.3332 13.6014L18.6668 11.7157ZM20 18V12.6586H18V18H20ZM17 12C15.9763 12 15.0272 11.6934 14.2359 11.1673L13.1285 12.8327C14.2378 13.5703 15.5702 14 17 14V12ZM14.2359 11.1673C12.8861 10.2698 12 8.73817 12 7H10C10 9.43577 11.2449 11.5803 13.1285 12.8327L14.2359 11.1673ZM13.6822 11H5V13H13.6822V11ZM11 6H5V8H11V6Z" fill="#28293D"/>
<path d="M10 15.5C10 16.3284 9.32843 17 8.5 17C7.67157 17 7 16.3284 7 15.5C7 14.6716 7.67157 14 8.5 14C9.32843 14 10 14.6716 10 15.5Z" fill="#28293D"/>
<path d="M17 15.5C17 16.3284 16.3284 17 15.5 17C14.6716 17 14 16.3284 14 15.5C14 14.6716 14.6716 14 15.5 14C16.3284 14 17 14.6716 17 15.5Z" fill="#28293D"/>
</svg>
