<svg width="24" height="24" viewBox="0 0 24 24" fill="none" xmlns="http://www.w3.org/2000/svg">
<path d="M4 15L3.05132 14.6838L3 14.8377V15H4ZM5 21V20H4V21H5ZM20 15H21V14.8377L20.9487 14.6838L20 15ZM19 21H20V20H19V21ZM19.6667 14L20.6154 13.6838V13.6838L19.6667 14ZM18.114 9.34189L17.1653 9.65811L18.114 9.34189ZM5.88604 9.34189L4.93735 9.02566L5.88604 9.34189ZM3 15V22.8H5V15H3ZM4.2 24H4.8V22H4.2V24ZM6 22.8V21H4V22.8H6ZM4.93735 9.02566L3.38465 13.6838L5.28202 14.3162L6.83472 9.65811L4.93735 9.02566ZM3.38465 13.6838L3.05132 14.6838L4.94868 15.3162L5.28202 14.3162L3.38465 13.6838ZM19 15V22.8H21V15H19ZM19.8 22H19.2V24H19.8V22ZM20 22.8V21H18V22.8H20ZM17.1653 9.65811L18.718 14.3162L20.6154 13.6838L19.0626 9.02566L17.1653 9.65811ZM18.718 14.3162L19.0513 15.3162L20.9487 14.6838L20.6154 13.6838L18.718 14.3162ZM6.36038 10H17.6396V8H6.36038V10ZM5 22H19V20H5V22ZM4.33333 15H19.6667V13H4.33333V15ZM19.2 22C19.6418 22 20 22.3582 20 22.8H18C18 23.4627 18.5373 24 19.2 24V22ZM19.0626 9.02566C18.8585 8.41315 18.2853 8 17.6396 8V10C17.4244 10 17.2333 9.86228 17.1653 9.65811L19.0626 9.02566ZM19 22.8C19 22.3582 19.3582 22 19.8 22V24C20.4627 24 21 23.4627 21 22.8H19ZM4.8 24C5.46274 24 6 23.4627 6 22.8H4C4 22.3582 4.35817 22 4.8 22V24ZM3 22.8C3 23.4627 3.53726 24 4.2 24V22C4.64183 22 5 22.3582 5 22.8H3ZM6.83472 9.65811C6.76666 9.86229 6.57559 10 6.36038 10V8C5.71473 8 5.14153 8.41315 4.93735 9.02566L6.83472 9.65811Z" fill="#28293D"/>
<path d="M9 17.5C9 18.3284 8.32843 19 7.5 19C6.67157 19 6 18.3284 6 17.5C6 16.6716 6.67157 16 7.5 16C8.32843 16 9 16.6716 9 17.5Z" fill="#28293D"/>
<path d="M18 17.5C18 18.3284 17.3284 19 16.5 19C15.6716 19 15 18.3284 15 17.5C15 16.6716 15.6716 16 16.5 16C17.3284 16 18 16.6716 18 17.5Z" fill="#28293D"/>
<path d="M7.00065 3L7.78968 2.38564L7.00065 1.37228L6.21162 2.38564L7.00065 3ZM12.0001 3L12.7891 2.38564L12.0001 1.37228L11.2111 2.38564L12.0001 3ZM17.0017 3L17.7908 2.38564L17.0017 1.37228L16.2127 2.38564L17.0017 3ZM6.66732 4.26316C6.66732 4.22188 6.68268 4.16615 6.73052 4.11327C6.77983 4.05877 6.87418 4 7.00065 4V6C8.01294 6 8.66732 5.12587 8.66732 4.26316H6.66732ZM7.00065 4C7.12712 4 7.22147 4.05877 7.27078 4.11327C7.31862 4.16615 7.33398 4.22188 7.33398 4.26316H5.33398C5.33398 5.12587 5.98837 6 7.00065 6V4ZM7.33398 4.26316C7.33398 4.38517 7.29841 4.41815 7.34851 4.30792C7.38517 4.22728 7.44281 4.12424 7.51375 4.01148C7.58261 3.90202 7.65321 3.80042 7.70745 3.72523C7.73422 3.68813 7.75617 3.65862 7.77083 3.63915C7.77814 3.62944 7.78358 3.6223 7.78684 3.61805C7.78847 3.61593 7.78955 3.61453 7.79003 3.6139C7.79028 3.61359 7.79037 3.61346 7.79032 3.61354C7.79029 3.61358 7.79022 3.61366 7.79011 3.6138C7.79006 3.61387 7.79 3.61395 7.78993 3.61404C7.78989 3.61409 7.78983 3.61417 7.78981 3.61419C7.78975 3.61427 7.78968 3.61436 7.00065 3C6.21162 2.38564 6.21155 2.38574 6.21148 2.38583C6.21145 2.38587 6.21137 2.38597 6.21131 2.38604C6.2112 2.38618 6.21108 2.38634 6.21094 2.38651C6.21068 2.38686 6.21037 2.38726 6.21002 2.38771C6.20932 2.38861 6.20846 2.38972 6.20744 2.39103C6.20541 2.39367 6.20274 2.39713 6.19949 2.40138C6.19298 2.40987 6.1841 2.42152 6.17318 2.43602C6.15138 2.46497 6.12125 2.50553 6.08552 2.55505C6.01476 2.65312 5.9187 2.79101 5.82089 2.94647C5.72516 3.09863 5.61613 3.28595 5.52779 3.4803C5.4529 3.64506 5.33398 3.93767 5.33398 4.26316H7.33398ZM7.00065 3C6.21162 3.61436 6.21156 3.61427 6.21149 3.61419C6.21147 3.61417 6.21141 3.61409 6.21138 3.61404C6.2113 3.61395 6.21124 3.61387 6.21119 3.6138C6.21108 3.61366 6.21101 3.61358 6.21099 3.61354C6.21093 3.61346 6.21102 3.61359 6.21127 3.6139C6.21176 3.61453 6.21283 3.61593 6.21446 3.61805C6.21772 3.6223 6.22316 3.62944 6.23047 3.63915C6.24513 3.65862 6.26708 3.68813 6.29385 3.72523C6.3481 3.80042 6.4187 3.90202 6.48756 4.01148C6.55849 4.12424 6.61613 4.22728 6.65279 4.30792C6.7029 4.41815 6.66732 4.38517 6.66732 4.26316H8.66732C8.66732 3.93767 8.54841 3.64506 8.47351 3.4803C8.38517 3.28595 8.27614 3.09863 8.18041 2.94647C8.08261 2.79101 7.98654 2.65312 7.91579 2.55505C7.88006 2.50553 7.84992 2.46497 7.82812 2.43602C7.8172 2.42152 7.80832 2.40987 7.80182 2.40138C7.79856 2.39713 7.79589 2.39367 7.79386 2.39103C7.79284 2.38972 7.79198 2.38861 7.79128 2.38771C7.79093 2.38726 7.79062 2.38686 7.79036 2.38651C7.79022 2.38634 7.7901 2.38618 7.78999 2.38604C7.78993 2.38597 7.78985 2.38587 7.78983 2.38583C7.78975 2.38574 7.78968 2.38564 7.00065 3ZM11.6668 4.26316C11.6668 4.22188 11.6821 4.16615 11.73 4.11327C11.7793 4.05877 11.8737 4 12.0001 4V6C13.0124 6 13.6668 5.12587 13.6668 4.26316H11.6668ZM12.0001 4C12.1266 4 12.2209 4.05877 12.2703 4.11327C12.3181 4.16615 12.3335 4.22188 12.3335 4.26316H10.3335C10.3335 5.12587 10.9878 6 12.0001 6V4ZM12.3335 4.26316C12.3335 4.38517 12.2979 4.41815 12.348 4.30792C12.3846 4.22728 12.4423 4.12424 12.5132 4.01148C12.5821 3.90202 12.6527 3.80042 12.7069 3.72523C12.7337 3.68813 12.7556 3.65861 12.7703 3.63915C12.7776 3.62944 12.7831 3.6223 12.7863 3.61805C12.7879 3.61593 12.789 3.61453 12.7895 3.6139C12.7897 3.61359 12.7898 3.61346 12.7898 3.61354C12.7898 3.61358 12.7897 3.61366 12.7896 3.6138C12.7895 3.61387 12.7895 3.61395 12.7894 3.61404C12.7894 3.61409 12.7893 3.61417 12.7893 3.61419C12.7892 3.61427 12.7892 3.61436 12.0001 3C11.2111 2.38564 11.211 2.38574 11.2109 2.38583C11.2109 2.38587 11.2108 2.38597 11.2108 2.38604C11.2107 2.38618 11.2105 2.38634 11.2104 2.38651C11.2101 2.38686 11.2098 2.38726 11.2095 2.38771C11.2088 2.38861 11.2079 2.38972 11.2069 2.39103C11.2049 2.39367 11.2022 2.39713 11.199 2.40138C11.1924 2.40987 11.1836 2.42152 11.1726 2.43602C11.1509 2.46497 11.1207 2.50553 11.085 2.55505C11.0142 2.65312 10.9182 2.79101 10.8204 2.94647C10.7246 3.09863 10.6156 3.28595 10.5273 3.4803C10.4524 3.64506 10.3335 3.93767 10.3335 4.26316H12.3335ZM12.0001 3C11.2111 3.61436 11.211 3.61427 11.211 3.61419C11.2109 3.61417 11.2109 3.61409 11.2108 3.61404C11.2108 3.61395 11.2107 3.61387 11.2107 3.6138C11.2106 3.61366 11.2105 3.61358 11.2105 3.61354C11.2104 3.61346 11.2105 3.61359 11.2107 3.6139C11.2112 3.61453 11.2123 3.61593 11.2139 3.61805C11.2172 3.6223 11.2226 3.62944 11.2299 3.63915C11.2446 3.65862 11.2665 3.68813 11.2933 3.72523C11.3476 3.80042 11.4182 3.90202 11.487 4.01148C11.558 4.12424 11.6156 4.22728 11.6523 4.30792C11.7024 4.41815 11.6668 4.38517 11.6668 4.26316H13.6668C13.6668 3.93767 13.5479 3.64506 13.473 3.4803C13.3846 3.28595 13.2756 3.09863 13.1799 2.94647C13.0821 2.79101 12.986 2.65312 12.9153 2.55505C12.8795 2.50553 12.8494 2.46497 12.8276 2.43602C12.8167 2.42152 12.8078 2.40987 12.8013 2.40138C12.798 2.39713 12.7954 2.39367 12.7933 2.39103C12.7923 2.38972 12.7915 2.38861 12.7908 2.38771C12.7904 2.38726 12.7901 2.38686 12.7898 2.38651C12.7897 2.38634 12.7896 2.38618 12.7895 2.38604C12.7894 2.38597 12.7893 2.38587 12.7893 2.38583C12.7892 2.38574 12.7891 2.38564 12.0001 3ZM16.6684 4.26316C16.6684 4.22188 16.6838 4.16615 16.7316 4.11327C16.7809 4.05877 16.8753 4 17.0017 4V6C18.014 6 18.6684 5.12587 18.6684 4.26316H16.6684ZM17.0017 4C17.1282 4 17.2226 4.05877 17.2719 4.11327C17.3197 4.16615 17.3351 4.22188 17.3351 4.26316H15.3351C15.3351 5.12587 15.9895 6 17.0017 6V4ZM17.3351 4.26316C17.3351 4.38517 17.2995 4.41815 17.3496 4.30792C17.3863 4.22728 17.4439 4.12424 17.5148 4.01148C17.5837 3.90202 17.6543 3.80042 17.7085 3.72523C17.7353 3.68813 17.7573 3.65862 17.7719 3.63915C17.7792 3.62944 17.7847 3.6223 17.7879 3.61805C17.7896 3.61593 17.7906 3.61453 17.7911 3.6139C17.7914 3.61359 17.7915 3.61346 17.7914 3.61354C17.7914 3.61358 17.7913 3.61366 17.7912 3.6138C17.7912 3.61387 17.7911 3.61395 17.791 3.61404C17.791 3.61409 17.7909 3.61417 17.7909 3.61419C17.7908 3.61427 17.7908 3.61436 17.0017 3C16.2127 2.38564 16.2126 2.38574 16.2126 2.38583C16.2125 2.38587 16.2125 2.38597 16.2124 2.38604C16.2123 2.38618 16.2122 2.38634 16.212 2.38651C16.2118 2.38686 16.2115 2.38726 16.2111 2.38771C16.2104 2.38861 16.2096 2.38972 16.2085 2.39103C16.2065 2.39367 16.2038 2.39713 16.2006 2.40138C16.1941 2.40987 16.1852 2.42152 16.1743 2.43602C16.1525 2.46497 16.1223 2.50553 16.0866 2.55505C16.0159 2.65312 15.9198 2.79101 15.822 2.94647C15.7263 3.09863 15.6172 3.28595 15.5289 3.4803C15.454 3.64506 15.3351 3.93767 15.3351 4.26316H17.3351ZM17.0017 3C16.2127 3.61436 16.2126 3.61427 16.2126 3.61419C16.2126 3.61417 16.2125 3.61409 16.2125 3.61404C16.2124 3.61395 16.2123 3.61387 16.2123 3.6138C16.2122 3.61366 16.2121 3.61357 16.2121 3.61354C16.212 3.61346 16.2121 3.61359 16.2124 3.6139C16.2128 3.61453 16.2139 3.61593 16.2156 3.61805C16.2188 3.6223 16.2243 3.62944 16.2316 3.63915C16.2462 3.65861 16.2682 3.68813 16.2949 3.72523C16.3492 3.80042 16.4198 3.90202 16.4886 4.01148C16.5596 4.12424 16.6172 4.22728 16.6539 4.30792C16.704 4.41815 16.6684 4.38517 16.6684 4.26316H18.6684C18.6684 3.93767 18.5495 3.64506 18.4746 3.4803C18.3863 3.28595 18.2772 3.09863 18.1815 2.94647C18.0837 2.79101 17.9876 2.65312 17.9169 2.55505C17.8812 2.50553 17.851 2.46497 17.8292 2.43602C17.8183 2.42152 17.8094 2.40987 17.8029 2.40138C17.7997 2.39713 17.797 2.39367 17.795 2.39103C17.7939 2.38972 17.7931 2.38861 17.7924 2.38771C17.792 2.38726 17.7917 2.38686 17.7915 2.38652C17.7913 2.38634 17.7912 2.38618 17.7911 2.38604C17.791 2.38597 17.7909 2.38587 17.7909 2.38583C17.7908 2.38574 17.7908 2.38564 17.0017 3Z" fill="#28293D"/>
</svg>
