<svg width="24" height="24" viewBox="0 0 24 24" fill="none" xmlns="http://www.w3.org/2000/svg">
<path d="M13 20V21H14V20H13ZM5 20H4V21H5V20ZM6 5H12V3H6V5ZM12 5V20H14V5H12ZM13 19H5V21H13V19ZM6 20V5H4V20H6ZM12 5H14C14 3.89543 13.1046 3 12 3V5ZM6 3C4.89543 3 4 3.89543 4 5H6V3Z" fill="#28293D"/>
<path d="M6 13L10 6V11H12L8 18V13H6Z" fill="#28293D"/>
<path d="M20 9L20.75 8.99999L20 9ZM16 9L15.25 8.99999L16 9ZM16 18.5H15.25H16ZM18 20.5V19.75V20.5ZM20 18.5H19.25H20ZM16 14H15.25H16ZM18.8839 9.88388C18.3957 10.372 17.6042 10.372 17.1161 9.88388L16.0554 10.9445C17.1294 12.0185 18.8706 12.0185 19.9445 10.9445L18.8839 9.88388ZM17.1161 8.11612C17.6042 7.62796 18.3957 7.62796 18.8839 8.11612L19.9445 7.05546C18.8706 5.98151 17.1294 5.98151 16.0554 7.05546L17.1161 8.11612ZM19.9445 7.05546L16.3587 3.46967L15.2981 4.53033L18.8839 8.11612L19.9445 7.05546ZM18.8839 8.11612C19.1281 8.36034 19.25 8.67893 19.25 9L20.75 8.99999C20.75 8.29737 20.4813 7.59228 19.9445 7.05546L18.8839 8.11612ZM19.25 9C19.25 9.32106 19.1281 9.63966 18.8839 9.88388L19.9445 10.9445C20.4813 10.4077 20.75 9.70262 20.75 8.99999L19.25 9ZM19.25 9L19.25 18.5H20.75L20.75 9H19.25ZM17.1161 9.88388C16.8719 9.63966 16.75 9.32106 16.75 9L15.25 8.99999C15.25 9.70262 15.5186 10.4077 16.0554 10.9445L17.1161 9.88388ZM16.75 9C16.75 8.67893 16.8719 8.36034 17.1161 8.11612L16.0554 7.05546C15.5186 7.59228 15.25 8.29737 15.25 8.99999L16.75 9ZM15 12.25H13V13.75H15V12.25ZM15.25 14L15.25 18.5H16.75L16.75 14H15.25ZM15.25 18.5C15.25 20.0188 16.4812 21.25 18 21.25V19.75C17.3096 19.75 16.75 19.1904 16.75 18.5H15.25ZM19.25 18.5C19.25 19.1904 18.6903 19.75 18 19.75V21.25C19.5188 21.25 20.75 20.0188 20.75 18.5H19.25ZM15 13.75C15.138 13.75 15.25 13.8619 15.25 14H16.75C16.75 13.0335 15.9665 12.25 15 12.25V13.75Z" fill="#28293D"/>
</svg>
