<svg width="24" height="24" viewBox="0 0 24 24" fill="none" xmlns="http://www.w3.org/2000/svg">
<mask id="path-1-inside-1_402_15724" fill="white">
<path d="M2.5 21V19H21.5V21H2.5Z"/>
<path d="M2.77043 6.24904V11.3992L19.3331 15.8554C20.1332 16.0707 20.9567 15.599 21.1759 14.8C21.397 13.9936 20.9185 13.1615 20.1104 12.947L14.8105 11.5403L12.0481 2.50431L10.1126 1.99854V10.2856L5.16173 8.95303L4.22798 6.6381L2.77043 6.24904Z"/>
</mask>
<path d="M2.5 19V16H-0.5V19H2.5ZM2.5 21H-0.5V24H2.5V21ZM21.5 21V24H24.5V21H21.5ZM21.5 19H24.5V16H21.5V19ZM2.77043 11.3992H-0.229573V13.6987L1.99099 14.2962L2.77043 11.3992ZM2.77043 6.24904L3.54412 3.35053L-0.229573 2.34322V6.24904H2.77043ZM4.22798 6.6381L7.01018 5.51588L6.44958 4.12607L5.00168 3.73959L4.22798 6.6381ZM5.16173 8.95303L2.37954 10.0753L2.93867 11.4614L4.38202 11.8499L5.16173 8.95303ZM10.1126 10.2856L9.33284 13.1825L13.1126 14.1998V10.2856H10.1126ZM10.1126 1.99854L10.871 -0.904008L7.11255 -1.88611V1.99854H10.1126ZM12.0481 2.50431L14.9171 1.62726L14.4273 0.0252775L12.8066 -0.398232L12.0481 2.50431ZM14.8105 11.5403L11.9415 12.4173L12.4291 14.0121L14.0408 14.4399L14.8105 11.5403ZM20.1104 12.947L19.3407 15.8466L19.3407 15.8466L20.1104 12.947ZM19.3331 15.8554L18.5537 18.7524H18.5537L19.3331 15.8554ZM21.1759 14.8L18.2827 14.0065V14.0066L21.1759 14.8ZM-0.5 19V21H5.5V19H-0.5ZM2.5 24H21.5V18H2.5V24ZM24.5 21V19H18.5V21H24.5ZM21.5 16H2.5V22H21.5V16ZM5.77043 11.3992V6.24904H-0.229573V11.3992H5.77043ZM1.99673 9.14756L3.45429 9.53662L5.00168 3.73959L3.54412 3.35053L1.99673 9.14756ZM1.44579 7.76033L2.37954 10.0753L7.94393 7.8308L7.01018 5.51588L1.44579 7.76033ZM4.38202 11.8499L9.33284 13.1825L10.8923 7.38866L5.94145 6.05612L4.38202 11.8499ZM13.1126 10.2856V1.99854H7.11255V10.2856H13.1126ZM9.35411 4.90108L11.2897 5.40686L12.8066 -0.398232L10.871 -0.904008L9.35411 4.90108ZM9.1792 3.38136L11.9415 12.4173L17.6794 10.6632L14.9171 1.62726L9.1792 3.38136ZM14.0408 14.4399L19.3407 15.8466L20.88 10.0474L15.5801 8.64069L14.0408 14.4399ZM20.1126 12.9585L3.54986 8.50223L1.99099 14.2962L18.5537 18.7524L20.1126 12.9585ZM18.2827 14.0066C18.5003 13.2131 19.3181 12.7447 20.1126 12.9585L18.5537 18.7524C20.9482 19.3967 23.4132 17.9848 24.069 15.5934L18.2827 14.0066ZM19.3407 15.8466C18.5382 15.6336 18.0631 14.8073 18.2827 14.0065L24.069 15.5934C24.7309 13.1799 23.2989 10.6895 20.88 10.0474L19.3407 15.8466Z" fill="#28293D" mask="url(#path-1-inside-1_402_15724)"/>
</svg>
