<svg width="24" height="24" viewBox="0 0 24 24" fill="none" xmlns="http://www.w3.org/2000/svg">
<path d="M5 15V14H4V15H5ZM20 15V11H18V15H20ZM22 17H19V19H22V17ZM12 9H7V11H12V9ZM5 16H12V14H5V16ZM11 10V15H13V10H11ZM18 9H13V11H18V9ZM13 9H12V11H13V9ZM12 16H13V14H12V16ZM13 16H19V14H13V16ZM12 10V15H14V10H12ZM6 17V16.5H4V17H6ZM6 16.5V15H4V16.5H6ZM18 15V16.5H20V15H18ZM18 16.5V18H20V16.5H18ZM5 17.5H19V15.5H5V17.5ZM20 11C20 9.89543 19.1046 9 18 9V11H20ZM6 17H6H4C4 18.1046 4.89543 19 6 19V17ZM12 19C12 19.5523 11.5523 20 11 20V22C12.6569 22 14 20.6569 14 19H12ZM11 20C10.4477 20 10 19.5523 10 19H8C8 20.6569 9.34315 22 11 22V20ZM10 19C10 18.4477 10.4477 18 11 18V16C9.34315 16 8 17.3431 8 19H10ZM11 18C11.5523 18 12 18.4477 12 19H14C14 17.3431 12.6569 16 11 16V18ZM19 17H12.7324V19H19V17ZM9.25 17H6V19H9.25V17ZM9 6H17V4H9V6Z" fill="#28293D"/>
<path d="M17 8V2L20 5L17 8Z" fill="#28293D"/>
<path d="M7 13V7L4 10L7 13Z" fill="#28293D"/>
</svg>
