<svg width="24" height="24" viewBox="0 0 24 24" fill="none" xmlns="http://www.w3.org/2000/svg">
<path d="M4 12L3.05132 11.6838L3 11.8377V12H4ZM5 18V17H4V18H5ZM20 12H21V11.8377L20.9487 11.6838L20 12ZM19 18H20V17H19V18ZM19.6667 11L20.6154 10.6838V10.6838L19.6667 11ZM10 4V3H9V4H10ZM14 4H15V3H14V4ZM18.114 6.34189L17.1653 6.65811L18.114 6.34189ZM5.88604 6.34189L4.93735 6.02566L5.88604 6.34189ZM3 12V19.8H5V12H3ZM4.2 21H4.8V19H4.2V21ZM6 19.8V18H4V19.8H6ZM4.93735 6.02566L3.38465 10.6838L5.28202 11.3162L6.83472 6.65811L4.93735 6.02566ZM3.38465 10.6838L3.05132 11.6838L4.94868 12.3162L5.28202 11.3162L3.38465 10.6838ZM19 12V19.8H21V12H19ZM19.8 19H19.2V21H19.8V19ZM20 19.8V18H18V19.8H20ZM17.1653 6.65811L18.718 11.3162L20.6154 10.6838L19.0626 6.02566L17.1653 6.65811ZM18.718 11.3162L19.0513 12.3162L20.9487 11.6838L20.6154 10.6838L18.718 11.3162ZM5 19H19V17H5V19ZM4.33333 12H19.6667V10H4.33333V12ZM6.36038 7H10V5H6.36038V7ZM11 6V4H9V6H11ZM10 5H14V3H10V5ZM10 7H14V5H10V7ZM14 7H17.6396V5H14V7ZM13 4V6H15V4H13ZM19.2 19C19.6418 19 20 19.3582 20 19.8H18C18 20.4627 18.5373 21 19.2 21V19ZM19.0626 6.02566C18.8585 5.41314 18.2853 5 17.6396 5V7C17.4244 7 17.2333 6.86229 17.1653 6.65811L19.0626 6.02566ZM19 19.8C19 19.3582 19.3582 19 19.8 19V21C20.4627 21 21 20.4627 21 19.8H19ZM4.8 21C5.46274 21 6 20.4627 6 19.8H4C4 19.3582 4.35817 19 4.8 19V21ZM3 19.8C3 20.4627 3.53726 21 4.2 21V19C4.64183 19 5 19.3582 5 19.8H3ZM6.83472 6.65811C6.76666 6.86228 6.57559 7 6.36038 7V5C5.71473 5 5.14153 5.41315 4.93735 6.02566L6.83472 6.65811Z" fill="#28293D"/>
<path d="M9 14.5C9 15.3284 8.32843 16 7.5 16C6.67157 16 6 15.3284 6 14.5C6 13.6716 6.67157 13 7.5 13C8.32843 13 9 13.6716 9 14.5Z" fill="#28293D"/>
<path d="M18 14.5C18 15.3284 17.3284 16 16.5 16C15.6716 16 15 15.3284 15 14.5C15 13.6716 15.6716 13 16.5 13C17.3284 13 18 13.6716 18 14.5Z" fill="#28293D"/>
</svg>
