<svg width="24" height="24" viewBox="0 0 24 24" fill="none" xmlns="http://www.w3.org/2000/svg">
<path d="M8.1 5H15.9V3H8.1V5ZM15 4.1V19.9H17V4.1H15ZM15.9 19H8.1V21H15.9V19ZM9 19.9V4.1H7V19.9H9ZM8.1 19C8.59706 19 9 19.4029 9 19.9H7C7 20.5075 7.49249 21 8.1 21V19ZM15 19.9C15 19.4029 15.4029 19 15.9 19V21C16.5075 21 17 20.5075 17 19.9H15ZM15.9 5C15.4029 5 15 4.59706 15 4.1H17C17 3.49249 16.5075 3 15.9 3V5ZM8.1 3C7.49248 3 7 3.49249 7 4.1H9C9 4.59705 8.59706 5 8.1 5V3Z" fill="#28293D"/>
<path d="M13.5 7.5C13.5 8.32843 12.8284 9 12 9C11.1716 9 10.5 8.32843 10.5 7.5C10.5 6.67157 11.1716 6 12 6C12.8284 6 13.5 6.67157 13.5 7.5Z" fill="#424242"/>
<path d="M20 5C20 7.20914 18 9 17 9V5H20Z" fill="#28293D"/>
<path d="M4 10C4 12.2091 6 14 7 14V10H4Z" fill="#28293D"/>
<path d="M20 10C20 12.2091 18 14 17 14V10H20Z" fill="#28293D"/>
<path d="M4 15C4 17.2091 6 19 7 19V15H4Z" fill="#28293D"/>
<path d="M20 15C20 17.2091 18 19 17 19V15H20Z" fill="#28293D"/>
<path d="M13.5 12C13.5 12.8284 12.8284 13.5 12 13.5C11.1716 13.5 10.5 12.8284 10.5 12C10.5 11.1716 11.1716 10.5 12 10.5C12.8284 10.5 13.5 11.1716 13.5 12Z" fill="#424242"/>
<path d="M13.5 16.5C13.5 17.3284 12.8284 18 12 18C11.1716 18 10.5 17.3284 10.5 16.5C10.5 15.6716 11.1716 15 12 15C12.8284 15 13.5 15.6716 13.5 16.5Z" fill="#424242"/>
<path d="M4 5C4 7.20914 6 9 7 9V5H4Z" fill="#28293D"/>
</svg>
