<svg width="24" height="24" viewBox="0 0 24 24" fill="none" xmlns="http://www.w3.org/2000/svg">
<path d="M6.99633 21.3039C6.61189 21.7004 6.62168 22.3335 7.01819 22.718C7.41471 23.1024 8.0478 23.0926 8.43224 22.6961L6.99633 21.3039ZM15.5678 22.6961C15.9522 23.0926 16.5853 23.1024 16.9818 22.718C17.3783 22.3335 17.3881 21.7004 17.0037 21.3039L15.5678 22.6961ZM6 7.77971C7 7.77971 7 7.78135 6.99999 7.78299C6.99999 7.78352 6.99999 7.78516 6.99998 7.78624C6.99996 7.7884 6.99994 7.79054 6.99991 7.79266C6.99986 7.7969 6.99977 7.80107 6.99967 7.80517C6.99945 7.81336 6.99912 7.82127 6.99871 7.8289C6.99788 7.84416 6.99668 7.85831 6.99521 7.8714C6.99226 7.89761 6.98823 7.91948 6.98393 7.93735C6.97961 7.95528 6.97513 7.96872 6.97152 7.978C6.96789 7.98733 6.96544 7.99168 6.96555 7.99149C6.96566 7.9913 6.96884 7.98563 6.97689 7.97514C6.98494 7.96462 6.99845 7.9485 7.01949 7.9277C7.06141 7.88626 7.13576 7.82373 7.26021 7.7499C7.78105 7.44092 9.06618 7 12 7V5C8.93382 5 7.21895 5.44893 6.23979 6.02981C5.73522 6.32914 5.41305 6.67166 5.22195 7.01177C5.12796 7.17905 5.07177 7.33514 5.03951 7.46912C5.02349 7.53566 5.0136 7.59576 5.00772 7.64805C5.00478 7.67417 5.00285 7.69831 5.00166 7.72031C5.00106 7.7313 5.00065 7.74177 5.00038 7.75167C5.00025 7.75662 5.00015 7.76144 5.00009 7.76611C5.00006 7.76845 5.00004 7.77075 5.00002 7.77302C5.00002 7.77415 5.00001 7.77583 5.00001 7.77639C5 7.77805 5 7.77971 6 7.77971ZM18 7.77971C19 7.77971 19 7.77805 19 7.77639C19 7.77583 19 7.77415 19 7.77302C19 7.77075 18.9999 7.76845 18.9999 7.76611C18.9998 7.76144 18.9998 7.75662 18.9996 7.75167C18.9994 7.74177 18.9989 7.7313 18.9983 7.72031C18.9971 7.69831 18.9952 7.67417 18.9923 7.64805C18.9864 7.59576 18.9765 7.53566 18.9605 7.46912C18.9282 7.33514 18.872 7.17905 18.7781 7.01177C18.5869 6.67166 18.2648 6.32914 17.7602 6.02981C16.7811 5.44893 15.0662 5 12 5V7C14.9338 7 16.2189 7.44092 16.7398 7.7499C16.8642 7.82373 16.9386 7.88626 16.9805 7.9277C17.0015 7.9485 17.0151 7.96462 17.0231 7.97514C17.0312 7.98563 17.0343 7.9913 17.0344 7.99149C17.0346 7.99168 17.0321 7.98733 17.0285 7.978C17.0249 7.96872 17.0204 7.95528 17.0161 7.93735C17.0118 7.91948 17.0077 7.89761 17.0048 7.8714C17.0033 7.85831 17.0021 7.84416 17.0013 7.8289C17.0009 7.82127 17.0006 7.81336 17.0003 7.80517C17.0002 7.80107 17.0001 7.7969 17.0001 7.79266C17.0001 7.79054 17 7.7884 17 7.78624C17 7.78516 17 7.78352 17 7.78299C17 7.78135 17 7.77971 18 7.77971ZM7 9.5V7.77971H5V9.5H7ZM19 9.5V7.77971H17V9.5H19ZM19 17.3478V14.1188H17V17.3478H19ZM7 17.3478V14.1188H5V17.3478H7ZM18 13.1188H6V15.1188H18V13.1188ZM8 20.3478H10.2857V18.3478H8V20.3478ZM10.2857 20.3478H13.7143V18.3478H10.2857V20.3478ZM13.7143 20.3478H16V18.3478H13.7143V20.3478ZM9.56776 18.6517L6.99633 21.3039L8.43224 22.6961L11.0037 20.0439L9.56776 18.6517ZM17.0037 21.3039L14.4322 18.6517L12.9963 20.0439L15.5678 22.6961L17.0037 21.3039ZM7 3.5H12.5V1.5H7V3.5ZM12.5 3.5H17V1.5H12.5V3.5ZM11.5101 2.35858L11.0101 5.85858L12.9899 6.14142L13.4899 2.64142L11.5101 2.35858ZM7 14.1188V9.5H5V14.1188H7ZM19 14.1188V9.5H17V14.1188H19ZM6 10.5H18V8.5H6V10.5ZM17 17.3478C17 17.9001 16.5523 18.3478 16 18.3478V20.3478C17.6569 20.3478 19 19.0047 19 17.3478H17ZM5 17.3478C5 19.0047 6.34315 20.3478 8 20.3478V18.3478C7.44772 18.3478 7 17.9001 7 17.3478H5Z" fill="#28293D"/>
<circle cx="12" cy="16.75" r="1.25" fill="#28293D"/>
</svg>
