<svg width="24" height="24" viewBox="0 0 24 24" fill="none" xmlns="http://www.w3.org/2000/svg">
<path d="M2 16L1 16L0.999994 17H2V16ZM16 5.00001H17V4.00001L16 4.00001V5.00001ZM22 16V17H23V16H22ZM22 12H23V11.638L22.7682 11.3598L22 12ZM19.5 9.00001L20.2682 8.35982L19.9684 8.00001H19.5V9.00001ZM1.00006 5.99999L1 16L3 16L3.00006 6L1.00006 5.99999ZM16 4.00001L3.00006 4L3.00006 6L16 6.00001V4.00001ZM22.7682 11.3598L20.2682 8.35982L18.7318 9.64019L21.2318 12.6402L22.7682 11.3598ZM17 9.00001V5.00001H15V9.00001H17ZM19.5 8.00001H16V10H19.5V8.00001ZM23 13V12H21V13H23ZM17 13V9.00001H15V13H17ZM22 12H16V14H22V12ZM17 16V14.5H15V16H17ZM17 14.5V13H15V14.5H17ZM23 16V14.5H21V16H23ZM23 14.5V13H21V14.5H23ZM16 15.5H22V13.5H16V15.5ZM7 17C7 17.5523 6.55228 18 6 18V20C7.65685 20 9 18.6569 9 17H7ZM6 18C5.44772 18 5 17.5523 5 17H3C3 18.6569 4.34315 20 6 20V18ZM19 17C19 17.5523 18.5523 18 18 18V20C19.6569 20 21 18.6569 21 17H19ZM18 18C17.4477 18 17 17.5523 17 17H15C15 18.6569 16.3431 20 18 20V18ZM6 16C6.36888 16 6.69242 16.1992 6.86683 16.5007L8.59804 15.4993C8.08084 14.6052 7.11168 14 6 14V16ZM6.86683 16.5007C6.95133 16.6468 7 16.8162 7 17H9C9 16.4552 8.85389 15.9416 8.59804 15.4993L6.86683 16.5007ZM7.73244 17H16V15H7.73244V17ZM2 17H4.26756V15H2V17ZM5 17C5 16.8162 5.04867 16.6468 5.13317 16.5007L3.40196 15.4993C3.14611 15.9416 3 16.4552 3 17H5ZM5.13317 16.5007C5.30758 16.1992 5.63112 16 6 16V14C4.88832 14 3.91916 14.6052 3.40196 15.4993L5.13317 16.5007ZM17 17C17 16.8162 17.0487 16.6468 17.1332 16.5007L15.402 15.4993C15.1461 15.9416 15 16.4552 15 17H17ZM17.1332 16.5007C17.3076 16.1992 17.6311 16 18 16V14C16.8883 14 15.9192 14.6052 15.402 15.4993L17.1332 16.5007ZM16 17H16.2676V15H16V17ZM19.7324 17H22V15H19.7324V17ZM18 16C18.3689 16 18.6924 16.1992 18.8668 16.5007L20.598 15.4993C20.0808 14.6052 19.1117 14 18 14V16ZM18.8668 16.5007C18.9513 16.6468 19 16.8162 19 17H21C21 16.4552 20.8539 15.9416 20.598 15.4993L18.8668 16.5007ZM3.00006 6H3.00006L3.00006 4C1.89549 4 1.00007 4.89542 1.00006 5.99999L3.00006 6Z" fill="#28293D"/>
</svg>
