<svg width="24" height="24" viewBox="0 0 24 24" fill="none" xmlns="http://www.w3.org/2000/svg">
<path d="M10.5858 22L2 13.4142L3.41421 12L12 20.5858L10.5858 22ZM2 10.5858L10.5858 2L12 3.41421L3.41421 12L2 10.5858ZM22 13.4142L13.4142 22L12 20.5858L20.5858 12L22 13.4142ZM13.4142 2L22 10.5858L20.5858 12L12 3.41421L13.4142 2ZM10.5858 2C11.3668 1.21895 12.6332 1.21895 13.4142 2L12 3.41421L12 3.41421L10.5858 2ZM2 13.4142C1.21895 12.6332 1.21895 11.3668 2 10.5858L3.41421 12L3.41421 12L2 13.4142ZM12 20.5858L12 20.5858L13.4142 22C12.6332 22.7811 11.3668 22.7811 10.5858 22L12 20.5858ZM20.5858 12L20.5858 12L22 10.5858C22.7811 11.3668 22.781 12.6332 22 13.4142L20.5858 12Z" fill="#28293D"/>
<path d="M9 10H14V12H9V10ZM16 12V15H14V12H16ZM14 10C15.1046 10 16 10.8954 16 12H14H14V10Z" fill="#28293D"/>
</svg>
