<svg width="24" height="24" viewBox="0 0 24 24" fill="none" xmlns="http://www.w3.org/2000/svg">
<path d="M19 12C19 12.2834 18.9832 12.563 18.9504 12.8376M12 19C13.9775 19 15.7635 18.18 17.0364 16.8615M12 5C11.7166 5 11.4371 5.01684 11.1625 5.04958M5 12C5 10.0224 5.82004 8.23642 7.13862 6.96343M7.13862 6.96343C7.04762 7.4618 7.00009 7.97535 7.00009 8.5C7.00009 13.1944 10.8057 17 15.5001 17C16.0247 17 16.5381 16.9525 17.0364 16.8615M7.13862 6.96343C8.20881 5.93023 9.6074 5.23499 11.1625 5.04958M11.1625 5.04958C11.0562 5.51596 11.0001 6.00142 11.0001 6.5C11.0001 10.0899 13.9102 13 17.5001 13C17.9986 13 18.4841 12.9439 18.9504 12.8376M18.9504 12.8376C18.765 14.3927 18.0697 15.7913 17.0364 16.8615" stroke="#3E7BFA" stroke-width="2"/>
<path d="M16.0004 6.25472C14.8666 5.46385 13.4876 5.00003 12.0004 5.00003C11.717 5.00003 11.4375 5.01687 11.1629 5.04961C9.6078 5.23502 8.20921 5.93026 7.13902 6.96346C5.82044 8.23645 5.0004 10.0225 5.0004 12C5.0004 13.4873 5.46421 14.8662 6.25509 16M16.0004 6.25472C16.68 6.72879 17.2716 7.32038 17.7457 8.00003M16.0004 6.25472L17.7422 1.67853C17.8542 1.38406 18.2637 1.31728 18.5097 1.51426C19.0832 1.97367 19.9849 2.39768 21.1014 2.24259C21.4497 2.1942 21.8062 2.55068 21.7578 2.89902C21.6027 4.01553 22.0268 4.91721 22.4862 5.49077C22.6831 5.73668 22.6164 6.1462 22.3219 6.25828L17.7457 8.00003M17.7457 8.00003C18.5366 9.13386 19.0004 10.5128 19.0004 12C19.0004 12.2835 18.9835 12.563 18.9508 12.8376C18.7654 14.3928 18.0701 15.7914 17.0368 16.8615C15.7639 18.18 13.9779 19 12.0004 19C10.5131 19 9.13423 18.5362 8.0004 17.7453M8.0004 17.7453C7.32075 17.2713 6.72916 16.6797 6.25509 16M8.0004 17.7453L6.25864 22.3215C6.14656 22.616 5.73705 22.6828 5.49114 22.4858C4.91757 22.0264 4.0159 21.6024 2.89938 21.7575C2.55105 21.8059 2.19457 21.4494 2.24295 21.101C2.39805 19.9845 1.97404 19.0829 1.51462 18.5093C1.31765 18.2634 1.38443 17.8539 1.6789 17.7418L6.25509 16" stroke="#555770" stroke-width="2"/>
</svg>
