<svg width="24" height="24" viewBox="0 0 24 24" fill="none" xmlns="http://www.w3.org/2000/svg">
<g clip-path="url(#clip0_402_17166)">
<path d="M18.8451 14.2318L16.8879 6.60648C16.7485 6.06338 16.1899 5.74102 15.6499 5.89206L9.66233 7.56691C9.14238 7.71235 8.83176 8.24426 8.9606 8.76857L10.0004 13C10.0568 13.2198 10.0204 13.4524 9.90395 13.6406C9.86335 13.7062 9.80464 13.7578 9.74275 13.8039L8.43972 14.7737C7.51137 15.4647 6.55791 16.2278 6.2139 17.3327C5.96963 18.1173 5.94147 18.9705 6.15207 19.791C6.7447 22.0999 9.01808 23.4701 11.2298 22.8514L11.759 22.7034C12.2463 22.5671 12.7094 22.3496 13.1304 22.0594L16.9587 19.4207C18.5917 18.2952 19.3516 16.205 18.8451 14.2318Z" stroke="#555770" stroke-width="2"/>
<path d="M6.03121 4.65182C5.90124 4.14545 6.18909 3.62497 6.67415 3.48929L15.4569 1.03258C15.9419 0.896898 16.4405 1.1974 16.5705 1.70376L17.2765 4.45434C17.4065 4.9607 17.1186 5.48118 16.6335 5.61686L8.72908 7.8279L7.85081 8.07357C7.36575 8.20925 6.86718 7.90875 6.73721 7.40239L6.03121 4.65182Z" stroke="#3E7BFA" stroke-width="2"/>
</g>
<defs>
<clipPath id="clip0_402_17166">
<rect width="24" height="24" fill="white"/>
</clipPath>
</defs>
</svg>
