<svg width="24" height="24" viewBox="0 0 24 24" fill="none" xmlns="http://www.w3.org/2000/svg">
<path d="M12 3L12.763 2.35358L12.0239 1.48122L11.2577 2.3299L12 3ZM6.58333 9L5.84107 8.3299L4.33333 10H6.58333V9ZM10 9L10.7682 9.64018C11.0166 9.3421 11.0702 8.92723 10.9056 8.57584C10.741 8.22446 10.388 8 10 8V9ZM5 15L4.23178 14.3598L2.86496 16H5V15ZM9 15L9.76822 15.6402C10.0166 15.3421 10.0702 14.9272 9.90559 14.5758C9.74101 14.2245 9.38802 14 9 14V15ZM4 21L3.23178 20.3598L1.86496 22H4V21ZM17.0833 9V10H19.2412L17.8463 8.35358L17.0833 9ZM14 9V8C13.612 8 13.259 8.22446 13.0944 8.57584C12.9298 8.92723 12.9834 9.3421 13.2318 9.64018L14 9ZM19 15V16H21.135L19.7682 14.3598L19 15ZM15 15V14C14.612 14 14.259 14.2245 14.0944 14.5758C13.9298 14.9272 13.9834 15.3421 14.2318 15.6402L15 15ZM20 21V22H22.135L20.7682 20.3598L20 21ZM11.2577 2.3299L5.84107 8.3299L7.3256 9.6701L12.7423 3.6701L11.2577 2.3299ZM6.58333 10H10V8H6.58333V10ZM9.23178 8.35982L4.23178 14.3598L5.76822 15.6402L10.7682 9.64018L9.23178 8.35982ZM5 16H9V14H5V16ZM8.23178 14.3598L3.23178 20.3598L4.76822 21.6402L9.76822 15.6402L8.23178 14.3598ZM11.237 3.64642L16.3203 9.64642L17.8463 8.35358L12.763 2.35358L11.237 3.64642ZM17.0833 8H14V10H17.0833V8ZM13.2318 9.64018L18.2318 15.6402L19.7682 14.3598L14.7682 8.35982L13.2318 9.64018ZM19 14H15V16H19V14ZM14.2318 15.6402L19.2318 21.6402L20.7682 20.3598L15.7682 14.3598L14.2318 15.6402ZM4 22H20V20H4V22Z" fill="#555770"/>
<mask id="mask0_402_17176" style="mask-type:alpha" maskUnits="userSpaceOnUse" x="12" y="1" width="12" height="22">
<rect x="12" y="1" width="12" height="22" fill="black"/>
</mask>
<g mask="url(#mask0_402_17176)">
<path d="M12 3L12.763 2.35358L12.0239 1.48122L11.2577 2.3299L12 3ZM6.58333 9L5.84107 8.3299L4.33333 10H6.58333V9ZM10 9L10.7682 9.64018C11.0166 9.3421 11.0702 8.92723 10.9056 8.57584C10.741 8.22446 10.388 8 10 8V9ZM5 15L4.23178 14.3598L2.86496 16H5V15ZM9 15L9.76822 15.6402C10.0166 15.3421 10.0702 14.9272 9.90559 14.5758C9.74101 14.2245 9.38802 14 9 14V15ZM4 21L3.23178 20.3598L1.86496 22H4V21ZM17.0833 9V10H19.2412L17.8463 8.35358L17.0833 9ZM14 9V8C13.612 8 13.259 8.22446 13.0944 8.57584C12.9298 8.92723 12.9834 9.3421 13.2318 9.64018L14 9ZM19 15V16H21.135L19.7682 14.3598L19 15ZM15 15V14C14.612 14 14.259 14.2245 14.0944 14.5758C13.9298 14.9272 13.9834 15.3421 14.2318 15.6402L15 15ZM20 21V22H22.135L20.7682 20.3598L20 21ZM11.2577 2.3299L5.84107 8.3299L7.3256 9.6701L12.7423 3.6701L11.2577 2.3299ZM6.58333 10H10V8H6.58333V10ZM9.23178 8.35982L4.23178 14.3598L5.76822 15.6402L10.7682 9.64018L9.23178 8.35982ZM5 16H9V14H5V16ZM8.23178 14.3598L3.23178 20.3598L4.76822 21.6402L9.76822 15.6402L8.23178 14.3598ZM11.237 3.64642L16.3203 9.64642L17.8463 8.35358L12.763 2.35358L11.237 3.64642ZM17.0833 8H14V10H17.0833V8ZM13.2318 9.64018L18.2318 15.6402L19.7682 14.3598L14.7682 8.35982L13.2318 9.64018ZM19 14H15V16H19V14ZM14.2318 15.6402L19.2318 21.6402L20.7682 20.3598L15.7682 14.3598L14.2318 15.6402ZM4 22H20V20H4V22Z" fill="#3E7BFA"/>
</g>
</svg>
