<svg width="24" height="24" viewBox="0 0 24 24" fill="none" xmlns="http://www.w3.org/2000/svg">
<path d="M4.14103 12.3692L7.70015 16.6402C7.89015 16.8682 8.1716 17 8.46837 17H16.8406C17.2406 17 17.6022 16.7616 17.7597 16.3939L18.9542 13.6069C19.9478 11.2884 20.0286 8.67994 19.1801 6.30438L18.621 4.73881C18.2402 3.67249 17.2914 2.91143 16.1679 2.77099L12.5505 2.31882C11.0827 2.13534 9.70024 3.04916 9.29386 4.47149L8.272 8.048C8.12373 8.56695 7.57273 8.85758 7.06072 8.68691L6.72965 8.57655C5.70845 8.23615 4.58577 8.62135 3.98867 9.517C3.40227 10.3966 3.46426 11.5571 4.14103 12.3692Z" stroke="#555770" stroke-width="2"/>
<path d="M6 18C6 17.4477 6.44772 17 7 17H8H17.5V17C17.7761 17 18 17.2239 18 17.5V21C18 21.5523 17.5523 22 17 22H7C6.44772 22 6 21.5523 6 21V18Z" stroke="#3E7BFA" stroke-width="2"/>
</svg>
