<svg width="24" height="24" viewBox="0 0 24 24" fill="none" xmlns="http://www.w3.org/2000/svg">
<path d="M1.43652 8.51213C0.854493 7.9301 0.854494 6.98645 1.43652 6.40442C2.01855 5.8224 2.9622 5.8224 3.54422 6.40442L17.5956 20.4558C18.1776 21.0378 18.1776 21.9815 17.5956 22.5635C17.0135 23.1455 16.0699 23.1455 15.4879 22.5635L1.43652 8.51213Z" stroke="#555770" stroke-width="2"/>
<path d="M6.40442 3.54422C5.8224 2.9622 5.8224 2.01855 6.40442 1.43652C6.98645 0.854493 7.9301 0.854493 8.51213 1.43652L22.5635 15.4879C23.1455 16.0699 23.1455 17.0135 22.5635 17.5956C21.9815 18.1776 21.0378 18.1776 20.4558 17.5956L6.40442 3.54422Z" stroke="#555770" stroke-width="2"/>
<path d="M14.228 10.506L13.494 9.77198C13.0887 9.36662 13.0887 8.70939 13.494 8.30402C13.8994 7.89866 14.5566 7.89866 14.962 8.30402L15.696 9.038C16.1013 9.44337 16.1013 10.1006 15.696 10.506C15.2906 10.9113 14.6334 10.9113 14.228 10.506Z" fill="#3E7BFA"/>
<path d="M9.038 15.696L8.30402 14.962C7.89866 14.5566 7.89866 13.8994 8.30402 13.494C8.70939 13.0887 9.36662 13.0887 9.77198 13.494L10.506 14.228C10.9113 14.6334 10.9113 15.2906 10.506 15.696C10.1006 16.1013 9.44337 16.1013 9.038 15.696Z" fill="#3E7BFA"/>
<path d="M14.228 10.506L13.494 9.77198C13.0887 9.36662 13.0887 8.70939 13.494 8.30402C13.8994 7.89866 14.5566 7.89866 14.962 8.30402L15.696 9.038C16.1013 9.44337 16.1013 10.1006 15.696 10.506C15.2906 10.9113 14.6334 10.9113 14.228 10.506Z" stroke="#3E7BFA" stroke-width="2"/>
<path d="M9.038 15.696L8.30402 14.962C7.89866 14.5566 7.89866 13.8994 8.30402 13.494C8.70939 13.0887 9.36662 13.0887 9.77198 13.494L10.506 14.228C10.9113 14.6334 10.9113 15.2906 10.506 15.696C10.1006 16.1013 9.44337 16.1013 9.038 15.696Z" stroke="#3E7BFA" stroke-width="2"/>
</svg>
