<svg width="24" height="24" viewBox="0 0 24 24" fill="none" xmlns="http://www.w3.org/2000/svg">
<path d="M3.14025 8.30032C1.64906 6.88622 1.61542 4.52167 3.06908 3.06908C4.55981 1.57944 6.99975 1.65823 8.401 3.23222C10.4154 5.49495 13.1096 8.48326 14.5626 9.93519C15.9684 11.34 18.6593 13.7517 20.7574 15.604C22.3388 17.0002 22.4254 19.4435 20.9332 20.9346C19.4835 22.3832 17.1236 22.3498 15.7123 20.8637C13.6944 18.739 10.9915 15.9095 9.5364 14.4554C8.08385 13.004 5.26269 10.313 3.14025 8.30032Z" stroke="#555770" stroke-width="2"/>
<path d="M8 8.25C8 7.83579 8.33579 7.5 8.75 7.5C9.16421 7.5 9.5 7.83579 9.5 8.25V9.75C9.5 10.1642 9.16421 10.5 8.75 10.5C8.33579 10.5 8 10.1642 8 9.75V8.25Z" stroke="#3E7BFA" stroke-width="1.5"/>
<path d="M14 14.25C14 13.8358 14.3358 13.5 14.75 13.5C15.1642 13.5 15.5 13.8358 15.5 14.25V15.75C15.5 16.1642 15.1642 16.5 14.75 16.5C14.3358 16.5 14 16.1642 14 15.75V14.25Z" stroke="#3E7BFA" stroke-width="1.5"/>
</svg>
