<svg width="24" height="24" viewBox="0 0 24 24" fill="none" xmlns="http://www.w3.org/2000/svg">
<path d="M16.5 13.3969L21 9M21 9V5M21 9H23.5" stroke="#3E7BFA" stroke-width="2"/>
<path d="M6.53513 8C6.19479 7.41165 6 6.72857 6 6C6 4.80531 6.52375 3.73294 7.35418 3H7.5H12.5H12.6458C13.4762 3.73294 14 4.80531 14 6C14 6.72857 13.8052 7.41165 13.4649 8M6.39241 10C4.35958 11.2249 3 13.4537 3 16C3 19.866 6.13401 23 10 23C13.866 23 17 19.866 17 16C17 15.0801 16.8225 14.2016 16.5 13.3969C15.9298 11.9743 14.906 10.7824 13.6076 10" stroke="#555770" stroke-width="2"/>
<path d="M11 10H6.39241H5.6C5.54477 10 5.5 9.95523 5.5 9.9V8.1C5.5 8.04477 5.54477 8 5.6 8H6.53513H13.4649H14.4C14.4552 8 14.5 8.04477 14.5 8.1V9.9C14.5 9.95523 14.4552 10 14.4 10H13.6076H12M11 10V15.9C11 15.9552 11.0448 16 11.1 16H11.9C11.9552 16 12 15.9552 12 15.9V10M11 10H12M5 3L7.35418 3H7.5M15 3L12.6458 3H12.5M7.5 3V1.1C7.5 1.04477 7.54477 1 7.6 1H12.4C12.4552 1 12.5 1.04477 12.5 1.1V3M7.5 3H12.5" stroke="#3E7BFA" stroke-width="2"/>
</svg>
