<svg width="24" height="24" viewBox="0 0 24 24" fill="none" xmlns="http://www.w3.org/2000/svg">
<path d="M12.25 14.75V9.25H10.75V14.75H12.25ZM11.5 8.5H8.5V10H11.5V8.5ZM11.5 10H14.5V8.5H11.5V10ZM6 8.5H3V10H6V8.5ZM1.75 9.75V12.25H3.25V9.75H1.75ZM1.75 12.25V14.75H3.25V12.25H1.75ZM7.25 14.75V12.25H5.75V14.75H7.25ZM7.25 12.25V9.75H5.75V12.25H7.25ZM2.5 13H6.5V11.5H2.5V13ZM17.25 14.75V9.75H15.75V14.75H17.25ZM20.75 9.75V14.75H22.25V9.75H20.75ZM17 10H19V8.5H17V10ZM19 10H21V8.5H19V10ZM18.25 9.25V13.75H19.75V9.25H18.25ZM22.25 9.75C22.25 9.05964 21.6904 8.5 21 8.5V10C20.8619 10 20.75 9.88807 20.75 9.75H22.25ZM17.25 9.75C17.25 9.88807 17.1381 10 17 10V8.5C16.3096 8.5 15.75 9.05964 15.75 9.75H17.25ZM3 8.5C2.30964 8.5 1.75 9.05964 1.75 9.75H3.25C3.25 9.88807 3.13807 10 3 10V8.5ZM6 10C5.86193 10 5.75 9.88807 5.75 9.75H7.25C7.25 9.05964 6.69036 8.5 6 8.5V10Z" fill="#28293D"/>
</svg>
