<svg width="24" height="24" viewBox="0 0 24 24" fill="none" xmlns="http://www.w3.org/2000/svg">
<path d="M6.41848 2V1H4.93487L5.49154 2.37521L6.41848 2ZM17.5815 2L18.5085 2.37521L19.0651 1H17.5815V2ZM5.36827 9.52417L4.54194 8.96098L4.5399 8.96399L5.36827 9.52417ZM18.6384 9.53403L19.4676 8.97508L19.4647 8.97084L18.6384 9.53403ZM17.0884 6L18.0736 5.8288L17.0884 6ZM19 14C19 17.866 15.866 21 12 21V23C16.9706 23 21 18.9706 21 14H19ZM12 21C8.13401 21 5 17.866 5 14H3C3 18.9706 7.02944 23 12 23V21ZM5.49154 2.37521C5.81912 3.18446 6 4.06987 6 5H8C8 3.80833 7.76787 2.6684 7.34542 1.62479L5.49154 2.37521ZM18 5C18 4.06987 18.1809 3.18446 18.5085 2.37521L16.6546 1.62479C16.2321 2.6684 16 3.80833 16 5H18ZM6.41848 3H17.5815V1H6.41848V3ZM5 14C5 12.5477 5.44116 11.2015 6.19664 10.0843L4.5399 8.96399C3.56775 10.4016 3 12.136 3 14H5ZM17.8092 10.093C18.5611 11.2085 19 12.5515 19 14H21C21 12.1408 20.4352 10.4105 19.4676 8.97509L17.8092 10.093ZM6 5C6 5.27635 5.9746 5.55311 5.92678 5.82958L7.89753 6.17042C7.96329 5.79019 8 5.3992 8 5H6ZM5.92678 5.82958C5.7367 6.92861 5.1963 8.0009 4.54194 8.96098L6.1946 10.0874C6.93413 9.0023 7.64011 7.65878 7.89753 6.17042L5.92678 5.82958ZM19.4647 8.97084C18.8099 8.01009 18.2651 6.93095 18.0736 5.8288L16.1031 6.1712C16.3622 7.66231 17.0726 9.01228 17.8121 10.0972L19.4647 8.97084ZM18.0736 5.8288C18.0255 5.55208 18 5.27554 18 5H16C16 5.39929 16.037 5.79061 16.1031 6.1712L18.0736 5.8288ZM6.91215 7H17.0884V5H6.91215V7Z" fill="#28293D"/>
<path d="M12.2425 13.0299C11.7839 12.9152 11.4331 12.7623 11.2178 12.5967C11.0287 12.4513 11 12.3481 11 12.25H9C9 13.1184 9.44901 13.7596 9.99871 14.1823C10.5222 14.5848 11.1715 14.8236 11.7575 14.9701L12.2425 13.0299ZM11 12.25C11 11.957 11.3181 11.5 12 11.5V9.5C10.4728 9.5 9 10.61 9 12.25H11ZM12 11.5C12.6819 11.5 13 11.957 13 12.25H15C15 10.61 13.5272 9.5 12 9.5V11.5ZM13 15.75C13 16.043 12.6819 16.5 12 16.5V18.5C13.5272 18.5 15 17.39 15 15.75H13ZM12 16.5C11.3181 16.5 11 16.043 11 15.75H9C9 17.39 10.4728 18.5 12 18.5V16.5ZM11.7575 14.9701C12.1894 15.0781 12.5444 15.2308 12.7693 15.402C12.9746 15.5583 13 15.6662 13 15.75H15C15 14.8673 14.5254 14.2252 13.9807 13.8106C13.4556 13.4109 12.8106 13.1719 12.2425 13.0299L11.7575 14.9701ZM13 10.5V9H11V10.5H13ZM11 17.5V19H13V17.5H11Z" fill="#28293D"/>
</svg>
