<svg width="24" height="24" viewBox="0 0 24 24" fill="none" xmlns="http://www.w3.org/2000/svg">
<path d="M8 11L8.70711 10.2929L8 9.58579L7.29289 10.2929L8 11ZM12 15L11.2929 15.7071L12 16.4142L12.7071 15.7071L12 15ZM20 7H21V6H20V7ZM4 20H3V21H4V20ZM4.70711 15.7071L8.70711 11.7071L7.29289 10.2929L3.29289 14.2929L4.70711 15.7071ZM7.29289 11.7071L11.2929 15.7071L12.7071 14.2929L8.70711 10.2929L7.29289 11.7071ZM20 6H16V8H20V6ZM19 7V11H21V7H19ZM4 21H21V19H4V21ZM5 20V15H3V20H5ZM5 15V4H3V15H5ZM12.7071 15.7071L20.7071 7.70711L19.2929 6.29289L11.2929 14.2929L12.7071 15.7071Z" fill="#28293D"/>
</svg>
