<svg width="24" height="24" viewBox="0 0 24 24" fill="none" xmlns="http://www.w3.org/2000/svg">
<path d="M17 7L7 17M22 12C22 17.5228 17.5228 22 12 22C6.47715 22 2 17.5228 2 12C2 6.47715 6.47715 2 12 2C17.5228 2 22 6.47715 22 12Z" stroke="#28293D" stroke-width="2"/>
<path d="M9.5 8.5C9.5 9.05228 9.05228 9.5 8.5 9.5V11.5C10.1569 11.5 11.5 10.1569 11.5 8.5H9.5ZM8.5 9.5C7.94772 9.5 7.5 9.05228 7.5 8.5H5.5C5.5 10.1569 6.84315 11.5 8.5 11.5V9.5ZM7.5 8.5C7.5 7.94772 7.94772 7.5 8.5 7.5V5.5C6.84315 5.5 5.5 6.84315 5.5 8.5H7.5ZM8.5 7.5C9.05228 7.5 9.5 7.94772 9.5 8.5H11.5C11.5 6.84315 10.1569 5.5 8.5 5.5V7.5ZM16.5 15.5C16.5 16.0523 16.0523 16.5 15.5 16.5V18.5C17.1569 18.5 18.5 17.1569 18.5 15.5H16.5ZM15.5 16.5C14.9477 16.5 14.5 16.0523 14.5 15.5H12.5C12.5 17.1569 13.8431 18.5 15.5 18.5V16.5ZM14.5 15.5C14.5 14.9477 14.9477 14.5 15.5 14.5V12.5C13.8431 12.5 12.5 13.8431 12.5 15.5H14.5ZM15.5 14.5C16.0523 14.5 16.5 14.9477 16.5 15.5H18.5C18.5 13.8431 17.1569 12.5 15.5 12.5V14.5Z" fill="#28293D"/>
</svg>
