<svg width="24" height="24" viewBox="0 0 24 24" fill="none" xmlns="http://www.w3.org/2000/svg">
<path d="M12.2195 11.0244C11.2303 10.8018 10.3726 10.4851 9.78554 10.0788C9.21841 9.68633 9 9.28801 9 8.85H7C7 10.1517 7.73692 11.0933 8.64746 11.7234C9.53802 12.3397 10.6803 12.7281 11.7805 12.9756L12.2195 11.0244ZM9 8.85C9 7.872 10.1074 6.7 12 6.7V4.7C9.47436 4.7 7 6.34861 7 8.85H9ZM12 6.7C13.8926 6.7 15 7.872 15 8.85H17C17 6.34861 14.5256 4.7 12 4.7V6.7ZM15 15.15C15 16.128 13.8926 17.3 12 17.3V19.3C14.5256 19.3 17 17.6514 17 15.15H15ZM12 17.3C10.1074 17.3 9 16.128 9 15.15H7C7 17.6514 9.47436 19.3 12 19.3V17.3ZM11.7805 12.9756C12.7208 13.1872 13.5826 13.5038 14.1848 13.9163C14.7758 14.3212 15 14.7269 15 15.15H17C17 13.8335 16.2242 12.8891 15.3152 12.2664C14.4174 11.6514 13.2792 11.2628 12.2195 11.0244L11.7805 12.9756ZM13 5.7V3H11V5.7H13ZM11 18.3V21H13V18.3H11Z" fill="#28293D"/>
</svg>
