<svg width="24" height="24" viewBox="0 0 24 24" fill="none" xmlns="http://www.w3.org/2000/svg">
<mask id="mask0_402_15244" style="mask-type:alpha" maskUnits="userSpaceOnUse" x="0" y="0" width="24" height="24">
<path d="M19.7839 19.7807L4 3.99675H0V24H24V0H5.69812V2.86644L21.1981 18.3664L19.7839 19.7807Z" fill="white"/>
</mask>
<g mask="url(#mask0_402_15244)">
<path d="M3.52441 4.94153L19.0244 20.4415" stroke="#28293D" stroke-width="2"/>
<path d="M9 8.85C9 7.872 10.1074 6.7 12 6.7V4.7C9.47436 4.7 7 6.34861 7 8.85H9ZM12 6.7C13.8926 6.7 15 7.872 15 8.85H17C17 6.34861 14.5256 4.7 12 4.7V6.7ZM15 15.15C15 16.128 13.8926 17.3 12 17.3V19.3C14.5256 19.3 17 17.6514 17 15.15H15ZM12 17.3C10.1074 17.3 9 16.128 9 15.15H7C7 17.6514 9.47436 19.3 12 19.3V17.3ZM13 5.7V3H11V5.7H13ZM11 18.3V21H13V18.3H11Z" fill="#28293D"/>
</g>
</svg>
