<svg width="24" height="24" viewBox="0 0 24 24" fill="none" xmlns="http://www.w3.org/2000/svg">
<path d="M10 8.15C10 7.172 11.1074 6 13 6V4C10.4744 4 8 5.64861 8 8.15H10ZM13 6C14.8926 6 16 7.172 16 8.15H18C18 5.64861 15.5256 4 13 4V6ZM8 8.15C8 11.1754 8.14624 13.737 7.86127 15.619C7.7208 16.5467 7.49336 17.1457 7.20791 17.5011C6.96843 17.7992 6.63162 18 6 18V20C7.16838 20 8.10657 19.5758 8.76709 18.7536C9.38164 17.9886 9.6792 16.972 9.83873 15.9185C10.1538 13.838 10 10.9746 10 8.15H8ZM6 13H16V11H6V13ZM6 20C7.15581 20 8.16641 19.7079 9.07436 19.4664C10.0023 19.2196 10.8982 19 12.0096 19V17C10.6211 17 9.51211 17.2804 8.56027 17.5336C7.58841 17.7921 6.84419 18 6 18V20ZM12.0096 19C12.3529 19 12.734 19.0867 13.2094 19.2356C13.6307 19.3675 14.2301 19.5868 14.7617 19.72C15.3297 19.8623 15.9877 19.9578 16.6861 19.8266C17.4037 19.6918 18.0802 19.334 18.7071 18.7071L17.2929 17.2929C16.9198 17.666 16.5975 17.8082 16.3169 17.8609C16.0171 17.9172 15.6776 17.8877 15.2479 17.78C14.7819 17.6632 14.3838 17.5075 13.8069 17.3269C13.2841 17.1633 12.6664 17 12.0096 17V19Z" fill="#28293D"/>
</svg>
