<svg width="24" height="24" viewBox="0 0 24 24" fill="none" xmlns="http://www.w3.org/2000/svg">
<path d="M8 20C8 20.5523 7.55228 21 7 21C6.44772 21 6 20.5523 6 20C6 19.4477 6.44772 19 7 19C7.55228 19 8 19.4477 8 20ZM18 20C18 20.5523 17.5523 21 17 21C16.4477 21 16 20.5523 16 20C16 19.4477 16.4477 19 17 19C17.5523 19 18 19.4477 18 20Z" stroke="#28293D" stroke-width="2"/>
<path d="M3.5 3L4.39443 2.55279L4.11803 2H3.5V3ZM8 12L7.10557 12.4472L7.38197 13H8V12ZM16 12V13H16.5803L16.8682 12.4961L16 12ZM19.9145 5.14961L20.7827 5.64575L19.9145 5.14961ZM1 4H3.5V2H1V4ZM8 13H16V11H8V13ZM16.8682 12.4961L20.7827 5.64575L19.0463 4.65347L15.1318 11.5039L16.8682 12.4961ZM2.60557 3.44721L3.60557 5.44721L5.39443 4.55279L4.39443 2.55279L2.60557 3.44721ZM19.8277 4H4.5V6H19.8277V4ZM6.61803 17H19V15H6.61803V17ZM3.60557 5.44721L6.60557 11.4472L8.39443 10.5528L5.39443 4.55279L3.60557 5.44721ZM6.60557 11.4472L7.10557 12.4472L8.89443 11.5528L8.39443 10.5528L6.60557 11.4472ZM6.61803 15L8.39443 11.4472L6.60557 10.5528L4.82918 14.1056L6.61803 15ZM6.61803 15L4.82918 14.1056C4.16428 15.4354 5.13127 17 6.61803 17V15ZM20.7827 5.64575C21.2018 4.91243 20.6723 4 19.8277 4V6C19.1366 6 18.7034 5.25347 19.0463 4.65347L20.7827 5.64575Z" fill="#28293D"/>
</svg>
