<svg width="24" height="24" viewBox="0 0 24 24" fill="none" xmlns="http://www.w3.org/2000/svg">
<path d="M11 10.5C9.89543 10.5 9 11.4217 9 12.5588C9 13.0223 9.03019 13.5851 9.54268 14.2006C10.0552 14.8161 13 17.5 13 17.5C13 17.5 15.9448 14.8161 16.4573 14.2006C16.9698 13.5851 17 13.0223 17 12.5588C17 11.4217 16.1046 10.5 15 10.5C13.8954 10.5 13 11.4217 13 12.5588C13 11.4217 12.1046 10.5 11 10.5Z" fill="#424242"/>
<path d="M8 6.5C8 7.32843 7.32843 8 6.5 8C5.67157 8 5 7.32843 5 6.5C5 5.67157 5.67157 5 6.5 5C7.32843 5 8 5.67157 8 6.5Z" fill="#28293D"/>
<path d="M3 11.0858V4C3 3.44772 3.44772 3 4 3H11.0858C11.351 3 11.6054 3.10536 11.7929 3.29289L20.7929 12.2929C21.1834 12.6834 21.1834 13.3166 20.7929 13.7071L13.7071 20.7929C13.3166 21.1834 12.6834 21.1834 12.2929 20.7929L3.29289 11.7929C3.10536 11.6054 3 11.351 3 11.0858Z" stroke="#28293D" stroke-width="2"/>
</svg>
