<svg width="24" height="24" viewBox="0 0 24 24" fill="none" xmlns="http://www.w3.org/2000/svg">
<path d="M3 17C3 18.2254 3.15744 19.4141 3.45319 20.5468M17 3C18.2254 3 19.4141 3.15744 20.5468 3.45319M21 7C21 5.77458 20.8426 4.58594 20.5468 3.45319M7 21C5.77458 21 4.58594 20.8426 3.45319 20.5468M20.5468 3.45319C16.3333 4.5 7.01575 9.38425 3.45319 20.5468M20.5468 3.45319C19 8.33333 13.4158 18.5842 3.45319 20.5468" stroke="#3E7BFA" stroke-width="2"/>
<path d="M21 7C21 5.77458 20.8426 4.58594 20.5468 3.45319C19.4141 3.15744 18.2254 3 17 3C15.4258 3 13.9123 3.25982 12.5 3.73891C8.38784 5.13387 5.13387 8.38784 3.73891 12.5C3.25982 13.9123 3 15.4258 3 17C3 18.2254 3.15744 19.4141 3.45319 20.5468C4.58594 20.8426 5.77458 21 7 21C8.5742 21 10.0877 20.7402 11.5 20.2611C15.6122 18.8661 18.8661 15.6122 20.2611 11.5C20.7402 10.0877 21 8.5742 21 7Z" stroke="#555770" stroke-width="2"/>
</svg>
