<svg width="24" height="24" viewBox="0 0 24 24" fill="none" xmlns="http://www.w3.org/2000/svg">
<path d="M7 3V9H17V3H7Z" stroke="#555770" stroke-width="2"/>
<path d="M11.0078 19.3751C11.0052 19.3773 11.0026 19.3796 11 19.3819C10.6931 19.6566 10.5 20.0557 10.5 20.5C10.5 21.3284 11.1716 22 12 22C12.8284 22 13.5 21.3284 13.5 20.5C13.5 20.0557 13.3069 19.6566 13 19.3819C12.9974 19.3796 12.9948 19.3773 12.9922 19.3751M11.0078 19.3751C11.2722 19.1416 11.6196 19 12 19C12.3804 19 12.7278 19.1416 12.9922 19.3751M11.0078 19.3751C11.1415 19.2552 11.3262 19.0429 11.5 18.7555V13.4921C7.83333 13.375 6 12 6 12V9.1C6 9.04477 6.04477 9 6.1 9H7H17H17.9C17.9552 9 18 9.04477 18 9.1V12C18 12 17.0674 13.399 12.5 13.4948V18.7555C12.6738 19.0429 12.8585 19.2552 12.9922 19.3751" stroke="#3E7BFA" stroke-width="2"/>
</svg>
