<svg width="24" height="24" viewBox="0 0 24 24" fill="none" xmlns="http://www.w3.org/2000/svg">
<path d="M18.5 3C19.8807 3 21 4.11929 21 5.5C21 6.88071 19.8807 8 18.5 8C17.1193 8 16 6.88071 16 5.5C16 4.11929 17.1193 3 18.5 3Z" stroke="#3E7BFA" stroke-width="2"/>
<path d="M15.0001 17L19.5001 21.5M6.07079 5.07067L14.4294 13.4292C14.4684 13.4683 14.4684 13.5316 14.4294 13.5707L11.5708 16.4293C11.5317 16.4683 11.4684 16.4683 11.4294 16.4292L3.07079 8.07067C3.03174 8.03162 3.03174 7.9683 3.07079 7.92925L5.92937 5.07067C5.96842 5.03162 6.03174 5.03162 6.07079 5.07067Z" stroke="#555770" stroke-width="2"/>
</svg>
