<svg width="24" height="24" viewBox="0 0 24 24" fill="none" xmlns="http://www.w3.org/2000/svg">
<path d="M3.99048 17.0238H5.67473L9.04325 13.0428H3.99048C2.89117 13.0428 2 13.934 2 15.0333C2 16.1326 2.89117 17.0238 3.99048 17.0238Z" stroke="#3E7BFA" stroke-width="2"/>
<path d="M6.9762 20.0095V18.3253L10.9572 14.9568V20.0095C10.9572 21.1089 10.066 22 8.96669 22C7.86738 22 6.9762 21.1088 6.9762 20.0095Z" stroke="#3E7BFA" stroke-width="2"/>
<path d="M21 3L17 7" stroke="#3E7BFA"/>
<path d="M3.99023 19.0143L5.67449 17.0238L9.043 13.0428L13.5742 7.68781C14.3083 6.82022 15.6271 6.76536 16.4308 7.56899C17.2344 8.37262 17.1795 9.69147 16.3119 10.4256L10.9569 14.9567L6.97595 18.3253L4.98548 20.0095L3.99023 19.0143Z" stroke="#555770" stroke-width="2"/>
</svg>
