<svg width="24" height="24" viewBox="0 0 24 24" fill="none" xmlns="http://www.w3.org/2000/svg">
<path d="M21 9C21 10.6569 16.9706 12 12 12M21 9V18C21 19.1779 18.9634 20.1973 16 20.6882M21 9L16 20.6882M12 12C7.02944 12 3 10.6569 3 9M12 12L8 20.6882M12 12L16 20.6882M3 9V18C3 19.1779 5.03656 20.1973 8 20.6882M3 9L8 20.6882" stroke="#3E7BFA" stroke-width="2"/>
<path d="M21 9C21 10.6569 16.9706 12 12 12C7.02944 12 3 10.6569 3 9M21 9C21 7.34315 16.9706 6 12 6C7.02944 6 3 7.34315 3 9M21 9V18C21 19.1779 18.9634 20.1973 16 20.6882C14.795 20.8878 13.4368 21 12 21C10.5632 21 9.20496 20.8878 8 20.6882C5.03656 20.1973 3 19.1779 3 18V9" stroke="#555770" stroke-width="2"/>
<path d="M9.52115 8.1221C9.0363 8.38657 8.85764 8.994 9.1221 9.47885C9.38657 9.9637 9.994 10.1424 10.4789 9.8779L9.52115 8.1221ZM21.4789 3.8779C21.9637 3.61343 22.1424 3.006 21.8779 2.52115C21.6134 2.0363 21.006 1.85764 20.5211 2.1221L21.4789 3.8779ZM10.4789 9.8779L21.4789 3.8779L20.5211 2.1221L9.52115 8.1221L10.4789 9.8779Z" fill="#3E7BFA"/>
</svg>
