<svg width="24" height="24" viewBox="0 0 24 24" fill="none" xmlns="http://www.w3.org/2000/svg">
<path d="M2 15.5C2.31579 15.5 2.73129 15.3504 3.15205 15.1457C4.31764 14.5787 5.71666 14.5119 6.77142 15.2653C7.80546 16.0039 9.20519 15.9963 10.2392 15.2577C11.2861 14.51 12.7139 14.51 13.7608 15.2577C14.7948 15.9963 16.1945 16.0039 17.2286 15.2653C18.2833 14.5119 19.6824 14.5787 20.8479 15.1457C21.2687 15.3504 21.6842 15.5 22 15.5M2 19.8031C2.31579 19.8031 2.73129 19.6535 3.15205 19.4489C4.31764 18.8818 5.71666 18.815 6.77142 19.5684C7.80546 20.307 9.20519 20.2994 10.2392 19.5608C11.2861 18.8131 12.7139 18.8131 13.7608 19.5608C14.7948 20.2994 16.1945 20.307 17.2286 19.5684C18.2833 18.815 19.6824 18.8818 20.8479 19.4489C21.2687 19.6535 21.6842 19.8031 22 19.8031" stroke="#3E7BFA" stroke-width="2"/>
<mask id="mask0_402_17345" style="mask-type:alpha" maskUnits="userSpaceOnUse" x="2" y="1" width="20" height="12">
<path d="M3.15205 11.4488C2.73129 11.6535 2.31579 11.8031 2 11.8031V1H22V11.8031C21.6842 11.8031 21.2687 11.6535 20.8479 11.4488C19.6824 10.8818 18.2833 10.815 17.2286 11.5684C16.1945 12.307 14.7948 12.2994 13.7608 11.5608C12.7139 10.8131 11.2861 10.8131 10.2392 11.5608C9.20519 12.2994 7.80546 12.307 6.77142 11.5684C5.71666 10.815 4.31764 10.8818 3.15205 11.4488Z" fill="white"/>
</mask>
<g mask="url(#mask0_402_17345)">
<path d="M12.0001 8.00002L10.15 6.14994C9.36113 5.3611 8.39952 4.77639 7.34847 4.43747C6.59426 4.19427 5.79245 4.17004 5 4.17004M12.0001 8.00002L9.75005 10M12.0001 8.00002L14.0001 10M9.75005 10L7.50005 12H16.0001L14.0001 10M9.75005 10H14.0001" stroke="#555770" stroke-width="2"/>
</g>
<path d="M19 5.5C19 6.88071 17.8807 8 16.5 8C15.1193 8 14 6.88071 14 5.5C14 4.11929 15.1193 3 16.5 3C17.8807 3 19 4.11929 19 5.5Z" fill="#555770"/>
</svg>
