<svg width="24" height="24" viewBox="0 0 24 24" fill="none" xmlns="http://www.w3.org/2000/svg">
<g clip-path="url(#clip0_402_17387)">
<path d="M9.25721 12.3787L7.13589 14.5M9.25721 12.3787C8.66433 11.7858 8.29525 11.0373 8.13977 10.2113M9.25721 12.3787C9.85009 12.9716 10.5986 13.3406 11.4246 13.4961M2.18614 19.4497L7.13589 14.5M7.13589 14.5C7.68729 13.88 8.66004 12.1543 8.13977 10.2113M7.13589 14.5C7.75587 13.9486 9.4816 12.9758 11.4246 13.4961M8.13977 10.2113C7.7832 8.31681 8.5502 6.01461 10.3179 4.24695C12.8563 1.70854 16.497 1.23367 18.4496 3.18629C20.4022 5.13891 19.9273 8.77961 17.3889 11.318C15.6213 13.0857 13.3191 13.8527 11.4246 13.4961" stroke="#555770" stroke-width="2"/>
<path d="M19.864 21.5711C18.6924 22.7427 16.7929 22.7427 15.6214 21.5711C14.4498 20.3995 14.4498 18.5 15.6214 17.3285C16.7929 16.1569 18.6924 16.1569 19.864 17.3285C21.0356 18.5 21.0356 20.3995 19.864 21.5711Z" stroke="#3E7BFA" stroke-width="2"/>
</g>
<defs>
<clipPath id="clip0_402_17387">
<rect width="24" height="24" fill="white"/>
</clipPath>
</defs>
</svg>
