<svg width="24" height="24" viewBox="0 0 24 24" fill="none" xmlns="http://www.w3.org/2000/svg">
<path d="M15 14.0001C15 14.3507 14.9398 14.6873 14.8293 15.0001M14.8293 15.0001C14.4175 16.1652 13.3062 17.0001 12 17.0001C10.6938 17.0001 9.58254 16.1652 9.17071 15.0001M14.8293 15.0001H20M9.17071 15.0001C9.06015 14.6873 9 14.3507 9 14.0001M9.17071 15.0001H4M5.00001 4H19C19.5523 4 20 4.44772 20 5V19C20 19.5523 19.5523 20 19 20H5.00001C4.44773 20 4.00001 19.5523 4.00001 19V5C4.00001 4.44772 4.44773 4 5.00001 4Z" stroke="#555770" stroke-width="2"/>
<path d="M12 8L11.2929 7.29289L12 6.58579L12.7071 7.29289L12 8ZM13 9L13.7071 8.29289L15.4142 10L13 10L13 9ZM11 9L11 10L8.58579 10L10.2929 8.29289L11 9ZM13 8L13 14L11 14L11 8L13 8ZM12.7071 7.29289L13.7071 8.29289L12.2929 9.70711L11.2929 8.70711L12.7071 7.29289ZM13 10L11 10L11 8L13 8L13 10ZM10.2929 8.29289L11.2929 7.29289L12.7071 8.70711L11.7071 9.70711L10.2929 8.29289Z" fill="#3E7BFA"/>
</svg>
