<svg width="24" height="24" viewBox="0 0 24 24" fill="none" xmlns="http://www.w3.org/2000/svg">
<path d="M2 6L12 12L22 6" stroke="#555770" stroke-width="2"/>
<path d="M22 9V6C22 5.44772 21.5523 5 21 5H3C2.44772 5 2 5.44772 2 6V18C2 18.5523 2.44772 19 3 19H12" stroke="#555770" stroke-width="2"/>
<path d="M22.125 17V14.625C22.125 13.1753 20.9497 12 19.5 12V12C18.0503 12 16.875 13.1753 16.875 14.625V17M22.125 17H16.875M22.125 17H22.9C22.9552 17 23 17.0448 23 17.1V21C23 21.5523 22.5523 22 22 22H17C16.4477 22 16 21.5523 16 21V17.1C16 17.0448 16.0448 17 16.1 17H16.875" stroke="#3E7BFA" stroke-width="2"/>
</svg>
