<svg width="24" height="24" viewBox="0 0 24 24" fill="none" xmlns="http://www.w3.org/2000/svg">
<path d="M12 12L11.5528 12.8944L12 13.118L12.4472 12.8944L12 12ZM21.5528 6.10557L11.5528 11.1056L12.4472 12.8944L22.4472 7.89443L21.5528 6.10557ZM12.4472 11.1056L2.44721 6.10557L1.55279 7.89443L11.5528 12.8944L12.4472 11.1056Z" fill="#3E7BFA"/>
<path d="M12 2L12.4472 1.10557L12 0.881966L11.5528 1.10557L12 2ZM21.7236 6.8618L22.1708 5.96738L21.7236 6.8618ZM2.27639 6.8618L1.82918 5.96738L2.27639 6.8618ZM21 20H3V22H21V20ZM21 7.30902V20H23V7.30902H21ZM3 20V7.30902H1V20H3ZM2.72361 7.75623L12.4472 2.89443L11.5528 1.10557L1.82918 5.96738L2.72361 7.75623ZM11.5528 2.89443L21.2764 7.75623L22.1708 5.96738L12.4472 1.10557L11.5528 2.89443ZM3 20H3H1C1 21.1046 1.89543 22 3 22V20ZM21 22C22.1046 22 23 21.1046 23 20H21V22ZM23 7.30902C23 6.74086 22.679 6.22146 22.1708 5.96738L21.2764 7.75623C21.107 7.67154 21 7.4984 21 7.30902H23ZM3 7.30902C3 7.4984 2.893 7.67153 2.72361 7.75623L1.82918 5.96738C1.321 6.22146 1 6.74086 1 7.30902H3Z" fill="#555770"/>
</svg>
