<svg width="24" height="24" viewBox="0 0 24 24" fill="none" xmlns="http://www.w3.org/2000/svg">
<mask id="mask0_402_18307" style="mask-type:alpha" maskUnits="userSpaceOnUse" x="0" y="0" width="24" height="24">
<path d="M19.7839 19.7807L0.00325155 0V3.99675H0V24H24V0H5.69812V2.86644L21.1981 18.3664L23.9175 21.0858L22.5033 22.5L19.7839 19.7807Z" fill="white"/>
</mask>
<g mask="url(#mask0_402_18307)">
<path d="M4 4H20C20.5523 4 21 4.44772 21 5V16V19.7919C21 19.8758 20.903 19.9224 20.8375 19.87L17.25 17H4C3.44771 17 3 16.5523 3 16V5C3 4.44772 3.44772 4 4 4Z" stroke="#3E7BFA" stroke-width="2"/>
<path d="M1.58301 3L21.0002 22.4172" stroke="#555770" stroke-width="2"/>
</g>
</svg>
