<svg width="24" height="24" viewBox="0 0 24 24" fill="none" xmlns="http://www.w3.org/2000/svg">
<path d="M4 4H20C20.5523 4 21 4.44772 21 5V16V19.7919C21 19.8758 20.903 19.9224 20.8375 19.87L17.25 17H4C3.44771 17 3 16.5523 3 16V5C3 4.44772 3.44772 4 4 4Z" stroke="#555770" stroke-width="2"/>
<mask id="mask0_402_18315" style="mask-type:alpha" maskUnits="userSpaceOnUse" x="1" y="1" width="11" height="22">
<rect width="11" height="22" transform="matrix(-1 0 0 1 12 1)" fill="black"/>
</mask>
<g mask="url(#mask0_402_18315)">
<path d="M4 4H20C20.5523 4 21 4.44772 21 5V16V19.7919C21 19.8758 20.903 19.9224 20.8375 19.87L17.25 17H4C3.44771 17 3 16.5523 3 16V5C3 4.44772 3.44772 4 4 4Z" stroke="#3E7BFA" stroke-width="2"/>
</g>
</svg>
