<svg width="24" height="24" viewBox="0 0 24 24" fill="none" xmlns="http://www.w3.org/2000/svg">
<path d="M20 4H4C3.44772 4 3 4.44772 3 5V16V19.7919C3 19.8758 3.09699 19.9224 3.16247 19.87L6.75 17H20C20.5523 17 21 16.5523 21 16V5C21 4.44772 20.5523 4 20 4Z" stroke="#555770" stroke-width="2"/>
<path d="M10.5 9.00004C10.5 8.04327 11.3376 7.34998 12.269 7.34998C13.2003 7.34998 14 8.04327 14 9.00004C14 9.7367 13.3561 9.97239 12.7641 10.5912C12.427 10.9436 12.269 11.4948 12.269 11.7404M12.269 12.6499V14" stroke="#3E7BFA" stroke-width="2"/>
</svg>
