<svg width="24" height="24" viewBox="0 0 24 24" fill="none" xmlns="http://www.w3.org/2000/svg">
<path d="M20 19L5 19C4.44772 19 4 18.5523 4 18L4 14L2 12L4 10L4 6C4 5.44771 4.44772 5 5 5L20 5C20.5523 5 21 5.44772 21 6L21 18C21 18.5523 20.5523 19 20 19Z" stroke="#555770" stroke-width="2"/>
<path d="M14 12C14 12.8284 13.3284 13.5 12.5 13.5C11.6716 13.5 11 12.8284 11 12C11 11.1716 11.6716 10.5 12.5 10.5C13.3284 10.5 14 11.1716 14 12Z" fill="#3E7BFA"/>
<path d="M9.5 12C9.5 12.8284 8.82843 13.5 8 13.5C7.17157 13.5 6.5 12.8284 6.5 12C6.5 11.1716 7.17157 10.5 8 10.5C8.82843 10.5 9.5 11.1716 9.5 12Z" fill="#3E7BFA"/>
<path d="M18.5 12C18.5 12.8284 17.8284 13.5 17 13.5C16.1716 13.5 15.5 12.8284 15.5 12C15.5 11.1716 16.1716 10.5 17 10.5C17.8284 10.5 18.5 11.1716 18.5 12Z" fill="#3E7BFA"/>
</svg>
