<svg width="24" height="24" viewBox="0 0 24 24" fill="none" xmlns="http://www.w3.org/2000/svg">
<path d="M6 22V18H18V22H6ZM18 2L18 6H6V2H18Z" stroke="#3E7BFA" stroke-width="2"/>
<path d="M3 18V6H21V18H3Z" stroke="#555770" stroke-width="2"/>
<path d="M12.7677 10.2323C12.7677 10.6563 12.424 11 12.0001 11V13C13.5286 13 14.7677 11.7609 14.7677 10.2323H12.7677ZM12.0001 11C11.5761 11 11.2325 10.6563 11.2325 10.2323H9.23246C9.23246 11.7609 10.4716 13 12.0001 13V11ZM11.2325 10.2323C11.2325 9.8084 11.5761 9.46472 12.0001 9.46472V7.46472C10.4716 7.46472 9.23246 8.70383 9.23246 10.2323H11.2325ZM12.0001 9.46472C12.424 9.46472 12.7677 9.8084 12.7677 10.2323H14.7677C14.7677 8.70383 13.5286 7.46472 12.0001 7.46472V9.46472ZM9.77717 15.8193C10.0896 14.7647 10.9951 14.0605 12.0001 14.0605V12.0605C10.019 12.0605 8.39692 13.4372 7.85955 15.2512L9.77717 15.8193ZM12.0001 14.0605C13.0051 14.0605 13.9106 14.7647 14.223 15.8193L16.1406 15.2512C15.6032 13.4372 13.9811 12.0605 12.0001 12.0605V14.0605Z" fill="#3E7BFA"/>
</svg>
