<svg width="24" height="24" viewBox="0 0 24 24" fill="none" xmlns="http://www.w3.org/2000/svg">
<path d="M7 19H6V20H7V19ZM7 6V5H6V6H7ZM7 20H13.5625V18H7V20ZM6 12.5V19H8V12.5H6ZM13.5625 11.5H7V13.5H13.5625V11.5ZM18 15.75C18 13.3507 15.9597 11.5 13.5625 11.5V13.5C14.9623 13.5 16 14.5595 16 15.75H18ZM13.5625 20C15.9597 20 18 18.1493 18 15.75H16C16 16.9405 14.9623 18 13.5625 18V20ZM7 13.5H12.875V11.5H7V13.5ZM6 6V12.5H8V6H6ZM12.875 5H7V7H12.875V5ZM17.3125 9.25C17.3125 6.85068 15.2722 5 12.875 5V7C14.2748 7 15.3125 8.05947 15.3125 9.25H17.3125ZM12.875 13.5C15.2722 13.5 17.3125 11.6493 17.3125 9.25H15.3125C15.3125 10.4405 14.2748 11.5 12.875 11.5V13.5Z" fill="#555770"/>
</svg>
