<svg width="24" height="24" viewBox="0 0 24 24" fill="none" xmlns="http://www.w3.org/2000/svg">
<path d="M16 18.5L15.2929 19.2071L16 19.9142L16.7071 19.2071L16 18.5ZM16.7071 19.2071L22.2071 13.7071L20.7929 12.2929L15.2929 17.7929L16.7071 19.2071ZM16.7071 17.7929L13.7071 14.7929L12.2929 16.2071L15.2929 19.2071L16.7071 17.7929Z" fill="#555770"/>
<mask id="mask0_402_16284" style="mask-type:alpha" maskUnits="userSpaceOnUse" x="0" y="0" width="24" height="16">
<path d="M0 0H24V13H10V16H0V0Z" fill="white"/>
</mask>
<g mask="url(#mask0_402_16284)">
<path d="M17 17L15.125 12M7 17L8.875 12M8.875 12L11.5 5H12.5L15.125 12M8.875 12H15.125" stroke="#555770" stroke-width="2"/>
</g>
</svg>
