<svg width="24" height="24" viewBox="0 0 24 24" fill="none" xmlns="http://www.w3.org/2000/svg">
<path d="M6 8V7H5V8H6ZM6 12.4444H5V13.4444H6V12.4444ZM10.3636 12.4444L11.2944 12.81L11.3636 12.6338V12.4444H10.3636ZM10.3636 8H11.3636V7H10.3636V8ZM13.6364 8V7H12.6364V8H13.6364ZM13.6364 12.4444H12.6364V13.4444H13.6364V12.4444ZM18 12.4444L18.9308 12.81L19 12.6338V12.4444H18ZM18 8H19V7H18V8ZM5 8V12.4444H7V8H5ZM6 13.4444H10.3636V11.4444H6V13.4444ZM11.3636 12.4444V8H9.36364V12.4444H11.3636ZM10.3636 7H6V9H10.3636V7ZM9.43284 12.0789L7.25103 17.6345L9.11261 18.3655L11.2944 12.81L9.43284 12.0789ZM12.6364 8V12.4444H14.6364V8H12.6364ZM13.6364 13.4444H18V11.4444H13.6364V13.4444ZM19 12.4444V8H17V12.4444H19ZM18 7H13.6364V9H18V7ZM17.0692 12.0789L14.8874 17.6345L16.749 18.3655L18.9308 12.81L17.0692 12.0789Z" fill="#555770"/>
</svg>
