<svg width="24" height="24" viewBox="0 0 24 24" fill="none" xmlns="http://www.w3.org/2000/svg">
<mask id="mask0_402_16175" style="mask-type:alpha" maskUnits="userSpaceOnUse" x="3" y="3" width="18" height="18">
<path d="M3 21L3 19L20.5 19L20.5 21L3 21Z" fill="white"/>
<path d="M20.5 21L20.5 19L21 19L21 21L20.5 21Z" fill="white"/>
<path d="M15 13L15 11L17 11L17 13L15 13Z" fill="white"/>
<path d="M15 5L15 3L17 3L17 5L15 5Z" fill="white"/>
<path d="M11 17L11 15L13 15L13 17L11 17Z" fill="white"/>
<path d="M11 13L11 11L13 11L13 13L11 13Z" fill="white"/>
<path d="M11 9L11 7L13 7L13 9L11 9Z" fill="white"/>
<path d="M11 5L11 3L13 3L13 5L11 5Z" fill="white"/>
<path d="M7 13L7 11L9 11L9 13L7 13Z" fill="white"/>
<path d="M7 5L7 3L9 3L9 5L7 5Z" fill="white"/>
<path d="M3 17L3 15L5 15L5 17L3 17Z" fill="white"/>
<path d="M19 17L19 15L21 15L21 17L19 17Z" fill="white"/>
<path d="M3 13L3 11L5 11L5 13L3 13Z" fill="white"/>
<path d="M19 13L19 11L21 11L21 13L19 13Z" fill="white"/>
<path d="M3 9L3 7L5 7L5 9L3 9Z" fill="white"/>
<path d="M19 9L19 7L21 7L21 9L19 9Z" fill="white"/>
<path d="M3 5L3 3L5 3L5 5L3 5Z" fill="white"/>
<path d="M19 5L19 3L21 3L21 5L19 5Z" fill="white"/>
</mask>
<g mask="url(#mask0_402_16175)">
<path d="M20 11H13V4H20V11ZM11 4V11H4V4H11ZM4 13H11V20H4V13ZM13 13H20V20H13V13Z" stroke="#555770" stroke-width="2"/>
</g>
</svg>
