<svg width="24" height="24" viewBox="0 0 24 24" fill="none" xmlns="http://www.w3.org/2000/svg">
<mask id="mask0_402_16199" style="mask-type:alpha" maskUnits="userSpaceOnUse" x="3" y="3" width="18" height="18">
<path d="M21 21H19V5H21V21Z" fill="white"/>
<path d="M21 5H19V3H21V5Z" fill="white"/>
<path d="M5 9H3V7H5V9Z" fill="white"/>
<path d="M5 13H3V11H5V13Z" fill="white"/>
<path d="M5 17H3V15H5V17Z" fill="white"/>
<path d="M17 21H15V19H17V21Z" fill="white"/>
<path d="M13 21H11V19H13V21Z" fill="white"/>
<path d="M9 21H7V19H9V21Z" fill="white"/>
<path d="M5 21H3V19H5V21Z" fill="white"/>
<path d="M19 5H3V3H19V5Z" fill="white"/>
</mask>
<g mask="url(#mask0_402_16199)">
<path d="M20 11H13V4H20V11ZM11 4V11H4V4H11ZM4 13H11V20H4V13ZM13 13H20V20H13V13Z" stroke="#555770" stroke-width="2"/>
</g>
</svg>
