<svg width="24" height="24" viewBox="0 0 24 24" fill="none" xmlns="http://www.w3.org/2000/svg">
<path d="M21 5.5H22V4.5H21V5.5ZM21 12V13H22V12H21ZM11 12V11H10V12H11ZM10.5 21H9.5V22H10.5V21ZM11.5 21V22H12.5V21H11.5ZM4.1 4H17.9V2H4.1V4ZM17.9 7H4.1V9H17.9V7ZM5 7.9V3.1H3V7.9H5ZM17 3.1V5.5H19V3.1H17ZM17 5.5V7.9H19V5.5H17ZM21 4.5H18V6.5H21V4.5ZM20 5.5V12H22V5.5H20ZM21 11H11V13H21V11ZM10 12V14H12V12H10ZM10 14V21H12V14H10ZM11 13H10.6V15H11V13ZM9.5 14.1V21H11.5V14.1H9.5ZM10.5 22H11V20H10.5V22ZM12.5 21V14.1H10.5V21H12.5ZM11.4 13H11V15H11.4V13ZM11.5 20H11V22H11.5V20ZM4.1 7C4.59705 7 5 7.40294 5 7.9H3C3 8.50752 3.4925 9 4.1 9V7ZM12.5 14.1C12.5 13.4925 12.0075 13 11.4 13V15C10.9029 15 10.5 14.5971 10.5 14.1H12.5ZM17.9 9C18.5075 9 19 8.50751 19 7.9H17C17 7.40294 17.4029 7 17.9 7V9ZM17.9 4C17.403 4 17 3.59706 17 3.1H19C19 2.49248 18.5075 2 17.9 2V4ZM10.6 13C9.99249 13 9.5 13.4925 9.5 14.1H11.5C11.5 14.5971 11.0971 15 10.6 15V13ZM4.1 2C3.49249 2 3 2.49249 3 3.1H5C5 3.59706 4.59706 4 4.1 4V2Z" fill="#555770"/>
</svg>
