<svg width="24" height="24" viewBox="0 0 24 24" fill="none" xmlns="http://www.w3.org/2000/svg">
<path d="M1.4 5V19H2.6V5H1.4ZM5.4 5V19H6.6V5H5.4ZM9.4 6.1V17.9H10.6V6.1H9.4ZM10.1 18.6H21.9V17.4H10.1V18.6ZM22.6 17.9V6.1H21.4V17.9H22.6ZM21.9 5.4H10.1V6.6H21.9V5.4ZM22.6 6.1C22.6 5.71341 22.2866 5.4 21.9 5.4V6.6C21.6239 6.6 21.4 6.37614 21.4 6.1H22.6ZM21.9 18.6C22.2866 18.6 22.6 18.2866 22.6 17.9H21.4C21.4 17.6239 21.6239 17.4 21.9 17.4V18.6ZM9.4 17.9C9.4 18.2866 9.7134 18.6 10.1 18.6V17.4C10.3761 17.4 10.6 17.6239 10.6 17.9H9.4ZM10.6 6.1C10.6 6.37615 10.3761 6.6 10.1 6.6V5.4C9.71341 5.4 9.4 5.7134 9.4 6.1H10.6Z" fill="#28293D"/>
<path d="M12 16L15.2 12L17.1429 14.5455L18 13.4545L20 16H16H12Z" fill="#28293D"/>
</svg>
