<svg width="24" height="24" viewBox="0 0 24 24" fill="none" xmlns="http://www.w3.org/2000/svg">
<path d="M13 20V19.4H12.4V20H13ZM21 20V20.6H21.6V20H21ZM21 7H21.6V6.4H21V7ZM13 7H12.4V7.6H13V7ZM10 5H9.4V5.6H10V5ZM6 5V5.6H6.6V5H6ZM4 22.6H12V21.4H4V22.6ZM13.6 21V20H12.4V21H13.6ZM13 20.6H21V19.4H13V20.6ZM21.6 20V7H20.4V20H21.6ZM21 7C21 6.4 21 6.4 20.9999 6.4C20.9999 6.4 20.9998 6.4 20.9998 6.4C20.9997 6.4 20.9996 6.4 20.9995 6.4C20.9994 6.4 20.9992 6.4 20.9991 6.4C20.9989 6.4 20.9987 6.4 20.9985 6.4C20.9983 6.4 20.9981 6.4 20.9979 6.4C20.9976 6.4 20.9974 6.4 20.9971 6.4C20.9968 6.4 20.9966 6.4 20.9962 6.4C20.9959 6.4 20.9956 6.4 20.9953 6.4C20.9949 6.4 20.9945 6.4 20.9941 6.4C20.9938 6.4 20.9933 6.4 20.9929 6.4C20.9925 6.4 20.992 6.4 20.9916 6.4C20.9911 6.4 20.9906 6.4 20.9901 6.4C20.9896 6.4 20.9891 6.4 20.9886 6.4C20.988 6.4 20.9875 6.4 20.9869 6.4C20.9863 6.4 20.9857 6.4 20.9851 6.4C20.9845 6.4 20.9838 6.4 20.9832 6.4C20.9825 6.4 20.9819 6.4 20.9812 6.4C20.9805 6.4 20.9798 6.4 20.979 6.4C20.9783 6.4 20.9776 6.4 20.9768 6.4C20.976 6.4 20.9752 6.4 20.9744 6.4C20.9736 6.4 20.9728 6.4 20.972 6.4C20.9711 6.4 20.9703 6.4 20.9694 6.4C20.9685 6.4 20.9676 6.4 20.9667 6.4C20.9658 6.4 20.9649 6.4 20.9639 6.4C20.963 6.4 20.962 6.4 20.961 6.4C20.96 6.4 20.959 6.4 20.958 6.4C20.957 6.4 20.9559 6.4 20.9549 6.4C20.9538 6.4 20.9527 6.4 20.9516 6.4C20.9505 6.4 20.9494 6.4 20.9483 6.4C20.9472 6.4 20.946 6.4 20.9448 6.4C20.9437 6.4 20.9425 6.4 20.9413 6.4C20.9401 6.4 20.9389 6.4 20.9376 6.4C20.9364 6.4 20.9351 6.4 20.9338 6.4C20.9326 6.4 20.9313 6.4 20.93 6.4C20.9287 6.4 20.9273 6.4 20.926 6.4C20.9246 6.4 20.9233 6.4 20.9219 6.4C20.9205 6.4 20.9191 6.4 20.9177 6.4C20.9163 6.4 20.9148 6.4 20.9134 6.4C20.9119 6.4 20.9105 6.4 20.909 6.4C20.9075 6.4 20.906 6.4 20.9045 6.4C20.9029 6.4 20.9014 6.4 20.8998 6.4C20.8983 6.4 20.8967 6.4 20.8951 6.4C20.8935 6.4 20.8919 6.4 20.8903 6.4C20.8887 6.4 20.887 6.4 20.8854 6.4C20.8837 6.4 20.882 6.4 20.8803 6.4C20.8786 6.4 20.8769 6.4 20.8752 6.4C20.8735 6.4 20.8717 6.4 20.8699 6.4C20.8682 6.4 20.8664 6.4 20.8646 6.4C20.8628 6.4 20.861 6.4 20.8592 6.4C20.8573 6.4 20.8555 6.4 20.8536 6.4C20.8518 6.4 20.8499 6.4 20.848 6.4C20.8461 6.4 20.8442 6.4 20.8422 6.4C20.8403 6.4 20.8383 6.4 20.8364 6.4C20.8344 6.4 20.8324 6.4 20.8304 6.4C20.8284 6.4 20.8264 6.4 20.8244 6.4C20.8224 6.4 20.8203 6.4 20.8182 6.4C20.8162 6.4 20.8141 6.4 20.812 6.4C20.8099 6.4 20.8078 6.4 20.8057 6.4C20.8035 6.4 20.8014 6.4 20.7992 6.4C20.797 6.4 20.7949 6.4 20.7927 6.4C20.7905 6.4 20.7883 6.4 20.786 6.4C20.7838 6.4 20.7816 6.4 20.7793 6.4C20.777 6.4 20.7748 6.4 20.7725 6.4C20.7702 6.4 20.7679 6.4 20.7655 6.4C20.7632 6.4 20.7609 6.4 20.7585 6.4C20.7561 6.4 20.7538 6.4 20.7514 6.4C20.749 6.4 20.7466 6.4 20.7442 6.4C20.7417 6.4 20.7393 6.4 20.7368 6.4C20.7344 6.4 20.7319 6.4 20.7294 6.4C20.727 6.4 20.7245 6.4 20.7219 6.4C20.7194 6.4 20.7169 6.4 20.7143 6.4C20.7118 6.4 20.7092 6.4 20.7066 6.4C20.7041 6.4 20.7015 6.4 20.6989 6.4C20.6962 6.4 20.6936 6.4 20.691 6.4C20.6883 6.4 20.6857 6.4 20.683 6.4C20.6803 6.4 20.6776 6.4 20.6749 6.4C20.6722 6.4 20.6695 6.4 20.6668 6.4C20.664 6.4 20.6613 6.4 20.6585 6.4C20.6558 6.4 20.653 6.4 20.6502 6.4C20.6474 6.4 20.6446 6.4 20.6418 6.4C20.6389 6.4 20.6361 6.4 20.6332 6.4C20.6304 6.4 20.6275 6.4 20.6246 6.4C20.6217 6.4 20.6188 6.4 20.6159 6.4C20.613 6.4 20.6101 6.4 20.6071 6.4C20.6042 6.4 20.6012 6.4 20.5982 6.4C20.5953 6.4 20.5923 6.4 20.5893 6.4C20.5863 6.4 20.5832 6.4 20.5802 6.4C20.5772 6.4 20.5741 6.4 20.571 6.4C20.568 6.4 20.5649 6.4 20.5618 6.4C20.5587 6.4 20.5556 6.4 20.5525 6.4C20.5493 6.4 20.5462 6.4 20.5431 6.4C20.5399 6.4 20.5367 6.4 20.5336 6.4C20.5304 6.4 20.5272 6.4 20.524 6.4C20.5207 6.4 20.5175 6.4 20.5143 6.4C20.511 6.4 20.5078 6.4 20.5045 6.4C20.5012 6.4 20.498 6.4 20.4947 6.4C20.4914 6.4 20.4881 6.4 20.4847 6.4C20.4814 6.4 20.4781 6.4 20.4747 6.4C20.4714 6.4 20.468 6.4 20.4646 6.4C20.4612 6.4 20.4578 6.4 20.4544 6.4C20.451 6.4 20.4476 6.4 20.4441 6.4C20.4407 6.4 20.4372 6.4 20.4338 6.4C20.4303 6.4 20.4268 6.4 20.4233 6.4C20.4198 6.4 20.4163 6.4 20.4128 6.4C20.4093 6.4 20.4057 6.4 20.4022 6.4C20.3986 6.4 20.3951 6.4 20.3915 6.4C20.3879 6.4 20.3843 6.4 20.3807 6.4C20.3771 6.4 20.3735 6.4 20.3699 6.4C20.3662 6.4 20.3626 6.4 20.3589 6.4C20.3553 6.4 20.3516 6.4 20.3479 6.4C20.3442 6.4 20.3405 6.4 20.3368 6.4C20.3331 6.4 20.3294 6.4 20.3256 6.4C20.3219 6.4 20.3181 6.4 20.3144 6.4C20.3106 6.4 20.3068 6.4 20.303 6.4C20.2992 6.4 20.2954 6.4 20.2916 6.4C20.2878 6.4 20.2839 6.4 20.2801 6.4C20.2762 6.4 20.2724 6.4 20.2685 6.4C20.2646 6.4 20.2608 6.4 20.2569 6.4C20.253 6.4 20.249 6.4 20.2451 6.4C20.2412 6.4 20.2373 6.4 20.2333 6.4C20.2294 6.4 20.2254 6.4 20.2214 6.4C20.2174 6.4 20.2134 6.4 20.2094 6.4C20.2054 6.4 20.2014 6.4 20.1974 6.4C20.1934 6.4 20.1893 6.4 20.1853 6.4C20.1812 6.4 20.1771 6.4 20.1731 6.4C20.169 6.4 20.1649 6.4 20.1608 6.4C20.1567 6.4 20.1526 6.4 20.1484 6.4C20.1443 6.4 20.1402 6.4 20.136 6.4C20.1319 6.4 20.1277 6.4 20.1235 6.4C20.1193 6.4 20.1151 6.4 20.1109 6.4C20.1067 6.4 20.1025 6.4 20.0983 6.4C20.094 6.4 20.0898 6.4 20.0856 6.4C20.0813 6.4 20.077 6.4 20.0728 6.4C20.0685 6.4 20.0642 6.4 20.0599 6.4C20.0556 6.4 20.0513 6.4 20.0469 6.4C20.0426 6.4 20.0383 6.4 20.0339 6.4C20.0296 6.4 20.0252 6.4 20.0208 6.4C20.0164 6.4 20.0121 6.4 20.0077 6.4C20.0033 6.4 19.9989 6.4 19.9944 6.4C19.99 6.4 19.9856 6.4 19.9811 6.4C19.9767 6.4 19.9722 6.4 19.9677 6.4C19.9633 6.4 19.9588 6.4 19.9543 6.4C19.9498 6.4 19.9453 6.4 19.9408 6.4C19.9363 6.4 19.9317 6.4 19.9272 6.4C19.9227 6.4 19.9181 6.4 19.9135 6.4C19.909 6.4 19.9044 6.4 19.8998 6.4C19.8952 6.4 19.8906 6.4 19.886 6.4C19.8814 6.4 19.8768 6.4 19.8722 6.4C19.8675 6.4 19.8629 6.4 19.8582 6.4C19.8536 6.4 19.8489 6.4 19.8442 6.4C19.8395 6.4 19.8348 6.4 19.8301 6.4C19.8254 6.4 19.8207 6.4 19.816 6.4C19.8113 6.4 19.8066 6.4 19.8018 6.4C19.7971 6.4 19.7923 6.4 19.7875 6.4C19.7828 6.4 19.778 6.4 19.7732 6.4C19.7684 6.4 19.7636 6.4 19.7588 6.4C19.754 6.4 19.7492 6.4 19.7443 6.4C19.7395 6.4 19.7347 6.4 19.7298 6.4C19.725 6.4 19.7201 6.4 19.7152 6.4C19.7103 6.4 19.7054 6.4 19.7005 6.4C19.6957 6.4 19.6907 6.4 19.6858 6.4C19.6809 6.4 19.676 6.4 19.671 6.4C19.6661 6.4 19.6611 6.4 19.6562 6.4C19.6512 6.4 19.6462 6.4 19.6413 6.4C19.6363 6.4 19.6313 6.4 19.6263 6.4C19.6213 6.4 19.6163 6.4 19.6112 6.4C19.6062 6.4 19.6012 6.4 19.5961 6.4C19.5911 6.4 19.586 6.4 19.581 6.4C19.5759 6.4 19.5708 6.4 19.5657 6.4C19.5607 6.4 19.5556 6.4 19.5505 6.4C19.5453 6.4 19.5402 6.4 19.5351 6.4C19.53 6.4 19.5248 6.4 19.5197 6.4C19.5145 6.4 19.5094 6.4 19.5042 6.4C19.4991 6.4 19.4939 6.4 19.4887 6.4C19.4835 6.4 19.4783 6.4 19.4731 6.4C19.4679 6.4 19.4627 6.4 19.4574 6.4C19.4522 6.4 19.447 6.4 19.4417 6.4C19.4365 6.4 19.4312 6.4 19.426 6.4C19.4207 6.4 19.4154 6.4 19.4101 6.4C19.4049 6.4 19.3996 6.4 19.3943 6.4C19.389 6.4 19.3836 6.4 19.3783 6.4C19.373 6.4 19.3677 6.4 19.3623 6.4C19.357 6.4 19.3516 6.4 19.3463 6.4C19.3409 6.4 19.3355 6.4 19.3302 6.4C19.3248 6.4 19.3194 6.4 19.314 6.4C19.3086 6.4 19.3032 6.4 19.2978 6.4C19.2923 6.4 19.2869 6.4 19.2815 6.4C19.2761 6.4 19.2706 6.4 19.2652 6.4C19.2597 6.4 19.2542 6.4 19.2488 6.4C19.2433 6.4 19.2378 6.4 19.2323 6.4C19.2268 6.4 19.2213 6.4 19.2158 6.4C19.2103 6.4 19.2048 6.4 19.1993 6.4C19.1937 6.4 19.1882 6.4 19.1827 6.4C19.1771 6.4 19.1716 6.4 19.166 6.4C19.1604 6.4 19.1549 6.4 19.1493 6.4C19.1437 6.4 19.1381 6.4 19.1325 6.4C19.1269 6.4 19.1213 6.4 19.1157 6.4C19.1101 6.4 19.1045 6.4 19.0988 6.4C19.0932 6.4 19.0876 6.4 19.0819 6.4C19.0763 6.4 19.0706 6.4 19.065 6.4C19.0593 6.4 19.0536 6.4 19.0479 6.4C19.0422 6.4 19.0366 6.4 19.0309 6.4C19.0252 6.4 19.0194 6.4 19.0137 6.4C19.008 6.4 19.0023 6.4 18.9966 6.4C18.9908 6.4 18.9851 6.4 18.9793 6.4C18.9736 6.4 18.9678 6.4 18.9621 6.4C18.9563 6.4 18.9505 6.4 18.9447 6.4C18.939 6.4 18.9332 6.4 18.9274 6.4C18.9216 6.4 18.9158 6.4 18.91 6.4C18.9041 6.4 18.8983 6.4 18.8925 6.4C18.8867 6.4 18.8808 6.4 18.875 6.4C18.8691 6.4 18.8633 6.4 18.8574 6.4C18.8516 6.4 18.8457 6.4 18.8398 6.4C18.8339 6.4 18.8281 6.4 18.8222 6.4C18.8163 6.4 18.8104 6.4 18.8045 6.4C18.7986 6.4 18.7926 6.4 18.7867 6.4C18.7808 6.4 18.7749 6.4 18.7689 6.4C18.763 6.4 18.7571 6.4 18.7511 6.4C18.7451 6.4 18.7392 6.4 18.7332 6.4C18.7273 6.4 18.7213 6.4 18.7153 6.4C18.7093 6.4 18.7033 6.4 18.6973 6.4C18.6913 6.4 18.6853 6.4 18.6793 6.4C18.6733 6.4 18.6673 6.4 18.6613 6.4C18.6552 6.4 18.6492 6.4 18.6432 6.4C18.6371 6.4 18.6311 6.4 18.625 6.4C18.619 6.4 18.6129 6.4 18.6068 6.4C18.6008 6.4 18.5947 6.4 18.5886 6.4C18.5825 6.4 18.5764 6.4 18.5703 6.4C18.5642 6.4 18.5581 6.4 18.552 6.4C18.5459 6.4 18.5398 6.4 18.5337 6.4C18.5275 6.4 18.5214 6.4 18.5153 6.4C18.5091 6.4 18.503 6.4 18.4968 6.4C18.4907 6.4 18.4845 6.4 18.4784 6.4C18.4722 6.4 18.466 6.4 18.4599 6.4C18.4537 6.4 18.4475 6.4 18.4413 6.4C18.4351 6.4 18.4289 6.4 18.4227 6.4C18.4165 6.4 18.4103 6.4 18.4041 6.4C18.3979 6.4 18.3917 6.4 18.3854 6.4C18.3792 6.4 18.373 6.4 18.3667 6.4C18.3605 6.4 18.3542 6.4 18.348 6.4C18.3417 6.4 18.3355 6.4 18.3292 6.4C18.3229 6.4 18.3166 6.4 18.3104 6.4C18.3041 6.4 18.2978 6.4 18.2915 6.4C18.2852 6.4 18.2789 6.4 18.2726 6.4C18.2663 6.4 18.26 6.4 18.2537 6.4C18.2474 6.4 18.2411 6.4 18.2347 6.4C18.2284 6.4 18.2221 6.4 18.2157 6.4C18.2094 6.4 18.203 6.4 18.1967 6.4C18.1903 6.4 18.184 6.4 18.1776 6.4C18.1713 6.4 18.1649 6.4 18.1585 6.4C18.1521 6.4 18.1458 6.4 18.1394 6.4C18.133 6.4 18.1266 6.4 18.1202 6.4C18.1138 6.4 18.1074 6.4 18.101 6.4C18.0946 6.4 18.0882 6.4 18.0818 6.4C18.0754 6.4 18.0689 6.4 18.0625 6.4C18.0561 6.4 18.0496 6.4 18.0432 6.4C18.0368 6.4 18.0303 6.4 18.0239 6.4C18.0174 6.4 18.011 6.4 18.0045 6.4C17.998 6.4 17.9916 6.4 17.9851 6.4C17.9786 6.4 17.9721 6.4 17.9657 6.4C17.9592 6.4 17.9527 6.4 17.9462 6.4C17.9397 6.4 17.9332 6.4 17.9267 6.4C17.9202 6.4 17.9137 6.4 17.9072 6.4C17.9007 6.4 17.8942 6.4 17.8876 6.4C17.8811 6.4 17.8746 6.4 17.8681 6.4C17.8615 6.4 17.855 6.4 17.8485 6.4C17.8419 6.4 17.8354 6.4 17.8288 6.4C17.8223 6.4 17.8157 6.4 17.8092 6.4C17.8026 6.4 17.796 6.4 17.7895 6.4C17.7829 6.4 17.7763 6.4 17.7697 6.4C17.7632 6.4 17.7566 6.4 17.75 6.4C17.7434 6.4 17.7368 6.4 17.7302 6.4C17.7236 6.4 17.717 6.4 17.7104 6.4C17.7038 6.4 17.6972 6.4 17.6906 6.4C17.684 6.4 17.6773 6.4 17.6707 6.4C17.6641 6.4 17.6575 6.4 17.6508 6.4C17.6442 6.4 17.6376 6.4 17.6309 6.4C17.6243 6.4 17.6176 6.4 17.611 6.4C17.6044 6.4 17.5977 6.4 17.591 6.4C17.5844 6.4 17.5777 6.4 17.5711 6.4C17.5644 6.4 17.5577 6.4 17.5511 6.4C17.5444 6.4 17.5377 6.4 17.531 6.4C17.5243 6.4 17.5177 6.4 17.511 6.4C17.5043 6.4 17.4976 6.4 17.4909 6.4C17.4842 6.4 17.4775 6.4 17.4708 6.4C17.4641 6.4 17.4574 6.4 17.4507 6.4C17.444 6.4 17.4373 6.4 17.4305 6.4C17.4238 6.4 17.4171 6.4 17.4104 6.4C17.4037 6.4 17.3969 6.4 17.3902 6.4C17.3835 6.4 17.3767 6.4 17.37 6.4C17.3632 6.4 17.3565 6.4 17.3498 6.4C17.343 6.4 17.3363 6.4 17.3295 6.4C17.3228 6.4 17.316 6.4 17.3092 6.4C17.3025 6.4 17.2957 6.4 17.289 6.4C17.2822 6.4 17.2754 6.4 17.2687 6.4C17.2619 6.4 17.2551 6.4 17.2483 6.4C17.2415 6.4 17.2348 6.4 17.228 6.4C17.2212 6.4 17.2144 6.4 17.2076 6.4C17.2008 6.4 17.194 6.4 17.1872 6.4C17.1804 6.4 17.1736 6.4 17.1668 6.4C17.16 6.4 17.1532 6.4 17.1464 6.4C17.1396 6.4 17.1328 6.4 17.126 6.4C17.1192 6.4 17.1124 6.4 17.1055 6.4C17.0987 6.4 17.0919 6.4 17.0851 6.4C17.0783 6.4 17.0714 6.4 17.0646 6.4C17.0578 6.4 17.0509 6.4 17.0441 6.4C17.0373 6.4 17.0304 6.4 17.0236 6.4C17.0167 6.4 17.0099 6.4 17.0031 6.4C16.9962 6.4 16.9894 6.4 16.9825 6.4C16.9757 6.4 16.9688 6.4 16.962 6.4C16.9551 6.4 16.9483 6.4 16.9414 6.4C16.9345 6.4 16.9277 6.4 16.9208 6.4C16.9139 6.4 16.9071 6.4 16.9002 6.4C16.8933 6.4 16.8865 6.4 16.8796 6.4C16.8727 6.4 16.8659 6.4 16.859 6.4C16.8521 6.4 16.8452 6.4 16.8383 6.4C16.8315 6.4 16.8246 6.4 16.8177 6.4C16.8108 6.4 16.8039 6.4 16.797 6.4C16.7901 6.4 16.7833 6.4 16.7764 6.4C16.7695 6.4 16.7626 6.4 16.7557 6.4C16.7488 6.4 16.7419 6.4 16.735 6.4C16.7281 6.4 16.7212 6.4 16.7143 6.4C16.7074 6.4 16.7005 6.4 16.6936 6.4C16.6867 6.4 16.6798 6.4 16.6729 6.4C16.6659 6.4 16.659 6.4 16.6521 6.4C16.6452 6.4 16.6383 6.4 16.6314 6.4C16.6245 6.4 16.6176 6.4 16.6106 6.4C16.6037 6.4 16.5968 6.4 16.5899 6.4C16.583 6.4 16.576 6.4 16.5691 6.4C16.5622 6.4 16.5553 6.4 16.5483 6.4C16.5414 6.4 16.5345 6.4 16.5276 6.4C16.5206 6.4 16.5137 6.4 16.5068 6.4C16.4998 6.4 16.4929 6.4 16.486 6.4C16.4791 6.4 16.4721 6.4 16.4652 6.4C16.4583 6.4 16.4513 6.4 16.4444 6.4C16.4374 6.4 16.4305 6.4 16.4236 6.4C16.4166 6.4 16.4097 6.4 16.4028 6.4C16.3958 6.4 16.3889 6.4 16.3819 6.4C16.375 6.4 16.3681 6.4 16.3611 6.4C16.3542 6.4 16.3472 6.4 16.3403 6.4C16.3333 6.4 16.3264 6.4 16.3194 6.4C16.3125 6.4 16.3056 6.4 16.2986 6.4C16.2917 6.4 16.2847 6.4 16.2778 6.4C16.2708 6.4 16.2639 6.4 16.2569 6.4C16.25 6.4 16.243 6.4 16.2361 6.4C16.2291 6.4 16.2222 6.4 16.2152 6.4C16.2083 6.4 16.2013 6.4 16.1944 6.4C16.1874 6.4 16.1805 6.4 16.1735 6.4C16.1666 6.4 16.1596 6.4 16.1527 6.4C16.1457 6.4 16.1388 6.4 16.1318 6.4C16.1249 6.4 16.1179 6.4 16.111 6.4C16.104 6.4 16.0971 6.4 16.0901 6.4C16.0832 6.4 16.0762 6.4 16.0693 6.4C16.0623 6.4 16.0553 6.4 16.0484 6.4C16.0414 6.4 16.0345 6.4 16.0275 6.4C16.0206 6.4 16.0136 6.4 16.0067 6.4C15.9997 6.4 15.9928 6.4 15.9858 6.4C15.9789 6.4 15.9719 6.4 15.965 6.4C15.958 6.4 15.9511 6.4 15.9441 6.4C15.9372 6.4 15.9302 6.4 15.9233 6.4C15.9164 6.4 15.9094 6.4 15.9025 6.4C15.8955 6.4 15.8886 6.4 15.8816 6.4C15.8747 6.4 15.8677 6.4 15.8608 6.4C15.8538 6.4 15.8469 6.4 15.84 6.4C15.833 6.4 15.8261 6.4 15.8191 6.4C15.8122 6.4 15.8052 6.4 15.7983 6.4C15.7914 6.4 15.7844 6.4 15.7775 6.4C15.7705 6.4 15.7636 6.4 15.7567 6.4C15.7497 6.4 15.7428 6.4 15.7359 6.4C15.7289 6.4 15.722 6.4 15.7151 6.4C15.7081 6.4 15.7012 6.4 15.6943 6.4C15.6873 6.4 15.6804 6.4 15.6735 6.4C15.6665 6.4 15.6596 6.4 15.6527 6.4C15.6458 6.4 15.6388 6.4 15.6319 6.4C15.625 6.4 15.6181 6.4 15.6111 6.4C15.6042 6.4 15.5973 6.4 15.5904 6.4C15.5835 6.4 15.5766 6.4 15.5696 6.4C15.5627 6.4 15.5558 6.4 15.5489 6.4C15.542 6.4 15.5351 6.4 15.5282 6.4C15.5212 6.4 15.5143 6.4 15.5074 6.4C15.5005 6.4 15.4936 6.4 15.4867 6.4C15.4798 6.4 15.4729 6.4 15.466 6.4C15.4591 6.4 15.4522 6.4 15.4453 6.4C15.4384 6.4 15.4315 6.4 15.4246 6.4C15.4177 6.4 15.4108 6.4 15.404 6.4C15.3971 6.4 15.3902 6.4 15.3833 6.4C15.3764 6.4 15.3695 6.4 15.3626 6.4C15.3558 6.4 15.3489 6.4 15.342 6.4C15.3351 6.4 15.3282 6.4 15.3214 6.4C15.3145 6.4 15.3076 6.4 15.3008 6.4C15.2939 6.4 15.287 6.4 15.2801 6.4C15.2733 6.4 15.2664 6.4 15.2596 6.4C15.2527 6.4 15.2458 6.4 15.239 6.4C15.2321 6.4 15.2253 6.4 15.2184 6.4C15.2116 6.4 15.2047 6.4 15.1979 6.4C15.191 6.4 15.1842 6.4 15.1773 6.4C15.1705 6.4 15.1637 6.4 15.1568 6.4C15.15 6.4 15.1431 6.4 15.1363 6.4C15.1295 6.4 15.1227 6.4 15.1158 6.4C15.109 6.4 15.1022 6.4 15.0954 6.4C15.0885 6.4 15.0817 6.4 15.0749 6.4C15.0681 6.4 15.0613 6.4 15.0545 6.4C15.0477 6.4 15.0408 6.4 15.034 6.4C15.0272 6.4 15.0204 6.4 15.0136 6.4C15.0068 6.4 15 6.4 14.9932 6.4C14.9865 6.4 14.9797 6.4 14.9729 6.4C14.9661 6.4 14.9593 6.4 14.9525 6.4C14.9457 6.4 14.939 6.4 14.9322 6.4C14.9254 6.4 14.9186 6.4 14.9119 6.4C14.9051 6.4 14.8983 6.4 14.8916 6.4C14.8848 6.4 14.8781 6.4 14.8713 6.4C14.8646 6.4 14.8578 6.4 14.8511 6.4C14.8443 6.4 14.8376 6.4 14.8308 6.4C14.8241 6.4 14.8173 6.4 14.8106 6.4C14.8039 6.4 14.7971 6.4 14.7904 6.4C14.7837 6.4 14.777 6.4 14.7702 6.4C14.7635 6.4 14.7568 6.4 14.7501 6.4C14.7434 6.4 14.7367 6.4 14.73 6.4C14.7232 6.4 14.7165 6.4 14.7098 6.4C14.7031 6.4 14.6965 6.4 14.6898 6.4C14.6831 6.4 14.6764 6.4 14.6697 6.4C14.663 6.4 14.6563 6.4 14.6497 6.4C14.643 6.4 14.6363 6.4 14.6296 6.4C14.623 6.4 14.6163 6.4 14.6097 6.4C14.603 6.4 14.5963 6.4 14.5897 6.4C14.583 6.4 14.5764 6.4 14.5697 6.4C14.5631 6.4 14.5565 6.4 14.5498 6.4C14.5432 6.4 14.5366 6.4 14.5299 6.4C14.5233 6.4 14.5167 6.4 14.5101 6.4C14.5035 6.4 14.4968 6.4 14.4902 6.4C14.4836 6.4 14.477 6.4 14.4704 6.4C14.4638 6.4 14.4572 6.4 14.4506 6.4C14.444 6.4 14.4374 6.4 14.4309 6.4C14.4243 6.4 14.4177 6.4 14.4111 6.4C14.4046 6.4 14.398 6.4 14.3914 6.4C14.3849 6.4 14.3783 6.4 14.3717 6.4C14.3652 6.4 14.3586 6.4 14.3521 6.4C14.3456 6.4 14.339 6.4 14.3325 6.4C14.3259 6.4 14.3194 6.4 14.3129 6.4C14.3064 6.4 14.2998 6.4 14.2933 6.4C14.2868 6.4 14.2803 6.4 14.2738 6.4C14.2673 6.4 14.2608 6.4 14.2543 6.4C14.2478 6.4 14.2413 6.4 14.2348 6.4C14.2283 6.4 14.2218 6.4 14.2154 6.4C14.2089 6.4 14.2024 6.4 14.196 6.4C14.1895 6.4 14.183 6.4 14.1766 6.4C14.1701 6.4 14.1637 6.4 14.1572 6.4C14.1508 6.4 14.1443 6.4 14.1379 6.4C14.1315 6.4 14.125 6.4 14.1186 6.4C14.1122 6.4 14.1058 6.4 14.0994 6.4C14.093 6.4 14.0866 6.4 14.0802 6.4C14.0738 6.4 14.0674 6.4 14.061 6.4C14.0546 6.4 14.0482 6.4 14.0418 6.4C14.0354 6.4 14.0291 6.4 14.0227 6.4C14.0163 6.4 14.01 6.4 14.0036 6.4C13.9973 6.4 13.9909 6.4 13.9846 6.4C13.9782 6.4 13.9719 6.4 13.9656 6.4C13.9592 6.4 13.9529 6.4 13.9466 6.4C13.9403 6.4 13.9339 6.4 13.9276 6.4C13.9213 6.4 13.915 6.4 13.9087 6.4C13.9024 6.4 13.8961 6.4 13.8899 6.4C13.8836 6.4 13.8773 6.4 13.871 6.4C13.8647 6.4 13.8585 6.4 13.8522 6.4C13.846 6.4 13.8397 6.4 13.8335 6.4C13.8272 6.4 13.821 6.4 13.8147 6.4C13.8085 6.4 13.8023 6.4 13.7961 6.4C13.7898 6.4 13.7836 6.4 13.7774 6.4C13.7712 6.4 13.765 6.4 13.7588 6.4C13.7526 6.4 13.7464 6.4 13.7402 6.4C13.734 6.4 13.7279 6.4 13.7217 6.4C13.7155 6.4 13.7094 6.4 13.7032 6.4C13.6971 6.4 13.6909 6.4 13.6848 6.4C13.6786 6.4 13.6725 6.4 13.6664 6.4C13.6602 6.4 13.6541 6.4 13.648 6.4C13.6419 6.4 13.6358 6.4 13.6297 6.4C13.6236 6.4 13.6175 6.4 13.6114 6.4C13.6053 6.4 13.5992 6.4 13.5931 6.4C13.5871 6.4 13.581 6.4 13.5749 6.4C13.5689 6.4 13.5628 6.4 13.5568 6.4C13.5507 6.4 13.5447 6.4 13.5386 6.4C13.5326 6.4 13.5266 6.4 13.5206 6.4C13.5146 6.4 13.5085 6.4 13.5025 6.4C13.4965 6.4 13.4905 6.4 13.4846 6.4C13.4786 6.4 13.4726 6.4 13.4666 6.4C13.4606 6.4 13.4547 6.4 13.4487 6.4C13.4428 6.4 13.4368 6.4 13.4309 6.4C13.4249 6.4 13.419 6.4 13.413 6.4C13.4071 6.4 13.4012 6.4 13.3953 6.4C13.3894 6.4 13.3835 6.4 13.3776 6.4C13.3717 6.4 13.3658 6.4 13.3599 6.4C13.354 6.4 13.3481 6.4 13.3423 6.4C13.3364 6.4 13.3305 6.4 13.3247 6.4C13.3188 6.4 13.313 6.4 13.3072 6.4C13.3013 6.4 13.2955 6.4 13.2897 6.4C13.2838 6.4 13.278 6.4 13.2722 6.4C13.2664 6.4 13.2606 6.4 13.2548 6.4C13.2491 6.4 13.2433 6.4 13.2375 6.4C13.2317 6.4 13.226 6.4 13.2202 6.4C13.2145 6.4 13.2087 6.4 13.203 6.4C13.1972 6.4 13.1915 6.4 13.1858 6.4C13.1801 6.4 13.1743 6.4 13.1686 6.4C13.1629 6.4 13.1572 6.4 13.1515 6.4C13.1458 6.4 13.1402 6.4 13.1345 6.4C13.1288 6.4 13.1232 6.4 13.1175 6.4C13.1118 6.4 13.1062 6.4 13.1006 6.4C13.0949 6.4 13.0893 6.4 13.0837 6.4C13.078 6.4 13.0724 6.4 13.0668 6.4C13.0612 6.4 13.0556 6.4 13.05 6.4C13.0445 6.4 13.0389 6.4 13.0333 6.4C13.0277 6.4 13.0222 6.4 13.0166 6.4C13.0111 6.4 13.0055 6.4 13 6.4V7.6C13.0055 7.6 13.0111 7.6 13.0166 7.6C13.0222 7.6 13.0277 7.6 13.0333 7.6C13.0389 7.6 13.0445 7.6 13.05 7.6C13.0556 7.6 13.0612 7.6 13.0668 7.6C13.0724 7.6 13.078 7.6 13.0837 7.6C13.0893 7.6 13.0949 7.6 13.1006 7.6C13.1062 7.6 13.1118 7.6 13.1175 7.6C13.1232 7.6 13.1288 7.6 13.1345 7.6C13.1402 7.6 13.1458 7.6 13.1515 7.6C13.1572 7.6 13.1629 7.6 13.1686 7.6C13.1743 7.6 13.1801 7.6 13.1858 7.6C13.1915 7.6 13.1972 7.6 13.203 7.6C13.2087 7.6 13.2145 7.6 13.2202 7.6C13.226 7.6 13.2317 7.6 13.2375 7.6C13.2433 7.6 13.2491 7.6 13.2548 7.6C13.2606 7.6 13.2664 7.6 13.2722 7.6C13.278 7.6 13.2838 7.6 13.2897 7.6C13.2955 7.6 13.3013 7.6 13.3072 7.6C13.313 7.6 13.3188 7.6 13.3247 7.6C13.3305 7.6 13.3364 7.6 13.3423 7.6C13.3481 7.6 13.354 7.6 13.3599 7.6C13.3658 7.6 13.3717 7.6 13.3776 7.6C13.3835 7.6 13.3894 7.6 13.3953 7.6C13.4012 7.6 13.4071 7.6 13.413 7.6C13.419 7.6 13.4249 7.6 13.4309 7.6C13.4368 7.6 13.4428 7.6 13.4487 7.6C13.4547 7.6 13.4606 7.6 13.4666 7.6C13.4726 7.6 13.4786 7.6 13.4846 7.6C13.4905 7.6 13.4965 7.6 13.5025 7.6C13.5085 7.6 13.5146 7.6 13.5206 7.6C13.5266 7.6 13.5326 7.6 13.5386 7.6C13.5447 7.6 13.5507 7.6 13.5568 7.6C13.5628 7.6 13.5689 7.6 13.5749 7.6C13.581 7.6 13.5871 7.6 13.5931 7.6C13.5992 7.6 13.6053 7.6 13.6114 7.6C13.6175 7.6 13.6236 7.6 13.6297 7.6C13.6358 7.6 13.6419 7.6 13.648 7.6C13.6541 7.6 13.6602 7.6 13.6664 7.6C13.6725 7.6 13.6786 7.6 13.6848 7.6C13.6909 7.6 13.6971 7.6 13.7032 7.6C13.7094 7.6 13.7155 7.6 13.7217 7.6C13.7279 7.6 13.734 7.6 13.7402 7.6C13.7464 7.6 13.7526 7.6 13.7588 7.6C13.765 7.6 13.7712 7.6 13.7774 7.6C13.7836 7.6 13.7898 7.6 13.7961 7.6C13.8023 7.6 13.8085 7.6 13.8147 7.6C13.821 7.6 13.8272 7.6 13.8335 7.6C13.8397 7.6 13.846 7.6 13.8522 7.6C13.8585 7.6 13.8647 7.6 13.871 7.6C13.8773 7.6 13.8836 7.6 13.8899 7.6C13.8961 7.6 13.9024 7.6 13.9087 7.6C13.915 7.6 13.9213 7.6 13.9276 7.6C13.9339 7.6 13.9403 7.6 13.9466 7.6C13.9529 7.6 13.9592 7.6 13.9656 7.6C13.9719 7.6 13.9782 7.6 13.9846 7.6C13.9909 7.6 13.9973 7.6 14.0036 7.6C14.01 7.6 14.0163 7.6 14.0227 7.6C14.0291 7.6 14.0354 7.6 14.0418 7.6C14.0482 7.6 14.0546 7.6 14.061 7.6C14.0674 7.6 14.0738 7.6 14.0802 7.6C14.0866 7.6 14.093 7.6 14.0994 7.6C14.1058 7.6 14.1122 7.6 14.1186 7.6C14.125 7.6 14.1315 7.6 14.1379 7.6C14.1443 7.6 14.1508 7.6 14.1572 7.6C14.1637 7.6 14.1701 7.6 14.1766 7.6C14.183 7.6 14.1895 7.6 14.196 7.6C14.2024 7.6 14.2089 7.6 14.2154 7.6C14.2218 7.6 14.2283 7.6 14.2348 7.6C14.2413 7.6 14.2478 7.6 14.2543 7.6C14.2608 7.6 14.2673 7.6 14.2738 7.6C14.2803 7.6 14.2868 7.6 14.2933 7.6C14.2998 7.6 14.3064 7.6 14.3129 7.6C14.3194 7.6 14.3259 7.6 14.3325 7.6C14.339 7.6 14.3456 7.6 14.3521 7.6C14.3586 7.6 14.3652 7.6 14.3717 7.6C14.3783 7.6 14.3849 7.6 14.3914 7.6C14.398 7.6 14.4046 7.6 14.4111 7.6C14.4177 7.6 14.4243 7.6 14.4309 7.6C14.4374 7.6 14.444 7.6 14.4506 7.6C14.4572 7.6 14.4638 7.6 14.4704 7.6C14.477 7.6 14.4836 7.6 14.4902 7.6C14.4968 7.6 14.5035 7.6 14.5101 7.6C14.5167 7.6 14.5233 7.6 14.5299 7.6C14.5366 7.6 14.5432 7.6 14.5498 7.6C14.5565 7.6 14.5631 7.6 14.5697 7.6C14.5764 7.6 14.583 7.6 14.5897 7.6C14.5963 7.6 14.603 7.6 14.6097 7.6C14.6163 7.6 14.623 7.6 14.6296 7.6C14.6363 7.6 14.643 7.6 14.6497 7.6C14.6563 7.6 14.663 7.6 14.6697 7.6C14.6764 7.6 14.6831 7.6 14.6898 7.6C14.6965 7.6 14.7031 7.6 14.7098 7.6C14.7165 7.6 14.7232 7.6 14.73 7.6C14.7367 7.6 14.7434 7.6 14.7501 7.6C14.7568 7.6 14.7635 7.6 14.7702 7.6C14.777 7.6 14.7837 7.6 14.7904 7.6C14.7971 7.6 14.8039 7.6 14.8106 7.6C14.8173 7.6 14.8241 7.6 14.8308 7.6C14.8376 7.6 14.8443 7.6 14.8511 7.6C14.8578 7.6 14.8646 7.6 14.8713 7.6C14.8781 7.6 14.8848 7.6 14.8916 7.6C14.8983 7.6 14.9051 7.6 14.9119 7.6C14.9186 7.6 14.9254 7.6 14.9322 7.6C14.939 7.6 14.9457 7.6 14.9525 7.6C14.9593 7.6 14.9661 7.6 14.9729 7.6C14.9797 7.6 14.9865 7.6 14.9932 7.6C15 7.6 15.0068 7.6 15.0136 7.6C15.0204 7.6 15.0272 7.6 15.034 7.6C15.0408 7.6 15.0477 7.6 15.0545 7.6C15.0613 7.6 15.0681 7.6 15.0749 7.6C15.0817 7.6 15.0885 7.6 15.0954 7.6C15.1022 7.6 15.109 7.6 15.1158 7.6C15.1227 7.6 15.1295 7.6 15.1363 7.6C15.1431 7.6 15.15 7.6 15.1568 7.6C15.1637 7.6 15.1705 7.6 15.1773 7.6C15.1842 7.6 15.191 7.6 15.1979 7.6C15.2047 7.6 15.2116 7.6 15.2184 7.6C15.2253 7.6 15.2321 7.6 15.239 7.6C15.2458 7.6 15.2527 7.6 15.2596 7.6C15.2664 7.6 15.2733 7.6 15.2801 7.6C15.287 7.6 15.2939 7.6 15.3008 7.6C15.3076 7.6 15.3145 7.6 15.3214 7.6C15.3282 7.6 15.3351 7.6 15.342 7.6C15.3489 7.6 15.3558 7.6 15.3626 7.6C15.3695 7.6 15.3764 7.6 15.3833 7.6C15.3902 7.6 15.3971 7.6 15.404 7.6C15.4108 7.6 15.4177 7.6 15.4246 7.6C15.4315 7.6 15.4384 7.6 15.4453 7.6C15.4522 7.6 15.4591 7.6 15.466 7.6C15.4729 7.6 15.4798 7.6 15.4867 7.6C15.4936 7.6 15.5005 7.6 15.5074 7.6C15.5143 7.6 15.5212 7.6 15.5282 7.6C15.5351 7.6 15.542 7.6 15.5489 7.6C15.5558 7.6 15.5627 7.6 15.5696 7.6C15.5766 7.6 15.5835 7.6 15.5904 7.6C15.5973 7.6 15.6042 7.6 15.6111 7.6C15.6181 7.6 15.625 7.6 15.6319 7.6C15.6388 7.6 15.6458 7.6 15.6527 7.6C15.6596 7.6 15.6665 7.6 15.6735 7.6C15.6804 7.6 15.6873 7.6 15.6943 7.6C15.7012 7.6 15.7081 7.6 15.7151 7.6C15.722 7.6 15.7289 7.6 15.7359 7.6C15.7428 7.6 15.7497 7.6 15.7567 7.6C15.7636 7.6 15.7705 7.6 15.7775 7.6C15.7844 7.6 15.7914 7.6 15.7983 7.6C15.8052 7.6 15.8122 7.6 15.8191 7.6C15.8261 7.6 15.833 7.6 15.84 7.6C15.8469 7.6 15.8538 7.6 15.8608 7.6C15.8677 7.6 15.8747 7.6 15.8816 7.6C15.8886 7.6 15.8955 7.6 15.9025 7.6C15.9094 7.6 15.9164 7.6 15.9233 7.6C15.9302 7.6 15.9372 7.6 15.9441 7.6C15.9511 7.6 15.958 7.6 15.965 7.6C15.9719 7.6 15.9789 7.6 15.9858 7.6C15.9928 7.6 15.9997 7.6 16.0067 7.6C16.0136 7.6 16.0206 7.6 16.0275 7.6C16.0345 7.6 16.0414 7.6 16.0484 7.6C16.0553 7.6 16.0623 7.6 16.0693 7.6C16.0762 7.6 16.0832 7.6 16.0901 7.6C16.0971 7.6 16.104 7.6 16.111 7.6C16.1179 7.6 16.1249 7.6 16.1318 7.6C16.1388 7.6 16.1457 7.6 16.1527 7.6C16.1596 7.6 16.1666 7.6 16.1735 7.6C16.1805 7.6 16.1874 7.6 16.1944 7.6C16.2013 7.6 16.2083 7.6 16.2152 7.6C16.2222 7.6 16.2291 7.6 16.2361 7.6C16.243 7.6 16.25 7.6 16.2569 7.6C16.2639 7.6 16.2708 7.6 16.2778 7.6C16.2847 7.6 16.2917 7.6 16.2986 7.6C16.3056 7.6 16.3125 7.6 16.3194 7.6C16.3264 7.6 16.3333 7.6 16.3403 7.6C16.3472 7.6 16.3542 7.6 16.3611 7.6C16.3681 7.6 16.375 7.6 16.3819 7.6C16.3889 7.6 16.3958 7.6 16.4028 7.6C16.4097 7.6 16.4166 7.6 16.4236 7.6C16.4305 7.6 16.4374 7.6 16.4444 7.6C16.4513 7.6 16.4583 7.6 16.4652 7.6C16.4721 7.6 16.4791 7.6 16.486 7.6C16.4929 7.6 16.4998 7.6 16.5068 7.6C16.5137 7.6 16.5206 7.6 16.5276 7.6C16.5345 7.6 16.5414 7.6 16.5483 7.6C16.5553 7.6 16.5622 7.6 16.5691 7.6C16.576 7.6 16.583 7.6 16.5899 7.6C16.5968 7.6 16.6037 7.6 16.6106 7.6C16.6176 7.6 16.6245 7.6 16.6314 7.6C16.6383 7.6 16.6452 7.6 16.6521 7.6C16.659 7.6 16.6659 7.6 16.6729 7.6C16.6798 7.6 16.6867 7.6 16.6936 7.6C16.7005 7.6 16.7074 7.6 16.7143 7.6C16.7212 7.6 16.7281 7.6 16.735 7.6C16.7419 7.6 16.7488 7.6 16.7557 7.6C16.7626 7.6 16.7695 7.6 16.7764 7.6C16.7833 7.6 16.7901 7.6 16.797 7.6C16.8039 7.6 16.8108 7.6 16.8177 7.6C16.8246 7.6 16.8315 7.6 16.8383 7.6C16.8452 7.6 16.8521 7.6 16.859 7.6C16.8659 7.6 16.8727 7.6 16.8796 7.6C16.8865 7.6 16.8933 7.6 16.9002 7.6C16.9071 7.6 16.9139 7.6 16.9208 7.6C16.9277 7.6 16.9345 7.6 16.9414 7.6C16.9483 7.6 16.9551 7.6 16.962 7.6C16.9688 7.6 16.9757 7.6 16.9825 7.6C16.9894 7.6 16.9962 7.6 17.0031 7.6C17.0099 7.6 17.0167 7.6 17.0236 7.6C17.0304 7.6 17.0373 7.6 17.0441 7.6C17.0509 7.6 17.0578 7.6 17.0646 7.6C17.0714 7.6 17.0783 7.6 17.0851 7.6C17.0919 7.6 17.0987 7.6 17.1055 7.6C17.1124 7.6 17.1192 7.6 17.126 7.6C17.1328 7.6 17.1396 7.6 17.1464 7.6C17.1532 7.6 17.16 7.6 17.1668 7.6C17.1736 7.6 17.1804 7.6 17.1872 7.6C17.194 7.6 17.2008 7.6 17.2076 7.6C17.2144 7.6 17.2212 7.6 17.228 7.6C17.2348 7.6 17.2415 7.6 17.2483 7.6C17.2551 7.6 17.2619 7.6 17.2687 7.6C17.2754 7.6 17.2822 7.6 17.289 7.6C17.2957 7.6 17.3025 7.6 17.3092 7.6C17.316 7.6 17.3228 7.6 17.3295 7.6C17.3363 7.6 17.343 7.6 17.3498 7.6C17.3565 7.6 17.3632 7.6 17.37 7.6C17.3767 7.6 17.3835 7.6 17.3902 7.6C17.3969 7.6 17.4037 7.6 17.4104 7.6C17.4171 7.6 17.4238 7.6 17.4305 7.6C17.4373 7.6 17.444 7.6 17.4507 7.6C17.4574 7.6 17.4641 7.6 17.4708 7.6C17.4775 7.6 17.4842 7.6 17.4909 7.6C17.4976 7.6 17.5043 7.6 17.511 7.6C17.5177 7.6 17.5243 7.6 17.531 7.6C17.5377 7.6 17.5444 7.6 17.5511 7.6C17.5577 7.6 17.5644 7.6 17.5711 7.6C17.5777 7.6 17.5844 7.6 17.591 7.6C17.5977 7.6 17.6044 7.6 17.611 7.6C17.6176 7.6 17.6243 7.6 17.6309 7.6C17.6376 7.6 17.6442 7.6 17.6508 7.6C17.6575 7.6 17.6641 7.6 17.6707 7.6C17.6773 7.6 17.684 7.6 17.6906 7.6C17.6972 7.6 17.7038 7.6 17.7104 7.6C17.717 7.6 17.7236 7.6 17.7302 7.6C17.7368 7.6 17.7434 7.6 17.75 7.6C17.7566 7.6 17.7632 7.6 17.7697 7.6C17.7763 7.6 17.7829 7.6 17.7895 7.6C17.796 7.6 17.8026 7.6 17.8092 7.6C17.8157 7.6 17.8223 7.6 17.8288 7.6C17.8354 7.6 17.8419 7.6 17.8485 7.6C17.855 7.6 17.8615 7.6 17.8681 7.6C17.8746 7.6 17.8811 7.6 17.8876 7.6C17.8942 7.6 17.9007 7.6 17.9072 7.6C17.9137 7.6 17.9202 7.6 17.9267 7.6C17.9332 7.6 17.9397 7.6 17.9462 7.6C17.9527 7.6 17.9592 7.6 17.9657 7.6C17.9721 7.6 17.9786 7.6 17.9851 7.6C17.9916 7.6 17.998 7.6 18.0045 7.6C18.011 7.6 18.0174 7.6 18.0239 7.6C18.0303 7.6 18.0368 7.6 18.0432 7.6C18.0496 7.6 18.0561 7.6 18.0625 7.6C18.0689 7.6 18.0754 7.6 18.0818 7.6C18.0882 7.6 18.0946 7.6 18.101 7.6C18.1074 7.6 18.1138 7.6 18.1202 7.6C18.1266 7.6 18.133 7.6 18.1394 7.6C18.1458 7.6 18.1521 7.6 18.1585 7.6C18.1649 7.6 18.1713 7.6 18.1776 7.6C18.184 7.6 18.1903 7.6 18.1967 7.6C18.203 7.6 18.2094 7.6 18.2157 7.6C18.2221 7.6 18.2284 7.6 18.2347 7.6C18.2411 7.6 18.2474 7.6 18.2537 7.6C18.26 7.6 18.2663 7.6 18.2726 7.6C18.2789 7.6 18.2852 7.6 18.2915 7.6C18.2978 7.6 18.3041 7.6 18.3104 7.6C18.3166 7.6 18.3229 7.6 18.3292 7.6C18.3355 7.6 18.3417 7.6 18.348 7.6C18.3542 7.6 18.3605 7.6 18.3667 7.6C18.373 7.6 18.3792 7.6 18.3854 7.6C18.3917 7.6 18.3979 7.6 18.4041 7.6C18.4103 7.6 18.4165 7.6 18.4227 7.6C18.4289 7.6 18.4351 7.6 18.4413 7.6C18.4475 7.6 18.4537 7.6 18.4599 7.6C18.466 7.6 18.4722 7.6 18.4784 7.6C18.4845 7.6 18.4907 7.6 18.4968 7.6C18.503 7.6 18.5091 7.6 18.5153 7.6C18.5214 7.6 18.5275 7.6 18.5337 7.6C18.5398 7.6 18.5459 7.6 18.552 7.6C18.5581 7.6 18.5642 7.6 18.5703 7.6C18.5764 7.6 18.5825 7.6 18.5886 7.6C18.5947 7.6 18.6008 7.6 18.6068 7.6C18.6129 7.6 18.619 7.6 18.625 7.6C18.6311 7.6 18.6371 7.6 18.6432 7.6C18.6492 7.6 18.6552 7.6 18.6613 7.6C18.6673 7.6 18.6733 7.6 18.6793 7.6C18.6853 7.6 18.6913 7.6 18.6973 7.6C18.7033 7.6 18.7093 7.6 18.7153 7.6C18.7213 7.6 18.7273 7.6 18.7332 7.6C18.7392 7.6 18.7451 7.6 18.7511 7.6C18.7571 7.6 18.763 7.6 18.7689 7.6C18.7749 7.6 18.7808 7.6 18.7867 7.6C18.7926 7.6 18.7986 7.6 18.8045 7.6C18.8104 7.6 18.8163 7.6 18.8222 7.6C18.8281 7.6 18.8339 7.6 18.8398 7.6C18.8457 7.6 18.8516 7.6 18.8574 7.6C18.8633 7.6 18.8691 7.6 18.875 7.6C18.8808 7.6 18.8867 7.6 18.8925 7.6C18.8983 7.6 18.9041 7.6 18.91 7.6C18.9158 7.6 18.9216 7.6 18.9274 7.6C18.9332 7.6 18.939 7.6 18.9447 7.6C18.9505 7.6 18.9563 7.6 18.9621 7.6C18.9678 7.6 18.9736 7.6 18.9793 7.6C18.9851 7.6 18.9908 7.6 18.9966 7.6C19.0023 7.6 19.008 7.6 19.0137 7.6C19.0194 7.6 19.0252 7.6 19.0309 7.6C19.0366 7.6 19.0422 7.6 19.0479 7.6C19.0536 7.6 19.0593 7.6 19.065 7.6C19.0706 7.6 19.0763 7.6 19.0819 7.6C19.0876 7.6 19.0932 7.6 19.0988 7.6C19.1045 7.6 19.1101 7.6 19.1157 7.6C19.1213 7.6 19.1269 7.6 19.1325 7.6C19.1381 7.6 19.1437 7.6 19.1493 7.6C19.1549 7.6 19.1604 7.6 19.166 7.6C19.1716 7.6 19.1771 7.6 19.1827 7.6C19.1882 7.6 19.1937 7.6 19.1993 7.6C19.2048 7.6 19.2103 7.6 19.2158 7.6C19.2213 7.6 19.2268 7.6 19.2323 7.6C19.2378 7.6 19.2433 7.6 19.2488 7.6C19.2542 7.6 19.2597 7.6 19.2652 7.6C19.2706 7.6 19.2761 7.6 19.2815 7.6C19.2869 7.6 19.2923 7.6 19.2978 7.6C19.3032 7.6 19.3086 7.6 19.314 7.6C19.3194 7.6 19.3248 7.6 19.3302 7.6C19.3355 7.6 19.3409 7.6 19.3463 7.6C19.3516 7.6 19.357 7.6 19.3623 7.6C19.3677 7.6 19.373 7.6 19.3783 7.6C19.3836 7.6 19.389 7.6 19.3943 7.6C19.3996 7.6 19.4049 7.6 19.4101 7.6C19.4154 7.6 19.4207 7.6 19.426 7.6C19.4312 7.6 19.4365 7.6 19.4417 7.6C19.447 7.6 19.4522 7.6 19.4574 7.6C19.4627 7.6 19.4679 7.6 19.4731 7.6C19.4783 7.6 19.4835 7.6 19.4887 7.6C19.4939 7.6 19.4991 7.6 19.5042 7.6C19.5094 7.6 19.5145 7.6 19.5197 7.6C19.5248 7.6 19.53 7.6 19.5351 7.6C19.5402 7.6 19.5453 7.6 19.5505 7.6C19.5556 7.6 19.5607 7.6 19.5657 7.6C19.5708 7.6 19.5759 7.6 19.581 7.6C19.586 7.6 19.5911 7.6 19.5961 7.6C19.6012 7.6 19.6062 7.6 19.6112 7.6C19.6163 7.6 19.6213 7.6 19.6263 7.6C19.6313 7.6 19.6363 7.6 19.6413 7.6C19.6462 7.6 19.6512 7.6 19.6562 7.6C19.6611 7.6 19.6661 7.6 19.671 7.6C19.676 7.6 19.6809 7.6 19.6858 7.6C19.6907 7.6 19.6957 7.6 19.7005 7.6C19.7054 7.6 19.7103 7.6 19.7152 7.6C19.7201 7.6 19.725 7.6 19.7298 7.6C19.7347 7.6 19.7395 7.6 19.7443 7.6C19.7492 7.6 19.754 7.6 19.7588 7.6C19.7636 7.6 19.7684 7.6 19.7732 7.6C19.778 7.6 19.7828 7.6 19.7875 7.6C19.7923 7.6 19.7971 7.6 19.8018 7.6C19.8066 7.6 19.8113 7.6 19.816 7.6C19.8207 7.6 19.8254 7.6 19.8301 7.6C19.8348 7.6 19.8395 7.6 19.8442 7.6C19.8489 7.6 19.8536 7.6 19.8582 7.6C19.8629 7.6 19.8675 7.6 19.8722 7.6C19.8768 7.6 19.8814 7.6 19.886 7.6C19.8906 7.6 19.8952 7.6 19.8998 7.6C19.9044 7.6 19.909 7.6 19.9135 7.6C19.9181 7.6 19.9227 7.6 19.9272 7.6C19.9317 7.6 19.9363 7.6 19.9408 7.6C19.9453 7.6 19.9498 7.6 19.9543 7.6C19.9588 7.6 19.9633 7.6 19.9677 7.6C19.9722 7.6 19.9767 7.6 19.9811 7.6C19.9856 7.6 19.99 7.6 19.9944 7.6C19.9989 7.6 20.0033 7.6 20.0077 7.6C20.0121 7.6 20.0164 7.6 20.0208 7.6C20.0252 7.6 20.0296 7.6 20.0339 7.6C20.0383 7.6 20.0426 7.6 20.0469 7.6C20.0513 7.6 20.0556 7.6 20.0599 7.6C20.0642 7.6 20.0685 7.6 20.0728 7.6C20.077 7.6 20.0813 7.6 20.0856 7.6C20.0898 7.6 20.094 7.6 20.0983 7.6C20.1025 7.6 20.1067 7.6 20.1109 7.6C20.1151 7.6 20.1193 7.6 20.1235 7.6C20.1277 7.6 20.1319 7.6 20.136 7.6C20.1402 7.6 20.1443 7.6 20.1484 7.6C20.1526 7.6 20.1567 7.6 20.1608 7.6C20.1649 7.6 20.169 7.6 20.1731 7.6C20.1771 7.6 20.1812 7.6 20.1853 7.6C20.1893 7.6 20.1934 7.6 20.1974 7.6C20.2014 7.6 20.2054 7.6 20.2094 7.6C20.2134 7.6 20.2174 7.6 20.2214 7.6C20.2254 7.6 20.2294 7.6 20.2333 7.6C20.2373 7.6 20.2412 7.6 20.2451 7.6C20.249 7.6 20.253 7.6 20.2569 7.6C20.2608 7.6 20.2646 7.6 20.2685 7.6C20.2724 7.6 20.2762 7.6 20.2801 7.6C20.2839 7.6 20.2878 7.6 20.2916 7.6C20.2954 7.6 20.2992 7.6 20.303 7.6C20.3068 7.6 20.3106 7.6 20.3144 7.6C20.3181 7.6 20.3219 7.6 20.3256 7.6C20.3294 7.6 20.3331 7.6 20.3368 7.6C20.3405 7.6 20.3442 7.6 20.3479 7.6C20.3516 7.6 20.3553 7.6 20.3589 7.6C20.3626 7.6 20.3662 7.6 20.3699 7.6C20.3735 7.6 20.3771 7.6 20.3807 7.6C20.3843 7.6 20.3879 7.6 20.3915 7.6C20.3951 7.6 20.3986 7.6 20.4022 7.6C20.4057 7.6 20.4093 7.6 20.4128 7.6C20.4163 7.6 20.4198 7.6 20.4233 7.6C20.4268 7.6 20.4303 7.6 20.4338 7.6C20.4372 7.6 20.4407 7.6 20.4441 7.6C20.4476 7.6 20.451 7.6 20.4544 7.6C20.4578 7.6 20.4612 7.6 20.4646 7.6C20.468 7.6 20.4714 7.6 20.4747 7.6C20.4781 7.6 20.4814 7.6 20.4847 7.6C20.4881 7.6 20.4914 7.6 20.4947 7.6C20.498 7.6 20.5012 7.6 20.5045 7.6C20.5078 7.6 20.511 7.6 20.5143 7.6C20.5175 7.6 20.5207 7.6 20.524 7.6C20.5272 7.6 20.5304 7.6 20.5336 7.6C20.5367 7.6 20.5399 7.6 20.5431 7.6C20.5462 7.6 20.5493 7.6 20.5525 7.6C20.5556 7.6 20.5587 7.6 20.5618 7.6C20.5649 7.6 20.568 7.6 20.571 7.6C20.5741 7.6 20.5772 7.6 20.5802 7.6C20.5832 7.6 20.5863 7.6 20.5893 7.6C20.5923 7.6 20.5953 7.6 20.5982 7.6C20.6012 7.6 20.6042 7.6 20.6071 7.6C20.6101 7.6 20.613 7.6 20.6159 7.6C20.6188 7.6 20.6217 7.6 20.6246 7.6C20.6275 7.6 20.6304 7.6 20.6332 7.6C20.6361 7.6 20.6389 7.6 20.6418 7.6C20.6446 7.6 20.6474 7.6 20.6502 7.6C20.653 7.6 20.6558 7.6 20.6585 7.6C20.6613 7.6 20.664 7.6 20.6668 7.6C20.6695 7.6 20.6722 7.6 20.6749 7.6C20.6776 7.6 20.6803 7.6 20.683 7.6C20.6857 7.6 20.6883 7.6 20.691 7.6C20.6936 7.6 20.6962 7.6 20.6989 7.6C20.7015 7.6 20.7041 7.6 20.7066 7.6C20.7092 7.6 20.7118 7.6 20.7143 7.6C20.7169 7.6 20.7194 7.6 20.7219 7.6C20.7245 7.6 20.727 7.6 20.7294 7.6C20.7319 7.6 20.7344 7.6 20.7368 7.6C20.7393 7.6 20.7417 7.6 20.7442 7.6C20.7466 7.6 20.749 7.6 20.7514 7.6C20.7538 7.6 20.7561 7.6 20.7585 7.6C20.7609 7.6 20.7632 7.6 20.7655 7.6C20.7679 7.6 20.7702 7.6 20.7725 7.6C20.7748 7.6 20.777 7.6 20.7793 7.6C20.7816 7.6 20.7838 7.6 20.786 7.6C20.7883 7.6 20.7905 7.6 20.7927 7.6C20.7949 7.6 20.797 7.6 20.7992 7.6C20.8014 7.6 20.8035 7.6 20.8057 7.6C20.8078 7.6 20.8099 7.6 20.812 7.6C20.8141 7.6 20.8162 7.6 20.8182 7.6C20.8203 7.6 20.8224 7.6 20.8244 7.6C20.8264 7.6 20.8284 7.6 20.8304 7.6C20.8324 7.6 20.8344 7.6 20.8364 7.6C20.8383 7.6 20.8403 7.6 20.8422 7.6C20.8442 7.6 20.8461 7.6 20.848 7.6C20.8499 7.6 20.8518 7.6 20.8536 7.6C20.8555 7.6 20.8573 7.6 20.8592 7.6C20.861 7.6 20.8628 7.6 20.8646 7.6C20.8664 7.6 20.8682 7.6 20.8699 7.6C20.8717 7.6 20.8735 7.6 20.8752 7.6C20.8769 7.6 20.8786 7.6 20.8803 7.6C20.882 7.6 20.8837 7.6 20.8854 7.6C20.887 7.6 20.8887 7.6 20.8903 7.6C20.8919 7.6 20.8935 7.6 20.8951 7.6C20.8967 7.6 20.8983 7.6 20.8998 7.6C20.9014 7.6 20.9029 7.6 20.9045 7.6C20.906 7.6 20.9075 7.6 20.909 7.6C20.9105 7.6 20.9119 7.6 20.9134 7.6C20.9148 7.6 20.9163 7.6 20.9177 7.6C20.9191 7.6 20.9205 7.6 20.9219 7.6C20.9233 7.6 20.9246 7.6 20.926 7.6C20.9273 7.6 20.9287 7.6 20.93 7.6C20.9313 7.6 20.9326 7.6 20.9338 7.6C20.9351 7.6 20.9364 7.6 20.9376 7.6C20.9389 7.6 20.9401 7.6 20.9413 7.6C20.9425 7.6 20.9437 7.6 20.9448 7.6C20.946 7.6 20.9472 7.6 20.9483 7.6C20.9494 7.6 20.9505 7.6 20.9516 7.6C20.9527 7.6 20.9538 7.6 20.9549 7.6C20.9559 7.6 20.957 7.6 20.958 7.6C20.959 7.6 20.96 7.6 20.961 7.6C20.962 7.6 20.963 7.6 20.9639 7.6C20.9649 7.6 20.9658 7.6 20.9667 7.6C20.9676 7.6 20.9685 7.6 20.9694 7.6C20.9703 7.6 20.9711 7.6 20.972 7.6C20.9728 7.6 20.9736 7.6 20.9744 7.6C20.9752 7.6 20.976 7.6 20.9768 7.6C20.9776 7.6 20.9783 7.6 20.979 7.6C20.9798 7.6 20.9805 7.6 20.9812 7.6C20.9819 7.6 20.9825 7.6 20.9832 7.6C20.9838 7.6 20.9845 7.6 20.9851 7.6C20.9857 7.6 20.9863 7.6 20.9869 7.6C20.9875 7.6 20.988 7.6 20.9886 7.6C20.9891 7.6 20.9896 7.6 20.9901 7.6C20.9906 7.6 20.9911 7.6 20.9916 7.6C20.992 7.6 20.9925 7.6 20.9929 7.6C20.9933 7.6 20.9938 7.6 20.9941 7.6C20.9945 7.6 20.9949 7.6 20.9953 7.6C20.9956 7.6 20.9959 7.6 20.9962 7.6C20.9966 7.6 20.9968 7.6 20.9971 7.6C20.9974 7.6 20.9976 7.6 20.9979 7.6C20.9981 7.6 20.9983 7.6 20.9985 7.6C20.9987 7.6 20.9989 7.6 20.9991 7.6C20.9992 7.6 20.9994 7.6 20.9995 7.6C20.9996 7.6 20.9997 7.6 20.9998 7.6C20.9998 7.6 20.9999 7.6 20.9999 7.6C21 7.6 21 7.6 21 7ZM13.6 7V6H12.4V7H13.6ZM12 4.4H10V5.6H12V4.4ZM10.6 5V3.1H9.4V5H10.6ZM9.9 2.4H6.1V3.6H9.9V2.4ZM5.4 3.1V5H6.6V3.1H5.4ZM6 4.4H4V5.6H6V4.4ZM2.4 6V21H3.6V6H2.4ZM19 9.4H17V10.6H19V9.4ZM15 9.4H13V10.6H15V9.4ZM11 9.4H9V10.6H11V9.4ZM9 17.6H11V16.4H9V17.6ZM13 17.6H15V16.4H13V17.6ZM17 17.6H19V16.4H17V17.6ZM6.1 2.4C5.7134 2.4 5.4 2.7134 5.4 3.1H6.6C6.6 3.37614 6.37614 3.6 6.1 3.6V2.4ZM10.6 3.1C10.6 2.7134 10.2866 2.4 9.9 2.4V3.6C9.62386 3.6 9.4 3.37614 9.4 3.1H10.6ZM13.6 6C13.6 5.11634 12.8837 4.4 12 4.4V5.6C12.2209 5.6 12.4 5.77909 12.4 6H13.6ZM12 22.6C12.8837 22.6 13.6 21.8837 13.6 21H12.4C12.4 21.2209 12.2209 21.4 12 21.4V22.6ZM4 4.4C3.11634 4.4 2.4 5.11634 2.4 6H3.6C3.6 5.77909 3.77909 5.6 4 5.6V4.4ZM4 21.4C3.77909 21.4 3.6 21.2209 3.6 21H2.4C2.4 21.8837 3.11634 22.6 4 22.6V21.4Z" fill="#28293D"/>
</svg>
