<svg width="24" height="24" viewBox="0 0 24 24" fill="none" xmlns="http://www.w3.org/2000/svg">
<path d="M11 3.05493C9.26456 3.24677 7.67784 3.93206 6.38324 4.96737M13 3.05493C14.7354 3.24677 16.3222 3.93206 17.6168 4.96737M4.96458 6.38673C3.93083 7.68069 3.2466 9.26612 3.05493 11M3.05493 13C3.24673 14.735 3.93171 16.3214 4.96659 17.6158M6.38755 19.0361C7.68136 20.0695 9.26649 20.7534 11 20.9451M13 20.9451C14.7335 20.7534 16.3186 20.0695 17.6125 19.0361M19.0334 17.6158C20.0683 16.3214 20.7533 14.735 20.9451 13M20.9451 11C20.7533 9.265 20.0683 7.67863 19.0334 6.38421" stroke="#28293D" stroke-width="1.2"/>
</svg>
