<svg width="24" height="24" viewBox="0 0 24 24" fill="none" xmlns="http://www.w3.org/2000/svg">
<g clip-path="url(#clip0_402_13072)">
<mask id="mask0_402_13072" style="mask-type:alpha" maskUnits="userSpaceOnUse" x="0" y="0" width="24" height="24">
<path d="M22.0033 22L0 1.20252e-05V24H24V1.20252e-05L1.93802 0L22.6063 20.6683L22.0033 22Z" fill="white"/>
</mask>
<g mask="url(#mask0_402_13072)">
<path d="M3.14038 3.98438L20.5576 21.4016" stroke="#28293D" stroke-width="1.2"/>
<path d="M15.7884 21.3982L15.3594 20.9788L15.7884 21.3982ZM19.43 17.6739L19.859 18.0933L19.43 17.6739ZM4.6 10C4.6 5.91309 7.91309 2.6 12 2.6V1.4C7.25035 1.4 3.4 5.25035 3.4 10H4.6ZM12 2.6C16.0869 2.6 19.4 5.91309 19.4 10H20.6C20.6 5.25035 16.7497 1.4 12 1.4V2.6ZM16.2174 21.8177L19.859 18.0933L19.001 17.2544L15.3594 20.9788L16.2174 21.8177ZM20.6 16.2756V16H19.4V16.2756H20.6ZM19.859 18.0933C20.334 17.6075 20.6 16.9551 20.6 16.2756H19.4C19.4 16.6415 19.2568 16.9928 19.001 17.2544L19.859 18.0933ZM14.3584 22.6C15.0581 22.6 15.7282 22.318 16.2174 21.8177L15.3594 20.9788C15.096 21.2481 14.7351 21.4 14.3584 21.4V22.6ZM13.1792 22.6H14.3584V21.4H13.1792V22.6Z" fill="#28293D"/>
<mask id="path-4-inside-1_402_13072" fill="white">
<path d="M1 11C1 10.4477 1.44772 10 2 10H5V16H2C1.44772 16 1 15.5523 1 15V11Z"/>
<path d="M19 10H22C22.5523 10 23 10.4477 23 11V15C23 15.5523 22.5523 16 22 16H19V10Z"/>
<path d="M10 21.4118C10 20.8595 10.4477 20.4118 11 20.4118H13C13.5523 20.4118 14 20.8595 14 21.4118V22.4118C14 22.9641 13.5523 23.4118 13 23.4118H11C10.4477 23.4118 10 22.9641 10 22.4118V21.4118Z"/>
</mask>
<path d="M5 10H6.2V8.8H5V10ZM5 16V17.2H6.2V16H5ZM19 10V8.8H17.8V10H19ZM19 16H17.8V17.2H19V16ZM2 11.2H5V8.8H2V11.2ZM3.8 10V16H6.2V10H3.8ZM5 14.8H2V17.2H5V14.8ZM2.2 15V11H-0.2V15H2.2ZM19 11.2H22V8.8H19V11.2ZM21.8 11V15H24.2V11H21.8ZM22 14.8H19V17.2H22V14.8ZM20.2 16V10H17.8V16H20.2ZM11 21.6118H13V19.2118H11V21.6118ZM12.8 21.4118V22.4118H15.2V21.4118H12.8ZM13 22.2118H11V24.6118H13V22.2118ZM11.2 22.4118V21.4118H8.8V22.4118H11.2ZM12.8 22.4118C12.8 22.3013 12.8895 22.2118 13 22.2118V24.6118C14.215 24.6118 15.2 23.6268 15.2 22.4118H12.8ZM13 21.6118C12.8895 21.6118 12.8 21.5223 12.8 21.4118H15.2C15.2 20.1968 14.215 19.2118 13 19.2118V21.6118ZM21.8 15C21.8 14.8895 21.8895 14.8 22 14.8V17.2C23.215 17.2 24.2 16.215 24.2 15H21.8ZM11 19.2118C9.78497 19.2118 8.8 20.1968 8.8 21.4118H11.2C11.2 21.5223 11.1105 21.6118 11 21.6118V19.2118ZM2 14.8C2.11046 14.8 2.2 14.8895 2.2 15H-0.2C-0.2 16.215 0.784973 17.2 2 17.2V14.8ZM22 11.2C21.8895 11.2 21.8 11.1105 21.8 11H24.2C24.2 9.78497 23.215 8.8 22 8.8V11.2ZM11 22.2118C11.1105 22.2118 11.2 22.3013 11.2 22.4118H8.8C8.8 23.6268 9.78497 24.6118 11 24.6118V22.2118ZM2 8.8C0.784973 8.8 -0.2 9.78497 -0.2 11H2.2C2.2 11.1105 2.11046 11.2 2 11.2V8.8Z" fill="#28293D" mask="url(#path-4-inside-1_402_13072)"/>
</g>
</g>
<defs>
<clipPath id="clip0_402_13072">
<rect width="24" height="24" fill="white"/>
</clipPath>
</defs>
</svg>
