<svg width="24" height="24" viewBox="0 0 24 24" fill="none" xmlns="http://www.w3.org/2000/svg">
<path d="M10 7.41604L10.2402 7.96586L10.6 7.80866V7.41604H10ZM10 3V2.4H9.4V3H10ZM14 3H14.6V2.4H14V3ZM14 7.41604H13.4V7.80866L13.7598 7.96586L14 7.41604ZM4 11.4H1V12.6H4V11.4ZM11.4 20V23H12.6V20H11.4ZM20 12.6H23V11.4H20V12.6ZM17.5757 18.4243L19.5757 20.4243L20.4243 19.5757L18.4243 17.5757L17.5757 18.4243ZM5.57574 17.5757L3.57574 19.5757L4.42426 20.4243L6.42426 18.4243L5.57574 17.5757ZM16.4 12C16.4 14.4301 14.4301 16.4 12 16.4V17.6C15.0928 17.6 17.6 15.0928 17.6 12H16.4ZM12 16.4C9.56995 16.4 7.6 14.4301 7.6 12H6.4C6.4 15.0928 8.90721 17.6 12 17.6V16.4ZM7.6 12C7.6 10.1967 8.68497 8.64537 10.2402 7.96586L9.75978 6.86623C7.78322 7.72983 6.4 9.70271 6.4 12H7.6ZM10.6 7.41604V3H9.4V7.41604H10.6ZM10 3.6H14V2.4H10V3.6ZM13.7598 7.96586C15.315 8.64537 16.4 10.1967 16.4 12H17.6C17.6 9.70271 16.2168 7.72983 14.2402 6.86623L13.7598 7.96586ZM13.4 3V7.41604H14.6V3H13.4Z" fill="#28293D"/>
</svg>
