<svg width="24" height="24" viewBox="0 0 24 24" fill="none" xmlns="http://www.w3.org/2000/svg">
<path d="M8.26667 3.54545L8.69567 3.12598C8.52515 2.95159 8.26603 2.89777 8.04017 2.98985C7.81432 3.08192 7.66667 3.30155 7.66667 3.54545H8.26667ZM9.86667 5.18182L9.43766 5.60129C9.55055 5.71674 9.7052 5.78182 9.86667 5.78182C10.0281 5.78182 10.1828 5.71674 10.2957 5.60129L9.86667 5.18182ZM12 3L12.429 2.58053C12.3161 2.46508 12.1615 2.4 12 2.4C11.8385 2.4 11.6839 2.46508 11.571 2.58053L12 3ZM14.1333 5.18182L13.7043 5.60129C13.8172 5.71674 13.9719 5.78182 14.1333 5.78182C14.2948 5.78182 14.4495 5.71674 14.5623 5.60129L14.1333 5.18182ZM15.7333 3.54545H16.3333C16.3333 3.30155 16.1857 3.08192 15.9598 2.98985C15.734 2.89777 15.4748 2.95159 15.3043 3.12598L15.7333 3.54545ZM11.8277 20.9415L11.9061 21.5364C12.156 21.5035 12.3587 21.3178 12.4134 21.0717L11.8277 20.9415ZM4.17228 12.3312L4.09393 11.7363C3.84397 11.7692 3.64125 11.9549 3.58657 12.201L4.17228 12.3312ZM12.1723 20.9415L11.5866 21.0717C11.6413 21.3178 11.844 21.5035 12.0939 21.5364L12.1723 20.9415ZM19.8277 12.3312L20.4134 12.201C20.3587 11.9549 20.156 11.7692 19.9061 11.7363L19.8277 12.3312ZM15.1333 7.36364C15.1333 9.15377 13.7179 10.5818 12 10.5818V11.7818C14.4059 11.7818 16.3333 9.79095 16.3333 7.36364H15.1333ZM12 10.5818C10.2821 10.5818 8.86667 9.15377 8.86667 7.36364H7.66667C7.66667 9.79095 9.59413 11.7818 12 11.7818V10.5818ZM8.86667 7.36364V3.54545H7.66667V7.36364H8.86667ZM7.83766 3.96493L9.43766 5.60129L10.2957 4.76235L8.69567 3.12598L7.83766 3.96493ZM10.2957 5.60129L12.429 3.41947L11.571 2.58053L9.43766 4.76235L10.2957 5.60129ZM11.571 3.41947L13.7043 5.60129L14.5623 4.76235L12.429 2.58053L11.571 3.41947ZM14.5623 5.60129L16.1623 3.96493L15.3043 3.12598L13.7043 4.76235L14.5623 5.60129ZM15.1333 3.54545V7.36364H16.3333V3.54545H15.1333ZM11.4 11.1818V19.9091H12.6V11.1818H11.4ZM10.9333 20.4C7.44817 20.4 4.6 17.5067 4.6 13.9091H3.4C3.4 18.1439 6.76015 21.6 10.9333 21.6V20.4ZM5.06667 12.8727C8.55183 12.8727 11.4 15.766 11.4 19.3636H12.6C12.6 15.1288 9.23985 11.6727 5.06667 11.6727V12.8727ZM11.4 19.3636C11.4 19.862 11.3453 20.3465 11.242 20.8114L12.4134 21.0717C12.5356 20.5218 12.6 19.95 12.6 19.3636H11.4ZM11.7494 20.3467C11.4825 20.3818 11.2101 20.4 10.9333 20.4V21.6C11.2627 21.6 11.5874 21.5784 11.9061 21.5364L11.7494 20.3467ZM4.25064 12.926C4.51754 12.8909 4.78988 12.8727 5.06667 12.8727V11.6727C4.73733 11.6727 4.41263 11.6943 4.09393 11.7363L4.25064 12.926ZM4.6 13.9091C4.6 13.4108 4.65469 12.9263 4.758 12.4613L3.58657 12.201C3.46438 12.751 3.4 13.3227 3.4 13.9091H4.6ZM13.0667 21.6C17.2399 21.6 20.6 18.1439 20.6 13.9091H19.4C19.4 17.5067 16.5518 20.4 13.0667 20.4V21.6ZM18.9333 11.6727C14.7601 11.6727 11.4 15.1288 11.4 19.3636H12.6C12.6 15.766 15.4482 12.8727 18.9333 12.8727V11.6727ZM11.4 19.3636C11.4 19.95 11.4644 20.5218 11.5866 21.0717L12.758 20.8114C12.6547 20.3465 12.6 19.862 12.6 19.3636H11.4ZM12.0939 21.5364C12.4126 21.5784 12.7373 21.6 13.0667 21.6V20.4C12.7899 20.4 12.5175 20.3818 12.2506 20.3467L12.0939 21.5364ZM19.9061 11.7363C19.5874 11.6943 19.2627 11.6727 18.9333 11.6727V12.8727C19.2101 12.8727 19.4825 12.8909 19.7494 12.926L19.9061 11.7363ZM20.6 13.9091C20.6 13.3227 20.5356 12.751 20.4134 12.201L19.242 12.4613C19.3453 12.9263 19.4 13.4108 19.4 13.9091H20.6Z" fill="#28293D"/>
</svg>
