<svg width="24" height="24" viewBox="0 0 24 24" fill="none" xmlns="http://www.w3.org/2000/svg">
<path d="M19 3L19.5592 3.21747C19.631 3.03286 19.6071 2.82472 19.4952 2.66124C19.3834 2.49776 19.1981 2.4 19 2.4L19 3ZM5 3L5 2.4C4.80193 2.4 4.61662 2.49775 4.50478 2.66124C4.39295 2.82472 4.36901 3.03286 4.4408 3.21747L5 3ZM5 21L4.4408 20.7825C4.36901 20.9671 4.39295 21.1753 4.50478 21.3388C4.61661 21.5022 4.80193 21.6 5 21.6L5 21ZM19 21L19 21.6C19.1981 21.6 19.3834 21.5022 19.4952 21.3388C19.607 21.1753 19.631 20.9671 19.5592 20.7825L19 21ZM18.46 19.6114L19.0192 19.3939H19.0192L18.46 19.6114ZM18.46 4.38863L19.0192 4.6061L19.0192 4.6061L18.46 4.38863ZM5.54002 4.38863L4.98082 4.6061L4.98082 4.6061L5.54002 4.38863ZM5.54002 19.6114L4.98082 19.3939L5.54002 19.6114ZM19 2.4L5 2.4L5 3.6L19 3.6L19 2.4ZM5 21.6L19 21.6L19 20.4L5 20.4L5 21.6ZM19.5592 20.7825L19.0192 19.3939L17.9008 19.8288L18.4408 21.2175L19.5592 20.7825ZM19.0192 4.6061L19.5592 3.21747L18.4408 2.78253L17.9008 4.17116L19.0192 4.6061ZM4.4408 3.21747L4.98082 4.6061L6.09922 4.17116L5.5592 2.78253L4.4408 3.21747ZM4.98082 19.3939L4.4408 20.7825L5.5592 21.2175L6.09922 19.8288L4.98082 19.3939ZM4.98082 4.6061C6.83029 9.36188 6.83029 14.6381 4.98082 19.3939L6.09922 19.8288C8.05749 14.7933 8.05749 9.2067 6.09922 4.17116L4.98082 4.6061ZM19.0192 19.3939C17.1697 14.6381 17.1697 9.36188 19.0192 4.6061L17.9008 4.17116C15.9425 9.2067 15.9425 14.7933 17.9008 19.8288L19.0192 19.3939Z" fill="#28293D"/>
</svg>
