<svg width="24" height="24" viewBox="0 0 24 24" fill="none" xmlns="http://www.w3.org/2000/svg">
<path d="M3 5L3.21747 4.4408C3.03286 4.36901 2.82472 4.39295 2.66124 4.50478C2.49776 4.61662 2.4 4.80193 2.4 5H3ZM3 19H2.4C2.4 19.1981 2.49776 19.3834 2.66124 19.4952C2.82472 19.607 3.03286 19.631 3.21747 19.5592L3 19ZM21 19L20.7825 19.5592C20.9671 19.631 21.1753 19.6071 21.3388 19.4952C21.5022 19.3834 21.6 19.1981 21.6 19H21ZM21 5H21.6C21.6 4.80193 21.5022 4.61662 21.3388 4.50478C21.1753 4.39295 20.9671 4.36901 20.7825 4.4408L21 5ZM19.6114 5.54002L19.3939 4.98082V4.98082L19.6114 5.54002ZM4.38863 5.54002L4.6061 4.98082V4.98082L4.38863 5.54002ZM4.38863 18.46L4.6061 19.0192H4.6061L4.38863 18.46ZM19.6114 18.46L19.3939 19.0192L19.6114 18.46ZM2.4 5V19H3.6V5H2.4ZM21.6 19V5H20.4V19H21.6ZM20.7825 4.4408L19.3939 4.98082L19.8288 6.09923L21.2175 5.5592L20.7825 4.4408ZM4.6061 4.98082L3.21747 4.4408L2.78253 5.5592L4.17116 6.09922L4.6061 4.98082ZM3.21747 19.5592L4.6061 19.0192L4.17116 17.9008L2.78253 18.4408L3.21747 19.5592ZM19.3939 19.0192L20.7825 19.5592L21.2175 18.4408L19.8288 17.9008L19.3939 19.0192ZM4.6061 19.0192C9.36188 17.1697 14.6381 17.1697 19.3939 19.0192L19.8288 17.9008C14.7933 15.9425 9.2067 15.9425 4.17116 17.9008L4.6061 19.0192ZM19.3939 4.98082C14.6381 6.83029 9.36188 6.83029 4.6061 4.98082L4.17116 6.09922C9.2067 8.05749 14.7933 8.05749 19.8288 6.09923L19.3939 4.98082Z" fill="#28293D"/>
</svg>
