<svg width="24" height="24" viewBox="0 0 24 24" fill="none" xmlns="http://www.w3.org/2000/svg">
<path d="M20 7.5H20.6V7.25147L20.4243 7.07574L20 7.5ZM16.5 4L16.9243 3.57574L16.7485 3.4H16.5V4ZM8 8V7.4H7.4V8H8ZM8 9H7.4V9.6H8V9ZM14 9V9.6H14.6V9H14ZM14 8H14.6V7.4H14V8ZM3.4 5V19H4.6V5H3.4ZM5 20.6H19V19.4H5V20.6ZM20.6 19V7.5H19.4V19H20.6ZM20.4243 7.07574L16.9243 3.57574L16.0757 4.42426L19.5757 7.92426L20.4243 7.07574ZM16.5 3.4H5V4.6H16.5V3.4ZM7.4 8V9H8.6V8H7.4ZM8 9.6H14V8.4H8V9.6ZM14.6 9V8H13.4V9H14.6ZM14 7.4H8V8.6H14V7.4ZM19 20.6C19.8837 20.6 20.6 19.8837 20.6 19H19.4C19.4 19.2209 19.2209 19.4 19 19.4V20.6ZM3.4 19C3.4 19.8837 4.11634 20.6 5 20.6V19.4C4.77909 19.4 4.6 19.2209 4.6 19H3.4ZM4.6 5C4.6 4.77909 4.77909 4.6 5 4.6V3.4C4.11634 3.4 3.4 4.11634 3.4 5H4.6ZM13.4 15C13.4 15.7732 12.7732 16.4 12 16.4V17.6C13.4359 17.6 14.6 16.4359 14.6 15H13.4ZM12 16.4C11.2268 16.4 10.6 15.7732 10.6 15H9.4C9.4 16.4359 10.5641 17.6 12 17.6V16.4ZM10.6 15C10.6 14.2268 11.2268 13.6 12 13.6V12.4C10.5641 12.4 9.4 13.5641 9.4 15H10.6ZM12 13.6C12.7732 13.6 13.4 14.2268 13.4 15H14.6C14.6 13.5641 13.4359 12.4 12 12.4V13.6Z" fill="#28293D"/>
</svg>
