<svg width="24" height="24" viewBox="0 0 24 24" fill="none" xmlns="http://www.w3.org/2000/svg">
<path d="M5.1 22L5.1 22.6H5.1V22ZM18.9 22V21.4V22ZM19 21.9H18.4H19ZM19 2.1L19.6 2.1L19 2.1ZM5 2.1L4.4 2.1L5 2.1ZM5 21.9H5.6H5ZM5.1 2L5.1 2.6L5.1 2ZM15 15H14.4H15ZM12 12V11.4V12ZM12 18V17.4V18ZM9 15H8.4H9ZM13 7H13.6H13ZM12 6V6.6V6ZM12 8V8.6V8ZM11 7H11.6H11ZM5.1 22.6H18.9V21.4H5.1V22.6ZM19.6 21.9L19.6 2.1L18.4 2.1L18.4 21.9H19.6ZM4.4 2.1L4.4 21.9H5.6L5.6 2.1L4.4 2.1ZM18.9 1.4L5.1 1.4L5.1 2.6L18.9 2.6V1.4ZM19.6 2.1C19.6 1.7134 19.2866 1.4 18.9 1.4V2.6C18.6239 2.6 18.4 2.37615 18.4 2.1L19.6 2.1ZM18.9 22.6C19.2866 22.6 19.6 22.2866 19.6 21.9H18.4C18.4 21.6239 18.6239 21.4 18.9 21.4V22.6ZM5.1 21.4C5.37614 21.4 5.6 21.6239 5.6 21.9H4.4C4.4 22.2866 4.7134 22.6 5.1 22.6L5.1 21.4ZM5.6 2.1C5.6 2.37615 5.37614 2.6 5.1 2.6L5.1 1.4C4.71341 1.4 4.4 1.71339 4.4 2.1L5.6 2.1ZM15.6 15C15.6 13.0118 13.9882 11.4 12 11.4V12.6C13.3255 12.6 14.4 13.6745 14.4 15H15.6ZM12 18.6C13.9882 18.6 15.6 16.9882 15.6 15H14.4C14.4 16.3255 13.3255 17.4 12 17.4V18.6ZM12 17.4C10.6745 17.4 9.6 16.3255 9.6 15H8.4C8.4 16.9882 10.0118 18.6 12 18.6V17.4ZM9.6 15C9.6 13.6745 10.6745 12.6 12 12.6V11.4C10.0118 11.4 8.4 13.0118 8.4 15H9.6ZM13.6 7C13.6 6.11634 12.8837 5.4 12 5.4V6.6C12.2209 6.6 12.4 6.77909 12.4 7H13.6ZM12 8.6C12.8837 8.6 13.6 7.88366 13.6 7H12.4C12.4 7.22091 12.2209 7.4 12 7.4V8.6ZM12 7.4C11.7791 7.4 11.6 7.22091 11.6 7H10.4C10.4 7.88366 11.1163 8.6 12 8.6V7.4ZM11.6 7C11.6 6.77909 11.7791 6.6 12 6.6V5.4C11.1163 5.4 10.4 6.11634 10.4 7H11.6Z" fill="#28293D"/>
</svg>
