<svg width="24" height="24" viewBox="0 0 24 24" fill="none" xmlns="http://www.w3.org/2000/svg">
<path d="M16.4 12C16.4 14.4301 14.4301 16.4 12 16.4V17.6C15.0928 17.6 17.6 15.0928 17.6 12H16.4ZM12 16.4C9.56995 16.4 7.6 14.4301 7.6 12H6.4C6.4 15.0928 8.90721 17.6 12 17.6V16.4ZM7.6 12C7.6 9.56995 9.56995 7.6 12 7.6V6.4C8.90721 6.4 6.4 8.90721 6.4 12H7.6ZM12 7.6C14.4301 7.6 16.4 9.56995 16.4 12H17.6C17.6 8.90721 15.0928 6.4 12 6.4V7.6ZM11.4 1V4H12.6V1H11.4ZM11.4 20V23H12.6V20H11.4ZM23 11.4H20V12.6H23V11.4ZM4 11.4H1V12.6H4V11.4ZM19.3539 3.79756L17.2326 5.91888L18.0811 6.76741L20.2024 4.64609L19.3539 3.79756ZM5.91888 17.2326L3.79756 19.3539L4.64609 20.2024L6.76741 18.0811L5.91888 17.2326ZM20.2024 19.3539L18.0811 17.2326L17.2326 18.0811L19.3539 20.2024L20.2024 19.3539ZM6.76741 5.91888L4.64609 3.79756L3.79756 4.64609L5.91888 6.76741L6.76741 5.91888Z" fill="#28293D"/>
</svg>
