<svg width="24" height="24" viewBox="0 0 24 24" fill="none" xmlns="http://www.w3.org/2000/svg">
<path d="M2 7C2 6.44772 2.44772 6 3 6H6.58579C6.851 6 7.10536 5.89464 7.29289 5.70711L8.70711 4.29289C8.89464 4.10536 9.149 4 9.41421 4H14.5858C14.851 4 15.1054 4.10536 15.2929 4.29289L16.7071 5.70711C16.8946 5.89464 17.149 6 17.4142 6H21C21.5523 6 22 6.44772 22 7V18C22 18.5523 21.5523 19 21 19H3C2.44772 19 2 18.5523 2 18V7Z" stroke="#28293D" stroke-width="1.2"/>
<path d="M8 13L7.57574 13.4243L8.6 14.4485V13H8ZM7 12L6.57574 11.5757L6.15147 12L6.57574 12.4243L7 12ZM8 11H8.6V9.55147L7.57574 10.5757L8 11ZM16 13H15.4V14.4485L16.4243 13.4243L16 13ZM17 12L17.4243 12.4243L17.8485 12L17.4243 11.5757L17 12ZM16 11L16.4243 10.5757L15.4 9.55147V11H16ZM8.42426 12.5757L7.42426 11.5757L6.57574 12.4243L7.57574 13.4243L8.42426 12.5757ZM7.42426 12.4243L8.42426 11.4243L7.57574 10.5757L6.57574 11.5757L7.42426 12.4243ZM7.4 11V12H8.6V11H7.4ZM7.4 12V13H8.6V12H7.4ZM16.4243 13.4243L17.4243 12.4243L16.5757 11.5757L15.5757 12.5757L16.4243 13.4243ZM17.4243 11.5757L16.4243 10.5757L15.5757 11.4243L16.5757 12.4243L17.4243 11.5757ZM15.4 11V12H16.6V11H15.4ZM15.4 12V13H16.6V12H15.4ZM8 12.6H16V11.4H8V12.6Z" fill="#28293D"/>
</svg>
