<svg width="24" height="24" viewBox="0 0 24 24" fill="none" xmlns="http://www.w3.org/2000/svg">
<path d="M10.5 7V6.4H9.9V7H10.5ZM13.5 7H14.1V6.4H13.5V7ZM13.5 10V10.6H14.1V10H13.5ZM10.5 10H9.9V10.6H10.5V10ZM4.4 8.5C4.4 8.99706 3.99706 9.4 3.5 9.4V10.6C4.6598 10.6 5.6 9.6598 5.6 8.5H4.4ZM3.5 9.4C3.00294 9.4 2.6 8.99706 2.6 8.5H1.4C1.4 9.6598 2.3402 10.6 3.5 10.6V9.4ZM2.6 8.5C2.6 8.00294 3.00294 7.6 3.5 7.6V6.4C2.3402 6.4 1.4 7.3402 1.4 8.5H2.6ZM3.5 7.6C3.99706 7.6 4.4 8.00294 4.4 8.5H5.6C5.6 7.3402 4.6598 6.4 3.5 6.4V7.6ZM21.4 8.5C21.4 8.99706 20.9971 9.4 20.5 9.4V10.6C21.6598 10.6 22.6 9.6598 22.6 8.5H21.4ZM20.5 9.4C20.0029 9.4 19.6 8.99706 19.6 8.5H18.4C18.4 9.6598 19.3402 10.6 20.5 10.6V9.4ZM19.6 8.5C19.6 8.00294 20.0029 7.6 20.5 7.6V6.4C19.3402 6.4 18.4 7.3402 18.4 8.5H19.6ZM20.5 7.6C20.9971 7.6 21.4 8.00294 21.4 8.5H22.6C22.6 7.3402 21.6598 6.4 20.5 6.4V7.6ZM18.9 15.5C18.9 15.9971 18.4971 16.4 18 16.4V17.6C19.1598 17.6 20.1 16.6598 20.1 15.5H18.9ZM18 16.4C17.5029 16.4 17.1 15.9971 17.1 15.5H15.9C15.9 16.6598 16.8402 17.6 18 17.6V16.4ZM18 14.6C18.4971 14.6 18.9 15.0029 18.9 15.5H20.1C20.1 14.3402 19.1598 13.4 18 13.4V14.6ZM6.9 15.5C6.9 15.9971 6.49706 16.4 6 16.4V17.6C7.1598 17.6 8.1 16.6598 8.1 15.5H6.9ZM6 16.4C5.50294 16.4 5.1 15.9971 5.1 15.5H3.9C3.9 16.6598 4.8402 17.6 6 17.6V16.4ZM5.1 15.5C5.1 15.0029 5.50294 14.6 6 14.6V13.4C4.8402 13.4 3.9 14.3402 3.9 15.5H5.1ZM10.5 7.6H13.5V6.4H10.5V7.6ZM13.5 9.4H10.5V10.6H13.5V9.4ZM17.1 15.5C17.1 15.0071 17.4963 14.6067 17.9875 14.6001L17.9714 13.4002C16.8247 13.4156 15.9 14.3498 15.9 15.5H17.1ZM17.9875 14.6001C17.9917 14.6 17.9958 14.6 18 14.6V13.4C17.9905 13.4 17.981 13.4001 17.9714 13.4002L17.9875 14.6001ZM6 14.6C6.00418 14.6 6.00834 14.6 6.01248 14.6001L6.02857 13.4002C6.01905 13.4001 6.00952 13.4 6 13.4V14.6ZM6.01248 14.6001C6.50368 14.6067 6.9 15.0071 6.9 15.5H8.1C8.1 14.3498 7.1753 13.4156 6.02857 13.4002L6.01248 14.6001ZM11.1 8.5V7H9.9V8.5H11.1ZM11.1 10V8.68903H9.9V10H11.1ZM11.1 8.68903V8.5H9.9V8.68903H11.1ZM6.61849 14.0495C6.80933 11.7356 8.46089 9.83341 10.6496 9.27009L10.3504 8.10796C7.67505 8.79656 5.65608 11.1193 5.42256 13.9508L6.61849 14.0495ZM13.3504 9.27009C15.5391 9.83341 17.1907 11.7356 17.3815 14.0495L18.5774 13.9508C18.3439 11.1193 16.325 8.79656 13.6496 8.10796L13.3504 9.27009ZM12.9 8.68903V10H14.1V8.68903H12.9ZM12.9 7V8.5H14.1V7H12.9ZM12.9 8.5V8.68903H14.1V8.5H12.9ZM19 7.9H13.5V9.1H19V7.9ZM10.5 7.9H5V9.1H10.5V7.9Z" fill="#28293D"/>
</svg>
