<svg width="24" height="24" viewBox="0 0 24 24" fill="none" xmlns="http://www.w3.org/2000/svg">
<path d="M1.4 5V19H2.6V5H1.4ZM3 20.6H21V19.4H3V20.6ZM22.6 19V5H21.4V19H22.6ZM21 3.4H3V4.6H21V3.4ZM19.6 12C19.6 10.3752 18.677 8.96086 17.2985 7.97623C15.9188 6.99076 14.0436 6.4 12 6.4V7.6C13.8224 7.6 15.4471 8.12852 16.601 8.95271C17.756 9.77771 18.4 10.8634 18.4 12H19.6ZM12 17.6C14.0436 17.6 15.9188 17.0092 17.2985 16.0238C18.677 15.0391 19.6 13.6248 19.6 12H18.4C18.4 13.1366 17.756 14.2223 16.601 15.0473C15.4471 15.8715 13.8224 16.4 12 16.4V17.6ZM4.4 12C4.4 13.6248 5.32302 15.0391 6.70151 16.0238C8.08116 17.0092 9.95637 17.6 12 17.6V16.4C10.1776 16.4 8.55285 15.8715 7.399 15.0473C6.24399 14.2223 5.6 13.1366 5.6 12H4.4ZM5.6 12C5.6 10.8634 6.24399 9.77771 7.399 8.95271C8.55285 8.12852 10.1776 7.6 12 7.6V6.4C9.95637 6.4 8.08116 6.99076 6.70151 7.97623C5.32302 8.96086 4.4 10.3752 4.4 12H5.6ZM22.6 5C22.6 4.11634 21.8837 3.4 21 3.4V4.6C21.2209 4.6 21.4 4.77909 21.4 5H22.6ZM21 20.6C21.8837 20.6 22.6 19.8837 22.6 19H21.4C21.4 19.2209 21.2209 19.4 21 19.4V20.6ZM1.4 19C1.4 19.8837 2.11634 20.6 3 20.6V19.4C2.77909 19.4 2.6 19.2209 2.6 19H1.4ZM2.6 5C2.6 4.77909 2.77909 4.6 3 4.6V3.4C2.11634 3.4 1.4 4.11634 1.4 5H2.6Z" fill="#28293D"/>
</svg>
