<svg width="24" height="24" viewBox="0 0 24 24" fill="none" xmlns="http://www.w3.org/2000/svg">
<circle cx="12" cy="12" r="9" stroke="#555770" stroke-width="2"/>
<path d="M12 17C10.717 17 10 16.1655 10 15.5C10 14.8345 10.717 14 12 14C13.283 14 14 14.8345 14 15.5C14 16.1655 13.283 17 12 17Z" fill="#3E7BFA" stroke="#3E7BFA" stroke-width="2"/>
<path d="M9 11C8.44772 11 8 10.5523 8 10C8 9.44772 8.44772 9 9 9C9.55228 9 10 9.44772 10 10C10 10.5523 9.55228 11 9 11ZM15 11C14.4477 11 14 10.5523 14 10C14 9.44772 14.4477 9 15 9C15.5523 9 16 9.44772 16 10C16 10.5523 15.5523 11 15 11Z" stroke="#3E7BFA" stroke-width="2"/>
</svg>
