<svg width="24" height="24" viewBox="0 0 24 24" fill="none" xmlns="http://www.w3.org/2000/svg">
<path d="M16.9996 9V8.5H13.9996V9M16.9996 9H20.4875M16.9996 9V9.5M6.9996 9V8.5H9.9996V9M6.9996 9H3.51172M6.9996 9V9.5M9.9996 9H13.9996M9.9996 9V9.5M13.9996 9V9.5M6.9996 9.5V11H9.9996V9.5M6.9996 9.5H9.9996M13.9996 9.5V11H16.9996V9.5M13.9996 9.5H16.9996" stroke="#3E7BFA" stroke-width="2"/>
<path d="M12 21C16.9706 21 21 16.9706 21 12C21 10.9481 20.8195 9.93834 20.4879 9C20.4281 8.83096 20.3635 8.66423 20.2941 8.5C18.9286 5.26806 15.7292 3 12 3C8.27084 3 5.07142 5.26806 3.70591 8.5C3.63652 8.66423 3.57186 8.83096 3.51212 9C3.18046 9.93834 3 10.9481 3 12C3 16.9706 7.02944 21 12 21Z" stroke="#555770" stroke-width="2"/>
<path d="M7 14C7.99804 15.7934 9.86346 17 12 17C14.1365 17 16.002 15.7934 17 14" stroke="#3E7BFA" stroke-width="2"/>
</svg>
