<svg width="24" height="24" viewBox="0 0 24 24" fill="none" xmlns="http://www.w3.org/2000/svg">
<path d="M3.00021 12C3.00021 16.9706 7.02965 21 12.0002 21C16.9708 21 21.0003 16.9706 21.0003 12C21.0003 10.4228 20.5945 8.94045 19.8818 7.65145C21.5004 6 21.5003 3.5 20.0002 2C19.0004 4 18.5242 3.97588 17.5701 4.93013C16.0379 3.72135 14.1033 3 12.0002 3C9.89713 3 7.96253 3.72135 6.43033 4.93013C5.47627 3.97588 5.00037 4 4.00029 2C2.5002 3.5 2.50035 6 4.11864 7.65145C3.40594 8.94045 3.00021 10.4228 3.00021 12Z" stroke="#555770" stroke-width="2"/>
<path d="M7 14C7.99804 15.7934 9.86346 17 12 17C14.1365 17 16.002 15.7934 17 14" stroke="#3E7BFA" stroke-width="2"/>
<path d="M9 11C8.44772 11 8 10.5523 8 10C8 9.44772 8.44772 9 9 9C9.55228 9 10 9.44772 10 10C10 10.5523 9.55228 11 9 11ZM15 11C14.4477 11 14 10.5523 14 10C14 9.44772 14.4477 9 15 9C15.5523 9 16 9.44772 16 10C16 10.5523 15.5523 11 15 11Z" stroke="#3E7BFA" stroke-width="2"/>
</svg>
