<svg width="24" height="24" viewBox="0 0 24 24" fill="none" xmlns="http://www.w3.org/2000/svg">
<circle cx="12" cy="12" r="9" stroke="#555770" stroke-width="2"/>
<path d="M7 14C7.99804 15.7934 9.86346 17 12 17C14.1365 17 16.002 15.7934 17 14" stroke="#3E7BFA" stroke-width="2"/>
<path d="M10.025 8C10.6739 8 11.2 8.52671 11.2 9.17645C11.2 9.44129 11.1823 9.76294 10.8812 10.1146C10.5801 10.4663 8.85 12 8.85 12C8.85 12 7.11991 10.4663 6.81883 10.1146C6.51774 9.76294 6.5 9.44129 6.5 9.17645C6.5 8.52671 7.02607 8 7.675 8C8.32393 8 8.85 8.52671 8.85 9.17645C8.85 8.52671 9.37607 8 10.025 8Z" fill="#3E7BFA"/>
<path d="M16.325 8C16.9739 8 17.5 8.52671 17.5 9.17645C17.5 9.44129 17.4823 9.76294 17.1812 10.1146C16.8801 10.4663 15.15 12 15.15 12C15.15 12 13.4199 10.4663 13.1188 10.1146C12.8177 9.76294 12.8 9.44129 12.8 9.17645C12.8 8.52671 13.3261 8 13.975 8C14.6239 8 15.15 8.52671 15.15 9.17645C15.15 8.52671 15.6761 8 16.325 8Z" fill="#3E7BFA"/>
</svg>
