<svg width="24" height="24" viewBox="0 0 24 24" fill="none" xmlns="http://www.w3.org/2000/svg">
<circle cx="12" cy="12" r="9" stroke="#555770" stroke-width="2"/>
<path d="M7 14C7.99804 15.7934 9.86346 17 12 17C14.1365 17 16.002 15.7934 17 14" stroke="#3E7BFA" stroke-width="2"/>
<mask id="path-3-inside-1_402_16846" fill="white">
<path d="M9 12C7.89543 12 7 11.1046 7 10C7 9.63571 7.09739 9.29417 7.26756 9C7.61337 9.5978 8.25972 10 9 10C9.74028 10 10.3866 9.5978 10.7324 9C10.9026 9.29417 11 9.63571 11 10C11 11.1046 10.1046 12 9 12Z"/>
<path d="M15 12C13.8954 12 13 11.1046 13 10C13 9.63571 13.0974 9.29417 13.2676 9C13.6134 9.5978 14.2597 10 15 10C15.7403 10 16.3866 9.5978 16.7324 9C16.9026 9.29417 17 9.63571 17 10C17 11.1046 16.1046 12 15 12Z"/>
</mask>
<path d="M13.2676 9L14.9988 7.99855L13.2676 5.0058L11.5364 7.99855L13.2676 9ZM16.7324 9L18.4636 7.99855L16.7324 5.00579L15.0012 7.99855L16.7324 9ZM10.7324 9L12.4636 7.99855L10.7324 5.0058L9.00122 7.99855L10.7324 9ZM7.26756 9L8.99878 7.99855L7.26756 5.0058L5.53635 7.99855L7.26756 9ZM5 10C5 12.2091 6.79086 14 9 14V10H5ZM9 14C11.2091 14 13 12.2091 13 10H9V14ZM11 10C11 12.2091 12.7909 14 15 14V10H11ZM15 14C17.2091 14 19 12.2091 19 10H15V14ZM11.5364 10.0015C12.225 11.1918 13.5169 12 15 12V8C14.9968 8 14.9969 7.99966 14.9988 8.00019C15.0003 8.00062 15.0013 8.00113 15.0015 8.00123C15.0015 8.00124 15.0008 8.00084 15 7.99996C14.9991 7.99909 14.9987 7.99848 14.9988 7.99855L11.5364 10.0015ZM11.5364 7.99855C11.1948 8.58893 11 9.27475 11 10H15C15 9.99682 15.0003 9.99686 14.9998 9.99872C14.9994 10.0002 14.9989 10.0012 14.9988 10.0015L11.5364 7.99855ZM15 12C16.4831 12 17.775 11.1918 18.4636 10.0015L15.0012 7.99855C15.0013 7.99848 15.0009 7.99909 15 7.99996C14.9992 8.00084 14.9985 8.00124 14.9985 8.00123C14.9987 8.00113 14.9997 8.00062 15.0012 8.00019C15.0031 7.99966 15.0032 8 15 8V12ZM19 10C19 9.27475 18.8052 8.58893 18.4636 7.99855L15.0012 10.0015C15.0011 10.0012 15.0006 10.0002 15.0002 9.99872C14.9997 9.99687 15 9.99682 15 10H19ZM9 12C10.4831 12 11.775 11.1918 12.4636 10.0015L9.00122 7.99855C9.00126 7.99848 9.0009 7.99909 9.00004 7.99996C8.99917 8.00084 8.99853 8.00124 8.99854 8.00123C8.99871 8.00113 8.99967 8.00062 9.00122 8.00019C9.00312 7.99966 9.00321 8 9 8V12ZM13 10C13 9.27475 12.8052 8.58893 12.4636 7.99855L9.00122 10.0015C9.00109 10.0012 9.00058 10.0002 9.00017 9.99872C8.99967 9.99687 9 9.99682 9 10H13ZM5.53635 10.0015C6.22495 11.1918 7.51692 12 9 12V8C8.99679 8 8.99688 7.99966 8.99878 8.00019C9.00033 8.00062 9.00129 8.00113 9.00146 8.00123C9.00147 8.00124 9.00083 8.00084 8.99996 7.99996C8.9991 7.99909 8.99874 7.99848 8.99878 7.99855L5.53635 10.0015ZM5.53635 7.99855C5.19483 8.58893 5 9.27475 5 10H9C9 9.99682 9.00033 9.99687 8.99983 9.99872C8.99942 10.0002 8.99891 10.0012 8.99878 10.0015L5.53635 7.99855Z" fill="#3E7BFA" mask="url(#path-3-inside-1_402_16846)"/>
</svg>
