<svg width="24" height="24" viewBox="0 0 24 24" fill="none" xmlns="http://www.w3.org/2000/svg">
<g clip-path="url(#clip0_402_17593)">
<path d="M11.9997 5.99998C13.342 6.32881 14.9034 5.94026 16.0367 4.86678C17.17 3.7933 17.5769 2.31735 17.225 1.05045C15.8828 0.72162 14.3214 1.11017 13.1881 2.18365C12.0548 3.25713 11.6478 4.73309 11.9997 5.99998Z" stroke="#3E7BFA" stroke-width="2"/>
<path d="M7.95 7C9.75 7 10.2 7.88235 12 7.88235C13.8 7.88235 14.25 7 16.05 7C18.3 7 21 9.20588 21 13.6176C21 18.0294 17.85 22 16.05 22C14.25 22 13.35 21.1176 12 21.1176C10.65 21.1176 9.75 22 7.95 22C6.15 22 3 18.0294 3 13.6176C3 9.20588 5.7 7 7.95 7Z" stroke="#555770" stroke-width="2"/>
</g>
<defs>
<clipPath id="clip0_402_17593">
<rect width="24" height="24" fill="white"/>
</clipPath>
</defs>
</svg>
