<svg width="24" height="24" viewBox="0 0 24 24" fill="none" xmlns="http://www.w3.org/2000/svg">
<path d="M4.89453 8.60278V7.60278H3.89453V8.60278H4.89453ZM17.3998 8.60278H18.3998V7.60278H17.3998V8.60278ZM14.6743 8.60278V7.60278H13.6617L13.6744 8.61532L14.6743 8.60278ZM8.40693 8.60278L9.40475 8.66879L9.47527 7.60278H8.40693V8.60278ZM9.29983 11.0449L8.58208 11.7412L9.29983 11.0449ZM12.8998 11.699L12.4681 10.797L12.8998 11.699ZM13.2916 11.4736L12.7287 10.6471L13.2916 11.4736ZM8.96444 10.6363L9.78731 10.0681L8.96444 10.6363ZM15.3156 20.9999H6.78927V22.9999H15.3156V20.9999ZM17.3998 12.0449H18.3472V10.0449H17.3998V12.0449ZM19.9998 13.9999V15.9999H21.9998V13.9999H19.9998ZM16.3998 11.0449V18.9999H18.3998V11.0449H16.3998ZM16.3998 18.9999V20.086H18.3998V18.9999H16.3998ZM18.3472 17.9999H17.3998V19.9999H18.3472V17.9999ZM19.9998 15.9999C19.9998 17.1962 19.2145 17.9999 18.3472 17.9999V19.9999C20.6192 19.9999 21.9998 17.9747 21.9998 15.9999H19.9998ZM18.3472 12.0449C19.2322 12.0449 19.9998 12.8243 19.9998 13.9999H21.9998C21.9998 12.0045 20.6015 10.0449 18.3472 10.0449V12.0449ZM6.78927 20.9999C6.30457 20.9999 5.89453 20.6003 5.89453 20.086H3.89453C3.89453 21.6858 5.1811 22.9999 6.78927 22.9999V20.9999ZM15.3156 22.9999C16.1034 22.9999 16.8562 22.6822 17.4139 22.1873C17.9744 21.6898 18.3998 20.954 18.3998 20.086H16.3998C16.3998 20.2751 16.3063 20.4962 16.0863 20.6914C15.8635 20.8892 15.5742 20.9999 15.3156 20.9999V22.9999ZM16.3998 8.60278V11.0449H18.3998V8.60278H16.3998ZM9.39983 8.8181C9.39983 8.76778 9.40149 8.71799 9.40475 8.66879L7.40911 8.53677C7.40295 8.62989 7.39983 8.7237 7.39983 8.8181H9.39983ZM4.89453 9.60278H8.40693V7.60278H4.89453V9.60278ZM14.6743 9.60278H17.3998V7.60278H14.6743V9.60278ZM5.89453 20.086V9.14928H3.89453V20.086H5.89453ZM5.89453 9.14928V8.60278H3.89453V9.14928H5.89453ZM11.5498 10.9999C10.9514 10.9999 10.4099 10.753 10.0176 10.3486L8.58208 11.7412C9.33326 12.5155 10.3854 12.9999 11.5498 12.9999V10.9999ZM12.4681 10.797C12.1969 10.9268 11.8868 10.9999 11.5498 10.9999V12.9999C12.1795 12.9999 12.7853 12.8625 13.3315 12.601L12.4681 10.797ZM13.6744 8.61532C13.6866 9.58779 13.2753 10.2748 12.7287 10.6471L13.8546 12.3001C14.9997 11.5201 15.6942 10.1779 15.6742 8.59024L13.6744 8.61532ZM12.7287 10.6471C12.646 10.7034 12.559 10.7535 12.4681 10.797L13.3315 12.601C13.5134 12.514 13.6882 12.4134 13.8546 12.3001L12.7287 10.6471ZM12.2916 11.4736V18.3636H14.2916V11.4736H12.2916ZM10.0176 10.3486C9.93342 10.2619 9.85634 10.168 9.78731 10.0681L8.14157 11.2045C8.27358 11.3957 8.42101 11.5752 8.58208 11.7412L10.0176 10.3486ZM9.78731 10.0681C9.54344 9.7149 9.39983 9.28535 9.39983 8.8181H7.39983C7.39983 9.70289 7.67365 10.5269 8.14157 11.2045L9.78731 10.0681ZM7.96444 10.6363V18.3636H9.96444V10.6363H7.96444Z" fill="#555770"/>
<path d="M4.8947 8.60287V7.60287H3.8947V8.60287H4.8947ZM17.4 8.60287V9.60287H17.5809L17.7504 9.53948L17.4 8.60287ZM14.6745 8.60287V7.60287H13.6619L13.6746 8.61541L14.6745 8.60287ZM9.78748 7.56823C10.1013 7.11377 9.9873 6.49096 9.53284 6.17713C9.07838 5.86331 8.45557 5.97731 8.14174 6.43177L9.78748 7.56823ZM14.6745 5.20129L13.6814 5.31851C13.7237 5.67726 13.9563 5.98527 14.2897 6.12428C14.6231 6.26329 15.0056 6.21168 15.2902 5.98926L14.6745 5.20129ZM7.63566 4.6441L6.91532 5.33771C7.16406 5.59604 7.53208 5.70139 7.87983 5.61383C8.22759 5.52627 8.50183 5.25919 8.59858 4.91388L7.63566 4.6441ZM4.8947 9.14936L4.59407 10.1031L5.8947 10.5131V9.14936H4.8947ZM9.3 11.045L8.58225 11.7413H8.58225L9.3 11.045ZM12.9 11.6991L12.4683 10.7971L12.9 11.6991ZM13.2918 11.4737L12.7289 10.6472L13.2918 11.4737ZM8.96461 10.6364L9.78748 10.0681L8.96461 10.6364ZM4 6.54546C4 5.58201 4.77057 4.81818 5.7 4.81818V2.81818C3.64709 2.81818 2 4.49644 2 6.54546H4ZM16.05 5.72727C16.7309 5.72727 17.3 6.28759 17.3 7H19.3C19.3 5.20202 17.8544 3.72727 16.05 3.72727V5.72727ZM15.2902 5.98926C15.5016 5.82405 15.7638 5.72727 16.05 5.72727V3.72727C15.3002 3.72727 14.608 3.98418 14.0588 4.41332L15.2902 5.98926ZM11.1 3C12.4217 3 13.5263 4.00489 13.6814 5.31851L15.6676 5.08406C15.397 2.7913 13.4632 1 11.1 1V3ZM5.7 4.81818C6.17476 4.81818 6.60435 5.01476 6.91532 5.33771L8.356 3.95048C7.68588 3.25453 6.74353 2.81818 5.7 2.81818V4.81818ZM8.59858 4.91388C8.90998 3.80244 9.91832 3 11.1 3V1C8.98635 1 7.21644 2.43373 6.67274 4.37431L8.59858 4.91388ZM17.3 7C17.3 7.32068 17.2474 7.47732 17.2107 7.54493C17.1892 7.58458 17.1609 7.62465 17.0496 7.66626L17.7504 9.53948C18.2786 9.34186 18.7003 8.99367 18.9689 8.49828C19.2224 8.03084 19.3 7.50567 19.3 7H17.3ZM9.4 8.81818C9.4 8.76786 9.40166 8.71808 9.40492 8.66888L7.40928 8.53686C7.40312 8.62997 7.4 8.72378 7.4 8.81818H9.4ZM9.40492 8.66888C9.43196 8.26013 9.56953 7.88385 9.78748 7.56823L8.14174 6.43177C7.72409 7.03658 7.46078 7.75839 7.40928 8.53686L9.40492 8.66888ZM4.8947 9.60287H8.4071V7.60287H4.8947V9.60287ZM14.6745 9.60287H17.4V7.60287H14.6745V9.60287ZM5.19533 8.19562C4.50722 7.97872 4 7.32508 4 6.54546H2C2 8.21168 3.08649 9.62789 4.59407 10.1031L5.19533 8.19562ZM5.8947 9.14936V8.60287H3.8947V9.14936H5.8947ZM11.55 11C10.9516 11 10.41 10.7531 10.0177 10.3487L8.58225 11.7413C9.33343 12.5156 10.3856 13 11.55 13V11ZM12.4683 10.7971C12.197 10.9269 11.887 11 11.55 11V13C12.1797 13 12.7855 12.8626 13.3317 12.6011L12.4683 10.7971ZM13.6746 8.61541C13.6868 9.58787 13.2755 10.2749 12.7289 10.6472L13.8548 12.3002C14.9998 11.5202 15.6943 10.178 15.6744 8.59033L13.6746 8.61541ZM12.7289 10.6472C12.6462 10.7035 12.5591 10.7536 12.4683 10.7971L13.3317 12.6011C13.5136 12.5141 13.6884 12.4135 13.8548 12.3002L12.7289 10.6472ZM10.0177 10.3487C9.93359 10.2619 9.85651 10.1681 9.78748 10.0681L8.14174 11.2046C8.27375 11.3958 8.42118 11.5753 8.58225 11.7413L10.0177 10.3487ZM9.78748 10.0681C9.54361 9.71498 9.4 9.28543 9.4 8.81818H7.4C7.4 9.70298 7.67382 10.527 8.14174 11.2046L9.78748 10.0681Z" fill="#3E7BFA"/>
</svg>
