<svg width="24" height="24" viewBox="0 0 24 24" fill="none" xmlns="http://www.w3.org/2000/svg">
<path d="M21 17.0001C19.0209 17.0001 17.3104 15.8502 16.5 14.1821C15.6896 15.8502 13.9791 17.0001 12 17.0001C10.0209 17.0001 8.31036 15.8502 7.5 14.1821C6.68964 15.8502 4.9791 17.0001 3 17.0001" stroke="#3E7BFA" stroke-width="2"/>
<path d="M12 9H6C4.34315 9 3 10.3431 3 12V22H21V12C21 10.3431 19.6569 9 18 9H12ZM12 9V6" stroke="#555770" stroke-width="2"/>
<path d="M13.75 3.34211C13.75 4.25774 12.9665 5 12 5C11.0335 5 10.25 4.25774 10.25 3.34211C10.25 2.42648 12 0.5 12 0.5C12 0.5 13.75 2.42648 13.75 3.34211Z" fill="#3E7BFA"/>
</svg>
