<svg width="24" height="24" viewBox="0 0 24 24" fill="none" xmlns="http://www.w3.org/2000/svg">
<path d="M17 13.5H7V18.5H17V13.5Z" stroke="#3E7BFA" stroke-width="2"/>
<path d="M9.64018 8.79985L8.07945 10.1005C7.39547 10.6704 7 11.5148 7 12.4051V13.5V18.5V21C7 21.5523 7.44772 22 8 22H16C16.5523 22 17 21.5523 17 21V18.5V13.5V12.4051C17 11.5148 16.6045 10.6704 15.9206 10.1005L14.3598 8.79985C14.1318 8.60985 14 8.3284 14 8.03163V3.67748C14 3.56384 14.0451 3.45486 14.1255 3.3745C14.355 3.14498 14.4352 2.80549 14.3325 2.49755L14.1842 2.0525C14.0742 1.72255 13.7654 1.5 13.4176 1.5H10.5824C10.2346 1.5 9.92582 1.72255 9.81583 2.0525L9.66748 2.49755C9.56484 2.80549 9.64498 3.14498 9.8745 3.3745C9.95486 3.45486 10 3.56384 10 3.67748V8.03163C10 8.3284 9.86818 8.60985 9.64018 8.79985Z" stroke="#555770" stroke-width="2"/>
</svg>
