<svg width="24" height="24" viewBox="0 0 24 24" fill="none" xmlns="http://www.w3.org/2000/svg">
<path d="M2 18.3207C2 19.0827 2.64642 19.7004 3.44382 19.7004H4.40636V20.6202C4.40636 21.3822 5.05278 22 5.85018 22C6.64758 22 7.294 21.3822 7.294 20.6202C7.294 20.0553 7.25344 19.3878 7.67145 18.9884L10.6629 16.1297L8.14291 13.7216L5.15145 16.5802C4.73345 16.9797 4.03497 16.9409 3.44382 16.9409C2.64642 16.9409 2 17.5587 2 18.3207Z" stroke="#3E7BFA" stroke-width="2"/>
<path d="M12.3517 16.2702C12.8675 16.2476 13.3817 16.1575 13.9999 16C16.5652 15.3463 20.9128 11.4712 21.7524 9.06429C22.3298 7.40875 21.8789 5.58352 20.5877 4.34956C19.2358 3.05772 17.2129 2.65124 15.4311 3.3134C13.073 4.18974 9.19497 8.1752 8.49989 10.5C8.34103 11.0313 8.20416 11.491 8.12338 11.9456C7.91985 13.0909 8.59391 14.1527 9.43493 14.9564C10.2359 15.7218 11.2448 16.3186 12.3517 16.2702Z" stroke="#555770" stroke-width="2"/>
</svg>
