<svg width="24" height="24" viewBox="0 0 24 24" fill="none" xmlns="http://www.w3.org/2000/svg">
<path d="M19 1H5C4.44772 1 4 1.44772 4 2V22C4 22.5523 4.44772 23 5 23H19C19.5523 23 20 22.5523 20 22V2C20 1.44772 19.5523 1 19 1Z" stroke="#555770" stroke-width="2"/>
<path d="M11.2528 15.2107C10.7891 15.5405 10.222 15.7345 9.60967 15.7345C8.04218 15.7345 6.77148 14.4638 6.77148 12.8963C6.77148 11.445 7.86085 10.248 9.26651 10.0786C9.19811 9.83454 9.16154 9.57715 9.16154 9.31121C9.16154 7.74372 10.4322 6.47302 11.9997 6.47302C13.5672 6.47302 14.8379 7.74372 14.8379 9.31121C14.8379 9.57715 14.8013 9.83454 14.7329 10.0786C16.1386 10.248 17.228 11.445 17.228 12.8963C17.228 14.4638 15.9573 15.7345 14.3898 15.7345C13.7774 15.7345 13.2103 15.5405 12.7466 15.2107M11.2528 15.2107L10.9998 17.527H12.9998L12.7466 15.2107M11.2528 15.2107H12.7466M11.2528 15.2107L11.9997 14.4638L12.7466 15.2107" stroke="#3E7BFA" stroke-width="2"/>
</svg>
