<svg width="24" height="24" viewBox="0 0 24 24" fill="none" xmlns="http://www.w3.org/2000/svg">
<path d="M19 1H5C4.44772 1 4 1.44772 4 2V22C4 22.5523 4.44772 23 5 23H19C19.5523 23 20 22.5523 20 22V2C20 1.44772 19.5523 1 19 1Z" stroke="#555770" stroke-width="2"/>
<path d="M9.46033 7.36926C8.05784 7.36926 6.9209 8.51011 6.9209 9.91743C6.9209 10.4911 6.95923 11.1878 7.60995 11.9495C8.26067 12.7113 11.9998 16.6307 11.9998 16.6307C11.9998 16.6307 15.7389 12.7113 16.3896 11.9495C17.0403 11.1878 17.0786 10.4911 17.0786 9.91743C17.0786 8.51011 15.9417 7.36926 14.5392 7.36926C13.1367 7.36926 11.9998 8.51011 11.9998 9.91743C11.9998 8.51011 10.8628 7.36926 9.46033 7.36926Z" stroke="#3E7BFA" stroke-width="2"/>
</svg>
