<svg width="24" height="24" viewBox="0 0 24 24" fill="none" xmlns="http://www.w3.org/2000/svg">
<path d="M14.5 11H19.5M14.5 14.5H19.5M14.5 18H18M4.5 11H9.5M4.5 14.5H9.5M4.5 18H8M18 6C18 6.55228 17.5523 7 17 7C16.4477 7 16 6.55228 16 6C16 5.44772 16.4477 5 17 5C17.5523 5 18 5.44772 18 6ZM8 6C8 6.55228 7.55228 7 7 7C6.44772 7 6 6.55228 6 6C6 5.44772 6.44772 5 7 5C7.55228 5 8 5.44772 8 6Z" stroke="#555770" stroke-width="2"/>
<path d="M12 22H21C21.5523 22 22 21.5523 22 21V3C22 2.44772 21.5523 2 21 2H12M12 22H3C2.44772 22 2 21.5523 2 21V3C2 2.44772 2.44772 2 3 2H12M12 22V2" stroke="#3E7BFA" stroke-width="2"/>
</svg>
