<svg width="24" height="24" viewBox="0 0 24 24" fill="none" xmlns="http://www.w3.org/2000/svg">
<path d="M18 10.4999H18.4C18.4552 10.4999 18.5 10.5447 18.5 10.5999V12.8999C18.5 12.9551 18.4552 12.9999 18.4 12.9999H17.6C17.5448 12.9999 17.5 12.9551 17.5 12.8999V10.5999C17.5 10.5447 17.5448 10.4999 17.6 10.4999H18ZM18 10.4999V8.99991L11.045 2.04492M14 11.9999C14 13.1045 13.1046 13.9999 12 13.9999C10.8954 13.9999 10 13.1045 10 11.9999C10 10.8953 10.8954 9.99991 12 9.99991C13.1046 9.99991 14 10.8953 14 11.9999Z" stroke="#3E7BFA" stroke-width="2"/>
<path d="M14 12C14 13.1045 13.1046 14 12 14C10.8954 14 10 13.1045 10 12C10 10.8954 10.8954 9.99997 12 9.99997C13.1046 9.99997 14 10.8954 14 12Z" stroke="#555770" stroke-width="2"/>
<path d="M12 22C17.5228 22 22 17.5228 22 12C22 6.47715 17.5228 2 12 2C11.6779 2 11.3593 2.01523 11.045 2.04501C5.97013 2.52581 2 6.79927 2 12C2 17.5228 6.47715 22 12 22Z" stroke="#555770" stroke-width="2"/>
</svg>
