<svg width="24" height="24" viewBox="0 0 24 24" fill="none" xmlns="http://www.w3.org/2000/svg">
<path d="M20.4548 15.0773L3.54504 8.92263M8.92259 20.4549L15.0772 3.54504M20.4547 8.92264L3.54492 15.0773M15.0771 20.4549L8.92247 3.54505" stroke="#3E7BFA" stroke-width="1.5"/>
<path d="M20.4549 15.0773C18.7554 19.7469 13.5922 22.1545 8.92274 20.4549C4.25324 18.7554 1.84563 13.5922 3.54518 8.92265C5.24474 4.25313 10.4079 1.8455 15.0774 3.54507C19.7469 5.24464 22.1545 10.4078 20.4549 15.0773Z" stroke="#555770" stroke-width="2"/>
<path d="M20.4548 8.92266C22.1544 13.5922 19.7468 18.7554 15.0773 20.4549C10.4078 22.1545 5.24462 19.7469 3.54506 15.0773C1.84551 10.4078 4.25312 5.24465 8.92262 3.54508C13.5921 1.84551 18.7553 4.25314 20.4548 8.92266Z" stroke="#555770" stroke-width="2"/>
</svg>
