<svg width="24" height="24" viewBox="0 0 24 24" fill="none" xmlns="http://www.w3.org/2000/svg">
<path d="M19 1H5C4.44772 1 4 1.44772 4 2V22C4 22.5523 4.44772 23 5 23H19C19.5523 23 20 22.5523 20 22V2C20 1.44772 19.5523 1 19 1Z" stroke="#555770" stroke-width="2"/>
<path d="M11.2528 15.2107C10.7891 15.5405 10.222 15.7345 9.60967 15.7345C8.04218 15.7345 6.77148 14.4638 6.77148 12.8963C6.77148 12.1451 7.06333 11.4621 7.53981 10.9544L12.1491 6.47302L16.4596 10.9544C16.933 11.4615 17.228 12.1479 17.228 12.8963C17.228 14.4638 15.9573 15.7345 14.3898 15.7345C13.7775 15.7345 13.2103 15.5405 12.7466 15.2107M11.2528 15.2107L10.9998 17.527H12.9998L12.7466 15.2107M11.2528 15.2107L11.9998 14.4638L12.7466 15.2107M11.2528 15.2107H12.7466" stroke="#3E7BFA" stroke-width="2"/>
</svg>
