<svg width="24" height="24" viewBox="0 0 24 24" fill="none" xmlns="http://www.w3.org/2000/svg">
<g clip-path="url(#clip0_402_14595)">
<path d="M9.4 11.1356L10.1356 10.4582L9.4 9.65929L8.66435 10.4582L9.4 11.1356ZM3.8 5.11866H9.4V3.11866H3.8V5.11866ZM9.4 5.11866H15V3.11866H9.4V5.11866ZM10.4 4.11866V1.00001H8.4V4.11866H10.4ZM9.4 1.21593e-05H4.6V2.00001H9.4V1.21593e-05ZM9.4 2.00001L16 2.00001L16 5.24521e-06L9.4 1.21593e-05L9.4 2.00001ZM20 6.00001V24H22V6.00001H20ZM13.4 19.4915H9.4V21.4915H13.4V19.4915ZM9.4 19.4915H5.4V21.4915H9.4V19.4915ZM8.4 20.4915V24H10.4V20.4915H8.4ZM4 18.1526V8.01696H2V18.1526H4ZM4 8.01696V4.89832H2V8.01696H4ZM14.8 4.89832V8.01696H16.8V4.89832H14.8ZM14.8 8.01696V18.1526H16.8V8.01696H14.8ZM3 9.01696H15.8V7.01696H3V9.01696ZM5.4 19.4915C4.60237 19.4915 4 18.8679 4 18.1526H2C2 20.0207 3.54666 21.4915 5.4 21.4915V19.4915ZM13.4 21.4915C15.2533 21.4915 16.8 20.0207 16.8 18.1526H14.8C14.8 18.8679 14.1976 19.4915 13.4 19.4915V21.4915ZM15 5.11866C14.914 5.11866 14.8 5.04413 14.8 4.89832H16.8C16.8 3.89132 15.9697 3.11866 15 3.11866V5.11866ZM3.8 3.11866C2.83032 3.11866 2 3.89132 2 4.89832H4C4 5.04413 3.88602 5.11866 3.8 5.11866V3.11866ZM10.8 15.0339C10.8 15.7493 10.1976 16.3729 9.4 16.3729V18.3729C11.2533 18.3729 12.8 16.9021 12.8 15.0339H10.8ZM9.4 16.3729C8.60237 16.3729 8 15.7493 8 15.0339H6C6 16.9021 7.54666 18.3729 9.4 18.3729V16.3729ZM8 15.0339C8 14.9675 8.04917 14.7446 8.25925 14.3468C8.45164 13.9826 8.71956 13.5804 9.00464 13.1941C9.28699 12.8115 9.57158 12.4639 9.78675 12.2109C9.89389 12.085 9.98275 11.9837 10.0441 11.9147C10.0748 11.8802 10.0985 11.8538 10.1142 11.8365C10.122 11.8279 10.1278 11.8215 10.1314 11.8176C10.1333 11.8156 10.1345 11.8142 10.1352 11.8134C10.1356 11.813 10.1358 11.8128 10.1359 11.8127C10.1359 11.8127 10.1359 11.8127 10.1359 11.8127C10.1358 11.8127 10.1358 11.8128 10.1358 11.8128C10.1357 11.8129 10.1356 11.813 9.4 11.1356C8.66435 10.4582 8.66426 10.4583 8.66416 10.4584C8.66411 10.4585 8.664 10.4586 8.66391 10.4587C8.66373 10.4589 8.66351 10.4592 8.66326 10.4594C8.66274 10.46 8.66209 10.4607 8.66129 10.4616C8.65969 10.4633 8.65751 10.4657 8.65479 10.4687C8.64933 10.4747 8.64165 10.4831 8.6319 10.4939C8.61239 10.5154 8.58457 10.5463 8.54961 10.5856C8.47975 10.6642 8.38111 10.7766 8.26325 10.9152C8.02842 11.1913 7.71301 11.5761 7.39536 12.0066C7.08044 12.4333 6.74836 12.9251 6.49075 13.4128C6.25083 13.8671 6 14.4545 6 15.0339H8ZM9.4 11.1356C8.66435 11.813 8.66428 11.8129 8.66421 11.8128C8.66421 11.8128 8.66415 11.8127 8.66413 11.8127C8.6641 11.8127 8.6641 11.8127 8.66413 11.8127C8.6642 11.8128 8.66441 11.813 8.66477 11.8134C8.66547 11.8142 8.66674 11.8156 8.66855 11.8176C8.67218 11.8215 8.67798 11.8279 8.6858 11.8365C8.70146 11.8538 8.72519 11.8802 8.75586 11.9147C8.81725 11.9837 8.90611 12.085 9.01325 12.2109C9.22842 12.4639 9.51301 12.8115 9.79536 13.1941C10.0804 13.5804 10.3484 13.9826 10.5408 14.3468C10.7508 14.7446 10.8 14.9675 10.8 15.0339H12.8C12.8 14.4545 12.5492 13.8671 12.3093 13.4128C12.0516 12.9251 11.7196 12.4333 11.4046 12.0066C11.087 11.5761 10.7716 11.1913 10.5367 10.9152C10.4189 10.7766 10.3203 10.6642 10.2504 10.5856C10.2154 10.5463 10.1876 10.5154 10.1681 10.4939C10.1584 10.4831 10.1507 10.4747 10.1452 10.4687C10.1425 10.4657 10.1403 10.4633 10.1387 10.4616C10.1379 10.4607 10.1373 10.46 10.1367 10.4594C10.1365 10.4592 10.1363 10.4589 10.1361 10.4587C10.136 10.4586 10.1359 10.4585 10.1358 10.4584C10.1357 10.4583 10.1356 10.4582 9.4 11.1356ZM16 2.00001C18.2091 2 20 3.79086 20 6.00001H22C22 2.68629 19.3137 1.78814e-06 16 5.24521e-06L16 2.00001Z" fill="#28293D"/>
</g>
<defs>
<clipPath id="clip0_402_14595">
<rect width="24" height="24" fill="white"/>
</clipPath>
</defs>
</svg>
