<svg width="24" height="24" viewBox="0 0 24 24" fill="none" xmlns="http://www.w3.org/2000/svg">
<path d="M22 11H23V10H22V11ZM2 11V10H1V11H2ZM19.2682 4.6588L20.2488 4.85491L19.2682 4.6588ZM16.158 3.51555L15.2839 3.02991L16.158 3.51555ZM21 11C21 15.9706 16.9706 20 12 20V22C18.0751 22 23 17.0751 23 11H21ZM12 20C7.02944 20 3 15.9706 3 11H1C1 17.0751 5.92487 22 12 22V20ZM7 22H12V20H7V22ZM12 22H17V20H12V22ZM12 10H2V12H12V10ZM12.8742 11.4856L17.0322 4.0012L15.2839 3.02991L11.1258 10.5144L12.8742 11.4856ZM22 10H18V12H22V10ZM18 10H12V12H18V10ZM18.2877 4.46268L17.0194 10.8039L18.9806 11.1961L20.2488 4.85491L18.2877 4.46268ZM17.9722 3.74949C18.2175 3.89667 18.3438 4.18217 18.2877 4.46268L20.2488 4.85491C20.4707 3.74559 19.9712 2.61655 19.0012 2.0345L17.9722 3.74949ZM17.0322 4.0012C17.218 3.66667 17.644 3.5526 17.9722 3.74949L19.0012 2.0345C17.7035 1.25588 16.0188 1.70699 15.2839 3.02991L17.0322 4.0012Z" fill="#28293D"/>
</svg>
