<svg width="24" height="24" viewBox="0 0 24 24" fill="none" xmlns="http://www.w3.org/2000/svg">
<path d="M18 7V8H19V7H18ZM6 7H5V8H6V7ZM11 11V10H10V11H11ZM11 17H10V18H11V17ZM7 4H17V2H7V4ZM17 4V7H19V4H17ZM7 7V4H5V7H7ZM7 6H6V8H7V6ZM6 7V19H8V7H6ZM9 22H15V20H9V22ZM18 6H17V8H18V6ZM17 6H7V8H17V6ZM18 11V7H16V11H18ZM17 10H11V12H17V10ZM10 11V17H12V11H10ZM18 19V17H16V19H18ZM18 17V11H16V17H18ZM11 18H17V16H11V18ZM15 22C16.6569 22 18 20.6569 18 19H16C16 19.5523 15.5523 20 15 20V22ZM17 4H19C19 2.89543 18.1046 2 17 2V4ZM6 19C6 20.6569 7.34315 22 9 22V20C8.44772 20 8 19.5523 8 19H6ZM7 2C5.89543 2 5 2.89543 5 4H7V2Z" fill="#28293D"/>
</svg>
