<svg width="24" height="24" viewBox="0 0 24 24" fill="none" xmlns="http://www.w3.org/2000/svg">
<mask id="path-1-inside-1_402_14628" fill="white">
<path d="M6 8C6 4.68629 8.68629 2 12 2C15.3137 2 18 4.68629 18 8V12V16C18 19.3137 15.3137 22 12 22C8.68629 22 6 19.3137 6 16V12V8Z"/>
</mask>
<path d="M18 11H6V13H18V11ZM16 8V12H20V8H16ZM16 12V16H20V12H16ZM8 16V12H4V16H8ZM8 12V8H4V12H8ZM12 20C9.79086 20 8 18.2091 8 16H4C4 20.4183 7.58172 24 12 24V20ZM12 24C16.4183 24 20 20.4183 20 16H16C16 18.2091 14.2091 20 12 20V24ZM12 4C14.2091 4 16 5.79086 16 8H20C20 3.58172 16.4183 0 12 0V4ZM12 0C7.58172 0 4 3.58172 4 8H8C8 5.79086 9.79086 4 12 4V0Z" fill="#28293D" mask="url(#path-1-inside-1_402_14628)"/>
<path d="M12 7C11.4477 7 11 7.44772 11 8H9C9 6.34315 10.3431 5 12 5V7Z" fill="#28293D"/>
</svg>
