<svg width="24" height="24" viewBox="0 0 24 24" fill="none" xmlns="http://www.w3.org/2000/svg">
<path d="M22 12H23V11H22V12ZM2 12V11H1V12H2ZM17 3.33782L17.8661 3.83774L18.3655 2.97247L17.5007 2.47222L17 3.33782ZM7 20.6622L6.49927 21.5278L7.36569 22.029L7.86607 21.1621L7 20.6622ZM7 3.33782L6.49927 2.47222L5.63448 2.97247L6.13393 3.83774L7 3.33782ZM17 20.6622L16.1339 21.1621L16.6343 22.029L17.5007 21.5278L17 20.6622ZM13.5 9.40135L12.9993 10.267L13.5 9.40135ZM10.5 9.40135L11.0007 10.267L10.5 9.40135ZM10.5 14.5987L11.0007 13.733L10.5 14.5987ZM13.5 14.5987L12.9993 13.733L13.5 14.5987ZM12 3C13.641 3 15.1765 3.43825 16.4993 4.20343L17.5007 2.47222C15.8818 1.53569 14.0019 1 12 1V3ZM7.50073 19.7966C4.80801 18.2389 3 15.33 3 12H1C1 16.0728 3.21398 19.6273 6.49927 21.5278L7.50073 19.7966ZM7.50073 4.20343C8.82349 3.43825 10.359 3 12 3V1C9.99808 1 8.11825 1.53569 6.49927 2.47222L7.50073 4.20343ZM21 12C21 15.33 19.192 18.2389 16.4993 19.7966L17.5007 21.5278C20.786 19.6273 23 16.0728 23 12H21ZM12 10C12.3659 10 12.7061 10.0974 12.9993 10.267L14.0007 8.53574C13.4114 8.19481 12.7269 8 12 8V10ZM12.9993 10.267C13.5997 10.6143 14 11.261 14 12H16C16 10.5182 15.1937 9.22585 14.0007 8.53574L12.9993 10.267ZM16.1339 2.83791L12.6339 8.90143L14.3661 9.90126L17.8661 3.83774L16.1339 2.83791ZM10 12C10 11.261 10.4003 10.6143 11.0007 10.267L9.99927 8.53574C8.80628 9.22585 8 10.5182 8 12H10ZM11.0007 10.267C11.2939 10.0974 11.6341 10 12 10V8C11.2731 8 10.5886 8.19481 9.99927 8.53574L11.0007 10.267ZM6.13393 3.83774L9.63393 9.90126L11.3661 8.90143L7.86607 2.83791L6.13393 3.83774ZM12 14C11.6341 14 11.2939 13.9026 11.0007 13.733L9.99927 15.4643C10.5886 15.8052 11.2731 16 12 16V14ZM11.0007 13.733C10.4003 13.3857 10 12.739 10 12H8C8 13.4818 8.80628 14.7741 9.99927 15.4643L11.0007 13.733ZM9.63393 14.0987L6.13393 20.1623L7.86607 21.1621L11.3661 15.0986L9.63393 14.0987ZM14 12C14 12.739 13.5997 13.3857 12.9993 13.733L14.0007 15.4643C15.1937 14.7741 16 13.4818 16 12H14ZM12.9993 13.733C12.7061 13.9026 12.3659 14 12 14V16C12.7269 16 13.4114 15.8052 14.0007 15.4643L12.9993 13.733ZM12.6339 15.0986L16.1339 21.1621L17.8661 20.1623L14.3661 14.0987L12.6339 15.0986ZM2 13H9V11H2V13ZM15 13H22V11H15V13Z" fill="#28293D"/>
</svg>
