<svg width="24" height="24" viewBox="0 0 24 24" fill="none" xmlns="http://www.w3.org/2000/svg">
<path d="M14.3158 12.9734L14.1256 12.4044L13.7158 12.5414V12.9734H14.3158ZM18.9474 7.74763V8.34763H19.1964L19.3723 8.17128L18.9474 7.74763ZM20.6842 6.0057V5.4057H20.4352L20.2593 5.58205L20.6842 6.0057ZM21.2632 10.6509L21.4534 11.2199L21.7249 11.1291L21.8252 10.861L21.2632 10.6509ZM6.76191 17.656L7.02955 17.119L6.76191 17.656ZM2.72965 20.4121L3.15453 19.9885L2.72965 20.4121ZM22.4951 7.35592L23.0571 7.56605L22.4951 7.35592ZM4.49474 12.9734C4.49474 10.436 6.52435 8.34763 9.38095 8.34763V7.14763C5.8967 7.14763 3.29474 9.73866 3.29474 12.9734H4.49474ZM9.38095 8.34763H18.9474V7.14763H9.38095V8.34763ZM19.3723 8.17128L21.1091 6.42934L20.2593 5.58205L18.5225 7.32399L19.3723 8.17128ZM20.6842 6.6057H21.5585V5.4057H20.6842V6.6057ZM21.9331 7.14579L20.7012 10.4407L21.8252 10.861L23.0571 7.56605L21.9331 7.14579ZM21.0729 10.0818L14.1256 12.4044L14.506 13.5425L21.4534 11.2199L21.0729 10.0818ZM8.78095 10.4118V15.7059H9.98095V10.4118H8.78095ZM6.76191 13.6588H12V12.4588H6.76191V13.6588ZM9.10526 17.5992C8.36518 17.5992 7.64303 17.4248 7.02955 17.119L6.49426 18.193C7.27599 18.5827 8.18163 18.7992 9.10526 18.7992V17.5992ZM7.02955 17.119C5.51549 16.3644 4.49474 14.7955 4.49474 12.9734H3.29474C3.29474 15.2551 4.57697 17.2374 6.49426 18.193L7.02955 17.119ZM6.16191 17.656V21H7.36191V17.656H6.16191ZM13.7158 12.9734C13.7158 14.8013 12.7174 16.367 11.2085 17.119L11.7438 18.193C13.6663 17.2348 14.9158 15.2493 14.9158 12.9734H13.7158ZM11.2085 17.119C10.5978 17.4234 9.84852 17.5992 9.10526 17.5992V18.7992C10.0257 18.7992 10.9593 18.584 11.7438 18.193L11.2085 17.119ZM10.8762 17.656V21H12.0762V17.656H10.8762ZM11.4762 20.4H6.76191V21.6H11.4762V20.4ZM6.76191 20.4H4.14593V21.6H6.76191V20.4ZM3.15453 19.9885L2.58278 19.4151L1.73301 20.2624L2.30477 20.8358L3.15453 19.9885ZM11.4762 21.6H16.7143V20.4H11.4762V21.6ZM9.98095 7.74763V4.58824H8.78095V7.74763H9.98095ZM9.98095 4.58824V3H8.78095V4.58824H9.98095ZM9.38095 3.98824H1V5.18824H9.38095V3.98824ZM9.38095 5.18824H17.7895V3.98824H9.38095V5.18824ZM4.14593 20.4C3.77392 20.4 3.4172 20.2519 3.15453 19.9885L2.30477 20.8358C2.79258 21.325 3.45505 21.6 4.14593 21.6V20.4ZM21.5585 6.6057C21.8376 6.6057 22.0309 6.88434 21.9331 7.14579L23.0571 7.56605C23.4482 6.52029 22.675 5.4057 21.5585 5.4057V6.6057Z" fill="#555770"/>
</svg>
