<svg width="24" height="24" viewBox="0 0 24 24" fill="none" xmlns="http://www.w3.org/2000/svg">
<path d="M9.9187 8.1355L10.4332 8.4442L9.9187 8.1355ZM10.0877 8.13148L10.5869 7.79866L10.0877 8.13148ZM7.02913 12.9514L6.51463 12.6428L7.02913 12.9514ZM13.9323 13.8985L14.4316 13.5657L13.9323 13.8985ZM21.6 16V6H20.4V16H21.6ZM20 4.4H4V5.6H20V4.4ZM2.4 6V16H3.6V6H2.4ZM7 20.6H12V19.4H7V20.6ZM12 20.6H17V19.4H12V20.6ZM4 17.6H12V16.4H4V17.6ZM12 17.6H20V16.4H12V17.6ZM12.6 20V17H11.4V20H12.6ZM5 13.6H6.94338V12.4H5V13.6ZM7.54363 13.2601L10.4332 8.4442L9.4042 7.8268L6.51463 12.6428L7.54363 13.2601ZM9.58842 8.4643L13.4331 14.2313L14.4316 13.5657L10.5869 7.79866L9.58842 8.4643ZM14.5105 14.338L17.395 11.4536L16.5464 10.605L13.662 13.4895L14.5105 14.338ZM17.0414 11.6H19V10.4H17.0414V11.6ZM10.4332 8.4442C10.2443 8.75895 9.79203 8.76971 9.58842 8.4643L10.5869 7.79866C10.3018 7.37109 9.66859 7.38616 9.4042 7.8268L10.4332 8.4442ZM6.94338 13.6C7.18926 13.6 7.41712 13.471 7.54363 13.2601L6.51463 12.6428C6.605 12.4921 6.76775 12.4 6.94338 12.4V13.6ZM4 4.4C3.11635 4.4 2.4 5.11634 2.4 6H3.6C3.6 5.77909 3.77909 5.6 4 5.6V4.4ZM21.6 6C21.6 5.11634 20.8837 4.4 20 4.4V5.6C20.2209 5.6 20.4 5.77909 20.4 6H21.6ZM17.395 11.4536C17.3012 11.5473 17.174 11.6 17.0414 11.6V10.4C16.8558 10.4 16.6777 10.4738 16.5464 10.605L17.395 11.4536ZM20.4 16C20.4 16.2209 20.2209 16.4 20 16.4V17.6C20.8837 17.6 21.6 16.8837 21.6 16H20.4ZM13.4331 14.2313C13.6781 14.5989 14.1982 14.6504 14.5105 14.338L13.662 13.4895C13.8851 13.2664 14.2565 13.3032 14.4316 13.5657L13.4331 14.2313ZM2.4 16C2.4 16.8837 3.11634 17.6 4 17.6V16.4C3.77909 16.4 3.6 16.2209 3.6 16H2.4Z" fill="#555770"/>
</svg>
