<svg width="24" height="24" viewBox="0 0 24 24" fill="none" xmlns="http://www.w3.org/2000/svg">
<path d="M2.74619 6.75794L3.19428 6.35891L3.19427 6.35891L2.74619 6.75794ZM7.5 11L7.11082 11.4567L7.5 11.7883L7.88918 11.4567L7.5 11ZM12.2538 6.75794L11.8057 6.35891L11.8057 6.35891L12.2538 6.75794ZM22 9H22.6V8.4H22V9ZM2.6 4.647C2.6 3.53786 3.54079 2.6 4.75 2.6V1.4C2.92164 1.4 1.4 2.83235 1.4 4.647H2.6ZM4.75 2.6C5.95921 2.6 6.9 3.53786 6.9 4.647H8.1C8.1 2.83235 6.57836 1.4 4.75 1.4V2.6ZM3.19427 6.35891C2.63374 5.72945 2.6 5.18468 2.6 4.647H1.4C1.4 5.30111 1.44929 6.20377 2.2981 7.15696L3.19427 6.35891ZM2.2981 7.15696C2.68218 7.58827 3.90855 8.68023 4.99253 9.62751C5.5443 10.1097 6.07374 10.5669 6.46513 10.9034C6.66086 11.0717 6.82216 11.2099 6.93458 11.3061C6.9908 11.3542 7.03479 11.3918 7.06477 11.4174C7.07975 11.4302 7.09123 11.44 7.09899 11.4466C7.10286 11.4499 7.10581 11.4524 7.10779 11.4541C7.10878 11.4549 7.10953 11.4556 7.11004 11.456C7.11029 11.4562 7.11048 11.4564 7.11061 11.4565C7.11068 11.4565 7.11073 11.4566 7.11077 11.4566C7.1108 11.4566 7.11082 11.4567 7.5 11C7.88918 10.5433 7.88917 10.5433 7.88914 10.5433C7.88911 10.5433 7.88907 10.5432 7.88902 10.5432C7.8889 10.5431 7.88872 10.543 7.88849 10.5427C7.88801 10.5423 7.8873 10.5417 7.88634 10.5409C7.88442 10.5393 7.88155 10.5368 7.87774 10.5336C7.87013 10.5271 7.85878 10.5174 7.84394 10.5047C7.81426 10.4794 7.77057 10.4421 7.71469 10.3943C7.60292 10.2986 7.44238 10.1611 7.2475 9.99351C6.85764 9.6583 6.33077 9.20334 5.78216 8.72392C4.66541 7.74799 3.51487 6.71893 3.19428 6.35891L2.2981 7.15696ZM13.6 4.647C13.6 2.83235 12.0784 1.4 10.25 1.4V2.6C11.4592 2.6 12.4 3.53786 12.4 4.647H13.6ZM10.25 1.4C8.42164 1.4 6.9 2.83235 6.9 4.647H8.1C8.1 3.53786 9.04079 2.6 10.25 2.6V1.4ZM12.7019 7.15696C13.5507 6.20377 13.6 5.30111 13.6 4.647H12.4C12.4 5.18468 12.3663 5.72945 11.8057 6.35891L12.7019 7.15696ZM11.8057 6.35891C11.4851 6.71893 10.3346 7.74799 9.21783 8.72392C8.66923 9.20334 8.14236 9.6583 7.7525 9.99351C7.55762 10.1611 7.39708 10.2986 7.28531 10.3943C7.22943 10.4421 7.18574 10.4794 7.15606 10.5047C7.14122 10.5174 7.12987 10.5271 7.12226 10.5336C7.11845 10.5368 7.11558 10.5393 7.11366 10.5409C7.1127 10.5417 7.11199 10.5423 7.11151 10.5427C7.11128 10.543 7.1111 10.5431 7.11098 10.5432C7.11093 10.5432 7.11089 10.5433 7.11086 10.5433C7.11083 10.5433 7.11082 10.5433 7.5 11C7.88918 11.4567 7.8892 11.4566 7.88923 11.4566C7.88927 11.4566 7.88932 11.4565 7.88939 11.4565C7.88952 11.4564 7.88971 11.4562 7.88996 11.456C7.89047 11.4556 7.89122 11.4549 7.89221 11.4541C7.89419 11.4524 7.89714 11.4499 7.90101 11.4466C7.90877 11.44 7.92025 11.4302 7.93523 11.4174C7.96521 11.3918 8.0092 11.3542 8.06542 11.3061C8.17784 11.2099 8.33914 11.0717 8.53487 10.9034C8.92626 10.5669 9.4557 10.1097 10.0075 9.62751C11.0914 8.68023 12.3178 7.58827 12.7019 7.15696L11.8057 6.35891ZM1.42426 22.4243L8.71716 15.1314L7.86863 14.2828L0.575736 21.5757L1.42426 22.4243ZM9.28284 15.1314L11.8686 17.7172L12.7172 16.8686L10.1314 14.2828L9.28284 15.1314ZM14.1314 17.7172L22.4243 9.42426L21.5757 8.57574L13.2828 16.8686L14.1314 17.7172ZM22 8.4H18V9.6H22V8.4ZM21.4 9V13H22.6V9H21.4ZM11.8686 17.7172C12.4935 18.342 13.5065 18.342 14.1314 17.7172L13.2828 16.8686C13.1266 17.0248 12.8734 17.0248 12.7172 16.8686L11.8686 17.7172ZM8.71716 15.1314C8.87337 14.9752 9.12663 14.9752 9.28284 15.1314L10.1314 14.2828C9.50653 13.658 8.49347 13.658 7.86863 14.2828L8.71716 15.1314Z" fill="#555770"/>
</svg>
