<svg width="24" height="24" viewBox="0 0 24 24" fill="none" xmlns="http://www.w3.org/2000/svg">
<path d="M6 21L6 21.6H6V21ZM18 21L18 20.4H18V21ZM5 4L4.4 4L5 4ZM5 20L5.6 20L5 20ZM19 20L18.4 20V20L19 20ZM19 8L19.6 8C19.6 7.84087 19.5368 7.68826 19.4243 7.57574L19 8ZM14 3L14.4243 2.57574C14.3117 2.46321 14.1591 2.4 14 2.4L14 3ZM6 3L6 2.4L6 3ZM14 8H13.4V8.6H14V8ZM6 21.6H18V20.4H6V21.6ZM4.4 4L4.4 20L5.6 20L5.6 4L4.4 4ZM19.6 20L19.6 8L18.4 8L18.4 20L19.6 20ZM14 2.4L6 2.4L6 3.6L14 3.6L14 2.4ZM19.4243 7.57574L14.4243 2.57574L13.5757 3.42426L18.5757 8.42426L19.4243 7.57574ZM13.4 3V8H14.6V3H13.4ZM14 8.6H19V7.4H14V8.6ZM18 21.6C18.8837 21.6 19.6 20.8837 19.6 20L18.4 20C18.4 20.2209 18.2209 20.4 18 20.4L18 21.6ZM6 20.4C5.77909 20.4 5.6 20.2209 5.6 20L4.4 20C4.4 20.8837 5.11634 21.6 6 21.6L6 20.4ZM5.6 4C5.6 3.77909 5.77909 3.6 6 3.6L6 2.4C5.11634 2.4 4.4 3.11634 4.4 4L5.6 4ZM11.4 10V13H12.6V10H11.4ZM11.4 13V16H12.6V13H11.4ZM9 13.6H12V12.4H9V13.6ZM12 13.6H15V12.4H12V13.6Z" fill="#555770"/>
</svg>
