<svg width="24" height="24" viewBox="0 0 24 24" fill="none" xmlns="http://www.w3.org/2000/svg">
<path d="M22 11H22.6V10.4H22V11ZM2 11V10.4H1.4V11H2ZM19.2682 4.6588L19.8566 4.77647L19.2682 4.6588ZM16.158 3.51555L15.6335 3.22417L16.158 3.51555ZM21.4 11C21.4 16.1915 17.1915 20.4 12 20.4V21.6C17.8542 21.6 22.6 16.8542 22.6 11H21.4ZM12 20.4C6.80852 20.4 2.6 16.1915 2.6 11H1.4C1.4 16.8542 6.14578 21.6 12 21.6V20.4ZM7 21.6H12V20.4H7V21.6ZM12 21.6H17V20.4H12V21.6ZM12 10.4H2V11.6H12V10.4ZM12.5245 11.2914L16.6825 3.80694L15.6335 3.22417L11.4755 10.7086L12.5245 11.2914ZM22 10.4H18V11.6H22V10.4ZM18 10.4H12V11.6H18V10.4ZM18.6799 4.54113L17.4117 10.8823L18.5883 11.1177L19.8566 4.77647L18.6799 4.54113ZM18.178 3.40649C18.5682 3.64065 18.7691 4.09485 18.6799 4.54113L19.8566 4.77647C20.0453 3.8329 19.6205 2.87257 18.7954 2.3775L18.178 3.40649ZM16.6825 3.80694C16.9782 3.27474 17.6559 3.09326 18.178 3.40649L18.7954 2.3775C17.6916 1.71523 16.2587 2.09893 15.6335 3.22417L16.6825 3.80694Z" fill="#555770"/>
</svg>
