<svg width="24" height="24" viewBox="0 0 24 24" fill="none" xmlns="http://www.w3.org/2000/svg">
<path d="M18 7V7.6H18.6V7H18ZM6 7H5.4V7.6H6V7ZM11 11V10.4H10.4V11H11ZM11 17H10.4V17.6H11V17ZM7 3.6H17V2.4H7V3.6ZM17.4 4V7H18.6V4H17.4ZM6.6 7V4H5.4V7H6.6ZM7 6.4H6V7.6H7V6.4ZM6.4 7V19H7.6V7H6.4ZM9 21.6H15V20.4H9V21.6ZM18 6.4H17V7.6H18V6.4ZM17 6.4H7V7.6H17V6.4ZM17.6 11V7H16.4V11H17.6ZM17 10.4H11V11.6H17V10.4ZM10.4 11V17H11.6V11H10.4ZM17.6 19V17H16.4V19H17.6ZM17.6 17V11H16.4V17H17.6ZM11 17.6H17V16.4H11V17.6ZM15 21.6C16.4359 21.6 17.6 20.4359 17.6 19H16.4C16.4 19.7732 15.7732 20.4 15 20.4V21.6ZM17 3.6C17.2209 3.6 17.4 3.77909 17.4 4H18.6C18.6 3.11634 17.8837 2.4 17 2.4V3.6ZM6.4 19C6.4 20.4359 7.56406 21.6 9 21.6V20.4C8.2268 20.4 7.6 19.7732 7.6 19H6.4ZM7 2.4C6.11634 2.4 5.4 3.11634 5.4 4H6.6C6.6 3.77909 6.77909 3.6 7 3.6V2.4Z" fill="#555770"/>
</svg>
