<svg width="24" height="24" viewBox="0 0 24 24" fill="none" xmlns="http://www.w3.org/2000/svg">
<path d="M6.2389 2C6.2389 1.66863 5.97027 1.4 5.6389 1.4C5.30753 1.4 5.0389 1.66863 5.0389 2H6.2389ZM5.0389 4.16216C5.0389 4.49353 5.30753 4.76216 5.6389 4.76216C5.97027 4.76216 6.2389 4.49353 6.2389 4.16216H5.0389ZM10.4611 2C10.4611 1.66863 10.1925 1.4 9.86114 1.4C9.52977 1.4 9.26114 1.66863 9.26114 2H10.4611ZM9.26114 4.16216C9.26114 4.49353 9.52977 4.76216 9.86114 4.76216C10.1925 4.76216 10.4611 4.49353 10.4611 4.16216H9.26114ZM21.4 9.56757C21.4 10.7425 20.4737 11.6703 19.3611 11.6703V12.8703C21.1633 12.8703 22.6 11.378 22.6 9.56757H21.4ZM19.3611 11.6703C18.2485 11.6703 17.3222 10.7425 17.3222 9.56757H16.1222C16.1222 11.378 17.5589 12.8703 19.3611 12.8703V11.6703ZM17.3222 9.56757C17.3222 8.39268 18.2485 7.46486 19.3611 7.46486V6.26486C17.5589 6.26486 16.1222 7.75713 16.1222 9.56757H17.3222ZM19.3611 7.46486C20.4737 7.46486 21.4 8.39268 21.4 9.56757H22.6C22.6 7.75713 21.1633 6.26486 19.3611 6.26486V7.46486ZM18.7611 16.0541C18.7611 19.0201 16.417 21.4 13.5555 21.4V22.6C17.1067 22.6 19.9611 19.6557 19.9611 16.0541H18.7611ZM13.5555 21.4C10.694 21.4 8.34994 19.0201 8.34994 16.0541H7.14994C7.14994 19.6557 10.0044 22.6 13.5555 22.6V21.4ZM11.9 11.1892C11.9 13.5582 10.0285 15.4541 7.74994 15.4541V16.6541C10.7181 16.6541 13.1 14.1938 13.1 11.1892H11.9ZM7.74994 15.4541C5.47139 15.4541 3.6 13.5582 3.6 11.1892H2.4C2.4 14.1937 4.78176 16.6541 7.74994 16.6541V15.4541ZM19.9611 16.0541V12.2703H18.7611V16.0541H19.9611ZM3.6 11.1892V4.08108H2.4V11.1892H3.6ZM4 3.68108H5.6389V2.48108H4V3.68108ZM6.2389 3.08108V2H5.0389V3.08108H6.2389ZM5.0389 3.08108V4.16216H6.2389V3.08108H5.0389ZM13.1 11.1892V4.08108H11.9V11.1892H13.1ZM11.5 2.48108H9.86114V3.68108H11.5V2.48108ZM10.4611 3.08108V2H9.26114V3.08108H10.4611ZM9.26114 3.08108V4.16216H10.4611V3.08108H9.26114ZM13.1 4.08108C13.1 3.19743 12.3837 2.48108 11.5 2.48108V3.68108C11.721 3.68108 11.9 3.86017 11.9 4.08108H13.1ZM3.6 4.08108C3.6 3.86017 3.77909 3.68108 4 3.68108V2.48108C3.11634 2.48108 2.4 3.19743 2.4 4.08108H3.6Z" fill="#555770"/>
</svg>
