<svg width="24" height="24" viewBox="0 0 24 24" fill="none" xmlns="http://www.w3.org/2000/svg">
<mask id="path-1-inside-1_402_16122" fill="white">
<path d="M12 22C16.9706 22 21 17.9706 21 13C21 8.02944 16.9706 4 12 4C7.02944 4 3 8.02944 3 13C3 17.9706 7.02944 22 12 22Z"/>
</mask>
<path d="M11 16L10.2929 16.7071L11 17.4142L11.7071 16.7071L11 16ZM7.29289 13.7071L10.2929 16.7071L11.7071 15.2929L8.70711 12.2929L7.29289 13.7071ZM11.7071 16.7071L17.2071 11.2071L15.7929 9.79289L10.2929 15.2929L11.7071 16.7071ZM19 13C19 16.866 15.866 20 12 20V24C18.0751 24 23 19.0751 23 13H19ZM12 20C8.13401 20 5 16.866 5 13H1C1 19.0751 5.92487 24 12 24V20ZM5 13C5 9.13401 8.13401 6 12 6V2C5.92487 2 1 6.92487 1 13H5ZM12 6C15.866 6 19 9.13401 19 13H23C23 6.92487 18.0751 2 12 2V6Z" fill="#28293D" mask="url(#path-1-inside-1_402_16122)"/>
<mask id="mask0_402_16122" style="mask-type:alpha" maskUnits="userSpaceOnUse" x="0" y="1" width="24" height="12">
<path d="M12 2C5.92487 2 1 6.92487 1 13H0V1H24V13H23C23 6.92487 18.0751 2 12 2Z" fill="white"/>
</mask>
<g mask="url(#mask0_402_16122)">
<path d="M9 6C9 8.20914 7.20914 10 5 10C2.79086 10 1 8.20914 1 6C1 3.79086 2.79086 2 5 2C7.20914 2 9 3.79086 9 6Z" fill="#28293D"/>
<path d="M23 6C23 8.20914 21.2091 10 19 10C16.7909 10 15 8.20914 15 6C15 3.79086 16.7909 2 19 2C21.2091 2 23 3.79086 23 6Z" fill="#28293D"/>
</g>
</svg>
