<svg width="24" height="24" viewBox="0 0 24 24" fill="none" xmlns="http://www.w3.org/2000/svg">
<path d="M17 17V18H18V17H17ZM17 14H18V13H17V14ZM14 14V13H13V14H14ZM14 17H13V18H14V17ZM20 5V8.95H22V5H20ZM4 8.95V5H2V8.95H4ZM21 7.95H3V9.95H21V7.95ZM4 20V8.95H2V20H4ZM4 22H20V20H4V22ZM22 20V8.95H20V20H22ZM4 5H7V3H4V5ZM8 4V1H6V4H8ZM7 5H17V3H7V5ZM17 5H20V3H17V5ZM18 4V1H16V4H18ZM17 13H14V15H17V13ZM14 18H17V16H14V18ZM13 14V15.5H15V14H13ZM13 15.5V17H15V15.5H13ZM16 14V15.5H18V14H16ZM16 15.5V17H18V15.5H16ZM14 16.5H17V14.5H14V16.5ZM2 20C2 21.1046 2.89543 22 4 22V20H2ZM20 22C21.1046 22 22 21.1046 22 20H20V22ZM22 5C22 3.89543 21.1046 3 20 3V5H22ZM4 5V5V3C2.89543 3 2 3.89543 2 5H4Z" fill="#28293D"/>
</svg>
