<svg width="24" height="24" viewBox="0 0 24 24" fill="none" xmlns="http://www.w3.org/2000/svg">
<path d="M3.9998 2L4.89422 1.55276L4.27375 0.311907L3.29272 1.29287L3.9998 2ZM4.11815 7.65145L4.99329 8.13532L5.35368 7.48352L4.83239 6.95155L4.11815 7.65145ZM6.42984 4.93013L5.72266 5.63717L6.35124 6.26587L7.04921 5.71522L6.42984 4.93013ZM19.9997 2L20.7068 1.29287L19.7256 0.311799L19.1052 1.55285L19.9997 2ZM19.8813 7.65145L19.1672 6.9515L18.6458 7.48347L19.0062 8.13532L19.8813 7.65145ZM17.5697 4.93013L16.9503 5.71522L17.6483 6.26587L18.2768 5.63717L17.5697 4.93013ZM11.9997 20C7.58145 20 3.99973 16.4183 3.99973 12H1.99973C1.99973 17.5228 6.47688 22 11.9997 22V20ZM3.29272 1.29287C1.3791 3.20637 1.42785 6.33481 3.40391 8.35135L4.83239 6.95155C3.57186 5.66519 3.62031 3.79363 4.70689 2.70713L3.29272 1.29287ZM3.10539 2.44724C3.63608 3.50854 4.06238 4.10172 4.52496 4.56432C4.74365 4.78302 4.96047 4.96171 5.14538 5.11691C5.33506 5.27613 5.51623 5.4307 5.72266 5.63717L7.13702 4.22309C6.86642 3.95244 6.63033 3.75218 6.4312 3.58503C6.22729 3.41388 6.08375 3.29468 5.93919 3.15012C5.6753 2.88622 5.3636 2.49146 4.89422 1.55276L3.10539 2.44724ZM7.04921 5.71522C8.41129 4.64066 10.1293 4 11.9997 4V2C9.66398 2 7.51279 2.80204 5.81046 4.14503L7.04921 5.71522ZM3.99973 12C3.99973 10.5964 4.36039 9.27999 4.99329 8.13532L3.24301 7.16758C2.45052 8.6009 1.99973 10.2493 1.99973 12H3.99973ZM11.9997 22C17.5226 22 21.9998 17.5229 21.9998 12H19.9998C19.9998 16.4183 16.418 20 11.9997 20V22ZM19.2926 2.70713C20.3792 3.7937 20.4278 5.66523 19.1672 6.9515L20.5955 8.35141C22.572 6.33477 22.6203 3.2063 20.7068 1.29287L19.2926 2.70713ZM19.1052 1.55285C18.636 2.49151 18.3243 2.88622 18.0604 3.15009C17.9159 3.29464 17.7723 3.41384 17.5684 3.585C17.3692 3.75215 17.1331 3.95242 16.8625 4.22309L18.2768 5.63717C18.4832 5.43071 18.6644 5.27616 18.8541 5.11695C19.039 4.96175 19.2559 4.78305 19.4746 4.56435C19.9373 4.10172 20.3636 3.50849 20.8942 2.44715L19.1052 1.55285ZM18.189 4.14503C16.4867 2.80204 14.3355 2 11.9997 2V4C13.8702 4 15.5882 4.64066 16.9503 5.71522L18.189 4.14503ZM21.9998 12C21.9998 10.2493 21.549 8.6009 20.7565 7.16758L19.0062 8.13532C19.6391 9.27999 19.9998 10.5964 19.9998 12H21.9998Z" fill="#555770"/>
<path d="M7 14C7.99804 15.7934 9.86346 17 12 17C14.1365 17 16.002 15.7934 17 14" stroke="#555770" stroke-width="2"/>
<path d="M9 11C8.44772 11 8 10.5523 8 10C8 9.44772 8.44772 9 9 9C9.55228 9 10 9.44772 10 10C10 10.5523 9.55228 11 9 11ZM15 11C14.4477 11 14 10.5523 14 10C14 9.44772 14.4477 9 15 9C15.5523 9 16 9.44772 16 10C16 10.5523 15.5523 11 15 11Z" stroke="#555770" stroke-width="2"/>
</svg>
