<svg width="24" height="24" viewBox="0 0 24 24" fill="none" xmlns="http://www.w3.org/2000/svg">
<path d="M3.5 3L4.26788 2.3594L3.5 1.43895L2.73212 2.3594L3.5 3ZM5.45283 5.82465L4.57245 6.29893L5.45283 5.82465ZM3.22649 9.98474L3.33804 8.99098L3.22649 9.98474ZM20 12C20 16.4183 16.4183 20 12 20V22C17.5228 22 22 17.5228 22 12H20ZM12 20C7.58172 20 4 16.4183 4 12H2C2 17.5228 6.47715 22 12 22V20ZM12 4C16.4183 4 20 7.58172 20 12H22C22 6.47715 17.5228 2 12 2V4ZM5 7.42105C5 8.32262 4.29935 9 3.5 9V11C5.46208 11 7 9.36812 7 7.42105H5ZM2 7.42105C2 7.3043 2.068 7.02239 2.28967 6.56724C2.49557 6.14447 2.77995 5.67931 3.07921 5.23534C3.37611 4.79487 3.67495 4.39393 3.90055 4.10208C4.01297 3.95666 4.10627 3.83952 4.17084 3.75949C4.20311 3.7195 4.22814 3.68885 4.24473 3.66865C4.25302 3.65855 4.2592 3.65107 4.26311 3.64635C4.26506 3.64399 4.26645 3.64231 4.26725 3.64135C4.26765 3.64087 4.26791 3.64056 4.26801 3.64044C4.26806 3.64037 4.26808 3.64035 4.26806 3.64038C4.26805 3.64039 4.268 3.64045 4.268 3.64045C4.26794 3.64052 4.26788 3.6406 3.5 3C2.73212 2.3594 2.73204 2.3595 2.73195 2.35961C2.7319 2.35967 2.7318 2.35979 2.73171 2.35989C2.73154 2.3601 2.73133 2.36036 2.73108 2.36066C2.73058 2.36126 2.72993 2.36204 2.72912 2.363C2.72752 2.36493 2.72533 2.36758 2.72255 2.37093C2.717 2.37764 2.70914 2.38716 2.69912 2.39935C2.67909 2.42375 2.65041 2.45887 2.61432 2.50361C2.54217 2.59303 2.44016 2.72114 2.3182 2.87891C2.07505 3.19346 1.74889 3.63072 1.42079 4.11747C1.09505 4.60073 0.754433 5.15181 0.49158 5.69152C0.244501 6.19885 0 6.82565 0 7.42105H2ZM3.5 3C2.73212 3.6406 2.73207 3.64054 2.73203 3.64049C2.73203 3.64048 2.73199 3.64044 2.73197 3.64042C2.73194 3.64038 2.73193 3.64036 2.73193 3.64037C2.73194 3.64038 2.73203 3.64048 2.73218 3.64067C2.73249 3.64104 2.73309 3.64176 2.73397 3.64283C2.73574 3.64495 2.73862 3.64843 2.74259 3.65324C2.75051 3.66284 2.76274 3.6777 2.77884 3.69745C2.81106 3.73695 2.85875 3.79589 2.91864 3.87129C3.03857 4.02227 3.20657 4.23814 3.39667 4.49502C3.78156 5.01513 4.23758 5.67731 4.57245 6.29893L6.3332 5.35037C5.93231 4.60622 5.41192 3.85608 5.00434 3.30531C4.7982 3.02675 4.61594 2.79254 4.48468 2.6273C4.41898 2.54458 4.36584 2.47888 4.32862 2.43326C4.31001 2.41044 4.29537 2.39263 4.28511 2.3802C4.27998 2.37398 4.27594 2.36911 4.27305 2.36563C4.27161 2.36389 4.27045 2.36249 4.26959 2.36146C4.26915 2.36094 4.2688 2.3605 4.26851 2.36016C4.26837 2.35999 4.26824 2.35984 4.26814 2.35972C4.26809 2.35965 4.26802 2.35958 4.26799 2.35954C4.26793 2.35947 4.26788 2.3594 3.5 3ZM4.57245 6.29893C4.8872 6.88316 5 7.26287 5 7.42105H7C7 6.71817 6.65596 5.94949 6.3332 5.35037L4.57245 6.29893ZM6.18017 6.51093C7.64011 4.96364 9.70671 4 12 4V2C9.13358 2 6.54753 3.20733 4.72549 5.13837L6.18017 6.51093ZM4 12C4 11.3827 4.06972 10.783 4.20131 10.2077L2.25167 9.76175C2.08685 10.4823 2 11.2316 2 12H4ZM3.5 9C3.44493 9 3.39091 8.99692 3.33804 8.99098L3.11495 10.9785C3.24172 10.9927 3.37022 11 3.5 11V9ZM3.33804 8.99098C2.61072 8.90935 2 8.26003 2 7.42105H0C0 9.24001 1.33818 10.7791 3.11495 10.9785L3.33804 8.99098Z" fill="#555770"/>
<path d="M16.3026 15L17.0604 15.6525C17.3155 15.3562 17.3746 14.9385 17.2116 14.5832C17.0486 14.2278 16.6936 14 16.3026 14V15ZM7.69775 15V14C7.30682 14 6.95173 14.2278 6.78877 14.5832C6.62582 14.9385 6.68488 15.3562 6.93996 15.6525L7.69775 15ZM15.5448 14.3475C14.6649 15.3695 13.3992 16 12.0002 16V18C14.0202 18 15.8265 17.0855 17.0604 15.6525L15.5448 14.3475ZM12.0002 16C10.6011 16 9.33551 15.3695 8.45555 14.3475L6.93996 15.6525C8.17387 17.0855 9.98016 18 12.0002 18V16ZM16.3026 14H7.69775V16H16.3026V14Z" fill="#555770"/>
<path d="M9 11C8.44772 11 8 10.5523 8 10C8 9.44772 8.44772 9 9 9C9.55228 9 10 9.44772 10 10C10 10.5523 9.55228 11 9 11ZM15 11C14.4477 11 14 10.5523 14 10C14 9.44772 14.4477 9 15 9C15.5523 9 16 9.44772 16 10C16 10.5523 15.5523 11 15 11Z" stroke="#555770" stroke-width="2"/>
</svg>
