<svg width="24" height="24" viewBox="0 0 24 24" fill="none" xmlns="http://www.w3.org/2000/svg">
<mask id="mask0_402_14560" style="mask-type:alpha" maskUnits="userSpaceOnUse" x="0" y="0" width="24" height="24">
<path d="M19.7839 19.7807L4 3.99675H0V24H24V0H5.69812V2.86644L21.1981 18.3664L19.7839 19.7807Z" fill="white"/>
</mask>
<g mask="url(#mask0_402_14560)">
<path d="M3.52441 4.94153L19.0244 20.4415" stroke="#555770" stroke-width="2"/>
<circle cx="12" cy="12" r="9" stroke="#555770" stroke-width="2"/>
<path d="M7 14C7.99804 15.7934 9.86346 17 12 17C13.7095 17 15.2455 16.2275 16.3024 15" stroke="#555770" stroke-width="2"/>
<path d="M9 11C8.44772 11 8 10.5523 8 10C8 9.44772 8.44772 9 9 9C9.55228 9 10 9.44772 10 10C10 10.5523 9.55228 11 9 11ZM15 11C14.4477 11 14 10.5523 14 10C14 9.44772 14.4477 9 15 9C15.5523 9 16 9.44772 16 10C16 10.5523 15.5523 11 15 11Z" stroke="#555770" stroke-width="2"/>
</g>
</svg>
