<svg width="24" height="24" viewBox="0 0 24 24" fill="none" xmlns="http://www.w3.org/2000/svg">
<g clip-path="url(#clip0_402_18652)">
<path d="M6 3L18 3C18.5523 3 19 3.44772 19 4L19 20C19 20.5523 18.5523 21 18 21L6 21C5.44772 21 5 20.5523 5 20L5 4C5 3.44772 5.44772 3 6 3Z" stroke="#3E7BFA" stroke-width="2"/>
<mask id="mask0_402_18652" style="mask-type:alpha" maskUnits="userSpaceOnUse" x="3" y="0" width="18" height="24">
<path d="M21 24L3 0L3 24L21 24Z" fill="black"/>
</mask>
<g mask="url(#mask0_402_18652)">
<path d="M6 3L18 3C18.5523 3 19 3.44772 19 4L19 20C19 20.5523 18.5523 21 18 21L6 21C5.44772 21 5 20.5523 5 20L5 4C5 3.44772 5.44772 3 6 3Z" stroke="#555770" stroke-width="2"/>
</g>
</g>
<defs>
<clipPath id="clip0_402_18652">
<rect width="24" height="24" fill="white"/>
</clipPath>
</defs>
</svg>
