<svg width="24" height="24" viewBox="0 0 24 24" fill="none" xmlns="http://www.w3.org/2000/svg">
<path d="M14.9577 7C14.8666 5.75066 14.6099 3.85887 14.0225 2.06844C14.0091 2.02754 13.9708 2 13.9278 2H10.0719C10.0289 2 9.99066 2.02754 9.97724 2.06844C9.38979 3.85887 9.13315 5.75066 9.04199 7M9.04199 17C9.13315 18.2493 9.38979 20.1411 9.97724 21.9316C9.99066 21.9725 10.0289 22 10.0719 22H13.9278C13.9708 22 14.0091 21.9725 14.0225 21.9316C14.6099 20.1411 14.8666 18.2493 14.9577 17" stroke="#3E7BFA" stroke-width="2"/>
<path d="M7 8C7 7.44772 7.44772 7 8 7H9.04212H14.9579H16C16.5523 7 17 7.44772 17 8V16C17 16.5523 16.5523 17 16 17H14.9579H9.04212H8C7.44772 17 7 16.5523 7 16V8Z" stroke="#555770" stroke-width="2"/>
</svg>
