<svg width="24" height="24" viewBox="0 0 24 24" fill="none" xmlns="http://www.w3.org/2000/svg">
<mask id="mask0_402_15060" style="mask-type:alpha" maskUnits="userSpaceOnUse" x="3" y="12" width="12" height="10">
<path d="M3 12H9V18H15V22H3V12Z" fill="white"/>
</mask>
<g mask="url(#mask0_402_15060)">
<circle cx="10" cy="17" r="4" stroke="#28293D" stroke-width="2"/>
</g>
<mask id="path-3-inside-1_402_15060" fill="white">
<path d="M14 4C14 5.10457 13.1046 6 12 6C10.8954 6 10 5.10457 10 4C10 2.89543 10.8954 2 12 2C13.1046 2 14 2.89543 14 4Z"/>
<path d="M12 7C10.8954 7 10 7.89543 10 9V15C10 16.1046 10.8954 17 12 17H17V22H19V16.5C19 15.3954 18.1046 14.5 17 14.5H14V11C14 11 14.918 11.8738 16 12.3429C17.082 12.8119 18.3267 13 19 13V11C19 11 17.4759 11.1363 16 10.0781C14.5241 9.01998 13.9852 8.03205 13.5547 7.65625C13.1242 7.28045 12.5072 7 12 7Z"/>
</mask>
<path d="M17 17H19V15H17V17ZM14 14.5H12V16.5H14V14.5ZM14 11L15.3789 9.55137L12 6.33497V11H14ZM19 13V15H21V13H19ZM19 11H21V8.8132L18.8219 9.00795L19 11ZM17 22H15V24H17V22ZM19 22V24H21V22H19ZM12 4V8C14.2091 8 16 6.20914 16 4H12ZM12 4H8C8 6.20914 9.79086 8 12 8V4ZM12 4V0C9.79086 0 8 1.79086 8 4H12ZM12 4H16C16 1.79086 14.2091 0 12 0V4ZM12 9V5C9.79086 5 8 6.79086 8 9H12ZM12 15H8C8 17.2091 9.79086 19 12 19V15ZM17 16.5H21C21 14.2909 19.2091 12.5 17 12.5V16.5ZM8 9V15H12V9H8ZM17 12.5H14V16.5H17V12.5ZM16 14.5V11H12V14.5H16ZM21 13V11H17V13H21ZM12 9C11.9461 9 11.9237 8.99307 11.9357 8.99592C11.9462 8.99841 11.9735 9.00618 12.014 9.02365C12.0539 9.04085 12.0972 9.06341 12.1396 9.08997C12.1821 9.11665 12.216 9.14245 12.2395 9.16297L14.8699 6.14953C14.1856 5.55217 13.1198 5 12 5V9ZM12 19H17V15H12V19ZM15 17V22H19V17H15ZM17 24H19V20H17V24ZM21 22V16.5H17V22H21ZM19 11C18.8219 9.00795 18.8226 9.00788 18.8234 9.00781C18.8236 9.00779 18.8244 9.00773 18.8248 9.00769C18.8258 9.0076 18.8267 9.00752 18.8277 9.00744C18.8295 9.00728 18.8313 9.00713 18.8329 9.00699C18.8363 9.00671 18.8393 9.00647 18.842 9.00626C18.8474 9.00585 18.8515 9.00556 18.8544 9.00538C18.8601 9.00501 18.8609 9.00503 18.8572 9.00517C18.8496 9.00546 18.8243 9.00618 18.7841 9.00527C18.7026 9.00343 18.5665 8.99502 18.3956 8.96536C18.0508 8.90548 17.6025 8.76612 17.1653 8.4527L14.8347 11.7035C15.8734 12.4483 16.9251 12.7699 17.7113 12.9064C18.106 12.9749 18.4431 12.9986 18.6935 13.0042C18.8192 13.0071 18.9245 13.0054 19.0061 13.0024C19.0469 13.0009 19.0819 12.999 19.1107 12.9972C19.125 12.9962 19.1379 12.9953 19.1491 12.9945C19.1548 12.994 19.16 12.9936 19.1648 12.9932C19.1673 12.993 19.1696 12.9928 19.1718 12.9926C19.1729 12.9925 19.174 12.9924 19.175 12.9923C19.1755 12.9923 19.1763 12.9922 19.1766 12.9922C19.1774 12.9921 19.1781 12.9921 19 11ZM17.1653 8.4527C16.5813 8.03399 16.1892 7.63559 15.8903 7.29415C15.7279 7.10852 15.6083 6.95851 15.4514 6.76896C15.3265 6.61808 15.1165 6.36475 14.8699 6.14953L12.2395 9.16297C12.2082 9.13565 12.227 9.14673 12.3703 9.31985C12.4816 9.4543 12.6697 9.68787 12.8803 9.92847C13.3275 10.4395 13.9428 11.0641 14.8347 11.7035L17.1653 8.4527ZM14 11C12.6211 12.4486 12.6213 12.4488 12.6215 12.4491C12.6216 12.4491 12.6218 12.4494 12.622 12.4495C12.6223 12.4498 12.6227 12.4502 12.623 12.4505C12.6238 12.4512 12.6246 12.4519 12.6254 12.4527C12.6271 12.4543 12.629 12.4561 12.6311 12.4582C12.6354 12.4622 12.6406 12.4671 12.6467 12.4728C12.659 12.4842 12.6748 12.4989 12.6941 12.5165C12.7327 12.5516 12.7853 12.5988 12.8504 12.6552C12.98 12.7675 13.1621 12.9193 13.3844 13.0881C13.8149 13.4152 14.4586 13.8545 15.2045 14.1779L16.7955 10.5079C16.4594 10.3622 16.1031 10.1301 15.8041 9.90298C15.6616 9.79476 15.5467 9.69877 15.4703 9.63258C15.4324 9.59973 15.4048 9.57491 15.389 9.56046C15.3811 9.55326 15.3761 9.54869 15.3744 9.54706C15.3735 9.54625 15.3735 9.54618 15.3742 9.54688C15.3746 9.54724 15.3752 9.54778 15.3759 9.54853C15.3763 9.5489 15.3768 9.54933 15.3773 9.5498C15.3775 9.55004 15.3778 9.55029 15.3781 9.55055C15.3782 9.55068 15.3784 9.55089 15.3785 9.55095C15.3787 9.55116 15.3789 9.55137 14 11ZM15.2045 14.1779C16.5572 14.7642 18.0752 15 19 15V11C18.5782 11 17.6068 10.8596 16.7955 10.5079L15.2045 14.1779Z" fill="#28293D" mask="url(#path-3-inside-1_402_15060)"/>
</svg>
