<svg width="24" height="24" viewBox="0 0 24 24" fill="none" xmlns="http://www.w3.org/2000/svg">
<g clip-path="url(#clip0_402_15083)">
<path d="M16.0369 4.86678L15.3493 4.14078V4.14078L16.0369 4.86678ZM12 5.99998L11.0365 6.26762L11.1932 6.8319L11.762 6.97126L12 5.99998ZM13.1884 2.18365L12.5007 1.45765L13.1884 2.18365ZM17.2253 1.05045L18.1888 0.782819L18.0321 0.218533L17.4632 0.0791765L17.2253 1.05045ZM12 6.88233C11.2966 6.88233 10.8799 6.72189 10.3401 6.51018C9.75494 6.28071 9.0466 5.99998 7.95 5.99998V7.99998C8.6534 7.99998 9.07006 8.16042 9.60991 8.37213C10.1951 8.6016 10.9034 8.88233 12 8.88233V6.88233ZM7.95 5.99998C5.0185 5.99998 2 8.79233 2 13.6176H4C4 9.61939 6.3815 7.99998 7.95 7.99998V5.99998ZM2 13.6176C2 16.0514 2.86412 18.3346 3.96375 20.0116C4.51475 20.8519 5.14438 21.5701 5.79039 22.0898C6.40887 22.5873 7.16429 23 7.95 23V21C7.83571 21 7.52238 20.9163 7.04398 20.5314C6.59312 20.1688 6.09775 19.6187 5.63625 18.9149C4.71088 17.5036 4 15.5956 4 13.6176H2ZM7.95 23C9.02743 23 9.83504 22.7305 10.4796 22.5007C11.1463 22.263 11.533 22.1176 12 22.1176V20.1176C11.117 20.1176 10.3787 20.4134 9.80795 20.6169C9.21496 20.8283 8.67257 21 7.95 21V23ZM12 8.88233C13.0966 8.88233 13.8049 8.6016 14.3901 8.37213C14.9299 8.16042 15.3466 7.99998 16.05 7.99998V5.99998C14.9534 5.99998 14.2451 6.28071 13.6599 6.51018C13.1201 6.72189 12.7034 6.88233 12 6.88233V8.88233ZM16.05 7.99998C17.6185 7.99998 20 9.61939 20 13.6176H22C22 8.79233 18.9815 5.99998 16.05 5.99998V7.99998ZM20 13.6176C20 15.5956 19.2891 17.5036 18.3637 18.9149C17.9022 19.6187 17.4069 20.1688 16.956 20.5314C16.4776 20.9163 16.1643 21 16.05 21V23C16.8357 23 17.5911 22.5873 18.2096 22.0898C18.8556 21.5701 19.4853 20.8519 20.0363 20.0116C21.1359 18.3346 22 16.0514 22 13.6176H20ZM16.05 21C15.3274 21 14.785 20.8283 14.1921 20.6169C13.6213 20.4134 12.883 20.1176 12 20.1176V22.1176C12.467 22.1176 12.8537 22.263 13.5204 22.5007C14.165 22.7305 14.9726 23 16.05 23V21ZM15.3493 4.14078C14.4557 4.98719 13.2406 5.27435 12.238 5.0287L11.762 6.97126C13.4438 7.38327 15.3516 6.89333 16.7246 5.59279L15.3493 4.14078ZM12.9635 5.73235C12.7197 4.85457 12.9862 3.7525 13.876 2.90966L12.5007 1.45765C11.1239 2.76177 10.5765 4.6116 11.0365 6.26762L12.9635 5.73235ZM16.2618 1.31809C16.5056 2.19586 16.239 3.29794 15.3493 4.14078L16.7246 5.59279C18.1014 4.28867 18.6488 2.43883 18.1888 0.782819L16.2618 1.31809ZM13.876 2.90966C14.7696 2.06325 15.9847 1.77608 16.9873 2.02173L17.4632 0.0791765C15.7815 -0.33284 13.8737 0.157102 12.5007 1.45765L13.876 2.90966Z" fill="#28293D"/>
</g>
<defs>
<clipPath id="clip0_402_15083">
<rect width="24" height="24" fill="white"/>
</clipPath>
</defs>
</svg>
