<svg width="24" height="24" viewBox="0 0 24 24" fill="none" xmlns="http://www.w3.org/2000/svg">
<path d="M21 22V23H22V22H21ZM3 22H2V23H3V22ZM16.5 14.1821L17.3995 13.7451L16.5 11.8936L15.6005 13.7451L16.5 14.1821ZM7.5 14.1821L8.39948 13.7451L7.5 11.8936L6.60052 13.7451L7.5 14.1821ZM20 12V22H22V12H20ZM21 21H3V23H21V21ZM4 22V12H2V22H4ZM18 10C19.1046 10 20 10.8954 20 12H22C22 9.79086 20.2091 8 18 8V10ZM6 8C3.79086 8 2 9.79086 2 12H4C4 10.8954 4.89543 10 6 10V8ZM21 16C19.4182 16 18.0489 15.0819 17.3995 13.7451L15.6005 14.619C16.5718 16.6184 18.6236 18 21 18V16ZM15.6005 13.7451C14.9511 15.0819 13.5818 16 12 16V18C14.3764 18 16.4282 16.6184 17.3995 14.619L15.6005 13.7451ZM6.60052 13.7451C5.95108 15.0819 4.58179 16 3 16V18C5.37641 18 7.4282 16.6184 8.39948 14.619L6.60052 13.7451ZM12 16C10.4182 16 9.04892 15.0819 8.39948 13.7451L6.60052 14.619C7.5718 16.6184 9.62359 18 12 18V16ZM6 10H12V8H6V10ZM12 10H18V8H12V10ZM13 9V6H11V9H13Z" fill="#28293D"/>
<path d="M13.75 3.34211C13.75 4.25774 12.9665 5 12 5C11.0335 5 10.25 4.25774 10.25 3.34211C10.25 2.42648 12 0.5 12 0.5C12 0.5 13.75 2.42648 13.75 3.34211Z" fill="#28293D"/>
</svg>
