<svg width="24" height="24" viewBox="0 0 24 24" fill="none" xmlns="http://www.w3.org/2000/svg">
<path d="M10 5L10.3846 4.07692L10.0077 3.91988L9.62861 4.07152L10 5ZM2 8.2L1.62861 7.27152L1 7.52297V8.2H2ZM22 10H23V9.33333L22.3846 9.07692L22 10ZM2 17.2H1V18.114L1.91036 18.196L2 17.2ZM22 19L21.9104 19.996L23 20.094V19H22ZM9.62861 4.07152L1.62861 7.27152L2.37139 9.12848L10.3714 5.92848L9.62861 4.07152ZM1.91036 9.19597L21.9104 10.996L22.0896 9.00403L2.08964 7.20403L1.91036 9.19597ZM22.3846 9.07692L10.3846 4.07692L9.61538 5.92308L21.6154 10.9231L22.3846 9.07692ZM1.91036 13.396L21.9104 15.196L22.0896 13.204L2.08964 11.404L1.91036 13.396ZM1.91036 18.196L21.9104 19.996L22.0896 18.004L2.08964 16.204L1.91036 18.196ZM21 10V14.2H23V10H21ZM21 14.2V19H23V14.2H21ZM1 8.2V12.4H3V8.2H1ZM1 12.4V17.2H3V12.4H1Z" fill="#28293D"/>
</svg>
