<svg width="24" height="24" viewBox="0 0 24 24" fill="none" xmlns="http://www.w3.org/2000/svg">
<path d="M5.15145 16.5803L4.46057 15.8573L4.46057 15.8573L5.15145 16.5803ZM4.40636 19.7004H5.40636V18.7004H4.40636V19.7004ZM7.67145 18.9884L6.98057 18.2654V18.2655L7.67145 18.9884ZM8.5 10.5L9.45809 10.7865L8.5 10.5ZM15.4312 3.3134L15.7796 4.25077L15.4312 3.3134ZM21.7525 9.06429L20.8083 8.73494V8.73494L21.7525 9.06429ZM14 16L14.2469 16.969H14.2469L14 16ZM20.5878 4.34956L21.2787 3.62659L21.2787 3.62659L20.5878 4.34956ZM3.44382 18.7004C3.15543 18.7004 3 18.4881 3 18.3207H1C1 19.6773 2.1374 20.7004 3.44382 20.7004V18.7004ZM3 18.3207C3 18.1533 3.15543 17.941 3.44382 17.941V15.941C2.1374 15.941 1 16.9641 1 18.3207H3ZM6.294 20.6203C6.294 20.7877 6.13856 21 5.85018 21V23C7.15659 23 8.294 21.9769 8.294 20.6203H6.294ZM5.85018 21C5.5618 21 5.40636 20.7877 5.40636 20.6203H3.40636C3.40636 21.9769 4.54377 23 5.85018 23V21ZM5.84233 17.3032L8.83379 14.4446L7.45203 12.9986L4.46057 15.8573L5.84233 17.3032ZM3.44382 20.7004H4.40636V18.7004H3.44382V20.7004ZM3.40636 19.7004V20.6203H5.40636V19.7004H3.40636ZM8.36233 19.7114L11.3538 16.8527L9.97202 15.4068L6.98057 18.2654L8.36233 19.7114ZM7.45203 14.4446L9.97202 16.8527L11.3538 15.4068L8.83379 12.9986L7.45203 14.4446ZM13.7531 15.031C12.6366 15.3155 11.9586 15.3497 10.8424 15.146L10.4834 17.1135C11.9013 17.3723 12.8706 17.3198 14.2469 16.969L13.7531 15.031ZM20.8083 8.73494C20.4758 9.68797 19.3418 11.1174 17.8571 12.4439C16.3782 13.7652 14.7972 14.7649 13.7531 15.031L14.2469 16.969C15.7681 16.5814 17.6435 15.3167 19.1896 13.9353C20.73 12.5591 22.1895 10.8476 22.6967 9.39364L20.8083 8.73494ZM19.8969 5.07253C20.9116 6.04223 21.2535 7.45837 20.8083 8.73494L22.6967 9.39364C23.4063 7.35914 22.8465 5.12482 21.2787 3.62659L19.8969 5.07253ZM9.45809 10.7865C9.73366 9.86478 10.733 8.43108 12.0607 7.05887C13.3822 5.69294 14.8145 4.60942 15.7796 4.25077L15.0829 2.37604C13.6899 2.89372 12.0041 4.24109 10.6233 5.66818C9.24864 7.08899 7.96142 8.81042 7.54191 10.2135L9.45809 10.7865ZM15.7796 4.25077C17.2101 3.71914 18.8277 4.05078 19.8969 5.07253L21.2787 3.62659C19.6442 2.06466 17.216 1.58333 15.0829 2.37604L15.7796 4.25077ZM8.294 20.6203C8.294 20.2866 8.28693 20.0816 8.31541 19.8873C8.34093 19.7131 8.37843 19.696 8.36233 19.7114L6.98057 18.2655C6.54646 18.6803 6.39524 19.1967 6.33653 19.5973C6.28079 19.9778 6.294 20.389 6.294 20.6203H8.294ZM9.12352 13.5256C8.93544 12.5845 9.10319 11.9735 9.45809 10.7865L7.54191 10.2135C7.18879 11.3946 6.86694 12.4396 7.1623 13.9176L9.12352 13.5256ZM3.44382 17.941C3.69259 17.941 4.10921 17.9532 4.49518 17.9016C4.89312 17.8483 5.41472 17.7119 5.84233 17.3032L4.46057 15.8573C4.47018 15.8481 4.43354 15.892 4.22994 15.9192C4.01438 15.9481 3.78619 15.941 3.44382 15.941V17.941Z" fill="#28293D"/>
</svg>
