<svg width="24" height="24" viewBox="0 0 24 24" fill="none" xmlns="http://www.w3.org/2000/svg">
<path d="M11 17.527L10.0059 17.4184L9.88479 18.527H11V17.527ZM13 17.527V18.527H14.1152L13.9941 17.4184L13 17.527ZM9.26675 10.0786L9.38641 11.0714L10.5444 10.9319L10.2297 9.80882L9.26675 10.0786ZM14.7332 10.0786L13.7703 9.80882L13.4556 10.9319L14.6135 11.0714L14.7332 10.0786ZM12 14.4638L12.7071 13.7567L12 13.0496L11.2929 13.7567L12 14.4638ZM9.60992 14.7345C8.59471 14.7345 7.77173 13.9115 7.77173 12.8963H5.77173C5.77173 15.0161 7.49014 16.7345 9.60992 16.7345V14.7345ZM16.2282 12.8963C16.2282 13.9115 15.4052 14.7345 14.39 14.7345V16.7345C16.5098 16.7345 18.2282 15.0161 18.2282 12.8963H16.2282ZM10.1618 9.3112C10.1618 8.29599 10.9848 7.47301 12 7.47301V5.47301C9.8802 5.47301 8.16178 7.19142 8.16178 9.3112H10.1618ZM12 7.47301C13.0152 7.47301 13.8382 8.29599 13.8382 9.3112H15.8382C15.8382 7.19142 14.1197 5.47301 12 5.47301V7.47301ZM10.6735 14.3958C10.3735 14.6092 10.0078 14.7345 9.60992 14.7345V16.7345C10.4368 16.7345 11.2053 16.4719 11.8327 16.0256L10.6735 14.3958ZM10.259 15.1021L10.0059 17.4184L11.9941 17.6356L12.2472 15.3193L10.259 15.1021ZM11 18.527H13V16.527H11V18.527ZM14.39 14.7345C13.9921 14.7345 13.6265 14.6092 13.3265 14.3958L12.1673 16.0256C12.7947 16.4719 13.5632 16.7345 14.39 16.7345V14.7345ZM13.9941 17.4184L13.7409 15.1021L11.7528 15.3194L12.0059 17.6356L13.9941 17.4184ZM10.2297 9.80882C10.1856 9.65169 10.1618 9.48505 10.1618 9.3112H8.16178C8.16178 9.66922 8.21107 10.0174 8.30384 10.3484L10.2297 9.80882ZM7.77173 12.8963C7.77173 11.957 8.47705 11.181 9.38641 11.0714L9.1471 9.08581C7.24513 9.31503 5.77173 10.9328 5.77173 12.8963H7.77173ZM13.8382 9.3112C13.8382 9.48505 13.8143 9.6517 13.7703 9.80882L15.6961 10.3484C15.7889 10.0174 15.8382 9.66922 15.8382 9.3112H13.8382ZM14.6135 11.0714C15.5229 11.181 16.2282 11.957 16.2282 12.8963H18.2282C18.2282 10.9328 16.7548 9.31503 14.8528 9.08581L14.6135 11.0714ZM12.7469 14.2107H11.2531V16.2107H12.7469V14.2107ZM11.9602 15.9178L12.7071 15.1709L11.2929 13.7567L10.546 14.5036L11.9602 15.9178ZM11.2929 15.1709L12.0398 15.9178L13.454 14.5036L12.7071 13.7567L11.2929 15.1709ZM5 2H19V0H5V2ZM19 2V22H21V2H19ZM19 22H5V24H19V22ZM5 22V2H3V22H5ZM5 22H3C3 23.1046 3.89543 24 5 24V22ZM19 22V24C20.1046 24 21 23.1046 21 22H19ZM19 2H21C21 0.895431 20.1046 0 19 0V2ZM5 0C3.89543 0 3 0.895431 3 2H5V2V0Z" fill="#28293D"/>
</svg>
