<svg width="24" height="24" viewBox="0 0 24 24" fill="none" xmlns="http://www.w3.org/2000/svg">
<path d="M18.9619 11.1914C19.6247 12.1791 20 13.305 20 14.5C20 17.4073 17.7786 19.9059 14.6 21H7.4C4.22137 19.9059 2 17.4073 2 14.5C2 13.305 2.37528 12.1791 3.03806 11.1914M18.9619 11.1914H3.03806M18.9619 11.1914C18.0122 9.77598 16.4721 8.64438 14.6 8M3.03806 11.1914C3.98779 9.77598 5.52786 8.64438 7.4 8M7.4 8H14.6M7.4 8V5.4M14.6 8V3M7.4 3H14.6M7.4 3H5C5 4 6 5.4 7.4 5.4M7.4 3V5.4M14.6 3C17 3 22 3 22 10" stroke="#28293D" stroke-width="2"/>
</svg>
