<svg width="24" height="24" viewBox="0 0 24 24" fill="none" xmlns="http://www.w3.org/2000/svg">
<path d="M11.2361 3.52787L12.1305 3.97508V3.97508L11.2361 3.52787ZM19 12C19 17.1903 15.6693 21 12 21V23C17.1673 23 21 17.8554 21 12H19ZM12 21C8.33071 21 5 17.1903 5 12H3C3 17.8554 6.83274 23 12 23V21ZM5 12C5 6.80967 8.33071 3 12 3V1C6.83274 1 3 6.14463 3 12H5ZM12 3C15.6693 3 19 6.80967 19 12H21C21 6.14463 17.1673 1 12 1V3ZM11.1056 1.55279L10.3416 3.08065L12.1305 3.97508L12.8944 2.44721L11.1056 1.55279ZM11.8695 20.0249L11.1056 21.5528L12.8944 22.4472L13.6584 20.9193L11.8695 20.0249ZM11.2 12.6C12.8113 14.7484 13.0705 17.6229 11.8695 20.0249L13.6584 20.9193C15.1982 17.8397 14.8659 14.1545 12.8 11.4L11.2 12.6ZM10.3416 3.08065C8.80184 6.16026 9.13414 9.84552 11.2 12.6L12.8 11.4C11.1887 9.25155 10.9295 6.37712 12.1305 3.97508L10.3416 3.08065Z" fill="#28293D"/>
</svg>
