<svg width="24" height="24" viewBox="0 0 24 24" fill="none" xmlns="http://www.w3.org/2000/svg">
<path d="M20.8668 12.1752L20.5131 13.1106L20.8668 12.1752ZM17.9376 11.0675L17.5839 12.0028L17.9376 11.0675ZM21.6461 13.4196L20.6946 13.1117L21.6461 13.4196ZM21.0585 12.2477L21.4123 11.3123L21.0585 12.2477ZM13.5615 10.301L12.7299 9.74566L13.5615 10.301ZM14.8025 9.88186L14.4488 10.8172L14.8025 9.88186ZM13.9792 21.7572L13.5921 20.8352L13.9792 21.7572ZM12.7799 21.3116L13.6605 20.8378L12.7799 21.3116ZM9.80236 14.0629L10.3583 14.8941L9.80236 14.0629ZM15.8408 3.67003L14.8559 3.84312L15.8408 3.67003ZM14.8559 3.84312C14.9504 4.3805 14.9998 4.93407 14.9998 5.5H16.9998C16.9998 4.8175 16.9402 4.1481 16.8257 3.49693L14.8559 3.84312ZM16.6848 3.28899C18.7158 5.03279 19.9998 7.61591 19.9998 10.5H21.9998C21.9998 7.00822 20.4423 3.87913 17.9877 1.77157L16.6848 3.28899ZM5.49975 15C4.93383 15 4.38025 14.9506 3.84288 14.8562L3.49669 16.826C4.14786 16.9404 4.81726 17 5.49975 17V15ZM10.4998 20C7.61567 20 5.03255 18.716 3.28874 16.6851L1.77133 17.9879C3.87888 20.4425 7.00798 22 10.4998 22V20ZM12.7299 9.74566C11.8095 11.1239 10.6239 12.3103 9.24639 13.2317L10.3583 14.8941C11.954 13.8268 13.3269 12.4529 14.3931 10.8564L12.7299 9.74566ZM20.6946 13.1117C19.565 16.6019 16.9484 19.4262 13.5921 20.8352L14.3663 22.6793C18.256 21.0464 21.2872 17.7758 22.5975 13.7276L20.6946 13.1117ZM14.4488 10.8172L14.6546 10.8951L15.3621 9.02435L15.1562 8.9465L14.4488 10.8172ZM14.9998 5.5C14.9998 6.94452 14.678 8.31113 14.1033 9.53447L15.9134 10.3849C16.6106 8.90106 16.9998 7.24459 16.9998 5.5H14.9998ZM9.11717 14.2873C8.0035 14.7463 6.7825 15 5.49975 15V17C7.04849 17 8.5281 16.6933 9.87929 16.1364L9.11717 14.2873ZM8.61759 15.6856L11.6283 21.2818L13.3896 20.3342L10.3789 14.7381L8.61759 15.6856ZM11.6283 21.2818L11.8992 21.7854L13.6605 20.8378L13.3896 20.3342L11.6283 21.2818ZM12.3187 19.8262C11.7307 19.9402 11.1227 20 10.4998 20V22C11.2511 22 11.9865 21.9278 12.6991 21.7897L12.3187 19.8262ZM19.9998 10.5C19.9998 11.0169 19.9586 11.5235 19.8795 12.0169L21.8542 12.3335C21.9501 11.7359 21.9998 11.1234 21.9998 10.5H19.9998ZM20.5131 13.1106L20.7048 13.183L21.4123 11.3123L21.2206 11.2399L20.5131 13.1106ZM14.6546 10.8951L17.5839 12.0028L18.2913 10.1321L15.3621 9.02435L14.6546 10.8951ZM17.5839 12.0028L20.5131 13.1106L21.2206 11.2399L18.2913 10.1321L17.5839 12.0028ZM22.5975 13.7276C22.9311 12.6969 22.3462 11.6655 21.4123 11.3123L20.7048 13.183C20.7073 13.184 20.7029 13.1832 20.6981 13.1737C20.6955 13.1686 20.6922 13.1597 20.6911 13.1472C20.6899 13.1339 20.6916 13.1211 20.6946 13.1117L22.5975 13.7276ZM14.3931 10.8564C14.4069 10.8359 14.4247 10.8242 14.4384 10.8194C14.4447 10.8173 14.4483 10.8172 14.4489 10.8172C14.449 10.8172 14.4484 10.8171 14.4488 10.8172L15.1562 8.9465C14.229 8.59586 13.239 8.98347 12.7299 9.74566L14.3931 10.8564ZM13.5921 20.8352C13.6011 20.8314 13.6131 20.8287 13.6256 20.8286C13.6374 20.8285 13.646 20.8307 13.6512 20.8327C13.6606 20.8362 13.6618 20.8402 13.6605 20.8378L11.8992 21.7854C12.3568 22.6359 13.4022 23.084 14.3663 22.6793L13.5921 20.8352ZM9.24639 13.2317C8.47211 13.7496 8.14074 14.7993 8.61759 15.6856L10.3789 14.7381C10.3999 14.7771 10.4001 14.818 10.3932 14.8436C10.3869 14.8668 10.3738 14.8837 10.3583 14.8941L9.24639 13.2317ZM3.84288 14.8562C3.00502 14.7089 2.20809 15.0574 1.74439 15.633C1.50734 15.9272 1.33373 16.311 1.32009 16.7479C1.306 17.1988 1.46555 17.6318 1.77133 17.9879L3.28874 16.6851C3.28477 16.6804 3.29477 16.6909 3.3047 16.7182C3.31474 16.7457 3.32012 16.7779 3.31911 16.8103C3.31711 16.8745 3.29312 16.8985 3.30183 16.8877C3.31057 16.8768 3.33553 16.8541 3.37671 16.8381C3.41454 16.8234 3.45511 16.8187 3.49669 16.826L3.84288 14.8562ZM16.8257 3.49693C16.8184 3.45535 16.8232 3.41478 16.8379 3.37695C16.8538 3.33578 16.8766 3.31081 16.8875 3.30207C16.8983 3.29337 16.8742 3.31735 16.81 3.31936C16.7777 3.32037 16.7455 3.31499 16.7179 3.30494C16.6907 3.29502 16.6802 3.28501 16.6848 3.28899L17.9877 1.77157C17.6315 1.4658 17.1985 1.30625 16.7476 1.32033C16.3108 1.33398 15.9269 1.50758 15.6327 1.74463C15.0571 2.20833 14.7087 3.00526 14.8559 3.84312L16.8257 3.49693Z" fill="#28293D"/>
</svg>
