<svg width="24" height="24" viewBox="0 0 24 24" fill="none" xmlns="http://www.w3.org/2000/svg">
<path d="M20.3225 4.67592C21.4651 5.81581 21.1283 7.99997 19.5701 9.55438C18.012 11.1088 15.8226 11.4448 14.68 10.3049C13.5373 9.16501 13.8741 6.98085 15.4323 5.42645C16.9904 3.87204 19.1798 3.53602 20.3225 4.67592Z" fill="#28293D"/>
<path d="M11.6706 13.307L10.9644 12.5991L11.6706 13.307ZM8.84936 10.4925L9.55562 11.2005L10.2653 10.4925L9.55562 9.78459L8.84936 10.4925ZM3.20685 4.86355L3.91311 4.15559L3.20685 3.45103L2.50059 4.15559L3.20685 4.86355ZM4.71152 8.99148L4.00526 9.69943H4.00526L4.71152 8.99148ZM7.53277 11.806L6.82651 12.5139L7.53277 13.2185L8.23903 12.5139L7.53277 11.806ZM19.6162 5.38387C19.9076 5.67453 20.0712 6.15589 19.9708 6.80729C19.8704 7.45822 19.5082 8.20359 18.8639 8.84642L20.2764 10.2623C21.1901 9.35077 21.7755 8.22685 21.9474 7.11212C22.1192 5.99787 21.88 4.8172 21.0287 3.96796L19.6162 5.38387ZM18.8639 8.84642C18.2195 9.48923 17.4717 9.85118 16.8175 9.95158C16.1624 10.0521 15.6781 9.8881 15.3862 9.59696L13.9737 11.0129C14.8245 11.8616 16.0062 12.0995 17.1209 11.9284C18.2367 11.7572 19.3626 11.1739 20.2764 10.2623L18.8639 8.84642ZM15.3862 9.59696C15.0949 9.3063 14.9312 8.82494 15.0316 8.17353C15.132 7.52261 15.4942 6.77724 16.1385 6.1344L14.726 4.71849C13.8123 5.63006 13.2269 6.75398 13.055 7.86871C12.8832 8.98296 13.1224 10.1636 13.9737 11.0129L15.3862 9.59696ZM16.1385 6.1344C16.7829 5.4916 17.5307 5.12964 18.1849 5.02925C18.84 4.9287 19.3244 5.09272 19.6162 5.38387L21.0287 3.96796C20.1779 3.11921 18.9963 2.8813 17.8815 3.05239C16.7657 3.22364 15.6398 3.8069 14.726 4.71849L16.1385 6.1344ZM13.9737 9.59696L10.9644 12.5991L12.3769 14.015L15.3862 11.0129L13.9737 9.59696ZM10.9644 12.5991L3.44097 20.1045L4.85348 21.5204L12.3769 14.015L10.9644 12.5991ZM10.9644 14.015L18.6758 21.708L20.0883 20.292L12.3769 12.5991L10.9644 14.015ZM9.55562 9.78459L3.91311 4.15559L2.50059 5.5715L8.1431 11.2005L9.55562 9.78459ZM5.41778 8.28352C4.31816 7.18654 4.05909 6.3727 4.01018 5.9292C3.98496 5.70045 4.01174 5.5398 4.03506 5.45231C4.04704 5.40734 4.0578 5.38291 4.05926 5.37974C4.06023 5.37765 4.0566 5.3859 4.04661 5.40283C4.04179 5.411 4.03227 5.42665 4.01799 5.44711C4.01077 5.45744 3.97384 5.51091 3.91311 5.5715L2.50059 4.15559C2.39797 4.25796 2.3357 4.36683 2.32424 4.38624C2.29505 4.4357 2.26798 4.48824 2.24325 4.54183C2.19333 4.65002 2.14375 4.78253 2.10252 4.93725C2.0194 5.24911 1.96824 5.65876 2.02223 6.14841C2.13177 7.14173 2.65979 8.35719 4.00526 9.69943L5.41778 8.28352ZM4.00526 9.69943L6.82651 12.5139L8.23903 11.098L5.41778 8.28352L4.00526 9.69943ZM8.23903 12.5139L9.55562 11.2005L8.1431 9.78459L6.82651 11.098L8.23903 12.5139Z" fill="#28293D"/>
</svg>
