<svg width="24" height="24" viewBox="0 0 24 24" fill="none" xmlns="http://www.w3.org/2000/svg">
<path d="M7.02331 5.5L6.46963 4.66727L7.02331 5.5ZM16.9767 5.5L17.5304 4.66727L16.9767 5.5ZM4.51555 8L3.68454 7.44374H3.68454L4.51555 8ZM19.4845 8L20.3155 7.44374L19.4845 8ZM4.51555 18L3.68454 18.5563L4.51555 18ZM13 1H11V3H13V1ZM9 3V4.22302H11V3H9ZM13 3V4.22302H15V3H13ZM3 14H21V12H3V14ZM10 5.22302H12V3.22302H10V5.22302ZM12 5.22302H14V3.22302H12V5.22302ZM11 4.22302V22H13V4.22302H11ZM7.57698 6.33273C8.37083 5.80491 9.2636 5.41554 10.2213 5.19823L9.77871 3.24781C8.57909 3.52002 7.46172 4.00764 6.46963 4.66727L7.57698 6.33273ZM12 21C10.3629 21 8.84347 20.5093 7.57698 19.6673L6.46963 21.3327C8.05406 22.3862 9.95687 23 12 23V21ZM6.02331 5.5V20.5H8.02331V5.5H6.02331ZM13.7787 5.19823C14.7364 5.41554 15.6292 5.80491 16.423 6.33273L17.5304 4.66727C16.5383 4.00764 15.4209 3.52002 14.2213 3.24781L13.7787 5.19823ZM16.423 19.6673C15.1565 20.5093 13.6371 21 12 21V23C14.0431 23 15.9459 22.3862 17.5304 21.3327L16.423 19.6673ZM15.9767 5.5V20.5H17.9767V5.5H15.9767ZM4 13C4 11.354 4.49602 9.8269 5.34656 8.55626L3.68454 7.44374C2.62053 9.0333 2 10.9457 2 13H4ZM5.34656 8.55626C5.93569 7.67615 6.69495 6.91918 7.57698 6.33273L6.46963 4.66727C5.36805 5.3997 4.42029 6.34459 3.68454 7.44374L5.34656 8.55626ZM16.423 6.33273C17.305 6.91918 18.0643 7.67615 18.6534 8.55626L20.3155 7.44374C19.5797 6.34459 18.632 5.3997 17.5304 4.66727L16.423 6.33273ZM18.6534 8.55626C19.504 9.8269 20 11.354 20 13H22C22 10.9457 21.3795 9.0333 20.3155 7.44374L18.6534 8.55626ZM4.51555 9H19.4845V7H4.51555V9ZM7.57698 19.6673C6.69495 19.0808 5.93569 18.3239 5.34656 17.4437L3.68454 18.5563C4.42029 19.6554 5.36805 20.6003 6.46963 21.3327L7.57698 19.6673ZM5.34656 17.4437C4.49602 16.1731 4 14.646 4 13H2C2 15.0543 2.62053 16.9667 3.68454 18.5563L5.34656 17.4437ZM20 13C20 14.646 19.504 16.1731 18.6534 17.4437L20.3155 18.5563C21.3795 16.9667 22 15.0543 22 13H20ZM18.6534 17.4437C18.0643 18.3239 17.305 19.0808 16.423 19.6673L17.5304 21.3327C18.632 20.6003 19.5797 19.6554 20.3155 18.5563L18.6534 17.4437ZM4.51555 19H19.4845V17H4.51555V19ZM11 1C9.89543 1 9 1.89543 9 3H11V1ZM13 3H15C15 1.89543 14.1046 1 13 1V3Z" fill="#28293D"/>
</svg>
