<svg width="24" height="24" viewBox="0 0 24 24" fill="none" xmlns="http://www.w3.org/2000/svg">
<mask id="mask0_402_15124" style="mask-type:alpha" maskUnits="userSpaceOnUse" x="9" y="0" width="15" height="24">
<path d="M9 7V0H24V24H18V7H9Z" fill="white"/>
</mask>
<g mask="url(#mask0_402_15124)">
<path d="M22 6L22.9923 6.12403L23.1328 5H22V6ZM12 6V5H10.8672L11.0077 6.12403L12 6ZM13.8905 21.124L12.8982 21.2481L13.8905 21.124ZM20.1095 21.124L19.1172 21L20.1095 21.124ZM16 1V6H18V1H16ZM22 5H17V7H22V5ZM21.0077 5.87597L19.1172 21L21.1018 21.2481L22.9923 6.12403L21.0077 5.87597ZM12 7H17V5H12V7ZM11.0077 6.12403L12.8982 21.2481L14.8828 21L12.9923 5.87597L11.0077 6.12403ZM19.1172 21H14.8828V23H19.1172V21ZM12.8982 21.2481C13.0233 22.2489 13.8741 23 14.8828 23V21L14.8828 21L12.8982 21.2481ZM19.1172 21L19.1172 21V23C20.1259 23 20.9767 22.2489 21.1018 21.2481L19.1172 21Z" fill="#28293D"/>
</g>
<mask id="mask1_402_15124" style="mask-type:alpha" maskUnits="userSpaceOnUse" x="0" y="8" width="17" height="16">
<path d="M17 8H0V24H17V21H0.5V19H17V17H0.5V15H17V8Z" fill="white"/>
</mask>
<g mask="url(#mask1_402_15124)">
<path d="M14.9 21H2.1V23H14.9V21ZM8.5 11C10.0694 11 11.5078 11.4508 12.5285 12.0955C13.5938 12.7683 14 13.5032 14 14H16C16 12.4968 14.9062 11.2317 13.5965 10.4045C12.2422 9.54915 10.4306 9 8.5 9V11ZM3 14C3 13.5032 3.40618 12.7683 4.47149 12.0955C5.49217 11.4508 6.93057 11 8.5 11V9C6.56943 9 4.75783 9.54915 3.40351 10.4045C2.09382 11.2317 1 12.4968 1 14H3ZM2 15H15V13H2V15ZM3 21.9V18H1V21.9H3ZM3 18V14H1V18H3ZM14 14V18H16V14H14ZM14 18V21.9H16V18H14ZM2 19H15V17H2V19ZM14.9 23C15.5075 23 16 22.5075 16 21.9H14C14 21.4029 14.4029 21 14.9 21V23ZM2.1 21C2.59705 21 3 21.4029 3 21.9H1C1 22.5075 1.49249 23 2.1 23V21Z" fill="#28293D"/>
</g>
</svg>
