<svg width="24" height="24" viewBox="0 0 24 24" fill="none" xmlns="http://www.w3.org/2000/svg">
<path d="M4 3V2H2.88274L3.00612 3.11043L4 3ZM20 3L20.9939 3.11043L21.1173 2H20V3ZM5.90116 20.1104L4.90728 20.2209L5.90116 20.1104ZM18.0988 20.1104L17.105 20L18.0988 20.1104ZM4 4H20V2H4V4ZM17.105 20H6.89504V22H17.105V20ZM6.89504 20L5.66055 8.88957L3.67278 9.11043L4.90728 20.2209L6.89504 20ZM5.66055 8.88957L4.99388 2.88957L3.00612 3.11043L3.67278 9.11043L5.66055 8.88957ZM19.0061 2.88957L18.3394 8.88957L20.3272 9.11043L20.9939 3.11043L19.0061 2.88957ZM18.3394 8.88957L17.105 20L19.0927 20.2209L20.3272 9.11043L18.3394 8.88957ZM4.66667 10H19.3333V8H4.66667V10ZM6.89504 20H6.89504L4.90728 20.2209C5.01982 21.2337 5.87594 22 6.89504 22V20ZM17.105 22C18.1241 22 18.9802 21.2337 19.0927 20.2209L17.105 20V22Z" fill="#28293D"/>
<path d="M12 12.5L12.6 11.7L12 11.25L11.4 11.7L12 12.5ZM13 16.1579C13 16.5471 12.6313 17 12 17V19C13.5778 19 15 17.8034 15 16.1579H13ZM12 17C11.3687 17 11 16.5471 11 16.1579H9C9 17.8034 10.4222 19 12 19V17ZM11 16.1579C11 15.389 11.3599 14.6874 11.7902 14.1326C12 13.8621 12.211 13.6468 12.3684 13.5004C12.4466 13.4278 12.51 13.3735 12.5514 13.3393C12.572 13.3222 12.587 13.3102 12.5955 13.3036C12.5997 13.3003 12.6023 13.2983 12.6031 13.2977C12.6035 13.2974 12.6034 13.2974 12.6029 13.2978C12.6027 13.298 12.6023 13.2983 12.6018 13.2986C12.6016 13.2988 12.6013 13.299 12.601 13.2993C12.6008 13.2994 12.6006 13.2996 12.6005 13.2996C12.6003 13.2998 12.6 13.3 12 12.5C11.4 11.7 11.3997 11.7002 11.3994 11.7004C11.3993 11.7005 11.399 11.7007 11.3988 11.7009C11.3984 11.7012 11.398 11.7015 11.3975 11.7019C11.3965 11.7026 11.3954 11.7035 11.3942 11.7044C11.3918 11.7062 11.3889 11.7084 11.3855 11.711C11.3787 11.7162 11.37 11.723 11.3596 11.7311C11.3387 11.7475 11.3108 11.7699 11.2767 11.7981C11.2087 11.8543 11.1159 11.9341 11.0066 12.0358C10.789 12.2381 10.5 12.5327 10.2098 12.9069C9.64007 13.6415 9 14.7689 9 16.1579H11ZM12 12.5C11.4 13.3 11.3997 13.2998 11.3995 13.2996C11.3994 13.2996 11.3992 13.2994 11.399 13.2993C11.3987 13.299 11.3984 13.2988 11.3982 13.2986C11.3977 13.2983 11.3973 13.298 11.3971 13.2978C11.3966 13.2974 11.3965 13.2974 11.3969 13.2977C11.3977 13.2983 11.4003 13.3003 11.4045 13.3036C11.413 13.3102 11.428 13.3222 11.4486 13.3393C11.49 13.3735 11.5534 13.4278 11.6316 13.5004C11.789 13.6468 12 13.8621 12.2098 14.1326C12.6401 14.6874 13 15.389 13 16.1579H15C15 14.7689 14.3599 13.6415 13.7902 12.9069C13.5 12.5327 13.211 12.2381 12.9934 12.0358C12.8841 11.9341 12.7913 11.8543 12.7233 11.7981C12.6892 11.7699 12.6613 11.7475 12.6404 11.7311C12.63 11.723 12.6213 11.7162 12.6145 11.711C12.6111 11.7084 12.6082 11.7062 12.6058 11.7044C12.6046 11.7035 12.6035 11.7026 12.6025 11.7019C12.602 11.7015 12.6016 11.7012 12.6012 11.7009C12.601 11.7007 12.6007 11.7005 12.6006 11.7004C12.6003 11.7002 12.6 11.7 12 12.5Z" fill="#28293D"/>
</svg>
