<svg width="24" height="24" viewBox="0 0 24 24" fill="none" xmlns="http://www.w3.org/2000/svg">
<path d="M8.2531 4.007L8.19774 5.00546L8.2531 4.007ZM3 10V9H2V10H3ZM21 10H22V9H21V10ZM4.74394 8.5C4.74394 6.49228 6.13888 5 8 5V3C4.89056 3 2.74394 5.53716 2.74394 8.5H4.74394ZM12.5 9.5C12.5 8.78362 12.7142 8.12029 13.0817 7.56683L11.4157 6.46034C10.8371 7.33157 10.5 8.37794 10.5 9.5H12.5ZM13.0817 7.56683C13.7103 6.62038 14.7829 6 16 6V4C14.085 4 12.3991 4.97957 11.4157 6.46034L13.0817 7.56683ZM4.94284 9.66675C4.81432 9.30313 4.74394 8.91086 4.74394 8.5H2.74394C2.74394 9.14104 2.85403 9.75853 3.05716 10.3332L4.94284 9.66675ZM4 11H9.17133V9H4V11ZM12.5214 9.89012C12.5073 9.76237 12.5 9.63223 12.5 9.5H10.5C10.5 9.70578 10.5113 9.90929 10.5335 10.1099L12.5214 9.89012ZM9.17133 11H11.5275V9H9.17133V11ZM11.5275 11H14.8287V9H11.5275V11ZM19.0275 9.5C19.0275 9.63223 19.0202 9.76237 19.0061 9.89012L20.9939 10.1099C21.0161 9.90929 21.0275 9.70578 21.0275 9.5H19.0275ZM14.8287 11H20V9H14.8287V11ZM16 6C16.0647 6 16.1288 6.00174 16.1924 6.00517L16.3001 4.00808C16.2007 4.00271 16.1006 4 16 4V6ZM16.1924 6.00517C17.8902 6.09674 19.0275 7.47333 19.0275 9.5H21.0275C21.0275 6.72137 19.3439 4.17224 16.3001 4.00808L16.1924 6.00517ZM12 3C13.5243 3 14.8234 3.97498 15.3029 5.33839L17.1896 4.67486C16.4374 2.53578 14.3993 1 12 1V3ZM8 5C8.06646 5 8.13239 5.00184 8.19774 5.00546L8.30846 3.00853C8.20626 3.00287 8.10341 3 8 3V5ZM8.19774 5.00546C9.63694 5.08526 10.8476 6.03685 11.3048 7.34379L13.1926 6.68338C12.4751 4.63231 10.5768 3.13429 8.30846 3.00853L8.19774 5.00546ZM9.08514 4.56171C9.7142 3.61814 10.7851 3 12 3V1C10.0884 1 8.40524 1.97604 7.42105 3.45229L9.08514 4.56171ZM4 9H3V11H4V9ZM2 10C2 11.6384 2.38116 13.6808 3.92335 15.312C5.4752 16.9534 8.03258 18 12 18V16C8.36742 16 6.4248 15.0466 5.37665 13.938C4.31884 12.8192 4 11.3616 4 10H2ZM12 18C15.9674 18 18.5248 16.9534 20.0766 15.312C21.6188 13.6808 22 11.6384 22 10H20C20 11.3616 19.6812 12.8192 18.6234 13.938C17.5752 15.0466 15.6326 16 12 16V18ZM21 9H20V11H21V9ZM11 17V22H13V17H11ZM12 21H6V23H12V21ZM12 23H18V21H12V23Z" fill="#28293D"/>
</svg>
