<svg width="24" height="24" viewBox="0 0 24 24" fill="none" xmlns="http://www.w3.org/2000/svg">
<path d="M14.7647 5.49416L14.0586 4.78604V4.78604L14.7647 5.49416ZM21.9999 5.49416L22.706 6.20229L23.4162 5.49416L22.706 4.78604L21.9999 5.49416ZM8.04618 12.1933L7.3401 11.4852L6.62972 12.1935L7.3403 12.9016L8.04618 12.1933ZM9.35741 13.5L10.0636 12.792L10.0633 12.7917L9.35741 13.5ZM5.73977 17.1072L5.03368 16.3991L5.73977 17.1072ZM4.25557 17.8402L4.10731 18.8291L4.25557 17.8402ZM2.71882 18.0582L3.42491 18.7663L3.42491 18.7663L2.71882 18.0582ZM2.04224 18.7328L2.73298 19.4559L2.74074 19.4485L2.74833 19.441L2.04224 18.7328ZM1.99993 20.5L2.54643 19.6625L2.54643 19.6625L1.99993 20.5ZM8.04618 19.4077L7.3401 18.6996L8.04618 19.4077ZM15.4707 6.20229C17.0784 4.59924 19.6862 4.59924 21.2939 6.20229L22.706 4.78604C20.3178 2.40465 16.4468 2.40465 14.0586 4.78604L15.4707 6.20229ZM14.0586 4.78604L7.3401 11.4852L8.75227 12.9014L15.4707 6.20229L14.0586 4.78604ZM12.3699 16.5086L22.706 6.20229L21.2939 4.78604L10.9577 15.0924L12.3699 16.5086ZM7.3403 12.9016L8.65152 14.2083L10.0633 12.7917L8.75207 11.485L7.3403 12.9016ZM8.65121 14.208L10.9576 16.5085L12.37 15.0925L10.0636 12.792L8.65121 14.208ZM8.65132 12.7919L5.03368 16.3991L6.44586 17.8153L10.0635 14.2081L8.65132 12.7919ZM5.03368 16.3991C4.8724 16.5599 4.73845 16.6885 4.59641 16.7773C4.46312 16.8607 4.41119 16.8523 4.40382 16.8512L4.10731 18.8291C4.75116 18.9257 5.28781 18.7039 5.65705 18.4729C6.01756 18.2474 6.3001 17.9607 6.44586 17.8153L5.03368 16.3991ZM2.01274 17.3501L1.33616 18.0247L2.74833 19.441L3.42491 18.7663L2.01274 17.3501ZM1.45343 21.3375C3.26831 22.5218 6.28303 22.578 8.75227 20.1159L7.3401 18.6996C5.51725 20.5172 3.54343 20.3132 2.54643 19.6625L1.45343 21.3375ZM8.75227 20.1159C10.2938 18.5788 10.9541 17.963 11.3487 17.5908C11.774 17.1896 11.9287 17.0339 12.4263 16.4475L10.9014 15.1535C10.4515 15.6836 10.3477 15.7856 9.97636 16.1359C9.57422 16.5152 8.89943 17.1448 7.3401 18.6996L8.75227 20.1159ZM1.3515 18.0097C0.221177 19.0895 0.411471 20.6575 1.45343 21.3375L2.54643 19.6625C2.59459 19.694 2.58494 19.7136 2.5836 19.6931C2.5833 19.6884 2.58269 19.6703 2.59669 19.6367C2.61084 19.6028 2.64602 19.539 2.73298 19.4559L1.3515 18.0097ZM4.40382 16.8512C4.15056 16.8133 3.7592 16.753 3.36785 16.7773C2.95945 16.8027 2.4385 16.9255 2.01274 17.3501L3.42491 18.7663C3.38316 18.808 3.36206 18.7815 3.49177 18.7735C3.63853 18.7644 3.82352 18.7866 4.10731 18.8291L4.40382 16.8512Z" fill="#28293D"/>
</svg>
