<svg width="24" height="24" viewBox="0 0 24 24" fill="none" xmlns="http://www.w3.org/2000/svg">
<path d="M5 19L4.29289 18.2929H4.29289L5 19ZM12.8933 8.44177L11.9012 8.56755L12.8933 8.44177ZM12 12L12.7071 12.7071L12 12ZM15.5636 11.1074L15.4392 12.0997L15.5636 11.1074ZM3.79454 21.8451L2.8814 21.4375L3.79454 21.8451ZM2.2188 20.2948L2.61239 21.2141L2.2188 20.2948ZM20.4058 3.59421C20.8722 4.06064 21.0979 4.79891 20.9556 5.72352C20.8135 6.6474 20.3062 7.68127 19.4237 8.56374L20.8379 9.97796C21.9895 8.8264 22.719 7.41421 22.9324 6.02763C23.1456 4.64178 22.8452 3.20519 21.82 2.17999L20.4058 3.59421ZM15.4363 4.57632C16.3188 3.69385 17.3526 3.18655 18.2765 3.04441C19.2011 2.90217 19.9394 3.12778 20.4058 3.59421L21.82 2.17999C20.7948 1.1548 19.3583 0.854462 17.9724 1.06767C16.5858 1.28099 15.1736 2.01055 14.0221 3.16211L15.4363 4.57632ZM2.61239 21.2141C2.80945 21.1297 3.04268 21.0399 3.31623 20.9487L2.68377 19.0513C2.35983 19.1593 2.07489 19.2686 1.82521 19.3755L2.61239 21.2141ZM3.31623 20.9487C4.12966 20.6776 4.69691 20.3981 5.077 20.17C5.26695 20.056 5.4096 19.9553 5.51238 19.8753C5.56374 19.8354 5.60503 19.8007 5.63721 19.7723C5.65329 19.7581 5.66708 19.7455 5.67869 19.7346C5.6845 19.7292 5.68976 19.7241 5.69449 19.7195C5.69686 19.7173 5.69909 19.7151 5.70119 19.713C5.70224 19.712 5.70326 19.711 5.70425 19.71C5.70474 19.7095 5.70522 19.709 5.7057 19.7085C5.70594 19.7083 5.70629 19.7079 5.70641 19.7078C5.70676 19.7075 5.70711 19.7071 5 19C4.29289 18.2929 4.29324 18.2926 4.29358 18.2922C4.29369 18.2921 4.29403 18.2918 4.29425 18.2916C4.2947 18.2911 4.29514 18.2907 4.29557 18.2903C4.29643 18.2894 4.29727 18.2886 4.29807 18.2878C4.29968 18.2862 4.30117 18.2847 4.30255 18.2834C4.30529 18.2807 4.30756 18.2786 4.30934 18.2769C4.3129 18.2736 4.31448 18.2722 4.31396 18.2726C4.31293 18.2736 4.30345 18.2819 4.2845 18.2966C4.24665 18.3261 4.17055 18.3815 4.048 18.455C3.80309 18.602 3.37034 18.8225 2.68377 19.0513L3.31623 20.9487ZM4.70769 22.2528C4.8328 21.9725 4.95289 21.6493 5.06026 21.2775L3.13882 20.7225C3.05603 21.0091 2.96727 21.2451 2.8814 21.4375L4.70769 22.2528ZM5.06026 21.2775C5.2659 20.5657 5.46429 20.1362 5.59276 19.9034C5.65692 19.7872 5.70359 19.7201 5.72501 19.6912C5.73574 19.6768 5.74022 19.6718 5.73751 19.6749C5.73616 19.6765 5.73302 19.6801 5.72799 19.6855C5.72547 19.6882 5.72248 19.6914 5.71901 19.695C5.71727 19.6968 5.71541 19.6987 5.71343 19.7008C5.71243 19.7018 5.71141 19.7028 5.71036 19.7039C5.70983 19.7044 5.7093 19.7049 5.70876 19.7055C5.70849 19.7058 5.70807 19.7062 5.70794 19.7063C5.70752 19.7067 5.70711 19.7071 5 19C4.29289 18.2929 4.29247 18.2933 4.29205 18.2938C4.29191 18.2939 4.29149 18.2943 4.2912 18.2946C4.29063 18.2952 4.29006 18.2958 4.28947 18.2964C4.28831 18.2975 4.28712 18.2987 4.28591 18.3C4.28349 18.3024 4.28097 18.305 4.27836 18.3077C4.27314 18.3132 4.26755 18.3191 4.2616 18.3255C4.2497 18.3383 4.23638 18.3532 4.22175 18.3702C4.19247 18.4042 4.15801 18.4467 4.11921 18.499C4.04158 18.6035 3.94687 18.7465 3.84175 18.937C3.63164 19.3177 3.37981 19.8882 3.13882 20.7225L5.06026 21.2775ZM14.4542 9.54586C14.1463 9.23794 13.9497 8.82339 13.8853 8.31598L11.9012 8.56755C12.0139 9.4559 12.3788 10.2989 13.04 10.9601L14.4542 9.54586ZM13.8853 8.31598C13.7483 7.23498 14.2328 5.77984 15.4363 4.57632L14.0221 3.16211C12.4791 4.70512 11.6705 6.74777 11.9012 8.56755L13.8853 8.31598ZM13.04 9.54586L11.2929 11.2929L12.7071 12.7071L14.4542 10.9601L13.04 9.54586ZM11.2929 11.2929L4.29289 18.2929L5.70711 19.7071L12.7071 12.7071L11.2929 11.2929ZM11.9139 8.64382C11.9669 8.90053 12.0079 9.39741 11.9212 9.93233C11.8348 10.4657 11.6365 10.9493 11.2929 11.2929L12.7071 12.7071C13.4427 11.9716 13.7671 11.0442 13.8954 10.2523C14.0235 9.46205 13.9716 8.71942 13.8727 8.23972L11.9139 8.64382ZM19.4237 8.56374C18.2217 9.76571 16.7686 10.2506 15.688 10.1152L15.4392 12.0997C17.2573 12.3275 19.2967 11.5192 20.8379 9.97796L19.4237 8.56374ZM15.688 10.1152C15.1787 10.0514 14.7628 9.85453 14.4542 9.54586L13.04 10.9601C13.7029 11.623 14.5484 11.988 15.4392 12.0997L15.688 10.1152ZM15.7586 10.1266C15.2782 10.0311 14.5338 9.98215 13.7435 10.1107C12.9531 10.2392 12.0246 10.5612 11.2929 11.2929L12.7071 12.7071C13.0438 12.3704 13.5258 12.1723 14.0645 12.0847C14.6032 11.9971 15.1064 12.0361 15.3686 12.0882L15.7586 10.1266ZM4.29289 18.2929L2.79289 19.7929L4.20711 21.2071L5.70711 19.7071L4.29289 18.2929ZM2.79289 19.7929L1.29289 21.2929L2.70711 22.7071L4.20711 21.2071L2.79289 19.7929ZM1.29289 22.7071C1.74993 23.1642 2.38086 23.4534 3.04185 23.4186C3.74802 23.3813 4.38635 22.9726 4.70769 22.2528L2.8814 21.4375C2.86717 21.4694 2.86434 21.4584 2.89046 21.4405C2.90135 21.4331 2.9126 21.4278 2.92234 21.4246C2.93177 21.4216 2.93702 21.4213 2.93655 21.4213C2.93471 21.4214 2.90953 21.4219 2.86444 21.403C2.82007 21.3843 2.76409 21.3499 2.70711 21.2929L1.29289 22.7071ZM2.70711 21.2929C2.6194 21.2052 2.62906 21.1461 2.62741 21.1616C2.62642 21.1708 2.62126 21.1901 2.60705 21.2093C2.59206 21.2294 2.58468 21.226 2.61239 21.2141L1.82521 19.3755C1.13674 19.6703 0.711382 20.2675 0.638675 20.9496C0.569052 21.6028 0.828319 22.2426 1.29289 22.7071L2.70711 21.2929Z" fill="#28293D"/>
</svg>
