<svg width="24" height="24" viewBox="0 0 24 24" fill="none" xmlns="http://www.w3.org/2000/svg">
<path d="M19.5152 14.7353C18.0046 18.8859 13.4153 21.0259 9.26476 19.5152L8.58071 21.3946C13.7692 23.2831 19.5062 20.6079 21.3946 15.4194L19.5152 14.7353ZM9.26476 19.5152C5.11424 18.0046 2.97421 13.4152 4.48488 9.26467L2.60549 8.58063C0.717042 13.7691 3.39224 19.5061 8.58071 21.3946L9.26476 19.5152ZM4.48488 9.26467C5.99555 5.11412 10.5848 2.97409 14.7354 4.48476L15.4194 2.60538C10.2309 0.716911 4.49394 3.39213 2.60549 8.58063L4.48488 9.26467ZM14.7354 4.48476C18.8859 5.99543 21.0259 10.5848 19.5152 14.7353L21.3946 15.4194C23.2831 10.2309 20.6079 4.49384 15.4194 2.60538L14.7354 4.48476ZM19.5151 9.26468C21.0258 13.4152 18.8858 18.0046 14.7352 19.5152L15.4193 21.3946C20.6078 19.5062 23.283 13.7691 21.3945 8.58064L19.5151 9.26468ZM14.7352 19.5152C10.5847 21.0259 5.99543 18.8859 4.48476 14.7353L2.60537 15.4194C4.49382 20.6079 10.2308 23.2831 15.4193 21.3946L14.7352 19.5152ZM4.48476 14.7353C2.97409 10.5848 5.11412 5.99544 9.26464 4.48477L8.58059 2.60539C3.39211 4.49385 0.716923 10.2309 2.60537 15.4194L4.48476 14.7353ZM9.26464 4.48477C13.4152 2.9741 18.0045 5.11413 19.5151 9.26468L21.3945 8.58064C19.5061 3.39214 13.7691 0.716921 8.58059 2.60539L9.26464 4.48477Z" fill="#28293D"/>
<path d="M14.3725 3.28853L8.21782 20.1984L9.62736 20.7114L15.782 3.80156L14.3725 3.28853ZM3.28853 9.6274L20.1983 15.7821L20.7113 14.3725L3.80156 8.21786L3.28853 9.6274ZM8.2177 3.80157L14.3724 20.7114L15.7819 20.1984L9.62724 3.28854L8.2177 3.80157ZM3.80144 15.7821L20.7112 9.62741L20.1982 8.21787L3.28841 14.3726L3.80144 15.7821Z" fill="#28293D"/>
</svg>
