<svg width="24" height="24" viewBox="0 0 24 24" fill="none" xmlns="http://www.w3.org/2000/svg">
<mask id="path-1-inside-1_402_15056" fill="white">
<path d="M11.5 5.75C11.5 7.26878 10.2688 8.5 8.75 8.5C7.23122 8.5 6 7.26878 6 5.75C6 4.23122 7.23122 3 8.75 3C10.2688 3 11.5 4.23122 11.5 5.75Z"/>
<path d="M12.5 5.75C12.5 7.26878 13.7312 8.5 15.25 8.5C16.7688 8.5 18 7.26878 18 5.75C18 4.23122 16.7688 3 15.25 3C13.7312 3 12.5 4.23122 12.5 5.75Z"/>
<path d="M7.5 10.75C7.5 12.2688 6.26878 13.5 4.75 13.5C3.23122 13.5 2 12.2688 2 10.75C2 9.23122 3.23122 8 4.75 8C6.26878 8 7.5 9.23122 7.5 10.75Z"/>
<path d="M16.5 10.75C16.5 12.2688 17.7312 13.5 19.25 13.5C20.7688 13.5 22 12.2688 22 10.75C22 9.23122 20.7688 8 19.25 8C17.7312 8 16.5 9.23122 16.5 10.75Z"/>
<path d="M8.5 21C6.567 21 5 19.433 5 17.5C5 16.6679 5.29036 15.9037 5.77528 15.303L9.76389 11C10.3132 10.3863 11.1115 10 12 10C12.8885 10 13.6868 10.3863 14.2361 11L18.2247 15.303C18.7096 15.9037 19 16.6679 19 17.5C19 19.433 17.433 21 15.5 21C14.8478 21 14.2373 20.8216 13.7146 20.511C13.6468 20.4707 13.5806 20.4283 13.5159 20.3837C13.071 20.1227 12.553 19.9731 12 19.9731C11.4615 19.9731 10.9192 20.1322 10.4841 20.3837C9.92024 20.7724 9.2367 21 8.5 21Z"/>
</mask>
<path d="M13.7146 20.511L13.1424 21.3311L13.1424 21.3311L13.7146 20.511ZM13.0098 21.2462C13.0552 21.2728 13.0994 21.3011 13.1424 21.3311L14.2867 19.6909C14.2009 19.631 14.1125 19.5743 14.0219 19.5211L13.0098 21.2462ZM13.1424 21.3311C13.2701 21.4202 13.3872 21.524 13.491 21.64L14.9812 20.3062C14.7747 20.0754 14.5416 19.8687 14.2867 19.6909L13.1424 21.3311ZM9.76389 11L11.2307 12.3596L11.2425 12.3468L11.2542 12.3338L9.76389 11ZM5.77528 15.303L4.30849 13.9434L4.26204 13.9935L4.21912 14.0467L5.77528 15.303ZM14.2361 11L12.7458 12.3338L12.7575 12.3468L12.7693 12.3596L14.2361 11ZM18.2247 15.303L19.7809 14.0467L19.738 13.9935L19.6915 13.9434L18.2247 15.303ZM13.5159 20.3837L14.651 18.737L14.5909 18.6956L14.5279 18.6586L13.5159 20.3837ZM13.7146 20.511L14.7363 18.7917L14.7363 18.7916L13.7146 20.511ZM10.4841 20.3837L9.48352 18.652L9.41456 18.6918L9.34898 18.737L10.4841 20.3837ZM9.5 5.75C9.5 6.16421 9.16421 6.5 8.75 6.5V10.5C11.3734 10.5 13.5 8.37335 13.5 5.75H9.5ZM8.75 6.5C8.33579 6.5 8 6.16421 8 5.75H4C4 8.37335 6.12665 10.5 8.75 10.5V6.5ZM8 5.75C8 5.33579 8.33579 5 8.75 5V1C6.12665 1 4 3.12665 4 5.75H8ZM8.75 5C9.16421 5 9.5 5.33579 9.5 5.75H13.5C13.5 3.12665 11.3734 1 8.75 1V5ZM10.5 5.75C10.5 8.37335 12.6266 10.5 15.25 10.5V6.5C14.8358 6.5 14.5 6.16421 14.5 5.75H10.5ZM15.25 10.5C17.8734 10.5 20 8.37335 20 5.75H16C16 6.16421 15.6642 6.5 15.25 6.5V10.5ZM20 5.75C20 3.12665 17.8734 1 15.25 1V5C15.6642 5 16 5.33579 16 5.75H20ZM15.25 1C12.6266 1 10.5 3.12665 10.5 5.75H14.5C14.5 5.33579 14.8358 5 15.25 5V1ZM5.5 10.75C5.5 11.1642 5.16421 11.5 4.75 11.5V15.5C7.37335 15.5 9.5 13.3734 9.5 10.75H5.5ZM4.75 11.5C4.33579 11.5 4 11.1642 4 10.75H0C0 13.3734 2.12665 15.5 4.75 15.5V11.5ZM4 10.75C4 10.3358 4.33579 10 4.75 10V6C2.12665 6 0 8.12665 0 10.75H4ZM4.75 10C5.16421 10 5.5 10.3358 5.5 10.75H9.5C9.5 8.12665 7.37335 6 4.75 6V10ZM14.5 10.75C14.5 13.3734 16.6266 15.5 19.25 15.5V11.5C18.8358 11.5 18.5 11.1642 18.5 10.75H14.5ZM19.25 15.5C21.8734 15.5 24 13.3734 24 10.75H20C20 11.1642 19.6642 11.5 19.25 11.5V15.5ZM24 10.75C24 8.12665 21.8734 6 19.25 6V10C19.6642 10 20 10.3358 20 10.75H24ZM19.25 6C16.6266 6 14.5 8.12665 14.5 10.75H18.5C18.5 10.3358 18.8358 10 19.25 10V6ZM8.5 19C7.67157 19 7 18.3284 7 17.5H3C3 20.5376 5.46243 23 8.5 23V19ZM17 17.5C17 18.3284 16.3284 19 15.5 19V23C18.5376 23 21 20.5376 21 17.5H17ZM11.2542 12.3338C11.4401 12.126 11.704 12 12 12V8C10.519 8 9.1863 8.64645 8.27362 9.66617L11.2542 12.3338ZM7 17.5C7 17.1415 7.12326 16.8172 7.33144 16.5594L4.21912 14.0467C3.45746 14.9901 3 16.1944 3 17.5H7ZM12 12C12.296 12 12.5599 12.126 12.7458 12.3338L15.7264 9.66617C14.8137 8.64645 13.481 8 12 8V12ZM16.6686 16.5594C16.8767 16.8172 17 17.1415 17 17.5H21C21 16.1944 20.5425 14.9901 19.7809 14.0467L16.6686 16.5594ZM12.7693 12.3596L16.7579 16.6626L19.6915 13.9434L15.7029 9.64039L12.7693 12.3596ZM12 21.9731C12.1876 21.9731 12.3575 22.0229 12.5038 22.1087L14.5279 18.6586C13.7846 18.2225 12.9184 17.9731 12 17.9731V21.9731ZM15.5 19C15.2172 19 14.9584 18.9237 14.7363 18.7917L12.6928 22.2303C13.5162 22.7196 14.4784 23 15.5 23V19ZM14.7363 18.7916C14.7073 18.7744 14.6788 18.7562 14.651 18.737L12.3807 22.0303C12.4823 22.1003 12.5864 22.167 12.6928 22.2303L14.7363 18.7916ZM9.34898 18.737C9.10821 18.903 8.81844 19 8.5 19V23C9.65496 23 10.7323 22.6418 11.6193 22.0303L9.34898 18.737ZM11.4847 22.1154C11.6353 22.0283 11.8348 21.9731 12 21.9731V17.9731C11.0881 17.9731 10.2032 18.2361 9.48352 18.652L11.4847 22.1154ZM8.29711 9.64039L4.30849 13.9434L7.24206 16.6626L11.2307 12.3596L8.29711 9.64039Z" fill="#28293D" mask="url(#path-1-inside-1_402_15056)"/>
</svg>
