<svg width="24" height="24" viewBox="0 0 24 24" fill="none" xmlns="http://www.w3.org/2000/svg">
<path d="M17.848 12.652L18.8226 12.4283L17.848 12.652ZM17.9286 17.9286L16.9404 17.7751L17.9286 17.9286ZM15.4262 21.9262L14.8545 21.1057L15.4262 21.9262ZM6.07142 17.9286L5.08327 18.0821L6.07142 17.9286ZM19 5L19.7071 5.70711L20.6882 4.72605L19.4472 4.10557L19 5ZM5 5L4.55279 4.10557L3.31184 4.72605L4.29289 5.70711L5 5ZM12 2L12.5547 1.16795L12 0.79815L11.4453 1.16795L12 2ZM14 4.27623L14.3454 5.2147L14 4.27623ZM15.25 15.25L14.5429 14.5429L15.25 15.25ZM12 12L11.2929 11.2929L12 12ZM8.75 15.25L8.04289 14.5429L8.75 15.25ZM17 14V17H19V14H17ZM7 17V14H5V17H7ZM12 9C12.9552 9 13.845 9.26687 14.6024 9.7296L15.6451 8.02293C14.5827 7.37383 13.3335 7 12 7V9ZM14.6024 9.7296C15.7345 10.4213 16.5688 11.5494 16.8733 12.8758L18.8226 12.4283C18.3949 10.5651 17.2258 8.98867 15.6451 8.02293L14.6024 9.7296ZM16.8733 12.8758C16.9561 13.2362 17 13.6123 17 14H19C19 13.4607 18.9388 12.9345 18.8226 12.4283L16.8733 12.8758ZM17 17C17 17.2642 16.9796 17.523 16.9404 17.7751L18.9167 18.0821C18.9716 17.7288 19 17.3674 19 17H17ZM16.9404 17.7751C16.727 19.149 15.9524 20.3407 14.8545 21.1057L15.9979 22.7467C17.5298 21.6792 18.6168 20.0125 18.9167 18.0821L16.9404 17.7751ZM14.8545 21.1057C14.0454 21.6695 13.0628 22 12 22V24C13.4847 24 14.8642 23.5366 15.9979 22.7467L14.8545 21.1057ZM12 22C10.9372 22 9.9546 21.6695 9.1455 21.1057L8.00209 22.7467C9.13581 23.5366 10.5153 24 12 24V22ZM9.1455 21.1057C8.0476 20.3407 7.27303 19.149 7.05957 17.7751L5.08327 18.0821C5.38319 20.0125 6.4702 21.6792 8.00209 22.7467L9.1455 21.1057ZM7.05957 17.7751C7.02041 17.523 7 17.2642 7 17H5C5 17.3674 5.02839 17.7288 5.08327 18.0821L7.05957 17.7751ZM5.17737 12.4283C5.06117 12.9345 5 13.4607 5 14H7C7 13.6123 7.04393 13.2362 7.12667 12.8758L5.17737 12.4283ZM12 7C10.6665 7 9.41732 7.37383 8.35491 8.02293L9.39762 9.7296C10.155 9.26687 11.0448 9 12 9V7ZM8.35491 8.02293C6.77422 8.98867 5.6051 10.5651 5.17737 12.4283L7.12667 12.8758C7.43116 11.5494 8.26547 10.4213 9.39762 9.7296L8.35491 8.02293ZM15.8308 9.58337L19.7071 5.70711L18.2929 4.29289L14.4166 8.16916L15.8308 9.58337ZM9.58337 8.16916L5.70711 4.29289L4.29289 5.70711L8.16916 9.58337L9.58337 8.16916ZM5.44721 5.89443C6.04911 5.59348 6.82327 5.30382 7.60634 5.15515C8.40183 5.00413 9.11428 5.01585 9.65464 5.2147L10.3454 3.33776C9.33271 2.96511 8.21476 3.00392 7.2333 3.19025C6.23942 3.37894 5.29008 3.73693 4.55279 4.10557L5.44721 5.89443ZM9.65464 5.2147C10.0326 5.35381 10.3424 5.5884 10.5719 5.97594C10.8107 6.37928 11 7.01334 11 8H13C13 6.77113 12.7657 5.75544 12.2928 4.95684C11.8105 4.14244 11.1202 3.62291 10.3454 3.33776L9.65464 5.2147ZM10.9311 4.64101C11.0275 4.39492 11.5349 3.51194 12.5547 2.83205L11.4453 1.16795C10.0651 2.08806 9.30582 3.30673 9.06891 3.91145L10.9311 4.64101ZM19.4472 4.10557C18.7099 3.73693 17.7606 3.37894 16.7667 3.19025C15.7852 3.00392 14.6673 2.96511 13.6546 3.33776L14.3454 5.2147C14.8857 5.01585 15.5982 5.00413 16.3937 5.15515C17.1767 5.30382 17.9509 5.59348 18.5528 5.89443L19.4472 4.10557ZM13.6546 3.33776C12.8798 3.62291 12.1895 4.14244 11.7072 4.95684C11.2343 5.75544 11 6.77113 11 8H13C13 7.01334 13.1893 6.37928 13.4281 5.97594C13.6576 5.5884 13.9674 5.35381 14.3454 5.2147L13.6546 3.33776ZM14.9311 3.91145C14.6942 3.30673 13.9349 2.08806 12.5547 1.16795L11.4453 2.83205C12.4651 3.51194 12.9725 4.39492 13.0689 4.64102L14.9311 3.91145ZM17.1409 11.9449L14.5429 14.5429L15.9571 15.9571L18.5551 13.3591L17.1409 11.9449ZM14.4166 8.16916L11.2929 11.2929L12.7071 12.7071L15.8308 9.58337L14.4166 8.16916ZM11.2929 12.7071L12.9179 14.3321L14.3321 12.9179L12.7071 11.2929L11.2929 12.7071ZM11.2929 11.2929L8.04289 14.5429L9.45711 15.9571L12.7071 12.7071L11.2929 11.2929ZM8.04289 14.5429L5.36431 17.2215L6.77853 18.6357L9.45711 15.9571L8.04289 14.5429ZM14.5429 14.5429L11.2929 17.7929L12.7071 19.2071L15.9571 15.9571L14.5429 14.5429ZM11.2929 17.7929L7.86669 21.2191L9.2809 22.6333L12.7071 19.2071L11.2929 17.7929ZM8.04289 15.9571L9.66789 17.5821L11.0821 16.1679L9.45711 14.5429L8.04289 15.9571ZM8.16916 9.58337L9.73103 11.1452L11.1452 9.73103L9.58337 8.16916L8.16916 9.58337ZM5.44491 13.3591L6.47895 14.3932L7.89316 12.9789L6.85913 11.9449L5.44491 13.3591ZM11.2929 19.2071L13.006 20.9202L14.4202 19.506L12.7071 17.7929L11.2929 19.2071ZM14.5429 15.9571L16.2929 17.7071L17.7071 16.2929L15.9571 14.5429L14.5429 15.9571Z" fill="#28293D"/>
</svg>
