<svg width="24" height="24" viewBox="0 0 24 24" fill="none" xmlns="http://www.w3.org/2000/svg">
<path d="M20 3H21V2H20V3ZM17 13H16V14H17V13ZM3 2V10H5V2H3ZM4 11H8V9H4V11ZM8 11H12V9H8V11ZM13 10V2H11V10H13ZM7 2V10H9V2H7ZM3 10C3 10.8891 3.46818 11.6971 4.3605 12.2325C5.20545 12.7395 6.4127 13 8 13V11C6.5873 11 5.79455 10.7605 5.3895 10.5175C5.03182 10.3029 5 10.1109 5 10H3ZM8 13C9.5873 13 10.7946 12.7395 11.6395 12.2325C12.5318 11.6971 13 10.8891 13 10H11C11 10.1109 10.9682 10.3029 10.6105 10.5175C10.2054 10.7605 9.4127 11 8 11V13ZM7 12V22H9V12H7ZM21 22V13H19V22H21ZM21 13V3H19V13H21ZM18 13V6H16V13H18ZM20 12H18.5V14H20V12ZM18.5 12H17V14H18.5V12ZM18 6C18 5.84818 18.0647 5.53042 18.2583 5.16578C18.4456 4.81284 18.7142 4.4916 19.0429 4.27914L17.9571 2.59954C17.2858 3.03353 16.8044 3.63907 16.4917 4.22806C16.1853 4.80537 16 5.44472 16 6H18ZM19.0429 4.27914C19.3066 4.10865 19.6198 4 20 4V2C19.2086 2 18.5218 2.2345 17.9571 2.59954L19.0429 4.27914ZM19.5 13V3.43934H17.5V13H19.5Z" fill="#28293D"/>
</svg>
