<svg width="24" height="24" viewBox="0 0 24 24" fill="none" xmlns="http://www.w3.org/2000/svg">
<path d="M19.9381 14V15H21.0705L20.9304 13.8763L19.9381 14ZM4.06189 14L3.06957 13.8763L2.92945 15H4.06189V14ZM12 6V8C13.1046 8 14 7.10457 14 6H12ZM12 6H10C10 7.10457 10.8954 8 12 8V6ZM12 6V4C10.8954 4 10 4.89543 10 6H12ZM12 6H14C14 4.89543 13.1046 4 12 4V6ZM12 8C15.5689 8 18.5153 10.6717 18.9458 14.1237L20.9304 13.8763C20.3767 9.43564 16.5903 6 12 6V8ZM5.0542 14.1237C5.48466 10.6717 8.43109 8 12 8V6C7.40967 6 3.62331 9.43564 3.06957 13.8763L5.0542 14.1237ZM19.9381 13H4.06189V15H19.9381V13ZM2 19H22V17H2V19Z" fill="#28293D"/>
</svg>
