<svg width="24" height="24" viewBox="0 0 24 24" fill="none" xmlns="http://www.w3.org/2000/svg">
<path d="M6 9H5V9.0384L5.00295 9.0767L6 9ZM6.38462 14L5.38756 14.0767L6.38462 14ZM6.92898 21.0767L5.93192 21.1534L6.92898 21.0767ZM17.071 21.0767L18.0681 21.1534L17.071 21.0767ZM16.074 21H7.92603V23H16.074V21ZM7 9C7 6.23858 9.23858 4 12 4V2C8.13401 2 5 5.13401 5 9H7ZM12 4C14.7614 4 17 6.23858 17 9H19C19 5.13401 15.866 2 12 2V4ZM6 10H12V8H6V10ZM12 10H18V8H12V10ZM11 0V9H13V0H11ZM7.07398 9.9233L6.99705 8.9233L5.00295 9.0767L5.07987 10.0767L7.07398 9.9233ZM6 11H6.07692V9H6V11ZM17.0029 8.9233L16.926 9.9233L18.9201 10.0767L18.9971 9.0767L17.0029 8.9233ZM18 9H17.9231V11H18V9ZM17.9231 9H6.07692V11H17.9231V9ZM16.926 9.9233L16.6183 13.9233L18.6124 14.0767L18.9201 10.0767L16.926 9.9233ZM16.6183 13.9233L16.074 21L18.0681 21.1534L18.6124 14.0767L16.6183 13.9233ZM7.92603 21L7.38167 13.9233L5.38756 14.0767L5.93192 21.1534L7.92603 21ZM7.38167 13.9233L7.07398 9.9233L5.07987 10.0767L5.38756 14.0767L7.38167 13.9233ZM17.6154 13H12V15H17.6154V13ZM12 13H6.38462V15H12V13ZM11 9L11 14H13L13 9H11ZM17.5 9.5C17.5 9.22386 17.7239 9 18 9V11C18.8284 11 19.5 10.3284 19.5 9.5H17.5ZM18 10C17.7239 10 17.5 9.77614 17.5 9.5H19.5C19.5 8.67157 18.8284 8 18 8V10ZM4.5 9.5C4.5 10.3284 5.17157 11 6 11V9C6.27614 9 6.5 9.22386 6.5 9.5H4.5ZM7.92603 21H7.92603L5.93192 21.1534C6.01208 22.1954 6.88096 23 7.92603 23V21ZM6 8C5.17157 8 4.5 8.67157 4.5 9.5H6.5C6.5 9.77614 6.27614 10 6 10V8ZM16.074 23C17.119 23 17.9879 22.1954 18.0681 21.1534L16.074 21V23Z" fill="#28293D"/>
</svg>
