<svg width="24" height="24" viewBox="0 0 24 24" fill="none" xmlns="http://www.w3.org/2000/svg">
<path d="M6.50024 5.99991V4.99991H5.50024V5.99991H6.50024ZM8.50024 21.9999H7.50024V22.9999H8.50024V21.9999ZM17.5002 5.99991H18.5002V4.99991H17.5002V5.99991ZM15.5002 21.9999V22.9999H16.5002V21.9999H15.5002ZM7.50013 13L6.59488 13.4249L7.50013 13ZM16.5002 13L17.4055 13.4249L16.5002 13ZM6.62314 10L5.63217 10.1341L6.62314 10ZM17.3772 10L18.3682 10.1341L17.3772 10ZM8.50024 22.9999H15.5002V20.9999H8.50024V22.9999ZM6.59488 13.4249C7.10341 14.5084 7.34212 15.8629 7.44238 17.3785C7.54284 18.8972 7.50024 20.4628 7.50024 21.9999H9.50024C9.50024 20.5371 9.54427 18.8528 9.43801 17.2465C9.33155 15.6371 9.0702 13.9916 8.40538 12.5751L6.59488 13.4249ZM15.5949 12.5751C14.9301 13.9916 14.6688 15.6371 14.5624 17.2465C14.4562 18.8528 14.5002 20.5371 14.5002 21.9999H16.5002C16.5002 20.4628 16.4576 18.8972 16.558 17.3785C16.6583 15.8629 16.8969 14.5084 17.4055 13.4249L15.5949 12.5751ZM6.50024 6.99991H17.5002V4.99991H6.50024V6.99991ZM5.50024 5.99991C5.50024 7.29912 5.43879 8.7047 5.63217 10.1341L7.61412 9.86593C7.44441 8.61161 7.50024 7.41693 7.50024 5.99991H5.50024ZM5.63217 10.1341C5.77462 11.187 6.05501 12.2746 6.59488 13.4249L8.40538 12.5751C7.96299 11.6325 7.73305 10.745 7.61412 9.86593L5.63217 10.1341ZM16.5002 5.99991C16.5002 7.41689 16.556 8.6116 16.3862 9.8659L18.3682 10.1341C18.5616 8.70472 18.5002 7.29919 18.5002 5.99991H16.5002ZM16.3862 9.8659C16.2673 10.745 16.0373 11.6325 15.5949 12.5751L17.4055 13.4249C17.9453 12.2746 18.2257 11.187 18.3682 10.1341L16.3862 9.8659ZM6.62314 11H12.5001V9H6.62314V11ZM12.5001 11H17.3772V9H12.5001V11ZM14.0366 0.732356L11.5366 9.73236L13.4636 10.2676L15.9636 1.26764L14.0366 0.732356Z" fill="#28293D"/>
</svg>
