<svg width="24" height="24" viewBox="0 0 24 24" fill="none" xmlns="http://www.w3.org/2000/svg">
<path d="M11 17.527L10.0059 17.4184L9.88479 18.527H11V17.527ZM13 17.527V18.527H14.1152L13.9941 17.4184L13 17.527ZM7.54006 10.9544L6.84297 10.2374L6.82656 10.2533L6.8109 10.27L7.54006 10.9544ZM12.1494 6.47301L12.8701 5.77977L12.1731 5.05519L11.4523 5.75602L12.1494 6.47301ZM16.4599 10.9544L17.1909 10.272L17.1858 10.2665L17.1806 10.2611L16.4599 10.9544ZM12 14.4638L12.7071 13.7567L12 13.0496L11.2929 13.7567L12 14.4638ZM9.60992 14.7345C8.59471 14.7345 7.77173 13.9115 7.77173 12.8963H5.77173C5.77173 15.016 7.49014 16.7345 9.60992 16.7345V14.7345ZM16.2282 12.8963C16.2282 13.9115 15.4052 14.7345 14.39 14.7345V16.7345C16.5098 16.7345 18.2282 15.016 18.2282 12.8963H16.2282ZM10.6735 14.3958C10.3735 14.6092 10.0078 14.7345 9.60992 14.7345V16.7345C10.4368 16.7345 11.2053 16.4719 11.8327 16.0256L10.6735 14.3958ZM10.259 15.1021L10.0059 17.4184L11.9941 17.6356L12.2472 15.3193L10.259 15.1021ZM11 18.527H13V16.527H11V18.527ZM7.77173 12.8963C7.77173 12.4093 7.9598 11.9684 8.26921 11.6387L6.8109 10.27C6.16734 10.9557 5.77173 11.8809 5.77173 12.8963H7.77173ZM11.4523 5.75602L6.84297 10.2374L8.23714 11.6713L12.8464 7.18999L11.4523 5.75602ZM11.4286 7.16624L15.7392 11.6476L17.1806 10.2611L12.8701 5.77977L11.4286 7.16624ZM15.7289 11.6367C16.0382 11.9681 16.2282 12.4138 16.2282 12.8963H18.2282C18.2282 11.8819 17.8283 10.9548 17.1909 10.272L15.7289 11.6367ZM5 2H19V0H5V2ZM19 2V22H21V2H19ZM19 22H5V24H19V22ZM5 22V2H3V22H5ZM5 22H3C3 23.1046 3.89543 24 5 24V22ZM19 22V24C20.1046 24 21 23.1046 21 22H19ZM19 2H21C21 0.895431 20.1046 0 19 0V2ZM5 0C3.89543 0 3 0.895431 3 2H5V2V0ZM11.9602 15.9178L12.7071 15.1709L11.2929 13.7567L10.546 14.5036L11.9602 15.9178ZM12.7469 14.2107H11.2531V16.2107H12.7469V14.2107ZM13.9941 17.4184L13.7409 15.1021L11.7528 15.3194L12.0059 17.6356L13.9941 17.4184ZM14.39 14.7345C13.9923 14.7345 13.6264 14.6091 13.3264 14.3958L12.1673 16.0257C12.7946 16.4718 13.5632 16.7345 14.39 16.7345V14.7345ZM11.2929 15.1709L12.0397 15.9178L13.454 14.5036L12.7071 13.7567L11.2929 15.1709Z" fill="#28293D"/>
</svg>
