<svg width="24" height="24" viewBox="0 0 24 24" fill="none" xmlns="http://www.w3.org/2000/svg">
<path d="M8.11205 5.975L7.25738 5.45583L8.11205 5.975ZM4.125 10.3706L3.50092 9.58927L3.47075 9.61336L3.44254 9.63971L4.125 10.3706ZM11.8359 15.325L11.1596 14.5884L11.8359 15.325ZM17.9825 12.35L18.3557 13.2778L18.3943 13.2623L18.4314 13.2436L17.9825 12.35ZM11.8359 18.725L11.1596 17.9884L11.8359 18.725ZM17.9825 15.75L18.3557 16.6778L18.3943 16.6623L18.4314 16.6436L17.9825 15.75ZM15.5 8.1C15.5 8.03371 15.5188 7.97854 15.539 7.94238C15.5577 7.90895 15.5731 7.89903 15.5677 7.90317C15.5533 7.91404 15.4885 7.95 15.375 7.95V9.95C15.8828 9.95 16.3805 9.79568 16.7733 9.49891C17.1667 9.20171 17.5 8.71687 17.5 8.1H15.5ZM15.375 7.95C15.2615 7.95 15.1967 7.91404 15.1823 7.90317C15.1769 7.89903 15.1923 7.90895 15.211 7.94238C15.2312 7.97854 15.25 8.03371 15.25 8.1H13.25C13.25 8.71687 13.5833 9.20171 13.9767 9.49891C14.3695 9.79568 14.8672 9.95 15.375 9.95V7.95ZM15.25 8.1C15.25 8.16629 15.2312 8.22146 15.211 8.25762C15.1923 8.29105 15.1769 8.30097 15.1823 8.29683C15.1967 8.28596 15.2615 8.25 15.375 8.25V6.25C14.8672 6.25 14.3695 6.40432 13.9767 6.70109C13.5833 6.99829 13.25 7.48313 13.25 8.1H15.25ZM15.375 8.25C15.4885 8.25 15.5533 8.28596 15.5677 8.29683C15.5731 8.30097 15.5577 8.29105 15.539 8.25762C15.5188 8.22146 15.5 8.16629 15.5 8.1H17.5C17.5 7.48313 17.1667 6.99829 16.7733 6.70109C16.3805 6.40432 15.8828 6.25 15.375 6.25V8.25ZM14.25 4C15.9168 4 17.3878 4.51166 18.4201 5.29162C19.4519 6.07116 20 7.07383 20 8.1H22C22 6.30952 21.0371 4.76218 19.6258 3.69589C18.2151 2.63001 16.3111 2 14.25 2V4ZM8.0625 15.6C6.86171 15.6 5.81253 15.231 5.0856 14.6818C4.35924 14.133 4 13.4491 4 12.775H2C2 14.2134 2.77404 15.442 3.87994 16.2776C4.98528 17.1127 6.46735 17.6 8.0625 17.6V15.6ZM8.96672 6.49417C9.81151 5.10347 11.7896 4 14.25 4V2C11.262 2 8.5456 3.33513 7.25738 5.45583L8.96672 6.49417ZM4 12.775C4 12.1905 4.26733 11.6059 4.80746 11.1016L3.44254 9.63971C2.57552 10.4492 2 11.5377 2 12.775H4ZM7.25738 5.45583C6.89906 6.0457 6.67313 6.46277 6.50662 6.75607C6.33967 7.05017 6.23738 7.21098 6.09746 7.37694C5.7773 7.75668 5.23316 8.20572 3.50092 9.58927L4.74908 11.152C6.39184 9.83991 7.14502 9.23723 7.62653 8.66611C7.88745 8.35663 8.06209 8.06723 8.2459 7.74345C8.43016 7.41887 8.62884 7.05039 8.96672 6.49417L7.25738 5.45583ZM11.1596 14.5884C10.507 15.1876 9.38194 15.6 8.0625 15.6V17.6C9.74175 17.6 11.3984 17.0843 12.5122 16.0616L11.1596 14.5884ZM20 8.1C20 9.3857 19.1257 10.6566 17.5336 11.4564L18.4314 13.2436C20.4769 12.216 22 10.3622 22 8.1H20ZM12.5122 16.0616C13.3429 15.2989 13.9838 14.9349 14.7935 14.6037C15.2204 14.429 15.6879 14.266 16.2795 14.0561C16.8636 13.8489 17.5437 13.6043 18.3557 13.2778L17.6094 11.4222C16.8363 11.7332 16.1871 11.9667 15.6107 12.1712C15.042 12.373 14.5182 12.5554 14.0361 12.7526C13.0279 13.1651 12.1805 13.6511 11.1596 14.5884L12.5122 16.0616ZM8.0625 19C6.86171 19 5.81253 18.631 5.0856 18.0818C4.35924 17.533 4 16.8491 4 16.175H2C2 17.6134 2.77404 18.842 3.87994 19.6776C4.98528 20.5127 6.46735 21 8.0625 21V19ZM11.1596 17.9884C10.507 18.5876 9.38194 19 8.0625 19V21C9.74175 21 11.3984 20.4843 12.5122 19.4616L11.1596 17.9884ZM20 11.5C20 12.7857 19.1257 14.0566 17.5336 14.8564L18.4314 16.6436C20.4769 15.616 22 13.7622 22 11.5H20ZM12.5122 19.4616C13.3429 18.6989 13.9838 18.3349 14.7935 18.0037C15.2204 17.829 15.6879 17.666 16.2795 17.4561C16.8636 17.2489 17.5437 17.0043 18.3557 16.6778L17.6094 14.8222C16.8363 15.1332 16.1871 15.3667 15.6107 15.5712C15.042 15.773 14.5182 15.9554 14.0361 16.1526C13.0279 16.5651 12.1805 17.0511 11.1596 17.9884L12.5122 19.4616ZM22 11.5V8.1H20V11.5H22ZM2 12.775V16.175H4V12.775H2Z" fill="#28293D"/>
</svg>
