<svg width="24" height="24" viewBox="0 0 24 24" fill="none" xmlns="http://www.w3.org/2000/svg">
<path d="M5 4V3H4V4H5ZM4 21H20V19H4V21ZM20 5V8H22V5H20ZM20 8H17V10H20V8ZM5 5H17V3H5V5ZM17 5H20V3H17V5ZM18 9V4H16V9H18ZM16 9V13H18V9H16ZM14 15H8V17H14V15ZM6 13V4H4V13H6ZM16 13C16 14.1046 15.1046 15 14 15V17C16.2091 17 18 15.2091 18 13H16ZM20 8V10C21.1046 10 22 9.10457 22 8H20ZM8 15C6.89543 15 6 14.1046 6 13H4C4 15.2091 5.79086 17 8 17V15ZM22 5C22 3.89543 21.1046 3 20 3V5H22Z" fill="#28293D"/>
<path d="M12 4V7M12 7H11V9H13V7H12Z" stroke="#28293D" stroke-width="2"/>
</svg>
