<svg width="24" height="24" viewBox="0 0 24 24" fill="none" xmlns="http://www.w3.org/2000/svg">
<path d="M7.67857 2V1H6.84591L6.69511 1.81889L7.67857 2ZM16.3214 2L17.3049 1.81889L17.1541 1H16.3214V2ZM6.94196 6L5.9585 5.81889L6.94196 6ZM17.058 6L18.0415 5.81889L17.058 6ZM17.4538 9.12891L16.4619 9.00227L17.4538 9.12891ZM16.4619 9.00227C16.1722 11.2718 14.2714 13 12 13V15C15.3185 15 18.0338 12.4829 18.4458 9.25554L16.4619 9.00227ZM12 13C9.72864 13 7.82785 11.2718 7.53812 9.00227L5.55422 9.25554C5.96622 12.4829 8.68147 15 12 15V13ZM7.67857 3H12V1H7.67857V3ZM12 3H16.3214V1H12V3ZM7.61576 7.86272L7.92543 6.18111L5.9585 5.81889L5.64883 7.50051L7.61576 7.86272ZM7.92543 6.18111L8.66203 2.18111L6.69511 1.81889L5.9585 5.81889L7.92543 6.18111ZM15.338 2.18111L16.0746 6.18111L18.0415 5.81889L17.3049 1.81889L15.338 2.18111ZM16.0746 6.18111L16.3842 7.86272L18.3512 7.50051L18.0415 5.81889L16.0746 6.18111ZM6.94196 7H17.058V5H6.94196V7ZM11 14V22H13V14H11ZM12 21H7V23H12V21ZM12 23H17V21H12V23ZM7.53812 9.00227C7.49654 8.67662 7.53302 8.31199 7.61576 7.86272L5.64883 7.50051C5.55554 8.0071 5.47271 8.61709 5.55422 9.25554L7.53812 9.00227ZM18.4458 9.25554C18.5273 8.61709 18.4445 8.0071 18.3512 7.50051L16.3842 7.86272C16.467 8.31199 16.5035 8.67662 16.4619 9.00227L18.4458 9.25554Z" fill="#28293D"/>
</svg>
