<svg width="24" height="24" viewBox="0 0 24 24" fill="none" xmlns="http://www.w3.org/2000/svg">
<path d="M10.3636 2V1.4H10.119L9.94417 1.571L10.3636 2ZM9 3.33333L8.58053 2.90433L8.1204 3.35424L8.60138 3.78178L9 3.33333ZM13.6364 2L14.0558 1.571L13.881 1.4H13.6364V2ZM15 3.33333L15.3986 3.78178L15.8796 3.35424L15.4195 2.90433L15 3.33333ZM19.4 14C19.4 18.0869 16.0869 21.4 12 21.4V22.6C16.7496 22.6 20.6 18.7496 20.6 14H19.4ZM12 21.4C7.91309 21.4 4.6 18.0869 4.6 14H3.4C3.4 18.7496 7.25035 22.6 12 22.6V21.4ZM4.6 14C4.6 9.91309 7.91309 6.6 12 6.6V5.4C7.25035 5.4 3.4 9.25035 3.4 14H4.6ZM12 6.6C16.0869 6.6 19.4 9.91309 19.4 14H20.6C20.6 9.25035 16.7496 5.4 12 5.4V6.6ZM9.94417 1.571L8.58053 2.90433L9.41947 3.76234L10.7831 2.429L9.94417 1.571ZM8.60138 3.78178L11.6014 6.44845L12.3986 5.55155L9.39862 2.88489L8.60138 3.78178ZM13.2169 2.429L14.5805 3.76234L15.4195 2.90433L14.0558 1.571L13.2169 2.429ZM14.6014 2.88489L11.6014 5.55155L12.3986 6.44845L15.3986 3.78178L14.6014 2.88489ZM13.6364 1.4H10.3636V2.6H13.6364V1.4Z" fill="#555770"/>
</svg>
