<svg width="24" height="24" viewBox="0 0 24 24" fill="none" xmlns="http://www.w3.org/2000/svg">
<path d="M6.54545 4V3.4H6.26847L6.0888 3.61081L6.54545 4ZM2 9.33333L1.54335 8.94414L1.19542 9.35238L1.56228 9.7437L2 9.33333ZM12 20L11.5623 20.4104L12 20.8773L12.4377 20.4104L12 20ZM17.4545 4L17.9112 3.61081L17.7315 3.4H17.4545V4ZM22 9.33333L22.4377 9.7437L22.8046 9.35238L22.4567 8.94414L22 9.33333ZM6.0888 3.61081L1.54335 8.94414L2.45665 9.72252L7.00211 4.38919L6.0888 3.61081ZM1.56228 9.7437L11.5623 20.4104L12.4377 19.5896L2.43772 8.92297L1.56228 9.7437ZM16.9979 4.38919L21.5433 9.72252L22.4567 8.94414L17.9112 3.61081L16.9979 4.38919ZM21.5623 8.92297L11.5623 19.5896L12.4377 20.4104L22.4377 9.7437L21.5623 8.92297ZM17.4545 3.4H12V4.6H17.4545V3.4ZM12 3.4H6.54545V4.6H12V3.4ZM2 9.93333H8V8.73333H2V9.93333ZM11.52 3.64L7.52 8.97333L8.48 9.69333L12.48 4.36L11.52 3.64ZM12.5618 19.7893L8.5618 9.12266L7.4382 9.54401L11.4382 20.2107L12.5618 19.7893ZM8 9.93333H16V8.73333H8V9.93333ZM16 9.93333H22V8.73333H16V9.93333ZM11.52 4.36L15.52 9.69333L16.48 8.97333L12.48 3.64L11.52 4.36ZM12.5618 20.2107L16.5618 9.54401L15.4382 9.12266L11.4382 19.7893L12.5618 20.2107Z" fill="#555770"/>
</svg>
