<svg width="24" height="24" viewBox="0 0 24 24" fill="none" xmlns="http://www.w3.org/2000/svg">
<path d="M6 21.6L18 21.6L18 20.4L6 20.4L6 21.6ZM19.6 20L19.6 4L18.4 4L18.4 20L19.6 20ZM4.4 4L4.4 20L5.6 20L5.6 4L4.4 4ZM18 2.4L6 2.4L6 3.6L18 3.6L18 2.4ZM19.6 4C19.6 3.11635 18.8837 2.4 18 2.4L18 3.6C18.2209 3.6 18.4 3.77909 18.4 4L19.6 4ZM18 21.6C18.8837 21.6 19.6 20.8837 19.6 20L18.4 20C18.4 20.2209 18.2209 20.4 18 20.4L18 21.6ZM6 20.4C5.77909 20.4 5.6 20.2209 5.6 20L4.4 20C4.4 20.8837 5.11634 21.6 6 21.6L6 20.4ZM5.6 4C5.6 3.77909 5.77909 3.6 6 3.6L6 2.4C5.11635 2.4 4.4 3.11634 4.4 4L5.6 4Z" fill="#555770"/>
<path d="M8.54268 12.7006L9.00376 12.3167L9.00376 12.3167L8.54268 12.7006ZM12 16L11.5958 16.4435L12 16.8118L12.4042 16.4435L12 16ZM15.4573 12.7006L14.9962 12.3167L14.9962 12.3167L15.4573 12.7006ZM8.6 11.0588C8.6 10.2366 9.24307 9.6 10 9.6V8.4C8.5478 8.4 7.4 9.60688 7.4 11.0588H8.6ZM10 9.6C10.7569 9.6 11.4 10.2366 11.4 11.0588H12.6C12.6 9.60688 11.4522 8.4 10 8.4V9.6ZM9.00376 12.3167C8.62508 11.8619 8.6 11.4711 8.6 11.0588H7.4C7.4 11.5734 7.43531 12.3084 8.0816 13.0845L9.00376 12.3167ZM8.0816 13.0845C8.36832 13.4289 9.26932 14.2863 10.0538 15.0195C10.4555 15.3949 10.8409 15.7508 11.1257 16.0127C11.2682 16.1437 11.3856 16.2513 11.4674 16.3261C11.5084 16.3636 11.5404 16.3929 11.5622 16.4128C11.5732 16.4228 11.5815 16.4304 11.5872 16.4356C11.59 16.4381 11.5922 16.4401 11.5936 16.4414C11.5943 16.4421 11.5949 16.4426 11.5953 16.4429C11.5954 16.4431 11.5956 16.4432 11.5957 16.4433C11.5957 16.4434 11.5958 16.4434 11.5958 16.4434C11.5958 16.4434 11.5958 16.4435 12 16C12.4042 15.5565 12.4042 15.5565 12.4041 15.5565C12.4041 15.5565 12.4041 15.5565 12.4041 15.5564C12.404 15.5564 12.4038 15.5563 12.4037 15.5561C12.4033 15.5558 12.4028 15.5553 12.4021 15.5547C12.4007 15.5534 12.3987 15.5515 12.3959 15.549C12.3904 15.544 12.3821 15.5365 12.3714 15.5266C12.3498 15.5069 12.3181 15.478 12.2775 15.4408C12.1963 15.3665 12.0796 15.2596 11.938 15.1294C11.6547 14.8688 11.2718 14.5153 10.8732 14.1427C10.0572 13.3801 9.22954 12.5878 9.00376 12.3167L8.0816 13.0845ZM16.6 11.0588C16.6 9.60688 15.4522 8.4 14 8.4V9.6C14.7569 9.6 15.4 10.2366 15.4 11.0588H16.6ZM14 8.4C12.5478 8.4 11.4 9.60688 11.4 11.0588H12.6C12.6 10.2366 13.2431 9.6 14 9.6V8.4ZM15.9184 13.0845C16.5647 12.3084 16.6 11.5734 16.6 11.0588H15.4C15.4 11.4711 15.3749 11.8619 14.9962 12.3167L15.9184 13.0845ZM14.9962 12.3167C14.7705 12.5878 13.9428 13.3801 13.1268 14.1427C12.7282 14.5153 12.3453 14.8688 12.062 15.1294C11.9204 15.2596 11.8037 15.3665 11.7225 15.4408C11.6819 15.478 11.6502 15.5069 11.6286 15.5266C11.6179 15.5365 11.6096 15.544 11.6041 15.549C11.6013 15.5515 11.5993 15.5534 11.5979 15.5547C11.5972 15.5553 11.5967 15.5558 11.5963 15.5561C11.5962 15.5563 11.596 15.5564 11.5959 15.5564C11.5959 15.5565 11.5959 15.5565 11.5959 15.5565C11.5958 15.5565 11.5958 15.5565 12 16C12.4042 16.4435 12.4042 16.4434 12.4042 16.4434C12.4042 16.4434 12.4043 16.4434 12.4043 16.4433C12.4044 16.4432 12.4046 16.4431 12.4047 16.4429C12.4051 16.4426 12.4057 16.4421 12.4064 16.4414C12.4078 16.4401 12.41 16.4381 12.4128 16.4356C12.4185 16.4304 12.4268 16.4228 12.4378 16.4128C12.4596 16.3929 12.4916 16.3636 12.5326 16.3261C12.6144 16.2513 12.7318 16.1437 12.8743 16.0127C13.1591 15.7508 13.5445 15.3949 13.9462 15.0195C14.7307 14.2863 15.6317 13.4289 15.9184 13.0845L14.9962 12.3167Z" fill="#555770"/>
</svg>
