<svg width="24" height="24" viewBox="0 0 24 24" fill="none" xmlns="http://www.w3.org/2000/svg">
<path d="M2 8C2 7.44772 2.44772 7 3 7H21C21.5523 7 22 7.44772 22 8V20C22 20.5523 21.5523 21 21 21H3C2.44772 21 2 20.5523 2 20V8Z" stroke="#555770" stroke-width="1.2"/>
<path d="M9.40701 13.6433L9.85871 13.2484L9.85871 13.2484L9.40701 13.6433ZM12 16L11.6067 16.4531L12 16.7945L12.3933 16.4531L12 16ZM14.593 13.6433L14.1413 13.2484L14.1413 13.2484L14.593 13.6433ZM14.8283 13.303L14.2958 13.0265L14.8283 13.303ZM9.17169 13.303L9.70417 13.0265L9.70417 13.0265L9.17169 13.303ZM10.1852 14.3906L10.5895 13.9473L10.1852 14.3906ZM13.8148 14.3906L14.2191 14.834L14.2191 14.834L13.8148 14.3906ZM12 12.116L11.4183 12.2629C11.4855 12.5293 11.7252 12.716 12 12.716C12.2748 12.716 12.5145 12.5293 12.5817 12.2629L12 12.116ZM9.6 12.4706C9.6 12.0009 9.99167 11.6 10.5 11.6V10.4C9.35147 10.4 8.4 11.3159 8.4 12.4706H9.6ZM15.6 12.4706C15.6 11.3159 14.6485 10.4 13.5 10.4V11.6C14.0083 11.6 14.4 12.0009 14.4 12.4706H15.6ZM15.0447 14.0382C15.1763 13.8877 15.2803 13.7346 15.3608 13.5795L14.2958 13.0265C14.2617 13.0922 14.213 13.1664 14.1413 13.2484L15.0447 14.0382ZM15.3608 13.5795C15.5889 13.1403 15.6 12.7382 15.6 12.4706H14.4C14.4 12.69 14.3866 12.8517 14.2958 13.0265L15.3608 13.5795ZM15.185 13.7854L22.3567 8.48243L21.6433 7.51757L14.4716 12.8206L15.185 13.7854ZM9.85871 13.2484C9.78702 13.1664 9.7383 13.0922 9.70417 13.0265L8.6392 13.5795C8.71973 13.7346 8.82371 13.8877 8.95531 14.0382L9.85871 13.2484ZM9.70417 13.0265C9.6134 12.8517 9.6 12.69 9.6 12.4706H8.4C8.4 12.7382 8.41111 13.1403 8.6392 13.5795L9.70417 13.0265ZM1.64327 8.48243L8.81496 13.7854L9.52842 12.8206L2.35673 7.51757L1.64327 8.48243ZM8.95531 14.0382C9.10338 14.2076 9.43339 14.517 9.78092 14.834L10.5895 13.9473C10.2247 13.6146 9.95234 13.3555 9.85871 13.2484L8.95531 14.0382ZM9.78092 14.834C10.1732 15.1917 10.63 15.5967 10.9875 15.9114C11.1665 16.0689 11.3212 16.2042 11.4311 16.3002C11.4861 16.3481 11.5299 16.3863 11.56 16.4125C11.5751 16.4256 11.5867 16.4357 11.5946 16.4426C11.5985 16.446 11.6015 16.4486 11.6036 16.4504C11.6046 16.4513 11.6054 16.4519 11.6059 16.4524C11.6061 16.4526 11.6063 16.4528 11.6065 16.4529C11.6065 16.453 11.6066 16.453 11.6066 16.4531C11.6067 16.4531 11.6067 16.4531 11.6067 16.4531C11.6067 16.4531 11.6067 16.4531 12 16C12.3933 15.5469 12.3933 15.5469 12.3933 15.5469C12.3933 15.5469 12.3933 15.5469 12.3933 15.5469C12.3932 15.5468 12.3932 15.5468 12.3931 15.5467C12.393 15.5466 12.3929 15.5465 12.3926 15.5463C12.3921 15.5459 12.3914 15.5452 12.3904 15.5444C12.3885 15.5427 12.3856 15.5402 12.3817 15.5368C12.374 15.5301 12.3626 15.5202 12.3478 15.5073C12.3181 15.4814 12.2747 15.4437 12.2202 15.3961C12.1112 15.301 11.9578 15.1668 11.7802 15.0105C11.4245 14.6975 10.9739 14.2979 10.5895 13.9473L9.78092 14.834ZM14.1413 13.2484C14.0477 13.3555 13.7753 13.6146 13.4105 13.9473L14.2191 14.834C14.5666 14.517 14.8966 14.2076 15.0447 14.0382L14.1413 13.2484ZM13.4105 13.9473C13.0261 14.2979 12.5755 14.6975 12.2198 15.0105C12.0422 15.1668 11.8888 15.301 11.7798 15.3961C11.7253 15.4437 11.6819 15.4814 11.6522 15.5073C11.6374 15.5202 11.626 15.5301 11.6183 15.5368C11.6144 15.5402 11.6115 15.5427 11.6096 15.5444C11.6086 15.5452 11.6079 15.5459 11.6074 15.5463C11.6071 15.5465 11.607 15.5466 11.6069 15.5467C11.6068 15.5468 11.6068 15.5468 11.6067 15.5469C11.6067 15.5469 11.6067 15.5469 11.6067 15.5469C11.6067 15.5469 11.6067 15.5469 12 16C12.3933 16.4531 12.3933 16.4531 12.3933 16.4531C12.3933 16.4531 12.3933 16.4531 12.3934 16.4531C12.3934 16.453 12.3935 16.453 12.3935 16.4529C12.3937 16.4528 12.3939 16.4526 12.3941 16.4524C12.3946 16.4519 12.3954 16.4513 12.3964 16.4504C12.3985 16.4486 12.4015 16.446 12.4054 16.4426C12.4133 16.4357 12.4249 16.4256 12.44 16.4125C12.4701 16.3863 12.5139 16.3481 12.5689 16.3002C12.6788 16.2042 12.8335 16.0689 13.0125 15.9114C13.37 15.5967 13.8268 15.1917 14.2191 14.834L13.4105 13.9473ZM10.5 11.6C10.9507 11.6 11.3289 11.9089 11.4183 12.2629L12.5817 11.9691C12.3475 11.0413 11.4568 10.4 10.5 10.4V11.6ZM13.5 10.4C12.5432 10.4 11.6525 11.0413 11.4183 11.9691L12.5817 12.2629C12.6711 11.9089 13.0493 11.6 13.5 11.6V10.4Z" fill="#555770"/>
</svg>
