<svg width="24" height="24" viewBox="0 0 24 24" fill="none" xmlns="http://www.w3.org/2000/svg">
<path d="M3.35671 12.9874L3.81226 12.5969L3.81226 12.5969L3.35671 12.9874ZM12 21.0004L11.6023 21.4496L12 21.8017L12.3977 21.4496L12 21.0004ZM20.6433 12.9874L20.1877 12.5969L20.1877 12.5969L20.6433 12.9874ZM2.6 9C2.6 6.56995 4.56995 4.6 7 4.6V3.4C3.90721 3.4 1.4 5.90721 1.4 9H2.6ZM7 4.6C9.43005 4.6 11.4 6.56995 11.4 9H12.6C12.6 5.90721 10.0928 3.4 7 3.4V4.6ZM3.81226 12.5969C2.66929 11.2635 2.6 10.0715 2.6 9H1.4C1.4 10.1797 1.48167 11.7218 2.90115 13.3779L3.81226 12.5969ZM2.90115 13.3779C3.5728 14.1615 5.77086 16.1968 7.7555 17.9986C8.7574 18.9083 9.71896 19.7709 10.4299 20.406C10.7855 20.7236 11.0784 20.9844 11.2826 21.1658C11.3846 21.2565 11.4645 21.3274 11.5189 21.3757C11.5461 21.3998 11.5669 21.4182 11.5809 21.4307C11.5879 21.4369 11.5932 21.4416 11.5968 21.4448C11.5986 21.4464 11.6 21.4476 11.6009 21.4484C11.6013 21.4488 11.6017 21.4491 11.6019 21.4493C11.602 21.4494 11.6021 21.4495 11.6022 21.4495C11.6022 21.4496 11.6023 21.4496 12 21.0004C12.3977 20.5511 12.3977 20.5511 12.3977 20.5511C12.3976 20.551 12.3975 20.551 12.3974 20.5509C12.3972 20.5507 12.3969 20.5504 12.3964 20.55C12.3956 20.5492 12.3942 20.548 12.3925 20.5465C12.389 20.5434 12.3837 20.5387 12.3768 20.5326C12.3629 20.5203 12.3422 20.5019 12.3152 20.4779C12.2611 20.43 12.1815 20.3593 12.0798 20.2689C11.8763 20.088 11.5841 19.8279 11.2294 19.5111C10.5199 18.8773 9.5609 18.017 8.56212 17.1102C6.54542 15.2792 4.42183 13.3081 3.81226 12.5969L2.90115 13.3779ZM22.6 9C22.6 5.90721 20.0928 3.4 17 3.4V4.6C19.4301 4.6 21.4 6.56995 21.4 9H22.6ZM17 3.4C13.9072 3.4 11.4 5.90721 11.4 9H12.6C12.6 6.56995 14.5699 4.6 17 4.6V3.4ZM21.0988 13.3779C22.5183 11.7218 22.6 10.1797 22.6 9H21.4C21.4 10.0715 21.3307 11.2635 20.1877 12.5969L21.0988 13.3779ZM20.1877 12.5969C19.5782 13.3081 17.4546 15.2792 15.4379 17.1102C14.4391 18.017 13.4801 18.8773 12.7706 19.5111C12.4159 19.8279 12.1237 20.088 11.9202 20.2689C11.8185 20.3593 11.7389 20.43 11.6848 20.4779C11.6578 20.5019 11.6371 20.5203 11.6232 20.5326C11.6163 20.5387 11.611 20.5434 11.6075 20.5465C11.6058 20.548 11.6044 20.5492 11.6036 20.55C11.6031 20.5504 11.6028 20.5507 11.6026 20.5509C11.6025 20.551 11.6024 20.551 11.6023 20.5511C11.6023 20.5511 11.6023 20.5511 12 21.0004C12.3977 21.4496 12.3978 21.4496 12.3978 21.4495C12.3979 21.4495 12.398 21.4494 12.3981 21.4493C12.3983 21.4491 12.3987 21.4488 12.3991 21.4484C12.4 21.4476 12.4014 21.4464 12.4032 21.4448C12.4068 21.4416 12.4121 21.4369 12.4191 21.4307C12.4331 21.4182 12.4539 21.3998 12.4811 21.3757C12.5355 21.3274 12.6154 21.2565 12.7174 21.1658C12.9216 20.9844 13.2145 20.7236 13.5701 20.406C14.281 19.7709 15.2426 18.9083 16.2445 17.9986C18.2291 16.1968 20.4272 14.1615 21.0988 13.3779L20.1877 12.5969Z" fill="#555770"/>
</svg>
