<svg width="24" height="24" viewBox="0 0 24 24" fill="none" xmlns="http://www.w3.org/2000/svg">
<path d="M21.6 20V4H20.4V20H21.6ZM4 21.6H20V20.4H4V21.6ZM20 2.4H12V3.6H20V2.4ZM2.4 12V20H3.6V12H2.4ZM21.6 4C21.6 3.11635 20.8837 2.4 20 2.4V3.6C20.2209 3.6 20.4 3.77909 20.4 4H21.6ZM20.4 20C20.4 20.2209 20.2209 20.4 20 20.4V21.6C20.8837 21.6 21.6 20.8837 21.6 20H20.4ZM4 20.4C3.77909 20.4 3.6 20.2209 3.6 20H2.4C2.4 20.8837 3.11634 21.6 4 21.6V20.4Z" fill="#555770"/>
<path d="M5 17L10.6 10L14 14.4545L15.5 12.5455L19 17H12H5Z" stroke="#555770" stroke-width="1.2"/>
<path d="M6 2V10M10 6H2" stroke="#555770" stroke-width="1.2"/>
</svg>
