<svg width="24" height="24" viewBox="0 0 24 24" fill="none" xmlns="http://www.w3.org/2000/svg">
<mask id="path-1-inside-1_402_13180" fill="white">
<path d="M19.9571 2.70711L22.2929 5.04289C22.6834 5.43342 22.6834 6.06658 22.2929 6.45711L13.1642 15.5858C12.3832 16.3668 11.1168 16.3668 10.3358 15.5858L9.41421 14.6642C8.63317 13.8832 8.63316 12.6168 9.41421 11.8358L18.5429 2.70711C18.9334 2.31658 19.5666 2.31658 19.9571 2.70711Z"/>
</mask>
<path d="M22.2929 5.04289L23.1414 4.19437L23.1414 4.19437L22.2929 5.04289ZM19.9571 2.70711L19.1086 3.55563L19.1086 3.55564L19.9571 2.70711ZM18.5429 2.70711L19.3914 3.55564L19.3914 3.55563L18.5429 2.70711ZM9.41421 11.8358L8.56568 10.9873L8.56568 10.9873L9.41421 11.8358ZM13.1642 15.5858L12.3157 14.7373L12.3157 14.7373L13.1642 15.5858ZM22.2929 6.45711L23.1414 7.30563L23.1414 7.30563L22.2929 6.45711ZM9.41421 14.6642L8.56569 15.5127L8.56569 15.5127L9.41421 14.6642ZM10.3358 15.5858L11.1843 14.7373L11.1843 14.7373L10.3358 15.5858ZM23.1414 4.19437L20.8056 1.85858L19.1086 3.55564L21.4444 5.89142L23.1414 4.19437ZM17.6944 1.85858L8.56568 10.9873L10.2627 12.6843L19.3914 3.55564L17.6944 1.85858ZM14.0127 16.4343L23.1414 7.30563L21.4444 5.60858L12.3157 14.7373L14.0127 16.4343ZM8.56569 15.5127L9.48726 16.4343L11.1843 14.7373L10.2627 13.8157L8.56569 15.5127ZM12.3157 14.7373C12.0033 15.0497 11.4967 15.0497 11.1843 14.7373L9.48726 16.4343C10.7369 17.684 12.7631 17.684 14.0127 16.4343L12.3157 14.7373ZM8.56568 10.9873C7.31601 12.2369 7.31601 14.2631 8.56569 15.5127L10.2627 13.8157C9.95032 13.5033 9.95032 12.9967 10.2627 12.6843L8.56568 10.9873ZM21.4444 5.89142C21.3663 5.81332 21.3663 5.68669 21.4444 5.60858L23.1414 7.30563C24.0006 6.44648 24.0006 5.05352 23.1414 4.19437L21.4444 5.89142ZM20.8056 1.85858C19.9465 0.999425 18.5535 0.999425 17.6944 1.85858L19.3914 3.55563C19.3133 3.63374 19.1867 3.63374 19.1086 3.55563L20.8056 1.85858Z" fill="#555770" mask="url(#path-1-inside-1_402_13180)"/>
<path d="M9.4 18.5C9.4 20.1016 8.10163 21.4 6.5 21.4H2.80736C3.26151 20.7512 3.6 19.8128 3.6 18.5C3.6 16.8984 4.89837 15.6 6.5 15.6C8.10163 15.6 9.4 16.8984 9.4 18.5Z" stroke="#555770" stroke-width="1.2"/>
</svg>
