<svg width="24" height="24" viewBox="0 0 24 24" fill="none" xmlns="http://www.w3.org/2000/svg">
<path d="M5.67836 7.87154L5.14119 8.13884L5.14747 8.15147L5.15434 8.16379L5.67836 7.87154ZM20 18.4H4V19.6H20V18.4ZM20.4 8.37931V18.0345H21.6V8.37931H20.4ZM20.4 5.96552V8.37931H21.6V5.96552H20.4ZM10.6728 7.77931H6.55883V8.97931H10.6728V7.77931ZM15.5485 7.77931H10.6728V8.97931H15.5485V7.77931ZM21 7.77931H20.4171V8.97931H21V7.77931ZM20.4171 7.77931H15.5485V8.97931H20.4171V7.77931ZM16.0906 8.12214L14.4874 4.74283L13.4032 5.25717L15.0064 8.63648L16.0906 8.12214ZM13.9453 4.4H9.09233V5.6H13.9453V4.4ZM9.09233 4.4H4.24947V5.6H9.09233V4.4ZM20 4.4H18.8017V5.6H20V4.4ZM18.8017 4.4H13.9453V5.6H18.8017V4.4ZM20.9584 8.12054L19.343 4.74123L18.2604 5.25877L19.8757 8.63808L20.9584 8.12054ZM8.54883 5.25418L10.1293 8.63349L11.2163 8.12513L9.63583 4.74582L8.54883 5.25418ZM21.6 5.96552C21.6 5.08123 20.8636 4.4 20 4.4V5.6C20.2409 5.6 20.4 5.78332 20.4 5.96552H21.6ZM5.15434 8.16379C5.43827 8.6729 5.9808 8.97931 6.55883 8.97931V7.77931C6.4011 7.77931 6.26728 7.69567 6.20238 7.5793L5.15434 8.16379ZM4 18.4C3.75907 18.4 3.6 18.2167 3.6 18.0345H2.4C2.4 18.9188 3.13636 19.6 4 19.6V18.4ZM20 19.6C20.8636 19.6 21.6 18.9188 21.6 18.0345H20.4C20.4 18.2167 20.2409 18.4 20 18.4V19.6ZM3.6 18.0345V6.44828H2.4V18.0345H3.6ZM4.24947 4.4C4.1903 4.4 3.7444 4.39982 3.29732 4.66497C2.80018 4.95981 2.4 5.52379 2.4 6.44828H3.6C3.6 6.16989 3.65674 6.00175 3.71222 5.90148C3.76701 5.80245 3.83674 5.74022 3.90945 5.6971C3.98635 5.6515 4.07003 5.62572 4.14158 5.6122C4.17625 5.60566 4.20488 5.60259 4.22391 5.60118C4.2333 5.60048 4.24013 5.6002 4.24393 5.60009C4.24728 5.59999 4.2486 5.6 4.24947 5.6V4.4ZM6.21553 7.60425L4.78664 4.7327L3.7123 5.2673L5.14119 8.13884L6.21553 7.60425Z" fill="#555770"/>
<path d="M12 12L12 17M12 12L13 13L11 13L12 12Z" stroke="#555770" stroke-width="1.2"/>
</svg>
