<svg width="24" height="24" viewBox="0 0 24 24" fill="none" xmlns="http://www.w3.org/2000/svg">
<path d="M13.4118 6.82353L13.836 6.39927L13.836 6.39927L13.4118 6.82353ZM17.1765 10.5882L17.6007 10.164L17.6007 10.164L17.1765 10.5882ZM16.7059 10.1176L16.2816 10.5419L16.2816 10.5419L16.7059 10.1176ZM19.2929 7.53064L19.7172 7.9549L19.2929 7.53064ZM16.4694 4.70711L16.8936 5.13137L16.4694 4.70711ZM7.91115 19.8536L8.33542 20.2778L7.91115 19.8536ZM4.14645 16.0888L4.57071 16.5131L4.14645 16.0888ZM12.9875 6.39927L3.72218 15.6646L4.57071 16.5131L13.836 7.24779L12.9875 6.39927ZM3.4 16.4424V19H4.6V16.4424H3.4ZM5 20.6H7.5576V19.4H5V20.6ZM8.33542 20.2778L17.6007 11.0125L16.7522 10.164L7.48689 19.4293L8.33542 20.2778ZM13.836 6.39927L12.4243 4.9875L11.5757 5.83603L12.9875 7.24779L13.836 6.39927ZM16.7522 11.0125L18.164 12.4243L19.0125 11.5757L17.6007 10.164L16.7522 11.0125ZM11.5757 5.83603L13.4581 7.71838L14.3066 6.86985L12.4243 4.9875L11.5757 5.83603ZM14.3066 6.86985L13.836 6.39927L12.9875 7.24779L13.4581 7.71838L14.3066 6.86985ZM14.3066 7.71838L16.8936 5.13137L16.0451 4.28284L13.4581 6.86985L14.3066 7.71838ZM17.4593 5.13137L18.8686 6.54069L19.7172 5.69216L18.3078 4.28284L17.4593 5.13137ZM19.0125 11.5757L17.1301 9.69338L16.2816 10.5419L18.164 12.4243L19.0125 11.5757ZM17.1301 9.69338L14.3066 6.86985L13.4581 7.71838L16.2816 10.5419L17.1301 9.69338ZM16.2816 10.5419L16.7522 11.0125L17.6007 10.164L17.1301 9.69338L16.2816 10.5419ZM18.8686 7.10637L16.2816 9.69338L17.1301 10.5419L19.7172 7.9549L18.8686 7.10637ZM18.8686 6.54069C19.0248 6.6969 19.0248 6.95016 18.8686 7.10637L19.7172 7.9549C20.342 7.33006 20.342 6.317 19.7172 5.69216L18.8686 6.54069ZM16.8936 5.13137C17.0498 4.97516 17.3031 4.97516 17.4593 5.13137L18.3078 4.28284C17.683 3.658 16.6699 3.658 16.0451 4.28284L16.8936 5.13137ZM7.5576 20.6C7.84934 20.6 8.12913 20.4841 8.33542 20.2778L7.48689 19.4293C7.50564 19.4105 7.53108 19.4 7.5576 19.4V20.6ZM3.4 19C3.4 19.8837 4.11635 20.6 5 20.6V19.4C4.77909 19.4 4.6 19.2209 4.6 19H3.4ZM3.72218 15.6646C3.51589 15.8709 3.4 16.1507 3.4 16.4424H4.6C4.6 16.4689 4.58946 16.4944 4.57071 16.5131L3.72218 15.6646Z" fill="#555770"/>
</svg>
