<svg width="24" height="24" viewBox="0 0 24 24" fill="none" xmlns="http://www.w3.org/2000/svg">
<path d="M8.40234 18.1742L8.40234 7.78977M20.396 18.0202V6.78978M20.396 6.78978V4L8.40234 5V7.78977M20.396 6.78978L8.40234 7.78977" stroke="#555770" stroke-width="1.2"/>
<path d="M8.4 18.1006C8.4 19.2698 7.21228 20.4 5.5 20.4C3.78772 20.4 2.6 19.2698 2.6 18.1006C2.6 16.9314 3.78772 15.8011 5.5 15.8011C7.21228 15.8011 8.4 16.9314 8.4 18.1006ZM20.4 18.1006C20.4 19.2698 19.2123 20.4 17.5 20.4C15.7877 20.4 14.6 19.2698 14.6 18.1006C14.6 16.9314 15.7877 15.8011 17.5 15.8011C19.2123 15.8011 20.4 16.9314 20.4 18.1006Z" stroke="#555770" stroke-width="1.2"/>
</svg>
