<svg width="24" height="24" viewBox="0 0 24 24" fill="none" xmlns="http://www.w3.org/2000/svg">
<path d="M2 1V4M2 23V20M22 1V4M22 23V20M2 4H6M2 4V8M6 4V2H18V4M6 4V8M2 8H6M2 8V12M6 8V12M2 12H6M2 12V16M6 12V16M2 16H6M2 16V20M6 16V20M2 20H6M6 20V22H18V20M18 4H22M18 4V8M22 4V8M18 8H22M18 8V12M22 8V12M18 12H22M18 12V16M22 12V16M18 16H22M18 16V20M22 16V20M18 20H22" stroke="#555770" stroke-width="1.2"/>
<path d="M12.8082 12.4056L13.2554 12.8056L13.2554 12.8056L12.8082 12.4056ZM9.8489 9.73045C9.8489 8.47528 10.8746 7.5563 12.0298 7.5563V6.3563C10.2568 6.3563 8.6489 7.7685 8.6489 9.73045H9.8489ZM12.0298 7.5563C13.1681 7.5563 14.1511 8.45878 14.1511 9.73045H15.3511C15.3511 7.785 13.8198 6.3563 12.0298 6.3563V7.5563ZM14.1511 9.73045C14.1511 10.1429 14.0003 10.4104 13.6963 10.7263C13.5312 10.8979 13.341 11.0631 13.1034 11.2765C12.874 11.4826 12.6163 11.7202 12.361 12.0056L13.2554 12.8056C13.4654 12.5708 13.6832 12.3687 13.9054 12.1692C14.1194 11.977 14.3567 11.7706 14.561 11.5583C14.9959 11.1064 15.3511 10.5565 15.3511 9.73045H14.1511ZM12.361 12.0056C12.0759 12.3243 11.8246 12.6555 11.6519 13.0683C11.4779 13.4841 11.4 13.9425 11.4 14.5H12.6C12.6 14.0575 12.6613 13.7649 12.7589 13.5315C12.8578 13.2952 13.0106 13.0793 13.2554 12.8056L12.361 12.0056ZM11.4 15.5V17H12.6V15.5H11.4Z" fill="#555770"/>
</svg>
