<svg width="24" height="24" viewBox="0 0 24 24" fill="none" xmlns="http://www.w3.org/2000/svg">
<path d="M2 1V4M2 23V20M22 1V4M22 23V20M2 4H6M2 4V8M6 4V2H18V4M6 4V8M2 8H6M2 8V12M6 8V12M2 12H6M2 12V16M6 12V16M2 16H6M2 16V20M6 16V20M2 20H6M6 20V22H18V20M18 4H22M18 4V8M22 4V8M18 8H22M18 8V12M22 8V12M18 12H22M18 12V16M22 12V16M18 16H22M18 16V20M22 16V20M18 20H22" stroke="#555770" stroke-width="1.2"/>
<path d="M13.65 9.75V12H14.85V9.75H13.65ZM14.25 11.4H9.75V12.6H14.25V11.4ZM10.35 12V9.75H9.15V12H10.35ZM9.75 11.4H9.1V12.6H9.75V11.4ZM8.4 12.1V15.5H9.6V12.1H8.4ZM10 17.1H14V15.9H10V17.1ZM15.6 15.5V12.1H14.4V15.5H15.6ZM14.9 11.4H14.25V12.6H14.9V11.4ZM15.6 12.1C15.6 11.7134 15.2866 11.4 14.9 11.4V12.6C14.6239 12.6 14.4 12.3761 14.4 12.1H15.6ZM9.1 11.4C8.7134 11.4 8.4 11.7134 8.4 12.1H9.6C9.6 12.3761 9.37614 12.6 9.1 12.6V11.4ZM14 17.1C14.8837 17.1 15.6 16.3837 15.6 15.5H14.4C14.4 15.7209 14.2209 15.9 14 15.9V17.1ZM12 8.1C12.9113 8.1 13.65 8.83873 13.65 9.75H14.85C14.85 8.17599 13.574 6.9 12 6.9V8.1ZM8.4 15.5C8.4 16.3837 9.11634 17.1 10 17.1V15.9C9.77909 15.9 9.6 15.7209 9.6 15.5H8.4ZM12 6.9C10.426 6.9 9.15 8.17599 9.15 9.75H10.35C10.35 8.83873 11.0887 8.1 12 8.1V6.9Z" fill="#555770"/>
</svg>
