<svg width="24" height="24" viewBox="0 0 24 24" fill="none" xmlns="http://www.w3.org/2000/svg">
<path d="M18 21V21.6H18.6V21H18ZM6 21H5.4V21.6H6V21ZM8 4V3.4H7.4V4H8ZM16 4H16.6V3.4H16V4ZM17.4 10V21H18.6V10H17.4ZM18 20.4H6V21.6H18V20.4ZM6.6 21V10H5.4V21H6.6ZM7 9.6H8V8.4H7V9.6ZM8.6 9V4H7.4V9H8.6ZM8 4.6H16V3.4H8V4.6ZM8 9.6H16V8.4H8V9.6ZM16 9.6H17V8.4H16V9.6ZM15.4 4V9H16.6V4H15.4ZM18.6 10C18.6 9.11634 17.8837 8.4 17 8.4V9.6C17.2209 9.6 17.4 9.77909 17.4 10H18.6ZM6.6 10C6.6 9.77909 6.77909 9.6 7 9.6V8.4C6.11634 8.4 5.4 9.11634 5.4 10H6.6Z" fill="#555770"/>
</svg>
