<svg width="24" height="24" viewBox="0 0 24 24" fill="none" xmlns="http://www.w3.org/2000/svg">
<path d="M4.6 13C4.6 8.91309 7.91309 5.6 12 5.6V4.4C7.25035 4.4 3.4 8.25035 3.4 13H4.6ZM12 5.6C16.0869 5.6 19.4 8.91309 19.4 13H20.6C20.6 8.25035 16.7496 4.4 12 4.4V5.6Z" fill="#555770"/>
<mask id="path-2-inside-1_402_13069" fill="white">
<path d="M1 14C1 13.4477 1.44772 13 2 13H5V19H2C1.44772 19 1 18.5523 1 18V14Z"/>
<path d="M19 13H22C22.5523 13 23 13.4477 23 14V18C23 18.5523 22.5523 19 22 19H19V13Z"/>
</mask>
<path d="M5 13H6.2V11.8H5V13ZM5 19V20.2H6.2V19H5ZM19 13V11.8H17.8V13H19ZM19 19H17.8V20.2H19V19ZM2 14.2H5V11.8H2V14.2ZM3.8 13V19H6.2V13H3.8ZM5 17.8H2V20.2H5V17.8ZM2.2 18V14H-0.2V18H2.2ZM19 14.2H22V11.8H19V14.2ZM21.8 14V18H24.2V14H21.8ZM22 17.8H19V20.2H22V17.8ZM20.2 19V13H17.8V19H20.2ZM21.8 18C21.8 17.8895 21.8895 17.8 22 17.8V20.2C23.215 20.2 24.2 19.215 24.2 18H21.8ZM2 17.8C2.11046 17.8 2.2 17.8895 2.2 18H-0.2C-0.2 19.215 0.784973 20.2 2 20.2V17.8ZM22 14.2C21.8895 14.2 21.8 14.1105 21.8 14H24.2C24.2 12.785 23.215 11.8 22 11.8V14.2ZM2 11.8C0.784973 11.8 -0.2 12.785 -0.2 14H2.2C2.2 14.1105 2.11046 14.2 2 14.2V11.8Z" fill="#555770" mask="url(#path-2-inside-1_402_13069)"/>
</svg>
