<svg width="24" height="24" viewBox="0 0 24 24" fill="none" xmlns="http://www.w3.org/2000/svg">
<path d="M3.00004 4.99998L2.8103 4.43077L2.51007 4.53085L2.42312 4.83515L3.00004 4.99998ZM4.09434 4.63521L3.90461 4.066L3.90461 4.066L4.09434 4.63521ZM19.9057 4.63521L20.0955 4.066L20.0955 4.066L19.9057 4.63521ZM21 4.99998L21.577 4.83515L21.49 4.53085L21.1898 4.43077L21 4.99998ZM3.00004 19L2.42312 19.1648L2.51007 19.4691L2.8103 19.5692L3.00004 19ZM4.09434 19.3647L3.90461 19.934L3.90461 19.934L4.09434 19.3647ZM19.9057 19.3647L20.0955 19.934L20.0955 19.934L19.9057 19.3647ZM21 19L21.1898 19.5692L21.49 19.4691L21.577 19.1648L21 19ZM3.18977 5.56919L4.28408 5.20442L3.90461 4.066L2.8103 4.43077L3.18977 5.56919ZM19.716 5.20442L20.8103 5.56919L21.1898 4.43077L20.0955 4.066L19.716 5.20442ZM2.8103 19.5692L3.90461 19.934L4.28408 18.7955L3.18977 18.4308L2.8103 19.5692ZM20.0955 19.934L21.1898 19.5692L20.8103 18.4308L19.716 18.7955L20.0955 19.934ZM3.90461 19.934C9.15944 21.6856 14.8406 21.6856 20.0955 19.934L19.716 18.7955C14.7075 20.465 9.29259 20.465 4.28408 18.7955L3.90461 19.934ZM4.28408 5.20442C9.29259 3.53492 14.7075 3.53492 19.716 5.20442L20.0955 4.066C14.8406 2.31439 9.15944 2.31439 3.90461 4.066L4.28408 5.20442ZM21.577 19.1648C22.9149 14.482 22.9149 9.51801 21.577 4.83515L20.4231 5.16481C21.6995 9.63221 21.6995 14.3678 20.4231 18.8351L21.577 19.1648ZM2.42312 4.83515C1.08516 9.51801 1.08516 14.482 2.42312 19.1648L3.57695 18.8351C2.30055 14.3678 2.30055 9.63221 3.57695 5.16481L2.42312 4.83515Z" fill="#555770"/>
</svg>
