<svg width="24" height="24" viewBox="0 0 24 24" fill="none" xmlns="http://www.w3.org/2000/svg">
<mask id="path-1-inside-1_402_13062" fill="white">
<path d="M4 20V4H11V20H4Z"/>
<path d="M13 20V4H20V20H13Z"/>
</mask>
<path d="M4 4V2.8H2.8V4H4ZM4 20H2.8V21.2H4V20ZM11 20V21.2H12.2V20H11ZM11 4H12.2V2.8H11V4ZM13 4V2.8H11.8V4H13ZM13 20H11.8V21.2H13V20ZM20 20V21.2H21.2V20H20ZM20 4H21.2V2.8H20V4ZM2.8 4V20H5.2V4H2.8ZM4 21.2H11V18.8H4V21.2ZM12.2 20V4H9.8V20H12.2ZM11 2.8H4V5.2H11V2.8ZM11.8 4V20H14.2V4H11.8ZM13 21.2H20V18.8H13V21.2ZM21.2 20V4H18.8V20H21.2ZM20 2.8H13V5.2H20V2.8Z" fill="#555770" mask="url(#path-1-inside-1_402_13062)"/>
</svg>
