<svg width="24" height="24" viewBox="0 0 24 24" fill="none" xmlns="http://www.w3.org/2000/svg">
<mask id="path-1-inside-1_402_13058" fill="white">
<path d="M12 20C7.58172 20 4 16.4183 4 12C4 7.58172 7.58172 4 12 4C16.4183 4 20 7.58172 20 12C20 16.4183 16.4183 20 12 20Z"/>
</mask>
<path d="M21.2 12C21.2 6.91898 17.081 2.8 12 2.8V5.2C15.7555 5.2 18.8 8.24446 18.8 12H21.2ZM12 21.2C17.081 21.2 21.2 17.081 21.2 12H18.8C18.8 15.7555 15.7555 18.8 12 18.8V21.2ZM2.8 12C2.8 17.081 6.91898 21.2 12 21.2V18.8C8.24446 18.8 5.2 15.7555 5.2 12H2.8ZM5.2 12C5.2 8.24446 8.24446 5.2 12 5.2V2.8C6.91898 2.8 2.8 6.91898 2.8 12H5.2Z" fill="#555770" mask="url(#path-1-inside-1_402_13058)"/>
</svg>
