<svg width="24" height="24" viewBox="0 0 24 24" fill="none" xmlns="http://www.w3.org/2000/svg">
<path d="M4.5 7.5V6.9H3.9V7.5H4.5ZM19.5 16.5V17.1H20.1V16.5H19.5ZM3 5.6H21V4.4H3V5.6ZM21.4 6V18H22.6V6H21.4ZM21 18.4H3V19.6H21V18.4ZM2.6 18V6H1.4V18H2.6ZM5.1 11.5V7.5H3.9V11.5H5.1ZM4.5 8.1H8.5V6.9H4.5V8.1ZM18.9 12.5V16.5H20.1V12.5H18.9ZM19.5 15.9H15.5V17.1H19.5V15.9ZM3 18.4C2.77909 18.4 2.6 18.2209 2.6 18H1.4C1.4 18.8837 2.11634 19.6 3 19.6V18.4ZM21.4 18C21.4 18.2209 21.2209 18.4 21 18.4V19.6C21.8837 19.6 22.6 18.8837 22.6 18H21.4ZM21 5.6C21.2209 5.6 21.4 5.77909 21.4 6H22.6C22.6 5.11634 21.8837 4.4 21 4.4V5.6ZM3 4.4C2.11634 4.4 1.4 5.11635 1.4 6H2.6C2.6 5.77909 2.77909 5.6 3 5.6V4.4Z" fill="#555770"/>
</svg>
