<svg width="24" height="24" viewBox="0 0 24 24" fill="none" xmlns="http://www.w3.org/2000/svg">
<path d="M14.3099 12L14.8295 12.3L15.0027 12L14.8295 11.7L14.3099 12ZM13.155 14.0004V14.6004H13.5014L13.6746 14.3004L13.155 14.0004ZM9.69018 12L9.17009 11.7008L8.99767 12.0005L9.17056 12.3L9.69018 12ZM10.8451 9.99958V9.39958H10.4987L10.3255 9.69958L10.8451 9.99958ZM8.82164 21.4843L8.63106 22.0532L8.63106 22.0532L8.82164 21.4843ZM18.6402 19.4773L19.0388 19.9258L18.6402 19.4773ZM13.7903 11.7L12.6354 13.7004L13.6746 14.3004L14.8295 12.3L13.7903 11.7ZM13.155 13.4004H10.8451V14.6004H13.155V13.4004ZM11.3647 13.7004L10.2098 11.7L9.17056 12.3L10.3255 14.3004L11.3647 13.7004ZM10.2098 12.3L11.3647 10.2996L10.3255 9.69958L9.17056 11.7L10.2098 12.3ZM10.8451 10.5996H13.155V9.39958H10.8451V10.5996ZM12.6354 10.2996L13.7903 12.3L14.8295 11.7L13.6746 9.69958L12.6354 10.2996ZM10.8451 13.4004H2.20012V14.6004H10.8451V13.4004ZM13.7906 11.6995L8.30232 21.1838L9.34096 21.7848L14.8292 12.3005L13.7906 11.6995ZM10.2103 12.2992L15.6715 2.80589L14.6314 2.20751L9.17009 11.7008L10.2103 12.2992ZM13.155 10.5996H21.7999V9.39958H13.155V10.5996ZM21.2119 10.119C21.3352 10.7262 21.4 11.3552 21.4 12H22.6C22.6 11.2746 22.527 10.5656 22.3879 9.8802L21.2119 10.119ZM12.6357 10.3001L18.1209 19.7778L19.1595 19.1767L13.6743 9.69904L12.6357 10.3001ZM21.4 12C21.4 14.7959 20.1801 17.3061 18.2416 19.0288L19.0388 19.9258C21.2227 17.985 22.6 15.1529 22.6 12H21.4ZM18.2416 19.0288C16.5812 20.5044 14.3959 21.4 12 21.4V22.6C14.7009 22.6 17.1672 21.589 19.0388 19.9258L18.2416 19.0288ZM12 21.4C10.9545 21.4 9.95008 21.2295 9.01222 20.9154L8.63106 22.0532C9.69021 22.408 10.8233 22.6 12 22.6V21.4ZM9.01222 20.9154C5.86416 19.8609 3.45885 17.1846 2.78812 13.881L1.61211 14.1198C2.36911 17.8482 5.08101 20.8641 8.63106 22.0532L9.01222 20.9154ZM2.78812 13.881C2.66483 13.2737 2.6 12.6448 2.6 12H1.4C1.4 12.7254 1.47295 13.4344 1.61211 14.1198L2.78812 13.881ZM11.3636 13.6984L5.85463 4.24174L4.81774 4.84578L10.3267 14.3024L11.3636 13.6984ZM2.6 12C2.6 9.2148 3.81057 6.71313 5.73616 4.99099L4.93621 4.09653C2.76683 6.03668 1.4 8.85912 1.4 12H2.6ZM5.73616 4.99099C7.39928 3.50361 9.5934 2.6 12 2.6V1.4C9.28699 1.4 6.81079 2.42002 4.93621 4.09653L5.73616 4.99099ZM12 2.6C13.0361 2.6 14.0319 2.7674 14.9625 3.07617L15.3404 1.93723C14.2894 1.58853 13.1661 1.4 12 1.4V2.6ZM14.9625 3.07617C18.1229 4.1248 20.5393 6.80654 21.2119 10.119L22.3879 9.8802C21.6289 6.1418 18.9045 3.11977 15.3404 1.93723L14.9625 3.07617Z" fill="#555770"/>
</svg>
