<svg width="24" height="24" viewBox="0 0 24 24" fill="none" xmlns="http://www.w3.org/2000/svg">
<path d="M5.1 22L5.1 22.6H5.1V22ZM18.9 22L18.9 21.4H18.9V22ZM19 21.9L18.4 21.9L19 21.9ZM19 2.1L19.6 2.1L19 2.1ZM5 2.1L4.4 2.1L5 2.1ZM5 21.9L5.6 21.9L5 21.9ZM5.1 2L5.1 2.6L5.1 2ZM15 15L14.4 15L15 15ZM12 12L12 11.4L12 12ZM12 18L12 17.4L12 18ZM9 15L8.4 15L9 15ZM13 7L13.6 7L13 7ZM12 6L12 6.6L12 6ZM12 8L12 8.6L12 8ZM11 7L11.6 7L11 7ZM5.1 22.6H18.9V21.4H5.1V22.6ZM19.6 21.9L19.6 2.1L18.4 2.1L18.4 21.9L19.6 21.9ZM4.4 2.1L4.4 21.9L5.6 21.9L5.6 2.1L4.4 2.1ZM18.9 1.4L5.1 1.4L5.1 2.6L18.9 2.6L18.9 1.4ZM19.6 2.1C19.6 1.7134 19.2866 1.4 18.9 1.4L18.9 2.6C18.6239 2.6 18.4 2.37615 18.4 2.1L19.6 2.1ZM18.9 22.6C19.2866 22.6 19.6 22.2866 19.6 21.9L18.4 21.9C18.4 21.6239 18.6239 21.4 18.9 21.4L18.9 22.6ZM5.1 21.4C5.37614 21.4 5.6 21.6239 5.6 21.9L4.4 21.9C4.4 22.2866 4.7134 22.6 5.1 22.6L5.1 21.4ZM5.6 2.1C5.6 2.37615 5.37614 2.6 5.1 2.6L5.1 1.4C4.71341 1.4 4.4 1.71339 4.4 2.1L5.6 2.1ZM15.6 15C15.6 13.0118 13.9882 11.4 12 11.4L12 12.6C13.3255 12.6 14.4 13.6745 14.4 15L15.6 15ZM12 18.6C13.9882 18.6 15.6 16.9882 15.6 15L14.4 15C14.4 16.3255 13.3255 17.4 12 17.4L12 18.6ZM12 17.4C10.6745 17.4 9.6 16.3255 9.6 15L8.4 15C8.4 16.9882 10.0118 18.6 12 18.6L12 17.4ZM9.6 15C9.6 13.6745 10.6745 12.6 12 12.6L12 11.4C10.0118 11.4 8.4 13.0118 8.4 15L9.6 15ZM13.6 7C13.6 6.11634 12.8837 5.4 12 5.4L12 6.6C12.2209 6.6 12.4 6.77909 12.4 7L13.6 7ZM12 8.6C12.8837 8.6 13.6 7.88366 13.6 7L12.4 7C12.4 7.22091 12.2209 7.4 12 7.4L12 8.6ZM12 7.4C11.7791 7.4 11.6 7.22091 11.6 7L10.4 7C10.4 7.88366 11.1163 8.6 12 8.6L12 7.4ZM11.6 7C11.6 6.77909 11.7791 6.6 12 6.6L12 5.4C11.1163 5.4 10.4 6.11634 10.4 7L11.6 7Z" fill="#555770"/>
</svg>
