<svg width="24" height="24" viewBox="0 0 24 24" fill="none" xmlns="http://www.w3.org/2000/svg">
<g clip-path="url(#clip0_402_13038)">
<path d="M3 14.9V9.1C3 9.04477 3.04477 9 3.1 9H4.95858C4.9851 9 5.01054 8.98946 5.02929 8.97071L9.82929 4.17071C9.89229 4.10771 10 4.15233 10 4.24142V19.7586C10 19.8477 9.89229 19.8923 9.82929 19.8293L5.02929 15.0293C5.01054 15.0105 4.9851 15 4.95858 15H3.1C3.04477 15 3 14.9552 3 14.9Z" stroke="#555770" stroke-width="1.2"/>
<mask id="mask0_402_13038" style="mask-type:alpha" maskUnits="userSpaceOnUse" x="12" y="0" width="9" height="24">
<rect x="12.25" width="8.75001" height="24" fill="white"/>
</mask>
<g mask="url(#mask0_402_13038)">
<circle cx="10.5" cy="12.5" r="9.9" stroke="#555770" stroke-width="1.2"/>
<circle cx="10.5" cy="12.5" r="5.9" stroke="#555770" stroke-width="1.2"/>
</g>
</g>
<defs>
<clipPath id="clip0_402_13038">
<rect width="24" height="24" fill="white"/>
</clipPath>
</defs>
</svg>
