<svg width="24" height="24" viewBox="0 0 24 24" fill="none" xmlns="http://www.w3.org/2000/svg">
<path d="M21.8293 7.17071L22.2536 7.59497L21.8293 7.17071ZM3 6.6H16V5.4H3V6.6ZM16 17.4H3V18.6H16V17.4ZM2.6 17V7H1.4V17H2.6ZM16.4 7V12H17.6V7H16.4ZM16.4 12V17H17.6V12H16.4ZM17.4243 12.4243L22.2536 7.59497L21.405 6.74645L16.5757 11.5757L17.4243 12.4243ZM21.4 7.24142V16.7586H22.6V7.24142H21.4ZM22.2536 16.405L17.4243 11.5757L16.5757 12.4243L21.405 17.2536L22.2536 16.405ZM21.4 16.7586C21.4 16.3131 21.9386 16.09 22.2536 16.405L21.405 17.2536C21.846 17.6945 22.6 17.3822 22.6 16.7586H21.4ZM3 17.4C2.77909 17.4 2.6 17.2209 2.6 17H1.4C1.4 17.8837 2.11634 18.6 3 18.6V17.4ZM16 18.6C16.8837 18.6 17.6 17.8837 17.6 17H16.4C16.4 17.2209 16.2209 17.4 16 17.4V18.6ZM16 6.6C16.2209 6.6 16.4 6.77909 16.4 7H17.6C17.6 6.11634 16.8837 5.4 16 5.4V6.6ZM22.2536 7.59497C21.9386 7.90996 21.4 7.68687 21.4 7.24142H22.6C22.6 6.61779 21.846 6.30547 21.405 6.74645L22.2536 7.59497ZM3 5.4C2.11634 5.4 1.4 6.11634 1.4 7H2.6C2.6 6.77909 2.77909 6.6 3 6.6V5.4Z" fill="#555770"/>
<path d="M7 13L6.57574 13.4243L7.6 14.4485V13H7ZM6 12L5.57574 11.5757L5.15147 12L5.57574 12.4243L6 12ZM7 11H7.6V9.55147L6.57574 10.5757L7 11ZM12 13H11.4V14.4485L12.4243 13.4243L12 13ZM13 12L13.4243 12.4243L13.8485 12L13.4243 11.5757L13 12ZM12 11L12.4243 10.5757L11.4 9.55147V11H12ZM7.42426 12.5757L6.42426 11.5757L5.57574 12.4243L6.57574 13.4243L7.42426 12.5757ZM6.42426 12.4243L7.42426 11.4243L6.57574 10.5757L5.57574 11.5757L6.42426 12.4243ZM6.4 11V12H7.6V11H6.4ZM6.4 12V13H7.6V12H6.4ZM12.4243 13.4243L13.4243 12.4243L12.5757 11.5757L11.5757 12.5757L12.4243 13.4243ZM13.4243 11.5757L12.4243 10.5757L11.5757 11.4243L12.5757 12.4243L13.4243 11.5757ZM11.4 11V12H12.6V11H11.4ZM11.4 12V13H12.6V12H11.4ZM7 12.6H12V11.4H7V12.6Z" fill="#555770"/>
</svg>
