<svg width="24" height="24" viewBox="0 0 24 24" fill="none" xmlns="http://www.w3.org/2000/svg">
<path d="M12 19.5V4" stroke="#555770" stroke-width="1.2"/>
<path d="M12 17L11.6464 17.3536L12.5 18.2071V17H12ZM12 13.5L11.6746 13.1204L11.5 13.27V13.5H12ZM8.79289 13.7929L8.43934 14.1464L8.79289 13.7929ZM8 10V13.0858H9V10H8ZM8.43934 14.1464L11.6464 17.3536L12.3536 16.6464L9.14645 13.4393L8.43934 14.1464ZM12.5 17V13.5H11.5V17H12.5ZM12.3254 13.8796L15.4762 11.1789L14.8254 10.4197L11.6746 13.1204L12.3254 13.8796ZM16 10.0401V7H15V10.0401H16ZM15.4762 11.1789C15.8087 10.894 16 10.478 16 10.0401H15C15 10.186 14.9362 10.3247 14.8254 10.4197L15.4762 11.1789ZM8 13.0858C8 13.4836 8.15804 13.8651 8.43934 14.1464L9.14645 13.4393C9.05268 13.3456 9 13.2184 9 13.0858H8Z" fill="#555770"/>
<mask id="path-3-inside-1_402_13015" fill="white">
<path d="M14 21C14 22.1046 13.1046 23 12 23C10.8954 23 10 22.1046 10 21C10 19.8954 10.8954 19 12 19C13.1046 19 14 19.8954 14 21Z"/>
<path d="M10 9.5C10 10.3284 9.32843 11 8.5 11C7.67157 11 7 10.3284 7 9.5C7 8.67157 7.67157 8 8.5 8C9.32843 8 10 8.67157 10 9.5Z"/>
<path d="M17 5.00002L14 4.99994V8H17V5.00002Z"/>
<path d="M14 4H10L12 1L14 4Z"/>
</mask>
<path d="M14 4.99994L14 3.79994L12.8 3.79991V4.99994H14ZM17 5.00002H18.2V3.80005L17 3.80002L17 5.00002ZM14 8H12.8V9.2H14V8ZM17 8V9.2H18.2V8H17ZM10 4L9.00154 3.33436L7.75778 5.2H10V4ZM14 4V5.2H16.2422L14.9985 3.33436L14 4ZM12 1L12.9985 0.33436L12 -1.16333L11.0015 0.33436L12 1ZM12.8 21C12.8 21.4418 12.4418 21.8 12 21.8V24.2C13.7673 24.2 15.2 22.7673 15.2 21H12.8ZM12 21.8C11.5582 21.8 11.2 21.4418 11.2 21H8.8C8.8 22.7673 10.2327 24.2 12 24.2V21.8ZM11.2 21C11.2 20.5582 11.5582 20.2 12 20.2V17.8C10.2327 17.8 8.8 19.2327 8.8 21H11.2ZM12 20.2C12.4418 20.2 12.8 20.5582 12.8 21H15.2C15.2 19.2327 13.7673 17.8 12 17.8V20.2ZM8.8 9.5C8.8 9.66569 8.66569 9.8 8.5 9.8V12.2C9.99117 12.2 11.2 10.9912 11.2 9.5H8.8ZM8.5 9.8C8.33431 9.8 8.2 9.66569 8.2 9.5H5.8C5.8 10.9912 7.00883 12.2 8.5 12.2V9.8ZM8.2 9.5C8.2 9.33431 8.33431 9.2 8.5 9.2V6.8C7.00883 6.8 5.8 8.00883 5.8 9.5H8.2ZM8.5 9.2C8.66569 9.2 8.8 9.33431 8.8 9.5H11.2C11.2 8.00883 9.99117 6.8 8.5 6.8V9.2ZM14 6.19994L17 6.20002L17 3.80002L14 3.79994L14 6.19994ZM12.8 4.99994V8H15.2V4.99994H12.8ZM18.2 8V5.00002H15.8V8H18.2ZM14 9.2H17V6.8H14V9.2ZM10 5.2H14V2.8H10V5.2ZM14.9985 3.33436L12.9985 0.33436L11.0015 1.66564L13.0015 4.66564L14.9985 3.33436ZM11.0015 0.33436L9.00154 3.33436L10.9985 4.66564L12.9985 1.66564L11.0015 0.33436Z" fill="#555770" mask="url(#path-3-inside-1_402_13015)"/>
</svg>
