<svg width="24" height="24" viewBox="0 0 24 24" fill="none" xmlns="http://www.w3.org/2000/svg">
<path d="M4.22104 12.9299L4.67274 12.535L4.22104 12.9299ZM12 20L11.6067 20.4531L12 20.7945L12.3933 20.4531L12 20ZM19.779 12.9299L19.3273 12.535L19.779 12.9299ZM22 2L22.5692 2.18974L22.9487 1.05132L21.8103 1.43079L22 2ZM20.5 2.5L20.3103 1.93079L19.3893 2.23779L20.0757 2.92426L20.5 2.5ZM21.5 3.5L21.0757 3.92426L21.7622 4.61074L22.0692 3.68974L21.5 3.5ZM3 20L2.57574 19.5757L1.55147 20.6H3V20ZM5 18V17.4H4.75147L4.57574 17.5757L5 18ZM6 19L6.42426 19.4243L6.6 19.2485V19H6ZM4 21H3.4V22.4485L4.42426 21.4243L4 21ZM7.74937 16.2506L8.14997 15.804L7.74937 16.2506ZM18.5278 5.47223L18.2613 6.0098L18.5278 5.47223ZM3.6 9.41167C3.6 7.3177 5.33482 5.6 7.5 5.6V4.4C4.69462 4.4 2.4 6.63264 2.4 9.41167H3.6ZM7.5 5.6C9.66518 5.6 11.4 7.3177 11.4 9.41167H12.6C12.6 6.63264 10.3054 4.4 7.5 4.4V5.6ZM4.67274 12.535C3.66095 11.3777 3.6 10.3486 3.6 9.41167H2.4C2.4 10.461 2.47492 11.8443 3.76933 13.3248L4.67274 12.535ZM16.5 4.4C13.6946 4.4 11.4 6.63264 11.4 9.41167H12.6C12.6 7.3177 14.3348 5.6 16.5 5.6V4.4ZM20.2307 13.3248C21.5251 11.8443 21.6 10.461 21.6 9.41167H20.4C20.4 10.3486 20.3391 11.3777 19.3273 12.535L20.2307 13.3248ZM19.3273 12.535C18.7821 13.1585 16.875 14.8942 15.0582 16.5113C14.1594 17.3113 13.2964 18.0703 12.658 18.6294C12.3388 18.9089 12.0759 19.1384 11.8928 19.2979C11.8012 19.3777 11.7296 19.44 11.681 19.4823C11.6566 19.5035 11.638 19.5197 11.6255 19.5305C11.6193 19.536 11.6146 19.5401 11.6114 19.5428C11.6098 19.5442 11.6086 19.5452 11.6079 19.5459C11.6075 19.5462 11.6072 19.5465 11.607 19.5466C11.6069 19.5467 11.6068 19.5468 11.6068 19.5468C11.6067 19.5469 11.6067 19.5469 12 20C12.3933 20.4531 12.3933 20.4531 12.3934 20.453C12.3934 20.453 12.3935 20.4529 12.3936 20.4528C12.3938 20.4526 12.3941 20.4524 12.3946 20.452C12.3954 20.4513 12.3966 20.4503 12.3982 20.4489C12.4014 20.4461 12.4062 20.4419 12.4125 20.4364C12.4252 20.4254 12.4439 20.4091 12.4684 20.3878C12.5174 20.3453 12.5893 20.2827 12.6811 20.2027C12.8649 20.0425 13.1286 19.8124 13.4486 19.5321C14.0886 18.9717 14.9541 18.2104 15.856 17.4077C17.6404 15.8195 19.6227 14.0202 20.2307 13.3248L19.3273 12.535ZM21.8103 1.43079L20.3103 1.93079L20.6897 3.06921L22.1897 2.56921L21.8103 1.43079ZM20.0757 2.92426L20.5757 3.42426L21.4243 2.57574L20.9243 2.07574L20.0757 2.92426ZM20.5757 3.42426L21.0757 3.92426L21.9243 3.07574L21.4243 2.57574L20.5757 3.42426ZM22.0692 3.68974L22.5692 2.18974L21.4308 1.81026L20.9308 3.31026L22.0692 3.68974ZM3.57574 19.5757L2.57574 20.5757L3.42426 21.4243L4.42426 20.4243L3.57574 19.5757ZM4 19.4H3V20.6H4V19.4ZM3.42426 20.4243L5.42426 18.4243L4.57574 17.5757L2.57574 19.5757L3.42426 20.4243ZM21.5757 1.57574L20.5757 2.57574L21.4243 3.42426L22.4243 2.42426L21.5757 1.57574ZM5.57574 17.5757L3.57574 19.5757L4.42426 20.4243L6.42426 18.4243L5.57574 17.5757ZM5 18.6H6V17.4H5V18.6ZM5.4 18V19H6.6V18H5.4ZM5.57574 18.5757L3.57574 20.5757L4.42426 21.4243L6.42426 19.4243L5.57574 18.5757ZM4.6 21V20H3.4V21H4.6ZM7.32511 15.8264L5.57574 17.5757L6.42426 18.4243L8.17363 16.6749L7.32511 15.8264ZM3.76933 13.3248C4.29177 13.9224 5.81636 15.323 7.34877 16.6973L8.14997 15.804C6.5904 14.4053 5.13496 13.0636 4.67274 12.535L3.76933 13.3248ZM7.34877 16.6973C8.38846 17.6297 9.45291 18.5687 10.2571 19.2742C10.6593 19.627 10.9965 19.9216 11.2333 20.1281C11.3517 20.2313 11.445 20.3125 11.5087 20.3679C11.5405 20.3956 11.565 20.4169 11.5815 20.4313C11.5898 20.4384 11.5961 20.4439 11.6003 20.4475C11.6024 20.4494 11.604 20.4508 11.6051 20.4517C11.6056 20.4522 11.606 20.4525 11.6063 20.4527C11.6064 20.4529 11.6065 20.453 11.6066 20.453C11.6066 20.453 11.6066 20.4531 11.6067 20.4531C11.6067 20.4531 11.6067 20.4531 12 20C12.3933 19.5469 12.3933 19.5469 12.3933 19.5469C12.3933 19.5469 12.3932 19.5468 12.3932 19.5468C12.3932 19.5468 12.3931 19.5467 12.3929 19.5466C12.3927 19.5463 12.3923 19.546 12.3918 19.5456C12.3907 19.5447 12.3892 19.5433 12.3871 19.5415C12.383 19.5379 12.3768 19.5325 12.3686 19.5254C12.3522 19.5112 12.3279 19.4901 12.2962 19.4625C12.2329 19.4074 12.1399 19.3265 12.0219 19.2236C11.7859 19.0178 11.4496 18.724 11.0485 18.3721C10.246 17.6681 9.18518 16.7324 8.14997 15.804L7.34877 16.6973ZM20.5757 2.57574L18.1035 5.04796L18.952 5.89649L21.4243 3.42426L20.5757 2.57574ZM21.6 9.41167C21.6 7.44901 20.453 5.75689 18.7943 4.93465L18.2613 6.0098C19.5359 6.64162 20.4 7.93166 20.4 9.41167H21.6ZM18.7943 4.93465C18.1036 4.5923 17.3236 4.4 16.5 4.4V5.6C17.1353 5.6 17.7332 5.74804 18.2613 6.0098L18.7943 4.93465Z" fill="#28293D"/>
</svg>
