<svg width="24" height="24" viewBox="0 0 24 24" fill="none" xmlns="http://www.w3.org/2000/svg">
<path d="M6.75 17L6.37518 16.5315L6.53953 16.4H6.75V17ZM3.16247 19.87L3.53729 20.3385L3.16247 19.87ZM4 3.4H20V4.6H4V3.4ZM21.6 5V16H20.4V5H21.6ZM2.4 16V5H3.6V16H2.4ZM2.4 19.7919V16H3.6V19.7919H2.4ZM7.12482 17.4685L3.53729 20.3385L2.78765 19.4015L6.37518 16.5315L7.12482 17.4685ZM6.75 16.4H20V17.6H6.75V16.4ZM3.6 19.7919C3.6 19.3727 3.11503 19.1396 2.78765 19.4015L3.53729 20.3385C3.07896 20.7052 2.4 20.3789 2.4 19.7919H3.6ZM20 3.4C20.8837 3.4 21.6 4.11634 21.6 5H20.4C20.4 4.77909 20.2209 4.6 20 4.6V3.4ZM4 4.6C3.77909 4.6 3.6 4.77909 3.6 5H2.4C2.4 4.11634 3.11634 3.4 4 3.4V4.6ZM21.6 16C21.6 16.8837 20.8837 17.6 20 17.6V16.4C20.2209 16.4 20.4 16.2209 20.4 16H21.6Z" fill="#28293D"/>
<path d="M8.54268 10.7006L9.00376 10.3167H9.00376L8.54268 10.7006ZM12 14L11.5958 14.4435L12 14.8118L12.4042 14.4435L12 14ZM15.4573 10.7006L14.9962 10.3167L15.4573 10.7006ZM8.6 9.05878C8.6 8.23662 9.24307 7.6 10 7.6V6.4C8.5478 6.4 7.4 7.60688 7.4 9.05878H8.6ZM10 7.6C10.7569 7.6 11.4 8.23662 11.4 9.05878H12.6C12.6 7.60688 11.4522 6.4 10 6.4V7.6ZM9.00376 10.3167C8.62508 9.8619 8.6 9.47109 8.6 9.05878H7.4C7.4 9.57341 7.43531 10.3084 8.0816 11.0845L9.00376 10.3167ZM8.0816 11.0845C8.36832 11.4289 9.26932 12.2863 10.0538 13.0195C10.4555 13.3949 10.8409 13.7508 11.1257 14.0127C11.2682 14.1437 11.3856 14.2513 11.4674 14.3261C11.5084 14.3636 11.5404 14.3929 11.5622 14.4128C11.5732 14.4228 11.5815 14.4304 11.5872 14.4356C11.59 14.4381 11.5922 14.4401 11.5936 14.4414C11.5943 14.4421 11.5949 14.4426 11.5953 14.4429C11.5954 14.4431 11.5956 14.4432 11.5957 14.4433C11.5957 14.4434 11.5958 14.4434 11.5958 14.4434C11.5958 14.4434 11.5958 14.4435 12 14C12.4042 13.5565 12.4042 13.5565 12.4041 13.5565C12.4041 13.5565 12.4041 13.5565 12.4041 13.5564C12.404 13.5564 12.4038 13.5563 12.4037 13.5561C12.4033 13.5558 12.4028 13.5553 12.4021 13.5547C12.4007 13.5534 12.3987 13.5515 12.3959 13.549C12.3904 13.544 12.3821 13.5365 12.3714 13.5266C12.3498 13.5069 12.3181 13.478 12.2775 13.4408C12.1963 13.3665 12.0796 13.2596 11.938 13.1294C11.6547 12.8688 11.2718 12.5153 10.8732 12.1427C10.0572 11.3801 9.22954 10.5878 9.00376 10.3167L8.0816 11.0845ZM16.6 9.05878C16.6 7.60688 15.4522 6.4 14 6.4V7.6C14.7569 7.6 15.4 8.23662 15.4 9.05878H16.6ZM14 6.4C12.5478 6.4 11.4 7.60688 11.4 9.05878H12.6C12.6 8.23662 13.2431 7.6 14 7.6V6.4ZM15.9184 11.0845C16.5647 10.3084 16.6 9.57341 16.6 9.05878H15.4C15.4 9.47109 15.3749 9.8619 14.9962 10.3167L15.9184 11.0845ZM14.9962 10.3167C14.7705 10.5878 13.9428 11.3801 13.1268 12.1427C12.7282 12.5153 12.3453 12.8688 12.062 13.1294C11.9204 13.2596 11.8037 13.3665 11.7225 13.4408C11.6819 13.478 11.6502 13.5069 11.6286 13.5266C11.6179 13.5365 11.6096 13.544 11.6041 13.549C11.6013 13.5515 11.5993 13.5534 11.5979 13.5547C11.5972 13.5553 11.5967 13.5558 11.5963 13.5561C11.5962 13.5563 11.596 13.5564 11.5959 13.5564C11.5959 13.5565 11.5959 13.5565 11.5959 13.5565C11.5958 13.5565 11.5958 13.5565 12 14C12.4042 14.4435 12.4042 14.4434 12.4042 14.4434C12.4042 14.4434 12.4043 14.4434 12.4043 14.4433C12.4044 14.4432 12.4046 14.4431 12.4047 14.4429C12.4051 14.4426 12.4057 14.4421 12.4064 14.4414C12.4078 14.4401 12.41 14.4381 12.4128 14.4356C12.4185 14.4304 12.4268 14.4228 12.4378 14.4128C12.4596 14.3929 12.4916 14.3636 12.5326 14.3261C12.6144 14.2513 12.7318 14.1437 12.8743 14.0127C13.1591 13.7508 13.5445 13.3949 13.9462 13.0195C14.7307 12.2863 15.6317 11.4289 15.9184 11.0845L14.9962 10.3167Z" fill="#28293D"/>
</svg>
