<svg width="24" height="24" viewBox="0 0 24 24" fill="none" xmlns="http://www.w3.org/2000/svg">
<circle cx="12" cy="12" r="10.4" transform="rotate(-180 12 12)" stroke="#28293D" stroke-width="1.2"/>
<mask id="path-2-inside-1_402_13718" fill="white">
<path d="M7 10.5L12 15.5L17 10.5L7 10.5Z"/>
</mask>
<path d="M12 15.5L11.1515 16.3485L12 17.1971L12.8485 16.3485L12 15.5ZM7 10.5L7 9.3L4.10294 9.3L6.15147 11.3485L7 10.5ZM17 10.5L17.8485 11.3485L19.8971 9.3L17 9.3L17 10.5ZM12.8485 14.6515L7.84853 9.65147L6.15147 11.3485L11.1515 16.3485L12.8485 14.6515ZM7 11.7L17 11.7L17 9.3L7 9.3L7 11.7ZM16.1515 9.65147L11.1515 14.6515L12.8485 16.3485L17.8485 11.3485L16.1515 9.65147Z" fill="#28293D" mask="url(#path-2-inside-1_402_13718)"/>
</svg>
