<svg width="24" height="24" viewBox="0 0 24 24" fill="none" xmlns="http://www.w3.org/2000/svg">
<path d="M3 12L2.57574 11.5757L2.15147 12L2.57574 12.4243L3 12ZM21 12L21.4243 12.4243L21.8485 12L21.4243 11.5757L21 12ZM8.57574 5.57574L2.57574 11.5757L3.42426 12.4243L9.42426 6.42426L8.57574 5.57574ZM2.57574 12.4243L8.57574 18.4243L9.42426 17.5757L3.42426 11.5757L2.57574 12.4243ZM15.4243 18.4243L21.4243 12.4243L20.5757 11.5757L14.5757 17.5757L15.4243 18.4243ZM21.4243 11.5757L15.4243 5.57574L14.5757 6.42426L20.5757 12.4243L21.4243 11.5757Z" fill="#28293D"/>
</svg>
