<svg width="24" height="24" viewBox="0 0 24 24" fill="none" xmlns="http://www.w3.org/2000/svg">
<path d="M12 8L11.5757 8.42426L12 8.84853L12.4243 8.42426L12 8ZM12 16L12.4243 15.5757L12 15.1515L11.5757 15.5757L12 16ZM7.57574 4.42426L11.5757 8.42426L12.4243 7.57574L8.42426 3.57574L7.57574 4.42426ZM12.4243 8.42426L16.4243 4.42426L15.5757 3.57574L11.5757 7.57574L12.4243 8.42426ZM8.42426 20.4243L12.4243 16.4243L11.5757 15.5757L7.57574 19.5757L8.42426 20.4243ZM11.5757 16.4243L15.5757 20.4243L16.4243 19.5757L12.4243 15.5757L11.5757 16.4243Z" fill="#28293D"/>
</svg>
