<svg width="24" height="24" viewBox="0 0 24 24" fill="none" xmlns="http://www.w3.org/2000/svg">
<path d="M7.5 16L7.92426 16.4243L8.94853 15.4H7.5V16ZM6 17.5L5.57574 17.9243L6 18.3485L6.42426 17.9243L6 17.5ZM4.5 16V15.4H3.05147L4.07574 16.4243L4.5 16ZM18 5.5L18.4243 5.07574L18 4.65147L17.5757 5.07574L18 5.5ZM16.5 7L16.0757 6.57574L15.0515 7.6H16.5V7ZM19.5 7V7.6H20.9485L19.9243 6.57574L19.5 7ZM7.07574 15.5757L5.57574 17.0757L6.42426 17.9243L7.92426 16.4243L7.07574 15.5757ZM6.42426 17.0757L4.92426 15.5757L4.07574 16.4243L5.57574 17.9243L6.42426 17.0757ZM4.5 16.6H6V15.4H4.5V16.6ZM6 16.6H7.5V15.4H6V16.6ZM6.6 16V8H5.4V16H6.6ZM11.4 8V15H12.6V8H11.4ZM17.5757 5.07574L16.0757 6.57574L16.9243 7.42426L18.4243 5.92426L17.5757 5.07574ZM19.9243 6.57574L18.4243 5.07574L17.5757 5.92426L19.0757 7.42426L19.9243 6.57574ZM16.5 7.6H18V6.4H16.5V7.6ZM18 7.6H19.5V6.4H18V7.6ZM17.4 7V15H18.6V7H17.4ZM15 18.6C16.9882 18.6 18.6 16.9882 18.6 15H17.4C17.4 16.3255 16.3255 17.4 15 17.4V18.6ZM11.4 15C11.4 16.9882 13.0118 18.6 15 18.6V17.4C13.6745 17.4 12.6 16.3255 12.6 15H11.4ZM9 5.6C10.3255 5.6 11.4 6.67452 11.4 8H12.6C12.6 6.01178 10.9882 4.4 9 4.4V5.6ZM6.6 8C6.6 6.67452 7.67452 5.6 9 5.6V4.4C7.01178 4.4 5.4 6.01177 5.4 8H6.6Z" fill="#28293D"/>
</svg>
