<svg width="24" height="24" viewBox="0 0 24 24" fill="none" xmlns="http://www.w3.org/2000/svg">
<path d="M3 10L5 10L6.15003 12M6.15003 12H20.85C20.532 13.5665 19.7258 14.9557 18.5971 16.0019C18.5649 16.0006 18.5325 16 18.5 16C17.4766 16 16.5968 16.6149 16.21 17.4954C15.3695 17.8213 14.4556 18 13.5 18C12.5444 18 11.6305 17.8213 10.79 17.4954C10.4032 16.6149 9.52339 16 8.5 16C8.46749 16 8.43513 16.0006 8.40293 16.0019C7.27422 14.9557 6.46801 13.5665 6.15003 12Z" stroke="#555770" stroke-width="2"/>
<path d="M11 18.5C11 19.8807 9.88071 21 8.5 21C7.11929 21 6 19.8807 6 18.5C6 17.1518 7.0672 16.0528 8.40293 16.0018C8.43513 16.0006 8.46749 16 8.5 16C9.52339 16 10.4032 16.6149 10.79 17.4954C10.925 17.8029 11 18.1427 11 18.5Z" stroke="#3E7BFA" stroke-width="2"/>
<path d="M21 18.5C21 19.8807 19.8807 21 18.5 21C17.1193 21 16 19.8807 16 18.5C16 18.1427 16.075 17.8029 16.21 17.4954C16.5968 16.6149 17.4766 16 18.5 16C18.5325 16 18.5649 16.0006 18.5971 16.0018C19.9328 16.0528 21 17.1518 21 18.5Z" stroke="#3E7BFA" stroke-width="2"/>
</svg>
