<svg width="24" height="24" viewBox="0 0 24 24" fill="none" xmlns="http://www.w3.org/2000/svg">
<path d="M10.2676 20C10.6134 20.5978 11.2597 21 12 21C12.7403 21 13.3866 20.5978 13.7324 20M10.2676 20H9V15.1973H15V20H13.7324M10.2676 20H13.7324" stroke="#555770" stroke-width="2"/>
<path d="M12 4C8.68629 4 6 6.68629 6 10C6 12.2208 7.2066 14.1599 9 15.1973H15C16.7934 14.1599 18 12.2208 18 10C18 6.68629 15.3137 4 12 4Z" stroke="#3E7BFA" stroke-width="2"/>
<path d="M9 17.5H15" stroke="#555770"/>
<path d="M12 15V11M12 11L10 9M12 11L14 9" stroke="#3E7BFA"/>
</svg>
