<svg width="24" height="24" viewBox="0 0 24 24" fill="none" xmlns="http://www.w3.org/2000/svg">
<g clip-path="url(#clip0_402_17683)">
<path d="M2.47487 5.30332C1.59197 7.31769 1.975 9.7532 3.62396 11.4022C5.27293 13.0511 7.70843 13.4342 9.7228 12.5513L18.3848 21.2132C18.7753 21.6038 19.4085 21.6038 19.799 21.2132L21.2132 19.799C21.6037 19.4085 21.6037 18.7753 21.2132 18.3848L12.5512 9.72283C13.4341 7.70846 13.0511 5.27295 11.4021 3.62399C9.75318 1.97503 7.31767 1.592 5.3033 2.4749L8.83883 6.01043L6.01041 8.83886L2.47487 5.30332Z" stroke="#555770" stroke-width="2"/>
<mask id="mask0_402_17683" style="mask-type:alpha" maskUnits="userSpaceOnUse" x="2" y="0" width="22" height="23">
<path d="M2.18506 2.19775L22.1336 22.1463L23.0002 21.2797L23.0002 8.49999L14.6914 0.206104L4.17671 0.206104L2.18506 2.19775Z" fill="black"/>
</mask>
<g mask="url(#mask0_402_17683)">
<path d="M2.47487 5.30332C1.59197 7.31769 1.975 9.7532 3.62396 11.4022C5.27293 13.0511 7.70843 13.4342 9.7228 12.5513L18.3848 21.2132C18.7753 21.6038 19.4085 21.6038 19.799 21.2132L21.2132 19.799C21.6037 19.4085 21.6037 18.7753 21.2132 18.3848L12.5512 9.72283C13.4341 7.70846 13.0511 5.27295 11.4021 3.62399C9.75318 1.97503 7.31767 1.592 5.3033 2.4749L8.83883 6.01043L6.01041 8.83886L2.47487 5.30332Z" stroke="#3E7BFA" stroke-width="2"/>
</g>
</g>
<defs>
<clipPath id="clip0_402_17683">
<rect width="24" height="24" fill="white"/>
</clipPath>
</defs>
</svg>
