<svg width="24" height="24" viewBox="0 0 24 24" fill="none" xmlns="http://www.w3.org/2000/svg">
<path d="M8 5L8 4L7 4L7 5L8 5ZM7.99999 10L6.99999 10L6.99998 11L7.99999 11L7.99999 10ZM16 10L16 11L17 11L17 10L16 10ZM16 5L17 5L17 4L16 4L16 5ZM5 21L4 21L5 21ZM5 3L4 3L5 3ZM6 23L18 23L18 21L6 21L6 23ZM20 21L20 3L18 3L18 21L20 21ZM4 3L4 21L6 21L6 3L4 3ZM18 1L6 1L6 3L18 3L18 1ZM7 5L6.99999 10L8.99999 10L9 5L7 5ZM7.99999 11L16 11L16 9L7.99999 9L7.99999 11ZM17 10L17 5L15 5L15 10L17 10ZM16 4L8 4L8 6L16 6L16 4ZM6.99999 17L8.99999 17L8.99999 15L6.99999 15L6.99999 17ZM11 17L13 17L13 15L11 15L11 17ZM15 17L17 17L17 15L15 15L15 17ZM6.99999 14L8.99999 14L8.99999 12L6.99999 12L6.99999 14ZM11 14L13 14L13 12L11 12L11 14ZM15 14L17 14L17 12L15 12L15 14ZM6.99999 20L8.99999 20L8.99999 18L6.99998 18L6.99999 20ZM11 20L13 20L13 18L11 18L11 20ZM15 20L17 20L17 18L15 18L15 20ZM20 3C20 1.89543 19.1046 1 18 1L18 3L18 3L20 3ZM18 23C19.1046 23 20 22.1046 20 21L18 21L18 21L18 23ZM6 21L4 21C4 22.1046 4.89543 23 6 23L6 21ZM6 3L6 1C4.89543 1 4 1.89543 4 3L6 3Z" fill="#28293D"/>
</svg>
