<svg width="24" height="24" viewBox="0 0 24 24" fill="none" xmlns="http://www.w3.org/2000/svg">
<path d="M13 18L8.74228e-08 18L-8.74228e-08 20L13 20L13 18Z" fill="#28293D"/>
<mask id="mask0_402_15933" style="mask-type:alpha" maskUnits="userSpaceOnUse" x="1" y="3" width="22" height="17">
<path d="M1 19.5V3H23V6H19V8H13V19.5H1Z" fill="white"/>
</mask>
<g mask="url(#mask0_402_15933)">
<path d="M20 5V4V5ZM20 4H4V6H20V4ZM2 6V16H4V6H2ZM4 18H20V16H4V18ZM20 6V16H22V6H20ZM20 18C21.1046 18 22 17.1046 22 16H20V18ZM4 4C2.89543 4 2 4.89543 2 6H4H4V4ZM20 6H22C22 4.89543 21.1046 4 20 4V6ZM2 16C2 17.1046 2.89543 18 4 18V16H2Z" fill="#28293D"/>
</g>
<path d="M18.4 9L18.4 10L18.4 9ZM19.6 9L19.6 10L19.6 9ZM17 21L21 21L21 19L17 19L17 21ZM23 19L23 10L21 10L21 19L23 19ZM15 10L15 19L17 19L17 10L15 10ZM18.4 8L17 8L17 10L18.4 10L18.4 8ZM21 8L19.6 8L19.6 10L21 10L21 8ZM19.6 8L18.4 8L18.4 10L19.6 10L19.6 8ZM23 10C23 8.89543 22.1046 8 21 8L21 10L21 10L23 10ZM21 21C22.1046 21 23 20.1046 23 19L21 19L21 19L21 21ZM17 19L15 19C15 20.1046 15.8954 21 17 21L17 19ZM17 10L17 8C15.8954 8 15 8.89543 15 10L17 10Z" fill="#28293D"/>
</svg>
