<svg width="24" height="24" viewBox="0 0 24 24" fill="none" xmlns="http://www.w3.org/2000/svg">
<path d="M24 18L8.74228e-08 18L-8.74228e-08 20L24 20L24 18Z" fill="#28293D"/>
<path d="M4 18H21V16H4V18ZM2 6V16H4V6H2ZM13 4H4V6H13V4ZM4 6H4V4C2.89543 4 2 4.89543 2 6H4ZM4 16H2C2 17.1046 2.89543 18 4 18V16Z" fill="#28293D"/>
<path d="M21 5V7.5H23V5H21ZM22 6.5H16V8.5H22V6.5ZM17 7.5V5H15V7.5H17ZM16 6.5H15.1V8.5H16V6.5ZM14 7.6V12H16V7.6H14ZM16 14H22V12H16V14ZM24 12V7.6H22V12H24ZM22.9 6.5H22V8.5H22.9V6.5ZM24 7.6C24 6.99249 23.5075 6.5 22.9 6.5V8.5C22.4029 8.5 22 8.09706 22 7.6H24ZM15.1 6.5C14.4925 6.5 14 6.99249 14 7.6H16C16 8.09706 15.5971 8.5 15.1 8.5V6.5ZM22 14C23.1046 14 24 13.1046 24 12H22V14ZM19 3C20.1046 3 21 3.89543 21 5H23C23 2.79086 21.2091 1 19 1V3ZM14 12C14 13.1046 14.8954 14 16 14V12H14ZM19 1C16.7909 1 15 2.79086 15 5H17C17 3.89543 17.8954 3 19 3V1Z" fill="#28293D"/>
</svg>
