<svg width="24" height="24" viewBox="0 0 24 24" fill="none" xmlns="http://www.w3.org/2000/svg">
<path d="M10 10V9H9V10H10ZM10 14H9V15H10V14ZM14 14V15H15V14H14ZM14 10H15V9H14V10ZM9 10V14H11V10H9ZM10 15H14V13H10V15ZM15 14V10H13V14H15ZM14 9H10V11H14V9ZM10 5H7V7H10V5ZM9 3V6H11V3H9ZM17 5H14V7H17V5ZM14 5H10V7H14V5ZM13 3V6H15V3H13ZM19 10V7H17V10H19ZM21 9H18V11H21V9ZM19 17V14H17V17H19ZM19 14V10H17V14H19ZM21 13H18V15H21V13ZM14 19H17V17H14V19ZM15 21V18H13V21H15ZM7 19H10V17H7V19ZM10 19H14V17H10V19ZM11 21V18H9V21H11ZM5 14V17H7V14H5ZM3 15H6V13H3V15ZM5 7V10H7V7H5ZM5 10V14H7V10H5ZM3 11H6V9H3V11ZM17 7H19C19 5.89543 18.1046 5 17 5V7ZM17 17V19C18.1046 19 19 18.1046 19 17H17ZM7 17H5C5 18.1046 5.89543 19 7 19V17ZM7 5C5.89543 5 5 5.89543 5 7H7V5Z" fill="#28293D"/>
</svg>
