<svg width="24" height="24" viewBox="0 0 24 24" fill="none" xmlns="http://www.w3.org/2000/svg">
<path d="M22 16V6H20V16H22ZM20 4H4V6H20V4ZM2 6V16H4V6H2ZM7 21H12V19H7V21ZM12 21H17V19H12V21ZM4 18H12V16H4V18ZM12 18H20V16H12V18ZM13 20V17H11V20H13ZM4 4C2.89543 4 2 4.89543 2 6H4H4V4ZM22 6C22 4.89543 21.1046 4 20 4V6V6H22ZM20 16V18C21.1046 18 22 17.1046 22 16H20ZM2 16C2 17.1046 2.89543 18 4 18V16H2Z" fill="#28293D"/>
<path d="M13.222 10.1991C13.222 10.8515 12.6847 11.3982 11.9998 11.3982V13.3982C13.7695 13.3982 15.222 11.9758 15.222 10.1991H13.222ZM11.9998 11.3982C11.3149 11.3982 10.7775 10.8515 10.7775 10.1991H8.77755C8.77755 11.9758 10.2301 13.3982 11.9998 13.3982V11.3982ZM10.7775 10.1991C10.7775 9.54669 11.3149 9 11.9998 9V7C10.2301 7 8.77755 8.42246 8.77755 10.1991H10.7775ZM11.9998 9C12.6847 9 13.222 9.54669 13.222 10.1991H15.222C15.222 8.42246 13.7695 7 11.9998 7V9ZM11.9998 16C13.1573 16 14.1457 16.5716 14.7018 17.5099L16.4223 16.4901C15.499 14.9324 13.8498 14 11.9998 14V16ZM9.29774 17.5099C9.85387 16.5716 10.8423 16 11.9998 16V14C10.1497 14 8.50053 14.9324 7.57726 16.4901L9.29774 17.5099Z" fill="#28293D"/>
</svg>
