<svg width="24" height="24" viewBox="0 0 24 24" fill="none" xmlns="http://www.w3.org/2000/svg">
<path d="M20.5693 17.403L21.3109 18.0739V18.0739L20.5693 17.403ZM18 14.7506C18 13.7551 18.8245 13 19.7887 13V11C17.8166 11 16 12.5563 16 14.7506H18ZM19.7887 13C20.7247 13 21.5177 13.7278 21.5177 14.7506H23.5177C23.5177 12.5836 21.7892 11 19.7887 11V13ZM21.5177 14.7506C21.5177 15.0159 21.4381 15.1845 21.1768 15.453C21.0244 15.6096 20.8495 15.7598 20.6034 15.9784C20.3709 16.1848 20.099 16.4322 19.8277 16.7321L21.3109 18.0739C21.5062 17.858 21.7112 17.6694 21.9315 17.4737C22.1382 17.2902 22.392 17.0719 22.6101 16.8479C23.0897 16.355 23.5177 15.7133 23.5177 14.7506H21.5177ZM19.8277 16.7321C19.4489 17.1508 19.197 17.6535 19.0399 18.0861C18.8864 18.5085 18.7887 18.9604 18.7887 19.3186H20.7887C20.7887 19.2675 20.8157 19.0553 20.9197 18.769C21.0199 18.493 21.1583 18.2425 21.3109 18.0739L19.8277 16.7321ZM18.7887 20.335V22.0017H20.7887V20.335H18.7887Z" fill="#28293D"/>
<mask id="mask0_402_15852" style="mask-type:alpha" maskUnits="userSpaceOnUse" x="0" y="0" width="24" height="24">
<path d="M16 0H0V24H14V9H24V0H16Z" fill="white"/>
</mask>
<g mask="url(#mask0_402_15852)">
<path d="M21 19H4.72052L21 5.16244V19Z" stroke="#28293D" stroke-width="2"/>
<path d="M2 20L16.1176 8V20H2Z" fill="#28293D"/>
</g>
</svg>
