<svg width="24" height="24" viewBox="0 0 24 24" fill="none" xmlns="http://www.w3.org/2000/svg">
<path d="M7 8H17V6H7V8ZM17 16H7V18H17V16ZM10 12C10 10.3431 8.65685 9 7 9V11C7.55228 11 8 11.4477 8 12H10ZM7 15C8.65685 15 10 13.6569 10 12H8C8 12.5523 7.55228 13 7 13V15ZM4 12C4 13.6569 5.34315 15 7 15V13C6.44772 13 6 12.5523 6 12H4ZM6 12C6 11.4477 6.44772 11 7 11V9C5.34315 9 4 10.3431 4 12H6ZM7 16C4.79086 16 3 14.2091 3 12H1C1 15.3137 3.68629 18 7 18V16ZM21 12C21 14.2091 19.2091 16 17 16V18C20.3137 18 23 15.3137 23 12H21ZM17 8C19.2091 8 21 9.79086 21 12H23C23 8.68629 20.3137 6 17 6V8ZM7 6C3.68629 6 1 8.68629 1 12H3C3 9.79086 4.79086 8 7 8V6Z" fill="#28293D"/>
</svg>
