<svg width="24" height="24" viewBox="0 0 24 24" fill="none" xmlns="http://www.w3.org/2000/svg">
<mask id="mask0_402_19004" style="mask-type:alpha" maskUnits="userSpaceOnUse" x="3" y="3" width="18" height="18">
<path d="M21 3L21 5L19 5L19 3L21 3Z" fill="white"/>
<path d="M5 3L5 5L3 5L3 3L5 3Z" fill="white"/>
<path d="M9 3L9 5L7 5L7 3L9 3Z" fill="white"/>
<path d="M9 11L9 13L7 13L7 11L9 11Z" fill="white"/>
<path d="M9 19L9 21L7 21L7 19L9 19Z" fill="white"/>
<path d="M13 3L13 21L11 21L11 3L13 3Z" fill="white"/>
<path d="M17 3L17 5L15 5L15 3L17 3Z" fill="white"/>
<path d="M17 11L17 13L15 13L15 11L17 11Z" fill="white"/>
<path d="M17 19L17 21L15 21L15 19L17 19Z" fill="white"/>
<path d="M21 7L21 9L19 9L19 7L21 7Z" fill="white"/>
<path d="M5 7L5 9L3 9L3 7L5 7Z" fill="white"/>
<path d="M21 11L21 13L19 13L19 11L21 11Z" fill="white"/>
<path d="M5 11L5 13L3 13L3 11L5 11Z" fill="white"/>
<path d="M21 15L21 17L19 17L19 15L21 15Z" fill="white"/>
<path d="M5 15L5 17L3 17L3 15L5 15Z" fill="white"/>
<path d="M21 19L21 21L19 21L19 19L21 19Z" fill="white"/>
<path d="M5 19L5 21L3 21L3 19L5 19Z" fill="white"/>
</mask>
<g mask="url(#mask0_402_19004)">
<path d="M11 20H4V12V4H11V20ZM13 20V4H20V12V20H13Z" stroke="#3E7BFA" stroke-width="2"/>
<path d="M12 3V21" stroke="#555770" stroke-width="2"/>
</g>
</svg>
