<svg width="24" height="24" viewBox="0 0 24 24" fill="none" xmlns="http://www.w3.org/2000/svg">
<mask id="mask0_402_19012" style="mask-type:alpha" maskUnits="userSpaceOnUse" x="3" y="3" width="18" height="18">
<path d="M21 21L19 21L19 5L21 5L21 21Z" fill="white"/>
<path d="M21 5L19 5L19 3L21 3L21 5Z" fill="white"/>
<path d="M5 9L3 9L3 7L5 7L5 9Z" fill="white"/>
<path d="M5 13L3 13L3 11L5 11L5 13Z" fill="white"/>
<path d="M5 17L3 17L3 15L5 15L5 17Z" fill="white"/>
<path d="M17 21L15 21L15 19L17 19L17 21Z" fill="white"/>
<path d="M13 21L11 21L11 19L13 19L13 21Z" fill="white"/>
<path d="M9 21L7 21L7 19L9 19L9 21Z" fill="white"/>
<path d="M5 21L3 21L3 19L5 19L5 21Z" fill="white"/>
<path d="M19 5L3 5L3 3L19 3L19 5Z" fill="white"/>
</mask>
<g mask="url(#mask0_402_19012)">
<path d="M4 12L4 4L12 4L20 4L20 12L20 20L12 20L4 20L4 12Z" stroke="#3E7BFA" stroke-width="2"/>
</g>
<mask id="mask1_402_19012" style="mask-type:alpha" maskUnits="userSpaceOnUse" x="2" y="2" width="20" height="20">
<path d="M18 22L22 22L22 2L2 2L2 6L18 6L18 22Z" fill="black"/>
</mask>
<g mask="url(#mask1_402_19012)">
<mask id="mask2_402_19012" style="mask-type:alpha" maskUnits="userSpaceOnUse" x="3" y="3" width="18" height="18">
<path d="M21 21L19 21L19 5L21 5L21 21Z" fill="white"/>
<path d="M21 5L19 5L19 3L21 3L21 5Z" fill="white"/>
<path d="M5 9L3 9L3 7L5 7L5 9Z" fill="white"/>
<path d="M5 13L3 13L3 11L5 11L5 13Z" fill="white"/>
<path d="M5 17L3 17L3 15L5 15L5 17Z" fill="white"/>
<path d="M17 21L15 21L15 19L17 19L17 21Z" fill="white"/>
<path d="M13 21L11 21L11 19L13 19L13 21Z" fill="white"/>
<path d="M9 21L7 21L7 19L9 19L9 21Z" fill="white"/>
<path d="M5 21L3 21L3 19L5 19L5 21Z" fill="white"/>
<path d="M19 5L3 5L3 3L19 3L19 5Z" fill="white"/>
</mask>
<g mask="url(#mask2_402_19012)">
<path d="M4 12L4 4L12 4L20 4L20 12L20 20L12 20L4 20L4 12Z" stroke="#555770" stroke-width="2"/>
</g>
</g>
</svg>
