<svg width="24" height="24" viewBox="0 0 24 24" fill="none" xmlns="http://www.w3.org/2000/svg">
<mask id="mask0_402_18988" style="mask-type:alpha" maskUnits="userSpaceOnUse" x="3" y="3" width="18" height="18">
<path d="M21 3L21 5L3.5 5L3.5 3L21 3Z" fill="white"/>
<path d="M3.5 3L3.5 5L3 5L3 3L3.5 3Z" fill="white"/>
<path d="M9 11L9 13L7 13L7 11L9 11Z" fill="white"/>
<path d="M9 19L9 21L7 21L7 19L9 19Z" fill="white"/>
<path d="M13 7L13 9L11 9L11 7L13 7Z" fill="white"/>
<path d="M13 11L13 13L11 13L11 11L13 11Z" fill="white"/>
<path d="M13 15L13 17L11 17L11 15L13 15Z" fill="white"/>
<path d="M13 19L13 21L11 21L11 19L13 19Z" fill="white"/>
<path d="M17 11L17 13L15 13L15 11L17 11Z" fill="white"/>
<path d="M17 19L17 21L15 21L15 19L17 19Z" fill="white"/>
<path d="M21 7L21 9L19 9L19 7L21 7Z" fill="white"/>
<path d="M5 7L5 9L3 9L3 7L5 7Z" fill="white"/>
<path d="M21 11L21 13L19 13L19 11L21 11Z" fill="white"/>
<path d="M5 11L5 13L3 13L3 11L5 11Z" fill="white"/>
<path d="M21 15L21 17L19 17L19 15L21 15Z" fill="white"/>
<path d="M5 15L5 17L3 17L3 15L5 15Z" fill="white"/>
<path d="M21 19L21 21L19 21L19 19L21 19Z" fill="white"/>
<path d="M5 19L5 21L3 21L3 19L5 19Z" fill="white"/>
</mask>
<g mask="url(#mask0_402_18988)">
<path d="M20 11H13V4H20V11ZM11 4V11H4V4H11ZM4 13H11V20H4V13ZM13 13H20V20H13V13Z" stroke="#3E7BFA" stroke-width="2"/>
<path d="M3 4H12H21" stroke="#555770" stroke-width="2"/>
</g>
</svg>
