<svg width="24" height="24" viewBox="0 0 24 24" fill="none" xmlns="http://www.w3.org/2000/svg">
<mask id="mask0_402_19008" style="mask-type:alpha" maskUnits="userSpaceOnUse" x="3" y="3" width="18" height="18">
<path d="M3 3H5V5H3V3Z" fill="white"/>
<path d="M3 19H5V21H3V19Z" fill="white"/>
<path d="M3 15H5V17H3V15Z" fill="white"/>
<path d="M11 15H13V17H11V15Z" fill="white"/>
<path d="M19 15H21V17H19V15Z" fill="white"/>
<path d="M3 11H21V13H3V11Z" fill="white"/>
<path d="M3 7H5V9H3V7Z" fill="white"/>
<path d="M11 7H13V9H11V7Z" fill="white"/>
<path d="M19 7H21V9H19V7Z" fill="white"/>
<path d="M7 3H9V5H7V3Z" fill="white"/>
<path d="M7 19H9V21H7V19Z" fill="white"/>
<path d="M11 3H13V5H11V3Z" fill="white"/>
<path d="M11 19H13V21H11V19Z" fill="white"/>
<path d="M15 3H17V5H15V3Z" fill="white"/>
<path d="M15 19H17V21H15V19Z" fill="white"/>
<path d="M19 3H21V5H19V3Z" fill="white"/>
<path d="M19 19H21V21H19V19Z" fill="white"/>
</mask>
<g mask="url(#mask0_402_19008)">
<path d="M11 4V12V20H4V12V4H11ZM13 12V4H20V12V20H13V12Z" stroke="#3E7BFA" stroke-width="2"/>
<path d="M21 12H3" stroke="#555770" stroke-width="2"/>
</g>
</svg>
