<svg width="24" height="24" viewBox="0 0 24 24" fill="none" xmlns="http://www.w3.org/2000/svg">
<mask id="mask0_402_18984" style="mask-type:alpha" maskUnits="userSpaceOnUse" x="3" y="3" width="18" height="18">
<path d="M21 21L19 21L19 3.5L21 3.5L21 21Z" fill="white"/>
<path d="M21 3.5L19 3.5L19 3L21 3L21 3.5Z" fill="white"/>
<path d="M13 9L11 9L11 7L13 7L13 9Z" fill="white"/>
<path d="M5 9L3 9L3 7L5 7L5 9Z" fill="white"/>
<path d="M17 13L15 13L15 11L17 11L17 13Z" fill="white"/>
<path d="M13 13L11 13L11 11L13 11L13 13Z" fill="white"/>
<path d="M9 13L7 13L7 11L9 11L9 13Z" fill="white"/>
<path d="M5 13L3 13L3 11L5 11L5 13Z" fill="white"/>
<path d="M13 17L11 17L11 15L13 15L13 17Z" fill="white"/>
<path d="M5 17L3 17L3 15L5 15L5 17Z" fill="white"/>
<path d="M17 21L15 21L15 19L17 19L17 21Z" fill="white"/>
<path d="M17 5L15 5L15 3L17 3L17 5Z" fill="white"/>
<path d="M13 21L11 21L11 19L13 19L13 21Z" fill="white"/>
<path d="M13 5L11 5L11 3L13 3L13 5Z" fill="white"/>
<path d="M9 21L7 21L7 19L9 19L9 21Z" fill="white"/>
<path d="M9 5L7 5L7 3L9 3L9 5Z" fill="white"/>
<path d="M5 21L3 21L3 19L5 19L5 21Z" fill="white"/>
<path d="M5 5L3 5L3 3L5 3L5 5Z" fill="white"/>
</mask>
<g mask="url(#mask0_402_18984)">
<path d="M20 11H13V4H20V11ZM11 4V11H4V4H11ZM4 13H11V20H4V13ZM13 13H20V20H13V13Z" stroke="#3E7BFA" stroke-width="2"/>
<path d="M20 21V12V3" stroke="#555770" stroke-width="2"/>
</g>
</svg>
