<svg width="24" height="24" viewBox="0 0 24 24" fill="none" xmlns="http://www.w3.org/2000/svg">
<path d="M12 10V13M12 13V16M12 13H9M12 13H15" stroke="#3E7BFA" stroke-width="2"/>
<path d="M6 21L6 22H6V21ZM18 21V20V21ZM5 4L4 4L5 4ZM5 20H6H5ZM19 20H18H19ZM19 8H20C20 7.73478 19.8946 7.48043 19.7071 7.29289L19 8ZM14 3L14.7071 2.29289C14.5196 2.10536 14.2652 2 14 2V3ZM6 3V2V3ZM14 8H13V9H14V8ZM6 22H18V20H6V22ZM4 4L4 20H6L6 4L4 4ZM20 20L20 8H18L18 20H20ZM14 2L6 2V4L14 4V2ZM19.7071 7.29289L14.7071 2.29289L13.2929 3.70711L18.2929 8.70711L19.7071 7.29289ZM13 3V8H15V3H13ZM14 9H19V7H14V9ZM18 22C19.1046 22 20 21.1046 20 20H18V22ZM6 20H4C4 21.1046 4.89543 22 6 22L6 20ZM6 4V2C4.89543 2 4 2.89543 4 4L6 4Z" fill="#555770"/>
</svg>
