<svg width="24" height="24" viewBox="0 0 24 24" fill="none" xmlns="http://www.w3.org/2000/svg">
<path d="M18.3612 16.054C18.3612 18.8083 16.1872 21 13.5556 21V23C17.3366 23 20.3612 19.8675 20.3612 16.054H18.3612ZM13.5556 21C10.9239 21 8.75 18.8083 8.75 16.054H6.75C6.75 19.8675 9.77458 23 13.5556 23V21ZM20.3612 16.054V12.2703H18.3612V16.054H20.3612Z" fill="#3E7BFA"/>
<path d="M21 9.56757C21 10.5306 20.2439 11.2703 19.3611 11.2703V13.2703C21.3932 13.2703 23 11.5899 23 9.56757H21ZM19.3611 11.2703C18.4783 11.2703 17.7222 10.5306 17.7222 9.56757H15.7222C15.7222 11.5899 17.329 13.2703 19.3611 13.2703V11.2703ZM17.7222 9.56757C17.7222 8.60454 18.4783 7.86487 19.3611 7.86487V5.86487C17.329 5.86487 15.7222 7.54528 15.7222 9.56757H17.7222ZM19.3611 7.86487C20.2439 7.86487 21 8.60454 21 9.56757H23C23 7.54528 21.3932 5.86487 19.3611 5.86487V7.86487ZM11.5 11.1892C11.5 13.3463 9.79865 15.0541 7.74994 15.0541V17.0541C10.9479 17.0541 13.5 14.4056 13.5 11.1892H11.5ZM7.74994 15.0541C5.70127 15.0541 4 13.3464 4 11.1892H2C2 14.4056 4.55188 17.0541 7.74994 17.0541V15.0541ZM4 11.1892V4.08109H2V11.1892H4ZM4 4.08109H5.6389V2.08109H4V4.08109ZM13.5 11.1892V4.08109H11.5V11.1892H13.5ZM11.5 2.08109H9.86114V4.08109H11.5V2.08109ZM13.5 4.08109C13.5 2.97652 12.6046 2.08109 11.5 2.08109V4.08109V4.08109H13.5ZM4 4.08109L4 4.08109V2.08109C2.89543 2.08109 2 2.97652 2 4.08109H4Z" fill="#555770"/>
<path d="M6.63867 2C6.63867 1.44772 6.19096 1 5.63867 1C5.08639 1 4.63867 1.44772 4.63867 2H6.63867ZM4.63867 4.16216C4.63867 4.71445 5.08639 5.16216 5.63867 5.16216C6.19096 5.16216 6.63867 4.71445 6.63867 4.16216H4.63867ZM10.8609 2C10.8609 1.44772 10.4132 1 9.86091 1C9.30863 1 8.86091 1.44772 8.86091 2H10.8609ZM8.86091 4.16216C8.86091 4.71445 9.30863 5.16216 9.86091 5.16216C10.4132 5.16216 10.8609 4.71445 10.8609 4.16216H8.86091ZM6.63867 3.08108V2H4.63867V3.08108H6.63867ZM4.63867 3.08108V4.16216H6.63867V3.08108H4.63867ZM10.8609 3.08108V2H8.86091V3.08108H10.8609ZM8.86091 3.08108V4.16216H10.8609V3.08108H8.86091Z" fill="#3E7BFA"/>
</svg>
