<svg width="24" height="24" viewBox="0 0 24 24" fill="none" xmlns="http://www.w3.org/2000/svg">
<mask id="path-1-inside-1_402_15286" fill="white">
<path d="M20 20H4C2.89543 20 2 19.1046 2 18V7V6C2 4.89543 2.89543 4 4 4H9L11 6H12H17H21C21.5523 6 22 6.44772 22 7V18C22 19.1046 21.1046 20 20 20Z"/>
</mask>
<path d="M12 14H11C11 14.3603 11.1938 14.6927 11.5073 14.8702C11.8208 15.0477 12.2056 15.0429 12.5145 14.8575L12 14ZM14.5 12.5L15.0145 11.6425L14.5 11.3338L13.9855 11.6425L14.5 12.5ZM17 14L16.4855 14.8575C16.7944 15.0429 17.1792 15.0477 17.4927 14.8702C17.8062 14.6927 18 14.3603 18 14H17ZM11 6V14H13V6H11ZM12.5145 14.8575L15.0145 13.3575L13.9855 11.6425L11.4855 13.1425L12.5145 14.8575ZM13.9855 13.3575L16.4855 14.8575L17.5145 13.1425L15.0145 11.6425L13.9855 13.3575ZM18 14V6H16V14H18ZM9 4L10.4142 2.58579L9.82843 2H9V4ZM11 6L9.58579 7.41421L10.1716 8H11V6ZM4 22H20V18H4V22ZM9 2H4V6H9V2ZM0 6V7H4V6H0ZM24 18V7H20V18H24ZM0 7V18H4V7H0ZM21 4H17V8H21V4ZM17 4H12V8H17V4ZM12 4H11V8H12V4ZM12.4142 4.58579L10.4142 2.58579L7.58579 5.41421L9.58579 7.41421L12.4142 4.58579ZM24 7C24 5.34315 22.6569 4 21 4V8C20.4477 8 20 7.55229 20 7H24ZM20 22C22.2091 22 24 20.2091 24 18H20V22ZM4 18H0C0 20.2091 1.79086 22 4 22V18ZM4 2C1.79086 2 0 3.79086 0 6H4H4V2Z" fill="#28293D" mask="url(#path-1-inside-1_402_15286)"/>
</svg>
