<svg width="24" height="24" viewBox="0 0 24 24" fill="none" xmlns="http://www.w3.org/2000/svg">
<path d="M19 8L20 8C20 7.73478 19.8946 7.48043 19.7071 7.29289L19 8ZM14 3L14.7071 2.29289C14.5196 2.10536 14.2652 2 14 2L14 3ZM14 8L13 8L13 9L14 9L14 8ZM4 4L4 20L6 20L6 4L4 4ZM14 2L6 2L6 4L14 4L14 2ZM19.7071 7.29289L14.7071 2.29289L13.2929 3.70711L18.2929 8.70711L19.7071 7.29289ZM13 3L13 8L15 8L15 3L13 3ZM14 9L19 9L19 7L14 7L14 9ZM20 10.5L20 8L18 8L18 10.5L20 10.5ZM6 22L10 22L10 20L6 20L6 22ZM4 20C4 21.1046 4.89543 22 6 22L6 20L4 20ZM6 4L6 2C4.89543 2 4 2.89543 4 4L6 4Z" fill="#28293D"/>
<path d="M17.1782 19.5924L21.2929 23.7071L22.7071 22.2929L18.5924 18.1782L17.1782 19.5924ZM18.0667 16.0333C18.0667 17.7086 16.7086 19.0667 15.0333 19.0667V21.0667C17.8132 21.0667 20.0667 18.8132 20.0667 16.0333H18.0667ZM15.0333 19.0667C13.3581 19.0667 12 17.7086 12 16.0333H10C10 18.8132 12.2535 21.0667 15.0333 21.0667V19.0667ZM12 16.0333C12 14.3581 13.3581 13 15.0333 13V11C12.2535 11 10 13.2535 10 16.0333H12ZM15.0333 13C16.7086 13 18.0667 14.3581 18.0667 16.0333H20.0667C20.0667 13.2535 17.8132 11 15.0333 11V13Z" fill="#28293D"/>
</svg>
