<svg width="24" height="24" viewBox="0 0 24 24" fill="none" xmlns="http://www.w3.org/2000/svg">
<path d="M3 6V5.4H2.4V6H3ZM3 9H2.4V9.6H3V9ZM5 21L4.40207 21.0498L4.44792 21.6H5V21ZM14 22H13.4V22.6H14V22ZM14.5 22V22.6H15.1V22H14.5ZM14.5 21.5V20.9H13.9V21.5H14.5ZM20.5 21.5H21.1V20.9H20.5V21.5ZM20.5 22H19.9V22.6H20.5V22ZM21 22V22.6H21.6V22H21ZM15.5 2.5V1.9H14.9V2.5H15.5ZM19.5 2.5H20.1V1.9H19.5V2.5ZM15.7676 6L16.2869 5.69956L15.7676 6ZM3 9.6H4V8.4H3V9.6ZM3.40207 9.04983L4.40207 21.0498L5.59793 20.9502L4.59793 8.95017L3.40207 9.04983ZM14.6 18C14.6 16.3984 15.8984 15.1 17.5 15.1V13.9C15.2356 13.9 13.4 15.7356 13.4 18H14.6ZM17.5 15.1C19.1016 15.1 20.4 16.3984 20.4 18H21.6C21.6 15.7356 19.7644 13.9 17.5 13.9V15.1ZM14 22.6H14.5V21.4H14V22.6ZM15.1 22V21.5H13.9V22H15.1ZM14.5 22.1H20.5V20.9H14.5V22.1ZM19.9 21.5V22H21.1V21.5H19.9ZM20.5 22.6H21V21.4H20.5V22.6ZM21.6 22V18H20.4V22H21.6ZM16.1 5V2.5H14.9V5H16.1ZM15.5 3.1H19.5V1.9H15.5V3.1ZM18.9 2.5V5H20.1V2.5H18.9ZM18.9 5C18.9 5.7732 18.2732 6.4 17.5 6.4V7.6C18.9359 7.6 20.1 6.43594 20.1 5H18.9ZM2.4 6V9H3.6V6H2.4ZM13.4 18V21H14.6V18H13.4ZM13.4 21V22H14.6V21H13.4ZM5 21.6H14V20.4H5V21.6ZM17.5 6.4C16.9826 6.4 16.5299 6.11959 16.2869 5.69956L15.2482 6.30044C15.6968 7.07601 16.5369 7.6 17.5 7.6V6.4ZM16.2869 5.69956C16.1682 5.49425 16.1 5.256 16.1 5H14.9C14.9 5.47258 15.0266 5.9174 15.2482 6.30044L16.2869 5.69956ZM15.7676 5.4H3V6.6H15.7676V5.4ZM18.1 14.5V9H16.9V14.5H18.1ZM18.1 9V7H16.9V9H18.1ZM4 9.6H17.5V8.4H4V9.6Z" fill="#28293D"/>
</svg>
