<svg width="24" height="24" viewBox="0 0 24 24" fill="none" xmlns="http://www.w3.org/2000/svg">
<path d="M6 11.7997V8C6 5.79086 8.68629 4 12 4C15.3137 4 18 5.79086 18 8V11.7997M6 11.7997V13C6 14.1046 8.68629 15 12 15C13.5367 15 14.9385 14.8074 16 14.4907M6 11.7997C3.57111 12.5295 2 13.6913 2 15C2 17.2091 6.47715 19 12 19C14.9867 19 17.6676 18.4762 19.5 17.6458M18 11.7997V13C18 13.5923 17.2275 14.1245 16 14.4907M18 11.7997C20.4289 12.5295 22 13.6913 22 15C22 16.0144 21.0559 16.9407 19.5 17.6458M18 10C18 11.1046 15.3137 12 12 12C8.68629 12 6 11.1046 6 10M16 14.4907L19.5 17.6458M19.5 17.6458V22" stroke="#28293D" stroke-width="1.2"/>
</svg>
