<svg width="24" height="24" viewBox="0 0 24 24" fill="none" xmlns="http://www.w3.org/2000/svg">
<path d="M3.49989 18L3.00835 18.3441L3.16395 18.5664L3.43363 18.5963L3.49989 18ZM20.5001 18L20.5664 18.5963L20.8361 18.5664L20.9917 18.3441L20.5001 18ZM7.51461 4.6471C6.95806 5.41236 6.25892 6.68056 5.68232 8.29859L6.8127 8.70141C7.35657 7.17519 8.00554 6.0123 8.4851 5.3529L7.51461 4.6471ZM5.93322 9.0111C6.90172 9.60666 9.15477 11.7128 9.91418 15.1302L11.0856 14.8698C10.245 11.0872 7.76155 8.72667 6.5618 7.9889L5.93322 9.0111ZM5.89684 8.01314C4.79698 8.80534 3.32908 10.2551 2.49769 12.0617C1.65286 13.8975 1.45986 16.132 3.00835 18.3441L3.99143 17.6559C2.73991 15.868 2.87946 14.1025 3.5878 12.5633C4.30959 10.9949 5.6155 9.69466 6.59818 8.98686L5.89684 8.01314ZM3.43363 18.5963C5.0393 18.7747 8.80821 18.4005 10.9881 15.3488L10.0117 14.6512C8.19139 17.1995 4.9604 17.5586 3.56615 17.4037L3.43363 18.5963ZM10.0757 15.4243C10.3572 15.7057 11.0441 16.1 12 16.1V14.9C11.6842 14.9 11.4279 14.8343 11.24 14.7573C11.1457 14.7187 11.07 14.6777 11.0142 14.6422C10.9864 14.6245 10.9646 14.6088 10.9486 14.5964C10.9407 14.5902 10.9347 14.5852 10.9304 14.5814C10.9261 14.5776 10.9241 14.5757 10.9241 14.5757L10.0757 15.4243ZM15.5149 5.3529C15.9945 6.0123 16.6434 7.17519 17.1873 8.70141L18.3177 8.29859C17.7411 6.68056 17.0419 5.41236 16.4854 4.6471L15.5149 5.3529ZM17.4382 7.9889C16.2384 8.72667 13.755 11.0872 12.9144 14.8698L14.0858 15.1302C14.8452 11.7128 17.0983 9.60666 18.0668 9.0111L17.4382 7.9889ZM17.4018 8.98686C18.3845 9.69466 19.6904 10.9949 20.4122 12.5633C21.1205 14.1025 21.2601 15.868 20.0086 17.6559L20.9917 18.3441C22.5401 16.132 22.3471 13.8975 21.5023 12.0617C20.6709 10.2551 19.203 8.80534 18.1032 8.01314L17.4018 8.98686ZM20.4339 17.4037C19.0396 17.5586 15.8086 17.1995 13.9883 14.6512L13.0119 15.3488C15.1918 18.4005 18.9607 18.7747 20.5664 18.5963L20.4339 17.4037ZM13.0759 14.5757C13.0759 14.5757 13.0739 14.5776 13.0696 14.5814C13.0653 14.5852 13.0593 14.5902 13.0514 14.5964C13.0354 14.6088 13.0136 14.6245 12.9858 14.6422C12.93 14.6777 12.8543 14.7187 12.76 14.7573C12.5721 14.8343 12.3158 14.9 12 14.9V16.1C12.9559 16.1 13.6428 15.7057 13.9243 15.4243L13.0759 14.5757Z" fill="#28293D"/>
</svg>
