<svg width="24" height="24" viewBox="0 0 24 24" fill="none" xmlns="http://www.w3.org/2000/svg">
<path d="M3 7.00002L3.06978 6.40409L2.39999 6.32566L2.4 7.00003L3 7.00002ZM3.00003 9L2.40003 9.00001L2.40004 9.52391L2.91916 9.59453L3.00003 9ZM21 7L21.6 6.99998L21.5999 6.32565L20.9302 6.40407L21 7ZM21 9.01122L21.0809 9.60574L21.6 9.53512L21.6 9.0112L21 9.01122ZM13.0005 16.8985L12.4006 16.8914L13.0005 16.8985ZM10.9994 16.8985L10.3994 16.9056L10.9994 16.8985ZM2.4 7.00003L2.40003 9.00001L3.60003 8.99999L3.6 7.00001L2.4 7.00003ZM2.91916 9.59453C4.17931 9.76593 6.06042 10.3443 7.61882 11.5161C9.15907 12.6742 10.3698 14.3958 10.3994 16.9056L11.5993 16.8914C11.5645 13.9365 10.1141 11.8909 8.33998 10.557C6.58405 9.23669 4.4977 8.59819 3.0809 8.40547L2.91916 9.59453ZM2.93022 7.59595C3.61973 7.67669 7.4546 8.10004 11.9999 8.10004V6.90004C7.52033 6.90004 3.73688 6.4822 3.06978 6.40409L2.93022 7.59595ZM20.4 7.00002L20.4 9.01123L21.6 9.0112L21.6 6.99998L20.4 7.00002ZM20.9192 8.41669C19.503 8.60932 17.4167 9.24476 15.6605 10.5622C13.8861 11.8934 12.4354 13.9363 12.4006 16.8914L13.6005 16.9056C13.6301 14.3961 14.8407 12.6774 16.3806 11.5221C17.9389 10.3532 19.8201 9.77724 21.0809 9.60574L20.9192 8.41669ZM20.9302 6.40407C20.2631 6.48218 16.4794 6.90004 11.9999 6.90004V8.10004C16.5452 8.10004 20.3802 7.67667 21.0697 7.59593L20.9302 6.40407ZM11.0999 17.6H12.8999V16.4H11.0999V17.6ZM12.4006 16.8914C12.4036 16.6346 12.6103 16.4 12.8999 16.4V17.6C13.3001 17.6 13.5962 17.2728 13.6005 16.9056L12.4006 16.8914ZM10.3994 16.9056C10.4037 17.2729 10.6999 17.6 11.0999 17.6V16.4C11.3896 16.4 11.5963 16.6345 11.5993 16.8914L10.3994 16.9056Z" fill="#28293D"/>
</svg>
