<svg width="24" height="24" viewBox="0 0 24 24" fill="none" xmlns="http://www.w3.org/2000/svg">
<path d="M11.5 5.73707L11.9635 6.11803L11.5 5.73707ZM11.5 10.2629L11.9635 9.88198L11.5 10.2629ZM16.3192 11.0298L15.9982 10.5229L16.3192 11.0298ZM11.4075 22.7684L11.9647 22.5459L11.4075 22.7684ZM11.5931 22.7686L11.0366 22.5446L11.5931 22.7686ZM5.6 8C5.6 6.35188 6.95953 5 8.65625 5V3.8C6.31439 3.8 4.4 5.67167 4.4 8H5.6ZM9.82133 4.64243C10.2271 3.45909 11.3679 2.6 12.7188 2.6V1.4C10.8495 1.4 9.25637 2.59026 8.6862 4.25324L9.82133 4.64243ZM8.65625 5C8.82751 5 8.99505 5.01377 9.1579 5.04013L9.34962 3.85554C9.12361 3.81896 8.89195 3.8 8.65625 3.8V5ZM14.3438 5C14.955 5 15.5221 5.17551 15.9982 5.47706L16.6403 4.46331C15.977 4.04316 15.188 3.8 14.3438 3.8V5ZM15.9982 5.47706C16.8453 6.01366 17.4 6.94518 17.4 8H18.6C18.6 6.51143 17.8153 5.20758 16.6403 4.46331L15.9982 5.47706ZM12.7188 2.6C14.2308 2.6 15.4777 3.67558 15.7286 5.07602L16.9098 4.86435C16.5558 2.88892 14.8088 1.4 12.7188 1.4V2.6ZM9.1579 5.04013C9.91364 5.16245 10.5756 5.5573 11.0365 6.11803L11.9635 5.35611C11.3213 4.57462 10.4 4.02555 9.34962 3.85554L9.1579 5.04013ZM11.2875 8C11.2875 7.28756 11.5398 6.63363 11.9635 6.11803L11.0365 5.35611C10.4439 6.07709 10.0875 6.99781 10.0875 8H11.2875ZM11.9635 6.11803C12.5235 5.43669 13.3803 5 14.3438 5V3.8C13.01 3.8 11.8171 4.40625 11.0365 5.35611L11.9635 6.11803ZM14.3438 11C13.3803 11 12.5235 10.5633 11.9635 9.88198L11.0365 10.6439C11.8171 11.5938 13.01 12.2 14.3438 12.2V11ZM11.9635 9.88198C11.5398 9.36638 11.2875 8.71244 11.2875 8H10.0875C10.0875 9.00219 10.4439 9.92291 11.0365 10.6439L11.9635 9.88198ZM11.0365 9.88198C10.4765 10.5633 9.61969 11 8.65625 11V12.2C9.98996 12.2 11.1829 11.5938 11.9635 10.6439L11.0365 9.88198ZM8.65625 11C8.06367 11 7.51261 10.835 7.04579 10.5503L6.42087 11.5747C7.07134 11.9715 7.83789 12.2 8.65625 12.2V11ZM7.04579 10.5503C6.17398 10.0185 5.6 9.07293 5.6 8H4.4C4.4 9.51429 5.21195 10.8373 6.42087 11.5747L7.04579 10.5503ZM6.17611 11.285L10.8503 22.9909L11.9647 22.5459L7.29055 10.84L6.17611 11.285ZM17.4 8C17.4 9.05482 16.8453 9.98634 15.9982 10.5229L16.6403 11.5367C17.8153 10.7924 18.6 9.48857 18.6 8H17.4ZM15.9982 10.5229C15.5221 10.8245 14.955 11 14.3438 11V12.2C15.188 12.2 15.977 11.9568 16.6403 11.5367L15.9982 10.5229ZM12.1497 22.9927L16.8758 11.2539L15.7627 10.8057L11.0366 22.5446L12.1497 22.9927ZM10.8503 22.9909C11.0844 23.5772 11.9139 23.5784 12.1497 22.9927L11.0366 22.5446C11.205 22.1262 11.7975 22.1271 11.9647 22.5459L10.8503 22.9909Z" fill="#28293D"/>
</svg>
