<svg width="24" height="24" viewBox="0 0 24 24" fill="none" xmlns="http://www.w3.org/2000/svg">
<path d="M3.88506 14.1029L4.31844 14.5178L4.34819 14.4868L4.3732 14.4518L3.88506 14.1029ZM9.56113 20.0312L9.18935 19.5602L9.1566 19.5861L9.12774 19.6162L9.56113 20.0312ZM15.639 3.24478L15.9117 2.71031L15.639 3.24478ZM19.8961 7.69099L20.4396 7.43682L19.8961 7.69099ZM14.2642 2.18153L14.4717 1.61857L14.2642 2.18153ZM20.7863 8.99342L21.3557 8.80428L20.7863 8.99342ZM3.17555 14.8439L3.60893 15.2589H3.60894L3.17555 14.8439ZM8.85162 20.7722L8.41824 20.3573H8.41823L8.85162 20.7722ZM20.3255 11.5333L20.6973 12.0043L20.7043 11.9986L20.3255 11.5333ZM20.9972 10.0919L20.3991 10.1393L20.9972 10.0919ZM12.0947 2.61599L11.6138 2.25706L11.6066 2.26712L12.0947 2.61599ZM13.1148 2L13.0941 1.40035L13.1148 2ZM7.22567 18.6334L6.8014 18.2092L7.22567 18.6334ZM5.16454 16.5723L4.74027 16.1481L5.16454 16.5723ZM6.60341 15.1334L6.17915 14.7092L6.60341 15.1334ZM3.60894 15.2589L4.31844 14.5178L3.45168 13.6879L2.74217 14.429L3.60894 15.2589ZM4.3732 14.4518L12.5829 2.96487L11.6066 2.26712L3.39692 13.754L4.3732 14.4518ZM19.9537 11.0624L9.18935 19.5602L9.93291 20.5021L20.6972 12.0043L19.9537 11.0624ZM9.12774 19.6162L8.41824 20.3573L9.285 21.1872L9.99451 20.4461L9.12774 19.6162ZM15.3664 3.77925C16.4008 4.30693 16.9334 4.26498 17.8444 5.21643L18.7112 4.38655C17.6153 3.24203 16.6243 3.07383 15.9117 2.71031L15.3664 3.77925ZM17.8444 5.21643C18.7568 6.16935 18.8731 6.91998 19.3526 7.94516L20.4396 7.43682C20.0657 6.63739 19.8056 5.52959 18.7112 4.38655L17.8444 5.21643ZM13.5769 13.6704L20.2774 8.15422L19.5147 7.22777L12.8142 12.7439L13.5769 13.6704ZM15.1601 2.88334L9.87861 9.88159L10.8365 10.6045L16.1179 3.60621L15.1601 2.88334ZM13.1355 2.59964C13.3906 2.59084 13.7147 2.61844 14.0567 2.7445L14.4717 1.61857C13.9524 1.42711 13.4673 1.38748 13.0941 1.40035L13.1355 2.59964ZM14.0567 2.7445C14.2968 2.83301 14.431 2.95428 14.5886 3.12257C14.7394 3.28361 14.9828 3.58359 15.3664 3.77925L15.9117 2.71031C15.762 2.63394 15.6846 2.53743 15.4646 2.30241C15.2513 2.07465 14.9648 1.80031 14.4717 1.61857L14.0567 2.7445ZM19.3526 7.94516C19.5382 8.34208 19.7779 8.57214 19.927 8.72965C20.0623 8.87264 20.1481 8.97554 20.2169 9.18256L21.3557 8.80428C21.2068 8.35599 20.9852 8.1021 20.7987 7.90493C20.6258 7.72227 20.5293 7.62876 20.4396 7.43682L19.3526 7.94516ZM20.2169 9.18256C20.3218 9.49846 20.3751 9.83667 20.3991 10.1393L21.5953 10.0444C21.5664 9.68019 21.5004 9.2401 21.3557 8.80428L20.2169 9.18256ZM3.60893 20.3573C2.26369 18.9522 2.26369 16.6639 3.60893 15.2589L2.74217 14.429C0.95261 16.2981 0.95261 19.3181 2.74217 21.1872L3.60893 20.3573ZM2.74217 21.1872C4.54581 23.0709 7.48136 23.0709 9.285 21.1872L8.41823 20.3573C7.08708 21.7476 4.94009 21.7476 3.60893 20.3573L2.74217 21.1872ZM20.7043 11.9986C21.2518 11.5528 21.6594 10.8524 21.5953 10.0444L20.3991 10.1393C20.4252 10.469 20.2611 10.812 19.9467 11.068L20.7043 11.9986ZM12.5756 2.97485C12.7713 2.71254 12.9733 2.60524 13.1355 2.59964L13.0941 1.40035C12.4284 1.42332 11.9274 1.83705 11.6139 2.25714L12.5756 2.97485ZM6.17915 14.7092L4.74027 16.1481L5.5888 16.9966L7.02768 15.5577L6.17915 14.7092ZM7.64993 19.0577L9.0888 17.6188L8.24028 16.7703L6.8014 18.2092L7.64993 19.0577ZM8.24027 15.5577C8.57512 15.8926 8.57512 16.4355 8.24028 16.7703L9.0888 17.6188C9.89228 16.8154 9.89228 15.5127 9.0888 14.7092L8.24027 15.5577ZM4.74027 19.0577C5.54375 19.8612 6.84645 19.8612 7.64993 19.0577L6.8014 18.2092C6.46655 18.544 5.92365 18.544 5.5888 18.2092L4.74027 19.0577ZM4.74027 16.1481C3.93679 16.9515 3.9368 18.2542 4.74027 19.0577L5.5888 18.2092C5.25395 17.8743 5.25395 17.3314 5.5888 16.9966L4.74027 16.1481ZM7.02768 15.5577C7.36253 15.2229 7.90543 15.2229 8.24027 15.5577L9.0888 14.7092C8.28532 13.9057 6.98263 13.9057 6.17915 14.7092L7.02768 15.5577Z" fill="#28293D"/>
</svg>
