<svg width="24" height="24" viewBox="0 0 24 24" fill="none" xmlns="http://www.w3.org/2000/svg">
<path d="M17 14L17.4243 13.5757L16.4 12.5515V14H17ZM17.5 14.5V15.1H18.9485L17.9243 14.0757L17.5 14.5ZM9.4 4C9.4 4.7732 8.7732 5.4 8 5.4V6.6C9.43594 6.6 10.6 5.43594 10.6 4H9.4ZM8 5.4C7.2268 5.4 6.6 4.7732 6.6 4H5.4C5.4 5.43594 6.56406 6.6 8 6.6V5.4ZM6.6 4C6.6 3.2268 7.2268 2.6 8 2.6V1.4C6.56406 1.4 5.4 2.56406 5.4 4H6.6ZM8 2.6C8.7732 2.6 9.4 3.2268 9.4 4H10.6C10.6 2.56406 9.43594 1.4 8 1.4V2.6ZM7.4 6V17.5H8.6V6H7.4ZM16.5757 14.4243L17.0757 14.9243L17.9243 14.0757L17.4243 13.5757L16.5757 14.4243ZM16.4 14V14.5H17.6V14H16.4ZM17.5 13.9H17V15.1H17.5V13.9ZM16.4 14.5V17.5H17.6V14.5H16.4ZM16.4 17.5C16.4 19.6539 14.6539 21.4 12.5 21.4V22.6C15.3167 22.6 17.6 20.3167 17.6 17.5H16.4ZM7.4 17.5C7.4 20.3167 9.68335 22.6 12.5 22.6V21.4C10.3461 21.4 8.6 19.6539 8.6 17.5H7.4Z" fill="#28293D"/>
</svg>
