<svg width="24" height="24" viewBox="0 0 24 24" fill="none" xmlns="http://www.w3.org/2000/svg">
<path d="M12 3L12.4243 2.57574L12 2.15147L11.5757 2.57574L12 3ZM17 2V1.4H16.4V2H17ZM22 2H22.6V1.4H22V2ZM22 5V5.6H22.6V5H22ZM10 12V11.4H9.4V12H10ZM14 12H14.6V11.4H14V12ZM11.5757 2.57574L4.57574 9.57574L5.42426 10.4243L12.4243 3.42426L11.5757 2.57574ZM4.57574 9.57574L1.57574 12.5757L2.42426 13.4243L5.42426 10.4243L4.57574 9.57574ZM4.4 10V20H5.6V10H4.4ZM4.4 20V24H5.6V20H4.4ZM18.5757 10.4243L21.5757 13.4243L22.4243 12.5757L19.4243 9.57574L18.5757 10.4243ZM18.4 10V20H19.6V10H18.4ZM18.4 20V24H19.6V20H18.4ZM11.5757 3.42426L16.5757 8.42426L17.4243 7.57574L12.4243 2.57574L11.5757 3.42426ZM16.5757 8.42426L18.5757 10.4243L19.4243 9.57574L17.4243 7.57574L16.5757 8.42426ZM17 2.6H22V1.4H17V2.6ZM21.4 2V5H22.6V2H21.4ZM17.6 8V5H16.4V8H17.6ZM17.6 5V2H16.4V5H17.6ZM22 4.4H17V5.6H22V4.4ZM5 20.6H10V19.4H5V20.6ZM10.6 20V12H9.4V20H10.6ZM10 12.6H14V11.4H10V12.6ZM10 20.6H14V19.4H10V20.6ZM14 20.6H19V19.4H14V20.6ZM13.4 12V20H14.6V12H13.4Z" fill="#28293D"/>
</svg>
