<svg width="24" height="24" viewBox="0 0 24 24" fill="none" xmlns="http://www.w3.org/2000/svg">
<path d="M9.08333 6.83333L9.5076 6.40907L9.08333 6.83333ZM4.83333 11.0833L4.40907 11.5076L4.83333 11.0833ZM2 8.25L1.57574 7.82574L1.15147 8.25L1.57574 8.67426L2 8.25ZM6.25 4L6.67426 3.57574L6.25 3.15147L5.82574 3.57574L6.25 4ZM14.9167 6.83333L15.3409 7.2576V7.2576L14.9167 6.83333ZM19.1667 11.0833L18.7424 10.6591L19.1667 11.0833ZM22 8.25L22.4243 8.67426L22.8485 8.25L22.4243 7.82574L22 8.25ZM17.75 4L18.1743 3.57574L17.75 3.15147L17.3257 3.57574L17.75 4ZM8.65907 7.2576C9.59836 8.19689 9.59836 9.71978 8.65907 10.6591L9.5076 11.5076C10.9155 10.0997 10.9155 7.81699 9.5076 6.40907L8.65907 7.2576ZM8.65907 10.6591C7.71978 11.5984 6.19689 11.5984 5.2576 10.6591L4.40907 11.5076C5.81699 12.9155 8.09968 12.9155 9.5076 11.5076L8.65907 10.6591ZM5.2576 10.6591L2.42426 7.82574L1.57574 8.67426L4.40907 11.5076L5.2576 10.6591ZM2.42426 8.67426L6.67426 4.42426L5.82574 3.57574L1.57574 7.82574L2.42426 8.67426ZM5.82574 4.42426L8.65907 7.2576L9.5076 6.40907L6.67426 3.57574L5.82574 4.42426ZM8.65907 11.5076L17.1591 20.0076L18.0076 19.1591L9.5076 10.6591L8.65907 11.5076ZM17.1591 19.1591L15.7424 20.5757L16.5909 21.4243L18.0076 20.0076L17.1591 19.1591ZM18.0076 20.0076L19.4243 18.5909L18.5757 17.7424L17.1591 19.1591L18.0076 20.0076ZM14.4924 6.40907C13.0845 7.81699 13.0845 10.0997 14.4924 11.5076L15.3409 10.6591C14.4016 9.71978 14.4016 8.19689 15.3409 7.2576L14.4924 6.40907ZM14.4924 11.5076C15.9003 12.9155 18.183 12.9155 19.5909 11.5076L18.7424 10.6591C17.8031 11.5984 16.2802 11.5984 15.3409 10.6591L14.4924 11.5076ZM19.5909 11.5076L22.4243 8.67426L21.5757 7.82574L18.7424 10.6591L19.5909 11.5076ZM22.4243 7.82574L18.1743 3.57574L17.3257 4.42426L21.5757 8.67426L22.4243 7.82574ZM17.3257 3.57574L14.4924 6.40907L15.3409 7.2576L18.1743 4.42426L17.3257 3.57574ZM14.4924 10.6591L5.9924 19.1591L6.84093 20.0076L15.3409 11.5076L14.4924 10.6591ZM5.9924 20.0076L7.40907 21.4243L8.2576 20.5757L6.84093 19.1591L5.9924 20.0076ZM6.84093 19.1591L5.42426 17.7424L4.57574 18.5909L5.9924 20.0076L6.84093 19.1591Z" fill="#28293D"/>
</svg>
