<svg width="24" height="24" viewBox="0 0 24 24" fill="none" xmlns="http://www.w3.org/2000/svg">
<path d="M4.92898 1V0.4H3.47005L4.50686 1.4264L4.92898 1ZM4.92898 15H4.32898V16.4383L5.3511 15.4264L4.92898 15ZM9.64296 8V8.6V8ZM4.92898 12.6667H4.32898H4.92898ZM2 8L1.57788 7.5736L0.541075 8.6H2V8ZM10.3332 6.35008L9.91111 6.77648L9.91112 6.77649L10.3332 6.35008ZM3.66665 6.35008L3.24453 5.92369H3.24453L3.66665 6.35008ZM19.071 1L19.4931 1.4264L20.53 0.4H19.071V1ZM19.071 15L18.6489 15.4264L19.671 16.4382V15H19.071ZM14.357 8V8.6V8ZM19.071 12.6667H19.671H19.071ZM22 8V8.6H23.4589L22.4221 7.5736L22 8ZM13.6668 6.35008L14.0889 6.7765L14.0889 6.77648L13.6668 6.35008ZM20.3334 6.35008L20.7555 5.92369L20.3334 6.35008ZM10.5 9.4849L10.0779 9.0585L10.5 9.4849ZM4.50686 1.4264L11.5778 8.4264L12.4221 7.5736L5.3511 0.573601L4.50686 1.4264ZM12.6 8V5.66667H11.4V8H12.6ZM7.28597 0.4H4.92898V1.6H7.28597V0.4ZM12.6 5.66667C12.6 2.75227 10.2151 0.4 7.28597 0.4V1.6C9.56378 1.6 11.4 3.4264 11.4 5.66667H12.6ZM12 7.4H9.64296V8.6H12V7.4ZM4.32898 12.6667V15H5.52898V12.6667H4.32898ZM9.64296 7.4C6.71385 7.4 4.32898 9.75227 4.32898 12.6667H5.52898C5.52898 10.4264 7.36515 8.6 9.64296 8.6V7.4ZM2 8.6H12V7.4H2V8.6ZM12.4221 7.57359L10.7553 5.92367L9.91112 6.77649L11.5778 8.42641L12.4221 7.57359ZM3.24453 5.92369L1.57788 7.5736L2.42212 8.4264L4.08876 6.77648L3.24453 5.92369ZM10.7553 5.92369C8.68061 3.86977 5.31927 3.86977 3.24453 5.92369L4.08876 6.77648C5.69587 5.1855 8.304 5.1855 9.91111 6.77648L10.7553 5.92369ZM18.6489 0.573599L11.5778 7.5736L12.4221 8.4264L19.4931 1.4264L18.6489 0.573599ZM16.714 1.6H19.071V0.4H16.714V1.6ZM12.6 5.66667C12.6 3.42642 14.4362 1.6 16.714 1.6V0.4C13.7849 0.4 11.4 2.75226 11.4 5.66667H12.6ZM12 8.6H14.357V7.4H12V8.6ZM18.471 12.6667V15H19.671V12.6667H18.471ZM14.357 8.6C16.6348 8.6 18.471 10.4264 18.471 12.6667H19.671C19.671 9.75227 17.2861 7.4 14.357 7.4V8.6ZM22 7.4H12V8.6H22V7.4ZM12.4221 8.42642L14.0889 6.7765L13.2447 5.92366L11.5779 7.57358L12.4221 8.42642ZM19.9112 6.77648L21.5779 8.4264L22.4221 7.5736L20.7555 5.92369L19.9112 6.77648ZM14.0889 6.77648C15.696 5.1855 18.3041 5.1855 19.9112 6.77648L20.7555 5.92369C18.6807 3.86977 15.3194 3.86977 13.2447 5.92369L14.0889 6.77648ZM5.3511 15.4264L10.9221 9.9113L10.0779 9.0585L4.50686 14.5736L5.3511 15.4264ZM10.9221 9.9113L12.4221 8.4264L11.5778 7.5736L10.0779 9.0585L10.9221 9.9113ZM9.9 9.4849V23H11.1V9.4849H9.9ZM19.4931 14.5736L13.922 9.0585L13.0778 9.9113L18.6489 15.4264L19.4931 14.5736ZM13.922 9.0585L12.4221 7.5736L11.5778 8.4264L13.0778 9.9113L13.922 9.0585ZM12.8999 9.4849V23H14.0999V9.4849H12.8999ZM6 23.6H18V22.4H6V23.6Z" fill="#28293D"/>
</svg>
