<svg width="24" height="24" viewBox="0 0 24 24" fill="none" xmlns="http://www.w3.org/2000/svg">
<path d="M2.60353 14.6036L2.17927 15.0278L2.60353 14.6036ZM3.10353 14.1036L2.67927 14.5278H2.67927L3.10353 14.1036ZM6.99998 18L6.57571 18.4243L6.75145 18.6H6.99998V18ZM3 8L2.47159 7.71578L1.99598 8.6H3V8ZM21 8V8.6H22.004L21.5284 7.71578L21 8ZM2.17927 15.0278L6.57571 19.4243L7.42424 18.5757L3.02779 14.1793L2.17927 15.0278ZM2.67927 14.5278L6.57571 18.4243L7.42424 17.5757L3.52779 13.6793L2.67927 14.5278ZM6.99998 18.6H21.5V17.4H6.99998V18.6ZM6.57571 18.5757L2.57571 22.5757L3.42424 23.4243L7.42424 19.4243L6.57571 18.5757ZM6.99998 19.6H18V18.4H6.99998V19.6ZM18 19.6H21.5V18.4H18V19.6ZM17.5757 19.4243L21.5757 23.4243L22.4242 22.5757L18.4242 18.5757L17.5757 19.4243ZM2.85353 14.6C2.78817 14.6 2.72548 14.574 2.67927 14.5278L3.52779 13.6793C3.34897 13.5005 3.10643 13.4 2.85353 13.4V14.6ZM21.4 18.5C21.4 18.4448 21.4447 18.4 21.5 18.4V19.6C22.1075 19.6 22.6 19.1075 22.6 18.5H21.4ZM21.5 18.6C21.4447 18.6 21.4 18.5552 21.4 18.5H22.6C22.6 17.8925 22.1075 17.4 21.5 17.4V18.6ZM3.02779 14.1793C3.18305 14.3345 3.07309 14.6 2.85353 14.6V13.4C2.004 13.4 1.57856 14.4271 2.17927 15.0278L3.02779 14.1793ZM3.52841 8.28422C5.03699 5.47955 7.88732 2.6 12 2.6V1.4C7.26056 1.4 4.08398 4.7181 2.47159 7.71578L3.52841 8.28422ZM12 2.6C16.1126 2.6 18.963 5.47955 20.4716 8.28422L21.5284 7.71578C19.916 4.7181 16.7394 1.4 12 1.4V2.6ZM11.4 8V18.5H12.6V8H11.4ZM3 8.6H8.99998V7.4H3V8.6ZM8.99998 8.6H12V7.4H8.99998V8.6ZM11.5757 1.57574C11.042 2.10946 10.2593 3.05018 9.60627 4.17343C8.95819 5.28813 8.39998 6.64692 8.39998 8H9.59998C9.59998 6.95308 10.0418 5.81187 10.6437 4.77657C11.2406 3.74982 11.958 2.89054 12.4242 2.42426L11.5757 1.57574ZM12 8.6H15V7.4H12V8.6ZM15 8.6H21V7.4H15V8.6ZM11.5444 2.39047C12.0457 2.97533 12.7646 3.81559 13.3605 4.8087C13.959 5.80626 14.4 6.9045 14.4 8H15.6C15.6 6.5955 15.0409 5.27707 14.3895 4.1913C13.7353 3.10108 12.9542 2.19134 12.4555 1.60953L11.5444 2.39047Z" fill="#28293D"/>
</svg>
