<svg width="24" height="24" viewBox="0 0 24 24" fill="none" xmlns="http://www.w3.org/2000/svg">
<path d="M17.001 3L17.3614 2.5203L16.945 2.20746L16.5767 2.57574L17.001 3ZM3 17.001L2.57574 16.5767L2.20746 16.945L2.5203 17.3614L3 17.001ZM3.35468 16.6463L2.93042 16.222H2.93042L3.35468 16.6463ZM16.6464 3.35459L16.2221 2.93033V2.93033L16.6464 3.35459ZM20.4 11C20.4 16.1915 16.1915 20.4 11 20.4V21.6C16.8542 21.6 21.6 16.8542 21.6 11H20.4ZM19.9038 11C19.9038 15.9174 15.9175 19.9037 11.0001 19.9037V21.1037C16.5802 21.1037 21.1038 16.5801 21.1038 11H19.9038ZM16.6406 3.4797C18.9246 5.1957 20.4 7.92546 20.4 11H21.6C21.6 7.53214 19.9341 4.45321 17.3614 2.5203L16.6406 3.4797ZM11 20.4C7.92546 20.4 5.1957 18.9246 3.4797 16.6406L2.5203 17.3614C4.45321 19.9341 7.53214 21.6 11 21.6V20.4ZM2.93042 16.222L2.57574 16.5767L3.42426 17.4252L3.77895 17.0706L2.93042 16.222ZM11.0001 19.9037C8.06405 19.9037 5.4599 18.4833 3.83705 16.2895L2.87232 17.0031C4.71172 19.4896 7.66746 21.1037 11.0001 21.1037V19.9037ZM16.5767 2.57574L16.2221 2.93033L17.0706 3.77886L17.4252 3.42426L16.5767 2.57574ZM16.2221 2.93033L2.93042 16.222L3.77895 17.0706L17.0706 3.77886L16.2221 2.93033ZM16.2896 3.83696C18.4833 5.45981 19.9038 8.06396 19.9038 11H21.1038C21.1038 7.66737 19.4897 4.71162 17.0032 2.87223L16.2896 3.83696Z" fill="#28293D"/>
<mask id="path-2-inside-1_402_12514" fill="white">
<path d="M14.8284 13.4142C15.219 13.8048 15.219 14.4379 14.8284 14.8284C14.4379 15.219 13.8048 15.219 13.4142 14.8284C13.0237 14.4379 12.7071 12.7071 12.7071 12.7071C12.7071 12.7071 14.4379 13.0237 14.8284 13.4142Z"/>
<path d="M16.4495 9.51765C16.983 9.6606 17.2996 10.2089 17.1566 10.7424C17.0137 11.2759 16.4653 11.5924 15.9319 11.4495C15.3984 11.3066 14.2588 9.96594 14.2588 9.96594C14.2588 9.96594 15.916 9.37471 16.4495 9.51765Z"/>
<path d="M11.4495 15.9319C11.5924 16.4653 11.2759 17.0137 10.7424 17.1566C10.2089 17.2996 9.6606 16.983 9.51765 16.4495C9.37471 15.916 9.96594 14.2588 9.96594 14.2588C9.96594 14.2588 11.3066 15.3984 11.4495 15.9319Z"/>
</mask>
<path d="M12.7071 12.7071L12.887 11.7234L11.463 11.463L11.7234 12.887L12.7071 12.7071ZM14.2588 9.96594L13.9228 9.02409L12.5593 9.51055L13.4969 10.6136L14.2588 9.96594ZM9.96594 14.2588L10.6136 13.4969L9.51055 12.5593L9.02409 13.9228L9.96594 14.2588ZM14.1213 14.1213V14.1213L15.5355 15.5355C16.3166 14.7545 16.3166 13.4882 15.5355 12.7071L14.1213 14.1213ZM14.1213 14.1213H14.1213L12.7071 15.5355C13.4882 16.3166 14.7545 16.3166 15.5355 15.5355L14.1213 14.1213ZM14.1213 14.1213C14.1843 14.1843 14.1526 14.1793 14.0708 13.9693C14.0053 13.801 13.9401 13.5879 13.8807 13.3645C13.8223 13.1447 13.7743 12.9334 13.7408 12.7758C13.7242 12.6975 13.7114 12.6336 13.7028 12.59C13.6986 12.5683 13.6954 12.5517 13.6934 12.5409C13.6924 12.5356 13.6916 12.5317 13.6912 12.5294C13.691 12.5282 13.6908 12.5274 13.6908 12.5271C13.6907 12.5269 13.6907 12.5268 13.6907 12.5268C13.6907 12.5268 13.6907 12.5269 13.6908 12.5269C13.6908 12.527 13.6908 12.527 13.6908 12.527C13.6908 12.5271 13.6908 12.5272 12.7071 12.7071C11.7234 12.887 11.7235 12.8871 11.7235 12.8872C11.7235 12.8873 11.7235 12.8874 11.7235 12.8875C11.7236 12.8876 11.7236 12.8878 11.7236 12.8881C11.7237 12.8885 11.7238 12.889 11.7239 12.8897C11.7242 12.891 11.7245 12.8927 11.7249 12.8948C11.7257 12.8991 11.7268 12.905 11.7282 12.9124C11.731 12.9272 11.735 12.9481 11.7401 12.9745C11.7504 13.0271 11.7654 13.1015 11.7845 13.1915C11.8226 13.3706 11.8782 13.6164 11.9478 13.8782C12.0164 14.1363 12.1035 14.4291 12.2072 14.6952C12.2946 14.9195 12.4489 15.2773 12.7071 15.5355L14.1213 14.1213ZM12.7071 12.7071C12.5272 13.6908 12.5271 13.6908 12.527 13.6908C12.527 13.6908 12.527 13.6908 12.5269 13.6908C12.5269 13.6907 12.5268 13.6907 12.5268 13.6907C12.5268 13.6907 12.5269 13.6907 12.5271 13.6908C12.5274 13.6908 12.5282 13.691 12.5294 13.6912C12.5317 13.6916 12.5356 13.6924 12.5409 13.6934C12.5517 13.6954 12.5683 13.6986 12.59 13.7028C12.6336 13.7114 12.6975 13.7242 12.7758 13.7408C12.9334 13.7743 13.1447 13.8223 13.3645 13.8807C13.5879 13.9401 13.801 14.0053 13.9693 14.0708C14.1793 14.1526 14.1843 14.1843 14.1213 14.1213L15.5355 12.7071C15.2773 12.4489 14.9195 12.2946 14.6952 12.2072C14.4291 12.1035 14.1363 12.0164 13.8782 11.9478C13.6164 11.8782 13.3706 11.8226 13.1915 11.7845C13.1015 11.7654 13.0271 11.7504 12.9745 11.7401C12.9481 11.735 12.9272 11.731 12.9124 11.7282C12.905 11.7268 12.8991 11.7257 12.8948 11.7249C12.8927 11.7245 12.891 11.7242 12.8897 11.7239C12.889 11.7238 12.8885 11.7237 12.8881 11.7236C12.8878 11.7236 12.8876 11.7235 12.8875 11.7235C12.8874 11.7235 12.8873 11.7235 12.8872 11.7235C12.8871 11.7235 12.887 11.7234 12.7071 12.7071ZM16.1907 10.4836V10.4836L18.1225 11.0012C18.4084 9.93429 17.7753 8.83761 16.7083 8.55173L16.1907 10.4836ZM16.1907 10.4836V10.4836L15.673 12.4154C16.74 12.7013 17.8367 12.0681 18.1225 11.0012L16.1907 10.4836ZM16.1907 10.4836C16.2767 10.5066 16.2467 10.5181 16.0709 10.3772C15.93 10.2642 15.767 10.1123 15.6039 9.94847C15.4434 9.78735 15.2962 9.62831 15.1884 9.50854C15.1348 9.44904 15.0918 9.40014 15.0626 9.36668C15.048 9.34997 15.037 9.33717 15.0299 9.32889C15.0263 9.32475 15.0237 9.32175 15.0222 9.31995C15.0214 9.31905 15.0209 9.31846 15.0207 9.31818C15.0206 9.31804 15.0205 9.31797 15.0205 9.31799C15.0205 9.318 15.0205 9.31803 15.0206 9.31808C15.0206 9.3181 15.0207 9.31815 15.0207 9.31816C15.0207 9.31822 15.0208 9.31828 14.2588 9.96594C13.4969 10.6136 13.497 10.6137 13.497 10.6138C13.4971 10.6138 13.4971 10.6139 13.4972 10.6139C13.4973 10.6141 13.4974 10.6142 13.4976 10.6144C13.4979 10.6147 13.4982 10.6151 13.4987 10.6157C13.4995 10.6167 13.5006 10.618 13.5021 10.6196C13.5049 10.6229 13.5088 10.6275 13.5137 10.6332C13.5235 10.6446 13.5374 10.6607 13.5551 10.681C13.5903 10.7214 13.6405 10.7783 13.7021 10.8468C13.8246 10.9828 13.9956 11.1679 14.1867 11.3598C14.3752 11.549 14.5971 11.759 14.8199 11.9376C15.0078 12.0882 15.3203 12.3209 15.673 12.4154L16.1907 10.4836ZM14.2588 9.96594C14.5949 10.9078 14.5948 10.9078 14.5947 10.9078C14.5947 10.9079 14.5946 10.9079 14.5946 10.9079C14.5945 10.9079 14.5945 10.9079 14.5945 10.9079C14.5945 10.9079 14.5946 10.9079 14.5947 10.9078C14.5951 10.9077 14.5958 10.9075 14.5969 10.9071C14.5992 10.9063 14.6029 10.905 14.608 10.9032C14.6183 10.8995 14.6343 10.894 14.6553 10.8868C14.6973 10.8724 14.759 10.8516 14.8352 10.8268C14.9884 10.777 15.1954 10.7129 15.4149 10.6536C15.6381 10.5933 15.8553 10.5432 16.0337 10.5158C16.2565 10.4817 16.2767 10.5066 16.1907 10.4836L16.7083 8.55173C16.3556 8.45721 15.9686 8.50246 15.7306 8.53895C15.4483 8.58224 15.1511 8.65315 14.8933 8.7228C14.6318 8.79344 14.3912 8.86817 14.2171 8.92475C14.1295 8.9532 14.0576 8.97745 14.0069 8.99483C13.9815 9.00353 13.9613 9.01054 13.9471 9.01552C13.94 9.01801 13.9344 9.01999 13.9303 9.02144C13.9282 9.02216 13.9266 9.02274 13.9254 9.02318C13.9247 9.02341 13.9242 9.02359 13.9238 9.02374C13.9236 9.02382 13.9234 9.02388 13.9232 9.02394C13.9231 9.02397 13.923 9.02401 13.923 9.02402C13.9229 9.02405 13.9228 9.02409 14.2588 9.96594ZM10.4836 16.1907H10.4836L11.0012 18.1225C12.0682 17.8367 12.7013 16.74 12.4154 15.673L10.4836 16.1907ZM10.4836 16.1907V16.1907L8.55173 16.7083C8.83761 17.7753 9.93429 18.4084 11.0012 18.1225L10.4836 16.1907ZM10.4836 16.1907C10.5066 16.2767 10.4817 16.2565 10.5158 16.0337C10.5432 15.8553 10.5933 15.6381 10.6536 15.4149C10.7129 15.1954 10.777 14.9884 10.8268 14.8352C10.8516 14.759 10.8724 14.6973 10.8868 14.6553C10.894 14.6343 10.8995 14.6183 10.9032 14.608C10.905 14.6029 10.9063 14.5991 10.9071 14.5969C10.9075 14.5958 10.9077 14.5951 10.9078 14.5947C10.9079 14.5946 10.9079 14.5945 10.9079 14.5945C10.9079 14.5945 10.9079 14.5945 10.9079 14.5946C10.9079 14.5946 10.9079 14.5947 10.9078 14.5947C10.9078 14.5948 10.9078 14.5949 9.96594 14.2588C9.02409 13.9228 9.02406 13.9229 9.02402 13.923C9.02401 13.923 9.02397 13.9231 9.02394 13.9232C9.02389 13.9234 9.02382 13.9236 9.02374 13.9238C9.02359 13.9242 9.02341 13.9247 9.02318 13.9253C9.02274 13.9266 9.02216 13.9282 9.02144 13.9303C9.01999 13.9344 9.01801 13.94 9.01552 13.9471C9.01054 13.9613 9.00353 13.9815 8.99483 14.0069C8.97745 14.0576 8.9532 14.1295 8.92475 14.2171C8.86817 14.3912 8.79344 14.6318 8.7228 14.8933C8.65315 15.1511 8.58224 15.4483 8.53895 15.7306C8.50246 15.9686 8.45721 16.3556 8.55173 16.7083L10.4836 16.1907ZM9.96594 14.2588C9.31828 15.0208 9.31822 15.0207 9.31816 15.0207C9.31815 15.0207 9.3181 15.0206 9.31808 15.0206C9.31803 15.0205 9.318 15.0205 9.31799 15.0205C9.31797 15.0205 9.31804 15.0206 9.31818 15.0207C9.31846 15.0209 9.31905 15.0214 9.31995 15.0222C9.32175 15.0237 9.32475 15.0263 9.32889 15.0299C9.33717 15.037 9.34997 15.048 9.36668 15.0626C9.40014 15.0918 9.44904 15.1348 9.50854 15.1884C9.62831 15.2962 9.78735 15.4434 9.94847 15.6039C10.1123 15.767 10.2642 15.93 10.3772 16.0709C10.5181 16.2467 10.5066 16.2767 10.4836 16.1907L12.4154 15.673C12.3209 15.3203 12.0882 15.0078 11.9376 14.8199C11.759 14.5971 11.549 14.3752 11.3598 14.1867C11.1679 13.9956 10.9828 13.8246 10.8468 13.7021C10.7783 13.6405 10.7214 13.5903 10.681 13.5551C10.6607 13.5374 10.6446 13.5235 10.6332 13.5137C10.6275 13.5087 10.6229 13.5049 10.6196 13.502C10.618 13.5006 10.6167 13.4995 10.6157 13.4986C10.6151 13.4982 10.6147 13.4979 10.6144 13.4976C10.6142 13.4974 10.6141 13.4973 10.6139 13.4972C10.6139 13.4971 10.6138 13.4971 10.6138 13.497C10.6137 13.497 10.6136 13.4969 9.96594 14.2588Z" fill="#28293D" mask="url(#path-2-inside-1_402_12514)"/>
</svg>
