<svg width="24" height="24" viewBox="0 0 24 24" fill="none" xmlns="http://www.w3.org/2000/svg">
<path d="M22 12C22 17.5228 17.5228 22 12 22C6.47715 22 2 17.5228 2 12C2 6.47715 6.47715 2 12 2C17.5228 2 22 6.47715 22 12Z" stroke="#555770" stroke-width="2"/>
<path d="M17 7L7 17" stroke="#3E7BFA" stroke-width="2"/>
<path d="M10.5 8.5C10.5 9.60457 9.60457 10.5 8.5 10.5C7.39543 10.5 6.5 9.60457 6.5 8.5C6.5 7.39543 7.39543 6.5 8.5 6.5C9.60457 6.5 10.5 7.39543 10.5 8.5Z" stroke="#3E7BFA" stroke-width="2"/>
<path d="M17.5 15.5C17.5 16.6046 16.6046 17.5 15.5 17.5C14.3954 17.5 13.5 16.6046 13.5 15.5C13.5 14.3954 14.3954 13.5 15.5 13.5C16.6046 13.5 17.5 14.3954 17.5 15.5Z" stroke="#3E7BFA" stroke-width="2"/>
</svg>
