<svg width="24" height="24" viewBox="0 0 24 24" fill="none" xmlns="http://www.w3.org/2000/svg">
<path d="M15 7.48165L18.661 5.28506C19.4479 4.81289 20.4552 4.93689 21.1042 5.58583L21.4142 5.89586C21.7893 6.27093 22 6.77964 22 7.31007V7.62307C22 7.85888 21.9451 8.09145 21.8396 8.30236C21.6258 8.72998 21.6258 9.23331 21.8396 9.66093C21.9451 9.87184 22 10.1044 22 10.3402V10.6532C22 11.1837 21.7893 11.6924 21.4142 12.0674L21.1042 12.3775C20.4552 13.0264 19.4479 13.1504 18.661 12.6782L14.8069 10.3402M15 7.48165V9.48165C15 10.2219 14.5978 10.8683 14 11.2141M15 7.48165C15 7.07944 14.8813 6.70496 14.677 6.39135M9 7.48164V9.48165C9 10.2219 9.4022 10.8683 10 11.2141M9 7.48164L5.33902 5.28506C4.55207 4.81289 3.54475 4.93689 2.89582 5.58583L2.58579 5.89586C2.21071 6.27093 2 6.77964 2 7.31007V7.62307C2 7.85888 2.0549 8.09145 2.16036 8.30236C2.37417 8.72998 2.37417 9.23331 2.16036 9.66093C2.0549 9.87184 2 10.1044 2 10.3402V10.6532C2 11.1837 2.21071 11.6924 2.58579 12.0674L2.89582 12.3775C3.54475 13.0264 4.55207 13.1504 5.33902 12.6782L9.19314 10.3402M9 7.48164C9 7.07944 9.11873 6.70496 9.32304 6.39135" stroke="#3E7BFA" stroke-width="2"/>
<path d="M10 11.2141C10.2942 11.3843 10.6357 11.4817 11 11.4817H13C13.3643 11.4817 13.7058 11.3843 14 11.2141M10 11.2141C9.4022 10.8683 9 10.222 9 9.48169V7.48169C9 6.37712 9.89543 5.48169 11 5.48169H13C14.1046 5.48169 15 6.37712 15 7.48169V9.48169C15 10.222 14.5978 10.8683 14 11.2141M10 11.2141L6 20M14 11.2141L18 20" stroke="#555770" stroke-width="2"/>
</svg>
