<svg width="24" height="24" viewBox="0 0 24 24" fill="none" xmlns="http://www.w3.org/2000/svg">
<path d="M8.45996 16.6902V21.1907M12.46 1.0448V4.27428M12.46 12.6232V17.1237M16.46 1.9289V12.9645" stroke="#3E7BFA" stroke-width="2"/>
<path fill-rule="evenodd" clip-rule="evenodd" d="M15.415 5.11612C14.6137 4.3007 13.4858 4.02008 12.4598 4.27426C11.9519 4.40006 11.469 4.65687 11.063 5.04467C11.0226 5.08329 10.9584 5.08342 10.9192 5.04354L8.84717 2.93503C8.80894 2.89613 8.80893 2.83364 8.84776 2.79533C9.8689 1.78747 11.1443 1.20395 12.4598 1.04478C13.8302 0.878961 15.2442 1.17366 16.4598 1.92888C16.8753 2.18707 17.2677 2.49909 17.6273 2.86494C20.0708 5.35153 20.0708 9.38309 17.6273 11.8697L12.4598 17.1237L8.45977 21.1907L7.24333 22.4275C7.20414 22.4673 7.13989 22.4673 7.10071 22.4275L5.02868 20.3189C4.99043 20.28 4.99044 20.2176 5.0287 20.1787L8.45977 16.6902L12.4598 12.6232L15.415 9.61849C16.6368 8.3752 16.6368 6.35942 15.415 5.11612Z" stroke="#555770" stroke-width="2"/>
</svg>
