<svg width="24" height="24" viewBox="0 0 24 24" fill="none" xmlns="http://www.w3.org/2000/svg">
<mask id="mask0_402_17169" style="mask-type:alpha" maskUnits="userSpaceOnUse" x="6" y="0" width="12" height="24">
<rect x="6" width="12" height="24" fill="white"/>
</mask>
<g mask="url(#mask0_402_17169)">
<path d="M14.4 6.8125C14.4 8.02062 13.415 9 12.2 9C10.985 9 10 8.02062 10 6.8125C10 5.60438 10.88 3.3125 12.2 2C13 5 14.4 5 14.4 6.8125Z" stroke="#3E7BFA" stroke-width="2"/>
<path d="M17 24V20M12 13H8C7.44772 13 7 13.4477 7 14V18M12 13H16C16.5523 13 17 13.4477 17 14V14M12 13L7 18M7 18V24L17 14M17 14V20M17 20L11.5 25.5" stroke="#555770" stroke-width="2"/>
</g>
</svg>
