<svg width="24" height="24" viewBox="0 0 24 24" fill="none" xmlns="http://www.w3.org/2000/svg">
<path d="M12 3C10.5 3 10.5 4.5 10.5 6.1404C10.9858 6.04823 11.4873 6 12 6C12.5126 6 13.0141 6.04823 13.5 6.1404C13.5 4.5 13.5 3 12 3ZM12 3V0M4.0166 14.5203C5.38699 14.3498 6.61396 13.7172 7.53665 12.7833C8.62441 11.6823 10.135 11 11.805 11C13.475 11 14.9856 11.6823 16.0733 12.7832C17.0822 13.8044 18.4548 14.4653 19.981 14.5558" stroke="#3E7BFA" stroke-width="2"/>
<path d="M10.5 6.1404C6.79871 6.84251 4 10.0944 4 14C4 14.1748 4.00561 14.3483 4.01665 14.5203C4.2847 18.6961 7.75651 22 12 22C16.2314 22 19.6956 18.7148 19.981 14.5558C19.9936 14.3722 20 14.1868 20 14C20 10.0944 17.2013 6.84251 13.5 6.1404C13.0141 6.04823 12.5127 6 12 6C11.4873 6 10.9859 6.04823 10.5 6.1404Z" stroke="#555770" stroke-width="2"/>
</svg>
