<svg width="24" height="24" viewBox="0 0 24 24" fill="none" xmlns="http://www.w3.org/2000/svg">
<path d="M20 16H4C4 11.5817 7.58172 8 12 8C16.4183 8 20 11.5817 20 16Z" stroke="#555770" stroke-width="2"/>
<path d="M3 17C3 16.4477 3.44772 16 4 16H20C20.5523 16 21 16.4477 21 17V20C21 20.5523 20.5523 21 20 21H4C3.44772 21 3 20.5523 3 20V17Z" stroke="#3E7BFA" stroke-width="2"/>
<path d="M14 6C14 7.10457 13.1046 8 12 8C10.8954 8 10 7.10457 10 6C10 4.89543 10.8954 4 12 4C13.1046 4 14 4.89543 14 6Z" stroke="#3E7BFA" stroke-width="2"/>
</svg>
