<svg width="24" height="24" viewBox="0 0 24 24" fill="none" xmlns="http://www.w3.org/2000/svg">
<path d="M20.5468 3.45319C20.8426 4.58594 21 5.77458 21 7C21 8.5742 20.7402 10.0877 20.2611 11.5C18.8661 15.6122 15.6122 18.8661 11.5 20.2611C10.0877 20.7402 8.5742 21 7 21C5.77458 21 4.58594 20.8426 3.45319 20.5468M20.5468 3.45319C19.4141 3.15744 18.2254 3 17 3C15.4258 3 13.9123 3.25982 12.5 3.73891C8.38784 5.13387 5.13387 8.38784 3.73891 12.5C3.25982 13.9123 3 15.4258 3 17C3 18.2254 3.15744 19.4141 3.45319 20.5468M20.5468 3.45319C16.3333 4.5 7.01575 9.38425 3.45319 20.5468M20.5468 3.45319C19 8.33333 13.4158 18.5842 3.45319 20.5468" stroke="#555770" stroke-width="1.2"/>
</svg>
