<svg width="24" height="24" viewBox="0 0 24 24" fill="none" xmlns="http://www.w3.org/2000/svg">
<path d="M9.40108 6.5L9.92707 6.21102L9.92045 6.19956L9.40108 6.5ZM8.75342 12.3785L9.31111 12.5998L9.31111 12.5998L8.75342 12.3785ZM8.49836 18.3461L7.92818 18.5329L7.92818 18.5329L8.49836 18.3461ZM9.24835 20.4365L9.80343 20.2087L9.80343 20.2087L9.24835 20.4365ZM14.5987 6.5L14.0792 6.19949L14.0728 6.21109L14.5987 6.5ZM15.2463 12.3785L14.6887 12.5998L14.6887 12.5998L15.2463 12.3785ZM15.5014 18.3461L16.0716 18.5329L16.0716 18.5329L15.5014 18.3461ZM14.7514 20.4365L14.1963 20.2087L14.1963 20.2087L14.7514 20.4365ZM9.59974 5C9.59974 3.67452 10.6743 2.6 11.9997 2.6V1.4C10.0115 1.4 8.39974 3.01177 8.39974 5H9.59974ZM9.92045 6.19956C9.71659 5.84717 9.59974 5.43814 9.59974 5H8.39974C8.39974 5.65472 8.57506 6.27031 8.88172 6.80044L9.92045 6.19956ZM8.87522 6.78891C9.22984 7.43439 9.29565 8.20231 9.145 9.1191C8.99328 10.0425 8.63229 11.0572 8.19573 12.1572L9.31111 12.5998C9.74943 11.4954 10.1546 10.3759 10.3291 9.31367C10.5047 8.24487 10.4569 7.17578 9.92694 6.21109L8.87522 6.78891ZM7.92818 18.5329C8.1466 19.1996 8.42826 20.0185 8.69328 20.6643L9.80343 20.2087C9.5556 19.6048 9.28492 18.8197 9.06853 18.1593L7.92818 18.5329ZM8.69327 20.6643C8.93761 21.2596 9.51799 21.6 10.118 21.6V20.4C9.96053 20.4 9.84671 20.3141 9.80343 20.2087L8.69327 20.6643ZM8.19573 12.1572C7.74307 13.2978 7.49851 14.5141 7.49851 15.7486H8.69851C8.69851 14.6729 8.9116 13.6065 9.31111 12.5998L8.19573 12.1572ZM15.6 5C15.6 3.0117 13.9879 1.4 11.9997 1.4V2.6C13.3253 2.6 14.4 3.67459 14.4 5H15.6ZM15.118 6.80044C15.4247 6.27031 15.6 5.65472 15.6 5H14.4C14.4 5.43814 14.2832 5.84717 14.0793 6.19956L15.118 6.80044ZM14.0728 6.21109C13.5428 7.17578 13.495 8.24487 13.6706 9.31367C13.8452 10.3759 14.2503 11.4954 14.6887 12.5998L15.804 12.1572C15.3675 11.0572 15.0065 10.0425 14.8548 9.1191C14.7041 8.20231 14.7699 7.43439 15.1245 6.78891L14.0728 6.21109ZM14.9312 18.1593C14.7148 18.8197 14.4442 19.6048 14.1963 20.2087L15.3065 20.6643C15.5715 20.0185 15.8532 19.1996 16.0716 18.5329L14.9312 18.1593ZM14.1963 20.2087C14.1531 20.3141 14.0392 20.4 13.8817 20.4V21.6C14.4818 21.6 15.0622 21.2596 15.3065 20.6643L14.1963 20.2087ZM10.118 21.6H13.8817V20.4H10.118V21.6ZM14.6887 12.5998C15.0016 13.3883 15.2001 14.2135 15.2715 15.0509L16.4672 14.9491C16.3855 13.9904 16.1586 13.0506 15.804 12.1572L14.6887 12.5998ZM15.2715 15.0509C15.2912 15.2827 15.3012 15.5154 15.3012 15.7486H16.5012C16.5012 15.481 16.4898 15.2143 16.4672 14.9491L15.2715 15.0509ZM8.09851 15.6H15.8693V14.4H8.09851V15.6ZM7.49851 15.7486C7.49851 16.5586 7.59784 17.3708 7.81562 18.1597L8.97235 17.8403C8.78588 17.1649 8.69851 16.4609 8.69851 15.7486H7.49851ZM7.81562 18.1597C7.85014 18.2847 7.88764 18.4092 7.92818 18.5329L9.06853 18.1593C9.03395 18.0537 9.0019 17.9474 8.97235 17.8403L7.81562 18.1597ZM15.3012 15.7486C15.3012 16.4609 15.2139 17.1649 15.0274 17.8403L16.1841 18.1597C16.4019 17.3708 16.5012 16.5586 16.5012 15.7486H15.3012ZM15.0274 17.8403C14.9979 17.9474 14.9658 18.0537 14.9312 18.1593L16.0716 18.5329C16.1121 18.4092 16.1496 18.2847 16.1841 18.1597L15.0274 17.8403ZM8.39398 18.6H15.6058V17.4H8.39398V18.6Z" fill="#555770"/>
</svg>
