<svg width="24" height="24" viewBox="0 0 24 24" fill="none" xmlns="http://www.w3.org/2000/svg">
<path d="M7 3V2.4H6.4V3H7ZM6 12H5.4V12.3L5.64 12.48L6 12ZM11 19.3819L11.4001 19.829L11.4002 19.829L11 19.3819ZM11.0078 19.3751L11.4048 19.8249L11.4048 19.8249L11.0078 19.3751ZM17 3H17.6V2.4H17V3ZM18 12L18.4992 12.3328L18.6 12.1817V12H18ZM13 19.3819L12.5998 19.829L12.5999 19.829L13 19.3819ZM12.9922 19.3751L12.5952 19.8249L12.5952 19.8249L12.9922 19.3751ZM11.5 18.7555L12.0134 19.066L12.1 18.9228V18.7555H11.5ZM11.5 13.4921H12.1V12.9109L11.5191 12.8924L11.5 13.4921ZM12.5 18.7555H11.9V18.9228L11.9866 19.066L12.5 18.7555ZM12.5 13.4948L12.4874 12.895L11.9 12.9073V13.4948H12.5ZM7.6 9V3H6.4V9H7.6ZM7 8.4H6.1V9.6H7V8.4ZM5.4 9.1V12H6.6V9.1H5.4ZM9.9 20.5C9.9 21.6598 10.8402 22.6 12 22.6V21.4C11.5029 21.4 11.1 20.9971 11.1 20.5H9.9ZM11.1 20.5C11.1 20.2335 11.2151 19.9947 11.4001 19.829L10.5999 18.9349C10.1712 19.3185 9.9 19.878 9.9 20.5H11.1ZM11.4002 19.829C11.4016 19.8277 11.4032 19.8263 11.4048 19.8249L10.6107 18.9252C10.6072 18.9284 10.6035 18.9316 10.5998 18.9349L11.4002 19.829ZM11.4048 19.8249C11.5638 19.6845 11.7713 19.6 12 19.6V18.4C11.4678 18.4 10.9805 18.5988 10.6107 18.9252L11.4048 19.8249ZM17.6 9V3H16.4V9H17.6ZM17 9.6H17.9V8.4H17V9.6ZM17.4 9.1V12H18.6V9.1H17.4ZM12.9 20.5C12.9 20.9971 12.4971 21.4 12 21.4V22.6C13.1598 22.6 14.1 21.6598 14.1 20.5H12.9ZM14.1 20.5C14.1 19.878 13.8288 19.3185 13.4001 18.9349L12.5999 19.829C12.7849 19.9947 12.9 20.2335 12.9 20.5H14.1ZM13.4002 18.9349C13.3965 18.9316 13.3928 18.9284 13.3893 18.9252L12.5952 19.8249C12.5968 19.8263 12.5984 19.8277 12.5998 19.829L13.4002 18.9349ZM13.3893 18.9252C13.0195 18.5988 12.5322 18.4 12 18.4V19.6C12.2287 19.6 12.4362 19.6845 12.5952 19.8249L13.3893 18.9252ZM7 3.6H17V2.4H7V3.6ZM7 9.6H17V8.4H7V9.6ZM11.4081 19.822C11.5914 19.6578 11.8128 19.3977 12.0134 19.066L10.9866 18.445C10.8396 18.6881 10.6917 18.8527 10.6074 18.9281L11.4081 19.822ZM12.1 18.7555V13.4921H10.9V18.7555H12.1ZM13.3926 18.9281C13.3083 18.8527 13.1604 18.6881 13.0134 18.445L11.9866 19.066C12.1872 19.3977 12.4086 19.6578 12.5919 19.822L13.3926 18.9281ZM18 12C17.5008 11.6672 17.5011 11.6666 17.5015 11.6661C17.5016 11.6659 17.502 11.6654 17.5022 11.6651C17.5026 11.6644 17.5031 11.6637 17.5035 11.6631C17.5044 11.6618 17.5052 11.6606 17.506 11.6595C17.5075 11.6573 17.5088 11.6554 17.5099 11.6539C17.5121 11.6508 17.5135 11.6491 17.5139 11.6486C17.5147 11.6476 17.5116 11.6516 17.504 11.66C17.4889 11.6769 17.4555 11.7118 17.3983 11.7596C17.2841 11.855 17.072 12.0044 16.7166 12.1643C16.0043 12.4847 14.7132 12.8482 12.4874 12.895L12.5126 14.0947C14.8541 14.0456 16.3131 13.6617 17.2089 13.2586C17.6576 13.0568 17.9641 12.8505 18.1676 12.6806C18.2691 12.5957 18.3442 12.5206 18.398 12.4606C18.4248 12.4306 18.4463 12.4045 18.463 12.3829C18.4713 12.3721 18.4784 12.3625 18.4844 12.3541C18.4875 12.3499 18.4902 12.3461 18.4926 12.3425C18.4939 12.3407 18.495 12.339 18.4961 12.3374C18.4967 12.3366 18.4972 12.3358 18.4977 12.3351C18.498 12.3347 18.4984 12.3341 18.4985 12.3339C18.4989 12.3334 18.4992 12.3328 18 12ZM13.1 18.7555V13.4948H11.9V18.7555H13.1ZM6 12C5.64 12.48 5.64022 12.4802 5.64045 12.4803C5.64054 12.4804 5.64078 12.4806 5.64095 12.4807C5.64129 12.481 5.64166 12.4812 5.64207 12.4815C5.64287 12.4821 5.64379 12.4828 5.64482 12.4836C5.64688 12.4851 5.6494 12.487 5.65238 12.4891C5.65833 12.4935 5.66611 12.4991 5.67572 12.5058C5.69495 12.5194 5.72149 12.5377 5.75535 12.56C5.82307 12.6047 5.92009 12.6658 6.04644 12.7378C6.29913 12.882 6.66916 13.0704 7.15652 13.2609C8.13215 13.6424 9.57439 14.0309 11.4809 14.0918L11.5191 12.8924C9.75894 12.8362 8.45118 12.4787 7.59348 12.1433C7.16417 11.9755 6.8467 11.8128 6.64106 11.6955C6.53824 11.6369 6.46339 11.5895 6.41653 11.5586C6.3931 11.5431 6.37667 11.5318 6.36725 11.5251C6.36253 11.5218 6.35957 11.5197 6.35837 11.5188C6.35776 11.5183 6.3576 11.5182 6.35787 11.5184C6.358 11.5185 6.35825 11.5187 6.35861 11.519C6.35878 11.5191 6.35899 11.5192 6.35922 11.5194C6.35934 11.5195 6.35953 11.5196 6.35959 11.5197C6.35979 11.5198 6.36 11.52 6 12ZM17.9 9.6C17.6239 9.6 17.4 9.37614 17.4 9.1H18.6C18.6 8.7134 18.2866 8.4 17.9 8.4V9.6ZM6.1 8.4C5.7134 8.4 5.4 8.7134 5.4 9.1H6.6C6.6 9.37614 6.37614 9.6 6.1 9.6V8.4Z" fill="#555770"/>
</svg>
