<svg width="24" height="24" viewBox="0 0 24 24" fill="none" xmlns="http://www.w3.org/2000/svg">
<path d="M6.07067 5.07071L6.49493 4.64645L6.07067 5.07071ZM14.4292 13.4293L14.005 13.8536L14.4292 13.4293ZM11.4292 16.4293L11.005 16.8536L11.4292 16.4293ZM3.07067 8.07071L2.64641 8.49497L2.64641 8.49498L3.07067 8.07071ZM3.07067 7.92929L2.64641 7.50503L2.64641 7.50503L3.07067 7.92929ZM5.92925 5.07071L5.50499 4.64645L5.92925 5.07071ZM5.64641 5.49497L14.005 13.8536L14.8535 13.005L6.49493 4.64645L5.64641 5.49497ZM14.005 13.1464L11.1464 16.005L11.9949 16.8536L14.8535 13.995L14.005 13.1464ZM11.8535 16.005L3.49494 7.64645L2.64641 8.49498L11.005 16.8536L11.8535 16.005ZM3.49494 8.35355L6.35351 5.49497L5.50499 4.64645L2.64641 7.50503L3.49494 8.35355ZM21.6 5.5C21.6 3.78792 20.212 2.4 18.5 2.4V3.6C19.5493 3.6 20.4 4.45066 20.4 5.5H21.6ZM18.5 8.6C20.212 8.6 21.6 7.21208 21.6 5.5H20.4C20.4 6.54934 19.5493 7.4 18.5 7.4V8.6ZM15.4 5.5C15.4 7.21208 16.7879 8.6 18.5 8.6V7.4C17.4506 7.4 16.6 6.54934 16.6 5.5H15.4ZM16.6 5.5C16.6 4.45066 17.4506 3.6 18.5 3.6V2.4C16.7879 2.4 15.4 3.78792 15.4 5.5H16.6ZM3.49494 7.64645C3.69019 7.84171 3.6902 8.15829 3.49494 8.35355L2.64641 7.50503C2.37304 7.7784 2.37304 8.22161 2.64641 8.49497L3.49494 7.64645ZM11.1464 16.005C11.3417 15.8098 11.6583 15.8098 11.8535 16.005L11.005 16.8536C11.2783 17.1269 11.7216 17.1269 11.9949 16.8536L11.1464 16.005ZM14.005 13.8536C13.8097 13.6583 13.8097 13.3417 14.005 13.1464L14.8535 13.995C15.1269 13.7216 15.1269 13.2784 14.8535 13.005L14.005 13.8536ZM6.49493 4.64645C6.22157 4.37308 5.77835 4.37308 5.50499 4.64645L6.35351 5.49497C6.15825 5.69024 5.84167 5.69024 5.64641 5.49497L6.49493 4.64645ZM14.5757 17.4243L19.0757 21.9243L19.9243 21.0757L15.4243 16.5757L14.5757 17.4243Z" fill="#555770"/>
</svg>
