<svg width="24" height="24" viewBox="0 0 24 24" fill="none" xmlns="http://www.w3.org/2000/svg">
<path d="M6.5 11.4C4.89837 11.4 3.6 10.1016 3.6 8.5H2.4C2.4 10.7644 4.23563 12.6 6.5 12.6V11.4ZM3.6 8.5C3.6 6.89837 4.89837 5.6 6.5 5.6V4.4C4.23563 4.4 2.4 6.23563 2.4 8.5H3.6ZM20.4 8.5C20.4 10.1016 19.1016 11.4 17.5 11.4V12.6C19.7644 12.6 21.6 10.7644 21.6 8.5H20.4ZM17.5 5.6C19.1016 5.6 20.4 6.89837 20.4 8.5H21.6C21.6 6.23563 19.7644 4.4 17.5 4.4V5.6ZM16 4.6H18V3.4H16V4.6ZM17.5 11.4H16V12.6H17.5V11.4ZM6 4.6H8V3.4H6V4.6ZM8 4.6H16V3.4H8V4.6ZM8 11.4H6.5V12.6H8V11.4ZM7.4 4V5H8.6V4H7.4ZM7.4 5V12H8.6V5H7.4ZM6.5 5.6H8V4.4H6.5V5.6ZM15.4 4V5H16.6V4H15.4ZM15.4 5V12H16.6V5H15.4ZM17.5 4.4H16V5.6H17.5V4.4ZM7.45711 12.2555C8.36115 14.1766 10.187 15.1384 12 15.1384V13.9384C10.6094 13.9384 9.23158 13.208 8.54289 11.7445L7.45711 12.2555ZM12 15.1384C13.813 15.1384 15.6388 14.1766 16.5429 12.2555L15.4571 11.7445C14.7684 13.208 13.3906 13.9384 12 13.9384V15.1384ZM7 20.6H12V19.4H7V20.6ZM12 20.6H17V19.4H12V20.6ZM11.4 14.5384V20H12.6V14.5384H11.4Z" fill="#555770"/>
</svg>
