<svg width="24" height="24" viewBox="0 0 24 24" fill="none" xmlns="http://www.w3.org/2000/svg">
<path d="M13.5744 7.68781L14.0324 8.07537L14.0324 8.07537L13.5744 7.68781ZM3.99048 19.0143L3.53245 18.6267L3.17584 19.0482L3.56622 19.4385L3.99048 19.0143ZM4.98573 20.0095L4.56146 20.4338L4.95184 20.8242L5.37329 20.4675L4.98573 20.0095ZM16.3122 10.4256L16.6998 10.8836L16.6998 10.8836L16.3122 10.4256ZM16.431 7.56899L16.8553 7.14473L16.8553 7.14473L16.431 7.56899ZM9.04325 13.0428L9.50128 13.4304L9.50128 13.4304L9.04325 13.0428ZM6.9762 18.3253L6.58864 17.8672L6.58864 17.8672L6.9762 18.3253ZM3.56622 19.4385L4.56146 20.4338L5.40999 19.5852L4.41475 18.59L3.56622 19.4385ZM16.0067 7.99325C16.5622 8.54867 16.5243 9.46018 15.9246 9.96755L16.6998 10.8836C17.8353 9.92276 17.9071 8.19657 16.8553 7.14473L16.0067 7.99325ZM16.8553 7.14473C15.8034 6.09289 14.0772 6.16468 13.1164 7.30024L14.0324 8.07537C14.5398 7.47575 15.4513 7.43784 16.0067 7.99325L16.8553 7.14473ZM5.2167 16.6362L3.53245 18.6267L4.44852 19.4018L6.13277 17.4114L5.2167 16.6362ZM5.67473 16.4238H3.99048V17.6238H5.67473V16.4238ZM13.1164 7.30024L8.58522 12.6553L9.50128 13.4304L14.0324 8.07537L13.1164 7.30024ZM8.58522 12.6553L5.2167 16.6362L6.13277 17.4114L9.50128 13.4304L8.58522 12.6553ZM3.99048 13.6428H9.04325V12.4428H3.99048V13.6428ZM5.37329 20.4675L7.36377 18.7833L6.58864 17.8672L4.59816 19.5515L5.37329 20.4675ZM6.3762 18.3253V20.0095H7.5762V18.3253H6.3762ZM7.36377 18.7833L11.3447 15.4148L10.5696 14.4987L6.58864 17.8672L7.36377 18.7833ZM11.3447 15.4148L16.6998 10.8836L15.9246 9.96755L10.5696 14.4987L11.3447 15.4148ZM11.5572 20.0095V14.9567H10.3572V20.0095H11.5572ZM6.3762 20.0095C6.3762 21.4402 7.536 22.6 8.96669 22.6V21.4C8.19875 21.4 7.5762 20.7775 7.5762 20.0095H6.3762ZM2.6 15.0333C2.6 14.2654 3.22254 13.6428 3.99048 13.6428V12.4428C2.5598 12.4428 1.4 13.6026 1.4 15.0333H2.6ZM8.96669 22.6C10.3974 22.6 11.5572 21.4402 11.5572 20.0095H10.3572C10.3572 20.7775 9.73464 21.4 8.96669 21.4V22.6ZM3.99048 16.4238C3.22254 16.4238 2.6 15.8013 2.6 15.0333H1.4C1.4 16.464 2.5598 17.6238 3.99048 17.6238V16.4238Z" fill="#555770"/>
<path d="M21 3L16.5 7.5" stroke="#555770" stroke-width="1.2"/>
</svg>
