<svg width="24" height="24" viewBox="0 0 24 24" fill="none" xmlns="http://www.w3.org/2000/svg">
<path d="M16 20.6882L16.0981 21.2801L16 20.6882ZM9.71269 8.47326C9.42178 8.63194 9.31458 8.9964 9.47326 9.28731C9.63194 9.57822 9.9964 9.68542 10.2873 9.52674L9.71269 8.47326ZM21.2873 3.52674C21.5782 3.36806 21.6854 3.0036 21.5267 2.71269C21.3681 2.42178 21.0036 2.31458 20.7127 2.47326L21.2873 3.52674ZM20.4 9C20.4 9.15157 20.3084 9.39147 19.9214 9.69649C19.5411 9.99618 18.9536 10.2923 18.1742 10.5521C16.6217 11.0696 14.4387 11.4 12 11.4V12.6C14.5318 12.6 16.8489 12.2588 18.5537 11.6905C19.403 11.4074 20.1335 11.0571 20.6641 10.639C21.1879 10.2262 21.6 9.67685 21.6 9H20.4ZM12 11.4C9.56126 11.4 7.3783 11.0696 5.82578 10.5521C5.04638 10.2923 4.45893 9.99618 4.07865 9.69649C3.69161 9.39147 3.6 9.15157 3.6 9H2.4C2.4 9.67685 2.81207 10.2262 3.33588 10.639C3.86645 11.0571 4.59702 11.4074 5.4463 11.6905C7.15114 12.2588 9.46818 12.6 12 12.6V11.4ZM3.6 9C3.6 8.84843 3.69161 8.60853 4.07865 8.30351C4.45893 8.00382 5.04638 7.70769 5.82578 7.44789C7.3783 6.93038 9.56126 6.6 12 6.6V5.4C9.46818 5.4 7.15114 5.74119 5.4463 6.30947C4.59702 6.59256 3.86645 6.94288 3.33588 7.36102C2.81207 7.77383 2.4 8.32315 2.4 9H3.6ZM12 6.6C14.4387 6.6 16.6217 6.93038 18.1742 7.44789C18.9536 7.70769 19.5411 8.00382 19.9214 8.30351C20.3084 8.60853 20.4 8.84843 20.4 9H21.6C21.6 8.32315 21.1879 7.77383 20.6641 7.36102C20.1335 6.94288 19.403 6.59256 18.5537 6.30947C16.8489 5.74119 14.5318 5.4 12 5.4V6.6ZM2.4 9V18H3.6V9H2.4ZM20.4 9V18H21.6V9H20.4ZM12 20.4C10.5935 20.4 9.2682 20.2901 8.09806 20.0962L7.90194 21.2801C9.14172 21.4855 10.5328 21.6 12 21.6V20.4ZM8.09806 20.0962C6.65163 19.8566 5.4704 19.4935 4.6684 19.0709C3.81568 18.6216 3.6 18.224 3.6 18H2.4C2.4 18.9539 3.2026 19.6549 4.10902 20.1325C5.06616 20.6368 6.38493 21.0288 7.90194 21.2801L8.09806 20.0962ZM11.455 11.7491L7.45499 20.4372L8.54501 20.9391L12.545 12.2509L11.455 11.7491ZM20.4 18C20.4 18.224 20.1843 18.6216 19.3316 19.0709C18.5296 19.4935 17.3484 19.8566 15.9019 20.0962L16.0981 21.2801C17.6151 21.0288 18.9338 20.6368 19.891 20.1325C20.7974 19.6549 21.6 18.9539 21.6 18H20.4ZM15.9019 20.0962C14.7318 20.2901 13.4065 20.4 12 20.4V21.6C13.4672 21.6 14.8583 21.4855 16.0981 21.2801L15.9019 20.0962ZM11.455 12.2509L15.455 20.9391L16.545 20.4372L12.545 11.7491L11.455 12.2509ZM16.5516 20.9241L21.5516 9.23598L20.4484 8.76402L15.4484 20.4522L16.5516 20.9241ZM8.55164 20.4522L3.55164 8.76402L2.44836 9.23598L7.44836 20.9241L8.55164 20.4522ZM10.2873 9.52674L21.2873 3.52674L20.7127 2.47326L9.71269 8.47326L10.2873 9.52674Z" fill="#555770"/>
</svg>
