<svg width="24" height="24" viewBox="0 0 24 24" fill="none" xmlns="http://www.w3.org/2000/svg">
<path d="M22 5H20V3H22V5ZM20 7H18V5H20V7ZM18 5H16V3H18V5ZM18 9H16V7H18V9ZM22 9H20V7H22V9ZM14 5H12V3H14V5ZM12 7H10V5H12V7ZM10 5H8V3H10V5ZM10 9H8V7H10V9ZM14 9H12V7H14V9ZM16 7H14V5H16V7ZM8 7H6V5H8V7ZM22 13H20V11H22V13ZM20 15H18V13H20V15ZM18 13H16V11H18V13ZM18 17H16V15H18V17ZM22 17H20V15H22V17ZM14 13H12V11H14V13ZM12 15H10V13H12V15ZM10 13H8V11H10V13ZM10 17H8V15H10V17ZM14 17H12V15H14V17ZM16 15H14V13H16V15ZM8 15H6V13H8V15ZM20 11H18V9H20V11ZM16 11H14V9H16V11ZM12 11H10V9H12V11ZM8 11H6V9H8V11ZM6 5H4V3H6V5ZM6 9H4V7H6V9ZM6 13H4V11H6V13ZM6 17H4V15H6V17ZM4 2V24H2V2H4Z" fill="#555770"/>
</svg>
