<svg width="24" height="24" viewBox="0 0 24 24" fill="none" xmlns="http://www.w3.org/2000/svg">
<path d="M7 18H8M17 18H16M8 18H12H16M8 18C9.5 18 12 18.4 12 22C12 18.4 14 18 16 18M18 9C18 12.3137 15.3137 15 12 15C8.68629 15 6 12.3137 6 9C6 5.68629 8.68629 3 12 3C15.3137 3 18 5.68629 18 9Z" stroke="#555770" stroke-width="1.2"/>
<path d="M10.4 8C10.4 8.22091 10.2209 8.4 10 8.4C9.77909 8.4 9.6 8.22091 9.6 8C9.6 7.77909 9.77909 7.6 10 7.6C10.2209 7.6 10.4 7.77909 10.4 8ZM14.4 8C14.4 8.22091 14.2209 8.4 14 8.4C13.7791 8.4 13.6 8.22091 13.6 8C13.6 7.77909 13.7791 7.6 14 7.6C14.2209 7.6 14.4 7.77909 14.4 8ZM12.4 6C12.4 6.22091 12.2209 6.4 12 6.4C11.7791 6.4 11.6 6.22091 11.6 6C11.6 5.77909 11.7791 5.6 12 5.6C12.2209 5.6 12.4 5.77909 12.4 6Z" stroke="#555770" stroke-width="1.2"/>
</svg>
