<svg width="24" height="24" viewBox="0 0 24 24" fill="none" xmlns="http://www.w3.org/2000/svg">
<circle cx="19.5" cy="19.5" r="0.9" stroke="#555770" stroke-width="1.2"/>
<mask id="path-2-inside-1_402_12631" fill="white">
<path d="M9.99996 22C13.3137 22 16 21.1046 16 20C16 18.8954 13.6519 18 9.99996 18C6.34798 18 4.0188 19.4012 4.0188 20C4.0188 21.1046 6.68625 22 9.99996 22Z"/>
</mask>
<path d="M14.8 20C14.8 19.7509 14.9525 19.7045 14.7857 19.836C14.6324 19.9568 14.3361 20.1181 13.8631 20.2758C12.9296 20.587 11.5637 20.8 9.99996 20.8V23.2C11.7499 23.2 13.384 22.9653 14.6221 22.5526C15.2348 22.3484 15.8173 22.0787 16.2712 21.721C16.7116 21.3739 17.2 20.8014 17.2 20H14.8ZM9.99996 20.8C8.43615 20.8 7.0756 20.5869 6.1477 20.2763C5.67755 20.1189 5.38415 19.9581 5.23281 19.8381C5.06897 19.7082 5.2188 19.7543 5.2188 20H2.8188C2.8188 20.798 3.30206 21.3702 3.74192 21.7189C4.19428 22.0775 4.77485 22.3476 5.38578 22.5521C6.62002 22.9653 8.25006 23.2 9.99996 23.2V20.8ZM9.99996 19.2C11.7448 19.2 13.1009 19.4159 13.9762 19.7195C14.4184 19.8729 14.6715 20.026 14.7919 20.1299C14.9082 20.2303 14.8 20.1892 14.8 20H17.2C17.2 19.2585 16.7982 18.6913 16.3601 18.3131C15.9262 17.9385 15.364 17.6606 14.7627 17.452C13.551 17.0318 11.9071 16.8 9.99996 16.8V19.2ZM5.2188 20C5.2188 20.1559 5.1815 20.2732 5.15382 20.3397C5.12597 20.4067 5.0983 20.4456 5.09033 20.4563C5.07687 20.4745 5.09515 20.4458 5.17941 20.3798C5.34456 20.2506 5.64562 20.0697 6.09442 19.886C6.98253 19.5225 8.32277 19.2 9.99996 19.2V16.8C8.02517 16.8 6.37483 17.178 5.18536 17.6649C4.59536 17.9063 4.08587 18.188 3.70018 18.4899C3.50902 18.6395 3.3168 18.8185 3.16169 19.0279C3.02203 19.2165 2.8188 19.5555 2.8188 20H5.2188Z" fill="#555770" mask="url(#path-2-inside-1_402_12631)"/>
<path d="M10 20V8.5M10 8.5L15 6L10 3.5V8.5Z" stroke="#555770" stroke-width="1.2"/>
</svg>
