<svg width="24" height="24" viewBox="0 0 24 24" fill="none" xmlns="http://www.w3.org/2000/svg">
<g clip-path="url(#clip0_402_12603)">
<path d="M5.64706 5.64711L8.47548 2.81868L9.88719 4.23039M5.64706 5.64711L2.81863 8.47554L4.23033 9.88724M5.64706 5.64711L3.51468 3.51474M18.3529 18.3529L21.1813 15.5245L19.7696 14.1128M18.3529 18.3529L15.5244 21.1814L14.1127 19.7697M18.3529 18.3529L20.4852 20.4853M9.88719 4.23039L11.3014 2.81618L12.6985 4.2133L8.45589 8.45594L4.21325 12.6986L2.81612 11.3014L4.23033 9.88724M9.88719 4.23039L7.05876 7.05881L4.23033 9.88724M19.7696 14.1128L16.9412 16.9412L14.1127 19.7697M19.7696 14.1128L21.1838 12.6986L19.7697 11.2843L15.527 15.527M14.1127 19.7697L12.6985 21.1839L11.2843 19.7697L15.527 15.527M15.527 15.527L8.47548 8.47554" stroke="#555770" stroke-width="1.2"/>
</g>
<defs>
<clipPath id="clip0_402_12603">
<rect width="24" height="24" fill="white"/>
</clipPath>
</defs>
</svg>
