<svg width="24" height="24" viewBox="0 0 24 24" fill="none" xmlns="http://www.w3.org/2000/svg">
<path d="M8 17.5V16.9H7.4V17.5H8ZM16 17.5H16.6V16.9H16V17.5ZM9 8V7.4H8.4V8H9ZM9 9H8.4V9.6H9V9ZM13 9V9.6H13.6V9H13ZM13 8H13.6V7.4H13V8ZM17.9701 11.1194L17.3881 10.9739L17.9701 11.1194ZM6.02986 11.1194L6.61194 10.9739L6.02986 11.1194ZM6.98106 14.9243L7.56315 14.7787L6.98106 14.9243ZM7.56315 14.7787L6.61194 10.9739L5.44777 11.265L6.39898 15.0698L7.56315 14.7787ZM6.6 10.8769V5H5.4V10.8769H6.6ZM7 4.6H15V3.4H7V4.6ZM17.4 9V10.8769H18.6V9H17.4ZM17.3881 10.9739L16.4369 14.7787L17.601 15.0698L18.5522 11.265L17.3881 10.9739ZM16.9219 14.4H7.07808V15.6H16.9219V14.4ZM7.4 17.5V19.9H8.6V17.5H7.4ZM8.1 20.6H15.9V19.4H8.1V20.6ZM16.6 19.9V17.5H15.4V19.9H16.6ZM16 16.9H8V18.1H16V16.9ZM8.4 8V9H9.6V8H8.4ZM9 9.6H13V8.4H9V9.6ZM13.6 9V8H12.4V9H13.6ZM13 7.4H9V8.6H13V7.4ZM15.4 5V8H16.6V5H15.4ZM15.4 8V10H16.6V8H15.4ZM17 7.4H16V8.6H17V7.4ZM15.9 20.6C16.2866 20.6 16.6 20.2866 16.6 19.9H15.4C15.4 19.6239 15.6239 19.4 15.9 19.4V20.6ZM7.4 19.9C7.4 20.2866 7.7134 20.6 8.1 20.6V19.4C8.37614 19.4 8.6 19.6239 8.6 19.9H7.4ZM16.4369 14.7787C16.4925 14.5561 16.6925 14.4 16.9219 14.4V15.6C17.2431 15.6 17.5231 15.3814 17.601 15.0698L16.4369 14.7787ZM17.4 10.8769C17.4 10.9096 17.396 10.9422 17.3881 10.9739L18.5522 11.265C18.584 11.138 18.6 11.0077 18.6 10.8769H17.4ZM15 4.6C15.2209 4.6 15.4 4.77909 15.4 5H16.6C16.6 4.11634 15.8837 3.4 15 3.4V4.6ZM6.6 5C6.6 4.77909 6.77909 4.6 7 4.6V3.4C6.11634 3.4 5.4 4.11634 5.4 5H6.6ZM6.61194 10.9739C6.60401 10.9422 6.6 10.9096 6.6 10.8769H5.4C5.4 11.0077 5.41604 11.138 5.44777 11.265L6.61194 10.9739ZM18.6 9C18.6 8.11634 17.8837 7.4 17 7.4V8.6C17.2209 8.6 17.4 8.77909 17.4 9H18.6ZM6.39898 15.0698C6.47688 15.3814 6.75687 15.6 7.07808 15.6V14.4C7.30751 14.4 7.5075 14.5562 7.56315 14.7787L6.39898 15.0698Z" fill="#555770"/>
</svg>
