<svg width="24" height="24" viewBox="0 0 24 24" fill="none" xmlns="http://www.w3.org/2000/svg">
<path d="M14.0001 19L13.979 19.5996L13.9896 19.6H14.0001V19ZM3.93089 18.9985L3.92999 18.3985L3.92999 18.3985L3.93089 18.9985ZM2.96319 18.0683L2.36322 18.0741L2.96319 18.0683ZM11.7395 9.32834L12.0374 8.80742L12.0277 8.80209L11.7395 9.32834ZM20.4001 12C20.4001 15.5346 17.5347 18.4 14.0001 18.4V19.6C18.1975 19.6 21.6001 16.1974 21.6001 12H20.4001ZM14.0001 5.6C17.5347 5.6 20.4001 8.46538 20.4001 12H21.6001C21.6001 7.80264 18.1975 4.4 14.0001 4.4V5.6ZM14.0212 18.4004C13.6395 18.3869 7.60892 18.393 3.92999 18.3985L3.9318 19.5985C7.63617 19.5929 13.6265 19.5872 13.979 19.5996L14.0212 18.4004ZM3.92999 18.3985C3.71192 18.3989 3.56485 18.2365 3.56316 18.0624L2.36322 18.0741C2.37176 18.9506 3.0993 19.5998 3.9318 19.5985L3.92999 18.3985ZM12.4001 11.5C12.4001 12.5493 11.5494 13.4 10.5001 13.4V14.6C12.2122 14.6 13.6001 13.2121 13.6001 11.5H12.4001ZM7.86461 7.48328C9.35232 6.34553 11.3412 5.6 14.0001 5.6V4.4C11.1011 4.4 8.85045 5.21865 7.13563 6.53008L7.86461 7.48328ZM11.4416 9.84918C12.0155 10.1774 12.4001 10.7942 12.4001 11.5H13.6001C13.6001 10.3464 12.9697 9.34072 12.0374 8.80751L11.4416 9.84918ZM7.21192 7.53294L11.4513 9.8546L12.0277 8.80209L7.78832 6.48043L7.21192 7.53294ZM3.56316 18.0624C3.55178 16.8945 3.66775 15.526 3.98142 14.1317L2.81067 13.8683C2.47487 15.3611 2.35102 16.8224 2.36322 18.0741L3.56316 18.0624ZM3.98142 14.1317C4.54267 11.6367 5.72115 9.12253 7.86461 7.48328L7.13563 6.53008C4.68862 8.40148 3.40728 11.2162 2.81067 13.8683L3.98142 14.1317ZM10.5001 13.4H3.39605V14.6H10.5001V13.4Z" fill="#555770"/>
</svg>
