<svg width="24" height="24" viewBox="0 0 24 24" fill="none" xmlns="http://www.w3.org/2000/svg">
<path d="M13 6L13.4243 5.57574L13.2485 5.4H13V6ZM4.5 10L4.92426 9.57574L4.74853 9.4H4.5V10ZM10.5 16L10.0757 16.4243L10.2515 16.6H10.5V16ZM12.5 16V16.6H12.8491L13.0216 16.2965L12.5 16ZM15.9106 10L16.4322 10.2965L16.4322 10.2965L15.9106 10ZM11 10V9.4H10.8616L10.7372 9.4606L11 10ZM19 7.5H19.6V6.56646L18.7508 6.9542L19 7.5ZM19 8.5V9.1H19.6V8.5H19ZM14.7737 12L14.2521 11.7035L14.2521 11.7035L14.7737 12ZM6.89434 12L6.63157 11.4606L6.63157 11.4606L6.89434 12ZM6.4 15C6.4 16.3255 5.32548 17.4 4 17.4V18.6C5.98823 18.6 7.6 16.9882 7.6 15H6.4ZM4 17.4C2.67452 17.4 1.6 16.3255 1.6 15H0.4C0.4 16.9882 2.01177 18.6 4 18.6V17.4ZM1.6 15C1.6 13.6745 2.67452 12.6 4 12.6V11.4C2.01177 11.4 0.4 13.0118 0.4 15H1.6ZM4 12.6C5.32548 12.6 6.4 13.6745 6.4 15H7.6C7.6 13.0118 5.98823 11.4 4 11.4V12.6ZM22.4 15C22.4 16.3255 21.3255 17.4 20 17.4V18.6C21.9882 18.6 23.6 16.9882 23.6 15H22.4ZM20 17.4C18.6745 17.4 17.6 16.3255 17.6 15H16.4C16.4 16.9882 18.0118 18.6 20 18.6V17.4ZM17.6 15C17.6 13.6745 18.6745 12.6 20 12.6V11.4C18.0118 11.4 16.4 13.0118 16.4 15H17.6ZM20 12.6C21.3255 12.6 22.4 13.6745 22.4 15H23.6C23.6 13.0118 21.9882 11.4 20 11.4V12.6ZM9 6.6H13V5.4H9V6.6ZM0 10.6H4.5V9.4H0V10.6ZM10.5 16.6H12.5V15.4H10.5V16.6ZM15.8825 9.73107L18.7198 12.5499L19.5656 11.6986L16.7283 8.87978L15.8825 9.73107ZM16.4322 10.2965L16.827 9.60193L15.7838 9.00892L15.389 9.7035L16.4322 10.2965ZM15.9106 9.4H11V10.6H15.9106V9.4ZM4.07574 10.4243L6.20491 12.5534L7.05343 11.7049L4.92426 9.57574L4.07574 10.4243ZM12.5757 6.42426L15.4863 9.33486L16.3349 8.48634L13.4243 5.57574L12.5757 6.42426ZM15.4863 9.33486L15.8812 9.72969L16.7297 8.88116L16.3349 8.48634L15.4863 9.33486ZM16.1598 9.4564L17.0591 9.0458L16.5607 7.9542L15.6614 8.3648L16.1598 9.4564ZM17.0591 9.0458L19.2492 8.0458L18.7508 6.9542L16.5607 7.9542L17.0591 9.0458ZM18.4 7.5V8.5H19.6V7.5H18.4ZM19 7.9H16.8099V9.1H19V7.9ZM6.20491 12.5534L8.07574 14.4243L8.92426 13.5757L7.05343 11.7049L6.20491 12.5534ZM8.07574 14.4243L10.0757 16.4243L10.9243 15.5757L8.92426 13.5757L8.07574 14.4243ZM13.0216 16.2965L14.1585 14.2965L13.1152 13.7035L11.9784 15.7035L13.0216 16.2965ZM14.1585 14.2965L15.2954 12.2965L14.2521 11.7035L13.1152 13.7035L14.1585 14.2965ZM15.2954 12.2965L16.4322 10.2965L15.389 9.7035L14.2521 11.7035L15.2954 12.2965ZM6.63157 11.4606L6.36641 11.5898L6.89193 12.6686L7.1571 12.5394L6.63157 11.4606ZM10.7372 9.4606L6.63157 11.4606L7.1571 12.5394L11.2628 10.5394L10.7372 9.4606Z" fill="#555770"/>
</svg>
