<svg width="24" height="24" viewBox="0 0 24 24" fill="none" xmlns="http://www.w3.org/2000/svg">
<path d="M8.08541 6.42439L8.16976 5.83035L7.68139 5.761L7.5189 6.22674L8.08541 6.42439ZM3 21L2.43349 20.8023L2.02401 21.976L3.19765 21.5665L3 21ZM15.5089 4.35636L15.9332 3.93209L15.9332 3.93209L15.5089 4.35636ZM14.8644 3.71186L14.3844 3.35186L14.0722 3.76817L14.4401 4.13613L14.8644 3.71186ZM17.5756 15.9146L17.7733 16.4811L18.239 16.3186L18.1696 15.8302L17.5756 15.9146ZM20.2881 9.13559L19.8639 9.55986L20.2318 9.92782L20.6481 9.61559L20.2881 9.13559ZM13.7622 12.1012C13.2476 12.6157 12.4134 12.6157 11.8988 12.1012L11.0503 12.9497C12.0335 13.9329 13.6275 13.9329 14.6107 12.9497L13.7622 12.1012ZM11.8988 12.1012C11.3843 11.5866 11.3843 10.7524 11.8988 10.2378L11.0503 9.3893C10.0671 10.3725 10.0671 11.9665 11.0503 12.9497L11.8988 12.1012ZM11.8988 10.2378C12.4134 9.72328 13.2476 9.72328 13.7622 10.2378L14.6107 9.3893C13.6275 8.40612 12.0335 8.40612 11.0503 9.3893L11.8988 10.2378ZM13.7622 10.2378C14.2767 10.7524 14.2767 11.5866 13.7622 12.1012L14.6107 12.9497C15.5939 11.9665 15.5939 10.3725 14.6107 9.3893L13.7622 10.2378ZM7.5189 6.22674L2.43349 20.8023L3.56651 21.1977L8.65192 6.62204L7.5189 6.22674ZM3.42426 21.4243L11.8988 12.9497L11.0503 12.1012L2.57574 20.5757L3.42426 21.4243ZM15.1286 3.89225C13.1324 5.52788 10.5954 6.17478 8.16976 5.83035L8.00105 7.01843C10.747 7.40835 13.6239 6.67655 15.8892 4.82046L15.1286 3.89225ZM15.3444 4.07186L17.3783 1.36L16.4183 0.64L14.3844 3.35186L15.3444 4.07186ZM14.4401 4.13613L15.0846 4.78062L15.9332 3.93209L15.2887 3.2876L14.4401 4.13613ZM17.378 15.3481L2.80235 20.4335L3.19765 21.5665L17.7733 16.4811L17.378 15.3481ZM19.1795 8.11083C17.3235 10.3761 16.5917 13.253 16.9816 15.9989L18.1696 15.8302C17.8252 13.4046 18.4721 10.8676 20.1077 8.87137L19.1795 8.11083ZM20.6481 9.61559L23.36 7.5817L22.64 6.6217L19.9281 8.65559L20.6481 9.61559ZM20.7124 8.71133L20.0679 8.06684L19.2194 8.91537L19.8639 9.55986L20.7124 8.71133ZM15.0846 4.78062L19.2194 8.91537L20.0679 8.06684L15.9332 3.93209L15.0846 4.78062Z" fill="#555770"/>
</svg>
