<svg width="24" height="24" viewBox="0 0 24 24" fill="none" xmlns="http://www.w3.org/2000/svg">
<path d="M21 9.3777L21.3267 9.88094L21 9.3777ZM21 12.6223L21.3267 12.1191L21 12.6223ZM7.5 11.6H14.5V10.4H7.5V11.6ZM7.5 17.4C5.89837 17.4 4.6 16.1016 4.6 14.5H3.4C3.4 16.7644 5.23563 18.6 7.5 18.6V17.4ZM17.4 14.5C17.4 16.1016 16.1016 17.4 14.5 17.4V18.6C16.7644 18.6 18.6 16.7644 18.6 14.5H17.4ZM14.5 11.6C16.1016 11.6 17.4 12.8984 17.4 14.5H18.6C18.6 12.2356 16.7644 10.4 14.5 10.4V11.6ZM7.5 10.4C5.23563 10.4 3.4 12.2356 3.4 14.5H4.6C4.6 12.8984 5.89837 11.6 7.5 11.6V10.4ZM7.5 10.4H1V11.6H7.5V10.4ZM1.6 11V9.5H0.4V11H1.6ZM0.4 11V12.5H1.6V11H0.4ZM22.4 6V16H23.6V6H22.4ZM14.5 11.6C16.2972 11.6 19.2739 11.2137 21.3267 9.88094L20.6733 8.87446C18.908 10.0206 16.209 10.4 14.5 10.4V11.6ZM21.3267 9.88094C22.6198 9.04139 23.6 7.78482 23.6 6H22.4C22.4 7.26523 21.7328 8.18656 20.6733 8.87446L21.3267 9.88094ZM14.5 11.6C16.209 11.6 18.908 11.9794 20.6733 13.1255L21.3267 12.1191C19.2739 10.7863 16.2972 10.4 14.5 10.4V11.6ZM20.6733 13.1255C21.7328 13.8134 22.4 14.7348 22.4 16H23.6C23.6 14.2152 22.6198 12.9586 21.3267 12.1191L20.6733 13.1255ZM8.5 17.4H7.5V18.6H8.5V17.4ZM9.1 18V9H7.9V18H9.1ZM14.5 17.4H13.5V18.6H14.5V17.4ZM13.5 17.4H8.5V18.6H13.5V17.4ZM14.1 18V9H12.9V18H14.1Z" fill="#555770"/>
</svg>
