<svg width="24" height="24" viewBox="0 0 24 24" fill="none" xmlns="http://www.w3.org/2000/svg">
<path d="M5.23724 17.5L6.08767 18.0261L6.09536 18.0137L6.10269 18.001L5.23724 17.5ZM16.0693 7.32219C16.5233 7.00783 16.6366 6.38487 16.3222 5.93079C16.0079 5.47671 15.3849 5.36344 14.9308 5.67781L16.0693 7.32219ZM1.57152 22.6286C1.36641 23.1414 1.61583 23.7234 2.12861 23.9285C2.64139 24.1336 3.22336 23.8842 3.42848 23.3714L1.57152 22.6286ZM5.23724 17.5C6.10269 18.001 6.10259 18.0012 6.10251 18.0013C6.10251 18.0013 6.10244 18.0014 6.10242 18.0015C6.10239 18.0015 6.10241 18.0015 6.1025 18.0013C6.10266 18.0011 6.10305 18.0004 6.10367 17.9993C6.1049 17.9972 6.10704 17.9936 6.11009 17.9884C6.11618 17.978 6.12589 17.9616 6.13918 17.9394C6.16576 17.895 6.20667 17.8274 6.26165 17.7387C6.37162 17.5612 6.53778 17.2994 6.75812 16.9698C7.19899 16.3102 7.85554 15.3808 8.71146 14.3129C10.4273 12.172 12.9243 9.49947 16.0693 7.32219L14.9308 5.67781C11.5758 8.00053 8.94143 10.828 7.15084 13.0621C6.25355 14.1817 5.56315 15.1585 5.09537 15.8583C4.86138 16.2084 4.6828 16.4896 4.5616 16.6852C4.50099 16.783 4.45471 16.8594 4.423 16.9124C4.40714 16.9389 4.39493 16.9595 4.38638 16.9741C4.38211 16.9813 4.37876 16.987 4.37633 16.9912C4.37511 16.9933 4.37412 16.995 4.37337 16.9963C4.37299 16.9969 4.37267 16.9975 4.37241 16.9979C4.37228 16.9982 4.37213 16.9984 4.37206 16.9985C4.37192 16.9988 4.3718 16.999 5.23724 17.5ZM4.38682 16.9739C3.11559 19.0288 2.59037 20.0815 1.57152 22.6286L3.42848 23.3714C4.40963 20.9185 4.88441 19.9712 6.08767 18.0261L4.38682 16.9739Z" fill="#3E7BFA"/>
<path d="M4.49993 11L3.57145 10.6286L4.49993 11ZM20.782 2.04725L20.9961 3.02405L20.782 2.04725ZM20.8908 2.19316L20.0179 1.70512L20.8908 2.19316ZM20.5678 1.07044C17.0326 1.84545 13.2879 3.0814 10.1977 4.66337C7.16348 6.21664 4.53661 8.21572 3.57145 10.6286L5.42841 11.3714C6.10694 9.67505 8.14914 7.95889 11.109 6.44365C14.0129 4.95711 17.5874 3.7713 20.9961 3.02405L20.5678 1.07044ZM3.57145 10.6286C3.01089 12.03 2.8168 13.5703 2.96677 14.9227C3.11224 16.2346 3.6109 17.5783 4.6616 18.3178L5.81265 16.6822C5.44241 16.4217 5.07247 15.7654 4.95458 14.7023C4.84118 13.6797 4.98897 12.47 5.42841 11.3714L3.57145 10.6286ZM4.6616 18.3178C5.54489 18.9394 6.83396 19.4294 8.43348 19.2162C10.0243 19.0042 11.8009 18.1133 13.707 16.2071L12.2928 14.7929C10.599 16.4867 9.20466 17.0958 8.16927 17.2338C7.14262 17.3706 6.35028 17.0606 5.81265 16.6822L4.6616 18.3178ZM13.707 16.2071C15.586 14.3282 17.1211 11.7739 18.4143 9.31296C19.0642 8.07607 19.6644 6.84002 20.2186 5.7073C20.7769 4.56598 21.2846 3.53775 21.7636 2.6812L20.0179 1.70512C19.5078 2.61754 18.9764 3.69531 18.4221 4.8284C17.8635 5.97009 17.2774 7.17687 16.6438 8.3826C15.3698 10.8069 13.9486 13.1371 12.2928 14.7929L13.707 16.2071ZM20.9961 3.02405C20.2476 3.18814 19.6346 2.39076 20.0179 1.70512L21.7636 2.6812C22.2313 1.84464 21.4852 0.869325 20.5678 1.07044L20.9961 3.02405Z" fill="#555770"/>
</svg>
