<svg width="24" height="24" viewBox="0 0 24 24" fill="none" xmlns="http://www.w3.org/2000/svg">
<path d="M8.99992 11.5C8.99992 11.4522 8.99897 11.4047 8.99707 11.3574C9.73008 10.5251 10.8037 10 11.9999 10C13.1962 10 14.2698 10.5251 15.0028 11.3574C15.0009 11.4047 14.9999 11.4522 14.9999 11.5" stroke="#3E7BFA" stroke-width="2"/>
<path d="M9 11.5C9 13.433 7.433 15 5.5 15C3.567 15 2 13.433 2 11.5C2 9.567 3.567 8 5.5 8C7.38524 8 8.92234 9.49053 8.99715 11.3574C8.99904 11.4047 9 11.4522 9 11.5Z" stroke="#555770" stroke-width="2"/>
<path d="M22 11.5C22 13.433 20.433 15 18.5 15C16.567 15 15 13.433 15 11.5C15 11.4522 15.001 11.4047 15.0029 11.3574C15.0777 9.49053 16.6148 8 18.5 8C20.433 8 22 9.567 22 11.5Z" stroke="#555770" stroke-width="2"/>
</svg>
