<svg width="24" height="24" viewBox="0 0 24 24" fill="none" xmlns="http://www.w3.org/2000/svg">
<g clip-path="url(#clip0_402_16788)">
<path d="M4.65526 18.5C4.84524 18.7497 5.05423 18.9895 5.28224 19.2175C5.51024 19.4455 5.75005 19.6545 5.9997 19.8445C7.49966 17 10.4997 13.5 14.4997 9.50003C9.29966 12.474 6.49976 16 4.65526 18.5Z" fill="#3E7BFA"/>
<path d="M15.1818 19.2175C12.6761 21.7232 8.74346 21.9322 5.99976 19.8445C5.7501 19.6545 5.51029 19.4455 5.2823 19.2175C5.05429 18.9895 4.84529 18.7497 4.65532 18.5C2.56764 15.7563 2.77664 11.8237 5.2823 9.31804C8.01597 6.58437 18.7173 5.78251 18.7173 5.78251C18.7173 5.78251 17.9155 16.4839 15.1818 19.2175Z" stroke="#555770" stroke-width="2"/>
</g>
<defs>
<clipPath id="clip0_402_16788">
<rect width="24" height="24" fill="white"/>
</clipPath>
</defs>
</svg>
