<svg width="17" height="17" viewBox="0 0 17 17" fill="none" xmlns="http://www.w3.org/2000/svg">
<path d="M14.4958 10.2531C14.3006 10.4484 14.3006 10.765 14.4958 10.9602C14.6911 11.1555 15.0077 11.1555 15.2029 10.9602L14.4958 10.2531ZM15.2029 6.01048C15.0077 5.81522 14.6911 5.81522 14.4958 6.01048C14.3006 6.20574 14.3006 6.52232 14.4958 6.71758L15.2029 6.01048ZM15.2029 10.9602L15.91 10.2531L15.2029 9.54601L14.4958 10.2531L15.2029 10.9602ZM15.91 6.71758L15.2029 6.01048L14.4958 6.71758L15.2029 7.42469L15.91 6.71758ZM15.91 10.2531C16.8864 9.27681 16.8864 7.6939 15.91 6.71758L15.2029 7.42469C15.7887 8.01048 15.7887 8.96023 15.2029 9.54601L15.91 10.2531Z" fill="#3E7BFA"/>
<path d="M2.47487 6.71759C2.67014 6.52232 2.67014 6.20574 2.47487 6.01048C2.27961 5.81522 1.96303 5.81522 1.76777 6.01048L2.47487 6.71759ZM1.76777 10.9602C1.96303 11.1555 2.27961 11.1555 2.47487 10.9602C2.67014 10.765 2.67014 10.4484 2.47487 10.2531L1.76777 10.9602ZM1.76777 6.01048L1.06066 6.71758L1.76777 7.42469L2.47487 6.71759L1.76777 6.01048ZM1.06066 10.2531L1.76777 10.9602L2.47487 10.2531L1.76777 9.54601L1.06066 10.2531ZM1.06066 6.71758C0.0843495 7.6939 0.0843494 9.27681 1.06066 10.2531L1.76777 9.54601C1.18198 8.96023 1.18198 8.01048 1.76777 7.42469L1.06066 6.71758Z" fill="#3E7BFA"/>
<path d="M10.2531 2.47487C10.4484 2.67014 10.765 2.67014 10.9602 2.47487C11.1555 2.27961 11.1555 1.96303 10.9602 1.76777L10.2531 2.47487ZM6.01048 1.76777C5.81522 1.96303 5.81522 2.27961 6.01048 2.47487C6.20574 2.67014 6.52232 2.67014 6.71758 2.47487L6.01048 1.76777ZM10.9602 1.76777L10.2531 1.06066L9.54601 1.76777L10.2531 2.47487L10.9602 1.76777ZM6.71758 1.06066L6.01048 1.76777L6.71758 2.47487L7.42469 1.76777L6.71758 1.06066ZM10.2531 1.06066C9.27681 0.0843494 7.6939 0.0843495 6.71758 1.06066L7.42469 1.76777C8.01048 1.18198 8.96023 1.18198 9.54601 1.76777L10.2531 1.06066Z" fill="#3E7BFA"/>
<path d="M6.71758 14.4956C6.52232 14.3003 6.20574 14.3003 6.01048 14.4956C5.81522 14.6908 5.81522 15.0074 6.01048 15.2027L6.71758 14.4956ZM10.9602 15.2027C11.1555 15.0074 11.1555 14.6908 10.9602 14.4956C10.765 14.3003 10.4484 14.3003 10.2531 14.4956L10.9602 15.2027ZM6.01048 15.2027L6.71758 15.9098L7.42469 15.2027L6.71758 14.4956L6.01048 15.2027ZM10.2531 15.9098L10.9602 15.2027L10.2531 14.4956L9.54601 15.2027L10.2531 15.9098ZM6.71758 15.9098C7.6939 16.8861 9.27681 16.8861 10.2531 15.9098L9.54601 15.2027C8.96023 15.7885 8.01048 15.7885 7.42469 15.2027L6.71758 15.9098Z" fill="#3E7BFA"/>
<circle cx="8.48535" cy="8.48544" r="2.5" transform="rotate(45 8.48535 8.48544)" stroke="#8F90A6"/>
</svg>
