<svg width="24" height="24" viewBox="0 0 24 24" fill="none" xmlns="http://www.w3.org/2000/svg">
<path d="M8.71924 14.0328L8.64862 15.0303L8.71924 14.0328ZM2.43916 18.6838L3.38786 19.0001L3.3899 18.9938L2.43916 18.6838ZM3.97027 13.9876L4.92102 14.2976C5.08315 13.8003 4.83467 13.2621 4.35102 13.063L3.97027 13.9876ZM8.00041 7.00005L8.03172 6.00054L8.01574 6.00004L7.99975 6.00005L8.00041 7.00005ZM13.873 14.8321L14.137 13.8676L13.873 14.8321ZM13.8692 6.18056L14.168 7.13489L13.8692 6.18056ZM13.0004 6.27627V14.7355H15.0004V6.27627H13.0004ZM14.137 13.8676C11.7657 13.2185 9.73681 13.1024 8.78986 13.0353L8.64862 15.0303C9.5978 15.0975 11.4483 15.2052 13.6089 15.7967L14.137 13.8676ZM6.82381 14.3676L5.27966 19.0001L7.17702 19.6325L8.72117 15.0001L6.82381 14.3676ZM5.27965 19.0001H3.38784V21.0001H5.27965V19.0001ZM3.3899 18.9938L4.92102 14.2976L3.01953 13.6777L1.48841 18.3738L3.3899 18.9938ZM5.96947 8.00139L8.00107 8.00005L7.99975 6.00005L5.96815 6.00139L5.96947 8.00139ZM8.00041 7.00005C7.96911 7.99956 7.96929 7.99957 7.96947 7.99957C7.96955 7.99957 7.96975 7.99958 7.96991 7.99959C7.97022 7.9996 7.97057 7.99961 7.97098 7.99962C7.97178 7.99964 7.97277 7.99967 7.97393 7.9997C7.97626 7.99977 7.97931 7.99986 7.98306 7.99995C7.99056 8.00015 8.00089 8.00039 8.01395 8.00066C8.04008 8.00119 8.07715 8.0018 8.12442 8.00221C8.21895 8.00303 8.35444 8.00306 8.52497 8.00011C8.86574 7.99423 9.34808 7.97642 9.92434 7.92895C11.0711 7.83448 12.617 7.62039 14.168 7.13489L13.5705 5.22622C12.2078 5.65278 10.8194 5.84844 9.76013 5.9357C9.23338 5.9791 8.79481 5.99515 8.49042 6.00041C8.33837 6.00304 8.22022 6.00296 8.14176 6.00228C8.10253 6.00194 8.07327 6.00145 8.05468 6.00108C8.04538 6.00089 8.03876 6.00072 8.0349 6.00062C8.03298 6.00057 8.03174 6.00054 8.0312 6.00052C8.03094 6.00052 8.03085 6.00051 8.03093 6.00052C8.03097 6.00052 8.03106 6.00052 8.03119 6.00052C8.03126 6.00053 8.03139 6.00053 8.03142 6.00053C8.03157 6.00054 8.03172 6.00054 8.00041 7.00005ZM4.35102 13.063C2.56981 12.3295 2.16169 10.1604 3.22402 8.79015L1.6434 7.56474C-0.141574 9.86712 0.459175 13.6234 3.58952 14.9123L4.35102 13.063ZM3.38784 19.0001H3.38784L1.49047 18.3676C1.05879 19.6627 2.02272 21.0001 3.38784 21.0001V19.0001ZM5.27966 19.0001H5.27965V21.0001C6.14051 21.0001 6.90479 20.4492 7.17702 19.6325L5.27966 19.0001ZM8.78986 13.0353C7.8739 12.9705 7.09419 13.5564 6.82381 14.3676L8.72117 15.0001C8.72163 14.9987 8.71945 15.006 8.70705 15.0146C8.70076 15.019 8.69194 15.0236 8.68072 15.0268C8.6691 15.03 8.65775 15.031 8.64862 15.0303L8.78986 13.0353ZM5.96815 6.00139C5.29217 6.00184 4.5037 6.03778 3.75493 6.23687C2.9951 6.43889 2.21692 6.82496 1.6434 7.56474L3.22402 8.79015C3.44944 8.49939 3.78684 8.29787 4.26883 8.16971C4.76188 8.03862 5.34149 8.00181 5.96947 8.00139L5.96815 6.00139ZM13.0004 14.7355C13.0004 14.1325 13.5738 13.7135 14.137 13.8676L13.6089 15.7967C14.2999 15.9858 15.0004 15.4711 15.0004 14.7355H13.0004ZM15.0004 6.27627C15.0004 5.52339 14.2696 5.00738 13.5705 5.22622L14.168 7.13489C13.5984 7.31317 13.0004 6.89337 13.0004 6.27627H15.0004Z" fill="#555770"/>
<mask id="mask0_402_16754" style="mask-type:alpha" maskUnits="userSpaceOnUse" x="17" y="3" width="6" height="15">
<path d="M17 3H23V17.9725H17V3Z" fill="white"/>
</mask>
<g mask="url(#mask0_402_16754)">
<circle cx="16" cy="11" r="6" stroke="#3E7BFA" stroke-width="2"/>
<circle cx="16" cy="11" r="2" stroke="#3E7BFA" stroke-width="2"/>
</g>
</svg>
