<svg width="24" height="24" viewBox="0 0 24 24" fill="none" xmlns="http://www.w3.org/2000/svg">
<path d="M6.28516 17L9.1423 19.8572L11.2852 17.7143M11.2852 17.7143L9.49944 15.9286M11.2852 17.7143L13.428 15.5715M13.428 15.5715L10.5709 12.7143M13.428 15.5715L15.5709 13.4286M15.5709 13.4286L13.7852 11.6429M15.5709 13.4286L17.7137 11.2857M17.7137 11.2857L14.8566 8.42861M17.7137 11.2857L19.8566 9.14289L18.0709 7.35718" stroke="#3E7BFA" stroke-width="2"/>
<path d="M17 2L2 17L7 22L9.14286 19.8571L11.2857 17.7143L13.4286 15.5714L15.5714 13.4286L17.7143 11.2857L19.8571 9.14286L22 7L17 2Z" stroke="#555770" stroke-width="2"/>
</svg>
