<svg width="24" height="24" viewBox="0 0 24 24" fill="none" xmlns="http://www.w3.org/2000/svg">
<path d="M9.34399 7.39616C9.32515 7.36038 9.307 7.32418 9.28958 7.28756M9.34399 7.39616C9.32611 7.35978 9.30796 7.32358 9.28958 7.28756M9.34399 7.39616C9.73217 8.18575 10 9.06234 10 10C10 12.973 7.83771 15.441 5 15.917V19H5.5M9.28958 7.28756C9.10391 6.89741 9 6.46084 9 6C9 4.34315 10.3431 3 12 3C13.6569 3 15 4.34315 15 6C15 6.46084 14.8961 6.89741 14.7104 7.28756M5.5 19V19.5H18.5V19M5.5 19H18.5M14.656 7.39616C14.6749 7.36038 14.693 7.32418 14.7104 7.28756M14.656 7.39616C14.6739 7.35978 14.692 7.32358 14.7104 7.28756M14.656 7.39616C14.2678 8.18575 14 9.06234 14 10C14 12.973 16.1623 15.441 19 15.917V19H18.5" stroke="#3E7BFA" stroke-width="2"/>
<mask id="mask0_402_16781" style="mask-type:alpha" maskUnits="userSpaceOnUse" x="12" y="0" width="12" height="24">
<rect x="12" width="12" height="24" fill="black"/>
</mask>
<g mask="url(#mask0_402_16781)">
<path d="M9.34399 7.39616C9.32515 7.36038 9.307 7.32418 9.28958 7.28756M9.34399 7.39616C9.32611 7.35978 9.30796 7.32358 9.28958 7.28756M9.34399 7.39616C9.73217 8.18575 10 9.06234 10 10C10 12.973 7.83771 15.441 5 15.917V19H5.5M9.28958 7.28756C9.10391 6.89741 9 6.46084 9 6C9 4.34315 10.3431 3 12 3C13.6569 3 15 4.34315 15 6C15 6.46084 14.8961 6.89741 14.7104 7.28756M5.5 19V19.5H18.5V19M5.5 19H18.5M14.656 7.39616C14.6749 7.36038 14.693 7.32418 14.7104 7.28756M14.656 7.39616C14.6739 7.35978 14.692 7.32358 14.7104 7.28756M14.656 7.39616C14.2678 8.18575 14 9.06234 14 10C14 12.973 16.1623 15.441 19 15.917V19H18.5" stroke="#555770" stroke-width="2"/>
</g>
</svg>
