<svg width="24" height="24" viewBox="0 0 24 24" fill="none" xmlns="http://www.w3.org/2000/svg">
<path d="M4.509 5.09974L5.16808 3.97288C5.51928 3.37241 6.18561 3 6.90879 3H17.0912C17.8144 3 18.4807 3.37241 18.8319 3.97288L19.491 5.09974C20.3197 6.51667 20.123 8.27522 18.9993 9.49507C17.8966 10.6921 17.5444 12.3547 18.074 13.8637L18.1742 14.1492C18.5685 15.2727 18.5307 16.4926 18.0677 17.5922L16.8954 20.376C16.7709 20.6715 16.5045 20.8924 16.1793 20.9696C15.4838 21.1348 14.8378 20.6029 14.8839 19.9455C14.8893 19.8686 14.8975 19.7932 14.8938 19.7162C14.7789 17.3765 14.0537 12.9148 12 12.9148C9.94631 12.9148 9.22113 17.3765 9.10625 19.7162C9.10247 19.7932 9.1107 19.8686 9.1161 19.9455C9.16223 20.6029 8.5162 21.1348 7.82068 20.9696C7.49551 20.8924 7.22909 20.6715 7.10461 20.376L5.93234 17.5922C5.46929 16.4926 5.43155 15.2727 5.82582 14.1492L5.92603 13.8637C6.45557 12.3547 6.10343 10.6921 5.00072 9.49507C3.877 8.27522 3.68027 6.51667 4.509 5.09974Z" stroke="#3E7BFA" stroke-width="2"/>
<mask id="mask0_402_16800" style="mask-type:alpha" maskUnits="userSpaceOnUse" x="12" y="0" width="12" height="24">
<rect x="12" width="12" height="24" fill="black"/>
</mask>
<g mask="url(#mask0_402_16800)">
<path d="M4.509 5.09974L5.16808 3.97288C5.51928 3.37241 6.18561 3 6.90879 3H17.0912C17.8144 3 18.4807 3.37241 18.8319 3.97288L19.491 5.09974C20.3197 6.51667 20.123 8.27522 18.9993 9.49507C17.8966 10.6921 17.5444 12.3547 18.074 13.8637L18.1742 14.1492C18.5685 15.2727 18.5307 16.4926 18.0677 17.5922L16.8954 20.376C16.7709 20.6715 16.5045 20.8924 16.1793 20.9696C15.4838 21.1348 14.8378 20.6029 14.8839 19.9455C14.8893 19.8686 14.8975 19.7932 14.8938 19.7162C14.7789 17.3765 14.0537 12.9148 12 12.9148C9.94631 12.9148 9.22113 17.3765 9.10625 19.7162C9.10247 19.7932 9.1107 19.8686 9.1161 19.9455C9.16223 20.6029 8.5162 21.1348 7.82068 20.9696C7.49551 20.8924 7.22909 20.6715 7.10461 20.376L5.93234 17.5922C5.46929 16.4926 5.43155 15.2727 5.82582 14.1492L5.92603 13.8637C6.45557 12.3547 6.10343 10.6921 5.00072 9.49507C3.877 8.27522 3.68027 6.51667 4.509 5.09974Z" stroke="#555770" stroke-width="2"/>
</g>
</svg>
