<svg width="24" height="24" viewBox="0 0 24 24" fill="none" xmlns="http://www.w3.org/2000/svg">
<mask id="mask0_402_12975" style="mask-type:alpha" maskUnits="userSpaceOnUse" x="0" y="0" width="24" height="24">
<path d="M8 16V24H0V0H24V24H16V16H8Z" fill="white"/>
</mask>
<g mask="url(#mask0_402_12975)">
<path d="M8.5 18.4C4.68924 18.4 1.6 15.3108 1.6 11.5C1.6 7.68924 4.68924 4.6 8.5 4.6C11.2739 4.6 13.6668 6.23689 14.763 8.60005C14.9209 8.94053 15.3178 9.09546 15.6637 8.95554L15.4387 8.39932L15.6637 8.95554C16.23 8.72644 16.8495 8.6 17.5 8.6C20.2062 8.6 22.4 10.7938 22.4 13.5C22.4 16.2062 20.2062 18.4 17.5 18.4H13H8.5Z" stroke="#555770" stroke-width="1.2"/>
</g>
<path d="M12 20L12 12" stroke="#555770" stroke-width="1.2"/>
<mask id="path-4-inside-1_402_12975" fill="white">
<path d="M15 20L12 23L9 20H15Z"/>
</mask>
<path d="M12 23L11.0808 23.9192L12 24.8385L12.9192 23.9192L12 23ZM15 20L15.9192 20.9192L18.1385 18.7H15V20ZM9 20V18.7H5.86152L8.08076 20.9192L9 20ZM12.9192 23.9192L15.9192 20.9192L14.0808 19.0808L11.0808 22.0808L12.9192 23.9192ZM15 18.7H9V21.3H15V18.7ZM8.08076 20.9192L11.0808 23.9192L12.9192 22.0808L9.91924 19.0808L8.08076 20.9192Z" fill="#555770" mask="url(#path-4-inside-1_402_12975)"/>
</svg>
