<svg width="24" height="24" viewBox="0 0 24 24" fill="none" xmlns="http://www.w3.org/2000/svg">
<path d="M19 8L19.6 8C19.6 7.84087 19.5368 7.68826 19.4243 7.57574L19 8ZM14 3L14.4243 2.57574C14.3117 2.46321 14.1591 2.4 14 2.4L14 3ZM14 8L13.4 8L13.4 8.6L14 8.6L14 8ZM4.4 4L4.4 20L5.6 20L5.6 4L4.4 4ZM14 2.4L6 2.4L6 3.6L14 3.6L14 2.4ZM19.4243 7.57574L14.4243 2.57574L13.5757 3.42426L18.5757 8.42426L19.4243 7.57574ZM13.4 3L13.4 8L14.6 8L14.6 3L13.4 3ZM14 8.6L19 8.6L19 7.4L14 7.4L14 8.6ZM19.6 10.5L19.6 8L18.4 8L18.4 10.5L19.6 10.5ZM6 21.6L10 21.6L10 20.4L6 20.4L6 21.6ZM4.4 20C4.4 20.8837 5.11634 21.6 6 21.6L6 20.4C5.77909 20.4 5.6 20.2209 5.6 20L4.4 20ZM5.6 4C5.6 3.77909 5.77909 3.6 6 3.6L6 2.4C5.11634 2.4 4.4 3.11634 4.4 4L5.6 4Z" fill="#555770"/>
<path d="M17.4611 19.3096L21.5757 23.4243L22.4243 22.5757L18.3096 18.4611L17.4611 19.3096ZM18.4667 16.0333C18.4667 17.9295 16.9295 19.4667 15.0333 19.4667V20.6667C17.5923 20.6667 19.6667 18.5923 19.6667 16.0333H18.4667ZM15.0333 19.4667C13.1372 19.4667 11.6 17.9295 11.6 16.0333H10.4C10.4 18.5923 12.4744 20.6667 15.0333 20.6667V19.4667ZM11.6 16.0333C11.6 14.1372 13.1372 12.6 15.0333 12.6V11.4C12.4744 11.4 10.4 13.4744 10.4 16.0333H11.6ZM15.0333 12.6C16.9295 12.6 18.4667 14.1372 18.4667 16.0333H19.6667C19.6667 13.4744 17.5923 11.4 15.0333 11.4V12.6Z" fill="#555770"/>
</svg>
