<svg width="24" height="24" viewBox="0 0 24 24" fill="none" xmlns="http://www.w3.org/2000/svg">
<mask id="path-1-inside-1_402_12994" fill="white">
<path d="M20 20H4C2.89543 20 2 19.1046 2 18V7V6C2 4.89543 2.89543 4 4 4H9L11 6H21C21.5523 6 22 6.44772 22 7V18C22 19.1046 21.1046 20 20 20Z"/>
</mask>
<path d="M22 6.4H2V7.6H22V6.4ZM11 6L10.1515 6.84853L10.5029 7.2H11V6ZM9 4L9.84853 3.15147L9.49706 2.8H9V4ZM4 21.2H20V18.8H4V21.2ZM21 4.8H11V7.2H21V4.8ZM11.8485 5.15147L9.84853 3.15147L8.15147 4.84853L10.1515 6.84853L11.8485 5.15147ZM9 2.8H4V5.2H9V2.8ZM0.8 6V7H3.2V6H0.8ZM23.2 18V7H20.8V18H23.2ZM0.8 7V18H3.2V7H0.8ZM21 7.2C20.8895 7.2 20.8 7.11046 20.8 7H23.2C23.2 5.78497 22.215 4.8 21 4.8V7.2ZM20 21.2C21.7673 21.2 23.2 19.7673 23.2 18H20.8C20.8 18.4418 20.4418 18.8 20 18.8V21.2ZM4 18.8C3.55817 18.8 3.2 18.4418 3.2 18H0.8C0.8 19.7673 2.23269 21.2 4 21.2V18.8ZM4 2.8C2.23269 2.8 0.8 4.23269 0.8 6H3.2C3.2 5.55817 3.55817 5.2 4 5.2V2.8Z" fill="#555770" mask="url(#path-1-inside-1_402_12994)"/>
<path d="M11.54 11.5851L12 10.517L12.46 11.5851C12.5903 11.8877 12.8755 12.0949 13.2035 12.1253L14.3615 12.2327L13.4878 13.0003C13.2403 13.2177 13.1314 13.5529 13.2038 13.8743L13.4595 15.0088L12.4595 14.415C12.1763 14.2469 11.8237 14.2469 11.5405 14.415L10.5405 15.0088L10.7962 13.8743C10.8686 13.5529 10.7597 13.2177 10.5122 13.0003L9.63849 12.2327L10.7965 12.1253C11.1245 12.0949 11.4097 11.8877 11.54 11.5851Z" stroke="#555770" stroke-width="1.2" stroke-linecap="round" stroke-linejoin="round"/>
</svg>
