<svg width="24" height="24" viewBox="0 0 24 24" fill="none" xmlns="http://www.w3.org/2000/svg">
<path d="M10 2V1.4H9.4V2H10ZM4.5 18L3.91791 18.1455L4.03153 18.6H4.5V18ZM8 15.5L8.46852 15.1252L8 14.5395L7.53148 15.1252L8 15.5ZM8 21L8.26833 20.4633L7.95689 20.3076L7.66718 20.5008L8 21ZM14 2H14.6V1.4H14V2ZM19.5 18V18.6H19.9685L20.0821 18.1455L19.5 18ZM16 15.5L16.4685 15.1252L16 14.5395L15.5315 15.1252L16 15.5ZM16 21L16.3328 20.5008L16.0431 20.3076L15.7317 20.4633L16 21ZM11.9684 9.01054L12.1581 9.57975L11.9684 9.01054ZM12.0316 9.01054L11.8419 9.57975L12.0316 9.01054ZM3.08785 11.9707L2.89811 11.4015L2.89811 11.4015L3.08785 11.9707ZM3.02246 12.0898L3.60455 11.9443L3.02246 12.0898ZM20.9121 11.9707L21.1019 11.4015L20.9121 11.9707ZM20.9775 12.0898L20.3955 11.9443L20.9775 12.0898ZM9.4 2V5H10.6V2H9.4ZM10 4.4H6V5.6H10V4.4ZM4.4 6V11.3333H5.6V6H4.4ZM3.27759 12.5399L5.18974 11.9025L4.81026 10.7641L2.89811 11.4015L3.27759 12.5399ZM5.18974 11.9025L12.1581 9.57975L11.7786 8.44133L4.81026 10.7641L5.18974 11.9025ZM2.44037 12.2354L3.91791 18.1455L5.08209 17.8545L3.60455 11.9443L2.44037 12.2354ZM4.5 18.6C5.03015 18.6 5.54628 18.384 5.9839 18.1265C6.43093 17.8636 6.85554 17.5217 7.2161 17.194C7.57884 16.8642 7.89008 16.5364 8.11004 16.292C8.22038 16.1694 8.30865 16.0668 8.36991 15.9941C8.40056 15.9577 8.42451 15.9288 8.44113 15.9085C8.44945 15.8984 8.45594 15.8904 8.46053 15.8847C8.46282 15.8819 8.46464 15.8796 8.46598 15.878C8.46665 15.8772 8.46719 15.8765 8.46762 15.8759C8.46783 15.8757 8.46801 15.8755 8.46816 15.8753C8.46824 15.8752 8.46833 15.8751 8.46836 15.875C8.46845 15.8749 8.46852 15.8748 8 15.5C7.53148 15.1252 7.53154 15.1251 7.53159 15.125C7.5316 15.125 7.53164 15.125 7.53166 15.125C7.53169 15.1249 7.53168 15.1249 7.53165 15.125C7.53159 15.125 7.53141 15.1253 7.53111 15.1256C7.53051 15.1264 7.52944 15.1277 7.52791 15.1296C7.52483 15.1334 7.51991 15.1395 7.51321 15.1476C7.49981 15.164 7.47932 15.1887 7.45236 15.2207C7.39838 15.2848 7.31868 15.3775 7.21809 15.4892C7.01617 15.7136 6.73366 16.0108 6.4089 16.306C6.08196 16.6033 5.72532 16.8864 5.37548 17.0922C5.01622 17.3035 4.71985 17.4 4.5 17.4V18.6ZM8 15.5C7.53148 15.8748 7.53158 15.8749 7.53168 15.8751C7.53173 15.8751 7.53184 15.8753 7.53193 15.8754C7.53211 15.8756 7.53232 15.8759 7.53256 15.8762C7.53305 15.8768 7.53366 15.8775 7.53439 15.8784C7.53585 15.8802 7.53779 15.8827 7.54022 15.8856C7.54508 15.8916 7.55186 15.8999 7.5605 15.9104C7.57779 15.9313 7.60255 15.9609 7.63429 15.9979C7.69773 16.0719 7.78932 16.1759 7.90512 16.3C8.13599 16.5474 8.46678 16.8783 8.86589 17.2109C9.6357 17.8524 10.7768 18.6 12 18.6V17.4C11.2232 17.4 10.3643 16.8976 9.63411 16.2891C9.28322 15.9967 8.98901 15.7026 8.78238 15.4812C8.67943 15.3709 8.59914 15.2797 8.5454 15.2169C8.51855 15.1856 8.49838 15.1615 8.48539 15.1458C8.4789 15.1379 8.47421 15.1322 8.47137 15.1287C8.46996 15.127 8.46901 15.1258 8.46853 15.1252C8.46829 15.1249 8.46817 15.1247 8.46817 15.1247C8.46817 15.1247 8.4682 15.1248 8.46825 15.1248C8.46828 15.1249 8.46835 15.125 8.46837 15.125C8.46844 15.1251 8.46852 15.1252 8 15.5ZM12 21.4C11.0908 21.4 10.1598 21.1708 9.43974 20.9308C9.0833 20.812 8.78653 20.6932 8.5801 20.6048C8.47704 20.5606 8.39691 20.5241 8.34358 20.4993C8.31692 20.4868 8.297 20.4773 8.28429 20.4711C8.27793 20.4681 8.27338 20.4658 8.2707 20.4645C8.26936 20.4639 8.26849 20.4634 8.26809 20.4632C8.26789 20.4631 8.26781 20.4631 8.26785 20.4631C8.26787 20.4631 8.26792 20.4631 8.268 20.4632C8.26804 20.4632 8.26812 20.4632 8.26814 20.4633C8.26823 20.4633 8.26833 20.4633 8 21C7.73167 21.5367 7.73178 21.5367 7.7319 21.5368C7.73195 21.5368 7.73208 21.5369 7.73218 21.5369C7.73238 21.537 7.73262 21.5371 7.73288 21.5373C7.73341 21.5375 7.73405 21.5378 7.73482 21.5382C7.73636 21.539 7.73839 21.54 7.74089 21.5412C7.7459 21.5437 7.75283 21.5471 7.76161 21.5513C7.77918 21.5598 7.80417 21.5718 7.83611 21.5867C7.89997 21.6165 7.99171 21.6582 8.1074 21.7077C8.33847 21.8068 8.6667 21.938 9.06026 22.0692C9.84021 22.3292 10.9092 22.6 12 22.6V21.4ZM8 21C7.66718 20.5008 7.66729 20.5007 7.66739 20.5006C7.66741 20.5006 7.66751 20.5005 7.66756 20.5005C7.66767 20.5004 7.66775 20.5004 7.66781 20.5003C7.66793 20.5003 7.66796 20.5002 7.66791 20.5003C7.6678 20.5004 7.66733 20.5007 7.66652 20.5012C7.66489 20.5023 7.66187 20.5042 7.65751 20.5071C7.64879 20.5127 7.63471 20.5217 7.61564 20.5335C7.57746 20.5573 7.51945 20.5925 7.4445 20.6353C7.29419 20.7212 7.07803 20.8365 6.81882 20.9517C6.2899 21.1868 5.62907 21.4 5 21.4V22.6C5.87093 22.6 6.7101 22.3132 7.30618 22.0483C7.60947 21.9135 7.86206 21.7788 8.03987 21.6772C8.12899 21.6263 8.19989 21.5833 8.2496 21.5524C8.27447 21.5369 8.29408 21.5244 8.30806 21.5154C8.31506 21.5109 8.32065 21.5073 8.32479 21.5045C8.32686 21.5032 8.32857 21.5021 8.32991 21.5012C8.33058 21.5007 8.33116 21.5003 8.33164 21.5C8.33188 21.4999 8.3321 21.4997 8.3323 21.4996C8.3324 21.4995 8.33253 21.4994 8.33258 21.4994C8.3327 21.4993 8.33282 21.4992 8 21ZM5 21.4H2V22.6H5V21.4ZM13.4 2V5H14.6V2H13.4ZM14 5.6H18V4.4H14V5.6ZM18.4 6V11.3333H19.6V6H18.4ZM21.1019 11.4015L19.1897 10.7641L18.8103 11.9025L20.7224 12.5399L21.1019 11.4015ZM19.1897 10.7641L12.2214 8.44133L11.8419 9.57975L18.8103 11.9025L19.1897 10.7641ZM20.3955 11.9443L18.9179 17.8545L20.0821 18.1455L21.5596 12.2354L20.3955 11.9443ZM19.5 17.4C19.2802 17.4 18.9838 17.3035 18.6245 17.0922C18.2747 16.8864 17.918 16.6033 17.5911 16.306C17.2663 16.0108 16.9838 15.7136 16.7819 15.4892C16.6813 15.3775 16.6016 15.2848 16.5476 15.2207C16.5207 15.1887 16.5002 15.164 16.4868 15.1476C16.4801 15.1395 16.4752 15.1334 16.4721 15.1296C16.4706 15.1277 16.4695 15.1264 16.4689 15.1256C16.4686 15.1253 16.4684 15.125 16.4683 15.125C16.4683 15.1249 16.4683 15.1249 16.4683 15.125C16.4684 15.125 16.4684 15.125 16.4684 15.125C16.4685 15.1251 16.4685 15.1252 16 15.5C15.5315 15.8748 15.5316 15.8749 15.5316 15.875C15.5317 15.8751 15.5318 15.8752 15.5318 15.8753C15.532 15.8755 15.5322 15.8757 15.5324 15.8759C15.5328 15.8765 15.5334 15.8772 15.534 15.878C15.5354 15.8796 15.5372 15.8819 15.5395 15.8847C15.5441 15.8904 15.5506 15.8984 15.5589 15.9085C15.5755 15.9288 15.5994 15.9577 15.6301 15.9941C15.6914 16.0668 15.7796 16.1694 15.89 16.292C16.1099 16.5364 16.4212 16.8642 16.7839 17.194C17.1445 17.5217 17.5691 17.8636 18.0161 18.1265C18.4537 18.384 18.9698 18.6 19.5 18.6V17.4ZM16 15.5C15.5315 15.1252 15.5316 15.1251 15.5316 15.125C15.5316 15.125 15.5317 15.1249 15.5317 15.1248C15.5318 15.1248 15.5318 15.1247 15.5318 15.1247C15.5318 15.1247 15.5317 15.1249 15.5315 15.1252C15.531 15.1258 15.53 15.127 15.5286 15.1287C15.5258 15.1322 15.5211 15.1379 15.5146 15.1458C15.5016 15.1615 15.4815 15.1856 15.4546 15.2169C15.4009 15.2797 15.3206 15.3709 15.2176 15.4812C15.011 15.7026 14.7168 15.9967 14.3659 16.2891C13.6357 16.8976 12.7768 17.4 12 17.4V18.6C13.2232 18.6 14.3643 17.8524 15.1341 17.2109C15.5332 16.8783 15.864 16.5474 16.0949 16.3C16.2107 16.1759 16.3023 16.0719 16.3657 15.9979C16.3975 15.9609 16.4222 15.9313 16.4395 15.9104C16.4481 15.8999 16.4549 15.8916 16.4598 15.8856C16.4622 15.8827 16.4642 15.8802 16.4656 15.8784C16.4663 15.8775 16.467 15.8768 16.4674 15.8762C16.4677 15.8759 16.4679 15.8756 16.4681 15.8754C16.4682 15.8753 16.4683 15.8751 16.4683 15.8751C16.4684 15.8749 16.4685 15.8748 16 15.5ZM12 22.6C13.0908 22.6 14.1598 22.3292 14.9397 22.0692C15.3333 21.938 15.6615 21.8068 15.8926 21.7077C16.0083 21.6582 16.1 21.6165 16.1639 21.5867C16.1958 21.5718 16.2208 21.5598 16.2384 21.5513C16.2472 21.5471 16.2541 21.5437 16.2591 21.5412C16.2616 21.54 16.2636 21.539 16.2652 21.5382C16.2659 21.5378 16.2666 21.5375 16.2671 21.5373C16.2674 21.5371 16.2676 21.537 16.2678 21.5369C16.2679 21.5369 16.268 21.5368 16.2681 21.5368C16.2682 21.5367 16.2683 21.5367 16 21C15.7317 20.4633 15.7318 20.4633 15.7319 20.4633C15.7319 20.4632 15.732 20.4632 15.732 20.4632C15.7321 20.4631 15.7321 20.4631 15.7321 20.4631C15.7322 20.4631 15.7321 20.4631 15.7319 20.4632C15.7315 20.4634 15.7306 20.4639 15.7293 20.4645C15.7266 20.4658 15.7221 20.4681 15.7157 20.4711C15.703 20.4773 15.6831 20.4868 15.6564 20.4993C15.6031 20.5241 15.523 20.5606 15.4199 20.6048C15.2135 20.6932 14.9167 20.812 14.5603 20.9308C13.8402 21.1708 12.9092 21.4 12 21.4V22.6ZM16 21C15.6672 21.4992 15.6673 21.4993 15.6674 21.4994C15.6675 21.4994 15.6676 21.4995 15.6677 21.4996C15.6679 21.4997 15.6681 21.4999 15.6684 21.5C15.6688 21.5003 15.6694 21.5007 15.6701 21.5012C15.6714 21.5021 15.6731 21.5032 15.6752 21.5045C15.6794 21.5073 15.6849 21.5109 15.6919 21.5154C15.7059 21.5244 15.7255 21.5369 15.7504 21.5524C15.8001 21.5833 15.871 21.6263 15.9601 21.6772C16.1379 21.7788 16.3905 21.9135 16.6938 22.0483C17.2899 22.3132 18.1291 22.6 19 22.6V21.4C18.3709 21.4 17.7101 21.1868 17.1812 20.9517C16.922 20.8365 16.7058 20.7212 16.5555 20.6353C16.4805 20.5925 16.4225 20.5573 16.3844 20.5335C16.3653 20.5217 16.3512 20.5127 16.3425 20.5071C16.3381 20.5042 16.3351 20.5023 16.3335 20.5012C16.3327 20.5007 16.3322 20.5004 16.3321 20.5003C16.332 20.5002 16.3321 20.5003 16.3322 20.5003C16.3322 20.5004 16.3323 20.5004 16.3324 20.5005C16.3325 20.5005 16.3326 20.5006 16.3326 20.5006C16.3327 20.5007 16.3328 20.5008 16 21ZM19 22.6H22V21.4H19V22.6ZM14 1.4H10V2.6H14V1.4ZM10 5.6H14V4.4H10V5.6ZM18 5.6C18.2209 5.6 18.4 5.77909 18.4 6H19.6C19.6 5.11634 18.8837 4.4 18 4.4V5.6ZM12.1581 9.57975C12.0555 9.61396 11.9445 9.61396 11.8419 9.57975L12.2214 8.44133C12.0777 8.39344 11.9223 8.39344 11.7786 8.44133L12.1581 9.57975ZM2.89811 11.4015C2.55111 11.5172 2.35166 11.8805 2.44037 12.2354L3.60455 11.9443C3.66791 12.1978 3.52545 12.4573 3.27759 12.5399L2.89811 11.4015ZM20.7224 12.5399C20.4746 12.4573 20.3321 12.1978 20.3955 11.9443L21.5596 12.2354C21.6483 11.8805 21.4489 11.5172 21.1019 11.4015L20.7224 12.5399ZM6 4.4C5.11634 4.4 4.4 5.11634 4.4 6H5.6C5.6 5.77909 5.77909 5.6 6 5.6V4.4Z" fill="#555770"/>
</svg>
