<svg width="24" height="24" viewBox="0 0 24 24" fill="none" xmlns="http://www.w3.org/2000/svg">
<path d="M17 7H16.4V7.24853L16.5757 7.42426L17 7ZM19 12.6586L18.8001 12.0929L18.8001 12.0929L19 12.6586ZM13.6822 12L14.0144 11.5004L14.0144 11.5004L13.6822 12ZM5.6 7V6H4.4V7H5.6ZM5.6 18V12H4.4V18H5.6ZM5.6 12V7H4.4V12H5.6ZM5.4 19V20.9H6.6V19H5.4ZM6.1 21.6H6.9V20.4H6.1V21.6ZM6 19.6H7V18.4H6V19.6ZM7.6 20.9V19H6.4V20.9H7.6ZM7 19.6H17V18.4H7V19.6ZM16.4 19V20.9H17.6V19H16.4ZM17.1 21.6H17.9V20.4H17.1V21.6ZM17 19.6H18V18.4H17V19.6ZM18.6 20.9V19H17.4V20.9H18.6ZM17.9 21.6C18.2866 21.6 18.6 21.2866 18.6 20.9H17.4C17.4 20.6239 17.6239 20.4 17.9 20.4V21.6ZM18.4 18C18.4 18.2209 18.2209 18.4 18 18.4V19.6C18.8837 19.6 19.6 18.8837 19.6 18H18.4ZM16.4 20.9C16.4 21.2866 16.7134 21.6 17.1 21.6V20.4C17.3761 20.4 17.6 20.6239 17.6 20.9H16.4ZM4.4 18C4.4 18.8837 5.11634 19.6 6 19.6V18.4C5.77909 18.4 5.6 18.2209 5.6 18H4.4ZM6.9 21.6C7.2866 21.6 7.6 21.2866 7.6 20.9H6.4C6.4 20.6239 6.62386 20.4 6.9 20.4V21.6ZM5.4 20.9C5.4 21.2866 5.7134 21.6 6.1 21.6V20.4C6.37614 20.4 6.6 20.6239 6.6 20.9H5.4ZM17 1.6C19.9823 1.6 22.4 4.01766 22.4 7H23.6C23.6 3.35492 20.6451 0.4 17 0.4V1.6ZM17.6 7V3.5H16.4V7H17.6ZM16.5757 7.42426L19.0757 9.92426L19.9243 9.07574L17.4243 6.57574L16.5757 7.42426ZM11.6 7C11.6 6.01563 11.8628 5.09447 12.3218 4.30092L11.283 3.70016C10.7213 4.67141 10.4 5.79909 10.4 7H11.6ZM12.3218 4.30092C13.2563 2.68502 15.0018 1.6 17 1.6V0.4C14.5561 0.4 12.4232 1.72865 11.283 3.70016L12.3218 4.30092ZM5 6C5.6 6 5.6 6.00101 5.6 6.00201C5.6 6.00234 5.59999 6.00334 5.59999 6.00399C5.59998 6.00529 5.59996 6.00657 5.59995 6.00783C5.59991 6.01034 5.59986 6.01276 5.5998 6.01508C5.59967 6.01972 5.59949 6.02397 5.59927 6.02786C5.59884 6.03563 5.59826 6.04191 5.5977 6.04679C5.59657 6.05658 5.59549 6.06065 5.59574 6.05965C5.59609 6.05824 5.60217 6.03403 5.62621 5.99229C5.67257 5.9118 5.80342 5.73589 6.15226 5.53273C6.86775 5.11603 8.44273 4.61896 11.8057 4.60053L11.7991 3.40055C8.35965 3.4194 6.53344 3.92206 5.54834 4.49577C5.04688 4.78782 4.75258 5.10478 4.58636 5.39337C4.50412 5.53616 4.45705 5.66554 4.43083 5.77158C4.41779 5.82431 4.41007 5.87057 4.40562 5.90912C4.4034 5.92838 4.40199 5.94569 4.40114 5.96088C4.40072 5.96848 4.40043 5.97555 4.40025 5.98208C4.40016 5.98534 4.4001 5.98847 4.40006 5.99145C4.40004 5.99295 4.40002 5.99441 4.40001 5.99583C4.40001 5.99654 4.4 5.99759 4.4 5.99794C4.4 5.99897 4.4 6 5 6ZM22.4 7C22.4 9.35026 20.8982 11.3513 18.8001 12.0929L19.1999 13.2243C21.7626 12.3185 23.6 9.87462 23.6 7H22.4ZM18.8001 12.0929C18.2378 12.2916 17.6322 12.4 17 12.4V13.6C17.7703 13.6 18.5111 13.4678 19.1999 13.2243L18.8001 12.0929ZM19.6 18V12.6586H18.4V18H19.6ZM17 12.4C15.8951 12.4 14.8693 12.0688 14.0144 11.5004L13.35 12.4996C14.3957 13.1949 15.6514 13.6 17 13.6V12.4ZM14.0144 11.5004C12.5579 10.5319 11.6 8.87769 11.6 7H10.4C10.4 9.29625 11.5732 11.3182 13.35 12.4996L14.0144 11.5004ZM13.6822 11.4H5V12.6H13.6822V11.4ZM11 6.4H5V7.6H11V6.4Z" fill="#555770"/>
<path d="M10 15.5C10 16.3284 9.32843 17 8.5 17C7.67157 17 7 16.3284 7 15.5C7 14.6716 7.67157 14 8.5 14C9.32843 14 10 14.6716 10 15.5Z" fill="#555770"/>
<path d="M17 15.5C17 16.3284 16.3284 17 15.5 17C14.6716 17 14 16.3284 14 15.5C14 14.6716 14.6716 14 15.5 14C16.3284 14 17 14.6716 17 15.5Z" fill="#555770"/>
</svg>
