<svg width="24" height="24" viewBox="0 0 24 24" fill="none" xmlns="http://www.w3.org/2000/svg">
<path d="M5 6C5.6 6 5.6 6.00102 5.6 6.00203C5.6 6.00236 5.59999 6.00337 5.59999 6.00403C5.59998 6.00534 5.59996 6.00664 5.59995 6.0079C5.59991 6.01044 5.59986 6.01287 5.5998 6.01521C5.59967 6.01989 5.59948 6.02417 5.59926 6.02808C5.59882 6.0359 5.59824 6.0422 5.59767 6.04707C5.59653 6.05684 5.59545 6.06079 5.59576 6.05958C5.59621 6.05777 5.60262 6.03271 5.62764 5.98982C5.67595 5.90701 5.81177 5.72718 6.17268 5.52095C6.91268 5.09809 8.53748 4.6 12 4.6V3.4C8.46252 3.4 6.58732 3.90191 5.57732 4.47905C5.06323 4.77282 4.76155 5.09299 4.59111 5.38518C4.50675 5.52979 4.45848 5.66098 4.43159 5.76854C4.41822 5.82202 4.41031 5.86894 4.40575 5.90801C4.40347 5.92753 4.40204 5.94506 4.40117 5.96045C4.40073 5.96814 4.40044 5.97529 4.40026 5.98189C4.40017 5.98519 4.4001 5.98835 4.40006 5.99137C4.40004 5.99288 4.40002 5.99435 4.40001 5.99579C4.40001 5.99651 4.4 5.99756 4.4 5.99792C4.4 5.99896 4.4 6 5 6ZM19 6C19.6 6 19.6 5.99896 19.6 5.99792C19.6 5.99756 19.6 5.99651 19.6 5.99579C19.6 5.99435 19.6 5.99288 19.5999 5.99137C19.5999 5.98835 19.5998 5.98519 19.5997 5.98189C19.5996 5.97529 19.5993 5.96814 19.5988 5.96045C19.598 5.94506 19.5965 5.92753 19.5942 5.90801C19.5897 5.86894 19.5818 5.82202 19.5684 5.76854C19.5415 5.66098 19.4932 5.52979 19.4089 5.38518C19.2384 5.09299 18.9368 4.77282 18.4227 4.47905C17.4127 3.90191 15.5375 3.4 12 3.4V4.6C15.4625 4.6 17.0873 5.09809 17.8273 5.52095C18.1882 5.72718 18.3241 5.90701 18.3724 5.98982C18.3974 6.03271 18.4038 6.05777 18.4042 6.05958C18.4045 6.06079 18.4035 6.05684 18.4023 6.04707C18.4018 6.0422 18.4012 6.0359 18.4007 6.02808C18.4005 6.02417 18.4003 6.01989 18.4002 6.01521C18.4001 6.01287 18.4001 6.01044 18.4001 6.0079C18.4 6.00664 18.4 6.00534 18.4 6.00403C18.4 6.00337 18.4 6.00236 18.4 6.00203C18.4 6.00102 18.4 6 19 6ZM5.6 7V6H4.4V7H5.6ZM19.6 7V6H18.4V7H19.6ZM5 7.6H19V6.4H5V7.6ZM19.6 18V12H18.4V18H19.6ZM19.6 12V7H18.4V12H19.6ZM5.6 18V12H4.4V18H5.6ZM5.6 12V7H4.4V12H5.6ZM19 11.4H5V12.6H19V11.4ZM5.4 19V20.9H6.6V19H5.4ZM6.1 21.6H6.9V20.4H6.1V21.6ZM6 19.6H7V18.4H6V19.6ZM7.6 20.9V19H6.4V20.9H7.6ZM7 19.6H17V18.4H7V19.6ZM16.4 19V20.9H17.6V19H16.4ZM17.1 21.6H17.9V20.4H17.1V21.6ZM17 19.6H18V18.4H17V19.6ZM18.6 20.9V19H17.4V20.9H18.6ZM17.9 21.6C18.2866 21.6 18.6 21.2866 18.6 20.9H17.4C17.4 20.6239 17.6239 20.4 17.9 20.4V21.6ZM18.4 18C18.4 18.2209 18.2209 18.4 18 18.4V19.6C18.8837 19.6 19.6 18.8837 19.6 18H18.4ZM16.4 20.9C16.4 21.2866 16.7134 21.6 17.1 21.6V20.4C17.3761 20.4 17.6 20.6239 17.6 20.9H16.4ZM4.4 18C4.4 18.8837 5.11634 19.6 6 19.6V18.4C5.77909 18.4 5.6 18.2209 5.6 18H4.4ZM6.9 21.6C7.2866 21.6 7.6 21.2866 7.6 20.9H6.4C6.4 20.6239 6.62386 20.4 6.9 20.4V21.6ZM5.4 20.9C5.4 21.2866 5.7134 21.6 6.1 21.6V20.4C6.37614 20.4 6.6 20.6239 6.6 20.9H5.4Z" fill="#555770"/>
<path d="M10 15.5C10 16.3284 9.32843 17 8.5 17C7.67157 17 7 16.3284 7 15.5C7 14.6716 7.67157 14 8.5 14C9.32843 14 10 14.6716 10 15.5Z" fill="#555770"/>
<path d="M17 15.5C17 16.3284 16.3284 17 15.5 17C14.6716 17 14 16.3284 14 15.5C14 14.6716 14.6716 14 15.5 14C16.3284 14 17 14.6716 17 15.5Z" fill="#555770"/>
</svg>
