<svg width="24" height="24" viewBox="0 0 24 24" fill="none" xmlns="http://www.w3.org/2000/svg">
<path d="M11.5 9H12.5C13.0523 9 13.5 9.44772 13.5 10V14.5H10.5V10C10.5 9.44772 10.9477 9 11.5 9Z" fill="black"/>
<path d="M10.5 5.5C10.5 6.32843 11.1716 7 12 7C12.8284 7 13.5 6.32843 13.5 5.5C13.5 4.67157 12.8284 4 12 4C11.1716 4 10.5 4.67157 10.5 5.5Z" fill="black"/>
<path d="M12.5 9.6H11.5V8.4H12.5V9.6ZM2 8.4H9V9.6H2V8.4ZM16.6 8.5V15.5H15.4V8.5H16.6ZM14.1 10V14.5H12.9V10H14.1ZM14.1 14.5V22H12.9V14.5H14.1ZM11.1 10V14.5H9.9V10H11.1ZM11.1 14.5V22H9.9V14.5H11.1ZM13.5 15.1H10.5V13.9H13.5V15.1ZM11.5 9.6C11.2791 9.6 11.1 9.77909 11.1 10H9.9C9.9 9.11634 10.6163 8.4 11.5 8.4V9.6ZM12.5 8.4C13.3837 8.4 14.1 9.11634 14.1 10H12.9C12.9 9.77909 12.7209 9.6 12.5 9.6V8.4ZM11.1 5.5C11.1 5.99706 11.5029 6.4 12 6.4V7.6C10.8402 7.6 9.9 6.6598 9.9 5.5H11.1ZM12 6.4C12.4971 6.4 12.9 5.99706 12.9 5.5H14.1C14.1 6.6598 13.1598 7.6 12 7.6V6.4ZM12.9 5.5C12.9 5.00294 12.4971 4.6 12 4.6V3.4C13.1598 3.4 14.1 4.3402 14.1 5.5H12.9ZM12 4.6C11.5029 4.6 11.1 5.00294 11.1 5.5H9.9C9.9 4.3402 10.8402 3.4 12 3.4V4.6Z" fill="#555770"/>
</svg>
