<svg width="24" height="24" viewBox="0 0 24 24" fill="none" xmlns="http://www.w3.org/2000/svg">
<path d="M2.77043 11.3992H2.17043V11.8591L2.61454 11.9786L2.77043 11.3992ZM2.77043 6.24904L2.92517 5.66934L2.17043 5.46788V6.24904H2.77043ZM4.22798 6.6381L4.78442 6.41366L4.6723 6.1357L4.38272 6.0584L4.22798 6.6381ZM5.16173 8.95303L4.60529 9.17747L4.71712 9.45471L5.00579 9.53241L5.16173 8.95303ZM10.1126 10.2856L9.95661 10.8649L10.7126 11.0684V10.2856H10.1126ZM10.1126 1.99854L10.2642 1.41803L9.51255 1.22161V1.99854H10.1126ZM12.0481 2.50431L12.6219 2.3289L12.524 2.0085L12.1998 1.9238L12.0481 2.50431ZM14.8105 11.5403L14.2367 11.7157L14.3342 12.0346L14.6566 12.1202L14.8105 11.5403ZM20.1104 12.947L19.9565 13.527L20.1104 12.947ZM21.5 18.4H2.5V19.6H21.5V18.4ZM3.37043 11.3992V6.24904H2.17043V11.3992H3.37043ZM2.61569 6.82875L4.07324 7.21781L4.38272 6.0584L2.92517 5.66934L2.61569 6.82875ZM3.67154 6.86255L4.60529 9.17747L5.71817 8.72858L4.78442 6.41366L3.67154 6.86255ZM5.00579 9.53241L9.95661 10.8649L10.2685 9.70618L5.31768 8.37365L5.00579 9.53241ZM10.7126 10.2856V1.99854H9.51255V10.2856H10.7126ZM9.96086 2.57904L11.8964 3.08482L12.1998 1.9238L10.2642 1.41803L9.96086 2.57904ZM11.4744 2.67972L14.2367 11.7157L15.3843 11.3649L12.6219 2.3289L11.4744 2.67972ZM14.6566 12.1202L19.9565 13.527L20.2643 12.3671L14.9644 10.9604L14.6566 12.1202ZM19.489 15.276L2.92631 10.8198L2.61454 11.9786L19.1773 16.4348L19.489 15.276ZM20.5972 14.6413C20.4654 15.1218 19.9702 15.4055 19.489 15.276L19.1773 16.4348C20.2962 16.7359 21.448 16.0761 21.7545 14.9587L20.5972 14.6413ZM19.9565 13.527C20.4425 13.656 20.7302 14.1564 20.5972 14.6413L21.7545 14.9587C22.0638 13.8309 21.3946 12.6671 20.2643 12.3671L19.9565 13.527Z" fill="#555770"/>
</svg>
