<svg width="24" height="24" viewBox="0 0 24 24" fill="none" xmlns="http://www.w3.org/2000/svg">
<mask id="mask0_402_13439" style="mask-type:alpha" maskUnits="userSpaceOnUse" x="0" y="0" width="24" height="24">
<path d="M21.5033 21.5L0.00325155 0L0 24H24V0H5.69812V3.57552L22.645 20.5233L21.5033 21.5Z" fill="white"/>
</mask>
<g mask="url(#mask0_402_13439)">
<path d="M2.5 3L21 21.5" stroke="#555770" stroke-width="1.5"/>
<path d="M10.5 9L10.8042 9.51716L11.1 9.34317V9H10.5ZM2 14L1.69579 13.4828L1.4 13.6568V14H2ZM2 16H1.4V16.8019L2.1693 16.5756L2 16ZM10.5 13.5H11.1V12.6981L10.3307 12.9244L10.5 13.5ZM10.5 19L10.8087 19.5145L11.1 19.3397V19H10.5ZM8 20.5L7.6913 19.9855L7.4 20.1603V20.5H8ZM8 22H7.4V22.7685L8.14552 22.5821L8 22ZM12 21L12.1455 20.4179L12 20.3815L11.8545 20.4179L12 21ZM13.5 9H12.9V9.34317L13.1958 9.51716L13.5 9ZM22 14H22.6V13.6568L22.3042 13.4828L22 14ZM22 16L21.8307 16.5756L22.6 16.8019V16H22ZM13.5 13.5L13.6693 12.9244L12.9 12.6981V13.5H13.5ZM13.5 19H12.9V19.3397L13.1913 19.5145L13.5 19ZM16 20.5H16.6V20.1603L16.3087 19.9855L16 20.5ZM16 22L15.8545 22.5821L16.6 22.7685V22H16ZM9.9 4.12132V9H11.1V4.12132H9.9ZM10.1958 8.48284L1.69579 13.4828L2.30421 14.5172L10.8042 9.51716L10.1958 8.48284ZM1.4 14V16H2.6V14H1.4ZM2.1693 16.5756L10.6693 14.0756L10.3307 12.9244L1.8307 15.4244L2.1693 16.5756ZM9.9 13.5V19H11.1V13.5H9.9ZM10.1913 18.4855L7.6913 19.9855L8.3087 21.0145L10.8087 19.5145L10.1913 18.4855ZM7.4 20.5V22H8.6V20.5H7.4ZM8.14552 22.5821L12.1455 21.5821L11.8545 20.4179L7.85448 21.4179L8.14552 22.5821ZM12.9 4.12132V9H14.1V4.12132H12.9ZM13.1958 9.51716L21.6958 14.5172L22.3042 13.4828L13.8042 8.48284L13.1958 9.51716ZM21.4 14V16H22.6V14H21.4ZM22.1693 15.4244L13.6693 12.9244L13.3307 14.0756L21.8307 16.5756L22.1693 15.4244ZM12.9 13.5V19H14.1V13.5H12.9ZM13.1913 19.5145L15.6913 21.0145L16.3087 19.9855L13.8087 18.4855L13.1913 19.5145ZM15.4 20.5V22H16.6V20.5H15.4ZM16.1455 21.4179L12.1455 20.4179L11.8545 21.5821L15.8545 22.5821L16.1455 21.4179ZM10.5151 2.6364C10.1212 3.03022 9.9 3.56437 9.9 4.12132H11.1C11.1 3.88263 11.1948 3.65371 11.3636 3.48492L10.5151 2.6364ZM12.6364 3.48492C12.8052 3.65371 12.9 3.88263 12.9 4.12132H14.1C14.1 3.56437 13.8788 3.03022 13.4849 2.6364L12.6364 3.48492ZM11.3636 3.48492C11.7151 3.13345 12.2849 3.13345 12.6364 3.48492L13.4849 2.6364C12.6648 1.8163 11.3352 1.8163 10.5151 2.6364L11.3636 3.48492Z" fill="#555770"/>
</g>
</svg>
