<svg width="24" height="24" viewBox="0 0 24 24" fill="none" xmlns="http://www.w3.org/2000/svg">
<path d="M5 15V14.4H4.4V15H5ZM19.6 15V11H18.4V15H19.6ZM22 17.4H19V18.6H22V17.4ZM12 9.4H7V10.6H12V9.4ZM5 15.6H12V14.4H5V15.6ZM11.4 10V15H12.6V10H11.4ZM18 9.4H12V10.6H18V9.4ZM12 15.6H19V14.4H12V15.6ZM5.6 17V16.5H4.4V17H5.6ZM5.6 16.5V15H4.4V16.5H5.6ZM18.4 15V16.5H19.6V15H18.4ZM18.4 16.5V18H19.6V16.5H18.4ZM19.6 11C19.6 10.1163 18.8837 9.4 18 9.4V10.6C18.2209 10.6 18.4 10.7791 18.4 11H19.6ZM6 17.4C5.77909 17.4 5.6 17.2209 5.6 17H4.4C4.4 17.8837 5.11635 18.6 6 18.6V17.4ZM12.4 19C12.4 19.7732 11.7732 20.4 11 20.4V21.6C12.4359 21.6 13.6 20.4359 13.6 19H12.4ZM11 20.4C10.2268 20.4 9.6 19.7732 9.6 19H8.4C8.4 20.4359 9.56406 21.6 11 21.6V20.4ZM9.6 19C9.6 18.2268 10.2268 17.6 11 17.6V16.4C9.56406 16.4 8.4 17.5641 8.4 19H9.6ZM11 17.6C11.7732 17.6 12.4 18.2268 12.4 19H13.6C13.6 17.5641 12.4359 16.4 11 16.4V17.6ZM19 17.4H12.7324V18.6H19V17.4ZM9.25 17.4H6V18.6H9.25V17.4ZM9 5.6H17V4.4H9V5.6Z" fill="#555770"/>
<path d="M17 8V2L20 5L17 8Z" fill="#555770"/>
<path d="M7 13V7L4 10L7 13Z" fill="#555770"/>
</svg>
