<svg width="24" height="24" viewBox="0 0 24 24" fill="none" xmlns="http://www.w3.org/2000/svg">
<path d="M18.6 12V8H17.4V12H18.6ZM21 14.4H18V15.6H21V14.4ZM11 6.4H5V7.6H11V6.4ZM4 12.6H11V11.4H4V12.6ZM10.4 7V12H11.6V7H10.4ZM17 6.4H11V7.6H17V6.4ZM11 12.6H18V11.4H11V12.6ZM4.6 14V13.5H3.4V14H4.6ZM4.6 13.5V12H3.4V13.5H4.6ZM17.4 12V13.5H18.6V12H17.4ZM17.4 13.5V15H18.6V13.5H17.4ZM18.6 8C18.6 7.11634 17.8837 6.4 17 6.4V7.6C17.2209 7.6 17.4 7.77909 17.4 8H18.6ZM5 14.4C4.77909 14.4 4.6 14.2209 4.6 14H3.4C3.4 14.8837 4.11635 15.6 5 15.6V14.4ZM11.4 16C11.4 16.7732 10.7732 17.4 10 17.4V18.6C11.4359 18.6 12.6 17.4359 12.6 16H11.4ZM10 17.4C9.2268 17.4 8.6 16.7732 8.6 16H7.4C7.4 17.4359 8.56406 18.6 10 18.6V17.4ZM8.6 16C8.6 15.2268 9.2268 14.6 10 14.6V13.4C8.56406 13.4 7.4 14.5641 7.4 16H8.6ZM10 14.6C10.7732 14.6 11.4 15.2268 11.4 16H12.6C12.6 14.5641 11.4359 13.4 10 13.4V14.6ZM18 14.4H11.7324V15.6H18V14.4ZM8.25 14.4H5V15.6H8.25V14.4ZM4.6 12V8H3.4V12H4.6ZM5 6.4C4.11634 6.4 3.4 7.11634 3.4 8H4.6C4.6 7.77909 4.77909 7.6 5 7.6V6.4Z" fill="#555770"/>
</svg>
