<svg width="24" height="24" viewBox="0 0 24 24" fill="none" xmlns="http://www.w3.org/2000/svg">
<path d="M4 12L3.43079 11.8103L3.4 11.9026V12H4ZM5 18V17.4H4.4V18H5ZM20 12H20.6V11.9026L20.5692 11.8103L20 12ZM19 18H19.6V17.4H19V18ZM19.6667 11L20.2359 10.8103L20.2359 10.8103L19.6667 11ZM10 4V3.4H9.4V4H10ZM14 4H14.6V3.4H14V4ZM18.114 6.34189L17.5448 6.53162L18.114 6.34189ZM5.88604 6.34189L5.31683 6.15215L5.88604 6.34189ZM3.4 12V19.8H4.6V12H3.4ZM4.2 20.6H4.8V19.4H4.2V20.6ZM5.6 19.8V18H4.4V19.8H5.6ZM5.31683 6.15215L3.76412 10.8103L4.90254 11.1897L6.45525 6.53162L5.31683 6.15215ZM3.76412 10.8103L3.43079 11.8103L4.56921 12.1897L4.90254 11.1897L3.76412 10.8103ZM19.4 12V19.8H20.6V12H19.4ZM19.8 19.4H19.2V20.6H19.8V19.4ZM19.6 19.8V18H18.4V19.8H19.6ZM17.5448 6.53162L19.0975 11.1897L20.2359 10.8103L18.6832 6.15215L17.5448 6.53162ZM19.0975 11.1897L19.4308 12.1897L20.5692 11.8103L20.2359 10.8103L19.0975 11.1897ZM5 18.6H19V17.4H5V18.6ZM4.33333 11.6H19.6667V10.4H4.33333V11.6ZM6.36038 6.6H10V5.4H6.36038V6.6ZM10.6 6V4H9.4V6H10.6ZM10 4.6H14V3.4H10V4.6ZM10 6.6H14V5.4H10V6.6ZM14 6.6H17.6396V5.4H14V6.6ZM13.4 4V6H14.6V4H13.4ZM19.2 19.4C19.4209 19.4 19.6 19.5791 19.6 19.8H18.4C18.4 20.2418 18.7582 20.6 19.2 20.6V19.4ZM18.6832 6.15215C18.5334 5.70297 18.1131 5.4 17.6396 5.4V6.6C17.5966 6.6 17.5584 6.57246 17.5448 6.53162L18.6832 6.15215ZM19.4 19.8C19.4 19.5791 19.5791 19.4 19.8 19.4V20.6C20.2418 20.6 20.6 20.2418 20.6 19.8H19.4ZM4.8 20.6C5.24183 20.6 5.6 20.2418 5.6 19.8H4.4C4.4 19.5791 4.57909 19.4 4.8 19.4V20.6ZM3.4 19.8C3.4 20.2418 3.75817 20.6 4.2 20.6V19.4C4.42091 19.4 4.6 19.5791 4.6 19.8H3.4ZM6.45525 6.53162C6.44164 6.57246 6.40342 6.6 6.36038 6.6V5.4C5.88691 5.4 5.46655 5.70297 5.31683 6.15215L6.45525 6.53162Z" fill="#555770"/>
<path d="M9 14.5C9 15.3284 8.32843 16 7.5 16C6.67157 16 6 15.3284 6 14.5C6 13.6716 6.67157 13 7.5 13C8.32843 13 9 13.6716 9 14.5Z" fill="#555770"/>
<path d="M18 14.5C18 15.3284 17.3284 16 16.5 16C15.6716 16 15 15.3284 15 14.5C15 13.6716 15.6716 13 16.5 13C17.3284 13 18 13.6716 18 14.5Z" fill="#555770"/>
</svg>
