<svg width="24" height="24" viewBox="0 0 24 24" fill="none" xmlns="http://www.w3.org/2000/svg">
<path d="M8.1 4.6H15.9V3.4H8.1V4.6ZM15.4 4.1V19.9H16.6V4.1H15.4ZM15.9 19.4H8.1V20.6H15.9V19.4ZM8.6 19.9V4.1H7.4V19.9H8.6ZM8.1 19.4C8.37614 19.4 8.6 19.6239 8.6 19.9H7.4C7.4 20.2866 7.7134 20.6 8.1 20.6V19.4ZM15.4 19.9C15.4 19.6239 15.6239 19.4 15.9 19.4V20.6C16.2866 20.6 16.6 20.2866 16.6 19.9H15.4ZM15.9 4.6C15.6239 4.6 15.4 4.37614 15.4 4.1H16.6C16.6 3.7134 16.2866 3.4 15.9 3.4V4.6ZM8.1 3.4C7.7134 3.4 7.4 3.7134 7.4 4.1H8.6C8.6 4.37614 8.37615 4.6 8.1 4.6V3.4Z" fill="#555770"/>
<path d="M19.5 5C19.5 7.20914 17.5 9 16.5 9V5H19.5Z" fill="#555770"/>
<path d="M4.5 10C4.5 12.2091 6.5 14 7.5 14V10H4.5Z" fill="#555770"/>
<path d="M19.5 10C19.5 12.2091 17.5 14 16.5 14V10H19.5Z" fill="#555770"/>
<path d="M4.5 15C4.5 17.2091 6.5 19 7.5 19V15H4.5Z" fill="#555770"/>
<path d="M19.5 15C19.5 17.2091 17.5 19 16.5 19V15H19.5Z" fill="#555770"/>
<path d="M4.5 5C4.5 7.20914 6.5 9 7.5 9V5H4.5Z" fill="#555770"/>
<path d="M12.9 7.5C12.9 7.99706 12.4971 8.4 12 8.4V9.6C13.1598 9.6 14.1 8.6598 14.1 7.5H12.9ZM12 8.4C11.5029 8.4 11.1 7.99706 11.1 7.5H9.9C9.9 8.6598 10.8402 9.6 12 9.6V8.4ZM11.1 7.5C11.1 7.00294 11.5029 6.6 12 6.6V5.4C10.8402 5.4 9.9 6.3402 9.9 7.5H11.1ZM12 6.6C12.4971 6.6 12.9 7.00294 12.9 7.5H14.1C14.1 6.3402 13.1598 5.4 12 5.4V6.6ZM12.9 12C12.9 12.4971 12.4971 12.9 12 12.9V14.1C13.1598 14.1 14.1 13.1598 14.1 12H12.9ZM12 12.9C11.5029 12.9 11.1 12.4971 11.1 12H9.9C9.9 13.1598 10.8402 14.1 12 14.1V12.9ZM11.1 12C11.1 11.5029 11.5029 11.1 12 11.1V9.9C10.8402 9.9 9.9 10.8402 9.9 12H11.1ZM12 11.1C12.4971 11.1 12.9 11.5029 12.9 12H14.1C14.1 10.8402 13.1598 9.9 12 9.9V11.1ZM12.9 16.5C12.9 16.9971 12.4971 17.4 12 17.4V18.6C13.1598 18.6 14.1 17.6598 14.1 16.5H12.9ZM12 17.4C11.5029 17.4 11.1 16.9971 11.1 16.5H9.9C9.9 17.6598 10.8402 18.6 12 18.6V17.4ZM11.1 16.5C11.1 16.0029 11.5029 15.6 12 15.6V14.4C10.8402 14.4 9.9 15.3402 9.9 16.5H11.1ZM12 15.6C12.4971 15.6 12.9 16.0029 12.9 16.5H14.1C14.1 15.3402 13.1598 14.4 12 14.4V15.6Z" fill="#555770"/>
</svg>
