<svg width="24" height="24" viewBox="0 0 24 24" fill="none" xmlns="http://www.w3.org/2000/svg">
<path d="M6.57574 20.5562C6.34142 20.7905 6.34142 21.1704 6.57574 21.4047C6.81005 21.639 7.18995 21.639 7.42426 21.4047L6.57574 20.5562ZM16.5757 21.4047C16.8101 21.639 17.1899 21.639 17.4243 21.4047C17.6586 21.1704 17.6586 20.7905 17.4243 20.5562L16.5757 21.4047ZM8.5 19.4805L8.07852 19.0534L8.07574 19.0562L8.5 19.4805ZM15.5 19.4805L15.9243 19.0562L15.9215 19.0534L15.5 19.4805ZM5 5C5.6 5 5.6 5.00102 5.6 5.00203C5.6 5.00236 5.59999 5.00337 5.59999 5.00403C5.59998 5.00534 5.59996 5.00664 5.59995 5.0079C5.59991 5.01044 5.59986 5.01287 5.5998 5.01521C5.59967 5.01989 5.59948 5.02417 5.59926 5.02808C5.59882 5.0359 5.59824 5.0422 5.59767 5.04707C5.59653 5.05684 5.59545 5.06079 5.59576 5.05958C5.59621 5.05777 5.60262 5.03271 5.62764 4.98982C5.67595 4.90701 5.81177 4.72718 6.17268 4.52095C6.91268 4.09809 8.53748 3.6 12 3.6V2.4C8.46252 2.4 6.58732 2.90191 5.57732 3.47905C5.06323 3.77282 4.76155 4.09299 4.59111 4.38518C4.50675 4.52979 4.45848 4.66098 4.43159 4.76854C4.41822 4.82202 4.41031 4.86894 4.40575 4.90801C4.40347 4.92753 4.40204 4.94506 4.40117 4.96045C4.40073 4.96814 4.40044 4.97529 4.40026 4.98189C4.40017 4.98519 4.4001 4.98835 4.40006 4.99137C4.40004 4.99288 4.40002 4.99435 4.40001 4.99579C4.40001 4.99651 4.4 4.99756 4.4 4.99792C4.4 4.99896 4.4 5 5 5ZM19 5C19.6 5 19.6 4.99896 19.6 4.99792C19.6 4.99756 19.6 4.99651 19.6 4.99579C19.6 4.99435 19.6 4.99288 19.5999 4.99137C19.5999 4.98835 19.5998 4.98519 19.5997 4.98189C19.5996 4.97529 19.5993 4.96814 19.5988 4.96045C19.598 4.94506 19.5965 4.92753 19.5942 4.90801C19.5897 4.86894 19.5818 4.82202 19.5684 4.76854C19.5415 4.66098 19.4932 4.52979 19.4089 4.38518C19.2384 4.09299 18.9368 3.77282 18.4227 3.47905C17.4127 2.90191 15.5375 2.4 12 2.4V3.6C15.4625 3.6 17.0873 4.09809 17.8273 4.52095C18.1882 4.72718 18.3241 4.90701 18.3724 4.98982C18.3974 5.03271 18.4038 5.05777 18.4042 5.05958C18.4045 5.06079 18.4035 5.05684 18.4023 5.04707C18.4018 5.0422 18.4012 5.0359 18.4007 5.02808C18.4005 5.02417 18.4003 5.01989 18.4002 5.01521C18.4001 5.01287 18.4001 5.01044 18.4001 5.0079C18.4 5.00664 18.4 5.00534 18.4 5.00403C18.4 5.00337 18.4 5.00236 18.4 5.00203C18.4 5.00102 18.4 5 19 5ZM5.6 6V5H4.4V6H5.6ZM19.6 6V5H18.4V6H19.6ZM19.6 16V11H18.4V16H19.6ZM19.6 11V6H18.4V11H19.6ZM5.6 16V11H4.4V16H5.6ZM5.6 11V6H4.4V11H5.6ZM7 18.6H10V17.4H7V18.6ZM10 18.6H14V17.4H10V18.6ZM14 18.6H17V17.4H14V18.6ZM9.57853 17.573L8.07853 19.0534L8.92147 19.9075L10.4215 18.427L9.57853 17.573ZM8.07574 19.0562L6.57574 20.5562L7.42426 21.4047L8.92426 19.9047L8.07574 19.0562ZM17.4243 20.5562L15.9243 19.0562L15.0757 19.9047L16.5757 21.4047L17.4243 20.5562ZM15.9215 19.0534L14.4215 17.573L13.5785 18.427L15.0785 19.9075L15.9215 19.0534ZM19 10.4H12V11.6H19V10.4ZM12 10.4H5V11.6H12V10.4ZM5 6.6H12V5.4H5V6.6ZM12 6.6H19V5.4H12V6.6ZM12.6 11V6H11.4V11H12.6ZM18.4 16C18.4 16.7732 17.7732 17.4 17 17.4V18.6C18.4359 18.6 19.6 17.4359 19.6 16H18.4ZM4.4 16C4.4 17.4359 5.56406 18.6 7 18.6V17.4C6.2268 17.4 5.6 16.7732 5.6 16H4.4Z" fill="#555770"/>
<path d="M10 14.5C10 15.3284 9.32843 16 8.5 16C7.67157 16 7 15.3284 7 14.5C7 13.6716 7.67157 13 8.5 13C9.32843 13 10 13.6716 10 14.5Z" fill="#555770"/>
<path d="M17 14.5C17 15.3284 16.3284 16 15.5 16C14.6716 16 14 15.3284 14 14.5C14 13.6716 14.6716 13 15.5 13C16.3284 13 17 13.6716 17 14.5Z" fill="#555770"/>
</svg>
