<svg width="24" height="24" viewBox="0 0 24 24" fill="none" xmlns="http://www.w3.org/2000/svg">
<path d="M10.8686 21.7172L2.28284 13.1314L3.13137 12.2828L11.7172 20.8686L10.8686 21.7172ZM2.28284 10.8686L10.8686 2.28284L11.7172 3.13137L3.13137 11.7172L2.28284 10.8686ZM21.7172 13.1314L13.1314 21.7172L12.2828 20.8686L20.8686 12.2828L21.7172 13.1314ZM13.1314 2.28284L21.7172 10.8686L20.8686 11.7172L12.2828 3.13137L13.1314 2.28284ZM10.8686 2.28284C11.4935 1.658 12.5065 1.658 13.1314 2.28284L12.2828 3.13137C12.1266 2.97516 11.8734 2.97516 11.7172 3.13137L10.8686 2.28284ZM2.28284 13.1314C1.658 12.5065 1.658 11.4935 2.28284 10.8686L3.13137 11.7172C2.97516 11.8734 2.97516 12.1266 3.13137 12.2828L2.28284 13.1314ZM11.7172 20.8686C11.8734 21.0248 12.1266 21.0248 12.2828 20.8686L13.1314 21.7172C12.5065 22.342 11.4935 22.342 10.8686 21.7172L11.7172 20.8686ZM20.8686 12.2828C21.0248 12.1266 21.0248 11.8734 20.8686 11.7172L21.7172 10.8686C22.342 11.4935 22.342 12.5065 21.7172 13.1314L20.8686 12.2828Z" fill="#555770"/>
<path d="M9 10.4H14V11.6H9V10.4ZM15.6 12V15H14.4V12H15.6ZM14 10.4C14.8837 10.4 15.6 11.1163 15.6 12H14.4C14.4 11.7791 14.2209 11.6 14 11.6V10.4Z" fill="#555770"/>
</svg>
