<svg width="24" height="24" viewBox="0 0 24 24" fill="none" xmlns="http://www.w3.org/2000/svg">
<path d="M16.5 6L16.9036 5.55604L16.732 5.4H16.5V6ZM22 11H22.6V10.7346L22.4036 10.556L22 11ZM22 15V15.6H22.6V15H22ZM2 15H1.4V15.6H2V15ZM7.4 16C7.4 16.7732 6.7732 17.4 6 17.4V18.6C7.43594 18.6 8.6 17.4359 8.6 16H7.4ZM6 17.4C5.2268 17.4 4.6 16.7732 4.6 16H3.4C3.4 17.4359 4.56406 18.6 6 18.6V17.4ZM19.4 16C19.4 16.7732 18.7732 17.4 18 17.4V18.6C19.4359 18.6 20.6 17.4359 20.6 16H19.4ZM18 17.4C17.2268 17.4 16.6 16.7732 16.6 16H15.4C15.4 17.4359 16.5641 18.6 18 18.6V17.4ZM16.0964 6.44396L21.5964 11.444L22.4036 10.556L16.9036 5.55604L16.0964 6.44396ZM21.4 11V15H22.6V11H21.4ZM2.6 15V11H1.4V15H2.6ZM2.6 11V7H1.4V11H2.6ZM3 6.6H8V5.4H3V6.6ZM2 11.6H8V10.4H2V11.6ZM7.4 6V11H8.6V6H7.4ZM8 6.6H14V5.4H8V6.6ZM14 6.6H16.5V5.4H14V6.6ZM8 11.6H14V10.4H8V11.6ZM14 11.6H22V10.4H14V11.6ZM13.4 6V11H14.6V6H13.4ZM6 14.6C6.51744 14.6 6.9701 14.8804 7.21307 15.3004L8.2518 14.6996C7.80315 13.924 6.96312 13.4 6 13.4V14.6ZM7.21307 15.3004C7.33184 15.5057 7.4 15.744 7.4 16H8.6C8.6 15.5274 8.47337 15.0826 8.2518 14.6996L7.21307 15.3004ZM4.26756 14.4H2V15.6H4.26756V14.4ZM4.6 16C4.6 15.744 4.66816 15.5057 4.78693 15.3004L3.7482 14.6996C3.52663 15.0826 3.4 15.5274 3.4 16H4.6ZM4.78693 15.3004C5.0299 14.8804 5.48256 14.6 6 14.6V13.4C5.03688 13.4 4.19685 13.924 3.7482 14.6996L4.78693 15.3004ZM16.2676 14.4H7.73244V15.6H16.2676V14.4ZM16.6 16C16.6 15.744 16.6682 15.5057 16.7869 15.3004L15.7482 14.6996C15.5266 15.0826 15.4 15.5274 15.4 16H16.6ZM16.7869 15.3004C17.0299 14.8804 17.4826 14.6 18 14.6V13.4C17.0369 13.4 16.1968 13.924 15.7482 14.6996L16.7869 15.3004ZM22 14.4H19.7324V15.6H22V14.4ZM18 14.6C18.5174 14.6 18.9701 14.8804 19.2131 15.3004L20.2518 14.6996C19.8032 13.924 18.9631 13.4 18 13.4V14.6ZM19.2131 15.3004C19.3318 15.5057 19.4 15.744 19.4 16H20.6C20.6 15.5274 20.4734 15.0826 20.2518 14.6996L19.2131 15.3004ZM2.6 7C2.6 6.77909 2.77909 6.6 3 6.6V5.4C2.11634 5.4 1.4 6.11634 1.4 7H2.6Z" fill="#555770"/>
</svg>
