<svg width="24" height="24" viewBox="0 0 24 24" fill="none" xmlns="http://www.w3.org/2000/svg">
<path d="M15 14C15 14.3507 14.9399 14.6873 14.8293 15M14.8293 15C14.4175 16.1652 13.3062 17 12 17C10.6938 17 9.58255 16.1652 9.17072 15M14.8293 15H20M9.17072 15C9.06017 14.6873 9.00001 14.3507 9.00001 14M9.17072 15H4.00001M5 4H19C19.5523 4 20 4.44772 20 5V19C20 19.5523 19.5523 20 19 20H5C4.44771 20 4 19.5523 4 19L4 5C4 4.44772 4.44772 4 5 4Z" stroke="#555770" stroke-width="2"/>
<path d="M12 12L11.2929 12.7071L12 13.4142L12.7071 12.7071L12 12ZM13 11L13.7071 11.7071L15.4142 10L13 10L13 11ZM11 11L11 10L8.58579 10L10.2929 11.7071L11 11ZM13 12L13 6L11 6L11 12L13 12ZM12.7071 12.7071L13.7071 11.7071L12.2929 10.2929L11.2929 11.2929L12.7071 12.7071ZM13 10L11 10L11 12L13 12L13 10ZM10.2929 11.7071L11.2929 12.7071L12.7071 11.2929L11.7071 10.2929L10.2929 11.7071Z" fill="#3E7BFA"/>
</svg>
