<svg width="24" height="24" viewBox="0 0 24 24" fill="none" xmlns="http://www.w3.org/2000/svg">
<mask id="mask0_402_18220" style="mask-type:alpha" maskUnits="userSpaceOnUse" x="0" y="0" width="24" height="24">
<path d="M19.7839 19.7807L4 3.99675H0V24H24V0H5.69812V2.86644L21.1981 18.3664L19.7839 19.7807Z" fill="white"/>
</mask>
<g mask="url(#mask0_402_18220)">
<path d="M15.5356 8.46448L8.46458 15.5355" stroke="#3E7BFA" stroke-width="2"/>
<path d="M16.2427 13.4142L19.0711 10.5857C20.6332 9.02365 20.6332 6.49099 19.0711 4.92889V4.92889C17.509 3.36679 14.9763 3.36679 13.4142 4.92889L10.5858 7.75732M13.4142 16.2426L10.5858 19.071C9.02372 20.6331 6.49106 20.6331 4.92897 19.071V19.071C3.36687 17.5089 3.36687 14.9763 4.92897 13.4142L7.75739 10.5857" stroke="#555770" stroke-width="2"/>
<path d="M3.52441 4.94153L19.0244 20.4415" stroke="#555770" stroke-width="2"/>
</g>
</svg>
