<svg width="24" height="24" viewBox="0 0 24 24" fill="none" xmlns="http://www.w3.org/2000/svg">
<path d="M19.2998 13.7157C20.2814 11.2473 20.2317 8.47455 19.1461 6.06473L15.8689 6.00002C15.8146 5.99895 15.77 6.04244 15.7696 6.0967L15.742 10.1169C15.7418 10.1429 15.7521 10.168 15.7705 10.1864L19.2998 13.7157ZM19.2998 13.7157C18.8132 14.9391 18.0733 16.0879 17.0806 17.0806C16.0879 18.0733 14.9391 18.8132 13.7157 19.2998M13.7157 19.2998C11.2473 20.2814 8.47455 20.2317 6.06473 19.1461L6.00002 15.8689C5.99895 15.8146 6.04244 15.77 6.0967 15.7696L10.1169 15.742C10.1429 15.7418 10.168 15.7521 10.1864 15.7705L13.7157 19.2998Z" stroke="#555770" stroke-width="2"/>
<path d="M10.125 6V3.625C10.125 2.17525 8.94975 1 7.5 1V1C6.05025 1 4.875 2.17525 4.875 3.625V6M10.125 6H4.875M10.125 6H10.9C10.9552 6 11 6.04477 11 6.1V10C11 10.5523 10.5523 11 10 11H5C4.44772 11 4 10.5523 4 10V6.1C4 6.04477 4.04477 6 4.1 6H4.875" stroke="#3E7BFA" stroke-width="2"/>
</svg>
