<svg width="24" height="24" viewBox="0 0 24 24" fill="none" xmlns="http://www.w3.org/2000/svg">
<path d="M7.94467 12.8321C5.4392 13.9118 3.46169 15.9615 2.5 18.5L4.83298 20.927C4.8716 20.9672 4.93562 20.968 4.9753 20.9289L7.9149 18.0294C7.93395 18.0106 7.94467 17.9849 7.94467 17.9582V12.8321ZM7.94467 12.8321C9.18654 12.2969 10.5581 12 12 12C13.4419 12 14.8135 12.2969 16.0553 12.8321M16.0553 12.8321C18.5608 13.9118 20.5383 15.9615 21.5 18.5L19.167 20.927C19.1284 20.9672 19.0644 20.968 19.0247 20.9289L16.0851 18.0294C16.0661 18.0106 16.0553 17.9849 16.0553 17.9582V12.8321Z" stroke="#555770" stroke-width="2"/>
<path d="M4 5L4 4.76837e-07L9 5.1656e-07L4 5Z" fill="#3E7BFA"/>
<path d="M5 1L12 8L19 1" stroke="#3E7BFA" stroke-width="2"/>
</svg>
