<svg width="24" height="24" viewBox="0 0 24 24" fill="none" xmlns="http://www.w3.org/2000/svg">
<mask id="mask0_402_18392" style="mask-type:alpha" maskUnits="userSpaceOnUse" x="0" y="0" width="24" height="24">
<path d="M19.7839 19.7807L4 3.99675H0V24H24V0H5.69812V2.86644L21.1981 18.3664L19.7839 19.7807Z" fill="white"/>
</mask>
<g mask="url(#mask0_402_18392)">
<path d="M17.8146 12.0796C18.8227 9.54444 18.7717 6.69677 17.6567 4.2218L14.2909 4.15534C14.2352 4.15424 14.1894 4.1989 14.189 4.25463L14.1606 8.38349C14.1604 8.41025 14.171 8.43597 14.1899 8.45489L17.8146 12.0796ZM17.8146 12.0796C17.3149 13.3362 16.555 14.5159 15.5354 15.5355C14.5159 16.5551 13.3361 17.315 12.0795 17.8147M12.0795 17.8147C9.54435 18.8228 6.69668 18.7718 4.22171 17.6568L4.15524 14.291C4.15414 14.2353 4.19881 14.1894 4.25454 14.1891L8.3834 14.1607C8.41016 14.1605 8.43588 14.1711 8.4548 14.19L12.0795 17.8147Z" stroke="#3E7BFA" stroke-width="2"/>
<path d="M3.52441 4.94153L19.0244 20.4415" stroke="#555770" stroke-width="2"/>
</g>
</svg>
