<svg width="24" height="24" viewBox="0 0 24 24" fill="none" xmlns="http://www.w3.org/2000/svg">
<path d="M1 5V19H3V5H1ZM5 5V19H7V5H5ZM9 6.1V17.9H11V6.1H9ZM10.1 19H21.9V17H10.1V19ZM23 17.9V6.1H21V17.9H23ZM21.9 5H10.1V7H21.9V5ZM23 6.1C23 5.4925 22.5075 5 21.9 5V7C21.4029 7 21 6.59705 21 6.1H23ZM21.9 19C22.5075 19 23 18.5075 23 17.9H21C21 17.4029 21.403 17 21.9 17V19ZM9 17.9C9 18.5075 9.49248 19 10.1 19V17C10.5971 17 11 17.403 11 17.9H9ZM11 6.1C11 6.59706 10.597 7 10.1 7V5C9.4925 5 9 5.49248 9 6.1H11Z" fill="#555770"/>
<path d="M12 16L15.2 12L17.1429 14.5455L18 13.4545L20 16H16H12Z" fill="#555770"/>
</svg>
