<svg width="24" height="24" viewBox="0 0 24 24" fill="none" xmlns="http://www.w3.org/2000/svg">
<path d="M13 20V19H12V20H13ZM21 20V21H22V20H21ZM21 7H22V6H21V7ZM13 7H12V8H13V7ZM10 5H9V6H10V5ZM6 5V6H7V5H6ZM4 23H12V21H4V23ZM14 21V20H12V21H14ZM13 21H21V19H13V21ZM22 20V7H20V20H22ZM21 7C21 6 21 6 20.9999 6C20.9999 6 20.9998 6 20.9998 6C20.9997 6 20.9996 6 20.9995 6C20.9994 6 20.9992 6 20.9991 6C20.9989 6 20.9987 6 20.9985 6C20.9983 6 20.9981 6 20.9979 6C20.9976 6 20.9974 6 20.9971 6C20.9968 6 20.9966 6 20.9962 6C20.9959 6 20.9956 6 20.9953 6C20.9949 6 20.9945 6 20.9941 6C20.9938 6 20.9933 6 20.9929 6C20.9925 6 20.992 6 20.9916 6C20.9911 6 20.9906 6 20.9901 6C20.9896 6 20.9891 6 20.9886 6C20.988 6 20.9875 6 20.9869 6C20.9863 6 20.9857 6 20.9851 6C20.9845 6 20.9838 6 20.9832 6C20.9825 6 20.9819 6 20.9812 6C20.9805 6 20.9798 6 20.979 6C20.9783 6 20.9776 6 20.9768 6C20.976 6 20.9752 6 20.9744 6C20.9736 6 20.9728 6 20.972 6C20.9711 6 20.9703 6 20.9694 6C20.9685 6 20.9676 6 20.9667 6C20.9658 6 20.9649 6 20.9639 6C20.963 6 20.962 6 20.961 6C20.96 6 20.959 6 20.958 6C20.957 6 20.9559 6 20.9549 6C20.9538 6 20.9527 6 20.9516 6C20.9505 6 20.9494 6 20.9483 6C20.9472 6 20.946 6 20.9448 6C20.9437 6 20.9425 6 20.9413 6C20.9401 6 20.9389 6 20.9376 6C20.9364 6 20.9351 6 20.9338 6C20.9326 6 20.9313 6 20.93 6C20.9287 6 20.9273 6 20.926 6C20.9246 6 20.9233 6 20.9219 6C20.9205 6 20.9191 6 20.9177 6C20.9163 6 20.9148 6 20.9134 6C20.9119 6 20.9105 6 20.909 6C20.9075 6 20.906 6 20.9045 6C20.9029 6 20.9014 6 20.8998 6C20.8983 6 20.8967 6 20.8951 6C20.8935 6 20.8919 6 20.8903 6C20.8887 6 20.887 6 20.8854 6C20.8837 6 20.882 6 20.8803 6C20.8786 6 20.8769 6 20.8752 6C20.8735 6 20.8717 6 20.8699 6C20.8682 6 20.8664 6 20.8646 6C20.8628 6 20.861 6 20.8592 6C20.8573 6 20.8555 6 20.8536 6C20.8518 6 20.8499 6 20.848 6C20.8461 6 20.8442 6 20.8422 6C20.8403 6 20.8383 6 20.8364 6C20.8344 6 20.8324 6 20.8304 6C20.8284 6 20.8264 6 20.8244 6C20.8224 6 20.8203 6 20.8182 6C20.8162 6 20.8141 6 20.812 6C20.8099 6 20.8078 6 20.8057 6C20.8035 6 20.8014 6 20.7992 6C20.797 6 20.7949 6 20.7927 6C20.7905 6 20.7883 6 20.786 6C20.7838 6 20.7816 6 20.7793 6C20.777 6 20.7748 6 20.7725 6C20.7702 6 20.7679 6 20.7655 6C20.7632 6 20.7609 6 20.7585 6C20.7561 6 20.7538 6 20.7514 6C20.749 6 20.7466 6 20.7442 6C20.7417 6 20.7393 6 20.7368 6C20.7344 6 20.7319 6 20.7294 6C20.727 6 20.7245 6 20.7219 6C20.7194 6 20.7169 6 20.7143 6C20.7118 6 20.7092 6 20.7066 6C20.7041 6 20.7015 6 20.6989 6C20.6962 6 20.6936 6 20.691 6C20.6883 6 20.6857 6 20.683 6C20.6803 6 20.6776 6 20.6749 6C20.6722 6 20.6695 6 20.6668 6C20.664 6 20.6613 6 20.6585 6C20.6558 6 20.653 6 20.6502 6C20.6474 6 20.6446 6 20.6418 6C20.6389 6 20.6361 6 20.6332 6C20.6304 6 20.6275 6 20.6246 6C20.6217 6 20.6188 6 20.6159 6C20.613 6 20.6101 6 20.6071 6C20.6042 6 20.6012 6 20.5982 6C20.5953 6 20.5923 6 20.5893 6C20.5863 6 20.5832 6 20.5802 6C20.5772 6 20.5741 6 20.571 6C20.568 6 20.5649 6 20.5618 6C20.5587 6 20.5556 6 20.5525 6C20.5493 6 20.5462 6 20.5431 6C20.5399 6 20.5367 6 20.5336 6C20.5304 6 20.5272 6 20.524 6C20.5207 6 20.5175 6 20.5143 6C20.511 6 20.5078 6 20.5045 6C20.5012 6 20.498 6 20.4947 6C20.4914 6 20.4881 6 20.4847 6C20.4814 6 20.4781 6 20.4747 6C20.4714 6 20.468 6 20.4646 6C20.4612 6 20.4578 6 20.4544 6C20.451 6 20.4476 6 20.4441 6C20.4407 6 20.4372 6 20.4338 6C20.4303 6 20.4268 6 20.4233 6C20.4198 6 20.4163 6 20.4128 6C20.4093 6 20.4057 6 20.4022 6C20.3986 6 20.3951 6 20.3915 6C20.3879 6 20.3843 6 20.3807 6C20.3771 6 20.3735 6 20.3699 6C20.3662 6 20.3626 6 20.3589 6C20.3553 6 20.3516 6 20.3479 6C20.3442 6 20.3405 6 20.3368 6C20.3331 6 20.3294 6 20.3256 6C20.3219 6 20.3181 6 20.3144 6C20.3106 6 20.3068 6 20.303 6C20.2992 6 20.2954 6 20.2916 6C20.2878 6 20.2839 6 20.2801 6C20.2762 6 20.2724 6 20.2685 6C20.2646 6 20.2608 6 20.2569 6C20.253 6 20.249 6 20.2451 6C20.2412 6 20.2373 6 20.2333 6C20.2294 6 20.2254 6 20.2214 6C20.2174 6 20.2134 6 20.2094 6C20.2054 6 20.2014 6 20.1974 6C20.1934 6 20.1893 6 20.1853 6C20.1812 6 20.1771 6 20.1731 6C20.169 6 20.1649 6 20.1608 6C20.1567 6 20.1526 6 20.1484 6C20.1443 6 20.1402 6 20.136 6C20.1319 6 20.1277 6 20.1235 6C20.1193 6 20.1151 6 20.1109 6C20.1067 6 20.1025 6 20.0983 6C20.094 6 20.0898 6 20.0856 6C20.0813 6 20.077 6 20.0728 6C20.0685 6 20.0642 6 20.0599 6C20.0556 6 20.0513 6 20.0469 6C20.0426 6 20.0383 6 20.0339 6C20.0296 6 20.0252 6 20.0208 6C20.0164 6 20.0121 6 20.0077 6C20.0033 6 19.9989 6 19.9944 6C19.99 6 19.9856 6 19.9811 6C19.9767 6 19.9722 6 19.9677 6C19.9633 6 19.9588 6 19.9543 6C19.9498 6 19.9453 6 19.9408 6C19.9363 6 19.9317 6 19.9272 6C19.9227 6 19.9181 6 19.9135 6C19.909 6 19.9044 6 19.8998 6C19.8952 6 19.8906 6 19.886 6C19.8814 6 19.8768 6 19.8721 6C19.8675 6 19.8629 6 19.8582 6C19.8536 6 19.8489 6 19.8442 6C19.8395 6 19.8348 6 19.8301 6C19.8254 6 19.8207 6 19.816 6C19.8113 6 19.8066 6 19.8018 6C19.7971 6 19.7923 6 19.7875 6C19.7828 6 19.778 6 19.7732 6C19.7684 6 19.7636 6 19.7588 6C19.754 6 19.7492 6 19.7443 6C19.7395 6 19.7347 6 19.7298 6C19.725 6 19.7201 6 19.7152 6C19.7103 6 19.7054 6 19.7005 6C19.6957 6 19.6907 6 19.6858 6C19.6809 6 19.676 6 19.671 6C19.6661 6 19.6611 6 19.6562 6C19.6512 6 19.6462 6 19.6413 6C19.6363 6 19.6313 6 19.6263 6C19.6213 6 19.6163 6 19.6112 6C19.6062 6 19.6012 6 19.5961 6C19.5911 6 19.586 6 19.581 6C19.5759 6 19.5708 6 19.5657 6C19.5607 6 19.5556 6 19.5505 6C19.5453 6 19.5402 6 19.5351 6C19.53 6 19.5248 6 19.5197 6C19.5145 6 19.5094 6 19.5042 6C19.4991 6 19.4939 6 19.4887 6C19.4835 6 19.4783 6 19.4731 6C19.4679 6 19.4627 6 19.4574 6C19.4522 6 19.447 6 19.4417 6C19.4365 6 19.4312 6 19.426 6C19.4207 6 19.4154 6 19.4101 6C19.4049 6 19.3996 6 19.3943 6C19.389 6 19.3836 6 19.3783 6C19.373 6 19.3677 6 19.3623 6C19.357 6 19.3516 6 19.3463 6C19.3409 6 19.3355 6 19.3302 6C19.3248 6 19.3194 6 19.314 6C19.3086 6 19.3032 6 19.2978 6C19.2923 6 19.2869 6 19.2815 6C19.2761 6 19.2706 6 19.2652 6C19.2597 6 19.2542 6 19.2488 6C19.2433 6 19.2378 6 19.2323 6C19.2268 6 19.2213 6 19.2158 6C19.2103 6 19.2048 6 19.1993 6C19.1937 6 19.1882 6 19.1827 6C19.1771 6 19.1716 6 19.166 6C19.1604 6 19.1549 6 19.1493 6C19.1437 6 19.1381 6 19.1325 6C19.1269 6 19.1213 6 19.1157 6C19.1101 6 19.1045 6 19.0988 6C19.0932 6 19.0876 6 19.0819 6C19.0763 6 19.0706 6 19.065 6C19.0593 6 19.0536 6 19.0479 6C19.0422 6 19.0366 6 19.0309 6C19.0252 6 19.0194 6 19.0137 6C19.008 6 19.0023 6 18.9966 6C18.9908 6 18.9851 6 18.9793 6C18.9736 6 18.9678 6 18.9621 6C18.9563 6 18.9505 6 18.9447 6C18.939 6 18.9332 6 18.9274 6C18.9216 6 18.9158 6 18.91 6C18.9041 6 18.8983 6 18.8925 6C18.8867 6 18.8808 6 18.875 6C18.8691 6 18.8633 6 18.8574 6C18.8516 6 18.8457 6 18.8398 6C18.8339 6 18.8281 6 18.8222 6C18.8163 6 18.8104 6 18.8045 6C18.7986 6 18.7926 6 18.7867 6C18.7808 6 18.7749 6 18.7689 6C18.763 6 18.7571 6 18.7511 6C18.7451 6 18.7392 6 18.7332 6C18.7272 6 18.7213 6 18.7153 6C18.7093 6 18.7033 6 18.6973 6C18.6913 6 18.6853 6 18.6793 6C18.6733 6 18.6673 6 18.6613 6C18.6552 6 18.6492 6 18.6432 6C18.6371 6 18.6311 6 18.625 6C18.619 6 18.6129 6 18.6068 6C18.6008 6 18.5947 6 18.5886 6C18.5825 6 18.5764 6 18.5703 6C18.5642 6 18.5581 6 18.552 6C18.5459 6 18.5398 6 18.5337 6C18.5275 6 18.5214 6 18.5153 6C18.5091 6 18.503 6 18.4968 6C18.4907 6 18.4845 6 18.4784 6C18.4722 6 18.466 6 18.4599 6C18.4537 6 18.4475 6 18.4413 6C18.4351 6 18.4289 6 18.4227 6C18.4165 6 18.4103 6 18.4041 6C18.3979 6 18.3917 6 18.3854 6C18.3792 6 18.373 6 18.3667 6C18.3605 6 18.3542 6 18.348 6C18.3417 6 18.3355 6 18.3292 6C18.3229 6 18.3166 6 18.3104 6C18.3041 6 18.2978 6 18.2915 6C18.2852 6 18.2789 6 18.2726 6C18.2663 6 18.26 6 18.2537 6C18.2474 6 18.2411 6 18.2347 6C18.2284 6 18.2221 6 18.2157 6C18.2094 6 18.203 6 18.1967 6C18.1903 6 18.184 6 18.1776 6C18.1713 6 18.1649 6 18.1585 6C18.1521 6 18.1458 6 18.1394 6C18.133 6 18.1266 6 18.1202 6C18.1138 6 18.1074 6 18.101 6C18.0946 6 18.0882 6 18.0818 6C18.0754 6 18.0689 6 18.0625 6C18.0561 6 18.0496 6 18.0432 6C18.0368 6 18.0303 6 18.0239 6C18.0174 6 18.011 6 18.0045 6C17.998 6 17.9916 6 17.9851 6C17.9786 6 17.9721 6 17.9657 6C17.9592 6 17.9527 6 17.9462 6C17.9397 6 17.9332 6 17.9267 6C17.9202 6 17.9137 6 17.9072 6C17.9007 6 17.8942 6 17.8876 6C17.8811 6 17.8746 6 17.8681 6C17.8615 6 17.855 6 17.8485 6C17.8419 6 17.8354 6 17.8288 6C17.8223 6 17.8157 6 17.8092 6C17.8026 6 17.796 6 17.7895 6C17.7829 6 17.7763 6 17.7697 6C17.7632 6 17.7566 6 17.75 6C17.7434 6 17.7368 6 17.7302 6C17.7236 6 17.717 6 17.7104 6C17.7038 6 17.6972 6 17.6906 6C17.684 6 17.6773 6 17.6707 6C17.6641 6 17.6575 6 17.6508 6C17.6442 6 17.6376 6 17.6309 6C17.6243 6 17.6176 6 17.611 6C17.6044 6 17.5977 6 17.591 6C17.5844 6 17.5777 6 17.5711 6C17.5644 6 17.5577 6 17.5511 6C17.5444 6 17.5377 6 17.531 6C17.5243 6 17.5177 6 17.511 6C17.5043 6 17.4976 6 17.4909 6C17.4842 6 17.4775 6 17.4708 6C17.4641 6 17.4574 6 17.4507 6C17.444 6 17.4373 6 17.4305 6C17.4238 6 17.4171 6 17.4104 6C17.4037 6 17.3969 6 17.3902 6C17.3835 6 17.3767 6 17.37 6C17.3632 6 17.3565 6 17.3498 6C17.343 6 17.3363 6 17.3295 6C17.3228 6 17.316 6 17.3092 6C17.3025 6 17.2957 6 17.289 6C17.2822 6 17.2754 6 17.2687 6C17.2619 6 17.2551 6 17.2483 6C17.2415 6 17.2348 6 17.228 6C17.2212 6 17.2144 6 17.2076 6C17.2008 6 17.194 6 17.1872 6C17.1804 6 17.1736 6 17.1668 6C17.16 6 17.1532 6 17.1464 6C17.1396 6 17.1328 6 17.126 6C17.1192 6 17.1124 6 17.1055 6C17.0987 6 17.0919 6 17.0851 6C17.0783 6 17.0714 6 17.0646 6C17.0578 6 17.0509 6 17.0441 6C17.0373 6 17.0304 6 17.0236 6C17.0167 6 17.0099 6 17.0031 6C16.9962 6 16.9894 6 16.9825 6C16.9757 6 16.9688 6 16.962 6C16.9551 6 16.9483 6 16.9414 6C16.9345 6 16.9277 6 16.9208 6C16.9139 6 16.9071 6 16.9002 6C16.8933 6 16.8865 6 16.8796 6C16.8727 6 16.8659 6 16.859 6C16.8521 6 16.8452 6 16.8383 6C16.8315 6 16.8246 6 16.8177 6C16.8108 6 16.8039 6 16.797 6C16.7901 6 16.7833 6 16.7764 6C16.7695 6 16.7626 6 16.7557 6C16.7488 6 16.7419 6 16.735 6C16.7281 6 16.7212 6 16.7143 6C16.7074 6 16.7005 6 16.6936 6C16.6867 6 16.6798 6 16.6729 6C16.6659 6 16.659 6 16.6521 6C16.6452 6 16.6383 6 16.6314 6C16.6245 6 16.6176 6 16.6106 6C16.6037 6 16.5968 6 16.5899 6C16.583 6 16.576 6 16.5691 6C16.5622 6 16.5553 6 16.5483 6C16.5414 6 16.5345 6 16.5276 6C16.5206 6 16.5137 6 16.5068 6C16.4998 6 16.4929 6 16.486 6C16.4791 6 16.4721 6 16.4652 6C16.4583 6 16.4513 6 16.4444 6C16.4374 6 16.4305 6 16.4236 6C16.4166 6 16.4097 6 16.4028 6C16.3958 6 16.3889 6 16.3819 6C16.375 6 16.3681 6 16.3611 6C16.3542 6 16.3472 6 16.3403 6C16.3333 6 16.3264 6 16.3194 6C16.3125 6 16.3056 6 16.2986 6C16.2917 6 16.2847 6 16.2778 6C16.2708 6 16.2639 6 16.2569 6C16.25 6 16.243 6 16.2361 6C16.2291 6 16.2222 6 16.2152 6C16.2083 6 16.2013 6 16.1944 6C16.1874 6 16.1805 6 16.1735 6C16.1666 6 16.1596 6 16.1527 6C16.1457 6 16.1388 6 16.1318 6C16.1249 6 16.1179 6 16.111 6C16.104 6 16.0971 6 16.0901 6C16.0832 6 16.0762 6 16.0693 6C16.0623 6 16.0553 6 16.0484 6C16.0414 6 16.0345 6 16.0275 6C16.0206 6 16.0136 6 16.0067 6C15.9997 6 15.9928 6 15.9858 6C15.9789 6 15.9719 6 15.965 6C15.958 6 15.9511 6 15.9441 6C15.9372 6 15.9302 6 15.9233 6C15.9164 6 15.9094 6 15.9025 6C15.8955 6 15.8886 6 15.8816 6C15.8747 6 15.8677 6 15.8608 6C15.8538 6 15.8469 6 15.84 6C15.833 6 15.8261 6 15.8191 6C15.8122 6 15.8052 6 15.7983 6C15.7914 6 15.7844 6 15.7775 6C15.7705 6 15.7636 6 15.7567 6C15.7497 6 15.7428 6 15.7359 6C15.7289 6 15.722 6 15.7151 6C15.7081 6 15.7012 6 15.6943 6C15.6873 6 15.6804 6 15.6735 6C15.6665 6 15.6596 6 15.6527 6C15.6458 6 15.6388 6 15.6319 6C15.625 6 15.6181 6 15.6111 6C15.6042 6 15.5973 6 15.5904 6C15.5835 6 15.5766 6 15.5696 6C15.5627 6 15.5558 6 15.5489 6C15.542 6 15.5351 6 15.5282 6C15.5212 6 15.5143 6 15.5074 6C15.5005 6 15.4936 6 15.4867 6C15.4798 6 15.4729 6 15.466 6C15.4591 6 15.4522 6 15.4453 6C15.4384 6 15.4315 6 15.4246 6C15.4177 6 15.4108 6 15.404 6C15.3971 6 15.3902 6 15.3833 6C15.3764 6 15.3695 6 15.3626 6C15.3558 6 15.3489 6 15.342 6C15.3351 6 15.3282 6 15.3214 6C15.3145 6 15.3076 6 15.3008 6C15.2939 6 15.287 6 15.2801 6C15.2733 6 15.2664 6 15.2596 6C15.2527 6 15.2458 6 15.239 6C15.2321 6 15.2253 6 15.2184 6C15.2116 6 15.2047 6 15.1979 6C15.191 6 15.1842 6 15.1773 6C15.1705 6 15.1637 6 15.1568 6C15.15 6 15.1431 6 15.1363 6C15.1295 6 15.1227 6 15.1158 6C15.109 6 15.1022 6 15.0954 6C15.0885 6 15.0817 6 15.0749 6C15.0681 6 15.0613 6 15.0545 6C15.0477 6 15.0408 6 15.034 6C15.0272 6 15.0204 6 15.0136 6C15.0068 6 15 6 14.9932 6C14.9865 6 14.9797 6 14.9729 6C14.9661 6 14.9593 6 14.9525 6C14.9457 6 14.939 6 14.9322 6C14.9254 6 14.9186 6 14.9119 6C14.9051 6 14.8983 6 14.8916 6C14.8848 6 14.8781 6 14.8713 6C14.8646 6 14.8578 6 14.851 6C14.8443 6 14.8376 6 14.8308 6C14.8241 6 14.8173 6 14.8106 6C14.8039 6 14.7971 6 14.7904 6C14.7837 6 14.777 6 14.7702 6C14.7635 6 14.7568 6 14.7501 6C14.7434 6 14.7367 6 14.73 6C14.7232 6 14.7165 6 14.7098 6C14.7031 6 14.6965 6 14.6898 6C14.6831 6 14.6764 6 14.6697 6C14.663 6 14.6563 6 14.6497 6C14.643 6 14.6363 6 14.6296 6C14.623 6 14.6163 6 14.6097 6C14.603 6 14.5963 6 14.5897 6C14.583 6 14.5764 6 14.5697 6C14.5631 6 14.5565 6 14.5498 6C14.5432 6 14.5366 6 14.5299 6C14.5233 6 14.5167 6 14.5101 6C14.5035 6 14.4968 6 14.4902 6C14.4836 6 14.477 6 14.4704 6C14.4638 6 14.4572 6 14.4506 6C14.444 6 14.4374 6 14.4309 6C14.4243 6 14.4177 6 14.4111 6C14.4046 6 14.398 6 14.3914 6C14.3849 6 14.3783 6 14.3717 6C14.3652 6 14.3586 6 14.3521 6C14.3456 6 14.339 6 14.3325 6C14.3259 6 14.3194 6 14.3129 6C14.3064 6 14.2998 6 14.2933 6C14.2868 6 14.2803 6 14.2738 6C14.2673 6 14.2608 6 14.2543 6C14.2478 6 14.2413 6 14.2348 6C14.2283 6 14.2218 6 14.2154 6C14.2089 6 14.2024 6 14.196 6C14.1895 6 14.183 6 14.1766 6C14.1701 6 14.1637 6 14.1572 6C14.1508 6 14.1443 6 14.1379 6C14.1315 6 14.125 6 14.1186 6C14.1122 6 14.1058 6 14.0994 6C14.093 6 14.0866 6 14.0802 6C14.0738 6 14.0674 6 14.061 6C14.0546 6 14.0482 6 14.0418 6C14.0354 6 14.0291 6 14.0227 6C14.0163 6 14.01 6 14.0036 6C13.9973 6 13.9909 6 13.9846 6C13.9782 6 13.9719 6 13.9656 6C13.9592 6 13.9529 6 13.9466 6C13.9403 6 13.9339 6 13.9276 6C13.9213 6 13.915 6 13.9087 6C13.9024 6 13.8961 6 13.8899 6C13.8836 6 13.8773 6 13.871 6C13.8647 6 13.8585 6 13.8522 6C13.846 6 13.8397 6 13.8335 6C13.8272 6 13.821 6 13.8147 6C13.8085 6 13.8023 6 13.7961 6C13.7898 6 13.7836 6 13.7774 6C13.7712 6 13.765 6 13.7588 6C13.7526 6 13.7464 6 13.7402 6C13.734 6 13.7279 6 13.7217 6C13.7155 6 13.7094 6 13.7032 6C13.6971 6 13.6909 6 13.6848 6C13.6786 6 13.6725 6 13.6664 6C13.6602 6 13.6541 6 13.648 6C13.6419 6 13.6358 6 13.6297 6C13.6236 6 13.6175 6 13.6114 6C13.6053 6 13.5992 6 13.5931 6C13.5871 6 13.581 6 13.5749 6C13.5689 6 13.5628 6 13.5568 6C13.5507 6 13.5447 6 13.5386 6C13.5326 6 13.5266 6 13.5206 6C13.5146 6 13.5085 6 13.5025 6C13.4965 6 13.4905 6 13.4846 6C13.4786 6 13.4726 6 13.4666 6C13.4606 6 13.4547 6 13.4487 6C13.4428 6 13.4368 6 13.4309 6C13.4249 6 13.419 6 13.413 6C13.4071 6 13.4012 6 13.3953 6C13.3894 6 13.3835 6 13.3776 6C13.3717 6 13.3658 6 13.3599 6C13.354 6 13.3481 6 13.3423 6C13.3364 6 13.3305 6 13.3247 6C13.3188 6 13.313 6 13.3072 6C13.3013 6 13.2955 6 13.2897 6C13.2838 6 13.278 6 13.2722 6C13.2664 6 13.2606 6 13.2548 6C13.2491 6 13.2433 6 13.2375 6C13.2317 6 13.226 6 13.2202 6C13.2145 6 13.2087 6 13.203 6C13.1972 6 13.1915 6 13.1858 6C13.1801 6 13.1743 6 13.1686 6C13.1629 6 13.1572 6 13.1515 6C13.1458 6 13.1402 6 13.1345 6C13.1288 6 13.1232 6 13.1175 6C13.1118 6 13.1062 6 13.1006 6C13.0949 6 13.0893 6 13.0837 6C13.078 6 13.0724 6 13.0668 6C13.0612 6 13.0556 6 13.05 6C13.0445 6 13.0389 6 13.0333 6C13.0277 6 13.0222 6 13.0166 6C13.0111 6 13.0055 6 13 6V8C13.0055 8 13.0111 8 13.0166 8C13.0222 8 13.0277 8 13.0333 8C13.0389 8 13.0445 8 13.05 8C13.0556 8 13.0612 8 13.0668 8C13.0724 8 13.078 8 13.0837 8C13.0893 8 13.0949 8 13.1006 8C13.1062 8 13.1118 8 13.1175 8C13.1232 8 13.1288 8 13.1345 8C13.1402 8 13.1458 8 13.1515 8C13.1572 8 13.1629 8 13.1686 8C13.1743 8 13.1801 8 13.1858 8C13.1915 8 13.1972 8 13.203 8C13.2087 8 13.2145 8 13.2202 8C13.226 8 13.2317 8 13.2375 8C13.2433 8 13.2491 8 13.2548 8C13.2606 8 13.2664 8 13.2722 8C13.278 8 13.2838 8 13.2897 8C13.2955 8 13.3013 8 13.3072 8C13.313 8 13.3188 8 13.3247 8C13.3305 8 13.3364 8 13.3423 8C13.3481 8 13.354 8 13.3599 8C13.3658 8 13.3717 8 13.3776 8C13.3835 8 13.3894 8 13.3953 8C13.4012 8 13.4071 8 13.413 8C13.419 8 13.4249 8 13.4309 8C13.4368 8 13.4428 8 13.4487 8C13.4547 8 13.4606 8 13.4666 8C13.4726 8 13.4786 8 13.4846 8C13.4905 8 13.4965 8 13.5025 8C13.5085 8 13.5146 8 13.5206 8C13.5266 8 13.5326 8 13.5386 8C13.5447 8 13.5507 8 13.5568 8C13.5628 8 13.5689 8 13.5749 8C13.581 8 13.5871 8 13.5931 8C13.5992 8 13.6053 8 13.6114 8C13.6175 8 13.6236 8 13.6297 8C13.6358 8 13.6419 8 13.648 8C13.6541 8 13.6602 8 13.6664 8C13.6725 8 13.6786 8 13.6848 8C13.6909 8 13.6971 8 13.7032 8C13.7094 8 13.7155 8 13.7217 8C13.7279 8 13.734 8 13.7402 8C13.7464 8 13.7526 8 13.7588 8C13.765 8 13.7712 8 13.7774 8C13.7836 8 13.7898 8 13.7961 8C13.8023 8 13.8085 8 13.8147 8C13.821 8 13.8272 8 13.8335 8C13.8397 8 13.846 8 13.8522 8C13.8585 8 13.8647 8 13.871 8C13.8773 8 13.8836 8 13.8899 8C13.8961 8 13.9024 8 13.9087 8C13.915 8 13.9213 8 13.9276 8C13.9339 8 13.9403 8 13.9466 8C13.9529 8 13.9592 8 13.9656 8C13.9719 8 13.9782 8 13.9846 8C13.9909 8 13.9973 8 14.0036 8C14.01 8 14.0163 8 14.0227 8C14.0291 8 14.0354 8 14.0418 8C14.0482 8 14.0546 8 14.061 8C14.0674 8 14.0738 8 14.0802 8C14.0866 8 14.093 8 14.0994 8C14.1058 8 14.1122 8 14.1186 8C14.125 8 14.1315 8 14.1379 8C14.1443 8 14.1508 8 14.1572 8C14.1637 8 14.1701 8 14.1766 8C14.183 8 14.1895 8 14.196 8C14.2024 8 14.2089 8 14.2154 8C14.2218 8 14.2283 8 14.2348 8C14.2413 8 14.2478 8 14.2543 8C14.2608 8 14.2673 8 14.2738 8C14.2803 8 14.2868 8 14.2933 8C14.2998 8 14.3064 8 14.3129 8C14.3194 8 14.3259 8 14.3325 8C14.339 8 14.3456 8 14.3521 8C14.3586 8 14.3652 8 14.3717 8C14.3783 8 14.3849 8 14.3914 8C14.398 8 14.4046 8 14.4111 8C14.4177 8 14.4243 8 14.4309 8C14.4374 8 14.444 8 14.4506 8C14.4572 8 14.4638 8 14.4704 8C14.477 8 14.4836 8 14.4902 8C14.4968 8 14.5035 8 14.5101 8C14.5167 8 14.5233 8 14.5299 8C14.5366 8 14.5432 8 14.5498 8C14.5565 8 14.5631 8 14.5697 8C14.5764 8 14.583 8 14.5897 8C14.5963 8 14.603 8 14.6097 8C14.6163 8 14.623 8 14.6296 8C14.6363 8 14.643 8 14.6497 8C14.6563 8 14.663 8 14.6697 8C14.6764 8 14.6831 8 14.6898 8C14.6965 8 14.7031 8 14.7098 8C14.7165 8 14.7232 8 14.73 8C14.7367 8 14.7434 8 14.7501 8C14.7568 8 14.7635 8 14.7702 8C14.777 8 14.7837 8 14.7904 8C14.7971 8 14.8039 8 14.8106 8C14.8173 8 14.8241 8 14.8308 8C14.8376 8 14.8443 8 14.851 8C14.8578 8 14.8646 8 14.8713 8C14.8781 8 14.8848 8 14.8916 8C14.8983 8 14.9051 8 14.9119 8C14.9186 8 14.9254 8 14.9322 8C14.939 8 14.9457 8 14.9525 8C14.9593 8 14.9661 8 14.9729 8C14.9797 8 14.9865 8 14.9932 8C15 8 15.0068 8 15.0136 8C15.0204 8 15.0272 8 15.034 8C15.0408 8 15.0477 8 15.0545 8C15.0613 8 15.0681 8 15.0749 8C15.0817 8 15.0885 8 15.0954 8C15.1022 8 15.109 8 15.1158 8C15.1227 8 15.1295 8 15.1363 8C15.1431 8 15.15 8 15.1568 8C15.1637 8 15.1705 8 15.1773 8C15.1842 8 15.191 8 15.1979 8C15.2047 8 15.2116 8 15.2184 8C15.2253 8 15.2321 8 15.239 8C15.2458 8 15.2527 8 15.2596 8C15.2664 8 15.2733 8 15.2801 8C15.287 8 15.2939 8 15.3008 8C15.3076 8 15.3145 8 15.3214 8C15.3282 8 15.3351 8 15.342 8C15.3489 8 15.3558 8 15.3626 8C15.3695 8 15.3764 8 15.3833 8C15.3902 8 15.3971 8 15.404 8C15.4108 8 15.4177 8 15.4246 8C15.4315 8 15.4384 8 15.4453 8C15.4522 8 15.4591 8 15.466 8C15.4729 8 15.4798 8 15.4867 8C15.4936 8 15.5005 8 15.5074 8C15.5143 8 15.5212 8 15.5282 8C15.5351 8 15.542 8 15.5489 8C15.5558 8 15.5627 8 15.5696 8C15.5766 8 15.5835 8 15.5904 8C15.5973 8 15.6042 8 15.6111 8C15.6181 8 15.625 8 15.6319 8C15.6388 8 15.6458 8 15.6527 8C15.6596 8 15.6665 8 15.6735 8C15.6804 8 15.6873 8 15.6943 8C15.7012 8 15.7081 8 15.7151 8C15.722 8 15.7289 8 15.7359 8C15.7428 8 15.7497 8 15.7567 8C15.7636 8 15.7705 8 15.7775 8C15.7844 8 15.7914 8 15.7983 8C15.8052 8 15.8122 8 15.8191 8C15.8261 8 15.833 8 15.84 8C15.8469 8 15.8538 8 15.8608 8C15.8677 8 15.8747 8 15.8816 8C15.8886 8 15.8955 8 15.9025 8C15.9094 8 15.9164 8 15.9233 8C15.9302 8 15.9372 8 15.9441 8C15.9511 8 15.958 8 15.965 8C15.9719 8 15.9789 8 15.9858 8C15.9928 8 15.9997 8 16.0067 8C16.0136 8 16.0206 8 16.0275 8C16.0345 8 16.0414 8 16.0484 8C16.0553 8 16.0623 8 16.0693 8C16.0762 8 16.0832 8 16.0901 8C16.0971 8 16.104 8 16.111 8C16.1179 8 16.1249 8 16.1318 8C16.1388 8 16.1457 8 16.1527 8C16.1596 8 16.1666 8 16.1735 8C16.1805 8 16.1874 8 16.1944 8C16.2013 8 16.2083 8 16.2152 8C16.2222 8 16.2291 8 16.2361 8C16.243 8 16.25 8 16.2569 8C16.2639 8 16.2708 8 16.2778 8C16.2847 8 16.2917 8 16.2986 8C16.3056 8 16.3125 8 16.3194 8C16.3264 8 16.3333 8 16.3403 8C16.3472 8 16.3542 8 16.3611 8C16.3681 8 16.375 8 16.3819 8C16.3889 8 16.3958 8 16.4028 8C16.4097 8 16.4166 8 16.4236 8C16.4305 8 16.4374 8 16.4444 8C16.4513 8 16.4583 8 16.4652 8C16.4721 8 16.4791 8 16.486 8C16.4929 8 16.4998 8 16.5068 8C16.5137 8 16.5206 8 16.5276 8C16.5345 8 16.5414 8 16.5483 8C16.5553 8 16.5622 8 16.5691 8C16.576 8 16.583 8 16.5899 8C16.5968 8 16.6037 8 16.6106 8C16.6176 8 16.6245 8 16.6314 8C16.6383 8 16.6452 8 16.6521 8C16.659 8 16.6659 8 16.6729 8C16.6798 8 16.6867 8 16.6936 8C16.7005 8 16.7074 8 16.7143 8C16.7212 8 16.7281 8 16.735 8C16.7419 8 16.7488 8 16.7557 8C16.7626 8 16.7695 8 16.7764 8C16.7833 8 16.7901 8 16.797 8C16.8039 8 16.8108 8 16.8177 8C16.8246 8 16.8315 8 16.8383 8C16.8452 8 16.8521 8 16.859 8C16.8659 8 16.8727 8 16.8796 8C16.8865 8 16.8933 8 16.9002 8C16.9071 8 16.9139 8 16.9208 8C16.9277 8 16.9345 8 16.9414 8C16.9483 8 16.9551 8 16.962 8C16.9688 8 16.9757 8 16.9825 8C16.9894 8 16.9962 8 17.0031 8C17.0099 8 17.0167 8 17.0236 8C17.0304 8 17.0373 8 17.0441 8C17.0509 8 17.0578 8 17.0646 8C17.0714 8 17.0783 8 17.0851 8C17.0919 8 17.0987 8 17.1055 8C17.1124 8 17.1192 8 17.126 8C17.1328 8 17.1396 8 17.1464 8C17.1532 8 17.16 8 17.1668 8C17.1736 8 17.1804 8 17.1872 8C17.194 8 17.2008 8 17.2076 8C17.2144 8 17.2212 8 17.228 8C17.2348 8 17.2415 8 17.2483 8C17.2551 8 17.2619 8 17.2687 8C17.2754 8 17.2822 8 17.289 8C17.2957 8 17.3025 8 17.3092 8C17.316 8 17.3228 8 17.3295 8C17.3363 8 17.343 8 17.3498 8C17.3565 8 17.3632 8 17.37 8C17.3767 8 17.3835 8 17.3902 8C17.3969 8 17.4037 8 17.4104 8C17.4171 8 17.4238 8 17.4305 8C17.4373 8 17.444 8 17.4507 8C17.4574 8 17.4641 8 17.4708 8C17.4775 8 17.4842 8 17.4909 8C17.4976 8 17.5043 8 17.511 8C17.5177 8 17.5243 8 17.531 8C17.5377 8 17.5444 8 17.5511 8C17.5577 8 17.5644 8 17.5711 8C17.5777 8 17.5844 8 17.591 8C17.5977 8 17.6044 8 17.611 8C17.6176 8 17.6243 8 17.6309 8C17.6376 8 17.6442 8 17.6508 8C17.6575 8 17.6641 8 17.6707 8C17.6773 8 17.684 8 17.6906 8C17.6972 8 17.7038 8 17.7104 8C17.717 8 17.7236 8 17.7302 8C17.7368 8 17.7434 8 17.75 8C17.7566 8 17.7632 8 17.7697 8C17.7763 8 17.7829 8 17.7895 8C17.796 8 17.8026 8 17.8092 8C17.8157 8 17.8223 8 17.8288 8C17.8354 8 17.8419 8 17.8485 8C17.855 8 17.8615 8 17.8681 8C17.8746 8 17.8811 8 17.8876 8C17.8942 8 17.9007 8 17.9072 8C17.9137 8 17.9202 8 17.9267 8C17.9332 8 17.9397 8 17.9462 8C17.9527 8 17.9592 8 17.9657 8C17.9721 8 17.9786 8 17.9851 8C17.9916 8 17.998 8 18.0045 8C18.011 8 18.0174 8 18.0239 8C18.0303 8 18.0368 8 18.0432 8C18.0496 8 18.0561 8 18.0625 8C18.0689 8 18.0754 8 18.0818 8C18.0882 8 18.0946 8 18.101 8C18.1074 8 18.1138 8 18.1202 8C18.1266 8 18.133 8 18.1394 8C18.1458 8 18.1521 8 18.1585 8C18.1649 8 18.1713 8 18.1776 8C18.184 8 18.1903 8 18.1967 8C18.203 8 18.2094 8 18.2157 8C18.2221 8 18.2284 8 18.2347 8C18.2411 8 18.2474 8 18.2537 8C18.26 8 18.2663 8 18.2726 8C18.2789 8 18.2852 8 18.2915 8C18.2978 8 18.3041 8 18.3104 8C18.3166 8 18.3229 8 18.3292 8C18.3355 8 18.3417 8 18.348 8C18.3542 8 18.3605 8 18.3667 8C18.373 8 18.3792 8 18.3854 8C18.3917 8 18.3979 8 18.4041 8C18.4103 8 18.4165 8 18.4227 8C18.4289 8 18.4351 8 18.4413 8C18.4475 8 18.4537 8 18.4599 8C18.466 8 18.4722 8 18.4784 8C18.4845 8 18.4907 8 18.4968 8C18.503 8 18.5091 8 18.5153 8C18.5214 8 18.5275 8 18.5337 8C18.5398 8 18.5459 8 18.552 8C18.5581 8 18.5642 8 18.5703 8C18.5764 8 18.5825 8 18.5886 8C18.5947 8 18.6008 8 18.6068 8C18.6129 8 18.619 8 18.625 8C18.6311 8 18.6371 8 18.6432 8C18.6492 8 18.6552 8 18.6613 8C18.6673 8 18.6733 8 18.6793 8C18.6853 8 18.6913 8 18.6973 8C18.7033 8 18.7093 8 18.7153 8C18.7213 8 18.7272 8 18.7332 8C18.7392 8 18.7451 8 18.7511 8C18.7571 8 18.763 8 18.7689 8C18.7749 8 18.7808 8 18.7867 8C18.7926 8 18.7986 8 18.8045 8C18.8104 8 18.8163 8 18.8222 8C18.8281 8 18.8339 8 18.8398 8C18.8457 8 18.8516 8 18.8574 8C18.8633 8 18.8691 8 18.875 8C18.8808 8 18.8867 8 18.8925 8C18.8983 8 18.9041 8 18.91 8C18.9158 8 18.9216 8 18.9274 8C18.9332 8 18.939 8 18.9447 8C18.9505 8 18.9563 8 18.9621 8C18.9678 8 18.9736 8 18.9793 8C18.9851 8 18.9908 8 18.9966 8C19.0023 8 19.008 8 19.0137 8C19.0194 8 19.0252 8 19.0309 8C19.0366 8 19.0422 8 19.0479 8C19.0536 8 19.0593 8 19.065 8C19.0706 8 19.0763 8 19.0819 8C19.0876 8 19.0932 8 19.0988 8C19.1045 8 19.1101 8 19.1157 8C19.1213 8 19.1269 8 19.1325 8C19.1381 8 19.1437 8 19.1493 8C19.1549 8 19.1604 8 19.166 8C19.1716 8 19.1771 8 19.1827 8C19.1882 8 19.1937 8 19.1993 8C19.2048 8 19.2103 8 19.2158 8C19.2213 8 19.2268 8 19.2323 8C19.2378 8 19.2433 8 19.2488 8C19.2542 8 19.2597 8 19.2652 8C19.2706 8 19.2761 8 19.2815 8C19.2869 8 19.2923 8 19.2978 8C19.3032 8 19.3086 8 19.314 8C19.3194 8 19.3248 8 19.3302 8C19.3355 8 19.3409 8 19.3463 8C19.3516 8 19.357 8 19.3623 8C19.3677 8 19.373 8 19.3783 8C19.3836 8 19.389 8 19.3943 8C19.3996 8 19.4049 8 19.4101 8C19.4154 8 19.4207 8 19.426 8C19.4312 8 19.4365 8 19.4417 8C19.447 8 19.4522 8 19.4574 8C19.4627 8 19.4679 8 19.4731 8C19.4783 8 19.4835 8 19.4887 8C19.4939 8 19.4991 8 19.5042 8C19.5094 8 19.5145 8 19.5197 8C19.5248 8 19.53 8 19.5351 8C19.5402 8 19.5453 8 19.5505 8C19.5556 8 19.5607 8 19.5657 8C19.5708 8 19.5759 8 19.581 8C19.586 8 19.5911 8 19.5961 8C19.6012 8 19.6062 8 19.6112 8C19.6163 8 19.6213 8 19.6263 8C19.6313 8 19.6363 8 19.6413 8C19.6462 8 19.6512 8 19.6562 8C19.6611 8 19.6661 8 19.671 8C19.676 8 19.6809 8 19.6858 8C19.6907 8 19.6957 8 19.7005 8C19.7054 8 19.7103 8 19.7152 8C19.7201 8 19.725 8 19.7298 8C19.7347 8 19.7395 8 19.7443 8C19.7492 8 19.754 8 19.7588 8C19.7636 8 19.7684 8 19.7732 8C19.778 8 19.7828 8 19.7875 8C19.7923 8 19.7971 8 19.8018 8C19.8066 8 19.8113 8 19.816 8C19.8207 8 19.8254 8 19.8301 8C19.8348 8 19.8395 8 19.8442 8C19.8489 8 19.8536 8 19.8582 8C19.8629 8 19.8675 8 19.8721 8C19.8768 8 19.8814 8 19.886 8C19.8906 8 19.8952 8 19.8998 8C19.9044 8 19.909 8 19.9135 8C19.9181 8 19.9227 8 19.9272 8C19.9317 8 19.9363 8 19.9408 8C19.9453 8 19.9498 8 19.9543 8C19.9588 8 19.9633 8 19.9677 8C19.9722 8 19.9767 8 19.9811 8C19.9856 8 19.99 8 19.9944 8C19.9989 8 20.0033 8 20.0077 8C20.0121 8 20.0164 8 20.0208 8C20.0252 8 20.0296 8 20.0339 8C20.0383 8 20.0426 8 20.0469 8C20.0513 8 20.0556 8 20.0599 8C20.0642 8 20.0685 8 20.0728 8C20.077 8 20.0813 8 20.0856 8C20.0898 8 20.094 8 20.0983 8C20.1025 8 20.1067 8 20.1109 8C20.1151 8 20.1193 8 20.1235 8C20.1277 8 20.1319 8 20.136 8C20.1402 8 20.1443 8 20.1484 8C20.1526 8 20.1567 8 20.1608 8C20.1649 8 20.169 8 20.1731 8C20.1771 8 20.1812 8 20.1853 8C20.1893 8 20.1934 8 20.1974 8C20.2014 8 20.2054 8 20.2094 8C20.2134 8 20.2174 8 20.2214 8C20.2254 8 20.2294 8 20.2333 8C20.2373 8 20.2412 8 20.2451 8C20.249 8 20.253 8 20.2569 8C20.2608 8 20.2646 8 20.2685 8C20.2724 8 20.2762 8 20.2801 8C20.2839 8 20.2878 8 20.2916 8C20.2954 8 20.2992 8 20.303 8C20.3068 8 20.3106 8 20.3144 8C20.3181 8 20.3219 8 20.3256 8C20.3294 8 20.3331 8 20.3368 8C20.3405 8 20.3442 8 20.3479 8C20.3516 8 20.3553 8 20.3589 8C20.3626 8 20.3662 8 20.3699 8C20.3735 8 20.3771 8 20.3807 8C20.3843 8 20.3879 8 20.3915 8C20.3951 8 20.3986 8 20.4022 8C20.4057 8 20.4093 8 20.4128 8C20.4163 8 20.4198 8 20.4233 8C20.4268 8 20.4303 8 20.4338 8C20.4372 8 20.4407 8 20.4441 8C20.4476 8 20.451 8 20.4544 8C20.4578 8 20.4612 8 20.4646 8C20.468 8 20.4714 8 20.4747 8C20.4781 8 20.4814 8 20.4847 8C20.4881 8 20.4914 8 20.4947 8C20.498 8 20.5012 8 20.5045 8C20.5078 8 20.511 8 20.5143 8C20.5175 8 20.5207 8 20.524 8C20.5272 8 20.5304 8 20.5336 8C20.5367 8 20.5399 8 20.5431 8C20.5462 8 20.5493 8 20.5525 8C20.5556 8 20.5587 8 20.5618 8C20.5649 8 20.568 8 20.571 8C20.5741 8 20.5772 8 20.5802 8C20.5832 8 20.5863 8 20.5893 8C20.5923 8 20.5953 8 20.5982 8C20.6012 8 20.6042 8 20.6071 8C20.6101 8 20.613 8 20.6159 8C20.6188 8 20.6217 8 20.6246 8C20.6275 8 20.6304 8 20.6332 8C20.6361 8 20.6389 8 20.6418 8C20.6446 8 20.6474 8 20.6502 8C20.653 8 20.6558 8 20.6585 8C20.6613 8 20.664 8 20.6668 8C20.6695 8 20.6722 8 20.6749 8C20.6776 8 20.6803 8 20.683 8C20.6857 8 20.6883 8 20.691 8C20.6936 8 20.6962 8 20.6989 8C20.7015 8 20.7041 8 20.7066 8C20.7092 8 20.7118 8 20.7143 8C20.7169 8 20.7194 8 20.7219 8C20.7245 8 20.727 8 20.7294 8C20.7319 8 20.7344 8 20.7368 8C20.7393 8 20.7417 8 20.7442 8C20.7466 8 20.749 8 20.7514 8C20.7538 8 20.7561 8 20.7585 8C20.7609 8 20.7632 8 20.7655 8C20.7679 8 20.7702 8 20.7725 8C20.7748 8 20.777 8 20.7793 8C20.7816 8 20.7838 8 20.786 8C20.7883 8 20.7905 8 20.7927 8C20.7949 8 20.797 8 20.7992 8C20.8014 8 20.8035 8 20.8057 8C20.8078 8 20.8099 8 20.812 8C20.8141 8 20.8162 8 20.8182 8C20.8203 8 20.8224 8 20.8244 8C20.8264 8 20.8284 8 20.8304 8C20.8324 8 20.8344 8 20.8364 8C20.8383 8 20.8403 8 20.8422 8C20.8442 8 20.8461 8 20.848 8C20.8499 8 20.8518 8 20.8536 8C20.8555 8 20.8573 8 20.8592 8C20.861 8 20.8628 8 20.8646 8C20.8664 8 20.8682 8 20.8699 8C20.8717 8 20.8735 8 20.8752 8C20.8769 8 20.8786 8 20.8803 8C20.882 8 20.8837 8 20.8854 8C20.887 8 20.8887 8 20.8903 8C20.8919 8 20.8935 8 20.8951 8C20.8967 8 20.8983 8 20.8998 8C20.9014 8 20.9029 8 20.9045 8C20.906 8 20.9075 8 20.909 8C20.9105 8 20.9119 8 20.9134 8C20.9148 8 20.9163 8 20.9177 8C20.9191 8 20.9205 8 20.9219 8C20.9233 8 20.9246 8 20.926 8C20.9273 8 20.9287 8 20.93 8C20.9313 8 20.9326 8 20.9338 8C20.9351 8 20.9364 8 20.9376 8C20.9389 8 20.9401 8 20.9413 8C20.9425 8 20.9437 8 20.9448 8C20.946 8 20.9472 8 20.9483 8C20.9494 8 20.9505 8 20.9516 8C20.9527 8 20.9538 8 20.9549 8C20.9559 8 20.957 8 20.958 8C20.959 8 20.96 8 20.961 8C20.962 8 20.963 8 20.9639 8C20.9649 8 20.9658 8 20.9667 8C20.9676 8 20.9685 8 20.9694 8C20.9703 8 20.9711 8 20.972 8C20.9728 8 20.9736 8 20.9744 8C20.9752 8 20.976 8 20.9768 8C20.9776 8 20.9783 8 20.979 8C20.9798 8 20.9805 8 20.9812 8C20.9819 8 20.9825 8 20.9832 8C20.9838 8 20.9845 8 20.9851 8C20.9857 8 20.9863 8 20.9869 8C20.9875 8 20.988 8 20.9886 8C20.9891 8 20.9896 8 20.9901 8C20.9906 8 20.9911 8 20.9916 8C20.992 8 20.9925 8 20.9929 8C20.9933 8 20.9938 8 20.9941 8C20.9945 8 20.9949 8 20.9953 8C20.9956 8 20.9959 8 20.9962 8C20.9966 8 20.9968 8 20.9971 8C20.9974 8 20.9976 8 20.9979 8C20.9981 8 20.9983 8 20.9985 8C20.9987 8 20.9989 8 20.9991 8C20.9992 8 20.9994 8 20.9995 8C20.9996 8 20.9997 8 20.9998 8C20.9998 8 20.9999 8 20.9999 8C21 8 21 8 21 7ZM14 7V6H12V7H14ZM12 4H10V6H12V4ZM11 5V3.1H9V5H11ZM9.9 2H6.1V4H9.9V2ZM5 3.1V5H7V3.1H5ZM6 4H4V6H6V4ZM2 6V21H4V6H2ZM19 9H17V11H19V9ZM15 9H13V11H15V9ZM11 9H9V11H11V9ZM9 18H11V16H9V18ZM13 18H15V16H13V18ZM17 18H19V16H17V18ZM6.1 2C5.49249 2 5 2.49249 5 3.1H7C7 3.59706 6.59706 4 6.1 4V2ZM11 3.1C11 2.49249 10.5075 2 9.9 2V4C9.40294 4 9 3.59706 9 3.1H11ZM14 6C14 4.89543 13.1046 4 12 4V6H12H14ZM12 23C13.1046 23 14 22.1046 14 21H12H12V23ZM4 4C2.89543 4 2 4.89543 2 6H4L4 6V4ZM4 21L4 21H2C2 22.1046 2.89543 23 4 23V21Z" fill="#555770"/>
</svg>
