<svg width="24" height="24" viewBox="0 0 24 24" fill="none" xmlns="http://www.w3.org/2000/svg">
<path d="M10.9998 3.05493C9.26432 3.24677 7.67759 3.93206 6.383 4.96737M12.9998 3.05493C14.7352 3.24677 16.3219 3.93206 17.6165 4.96737M4.96433 6.38673C3.93058 7.68069 3.24636 9.26612 3.05469 11M3.05469 13C3.24648 14.735 3.93147 16.3214 4.96634 17.6158M6.38731 19.0361C7.68112 20.0695 9.26624 20.7534 10.9998 20.9451M12.9998 20.9451C14.7333 20.7534 16.3184 20.0695 17.6122 19.0361M19.0332 17.6158C20.068 16.3214 20.753 14.735 20.9448 13M20.9448 11C20.753 9.265 20.068 7.67863 19.0332 6.38421" stroke="#555770" stroke-width="2"/>
</svg>
