<svg width="24" height="24" viewBox="0 0 24 24" fill="none" xmlns="http://www.w3.org/2000/svg">
<mask id="mask0_402_15396" style="mask-type:alpha" maskUnits="userSpaceOnUse" x="2" y="4" width="20" height="16">
<path d="M2 6C2 4.89543 2.89543 4 4 4H22V18C22 19.1046 21.1046 20 20 20H4C2.89543 20 2 19.1046 2 18V6Z" fill="white"/>
</mask>
<g mask="url(#mask0_402_15396)">
<path d="M21 2.5H22V1.5H21V2.5ZM3 2.5V1.5H2V2.5H3ZM6.21682 8.4741L5.33635 8.9482L6.21682 8.4741ZM20 18H4V20H20V18ZM4 18V5H2V18H4ZM4 5V2.5H2V5H4ZM2.11953 2.9741L5.33635 8.9482L7.09729 8L3.88047 2.0259L2.11953 2.9741ZM20 9V18H22V9H20ZM7.09729 10H11.5V8H7.09729V10ZM7.59204 2.91906L10.592 9.41906L12.408 8.58094L9.40796 2.08094L7.59204 2.91906ZM8.5 3.5H13.5V1.5H8.5V3.5ZM11.5 10H16.5V8H11.5V10ZM16.5 10H21V8H16.5V10ZM12.592 2.91906L15.592 9.41906L17.408 8.58094L14.408 2.08094L12.592 2.91906ZM13.5 3.5H18.5V1.5H13.5V3.5ZM20 2.5V8H22V2.5H20ZM20 8V9H22V8H20ZM17.5896 2.9138L20.0896 8.4138L21.9104 7.5862L19.4104 2.0862L17.5896 2.9138ZM3 3.5H8.5V1.5H3V3.5ZM21 1.5H18.5V3.5H21V1.5ZM5.33635 8.9482C5.68518 9.59602 6.36153 10 7.09729 10V8L7.09729 8L5.33635 8.9482ZM4 18L4 18H2C2 19.1046 2.89543 20 4 20V18ZM20 20C21.1046 20 22 19.1046 22 18H20L20 18V20Z" fill="#555770"/>
<path d="M12 16L12 11M12 16L13 15L11 15L12 16Z" stroke="#555770" stroke-width="2"/>
</g>
</svg>
