<svg width="24" height="24" viewBox="0 0 24 24" fill="none" xmlns="http://www.w3.org/2000/svg">
<path d="M2 1V4M2 23V20M22 1V4M22 23V20M2 4H6M2 4V8M6 4V2H18V4M6 4V8M2 8H6M2 8V12M6 8V12M2 12H6M2 12V16M6 12V16M2 16H6M2 16V20M6 16V20M2 20H6M6 20V22H18V20M18 4H22M18 4V8M22 4V8M18 8H22M18 8V12M22 8V12M18 12H22M18 12V16M22 12V16M18 16H22M18 16V20M22 16V20M18 20H22" stroke="#555770" stroke-width="2"/>
<path d="M13.25 9.75V12H15.25V9.75H13.25ZM14.25 11H9.75V13H14.25V11ZM10.75 12V9.75H8.75V12H10.75ZM9.75 11H9.1V13H9.75V11ZM8 12.1V15.5H10V12.1H8ZM10 17.5H14V15.5H10V17.5ZM16 15.5V12.1H14V15.5H16ZM14.9 11H14.25V13H14.9V11ZM16 12.1C16 11.4925 15.5075 11 14.9 11V13C14.4029 13 14 12.5971 14 12.1H16ZM9.1 11C8.49249 11 8 11.4925 8 12.1H10C10 12.5971 9.59706 13 9.1 13V11ZM14 17.5C15.1046 17.5 16 16.6046 16 15.5H14L14 15.5V17.5ZM12 8.5C12.6904 8.5 13.25 9.05964 13.25 9.75H15.25C15.25 7.95507 13.7949 6.5 12 6.5V8.5ZM8 15.5C8 16.6046 8.89543 17.5 10 17.5V15.5L10 15.5H8ZM12 6.5C10.2051 6.5 8.75 7.95507 8.75 9.75H10.75C10.75 9.05964 11.3096 8.5 12 8.5V6.5Z" fill="#555770"/>
</svg>
