<svg width="24" height="24" viewBox="0 0 24 24" fill="none" xmlns="http://www.w3.org/2000/svg">
<path d="M15.7884 21.3982L15.0734 20.6991L15.0734 20.6991L15.7884 21.3982ZM19.43 17.6739L20.145 18.373L20.145 18.373L19.43 17.6739ZM5 10C5 6.13401 8.13401 3 12 3V1C7.02944 1 3 5.02944 3 10H5ZM12 3C15.866 3 19 6.13401 19 10H21C21 5.02944 16.9706 1 12 1V3ZM12 23H14.3584V21H12V23ZM16.5034 22.0974L20.145 18.373L18.715 16.9747L15.0734 20.6991L16.5034 22.0974ZM21 16.2756V16H19V16.2756H21ZM20.145 18.373C20.6931 17.8124 21 17.0596 21 16.2756H19C19 16.5369 18.8977 16.7879 18.715 16.9747L20.145 18.373ZM14.3584 23C15.1657 23 15.939 22.6746 16.5034 22.0974L15.0734 20.6991C14.8852 20.8915 14.6275 21 14.3584 21V23ZM19 10V16H21V10H19Z" fill="#555770"/>
<mask id="path-2-inside-1_402_15356" fill="white">
<path d="M1 11C1 10.4477 1.44772 10 2 10H5V16H2C1.44772 16 1 15.5523 1 15V11Z"/>
<path d="M19 10H22C22.5523 10 23 10.4477 23 11V15C23 15.5523 22.5523 16 22 16H19V10Z"/>
<path d="M10 21C10 20.4477 10.4477 20 11 20H13C13.5523 20 14 20.4477 14 21V22C14 22.5523 13.5523 23 13 23H11C10.4477 23 10 22.5523 10 22V21Z"/>
</mask>
<path d="M5 10H7V8H5V10ZM5 16V18H7V16H5ZM19 10V8H17V10H19ZM19 16H17V18H19V16ZM2 12H5V8H2V12ZM3 10V16H7V10H3ZM5 14H2V18H5V14ZM3 15V11H-1V15H3ZM19 12H22V8H19V12ZM21 11V15H25V11H21ZM22 14H19V18H22V14ZM21 16V10H17V16H21ZM11 22H13V18H11V22ZM12 21V22H16V21H12ZM13 21H11V25H13V21ZM12 22V21H8V22H12ZM12 22C12 21.4477 12.4477 21 13 21V25C14.6569 25 16 23.6569 16 22H12ZM13 22C12.4477 22 12 21.5523 12 21H16C16 19.3431 14.6569 18 13 18V22ZM21 15C21 14.4477 21.4477 14 22 14V18C23.6569 18 25 16.6569 25 15H21ZM11 18C9.34315 18 8 19.3431 8 21H12C12 21.5523 11.5523 22 11 22V18ZM2 14C2.55228 14 3 14.4477 3 15H-1C-1 16.6569 0.343146 18 2 18V14ZM22 12C21.4477 12 21 11.5523 21 11H25C25 9.34315 23.6569 8 22 8V12ZM11 21C11.5523 21 12 21.4477 12 22H8C8 23.6569 9.34315 25 11 25V21ZM2 8C0.343145 8 -1 9.34315 -1 11H3C3 11.5523 2.55229 12 2 12V8Z" fill="#555770" mask="url(#path-2-inside-1_402_15356)"/>
</svg>
