<svg width="24" height="24" viewBox="0 0 24 24" fill="none" xmlns="http://www.w3.org/2000/svg">
<path d="M19 3L19.932 3.36245C20.0517 3.05477 20.0118 2.70787 19.8254 2.4354C19.639 2.16293 19.3301 2 19 2L19 3ZM5 3L5 2C4.66988 2 4.36103 2.16293 4.17464 2.4354C3.98825 2.70787 3.94834 3.05477 4.068 3.36245L5 3ZM5 21L4.06799 20.6376C3.94834 20.9452 3.98825 21.2921 4.17464 21.5646C4.36103 21.8371 4.66988 22 5 22L5 21ZM19 21L19 22C19.3301 22 19.639 21.8371 19.8254 21.5646C20.0117 21.2921 20.0517 20.9452 19.932 20.6376L19 21ZM18.46 19.6114L19.392 19.2489L19.392 19.2489L18.46 19.6114ZM18.46 4.38863L19.392 4.75107L19.392 4.75107L18.46 4.38863ZM5.54002 4.38863L4.60802 4.75107L4.60802 4.75107L5.54002 4.38863ZM5.54002 19.6114L4.60802 19.2489L5.54002 19.6114ZM19 2L5 2L5 4L19 4L19 2ZM5 22L19 22L19 20L5 20L5 22ZM19.932 20.6376L19.392 19.2489L17.528 19.9738L18.068 21.3624L19.932 20.6376ZM19.392 4.75107L19.932 3.36245L18.068 2.63755L17.528 4.02618L19.392 4.75107ZM4.068 3.36245L4.60802 4.75107L6.47203 4.02618L5.932 2.63755L4.068 3.36245ZM4.60802 19.2489L4.06799 20.6376L5.932 21.3624L6.47203 19.9738L4.60802 19.2489ZM4.60802 4.75107C6.42123 9.41361 6.42123 14.5864 4.60802 19.2489L6.47203 19.9738C8.46656 14.845 8.46656 9.15497 6.47203 4.02618L4.60802 4.75107ZM19.392 19.2489C17.5788 14.5864 17.5788 9.41361 19.392 4.75107L17.528 4.02618C15.5334 9.15497 15.5334 14.845 17.528 19.9738L19.392 19.2489Z" fill="#555770"/>
</svg>
