<svg width="24" height="24" viewBox="0 0 24 24" fill="none" xmlns="http://www.w3.org/2000/svg">
<path d="M3 5L3.36245 4.068C3.05477 3.94834 2.70787 3.98825 2.4354 4.17464C2.16293 4.36103 2 4.66988 2 5H3ZM3 19H2C2 19.3301 2.16293 19.639 2.4354 19.8254C2.70787 20.0118 3.05477 20.0517 3.36245 19.932L3 19ZM21 19L20.6376 19.932C20.9452 20.0517 21.2921 20.0118 21.5646 19.8254C21.8371 19.639 22 19.3301 22 19H21ZM21 5H22C22 4.66988 21.8371 4.36103 21.5646 4.17464C21.2921 3.98825 20.9452 3.94834 20.6376 4.068L21 5ZM19.6114 5.54002L19.2489 4.60802L19.2489 4.60802L19.6114 5.54002ZM4.38863 5.54002L4.75107 4.60802L4.75107 4.60802L4.38863 5.54002ZM4.38863 18.46L4.75107 19.392L4.75108 19.392L4.38863 18.46ZM19.6114 18.46L19.2489 19.392L19.6114 18.46ZM2 5V19H4V5H2ZM22 19V5H20V19H22ZM20.6376 4.068L19.2489 4.60802L19.9738 6.47203L21.3624 5.932L20.6376 4.068ZM4.75107 4.60802L3.36245 4.068L2.63755 5.932L4.02618 6.47203L4.75107 4.60802ZM3.36245 19.932L4.75107 19.392L4.02618 17.528L2.63755 18.068L3.36245 19.932ZM19.2489 19.392L20.6376 19.932L21.3624 18.068L19.9738 17.528L19.2489 19.392ZM4.75108 19.392C9.41361 17.5788 14.5864 17.5788 19.2489 19.392L19.9738 17.528C14.845 15.5334 9.15497 15.5334 4.02618 17.528L4.75108 19.392ZM19.2489 4.60802C14.5864 6.42123 9.41361 6.42123 4.75107 4.60802L4.02618 6.47203C9.15497 8.46656 14.845 8.46656 19.9738 6.47203L19.2489 4.60802Z" fill="#555770"/>
</svg>
