<svg width="24" height="24" viewBox="0 0 24 24" fill="none" xmlns="http://www.w3.org/2000/svg">
<mask id="path-1-inside-1_402_15337" fill="white">
<path d="M12 20C7.58172 20 4 16.4183 4 12C4 7.58172 7.58172 4 12 4C16.4183 4 20 7.58172 20 12C20 16.4183 16.4183 20 12 20Z"/>
</mask>
<path d="M22 12C22 6.47715 17.5228 2 12 2V6C15.3137 6 18 8.68629 18 12H22ZM12 22C17.5228 22 22 17.5228 22 12H18C18 15.3137 15.3137 18 12 18V22ZM2 12C2 17.5228 6.47715 22 12 22V18C8.68629 18 6 15.3137 6 12H2ZM6 12C6 8.68629 8.68629 6 12 6V2C6.47715 2 2 6.47715 2 12H6Z" fill="#555770" mask="url(#path-1-inside-1_402_15337)"/>
</svg>
