<svg width="24" height="24" viewBox="0 0 24 24" fill="none" xmlns="http://www.w3.org/2000/svg">
<path d="M14.3099 12L15.176 12.5L15.4646 12L15.176 11.5L14.3099 12ZM13.155 14.0004V15.0004H13.7323L14.021 14.5004L13.155 14.0004ZM9.69018 12L8.82337 11.5013L8.53599 12.0009L8.82415 12.5L9.69018 12ZM10.8451 9.99958V8.99958H10.2678L9.97909 9.49958L10.8451 9.99958ZM8.82164 21.4843L8.50401 22.4325L8.50401 22.4325L8.82164 21.4843ZM18.6402 19.4773L19.3045 20.2248L19.3045 20.2248L18.6402 19.4773ZM13.4439 11.5L12.289 13.5004L14.021 14.5004L15.176 12.5L13.4439 11.5ZM13.155 13.0004H10.8451V15.0004H13.155V13.0004ZM11.7111 13.5004L10.5562 11.5L8.82415 12.5L9.97909 14.5004L11.7111 13.5004ZM10.5562 12.5L11.7111 10.4996L9.97909 9.49958L8.82415 11.5L10.5562 12.5ZM10.8451 10.9996H13.155V8.99958H10.8451V10.9996ZM12.289 10.4996L13.4439 12.5L15.176 11.5L14.021 9.49958L12.289 10.4996ZM10.8451 13.0004H2.20012V15.0004H10.8451V13.0004ZM13.4444 11.4991L7.95611 20.9835L9.68717 21.9852L15.1755 12.5008L13.4444 11.4991ZM10.557 12.4986L16.0182 3.00535L14.2846 2.00805L8.82337 11.5013L10.557 12.4986ZM13.155 10.9996H21.7999V8.99958H13.155V10.9996ZM20.8199 10.1986C20.9379 10.7798 21 11.3821 21 12H23C23 11.2477 22.9243 10.5121 22.7799 9.80061L20.8199 10.1986ZM12.2895 10.5005L17.7747 19.9782L19.5057 18.9764L14.0205 9.49867L12.2895 10.5005ZM21 12C21 14.6769 19.8326 17.0798 17.9759 18.7298L19.3045 20.2248C21.5702 18.2113 23 15.272 23 12H21ZM17.9759 18.7298C16.3859 20.1429 14.2943 21 12 21V23C14.8026 23 17.3625 21.9506 19.3045 20.2248L17.9759 18.7298ZM12 21C10.9983 21 10.0367 20.8367 9.13927 20.5361L8.50401 22.4325C9.60359 22.8009 10.7796 23 12 23V21ZM9.13927 20.5361C6.12521 19.5265 3.8221 16.9634 3.18012 13.8014L1.22011 14.1994C2.00586 18.0694 4.81996 21.1985 8.50401 22.4325L9.13927 20.5361ZM3.18012 13.8014C3.06212 13.2202 3 12.6179 3 12H1C1 12.7523 1.07566 13.4879 1.22011 14.1994L3.18012 13.8014ZM11.7092 13.497L6.20026 4.0404L4.47211 5.04712L9.98104 14.5038L11.7092 13.497ZM3 12C3 9.33336 4.15848 6.93861 6.00282 5.28915L4.66955 3.79837C2.41892 5.8112 1 8.74056 1 12H3ZM6.00282 5.28915C7.59544 3.8648 9.69553 3 12 3V1C9.18486 1 6.61463 2.05882 4.66955 3.79837L6.00282 5.28915ZM12 3C12.9927 3 13.946 3.16036 14.8365 3.45582L15.4663 1.55758C14.3753 1.19557 13.2095 1 12 1V3ZM14.8365 3.45582C17.8624 4.4598 20.1762 7.02811 20.8199 10.1986L22.7799 9.80061C21.992 5.92022 19.165 2.78477 15.4663 1.55758L14.8365 3.45582ZM9.97909 10.4996L12.289 14.5004L14.021 13.5004L11.7111 9.49958L9.97909 10.4996Z" fill="#555770"/>
</svg>
