<svg width="24" height="24" viewBox="0 0 24 24" fill="none" xmlns="http://www.w3.org/2000/svg">
<path d="M5.1 22L5.1 23H5.1V22ZM18.9 22L18.9 21H18.9V22ZM19 21.9L18 21.9L19 21.9ZM19 2.1L20 2.1L19 2.1ZM5 2.1L4 2.1L5 2.1ZM5 21.9L6 21.9L5 21.9ZM5.1 2L5.1 3L5.1 2ZM15 15L14 15L15 15ZM12 12L12 11L12 12ZM12 18L12 17L12 18ZM9 15L8 15L9 15ZM13 7L14 7L13 7ZM12 6L12 7L12 6ZM12 8L12 9L12 8ZM11 7L12 7L11 7ZM5.1 23H18.9V21H5.1V23ZM20 21.9L20 2.1L18 2.1L18 21.9L20 21.9ZM4 2.1L4 21.9L6 21.9L6 2.1L4 2.1ZM18.9 1L5.1 1L5.1 3L18.9 3L18.9 1ZM20 2.1C20 1.49248 19.5075 1 18.9 1L18.9 3C18.403 3 18 2.59706 18 2.1L20 2.1ZM18.9 23C19.5075 23 20 22.5075 20 21.9L18 21.9C18 21.4029 18.4029 21 18.9 21L18.9 23ZM5.1 21C5.59705 21 6 21.4029 6 21.9L4 21.9C4 22.5075 4.49249 23 5.1 23L5.1 21ZM6 2.1C6 2.59707 5.59704 3 5.1 3L5.1 1C4.4925 1 4 1.49247 4 2.1L6 2.1ZM16 15C16 12.7909 14.2091 11 12 11L12 13C13.1046 13 14 13.8954 14 15L16 15ZM12 19C14.2091 19 16 17.2091 16 15L14 15C14 16.1046 13.1046 17 12 17L12 19ZM12 17C10.8954 17 10 16.1046 10 15L8 15C8 17.2091 9.79086 19 12 19L12 17ZM10 15C10 13.8954 10.8954 13 12 13L12 11C9.79086 11 8 12.7909 8 15L10 15ZM14 7C14 5.89543 13.1046 5 12 5L12 7L12 7L14 7ZM12 9C13.1046 9 14 8.10457 14 7L12 7L12 7L12 9ZM12 7L12 7L10 7C10 8.10457 10.8954 9 12 9L12 7ZM12 7L12 7L12 5C10.8954 5 10 5.89543 10 7L12 7Z" fill="#555770"/>
</svg>
