<svg width="24" height="24" viewBox="0 0 24 24" fill="none" xmlns="http://www.w3.org/2000/svg">
<path d="M16 12C16 14.2091 14.2091 16 12 16V18C15.3137 18 18 15.3137 18 12H16ZM12 16C9.79086 16 8 14.2091 8 12H6C6 15.3137 8.68629 18 12 18V16ZM8 12C8 9.79086 9.79086 8 12 8V6C8.68629 6 6 8.68629 6 12H8ZM12 8C14.2091 8 16 9.79086 16 12H18C18 8.68629 15.3137 6 12 6V8ZM11 1V4H13V1H11ZM11 20V23H13V20H11ZM23 11H20V13H23V11ZM4 11H1V13H4V11ZM19.0711 3.51472L16.9497 5.63604L18.364 7.05025L20.4853 4.92893L19.0711 3.51472ZM5.63604 16.9497L3.51472 19.0711L4.92893 20.4853L7.05025 18.364L5.63604 16.9497ZM20.4853 19.0711L18.364 16.9497L16.9497 18.364L19.0711 20.4853L20.4853 19.0711ZM7.05025 5.63604L4.92893 3.51472L3.51472 4.92893L5.63604 7.05025L7.05025 5.63604Z" fill="#555770"/>
</svg>
