<svg width="24" height="24" viewBox="0 0 24 24" fill="none" xmlns="http://www.w3.org/2000/svg">
<path d="M21.8293 7.17071L22.5364 7.87782L21.8293 7.17071ZM3 7H16V5H3V7ZM16 17H3V19H16V17ZM3 17V7H1V17H3ZM16 7V12H18V7H16ZM16 12V17H18V12H16ZM17.7071 12.7071L22.5364 7.87782L21.1222 6.4636L16.2929 11.2929L17.7071 12.7071ZM21 7.24142V16.7586H23V7.24142H21ZM22.5364 16.1222L17.7071 11.2929L16.2929 12.7071L21.1222 17.5364L22.5364 16.1222ZM21 16.7586C21 15.9568 21.9694 15.5552 22.5364 16.1222L21.1222 17.5364C21.8151 18.2294 23 17.7386 23 16.7586H21ZM3 17L3 17H1C1 18.1046 1.89543 19 3 19V17ZM16 19C17.1046 19 18 18.1046 18 17H16L16 17V19ZM16 7L16 7H18C18 5.89543 17.1046 5 16 5V7ZM22.5364 7.87782C21.9694 8.44479 21 8.04323 21 7.24142H23C23 6.26144 21.8152 5.77064 21.1222 6.4636L22.5364 7.87782ZM3 5C1.89543 5 1 5.89543 1 7H3L3 7V5Z" fill="#555770"/>
<path d="M7 13L6.29289 13.7071L8 15.4142V13H7ZM6 12L5.29289 11.2929L4.58579 12L5.29289 12.7071L6 12ZM7 11H8V8.58579L6.29289 10.2929L7 11ZM12 13H11V15.4142L12.7071 13.7071L12 13ZM13 12L13.7071 12.7071L14.4142 12L13.7071 11.2929L13 12ZM12 11L12.7071 10.2929L11 8.58579V11H12ZM7.70711 12.2929L6.70711 11.2929L5.29289 12.7071L6.29289 13.7071L7.70711 12.2929ZM6.70711 12.7071L7.70711 11.7071L6.29289 10.2929L5.29289 11.2929L6.70711 12.7071ZM6 11V12H8V11H6ZM6 12V13H8V12H6ZM12.7071 13.7071L13.7071 12.7071L12.2929 11.2929L11.2929 12.2929L12.7071 13.7071ZM13.7071 11.2929L12.7071 10.2929L11.2929 11.7071L12.2929 12.7071L13.7071 11.2929ZM11 11V12H13V11H11ZM11 12V13H13V12H11ZM7 13H12V11H7V13Z" fill="#555770"/>
</svg>
