<svg width="24" height="24" viewBox="0 0 24 24" fill="none" xmlns="http://www.w3.org/2000/svg">
<path d="M2 7C2 6.44772 2.44772 6 3 6H6.58579C6.851 6 7.10536 5.89464 7.29289 5.70711L8.70711 4.29289C8.89464 4.10536 9.149 4 9.41421 4H14.5858C14.851 4 15.1054 4.10536 15.2929 4.29289L16.7071 5.70711C16.8946 5.89464 17.149 6 17.4142 6H21C21.5523 6 22 6.44772 22 7V18C22 18.5523 21.5523 19 21 19H3C2.44772 19 2 18.5523 2 18V7Z" stroke="#555770" stroke-width="2"/>
<path d="M8 13L7.29289 13.7071L9 15.4142V13H8ZM7 12L6.29289 11.2929L5.58579 12L6.29289 12.7071L7 12ZM8 11H9V8.58579L7.29289 10.2929L8 11ZM16 13H15V15.4142L16.7071 13.7071L16 13ZM17 12L17.7071 12.7071L18.4142 12L17.7071 11.2929L17 12ZM16 11L16.7071 10.2929L15 8.58579V11H16ZM8.70711 12.2929L7.70711 11.2929L6.29289 12.7071L7.29289 13.7071L8.70711 12.2929ZM7.70711 12.7071L8.70711 11.7071L7.29289 10.2929L6.29289 11.2929L7.70711 12.7071ZM7 11V12H9V11H7ZM7 12V13H9V12H7ZM16.7071 13.7071L17.7071 12.7071L16.2929 11.2929L15.2929 12.2929L16.7071 13.7071ZM17.7071 11.2929L16.7071 10.2929L15.2929 11.7071L16.2929 12.7071L17.7071 11.2929ZM15 11V12H17V11H15ZM15 12V13H17V12H15ZM8 13H16V11H8V13Z" fill="#555770"/>
</svg>
