<svg width="24" height="24" viewBox="0 0 24 24" fill="none" xmlns="http://www.w3.org/2000/svg">
<path d="M21 12C21 16.9706 16.9706 21 12 21C7.02944 21 3 16.9706 3 12C3 7.02944 7.02944 3 12 3C16.9706 3 21 7.02944 21 12Z" stroke="#555770" stroke-width="2"/>
<path d="M12.0002 17C14.7616 17 17.0002 14.7614 17.0002 12C17.0002 10.3644 16.2149 8.91222 15.0007 7.99999C14.4192 7.56308 13.7393 7.25003 13.0002 7.10001V12L9 16.0002C9.8357 16.628 10.8745 17 12.0002 17Z" fill="#555770"/>
<path d="M13.0002 7.10001L13.1991 6.11999L12.0002 5.87662V7.10001H13.0002ZM13.0002 12L13.7073 12.7071L14.0002 12.4142V12H13.0002ZM9 16.0002L8.29289 15.2931L7.47823 16.1078L8.39938 16.7997L9 16.0002ZM15.0007 7.99999L14.4 8.79948L14.4 8.79948L15.0007 7.99999ZM16.0002 12C16.0002 14.2091 14.2093 16 12.0002 16V18C15.3139 18 18.0002 15.3137 18.0002 12H16.0002ZM12.0002 7.10001V12H14.0002V7.10001H12.0002ZM12.0002 16C11.0985 16 10.2691 15.7028 9.60062 15.2007L8.39938 16.7997C9.40231 17.5531 10.6505 18 12.0002 18V16ZM12.2931 11.2929L8.29289 15.2931L9.70711 16.7073L13.7073 12.7071L12.2931 11.2929ZM12.8013 8.08002C13.3911 8.19975 13.9344 8.44965 14.4 8.79948L15.6014 7.20049C14.904 6.67652 14.0875 6.30031 13.1991 6.11999L12.8013 8.08002ZM14.4 8.79948C15.3736 9.53096 16.0002 10.6922 16.0002 12H18.0002C18.0002 10.0366 17.0561 8.29347 15.6014 7.20049L14.4 8.79948Z" fill="#555770"/>
</svg>
