<svg width="24" height="24" viewBox="0 0 24 24" fill="none" xmlns="http://www.w3.org/2000/svg">
<path d="M12 21V3" stroke="#555770" stroke-width="2"/>
<path d="M12 17L11.6464 17.3536L12.5 18.2071V17H12ZM12 13.5L11.6746 13.1204L11.5 13.27V13.5H12ZM8.79289 13.7929L8.43934 14.1464L8.79289 13.7929ZM8 10V13.0858H9V10H8ZM8.43934 14.1464L11.6464 17.3536L12.3536 16.6464L9.14645 13.4393L8.43934 14.1464ZM12.5 17V13.5H11.5V17H12.5ZM12.3254 13.8796L15.4762 11.1789L14.8254 10.4197L11.6746 13.1204L12.3254 13.8796ZM16 10.0401V7H15V10.0401H16ZM15.4762 11.1789C15.8087 10.894 16 10.478 16 10.0401H15C15 10.186 14.9362 10.3247 14.8254 10.4197L15.4762 11.1789ZM8 13.0858C8 13.4836 8.15804 13.8651 8.43934 14.1464L9.14645 13.4393C9.05268 13.3456 9 13.2184 9 13.0858H8Z" fill="#555770"/>
<path d="M14 21C14 22.1046 13.1046 23 12 23C10.8954 23 10 22.1046 10 21C10 19.8954 10.8954 19 12 19C13.1046 19 14 19.8954 14 21Z" fill="#555770"/>
<path d="M10 9.5C10 10.3284 9.32843 11 8.5 11C7.67157 11 7 10.3284 7 9.5C7 8.67157 7.67157 8 8.5 8C9.32843 8 10 8.67157 10 9.5Z" fill="#555770"/>
<path d="M17 5.00002L14 4.99994V8H17V5.00002Z" fill="#424242"/>
<path d="M14 4H10L12 1L14 4Z" fill="#555770"/>
</svg>
