<svg width="24" height="24" viewBox="0 0 24 24" fill="none" xmlns="http://www.w3.org/2000/svg">
<path d="M10.5 7V6.25H9.75V7H10.5ZM13.5 7H14.25V6.25H13.5V7ZM13.5 10V10.75H14.25V10H13.5ZM10.5 10H9.75V10.75H10.5V10ZM4.25 8.5C4.25 8.91421 3.91421 9.25 3.5 9.25V10.75C4.74264 10.75 5.75 9.74264 5.75 8.5H4.25ZM3.5 9.25C3.08579 9.25 2.75 8.91421 2.75 8.5H1.25C1.25 9.74264 2.25736 10.75 3.5 10.75V9.25ZM2.75 8.5C2.75 8.08579 3.08579 7.75 3.5 7.75V6.25C2.25736 6.25 1.25 7.25736 1.25 8.5H2.75ZM3.5 7.75C3.91421 7.75 4.25 8.08579 4.25 8.5H5.75C5.75 7.25736 4.74264 6.25 3.5 6.25V7.75ZM21.25 8.5C21.25 8.91421 20.9142 9.25 20.5 9.25V10.75C21.7426 10.75 22.75 9.74264 22.75 8.5H21.25ZM20.5 9.25C20.0858 9.25 19.75 8.91421 19.75 8.5H18.25C18.25 9.74264 19.2574 10.75 20.5 10.75V9.25ZM19.75 8.5C19.75 8.08579 20.0858 7.75 20.5 7.75V6.25C19.2574 6.25 18.25 7.25736 18.25 8.5H19.75ZM20.5 7.75C20.9142 7.75 21.25 8.08579 21.25 8.5H22.75C22.75 7.25736 21.7426 6.25 20.5 6.25V7.75ZM18.75 15.5C18.75 15.9142 18.4142 16.25 18 16.25V17.75C19.2426 17.75 20.25 16.7426 20.25 15.5H18.75ZM18 16.25C17.5858 16.25 17.25 15.9142 17.25 15.5H15.75C15.75 16.7426 16.7574 17.75 18 17.75V16.25ZM18 14.75C18.4142 14.75 18.75 15.0858 18.75 15.5H20.25C20.25 14.2574 19.2426 13.25 18 13.25V14.75ZM6.75 15.5C6.75 15.9142 6.41421 16.25 6 16.25V17.75C7.24264 17.75 8.25 16.7426 8.25 15.5H6.75ZM6 16.25C5.58579 16.25 5.25 15.9142 5.25 15.5H3.75C3.75 16.7426 4.75736 17.75 6 17.75V16.25ZM5.25 15.5C5.25 15.0858 5.58579 14.75 6 14.75V13.25C4.75736 13.25 3.75 14.2574 3.75 15.5H5.25ZM10.5 7.75H13.5V6.25H10.5V7.75ZM13.5 9.25H10.5V10.75H13.5V9.25ZM17.25 15.5C17.25 15.0893 17.5803 14.7556 17.9895 14.7501L17.9694 13.2502C16.7407 13.2667 15.75 14.2676 15.75 15.5H17.25ZM17.9895 14.7501C17.993 14.75 17.9965 14.75 18 14.75V13.25C17.9898 13.25 17.9796 13.2501 17.9694 13.2502L17.9895 14.7501ZM6 14.75C6.00352 14.75 6.00701 14.75 6.01047 14.7501L6.03058 13.2502C6.02038 13.2501 6.01019 13.25 6 13.25V14.75ZM6.01047 14.7501C6.41973 14.7556 6.75 15.0893 6.75 15.5H8.25C8.25 14.2676 7.25925 13.2667 6.03058 13.2502L6.01047 14.7501ZM11.25 8.5V7H9.75V8.5H11.25ZM11.25 10V8.68903H9.75V10H11.25ZM11.25 8.68903V8.5H9.75V8.68903H11.25ZM6.76799 14.0618C6.95349 11.8126 8.55913 9.96302 10.6869 9.41535L10.3131 7.9627C7.57681 8.66696 5.51193 11.0423 5.27306 13.9385L6.76799 14.0618ZM13.3131 9.41535C15.4409 9.96302 17.0465 11.8126 17.232 14.0618L18.7269 13.9385C18.4881 11.0423 16.4232 8.66696 13.6869 7.9627L13.3131 9.41535ZM12.75 8.68903V10H14.25V8.68903H12.75ZM12.75 7V8.5H14.25V7H12.75ZM12.75 8.5V8.68903H14.25V8.5H12.75ZM19 7.75H13.5V9.25H19V7.75ZM10.5 7.75H5V9.25H10.5V7.75Z" fill="#555770"/>
</svg>
