<svg width="24" height="24" viewBox="0 0 24 24" fill="none" xmlns="http://www.w3.org/2000/svg">
<mask id="mask0_402_18660" style="mask-type:alpha" maskUnits="userSpaceOnUse" x="0" y="0" width="24" height="24">
<path d="M21.5033 21.5L0.00325155 0L0 24H24V0H5.69812V2.86644L23 20.1683L21.5033 21.5Z" fill="white"/>
</mask>
<g mask="url(#mask0_402_18660)">
<path d="M13 19L0 19" stroke="#3E7BFA" stroke-width="2"/>
<mask id="mask1_402_18660" style="mask-type:alpha" maskUnits="userSpaceOnUse" x="1" y="3" width="22" height="17">
<path d="M1 19.5V3H23V6H19V8H13V19.5H1Z" fill="white"/>
</mask>
<g mask="url(#mask1_402_18660)">
<path d="M4 5H20C20.5523 5 21 5.44772 21 6V16C21 16.5523 20.5523 17 20 17H4C3.44772 17 3 16.5523 3 16V6C3 5.44772 3.44772 5 4 5Z" stroke="#555770" stroke-width="2"/>
</g>
<path d="M21 20L17 20C16.4477 20 16 19.5523 16 19L16 10C16 9.44772 16.4477 9 17 9L18.4 9L19.6 9L21 9C21.5523 9 22 9.44771 22 10L22 19C22 19.5523 21.5523 20 21 20Z" stroke="#3E7BFA" stroke-width="2"/>
<path d="M2.58301 4L21.0002 22.4172" stroke="#555770" stroke-width="2"/>
</g>
</svg>
