<svg width="24" height="24" viewBox="0 0 24 24" fill="none" xmlns="http://www.w3.org/2000/svg">
<path d="M21 6V18C21 18.5523 20.5523 19 20 19H4C3.44772 19 3 18.5523 3 18V6C3 5.44772 3.44772 5 4 5H20C20.5523 5 21 5.44772 21 6Z" stroke="#555770" stroke-width="2"/>
<path d="M14.25 12V10.25C14.25 9.00736 13.2426 8 12 8V8C10.7574 8 9.75 9.00736 9.75 10.25V12M14.25 12H9.75M14.25 12H14.9C14.9552 12 15 12.0448 15 12.1V15C15 15.5523 14.5523 16 14 16H10C9.44772 16 9 15.5523 9 15V12.1C9 12.0448 9.04477 12 9.1 12H9.75" stroke="#3E7BFA" stroke-width="2"/>
</svg>
