<svg width="24" height="24" viewBox="0 0 24 24" fill="none" xmlns="http://www.w3.org/2000/svg">
<mask id="mask0_402_14772" style="mask-type:alpha" maskUnits="userSpaceOnUse" x="6" y="0" width="12" height="24">
<rect x="6" width="12" height="24" fill="white"/>
</mask>
<g mask="url(#mask0_402_14772)">
<path d="M12.2 2L13.1662 1.74234L12.7208 0.0719572L11.4949 1.29088L12.2 2ZM7 24H6V26.4142L7.70711 24.7071L7 24ZM13.4 6.8125C13.4 7.46297 12.8681 8 12.2 8V10C13.9619 10 15.4 8.57827 15.4 6.8125H13.4ZM12.2 8C11.5319 8 11 7.46297 11 6.8125H9C9 8.57827 10.4381 10 12.2 10V8ZM11 6.8125C11 6.3995 11.1651 5.6674 11.5225 4.84315C11.8737 4.03306 12.3605 3.2506 12.9051 2.70912L11.4949 1.29088C10.7195 2.0619 10.1063 3.08163 9.68751 4.04763C9.27485 4.99947 9 6.01738 9 6.8125H11ZM11.2338 2.25766C11.6805 3.93292 12.3135 4.80119 12.7993 5.45056C13.2428 6.04349 13.4 6.26307 13.4 6.8125H15.4C15.4 5.54943 14.8572 4.86276 14.4007 4.25256C13.9865 3.69881 13.5195 3.06708 13.1662 1.74234L11.2338 2.25766ZM8 14H12V12H8V14ZM12 14H16V12H12V14ZM8 24V18H6V24H8ZM8 18V14H6V18H8ZM11.2929 12.2929L6.29289 17.2929L7.70711 18.7071L12.7071 13.7071L11.2929 12.2929ZM7.70711 24.7071L17.7071 14.7071L16.2929 13.2929L6.29289 23.2929L7.70711 24.7071ZM16 14V20H18V14H16ZM16 20V24H18V20H16ZM16.2929 19.2929L10.7929 24.7929L12.2071 26.2071L17.7071 20.7071L16.2929 19.2929ZM16 14H16H18C18 12.8954 17.1046 12 16 12V14ZM8 12C6.89543 12 6 12.8954 6 14H8L8 14V12Z" fill="#555770"/>
</g>
</svg>
