<svg width="24" height="24" viewBox="0 0 24 24" fill="none" xmlns="http://www.w3.org/2000/svg">
<g clip-path="url(#clip0_402_14770)">
<path d="M16.6335 5.61686L16.3642 4.65383L16.3642 4.65383L16.6335 5.61686ZM10 13L9.02884 13.2386L9.0314 13.2486L10 13ZM6.15172 19.791L5.18311 20.0396L5.18311 20.0396L6.15172 19.791ZM11.2294 22.8514L11.4988 23.8145L11.4988 23.8145L11.2294 22.8514ZM13.1301 22.0595L13.6976 22.8829L13.6976 22.8829L13.1301 22.0595ZM11.7587 22.7034L11.4893 21.7404L11.4893 21.7404L11.7587 22.7034ZM6.73721 7.40239L7.70581 7.15377L6.73721 7.40239ZM7.85081 8.07357L7.58143 7.11054L7.58143 7.11054L7.85081 8.07357ZM17.2765 4.45434L16.3079 4.70295L16.3079 4.70295L17.2765 4.45434ZM15.4569 1.03258L15.1875 0.0695449L15.4569 1.03258ZM16.5705 1.70376L17.5391 1.45515L17.5391 1.45515L16.5705 1.70376ZM18.8448 14.2318L17.8762 14.4805L17.8762 14.4805L18.8448 14.2318ZM16.9584 19.4208L16.3909 18.5974L16.3909 18.5974L16.9584 19.4208ZM6.67415 3.48929L6.94353 4.45232L6.67415 3.48929ZM6.03121 4.65182L5.06261 4.90043L6.03121 4.65182ZM9.7424 13.8039L10.3395 14.6061L9.7424 13.8039ZM9.9036 13.6406L9.05325 13.1144L9.9036 13.6406ZM6.94353 4.45232L15.7263 1.99561L15.1875 0.0695449L6.40477 2.52626L6.94353 4.45232ZM15.6019 1.95238L16.3079 4.70295L18.2451 4.20572L17.5391 1.45515L15.6019 1.95238ZM7.70581 7.15377L6.99981 4.4032L5.06261 4.90043L5.7686 7.651L7.70581 7.15377ZM15.6649 5.86548L17.8762 14.4805L19.8134 13.9832L17.6021 5.36825L15.6649 5.86548ZM16.3909 18.5974L12.5625 21.2361L13.6976 22.8829L17.5259 20.2442L16.3909 18.5974ZM11.4893 21.7404L10.9601 21.8884L11.4988 23.8145L12.028 23.6665L11.4893 21.7404ZM9.03644 15.576L10.3395 14.6061L9.14532 13.0017L7.84228 13.9716L9.03644 15.576ZM16.3642 4.65383L8.4597 6.86487L8.99847 8.79094L16.9029 6.5799L16.3642 4.65383ZM8.4597 6.86487L7.58143 7.11054L8.12019 9.03661L8.99846 8.79094L8.4597 6.86487ZM10.9711 12.7614L9.7002 7.58928L7.75797 8.06653L9.02889 13.2386L10.9711 12.7614ZM10.7539 14.1668C11.014 13.7466 11.0925 13.2341 10.9686 12.7514L9.0314 13.2486C9.02036 13.2056 9.02609 13.1583 9.05325 13.1144L10.7539 14.1668ZM7.12032 19.5424C6.95649 18.9041 6.97845 18.24 7.16834 17.63L5.25875 17.0355C4.9601 17.9948 4.92574 19.0369 5.18311 20.0396L7.12032 19.5424ZM10.9601 21.8884C9.32289 22.3464 7.58265 21.3436 7.12032 19.5424L5.18311 20.0396C5.90605 22.8562 8.71255 24.5939 11.4988 23.8145L10.9601 21.8884ZM12.5625 21.2361C12.2315 21.4643 11.869 21.6342 11.4893 21.7404L12.028 23.6665C12.6229 23.5001 13.1865 23.2351 13.6976 22.8829L12.5625 21.2361ZM5.7686 7.651C6.02888 8.66503 7.06058 9.333 8.12019 9.03661L7.58143 7.11054C7.59666 7.10628 7.61539 7.1048 7.63429 7.10755C7.65235 7.11017 7.66668 7.11603 7.67706 7.12228C7.68739 7.12851 7.69451 7.13551 7.6992 7.14179C7.70158 7.14498 7.70325 7.14788 7.70437 7.15021C7.70551 7.15259 7.70584 7.15392 7.70581 7.15377L5.7686 7.651ZM16.3079 4.70295C16.3079 4.7031 16.3078 4.70256 16.3077 4.70151C16.3077 4.70052 16.3077 4.69943 16.3078 4.69832C16.3081 4.6964 16.3087 4.69394 16.3106 4.69064C16.3124 4.68733 16.3167 4.68088 16.3259 4.67344C16.3357 4.66545 16.3491 4.65805 16.3642 4.65383L16.9029 6.5799C17.9442 6.28863 18.5018 5.2057 18.2451 4.20572L16.3079 4.70295ZM15.7263 1.99561C15.711 1.99987 15.6923 2.00135 15.6734 1.9986C15.6553 1.99598 15.641 1.99012 15.6306 1.98387C15.6203 1.97764 15.6132 1.97064 15.6085 1.96436C15.6061 1.96117 15.6044 1.95827 15.6033 1.95594C15.6022 1.95356 15.6018 1.95224 15.6019 1.95238L17.5391 1.45515C17.2788 0.44112 16.2471 -0.226849 15.1875 0.0695449L15.7263 1.99561ZM17.8762 14.4805C18.2822 16.0624 17.6663 17.7183 16.3909 18.5974L17.5259 20.2442C19.5165 18.8721 20.4203 16.3477 19.8134 13.9832L17.8762 14.4805ZM6.40477 2.52626C5.36349 2.81752 4.80594 3.90045 5.06261 4.90043L6.99981 4.4032C6.99977 4.40305 6.99991 4.40359 6.99997 4.40464C7.00003 4.40564 7 4.40673 6.99985 4.40783C6.99959 4.40975 6.99895 4.41221 6.99713 4.41552C6.9953 4.41882 6.99096 4.42528 6.98182 4.43272C6.972 4.4407 6.9586 4.44811 6.94353 4.45232L6.40477 2.52626ZM7.84228 13.9716C6.94644 14.6384 5.71286 15.5769 5.25875 17.0355L7.16834 17.63C7.40225 16.8787 8.07559 16.2911 9.03644 15.576L7.84228 13.9716ZM10.3395 14.6061C10.4349 14.5351 10.6138 14.3933 10.7539 14.1668L9.05325 13.1144C9.08463 13.0637 9.11535 13.0307 9.13202 13.0144C9.14784 12.9989 9.15587 12.9939 9.14532 13.0017L10.3395 14.6061Z" fill="#555770"/>
</g>
<defs>
<clipPath id="clip0_402_14770">
<rect width="24" height="24" fill="white"/>
</clipPath>
</defs>
</svg>
