<svg width="24" height="24" viewBox="0 0 24 24" fill="none" xmlns="http://www.w3.org/2000/svg">
<path d="M12.5 4L13.2225 3.30862C12.964 3.03852 12.5765 2.93515 12.2178 3.04063L12.5 4ZM4 6.5L3.71783 5.54063C3.32919 5.65494 3.0479 5.99243 3.00549 6.39532L4 6.5ZM19.063 12.5L20.0314 12.7493L19.063 12.5ZM14.8333 12L13.8733 12.28L13.8733 12.28L14.8333 12ZM16 17V20H18V17H16ZM16 20H3V22H16V20ZM3 20V17H1V20H3ZM3 20H3H1C1 21.1046 1.89543 22 3 22V20ZM16 20V22C17.1046 22 18 21.1046 18 20H16ZM16 17H18C18 15.8954 17.1046 15 16 15V17ZM3 15C1.89543 15 1 15.8954 1 17H3V15ZM21 14C20.4477 14 20 13.5523 20 13H18C18 14.6569 19.3431 16 21 16V14ZM22 13C22 13.5523 21.5523 14 21 14V16C22.6569 16 24 14.6569 24 13H22ZM21 12C21.5523 12 22 12.4477 22 13H24C24 11.3431 22.6569 10 21 10V12ZM12.2178 3.04063L3.71783 5.54063L4.28217 7.45937L12.7822 4.95937L12.2178 3.04063ZM3 17H16V15H3V17ZM3.00549 6.39532L2.00549 15.8953L3.99451 16.1047L4.99451 6.60468L3.00549 6.39532ZM21 10C20.2398 10 19.5436 10.284 19.0154 10.7503L20.3388 12.2497C20.5157 12.0936 20.7457 12 21 12V10ZM11.7775 4.69138L18.9546 12.1914L20.3996 10.8086L13.2225 3.30862L11.7775 4.69138ZM19.0154 10.7503C18.574 11.1398 18.2469 11.659 18.0946 12.2507L20.0314 12.7493C20.0815 12.5548 20.1898 12.3813 20.3388 12.2497L19.0154 10.7503ZM18.0946 12.2507C18.0327 12.4913 18 12.7426 18 13H20C20 12.9121 20.0111 12.8283 20.0314 12.7493L18.0946 12.2507ZM16.96 15.72L15.7933 11.72L13.8733 12.28L15.04 16.28L16.96 15.72ZM15.7933 11.72L13.46 3.72L11.54 4.28L13.8733 12.28L15.7933 11.72ZM19.1804 11.5069L14.9507 11.0069L14.7159 12.9931L18.9456 13.4931L19.1804 11.5069Z" fill="#555770"/>
</svg>
