<svg width="24" height="24" viewBox="0 0 24 24" fill="none" xmlns="http://www.w3.org/2000/svg">
<path d="M22 15.5V10C22 9.44772 21.5523 9 21 9H15.5M22 15.5V21C22 21.5523 21.5523 22 21 22H3C2.44772 22 2 21.5523 2 21V15.5M22 15.5H15.5M2 15.5V10C2 9.44772 2.44772 9 3 9H8.5M2 15.5H8.5M8.5 15.5V9M8.5 15.5H15.5M8.5 9H12M15.5 15.5V9M15.5 9H12M1 6H1.40561C1.4684 6 1.53104 5.99409 1.59272 5.98234L12 4M23 2H22.5944C22.5316 2 22.469 2.00591 22.4073 2.01766L12 4M12 4V9M15 18V19" stroke="#555770" stroke-width="2"/>
</svg>
