<svg width="24" height="24" viewBox="0 0 24 24" fill="none" xmlns="http://www.w3.org/2000/svg">
<path d="M1.43652 8.51213C0.854493 7.9301 0.854494 6.98645 1.43652 6.40442C2.01855 5.8224 2.9622 5.8224 3.54422 6.40442L17.5956 20.4558C18.1776 21.0378 18.1776 21.9815 17.5956 22.5635C17.0135 23.1455 16.0699 23.1455 15.4879 22.5635L1.43652 8.51213Z" stroke="#555770" stroke-width="2"/>
<path d="M6.40442 3.54422C5.8224 2.9622 5.8224 2.01855 6.40442 1.43652C6.98645 0.854493 7.9301 0.854493 8.51213 1.43652L22.5635 15.4879C23.1455 16.0699 23.1455 17.0135 22.5635 17.5956C21.9815 18.1776 21.0378 18.1776 20.4558 17.5956L6.40442 3.54422Z" stroke="#555770" stroke-width="2"/>
<path d="M14.228 10.506L13.494 9.77198C13.0887 9.36662 13.0887 8.70939 13.494 8.30402C13.8994 7.89866 14.5566 7.89866 14.962 8.30402L15.696 9.038C16.1013 9.44337 16.1013 10.1006 15.696 10.506C15.2906 10.9113 14.6334 10.9113 14.228 10.506Z" fill="#424242"/>
<path d="M9.038 15.696L8.30402 14.962C7.89866 14.5566 7.89866 13.8994 8.30402 13.494C8.70939 13.0887 9.36662 13.0887 9.77198 13.494L10.506 14.228C10.9113 14.6334 10.9113 15.2906 10.506 15.696C10.1006 16.1013 9.44337 16.1013 9.038 15.696Z" fill="#424242"/>
<path d="M13.494 9.77198L14.2011 9.06488L14.2011 9.06488L13.494 9.77198ZM14.228 10.506L13.5209 11.2131L13.5209 11.2131L14.228 10.506ZM15.696 9.038L16.4031 8.3309L16.4031 8.3309L15.696 9.038ZM14.962 8.30402L14.2549 9.01113L14.2549 9.01113L14.962 8.30402ZM8.30402 14.962L9.01113 14.2549L9.01113 14.2549L8.30402 14.962ZM9.038 15.696L8.3309 16.4031L8.3309 16.4031L9.038 15.696ZM10.506 14.228L11.2131 13.5209L11.2131 13.5209L10.506 14.228ZM9.77198 13.494L9.06488 14.2011L9.06488 14.2011L9.77198 13.494ZM12.7869 10.4791L13.5209 11.2131L14.9351 9.79885L14.2011 9.06488L12.7869 10.4791ZM16.4031 8.3309L15.6691 7.59692L14.2549 9.01113L14.9889 9.74511L16.4031 8.3309ZM15.6691 7.59692C14.8732 6.80103 13.5828 6.80103 12.7869 7.59692L14.2011 9.01113C14.216 8.99629 14.24 8.99629 14.2549 9.01113L15.6691 7.59692ZM16.4031 11.2131C17.199 10.4172 17.199 9.12679 16.4031 8.3309L14.9889 9.74511C15.0037 9.75995 15.0037 9.78401 14.9889 9.79885L16.4031 11.2131ZM13.5209 11.2131C14.3168 12.009 15.6072 12.009 16.4031 11.2131L14.9889 9.79885C14.974 9.8137 14.95 9.8137 14.9351 9.79885L13.5209 11.2131ZM14.2011 9.06488C14.1863 9.05003 14.1863 9.02597 14.2011 9.01113L12.7869 7.59692C11.991 8.39281 11.991 9.6832 12.7869 10.4791L14.2011 9.06488ZM7.59692 15.6691L8.3309 16.4031L9.74511 14.9889L9.01113 14.2549L7.59692 15.6691ZM11.2131 13.5209L10.4791 12.7869L9.06488 14.2011L9.79885 14.9351L11.2131 13.5209ZM10.4791 12.7869C9.6832 11.991 8.39281 11.991 7.59692 12.7869L9.01113 14.2011C9.02597 14.1863 9.05003 14.1863 9.06488 14.2011L10.4791 12.7869ZM11.2131 16.4031C12.009 15.6072 12.009 14.3168 11.2131 13.5209L9.79885 14.9351C9.8137 14.95 9.8137 14.974 9.79885 14.9889L11.2131 16.4031ZM8.3309 16.4031C9.12679 17.199 10.4172 17.199 11.2131 16.4031L9.79885 14.9889C9.78401 15.0037 9.75995 15.0037 9.74511 14.9889L8.3309 16.4031ZM9.01113 14.2549C8.99629 14.24 8.99629 14.216 9.01113 14.2011L7.59692 12.7869C6.80103 13.5828 6.80103 14.8732 7.59692 15.6691L9.01113 14.2549Z" fill="#555770"/>
</svg>
