<svg width="24" height="24" viewBox="0 0 24 24" fill="none" xmlns="http://www.w3.org/2000/svg">
<path d="M3 14V13H2V14H3ZM20 10V9H19V10H20ZM21 10H22V9H21V10ZM3 15H2V16H3V15ZM16 15C16.8267 15 18.0445 14.7602 19.0843 14.0115C20.1751 13.2261 21 11.9259 21 10H19C19 11.2741 18.4915 11.9739 17.9157 12.3885C17.2889 12.8398 16.5066 13 16 13V15ZM20 11H21V9H20V11ZM20 10C20 10.6733 19.7898 11.7055 19.1885 12.5407C18.6239 13.3249 17.6741 14 16 14V16C18.3259 16 19.8761 15.0085 20.8115 13.7093C21.7102 12.4611 22 10.9934 22 10H20ZM16 14C15.9922 14 15.9844 14 15.9765 14C15.9687 14 15.9609 14 15.953 14C15.9452 14 15.9373 14 15.9294 14C15.9216 14 15.9137 14 15.9058 14C15.8979 14 15.8901 14 15.8822 14C15.8743 14 15.8663 14 15.8584 14C15.8505 14 15.8426 14 15.8346 14C15.8267 14 15.8188 14 15.8108 14C15.8029 14 15.7949 14 15.7869 14C15.779 14 15.771 14 15.763 14C15.755 14 15.747 14 15.739 14C15.731 14 15.723 14 15.715 14C15.707 14 15.6989 14 15.6909 14C15.6829 14 15.6748 14 15.6668 14C15.6587 14 15.6506 14 15.6426 14C15.6345 14 15.6264 14 15.6183 14C15.6103 14 15.6022 14 15.5941 14C15.586 14 15.5779 14 15.5697 14C15.5616 14 15.5535 14 15.5454 14C15.5372 14 15.5291 14 15.5209 14C15.5128 14 15.5046 14 15.4965 14C15.4883 14 15.4801 14 15.4719 14C15.4637 14 15.4556 14 15.4474 14C15.4392 14 15.431 14 15.4227 14C15.4145 14 15.4063 14 15.3981 14C15.3898 14 15.3816 14 15.3734 14C15.3651 14 15.3569 14 15.3486 14C15.3403 14 15.3321 14 15.3238 14C15.3155 14 15.3072 14 15.2989 14C15.2907 14 15.2824 14 15.274 14C15.2657 14 15.2574 14 15.2491 14C15.2408 14 15.2325 14 15.2241 14C15.2158 14 15.2074 14 15.1991 14C15.1907 14 15.1824 14 15.174 14C15.1656 14 15.1573 14 15.1489 14C15.1405 14 15.1321 14 15.1237 14C15.1153 14 15.1069 14 15.0985 14C15.0901 14 15.0817 14 15.0733 14C15.0648 14 15.0564 14 15.048 14C15.0395 14 15.0311 14 15.0226 14C15.0142 14 15.0057 14 14.9973 14C14.9888 14 14.9803 14 14.9718 14C14.9634 14 14.9549 14 14.9464 14C14.9379 14 14.9294 14 14.9209 14C14.9124 14 14.9038 14 14.8953 14C14.8868 14 14.8783 14 14.8697 14C14.8612 14 14.8526 14 14.8441 14C14.8355 14 14.827 14 14.8184 14C14.8099 14 14.8013 14 14.7927 14C14.7841 14 14.7755 14 14.767 14C14.7584 14 14.7498 14 14.7412 14C14.7326 14 14.7239 14 14.7153 14C14.7067 14 14.6981 14 14.6895 14C14.6808 14 14.6722 14 14.6635 14C14.6549 14 14.6463 14 14.6376 14C14.6289 14 14.6203 14 14.6116 14C14.6029 14 14.5943 14 14.5856 14C14.5769 14 14.5682 14 14.5595 14C14.5508 14 14.5421 14 14.5334 14C14.5247 14 14.516 14 14.5073 14C14.4986 14 14.4898 14 14.4811 14C14.4724 14 14.4636 14 14.4549 14C14.4461 14 14.4374 14 14.4286 14C14.4199 14 14.4111 14 14.4023 14C14.3936 14 14.3848 14 14.376 14C14.3672 14 14.3585 14 14.3497 14C14.3409 14 14.3321 14 14.3233 14C14.3145 14 14.3056 14 14.2968 14C14.288 14 14.2792 14 14.2704 14C14.2615 14 14.2527 14 14.2439 14C14.235 14 14.2262 14 14.2173 14C14.2085 14 14.1996 14 14.1908 14C14.1819 14 14.173 14 14.1642 14C14.1553 14 14.1464 14 14.1375 14C14.1286 14 14.1197 14 14.1108 14C14.1019 14 14.093 14 14.0841 14C14.0752 14 14.0663 14 14.0574 14C14.0485 14 14.0396 14 14.0306 14C14.0217 14 14.0128 14 14.0038 14C13.9949 14 13.9859 14 13.977 14C13.968 14 13.9591 14 13.9501 14C13.9412 14 13.9322 14 13.9232 14C13.9143 14 13.9053 14 13.8963 14C13.8873 14 13.8783 14 13.8693 14C13.8603 14 13.8513 14 13.8423 14C13.8333 14 13.8243 14 13.8153 14C13.8063 14 13.7973 14 13.7883 14C13.7792 14 13.7702 14 13.7612 14C13.7521 14 13.7431 14 13.7341 14C13.725 14 13.716 14 13.7069 14C13.6979 14 13.6888 14 13.6797 14C13.6707 14 13.6616 14 13.6525 14C13.6435 14 13.6344 14 13.6253 14C13.6162 14 13.6071 14 13.5981 14C13.589 14 13.5799 14 13.5708 14C13.5617 14 13.5526 14 13.5435 14C13.5343 14 13.5252 14 13.5161 14C13.507 14 13.4979 14 13.4887 14C13.4796 14 13.4705 14 13.4613 14C13.4522 14 13.4431 14 13.4339 14C13.4248 14 13.4156 14 13.4065 14C13.3973 14 13.3882 14 13.379 14C13.3698 14 13.3607 14 13.3515 14C13.3423 14 13.3331 14 13.324 14C13.3148 14 13.3056 14 13.2964 14C13.2872 14 13.278 14 13.2688 14C13.2596 14 13.2504 14 13.2412 14C13.232 14 13.2228 14 13.2136 14C13.2044 14 13.1952 14 13.1859 14C13.1767 14 13.1675 14 13.1583 14C13.149 14 13.1398 14 13.1306 14C13.1213 14 13.1121 14 13.1028 14C13.0936 14 13.0843 14 13.0751 14C13.0658 14 13.0566 14 13.0473 14C13.0381 14 13.0288 14 13.0195 14C13.0103 14 13.001 14 12.9917 14C12.9824 14 12.9732 14 12.9639 14C12.9546 14 12.9453 14 12.936 14C12.9267 14 12.9174 14 12.9081 14C12.8988 14 12.8895 14 12.8802 14C12.8709 14 12.8616 14 12.8523 14C12.843 14 12.8337 14 12.8244 14C12.815 14 12.8057 14 12.7964 14C12.7871 14 12.7777 14 12.7684 14C12.7591 14 12.7497 14 12.7404 14C12.7311 14 12.7217 14 12.7124 14C12.703 14 12.6937 14 12.6843 14C12.675 14 12.6656 14 12.6563 14C12.6469 14 12.6375 14 12.6282 14C12.6188 14 12.6094 14 12.6001 14C12.5907 14 12.5813 14 12.5719 14C12.5626 14 12.5532 14 12.5438 14C12.5344 14 12.525 14 12.5156 14C12.5062 14 12.4969 14 12.4875 14C12.4781 14 12.4687 14 12.4593 14C12.4499 14 12.4405 14 12.4311 14C12.4216 14 12.4122 14 12.4028 14C12.3934 14 12.384 14 12.3746 14C12.3652 14 12.3557 14 12.3463 14C12.3369 14 12.3275 14 12.318 14C12.3086 14 12.2992 14 12.2897 14C12.2803 14 12.2709 14 12.2614 14C12.252 14 12.2426 14 12.2331 14C12.2237 14 12.2142 14 12.2048 14C12.1953 14 12.1859 14 12.1764 14C12.167 14 12.1575 14 12.148 14C12.1386 14 12.1291 14 12.1197 14C12.1102 14 12.1007 14 12.0913 14C12.0818 14 12.0723 14 12.0629 14C12.0534 14 12.0439 14 12.0344 14C12.025 14 12.0155 14 12.006 14C11.9965 14 11.987 14 11.9775 14C11.9681 14 11.9586 14 11.9491 14C11.9396 14 11.9301 14 11.9206 14C11.9111 14 11.9016 14 11.8921 14C11.8826 14 11.8731 14 11.8636 14C11.8541 14 11.8446 14 11.8351 14C11.8256 14 11.8161 14 11.8066 14C11.7971 14 11.7876 14 11.7781 14C11.7685 14 11.759 14 11.7495 14C11.74 14 11.7305 14 11.721 14C11.7114 14 11.7019 14 11.6924 14C11.6829 14 11.6733 14 11.6638 14C11.6543 14 11.6448 14 11.6352 14C11.6257 14 11.6162 14 11.6066 14C11.5971 14 11.5876 14 11.578 14C11.5685 14 11.559 14 11.5494 14C11.5399 14 11.5303 14 11.5208 14C11.5113 14 11.5017 14 11.4922 14C11.4826 14 11.4731 14 11.4635 14C11.454 14 11.4444 14 11.4349 14C11.4253 14 11.4158 14 11.4062 14C11.3967 14 11.3871 14 11.3776 14C11.368 14 11.3585 14 11.3489 14C11.3394 14 11.3298 14 11.3202 14C11.3107 14 11.3011 14 11.2916 14C11.282 14 11.2724 14 11.2629 14C11.2533 14 11.2438 14 11.2342 14C11.2246 14 11.2151 14 11.2055 14C11.1959 14 11.1864 14 11.1768 14C11.1672 14 11.1576 14 11.1481 14C11.1385 14 11.1289 14 11.1194 14C11.1098 14 11.1002 14 11.0906 14C11.0811 14 11.0715 14 11.0619 14C11.0524 14 11.0428 14 11.0332 14C11.0236 14 11.014 14 11.0045 14C10.9949 14 10.9853 14 10.9757 14C10.9662 14 10.9566 14 10.947 14C10.9374 14 10.9278 14 10.9183 14C10.9087 14 10.8991 14 10.8895 14C10.8799 14 10.8704 14 10.8608 14C10.8512 14 10.8416 14 10.832 14C10.8224 14 10.8129 14 10.8033 14C10.7937 14 10.7841 14 10.7745 14C10.7649 14 10.7554 14 10.7458 14C10.7362 14 10.7266 14 10.717 14C10.7074 14 10.6979 14 10.6883 14C10.6787 14 10.6691 14 10.6595 14C10.6499 14 10.6404 14 10.6308 14C10.6212 14 10.6116 14 10.602 14C10.5924 14 10.5828 14 10.5733 14C10.5637 14 10.5541 14 10.5445 14C10.5349 14 10.5253 14 10.5158 14C10.5062 14 10.4966 14 10.487 14C10.4774 14 10.4678 14 10.4583 14C10.4487 14 10.4391 14 10.4295 14C10.4199 14 10.4103 14 10.4008 14C10.3912 14 10.3816 14 10.372 14C10.3624 14 10.3528 14 10.3433 14C10.3337 14 10.3241 14 10.3145 14C10.3049 14 10.2954 14 10.2858 14C10.2762 14 10.2666 14 10.2571 14C10.2475 14 10.2379 14 10.2283 14C10.2187 14 10.2092 14 10.1996 14C10.19 14 10.1805 14 10.1709 14C10.1613 14 10.1517 14 10.1422 14C10.1326 14 10.123 14 10.1134 14C10.1039 14 10.0943 14 10.0847 14C10.0752 14 10.0656 14 10.056 14C10.0465 14 10.0369 14 10.0273 14C10.0178 14 10.0082 14 9.99864 14C9.98908 14 9.97951 14 9.96995 14C9.96039 14 9.95083 14 9.94127 14C9.93171 14 9.92215 14 9.9126 14C9.90304 14 9.89348 14 9.88393 14C9.87437 14 9.86482 14 9.85527 14C9.84572 14 9.83617 14 9.82662 14C9.81707 14 9.80752 14 9.79797 14C9.78842 14 9.77888 14 9.76933 14C9.75979 14 9.75024 14 9.7407 14C9.73116 14 9.72162 14 9.71208 14C9.70254 14 9.693 14 9.68346 14C9.67393 14 9.66439 14 9.65486 14C9.64533 14 9.63579 14 9.62626 14C9.61673 14 9.6072 14 9.59768 14C9.58815 14 9.57862 14 9.5691 14C9.55958 14 9.55005 14 9.54053 14C9.53101 14 9.52149 14 9.51198 14C9.50246 14 9.49294 14 9.48343 14C9.47392 14 9.46441 14 9.4549 14C9.44539 14 9.43588 14 9.42637 14C9.41686 14 9.40736 14 9.39786 14C9.38835 14 9.37885 14 9.36936 14C9.35986 14 9.35036 14 9.34087 14C9.33137 14 9.32188 14 9.31239 14C9.3029 14 9.29341 14 9.28392 14C9.27443 14 9.26495 14 9.25547 14C9.24599 14 9.23651 14 9.22703 14C9.21755 14 9.20807 14 9.1986 14C9.18913 14 9.17966 14 9.17019 14C9.16072 14 9.15125 14 9.14179 14C9.13232 14 9.12286 14 9.1134 14C9.10394 14 9.09448 14 9.08503 14C9.07557 14 9.06612 14 9.05667 14C9.04722 14 9.03777 14 9.02833 14C9.01888 14 9.00944 14 9 14C8.99056 14 8.98112 14 8.97169 14C8.96225 14 8.95282 14 8.94339 14C8.93396 14 8.92453 14 8.91511 14C8.90568 14 8.89626 14 8.88684 14C8.87742 14 8.86801 14 8.85859 14C8.84918 14 8.83977 14 8.83036 14C8.82095 14 8.81155 14 8.80215 14C8.79274 14 8.78335 14 8.77395 14C8.76455 14 8.75516 14 8.74577 14C8.73638 14 8.72699 14 8.7176 14C8.70822 14 8.69884 14 8.68946 14C8.68008 14 8.6707 14 8.66133 14C8.65196 14 8.64259 14 8.63322 14C8.62386 14 8.61449 14 8.60513 14C8.59577 14 8.58642 14 8.57706 14C8.56771 14 8.55836 14 8.54901 14C8.53966 14 8.53032 14 8.52098 14C8.51164 14 8.5023 14 8.49297 14C8.48363 14 8.4743 14 8.46497 14C8.45565 14 8.44632 14 8.437 14C8.42768 14 8.41837 14 8.40905 14C8.39974 14 8.39043 14 8.38112 14C8.37182 14 8.36251 14 8.35321 14C8.34391 14 8.33462 14 8.32533 14C8.31603 14 8.30674 14 8.29746 14C8.28817 14 8.27889 14 8.26962 14C8.26034 14 8.25106 14 8.24179 14C8.23252 14 8.22326 14 8.21399 14C8.20473 14 8.19547 14 8.18622 14C8.17696 14 8.16771 14 8.15846 14C8.14922 14 8.13997 14 8.13073 14C8.12149 14 8.11226 14 8.10303 14C8.0938 14 8.08457 14 8.07534 14C8.06612 14 8.0569 14 8.04769 14C8.03847 14 8.02926 14 8.02005 14C8.01084 14 8.00164 14 7.99244 14C7.98324 14 7.97405 14 7.96486 14C7.95567 14 7.94648 14 7.9373 14C7.92812 14 7.91894 14 7.90976 14C7.90059 14 7.89142 14 7.88226 14C7.87309 14 7.86393 14 7.85477 14C7.84562 14 7.83646 14 7.82732 14C7.81817 14 7.80903 14 7.79989 14C7.79075 14 7.78161 14 7.77248 14C7.76336 14 7.75423 14 7.74511 14C7.73599 14 7.72687 14 7.71776 14C7.70865 14 7.69954 14 7.69044 14C7.68134 14 7.67224 14 7.66315 14C7.65405 14 7.64497 14 7.63588 14C7.6268 14 7.61772 14 7.60865 14C7.59957 14 7.5905 14 7.58144 14C7.57237 14 7.56331 14 7.55426 14C7.5452 14 7.53615 14 7.52711 14C7.51806 14 7.50902 14 7.49999 14C7.49095 14 7.48192 14 7.4729 14C7.46387 14 7.45485 14 7.44584 14C7.43682 14 7.42781 14 7.41881 14C7.4098 14 7.4008 14 7.39181 14C7.38281 14 7.37383 14 7.36484 14C7.35586 14 7.34688 14 7.3379 14C7.32893 14 7.31996 14 7.311 14C7.30203 14 7.29308 14 7.28412 14C7.27517 14 7.26622 14 7.25728 14C7.24834 14 7.2394 14 7.23047 14C7.22154 14 7.21261 14 7.20369 14C7.19477 14 7.18585 14 7.17695 14C7.16804 14 7.15913 14 7.15023 14C7.14133 14 7.13244 14 7.12355 14C7.11467 14 7.10578 14 7.09691 14C7.08803 14 7.07916 14 7.0703 14C7.06143 14 7.05257 14 7.04372 14C7.03486 14 7.02602 14 7.01717 14C7.00833 14 6.9995 14 6.99066 14C6.98183 14 6.97301 14 6.96419 14C6.95537 14 6.94656 14 6.93775 14C6.92894 14 6.92014 14 6.91135 14C6.90255 14 6.89376 14 6.88498 14C6.8762 14 6.86742 14 6.85865 14C6.84988 14 6.84111 14 6.83235 14C6.82359 14 6.81484 14 6.80609 14C6.79734 14 6.7886 14 6.77987 14C6.77113 14 6.7624 14 6.75368 14C6.74496 14 6.73624 14 6.72753 14C6.71882 14 6.71012 14 6.70142 14C6.69273 14 6.68403 14 6.67535 14C6.66666 14 6.65799 14 6.64931 14C6.64064 14 6.63198 14 6.62332 14C6.61466 14 6.60601 14 6.59736 14C6.58871 14 6.58007 14 6.57144 14C6.56281 14 6.55418 14 6.54556 14C6.53694 14 6.52832 14 6.51972 14C6.51111 14 6.50251 14 6.49392 14C6.48532 14 6.47674 14 6.46816 14C6.45957 14 6.451 14 6.44243 14C6.43387 14 6.42531 14 6.41675 14C6.4082 14 6.39965 14 6.39111 14C6.38257 14 6.37404 14 6.36551 14C6.35699 14 6.34847 14 6.33996 14C6.33144 14 6.32294 14 6.31444 14C6.30594 14 6.29745 14 6.28897 14C6.28048 14 6.272 14 6.26353 14C6.25506 14 6.2466 14 6.23814 14C6.22969 14 6.22124 14 6.2128 14C6.20435 14 6.19592 14 6.18749 14C6.17906 14 6.17064 14 6.16223 14C6.15382 14 6.14541 14 6.13701 14C6.12861 14 6.12022 14 6.11184 14C6.10346 14 6.09508 14 6.08671 14C6.07834 14 6.06998 14 6.06162 14C6.05327 14 6.04492 14 6.03658 14C6.02824 14 6.01991 14 6.01158 14C6.00326 14 5.99494 14 5.98663 14C5.97832 14 5.97002 14 5.96173 14C5.95343 14 5.94515 14 5.93687 14C5.92859 14 5.92032 14 5.91205 14C5.90379 14 5.89553 14 5.88728 14C5.87903 14 5.87079 14 5.86256 14C5.85433 14 5.8461 14 5.83788 14C5.82967 14 5.82146 14 5.81326 14C5.80505 14 5.79686 14 5.78867 14C5.78049 14 5.77231 14 5.76414 14C5.75597 14 5.74781 14 5.73965 14C5.7315 14 5.72335 14 5.71521 14C5.70708 14 5.69895 14 5.69082 14C5.6827 14 5.67459 14 5.66648 14C5.65838 14 5.65028 14 5.64219 14C5.6341 14 5.62602 14 5.61794 14C5.60987 14 5.60181 14 5.59375 14C5.58569 14 5.57765 14 5.5696 14C5.56156 14 5.55353 14 5.54551 14C5.53749 14 5.52947 14 5.52146 14C5.51346 14 5.50546 14 5.49747 14C5.48948 14 5.4815 14 5.47353 14C5.46555 14 5.45759 14 5.44963 14C5.44168 14 5.43373 14 5.42579 14C5.41785 14 5.40992 14 5.402 14C5.39408 14 5.38617 14 5.37826 14C5.37036 14 5.36246 14 5.35458 14C5.34669 14 5.33881 14 5.33094 14C5.32307 14 5.31521 14 5.30736 14C5.29951 14 5.29166 14 5.28383 14C5.276 14 5.26817 14 5.26035 14C5.25254 14 5.24473 14 5.23693 14C5.22913 14 5.22134 14 5.21356 14C5.20578 14 5.19801 14 5.19025 14C5.18248 14 5.17473 14 5.16699 14C5.15924 14 5.15151 14 5.14378 14C5.13605 14 5.12834 14 5.12063 14C5.11292 14 5.10522 14 5.09753 14C5.08984 14 5.08216 14 5.07449 14C5.06682 14 5.05916 14 5.0515 14C5.04385 14 5.03621 14 5.02857 14C5.02094 14 5.01331 14 5.0057 14C4.99808 14 4.99048 14 4.98288 14C4.97528 14 4.9677 14 4.96012 14C4.95254 14 4.94497 14 4.93741 14C4.92985 14 4.92231 14 4.91477 14C4.90723 14 4.8997 14 4.89218 14C4.88465 14 4.87714 14 4.86964 14C4.86214 14 4.85465 14 4.84717 14C4.83969 14 4.83221 14 4.82475 14C4.81729 14 4.80984 14 4.80239 14C4.79495 14 4.78752 14 4.78009 14C4.77267 14 4.76526 14 4.75785 14C4.75045 14 4.74306 14 4.73567 14C4.72829 14 4.72091 14 4.71355 14C4.70619 14 4.69883 14 4.69149 14C4.68414 14 4.67681 14 4.66949 14C4.66216 14 4.65485 14 4.64755 14C4.64024 14 4.63295 14 4.62566 14C4.61838 14 4.61111 14 4.60384 14C4.59658 14 4.58933 14 4.58209 14C4.57484 14 4.56761 14 4.56039 14C4.55317 14 4.54595 14 4.53875 14C4.53155 14 4.52436 14 4.51718 14C4.51 14 4.50283 14 4.49567 14C4.48851 14 4.48136 14 4.47422 14C4.46708 14 4.45995 14 4.45283 14C4.44571 14 4.4386 14 4.43151 14C4.42441 14 4.41732 14 4.41025 14C4.40317 14 4.39611 14 4.38905 14C4.382 14 4.37495 14 4.36792 14C4.36088 14 4.35386 14 4.34685 14C4.33984 14 4.33283 14 4.32584 14C4.31885 14 4.31187 14 4.3049 14C4.29793 14 4.29098 14 4.28403 14C4.27708 14 4.27014 14 4.26322 14C4.25629 14 4.24938 14 4.24247 14C4.23557 14 4.22868 14 4.2218 14C4.21491 14 4.20804 14 4.20118 14C4.19432 14 4.18747 14 4.18064 14C4.1738 14 4.16697 14 4.16016 14C4.15334 14 4.14654 14 4.13974 14C4.13295 14 4.12617 14 4.1194 14C4.11263 14 4.10587 14 4.09912 14C4.09237 14 4.08563 14 4.07891 14C4.07218 14 4.06547 14 4.05876 14C4.05206 14 4.04537 14 4.03869 14C4.03201 14 4.02534 14 4.01868 14C4.01202 14 4.00538 14 3.99874 14C3.99211 14 3.98548 14 3.97887 14C3.97226 14 3.96566 14 3.95907 14C3.95248 14 3.94591 14 3.93934 14C3.93277 14 3.92622 14 3.91968 14C3.91314 14 3.90661 14 3.90009 14C3.89357 14 3.88706 14 3.88057 14C3.87407 14 3.86759 14 3.86112 14C3.85464 14 3.84818 14 3.84174 14C3.83529 14 3.82885 14 3.82243 14C3.816 14 3.80959 14 3.80319 14C3.79679 14 3.7904 14 3.78402 14C3.77765 14 3.77128 14 3.76493 14C3.75858 14 3.75224 14 3.74591 14C3.73958 14 3.73326 14 3.72696 14C3.72065 14 3.71436 14 3.70808 14C3.7018 14 3.69553 14 3.68928 14C3.68302 14 3.67678 14 3.67055 14C3.66432 14 3.6581 14 3.65189 14C3.64568 14 3.63949 14 3.63331 14C3.62712 14 3.62095 14 3.6148 14C3.60864 14 3.60249 14 3.59636 14C3.59023 14 3.58411 14 3.578 14C3.57189 14 3.5658 14 3.55971 14C3.55363 14 3.54756 14 3.5415 14C3.53545 14 3.5294 14 3.52337 14C3.51734 14 3.51132 14 3.50531 14C3.4993 14 3.49331 14 3.48732 14C3.48134 14 3.47537 14 3.46942 14C3.46346 14 3.45752 14 3.45159 14C3.44565 14 3.43974 14 3.43383 14C3.42792 14 3.42203 14 3.41615 14C3.41027 14 3.40441 14 3.39855 14C3.3927 14 3.38686 14 3.38103 14C3.3752 14 3.36939 14 3.36358 14C3.35778 14 3.35199 14 3.34622 14C3.34044 14 3.33468 14 3.32893 14C3.32318 14 3.31744 14 3.31172 14C3.30599 14 3.30028 14 3.29458 14C3.28889 14 3.2832 14 3.27753 14C3.27186 14 3.2662 14 3.26056 14C3.25491 14 3.24928 14 3.24367 14C3.23805 14 3.23244 14 3.22685 14C3.22126 14 3.21568 14 3.21012 14C3.20455 14 3.199 14 3.19347 14C3.18793 14 3.1824 14 3.17689 14C3.17138 14 3.16589 14 3.1604 14C3.15492 14 3.14945 14 3.14399 14C3.13853 14 3.13309 14 3.12766 14C3.12223 14 3.11682 14 3.11142 14C3.10601 14 3.10063 14 3.09525 14C3.08988 14 3.08452 14 3.07917 14C3.07382 14 3.06849 14 3.06317 14C3.05785 14 3.05254 14 3.04725 14C3.04196 14 3.03668 14 3.03142 14C3.02615 14 3.0209 14 3.01567 14C3.01043 14 3.00521 14 3 14V16C3.00521 16 3.01043 16 3.01567 16C3.0209 16 3.02615 16 3.03142 16C3.03668 16 3.04196 16 3.04725 16C3.05254 16 3.05785 16 3.06317 16C3.06849 16 3.07382 16 3.07917 16C3.08452 16 3.08988 16 3.09525 16C3.10063 16 3.10601 16 3.11142 16C3.11682 16 3.12223 16 3.12766 16C3.13309 16 3.13853 16 3.14399 16C3.14945 16 3.15492 16 3.1604 16C3.16589 16 3.17138 16 3.17689 16C3.1824 16 3.18793 16 3.19347 16C3.199 16 3.20455 16 3.21012 16C3.21568 16 3.22126 16 3.22685 16C3.23244 16 3.23805 16 3.24367 16C3.24928 16 3.25491 16 3.26056 16C3.2662 16 3.27186 16 3.27753 16C3.2832 16 3.28889 16 3.29458 16C3.30028 16 3.30599 16 3.31172 16C3.31744 16 3.32318 16 3.32893 16C3.33468 16 3.34044 16 3.34622 16C3.35199 16 3.35778 16 3.36358 16C3.36939 16 3.3752 16 3.38103 16C3.38686 16 3.3927 16 3.39855 16C3.40441 16 3.41027 16 3.41615 16C3.42203 16 3.42792 16 3.43383 16C3.43974 16 3.44565 16 3.45159 16C3.45752 16 3.46346 16 3.46942 16C3.47537 16 3.48134 16 3.48732 16C3.49331 16 3.4993 16 3.50531 16C3.51132 16 3.51734 16 3.52337 16C3.5294 16 3.53545 16 3.5415 16C3.54756 16 3.55363 16 3.55971 16C3.5658 16 3.57189 16 3.578 16C3.58411 16 3.59023 16 3.59636 16C3.60249 16 3.60864 16 3.6148 16C3.62095 16 3.62712 16 3.63331 16C3.63949 16 3.64568 16 3.65189 16C3.6581 16 3.66432 16 3.67055 16C3.67678 16 3.68302 16 3.68928 16C3.69553 16 3.7018 16 3.70808 16C3.71436 16 3.72065 16 3.72696 16C3.73326 16 3.73958 16 3.74591 16C3.75224 16 3.75858 16 3.76493 16C3.77128 16 3.77765 16 3.78402 16C3.7904 16 3.79679 16 3.80319 16C3.80959 16 3.816 16 3.82243 16C3.82885 16 3.83529 16 3.84174 16C3.84818 16 3.85464 16 3.86112 16C3.86759 16 3.87407 16 3.88057 16C3.88706 16 3.89357 16 3.90009 16C3.90661 16 3.91314 16 3.91968 16C3.92622 16 3.93277 16 3.93934 16C3.94591 16 3.95248 16 3.95907 16C3.96566 16 3.97226 16 3.97887 16C3.98548 16 3.99211 16 3.99874 16C4.00538 16 4.01202 16 4.01868 16C4.02534 16 4.03201 16 4.03869 16C4.04537 16 4.05206 16 4.05876 16C4.06547 16 4.07218 16 4.07891 16C4.08563 16 4.09237 16 4.09912 16C4.10587 16 4.11263 16 4.1194 16C4.12617 16 4.13295 16 4.13974 16C4.14654 16 4.15334 16 4.16016 16C4.16697 16 4.1738 16 4.18064 16C4.18747 16 4.19432 16 4.20118 16C4.20804 16 4.21491 16 4.2218 16C4.22868 16 4.23557 16 4.24247 16C4.24938 16 4.25629 16 4.26322 16C4.27014 16 4.27708 16 4.28403 16C4.29098 16 4.29793 16 4.3049 16C4.31187 16 4.31885 16 4.32584 16C4.33283 16 4.33984 16 4.34685 16C4.35386 16 4.36088 16 4.36792 16C4.37495 16 4.382 16 4.38905 16C4.39611 16 4.40317 16 4.41025 16C4.41732 16 4.42441 16 4.43151 16C4.4386 16 4.44571 16 4.45283 16C4.45995 16 4.46708 16 4.47422 16C4.48136 16 4.48851 16 4.49567 16C4.50283 16 4.51 16 4.51718 16C4.52436 16 4.53155 16 4.53875 16C4.54595 16 4.55317 16 4.56039 16C4.56761 16 4.57484 16 4.58209 16C4.58933 16 4.59658 16 4.60384 16C4.61111 16 4.61838 16 4.62566 16C4.63295 16 4.64024 16 4.64755 16C4.65485 16 4.66216 16 4.66949 16C4.67681 16 4.68414 16 4.69149 16C4.69883 16 4.70619 16 4.71355 16C4.72091 16 4.72829 16 4.73567 16C4.74306 16 4.75045 16 4.75785 16C4.76526 16 4.77267 16 4.78009 16C4.78752 16 4.79495 16 4.80239 16C4.80984 16 4.81729 16 4.82475 16C4.83221 16 4.83969 16 4.84717 16C4.85465 16 4.86214 16 4.86964 16C4.87714 16 4.88465 16 4.89218 16C4.8997 16 4.90723 16 4.91477 16C4.92231 16 4.92985 16 4.93741 16C4.94497 16 4.95254 16 4.96012 16C4.9677 16 4.97528 16 4.98288 16C4.99048 16 4.99808 16 5.0057 16C5.01331 16 5.02094 16 5.02857 16C5.03621 16 5.04385 16 5.0515 16C5.05916 16 5.06682 16 5.07449 16C5.08216 16 5.08984 16 5.09753 16C5.10522 16 5.11292 16 5.12063 16C5.12834 16 5.13605 16 5.14378 16C5.15151 16 5.15924 16 5.16699 16C5.17473 16 5.18248 16 5.19025 16C5.19801 16 5.20578 16 5.21356 16C5.22134 16 5.22913 16 5.23693 16C5.24473 16 5.25254 16 5.26035 16C5.26817 16 5.276 16 5.28383 16C5.29166 16 5.29951 16 5.30736 16C5.31521 16 5.32307 16 5.33094 16C5.33881 16 5.34669 16 5.35458 16C5.36246 16 5.37036 16 5.37826 16C5.38617 16 5.39408 16 5.402 16C5.40992 16 5.41785 16 5.42579 16C5.43373 16 5.44168 16 5.44963 16C5.45759 16 5.46555 16 5.47353 16C5.4815 16 5.48948 16 5.49747 16C5.50546 16 5.51346 16 5.52146 16C5.52947 16 5.53749 16 5.54551 16C5.55353 16 5.56156 16 5.5696 16C5.57765 16 5.58569 16 5.59375 16C5.60181 16 5.60987 16 5.61794 16C5.62602 16 5.6341 16 5.64219 16C5.65028 16 5.65838 16 5.66648 16C5.67459 16 5.6827 16 5.69082 16C5.69895 16 5.70708 16 5.71521 16C5.72335 16 5.7315 16 5.73965 16C5.74781 16 5.75597 16 5.76414 16C5.77231 16 5.78049 16 5.78867 16C5.79686 16 5.80505 16 5.81326 16C5.82146 16 5.82967 16 5.83788 16C5.8461 16 5.85433 16 5.86256 16C5.87079 16 5.87903 16 5.88728 16C5.89553 16 5.90379 16 5.91205 16C5.92032 16 5.92859 16 5.93687 16C5.94515 16 5.95343 16 5.96173 16C5.97002 16 5.97832 16 5.98663 16C5.99494 16 6.00326 16 6.01158 16C6.01991 16 6.02824 16 6.03658 16C6.04492 16 6.05327 16 6.06162 16C6.06998 16 6.07834 16 6.08671 16C6.09508 16 6.10346 16 6.11184 16C6.12022 16 6.12861 16 6.13701 16C6.14541 16 6.15382 16 6.16223 16C6.17064 16 6.17906 16 6.18749 16C6.19592 16 6.20435 16 6.2128 16C6.22124 16 6.22969 16 6.23814 16C6.2466 16 6.25506 16 6.26353 16C6.272 16 6.28048 16 6.28897 16C6.29745 16 6.30594 16 6.31444 16C6.32294 16 6.33144 16 6.33996 16C6.34847 16 6.35699 16 6.36551 16C6.37404 16 6.38257 16 6.39111 16C6.39965 16 6.4082 16 6.41675 16C6.42531 16 6.43387 16 6.44243 16C6.451 16 6.45957 16 6.46816 16C6.47674 16 6.48532 16 6.49392 16C6.50251 16 6.51111 16 6.51972 16C6.52832 16 6.53694 16 6.54556 16C6.55418 16 6.56281 16 6.57144 16C6.58007 16 6.58871 16 6.59736 16C6.60601 16 6.61466 16 6.62332 16C6.63198 16 6.64064 16 6.64931 16C6.65799 16 6.66666 16 6.67535 16C6.68403 16 6.69273 16 6.70142 16C6.71012 16 6.71882 16 6.72753 16C6.73624 16 6.74496 16 6.75368 16C6.7624 16 6.77113 16 6.77987 16C6.7886 16 6.79734 16 6.80609 16C6.81484 16 6.82359 16 6.83235 16C6.84111 16 6.84988 16 6.85865 16C6.86742 16 6.8762 16 6.88498 16C6.89376 16 6.90255 16 6.91135 16C6.92014 16 6.92894 16 6.93775 16C6.94656 16 6.95537 16 6.96419 16C6.97301 16 6.98183 16 6.99066 16C6.9995 16 7.00833 16 7.01717 16C7.02602 16 7.03486 16 7.04372 16C7.05257 16 7.06143 16 7.0703 16C7.07916 16 7.08803 16 7.09691 16C7.10578 16 7.11467 16 7.12355 16C7.13244 16 7.14133 16 7.15023 16C7.15913 16 7.16804 16 7.17695 16C7.18585 16 7.19477 16 7.20369 16C7.21261 16 7.22154 16 7.23047 16C7.2394 16 7.24834 16 7.25728 16C7.26622 16 7.27517 16 7.28412 16C7.29308 16 7.30203 16 7.311 16C7.31996 16 7.32893 16 7.3379 16C7.34688 16 7.35586 16 7.36484 16C7.37383 16 7.38281 16 7.39181 16C7.4008 16 7.4098 16 7.41881 16C7.42781 16 7.43682 16 7.44584 16C7.45485 16 7.46387 16 7.4729 16C7.48192 16 7.49095 16 7.49999 16C7.50902 16 7.51806 16 7.52711 16C7.53615 16 7.5452 16 7.55426 16C7.56331 16 7.57237 16 7.58144 16C7.5905 16 7.59957 16 7.60865 16C7.61772 16 7.6268 16 7.63588 16C7.64497 16 7.65405 16 7.66315 16C7.67224 16 7.68134 16 7.69044 16C7.69954 16 7.70865 16 7.71776 16C7.72687 16 7.73599 16 7.74511 16C7.75423 16 7.76336 16 7.77248 16C7.78161 16 7.79075 16 7.79989 16C7.80903 16 7.81817 16 7.82732 16C7.83646 16 7.84562 16 7.85477 16C7.86393 16 7.87309 16 7.88226 16C7.89142 16 7.90059 16 7.90976 16C7.91894 16 7.92812 16 7.9373 16C7.94648 16 7.95567 16 7.96486 16C7.97405 16 7.98324 16 7.99244 16C8.00164 16 8.01084 16 8.02005 16C8.02926 16 8.03847 16 8.04769 16C8.0569 16 8.06612 16 8.07534 16C8.08457 16 8.0938 16 8.10303 16C8.11226 16 8.12149 16 8.13073 16C8.13997 16 8.14922 16 8.15846 16C8.16771 16 8.17696 16 8.18622 16C8.19547 16 8.20473 16 8.21399 16C8.22326 16 8.23252 16 8.24179 16C8.25106 16 8.26034 16 8.26962 16C8.27889 16 8.28817 16 8.29746 16C8.30674 16 8.31603 16 8.32533 16C8.33462 16 8.34391 16 8.35321 16C8.36251 16 8.37182 16 8.38112 16C8.39043 16 8.39974 16 8.40905 16C8.41837 16 8.42768 16 8.437 16C8.44632 16 8.45565 16 8.46497 16C8.4743 16 8.48363 16 8.49297 16C8.5023 16 8.51164 16 8.52098 16C8.53032 16 8.53966 16 8.54901 16C8.55836 16 8.56771 16 8.57706 16C8.58642 16 8.59577 16 8.60513 16C8.61449 16 8.62386 16 8.63322 16C8.64259 16 8.65196 16 8.66133 16C8.6707 16 8.68008 16 8.68946 16C8.69884 16 8.70822 16 8.7176 16C8.72699 16 8.73638 16 8.74577 16C8.75516 16 8.76455 16 8.77395 16C8.78335 16 8.79274 16 8.80215 16C8.81155 16 8.82095 16 8.83036 16C8.83977 16 8.84918 16 8.85859 16C8.86801 16 8.87742 16 8.88684 16C8.89626 16 8.90568 16 8.91511 16C8.92453 16 8.93396 16 8.94339 16C8.95282 16 8.96225 16 8.97169 16C8.98112 16 8.99056 16 9 16C9.00944 16 9.01888 16 9.02833 16C9.03777 16 9.04722 16 9.05667 16C9.06612 16 9.07557 16 9.08503 16C9.09448 16 9.10394 16 9.1134 16C9.12286 16 9.13232 16 9.14179 16C9.15125 16 9.16072 16 9.17019 16C9.17966 16 9.18913 16 9.1986 16C9.20807 16 9.21755 16 9.22703 16C9.23651 16 9.24599 16 9.25547 16C9.26495 16 9.27443 16 9.28392 16C9.29341 16 9.3029 16 9.31239 16C9.32188 16 9.33137 16 9.34087 16C9.35036 16 9.35986 16 9.36936 16C9.37885 16 9.38835 16 9.39786 16C9.40736 16 9.41686 16 9.42637 16C9.43588 16 9.44539 16 9.4549 16C9.46441 16 9.47392 16 9.48343 16C9.49294 16 9.50246 16 9.51198 16C9.52149 16 9.53101 16 9.54053 16C9.55005 16 9.55958 16 9.5691 16C9.57862 16 9.58815 16 9.59768 16C9.6072 16 9.61673 16 9.62626 16C9.63579 16 9.64533 16 9.65486 16C9.66439 16 9.67393 16 9.68346 16C9.693 16 9.70254 16 9.71208 16C9.72162 16 9.73116 16 9.7407 16C9.75024 16 9.75979 16 9.76933 16C9.77888 16 9.78842 16 9.79797 16C9.80752 16 9.81707 16 9.82662 16C9.83617 16 9.84572 16 9.85527 16C9.86482 16 9.87437 16 9.88393 16C9.89348 16 9.90304 16 9.9126 16C9.92215 16 9.93171 16 9.94127 16C9.95083 16 9.96039 16 9.96995 16C9.97951 16 9.98908 16 9.99864 16C10.0082 16 10.0178 16 10.0273 16C10.0369 16 10.0465 16 10.056 16C10.0656 16 10.0752 16 10.0847 16C10.0943 16 10.1039 16 10.1134 16C10.123 16 10.1326 16 10.1422 16C10.1517 16 10.1613 16 10.1709 16C10.1805 16 10.19 16 10.1996 16C10.2092 16 10.2187 16 10.2283 16C10.2379 16 10.2475 16 10.2571 16C10.2666 16 10.2762 16 10.2858 16C10.2954 16 10.3049 16 10.3145 16C10.3241 16 10.3337 16 10.3433 16C10.3528 16 10.3624 16 10.372 16C10.3816 16 10.3912 16 10.4008 16C10.4103 16 10.4199 16 10.4295 16C10.4391 16 10.4487 16 10.4583 16C10.4678 16 10.4774 16 10.487 16C10.4966 16 10.5062 16 10.5158 16C10.5253 16 10.5349 16 10.5445 16C10.5541 16 10.5637 16 10.5733 16C10.5828 16 10.5924 16 10.602 16C10.6116 16 10.6212 16 10.6308 16C10.6404 16 10.6499 16 10.6595 16C10.6691 16 10.6787 16 10.6883 16C10.6979 16 10.7074 16 10.717 16C10.7266 16 10.7362 16 10.7458 16C10.7554 16 10.7649 16 10.7745 16C10.7841 16 10.7937 16 10.8033 16C10.8129 16 10.8224 16 10.832 16C10.8416 16 10.8512 16 10.8608 16C10.8704 16 10.8799 16 10.8895 16C10.8991 16 10.9087 16 10.9183 16C10.9278 16 10.9374 16 10.947 16C10.9566 16 10.9662 16 10.9757 16C10.9853 16 10.9949 16 11.0045 16C11.014 16 11.0236 16 11.0332 16C11.0428 16 11.0524 16 11.0619 16C11.0715 16 11.0811 16 11.0906 16C11.1002 16 11.1098 16 11.1194 16C11.1289 16 11.1385 16 11.1481 16C11.1576 16 11.1672 16 11.1768 16C11.1864 16 11.1959 16 11.2055 16C11.2151 16 11.2246 16 11.2342 16C11.2438 16 11.2533 16 11.2629 16C11.2724 16 11.282 16 11.2916 16C11.3011 16 11.3107 16 11.3202 16C11.3298 16 11.3394 16 11.3489 16C11.3585 16 11.368 16 11.3776 16C11.3871 16 11.3967 16 11.4062 16C11.4158 16 11.4253 16 11.4349 16C11.4444 16 11.454 16 11.4635 16C11.4731 16 11.4826 16 11.4922 16C11.5017 16 11.5113 16 11.5208 16C11.5303 16 11.5399 16 11.5494 16C11.559 16 11.5685 16 11.578 16C11.5876 16 11.5971 16 11.6066 16C11.6162 16 11.6257 16 11.6352 16C11.6448 16 11.6543 16 11.6638 16C11.6733 16 11.6829 16 11.6924 16C11.7019 16 11.7114 16 11.721 16C11.7305 16 11.74 16 11.7495 16C11.759 16 11.7685 16 11.7781 16C11.7876 16 11.7971 16 11.8066 16C11.8161 16 11.8256 16 11.8351 16C11.8446 16 11.8541 16 11.8636 16C11.8731 16 11.8826 16 11.8921 16C11.9016 16 11.9111 16 11.9206 16C11.9301 16 11.9396 16 11.9491 16C11.9586 16 11.9681 16 11.9775 16C11.987 16 11.9965 16 12.006 16C12.0155 16 12.025 16 12.0344 16C12.0439 16 12.0534 16 12.0629 16C12.0723 16 12.0818 16 12.0913 16C12.1007 16 12.1102 16 12.1197 16C12.1291 16 12.1386 16 12.148 16C12.1575 16 12.167 16 12.1764 16C12.1859 16 12.1953 16 12.2048 16C12.2142 16 12.2237 16 12.2331 16C12.2426 16 12.252 16 12.2614 16C12.2709 16 12.2803 16 12.2897 16C12.2992 16 12.3086 16 12.318 16C12.3275 16 12.3369 16 12.3463 16C12.3557 16 12.3652 16 12.3746 16C12.384 16 12.3934 16 12.4028 16C12.4122 16 12.4216 16 12.4311 16C12.4405 16 12.4499 16 12.4593 16C12.4687 16 12.4781 16 12.4875 16C12.4969 16 12.5062 16 12.5156 16C12.525 16 12.5344 16 12.5438 16C12.5532 16 12.5626 16 12.5719 16C12.5813 16 12.5907 16 12.6001 16C12.6094 16 12.6188 16 12.6282 16C12.6375 16 12.6469 16 12.6563 16C12.6656 16 12.675 16 12.6843 16C12.6937 16 12.703 16 12.7124 16C12.7217 16 12.7311 16 12.7404 16C12.7497 16 12.7591 16 12.7684 16C12.7777 16 12.7871 16 12.7964 16C12.8057 16 12.815 16 12.8244 16C12.8337 16 12.843 16 12.8523 16C12.8616 16 12.8709 16 12.8802 16C12.8895 16 12.8988 16 12.9081 16C12.9174 16 12.9267 16 12.936 16C12.9453 16 12.9546 16 12.9639 16C12.9732 16 12.9824 16 12.9917 16C13.001 16 13.0103 16 13.0195 16C13.0288 16 13.0381 16 13.0473 16C13.0566 16 13.0658 16 13.0751 16C13.0843 16 13.0936 16 13.1028 16C13.1121 16 13.1213 16 13.1306 16C13.1398 16 13.149 16 13.1583 16C13.1675 16 13.1767 16 13.1859 16C13.1952 16 13.2044 16 13.2136 16C13.2228 16 13.232 16 13.2412 16C13.2504 16 13.2596 16 13.2688 16C13.278 16 13.2872 16 13.2964 16C13.3056 16 13.3148 16 13.324 16C13.3331 16 13.3423 16 13.3515 16C13.3607 16 13.3698 16 13.379 16C13.3882 16 13.3973 16 13.4065 16C13.4156 16 13.4248 16 13.4339 16C13.4431 16 13.4522 16 13.4613 16C13.4705 16 13.4796 16 13.4887 16C13.4979 16 13.507 16 13.5161 16C13.5252 16 13.5343 16 13.5435 16C13.5526 16 13.5617 16 13.5708 16C13.5799 16 13.589 16 13.5981 16C13.6071 16 13.6162 16 13.6253 16C13.6344 16 13.6435 16 13.6525 16C13.6616 16 13.6707 16 13.6797 16C13.6888 16 13.6979 16 13.7069 16C13.716 16 13.725 16 13.7341 16C13.7431 16 13.7521 16 13.7612 16C13.7702 16 13.7792 16 13.7883 16C13.7973 16 13.8063 16 13.8153 16C13.8243 16 13.8333 16 13.8423 16C13.8513 16 13.8603 16 13.8693 16C13.8783 16 13.8873 16 13.8963 16C13.9053 16 13.9143 16 13.9232 16C13.9322 16 13.9412 16 13.9501 16C13.9591 16 13.968 16 13.977 16C13.9859 16 13.9949 16 14.0038 16C14.0128 16 14.0217 16 14.0306 16C14.0396 16 14.0485 16 14.0574 16C14.0663 16 14.0752 16 14.0841 16C14.093 16 14.1019 16 14.1108 16C14.1197 16 14.1286 16 14.1375 16C14.1464 16 14.1553 16 14.1642 16C14.173 16 14.1819 16 14.1908 16C14.1996 16 14.2085 16 14.2173 16C14.2262 16 14.235 16 14.2439 16C14.2527 16 14.2615 16 14.2704 16C14.2792 16 14.288 16 14.2968 16C14.3056 16 14.3145 16 14.3233 16C14.3321 16 14.3409 16 14.3497 16C14.3585 16 14.3672 16 14.376 16C14.3848 16 14.3936 16 14.4023 16C14.4111 16 14.4199 16 14.4286 16C14.4374 16 14.4461 16 14.4549 16C14.4636 16 14.4724 16 14.4811 16C14.4898 16 14.4986 16 14.5073 16C14.516 16 14.5247 16 14.5334 16C14.5421 16 14.5508 16 14.5595 16C14.5682 16 14.5769 16 14.5856 16C14.5943 16 14.6029 16 14.6116 16C14.6203 16 14.6289 16 14.6376 16C14.6463 16 14.6549 16 14.6635 16C14.6722 16 14.6808 16 14.6895 16C14.6981 16 14.7067 16 14.7153 16C14.7239 16 14.7326 16 14.7412 16C14.7498 16 14.7584 16 14.767 16C14.7755 16 14.7841 16 14.7927 16C14.8013 16 14.8099 16 14.8184 16C14.827 16 14.8355 16 14.8441 16C14.8526 16 14.8612 16 14.8697 16C14.8783 16 14.8868 16 14.8953 16C14.9038 16 14.9124 16 14.9209 16C14.9294 16 14.9379 16 14.9464 16C14.9549 16 14.9634 16 14.9718 16C14.9803 16 14.9888 16 14.9973 16C15.0057 16 15.0142 16 15.0226 16C15.0311 16 15.0395 16 15.048 16C15.0564 16 15.0648 16 15.0733 16C15.0817 16 15.0901 16 15.0985 16C15.1069 16 15.1153 16 15.1237 16C15.1321 16 15.1405 16 15.1489 16C15.1573 16 15.1656 16 15.174 16C15.1824 16 15.1907 16 15.1991 16C15.2074 16 15.2158 16 15.2241 16C15.2325 16 15.2408 16 15.2491 16C15.2574 16 15.2657 16 15.274 16C15.2824 16 15.2907 16 15.2989 16C15.3072 16 15.3155 16 15.3238 16C15.3321 16 15.3403 16 15.3486 16C15.3569 16 15.3651 16 15.3734 16C15.3816 16 15.3898 16 15.3981 16C15.4063 16 15.4145 16 15.4227 16C15.431 16 15.4392 16 15.4474 16C15.4556 16 15.4637 16 15.4719 16C15.4801 16 15.4883 16 15.4965 16C15.5046 16 15.5128 16 15.5209 16C15.5291 16 15.5372 16 15.5454 16C15.5535 16 15.5616 16 15.5697 16C15.5779 16 15.586 16 15.5941 16C15.6022 16 15.6103 16 15.6183 16C15.6264 16 15.6345 16 15.6426 16C15.6506 16 15.6587 16 15.6668 16C15.6748 16 15.6829 16 15.6909 16C15.6989 16 15.707 16 15.715 16C15.723 16 15.731 16 15.739 16C15.747 16 15.755 16 15.763 16C15.771 16 15.779 16 15.7869 16C15.7949 16 15.8029 16 15.8108 16C15.8188 16 15.8267 16 15.8346 16C15.8426 16 15.8505 16 15.8584 16C15.8663 16 15.8743 16 15.8822 16C15.8901 16 15.8979 16 15.9058 16C15.9137 16 15.9216 16 15.9294 16C15.9373 16 15.9452 16 15.953 16C15.9609 16 15.9687 16 15.9765 16C15.9844 16 15.9922 16 16 16V14ZM4 15V14H2V15H4ZM12 15H16V13H12V15ZM13 14V9H11V14H13ZM3 15H6V13H3V15ZM6 15H12V13H6V15ZM7 14V9H5V14H7ZM2 10H16V8H2V10Z" fill="#555770"/>
</svg>
