<svg width="24" height="24" viewBox="0 0 24 24" fill="none" xmlns="http://www.w3.org/2000/svg">
<path d="M12.6458 3L12.6458 2H12.6458V3ZM7.35418 3L7.35418 2L7.35418 2L7.35418 3ZM16.5 13.3969L15.5718 13.769L15.5718 13.769L16.5 13.3969ZM16 16C16 19.3137 13.3137 22 10 22V24C14.4183 24 18 20.4183 18 16H16ZM10 22C6.68629 22 4 19.3137 4 16H2C2 20.4183 5.58172 24 10 24V22ZM7.40073 7.49927C7.14607 7.05903 7 6.54809 7 6H5C5 6.90906 5.24351 7.76427 5.66952 8.50073L7.40073 7.49927ZM6.53513 7H5.6V9H6.53513V7ZM4.5 8.1V9.9H6.5V8.1H4.5ZM4 16C4 13.8186 5.16348 11.908 6.90852 10.8565L5.87631 9.14347C3.55568 10.5418 2 13.0887 2 16H4ZM5.6 11H6.39241V9H5.6V11ZM13 6C13 6.54809 12.8539 7.05903 12.5993 7.49927L14.3305 8.50073C14.7565 7.76427 15 6.90906 15 6H13ZM6.53513 9H13.4649V7H6.53513V9ZM13.4649 9H14.4V7H13.4649V9ZM13.5 8.1V9.9H15.5V8.1H13.5ZM14.4 9H13.6076V11H14.4V9ZM11 9H6.39241V11H11V9ZM10 10V15.9H12V10H10ZM11.1 17H11.9V15H11.1V17ZM13.6076 9H12V11H13.6076V9ZM12 9H11V11H12V9ZM13 15.9V10H11V15.9H13ZM8.5 3V1.1H6.5V3H8.5ZM7.6 2H12.4V0H7.6V2ZM7.5 4H12.5V2H7.5V4ZM11.5 1.1V3H13.5V1.1H11.5ZM12.5 4H12.6458V2H12.5V4ZM12.6458 4L15 4L15 2L12.6458 2L12.6458 4ZM11.9841 3.74974C12.6086 4.30091 13 5.10412 13 6H15C15 4.50649 14.3439 3.16498 13.3076 2.25026L11.9841 3.74974ZM5 4L7.35418 4L7.35418 2L5 2L5 4ZM7.35418 4H7.5V2H7.35418V4ZM7 6C7 5.10412 7.39144 4.30091 8.01591 3.74974L6.69244 2.25026C5.65607 3.16498 5 4.50649 5 6H7ZM13.0915 10.8565C14.2054 11.5277 15.0834 12.5505 15.5718 13.769L17.4282 13.0249C16.7761 11.3981 15.6066 10.037 14.1237 9.14347L13.0915 10.8565ZM15.5718 13.769C15.8477 14.4573 16 15.2097 16 16H18C18 14.9505 17.7974 13.9459 17.4282 13.0249L15.5718 13.769ZM17.1989 14.1122L21.6989 9.71525L20.3011 8.28475L15.8011 12.6817L17.1989 14.1122ZM22 9V5H20V9H22ZM21 10H23.5V8H21V10ZM12.4 2C11.9029 2 11.5 1.59706 11.5 1.1H13.5C13.5 0.492488 13.0075 0 12.4 0V2ZM8.5 1.1C8.5 1.59706 8.09706 2 7.6 2V0C6.99249 0 6.5 0.492487 6.5 1.1H8.5ZM11.9 17C12.5075 17 13 16.5075 13 15.9H11C11 15.4029 11.4029 15 11.9 15V17ZM10 15.9C10 16.5075 10.4925 17 11.1 17V15C11.5971 15 12 15.4029 12 15.9H10ZM13.5 9.9C13.5 9.40294 13.9029 9 14.4 9V11C15.0075 11 15.5 10.5075 15.5 9.9H13.5ZM4.5 9.9C4.5 10.5075 4.99249 11 5.6 11V9C6.09706 9 6.5 9.40294 6.5 9.9H4.5ZM14.4 9C13.9029 9 13.5 8.59706 13.5 8.1H15.5C15.5 7.49249 15.0075 7 14.4 7V9ZM5.6 7C4.99249 7 4.5 7.49249 4.5 8.1H6.5C6.5 8.59706 6.09706 9 5.6 9V7Z" fill="#555770"/>
</svg>
