<svg width="24" height="24" viewBox="0 0 24 24" fill="none" xmlns="http://www.w3.org/2000/svg">
<mask id="path-1-inside-1_402_13005" fill="white">
<path d="M20 20H4C2.89543 20 2 19.1046 2 18V7V6C2 4.89543 2.89543 4 4 4H9L11 6H13.323H18.323H21C21.5523 6 22 6.44772 22 7V18C22 19.1046 21.1046 20 20 20Z"/>
</mask>
<path d="M13.323 14H12.723C12.723 14.2162 12.8393 14.4156 13.0274 14.5221C13.2155 14.6286 13.4463 14.6257 13.6317 14.5145L13.323 14ZM15.823 12.5L16.1317 11.9855L15.823 11.8003L15.5143 11.9855L15.823 12.5ZM18.323 14L18.0143 14.5145C18.1997 14.6257 18.4305 14.6286 18.6186 14.5221C18.8067 14.4156 18.923 14.2162 18.923 14H18.323ZM12.723 6V14H13.923V6H12.723ZM13.6317 14.5145L16.1317 13.0145L15.5143 11.9855L13.0143 13.4855L13.6317 14.5145ZM15.5143 13.0145L18.0143 14.5145L18.6317 13.4855L16.1317 11.9855L15.5143 13.0145ZM18.923 14V6H17.723V14H18.923ZM9 4L9.84853 3.15147L9.49706 2.8H9V4ZM11 6L10.1515 6.84853L10.5029 7.2H11V6ZM4 21.2H20V18.8H4V21.2ZM9 2.8H4V5.2H9V2.8ZM0.8 6V7H3.2V6H0.8ZM23.2 18V7H20.8V18H23.2ZM0.8 7V18H3.2V7H0.8ZM21 4.8H18.323V7.2H21V4.8ZM18.323 4.8H13.323V7.2H18.323V4.8ZM13.323 4.8H11V7.2H13.323V4.8ZM11.8485 5.15147L9.84853 3.15147L8.15147 4.84853L10.1515 6.84853L11.8485 5.15147ZM23.2 7C23.2 5.78497 22.215 4.8 21 4.8V7.2C20.8895 7.2 20.8 7.11046 20.8 7H23.2ZM20 21.2C21.7673 21.2 23.2 19.7673 23.2 18H20.8C20.8 18.4418 20.4418 18.8 20 18.8V21.2ZM4 18.8C3.55817 18.8 3.2 18.4418 3.2 18H0.8C0.8 19.7673 2.23269 21.2 4 21.2V18.8ZM4 2.8C2.23269 2.8 0.8 4.23269 0.8 6H3.2C3.2 5.55817 3.55817 5.2 4 5.2V2.8Z" fill="#28293D" mask="url(#path-1-inside-1_402_13005)"/>
</svg>
