<svg width="24" height="24" viewBox="0 0 24 24" fill="none" xmlns="http://www.w3.org/2000/svg">
<mask id="path-1-inside-1_402_13010" fill="white">
<path d="M2 18V6C2 4.89543 2.89543 4 4 4H9L11 6H20C21.1046 6 22 6.89543 22 8V18C22 19.1046 21.1046 20 20 20H4C2.89543 20 2 19.1046 2 18Z"/>
</mask>
<path d="M11 6L10.1515 6.84853L10.5029 7.2H11V6ZM9 4L9.84853 3.15147L9.49706 2.8H9V4ZM0.8 6V18H3.2V6H0.8ZM4 21.2H20V18.8H4V21.2ZM23.2 18V8H20.8V18H23.2ZM20 4.8H11V7.2H20V4.8ZM11.8485 5.15147L9.84853 3.15147L8.15147 4.84853L10.1515 6.84853L11.8485 5.15147ZM9 2.8H4V5.2H9V2.8ZM23.2 8C23.2 6.23269 21.7673 4.8 20 4.8V7.2C20.4418 7.2 20.8 7.55817 20.8 8H23.2ZM20 21.2C21.7673 21.2 23.2 19.7673 23.2 18H20.8C20.8 18.4418 20.4418 18.8 20 18.8V21.2ZM0.8 18C0.8 19.7673 2.23269 21.2 4 21.2V18.8C3.55817 18.8 3.2 18.4418 3.2 18H0.8ZM3.2 6C3.2 5.55817 3.55817 5.2 4 5.2V2.8C2.23269 2.8 0.8 4.23269 0.8 6H3.2Z" fill="#28293D" mask="url(#path-1-inside-1_402_13010)"/>
</svg>
