<svg width="24" height="24" viewBox="0 0 24 24" fill="none" xmlns="http://www.w3.org/2000/svg">
<mask id="mask0_402_12969" style="mask-type:alpha" maskUnits="userSpaceOnUse" x="0" y="0" width="24" height="24">
<path d="M8 16V24H0V0H24V24H16V16H8Z" fill="white"/>
</mask>
<g mask="url(#mask0_402_12969)">
<path d="M8.5 18.4C4.68924 18.4 1.6 15.3108 1.6 11.5C1.6 7.68924 4.68924 4.6 8.5 4.6C11.2739 4.6 13.6668 6.23689 14.763 8.60005C14.9209 8.94053 15.3178 9.09546 15.6637 8.95554L15.4387 8.39932L15.6637 8.95554C16.23 8.72644 16.8495 8.6 17.5 8.6C20.2062 8.6 22.4 10.7938 22.4 13.5C22.4 16.2062 20.2062 18.4 17.5 18.4H13H8.5Z" stroke="#28293D" stroke-width="1.2"/>
</g>
<path d="M12 15L12 23" stroke="#28293D" stroke-width="1.2"/>
<mask id="path-4-inside-1_402_12969" fill="white">
<path d="M9 15L12 12L15 15L9 15Z"/>
</mask>
<path d="M12 12L12.9192 11.0808L12 10.1615L11.0808 11.0808L12 12ZM9 15L8.08076 14.0808L5.86152 16.3L9 16.3L9 15ZM15 15L15 16.3L18.1385 16.3L15.9192 14.0808L15 15ZM11.0808 11.0808L8.08076 14.0808L9.91924 15.9192L12.9192 12.9192L11.0808 11.0808ZM9 16.3L15 16.3L15 13.7L9 13.7L9 16.3ZM15.9192 14.0808L12.9192 11.0808L11.0808 12.9192L14.0808 15.9192L15.9192 14.0808Z" fill="#28293D" mask="url(#path-4-inside-1_402_12969)"/>
</svg>
