<svg width="24" height="24" viewBox="0 0 24 24" fill="none" xmlns="http://www.w3.org/2000/svg">
<path d="M21.4 12C21.4 17.1915 17.1915 21.4 12 21.4V22.6C17.8542 22.6 22.6 17.8542 22.6 12H21.4ZM12 21.4C6.80852 21.4 2.6 17.1915 2.6 12H1.4C1.4 17.8542 6.14578 22.6 12 22.6V21.4ZM2.6 12C2.6 6.80852 6.80852 2.6 12 2.6V1.4C6.14578 1.4 1.4 6.14578 1.4 12H2.6ZM12 2.6C17.1915 2.6 21.4 6.80852 21.4 12H22.6C22.6 6.14578 17.8542 1.4 12 1.4V2.6Z" fill="#28293D"/>
<path d="M7.4 8.5C7.4 8.99706 6.99706 9.4 6.5 9.4C6.00294 9.4 5.6 8.99706 5.6 8.5C5.6 8.00294 6.00294 7.6 6.5 7.6C6.99706 7.6 7.4 8.00294 7.4 8.5ZM11.4 5.5C11.4 5.99706 10.9971 6.4 10.5 6.4C10.0029 6.4 9.6 5.99706 9.6 5.5C9.6 5.00294 10.0029 4.6 10.5 4.6C10.9971 4.6 11.4 5.00294 11.4 5.5ZM11.4 9.5C11.4 9.99706 10.9971 10.4 10.5 10.4C10.0029 10.4 9.6 9.99706 9.6 9.5C9.6 9.00294 10.0029 8.6 10.5 8.6C10.9971 8.6 11.4 9.00294 11.4 9.5Z" stroke="#28293D" stroke-width="1.2"/>
</svg>
