<svg width="24" height="24" viewBox="0 0 24 24" fill="none" xmlns="http://www.w3.org/2000/svg">
<path d="M4.09858 8.6664L3.50463 8.58138L4.09858 8.6664ZM3.01702 16.2226L3.61097 16.3076L3.01702 16.2226ZM5.60375 17.5912L6.00693 18.0356H6.00693L5.60375 17.5912ZM8.11047 15.3168V14.7168H7.87884L7.70729 14.8724L8.11047 15.3168ZM19.9014 8.6664L20.4954 8.58138V8.58138L19.9014 8.6664ZM20.983 16.2226L20.389 16.3076L20.983 16.2226ZM18.3962 17.5912L17.9931 18.0356L18.3962 17.5912ZM15.8895 15.3168L16.2927 14.8724L16.1212 14.7168H15.8895V15.3168ZM3.50463 8.58138L2.42308 16.1376L3.61097 16.3076L4.69253 8.75141L3.50463 8.58138ZM6.00693 18.0356L8.51364 15.7611L7.70729 14.8724L5.20058 17.1468L6.00693 18.0356ZM8.11047 15.9168H12.2593V14.7168H8.11047V15.9168ZM2.42308 16.1376C2.13677 18.1379 4.51434 19.3898 6.00693 18.0356L5.20058 17.1468C4.53553 17.7503 3.48489 17.1885 3.61097 16.3076L2.42308 16.1376ZM7.17894 5.4C5.33278 5.4 3.76605 6.75504 3.50463 8.58138L4.69253 8.75141C4.8691 7.51783 5.92809 6.6 7.17894 6.6V5.4ZM19.3075 8.75141L20.389 16.3076L21.5769 16.1376L20.4954 8.58138L19.3075 8.75141ZM18.7994 17.1468L16.2927 14.8724L15.4864 15.7611L17.9931 18.0356L18.7994 17.1468ZM15.8895 14.7168H11.7407V15.9168H15.8895V14.7168ZM20.389 16.3076C20.5151 17.1885 19.4645 17.7503 18.7994 17.1468L17.9931 18.0356C19.4857 19.3898 21.8632 18.1379 21.5769 16.1376L20.389 16.3076ZM16.8211 6.6C18.0719 6.6 19.1309 7.51783 19.3075 8.75141L20.4954 8.58138C20.234 6.75504 18.6672 5.4 16.8211 5.4V6.6ZM7.17894 6.6H16.8211V5.4H7.17894V6.6Z" fill="#28293D"/>
<path d="M17 11.5C17.2761 11.5 17.5 11.7239 17.5 12C17.5 12.2761 17.2761 12.5 17 12.5C16.7239 12.5 16.5 12.2761 16.5 12C16.5 11.7239 16.7239 11.5 17 11.5Z" fill="#28293D"/>
<path d="M15.5 8.5C15.7761 8.5 16 8.72386 16 9C16 9.27614 15.7761 9.5 15.5 9.5C15.2239 9.5 15 9.27614 15 9C15 8.72386 15.2239 8.5 15.5 8.5Z" fill="#28293D"/>
<path d="M9.6 13V10.5H8.4V13H9.6ZM9.6 10.5V8H8.4V10.5H9.6ZM6.5 11.1H9V9.9H6.5V11.1ZM9 11.1H11.5V9.9H9V11.1ZM18.1 12C18.1 11.3925 17.6075 10.9 17 10.9V12.1C16.9448 12.1 16.9 12.0552 16.9 12H18.1ZM17 13.1C17.6075 13.1 18.1 12.6075 18.1 12H16.9C16.9 11.9448 16.9448 11.9 17 11.9V13.1ZM15.9 12C15.9 12.6075 16.3925 13.1 17 13.1V11.9C17.0552 11.9 17.1 11.9448 17.1 12H15.9ZM17.1 12C17.1 12.0552 17.0552 12.1 17 12.1V10.9C16.3925 10.9 15.9 11.3925 15.9 12H17.1ZM16.6 9C16.6 8.39249 16.1075 7.9 15.5 7.9V9.1C15.4448 9.1 15.4 9.05523 15.4 9H16.6ZM15.5 10.1C16.1075 10.1 16.6 9.60751 16.6 9H15.4C15.4 8.94477 15.4448 8.9 15.5 8.9V10.1ZM14.4 9C14.4 9.60751 14.8925 10.1 15.5 10.1V8.9C15.5552 8.9 15.6 8.94477 15.6 9H14.4ZM15.6 9C15.6 9.05523 15.5552 9.1 15.5 9.1V7.9C14.8925 7.9 14.4 8.39249 14.4 9H15.6Z" fill="#28293D"/>
</svg>
