<svg width="24" height="24" viewBox="0 0 24 24" fill="none" xmlns="http://www.w3.org/2000/svg">
<g clip-path="url(#clip0_402_12622)">
<path d="M12.2009 9.65184C11.9059 9.48151 11.6308 9.2899 11.3765 9.08008L8.08502 14.781L9.81707 15.781L11.5491 16.781L14.7879 11.1713C14.6527 11.0761 14.512 10.9862 14.3661 10.9019L13.067 10.1519L12.2009 9.65184Z" fill="#28293D"/>
<path d="M11.3765 9.08008L11.7583 8.61725L11.3765 9.08008ZM14.7879 11.1713L15.1333 10.6807L15.1333 10.6807L14.7879 11.1713ZM9.48515 1.15569C7.84968 3.9884 8.55275 7.52835 10.9946 9.5429L11.7583 8.61725C9.76104 6.96952 9.18681 4.07243 10.5244 1.75569L9.48515 1.15569ZM10.9946 9.5429C11.2745 9.7738 11.577 9.98442 11.9009 10.1715L12.5009 9.13223C12.2348 8.97859 11.9871 8.806 11.7583 8.61725L10.9946 9.5429ZM14.0661 11.4215C14.1965 11.4968 14.3219 11.5771 14.4425 11.6619L15.1333 10.6807C14.9834 10.5752 14.8276 10.4756 14.6661 10.3823L14.0661 11.4215ZM14.4425 11.6619C16.4923 13.1052 17.1375 15.9017 15.8596 18.115L16.8988 18.715C18.49 15.9591 17.6863 12.4783 15.1333 10.6807L14.4425 11.6619ZM6.35463 18.9781L8.60463 15.081L7.5654 14.481L5.3154 18.3781L6.35463 18.9781ZM8.60463 15.081L11.8961 9.38008L10.8568 8.78008L7.5654 14.481L8.60463 15.081ZM8.31873 23.5762L12.0687 17.081L11.0295 16.481L7.2795 22.9762L8.31873 23.5762ZM12.0687 17.081L15.3075 11.4713L14.2683 10.8713L11.0295 16.481L12.0687 17.081ZM7.78502 15.3006L9.51707 16.3006L10.1171 15.2614L8.38502 14.2614L7.78502 15.3006ZM9.51707 16.3006L11.2491 17.3006L11.8491 16.2614L10.1171 15.2614L9.51707 16.3006ZM11.9009 10.1715L12.767 10.6715L13.367 9.63229L12.5009 9.13223L11.9009 10.1715ZM12.767 10.6715L14.0661 11.4215L14.6661 10.3823L13.367 9.63229L12.767 10.6715Z" fill="#28293D"/>
<circle cx="15.5001" cy="6.93774" r="1.4" transform="rotate(30 15.5001 6.93774)" fill="#28293D" stroke="#28293D" stroke-width="1.2"/>
<circle cx="12.853" cy="2.52267" r="0.9" transform="rotate(30 12.853 2.52267)" fill="#28293D" stroke="#28293D" stroke-width="1.2"/>
</g>
<defs>
<clipPath id="clip0_402_12622">
<rect width="24" height="24" fill="white"/>
</clipPath>
</defs>
</svg>
