<svg width="24" height="24" viewBox="0 0 24 24" fill="none" xmlns="http://www.w3.org/2000/svg">
<path d="M4.4 5C4.4 5.22091 4.22091 5.4 4 5.4V6.6C4.88366 6.6 5.6 5.88366 5.6 5H4.4ZM4 5.4C3.77909 5.4 3.6 5.22091 3.6 5H2.4C2.4 5.88366 3.11634 6.6 4 6.6V5.4ZM3.6 5C3.6 4.77909 3.77909 4.6 4 4.6V3.4C3.11634 3.4 2.4 4.11634 2.4 5H3.6ZM4 4.6C4.22091 4.6 4.4 4.77909 4.4 5H5.6C5.6 4.11634 4.88366 3.4 4 3.4V4.6ZM4 4.6C4.33655 4.6 4.94693 4.78446 5.47362 5.25848C5.97808 5.71249 6.4 6.42786 6.4 7.5H7.6C7.6 6.07214 7.02192 5.03751 6.27638 4.36652C5.55307 3.71554 4.66345 3.4 4 3.4V4.6ZM6.4 7.5C6.4 8.55232 6.00767 9.06305 5.48618 9.92794C4.94519 10.8252 4.4 11.9314 4.4 14H5.6C5.6 12.2026 6.05481 11.3088 6.51382 10.5476C6.99233 9.75397 7.6 8.94769 7.6 7.5H6.4ZM18.4 5C18.4 5.88366 19.1163 6.6 20 6.6V5.4C19.7791 5.4 19.6 5.22091 19.6 5H18.4ZM20 6.6C20.8837 6.6 21.6 5.88366 21.6 5H20.4C20.4 5.22091 20.2209 5.4 20 5.4V6.6ZM21.6 5C21.6 4.11634 20.8837 3.4 20 3.4V4.6C20.2209 4.6 20.4 4.77909 20.4 5H21.6ZM20 3.4C19.1163 3.4 18.4 4.11634 18.4 5H19.6C19.6 4.77909 19.7791 4.6 20 4.6V3.4ZM20 3.4C19.3366 3.4 18.4469 3.71554 17.7236 4.36652C16.9781 5.03751 16.4 6.07214 16.4 7.5H17.6C17.6 6.42786 18.0219 5.71249 18.5264 5.25848C19.0531 4.78446 19.6634 4.6 20 4.6V3.4ZM16.4 7.5C16.4 8.94769 17.0077 9.75397 17.4862 10.5476C17.9452 11.3088 18.4 12.2026 18.4 14H19.6C19.6 11.9314 19.0548 10.8252 18.5138 9.92794C17.9923 9.06305 17.6 8.55232 17.6 7.5H16.4ZM7 8.1H17V6.9H7V8.1ZM12 20.4C11.3636 20.4 10.7499 20.3073 10.1711 20.1351L9.82885 21.2852C10.5175 21.4902 11.2465 21.6 12 21.6V20.4ZM10.1711 20.1351C7.52708 19.3481 5.6 16.8983 5.6 14H4.4C4.4 17.4437 6.68994 20.351 9.82885 21.2852L10.1711 20.1351ZM9.4 4V20.7101H10.6V4H9.4ZM12 21.6C12.7535 21.6 13.4825 21.4902 14.1712 21.2852L13.8288 20.1351C13.2501 20.3073 12.6364 20.4 12 20.4V21.6ZM14.1712 21.2852C17.3101 20.351 19.6 17.4437 19.6 14H18.4C18.4 16.8983 16.4729 19.3481 13.8288 20.1351L14.1712 21.2852ZM13.4 4V20.7101H14.6V4H13.4Z" fill="#28293D"/>
</svg>
