<svg width="24" height="24" viewBox="0 0 24 24" fill="none" xmlns="http://www.w3.org/2000/svg">
<mask id="mask0_402_12626" style="mask-type:alpha" maskUnits="userSpaceOnUse" x="1" y="3" width="22" height="18">
<path d="M11.884 18.5H13.1006L6.43523 4.14382L6 3H23V21H1V14H9.79468L11.884 18.5Z" fill="white"/>
</mask>
<g mask="url(#mask0_402_12626)">
<path d="M16.5 5V4.4H17.4401L17.0442 5.25267L16.5 5ZM15.5 5L14.9546 4.75001L15.115 4.4H15.5V5ZM10 17L10.5454 17.25L10.385 17.6H10V17ZM6.10796 17H5.50796V16.4H6.10796V17ZM6.10796 19V19.6H5.50796V19H6.10796ZM3.5 17V16.4H4.1V17H3.5ZM3.5 19H4.1V19.6H3.5V19ZM3 19V19.6H2.4V19H3ZM10.0269 18.9421L9.48267 18.6894L10.0269 18.9421ZM16.5 5.6H15.5V4.4H16.5V5.6ZM16.0454 5.24999L10.5454 17.25L9.45456 16.75L14.9546 4.75001L16.0454 5.24999ZM10 17.6H6.10796V16.4H10V17.6ZM6.70796 17V19H5.50796V17H6.70796ZM6.10796 18.4H9.93618V19.6H6.10796V18.4ZM9.48267 18.6894L15.9558 4.74733L17.0442 5.25267L10.5711 19.1948L9.48267 18.6894ZM4.1 17V19H2.9V17H4.1ZM3.5 19.6H3V18.4H3.5V19.6ZM2.4 19V17.1H3.6V19H2.4ZM3.1 16.4H3.5V17.6H3.1V16.4ZM2.4 17.1C2.4 16.7134 2.7134 16.4 3.1 16.4V17.6C3.37614 17.6 3.6 17.3761 3.6 17.1H2.4ZM9.93618 18.4C9.74156 18.4 9.56463 18.5129 9.48267 18.6894L10.5711 19.1948C10.4563 19.4419 10.2086 19.6 9.93618 19.6V18.4Z" fill="#28293D"/>
</g>
<path d="M7.5 5V4.4H6.55991L6.95579 5.25267L7.5 5ZM8.5 5L9.04544 4.75001L8.88502 4.4H8.5V5ZM14 17L13.4546 17.25L13.615 17.6H14V17ZM17.9339 17H18.5339V16.4H17.9339V17ZM17.9339 19V19.6H18.5339V19H17.9339ZM20.5 17V16.4H19.9V17H20.5ZM20.5 19H19.9V19.6H20.5V19ZM21 19V19.6H21.6V19H21ZM13.9731 18.9421L14.5173 18.6894L13.9731 18.9421ZM7.5 5.6H8.5V4.4H7.5V5.6ZM7.95456 5.24999L13.4546 17.25L14.5454 16.75L9.04544 4.75001L7.95456 5.24999ZM14 17.6H17.9339V16.4H14V17.6ZM17.3339 17V19H18.5339V17H17.3339ZM17.9339 18.4H14.0638V19.6H17.9339V18.4ZM14.5173 18.6894L8.04421 4.74733L6.95579 5.25267L13.4289 19.1948L14.5173 18.6894ZM19.9 17V19H21.1V17H19.9ZM20.5 19.6H21V18.4H20.5V19.6ZM21.6 19V17.1H20.4V19H21.6ZM20.9 16.4H20.5V17.6H20.9V16.4ZM21.6 17.1C21.6 16.7134 21.2866 16.4 20.9 16.4V17.6C20.6239 17.6 20.4 17.3761 20.4 17.1H21.6ZM14.0638 18.4C14.2584 18.4 14.4354 18.5129 14.5173 18.6894L13.4289 19.1948C13.5437 19.4419 13.7914 19.6 14.0638 19.6V18.4Z" fill="#28293D"/>
</svg>
