<svg width="24" height="24" viewBox="0 0 24 24" fill="none" xmlns="http://www.w3.org/2000/svg">
<path d="M12 10L10.2426 11.7574H7.75736V14.2426L6 16L7.75736 17.7574V20.2426H10.2426L12 22L13.7574 20.2426H16.2426V17.7574L18 16L16.2426 14.2426V11.7574H13.7574L12 10Z" stroke="#28293D" stroke-width="1.2"/>
<path d="M3 3V2.4H1.95095L2.48284 3.30421L3 3ZM8 3L8.52095 2.70232L8.34819 2.4H8V3ZM12 10L11.4791 10.2977C11.5859 10.4846 11.7847 10.6 12 10.6C12.2153 10.6 12.4141 10.4846 12.5209 10.2977L12 10ZM21 3L21.5172 3.30421L22.049 2.4H21V3ZM16 3V2.4H15.6518L15.4791 2.70232L16 3ZM8.51716 11.1958L3.51716 2.69579L2.48284 3.30421L7.48284 11.8042L8.51716 11.1958ZM3 3.6H8V2.4H3V3.6ZM7.47905 3.29768L11.4791 10.2977L12.5209 9.70232L8.52095 2.70232L7.47905 3.29768ZM16.5172 11.8042L21.5172 3.30421L20.4828 2.69579L15.4828 11.1958L16.5172 11.8042ZM21 2.4H16V3.6H21V2.4ZM15.4791 2.70232L11.4791 9.70232L12.5209 10.2977L16.5209 3.29768L15.4791 2.70232Z" fill="#28293D"/>
</svg>
