<svg width="24" height="24" viewBox="0 0 24 24" fill="none" xmlns="http://www.w3.org/2000/svg">
<path d="M21.4 12C21.4 17.1915 17.1915 21.4 12 21.4V22.6C17.8542 22.6 22.6 17.8542 22.6 12H21.4ZM12 21.4C6.80852 21.4 2.6 17.1915 2.6 12H1.4C1.4 17.8542 6.14578 22.6 12 22.6V21.4ZM2.6 12C2.6 6.80852 6.80852 2.6 12 2.6V1.4C6.14578 1.4 1.4 6.14578 1.4 12H2.6ZM12 2.6C17.1915 2.6 21.4 6.80852 21.4 12H22.6C22.6 6.14578 17.8542 1.4 12 1.4V2.6ZM9.4 14.5C9.4 15.2732 8.7732 15.9 8 15.9V17.1C9.43594 17.1 10.6 15.9359 10.6 14.5H9.4ZM8 15.9C7.2268 15.9 6.6 15.2732 6.6 14.5H5.4C5.4 15.9359 6.56406 17.1 8 17.1V15.9ZM6.6 14.5C6.6 13.7268 7.2268 13.1 8 13.1V11.9C6.56406 11.9 5.4 13.0641 5.4 14.5H6.6ZM8 13.1C8.7732 13.1 9.4 13.7268 9.4 14.5H10.6C10.6 13.0641 9.43594 11.9 8 11.9V13.1ZM17.4 14.5C17.4 15.2732 16.7732 15.9 16 15.9V17.1C17.4359 17.1 18.6 15.9359 18.6 14.5H17.4ZM16 15.9C15.2268 15.9 14.6 15.2732 14.6 14.5H13.4C13.4 15.9359 14.5641 17.1 16 17.1V15.9ZM14.6 14.5C14.6 13.7268 15.2268 13.1 16 13.1V11.9C14.5641 11.9 13.4 13.0641 13.4 14.5H14.6ZM16 13.1C16.7732 13.1 17.4 13.7268 17.4 14.5H18.6C18.6 13.0641 17.4359 11.9 16 11.9V13.1ZM13.4 7.5C13.4 8.2732 12.7732 8.9 12 8.9V10.1C13.4359 10.1 14.6 8.93594 14.6 7.5H13.4ZM12 8.9C11.2268 8.9 10.6 8.2732 10.6 7.5H9.4C9.4 8.93594 10.5641 10.1 12 10.1V8.9ZM10.6 7.5C10.6 6.7268 11.2268 6.1 12 6.1V4.9C10.5641 4.9 9.4 6.06406 9.4 7.5H10.6ZM12 6.1C12.7732 6.1 13.4 6.7268 13.4 7.5H14.6C14.6 6.06406 13.4359 4.9 12 4.9V6.1Z" fill="#28293D"/>
</svg>
