<svg width="24" height="24" viewBox="0 0 24 24" fill="none" xmlns="http://www.w3.org/2000/svg">
<path d="M6 20.5L5.40367 20.4337L5.4 20.4668V20.5H6ZM6 21H5.4V21.6H6V21ZM7.16667 10L6.57034 9.93374L7.16667 10ZM18 20.5H18.6V20.4668L18.5963 20.4337L18 20.5ZM18 21V21.6H18.6V21H18ZM17.3889 15L17.9852 14.9337V14.9337L17.3889 15ZM16.5707 7.63592L17.167 7.56966L16.5707 7.63592ZM8.107 6.79767L7.91726 6.22846L8.107 6.79767ZM9.9 3.1V6H11.1V3.1H9.9ZM10.3103 5.43079L7.91726 6.22846L8.29673 7.36688L10.6897 6.56921L10.3103 5.43079ZM5.4 20.5V21H6.6V20.5H5.4ZM6.01478 14.9337L5.40367 20.4337L6.59633 20.5663L7.20744 15.0663L6.01478 14.9337ZM6.83301 7.56966L6.57034 9.93374L7.763 10.0663L8.02567 7.70218L6.83301 7.56966ZM6.57034 9.93374L6.01478 14.9337L7.20744 15.0663L7.763 10.0663L6.57034 9.93374ZM12.9 3.1V6H14.1V3.1H12.9ZM13.3103 6.56921L15.7033 7.36688L16.0827 6.22846L13.6897 5.43079L13.3103 6.56921ZM17.4 20.5V21H18.6V20.5H17.4ZM6 21.6H18V20.4H6V21.6ZM18 19.9H6V21.1H18V19.9ZM16.7926 15.0663L17.4037 20.5663L18.5963 20.4337L17.9852 14.9337L16.7926 15.0663ZM17.3889 14.4H6.61111V15.6H17.3889V14.4ZM15.9743 7.70218L16.237 10.0663L17.4297 9.93374L17.167 7.56966L15.9743 7.70218ZM16.237 10.0663L16.7926 15.0663L17.9852 14.9337L17.4297 9.93374L16.237 10.0663ZM16.8333 9.4H7.16667V10.6H16.8333V9.4ZM10.6 3.6H13.4V2.4H10.6V3.6ZM13.5 5.4H10.5V6.6H13.5V5.4ZM15.7033 7.36688C15.8513 7.41621 15.9571 7.54711 15.9743 7.70218L17.167 7.56966C17.0981 6.9494 16.6748 6.42581 16.0827 6.22846L15.7033 7.36688ZM14.1 3.1C14.1 2.7134 13.7866 2.4 13.4 2.4V3.6C13.1239 3.6 12.9 3.37614 12.9 3.1H14.1ZM7.91726 6.22846C7.32521 6.42581 6.90193 6.9494 6.83301 7.56966L8.02567 7.70218C8.0429 7.54711 8.14872 7.41622 8.29673 7.36688L7.91726 6.22846ZM11.1 3.1C11.1 3.37614 10.8761 3.6 10.6 3.6V2.4C10.2134 2.4 9.9 2.7134 9.9 3.1H11.1Z" fill="#28293D"/>
</svg>
