<svg width="24" height="24" viewBox="0 0 24 24" fill="none" xmlns="http://www.w3.org/2000/svg">
<path d="M22.6 17V7H21.4V17H22.6ZM3 18.6H21V17.4H3V18.6ZM1.4 7V17H2.6V7H1.4ZM6 5.4H3V6.6H6V5.4ZM5.4 6V12H6.6V6H5.4ZM10 5.4H6V6.6H10V5.4ZM9.4 6V12H10.6V6H9.4ZM14 5.4H10V6.6H14V5.4ZM13.4 6V12H14.6V6H13.4ZM21 5.4H18V6.6H21V5.4ZM18 5.4H14V6.6H18V5.4ZM17.4 6V12H18.6V6H17.4ZM2.6 7C2.6 6.77909 2.77909 6.6 3 6.6V5.4C2.11634 5.4 1.4 6.11634 1.4 7H2.6ZM22.6 7C22.6 6.11634 21.8837 5.4 21 5.4V6.6C21.2209 6.6 21.4 6.77909 21.4 7H22.6ZM21.4 17C21.4 17.2209 21.2209 17.4 21 17.4V18.6C21.8837 18.6 22.6 17.8837 22.6 17H21.4ZM3 17.4C2.77909 17.4 2.6 17.2209 2.6 17H1.4C1.4 17.8837 2.11634 18.6 3 18.6V17.4Z" fill="#28293D"/>
</svg>
