<svg width="24" height="24" viewBox="0 0 24 24" fill="none" xmlns="http://www.w3.org/2000/svg">
<path d="M21.4 12C21.4 17.1915 17.1915 21.4 12 21.4V22.6C17.8542 22.6 22.6 17.8542 22.6 12H21.4ZM12 21.4C6.80852 21.4 2.6 17.1915 2.6 12H1.4C1.4 17.8542 6.14578 22.6 12 22.6V21.4ZM2.6 12C2.6 6.80852 6.80852 2.6 12 2.6V1.4C6.14578 1.4 1.4 6.14578 1.4 12H2.6ZM12 2.6C17.1915 2.6 21.4 6.80852 21.4 12H22.6C22.6 6.14578 17.8542 1.4 12 1.4V2.6ZM14.4 9.5C14.4 10.4516 13.4326 11.4 12 11.4V12.6C13.8811 12.6 15.6 11.3099 15.6 9.5H14.4ZM12 11.4C10.5674 11.4 9.6 10.4516 9.6 9.5H8.4C8.4 11.3099 10.1189 12.6 12 12.6V11.4ZM9.6 9.5C9.6 8.54844 10.5674 7.6 12 7.6V6.4C10.1189 6.4 8.4 7.69013 8.4 9.5H9.6ZM12 7.6C13.4326 7.6 14.4 8.54844 14.4 9.5H15.6C15.6 7.69013 13.8811 6.4 12 6.4V7.6ZM14.4 14.5C14.4 15.4516 13.4326 16.4 12 16.4V17.6C13.8811 17.6 15.6 16.3099 15.6 14.5H14.4ZM12 16.4C10.5674 16.4 9.6 15.4516 9.6 14.5H8.4C8.4 16.3099 10.1189 17.6 12 17.6V16.4ZM9.6 14.5C9.6 13.5484 10.5674 12.6 12 12.6V11.4C10.1189 11.4 8.4 12.6901 8.4 14.5H9.6ZM12 12.6C13.4326 12.6 14.4 13.5484 14.4 14.5H15.6C15.6 12.6901 13.8811 11.4 12 11.4V12.6ZM5.6 12C5.6 11.0173 5.82106 10.088 6.21559 9.25746L5.13167 8.74254C4.66233 9.73055 4.4 10.8355 4.4 12H5.6ZM6.21559 14.7425C5.82106 13.912 5.6 12.9827 5.6 12H4.4C4.4 13.1645 4.66233 14.2695 5.13167 15.2575L6.21559 14.7425ZM19.6 12C19.6 10.8355 19.3377 9.73055 18.8683 8.74254L17.7844 9.25746C18.1789 10.088 18.4 11.0173 18.4 12H19.6ZM18.8683 15.2575C19.3377 14.2695 19.6 13.1645 19.6 12H18.4C18.4 12.9827 18.1789 13.912 17.7844 14.7425L18.8683 15.2575Z" fill="#28293D"/>
</svg>
