<svg width="24" height="24" viewBox="0 0 24 24" fill="none" xmlns="http://www.w3.org/2000/svg">
<path d="M3.15205 15.1457L2.88957 14.6062V14.6062L3.15205 15.1457ZM20.8479 15.1457L20.5855 15.6853V15.6853L20.8479 15.1457ZM17.2286 15.2653L16.8798 14.7771L17.2286 15.2653ZM13.7608 15.2577L13.412 15.746L13.7608 15.2577ZM10.2392 15.2577L10.588 15.746H10.588L10.2392 15.2577ZM6.77142 15.2653L7.12017 14.7771V14.7771L6.77142 15.2653ZM3.15205 19.4489L2.88957 18.9093L3.15205 19.4489ZM20.8479 19.4489L20.5855 19.9884L20.8479 19.4489ZM17.2286 19.5684L16.8798 19.0802L17.2286 19.5684ZM13.7608 19.5608L13.412 20.0491L13.7608 19.5608ZM10.2392 19.5608L10.588 20.0491H10.588L10.2392 19.5608ZM6.77142 19.5684L7.12017 19.0802L6.77142 19.5684ZM2 16.1C2.46336 16.1 2.98584 15.8938 3.41453 15.6853L2.88957 14.6062C2.47675 14.807 2.16822 14.9 2 14.9V16.1ZM20.5855 15.6853C21.0142 15.8938 21.5366 16.1 22 16.1V14.9C21.8318 14.9 21.5233 14.807 21.1104 14.6062L20.5855 15.6853ZM17.5773 15.7536C18.4011 15.1651 19.5526 15.1828 20.5855 15.6853L21.1104 14.6062C19.8121 13.9746 18.1655 13.8587 16.8798 14.7771L17.5773 15.7536ZM13.412 15.746C14.6522 16.6318 16.3322 16.6429 17.5773 15.7536L16.8798 14.7771C16.0569 15.3649 14.9374 15.3608 14.1095 14.7695L13.412 15.746ZM10.588 15.746C11.4262 15.1472 12.5738 15.1472 13.412 15.746L14.1095 14.7695C12.854 13.8727 11.146 13.8727 9.89048 14.7695L10.588 15.746ZM6.42268 15.7536C7.66783 16.6429 9.34781 16.6318 10.588 15.746L9.89048 14.7695C9.06256 15.3608 7.94309 15.3649 7.12017 14.7771L6.42268 15.7536ZM3.41453 15.6853C4.44737 15.1828 5.59886 15.1651 6.42268 15.7536L7.12017 14.7771C5.83447 13.8587 4.18791 13.9746 2.88957 14.6062L3.41453 15.6853ZM2 20.4031C2.46336 20.4031 2.98584 20.1969 3.41453 19.9884L2.88957 18.9093C2.47675 19.1101 2.16822 19.2031 2 19.2031V20.4031ZM20.5855 19.9884C21.0142 20.1969 21.5366 20.4031 22 20.4031V19.2031C21.8318 19.2031 21.5233 19.1101 21.1104 18.9093L20.5855 19.9884ZM17.5773 20.0567C18.4011 19.4682 19.5526 19.4859 20.5855 19.9884L21.1104 18.9093C19.8121 18.2777 18.1655 18.1618 16.8798 19.0802L17.5773 20.0567ZM13.412 20.0491C14.6522 20.9349 16.3322 20.9461 17.5773 20.0567L16.8798 19.0802C16.0569 19.668 14.9374 19.664 14.1095 19.0726L13.412 20.0491ZM10.588 20.0491C11.4262 19.4503 12.5738 19.4503 13.412 20.0491L14.1095 19.0726C12.854 18.1758 11.146 18.1758 9.89048 19.0726L10.588 20.0491ZM6.42268 20.0567C7.66783 20.9461 9.34781 20.9349 10.588 20.0491L9.89048 19.0726C9.06256 19.664 7.94309 19.668 7.12017 19.0802L6.42268 20.0567ZM3.41453 19.9884C4.44737 19.4859 5.59886 19.4682 6.42268 20.0567L7.12017 19.0802C5.83447 18.1618 4.18791 18.2777 2.88957 18.9093L3.41453 19.9884Z" fill="#28293D"/>
<mask id="mask0_402_12605" style="mask-type:alpha" maskUnits="userSpaceOnUse" x="2" y="1" width="20" height="12">
<path d="M3.15205 11.4488C2.73129 11.6535 2.31579 11.8031 2 11.8031V1H22V11.8031C21.6842 11.8031 21.2687 11.6535 20.8479 11.4488C19.6824 10.8818 18.2833 10.815 17.2286 11.5684C16.1945 12.307 14.7948 12.2994 13.7608 11.5608C12.7139 10.8131 11.2861 10.8131 10.2392 11.5608C9.20519 12.2994 7.80546 12.307 6.77142 11.5684C5.71666 10.815 4.31764 10.8818 3.15205 11.4488Z" fill="white"/>
</mask>
<g mask="url(#mask0_402_12605)">
<path d="M16.0001 12C14.5 12 13.5 10.5 12 10.5C10.5 10.5 9.5 12 7.50005 12L9.75005 10L12.0001 8.00002L14.0001 10L16.0001 12Z" fill="black"/>
<path d="M10.15 6.14994L10.5742 5.72568V5.72568L10.15 6.14994ZM7.34847 4.43747L7.16433 5.00851L7.34847 4.43747ZM7.50005 12L7.10143 11.5516L5.92191 12.6L7.50006 12.6L7.50005 12ZM16.0001 12V12.6H17.4486L16.4243 11.5758L16.0001 12ZM9.75005 10L9.35143 9.55158L9.75005 10ZM14.0001 10L14.4243 9.57576L14.0001 10ZM10.5742 5.72568C9.71778 4.86922 8.67374 4.23439 7.53261 3.86642L7.16433 5.00851C8.1253 5.31839 9.00449 5.85299 9.7257 6.5742L10.5742 5.72568ZM12.4243 7.57576L10.5742 5.72568L9.7257 6.5742L11.5758 8.42429L12.4243 7.57576ZM11.6014 7.55158L9.35143 9.55158L10.1487 10.4485L12.3987 8.44847L11.6014 7.55158ZM9.35143 9.55158L7.10143 11.5516L7.89867 12.4485L10.1487 10.4485L9.35143 9.55158ZM16.4243 11.5758L14.4243 9.57576L13.5758 10.4243L15.5758 12.4243L16.4243 11.5758ZM14.4243 9.57576L12.4243 7.57576L11.5758 8.42429L13.5758 10.4243L14.4243 9.57576ZM5 4.77004C5.79188 4.77004 6.50872 4.79711 7.16433 5.00851L7.53261 3.86642C6.67981 3.59143 5.79302 3.57004 5 3.57004V4.77004ZM7.50006 12.6C8.66132 12.6 9.52548 12.1582 10.2248 11.7767C10.9607 11.3753 11.4363 11.1 12 11.1V9.9C11.0637 9.9 10.2893 10.3747 9.65019 10.7233C8.97455 11.0918 8.33873 11.4 7.50005 11.4L7.50006 12.6ZM12 11.1C12.5569 11.1 13.0407 11.3741 13.6913 11.7645C14.2907 12.1242 15.057 12.6 16.0001 12.6V11.4C15.4431 11.4 14.9593 11.1259 14.3087 10.7355C13.7093 10.3759 12.9431 9.9 12 9.9V11.1Z" fill="#28293D"/>
</g>
<mask id="path-5-inside-1_402_12605" fill="white">
<path d="M19 5.5C19 6.88071 17.8807 8 16.5 8C15.1193 8 14 6.88071 14 5.5C14 4.11929 15.1193 3 16.5 3C17.8807 3 19 4.11929 19 5.5Z"/>
</mask>
<path d="M19 5.5C19 6.88071 17.8807 8 16.5 8C15.1193 8 14 6.88071 14 5.5C14 4.11929 15.1193 3 16.5 3C17.8807 3 19 4.11929 19 5.5Z" fill="black"/>
<path d="M17.8 5.5C17.8 6.21797 17.218 6.8 16.5 6.8V9.2C18.5435 9.2 20.2 7.54345 20.2 5.5H17.8ZM16.5 6.8C15.782 6.8 15.2 6.21797 15.2 5.5H12.8C12.8 7.54345 14.4565 9.2 16.5 9.2V6.8ZM15.2 5.5C15.2 4.78203 15.782 4.2 16.5 4.2V1.8C14.4565 1.8 12.8 3.45655 12.8 5.5H15.2ZM16.5 4.2C17.218 4.2 17.8 4.78203 17.8 5.5H20.2C20.2 3.45655 18.5435 1.8 16.5 1.8V4.2Z" fill="#28293D" mask="url(#path-5-inside-1_402_12605)"/>
</svg>
