<svg width="24" height="24" viewBox="0 0 24 24" fill="none" xmlns="http://www.w3.org/2000/svg">
<path d="M3.49994 20.601L3.03869 20.9847L3.05338 21.0024L3.06938 21.0189L3.49994 20.601ZM8.35702 14.1429L7.87365 14.4984L8.35702 14.1429ZM9.99995 15.7453L10.3432 15.2532L9.99995 15.7453ZM3.14856 20.0495L2.7243 19.6252L2.43022 19.9193L2.60239 20.2979L3.14856 20.0495ZM9.54115 15.3965L9.92358 14.9341L9.54115 15.3965ZM4.01389 20.9237L3.81779 21.4908L4.17265 21.6135L4.43815 21.348L4.01389 20.9237ZM20.3999 10C20.3999 13.5346 17.5346 16.4 13.9999 16.4V17.6C18.1973 17.6 21.5999 14.1974 21.5999 10H20.3999ZM7.59995 10C7.59995 6.46538 10.4653 3.6 13.9999 3.6V2.4C9.80258 2.4 6.39994 5.80264 6.39994 10H7.59995ZM13.9999 3.6C17.5346 3.6 20.3999 6.46538 20.3999 10H21.5999C21.5999 5.80264 18.1973 2.4 13.9999 2.4V3.6ZM8.84038 13.7875C8.0605 12.727 7.59995 11.4182 7.59995 10H6.39994C6.39994 11.6825 6.94737 13.2389 7.87365 14.4984L8.84038 13.7875ZM13.9999 16.4C12.6394 16.4 11.3796 15.9761 10.3432 15.2532L9.65669 16.2374C10.8879 17.0963 12.386 17.6 13.9999 17.6V16.4ZM9.5209 14.5715C9.38173 14.4351 9.24876 14.2924 9.12246 14.1439L8.20836 14.9214C8.3582 15.0975 8.51594 15.2668 8.68102 15.4285L9.5209 14.5715ZM9.12246 14.1439C9.02433 14.0285 8.93023 13.9096 8.84038 13.7875L7.87365 14.4984C7.98029 14.6434 8.09195 14.7845 8.20836 14.9214L9.12246 14.1439ZM3.9612 20.2173C3.83014 20.0598 3.74735 19.9168 3.69473 19.8011L2.60239 20.2979C2.69792 20.5079 2.83711 20.7424 3.03869 20.9847L3.9612 20.2173ZM8.24115 14.1084L2.7243 19.6252L3.57282 20.4737L9.08967 14.9569L8.24115 14.1084ZM10.3432 15.2532C10.1989 15.1525 10.0589 15.0461 9.92358 14.9341L9.15873 15.8588C9.31928 15.9916 9.4854 16.1179 9.65669 16.2374L10.3432 15.2532ZM9.92358 14.9341C9.78428 14.8189 9.64993 14.6979 9.5209 14.5715L8.68102 15.4285C8.83408 15.5785 8.99346 15.7221 9.15873 15.8588L9.92358 14.9341ZM4.20998 20.3567C4.1072 20.3211 4.01148 20.2666 3.93051 20.1831L3.06938 21.0189C3.30383 21.2605 3.57106 21.4055 3.81779 21.4908L4.20998 20.3567ZM9.11689 14.9722L3.58962 20.4995L4.43815 21.348L9.96542 15.8207L9.11689 14.9722ZM18.4 20C18.4 20.8837 19.1163 21.6 20 21.6V20.4C19.7791 20.4 19.6 20.2209 19.6 20H18.4ZM20 21.6C20.8837 21.6 21.6 20.8837 21.6 20H20.4C20.4 20.2209 20.2209 20.4 20 20.4V21.6ZM21.6 20C21.6 19.1163 20.8837 18.4 20 18.4V19.6C20.2209 19.6 20.4 19.7791 20.4 20H21.6ZM20 18.4C19.1163 18.4 18.4 19.1163 18.4 20H19.6C19.6 19.7791 19.7791 19.6 20 19.6V18.4ZM8.6767 14.5757L3.07568 20.1768L3.92421 21.0253L9.52523 15.4243L8.6767 14.5757Z" fill="#28293D"/>
</svg>
