<svg width="24" height="24" viewBox="0 0 24 24" fill="none" xmlns="http://www.w3.org/2000/svg">
<g clip-path="url(#clip0_402_12642)">
<path d="M8.13977 10.2113L7.55013 10.3222L8.13977 10.2113ZM19.4395 21.1468C18.5023 22.0841 16.9827 22.0841 16.0454 21.1468L15.1969 21.9953C16.6028 23.4012 18.8822 23.4012 20.2881 21.9953L19.4395 21.1468ZM16.0454 21.1468C15.1082 20.2095 15.1082 18.6899 16.0454 17.7527L15.1969 16.9042C13.791 18.31 13.791 20.5894 15.1969 21.9953L16.0454 21.1468ZM16.0454 17.7527C16.9827 16.8154 18.5023 16.8154 19.4395 17.7527L20.2881 16.9042C18.8822 15.4983 16.6028 15.4983 15.1969 16.9042L16.0454 17.7527ZM19.4395 17.7527C20.3768 18.6899 20.3768 20.2095 19.4395 21.1468L20.2881 21.9953C21.694 20.5894 21.694 18.31 20.2881 16.9042L19.4395 17.7527ZM10.7421 4.67121C11.9259 3.48748 13.3516 2.80085 14.681 2.62744C16.0096 2.45415 17.2079 2.79314 18.0253 3.61055L18.8739 2.76203C17.7387 1.62682 16.1403 1.22694 14.5258 1.43752C12.9121 1.64801 11.2483 2.46801 9.8936 3.82269L10.7421 4.67121ZM18.0253 3.61055C18.8428 4.42797 19.1817 5.62628 19.0084 6.95488C18.835 8.2843 18.1484 9.71002 16.9647 10.8938L17.8132 11.7423C19.1679 10.3876 19.9879 8.72378 20.1984 7.11009C20.4089 5.49559 20.0091 3.89723 18.8739 2.76203L18.0253 3.61055ZM8.83294 11.9544L6.71162 14.0757L7.56015 14.9243L9.68147 12.8029L8.83294 11.9544ZM6.71162 14.0757L1.76188 19.0255L2.6104 19.874L7.56015 14.9243L6.71162 14.0757ZM9.68147 11.9544C9.18225 11.4552 8.86481 10.8196 8.72942 10.1003L7.55013 10.3222C7.72568 11.255 8.14641 12.1164 8.83294 12.8029L9.68147 11.9544ZM8.72942 10.1003C8.41635 8.43692 9.0863 6.32705 10.7421 4.67121L9.8936 3.82269C8.01411 5.70218 7.15006 8.1967 7.55013 10.3222L8.72942 10.1003ZM7.58422 14.8987C8.21453 14.19 9.31018 12.2626 8.71936 10.0561L7.56019 10.3665C8.0099 12.046 7.16006 13.57 6.68755 14.1013L7.58422 14.8987ZM16.9647 10.8938C15.3088 12.5496 13.199 13.2195 11.5356 12.9065L11.3136 14.0858C13.4392 14.4858 15.9337 13.6218 17.8132 11.7423L16.9647 10.8938ZM11.5356 12.9065C10.8163 12.7711 10.1807 12.4536 9.68147 11.9544L8.83294 12.8029C9.51948 13.4895 10.3809 13.9102 11.3136 14.0858L11.5356 12.9065ZM7.53463 14.9483C8.0659 14.4758 9.58993 13.626 11.2694 14.0757L11.5798 12.9165C9.37327 12.3257 7.44584 13.4214 6.73715 14.0517L7.53463 14.9483Z" fill="#28293D"/>
</g>
<defs>
<clipPath id="clip0_402_12642">
<rect width="24" height="24" fill="white"/>
</clipPath>
</defs>
</svg>
