<svg width="24" height="24" viewBox="0 0 24 24" fill="none" xmlns="http://www.w3.org/2000/svg">
<path d="M12 3C10.1499 3 8.4301 3.55827 7 4.51555M12 3V6M12 3C16.7226 3 20.5956 6.63744 20.9703 11.2635M12 12L17 14.8125M12 12L7 14.8861M12 12V6M4.20404 16.5C3.43827 15.1762 3 13.6393 3 12C3 8.87958 4.58803 6.13007 7 4.51555M4.20404 16.5C5.08899 18.0298 6.4113 19.275 8 20.0645M4.20404 16.5L7 14.8861M20 16.5L17 14.8125M17 14.8125L8 20.0645M8 20.0645C9.20496 20.6633 10.5632 21 12 21C16.9706 21 21 16.9706 21 12C21 11.752 20.99 11.5064 20.9703 11.2635M7 14.8861V4.51555M12 6L20.9703 11.2635" stroke="#28293D" stroke-width="1.2"/>
</svg>
