<svg width="24" height="24" viewBox="0 0 24 24" fill="none" xmlns="http://www.w3.org/2000/svg">
<path d="M21 7H21.6V6.4H21V7ZM21 10V10.6H21.6V10H21ZM5.4 8.5C5.4 8.99706 4.99706 9.4 4.5 9.4V10.6C5.6598 10.6 6.6 9.6598 6.6 8.5H5.4ZM4.5 9.4C4.00294 9.4 3.6 8.99706 3.6 8.5H2.4C2.4 9.6598 3.3402 10.6 4.5 10.6V9.4ZM3.6 8.5C3.6 8.00294 4.00294 7.6 4.5 7.6V6.4C3.3402 6.4 2.4 7.3402 2.4 8.5H3.6ZM4.5 7.6C4.99706 7.6 5.4 8.00294 5.4 8.5H6.6C6.6 7.3402 5.6598 6.4 4.5 6.4V7.6ZM15.4 12C15.4 14.4301 13.4301 16.4 11 16.4V17.6C14.0928 17.6 16.6 15.0928 16.6 12H15.4ZM11 16.4C8.56995 16.4 6.6 14.4301 6.6 12H5.4C5.4 15.0928 7.90721 17.6 11 17.6V16.4ZM6.6 12C6.6 9.56995 8.56995 7.6 11 7.6V6.4C7.90721 6.4 5.4 8.90721 5.4 12H6.6ZM11 7.6H21V6.4H11V7.6ZM20.4 7V10H21.6V7H20.4ZM21 9.4H18.5V10.6H21V9.4ZM16.6 12C16.6 11.5894 16.7661 11.2608 17.0633 11.0221C17.3709 10.7749 17.8535 10.6 18.5 10.6V9.4C17.6465 9.4 16.8791 9.63085 16.3117 10.0866C15.7339 10.5508 15.4 11.2222 15.4 12H16.6ZM11.9 12C11.9 12.4971 11.4971 12.9 11 12.9V14.1C12.1598 14.1 13.1 13.1598 13.1 12H11.9ZM11 12.9C10.5029 12.9 10.1 12.4971 10.1 12H8.9C8.9 13.1598 9.8402 14.1 11 14.1V12.9ZM10.1 12C10.1 11.5029 10.5029 11.1 11 11.1V9.9C9.8402 9.9 8.9 10.8402 8.9 12H10.1ZM11 11.1C11.4971 11.1 11.9 11.5029 11.9 12H13.1C13.1 10.8402 12.1598 9.9 11 9.9V11.1Z" fill="#28293D"/>
</svg>
